<svg
  width="60"
  height="60"
  viewBox="0 0 60 60"
  fill="currentColor"
  xmlns="http://www.w3.org/2000/svg"
>
  <path
    fill-rule="evenodd"
    clip-rule="evenodd"
    d="M30 6.75C31.6569 6.75 33 8.09315 33 9.75V27L50.25 27C51.9069 27 53.25 28.3431 53.25 30C53.25 31.6569 51.9069 33 50.25 33L33 33V50.25C33 51.9069 31.6569 53.25 30 53.25C28.3431 53.25 27 51.9069 27 50.25V33L9.75 33C8.09315 33 6.75 31.6569 6.75 30C6.75 28.3431 8.09315 27 9.75 27L27 27V9.75C27 8.09315 28.3431 6.75 30 6.75Z"
  />
</svg>
