<svg
  width="60"
  height="60"
  viewBox="0 0 60 60"
  fill="currentColor"
  xmlns="http://www.w3.org/2000/svg"
>
  <path
    fill-rule="evenodd"
    clip-rule="evenodd"
    d="M30 6.00049C32.2091 6.00049 34 7.79135 34 10.0005V26L49.9995 26C52.2087 26 53.9995 27.7909 53.9995 30C53.9995 32.2091 52.2086 34 49.9995 34L34 34V49.9995C34 52.2086 32.2091 53.9995 30 53.9995C27.7909 53.9995 26 52.2087 26 49.9995L26 34L10.0005 34C7.79135 34 6.00049 32.2091 6.00049 30C6.00049 27.7909 7.79135 26 10.0005 26L26 26V10.0005C26 7.79135 27.7909 6.00049 30 6.00049Z"
  />
</svg>
