<svg
  width="60"
  height="60"
  viewBox="0 0 60 60"
  fill="currentColor"
  xmlns="http://www.w3.org/2000/svg"
>
  <path
    d="M30 2.75C14.9502 2.75 2.75 14.9502 2.75 30C2.75 45.0498 14.9502 57.25 30 57.25C45.0498 57.25 57.25 45.0498 57.25 30C57.25 14.9502 45.0498 2.75 30 2.75Z"
  />
  <path
    d="M32.25 19C32.25 17.7574 31.2426 16.75 30 16.75C28.7574 16.75 27.75 17.7574 27.75 19V27.75L19 27.75C17.7574 27.75 16.75 28.7574 16.75 30C16.75 31.2426 17.7574 32.25 19 32.25L27.75 32.25V41C27.75 42.2426 28.7574 43.25 30 43.25C31.2426 43.25 32.25 42.2426 32.25 41V32.25L41 32.25C42.2426 32.25 43.25 31.2426 43.25 30C43.25 28.7574 42.2426 27.75 41 27.75L32.25 27.75V19Z"
    fill="white"
  />
</svg>
