<svg
  xmlns="http://www.w3.org/2000/svg"
  width="60"
  height="60"
  viewBox="0 0 60 60"
  fill="currentColor"
>
  <path
    d="M31 4.75C32.2426 4.75 33.25 5.75736 33.25 7C33.25 8.24264 32.2426 9.25 31 9.25H19.7002C17.7029 9.25 16.3395 9.25174 15.2852 9.33789C14.2575 9.42188 13.7223 9.57474 13.3438 9.76758C12.45 10.223 11.723 10.95 11.2676 11.8438C11.0747 12.2223 10.9219 12.7575 10.8379 13.7852C10.7517 14.8395 10.75 16.2029 10.75 18.2002V43.7998C10.75 45.7971 10.7517 47.1605 10.8379 48.2148C10.9219 49.2425 11.0747 49.7777 11.2676 50.1562L11.4512 50.4834C11.9076 51.2275 12.5617 51.8339 13.3438 52.2324L13.4932 52.3027C13.8633 52.4624 14.3856 52.5886 15.2852 52.6621C16.3395 52.7483 17.7029 52.75 19.7002 52.75H39.2998C41.2971 52.75 42.6605 52.7483 43.7148 52.6621C44.7425 52.5781 45.2777 52.4253 45.6563 52.2324L45.9834 52.0488C46.7275 51.5924 47.3339 50.9383 47.7324 50.1562C47.9253 49.7777 48.0781 49.2425 48.1621 48.2148C48.2483 47.1605 48.25 45.7971 48.25 43.7998V28C48.25 26.7574 49.2574 25.75 50.5 25.75C51.7426 25.75 52.75 26.7574 52.75 28V43.7998C52.75 45.7229 52.7521 47.3009 52.6475 48.5811C52.5407 49.8873 52.3121 51.0806 51.7422 52.1992C50.9107 53.8311 49.6145 55.1768 48.0215 56.0693L47.6992 56.2422C46.5806 56.8121 45.3873 57.0407 44.0811 57.1475C42.8009 57.2521 41.2229 57.25 39.2998 57.25H19.7002C17.7771 57.25 16.1991 57.2521 14.9189 57.1475C13.6944 57.0474 12.5693 56.8398 11.5117 56.3447L11.3008 56.2422C9.66897 55.4107 8.32323 54.1145 7.43067 52.5215L7.25782 52.1992C6.68793 51.0806 6.45928 49.8873 6.35254 48.5811C6.24795 47.3009 6.25 45.7229 6.25 43.7998V18.2002C6.25 16.2771 6.24795 14.6991 6.35254 13.4189C6.45928 12.1127 6.68793 10.9194 7.25782 9.80078C8.14464 8.06028 9.56029 6.64464 11.3008 5.75781C12.4194 5.18793 13.6127 4.95927 14.9189 4.85254C16.1991 4.74795 17.7771 4.75 19.7002 4.75H31ZM29.2305 41.7617C30.3648 41.8771 31.25 42.8352 31.25 44C31.25 45.1648 30.3648 46.1229 29.2305 46.2383L29 46.25H20C18.7574 46.25 17.75 45.2426 17.75 44C17.75 42.7574 18.7574 41.75 20 41.75H29L29.2305 41.7617ZM39.2305 31.7617C40.3648 31.8771 41.25 32.8352 41.25 34C41.25 35.1648 40.3648 36.1229 39.2305 36.2383L39 36.25H20C18.7574 36.25 17.75 35.2426 17.75 34C17.75 32.7574 18.7574 31.75 20 31.75H39L39.2305 31.7617ZM48 1.75C49.1648 1.75 50.1229 2.63516 50.2383 3.76953L50.25 4V8.75H55L55.2305 8.76172C56.3648 8.87714 57.25 9.83517 57.25 11C57.25 12.1648 56.3648 13.1229 55.2305 13.2383L55 13.25H50.25V18C50.25 19.2426 49.2426 20.25 48 20.25C46.7574 20.25 45.75 19.2426 45.75 18V13.25H41C39.7574 13.25 38.75 12.2426 38.75 11C38.75 9.75736 39.7574 8.75 41 8.75H45.75V4L45.7617 3.76953C45.8771 2.63516 46.8352 1.75 48 1.75Z"
    fill="currentColor"
  />
</svg>
