<svg
  width="60"
  height="60"
  viewBox="0 0 60 60"
  fill="currentColor"
  xmlns="http://www.w3.org/2000/svg"
>
  <path
    fill-rule="evenodd"
    clip-rule="evenodd"
    d="M45.75 18C45.75 19.2426 46.7574 20.25 48 20.25C49.2426 20.25 50.25 19.2426 50.25 18V13.25H55C56.2426 13.25 57.25 12.2426 57.25 11C57.25 9.75736 56.2426 8.75 55 8.75H50.25V4C50.25 2.75736 49.2426 1.75 48 1.75C46.7574 1.75 45.75 2.75736 45.75 4V8.75H41C39.7574 8.75 38.75 9.75736 38.75 11C38.75 12.2426 39.7574 13.25 41 13.25H45.75V18ZM20.5 4.75L20.3132 4.74997C19.1005 4.74969 18.2473 4.7495 17.496 4.86094C13.03 5.52341 9.52341 9.03002 8.86094 13.496C8.7495 14.2473 8.74969 15.1005 8.74997 16.3131L8.75 16.5C8.75 17.7426 9.75736 18.75 11 18.75C12.2426 18.75 13.25 17.7426 13.25 16.5C13.25 15.026 13.2561 14.5345 13.3122 14.1563C13.6839 11.651 15.651 9.68386 18.1563 9.31223C18.5345 9.25614 19.026 9.25 20.5 9.25H31.5263C32.769 9.25 33.7763 8.24264 33.7763 7C33.7763 5.75736 32.769 4.75 31.5263 4.75H20.5ZM52.25 28C52.25 26.7574 51.2426 25.75 50 25.75C48.7574 25.75 47.75 26.7574 47.75 28V42.2C47.75 44.4773 47.7482 46.05 47.6485 47.2712C47.5509 48.466 47.3707 49.1249 47.1233 49.6104C46.572 50.6924 45.6924 51.572 44.6104 52.1233C44.1249 52.3707 43.466 52.5509 42.2712 52.6485C41.05 52.7482 39.4773 52.75 37.2 52.75H20.5C19.026 52.75 18.5345 52.7439 18.1563 52.6878C15.651 52.3161 13.6839 50.349 13.3122 47.8437C13.2561 47.4655 13.25 46.974 13.25 45.5C13.25 44.2574 12.2426 43.25 11 43.25C9.75736 43.25 8.75 44.2574 8.75 45.5L8.74997 45.6868C8.74969 46.8995 8.7495 47.7527 8.86094 48.504C9.52341 52.97 13.03 56.4766 17.496 57.1391C18.2473 57.2505 19.1005 57.2503 20.313 57.25L20.5 57.25H37.2H37.2951C39.4546 57.25 41.2116 57.25 42.6376 57.1335C44.1108 57.0132 45.4277 56.7573 46.6534 56.1328C48.5821 55.1501 50.1501 53.5821 51.1328 51.6534C51.7573 50.4277 52.0132 49.1108 52.1335 47.6376C52.25 46.2116 52.25 44.4546 52.25 42.2951V42.2V28ZM4.75 26C4.75 24.7574 5.75736 23.75 7 23.75H15C16.2426 23.75 17.25 24.7574 17.25 26C17.25 27.2426 16.2426 28.25 15 28.25H7C5.75736 28.25 4.75 27.2426 4.75 26ZM7 33.75C5.75736 33.75 4.75 34.7574 4.75 36C4.75 37.2426 5.75736 38.25 7 38.25H15C16.2426 38.25 17.25 37.2426 17.25 36C17.25 34.7574 16.2426 33.75 15 33.75H7Z"
  />
</svg>
