<svg
  width="60"
  height="60"
  viewBox="0 0 60 60"
  fill="currentColor"
  xmlns="http://www.w3.org/2000/svg"
>
  <path
    fill-rule="evenodd"
    clip-rule="evenodd"
    d="M30 2.75C31.2426 2.75 32.25 3.75736 32.25 5V27.75H55.0001C56.2427 27.75 57.2501 28.7574 57.2501 30C57.2501 37.5243 54.1975 44.3398 49.2687 49.2687L49.2583 49.279C44.3303 54.2018 37.519 57.25 30 57.25C14.9502 57.25 2.75 45.0498 2.75 30C2.75 14.9502 14.9502 2.75 30 2.75ZM7.25 30C7.25 18.1948 16.2417 8.48969 27.75 7.35986V30C27.75 30.6265 28.0061 31.1933 28.4193 31.6012L44.4174 47.5994C40.4916 50.8198 35.4728 52.75 30 52.75C17.4355 52.75 7.25 42.5645 7.25 30ZM35.432 32.25H52.6403C52.1896 36.8444 50.373 41.0362 47.5994 44.4174L35.432 32.25Z"
  />
  <path
    d="M45.0455 5.61455C45.418 4.79515 46.582 4.79515 46.9545 5.61455L49.277 10.723L54.3854 13.0455C55.2048 13.418 55.2048 14.582 54.3854 14.9545L49.277 17.277L46.9545 22.3854C46.582 23.2048 45.418 23.2049 45.0455 22.3854L42.723 17.277L37.6146 14.9545C36.7952 14.582 36.7952 13.418 37.6146 13.0455L42.723 10.723L45.0455 5.61455Z"
  />
</svg>
