<svg
  width="60"
  height="60"
  viewBox="0 0 60 60"
  fill="currentColor"
  xmlns="http://www.w3.org/2000/svg"
>
  <path
    d="M45.0455 4.61455C45.418 3.79515 46.582 3.79515 46.9545 4.61455L49.277 9.72304L54.3854 12.0455C55.2048 12.418 55.2048 13.582 54.3854 13.9545L49.277 16.277L46.9545 21.3854C46.582 22.2048 45.418 22.2049 45.0455 21.3854L42.723 16.277L37.6146 13.9545C36.7952 13.582 36.7952 12.418 37.6146 12.0455L42.723 9.72304L45.0455 4.61455Z"
  />
  <path
    fill-rule="evenodd"
    clip-rule="evenodd"
    d="M33 41C33 36.5817 36.5817 33 41 33H48C52.4183 33 56 36.5817 56 41V48C56 52.4183 52.4183 56 48 56H41C36.5817 56 33 52.4183 33 48V41ZM41 37.5H48C49.933 37.5 51.5 39.067 51.5 41V48C51.5 49.933 49.933 51.5 48 51.5H41C39.067 51.5 37.5 49.933 37.5 48V41C37.5 39.067 39.067 37.5 41 37.5Z"
  />
  <path
    fill-rule="evenodd"
    clip-rule="evenodd"
    d="M16 56C22.6274 56 28 50.6274 28 44C28 37.3726 22.6274 32 16 32C9.37258 32 4 37.3726 4 44C4 50.6274 9.37258 56 16 56ZM16 51.5C20.1421 51.5 23.5 48.1421 23.5 44C23.5 39.8579 20.1421 36.5 16 36.5C11.8579 36.5 8.5 39.8579 8.5 44C8.5 48.1421 11.8579 51.5 16 51.5Z"
  />
  <path
    fill-rule="evenodd"
    clip-rule="evenodd"
    d="M12.0357 7C13.5753 4.33333 17.4243 4.33334 18.9639 7L27.1912 21.25C28.7308 23.9167 26.8063 27.25 23.7271 27.25H7.27256C4.19336 27.25 2.26887 23.9167 3.80847 21.25L12.0357 7ZM8.1386 22.75L15.4998 10L22.861 22.75H8.1386Z"
  />
</svg>
