<svg
  width="60"
  height="60"
  viewBox="0 0 60 60"
  fill="currentColor"
  xmlns="http://www.w3.org/2000/svg"
>
  <path
    d="M53.5436 17.6995C53.069 17.4677 52.8648 17.9091 52.5872 18.1335C52.4934 18.2071 52.4125 18.3027 52.3334 18.3873C51.6399 19.1304 50.8306 19.6159 49.775 19.5571C48.2283 19.4725 46.9095 19.958 45.7436 21.1425C45.4952 19.6821 44.6712 18.8103 43.4188 18.2512C42.7623 17.9606 42.0982 17.67 41.6404 17.0374C41.3185 16.5886 41.232 16.0883 41.0701 15.5954C40.9689 15.2975 40.8659 14.9922 40.5239 14.9407C40.1523 14.8818 40.0071 15.1945 39.8617 15.4556C39.277 16.5224 39.0525 17.6995 39.0728 18.8913C39.1242 21.5691 40.2553 23.7025 42.4992 25.2218C42.7549 25.3947 42.821 25.5711 42.74 25.825C42.5875 26.3473 42.4054 26.855 42.2436 27.3773C42.1424 27.7121 41.9897 27.7856 41.633 27.6385C40.4007 27.1236 39.3357 26.3621 38.3959 25.4387C36.7996 23.8938 35.3559 22.1872 33.5552 20.8519C33.1322 20.5392 32.7111 20.2486 32.2732 19.9727C30.4358 18.185 32.5143 16.7174 32.9942 16.5445C33.4981 16.3642 33.1689 15.7389 31.543 15.7462C29.9191 15.7536 28.4312 16.298 26.5368 17.0227C26.2592 17.133 25.9686 17.2139 25.6687 17.2765C23.9491 16.9528 22.1633 16.8792 20.2965 17.0889C16.7836 17.4825 13.977 19.1451 11.9134 21.9847C9.43601 25.3947 8.85299 29.2717 9.5666 33.3179C10.317 37.5774 12.4891 41.1086 15.8291 43.8675C19.2904 46.7257 23.2779 48.1271 27.8261 47.8585C30.5886 47.7003 33.6656 47.3289 37.1343 44.3898C38.0097 44.8239 38.9274 44.9968 40.4522 45.1292C41.6257 45.2395 42.7549 45.0704 43.6303 44.89C45.0004 44.5996 44.9049 43.3304 44.4102 43.095C40.3934 41.2228 41.2742 41.9842 40.4723 41.3699C42.5138 38.9496 45.5908 36.4372 46.7937 28.3007C46.8875 27.6532 46.8065 27.2486 46.7937 26.7226C46.7864 26.4062 46.8581 26.2812 47.2222 26.2444C48.2283 26.1303 49.2049 25.8544 50.1024 25.358C52.7049 23.9343 53.7532 21.5986 54.0014 18.7956C54.0383 18.3689 53.9941 17.9239 53.5436 17.6995ZM30.8664 42.9221C26.9728 39.8581 25.0857 38.8501 24.306 38.8944C23.5775 38.9347 23.7082 39.7698 23.8681 40.3143C24.0355 40.8512 24.2544 41.2228 24.5615 41.6936C24.773 42.0062 24.9184 42.4733 24.35 42.8191C23.0957 43.599 20.9163 42.5581 20.8133 42.5065C18.277 41.0132 16.1564 39.0377 14.6612 36.3378C13.2192 33.7373 12.3806 30.949 12.2426 27.9731C12.2058 27.2522 12.4173 26.9983 13.131 26.8697C14.0708 26.6968 15.0419 26.6601 15.9817 26.7961C19.9544 27.3773 23.3366 29.1576 26.1708 31.9717C27.7894 33.5791 29.0143 35.4956 30.2759 37.3678C31.6167 39.3579 33.0605 41.2522 34.8978 42.8044C35.5451 43.3489 36.0638 43.7645 36.5586 44.0698C35.0653 44.2354 32.5712 44.2721 30.8664 42.9221ZM32.7312 30.9049C32.7312 30.5848 32.9868 30.3311 33.3087 30.3311C33.3804 30.3311 33.4467 30.3458 33.5055 30.3678C33.5846 30.3972 33.6582 30.4414 33.7153 30.5075C33.8181 30.607 33.8771 30.7541 33.8771 30.9049C33.8771 31.2249 33.6215 31.4788 33.3013 31.4788C32.9795 31.4788 32.7312 31.2249 32.7312 30.9049ZM38.5264 33.8844C38.1551 34.0352 37.7835 34.1676 37.4268 34.1823C36.8731 34.2081 36.268 33.9836 35.9387 33.7079C35.4293 33.2811 35.0653 33.042 34.9106 32.2916C34.8462 31.9717 34.8831 31.4788 34.94 31.1955C35.0726 30.5848 34.9253 30.1949 34.4969 29.8382C34.1456 29.5476 33.7023 29.4704 33.2132 29.4704C33.0311 29.4704 32.8636 29.3894 32.7386 29.3231C32.5344 29.2201 32.367 28.9664 32.5271 28.6538C32.5785 28.5543 32.8269 28.308 32.8857 28.2637C33.5479 27.885 34.3129 28.0101 35.021 28.2933C35.6775 28.5617 36.1723 29.0546 36.8859 29.7499C37.616 30.5923 37.7467 30.8277 38.1624 31.4566C38.4897 31.9532 38.7896 32.4608 38.9937 33.042C39.1169 33.4024 38.957 33.7004 38.5264 33.8844Z"
    fill="#4D6BFE"
  />
</svg>
