<svg
  width="60"
  height="60"
  viewBox="0 0 60 60"
  fill="currentColor"
  xmlns="http://www.w3.org/2000/svg"
>
  <path
    d="M22.5654 13.7704C22.6814 13.4259 22.9025 13.1266 23.1978 12.9146C23.493 12.7027 23.8473 12.5888 24.2108 12.5891H35.1123L23.7967 46.1188C23.6806 46.4627 23.4596 46.7615 23.1647 46.9732C22.8698 47.1848 22.5159 47.2986 22.1529 47.2985H13.6686C13.3928 47.2989 13.121 47.2336 12.8756 47.1079C12.6301 46.9822 12.4182 46.7999 12.2574 46.5759C12.0965 46.352 11.9914 46.0929 11.9507 45.8202C11.9099 45.5475 11.9348 45.269 12.0233 45.0079L22.5654 13.7704Z"
    fill="url(#paint0_linear_19228_17873)"
  />
  <path
    d="M39.9953 35.1501H22.8125C22.653 35.1507 22.4973 35.1992 22.3656 35.2892C22.2339 35.3793 22.1323 35.5068 22.0739 35.6553C22.0155 35.8037 22.003 35.9663 22.038 36.1219C22.073 36.2776 22.1539 36.4191 22.2703 36.5283L33.3109 46.833C33.6328 47.133 34.0563 47.2986 34.4953 47.2986H44.2234L39.9953 35.1501Z"
    fill="#0078D4"
  />
  <path
    d="M35.1125 12.5891H22.9641L11.25 47.2985H23.3984L25.8922 39.9079L33.8109 47.2985H44.225L39.9953 35.15H27.4984L35.1125 12.5891Z"
    fill="url(#paint1_linear_19228_17873)"
  />
  <path
    d="M38.114 13.7704C37.9981 13.4262 37.7772 13.127 37.4823 12.9151C37.1874 12.7031 36.8334 12.5891 36.4702 12.5891H24.2671H24.3218C25.0671 12.5891 25.728 13.0641 25.9655 13.7704L36.5093 45.0079C36.5977 45.2689 36.6226 45.5472 36.5819 45.8198C36.5413 46.0924 36.4363 46.3514 36.2756 46.5753C36.115 46.7992 35.9032 46.9816 35.658 47.1074C35.4128 47.2331 35.1411 47.2986 34.8655 47.2985H34.678H47.014C47.2896 47.2986 47.5612 47.2331 47.8064 47.1074C48.0517 46.9816 48.2634 46.7992 48.4241 46.5753C48.5847 46.3514 48.6897 46.0924 48.7304 45.8198C48.771 45.5472 48.7461 45.2689 48.6577 45.0079L38.114 13.7704Z"
    fill="url(#paint2_linear_19228_17873)"
  />
  <defs>
    <linearGradient
      id="paint0_linear_19228_17873"
      x1="24.1358"
      y1="13.7907"
      x2="12.8154"
      y2="47.2344"
      gradientUnits="userSpaceOnUse"
    >
      <stop stop-color="#114A8B" />
      <stop offset="1" stop-color="#0669BC" />
    </linearGradient>
    <linearGradient
      id="paint1_linear_19228_17873"
      x1="33.1906"
      y1="35.1594"
      x2="30.5063"
      y2="36.075"
      gradientUnits="userSpaceOnUse"
    >
      <stop stop-opacity="0.3" />
      <stop offset="0.071" stop-opacity="0.2" />
      <stop offset="0.321" stop-opacity="0.1" />
      <stop offset="0.623" stop-opacity="0.05" />
      <stop offset="1" stop-opacity="0" />
    </linearGradient>
    <linearGradient
      id="paint2_linear_19228_17873"
      x1="31.314"
      y1="13.7907"
      x2="43.739"
      y2="46.8969"
      gradientUnits="userSpaceOnUse"
    >
      <stop stop-color="#3CCBF4" />
      <stop offset="1" stop-color="#2892DF" />
    </linearGradient>
  </defs>
</svg>
