<svg
  width="60"
  height="60"
  viewBox="0 0 60 60"
  fill="currentColor"
  xmlns="http://www.w3.org/2000/svg"
>
  <path
    d="M48.3333 30.434C48.3333 29.0798 48.2118 27.7777 47.9861 26.5277H30V33.9235H40.2778C39.8264 36.302 38.4722 38.3159 36.441 39.6701V44.4791H42.6389C46.25 41.1458 48.3333 36.2499 48.3333 30.434Z"
    fill="#4285F4"
  />
  <path
    d="M30.0003 49.0974C35.1565 49.0974 39.4794 47.396 42.6392 44.4793L36.4412 39.6703C34.7399 40.8161 32.5697 41.5106 30.0003 41.5106C25.035 41.5106 20.8162 38.1599 19.3058 33.646H12.9517V38.5766C16.094 44.8092 22.535 49.0974 30.0003 49.0974Z"
    fill="#34A853"
  />
  <path
    d="M19.3056 33.6285C18.9237 32.4827 18.698 31.2674 18.698 30.0001C18.698 28.7327 18.9237 27.5174 19.3056 26.3716V21.441H12.9514C11.6494 24.0105 10.9028 26.9098 10.9028 30.0001C10.9028 33.0903 11.6494 35.9897 12.9514 38.5591L17.8994 34.7049L19.3056 33.6285Z"
    fill="#FBBC05"
  />
  <path
    d="M30.0003 18.5069C32.8128 18.5069 35.3128 19.4791 37.3093 21.3541L42.7781 15.8853C39.4621 12.7951 35.1565 10.9027 30.0003 10.9027C22.535 10.9027 16.094 15.1909 12.9517 21.4409L19.3058 26.3715C20.8162 21.8576 25.035 18.5069 30.0003 18.5069Z"
    fill="#EA4335"
  />
</svg>
