<svg
  width="60"
  height="60"
  viewBox="0 0 60 60"
  fill="currentColor"
  xmlns="http://www.w3.org/2000/svg"
>
  <path
    fill-rule="evenodd"
    clip-rule="evenodd"
    d="M30.3181 11.9699C32.5942 9.41296 36.9498 10.9563 36.9498 14.4556V26.3605H41.2431C44.4688 26.3605 46.3019 30.1413 44.0886 32.6163L44.0884 32.6165L29.6693 48.7364C29.6687 48.7371 29.6682 48.7377 29.6676 48.7384C27.3913 51.2951 23.0361 49.7517 23.0361 46.2525V34.3476H18.7428C15.5217 34.3476 13.7201 30.5638 15.8893 28.1008L15.8974 28.0916L30.3165 11.9717C30.317 11.9711 30.3175 11.9705 30.3181 11.9699ZM33.3772 13.9296C33.123 13.8352 32.8781 13.8878 32.6985 14.0897L32.6954 14.0932L18.2786 30.2106C17.9751 30.5603 18.1933 31.1601 18.7428 31.1601H24.6298C25.51 31.1601 26.2236 31.8736 26.2236 32.7538V46.2525C26.2236 46.4957 26.355 46.6844 26.6086 46.7785C26.8628 46.8729 27.1077 46.8203 27.2873 46.6184L27.2904 46.6149L41.7126 30.4915C42.0141 30.1543 41.8277 29.548 41.2431 29.548H35.356C34.4758 29.548 33.7623 28.8345 33.7623 27.9543V14.4556C33.7623 14.2124 33.6309 14.0237 33.3772 13.9296Z"
  />
</svg>
