<svg
  width="60"
  height="60"
  viewBox="0 0 60 60"
  fill="currentColor"
  xmlns="http://www.w3.org/2000/svg"
>
  <path
    fill-rule="evenodd"
    clip-rule="evenodd"
    d="M22.3222 9.54391C22.7272 9.70328 23.0928 9.96578 23.4247 10.3127C23.9778 10.8864 24.4447 11.7077 24.8009 12.6808C25.159 13.6595 25.3915 14.7433 25.4797 15.8308C26.6602 15.1629 27.9703 14.7563 29.3215 14.6383L29.4172 14.6308C31.0484 14.4995 32.6609 14.7939 34.0672 15.5195C34.2565 15.6189 34.4422 15.7258 34.624 15.8383C34.7178 14.7714 34.9465 13.712 35.299 12.7558C35.6553 11.7808 36.1222 10.9614 36.6734 10.3858C36.9815 10.0525 37.3583 9.79022 37.7778 9.61703C38.2597 9.42953 38.7715 9.39578 39.2703 9.53828C40.0222 9.75203 40.6672 10.2283 41.1753 10.9202C41.6403 11.552 41.989 12.362 42.2272 13.3333C42.6584 15.0845 42.7334 17.3889 42.4428 20.1677L42.5422 20.2427L42.5909 20.2783C44.0103 21.3583 44.9984 22.8977 45.5215 24.6845C46.3372 27.4727 45.9265 30.6002 44.5203 32.3495L44.4865 32.3889L44.4903 32.3945C45.2722 33.8233 45.7465 35.3327 45.8478 36.8945L45.8515 36.9508C45.9715 38.9477 45.4765 40.9577 44.3253 42.932L44.3122 42.9508L44.3309 42.9958C45.2159 45.1652 45.4934 47.3495 45.1522 49.532L45.1409 49.6052C45.088 49.924 44.9109 50.2088 44.6483 50.3972C44.3858 50.5856 44.0592 50.6622 43.7403 50.6102C43.5824 50.5855 43.4309 50.5299 43.2944 50.4466C43.158 50.3633 43.0394 50.2539 42.9453 50.1246C42.8513 49.9954 42.7836 49.8489 42.7463 49.6934C42.709 49.538 42.7027 49.3768 42.7278 49.2189C43.0409 47.282 42.7465 45.3395 41.8278 43.3633C41.7421 43.1797 41.704 42.9774 41.7171 42.7752C41.7302 42.573 41.7941 42.3774 41.9028 42.2064L41.9103 42.1952C43.0428 40.4627 43.5115 38.7639 43.4103 37.0952C43.324 35.6345 42.8009 34.2002 41.9103 32.8333C41.7371 32.5675 41.6754 32.2443 41.7385 31.9335C41.8017 31.6226 41.9846 31.3491 42.2478 31.172L42.2647 31.1608C42.7203 30.8627 43.1403 30.1014 43.3522 29.0608C43.5859 27.8303 43.5249 26.5619 43.174 25.3595C42.7897 24.047 42.0865 22.952 41.1022 22.2039C39.9865 21.3527 38.509 20.942 36.6397 21.0602C36.3952 21.0761 36.1516 21.0183 35.9404 20.8943C35.7291 20.7702 35.5599 20.5857 35.4547 20.3645C34.8659 19.1177 34.0072 18.2252 32.9365 17.672C31.9087 17.159 30.7579 16.9434 29.614 17.0495C27.2797 17.2352 25.2209 18.5514 24.6078 20.2108C24.5211 20.4443 24.365 20.6458 24.1606 20.7882C23.9562 20.9306 23.7132 21.0072 23.464 21.0077C21.4634 21.0114 19.9147 21.4802 18.7822 22.3258C17.8034 23.057 17.1359 24.0789 16.7834 25.3033C16.4644 26.4558 16.4208 27.6671 16.6559 28.8395C16.8659 29.8858 17.2765 30.752 17.7472 31.2189L17.7622 31.232C18.1597 31.6202 18.244 32.2258 17.9665 32.7039C17.2915 33.8702 16.7872 35.6083 16.7047 37.2789C16.6109 39.1877 17.0534 40.8452 18.0528 42.0339L18.0828 42.0695C18.2336 42.2453 18.3306 42.4608 18.3622 42.6902C18.3938 42.9196 18.3586 43.1533 18.2609 43.3633C17.1809 45.6808 16.849 47.5858 17.2072 49.0858C17.2715 49.3977 17.2116 49.7224 17.0402 49.9908C16.8688 50.2593 16.5994 50.4502 16.2894 50.523C15.9793 50.5958 15.6531 50.5447 15.3801 50.3807C15.1072 50.2166 14.909 49.9525 14.8278 49.6445C14.3722 47.7358 14.6815 45.5495 15.7147 43.0858L15.7409 43.0202L15.7259 42.9977C15.2182 42.2476 14.8392 41.4181 14.6047 40.5433L14.5953 40.5077C14.3107 39.4162 14.1987 38.2869 14.2634 37.1608C14.3459 35.4545 14.7847 33.707 15.4297 32.3045L15.4522 32.2558L15.4484 32.252C14.899 31.4683 14.4922 30.4652 14.2672 29.3552L14.2578 29.3102C13.9478 27.7619 14.0075 26.1623 14.4322 24.6414C14.9234 22.9258 15.889 21.452 17.3122 20.387C17.4247 20.3027 17.5428 20.2183 17.6609 20.1395C17.3628 17.3402 17.4378 15.0208 17.8709 13.2583C18.109 12.287 18.4597 11.477 18.9247 10.8452C19.4309 10.1552 20.0759 9.67891 20.8278 9.46328C21.3265 9.32078 21.8403 9.35266 22.3222 9.54203V9.54391ZM30.0397 26.5877C31.7947 26.5877 33.4147 27.1745 34.6259 28.1908C35.8072 29.1789 36.5103 30.5064 36.5103 31.8283C36.5103 33.4933 35.749 34.7908 34.3859 35.6195C33.2234 36.3227 31.6653 36.6639 29.8803 36.6639C27.9884 36.6639 26.3722 36.1783 25.2059 35.2877C24.049 34.4064 23.4003 33.1689 23.4003 31.8283C23.4003 30.5027 24.1465 29.1714 25.3803 28.1795C26.6328 27.1727 28.2865 26.5877 30.0397 26.5877ZM30.0397 28.2677C28.7389 28.2563 27.4726 28.6859 26.4472 29.4864C25.5828 30.1802 25.0934 31.052 25.0934 31.8302C25.0934 32.6327 25.4872 33.3845 26.2372 33.9564C27.0903 34.607 28.3447 34.9839 29.8803 34.9839C31.3784 34.9839 32.6422 34.7083 33.5028 34.1852C34.3709 33.6602 34.8153 32.8989 34.8153 31.8283C34.8153 31.0352 34.354 30.1595 33.5347 29.4733C32.6272 28.7139 31.3972 28.2677 30.0397 28.2677ZM31.2809 30.5364L31.2884 30.5439C31.5134 30.827 31.4665 31.2377 31.1834 31.4627L30.6359 31.8939V32.7302C30.6349 32.9163 30.5602 33.0945 30.428 33.2256C30.2958 33.3567 30.1171 33.43 29.9309 33.4295C29.7448 33.43 29.566 33.3567 29.4338 33.2256C29.3017 33.0945 29.2269 32.9163 29.2259 32.7302V31.8677L28.7178 31.4589C28.6508 31.4052 28.595 31.3387 28.5538 31.2634C28.5126 31.188 28.4867 31.1053 28.4777 31.0198C28.4686 30.9344 28.4765 30.8481 28.501 30.7657C28.5255 30.6834 28.566 30.6067 28.6203 30.5402C28.731 30.4054 28.8903 30.3198 29.0638 30.3019C29.2372 30.284 29.4107 30.3353 29.5465 30.4445L29.9497 30.767L30.3622 30.4408C30.4976 30.3338 30.6694 30.284 30.841 30.3018C31.0126 30.3197 31.1705 30.4039 31.2809 30.5364ZM21.8309 26.9383C22.7272 26.9383 23.4565 27.6695 23.4565 28.5714C23.457 29.0037 23.2859 29.4185 22.9808 29.7248C22.6756 30.031 22.2614 30.2035 21.829 30.2045C21.3974 30.203 20.9839 30.0305 20.6792 29.7248C20.3745 29.419 20.2034 29.0049 20.2034 28.5733C20.2024 28.141 20.3731 27.7259 20.6779 27.4194C20.9827 27.1128 21.3986 26.9398 21.8309 26.9383ZM38.1547 26.9383C39.0547 26.9383 39.7822 27.6695 39.7822 28.5714C39.7827 29.0037 39.6115 29.4185 39.3064 29.7248C39.0012 30.031 38.587 30.2035 38.1547 30.2045C37.723 30.203 37.3095 30.0305 37.0048 29.7248C36.7001 29.419 36.529 29.0049 36.529 28.5733C36.528 28.141 36.6987 27.7259 37.0035 27.4194C37.3083 27.1128 37.7224 26.9398 38.1547 26.9383ZM21.4503 11.8127L21.4447 11.8164C21.2275 11.9109 21.042 12.0658 20.9103 12.2627L20.9009 12.2739C20.6422 12.6283 20.4172 13.1495 20.2484 13.8339C19.9297 15.1314 19.8434 16.892 20.0159 19.0502C20.8222 18.8102 21.7015 18.6602 22.6484 18.6058L22.6672 18.6039L22.7028 18.5402C22.789 18.3864 22.8809 18.2383 22.9803 18.092C23.2109 16.6464 23.0215 14.9195 22.5059 13.5095C22.2547 12.827 21.949 12.2908 21.6565 11.9852C21.5962 11.9216 21.5289 11.865 21.4559 11.8164L21.4503 11.8127ZM38.6515 11.8877L38.6478 11.8895C38.5748 11.9381 38.5076 11.9947 38.4472 12.0583C38.1547 12.3639 37.8472 12.902 37.5978 13.5845C37.054 15.0733 36.8722 16.9145 37.1665 18.407L37.2753 18.5889L37.2903 18.6152H37.3465C38.2771 18.6154 39.2028 18.7493 40.0953 19.0127C40.2565 16.9052 40.1665 15.182 39.8553 13.9089C39.6865 13.2245 39.4615 12.7033 39.2009 12.3489L39.1934 12.3377C39.062 12.1401 38.8765 11.9845 38.659 11.8895H38.6515V11.8877Z"
  />
</svg>
