<svg
  width="60"
  height="60"
  viewBox="0 0 60 60"
  fill="currentColor"
  xmlns="http://www.w3.org/2000/svg"
>
  <mask
    id="mask0_18998_25558"
    style="mask-type:luminance"
    maskUnits="userSpaceOnUse"
    x="0"
    y="0"
    width="60"
    height="60"
  >
    <path
      d="M59.9676 0.00830078H0.0507812V59.9251H59.9676V0.00830078Z"
      fill="white"
    />
  </mask>
  <g mask="url(#mask0_18998_25558)">
    <mask
      id="mask1_18998_25558"
      style="mask-type:luminance"
      maskUnits="userSpaceOnUse"
      x="9"
      y="9"
      width="42"
      height="41"
    >
      <path d="M50.1552 9.98267H9.86621V49.912H50.1552V9.98267Z" fill="white" />
    </mask>
    <g mask="url(#mask1_18998_25558)">
      <path
        d="M25.3188 24.5169V20.7236C25.3188 20.4041 25.4387 20.1644 25.7181 20.0049L33.3449 15.6127C34.383 15.0138 35.6209 14.7344 36.8984 14.7344C41.6898 14.7344 44.7247 18.4479 44.7247 22.4008C44.7247 22.6802 44.7247 22.9997 44.6847 23.3191L36.7786 18.6872C36.2995 18.4079 35.8202 18.4079 35.3411 18.6872L25.3188 24.5169ZM43.1273 39.2909V30.2267C43.1273 29.6676 42.8876 29.2683 42.4086 28.9889L32.3864 23.1592L35.6606 21.2824C35.94 21.1229 36.1797 21.1229 36.4591 21.2824L44.0858 25.6746C46.2821 26.9525 47.7593 29.6676 47.7593 32.3027C47.7593 35.3373 45.9626 38.1325 43.1273 39.2905V39.2909ZM22.963 31.3051L19.6888 29.3885C19.4095 29.229 19.2895 28.9893 19.2895 28.6698V19.8854C19.2895 15.6131 22.5637 12.3786 26.996 12.3786C28.6733 12.3786 30.2302 12.9377 31.5482 13.9359L23.6821 18.488C23.2031 18.7674 22.9634 19.1667 22.9634 19.7259V31.3054L22.963 31.3051ZM30.0107 35.3777L25.3188 32.7425V27.1526L30.0107 24.5173L34.7021 27.1526V32.7425L30.0107 35.3777ZM33.0253 47.5165C31.3481 47.5165 29.7912 46.9573 28.4732 45.9592L36.3392 41.407C36.8183 41.1277 37.0579 40.7284 37.0579 40.1692V28.5897L40.3723 30.5062C40.6516 30.6657 40.7715 30.9054 40.7715 31.2249V40.0093C40.7715 44.2816 37.4572 47.5161 33.0253 47.5161V47.5165ZM23.5619 38.6122L15.9352 34.2201C13.7389 32.9421 12.2617 30.2271 12.2617 27.5919C12.2617 24.5173 14.0985 21.7622 16.9333 20.6042V29.708C16.9333 30.2672 17.1731 30.6664 17.6521 30.9459L27.6346 36.7354L24.3604 38.6122C24.0811 38.7718 23.8413 38.7718 23.5619 38.6122ZM23.123 45.1606C18.6109 45.1606 15.2967 41.7666 15.2967 37.574C15.2967 37.2545 15.3367 36.9351 15.3764 36.6156L23.2425 41.1677C23.7215 41.4471 24.2009 41.4471 24.6799 41.1677L34.7021 35.3781V39.1715C34.7021 39.4909 34.5823 39.7306 34.3029 39.8901L26.6762 44.2824C25.638 44.8813 24.4001 45.1606 23.1225 45.1606H23.123ZM33.0253 49.912C37.8568 49.912 41.8895 46.4782 42.8082 41.9261C47.2802 40.7681 50.1552 36.5755 50.1552 32.3032C50.1552 29.508 48.9574 26.793 46.8012 24.8364C47.0008 23.9978 47.1206 23.1592 47.1206 22.321C47.1206 16.6112 42.4887 12.3385 37.1381 12.3385C36.0602 12.3385 35.022 12.498 33.9838 12.8576C32.1867 11.1006 29.7111 9.98267 26.996 9.98267C22.1645 9.98267 18.1319 13.4164 17.2132 17.9685C12.7411 19.1265 9.86621 23.3191 9.86621 27.5915C9.86621 30.3867 11.064 33.1016 13.2202 35.0583C13.0206 35.8968 12.9007 36.7354 12.9007 37.5737C12.9007 43.2835 17.5326 47.5561 22.8832 47.5561C23.9611 47.5561 24.9994 47.3966 26.0376 47.037C27.8343 48.794 30.3099 49.912 33.0253 49.912Z"
        fill="currentColor"
      />
    </g>
  </g>
</svg>
