<svg
  width="60"
  height="60"
  viewBox="0 0 60 60"
  fill="currentColor"
  xmlns="http://www.w3.org/2000/svg"
>
  <path
    d="M11.7188 29.128C11.7188 22.7399 15.1819 16.8393 20.8012 13.6443C23.5706 12.0745 26.6995 11.2494 29.8828 11.2494C33.0661 11.2494 36.195 12.0745 38.9644 13.6443C44.5837 16.8393 48.0469 22.7399 48.0469 29.128C48.0469 39.0018 39.915 47.0062 29.8837 47.0062C19.8525 47.0062 11.7188 38.9999 11.7188 29.128Z"
    fill="#FF9D0B"
  />
  <path
    d="M29.8838 45.1613C38.8781 45.1613 46.1719 37.9819 46.1719 29.1282C46.1719 20.2744 38.8781 13.0969 29.8838 13.0969C20.8875 13.0969 13.5938 20.2744 13.5938 29.1282C13.5938 37.9819 20.8875 45.1594 29.8838 45.1594V45.1613Z"
    fill="#FFD21E"
  />
  <path
    d="M29.7654 35.8366C34.3722 35.8366 35.8591 31.7941 35.8591 29.7185C35.8591 28.6385 35.1222 28.9798 33.941 29.5516C32.8497 30.0823 31.3816 30.8173 29.771 30.8173C26.3997 30.8173 23.6772 27.6429 23.6772 29.7185C23.6772 31.7941 25.1585 35.8366 29.771 35.8366H29.7654Z"
    fill="#FF323D"
  />
  <path
    d="M35.1751 24.7687C35.7751 24.9712 36.0095 26.1806 36.6132 25.8656C37.4513 25.4287 37.9388 24.5381 37.8488 23.6081C37.8021 23.1509 37.6205 22.718 37.327 22.3644C37.0335 22.0108 36.6414 21.7525 36.2007 21.6224C35.7583 21.4886 35.2864 21.4872 34.8432 21.6185C34.4001 21.7497 34.0051 22.0079 33.707 22.3612C33.1032 23.0812 33.0001 24.0862 33.4445 24.9112C33.7313 25.4418 34.6407 24.5793 35.1788 24.7631L35.1751 24.7687ZM24.137 24.7687C23.537 24.9712 23.297 26.1806 22.697 25.8656C22.2897 25.6552 21.9546 25.3278 21.7347 24.9256C21.5149 24.5233 21.4203 24.0645 21.4632 23.6081C21.5532 22.6799 22.2038 21.8962 23.1095 21.6224C23.5519 21.4886 24.0238 21.4872 24.4669 21.6185C24.9101 21.7497 25.3051 22.0079 25.6032 22.3612C26.207 23.0812 26.3101 24.0862 25.8657 24.9112C25.5807 25.4418 24.6657 24.5793 24.1313 24.7631L24.137 24.7687ZM26.237 34.7812C26.4868 34.2837 26.8363 33.8429 27.2637 33.4862C27.6911 33.1294 28.1872 32.8644 28.7213 32.7074C28.8526 32.6699 28.9913 32.8199 29.132 33.0281L29.492 33.6018C29.6213 33.7893 29.7526 33.9299 29.8838 33.9299C30.0226 33.9299 30.1651 33.7912 30.302 33.6074L30.6863 33.0412C30.8363 32.8349 30.9807 32.6887 31.1251 32.7318C32.132 33.0468 32.9738 33.7368 33.4688 34.6556C35.2163 33.2981 35.8595 31.0837 35.8595 29.7187C35.8595 28.7662 35.2857 28.9199 34.3407 29.3624L33.1857 29.9174C32.2107 30.3674 31.0332 30.8174 29.7657 30.8174C28.4982 30.8174 27.3245 30.3674 26.3476 29.9174L25.2432 29.3868C24.2682 28.9218 23.672 28.7456 23.672 29.7187C23.672 31.0368 24.272 33.1518 25.8976 34.5187L26.2351 34.7812H26.237Z"
    fill="#3A3B45"
  />
  <path
    d="M40.8974 26.9362C41.096 26.9379 41.293 26.9005 41.4772 26.826C41.6613 26.7516 41.829 26.6415 41.9705 26.5022C42.1121 26.3629 42.2248 26.197 42.3023 26.0141C42.3797 25.8312 42.4203 25.6348 42.4218 25.4362C42.4218 24.6093 41.7393 23.9362 40.8974 23.9362C40.6989 23.9347 40.5021 23.9724 40.3182 24.0469C40.1343 24.1215 39.9669 24.2316 39.8255 24.3709C39.6841 24.5102 39.5715 24.6759 39.4942 24.8587C39.4169 25.0415 39.3764 25.2378 39.3749 25.4362C39.3749 26.265 40.0574 26.9362 40.8974 26.9362ZM19.1024 26.9362C19.3009 26.9377 19.4977 26.9001 19.6816 26.8255C19.8655 26.7509 20.0329 26.6408 20.1743 26.5015C20.3157 26.3623 20.4283 26.1965 20.5056 26.0137C20.5829 25.8309 20.6234 25.6347 20.6249 25.4362C20.6249 24.6093 19.9424 23.9362 19.1024 23.9362C18.9038 23.9345 18.7068 23.9719 18.5226 24.0464C18.3385 24.1209 18.1708 24.2309 18.0293 24.3702C17.8877 24.5095 17.775 24.6754 17.6975 24.8583C17.6201 25.0412 17.5795 25.2376 17.578 25.4362C17.578 26.265 18.2605 26.9362 19.1024 26.9362ZM15.9655 32.0118C15.2061 32.0118 14.5311 32.3156 14.0586 32.8743C13.6556 33.3625 13.4349 33.9757 13.4343 34.6087C13.1389 34.5212 12.8329 34.4745 12.5249 34.47C11.7993 34.47 11.143 34.7437 10.678 35.2368C10.2649 35.6564 10.0036 36.2019 9.9357 36.7868C9.86776 37.3717 9.99704 37.9625 10.303 38.4656C9.8899 38.7969 9.59573 39.2537 9.46489 39.7668C9.35239 40.1831 9.23989 41.0606 9.83989 41.9531C9.61477 42.2921 9.4805 42.6833 9.44996 43.0891C9.41943 43.4949 9.49365 43.9017 9.66552 44.2706C10.1118 45.27 11.1843 46.0668 13.2093 46.905L13.6593 47.085C15.0993 47.6475 16.4211 48.0075 16.4305 48.0112C18.0993 48.4668 19.8205 48.7143 21.553 48.75C24.2999 48.75 26.2649 47.9193 27.3936 46.2862C29.1374 43.77 28.9724 41.4581 26.8799 39.2306L26.5968 38.9418C25.2993 37.6593 24.4311 35.7731 24.253 35.3568C23.8874 34.1287 22.9218 32.7637 21.3243 32.7637C20.4618 32.7768 19.6574 33.2006 19.168 33.8981C18.6993 33.3168 18.2399 32.8612 17.8274 32.5968C17.2746 32.2296 16.629 32.0267 15.9655 32.0118ZM44.0343 32.0118C44.7936 32.0118 45.4724 32.3156 45.9411 32.8743C46.3461 33.3656 46.5655 33.9768 46.5655 34.6087C46.8618 34.5206 47.1693 34.4756 47.4786 34.47C48.2061 34.47 48.8624 34.7437 49.3255 35.2368C49.7387 35.6564 49.9999 36.2019 50.0678 36.7868C50.1358 37.3717 50.0065 37.9625 49.7005 38.4656C50.113 38.7993 50.4074 39.2568 50.5349 39.7668C50.6474 40.1831 50.7599 41.0606 50.1599 41.9531C50.6174 42.6468 50.683 43.5206 50.3343 44.2706C49.888 45.27 48.8155 46.0668 46.7924 46.905L46.3443 47.085C44.9005 47.6475 43.5786 48.0075 43.5693 48.0112C41.9005 48.4668 40.1793 48.7143 38.4468 48.75C35.6999 48.75 33.7349 47.9193 32.6061 46.2862C30.8624 43.77 31.0274 41.4581 33.1199 39.2306L33.403 38.9418C34.7061 37.6593 35.5724 35.7731 35.7505 35.3568C36.1161 34.1287 37.078 32.7637 38.6755 32.7637C39.538 32.7768 40.3424 33.2006 40.8318 33.8981C41.3005 33.3168 41.7599 32.8612 42.178 32.5968C42.6355 32.2931 43.1586 32.1 43.7043 32.0343L44.0343 32.0118Z"
    fill="#FF9D0B"
  />
  <path
    d="M25.847 45.2473C27.137 43.3835 27.0433 41.9848 25.2752 40.2467C23.5033 38.5067 22.472 35.9567 22.472 35.9567C22.472 35.9567 22.0877 34.4792 21.212 34.6179C20.3345 34.7567 19.6933 36.9617 21.5308 38.3135C23.3627 39.6654 21.1652 40.5823 20.4564 39.3148C19.7533 38.0454 17.822 34.7848 16.8189 34.1567C15.8214 33.5342 15.1183 33.8792 15.3527 35.171C15.587 36.4592 19.772 39.5773 19.3652 40.2467C18.9564 40.9254 17.522 39.4592 17.522 39.4592C17.522 39.4592 13.037 35.4373 12.0564 36.4873C11.0814 37.5335 12.8027 38.411 15.2439 39.8679C17.6964 41.3267 17.8877 41.7148 17.5408 42.2679C17.1902 42.821 11.7845 38.3304 11.2783 40.2373C10.772 42.1329 16.7964 42.6823 16.4252 43.9985C16.0502 45.311 12.1783 41.516 11.3908 42.9917C10.5939 44.4729 16.8527 46.2129 16.9033 46.226C18.9189 46.7435 24.0527 47.8367 25.847 45.2473ZM34.157 45.2473C32.8689 43.3835 32.957 41.9848 34.7289 40.2467C36.497 38.5067 37.5283 35.9567 37.5283 35.9567C37.5283 35.9567 37.9127 34.4792 38.7939 34.6179C39.6658 34.7567 40.307 36.9617 38.4752 38.3135C36.6377 39.6654 38.8408 40.5823 39.5439 39.3148C40.2508 38.0454 42.182 34.7848 43.1814 34.1567C44.1789 33.5342 44.8877 33.8792 44.6477 35.171C44.4133 36.4592 40.232 39.5773 40.6408 40.2467C41.0439 40.9254 42.4783 39.4592 42.4783 39.4592C42.4783 39.4592 46.9689 35.4373 47.9439 36.4873C48.9189 37.5335 47.2033 38.411 44.7564 39.8679C42.3039 41.3267 42.1164 41.7148 42.4595 42.2679C42.8102 42.821 48.2158 38.3304 48.722 40.2373C49.2283 42.1329 43.2095 42.6823 43.5789 43.9985C43.9539 45.311 47.822 41.516 48.6133 42.9917C49.4064 44.4729 43.1533 46.2129 43.1008 46.226C41.0814 46.7435 35.9477 47.8367 34.157 45.2473Z"
    fill="#FFD21E"
  />
</svg>
