<svg
  width="60"
  height="60"
  viewBox="0 0 60 60"
  fill="currentColor"
  xmlns="http://www.w3.org/2000/svg"
>
  <path
    fill-rule="evenodd"
    clip-rule="evenodd"
    d="M30.0647 12.0312C23.1414 11.9683 17.4866 17.4218 17.4219 24.2158C17.359 31.0116 22.9114 36.5639 29.8347 36.6268H34.1832V32.016H30.0647C25.7397 32.0663 22.1944 28.6631 22.1441 24.4152C22.092 20.171 25.56 16.6923 29.885 16.642H30.0647C34.3898 16.642 37.8955 20.083 37.9081 24.329V35.6583C37.9081 39.8666 34.415 43.295 30.1402 43.3471C28.1005 43.3327 26.1463 42.526 24.6903 41.0974L21.3643 44.3641C23.6851 46.644 26.799 47.9359 30.0522 47.9687H30.2175C37.051 47.8681 42.5404 42.4289 42.5782 35.7212V24.0415C42.4111 17.3553 36.8587 12.0312 30.0647 12.0312Z"
    fill="currentColor"
  />
</svg>
