<svg
  width="60"
  height="60"
  viewBox="0 0 60 60"
  fill="currentColor"
  xmlns="http://www.w3.org/2000/svg"
>
  <path
    d="M15.7134 15.6667H21.4284V21.3801H15.7134V15.6667ZM38.57 15.6667H44.2867V21.3801H38.57V15.6667Z"
    fill="#FFD700"
  />
  <path
    d="M15.7134 21.38H27.1417V27.095H15.715L15.7134 21.38ZM32.8567 21.38H44.285V27.095H32.8567V21.38Z"
    fill="#FFAF00"
  />
  <path d="M15.7134 27.0966H44.2867V32.8099H15.7134V27.0966Z" fill="#FF8205" />
  <path
    d="M15.7134 32.8101H21.4284V38.5234H15.7134V32.8101ZM27.1434 32.8101H32.8584V38.5234H27.1434V32.8101ZM38.57 32.8101H44.2867V38.5234H38.57V32.8101Z"
    fill="#FA500F"
  />
  <path
    d="M10 38.5232H27.1433V44.2382H10V38.5232ZM32.8567 38.5232H50V44.2382H32.8567V38.5232Z"
    fill="#E10500"
  />
</svg>
