<svg
  width="60"
  height="60"
  viewBox="0 0 60 60"
  fill="currentColor"
  xmlns="http://www.w3.org/2000/svg"
>
  <path
    d="M31.9688 36.587H37.7437C38.145 36.587 38.4731 36.9188 38.4731 37.3257V40.7382C39.1687 40.9097 39.7864 41.3101 40.2271 41.8749C40.6678 42.4397 40.9059 43.1362 40.9031 43.8526C40.9031 45.6207 39.4875 47.0551 37.7437 47.0551C35.9981 47.0551 34.5825 45.6207 34.5825 43.8526C34.5825 42.3395 35.6213 41.0701 37.0144 40.7363V38.0645H31.9706V46.8076C31.9711 46.9346 31.939 47.0596 31.8772 47.1706C31.8155 47.2815 31.7263 47.3748 31.6181 47.4413L26.5744 50.5182C26.4599 50.5882 26.3283 50.6249 26.1942 50.6243C26.06 50.6236 25.9287 50.5856 25.815 50.5145L16.5788 44.7282C16.4722 44.6613 16.3844 44.5684 16.3237 44.4582C16.263 44.3479 16.2314 44.2241 16.2319 44.0982V38.0626L11.6175 35.3813C11.5126 35.3205 11.4242 35.2348 11.3601 35.1319C11.296 35.0289 11.2582 34.9117 11.25 34.7907V34.7401V25.1363C11.25 24.8738 11.3869 24.6301 11.61 24.4988L16.2319 21.7576V15.8401C16.2319 15.5982 16.3481 15.3732 16.5413 15.2363L16.5806 15.2101L25.8188 9.48384C25.9332 9.41255 26.0654 9.37476 26.2003 9.37476C26.3352 9.37476 26.4674 9.41255 26.5819 9.48384L31.6256 12.6245C31.7322 12.6914 31.82 12.7843 31.8807 12.8945C31.9414 13.0048 31.973 13.1286 31.9725 13.2545V21.7501H39.2025V18.1557C38.5066 17.9841 37.8887 17.5835 37.4479 17.0183C37.0072 16.4531 36.7693 15.7562 36.7725 15.0395C36.7725 13.2713 38.1881 11.837 39.9319 11.837C41.6775 11.837 43.0913 13.2713 43.0913 15.0395C43.0913 16.5526 42.0544 17.822 40.6613 18.1557V22.4888C40.662 22.5853 40.6437 22.6809 40.6074 22.7703C40.5711 22.8596 40.5176 22.9409 40.4498 23.0096C40.3821 23.0782 40.3015 23.1328 40.2126 23.1702C40.1237 23.2076 40.0283 23.2271 39.9319 23.2276H31.9725V26.6138H44.3925C44.552 25.9167 44.9427 25.294 45.501 24.847C46.0593 24.4001 46.7523 24.1551 47.4675 24.152C49.2112 24.152 50.6269 25.5845 50.6269 27.3526C50.6269 29.1207 49.2131 30.5551 47.4675 30.5551C46.7521 30.5519 46.0588 30.3066 45.5005 29.8593C44.9422 29.4119 44.5517 28.7888 44.3925 28.0913H31.9688V31.7232H41.2556L42.9712 33.9357C43.4491 33.6563 43.9927 33.5094 44.5462 33.5101C46.2919 33.5101 47.7056 34.9426 47.7056 36.7107C47.7056 38.4788 46.2919 39.9132 44.5462 39.9132C42.8025 39.9132 41.3869 38.4788 41.3869 36.7107C41.3869 36.062 41.5781 35.4582 41.9044 34.9538L40.5469 33.2007H31.9688V36.587ZM26.1994 10.9801L22.3687 13.3538V18.9188H20.91V14.2576L17.6906 16.2545V21.7763L21.6469 24.3263L25.71 21.7688V17.5013H27.1687V22.1813C27.1687 22.4363 27.0375 22.6745 26.8237 22.8095L22.4306 25.5713V29.4732L25.0969 31.3651L24.2606 32.5763L21.6244 30.7051L18.7556 32.5895L17.9625 31.352L20.9719 29.3738V25.6426L16.9463 23.0438L12.7088 25.5563V28.6988L16.4062 26.4695L17.1525 27.7388L12.7088 30.4182V34.3126L16.77 36.6713L21.0263 34.1063L21.7706 35.3757L17.6906 37.8338V43.6876L21.2081 45.8907L25.6425 43.217L26.3888 44.4882L22.6069 46.7682L26.2031 49.0201L30.5119 46.3895V35.552L21.5906 40.9763L20.8406 39.7107L30.5119 33.8307V13.667L26.1994 10.9801ZM37.7437 42.1313C37.5186 42.1326 37.296 42.1782 37.0885 42.2656C36.881 42.353 36.6928 42.4805 36.5347 42.6407C36.3765 42.8009 36.2516 42.9908 36.1669 43.1994C36.0822 43.408 36.0395 43.6312 36.0413 43.8563C36.0413 44.807 36.8025 45.5776 37.7437 45.5776C37.9686 45.5761 38.1909 45.5304 38.398 45.443C38.6051 45.3556 38.793 45.2283 38.9509 45.0683C39.1089 44.9082 39.2337 44.7187 39.3184 44.5104C39.403 44.3022 39.4459 44.0793 39.4444 43.8545C39.4461 43.6295 39.4035 43.4064 39.3189 43.1979C39.2344 42.9894 39.1096 42.7997 38.9516 42.6395C38.7937 42.4793 38.6057 42.3518 38.3984 42.2643C38.1912 42.1767 37.9687 42.1328 37.7437 42.1313ZM44.55 34.9876C44.3249 34.9888 44.1022 35.0344 43.8947 35.1218C43.6873 35.2092 43.4991 35.3367 43.3409 35.4969C43.1828 35.6572 43.0578 35.847 42.9731 36.0556C42.8885 36.2642 42.8458 36.4875 42.8475 36.7126C42.8475 37.6651 43.6088 38.4376 44.5481 38.4376C44.7733 38.4364 44.9959 38.3908 45.2034 38.3033C45.4109 38.2159 45.5991 38.0885 45.7572 37.9283C45.9153 37.768 46.0403 37.5782 46.125 37.3696C46.2097 37.161 46.2524 36.9377 46.2506 36.7126C46.2524 36.4875 46.2097 36.2642 46.125 36.0556C46.0403 35.847 45.9153 35.6572 45.7572 35.4969C45.5991 35.3367 45.4109 35.2092 45.2034 35.1218C44.9959 35.0344 44.7751 34.9888 44.55 34.9876ZM47.4656 25.6313C47.2405 25.6326 47.0178 25.6782 46.8104 25.7656C46.6029 25.853 46.4147 25.9805 46.2566 26.1407C46.0984 26.3009 45.9734 26.4908 45.8888 26.6994C45.8041 26.908 45.7614 27.1312 45.7631 27.3563C45.7631 28.307 46.5263 29.0776 47.4656 29.0776C47.6904 29.0761 47.9128 29.0304 48.1199 28.943C48.327 28.8556 48.5149 28.7283 48.6728 28.5683C48.8307 28.4082 48.9556 28.2187 49.0403 28.0104C49.1249 27.8022 49.1677 27.5793 49.1663 27.3545C49.168 27.1295 49.1254 26.9064 49.0408 26.6979C48.9562 26.4894 48.8314 26.2997 48.6735 26.1395C48.5155 25.9793 48.3276 25.8518 48.1203 25.7642C47.9131 25.6767 47.6906 25.6328 47.4656 25.6313ZM39.93 13.3126C39.705 13.3141 39.4826 13.3599 39.2753 13.4474C39.0681 13.5349 38.8801 13.6624 38.7221 13.8226C38.5642 13.9828 38.4394 14.1726 38.3548 14.381C38.2703 14.5895 38.2276 14.8126 38.2294 15.0376C38.2294 15.9901 38.9906 16.7626 39.93 16.7626C40.1551 16.7614 40.3778 16.7157 40.5853 16.6283C40.7927 16.5409 40.9809 16.4135 41.1391 16.2532C41.2972 16.093 41.4222 15.9032 41.5069 15.6946C41.5915 15.486 41.6342 15.2627 41.6325 15.0376C41.6342 14.8125 41.5915 14.5892 41.5069 14.3806C41.4222 14.172 41.2972 13.9822 41.1391 13.8219C40.9809 13.6617 40.7927 13.5342 40.5853 13.4468C40.3778 13.3594 40.1551 13.3138 39.93 13.3126Z"
    fill="url(#paint0_linear_18993_23153)"
  />
  <defs>
    <linearGradient
      id="paint0_linear_18993_23153"
      x1="45.2382"
      y1="16.1533"
      x2="16.3603"
      y2="45.0312"
      gradientUnits="userSpaceOnUse"
    >
      <stop stop-color="#6350FB" />
      <stop offset="0.5" stop-color="#3D8FFF" />
      <stop offset="1" stop-color="#9AD8F8" />
    </linearGradient>
  </defs>
</svg>
