<svg
  width="60"
  height="60"
  viewBox="0 0 60 60"
  fill="currentColor"
  xmlns="http://www.w3.org/2000/svg"
>
  <path
    d="M27.75 33C27.75 34.2426 28.7574 35.25 30 35.25C31.2426 35.25 32.25 34.2426 32.25 33V19C32.25 17.7574 31.2426 16.75 30 16.75C28.7574 16.75 27.75 17.7574 27.75 19V33Z"
  />
  <path
    d="M42 35.25C40.7574 35.25 39.75 34.2426 39.75 33V25C39.75 23.7574 40.7574 22.75 42 22.75C43.2426 22.75 44.25 23.7574 44.25 25V33C44.25 34.2426 43.2426 35.25 42 35.25Z"
  />
  <path
    d="M15.75 33C15.75 34.2426 16.7574 35.25 18 35.25C19.2426 35.25 20.25 34.2426 20.25 33V23C20.25 21.7574 19.2426 20.75 18 20.75C16.7574 20.75 15.75 21.7574 15.75 23L15.75 33Z"
  />
  <path
    fill-rule="evenodd"
    clip-rule="evenodd"
    d="M2.75 16C2.75 9.7868 7.7868 4.75 14 4.75H46C52.2132 4.75 57.25 9.7868 57.25 16V40.7637C58.375 40.8881 59.25 41.8419 59.25 43C59.25 44.2426 58.2426 45.25 57 45.25H32.25V52.75H39C40.2426 52.75 41.25 53.7574 41.25 55C41.25 56.2426 40.2426 57.25 39 57.25H30.003L30 57.25H21C19.7574 57.25 18.75 56.2426 18.75 55C18.75 53.7574 19.7574 52.75 21 52.75H27.75V45.25H3C1.75736 45.25 0.75 44.2426 0.75 43C0.75 41.8419 1.62501 40.8881 2.75 40.7637V16ZM7.25 16V40.75L52.75 40.75V16C52.75 12.2721 49.7279 9.25 46 9.25H14C10.2721 9.25 7.25 12.2721 7.25 16Z"
  />
</svg>
