<svg
  width="60"
  height="60"
  viewBox="0 0 60 60"
  fill="currentColor"
  xmlns="http://www.w3.org/2000/svg"
>
  <path
    d="M47 5H13C8.02944 5 4 9.02944 4 14V39H56V14C56 9.02944 51.9706 5 47 5Z"
    fill="url(#paint0_linear_20741_10358)"
  />
  <path
    d="M1 42C1 40.3431 2.34315 39 4 39H56C57.6569 39 59 40.3431 59 42C59 43.6568 57.6569 45 56 45H33V52H39C40.6569 52 42 53.3431 42 55C42 56.6569 40.6569 58 39 58H21C19.3431 58 18 56.6569 18 55C18 53.3431 19.3431 52 21 52H27V45L4 45C2.34315 45 1 43.6569 1 42Z"
    fill="#FFB4AB"
  />
  <path
    d="M30 33C28.3431 33 27 31.6569 27 30L27 16C27 14.3431 28.3431 13 30 13C31.6569 13 33 14.3431 33 16V30C33 31.6569 31.6569 33 30 33Z"
    fill="white"
  />
  <path
    d="M44 33C42.3431 33 41 31.6569 41 30V22C41 20.3431 42.3431 19 44 19C45.6569 19 47 20.3431 47 22V30C47 31.6569 45.6569 33 44 33Z"
    fill="white"
  />
  <path
    d="M13 30C13 31.6569 14.3431 33 16 33C17.6569 33 19 31.6569 19 30V20C19 18.3431 17.6569 17 16 17C14.3431 17 13 18.3431 13 20V30Z"
    fill="white"
  />
  <defs>
    <linearGradient
      id="paint0_linear_20741_10358"
      x1="9.05555"
      y1="5"
      x2="42.2652"
      y2="41.9239"
      gradientUnits="userSpaceOnUse"
    >
      <stop stop-color="#E02819" />
      <stop offset="1" stop-color="#FF6655" />
    </linearGradient>
  </defs>
</svg>
