<svg width="1em" height="1em" viewBox="0 0 60 60" fill="none" xmlns="http://www.w3.org/2000/svg">
  <g id="&#231;&#191;&#187;&#232;&#175;&#145;&#229;&#183;&#165;&#229;&#133;&#183;-ai-translator-filled">
    <g id="1">
      <path fill-rule="evenodd" clip-rule="evenodd"
        d="M4.08993 8.46009C3 10.5992 3 13.3995 3 19V33C3 38.6005 3 41.4008 4.08993 43.5399C5.04867 45.4215 6.57847 46.9513 8.46009 47.9101C10.5992 49 13.3995 49 19 49C20.3298 49 21.3935 49.9972 21.9338 51.2122C21.9832 51.3233 22.0352 51.4324 22.0899 51.5399C23.0487 53.4215 24.5785 54.9513 26.4601 55.9101C28.5992 57 31.3995 57 37 57H41C46.6005 57 49.4008 57 51.5399 55.9101C53.4215 54.9513 54.9513 53.4215 55.9101 51.5399C57 49.4008 57 46.6005 57 41V37C57 31.3995 57 28.5992 55.9101 26.4601C54.9513 24.5785 53.4215 23.0487 51.5399 22.0899C50.8223 21.7243 50.0303 21.4813 49.0832 21.3199C47.9223 21.122 47 20.1777 47 19C47 13.3995 47 10.5992 45.9101 8.46009C44.9513 6.57847 43.4215 5.04867 41.5399 4.08993C39.4008 3 36.6005 3 31 3H19C13.3995 3 10.5992 3 8.46009 4.08993C6.57847 5.04867 5.04867 6.57847 4.08993 8.46009Z"
        fill="url(#paint0_linear_17647_944)" />
      <path fill-rule="evenodd" clip-rule="evenodd"
        d="M45.9338 31.8521C47.12 32.2222 47.7816 33.4839 47.4115 34.6701C46.7646 36.7437 45.4822 40.1762 43.3184 42.8356C43.9147 43.1862 44.6145 43.5429 45.3378 43.8759C46.0023 44.1819 46.6152 44.4363 47.0623 44.6142C47.2851 44.7029 47.4648 44.7718 47.5867 44.8178C47.6477 44.8408 47.6941 44.858 47.7241 44.869L47.7566 44.8809L47.7631 44.8833C48.9319 45.3048 49.5381 46.5941 49.1168 47.763C48.6954 48.932 47.4062 49.5381 46.2372 49.1167L47.0001 47C46.2372 49.1167 46.2372 49.1167 46.2372 49.1167L46.2302 49.1142L46.2163 49.1091L46.1688 49.0917C46.1285 49.0769 46.0712 49.0556 45.999 49.0283C45.8545 48.9739 45.6493 48.8952 45.3986 48.7954C44.8986 48.5964 44.2098 48.3107 43.4556 47.9634C42.401 47.4778 41.0368 46.7918 39.8969 45.9782C38.1779 47.1992 36.1372 48.2535 33.769 49.1145C32.6012 49.5392 31.3102 48.9367 30.8856 47.7689C30.4609 46.601 31.0634 45.3101 32.2313 44.8854C33.9733 44.252 35.4429 43.522 36.672 42.7285C36.0103 41.9162 35.4301 41.1299 34.9716 40.48C34.2554 39.4645 34.4979 38.0607 35.5133 37.3445C36.5288 36.6282 37.9326 36.8707 38.6489 37.8862C39.0445 38.4471 39.5171 39.0865 40.0363 39.7324C41.5067 37.8118 42.5261 35.2198 43.1158 33.3298C43.4859 32.1436 44.7476 31.482 45.9338 31.8521Z"
        fill="#FFD8BD" />
      <path fill-rule="evenodd" clip-rule="evenodd"
        d="M10 13.5244C10 12.1302 11.1302 11 12.5244 11L30.4756 11C31.8698 11 33 12.1302 33 13.5244C33 14.9186 31.8698 16.0488 30.4756 16.0488L24.0244 16.0488V31.4756C24.0244 32.8698 22.8942 34 21.5 34C20.1058 34 18.9756 32.8698 18.9756 31.4756V16.0488L12.5244 16.0488C11.1302 16.0488 10 14.9186 10 13.5244Z"
        fill="white" />
    </g>
  </g>
  <defs>
    <linearGradient id="paint0_linear_17647_944" x1="5.3077" y1="6" x2="28.0798" y2="42.8619"
      gradientUnits="userSpaceOnUse">
      <stop stop-color="#E47100" />
      <stop offset="1" stop-color="#FFA56D" />
    </linearGradient>
  </defs>
</svg>