<svg
  width="60"
  height="60"
  viewBox="0 0 60 60"
  fill="currentColor"
  xmlns="http://www.w3.org/2000/svg"
>
  <path
    fill-rule="evenodd"
    clip-rule="evenodd"
    d="M31.4346 9.2622C31.2334 9.2509 30.9796 9.25001 30.2858 9.25001H21.0001C18.1627 9.25001 16.17 9.25176 14.6153 9.37878C13.087 9.50365 12.1812 9.73829 11.4817 10.0947C10.0234 10.8377 8.83781 12.0233 8.09479 13.4816C7.73838 14.1811 7.50374 15.0869 7.37886 16.6152C7.25184 18.1699 7.25009 20.1626 7.25009 23V30.1429C7.25009 32.9224 7.26431 33.9355 7.4444 34.7245C8.10684 37.6269 10.3732 39.8933 13.2756 40.5557C14.0646 40.7358 15.0777 40.75 17.8572 40.75H19.8572C22.8356 40.75 25.2501 43.1645 25.2501 46.1429C25.2501 49.2396 27.7605 51.75 30.8572 51.75H39.0001C41.8375 51.75 43.8302 51.7483 45.3849 51.6212C46.9132 51.4964 47.819 51.2617 48.5185 50.9053C49.9768 50.1623 51.1624 48.9767 51.9054 47.5184C52.2618 46.8189 52.4965 45.9131 52.6213 44.3848C52.7483 42.8301 52.7501 40.8374 52.7501 38V32C52.7501 27.7198 49.2803 24.25 45.0001 24.25C41.5483 24.25 38.7501 21.4518 38.7501 18V17.7143C38.7501 17.0205 38.7492 16.7667 38.7379 16.5655C38.5167 12.6272 35.3729 9.48336 31.4346 9.2622ZM30.3629 4.75C30.9522 4.74997 31.3427 4.74994 31.687 4.76928C37.9119 5.11886 42.8812 10.0882 43.2308 16.3131C43.2502 16.6574 43.2501 17.0479 43.2501 17.6371V18C43.2501 18.9665 44.0336 19.75 45.0001 19.75C51.7656 19.75 57.2501 25.2345 57.2501 32V38.0974C57.2501 40.8151 57.2501 42.9918 57.1064 44.7512C56.9588 46.5579 56.6484 48.1218 55.9149 49.5614C54.7405 51.8664 52.8665 53.7404 50.5615 54.9148C49.1219 55.6484 47.558 55.9587 45.7513 56.1063C43.9919 56.25 41.8152 56.25 39.0975 56.25H30.8572C25.2752 56.25 20.7501 51.7249 20.7501 46.1429C20.7501 45.6498 20.3503 45.25 19.8572 45.25H17.8572C17.7528 45.25 17.6499 45.25 17.5485 45.2501C15.1898 45.2506 13.6241 45.251 12.2742 44.9429C7.68664 43.8958 4.10431 40.3135 3.05723 35.7259C2.74912 34.376 2.74949 32.8102 2.75005 30.4516C2.75007 30.3502 2.75009 30.2473 2.75009 30.1429L2.75009 22.9026C2.75007 20.1849 2.75006 18.0082 2.89381 16.2488C3.04142 14.4421 3.35175 12.8782 4.08526 11.4386C5.25971 9.13364 7.13372 7.25962 9.43871 6.08518C10.8783 5.35166 12.4422 5.04133 14.2489 4.89372C16.0083 4.74997 18.185 4.74999 20.9027 4.75001L30.3629 4.75Z"
  />
  <path
    fill-rule="evenodd"
    clip-rule="evenodd"
    d="M12.7501 18C12.7501 16.7574 13.7575 15.75 15.0001 15.75L31.0001 15.75C32.2427 15.75 33.2501 16.7574 33.2501 18C33.2501 19.2426 32.2427 20.25 31.0001 20.25L25.2501 20.25V34C25.2501 35.2426 24.2427 36.25 23.0001 36.25C21.7575 36.25 20.7501 35.2426 20.7501 34V20.25L15.0001 20.25C13.7575 20.25 12.7501 19.2426 12.7501 18Z"
  />
  <path
    fill-rule="evenodd"
    clip-rule="evenodd"
    d="M44.9338 29.8521C46.12 30.2222 46.7816 31.4839 46.4115 32.6702C45.7646 34.7437 44.4822 38.1762 42.3183 40.8356C42.9147 41.1862 43.6145 41.5429 44.3378 41.8759C45.0022 42.1819 45.6152 42.4364 46.0623 42.6143C46.2851 42.7029 46.4647 42.7718 46.5867 42.8178C46.6477 42.8408 46.6941 42.858 46.7241 42.869L46.7566 42.881L46.7631 42.8833C47.9318 43.3048 48.5381 44.5941 48.1168 45.763C47.6954 46.932 46.4061 47.5381 45.2371 47.1167L46.0001 45C45.2371 47.1167 45.2371 47.1167 45.2371 47.1167L45.2301 47.1142L45.2163 47.1091L45.1687 47.0917C45.1284 47.0769 45.0712 47.0556 44.9989 47.0284C44.8544 46.9739 44.6493 46.8952 44.3985 46.7954C43.8986 46.5965 43.2098 46.3107 42.4555 45.9634C41.401 45.4778 40.0367 44.7918 38.8969 43.9782C37.1779 45.1992 35.1372 46.2535 32.769 47.1146C31.6011 47.5392 30.3102 46.9367 29.8855 45.7689C29.4609 44.601 30.0634 43.3101 31.2312 42.8854C32.9733 42.252 34.4429 41.522 35.672 40.7285C35.0103 39.9162 34.43 39.1299 33.9716 38.48C33.2553 37.4646 33.4979 36.0607 34.5133 35.3445C35.5287 34.6282 36.9326 34.8707 37.6488 35.8862C38.0445 36.4471 38.5171 37.0865 39.0363 37.7324C40.5067 35.8119 41.5261 33.2198 42.1157 31.3299C42.4858 30.1436 43.7475 29.482 44.9338 29.8521Z"
  />
</svg>
