<svg
  width="60"
  height="60"
  viewBox="0 0 60 60"
  fill="currentColor"
  xmlns="http://www.w3.org/2000/svg"
>
  <path
    fill-rule="evenodd"
    clip-rule="evenodd"
    d="M49.5026 10.5615C48.0877 9.14662 45.9885 9.47946 44.9064 10.5615L38.032 17.4359C38.0008 17.4671 37.9684 17.4998 37.9348 17.5336C37.5866 17.8848 37.1151 18.3601 36.5219 18.6697C36.0104 18.9367 35.45 19.0967 34.8747 19.14C34.2074 19.1902 33.5558 19.0354 33.0745 18.9209C33.0281 18.9099 32.9833 18.8993 32.9403 18.8892L15.1914 14.7478C15.0297 14.7101 14.9049 14.681 14.7967 14.6571C14.7508 14.6469 14.7118 14.6385 14.6782 14.6316C14.6534 14.6552 14.6246 14.6829 14.591 14.7158C14.5117 14.7933 14.4211 14.8839 14.3037 15.0012L12.8146 16.4904C12.3289 16.9761 12.0026 17.3043 11.7721 17.557C12.0899 17.6834 12.5269 17.8358 13.1761 18.0601L23.0357 21.4661C23.7648 21.7179 24.4501 21.9545 24.9924 22.1992C25.5537 22.4524 26.277 22.8456 26.8084 23.5728C27.4944 24.5115 27.7659 25.6902 27.5597 26.8343C27.3999 27.7207 26.9215 28.3907 26.5275 28.864C26.1469 29.3212 25.6342 29.8339 25.0887 30.3792L20.9183 34.5496C20.8905 34.5774 20.8617 34.6064 20.8319 34.6365C20.5205 34.9502 20.0987 35.3751 19.5732 35.6696C19.1196 35.9239 18.6232 36.0927 18.1086 36.1678C17.5126 36.2547 16.9192 36.1751 16.4811 36.1163C16.4391 36.1106 16.3986 36.1052 16.3596 36.1001L11.3528 35.4471C11.2062 35.4279 11.0933 35.4132 10.9956 35.4015C10.9547 35.3966 10.9198 35.3927 10.89 35.3895C10.8682 35.4102 10.843 35.4346 10.8136 35.4634C10.7432 35.5323 10.6628 35.6128 10.5582 35.7173L10.1262 36.1493C9.71085 36.5647 9.43666 36.8406 9.24348 37.0514C9.48949 37.1972 9.83192 37.3817 10.3499 37.6588L16.7093 41.0603C16.7307 41.0718 16.753 41.0836 16.776 41.0959C17.0206 41.2259 17.3519 41.4021 17.6537 41.6398C17.9151 41.8456 18.1513 42.0814 18.3577 42.3424C18.596 42.6437 18.7729 42.9746 18.9035 43.2189C18.9158 43.2419 18.9277 43.2641 18.9392 43.2855L22.3996 49.7226C22.6772 50.239 22.8621 50.5803 23.008 50.8254C23.2183 50.6327 23.4936 50.3591 23.9081 49.9446L24.3468 49.5059C24.4513 49.4014 24.5318 49.3209 24.6007 49.2505C24.6295 49.2211 24.6539 49.1959 24.6746 49.1741C24.6714 49.1443 24.6675 49.1094 24.6626 49.0685C24.6509 48.9708 24.6362 48.8579 24.617 48.7113L23.964 43.7045C23.9589 43.6655 23.9535 43.625 23.9478 43.583C23.889 43.1449 23.8094 42.5516 23.8964 41.9555C23.9714 41.4409 24.1402 40.9445 24.3945 40.4909C24.689 39.9654 25.1139 39.5437 25.4276 39.2322C25.4577 39.2024 25.4867 39.1736 25.5145 39.1458L29.6849 34.9754C30.2302 34.4299 30.7429 33.9172 31.2001 33.5366C31.6735 33.1426 32.3434 32.6642 33.2298 32.5045C34.3739 32.2982 35.5526 32.5697 36.4913 33.2557C37.2185 33.7871 37.6117 34.5104 37.8649 35.0717C38.1096 35.614 38.3463 36.2994 38.5981 37.0285L42.0041 46.888C42.2283 47.5372 42.3807 47.9742 42.5071 48.292C42.7598 48.0615 43.0881 47.7352 43.5737 47.2495L45.0629 45.7604C45.1802 45.643 45.2708 45.5524 45.3484 45.4731C45.3812 45.4395 45.4089 45.4107 45.4325 45.3859C45.4256 45.3524 45.4172 45.3133 45.4071 45.2675C45.3831 45.1592 45.354 45.0344 45.3163 44.8727L41.1749 27.1239C41.1648 27.0808 41.1542 27.036 41.1432 26.9896C41.0288 26.5083 40.8739 25.8567 40.9241 25.1895C40.9675 24.6141 41.1275 24.0537 41.3944 23.5422C41.704 22.949 42.1793 22.4775 42.5305 22.1293C42.5643 22.0957 42.597 22.0633 42.6282 22.0321L49.5026 15.1577C50.5847 14.0757 50.9175 11.9764 49.5026 10.5615ZM41.7244 7.37954C44.1779 4.92607 49.1497 3.8447 52.6846 7.37954C56.2194 10.9144 55.138 15.8862 52.6846 18.3397L45.8102 25.214C45.6929 25.3313 45.6024 25.4219 45.5249 25.5012C45.4922 25.5347 45.4645 25.5634 45.4409 25.5882C45.4479 25.6217 45.4562 25.6608 45.4664 25.7066C45.4904 25.8149 45.5194 25.9397 45.5572 26.1013L49.6986 43.8502C49.7086 43.8933 49.7193 43.9381 49.7303 43.9845C49.8447 44.4658 49.9995 45.1174 49.9493 45.7846C49.906 46.3599 49.746 46.9204 49.4791 47.4319C49.1695 48.025 48.694 48.4967 48.3427 48.8451C48.3088 48.8787 48.2761 48.9111 48.2449 48.9423L46.6928 50.4944C46.1475 51.0399 45.6348 51.5526 45.1776 51.9332C44.7043 52.3272 44.0344 52.8055 43.148 52.9653C42.0038 53.1715 40.8251 52.9 39.8864 52.2141C39.1593 51.6826 38.7661 50.9594 38.5128 50.398C38.2682 49.8558 38.0315 49.1704 37.7797 48.4413L34.3737 38.5818C34.1494 37.9326 33.9971 37.4956 33.8706 37.1777C33.6179 37.4082 33.2897 37.7346 32.804 38.2202L28.6965 42.3278C28.5919 42.4324 28.5114 42.5129 28.4425 42.5832C28.4137 42.6126 28.3893 42.6378 28.3686 42.6596C28.3718 42.6895 28.3757 42.7243 28.3806 42.7652C28.3924 42.863 28.4071 42.9758 28.4262 43.1224L29.0793 48.1293C29.0843 48.1682 29.0898 48.2088 29.0954 48.2507C29.1542 48.6888 29.2338 49.2822 29.1469 49.8782C29.0718 50.3928 28.903 50.8892 28.6487 51.3428C28.3542 51.8683 27.9293 52.2901 27.6156 52.6015C27.5856 52.6313 27.5565 52.6601 27.5288 52.6879L27.0321 53.1845C26.5668 53.65 26.1181 54.0988 25.7119 54.4383C25.2784 54.8007 24.6848 55.2227 23.8981 55.404C22.8574 55.6439 21.7644 55.4831 20.8369 54.9537C20.1357 54.5535 19.6888 53.9783 19.3781 53.5065C19.0869 53.0644 18.7864 52.5054 18.4749 51.9256L14.9756 45.4162C14.932 45.3352 14.8988 45.2734 14.8697 45.2201C14.8579 45.1985 14.8477 45.1801 14.839 45.1644C14.8233 45.1557 14.8049 45.1456 14.7832 45.1338C14.7299 45.1048 14.668 45.0717 14.5869 45.0284L8.1551 41.5881C7.57352 41.2771 7.01292 40.9773 6.56952 40.6866C6.09646 40.3764 5.51951 39.9301 5.1177 39.2285C4.58629 38.3006 4.42416 37.2065 4.66364 36.1644C4.84472 35.3765 5.26743 34.782 5.6302 34.3479C5.97023 33.9411 6.41979 33.4916 6.88618 33.0254L7.37622 32.5354C7.404 32.5076 7.4328 32.4786 7.46261 32.4485C7.77404 32.1348 8.1958 31.7099 8.72126 31.4154C9.17488 31.1611 9.6713 30.9923 10.1859 30.9172C10.7819 30.8303 11.3753 30.9099 11.8134 30.9687C11.8554 30.9743 11.8959 30.9798 11.9348 30.9849L16.9417 31.6379C17.0883 31.6571 17.2011 31.6717 17.2989 31.6835C17.3398 31.6884 17.3747 31.6923 17.4045 31.6955C17.4263 31.6748 17.4515 31.6504 17.4809 31.6216C17.5513 31.5527 17.6317 31.4722 17.7363 31.3677L21.8439 27.2601C22.3295 26.7744 22.6559 26.4462 22.8864 26.1935C22.5685 26.0671 22.1315 25.9147 21.4823 25.6904L11.6228 22.2844C10.8937 22.0326 10.2083 21.7959 9.66606 21.5513C9.10471 21.298 8.38148 20.9048 7.85005 20.1777C7.16407 19.239 6.89257 18.0603 7.0988 16.9161C7.25856 16.0298 7.73692 15.3598 8.13091 14.8865C8.51151 14.4293 9.02427 13.9166 9.56972 13.3713L11.1218 11.8192C11.153 11.788 11.1855 11.7553 11.219 11.7214C11.5674 11.3702 12.0391 10.8946 12.6322 10.5851C13.1437 10.3181 13.7042 10.1581 14.2795 10.1148C14.9467 10.0646 15.5983 10.2194 16.0797 10.3338C16.126 10.3448 16.1708 10.3555 16.2139 10.3655L33.9628 14.5069C34.1244 14.5447 34.2492 14.5738 34.3575 14.5977C34.4033 14.6079 34.4424 14.6162 34.476 14.6232C34.5007 14.5996 34.5294 14.5719 34.5629 14.5392C34.6422 14.4617 34.7328 14.3712 34.8501 14.2539L41.7244 7.37954Z"
  />
</svg>
