<svg
  width="60"
  height="60"
  viewBox="0 0 60 60"
  fill="currentColor"
  xmlns="http://www.w3.org/2000/svg"
>
  <path
    fill-rule="evenodd"
    clip-rule="evenodd"
    d="M32.9586 8.54594C31.4837 7.01504 29.0324 7.01504 27.5575 8.54594L27.1713 8.94685C25.9594 10.2047 25.2823 11.8834 25.2823 13.6301V19.7858C25.2823 21.5433 24.2005 23.1195 22.5607 23.7515L9.37066 28.835C8.69541 29.0953 8.25 29.7443 8.25 30.4679V32.6581C8.25 33.8674 9.44725 34.7122 10.5866 34.3069L19.6077 31.0975C22.3747 30.1131 25.2823 32.1648 25.2823 35.1016V42.3111C25.2823 43.726 24.5782 45.048 23.4042 45.8376L19.4794 48.4775C18.6555 49.0317 18.4572 50.1595 19.0427 50.9615L19.4641 51.5387C20.0219 52.3027 21.0859 52.4851 21.8663 51.9506L27.8567 47.8482C29.3041 46.8569 31.212 46.8569 32.6595 47.8482L38.6498 51.9506C39.4303 52.4851 40.4942 52.3027 41.052 51.5387L41.4734 50.9615C42.0589 50.1595 41.8606 49.0317 41.0367 48.4775L37.1119 45.8376C35.9379 45.048 35.2339 43.726 35.2339 42.3111V35.1314C35.2339 32.1769 38.174 30.1239 40.9477 31.1415L49.3972 34.2414C50.5394 34.6604 51.75 33.8151 51.75 32.5985V30.4373C51.75 29.7203 51.3126 29.0759 50.6464 28.8111L37.9141 23.7506C36.296 23.1075 35.2339 21.5424 35.2339 19.8011V13.6301C35.2339 11.8834 34.5568 10.2047 33.3449 8.94685L32.9586 8.54594ZM24.3168 5.42375C27.5617 2.05577 32.9544 2.05577 36.1993 5.42375L36.5855 5.82466C38.6054 7.92113 39.7339 10.719 39.7339 13.6301V19.6315L52.3084 24.6292C54.688 25.575 56.25 27.8766 56.25 30.4373V32.5985C56.25 36.9434 51.9263 39.9626 47.8473 38.4661L39.7339 35.4894V42.178L43.5482 44.7435C46.4907 46.7227 47.1989 50.7509 45.1078 53.615L44.6864 54.1921C42.6943 56.9207 38.8945 57.5723 36.1071 55.6634L30.2581 51.6577L24.409 55.6634C21.6216 57.5723 17.8218 56.9207 15.8297 54.1921L15.4083 53.615C13.3173 50.7509 14.0254 46.7227 16.9679 44.7435L20.7823 42.178V35.4559L12.0949 38.5466C8.02588 39.9941 3.75 36.9769 3.75 32.6581V30.4679C3.75 27.8834 5.34077 25.5655 7.75236 24.6361L20.7823 19.6143V13.6301C20.7823 10.719 21.9108 7.92113 23.9306 5.82466L24.3168 5.42375Z"
  />
</svg>
