<svg
  width="60"
  height="60"
  viewBox="0 0 60 60"
  fill="currentColor"
  xmlns="http://www.w3.org/2000/svg"
>
  <path
    fill-rule="evenodd"
    clip-rule="evenodd"
    d="M16.7501 55C16.7501 53.7574 17.7574 52.75 19.0001 52.75H41.0001C42.2427 52.75 43.2501 53.7574 43.2501 55C43.2501 56.2426 42.2427 57.25 41.0001 57.25H19.0001C17.7574 57.25 16.7501 56.2426 16.7501 55Z"
  />
  <path
    fill-rule="evenodd"
    clip-rule="evenodd"
    d="M48.4931 35.8065C47.7352 34.4476 46.5569 32.7214 44.8656 30.2496L42.1778 26.3212C41.8992 25.914 41.7501 25.4321 41.7501 24.9386V19C41.7501 12.5107 36.4894 7.25 30.0001 7.25C23.5107 7.25 18.2501 12.5107 18.2501 19L18.2501 24.9386C18.2501 25.4321 18.101 25.914 17.8223 26.3212L15.1345 30.2496C13.4432 32.7214 12.2649 34.4476 11.507 35.8065C10.7369 37.1874 10.612 37.8366 10.6303 38.1919C10.6867 39.2933 11.2251 40.314 12.1021 40.9825C12.3851 41.1982 12.9914 41.4617 14.566 41.6059C16.1155 41.7477 18.2054 41.75 21.2005 41.75H38.7996C41.7947 41.75 43.8846 41.7477 45.4341 41.6059C47.0087 41.4617 47.615 41.1982 47.898 40.9825C48.775 40.314 49.3134 39.2933 49.3699 38.1919C49.3881 37.8366 49.2632 37.1874 48.4931 35.8065ZM52.4232 33.6146C53.2931 35.1745 53.9494 36.7544 53.864 38.4222C53.7398 40.8452 52.5554 43.0907 50.6258 44.5614C49.2975 45.5738 47.623 45.9243 45.8444 46.0871C44.0649 46.2501 41.7676 46.25 38.9158 46.25H21.0843C18.2326 46.25 15.9352 46.2501 14.1557 46.0871C12.3771 45.9243 10.7026 45.5738 9.37432 44.5614C7.44473 43.0907 6.26033 40.8452 6.13615 38.4222C6.05067 36.7544 6.70699 35.1745 7.57693 33.6146C8.44735 32.0539 9.74467 30.1579 11.3551 27.8043L13.7501 24.3039V19C13.7501 10.0254 21.0254 2.75 30.0001 2.75C38.9747 2.75 46.2501 10.0254 46.2501 19V24.3039L48.6452 27.8045C50.2555 30.158 51.5528 32.054 52.4232 33.6146Z"
  />
</svg>
