<svg
  width="60"
  height="60"
  viewBox="0 0 60 60"
  fill="currentColor"
  xmlns="http://www.w3.org/2000/svg"
>
  <path
    fill-rule="evenodd"
    clip-rule="evenodd"
    d="M6.75 9C6.75 7.75736 7.75736 6.75 9 6.75H51C52.2426 6.75 53.25 7.75736 53.25 9C53.25 10.2426 52.2426 11.25 51 11.25H9C7.75736 11.25 6.75 10.2426 6.75 9Z"
  />
  <path
    fill-rule="evenodd"
    clip-rule="evenodd"
    d="M6.75 37C6.75 35.7574 7.75736 34.75 9 34.75H51C52.2426 34.75 53.25 35.7574 53.25 37C53.25 38.2426 52.2426 39.25 51 39.25H9C7.75736 39.25 6.75 38.2426 6.75 37Z"
  />
  <path
    fill-rule="evenodd"
    clip-rule="evenodd"
    d="M14.75 23C14.75 21.7574 15.7574 20.75 17 20.75H42C43.2426 20.75 44.25 21.7574 44.25 23C44.25 24.2426 43.2426 25.25 42 25.25H17C15.7574 25.25 14.75 24.2426 14.75 23Z"
  />
  <path
    fill-rule="evenodd"
    clip-rule="evenodd"
    d="M14.75 51C14.75 49.7574 15.7574 48.75 17 48.75H42C43.2426 48.75 44.25 49.7574 44.25 51C44.25 52.2426 43.2426 53.25 42 53.25H17C15.7574 53.25 14.75 52.2426 14.75 51Z"
  />
</svg>
