<svg
  width="60"
  height="60"
  viewBox="0 0 60 60"
  fill="currentColor"
  xmlns="http://www.w3.org/2000/svg"
>
  <path
    fill-rule="evenodd"
    clip-rule="evenodd"
    d="M49.5214 10.1489C53.8675 14.6401 55.3539 20.7377 55.3539 25.9548C55.3539 31.5021 52.6155 36.8666 49.3147 40.4974C47.6539 42.3244 45.7476 43.829 43.8049 44.7078C41.8973 45.5708 39.6151 45.9662 37.5535 44.9354C36.5168 44.417 35.8847 43.5541 35.5164 42.6739C32.0984 45.9829 27.0156 47.2894 22.3077 44.9354C17.4391 42.5012 16.205 37.0233 16.5336 32.3038C16.8662 27.5262 18.8273 22.4114 21.7229 19.5157C25.7693 15.4694 30.8082 13.8218 35.117 14.9968C37.4977 15.6461 39.4433 17.097 40.7433 19.1677C40.9527 18.6761 41.1564 18.2084 41.3517 17.7689C41.8393 16.6719 43.1022 16.1508 44.2214 16.5849C45.3407 17.019 45.922 18.2553 45.5424 19.3942C44.429 22.7344 42.2606 29.0116 40.3625 33.882C39.8118 36.0631 39.4923 37.9551 39.4764 39.3652C39.4678 40.1273 39.5511 40.6105 39.6447 40.8769C39.6565 40.9104 39.6671 40.9371 39.6761 40.9579C40.0708 41.1031 40.7937 41.131 41.9502 40.6078C43.1891 40.0474 44.6159 38.9765 45.985 37.4704C48.7443 34.4351 50.8539 30.1035 50.8539 25.9548C50.8539 21.4758 49.5651 16.6651 46.2876 13.2782C43.0889 9.97269 37.6271 7.64672 28.4394 8.79516C20.6115 9.77364 14.5461 15.199 11.5376 22.2094C8.52529 29.2287 8.70406 37.5566 13.0654 44.099C15.6861 48.0302 21.1799 51.1276 27.9587 52.0494C34.6719 52.9623 42.3331 51.6847 49.007 47.2613C50.0428 46.5748 51.439 46.858 52.1255 47.8938C52.8121 48.9295 52.5289 50.3257 51.4931 51.0123C43.8201 56.0979 35.0382 57.5535 27.3524 56.5084C19.7322 55.4721 12.871 51.9201 9.32114 46.595C3.98689 38.5933 3.88785 28.6241 7.40232 20.4347C10.9206 12.2366 18.1866 5.54174 27.8813 4.32991C38.0865 3.05428 45.0966 5.57636 49.5214 10.1489ZM38.0388 26.1291C38.0344 26.0716 38.0321 26.0134 38.0321 25.9548C38.0321 21.9394 36.1222 19.9353 33.9331 19.3383C31.5758 18.6954 28.1306 19.472 24.9049 22.6977C22.9772 24.6254 21.3023 28.6007 21.0227 32.6163C20.7391 36.6902 21.9166 39.7088 24.3201 40.9105C27.8533 42.6771 32.1475 41.0203 34.1233 37.0687C34.6531 36.0091 35.3312 34.3939 36.0677 32.5129C36.0921 32.4185 36.1167 32.3241 36.1416 32.2296C36.6656 30.24 37.3279 28.1535 38.0388 26.1291Z"
  />
</svg>
