<svg
  width="60"
  height="60"
  viewBox="0 0 60 60"
  fill="currentColor"
  xmlns="http://www.w3.org/2000/svg"
>
  <path
    fill-rule="evenodd"
    clip-rule="evenodd"
    d="M19.0491 7.9285C18.4928 9.04379 18.2035 10.6421 18.4558 12.4371C18.7081 14.2322 19.4267 15.6888 20.2689 16.6075C21.1192 17.5352 21.9154 17.7574 22.4744 17.6788C23.0335 17.6003 23.7376 17.1672 24.2992 16.0411C24.8555 14.9258 25.1448 13.3275 24.8925 11.5325C24.6403 9.73745 23.9216 8.28082 23.0795 7.36207C22.2292 6.4344 21.433 6.21219 20.8739 6.29076C20.3149 6.36933 19.6108 6.8024 19.0491 7.9285ZM15.0222 5.92001C16.0288 3.90183 17.7987 2.17873 20.2477 1.83456C22.6966 1.49038 24.8729 2.65888 26.3968 4.32142C27.9288 5.99288 28.9861 8.32598 29.3488 10.9062C29.7114 13.4864 29.3382 16.0206 28.3261 18.0496C27.3195 20.0678 25.5496 21.7909 23.1007 22.1351C20.6517 22.4792 18.4755 21.3107 16.9516 19.6482C15.4195 17.9767 14.3622 15.6436 13.9996 13.0634C13.637 10.4832 14.0102 7.94902 15.0222 5.92001ZM5.85705 21.1857C5.75833 22.0052 5.94309 23.0708 6.55164 24.1249C7.16019 25.1789 7.99069 25.8717 8.74969 26.1959C9.50789 26.5198 10.0499 26.4353 10.3752 26.2474C10.7005 26.0596 11.0447 25.6325 11.1433 24.814C11.2421 23.9945 11.0573 22.9289 10.4488 21.8749C9.84021 20.8208 9.0097 20.128 8.25071 19.8038C7.49251 19.4799 6.95052 19.5644 6.6252 19.7523C6.29987 19.9401 5.95567 20.3672 5.85705 21.1857ZM1.38936 20.6475C1.61543 18.7711 2.54821 16.91 4.3752 15.8551C6.20219 14.8003 8.28034 14.9231 10.0184 15.6655C11.7557 16.4076 13.2976 17.8091 14.3459 19.6249C15.3942 21.4406 15.837 23.4767 15.611 25.3522C15.385 27.2287 14.4522 29.0897 12.6252 30.1446C10.7982 31.1994 8.72006 31.0766 6.982 30.3342C5.24473 29.5921 3.70283 28.1906 2.65453 26.3749C1.60622 24.5591 1.16339 22.523 1.38936 20.6475ZM30.0001 28.25C21.9733 28.25 15.2501 35.1786 15.2501 44C15.2501 46.1118 15.7494 47.6762 16.5024 48.8649C17.2612 50.0628 18.359 51.0065 19.742 51.7403C22.5722 53.2418 26.3841 53.75 30.0001 53.75C33.616 53.75 37.4279 53.2418 40.2581 51.7403C41.6412 51.0065 42.7389 50.0628 43.4977 48.8649C44.2507 47.6762 44.7501 46.1118 44.7501 44C44.7501 35.1786 38.0268 28.25 30.0001 28.25ZM10.7501 44C10.7501 32.9391 19.2491 23.75 30.0001 23.75C40.751 23.75 49.2501 32.9391 49.2501 44C49.2501 46.8587 48.5619 49.2796 47.2992 51.2729C46.0424 53.257 44.2964 54.6919 42.367 55.7155C38.5721 57.7288 33.884 58.25 30.0001 58.25C26.1161 58.25 21.428 57.7288 17.6331 55.7155C15.7037 54.6919 13.9577 53.257 12.7009 51.2729C11.4382 49.2796 10.7501 46.8587 10.7501 44ZM49.5516 21.8749C50.1602 20.8208 50.9907 20.128 51.7497 19.8038C52.5079 19.4799 53.0499 19.5644 53.3752 19.7523C53.7005 19.9401 54.0447 20.3672 54.1433 21.1857C54.2421 22.0052 54.0573 23.0708 53.4488 24.1249C52.8402 25.1789 52.0097 25.8717 51.2507 26.1959C50.4925 26.5198 49.9505 26.4353 49.6252 26.2474C49.2999 26.0596 48.9557 25.6325 48.857 24.814C48.7583 23.9945 48.9431 22.9289 49.5516 21.8749ZM55.6252 15.8551C53.7982 14.8003 51.7201 14.9231 49.982 15.6655C48.2447 16.4076 46.7028 17.8091 45.6545 19.6249C44.6062 21.4406 44.1634 23.4767 44.3894 25.3522C44.6154 27.2287 45.5482 29.0898 47.3752 30.1446C49.2022 31.1994 51.2803 31.0766 53.0184 30.3342C54.7557 29.5921 56.2976 28.1906 57.3459 26.3749C58.3942 24.5591 58.837 22.523 58.611 20.6475C58.385 18.7711 57.4522 16.91 55.6252 15.8551ZM35.1084 11.5326C35.3607 9.73759 36.0794 8.28097 36.9215 7.36221C37.7718 6.43455 38.568 6.21234 39.127 6.29091C39.6861 6.36948 40.3902 6.80254 40.9519 7.92865C41.5081 9.04393 41.7974 10.6422 41.5452 12.4373C41.2929 14.2323 40.5742 15.6889 39.7321 16.6077C38.8818 17.5353 38.0856 17.7576 37.5266 17.679C36.9675 17.6004 36.2634 17.1674 35.7017 16.0412C35.1455 14.926 34.8562 13.3277 35.1084 11.5326ZM39.7533 1.8347C37.3044 1.49052 35.1281 2.65902 33.6042 4.32156C32.0721 5.99303 31.0148 8.32612 30.6522 10.9064C30.2896 13.4866 30.6628 16.0207 31.6748 18.0497C32.6814 20.0679 34.4513 21.791 36.9003 22.1352C39.3492 22.4794 41.5255 21.3109 43.0494 19.6483C44.5815 17.9769 45.6387 15.6438 46.0014 13.0635C46.364 10.4833 45.9908 7.94916 44.9788 5.92016C43.9722 3.90197 42.2023 2.17888 39.7533 1.8347Z"
  />
</svg>
