<svg
  width="60"
  height="60"
  viewBox="0 0 60 60"
  fill="currentColor"
  xmlns="http://www.w3.org/2000/svg"
>
  <path
    d="M46.1371 31.6361C46.1094 26.9229 48.2449 23.3707 52.5573 20.7515C50.1454 17.296 46.4964 15.3956 41.6865 15.0293C37.1322 14.6699 32.1495 17.683 30.325 17.683C28.3969 17.683 23.9878 15.1537 20.5185 15.1537C13.3589 15.2642 5.75 20.862 5.75 32.2511C5.75 35.6167 6.36507 39.0929 7.5952 42.6727C9.23998 47.3859 15.1695 58.934 21.3547 58.7474C24.589 58.6714 26.8765 56.453 31.0852 56.453C35.1695 56.453 37.2843 58.7474 40.8917 58.7474C47.1322 58.6575 52.4951 48.16 54.0569 43.4329C45.6879 39.4868 46.1371 31.878 46.1371 31.6361Z"
  />
  <path
    d="M38.871 10.5589C42.3748 6.39859 42.0569 2.61144 41.9533 1.25C38.8572 1.42968 35.2774 3.35781 33.2387 5.72824C30.9926 8.27143 29.6727 11.4159 29.956 14.9611C33.3009 15.2168 36.3555 13.496 38.871 10.5589Z"
  />
</svg>
