<svg
  width="60"
  height="60"
  viewBox="0 0 60 60"
  fill="currentColor"
  xmlns="http://www.w3.org/2000/svg"
>
  <path
    d="M19.75 27C19.75 25.7574 20.7574 24.75 22 24.75L38 24.75C39.2426 24.75 40.25 25.7574 40.25 27C40.25 28.2426 39.2426 29.25 38 29.25L22 29.25C20.7574 29.25 19.75 28.2426 19.75 27Z"
  />
  <path
    fill-rule="evenodd"
    clip-rule="evenodd"
    d="M44.6944 4.88009C43.1017 4.74996 41.1348 4.74998 38.6963 4.75H21.3037C18.8652 4.74998 16.8983 4.74996 15.3056 4.88009C13.6657 5.01408 12.2253 5.29716 10.8926 5.97618C8.77579 7.05475 7.05475 8.77579 5.97618 10.8926C5.29716 12.2253 5.01408 13.6657 4.88009 15.3056C4.74996 16.8983 4.74998 18.8651 4.75 21.3036V26.3612C4.75 26.4072 4.75 26.4535 4.75 26.5C4.75 26.5028 4.75 26.5057 4.75 26.5085L4.75 38.6963C4.74998 41.1348 4.74996 43.1017 4.8801 44.6944C5.01408 46.3343 5.29716 47.7747 5.97618 49.1074C7.05476 51.2242 8.77579 52.9453 10.8926 54.0238C12.2253 54.7029 13.6657 54.9859 15.3056 55.1199C16.8983 55.25 18.8651 55.25 21.3035 55.25H38.6964C41.1348 55.25 43.1017 55.25 44.6944 55.1199C46.3343 54.9859 47.7747 54.7029 49.1074 54.0238C51.2242 52.9453 52.9453 51.2242 54.0238 49.1074C54.7029 47.7747 54.9859 46.3343 55.1199 44.6944C55.25 43.1017 55.25 41.1349 55.25 38.6965V26.5086C55.25 25.7858 55.25 25.1169 55.2418 24.5H55.25V21.3036C55.25 18.8652 55.25 16.8983 55.1199 15.3056C54.9859 13.6657 54.7028 12.2253 54.0238 10.8926C52.9452 8.77579 51.2242 7.05475 49.1074 5.97618C47.7747 5.29716 46.3343 5.01408 44.6944 4.88009ZM50.6281 15.5909C50.5153 14.2792 50.3102 13.5162 50.0143 12.9356C49.3671 11.6655 48.3345 10.6329 47.0644 9.98571C46.4719 9.68379 45.6896 9.4764 44.328 9.36515C42.9401 9.25175 41.1574 9.25 38.6 9.25H21.4C18.8426 9.25 17.0599 9.25175 15.672 9.36515C14.3104 9.4764 13.5281 9.68379 12.9356 9.98571C11.6655 10.6329 10.6329 11.6655 9.98571 12.9356C9.68984 13.5162 9.48474 14.2792 9.37195 15.5909C10.349 15.1183 11.3803 14.9287 12.476 14.8392C13.5687 14.7499 14.9062 14.75 16.5087 14.75H43.4913C45.0937 14.75 46.4313 14.7499 47.524 14.8392C48.6197 14.9287 49.651 15.1183 50.6281 15.5909ZM12.8424 19.3243C11.9811 19.3947 11.5692 19.5203 11.2975 19.6587C10.5919 20.0183 10.0183 20.5919 9.65873 21.2975C9.5203 21.5692 9.39465 21.9811 9.32428 22.8424C9.25175 23.7301 9.25 24.8827 9.25 26.6V38.6C9.25 41.1574 9.25175 42.9401 9.36515 44.328C9.4764 45.6896 9.68379 46.4719 9.98571 47.0644C10.6329 48.3345 11.6655 49.3672 12.9356 50.0143C13.5281 50.3162 14.3104 50.5236 15.672 50.6349C17.0599 50.7483 18.8426 50.75 21.4 50.75H38.6C41.1574 50.75 42.9401 50.7483 44.328 50.6349C45.6896 50.5236 46.4719 50.3162 47.0644 50.0143C48.3345 49.3672 49.3672 48.3345 50.0143 47.0644C50.3162 46.4719 50.5236 45.6896 50.6349 44.328C50.7483 42.9401 50.75 41.1574 50.75 38.6V26.6C50.75 24.8827 50.7483 23.7301 50.6757 22.8424C50.6054 21.9811 50.4797 21.5692 50.3413 21.2975C49.9818 20.5919 49.4081 20.0183 48.7025 19.6587C48.4308 19.5203 48.0189 19.3947 47.1576 19.3243C46.2699 19.2518 45.1173 19.25 43.4 19.25H16.6C14.8827 19.25 13.7301 19.2518 12.8424 19.3243Z"
  />
</svg>
