<svg
  xmlns="http://www.w3.org/2000/svg"
  width="60"
  height="60"
  viewBox="0 0 60 60"
  fill="currentColor"
>
  <path
    d="M44.1484 37.3242C45.391 37.3243 46.3984 38.3317 46.3984 39.5742C46.3984 40.8168 45.391 41.8242 44.1484 41.8242H35C33.7575 41.8241 32.7501 40.8168 32.75 39.5742C32.7501 38.3317 33.7575 37.3243 35 37.3242H44.1484Z"
  />
  <path
    d="M21.6572 12.75C22.8999 12.75 23.9072 13.7574 23.9072 15V18.4063H27.3135C28.5561 18.4063 29.5635 19.4136 29.5635 20.6563C29.5635 21.8989 28.5561 22.9063 27.3135 22.9063H23.9072V26.3135L23.8955 26.5439C23.7802 27.6784 22.8221 28.5635 21.6572 28.5635C20.4924 28.5633 19.5342 27.6784 19.4189 26.5439L19.4072 26.3135V22.9063H16L15.7695 22.8945C14.6352 22.7791 13.75 21.8211 13.75 20.6563C13.75 19.4914 14.6352 18.5334 15.7695 18.418L16 18.4063H19.4072V15C19.4072 13.7575 20.4147 12.7502 21.6572 12.75Z"
  />
  <path
    fill-rule="evenodd"
    clip-rule="evenodd"
    d="M38.5996 4.75C41.0827 4.75 43.0807 4.74805 44.6943 4.87988C46.3342 5.01387 47.7748 5.29754 49.1074 5.97656L49.5 6.18555C51.4371 7.27106 53.0123 8.9082 54.0234 10.8926L54.1465 11.1436C54.7376 12.4059 54.9945 13.7682 55.1201 15.3057C55.2519 16.9193 55.25 18.9173 55.25 21.4004V38.5996C55.25 41.0827 55.2519 43.0807 55.1201 44.6943C54.9945 46.2318 54.7376 47.5941 54.1465 48.8564L54.0234 49.1074C53.0123 51.0918 51.4371 52.7289 49.5 53.8145L49.1074 54.0234C47.7748 54.7025 46.3342 54.9861 44.6943 55.1201C43.0807 55.2519 41.0827 55.25 38.5996 55.25H21.4004C18.9173 55.25 16.9193 55.2519 15.3057 55.1201C13.7682 54.9945 12.4059 54.7376 11.1436 54.1465L10.8926 54.0234C8.9082 53.0123 7.27106 51.4371 6.18555 49.5L5.97656 49.1074C5.29754 47.7748 5.01387 46.3342 4.87988 44.6943C4.74805 43.0807 4.75 41.0827 4.75 38.5996V21.4004C4.75 18.9173 4.74805 16.9193 4.87988 15.3057C5.01387 13.6658 5.29754 12.2252 5.97656 10.8926C7.05511 8.7759 8.7759 7.05511 10.8926 5.97656C12.2252 5.29754 13.6658 5.01387 15.3057 4.87988C16.9193 4.74805 18.9173 4.75 21.4004 4.75H38.5996ZM13.0928 50.0879L13.167 50.123C13.7323 50.3666 14.4803 50.5374 15.6719 50.6348C17.0598 50.7482 18.843 50.75 21.4004 50.75H38.5996C41.157 50.75 42.9402 50.7482 44.3281 50.6348C45.6895 50.5235 46.4719 50.3165 47.0645 50.0146L47.2998 49.8887C48.4622 49.2373 49.4079 48.2552 50.0146 47.0645L50.123 46.833C50.3666 46.2677 50.5374 45.5197 50.6348 44.3281C50.7482 42.9402 50.75 41.157 50.75 38.5996V21.4004C50.75 18.843 50.7482 17.0598 50.6348 15.6719C50.5374 14.4803 50.3666 13.7323 50.123 13.167L50.0879 13.0928L13.0928 50.0879ZM21.4004 9.25C18.843 9.25 17.0598 9.25184 15.6719 9.36524C14.3105 9.47648 13.5281 9.68348 12.9355 9.98535C11.6655 10.6325 10.6325 11.6655 9.98535 12.9355C9.68348 13.5281 9.47648 14.3105 9.36524 15.6719C9.25184 17.0598 9.25 18.843 9.25 21.4004V38.5996C9.25 41.157 9.25184 42.9402 9.36524 44.3281C9.46691 45.5724 9.65018 46.3322 9.91113 46.9062L46.9062 9.91113C46.3322 9.65018 45.5724 9.46691 44.3281 9.36524C42.9402 9.25184 41.157 9.25 38.5996 9.25H21.4004Z"
  />
</svg>
