<svg
  width="60"
  height="60"
  viewBox="0 0 60 60"
  fill="currentColor"
  xmlns="http://www.w3.org/2000/svg"
>
  <path
    fill-rule="evenodd"
    clip-rule="evenodd"
    d="M33.0052 51.561C31.3455 53.2131 28.6545 53.2131 26.9948 51.561L11.409 36.0466C10.5303 35.1719 10.5303 33.7538 11.409 32.8792C12.2877 32.0045 13.7123 32.0045 14.591 32.8792L30 48.2176L45.409 32.8792C46.2877 32.0045 47.7123 32.0045 48.591 32.8792C49.4697 33.7538 49.4697 35.1719 48.591 36.0466L33.0052 51.561ZM30 25.3229L45.409 9.98448C46.2877 9.10983 47.7123 9.10983 48.591 9.98448C49.4697 10.8591 49.4697 12.2772 48.591 13.1519L33.0052 28.6663C31.3455 30.3184 28.6545 30.3184 26.9948 28.6663L11.409 13.1519C10.5303 12.2772 10.5303 10.8591 11.409 9.98448C12.2877 9.10983 13.7123 9.10983 14.591 9.98448L30 25.3229Z"
  />
</svg>
