<svg
  width="60"
  height="60"
  viewBox="0 0 60 60"
  fill="currentColor"
  xmlns="http://www.w3.org/2000/svg"
>
  <path
    d="M30 6.75C31.2426 6.75 32.25 7.75736 32.25 9L32.25 39.568L43.409 28.409C44.2877 27.5303 45.7123 27.5303 46.591 28.409C47.4697 29.2877 47.4697 30.7123 46.591 31.591L33.0052 45.1768C31.3455 46.8365 28.6545 46.8365 26.9948 45.1768L13.409 31.591C12.5303 30.7123 12.5303 29.2877 13.409 28.409C14.2877 27.5303 15.7123 27.5303 16.591 28.409L27.75 39.568L27.75 9C27.75 7.75736 28.7574 6.75 30 6.75Z"
  />
  <path
    d="M48 55.25C49.2426 55.25 50.25 54.2426 50.25 53C50.25 51.7574 49.2426 50.75 48 50.75H12.0006C10.7579 50.75 9.75 51.7574 9.75 53C9.75 54.2426 10.7574 55.25 12 55.25H48Z"
  />
</svg>
