<svg
  width="60"
  height="60"
  viewBox="0 0 60 60"
  fill="currentColor"
  xmlns="http://www.w3.org/2000/svg"
>
  <path
    d="M26.5 46.25H21.3037C18.8652 46.25 16.8983 46.25 15.3056 46.1199C13.6657 45.9859 12.2253 45.7028 10.8926 45.0238C8.77578 43.9452 7.05475 42.2242 5.97618 40.1074C5.29716 38.7747 5.01408 37.3343 4.88009 35.6944C4.74996 34.1017 4.74998 32.1348 4.75 29.6963V19.3037C4.74998 16.8652 4.74996 14.8983 4.88009 13.3056C5.01408 11.6657 5.29716 10.2253 5.97618 8.89261C7.05475 6.77578 8.77578 5.05475 10.8926 3.97618C12.2253 3.29715 13.6657 3.01408 15.3056 2.88009C16.8983 2.74996 18.8651 2.74998 21.3036 2.75H31.6964C34.1348 2.74998 36.1017 2.74996 37.6944 2.88009C39.3343 3.01408 40.7747 3.29715 42.1074 3.97618C44.2242 5.05475 45.9452 6.77578 47.0238 8.89261C47.7028 10.2253 47.9859 11.6657 48.1199 13.3056C48.25 14.8983 48.25 16.8651 48.25 19.3036V24.5C48.25 25.7426 47.2426 26.75 46 26.75C44.7574 26.75 43.75 25.7426 43.75 24.5V19.4C43.75 16.8426 43.7482 15.0599 43.6349 13.672C43.5236 12.3104 43.3162 11.5281 43.0143 10.9356C42.3671 9.66547 41.3345 8.63285 40.0644 7.98571C39.4719 7.68379 38.6896 7.4764 37.328 7.36515C35.9401 7.25175 34.1574 7.25 31.6 7.25H21.4C18.8426 7.25 17.0599 7.25175 15.672 7.36515C14.3104 7.4764 13.5281 7.68379 12.9356 7.98571C11.6655 8.63285 10.6329 9.66547 9.98571 10.9356C9.68379 11.5281 9.4764 12.3104 9.36515 13.672C9.25175 15.0599 9.25 16.8426 9.25 19.4V29.6C9.25 32.1574 9.25175 33.9401 9.36515 35.328C9.4764 36.6896 9.68379 37.4719 9.98571 38.0644C10.6329 39.3345 11.6655 40.3671 12.9356 41.0143C13.5281 41.3162 14.3104 41.5236 15.672 41.6349C17.0599 41.7482 18.8426 41.75 21.4 41.75H26.5C27.7426 41.75 28.75 42.7574 28.75 44C28.75 45.2426 27.7426 46.25 26.5 46.25Z"
  />
  <path
    d="M33.0762 27.6994C32.1437 26.7669 30.6318 26.7669 29.6994 27.6994C28.7669 28.6318 28.7669 30.1437 29.6994 31.0762L46.8477 48.2245H35.6327C34.3139 48.2245 33.2449 49.2935 33.2449 50.6122C33.2449 51.931 34.3139 53 35.6327 53H52.6122C53.931 53 55 51.931 55 50.6122V33.6327C55 32.3139 53.931 31.2449 52.6122 31.2449C51.2935 31.2449 50.2245 32.3139 50.2245 33.6327V44.8477L33.0762 27.6994Z"
  />
</svg>
