<svg
  width="60"
  height="60"
  viewBox="0 0 60 60"
  fill="currentColor"
  xmlns="http://www.w3.org/2000/svg"
>
  <path
    fill-rule="evenodd"
    clip-rule="evenodd"
    d="M30 14.3533L44.1716 28.6451C45.7337 30.2204 48.2663 30.2204 49.8284 28.6451C51.3905 27.0697 51.3905 24.5156 49.8284 22.9402L34.2426 7.22227C31.8995 4.85926 28.1005 4.85926 25.7574 7.22227L10.1716 22.9402C8.60948 24.5156 8.60948 27.0697 10.1716 28.645C11.7337 30.2204 14.2663 30.2204 15.8284 28.645L30 14.3533ZM30 37.5483L15.8284 51.8401C14.2663 53.4154 11.7337 53.4154 10.1716 51.8401C8.60948 50.2647 8.60948 47.7106 10.1716 46.1353L25.7574 30.4173C28.1005 28.0543 31.8995 28.0543 34.2426 30.4173L49.8284 46.1353C51.3905 47.7106 51.3905 50.2647 49.8284 51.8401C48.2663 53.4154 45.7337 53.4154 44.1716 51.8401L30 37.5483Z"
  />
</svg>
