<svg
  width="60"
  height="60"
  viewBox="0 0 60 60"
  fill="currentColor"
  xmlns="http://www.w3.org/2000/svg"
>
  <path
    fill-rule="evenodd"
    clip-rule="evenodd"
    d="M30 45.759L15.8284 31.6475C14.2663 30.092 11.7337 30.092 10.1716 31.6475C8.60948 33.203 8.60948 35.7249 10.1716 37.2804L25.7574 52.8001C28.1005 55.1333 31.8995 55.1333 34.2426 52.8001L49.8284 37.2804C51.3905 35.7249 51.3905 33.203 49.8284 31.6475C48.2663 30.0921 45.7337 30.0921 44.1716 31.6475L30 45.759ZM30 22.8565L44.1716 8.74504C45.7337 7.18956 48.2663 7.18956 49.8284 8.74504C51.3905 10.3005 51.3905 12.8224 49.8284 14.3779L34.2426 29.8976C31.8995 32.2308 28.1005 32.2308 25.7574 29.8976L10.1716 14.3779C8.60948 12.8224 8.60948 10.3005 10.1716 8.74504C11.7337 7.18956 14.2663 7.18956 15.8284 8.74504L30 22.8565Z"
  />
</svg>
