<svg
  width="60"
  height="60"
  viewBox="0 0 60 60"
  fill="currentColor"
  xmlns="http://www.w3.org/2000/svg"
>
  <path
    d="M33.0762 30.3006C32.1437 31.2331 30.6318 31.2331 29.6994 30.3006C28.7669 29.3682 28.7669 27.8563 29.6994 26.9238L46.8477 9.77551H35.6327C34.3139 9.77551 33.2449 8.70648 33.2449 7.38776C33.2449 6.06903 34.3139 5 35.6327 5H52.6122C53.931 5 55 6.06903 55 7.38776V24.3673C55 25.6861 53.931 26.7551 52.6122 26.7551C51.2935 26.7551 50.2245 25.6861 50.2245 24.3673V13.1523L33.0762 30.3006Z"
  />
  <path
    d="M26.5 11.75L21.3037 11.75C18.8652 11.75 16.8983 11.75 15.3056 11.8801C13.6657 12.0141 12.2253 12.2972 10.8926 12.9762C8.77578 14.0548 7.05475 15.7758 5.97618 17.8926C5.29716 19.2253 5.01408 20.6657 4.88009 22.3056C4.74996 23.8983 4.74998 25.8652 4.75 28.3037V38.6963C4.74998 41.1348 4.74996 43.1017 4.88009 44.6944C5.01408 46.3343 5.29716 47.7747 5.97618 49.1074C7.05475 51.2242 8.77578 52.9452 10.8926 54.0238C12.2253 54.7028 13.6657 54.9859 15.3056 55.1199C16.8983 55.25 18.8651 55.25 21.3036 55.25H31.6964C34.1348 55.25 36.1017 55.25 37.6944 55.1199C39.3343 54.9859 40.7747 54.7028 42.1074 54.0238C44.2242 52.9452 45.9452 51.2242 47.0238 49.1074C47.7028 47.7747 47.9859 46.3343 48.1199 44.6944C48.25 43.1017 48.25 41.1349 48.25 38.6964V33.5C48.25 32.2574 47.2426 31.25 46 31.25C44.7574 31.25 43.75 32.2574 43.75 33.5V38.6C43.75 41.1574 43.7482 42.9401 43.6349 44.328C43.5236 45.6896 43.3162 46.4719 43.0143 47.0644C42.3671 48.3345 41.3345 49.3671 40.0644 50.0143C39.4719 50.3162 38.6896 50.5236 37.328 50.6349C35.9401 50.7482 34.1574 50.75 31.6 50.75H21.4C18.8426 50.75 17.0599 50.7482 15.672 50.6349C14.3104 50.5236 13.5281 50.3162 12.9356 50.0143C11.6655 49.3671 10.6329 48.3345 9.98571 47.0644C9.68379 46.4719 9.4764 45.6896 9.36515 44.328C9.25175 42.9401 9.25 41.1574 9.25 38.6V28.4C9.25 25.8426 9.25175 24.0599 9.36515 22.672C9.4764 21.3104 9.68379 20.5281 9.98571 19.9356C10.6329 18.6655 11.6655 17.6329 12.9356 16.9857C13.5281 16.6838 14.3104 16.4764 15.672 16.3651C17.0599 16.2518 18.8426 16.25 21.4 16.25H26.5C27.7426 16.25 28.75 15.2426 28.75 14C28.75 12.7574 27.7426 11.75 26.5 11.75Z"
  />
</svg>
