<svg
  width="60"
  height="60"
  viewBox="0 0 60 60"
  fill="currentColor"
  xmlns="http://www.w3.org/2000/svg"
>
  <path
    d="M31.6224 3.30294C32.5596 2.48706 33.9809 2.58547 34.7967 3.52275L41.9795 11.7742C42.037 11.8367 42.0916 11.9031 42.1429 11.9734C42.8755 12.977 42.6558 14.3846 41.6521 15.1173L33.2271 21.2673C32.2235 21.9999 30.8159 21.7802 30.0832 20.7766C29.3506 19.7729 29.5703 18.3653 30.574 17.6326L34.96 14.431C33.4176 14.0834 31.7685 13.875 29.9992 13.875C19.2669 13.875 10.5742 22.5676 10.5742 33.3C10.5742 44.059 19.2685 52.75 29.9992 52.75C40.7316 52.75 49.4242 44.0574 49.4242 33.325C49.4242 32.0824 50.4316 31.075 51.6742 31.075C52.9169 31.075 53.9242 32.0824 53.9242 33.325C53.9242 46.5426 43.2169 57.25 29.9992 57.25C16.7799 57.25 6.07422 46.541 6.07422 33.3C6.07422 20.0824 16.7816 9.375 29.9992 9.375C31.476 9.375 32.8805 9.49598 34.2147 9.70792L31.4025 6.47732C30.5867 5.54004 30.6851 4.11882 31.6224 3.30294Z"
  />
</svg>
