<svg
  width="60"
  height="60"
  viewBox="0 0 60 60"
  fill="currentColor"
  xmlns="http://www.w3.org/2000/svg"
>
  <path
    fill-rule="evenodd"
    clip-rule="evenodd"
    d="M44.328 50.6349C42.9401 50.7482 41.1574 50.75 38.6 50.75H37C35.7574 50.75 34.75 51.7574 34.75 53C34.75 54.2426 35.7574 55.25 37 55.25H38.6963C41.1348 55.25 43.1017 55.25 44.6944 55.1199C46.3343 54.9859 47.7747 54.7028 49.1074 54.0238C51.2242 52.9452 52.9452 51.2242 54.0238 49.1074C54.7028 47.7747 54.9859 46.3343 55.1199 44.6944C55.25 43.1017 55.25 41.1349 55.25 38.6964V21.3036C55.25 18.8651 55.25 16.8983 55.1199 15.3056C54.9859 13.6657 54.7028 12.2253 54.0238 10.8926C52.9452 8.77578 51.2242 7.05476 49.1074 5.97618C47.7747 5.29715 46.3343 5.01408 44.6944 4.88009C43.1017 4.74996 41.1349 4.74998 38.6964 4.75H21.3036C18.8651 4.74998 16.8983 4.74996 15.3056 4.88009C13.6657 5.01408 12.2253 5.29715 10.8926 5.97618C8.77578 7.05475 7.05475 8.77578 5.97618 10.8926C5.29716 12.2253 5.01408 13.6657 4.88009 15.3056C4.74996 16.8983 4.74998 18.8652 4.75 21.3037L4.75 23C4.75 24.2426 5.75736 25.25 7 25.25C8.24264 25.25 9.25 24.2426 9.25 23V21.4C9.25 18.8426 9.25175 17.0599 9.36515 15.672C9.4764 14.3104 9.68379 13.5281 9.98571 12.9356C10.6329 11.6655 11.6655 10.6329 12.9356 9.98571C13.5281 9.68379 14.3104 9.4764 15.672 9.36515C17.0599 9.25175 18.8426 9.25 21.4 9.25H38.6C41.1574 9.25 42.9401 9.25175 44.328 9.36515C45.6896 9.4764 46.4719 9.68379 47.0644 9.98571C48.3345 10.6329 49.3671 11.6655 50.0143 12.9356C50.3162 13.5281 50.5236 14.3104 50.6349 15.672C50.7482 17.0599 50.75 18.8426 50.75 21.4V38.6C50.75 41.1574 50.7482 42.9401 50.6349 44.328C50.5236 45.6896 50.3162 46.4719 50.0143 47.0644C49.3671 48.3345 48.3345 49.3671 47.0644 50.0143C46.4719 50.3162 45.6896 50.5236 44.328 50.6349Z"
  />
  <path
    fill-rule="evenodd"
    clip-rule="evenodd"
    d="M8.40901 51.591C9.28769 52.4697 10.7123 52.4697 11.591 51.591L27.75 35.432V46C27.75 47.2426 28.7574 48.25 30 48.25C31.2426 48.25 32.25 47.2426 32.25 46V30C32.25 28.7574 31.2426 27.75 30 27.75H14C12.7574 27.75 11.75 28.7574 11.75 30C11.75 31.2426 12.7574 32.25 14 32.25H24.568L8.40901 48.409C7.53033 49.2877 7.53033 50.7123 8.40901 51.591Z"
  />
</svg>
