<svg
  width="60"
  height="60"
  viewBox="0 0 60 60"
  fill="currentColor"
  xmlns="http://www.w3.org/2000/svg"
>
  <path
    d="M36.9283 38C34.6547 41.938 33.5179 43.9069 32.0338 44.5677C30.7392 45.1441 29.2609 45.1441 27.9664 44.5677C26.4823 43.9069 25.3455 41.938 23.0719 38L17.8757 29C15.6021 25.062 14.4653 23.0931 14.6352 21.4774C14.7833 20.0681 15.5224 18.7878 16.6688 17.9549C17.9832 17 20.2568 17 24.8039 17L35.1962 17C39.7434 17 42.017 17 43.3313 17.9549C44.4777 18.7878 45.2169 20.0681 45.365 21.4774C45.5348 23.0931 44.398 25.062 42.1244 29L36.9283 38Z"
  />
</svg>
