<svg
  width="60"
  height="60"
  viewBox="0 0 60 60"
  fill="currentColor"
  xmlns="http://www.w3.org/2000/svg"
>
  <path
    d="M35.5 46.25H40.6963C43.1348 46.25 45.1017 46.25 46.6944 46.1199C48.3343 45.9859 49.7747 45.7028 51.1074 45.0238C53.2242 43.9452 54.9452 42.2242 56.0238 40.1074C56.7028 38.7747 56.9859 37.3343 57.1199 35.6944C57.25 34.1017 57.25 32.1348 57.25 29.6963V19.3037C57.25 16.8652 57.25 14.8983 57.1199 13.3056C56.9859 11.6657 56.7028 10.2253 56.0238 8.89261C54.9452 6.77578 53.2242 5.05475 51.1074 3.97618C49.7747 3.29715 48.3343 3.01408 46.6944 2.88009C45.1017 2.74996 43.1349 2.74998 40.6964 2.75H30.3036C27.8652 2.74998 25.8983 2.74996 24.3056 2.88009C22.6657 3.01408 21.2253 3.29715 19.8926 3.97618C17.7758 5.05475 16.0548 6.77578 14.9762 8.89261C14.2972 10.2253 14.0141 11.6657 13.8801 13.3056C13.75 14.8983 13.75 16.8651 13.75 19.3036V24.5C13.75 25.7426 14.7574 26.75 16 26.75C17.2426 26.75 18.25 25.7426 18.25 24.5V19.4C18.25 16.8426 18.2518 15.0599 18.3651 13.672C18.4764 12.3104 18.6838 11.5281 18.9857 10.9356C19.6329 9.66547 20.6655 8.63285 21.9356 7.98571C22.5281 7.68379 23.3104 7.4764 24.672 7.36515C26.0599 7.25175 27.8426 7.25 30.4 7.25H40.6C43.1574 7.25 44.9401 7.25175 46.328 7.36515C47.6896 7.4764 48.4719 7.68379 49.0644 7.98571C50.3345 8.63285 51.3671 9.66547 52.0143 10.9356C52.3162 11.5281 52.5236 12.3104 52.6349 13.672C52.7482 15.0599 52.75 16.8426 52.75 19.4V29.6C52.75 32.1574 52.7482 33.9401 52.6349 35.328C52.5236 36.6896 52.3162 37.4719 52.0143 38.0644C51.3671 39.3345 50.3345 40.3671 49.0644 41.0143C48.4719 41.3162 47.6896 41.5236 46.328 41.6349C44.9401 41.7482 43.1574 41.75 40.6 41.75H35.5C34.2574 41.75 33.25 42.7574 33.25 44C33.25 45.2426 34.2574 46.25 35.5 46.25Z"
  />
  <path
    d="M28.9238 27.6994C29.8563 26.7669 31.3682 26.7669 32.3006 27.6994C33.2331 28.6318 33.2331 30.1437 32.3006 31.0762L15.1523 48.2245H26.3673C27.6861 48.2245 28.7551 49.2935 28.7551 50.6122C28.7551 51.931 27.6861 53 26.3673 53H9.38776C8.06903 53 7 51.931 7 50.6122V33.6327C7 32.3139 8.06903 31.2449 9.38776 31.2449C10.7065 31.2449 11.7755 32.3139 11.7755 33.6327V44.8477L28.9238 27.6994Z"
  />
</svg>
