<svg
  width="60"
  height="60"
  viewBox="0 0 60 60"
  fill="currentColor"
  xmlns="http://www.w3.org/2000/svg"
>
  <path
    d="M28.9238 30.3006C29.8563 31.2331 31.3682 31.2331 32.3006 30.3006C33.2331 29.3682 33.2331 27.8563 32.3006 26.9238L15.1523 9.77551H26.3673C27.6861 9.77551 28.7551 8.70648 28.7551 7.38776C28.7551 6.06903 27.6861 5 26.3673 5H9.38776C8.06903 5 7 6.06903 7 7.38776V24.3673C7 25.6861 8.06903 26.7551 9.38776 26.7551C10.7065 26.7551 11.7755 25.6861 11.7755 24.3673V13.1523L28.9238 30.3006Z"
  />
  <path
    d="M35.5 11.75L40.6963 11.75C43.1348 11.75 45.1017 11.75 46.6944 11.8801C48.3343 12.0141 49.7747 12.2972 51.1074 12.9762C53.2242 14.0548 54.9452 15.7758 56.0238 17.8926C56.7028 19.2253 56.9859 20.6657 57.1199 22.3056C57.25 23.8983 57.25 25.8652 57.25 28.3037V38.6963C57.25 41.1348 57.25 43.1017 57.1199 44.6944C56.9859 46.3343 56.7028 47.7747 56.0238 49.1074C54.9452 51.2242 53.2242 52.9452 51.1074 54.0238C49.7747 54.7028 48.3343 54.9859 46.6944 55.1199C45.1017 55.25 43.1349 55.25 40.6964 55.25H30.3036C27.8652 55.25 25.8983 55.25 24.3056 55.1199C22.6657 54.9859 21.2253 54.7028 19.8926 54.0238C17.7758 52.9452 16.0548 51.2242 14.9762 49.1074C14.2972 47.7747 14.0141 46.3343 13.8801 44.6944C13.75 43.1017 13.75 41.1349 13.75 38.6964V33.5C13.75 32.2574 14.7574 31.25 16 31.25C17.2426 31.25 18.25 32.2574 18.25 33.5V38.6C18.25 41.1574 18.2518 42.9401 18.3651 44.328C18.4764 45.6896 18.6838 46.4719 18.9857 47.0644C19.6329 48.3345 20.6655 49.3671 21.9356 50.0143C22.5281 50.3162 23.3104 50.5236 24.672 50.6349C26.0599 50.7482 27.8426 50.75 30.4 50.75H40.6C43.1574 50.75 44.9401 50.7482 46.328 50.6349C47.6896 50.5236 48.4719 50.3162 49.0644 50.0143C50.3345 49.3671 51.3671 48.3345 52.0143 47.0644C52.3162 46.4719 52.5236 45.6896 52.6349 44.328C52.7482 42.9401 52.75 41.1574 52.75 38.6V28.4C52.75 25.8426 52.7482 24.0599 52.6349 22.672C52.5236 21.3104 52.3162 20.5281 52.0143 19.9356C51.3671 18.6655 50.3345 17.6329 49.0644 16.9857C48.4719 16.6838 47.6896 16.4764 46.328 16.3651C44.9401 16.2518 43.1574 16.25 40.6 16.25H35.5C34.2574 16.25 33.25 15.2426 33.25 14C33.25 12.7574 34.2574 11.75 35.5 11.75Z"
  />
</svg>
