<svg
  width="60"
  height="60"
  viewBox="0 0 60 60"
  fill="currentColor"
  xmlns="http://www.w3.org/2000/svg"
>
  <path
    fill-rule="evenodd"
    clip-rule="evenodd"
    d="M2.2736 35.1216C1.12 32.4949 1.12 29.505 2.2736 26.8783C3.03398 25.1469 4.45166 23.8171 6.20222 22.547C7.93966 21.2864 10.2996 19.8838 13.2639 18.1221L26.6123 10.1887C29.6934 8.35746 32.1414 6.90254 34.1438 5.94819C36.1558 4.98928 38.0562 4.36191 39.9812 4.54703C42.8908 4.82683 45.5425 6.33553 47.2695 8.69376C48.4122 10.254 48.8437 12.2081 49.0474 14.4276C49.2501 16.6366 49.25 19.4843 49.25 23.0686V38.9313C49.25 42.5156 49.2501 45.3633 49.0474 47.5723C48.8437 49.7918 48.4122 51.7459 47.2695 53.3061C45.5425 55.6643 42.8908 57.173 39.9812 57.4528C38.0562 57.638 36.1558 57.0106 34.1438 56.0517C32.1414 55.0973 29.6934 53.6424 26.6123 51.8111L13.2637 43.8777C10.2995 42.116 7.93962 40.7135 6.20222 39.4529C4.45166 38.1827 3.03398 36.8529 2.2736 35.1216ZM6.39376 28.6878C5.74662 30.1613 5.74662 31.8386 6.39376 33.3121C6.66513 33.93 7.28806 34.681 8.8449 35.8106C10.3953 36.9355 12.5759 38.2341 15.6633 40.0691L28.8099 47.8825C32.0152 49.7875 34.2862 51.1346 36.0799 51.9894C37.886 52.8502 38.8713 53.0388 39.5504 52.9735C41.1826 52.8165 42.6702 51.9702 43.639 50.6473C44.0421 50.0969 44.3834 49.1535 44.5662 47.1611C44.7477 45.1824 44.75 42.542 44.75 38.8134V23.1865C44.75 19.4579 44.7477 16.8175 44.5662 14.8387C44.3834 12.8463 44.0421 11.903 43.639 11.3526C42.6702 10.0297 41.1826 9.18333 39.5504 9.02637C38.8713 8.96106 37.886 9.14963 36.0799 10.0104C34.2862 10.8653 32.0152 12.2123 28.8099 14.1174L15.6634 21.9308C12.5759 23.7657 10.3953 25.0644 8.8449 26.1893C7.28806 27.3189 6.66513 28.0699 6.39376 28.6878Z"
  />
</svg>
