<svg
  width="60"
  height="60"
  viewBox="0 0 60 60"
  fill="currentColor"
  xmlns="http://www.w3.org/2000/svg"
>
  <path
    fill-rule="evenodd"
    clip-rule="evenodd"
    d="M45.7216 30L31.55 44.1716C29.9879 45.7337 29.9879 48.2663 31.55 49.8284C33.1121 51.3905 35.6448 51.3905 37.2068 49.8284L52.7926 34.2426C55.1358 31.8995 55.1358 28.1005 52.7926 25.7574L37.2069 10.1716C35.6448 8.60948 33.1121 8.60948 31.55 10.1716C29.9879 11.7337 29.9879 14.2663 31.55 15.8284L45.7216 30ZM22.7216 30L8.54999 15.8284C6.9879 14.2663 6.9879 11.7337 8.54999 10.1716C10.1121 8.60948 12.6448 8.60948 14.2068 10.1716L29.7926 25.7574C32.1358 28.1005 32.1358 31.8995 29.7926 34.2426L14.2068 49.8284C12.6447 51.3905 10.1121 51.3905 8.54999 49.8284C6.98789 48.2663 6.9879 45.7337 8.54999 44.1716L22.7216 30Z"
  />
</svg>
