<svg
  width="60"
  height="60"
  viewBox="0 0 60 60"
  fill="currentColor"
  xmlns="http://www.w3.org/2000/svg"
>
  <path
    d="M38.6 9.25C41.1574 9.25 42.9401 9.25175 44.328 9.36515C45.6896 9.4764 46.4719 9.68379 47.0644 9.98571C48.3345 10.6329 49.3671 11.6655 50.0143 12.9356C50.3162 13.5281 50.5236 14.3104 50.6349 15.672C50.7482 17.0599 50.75 18.8426 50.75 21.4L50.75 38.6C50.75 41.1574 50.7482 42.9401 50.6349 44.328C50.5236 45.6896 50.3162 46.4719 50.0143 47.0644C49.3671 48.3345 48.3345 49.3671 47.0644 50.0143C46.4719 50.3162 45.6896 50.5236 44.328 50.6349C42.9401 50.7482 41.1574 50.75 38.6 50.75L21.4 50.75C18.8426 50.75 17.0599 50.7482 15.672 50.6349C14.3104 50.5236 13.5281 50.3162 12.9356 50.0143C11.6655 49.3671 10.6329 48.3345 9.98571 47.0644C9.68379 46.4719 9.4764 45.6896 9.36515 44.328C9.25175 42.9401 9.25 41.1574 9.25 38.6V37C9.25 35.7574 8.24264 34.75 7 34.75C5.75736 34.75 4.75 35.7574 4.75 37L4.75 38.6963C4.74998 41.1348 4.74996 43.1017 4.88009 44.6944C5.01408 46.3343 5.29716 47.7747 5.97618 49.1074C7.05475 51.2242 8.77578 52.9452 10.8926 54.0238C12.2253 54.7028 13.6657 54.9859 15.3056 55.1199C16.8983 55.25 18.8651 55.25 21.3036 55.25L38.6964 55.25C41.1348 55.25 43.1017 55.25 44.6944 55.1199C46.3343 54.9859 47.7747 54.7028 49.1074 54.0238C51.2242 52.9452 52.9452 51.2242 54.0238 49.1074C54.7028 47.7747 54.9859 46.3343 55.1199 44.6944C55.25 43.1017 55.25 41.1349 55.25 38.6964L55.25 21.3036C55.25 18.8652 55.25 16.8983 55.1199 15.3056C54.9859 13.6657 54.7028 12.2253 54.0238 10.8926C52.9452 8.77579 51.2242 7.05475 49.1074 5.97618C47.7747 5.29716 46.3343 5.01408 44.6944 4.88009C43.1017 4.74996 41.1349 4.74998 38.6963 4.75L37 4.75C35.7574 4.75 34.75 5.75736 34.75 7C34.75 8.24264 35.7574 9.25 37 9.25H38.6Z"
  />
  <path
    d="M30.25 7C30.25 5.75736 29.2426 4.75 28 4.75L9 4.75C6.65279 4.75 4.75 6.65279 4.75 9L4.75 28C4.75 29.2426 5.75736 30.25 7 30.25C8.24264 30.25 9.25 29.2426 9.25 28L9.25 12.7855L30.2322 33.7678C31.2085 34.7441 32.7915 34.7441 33.7678 33.7678C34.7441 32.7915 34.7441 31.2085 33.7678 30.2322L12.7855 9.25L28 9.25C29.2426 9.25 30.25 8.24264 30.25 7Z"
  />
</svg>
