<svg
  width="60"
  height="60"
  viewBox="0 0 60 60"
  fill="currentColor"
  xmlns="http://www.w3.org/2000/svg"
>
  <path
    d="M12.0784 47C12.0784 48.2426 11.0711 49.25 9.82843 49.25C8.58579 49.25 7.57843 48.2426 7.57843 47L7.57843 30C7.57843 23.7868 12.6152 18.75 18.8284 18.75L46.3965 18.75L40.2374 12.591C39.3588 11.7123 39.3588 10.2877 40.2374 9.40901C41.1161 8.53033 42.5407 8.53033 43.4194 9.40901L52.0052 17.9948C53.6649 19.6545 53.6649 22.3455 52.0052 24.0052L43.4194 32.591C42.5407 33.4697 41.1161 33.4697 40.2374 32.591C39.3588 31.7123 39.3588 30.2877 40.2374 29.409L46.3965 23.25L18.8284 23.25C15.1005 23.25 12.0784 26.2721 12.0784 30V47Z"
  />
</svg>
