<svg
  width="60"
  height="60"
  viewBox="0 0 60 60"
  fill="currentColor"
  xmlns="http://www.w3.org/2000/svg"
>
  <path
    d="M19.591 10.591C20.4697 9.71231 20.4697 8.28769 19.591 7.40901C18.7123 6.53033 17.2877 6.53033 16.409 7.40901L6.40901 17.409C5.53033 18.2877 5.53033 19.7123 6.40901 20.591L16.409 30.591C17.2877 31.4697 18.7123 31.4697 19.591 30.591C20.4697 29.7123 20.4697 28.2877 19.591 27.409L13.432 21.25H37C44.0416 21.25 49.75 26.9584 49.75 34C49.75 41.0416 44.0416 46.75 37 46.75H20.2C18.9574 46.75 17.95 47.7574 17.95 49C17.95 50.2426 18.9574 51.25 20.2 51.25H37C46.5269 51.25 54.25 43.5269 54.25 34C54.25 24.4731 46.5269 16.75 37 16.75H13.432L19.591 10.591Z"
  />
</svg>
