<svg
  width="60"
  height="60"
  viewBox="0 0 60 60"
  fill="currentColor"
  xmlns="http://www.w3.org/2000/svg"
>
  <path
    fill-rule="evenodd"
    clip-rule="evenodd"
    d="M26.9948 8.45621C28.6545 6.78128 31.3455 6.78128 33.0052 8.45621L48.591 24.1848C49.4697 25.0715 49.4697 26.5092 48.591 27.3959C47.7123 28.2826 46.2877 28.2826 45.409 27.3959L30 11.8457L14.591 27.3959C13.7123 28.2826 12.2877 28.2826 11.409 27.3959C10.5303 26.5091 10.5303 25.0715 11.409 24.1848L26.9948 8.45621ZM30 35.0564L14.591 50.6065C13.7123 51.4933 12.2877 51.4933 11.409 50.6065C10.5303 49.7198 10.5303 48.2821 11.409 47.3954L26.9948 31.6669C28.6545 29.9919 31.3455 29.9919 33.0052 31.6669L48.591 47.3954C49.4697 48.2821 49.4697 49.7198 48.591 50.6065C47.7123 51.4933 46.2877 51.4933 45.409 50.6065L30 35.0564Z"
  />
</svg>
