<svg
  width="60"
  height="60"
  viewBox="0 0 60 60"
  fill="currentColor"
  xmlns="http://www.w3.org/2000/svg"
>
  <path
    fill-rule="evenodd"
    clip-rule="evenodd"
    d="M8.44475 33.0052C6.78502 31.3455 6.78502 28.6545 8.44475 26.9948L24.0305 11.409C24.9092 10.5303 26.3338 10.5303 27.2125 11.409C28.0912 12.2877 28.0912 13.7123 27.2125 14.591L11.8035 30L27.2125 45.409C28.0912 46.2877 28.0912 47.7123 27.2125 48.591C26.3338 49.4697 24.9092 49.4697 24.0305 48.591L8.44475 33.0052ZM34.8035 30L50.2125 45.409C51.0912 46.2877 51.0912 47.7123 50.2125 48.591C49.3338 49.4697 47.9092 49.4697 47.0305 48.591L31.4447 33.0052C29.785 31.3455 29.785 28.6545 31.4447 26.9948L47.0305 11.409C47.9092 10.5303 49.3338 10.5303 50.2125 11.409C51.0912 12.2877 51.0912 13.7123 50.2125 14.591L34.8035 30Z"
  />
</svg>
