<svg
  width="60"
  height="60"
  viewBox="0 0 60 60"
  fill="currentColor"
  xmlns="http://www.w3.org/2000/svg"
>
  <path
    d="M23.0717 22C25.3453 18.062 26.4821 16.0931 27.9662 15.4323C29.2608 14.8559 30.7391 14.8559 32.0336 15.4323C33.5177 16.0931 34.6545 18.062 36.9281 22L42.1243 31C44.3979 34.938 45.5347 36.9069 45.3648 38.5226C45.2167 39.9319 44.4776 41.2122 43.3312 42.0451C42.0168 43 39.7432 43 35.1961 43H24.8038C20.2566 43 17.983 43 16.6687 42.0451C15.5223 41.2122 14.7831 39.9319 14.635 38.5226C14.4652 36.9069 15.602 34.938 17.8756 31L23.0717 22Z"
  />
</svg>
