<svg
  width="60"
  height="60"
  viewBox="0 0 60 60"
  fill="currentColor"
  xmlns="http://www.w3.org/2000/svg"
>
  <path
    fill-rule="evenodd"
    clip-rule="evenodd"
    d="M38.6 50.75C41.1574 50.75 42.9401 50.7482 44.328 50.6349C45.6896 50.5236 46.4719 50.3162 47.0644 50.0143C48.3345 49.3671 49.3671 48.3345 50.0143 47.0644C50.3162 46.4719 50.5236 45.6896 50.6349 44.328C50.7482 42.9401 50.75 41.1574 50.75 38.6L50.75 21.4C50.75 18.8426 50.7482 17.0599 50.6349 15.672C50.5236 14.3104 50.3162 13.5281 50.0143 12.9356C49.3671 11.6655 48.3345 10.6329 47.0644 9.98571C46.4719 9.68379 45.6896 9.4764 44.328 9.36515C42.9401 9.25175 41.1574 9.25 38.6 9.25L21.4 9.25C18.8426 9.25 17.0599 9.25175 15.672 9.36515C14.3104 9.4764 13.5281 9.68379 12.9356 9.98571C11.6655 10.6329 10.6329 11.6655 9.98571 12.9356C9.68379 13.5281 9.47639 14.3104 9.36515 15.672C9.25175 17.0599 9.25 18.8426 9.25 21.4V23C9.25 24.2426 8.24264 25.25 7 25.25C5.75736 25.25 4.75 24.2426 4.75 23V21.3037C4.74998 18.8652 4.74996 16.8983 4.88009 15.3056C5.01408 13.6657 5.29716 12.2253 5.97618 10.8926C7.05475 8.77578 8.77578 7.05475 10.8926 5.97618C12.2253 5.29715 13.6657 5.01408 15.3056 4.88009C16.8983 4.74996 18.8651 4.74998 21.3036 4.75H21.3036L38.6964 4.75H38.6964C41.1349 4.74998 43.1017 4.74996 44.6944 4.88009C46.3343 5.01408 47.7747 5.29715 49.1074 5.97618C51.2242 7.05476 52.9452 8.77578 54.0238 10.8926C54.7028 12.2253 54.9859 13.6657 55.1199 15.3056C55.25 16.8983 55.25 18.8651 55.25 21.3036V21.3036L55.25 38.6964V38.6964C55.25 41.1349 55.25 43.1017 55.1199 44.6944C54.9859 46.3343 54.7028 47.7747 54.0238 49.1074C52.9452 51.2242 51.2242 52.9452 49.1074 54.0238C47.7747 54.7028 46.3343 54.9859 44.6944 55.1199C43.1017 55.25 41.1348 55.25 38.6963 55.25H37C35.7574 55.25 34.75 54.2426 34.75 53C34.75 51.7574 35.7574 50.75 37 50.75H38.6ZM28 50.75L12.7855 50.75L33.7678 29.7678C34.7441 28.7915 34.7441 27.2085 33.7678 26.2322C32.7915 25.2559 31.2085 25.2559 30.2322 26.2322L9.25 47.2145L9.25 32C9.25 30.7574 8.24264 29.75 7 29.75C5.75736 29.75 4.75 30.7574 4.75 32L4.75 51C4.75 53.3472 6.65279 55.25 9 55.25L28 55.25C29.2426 55.25 30.25 54.2426 30.25 53C30.25 51.7574 29.2426 50.75 28 50.75Z"
  />
</svg>
