<svg
  width="60"
  height="60"
  viewBox="0 0 60 60"
  fill="currentColor"
  xmlns="http://www.w3.org/2000/svg"
>
  <path
    d="M21.4 50.75C18.8426 50.75 17.0599 50.7482 15.672 50.6349C14.3104 50.5236 13.5281 50.3162 12.9356 50.0143C11.6655 49.3671 10.6329 48.3345 9.98571 47.0644C9.68379 46.4719 9.4764 45.6896 9.36515 44.328C9.25175 42.9401 9.25 41.1574 9.25 38.6V21.4C9.25 18.8426 9.25175 17.0599 9.36515 15.672C9.4764 14.3104 9.68379 13.5281 9.98571 12.9356C10.6329 11.6655 11.6655 10.6329 12.9356 9.98571C13.5281 9.68379 14.3104 9.4764 15.672 9.36515C17.0599 9.25175 18.8426 9.25 21.4 9.25H38.6C41.1574 9.25 42.9401 9.25175 44.328 9.36515C45.6896 9.4764 46.4719 9.68379 47.0644 9.98571C48.3345 10.6329 49.3671 11.6655 50.0143 12.9356C50.3162 13.5281 50.5236 14.3104 50.6349 15.672C50.7482 17.0599 50.75 18.8426 50.75 21.4V23C50.75 24.2426 51.7574 25.25 53 25.25C54.2426 25.25 55.25 24.2426 55.25 23V21.3037C55.25 18.8652 55.25 16.8983 55.1199 15.3056C54.9859 13.6657 54.7028 12.2253 54.0238 10.8926C52.9452 8.77578 51.2242 7.05475 49.1074 5.97618C47.7747 5.29715 46.3343 5.01408 44.6944 4.88009C43.1017 4.74996 41.1349 4.74998 38.6964 4.75H21.3036C18.8652 4.74998 16.8983 4.74996 15.3056 4.88009C13.6657 5.01408 12.2253 5.29715 10.8926 5.97618C8.77578 7.05476 7.05476 8.77578 5.97618 10.8926C5.29715 12.2253 5.01408 13.6657 4.88009 15.3056C4.74996 16.8983 4.74998 18.8651 4.75 21.3036V38.6964C4.74998 41.1348 4.74996 43.1017 4.88009 44.6944C5.01408 46.3343 5.29715 47.7747 5.97618 49.1074C7.05475 51.2242 8.77578 52.9452 10.8926 54.0238C12.2253 54.7028 13.6657 54.9859 15.3056 55.1199C16.8983 55.25 18.8652 55.25 21.3037 55.25H23C24.2426 55.25 25.25 54.2426 25.25 53C25.25 51.7574 24.2426 50.75 23 50.75H21.4Z"
  />
  <path
    d="M32 50.75H47.2145L26.2322 29.7678C25.2559 28.7915 25.2559 27.2085 26.2322 26.2322C27.2085 25.2559 28.7915 25.2559 29.7678 26.2322L50.75 47.2145V32C50.75 30.7574 51.7574 29.75 53 29.75C54.2426 29.75 55.25 30.7574 55.25 32V51C55.25 53.3472 53.3472 55.25 51 55.25H32C30.7574 55.25 29.75 54.2426 29.75 53C29.75 51.7574 30.7574 50.75 32 50.75Z"
  />
</svg>
