<svg
  width="60"
  height="60"
  viewBox="0 0 60 60"
  fill="currentColor"
  xmlns="http://www.w3.org/2000/svg"
>
  <path
    d="M48.75 47C48.75 48.2426 49.7574 49.25 51 49.25C52.2426 49.25 53.25 48.2426 53.25 47V30C53.25 23.7868 48.2132 18.75 42 18.75L14.432 18.75L20.591 12.591C21.4697 11.7123 21.4697 10.2877 20.591 9.40901C19.7123 8.53033 18.2877 8.53033 17.409 9.40901L8.82323 17.9948C7.1635 19.6545 7.1635 22.3455 8.82323 24.0052L17.409 32.591C18.2877 33.4697 19.7123 33.4697 20.591 32.591C21.4697 31.7123 21.4697 30.2877 20.591 29.409L14.432 23.25L42 23.25C45.7279 23.25 48.75 26.2721 48.75 30V47Z"
  />
</svg>
