<svg
  width="60"
  height="60"
  viewBox="0 0 60 60"
  fill="currentColor"
  xmlns="http://www.w3.org/2000/svg"
>
  <path
    d="M54.591 34.409C55.4697 35.2877 55.4697 36.7123 54.591 37.591L39.591 52.591C39.3753 52.8067 39.1266 52.9695 38.8613 53.0793C38.596 53.1893 38.3051 53.25 38 53.25C37.3913 53.25 36.839 53.0083 36.434 52.6156C36.4172 52.5993 36.4007 52.5828 36.3844 52.566C36.1826 52.3579 36.0289 52.1204 35.9234 51.8676C35.8117 51.6006 35.75 51.3075 35.75 51L35.75 9C35.75 7.75736 36.7574 6.75 38 6.75C39.2426 6.75 40.25 7.75736 40.25 9L40.25 45.568L51.409 34.409C52.2877 33.5303 53.7123 33.5303 54.591 34.409Z"
  />
  <path
    d="M24.25 51L24.25 9C24.25 8.39632 24.0123 7.84816 23.6253 7.44406C23.6027 7.42045 23.5796 7.39733 23.556 7.37471C23.351 7.1783 23.1179 7.0282 22.8701 6.92442C22.6025 6.81208 22.3085 6.75 22 6.75C21.6939 6.75 21.402 6.81114 21.136 6.92187C20.8716 7.03166 20.624 7.19404 20.409 7.40902L5.40901 22.409C4.53033 23.2877 4.53033 24.7123 5.40901 25.591C6.28769 26.4697 7.71231 26.4697 8.59099 25.591L19.75 14.432L19.75 51C19.75 52.2426 20.7574 53.25 22 53.25C23.2426 53.25 24.25 52.2426 24.25 51Z"
  />
</svg>
