<svg
  width="60"
  height="60"
  viewBox="0 0 60 60"
  fill="currentColor"
  xmlns="http://www.w3.org/2000/svg"
>
  <path
    d="M54.25 31C54.25 29.7574 53.2426 28.75 52 28.75L21.432 28.75L32.591 17.591C33.4697 16.7123 33.4697 15.2877 32.591 14.409C31.7123 13.5303 30.2877 13.5303 29.409 14.409L15.8232 27.9948C14.1635 29.6545 14.1635 32.3455 15.8232 34.0052L29.409 47.591C30.2877 48.4697 31.7123 48.4697 32.591 47.591C33.4697 46.7123 33.4697 45.2877 32.591 44.409L21.432 33.25L52 33.25C53.2426 33.25 54.25 32.2426 54.25 31Z"
  />
  <path
    d="M5.75 49C5.75 50.2426 6.75736 51.25 8 51.25C9.24264 51.25 10.25 50.2426 10.25 49L10.25 13.0006C10.25 11.7579 9.24264 10.75 8 10.75C6.75736 10.75 5.75 11.7574 5.75 13L5.75 49Z"
  />
</svg>
