<svg
  width="60"
  height="60"
  viewBox="0 0 60 60"
  fill="currentColor"
  xmlns="http://www.w3.org/2000/svg"
>
  <path
    fill-rule="evenodd"
    clip-rule="evenodd"
    d="M12.8642 30L27.7428 15.1213C28.9144 13.9498 28.9144 12.0503 27.7428 10.8787C26.5713 9.70711 24.6718 9.70711 23.5002 10.8787L7.91442 26.4645C5.9618 28.4171 5.9618 31.5829 7.91442 33.5355L23.5002 49.1213C24.6718 50.2929 26.5713 50.2929 27.7428 49.1213C28.9144 47.9497 28.9144 46.0503 27.7428 44.8787L12.8642 30ZM35.8642 30L50.7428 44.8787C51.9144 46.0503 51.9144 47.9497 50.7428 49.1213C49.5713 50.2929 47.6718 50.2929 46.5002 49.1213L30.9144 33.5355C28.9618 31.5829 28.9618 28.4171 30.9144 26.4645L46.5002 10.8787C47.6718 9.70711 49.5713 9.70711 50.7429 10.8787C51.9144 12.0503 51.9144 13.9498 50.7428 15.1213L35.8642 30Z"
  />
</svg>
