<svg
  width="60"
  height="60"
  viewBox="0 0 60 60"
  fill="currentColor"
  xmlns="http://www.w3.org/2000/svg"
>
  <path
    fill-rule="evenodd"
    clip-rule="evenodd"
    d="M25.8784 6.27364C28.505 5.12005 31.495 5.12005 34.1217 6.27364C35.853 7.03403 37.1828 8.45171 38.4529 10.2023C39.7136 11.9397 41.1161 14.2996 42.8779 17.264L50.8113 30.6124C52.6425 33.6935 54.0974 36.1414 55.0518 38.1439C56.0107 40.1559 56.638 42.0562 56.4529 43.9812C56.1731 46.8908 54.6644 49.5425 52.3062 51.2696C50.7459 52.4122 48.7918 52.8438 46.5723 53.0474C44.3633 53.2501 41.5156 53.2501 37.9314 53.2501H22.0686C18.4844 53.2501 15.6367 53.2501 13.4277 53.0474C11.2082 52.8438 9.25407 52.4122 7.69383 51.2696C5.33561 49.5425 3.82691 46.8908 3.54711 43.9812C3.36199 42.0562 3.98936 40.1559 4.94826 38.1439C5.90263 36.1414 7.35756 33.6934 9.1888 30.6123L17.1222 17.2638C18.884 14.2995 20.2865 11.9397 21.5471 10.2023C22.8172 8.45171 24.147 7.03403 25.8784 6.27364ZM32.3121 10.3938C30.8386 9.74666 29.1614 9.74666 27.6879 10.3938C27.07 10.6652 26.3189 11.2881 25.1894 12.8449C24.0644 14.3953 22.7658 16.576 20.9309 19.6634L13.1174 32.81C11.2124 36.0153 9.86538 38.2862 9.0105 40.0799C8.14971 41.8861 7.96114 42.8714 8.02644 43.5505C8.1834 45.1827 9.02975 46.6702 10.3527 47.639C10.9031 48.0421 11.8464 48.3834 13.8388 48.5662C15.8175 48.7478 18.4579 48.7501 22.1866 48.7501H37.8134C41.5421 48.7501 44.1825 48.7478 46.1612 48.5662C48.1536 48.3834 49.0969 48.0421 49.6474 47.639C50.9703 46.6702 51.8166 45.1827 51.9736 43.5505C52.0389 42.8714 51.8503 41.8861 50.9895 40.0799C50.1346 38.2862 48.7876 36.0153 46.8826 32.81L39.0692 19.6634C37.2342 16.576 35.9356 14.3953 34.8107 12.845C33.6811 11.2881 32.9301 10.6652 32.3121 10.3938Z"
  />
</svg>
