<svg
  width="60"
  height="60"
  viewBox="0 0 60 60"
  fill="currentColor"
  xmlns="http://www.w3.org/2000/svg"
>
  <path
    d="M14.5 51.25H21.5C22.7426 51.25 23.75 50.2426 23.75 49C23.75 47.7574 22.7426 46.75 21.5 46.75H14.5C10.7709 46.75 7.75 43.7304 7.75 40.0037V19.9963C7.75 16.2696 10.7709 13.25 14.5 13.25L21.5 13.25C22.7426 13.25 23.75 12.2426 23.75 11C23.75 9.75736 22.7426 8.75 21.5 8.75H14.5C8.28799 8.75 3.25 13.7819 3.25 19.9963V40.0037C3.25 46.2181 8.28799 51.25 14.5 51.25Z"
  />
  <path
    d="M38.091 46.591C37.2123 47.4697 35.7877 47.4697 34.909 46.591L21.3232 33.0052C19.6635 31.3455 19.6635 28.6545 21.3232 26.9948L34.909 13.409C35.7877 12.5303 37.2123 12.5303 38.091 13.409C38.9697 14.2877 38.9697 15.7123 38.091 16.591L26.932 27.75L54.5 27.75C55.7426 27.75 56.75 28.7574 56.75 30C56.75 31.2426 55.7426 32.25 54.5 32.25L26.932 32.25L38.091 43.409C38.9697 44.2877 38.9697 45.7123 38.091 46.591Z"
  />
</svg>
