<svg
  width="60"
  height="60"
  viewBox="0 0 60 60"
  fill="currentColor"
  xmlns="http://www.w3.org/2000/svg"
>
  <path
    fill-rule="evenodd"
    clip-rule="evenodd"
    d="M15.672 50.6349C17.0599 50.7482 18.8426 50.75 21.4 50.75H23C24.2426 50.75 25.25 51.7574 25.25 53C25.25 54.2426 24.2426 55.25 23 55.25H21.3037C18.8652 55.25 16.8983 55.25 15.3056 55.1199C13.6657 54.9859 12.2253 54.7028 10.8926 54.0238C8.77578 52.9452 7.05475 51.2242 5.97618 49.1074C5.29715 47.7747 5.01408 46.3343 4.88009 44.6944C4.74996 43.1017 4.74998 41.1349 4.75 38.6964V21.3036C4.74998 18.8651 4.74996 16.8983 4.88009 15.3056C5.01408 13.6657 5.29715 12.2253 5.97618 10.8926C7.05476 8.77578 8.77578 7.05476 10.8926 5.97618C12.2253 5.29715 13.6657 5.01408 15.3056 4.88009C16.8983 4.74996 18.8651 4.74998 21.3036 4.75H38.6964C41.1349 4.74998 43.1017 4.74996 44.6944 4.88009C46.3343 5.01408 47.7747 5.29715 49.1074 5.97618C51.2242 7.05475 52.9452 8.77578 54.0238 10.8926C54.7028 12.2253 54.9859 13.6657 55.1199 15.3056C55.25 16.8983 55.25 18.8652 55.25 21.3037V23C55.25 24.2426 54.2426 25.25 53 25.25C51.7574 25.25 50.75 24.2426 50.75 23V21.4C50.75 18.8426 50.7482 17.0599 50.6349 15.672C50.5236 14.3104 50.3162 13.5281 50.0143 12.9356C49.3671 11.6655 48.3345 10.6329 47.0644 9.98571C46.4719 9.68379 45.6896 9.4764 44.328 9.36515C42.9401 9.25175 41.1574 9.25 38.6 9.25H21.4C18.8426 9.25 17.0599 9.25175 15.672 9.36515C14.3104 9.4764 13.5281 9.68379 12.9356 9.98571C11.6655 10.6329 10.6329 11.6655 9.98571 12.9356C9.68379 13.5281 9.4764 14.3104 9.36515 15.672C9.25175 17.0599 9.25 18.8426 9.25 21.4V38.6C9.25 41.1574 9.25175 42.9401 9.36515 44.328C9.4764 45.6896 9.68379 46.4719 9.98571 47.0644C10.6329 48.3345 11.6655 49.3671 12.9356 50.0143C13.5281 50.3162 14.3104 50.5236 15.672 50.6349Z"
  />
  <path
    fill-rule="evenodd"
    clip-rule="evenodd"
    d="M51.591 51.591C50.7123 52.4697 49.2877 52.4697 48.409 51.591L32.25 35.432V46C32.25 47.2426 31.2426 48.25 30 48.25C28.7574 48.25 27.75 47.2426 27.75 46V30C27.75 28.7574 28.7574 27.75 30 27.75H46C47.2426 27.75 48.25 28.7574 48.25 30C48.25 31.2426 47.2426 32.25 46 32.25H35.432L51.591 48.409C52.4697 49.2877 52.4697 50.7123 51.591 51.591Z"
  />
</svg>
