<svg
  width="60"
  height="60"
  viewBox="0 0 60 60"
  fill="currentColor"
  xmlns="http://www.w3.org/2000/svg"
>
  <path
    fill-rule="evenodd"
    clip-rule="evenodd"
    d="M51.5552 26.9948C53.2149 28.6545 53.2149 31.3455 51.5552 33.0052L35.9694 48.591C35.0907 49.4697 33.6661 49.4697 32.7874 48.591C31.9087 47.7123 31.9087 46.2877 32.7874 45.409L48.1964 30L32.7874 14.591C31.9088 13.7123 31.9088 12.2877 32.7874 11.409C33.6661 10.5303 35.0907 10.5303 35.9694 11.409L51.5552 26.9948ZM25.1964 30L9.78743 14.591C8.90875 13.7123 8.90875 12.2877 9.78743 11.409C10.6661 10.5303 12.0907 10.5303 12.9694 11.409L28.5552 26.9948C30.2149 28.6545 30.2149 31.3455 28.5552 33.0052L12.9694 48.591C12.0907 49.4697 10.6661 49.4697 9.78743 48.591C8.90875 47.7123 8.90875 46.2877 9.78743 45.409L25.1964 30Z"
  />
</svg>
