<svg
  width="60"
  height="60"
  viewBox="0 0 60 60"
  fill="currentColor"
  xmlns="http://www.w3.org/2000/svg"
>
  <path
    d="M22 36.9282C18.062 34.6546 16.0931 33.5178 15.4323 32.0337C14.8559 30.7392 14.8559 29.2609 15.4323 27.9663C16.0931 26.4822 18.062 25.3454 22 23.0718L31 17.8757C34.938 15.6021 36.9069 14.4653 38.5226 14.6351C39.9319 14.7832 41.2122 15.5224 42.0451 16.6688C43 17.9831 43 20.2567 43 24.8039V35.1962C43 39.7433 43 42.0169 42.0451 43.3312C41.2122 44.4777 39.9319 45.2168 38.5226 45.3649C36.9069 45.5347 34.938 44.398 31 42.1244L22 36.9282Z"
  />
</svg>
