<svg
  width="60"
  height="60"
  viewBox="0 0 60 60"
  fill="currentColor"
  xmlns="http://www.w3.org/2000/svg"
>
  <path
    fill-rule="evenodd"
    clip-rule="evenodd"
    d="M30 47.1642L15.1213 32.3514C13.9498 31.185 12.0503 31.185 10.8787 32.3514C9.70711 33.5178 9.70711 35.4089 10.8787 36.5752L26.4645 52.092C28.4171 54.036 31.5829 54.036 33.5355 52.092L49.1213 36.5752C50.2929 35.4089 50.2929 33.5178 49.1213 32.3514C47.9497 31.185 46.0503 31.185 44.8787 32.3514L30 47.1642ZM30 24.266L44.8787 9.45322C46.0503 8.28684 47.9497 8.28684 49.1213 9.45322C50.2929 10.6196 50.2929 12.5107 49.1213 13.6771L33.5355 29.1939C31.5829 31.1378 28.4171 31.1378 26.4645 29.1939L10.8787 13.6771C9.70711 12.5107 9.70711 10.6196 10.8787 9.45322C12.0503 8.28683 13.9498 8.28683 15.1213 9.45322L30 24.266Z"
  />
</svg>
