<svg
  width="60"
  height="60"
  viewBox="0 0 60 60"
  fill="currentColor"
  xmlns="http://www.w3.org/2000/svg"
>
  <path
    fill-rule="evenodd"
    clip-rule="evenodd"
    d="M30 12.921L44.8787 27.9315C46.0502 29.1134 47.9497 29.1134 49.1213 27.9315C50.2929 26.7495 50.2929 24.8332 49.1213 23.6513L33.5355 7.92745C31.5829 5.95753 28.4171 5.95753 26.4645 7.92745L10.8787 23.6512C9.70711 24.8332 9.70711 26.7495 10.8787 27.9315C12.0503 29.1134 13.9497 29.1134 15.1213 27.9315L30 12.921ZM30 36.1247L15.1213 51.1351C13.9497 52.3171 12.0503 52.3171 10.8787 51.1351C9.70711 49.9532 9.70711 48.0369 10.8787 46.8549L26.4645 31.1311C28.4171 29.1612 31.5829 29.1612 33.5355 31.1311L49.1213 46.8549C50.2929 48.0369 50.2929 49.9532 49.1213 51.1351C47.9497 52.3171 46.0502 52.3171 44.8787 51.1351L30 36.1247Z"
  />
</svg>
