<svg
  width="60"
  height="60"
  viewBox="0 0 60 60"
  fill="currentColor"
  xmlns="http://www.w3.org/2000/svg"
>
  <path
    fill-rule="evenodd"
    clip-rule="evenodd"
    d="M14.2784 30L28.45 15.8284C30.0121 14.2663 30.0121 11.7337 28.45 10.1716C26.8879 8.60948 24.3552 8.60948 22.7931 10.1716L7.20731 25.7574C4.86416 28.1005 4.86416 31.8995 7.20731 34.2426L22.7931 49.8284C24.3552 51.3905 26.8879 51.3905 28.45 49.8284C30.012 48.2663 30.012 45.7337 28.45 44.1716L14.2784 30ZM37.2784 30L51.45 44.1716C53.0121 45.7337 53.0121 48.2663 51.45 49.8284C49.8879 51.3905 47.3552 51.3905 45.7931 49.8284L30.2073 34.2426C27.8642 31.8995 27.8642 28.1005 30.2073 25.7574L45.7931 10.1716C47.3552 8.60948 49.8879 8.60948 51.45 10.1716C53.0121 11.7337 53.0121 14.2663 51.45 15.8284L37.2784 30Z"
  />
</svg>
