<svg
  width="60"
  height="60"
  viewBox="0 0 60 60"
  fill="currentColor"
  xmlns="http://www.w3.org/2000/svg"
>
  <path
    fill-rule="evenodd"
    clip-rule="evenodd"
    d="M47.1358 30L32.2571 44.8787C31.0855 46.0502 31.0855 47.9497 32.2571 49.1213C33.4287 50.2929 35.3282 50.2929 36.4997 49.1213L52.0855 33.5355C54.0382 31.5829 54.0382 28.4171 52.0855 26.4645L36.4997 10.8787C35.3282 9.70711 33.4287 9.70711 32.2571 10.8787C31.0855 12.0503 31.0855 13.9497 32.2571 15.1213L47.1358 30ZM24.1358 30L9.2571 15.1213C8.08553 13.9497 8.08553 12.0503 9.2571 10.8787C10.4287 9.70711 12.3282 9.70711 13.4997 10.8787L29.0855 26.4645C31.0382 28.4171 31.0382 31.5829 29.0855 33.5355L13.4997 49.1213C12.3282 50.2929 10.4287 50.2929 9.25709 49.1213C8.08553 47.9497 8.08553 46.0502 9.2571 44.8787L24.1358 30Z"
  />
</svg>
