<svg
  width="60"
  height="60"
  viewBox="0 0 60 60"
  fill="currentColor"
  xmlns="http://www.w3.org/2000/svg"
>
  <path
    d="M21.4 9.25C18.8426 9.25 17.0599 9.25175 15.672 9.36515C14.3104 9.4764 13.5281 9.68379 12.9356 9.98571C11.6655 10.6329 10.6329 11.6655 9.98571 12.9356C9.68379 13.5281 9.47639 14.3104 9.36515 15.672C9.25175 17.0599 9.25 18.8426 9.25 21.4V38.6C9.25 41.1574 9.25175 42.9401 9.36515 44.328C9.47639 45.6896 9.68379 46.4719 9.98571 47.0644C10.6329 48.3345 11.6655 49.3671 12.9356 50.0143C13.5281 50.3162 14.3104 50.5236 15.672 50.6349C17.0599 50.7482 18.8426 50.75 21.4 50.75H38.6C41.1574 50.75 42.9401 50.7482 44.328 50.6349C45.6896 50.5236 46.4719 50.3162 47.0644 50.0143C48.3345 49.3671 49.3671 48.3345 50.0143 47.0644C50.3162 46.4719 50.5236 45.6896 50.6349 44.328C50.7482 42.9401 50.75 41.1574 50.75 38.6V37C50.75 35.7574 51.7574 34.75 53 34.75C54.2426 34.75 55.25 35.7574 55.25 37V38.6963C55.25 41.1348 55.25 43.1017 55.1199 44.6944C54.9859 46.3343 54.7028 47.7747 54.0238 49.1074C52.9452 51.2242 51.2242 52.9452 49.1074 54.0238C47.7747 54.7028 46.3343 54.9859 44.6944 55.1199C43.1017 55.25 41.1349 55.25 38.6964 55.25H21.3036C18.8651 55.25 16.8983 55.25 15.3056 55.1199C13.6657 54.9859 12.2253 54.7028 10.8926 54.0238C8.77578 52.9452 7.05476 51.2242 5.97618 49.1074C5.29715 47.7747 5.01408 46.3343 4.88009 44.6944C4.74996 43.1017 4.74998 41.1349 4.75 38.6964V21.3036C4.74998 18.8652 4.74996 16.8983 4.88009 15.3056C5.01408 13.6657 5.29715 12.2253 5.97618 10.8926C7.05475 8.77579 8.77578 7.05475 10.8926 5.97618C12.2253 5.29716 13.6657 5.01408 15.3056 4.88009C16.8983 4.74996 18.8651 4.74998 21.3037 4.75H23C24.2426 4.75 25.25 5.75736 25.25 7C25.25 8.24264 24.2426 9.25 23 9.25H21.4Z"
  />
  <path
    d="M29.75 7C29.75 5.75736 30.7574 4.75 32 4.75H51C53.3472 4.75 55.25 6.65279 55.25 9V28C55.25 29.2426 54.2426 30.25 53 30.25C51.7574 30.25 50.75 29.2426 50.75 28V12.7855L29.7678 33.7678C28.7915 34.7441 27.2085 34.7441 26.2322 33.7678C25.2559 32.7915 25.2559 31.2085 26.2322 30.2322L47.2145 9.25H32C30.7574 9.25 29.75 8.24264 29.75 7Z"
  />
</svg>
