<svg
  width="60"
  height="60"
  viewBox="0 0 60 60"
  fill="currentColor"
  xmlns="http://www.w3.org/2000/svg"
>
  <path
    d="M5.75 31C5.75 32.2426 6.75736 33.25 8 33.25L38.568 33.25L27.409 44.409C26.5303 45.2877 26.5303 46.7123 27.409 47.591C28.2877 48.4697 29.7123 48.4697 30.591 47.591L44.1768 34.0052C45.8365 32.3455 45.8365 29.6545 44.1768 27.9948L30.591 14.409C29.7123 13.5303 28.2877 13.5303 27.409 14.409C26.5303 15.2877 26.5303 16.7123 27.409 17.591L38.568 28.75L8 28.75C6.75736 28.75 5.75 29.7574 5.75 31Z"
  />
  <path
    d="M54.25 13C54.25 11.7574 53.2426 10.75 52 10.75C50.7574 10.75 49.75 11.7574 49.75 13V48.9994C49.75 50.2421 50.7574 51.25 52 51.25C53.2426 51.25 54.25 50.2426 54.25 49V13Z"
  />
</svg>
