<svg
  width="60"
  height="60"
  viewBox="0 0 60 60"
  fill="currentColor"
  xmlns="http://www.w3.org/2000/svg"
>
  <path
    d="M30 55.25C28.7574 55.25 27.75 54.2426 27.75 53L27.75 22.432L16.591 33.591C15.7123 34.4697 14.2877 34.4697 13.409 33.591C12.5303 32.7123 12.5303 31.2877 13.409 30.409L26.9948 16.8232C28.6545 15.1635 31.3455 15.1635 33.0052 16.8232L46.591 30.409C47.4697 31.2877 47.4697 32.7123 46.591 33.591C45.7123 34.4697 44.2877 34.4697 43.409 33.591L32.25 22.432L32.25 53C32.25 54.2426 31.2426 55.25 30 55.25Z"
  />
  <path
    d="M48 6.75C49.2426 6.75 50.25 7.75736 50.25 9C50.25 10.2426 49.2426 11.25 48 11.25L12.0006 11.25C10.7579 11.25 9.75 10.2426 9.75 9C9.75 7.75736 10.7574 6.75 12 6.75L48 6.75Z"
  />
</svg>
