<svg
  width="60"
  height="60"
  viewBox="0 0 60 60"
  fill="currentColor"
  xmlns="http://www.w3.org/2000/svg"
>
  <path
    d="M38 23.0718C41.938 25.3454 43.9069 26.4822 44.5677 27.9663C45.1441 29.2608 45.1441 30.7391 44.5677 32.0337C43.9069 33.5178 41.938 34.6546 38 36.9282L29 42.1243C25.062 44.3979 23.0931 45.5347 21.4774 45.3649C20.0681 45.2168 18.7878 44.4776 17.9549 43.3312C17 42.0169 17 39.7433 17 35.1961V24.8038C17 20.2567 17 17.9831 17.9549 16.6688C18.7878 15.5223 20.0681 14.7832 21.4774 14.6351C23.0931 14.4653 25.062 15.602 29 17.8756L38 23.0718Z"
  />
</svg>
