<svg
  width="60"
  height="60"
  viewBox="0 0 60 60"
  fill="currentColor"
  xmlns="http://www.w3.org/2000/svg"
>
  <path
    fill-rule="evenodd"
    clip-rule="evenodd"
    d="M34.1216 51.7264C31.495 52.88 28.505 52.88 25.8783 51.7264C24.147 50.966 22.8172 49.5483 21.5471 47.7978C20.2864 46.0603 18.8839 43.7004 17.1221 40.7361L9.18874 27.3877C7.35752 24.3066 5.9026 21.8586 4.94825 19.8562C3.98934 17.8442 3.36197 15.9439 3.54709 14.0188C3.82689 11.1093 5.33559 8.45754 7.69382 6.73048C9.25406 5.58784 11.2082 5.15627 13.4277 4.95263C15.6367 4.74995 18.4844 4.74998 22.0686 4.75H37.9314C41.5156 4.74998 44.3633 4.74995 46.5723 4.95263C48.7918 5.15627 50.7459 5.58784 52.3062 6.73048C54.6644 8.45754 56.1731 11.1093 56.4529 14.0188C56.638 15.9439 56.0106 17.8442 55.0517 19.8562C54.0974 21.8586 52.6424 24.3066 50.8112 27.3877L42.8778 40.7363C41.116 43.7005 39.7135 46.0604 38.4529 47.7978C37.1828 49.5483 35.853 50.966 34.1216 51.7264ZM27.6879 47.6063C29.1614 48.2534 30.8386 48.2534 32.3121 47.6063C32.93 47.3349 33.6811 46.7119 34.8106 45.1551C35.9356 43.6047 37.2342 41.4241 39.0691 38.3367L46.8826 25.1901C48.7876 21.9848 50.1346 19.7139 50.9895 17.9201C51.8503 16.114 52.0389 15.1287 51.9736 14.4496C51.8166 12.8174 50.9702 11.3298 49.6473 10.361C49.0969 9.95791 48.1536 9.61661 46.1612 9.43381C44.1825 9.25226 41.5421 9.25 37.8134 9.25H22.1866C18.4579 9.25 15.8175 9.25226 13.8388 9.43381C11.8464 9.61661 10.9031 9.95791 10.3526 10.361C9.02973 11.3298 8.18339 12.8174 8.02643 14.4496C7.96112 15.1287 8.14969 16.114 9.01048 17.9201C9.86536 19.7138 11.2124 21.9848 13.1174 25.1901L20.9308 38.3366C22.7658 41.4241 24.0644 43.6047 25.1893 45.1551C26.3189 46.7119 27.0699 47.3349 27.6879 47.6063Z"
  />
</svg>
