<svg
  width="60"
  height="60"
  viewBox="0 0 60 60"
  fill="currentColor"
  xmlns="http://www.w3.org/2000/svg"
>
  <path
    d="M34.409 5.40901C35.2877 4.53033 36.7123 4.53033 37.591 5.40901L52.591 20.409C52.8067 20.6247 52.9695 20.8734 53.0793 21.1387C53.1893 21.404 53.25 21.6949 53.25 22C53.25 22.6087 53.0083 23.161 52.6156 23.566C52.5993 23.5828 52.5828 23.5993 52.566 23.6156C52.3579 23.8174 52.1204 23.9711 51.8676 24.0766C51.6006 24.1883 51.3075 24.25 51 24.25L9 24.25C7.75736 24.25 6.75 23.2426 6.75 22C6.75 20.7574 7.75736 19.75 9 19.75L45.568 19.75L34.409 8.59099C33.5303 7.71231 33.5303 6.28769 34.409 5.40901Z"
  />
  <path
    d="M51 35.75L9 35.75C8.39632 35.75 7.84816 35.9877 7.44406 36.3747C7.42045 36.3973 7.39733 36.4204 7.37471 36.444C7.1783 36.649 7.0282 36.8821 6.92442 37.1299C6.81208 37.3975 6.75 37.6915 6.75 38C6.75 38.3061 6.81114 38.598 6.92187 38.864C7.03166 39.1284 7.19404 39.376 7.40902 39.591L22.409 54.591C23.2877 55.4697 24.7123 55.4697 25.591 54.591C26.4697 53.7123 26.4697 52.2877 25.591 51.409L14.432 40.25L51 40.25C52.2426 40.25 53.25 39.2426 53.25 38C53.25 36.7574 52.2426 35.75 51 35.75Z"
  />
</svg>
