<svg
  width="60"
  height="60"
  viewBox="0 0 60 60"
  fill="currentColor"
  xmlns="http://www.w3.org/2000/svg"
>
  <path
    fill-rule="evenodd"
    clip-rule="evenodd"
    d="M44.328 9.36515C42.9401 9.25175 41.1574 9.25 38.6 9.25H37C35.7574 9.25 34.75 8.24264 34.75 7C34.75 5.75736 35.7574 4.75 37 4.75L38.6963 4.75C41.1348 4.74998 43.1017 4.74996 44.6944 4.88009C46.3343 5.01408 47.7747 5.29716 49.1074 5.97618C51.2242 7.05475 52.9452 8.77578 54.0238 10.8926C54.7028 12.2253 54.9859 13.6657 55.1199 15.3056C55.25 16.8983 55.25 18.8651 55.25 21.3036V38.6964C55.25 41.1349 55.25 43.1017 55.1199 44.6944C54.9859 46.3343 54.7028 47.7747 54.0238 49.1074C52.9452 51.2242 51.2242 52.9452 49.1074 54.0238C47.7747 54.7028 46.3343 54.9859 44.6944 55.1199C43.1017 55.25 41.1349 55.25 38.6964 55.25H21.3036C18.8651 55.25 16.8983 55.25 15.3056 55.1199C13.6657 54.9859 12.2253 54.7028 10.8926 54.0238C8.77578 52.9452 7.05475 51.2242 5.97618 49.1074C5.29716 47.7747 5.01408 46.3343 4.88009 44.6944C4.74996 43.1017 4.74998 41.1348 4.75 38.6963L4.75 37C4.75 35.7574 5.75736 34.75 7 34.75C8.24264 34.75 9.25 35.7574 9.25 37V38.6C9.25 41.1574 9.25175 42.9401 9.36515 44.328C9.4764 45.6896 9.68379 46.4719 9.98571 47.0644C10.6329 48.3345 11.6655 49.3671 12.9356 50.0143C13.5281 50.3162 14.3104 50.5236 15.672 50.6349C17.0599 50.7482 18.8426 50.75 21.4 50.75H38.6C41.1574 50.75 42.9401 50.7482 44.328 50.6349C45.6896 50.5236 46.4719 50.3162 47.0644 50.0143C48.3345 49.3671 49.3671 48.3345 50.0143 47.0644C50.3162 46.4719 50.5236 45.6896 50.6349 44.328C50.7482 42.9401 50.75 41.1574 50.75 38.6V21.4C50.75 18.8426 50.7482 17.0599 50.6349 15.672C50.5236 14.3104 50.3162 13.5281 50.0143 12.9356C49.3671 11.6655 48.3345 10.6329 47.0644 9.98571C46.4719 9.68379 45.6896 9.4764 44.328 9.36515Z"
  />
  <path
    fill-rule="evenodd"
    clip-rule="evenodd"
    d="M8.40901 8.40901C9.28769 7.53033 10.7123 7.53033 11.591 8.40901L27.75 24.568V14C27.75 12.7574 28.7574 11.75 30 11.75C31.2426 11.75 32.25 12.7574 32.25 14V30C32.25 31.2426 31.2426 32.25 30 32.25H14C12.7574 32.25 11.75 31.2426 11.75 30C11.75 28.7574 12.7574 27.75 14 27.75H24.568L8.40901 11.591C7.53033 10.7123 7.53033 9.28769 8.40901 8.40901Z"
  />
</svg>
