<svg
  width="60"
  height="60"
  viewBox="0 0 60 60"
  fill="currentColor"
  xmlns="http://www.w3.org/2000/svg"
>
  <path
    d="M12.0784 11C12.0784 9.75736 11.0711 8.75 9.82843 8.75C8.58579 8.75 7.57843 9.75736 7.57843 11L7.57843 28C7.57843 34.2132 12.6152 39.25 18.8284 39.25L46.3965 39.25L40.2374 45.409C39.3588 46.2877 39.3588 47.7123 40.2374 48.591C41.1161 49.4697 42.5407 49.4697 43.4194 48.591L52.0052 40.0052C53.6649 38.3455 53.6649 35.6545 52.0052 33.9948L43.4194 25.409C42.5407 24.5303 41.1161 24.5303 40.2374 25.409C39.3588 26.2877 39.3588 27.7123 40.2374 28.591L46.3965 34.75L18.8284 34.75C15.1005 34.75 12.0784 31.7279 12.0784 28L12.0784 11Z"
  />
</svg>
