<svg
  width="60"
  height="60"
  viewBox="0 0 60 60"
  fill="currentColor"
  xmlns="http://www.w3.org/2000/svg"
>
  <path
    fill-rule="evenodd"
    clip-rule="evenodd"
    d="M36.6491 4.88284C22.2859 1.158 7.62912 9.79483 3.90974 24.1682C0.190592 38.5407 8.8141 53.2134 23.1764 56.938C24.3341 57.2382 25.4628 57.3 26.5385 57.0493C27.6281 56.7954 28.5206 56.2538 29.2411 55.5655C30.5891 54.2776 31.3791 52.4165 31.9724 50.8467C32.1806 50.2958 32.3697 49.767 32.5529 49.2542C32.9529 48.1351 33.3255 47.0928 33.8099 46.0664C34.4899 44.6257 35.2315 43.601 36.1573 42.9774C36.8047 42.5413 37.9362 42.2695 39.72 42.2167C40.9671 42.1798 42.2664 42.2477 43.6586 42.3205C44.2369 42.3507 44.8315 42.3818 45.4447 42.4065C47.3883 42.4849 49.5695 42.5013 51.4133 41.9872C53.3997 41.4334 55.2649 40.1681 55.9158 37.6526C58.0073 29.5699 56.1932 21.3911 51.6572 15.1243C51.6162 15.0676 51.5737 15.0081 51.5296 14.9462C51.0437 14.2649 50.3587 13.3044 49.2176 12.8334C48.2787 12.4458 47.112 12.4191 46.1563 12.7631C45.4526 13.0165 44.9455 13.4365 44.556 13.8352C44.2171 14.1821 43.8681 14.6206 43.5307 15.0446L39.1818 20.5066C37.7301 18.2013 35.7938 16.4483 33.8334 15.2959L38.0992 11.7091C40.3579 9.80983 40.0102 5.75448 36.6491 4.88284ZM8.26625 25.2955C11.2639 13.7111 22.7895 6.60714 34.3634 8.97092L28.3612 14.0178C25.5277 14.1319 22.8656 15.4671 20.6077 17.725C19.1835 19.1492 18.3843 21.0751 17.9152 22.9124C17.4384 24.7798 17.2476 26.7773 17.192 28.5622C17.136 30.358 17.2151 32.0075 17.3071 33.2041C17.3533 33.8045 17.4031 34.2961 17.4418 34.6414C17.4612 34.8141 17.4779 34.9506 17.4901 35.0461C17.4961 35.0938 17.5011 35.1314 17.5047 35.1581L17.509 35.19L17.5103 35.1998L17.511 35.2044L17.747 36.8847L19.4273 37.1207L19.4319 37.1213L19.4416 37.1227L19.4736 37.127C19.5003 37.1306 19.5379 37.1355 19.5856 37.1416C19.6811 37.1537 19.8175 37.1704 19.9903 37.1898C20.3355 37.2286 20.8272 37.2784 21.4276 37.3246C22.6241 37.4165 24.2737 37.4957 26.0694 37.4397C27.8544 37.3841 29.8518 37.1932 31.7193 36.7165C33.5565 36.2474 35.4824 35.4482 36.9066 34.024C39.2567 31.6739 40.6072 28.886 40.6217 25.9227L47.001 17.9105C47.1957 17.6661 47.3476 17.4753 47.482 17.3132C47.5209 17.2663 47.5562 17.2243 47.5884 17.1867L47.6173 17.2246C47.7262 17.3684 47.8492 17.5381 48.0119 17.7628C51.7949 22.9893 53.3008 29.7954 51.5593 36.5253C51.4256 37.042 51.1453 37.3903 50.2047 37.6526C49.1215 37.9546 47.594 37.9896 45.626 37.9102C45.1375 37.8905 44.6186 37.8634 44.0826 37.8354C42.62 37.759 41.0307 37.6759 39.5869 37.7187C37.6326 37.7765 35.4023 38.0601 33.6431 39.2453C31.7483 40.5217 30.5722 42.3833 29.7404 44.1457C29.1577 45.3803 28.663 46.7629 28.2315 47.9687C28.0666 48.4296 27.9109 48.8646 27.7631 49.2557C27.1593 50.8532 26.661 51.8068 26.1325 52.3117C25.9148 52.5197 25.722 52.619 25.5171 52.6668C25.2983 52.7178 24.9233 52.7421 24.3061 52.5821C12.3522 49.4821 5.16851 37.2666 8.26625 25.2955ZM25.9293 32.9419C24.3499 32.9911 22.8778 32.9222 21.7924 32.8393C21.7095 31.7539 21.6406 30.2817 21.6898 28.7024C21.7396 27.1026 21.909 25.4607 22.2754 24.0255C22.6495 22.5602 23.1764 21.5203 23.7897 20.907C25.5018 19.1949 27.2174 18.5098 28.7572 18.5098C30.2969 18.5098 32.0125 19.1949 33.7246 20.907C35.4368 22.6191 36.1218 24.3347 36.1218 25.8745C36.1218 27.4143 35.4368 29.1299 33.7246 30.842C33.1114 31.4553 32.0715 31.9822 30.6061 32.3563C29.171 32.7227 27.5291 32.892 25.9293 32.9419Z"
  />
</svg>
