<svg
  width="60"
  height="60"
  viewBox="0 0 60 60"
  fill="currentColor"
  xmlns="http://www.w3.org/2000/svg"
>
  <path
    fill-rule="evenodd"
    clip-rule="evenodd"
    d="M21.3037 4.75H38.6963C41.1348 4.74998 43.1017 4.74996 44.6944 4.88009C46.3343 5.01408 47.7747 5.29716 49.1074 5.97618C51.2242 7.05475 52.9452 8.77578 54.0238 10.8926C54.7028 12.2253 54.9859 13.6657 55.1199 15.3056C55.25 16.8983 55.25 18.8651 55.25 21.3036V30C55.25 31.2426 54.2426 32.25 53 32.25C51.7574 32.25 50.75 31.2426 50.75 30V21.4C50.75 18.8426 50.7482 17.0599 50.6349 15.672C50.5236 14.3104 50.3162 13.5281 50.0143 12.9356C49.3671 11.6655 48.3345 10.6329 47.0644 9.98571C46.4719 9.68379 45.6896 9.4764 44.328 9.36515C42.9401 9.25175 41.1574 9.25 38.6 9.25H21.4C18.8426 9.25 17.0599 9.25175 15.672 9.36515C14.3104 9.4764 13.5281 9.68379 12.9356 9.98571C11.6655 10.6329 10.6329 11.6655 9.98571 12.9356C9.68379 13.5281 9.4764 14.3104 9.36515 15.672C9.25175 17.0599 9.25 18.8426 9.25 21.4V38.6C9.25 41.1574 9.25175 42.9401 9.36515 44.328C9.4764 45.6896 9.68379 46.4719 9.98571 47.0644C10.6329 48.3345 11.6655 49.3671 12.9356 50.0143C13.5281 50.3162 14.3104 50.5236 15.672 50.6349C17.0599 50.7482 18.8426 50.75 21.4 50.75H30C31.2426 50.75 32.25 51.7574 32.25 53C32.25 54.2426 31.2426 55.25 30 55.25H21.3036C18.8651 55.25 16.8983 55.25 15.3056 55.1199C13.6657 54.9859 12.2253 54.7028 10.8926 54.0238C8.77578 52.9452 7.05475 51.2242 5.97618 49.1074C5.29716 47.7747 5.01408 46.3343 4.88009 44.6944C4.74996 43.1017 4.74998 41.1348 4.75 38.6963V21.3037C4.74998 18.8652 4.74996 16.8983 4.88009 15.3056C5.01408 13.6657 5.29716 12.2253 5.97618 10.8926C7.05475 8.77578 8.77578 7.05475 10.8926 5.97618C12.2253 5.29716 13.6657 5.01408 15.3056 4.88009C16.8983 4.74996 18.8652 4.74998 21.3037 4.75Z"
  />
  <path
    d="M48.4816 37.1122C48.178 36.9626 47.822 36.9626 47.5184 37.1122C47.248 37.2453 47.1077 37.4776 47.0434 37.5908C46.9739 37.713 46.9033 37.8684 46.8353 38.0182L44.7937 42.5087C44.7531 42.5981 44.7319 42.6443 44.7149 42.6779C44.7101 42.6873 44.7069 42.6933 44.705 42.6966C44.7025 42.6997 44.6997 42.7025 44.6966 42.705C44.6933 42.7069 44.6873 42.7101 44.6779 42.7149C44.6443 42.7319 44.5981 42.7531 44.5087 42.7937L40.0182 44.8352C39.8684 44.9033 39.713 44.9739 39.5908 45.0434C39.4776 45.1077 39.2453 45.248 39.1122 45.5184C38.9626 45.822 38.9626 46.178 39.1122 46.4816C39.2453 46.752 39.4776 46.8923 39.5908 46.9566C39.713 47.0261 39.8684 47.0967 40.0182 47.1648L44.5087 49.2063C44.5981 49.2469 44.6443 49.2681 44.6779 49.2851C44.6873 49.2899 44.6933 49.2931 44.6966 49.295C44.6997 49.2975 44.7024 49.3003 44.705 49.3034C44.7069 49.3067 44.7101 49.3127 44.7149 49.3221C44.7319 49.3557 44.7531 49.4019 44.7937 49.4913L46.8353 53.9818C46.9033 54.1316 46.9739 54.287 47.0434 54.4092C47.1077 54.5224 47.248 54.7547 47.5184 54.8878C47.822 55.0374 48.178 55.0374 48.4816 54.8878C48.752 54.7547 48.8923 54.5224 48.9566 54.4092C49.0261 54.287 49.0967 54.1316 49.1648 53.9818L51.2063 49.4913C51.2469 49.4019 51.2681 49.3557 51.2851 49.3221C51.2899 49.3127 51.2931 49.3067 51.295 49.3034C51.2976 49.3003 51.3003 49.2975 51.3034 49.295C51.3056 49.2937 51.3091 49.2918 51.314 49.2893C51.3163 49.288 51.319 49.2867 51.3221 49.2851C51.3557 49.2681 51.4019 49.2469 51.4913 49.2063L55.9818 47.1647C56.1316 47.0967 56.287 47.0261 56.4092 46.9566C56.5224 46.8923 56.7547 46.752 56.8878 46.4816C57.0374 46.178 57.0374 45.822 56.8878 45.5184C56.7547 45.248 56.5224 45.1077 56.4092 45.0434C56.287 44.9739 56.1316 44.9033 55.9818 44.8352L51.4913 42.7937C51.4019 42.7531 51.3557 42.7319 51.3221 42.7149C51.3127 42.7101 51.3067 42.7069 51.3034 42.705C51.3017 42.7036 51.3002 42.7022 51.2987 42.7007L51.295 42.6966C51.295 42.6966 51.2927 42.6925 51.291 42.6893C51.2894 42.6863 51.2874 42.6825 51.2851 42.6779C51.2681 42.6443 51.2469 42.5981 51.2063 42.5087L49.1648 38.0182C49.0967 37.8684 49.0261 37.713 48.9566 37.5908C48.8923 37.4776 48.752 37.2453 48.4816 37.1122Z"
  />
  <path
    fill-rule="evenodd"
    clip-rule="evenodd"
    d="M15.75 23C15.75 21.7574 16.7574 20.75 18 20.75H42C43.2426 20.75 44.25 21.7574 44.25 23C44.25 24.2426 43.2426 25.25 42 25.25H18C16.7574 25.25 15.75 24.2426 15.75 23Z"
  />
  <path
    fill-rule="evenodd"
    clip-rule="evenodd"
    d="M15.75 37C15.75 35.7574 16.7574 34.75 18 34.75H36C37.2426 34.75 38.25 35.7574 38.25 37C38.25 38.2426 37.2426 39.25 36 39.25H18C16.7574 39.25 15.75 38.2426 15.75 37Z"
  />
</svg>
