<svg
  width="60"
  height="60"
  viewBox="0 0 60 60"
  fill="currentColor"
  xmlns="http://www.w3.org/2000/svg"
>
  <path
    d="M13.75 21C13.75 19.7574 14.7574 18.75 16 18.75H36C37.2426 18.75 38.25 19.7574 38.25 21C38.25 22.2426 37.2426 23.25 36 23.25H16C14.7574 23.25 13.75 22.2426 13.75 21Z"
  />
  <path
    d="M16 32.75C14.7574 32.75 13.75 33.7574 13.75 35C13.75 36.2426 14.7574 37.25 16 37.25H26C27.2426 37.25 28.25 36.2426 28.25 35C28.25 33.7574 27.2426 32.75 26 32.75H16Z"
  />
  <path
    d="M43.6926 34.8591L43.0153 36.7508C42.7008 37.629 42.5436 38.0681 42.3217 38.4553C41.8764 39.2322 41.2322 39.8764 40.4553 40.3217C40.0681 40.5436 39.629 40.7008 38.7508 41.0153L36.8591 41.6926C36.6589 41.7643 36.5586 41.8002 36.5194 41.8435C36.4388 41.9324 36.4388 42.0679 36.5194 42.1568C36.5586 42.2001 36.6588 42.236 36.8591 42.3077L38.7508 42.985C39.6289 43.2994 40.0681 43.4567 40.4553 43.6786C41.2322 44.1239 41.8764 44.7681 42.3217 45.545C42.5436 45.9322 42.7008 46.3713 43.0153 47.2495L43.6926 49.1412C43.7643 49.3414 43.8002 49.4416 43.8435 49.4809C43.9324 49.5614 44.0679 49.5614 44.1568 49.4809C44.2001 49.4416 44.236 49.3415 44.3077 49.1412L44.985 47.2495C45.2994 46.3714 45.4567 45.9321 45.6786 45.545C46.1239 44.7681 46.7681 44.1239 47.545 43.6786C47.9321 43.4567 48.3712 43.2995 49.2494 42.985L51.1412 42.3077C51.3415 42.236 51.4416 42.2001 51.4809 42.1568C51.5614 42.0679 51.5614 41.9324 51.4809 41.8435C51.4416 41.8002 51.3415 41.7643 51.1413 41.6926L49.2495 41.0153C48.3713 40.7008 47.9322 40.5436 47.545 40.3217C46.7681 39.8764 46.1239 39.2322 45.6786 38.4553C45.4567 38.0681 45.2995 37.629 44.9851 36.7509L44.3077 34.8591C44.236 34.6588 44.2001 34.5586 44.1568 34.5194C44.0679 34.4388 43.9324 34.4388 43.8435 34.5194C43.8002 34.5586 43.7643 34.6589 43.6926 34.8591Z"
  />
  <path
    fill-rule="evenodd"
    clip-rule="evenodd"
    d="M34.7975 55.25C37.606 55.2501 39.8129 55.2502 41.5785 55.0292C42.3636 55.1742 43.173 55.25 44 55.25C51.3178 55.25 57.25 49.3178 57.25 42C57.25 37.3583 54.8632 33.2741 51.25 30.9077V21.3036C51.25 18.8652 51.25 16.8983 51.1199 15.3056C50.9859 13.6657 50.7028 12.2253 50.0238 10.8926C48.9452 8.77579 47.2242 7.05475 45.1074 5.97618C43.7747 5.29716 42.3343 5.01408 40.6944 4.88009C39.1017 4.74996 37.1348 4.74998 34.6963 4.75H21.3037C18.8652 4.74998 16.8983 4.74996 15.3056 4.88009C13.6657 5.01408 12.2253 5.29716 10.8926 5.97618C8.77578 7.05475 7.05475 8.77578 5.97618 10.8926C5.29716 12.2253 5.01408 13.6657 4.88009 15.3056C4.74996 16.8983 4.74998 18.8652 4.75 21.3037V38.6963C4.74998 41.1348 4.74996 43.1017 4.88009 44.6944C5.01408 46.3343 5.29716 47.7747 5.97618 49.1074C7.05475 51.2242 8.77579 52.9452 10.8926 54.0238C12.2253 54.7028 13.6657 54.9859 15.3056 55.1199C16.8983 55.25 18.8651 55.25 21.3035 55.25L34.7975 55.25ZM15.672 9.36515C14.3104 9.4764 13.5281 9.68379 12.9356 9.98571C11.6655 10.6329 10.6329 11.6655 9.98571 12.9356C9.68379 13.5281 9.4764 14.3104 9.36515 15.672C9.25175 17.0599 9.25 18.8426 9.25 21.4V38.6C9.25 41.1574 9.25175 42.9401 9.36515 44.328C9.4764 45.6896 9.68379 46.4719 9.98571 47.0644C10.6329 48.3345 11.6655 49.3671 12.9356 50.0143C13.5281 50.3162 14.3104 50.5236 15.672 50.6349C17.0599 50.7482 18.8426 50.75 21.4 50.75H34.0499C33.7711 50.4332 33.5071 50.1029 33.2591 49.7603C31.7399 47.6616 30.8209 45.0999 30.7539 42.326C30.7513 42.2177 30.75 42.109 30.75 42C30.75 34.6822 36.6822 28.75 44 28.75C44.1177 28.75 44.2351 28.7515 44.3522 28.7546C45.1722 28.776 45.9736 28.8719 46.75 29.0358V21.4C46.75 18.8426 46.7482 17.0599 46.6349 15.672C46.5236 14.3104 46.3162 13.5281 46.0143 12.9356C45.3671 11.6655 44.3345 10.6329 43.0644 9.98571C42.4719 9.68379 41.6896 9.4764 40.328 9.36515C38.9401 9.25175 37.1574 9.25 34.6 9.25H21.4C18.8426 9.25 17.0599 9.25175 15.672 9.36515ZM44 50.75C41.1049 50.75 38.5382 49.3439 36.9454 47.1775C36.0237 45.9232 35.4282 44.4144 35.284 42.7768C35.2615 42.5208 35.25 42.2618 35.25 42C35.25 37.1675 39.1675 33.25 44 33.25C44.1139 33.25 44.2273 33.2522 44.3402 33.2565C49.015 33.4352 52.75 37.2814 52.75 42C52.75 46.8325 48.8325 50.75 44 50.75Z"
  />
</svg>
