<svg
  width="32"
  height="32"
  viewBox="0 0 32 32"
  fill="currentColor"
  xmlns="http://www.w3.org/2000/svg"
>
  <path
    d="M0 10.0174C0 6.51097 0 4.75777 0.682394 3.41849C1.28264 2.24044 2.24044 1.28264 3.41849 0.682394C4.75777 0 6.51098 0 10.0174 0H21.9826C25.489 0 27.2422 0 28.5815 0.682394C29.7596 1.28264 30.7174 2.24044 31.3176 3.41849C32 4.75777 32 6.51098 32 10.0174V21.9826C32 25.489 32 27.2422 31.3176 28.5815C30.7174 29.7596 29.7596 30.7174 28.5815 31.3176C27.2422 32 25.489 32 21.9826 32H10.0174C6.51097 32 4.75777 32 3.41849 31.3176C2.24044 30.7174 1.28264 29.7596 0.682394 28.5815C0 27.2422 0 25.489 0 21.9826V10.0174Z"
    fill="#20B082"
  />
  <path
    fill-rule="evenodd"
    clip-rule="evenodd"
    d="M13.1012 7.58301H18.8987C19.7115 7.583 20.3671 7.58299 20.8981 7.62637C21.4447 7.67103 21.9248 7.76539 22.3691 7.99173C23.0747 8.35126 23.6483 8.92494 24.0079 9.63054C24.2342 10.0748 24.3286 10.5549 24.3732 11.1015C24.4166 11.6324 24.4166 12.2881 24.4166 13.1009V18.8985C24.4166 19.7113 24.4166 20.3669 24.3732 20.8978C24.3286 21.4444 24.2342 21.9246 24.0079 22.3688C23.6483 23.0744 23.0747 23.6481 22.369 24.0076C21.9248 24.234 21.4447 24.3283 20.8981 24.373C20.3671 24.4164 19.7115 24.4163 18.8987 24.4163H13.1011C12.2883 24.4163 11.6327 24.4164 11.1018 24.373C10.5551 24.3283 10.075 24.234 9.63079 24.0076C8.92518 23.6481 8.3515 23.0744 7.99198 22.3688C7.76564 21.9246 7.67128 21.4444 7.62662 20.8978C7.58324 20.3669 7.58324 19.7113 7.58325 18.8984V13.1009C7.58324 12.2881 7.58324 11.6325 7.62662 11.1015C7.67128 10.5549 7.76564 10.0748 7.99198 9.63054C8.3515 8.92494 8.92518 8.35126 9.63079 7.99173C10.075 7.76539 10.5551 7.67103 11.1018 7.62637C11.6327 7.58299 12.2883 7.583 13.1012 7.58301ZM11.2239 9.12139C10.7701 9.15847 10.5093 9.2276 10.3118 9.32824C9.88841 9.54396 9.5442 9.88816 9.32849 10.3115C9.22785 10.509 9.15872 10.7698 9.12163 11.2237C9.08384 11.6863 9.08325 12.2806 9.08325 13.133V17.9163H13.2499V9.08301H13.1333C12.2808 9.08301 11.6866 9.08359 11.2239 9.12139ZM14.7499 9.08301V12.9163L22.9165 12.9163C22.9162 12.1782 22.9127 11.6461 22.8782 11.2237C22.8411 10.7698 22.772 10.509 22.6714 10.3115C22.4556 9.88816 22.1114 9.54396 21.6881 9.32824C21.4905 9.2276 21.2298 9.15847 20.7759 9.12139C20.3133 9.08359 19.719 9.08301 18.8666 9.08301H14.7499ZM22.9166 14.4163L14.7499 14.4163V22.9163H18.8666C19.719 22.9163 20.3133 22.9158 20.7759 22.878C21.2298 22.8409 21.4905 22.7717 21.6881 22.6711C22.1114 22.4554 22.4556 22.1112 22.6714 21.6878C22.772 21.4903 22.8411 21.2295 22.8782 20.7757C22.916 20.313 22.9166 19.7188 22.9166 18.8663V14.4163ZM13.2499 22.9163V19.4163H9.08379C9.0855 19.9858 9.09255 20.4197 9.12163 20.7757C9.15872 21.2295 9.22785 21.4903 9.32849 21.6878C9.5442 22.1112 9.88841 22.4554 10.3118 22.6711C10.5093 22.7717 10.7701 22.8409 11.2239 22.878C11.6866 22.9158 12.2808 22.9163 13.1333 22.9163H13.2499Z"
    fill="white"
  />
</svg>
