<svg width="24" height="24" viewBox="0 0 24 24" fill="none" xmlns="http://www.w3.org/2000/svg">
<path d="M0 7.51304C0 4.88323 0 3.56833 0.511795 2.56387C0.961983 1.68033 1.68033 0.961983 2.56387 0.511795C3.56833 0 4.88323 0 7.51304 0H16.487C19.1168 0 20.4317 0 21.4361 0.511795C22.3197 0.961983 23.038 1.68033 23.4882 2.56387C24 3.56833 24 4.88323 24 7.51304V16.487C24 19.1168 24 20.4317 23.4882 21.4361C23.038 22.3197 22.3197 23.038 21.4361 23.4882C20.4317 24 19.1168 24 16.487 24H7.51304C4.88323 24 3.56833 24 2.56387 23.4882C1.68033 23.038 0.961983 22.3197 0.511795 21.4361C0 20.4317 0 19.1168 0 16.487V7.51304Z" fill="#20B082"/>
<path fill-rule="evenodd" clip-rule="evenodd" d="M9.10188 3.58398H14.8994C15.7123 3.58398 16.3679 3.58397 16.8988 3.62735C17.4454 3.67201 17.9256 3.76637 18.3698 3.99271C19.0754 4.35224 19.6491 4.92591 20.0086 5.63152C20.2349 6.07574 20.3293 6.55588 20.374 7.10252C20.4173 7.63342 20.4173 8.28903 20.4173 9.10186V14.8994C20.4173 15.7123 20.4173 16.3679 20.374 16.8988C20.3293 17.4454 20.2349 17.9256 20.0086 18.3698C19.6491 19.0754 19.0754 19.6491 18.3698 20.0086C17.9256 20.2349 17.4454 20.3293 16.8988 20.374C16.3679 20.4173 15.7123 20.4173 14.8994 20.4173H9.10186C8.28903 20.4173 7.63342 20.4173 7.10252 20.374C6.55588 20.3293 6.07574 20.2349 5.63152 20.0086C4.92591 19.6491 4.35224 19.0754 3.99271 18.3698C3.76637 17.9256 3.67201 17.4454 3.62735 16.8988C3.58397 16.3679 3.58398 15.7123 3.58398 14.8994V9.10188C3.58398 8.28904 3.58397 7.63343 3.62735 7.10252C3.67201 6.55588 3.76637 6.07574 3.99271 5.63152C4.35224 4.92591 4.92591 4.35224 5.63152 3.99271C6.07574 3.76637 6.55588 3.67201 7.10252 3.62735C7.63343 3.58397 8.28904 3.58398 9.10188 3.58398ZM7.22466 5.12237C6.77079 5.15945 6.51002 5.22858 6.31251 5.32922C5.88914 5.54494 5.54494 5.88914 5.32922 6.31251C5.22858 6.51002 5.15945 6.77079 5.12237 7.22466C5.08457 7.6873 5.08398 8.28153 5.08398 9.13399V13.9173H9.25065V5.08398H9.13399C8.28153 5.08398 7.6873 5.08457 7.22466 5.12237ZM10.7507 5.08398V8.91732L18.9173 8.91732C18.9169 8.17915 18.9134 7.64706 18.8789 7.22466C18.8419 6.77079 18.7727 6.51002 18.6721 6.31251C18.4564 5.88914 18.1122 5.54494 17.6888 5.32922C17.4913 5.22858 17.2305 5.15945 16.7766 5.12237C16.314 5.08457 15.7198 5.08398 14.8673 5.08398H10.7507ZM18.9173 10.4173L10.7507 10.4173V18.9173H14.8673C15.7198 18.9173 16.314 18.9167 16.7766 18.8789C17.2305 18.8419 17.4913 18.7727 17.6888 18.6721C18.1122 18.4564 18.4564 18.1122 18.6721 17.6888C18.7727 17.4913 18.8419 17.2305 18.8789 16.7766C18.9167 16.314 18.9173 15.7198 18.9173 14.8673V10.4173ZM9.25065 18.9173V15.4173H5.08453C5.08623 15.9868 5.09328 16.4207 5.12237 16.7766C5.15945 17.2305 5.22858 17.4913 5.32922 17.6888C5.54494 18.1122 5.88914 18.4564 6.31251 18.6721C6.51002 18.7727 6.77079 18.8419 7.22466 18.8789C7.6873 18.9167 8.28153 18.9173 9.13399 18.9173H9.25065Z" fill="white"/>
</svg>
