<svg
  width="60"
  height="60"
  viewBox="0 0 60 60"
  fill="currentColor"
  xmlns="http://www.w3.org/2000/svg"
>
  <path
    d="M30 17.25C27.9251 17.25 26.0703 18.1835 24.8286 19.6616C23.8422 20.8358 23.25 22.3458 23.25 24C23.25 25.2426 22.2426 26.25 21 26.25C19.7574 26.25 18.75 25.2426 18.75 24C18.75 21.248 19.741 18.7216 21.3831 16.767C23.4433 14.3147 26.54 12.75 30 12.75C36.2132 12.75 41.25 17.7868 41.25 24C41.25 28.4847 38.6258 32.352 34.8391 34.1584C33.0739 35.0004 32.25 36.1376 32.25 37C32.25 38.2426 31.2426 39.25 30 39.25C28.7574 39.25 27.75 38.2426 27.75 37C27.75 33.4441 30.6789 31.1572 32.9015 30.0969C35.182 29.009 36.75 26.6854 36.75 24C36.75 20.2721 33.7279 17.25 30 17.25Z"
  />
  <path
    d="M30 41.75C28.7574 41.75 27.75 42.7574 27.75 44C27.75 45.2426 28.7574 46.25 30 46.25H30.1C31.3426 46.25 32.35 45.2426 32.35 44C32.35 42.7574 31.3426 41.75 30.1 41.75H30Z"
  />
  <path
    fill-rule="evenodd"
    clip-rule="evenodd"
    d="M4.75 28C4.75 14.0548 16.0548 2.75 30 2.75C43.9452 2.75 55.25 14.0548 55.25 28C55.25 35.1509 52.2744 41.6107 47.5 46.2021C46.15 47.5003 45.7131 47.9319 45.5658 48.1268C45.4159 48.3253 45.3679 48.3977 45.3369 48.4492C45.3059 48.5007 45.2645 48.577 45.1593 48.8025C45.0531 49.0303 44.9493 49.3675 44.6086 50.5599L44.4068 51.2664C43.3948 54.8082 40.1577 57.25 36.4742 57.25H23.5258C19.8423 57.25 16.6052 54.8082 15.5932 51.2664L15.3914 50.5599C15.0507 49.3675 14.9469 49.0303 14.8407 48.8025C14.7355 48.577 14.6941 48.5007 14.6631 48.4492C14.6321 48.3977 14.5841 48.3253 14.4342 48.1268C14.2869 47.9319 13.85 47.5003 12.5 46.202C7.72556 41.6107 4.75 35.1509 4.75 28ZM30 7.25C18.5401 7.25 9.25 16.5401 9.25 28C9.25 33.8771 11.6904 39.1804 15.6192 42.9585L15.8452 43.1757C16.8872 44.1771 17.6276 44.8886 18.0248 45.4144C18.4445 45.9699 18.6249 46.2698 18.9191 46.9008C19.1971 47.497 19.4016 48.2137 19.6679 49.1472L19.9201 50.0302C20.3801 51.6401 21.8515 52.75 23.5258 52.75H36.4742C38.1485 52.75 39.6199 51.6401 40.0799 50.0302L40.3321 49.1473C40.5984 48.2138 40.8029 47.497 41.0809 46.9008C41.3751 46.2698 41.5555 45.9699 41.9752 45.4144C42.3724 44.8886 43.1128 44.1771 44.1548 43.1757L44.3808 42.9585C48.3096 39.1804 50.75 33.8771 50.75 28C50.75 16.5401 41.4599 7.25 30 7.25Z"
  />
</svg>
