<svg
  width="60"
  height="60"
  viewBox="0 0 60 60"
  fill="currentColor"
  xmlns="http://www.w3.org/2000/svg"
>
  <path
    d="M30 2.75C16.0548 2.75 4.75 14.0548 4.75 28C4.75 35.1509 7.72556 41.6107 12.5 46.202C13.85 47.5003 14.2869 47.9319 14.4342 48.1268C14.5841 48.3253 14.6321 48.3977 14.6631 48.4492C14.6941 48.5007 14.7355 48.577 14.8407 48.8025C14.9469 49.0303 15.0507 49.3675 15.3914 50.5599L15.5932 51.2664C16.6052 54.8082 19.8423 57.25 23.5258 57.25H36.4742C40.1577 57.25 43.3948 54.8082 44.4068 51.2664L44.6086 50.5599C44.9493 49.3675 45.0531 49.0303 45.1593 48.8025C45.2645 48.577 45.3059 48.5007 45.3369 48.4492C45.3679 48.3977 45.4159 48.3253 45.5658 48.1268C45.7131 47.9319 46.15 47.5003 47.5 46.2021C52.2744 41.6107 55.25 35.1509 55.25 28C55.25 14.0548 43.9452 2.75 30 2.75Z"
  />
  <path
    d="M24.8286 19.6616C26.0703 18.1835 27.9251 17.25 30 17.25C33.7279 17.25 36.75 20.2721 36.75 24C36.75 26.6854 35.182 29.009 32.9015 30.0969C30.6789 31.1572 27.75 33.4441 27.75 37C27.75 38.2426 28.7574 39.25 30 39.25C31.2426 39.25 32.25 38.2426 32.25 37C32.25 36.1376 33.0739 35.0004 34.8391 34.1584C38.6258 32.352 41.25 28.4847 41.25 24C41.25 17.7868 36.2132 12.75 30 12.75C26.54 12.75 23.4433 14.3147 21.3831 16.767C19.741 18.7216 18.75 21.248 18.75 24C18.75 25.2426 19.7574 26.25 21 26.25C22.2426 26.25 23.25 25.2426 23.25 24C23.25 22.3458 23.8422 20.8358 24.8286 19.6616Z"
    fill="white"
  />
  <path
    d="M30 41.75C28.7574 41.75 27.75 42.7574 27.75 44C27.75 45.2426 28.7574 46.25 30 46.25H30.1C31.3426 46.25 32.35 45.2426 32.35 44C32.35 42.7574 31.3426 41.75 30.1 41.75H30Z"
    fill="white"
  />
</svg>
