<svg
  width="60"
  height="60"
  viewBox="0 0 60 60"
  fill="currentColor"
  xmlns="http://www.w3.org/2000/svg"
>
  <path
    fill-rule="evenodd"
    clip-rule="evenodd"
    d="M47.2714 9.90002C51.6175 14.3912 53.1039 20.4888 53.1039 25.7059C53.1039 31.2532 50.3655 36.6177 47.0647 40.2485C45.4038 42.0755 43.4976 43.5801 41.5549 44.4589C39.6472 45.3219 37.3651 45.7173 35.3035 44.6865C34.2668 44.1681 33.6347 43.3052 33.2664 42.425C29.8484 45.734 24.7656 47.0405 20.0577 44.6865C15.1891 42.2523 13.955 36.7744 14.2836 32.0549C14.6162 27.2773 16.5773 22.1625 19.4729 19.2668C23.5193 15.2205 28.5582 13.5729 32.867 14.7479C35.2477 15.3972 37.1933 16.8481 38.4933 18.9188C38.7027 18.4272 38.9064 17.9595 39.1017 17.52C39.5893 16.423 40.8522 15.9019 41.9714 16.336C43.0906 16.7701 43.672 18.0064 43.2923 19.1453C42.179 22.4855 40.0106 28.7627 38.1125 33.6331C37.5617 35.8142 37.2423 37.7062 37.2264 39.1163C37.2178 39.8784 37.3011 40.3616 37.3947 40.628C37.4065 40.6615 37.4171 40.6882 37.4261 40.709C37.8207 40.8542 38.5437 40.8821 39.7002 40.3589C40.9391 39.7985 42.3658 38.7276 43.735 37.2215C46.4943 34.1862 48.6039 29.8546 48.6039 25.7059C48.6039 21.2269 47.315 16.4162 44.0376 13.0293C40.8389 9.72379 35.3771 7.39782 26.1894 8.54626C18.3615 9.52474 12.2961 14.9501 9.28759 21.9605C6.27528 28.9798 6.45405 37.3077 10.8154 43.8501C13.4361 47.7813 18.9299 50.8787 25.7087 51.8005C32.4219 52.7134 40.0831 51.4358 46.757 47.0124C47.7928 46.3259 49.189 46.6091 49.8755 47.6449C50.562 48.6806 50.2789 50.0768 49.2431 50.7634C41.5701 55.849 32.7882 57.3046 25.1024 56.2595C17.4822 55.2232 10.621 51.6712 7.07113 46.3461C1.73687 38.3443 1.63784 28.3752 5.1523 20.1858C8.67055 11.9877 15.9365 5.29283 25.6313 4.08101C35.8365 2.80538 42.8466 5.32746 47.2714 9.90002ZM37.4581 40.7716C37.4581 40.7716 37.4571 40.7703 37.4553 40.7674C37.4572 40.77 37.4581 40.7715 37.4581 40.7716ZM35.7887 25.8802C35.7843 25.8227 35.7821 25.7645 35.7821 25.7059C35.7821 21.6905 33.8722 19.6864 31.683 19.0894C29.3258 18.4465 25.8806 19.2231 22.6549 22.4488C20.7272 24.3765 19.0523 28.3518 18.7727 32.3674C18.4891 36.4413 19.6666 39.4599 22.0701 40.6616C25.6033 42.4282 29.8975 40.7714 31.8733 36.8198C32.4031 35.7602 33.0812 34.145 33.8177 32.264C33.842 32.1696 33.8667 32.0752 33.8915 31.9807C34.4155 29.9911 35.0779 27.9046 35.7887 25.8802Z"
  />
</svg>
