<svg
  width="60"
  height="60"
  viewBox="0 0 60 60"
  fill="currentColor"
  xmlns="http://www.w3.org/2000/svg"
>
  <path
    fill-rule="evenodd"
    clip-rule="evenodd"
    d="M8.34921 52.9602C1.22214 45.8331 1.22214 34.2779 8.34921 27.1508L27.3558 8.14425C34.3118 1.18824 45.5897 1.18825 52.5457 8.14425C59.5017 15.1002 59.5017 26.3782 52.5457 33.3342L38.0553 47.8246C33.9284 51.9515 27.2373 51.9515 23.1104 47.8246C18.9835 43.6977 18.9835 37.0066 23.1104 32.8797L36.6268 19.3634C37.5054 18.4847 38.9301 18.4847 39.8087 19.3634C40.6874 20.2421 40.6874 21.6667 39.8087 22.5454L26.2924 36.0617C23.9229 38.4312 23.9229 42.273 26.2924 44.6426C28.6619 47.0121 32.5037 47.0121 34.8733 44.6426L49.3637 30.1522C54.5623 24.9535 54.5623 16.5249 49.3637 11.3262C44.165 6.12759 35.7364 6.12759 30.5377 11.3262L11.5312 30.3328C6.16148 35.7025 6.16148 44.4085 11.5312 49.7782L12.7392 50.9863C13.6179 51.8649 13.6179 53.2896 12.7392 54.1682C11.8606 55.0469 10.4359 55.0469 9.55725 54.1682L8.34921 52.9602Z"
  />
</svg>
