<svg
  width="60"
  height="60"
  viewBox="0 0 60 60"
  fill="currentColor"
  xmlns="http://www.w3.org/2000/svg"
>
  <path
    d="M5 20.6522C5 15.1734 5 12.434 6.06624 10.3414C7.00413 8.50068 8.50068 7.00413 10.3414 6.06624C12.434 5 15.1734 5 20.6522 5H39.3478C44.8266 5 47.566 5 49.6586 6.06624C51.4993 7.00413 52.9959 8.50068 53.9338 10.3414C55 12.434 55 15.1734 55 20.6522V39.3478C55 44.8266 55 47.566 53.9338 49.6586C52.9959 51.4993 51.4993 52.9959 49.6586 53.9338C47.566 55 44.8266 55 39.3478 55H20.6522C15.1734 55 12.434 55 10.3414 53.9338C8.50068 52.9959 7.00413 51.4993 6.06624 49.6586C5 47.566 5 44.8266 5 39.3478V20.6522Z"
    fill="#ED6557"
  />
  <path
    fill-rule="evenodd"
    clip-rule="evenodd"
    d="M13.75 30C13.75 21.0254 21.0254 13.75 30 13.75C38.9746 13.75 46.25 21.0254 46.25 30V37.5C46.25 41.2279 43.2279 44.25 39.5 44.25C35.7721 44.25 32.75 41.2279 32.75 37.5V34.5C32.75 30.7721 35.7721 27.75 39.5 27.75C40.231 27.75 40.9348 27.8662 41.5941 28.0811C40.6781 22.5045 35.8359 18.25 30 18.25C24.1641 18.25 19.3219 22.5045 18.4059 28.0811C19.0652 27.8662 19.769 27.75 20.5 27.75C24.2279 27.75 27.25 30.7721 27.25 34.5V37.5C27.25 41.2279 24.2279 44.25 20.5 44.25C16.7721 44.25 13.75 41.2279 13.75 37.5V30ZM18.25 34.5V37.5C18.25 38.7426 19.2574 39.75 20.5 39.75C21.7426 39.75 22.75 38.7426 22.75 37.5V34.5C22.75 33.2574 21.7426 32.25 20.5 32.25C19.2574 32.25 18.25 33.2574 18.25 34.5ZM41.75 34.5C41.75 33.2574 40.7426 32.25 39.5 32.25C38.2574 32.25 37.25 33.2574 37.25 34.5V37.5C37.25 38.7426 38.2574 39.75 39.5 39.75C40.7426 39.75 41.75 38.7426 41.75 37.5V34.5Z"
    fill="white"
  />
</svg>
