<svg
  width="60"
  height="60"
  viewBox="0 0 60 60"
  fill="currentColor"
  xmlns="http://www.w3.org/2000/svg"
>
  <path
    fill-rule="evenodd"
    clip-rule="evenodd"
    d="M31.0265 13.4347C29.0174 12.9346 27.0567 13.9481 26.1998 15.65C25.9174 16.0261 25.75 16.4935 25.75 17V31.4624C24.7616 31.0052 23.6606 30.75 22.5 30.75C18.2198 30.75 14.75 34.2198 14.75 38.5C14.75 42.7803 18.2198 46.25 22.5 46.25C26.7802 46.25 30.25 42.7803 30.25 38.5C30.25 38.3911 30.2478 38.2827 30.2433 38.1749C30.2477 38.1172 30.25 38.0589 30.25 38V28.1454L39.9735 30.5654C42.6548 31.2328 45.25 29.2043 45.25 26.4413V20.2966C45.25 18.3448 43.9205 16.6438 42.0265 16.1724L31.0265 13.4347ZM30.25 23.5081V17.8787L40.75 20.492V26.1214L30.25 23.5081ZM19.25 38.5C19.25 36.7051 20.7051 35.25 22.5 35.25C24.2949 35.25 25.75 36.7051 25.75 38.5C25.75 40.295 24.2949 41.75 22.5 41.75C20.7051 41.75 19.25 40.295 19.25 38.5Z"
  />
  <path
    fill-rule="evenodd"
    clip-rule="evenodd"
    d="M38.6963 4.75H21.3037C18.8652 4.74998 16.8983 4.74996 15.3056 4.88009C13.6657 5.01408 12.2253 5.29716 10.8926 5.97618C8.77578 7.05475 7.05475 8.77578 5.97618 10.8926C5.29716 12.2253 5.01408 13.6657 4.88009 15.3056C4.74996 16.8983 4.74998 18.8652 4.75 21.3037V38.6963C4.74998 41.1348 4.74996 43.1017 4.88009 44.6944C5.01408 46.3343 5.29716 47.7747 5.97618 49.1074C7.05475 51.2242 8.77578 52.9452 10.8926 54.0238C12.2253 54.7028 13.6657 54.9859 15.3056 55.1199C16.8983 55.25 18.8651 55.25 21.3036 55.25H38.6964C41.1348 55.25 43.1017 55.25 44.6944 55.1199C46.3343 54.9859 47.7747 54.7028 49.1074 54.0238C51.2242 52.9452 52.9452 51.2242 54.0238 49.1074C54.7028 47.7747 54.9859 46.3343 55.1199 44.6944C55.25 43.1017 55.25 41.1349 55.25 38.6964V21.3036C55.25 18.8652 55.25 16.8983 55.1199 15.3056C54.9859 13.6657 54.7028 12.2253 54.0238 10.8926C52.9452 8.77578 51.2242 7.05475 49.1074 5.97618C47.7747 5.29716 46.3343 5.01408 44.6944 4.88009C43.1017 4.74996 41.1348 4.74998 38.6963 4.75ZM12.9356 9.98571C13.5281 9.68379 14.3104 9.4764 15.672 9.36515C17.0599 9.25175 18.8426 9.25 21.4 9.25H38.6C41.1574 9.25 42.9401 9.25175 44.328 9.36515C45.6896 9.4764 46.4719 9.68379 47.0644 9.98571C48.3345 10.6329 49.3671 11.6655 50.0143 12.9356C50.3162 13.5281 50.5236 14.3104 50.6349 15.672C50.7482 17.0599 50.75 18.8426 50.75 21.4V38.6C50.75 41.1574 50.7482 42.9401 50.6349 44.328C50.5236 45.6896 50.3162 46.4719 50.0143 47.0644C49.3671 48.3345 48.3345 49.3671 47.0644 50.0143C46.4719 50.3162 45.6896 50.5236 44.328 50.6349C42.9401 50.7482 41.1574 50.75 38.6 50.75H21.4C18.8426 50.75 17.0599 50.7482 15.672 50.6349C14.3104 50.5236 13.5281 50.3162 12.9356 50.0143C11.6655 49.3671 10.6329 48.3345 9.98571 47.0644C9.68379 46.4719 9.4764 45.6896 9.36515 44.328C9.25175 42.9401 9.25 41.1574 9.25 38.6V21.4C9.25 18.8426 9.25175 17.0599 9.36515 15.672C9.4764 14.3104 9.68379 13.5281 9.98571 12.9356C10.6329 11.6655 11.6655 10.6329 12.9356 9.98571Z"
  />
</svg>
