<svg
  width="60"
  height="60"
  viewBox="0 0 60 60"
  fill="currentColor"
  xmlns="http://www.w3.org/2000/svg"
>
  <path
    d="M0 18.7826C0 12.2081 0 8.92081 1.27949 6.40968C2.40496 4.20082 4.20082 2.40496 6.40968 1.27949C8.92081 0 12.2081 0 18.7826 0H41.2174C47.7919 0 51.0792 0 53.5903 1.27949C55.7992 2.40496 57.595 4.20082 58.7205 6.40968C60 8.92081 60 12.2081 60 18.7826V41.2174C60 47.7919 60 51.0792 58.7205 53.5903C57.595 55.7992 55.7992 57.595 53.5903 58.7205C51.0792 60 47.7919 60 41.2174 60H18.7826C12.2081 60 8.92081 60 6.40968 58.7205C4.20082 57.595 2.40496 55.7992 1.27949 53.5903C0 51.0792 0 47.7919 0 41.2174V18.7826Z"
    fill="#008862"
    fill-opacity="0.08"
  />
  <path
    d="M18 14.75C16.7574 14.75 15.75 15.7574 15.75 17C15.75 18.2426 16.7574 19.25 18 19.25H42C43.2426 19.25 44.25 18.2426 44.25 17C44.25 15.7574 43.2426 14.75 42 14.75H18Z"
    fill="#20B082"
  />
  <path
    d="M18 28.75C16.7574 28.75 15.75 29.7574 15.75 31C15.75 32.2426 16.7574 33.25 18 33.25H27C28.2426 33.25 29.25 32.2426 29.25 31C29.25 29.7574 28.2426 28.75 27 28.75H18Z"
    fill="#20B082"
  />
  <path
    d="M35.25 41C35.25 39.6567 34.4351 38.5038 33.2727 38.0086C33.5204 35.3395 35.7662 33.25 38.5 33.25C41.2338 33.25 43.4796 35.3395 43.7273 38.0086C42.5649 38.5038 41.75 39.6567 41.75 41V43C41.75 44.7949 43.2051 46.25 45 46.25C46.7949 46.25 48.25 44.7949 48.25 43V38.5C48.25 33.1152 43.8848 28.75 38.5 28.75C33.1152 28.75 28.75 33.1152 28.75 38.5V43C28.75 44.7949 30.2051 46.25 32 46.25C33.7949 46.25 35.25 44.7949 35.25 43V41Z"
    fill="#20B082"
  />
</svg>
