<svg
  width="60"
  height="60"
  viewBox="0 0 60 60"
  fill="currentColor"
  xmlns="http://www.w3.org/2000/svg"
>
  <rect x="5" y="5" width="50" height="50" rx="9.78261" fill="#ED6557" />
  <path
    fill-rule="evenodd"
    clip-rule="evenodd"
    d="M15.75 17C15.75 15.7574 16.7574 14.75 18 14.75H42C43.2426 14.75 44.25 15.7574 44.25 17C44.25 18.2426 43.2426 19.25 42 19.25H18C16.7574 19.25 15.75 18.2426 15.75 17ZM38.8354 33.1034C38.8355 33.0957 38.8356 33.088 38.8356 33.0803V28.8786L43.8006 30.1144C45.0064 30.4145 46.2273 29.6803 46.5274 28.4744C46.8275 27.2686 46.0933 26.0477 44.8874 25.7476L39.612 24.4346C37.0016 23.7849 34.4727 25.6904 34.341 28.3414C34.3373 28.3938 34.3354 28.4467 34.3354 28.5V36.3626C33.8431 36.233 33.3261 36.164 32.793 36.164C29.4555 36.164 26.75 38.8695 26.75 42.207C26.75 45.5444 29.4556 48.25 32.793 48.25C35.8805 48.25 38.4272 45.9346 38.7914 42.9454C38.8203 42.8015 38.8354 42.6525 38.8354 42.5V42.2916C38.8358 42.2634 38.836 42.2352 38.836 42.207C38.836 42.1787 38.8358 42.1506 38.8354 42.1224V33.1034ZM34.3354 42.1643V42.2497C34.3128 43.0821 33.6309 43.75 32.793 43.75C31.9408 43.75 31.25 43.0592 31.25 42.207C31.25 41.3548 31.9408 40.664 32.793 40.664C33.6309 40.664 34.3128 41.3318 34.3354 42.1643ZM15.75 31C15.75 29.7574 16.7574 28.75 18 28.75H27C28.2426 28.75 29.25 29.7574 29.25 31C29.25 32.2426 28.2426 33.25 27 33.25H18C16.7574 33.25 15.75 32.2426 15.75 31Z"
    fill="white"
  />
</svg>
