<svg
  width="60"
  height="60"
  viewBox="0 0 60 60"
  fill="currentColor"
  xmlns="http://www.w3.org/2000/svg"
>
  <path
    d="M5 20.6522C5 15.1734 5 12.434 6.06624 10.3414C7.00413 8.50068 8.50068 7.00413 10.3414 6.06624C12.434 5 15.1734 5 20.6522 5H39.3478C44.8266 5 47.566 5 49.6586 6.06624C51.4993 7.00413 52.9959 8.50068 53.9338 10.3414C55 12.434 55 15.1734 55 20.6522V39.3478C55 44.8266 55 47.566 53.9338 49.6586C52.9959 51.4993 51.4993 52.9959 49.6586 53.9338C47.566 55 44.8266 55 39.3478 55H20.6522C15.1734 55 12.434 55 10.3414 53.9338C8.50068 52.9959 7.00413 51.4993 6.06624 49.6586C5 47.566 5 44.8266 5 39.3478V20.6522Z"
    fill="#ED6557"
  />
  <path
    fill-rule="evenodd"
    clip-rule="evenodd"
    d="M26.1998 15.65C27.0567 13.948 29.0174 12.9346 31.0265 13.4346L42.0265 16.1724C43.9205 16.6438 45.25 18.3447 45.25 20.2966V26.4412C45.25 29.2043 42.6548 31.2327 39.9735 30.5654L30.25 28.1453V38C30.25 38.0588 30.2477 38.1172 30.2433 38.1749C30.2478 38.2827 30.25 38.3911 30.25 38.5C30.25 42.7802 26.7802 46.25 22.5 46.25C18.2198 46.25 14.75 42.7802 14.75 38.5C14.75 34.2198 18.2198 30.75 22.5 30.75C23.6606 30.75 24.7616 31.0051 25.75 31.4623L25.75 17C25.75 16.4935 25.9174 16.026 26.1998 15.65ZM30.25 17.8786V23.508L40.75 26.1213V20.492L30.25 17.8786ZM22.5 35.25C20.7051 35.25 19.25 36.7051 19.25 38.5C19.25 40.2949 20.7051 41.75 22.5 41.75C24.2949 41.75 25.75 40.2949 25.75 38.5C25.75 36.7051 24.2949 35.25 22.5 35.25Z"
    fill="white"
  />
</svg>
