<svg
  width="60"
  height="60"
  viewBox="0 0 60 60"
  fill="currentColor"
  xmlns="http://www.w3.org/2000/svg"
>
  <path
    d="M27 4.75H21.3029C18.8646 4.74998 16.898 4.74996 15.3054 4.88009C13.6656 5.01408 12.2252 5.29717 10.8926 5.97618C8.77578 7.05475 7.05475 8.77578 5.97618 10.8926C5.29716 12.2253 5.01408 13.6657 4.88009 15.3056C4.74996 16.8983 4.74998 18.8652 4.75 21.3037V38.6963C4.74998 41.1348 4.74996 43.1017 4.88009 44.6944C5.01408 46.3343 5.29716 47.7747 5.97618 49.1074C7.05475 51.2242 8.77578 52.9452 10.8926 54.0238C12.2253 54.7028 13.6657 54.9859 15.3056 55.1199C16.8983 55.25 18.8651 55.25 21.3036 55.25H35.1964C37.6348 55.25 39.6017 55.25 41.1944 55.1199C42.8343 54.9859 44.2747 54.7028 45.6074 54.0238C47.7242 52.9452 49.4452 51.2242 50.5238 49.1074C51.2028 47.7747 51.4859 46.3343 51.6199 44.6944C51.75 43.1017 51.75 41.1349 51.75 38.6964V32.5C51.75 31.2574 50.7426 30.25 49.5 30.25C48.2574 30.25 47.25 31.2574 47.25 32.5V38.6C47.25 41.1574 47.2482 42.9401 47.1349 44.328C47.0236 45.6896 46.8162 46.4719 46.5143 47.0644C45.8671 48.3345 44.8345 49.3671 43.5644 50.0143C42.9719 50.3162 42.1896 50.5236 40.828 50.6349C39.4401 50.7482 37.6574 50.75 35.1 50.75H21.4C18.8426 50.75 17.0599 50.7482 15.672 50.6349C14.3104 50.5236 13.5281 50.3162 12.9356 50.0143C11.6655 49.3671 10.6329 48.3345 9.98571 47.0644C9.68379 46.4719 9.4764 45.6896 9.36515 44.328C9.25175 42.9401 9.25 41.1574 9.25 38.6V21.4C9.25 18.8426 9.25175 17.0599 9.36515 15.672C9.4764 14.3104 9.68379 13.5281 9.98571 12.9356C10.6329 11.6655 11.6655 10.6329 12.9356 9.98571C13.5281 9.68378 14.3104 9.47639 15.6719 9.36515C17.0596 9.25175 18.8421 9.25 21.3992 9.25H27C28.2426 9.25 29.25 8.24264 29.25 7C29.25 5.75736 28.2426 4.75 27 4.75Z"
  />
  <path
    fill-rule="evenodd"
    clip-rule="evenodd"
    d="M39.0265 5.43466C37.0174 4.93463 35.0567 5.94809 34.1998 7.65004C33.9174 8.02609 33.75 8.49352 33.75 9.00005V23.4624C32.7616 23.0052 31.6606 22.75 30.5 22.75C26.2198 22.75 22.75 26.2198 22.75 30.5C22.75 34.7803 26.2198 38.25 30.5 38.25C34.7802 38.25 38.25 34.7803 38.25 30.5C38.25 30.3911 38.2478 30.2827 38.2433 30.1749C38.2477 30.1172 38.25 30.0589 38.25 30V20.1454L47.9735 22.5654C50.6548 23.2328 53.25 21.2043 53.25 18.4413V12.2966C53.25 10.3448 51.9205 8.64385 50.0265 8.17244L39.0265 5.43466ZM38.25 15.5081V9.87869L48.75 12.492V18.1214L38.25 15.5081ZM27.25 30.5C27.25 28.7051 28.7051 27.25 30.5 27.25C32.2949 27.25 33.75 28.7051 33.75 30.5C33.75 32.295 32.2949 33.75 30.5 33.75C28.7051 33.75 27.25 32.295 27.25 30.5Z"
  />
</svg>
