<svg
  width="60"
  height="60"
  viewBox="0 0 60 60"
  fill="currentColor"
  xmlns="http://www.w3.org/2000/svg"
>
  <path
    d="M40.3322 6.69104e-07H19.6678C16.7705 -2.52622e-05 14.4336 -4.61787e-05 12.5413 0.154565C10.5929 0.313756 8.8815 0.650087 7.29815 1.45685C4.78311 2.73832 2.73832 4.78311 1.45685 7.29815C0.650087 8.8815 0.313756 10.5929 0.154565 12.5413C-4.61787e-05 14.4336 -2.52622e-05 16.7705 6.69104e-07 19.6677V40.3322C-2.52622e-05 43.2295 -4.61787e-05 45.5664 0.154565 47.4587C0.313756 49.4071 0.650087 51.1185 1.45685 52.7019C2.73832 55.2169 4.78311 57.2617 7.29815 58.5432C8.8815 59.3499 10.5929 59.6862 12.5413 59.8454C14.4336 60 16.7704 60 19.6676 60H40.3323C43.2295 60 45.5664 60 47.4587 59.8454C49.4071 59.6862 51.1185 59.3499 52.7019 58.5432C55.2169 57.2617 57.2617 55.2169 58.5432 52.7019C59.3499 51.1185 59.6862 49.4071 59.8454 47.4587C60 45.5664 60 43.2296 60 40.3324V19.6677C60 16.7705 60 14.4336 59.8454 12.5413C59.6862 10.5929 59.3499 8.8815 58.5432 7.29815C57.2617 4.78311 55.2169 2.73832 52.7019 1.45685C51.1185 0.650087 49.4071 0.313756 47.4587 0.154565C45.5664 -4.61787e-05 43.2295 -2.52622e-05 40.3322 6.69104e-07Z"
    fill="#D74134"
    fill-opacity="0.08"
  />
  <path
    fill-rule="evenodd"
    clip-rule="evenodd"
    d="M13.75 30C13.75 21.0254 21.0254 13.75 30 13.75C38.9746 13.75 46.25 21.0254 46.25 30V37.5C46.25 41.2279 43.2279 44.25 39.5 44.25C35.7721 44.25 32.75 41.2279 32.75 37.5V34.5C32.75 30.7721 35.7721 27.75 39.5 27.75C40.231 27.75 40.9348 27.8662 41.5941 28.0811C40.6781 22.5045 35.8359 18.25 30 18.25C24.1641 18.25 19.3219 22.5045 18.4059 28.0811C19.0652 27.8662 19.769 27.75 20.5 27.75C24.2279 27.75 27.25 30.7721 27.25 34.5V37.5C27.25 41.2279 24.2279 44.25 20.5 44.25C16.7721 44.25 13.75 41.2279 13.75 37.5V30ZM18.25 34.5V37.5C18.25 38.7426 19.2574 39.75 20.5 39.75C21.7426 39.75 22.75 38.7426 22.75 37.5V34.5C22.75 33.2574 21.7426 32.25 20.5 32.25C19.2574 32.25 18.25 33.2574 18.25 34.5ZM41.75 34.5C41.75 33.2574 40.7426 32.25 39.5 32.25C38.2574 32.25 37.25 33.2574 37.25 34.5V37.5C37.25 38.7426 38.2574 39.75 39.5 39.75C40.7426 39.75 41.75 38.7426 41.75 37.5V34.5Z"
    fill="#ED6557"
  />
</svg>
