<svg
  width="60"
  height="60"
  viewBox="0 0 60 60"
  fill="currentColor"
  xmlns="http://www.w3.org/2000/svg"
>
  <path
    d="M40.3322 6.69104e-07H19.6678C16.7705 -2.52622e-05 14.4336 -4.61787e-05 12.5413 0.154565C10.5929 0.313756 8.8815 0.650087 7.29815 1.45685C4.78311 2.73832 2.73832 4.78311 1.45685 7.29815C0.650087 8.8815 0.313756 10.5929 0.154565 12.5413C-4.61787e-05 14.4336 -2.52622e-05 16.7705 6.69104e-07 19.6677V40.3322C-2.52622e-05 43.2295 -4.61787e-05 45.5664 0.154565 47.4587C0.313756 49.4071 0.650087 51.1185 1.45685 52.7019C2.73832 55.2169 4.78311 57.2617 7.29815 58.5432C8.8815 59.3499 10.5929 59.6862 12.5413 59.8454C14.4336 60 16.7704 60 19.6676 60H40.3323C43.2295 60 45.5664 60 47.4587 59.8454C49.4071 59.6862 51.1185 59.3499 52.7019 58.5432C55.2169 57.2617 57.2617 55.2169 58.5432 52.7019C59.3499 51.1185 59.6862 49.4071 59.8454 47.4587C60 45.5664 60 43.2296 60 40.3324V19.6677C60 16.7705 60 14.4336 59.8454 12.5413C59.6862 10.5929 59.3499 8.8815 58.5432 7.29815C57.2617 4.78311 55.2169 2.73832 52.7019 1.45685C51.1185 0.650087 49.4071 0.313756 47.4587 0.154565C45.5664 -4.61787e-05 43.2295 -2.52622e-05 40.3322 6.69104e-07Z"
    fill="#D74134"
    fill-opacity="0.08"
  />
  <path
    fill-rule="evenodd"
    clip-rule="evenodd"
    d="M26.1998 15.65C27.0567 13.948 29.0174 12.9346 31.0265 13.4346L42.0265 16.1724C43.9205 16.6438 45.25 18.3447 45.25 20.2966V26.4412C45.25 29.2043 42.6548 31.2327 39.9735 30.5654L30.25 28.1453V38C30.25 38.0588 30.2477 38.1172 30.2433 38.1749C30.2478 38.2827 30.25 38.3911 30.25 38.5C30.25 42.7802 26.7802 46.25 22.5 46.25C18.2198 46.25 14.75 42.7802 14.75 38.5C14.75 34.2198 18.2198 30.75 22.5 30.75C23.6606 30.75 24.7616 31.0051 25.75 31.4623L25.75 17C25.75 16.4935 25.9174 16.026 26.1998 15.65ZM30.25 17.8786V23.508L40.75 26.1213V20.492L30.25 17.8786ZM22.5 35.25C20.7051 35.25 19.25 36.7051 19.25 38.5C19.25 40.2949 20.7051 41.75 22.5 41.75C24.2949 41.75 25.75 40.2949 25.75 38.5C25.75 36.7051 24.2949 35.25 22.5 35.25Z"
    fill="#E55649"
  />
</svg>
