<svg
  width="60"
  height="60"
  viewBox="0 0 60 60"
  fill="currentColor"
  xmlns="http://www.w3.org/2000/svg"
>
  <path
    d="M0 18.7826C0 12.2081 0 8.92081 1.27949 6.40968C2.40496 4.20082 4.20082 2.40496 6.40968 1.27949C8.92081 0 12.2081 0 18.7826 0H41.2174C47.7919 0 51.0792 0 53.5903 1.27949C55.7992 2.40496 57.595 4.20082 58.7205 6.40968C60 8.92081 60 12.2081 60 18.7826V41.2174C60 47.7919 60 51.0792 58.7205 53.5903C57.595 55.7992 55.7992 57.595 53.5903 58.7205C51.0792 60 47.7919 60 41.2174 60H18.7826C12.2081 60 8.92081 60 6.40968 58.7205C4.20082 57.595 2.40496 55.7992 1.27949 53.5903C0 51.0792 0 47.7919 0 41.2174V18.7826Z"
    fill="#008862"
    fill-opacity="0.08"
  />
  <path
    d="M18 14.75C16.7574 14.75 15.75 15.7574 15.75 17C15.75 18.2426 16.7574 19.25 18 19.25H42C43.2426 19.25 44.25 18.2426 44.25 17C44.25 15.7574 43.2426 14.75 42 14.75H18Z"
    fill="#20B082"
  />
  <path
    fill-rule="evenodd"
    clip-rule="evenodd"
    d="M38.8356 33.0803L38.8354 33.1034V42.1224C38.8358 42.1505 38.836 42.1787 38.836 42.207C38.836 42.2352 38.8358 42.2634 38.8354 42.2916V42.5C38.8354 42.6525 38.8203 42.8015 38.7914 42.9454C38.4272 45.9346 35.8805 48.25 32.793 48.25C29.4556 48.25 26.75 45.5444 26.75 42.207C26.75 38.8695 29.4555 36.164 32.793 36.164C33.3261 36.164 33.8431 36.233 34.3354 36.3626V28.5C34.3354 28.4467 34.3373 28.3938 34.341 28.3414C34.4727 25.6904 37.0016 23.7849 39.612 24.4346L44.8874 25.7476C46.0933 26.0477 46.8275 27.2686 46.5274 28.4744C46.2273 29.6803 45.0064 30.4145 43.8006 30.1144L38.8356 28.8786V33.0803ZM32.793 43.75C33.6309 43.75 34.3128 43.0821 34.3354 42.2497V42.1643C34.3128 41.3318 33.6309 40.664 32.793 40.664C31.9408 40.664 31.25 41.3548 31.25 42.207C31.25 43.0592 31.9408 43.75 32.793 43.75Z"
    fill="#20B082"
  />
  <path
    d="M18 28.75C16.7574 28.75 15.75 29.7574 15.75 31C15.75 32.2426 16.7574 33.25 18 33.25H27C28.2426 33.25 29.25 32.2426 29.25 31C29.25 29.7574 28.2426 28.75 27 28.75H18Z"
    fill="#20B082"
  />
</svg>
