<svg
  width="60"
  height="60"
  viewBox="0 0 60 60"
  fill="currentColor"
  xmlns="http://www.w3.org/2000/svg"
>
  <rect x="5" y="5" width="50" height="50" rx="9.78261" fill="#20B082" />
  <path
    d="M18 14.75C16.7574 14.75 15.75 15.7574 15.75 17C15.75 18.2426 16.7574 19.25 18 19.25H42C43.2426 19.25 44.25 18.2426 44.25 17C44.25 15.7574 43.2426 14.75 42 14.75H18Z"
    fill="white"
  />
  <path
    d="M18 28.75C16.7574 28.75 15.75 29.7574 15.75 31C15.75 32.2426 16.7574 33.25 18 33.25H27C28.2426 33.25 29.25 32.2426 29.25 31C29.25 29.7574 28.2426 28.75 27 28.75H18Z"
    fill="white"
  />
  <path
    d="M35.25 41C35.25 39.6567 34.4351 38.5038 33.2727 38.0086C33.5204 35.3395 35.7662 33.25 38.5 33.25C41.2338 33.25 43.4796 35.3395 43.7273 38.0086C42.5649 38.5038 41.75 39.6567 41.75 41V43C41.75 44.7949 43.2051 46.25 45 46.25C46.7949 46.25 48.25 44.7949 48.25 43V38.5C48.25 33.1152 43.8848 28.75 38.5 28.75C33.1152 28.75 28.75 33.1152 28.75 38.5V43C28.75 44.7949 30.2051 46.25 32 46.25C33.7949 46.25 35.25 44.7949 35.25 43V41Z"
    fill="white"
  />
</svg>
