<svg
  width="60"
  height="60"
  viewBox="0 0 60 60"
  fill="currentColor"
  xmlns="http://www.w3.org/2000/svg"
>
  <path
    d="M18 14.75C16.7574 14.75 15.75 15.7574 15.75 17C15.75 18.2426 16.7574 19.25 18 19.25H42C43.2426 19.25 44.25 18.2426 44.25 17C44.25 15.7574 43.2426 14.75 42 14.75H18Z"
  />
  <path
    fill-rule="evenodd"
    clip-rule="evenodd"
    d="M38.8356 33.0803L38.8354 33.1034V42.1224C38.8358 42.1506 38.836 42.1787 38.836 42.207C38.836 42.2352 38.8358 42.2634 38.8354 42.2916V42.5C38.8354 42.6525 38.8203 42.8015 38.7914 42.9454C38.4272 45.9346 35.8805 48.25 32.793 48.25C29.4556 48.25 26.75 45.5444 26.75 42.207C26.75 38.8695 29.4555 36.164 32.793 36.164C33.3261 36.164 33.8431 36.233 34.3354 36.3626V28.5C34.3354 28.4467 34.3373 28.3938 34.341 28.3414C34.4727 25.6904 37.0016 23.7849 39.612 24.4346L44.8874 25.7476C46.0933 26.0477 46.8275 27.2686 46.5274 28.4744C46.2273 29.6803 45.0064 30.4145 43.8006 30.1144L38.8356 28.8786V33.0803ZM32.793 43.75C33.6309 43.75 34.3128 43.0821 34.3354 42.2497V42.1643C34.3128 41.3318 33.6309 40.664 32.793 40.664C31.9408 40.664 31.25 41.3548 31.25 42.207C31.25 43.0592 31.9408 43.75 32.793 43.75Z"
  />
  <path
    d="M18 28.75C16.7574 28.75 15.75 29.7574 15.75 31C15.75 32.2426 16.7574 33.25 18 33.25H27C28.2426 33.25 29.25 32.2426 29.25 31C29.25 29.7574 28.2426 28.75 27 28.75H18Z"
  />
  <path
    fill-rule="evenodd"
    clip-rule="evenodd"
    d="M38.6963 4.75H21.3037C18.8652 4.74998 16.8983 4.74996 15.3056 4.88009C13.6657 5.01408 12.2253 5.29716 10.8926 5.97618C8.77578 7.05475 7.05475 8.77578 5.97618 10.8926C5.29716 12.2253 5.01408 13.6657 4.88009 15.3056C4.74996 16.8983 4.74998 18.8652 4.75 21.3037V38.6963C4.74998 41.1348 4.74996 43.1017 4.88009 44.6944C5.01408 46.3343 5.29716 47.7747 5.97618 49.1074C7.05475 51.2242 8.77578 52.9452 10.8926 54.0238C12.2253 54.7028 13.6657 54.9859 15.3056 55.1199C16.8983 55.25 18.8651 55.25 21.3036 55.25H38.6964C41.1348 55.25 43.1017 55.25 44.6944 55.1199C46.3343 54.9859 47.7747 54.7028 49.1074 54.0238C51.2242 52.9452 52.9452 51.2242 54.0238 49.1074C54.7028 47.7747 54.9859 46.3343 55.1199 44.6944C55.25 43.1017 55.25 41.1349 55.25 38.6964V21.3036C55.25 18.8652 55.25 16.8983 55.1199 15.3056C54.9859 13.6657 54.7028 12.2253 54.0238 10.8926C52.9452 8.77578 51.2242 7.05475 49.1074 5.97618C47.7747 5.29716 46.3343 5.01408 44.6944 4.88009C43.1017 4.74996 41.1348 4.74998 38.6963 4.75ZM12.9356 9.98571C13.5281 9.68379 14.3104 9.4764 15.672 9.36515C17.0599 9.25175 18.8426 9.25 21.4 9.25H38.6C41.1574 9.25 42.9401 9.25175 44.328 9.36515C45.6896 9.4764 46.4719 9.68379 47.0644 9.98571C48.3345 10.6329 49.3671 11.6655 50.0143 12.9356C50.3162 13.5281 50.5236 14.3104 50.6349 15.672C50.7482 17.0599 50.75 18.8426 50.75 21.4V38.6C50.75 41.1574 50.7482 42.9401 50.6349 44.328C50.5236 45.6896 50.3162 46.4719 50.0143 47.0644C49.3671 48.3345 48.3345 49.3671 47.0644 50.0143C46.4719 50.3162 45.6896 50.5236 44.328 50.6349C42.9401 50.7482 41.1574 50.75 38.6 50.75H21.4C18.8426 50.75 17.0599 50.7482 15.672 50.6349C14.3104 50.5236 13.5281 50.3162 12.9356 50.0143C11.6655 49.3671 10.6329 48.3345 9.98571 47.0644C9.68379 46.4719 9.4764 45.6896 9.36515 44.328C9.25175 42.9401 9.25 41.1574 9.25 38.6V21.4C9.25 18.8426 9.25175 17.0599 9.36515 15.672C9.4764 14.3104 9.68379 13.5281 9.98571 12.9356C10.6329 11.6655 11.6655 10.6329 12.9356 9.98571Z"
  />
</svg>
