<svg
  width="60"
  height="60"
  viewBox="0 0 60 60"
  fill="currentColor"
  xmlns="http://www.w3.org/2000/svg"
>
  <path
    d="M30 2.75C14.9502 2.75 2.75 14.9502 2.75 30C2.75 45.0498 14.9502 57.25 30 57.25C45.0498 57.25 57.25 45.0498 57.25 30C57.25 14.9502 45.0498 2.75 30 2.75Z"
  />
  <path
    d="M12.4419 44.857C12.7607 43.3723 13.524 41.948 14.7794 40.7702C18.757 37.0386 24.1136 34.75 29.9998 34.75C35.886 34.75 41.2427 37.0387 45.2203 40.7704C46.4758 41.9483 47.2391 43.3728 47.5579 44.8576C43.3389 49.8383 37.0388 53 30.0001 53C22.9612 53 16.6608 49.838 12.4419 44.857Z"
    fill="white"
  />
  <path
    d="M39 21C39 25.9706 34.9705 30 30 30C25.0294 30 21 25.9706 21 21C21 16.0294 25.0294 12 30 12C34.9705 12 39 16.0294 39 21Z"
    fill="white"
  />
</svg>
