<svg
  width="60"
  height="60"
  viewBox="0 0 60 60"
  fill="currentColor"
  xmlns="http://www.w3.org/2000/svg"
>
  <path
    fill-rule="evenodd"
    clip-rule="evenodd"
    d="M30 9.75C23.7868 9.75 18.75 14.7868 18.75 21C18.75 27.2132 23.7868 32.25 30 32.25C36.2132 32.25 41.25 27.2132 41.25 21C41.25 14.7868 36.2132 9.75 30 9.75ZM23.25 21C23.25 17.2721 26.2721 14.25 30 14.25C33.7279 14.25 36.75 17.2721 36.75 21C36.75 24.7279 33.7279 27.75 30 27.75C26.2721 27.75 23.25 24.7279 23.25 21Z"
  />
  <path
    fill-rule="evenodd"
    clip-rule="evenodd"
    d="M2.75 30C2.75 45.0328 14.9227 57.2225 29.949 57.25L30 57.25C45.0497 57.25 57.25 45.0498 57.25 30C57.25 14.9502 45.0498 2.75 30 2.75C14.9502 2.75 2.75 14.9502 2.75 30ZM30 7.25C17.4355 7.25 7.25 17.4355 7.25 30C7.25 35.5355 9.22702 40.6093 12.5135 44.5537C12.8673 43.1789 13.6098 41.8675 14.7794 40.7702C18.7571 37.0386 24.1136 34.75 29.9998 34.75C35.886 34.75 41.2427 37.0387 45.2204 40.7704C46.39 41.8678 47.1325 43.1792 47.4863 44.554C50.7729 40.6095 52.75 35.5357 52.75 30C52.75 17.4355 42.5645 7.25 30 7.25ZM18.6272 49.7077C21.7402 51.508 25.3193 52.5919 29.1391 52.734L29.9264 52.7499L30 52.75C30.2945 52.75 30.5877 52.7444 30.8794 52.7333C34.6909 52.5884 38.2623 51.5059 41.3694 49.7097C43.5346 48.4239 43.8209 45.6278 42.1415 44.0522C38.9648 41.072 34.6975 39.25 29.9998 39.25C25.3021 39.25 21.0349 41.0719 17.8583 44.0521C16.1796 45.6269 16.4648 48.4211 18.6272 49.7077Z"
  />
</svg>
