<svg
  width="60"
  height="60"
  viewBox="0 0 60 60"
  fill="currentColor"
  xmlns="http://www.w3.org/2000/svg"
>
  <path
    fill-rule="evenodd"
    clip-rule="evenodd"
    d="M9.97064 10.3904C9.0617 11.1754 8.25 12.4411 8.25 14.5C8.25 16.6235 9.56033 18.3579 11.0248 19.6117L11.0531 19.6359C11.5911 20.0965 12.0338 20.4755 12.3676 20.7792C12.6735 21.0573 13.0477 21.4115 13.3214 21.8082C13.4647 22.016 13.6347 22.2721 13.7806 22.5891C13.9265 22.906 14.0105 23.2018 14.0751 23.4458C14.2534 24.1192 14.2519 24.9345 14.2503 25.7413C14.2501 25.8165 14.25 25.8916 14.25 25.9666V38.6C14.25 41.1574 14.2517 42.9401 14.3651 44.328C14.4764 45.6896 14.6838 46.4719 14.9857 47.0644C15.6329 48.3345 16.6655 49.3671 17.9356 50.0143C18.5281 50.3162 19.3104 50.5236 20.672 50.6349C22.0599 50.7482 23.8426 50.75 26.4 50.75H33.6C36.1574 50.75 37.9401 50.7482 39.328 50.6349C40.6896 50.5236 41.4719 50.3162 42.0644 50.0143C43.3345 49.3671 44.3671 48.3345 45.0143 47.0644C45.3162 46.4719 45.5236 45.6896 45.6349 44.328C45.7482 42.9401 45.75 41.1574 45.75 38.6V25.9666C45.75 25.8916 45.7499 25.8165 45.7497 25.7413C45.7481 24.9345 45.7466 24.1192 45.9249 23.4458C45.9895 23.2018 46.0735 22.906 46.2194 22.5891C46.3652 22.2721 46.5353 22.016 46.6786 21.8082C46.9523 21.4115 47.3265 21.0573 47.6324 20.7792C47.9662 20.4755 48.4089 20.0965 48.9469 19.6359L48.9752 19.6117C50.4397 18.3579 51.75 16.6235 51.75 14.5C51.75 12.4411 50.9383 11.1754 50.0294 10.3904C49.0267 9.52441 47.9138 9.25 47.5 9.25H12.5C12.0861 9.25 10.9733 9.52441 9.97064 10.3904ZM7.02936 6.98465C8.77669 5.47559 10.9139 4.75 12.5 4.75H47.5C49.0862 4.75 51.2233 5.47559 52.9706 6.98465C54.8117 8.57465 56.25 11.0589 56.25 14.5C56.25 18.5664 53.7606 21.4386 51.9019 23.03C51.3285 23.5209 50.9378 23.8557 50.66 24.1083C50.4464 24.3026 50.3709 24.3859 50.3613 24.3948C50.3372 24.4301 50.3207 24.4552 50.3099 24.4718C50.3034 24.4939 50.2932 24.5291 50.2792 24.5818C50.277 24.5971 50.2674 24.6681 50.2606 24.8348C50.2504 25.087 50.25 25.4253 50.25 25.9666V38.6964C50.25 41.1349 50.25 43.1017 50.1199 44.6944C49.9859 46.3343 49.7028 47.7747 49.0238 49.1074C47.9452 51.2242 46.2242 52.9452 44.1074 54.0238C42.7747 54.7028 41.3343 54.9859 39.6944 55.1199C38.1017 55.25 36.1349 55.25 33.6964 55.25H26.3036C23.8651 55.25 21.8983 55.25 20.3056 55.1199C18.6657 54.9859 17.2253 54.7028 15.8926 54.0238C13.7758 52.9452 12.0548 51.2242 10.9762 49.1074C10.2972 47.7747 10.0141 46.3343 9.88009 44.6944C9.74996 43.1017 9.74998 41.1348 9.75 38.6963L9.75 25.9666C9.75 25.4253 9.74957 25.087 9.73935 24.8348C9.7326 24.6681 9.72297 24.5971 9.72083 24.5818C9.70675 24.5291 9.69665 24.4939 9.69005 24.4719C9.6793 24.4552 9.66284 24.4301 9.63873 24.3948C9.62911 24.3859 9.55362 24.3026 9.34 24.1083C9.06223 23.8557 8.67151 23.5209 8.09814 23.03C6.23943 21.4386 3.75 18.5664 3.75 14.5C3.75 11.0589 5.1883 8.57465 7.02936 6.98465Z"
  />
  <path
    fill-rule="evenodd"
    clip-rule="evenodd"
    d="M23.2475 27.8078C23.266 27.7893 23.2845 27.7708 23.3031 27.7522L25.0002 26.0551C25.0188 26.0366 25.0373 26.018 25.0558 25.9995C25.602 25.4533 26.1036 24.9516 26.5572 24.5665C27.0463 24.1513 27.6255 23.7412 28.3629 23.5016C29.4174 23.159 30.5532 23.159 31.6076 23.5016C32.3451 23.7412 32.9243 24.1513 33.4134 24.5665C33.867 24.9516 34.3686 25.4533 34.9148 25.9995L36.7231 27.8078C37.2693 28.354 37.771 28.8556 38.1561 29.3092C38.5713 29.7983 38.9813 30.3775 39.221 31.115C39.5636 32.1694 39.5636 33.3052 39.221 34.3596C38.9813 35.0971 38.5713 35.6763 38.1561 36.1654C37.771 36.619 37.2693 37.1206 36.7231 37.6668L34.9148 39.4751C34.3686 40.0213 33.867 40.523 33.4134 40.9081C32.9243 41.3233 32.3451 41.7334 31.6076 41.973C30.5532 42.3156 29.4174 42.3156 28.3629 41.973C27.6255 41.7334 27.0463 41.3233 26.5572 40.9081C26.1036 40.523 25.602 40.0213 25.0558 39.4751C25.0373 39.4566 25.0188 39.4381 25.0002 39.4195L23.3031 37.7224C23.2845 37.7038 23.266 37.6853 23.2475 37.6668C22.7013 37.1206 22.1996 36.619 21.8145 36.1654C21.3993 35.6763 20.9892 35.0971 20.7496 34.3596C20.407 33.3052 20.407 32.1694 20.7496 31.115C20.9892 30.3775 21.3993 29.7983 21.8145 29.3092C22.1996 28.8556 22.7013 28.354 23.2475 27.8078ZM25.0262 32.5153C25.0392 32.4907 25.0915 32.4024 25.245 32.2215C25.4965 31.9252 25.8648 31.5545 26.4851 30.9342L28.1822 29.2371C28.8024 28.6168 29.1732 28.2486 29.4695 27.997C29.6503 27.8435 29.7386 27.7913 29.7633 27.7783C29.9079 27.7335 30.0627 27.7335 30.2073 27.7783C30.2319 27.7913 30.3202 27.8435 30.5011 27.997C30.7974 28.2486 31.1681 28.6168 31.7884 29.2371L33.4855 30.9342C34.1057 31.5545 34.474 31.9252 34.7256 32.2215C34.8791 32.4024 34.9313 32.4907 34.9443 32.5153C34.9891 32.6599 34.9891 32.8147 34.9443 32.9593C34.9313 32.984 34.8791 33.0723 34.7256 33.2531C34.474 33.5494 34.1057 33.9201 33.4855 34.5404L31.7884 36.2375C31.1681 36.8578 30.7974 37.226 30.5011 37.4776C30.3202 37.6311 30.2319 37.6833 30.2073 37.6963C30.0627 37.7411 29.9079 37.7411 29.7633 37.6963C29.7386 37.6834 29.6503 37.6311 29.4695 37.4776C29.1732 37.226 28.8024 36.8578 28.1822 36.2375L26.4851 34.5404C25.8648 33.9201 25.4965 33.5494 25.245 33.2531C25.0915 33.0722 25.0392 32.984 25.0262 32.9593C24.9814 32.8147 24.9814 32.6599 25.0262 32.5153Z"
  />
</svg>
