<svg
  width="60"
  height="60"
  viewBox="0 0 60 60"
  fill="currentColor"
  xmlns="http://www.w3.org/2000/svg"
>
  <path
    fill-rule="evenodd"
    clip-rule="evenodd"
    d="M33.8672 4.50436C31.4489 3.2212 28.5516 3.2212 26.1334 4.50436L6.57529 14.8821C3.95158 16.2743 4.94093 20.2497 7.91113 20.2497H52.0894C55.0596 20.2497 56.049 16.2743 53.4252 14.8821L33.8672 4.50436ZM28.2426 8.47943C29.3418 7.89618 30.6587 7.89618 31.758 8.47943L45.4595 15.7497H14.541L28.2426 8.47943Z"
  />
  <path
    d="M17.25 26C17.25 24.7574 16.2426 23.75 15 23.75C13.7574 23.75 12.75 24.7574 12.75 26L12.75 45C12.75 46.2426 13.7574 47.25 15 47.25C16.2426 47.25 17.25 46.2426 17.25 45L17.25 26Z"
  />
  <path
    d="M30 23.75C31.2426 23.75 32.25 24.7574 32.25 26L32.25 45C32.25 46.2426 31.2426 47.25 30 47.25C28.7574 47.25 27.75 46.2426 27.75 45L27.75 26C27.75 24.7574 28.7574 23.75 30 23.75Z"
  />
  <path
    d="M45 23.75C46.2426 23.75 47.25 24.7574 47.25 26L47.25 45C47.25 46.2426 46.2426 47.25 45 47.25C43.7574 47.25 42.75 46.2426 42.75 45L42.75 26C42.75 24.7574 43.7574 23.75 45 23.75Z"
  />
  <path
    d="M55.25 53C55.25 54.2426 54.2426 55.25 53 55.25H7C5.75736 55.25 4.75 54.2426 4.75 53C4.75 51.7574 5.75736 50.75 7 50.75H53C54.2426 50.75 55.25 51.7574 55.25 53Z"
  />
</svg>
