<svg
  width="60"
  height="60"
  viewBox="0 0 60 60"
  fill="currentColor"
  xmlns="http://www.w3.org/2000/svg"
>
  <path
    d="M35.25 10C35.25 8.75736 34.2426 7.75 33 7.75C31.7574 7.75 30.75 8.75736 30.75 10L30.75 32C30.75 33.2426 31.7574 34.25 33 34.25C34.2426 34.25 35.25 33.2426 35.25 32V10Z"
  />
  <path
    d="M19 14.75C20.2426 14.75 21.25 15.7574 21.25 17V29C21.25 30.2426 20.2426 31.25 19 31.25C17.7574 31.25 16.75 30.2426 16.75 29L16.75 17C16.75 15.7574 17.7574 14.75 19 14.75Z"
  />
  <path
    d="M7.25 24C7.25 22.7574 6.24264 21.75 5 21.75C3.75736 21.75 2.75 22.7574 2.75 24V36C2.75 37.2426 3.75736 38.25 5 38.25C6.24264 38.25 7.25 37.2426 7.25 36L7.25 24Z"
  />
  <path
    d="M54.8965 37.5778C56.1391 37.5778 57.1465 36.5704 57.1465 35.3278V25.4906C57.1465 23.6824 55.6807 22.2166 53.8725 22.2166L44.0353 22.2166C42.7927 22.2166 41.7853 23.224 41.7853 24.4666C41.7853 25.7093 42.7927 26.7166 44.0353 26.7166H49.6014L33.2374 43.0806C32.554 43.764 31.446 43.764 30.7626 43.0806L26.4194 38.7374C23.9786 36.2967 20.0214 36.2967 17.5806 38.7374L5.90901 50.409C5.03033 51.2877 5.03033 52.7123 5.90901 53.591C6.78769 54.4697 8.21231 54.4697 9.09099 53.591L20.7626 41.9194C21.446 41.236 22.554 41.236 23.2374 41.9194L27.5806 46.2626C30.0214 48.7033 33.9786 48.7033 36.4194 46.2626L52.6465 30.0355V35.3278C52.6465 36.5704 53.6538 37.5778 54.8965 37.5778Z"
  />
</svg>
