<svg
  width="60"
  height="60"
  viewBox="0 0 60 60"
  fill="currentColor"
  xmlns="http://www.w3.org/2000/svg"
>
  <path
    fill-rule="evenodd"
    clip-rule="evenodd"
    d="M8 25.75C9.24264 25.75 10.25 26.7574 10.25 28L10.25 40C10.25 41.2426 9.24264 42.25 8 42.25C6.75736 42.25 5.75 41.2426 5.75 40L5.75 28C5.75 26.7574 6.75736 25.75 8 25.75Z"
  />
  <path
    fill-rule="evenodd"
    clip-rule="evenodd"
    d="M19 30.75C20.2426 30.75 21.25 31.7574 21.25 33V40C21.25 41.2426 20.2426 42.25 19 42.25C17.7574 42.25 16.75 41.2426 16.75 40V33C16.75 31.7574 17.7574 30.75 19 30.75Z"
  />
  <path
    fill-rule="evenodd"
    clip-rule="evenodd"
    d="M30 17.75C31.2426 17.75 32.25 18.7574 32.25 20L32.25 40C32.25 41.2426 31.2426 42.25 30 42.25C28.7574 42.25 27.75 41.2426 27.75 40L27.75 20C27.75 18.7574 28.7574 17.75 30 17.75Z"
  />
  <path
    fill-rule="evenodd"
    clip-rule="evenodd"
    d="M56.25 48C56.25 49.2426 55.2426 50.25 54 50.25H6C4.75736 50.25 3.75 49.2426 3.75 48C3.75 46.7574 4.75736 45.75 6 45.75H54C55.2426 45.75 56.25 46.7574 56.25 48Z"
  />
  <path
    fill-rule="evenodd"
    clip-rule="evenodd"
    d="M41 22.75C42.2426 22.75 43.25 23.7574 43.25 25V40C43.25 41.2426 42.2426 42.25 41 42.25C39.7574 42.25 38.75 41.2426 38.75 40V25C38.75 23.7574 39.7574 22.75 41 22.75Z"
  />
  <path
    fill-rule="evenodd"
    clip-rule="evenodd"
    d="M52 9.75C53.2426 9.75 54.25 10.7574 54.25 12V40C54.25 41.2426 53.2426 42.25 52 42.25C50.7574 42.25 49.75 41.2426 49.75 40V12C49.75 10.7574 50.7574 9.75 52 9.75Z"
  />
</svg>
