<svg
  width="60"
  height="60"
  viewBox="0 0 60 60"
  fill="currentColor"
  xmlns="http://www.w3.org/2000/svg"
>
  <path
    fill-rule="evenodd"
    clip-rule="evenodd"
    d="M7 4.75C8.24264 4.75 9.25 5.75736 9.25 7V38.6C9.25 41.1574 9.25175 42.9401 9.36515 44.328C9.4764 45.6896 9.68379 46.4719 9.98571 47.0644C10.6329 48.3345 11.6655 49.3671 12.9356 50.0143C13.5281 50.3162 14.3104 50.5236 15.672 50.6349C17.0599 50.7482 18.8426 50.75 21.4 50.75H53C54.2426 50.75 55.25 51.7574 55.25 53C55.25 54.2426 54.2426 55.25 53 55.25H21.3036C18.8651 55.25 16.8983 55.25 15.3056 55.1199C13.6657 54.9859 12.2253 54.7028 10.8926 54.0238C8.77578 52.9452 7.05475 51.2242 5.97618 49.1074C5.29716 47.7747 5.01408 46.3343 4.88009 44.6944C4.74996 43.1017 4.74998 41.1348 4.75 38.6963L4.75 7C4.75 5.75736 5.75736 4.75 7 4.75Z"
  />
  <path
    fill-rule="evenodd"
    clip-rule="evenodd"
    d="M33 44.25C31.7574 44.25 30.75 43.2426 30.75 42V18C30.75 16.7574 31.7574 15.75 33 15.75C34.2426 15.75 35.25 16.7574 35.25 18V42C35.25 43.2426 34.2426 44.25 33 44.25Z"
  />
  <path
    fill-rule="evenodd"
    clip-rule="evenodd"
    d="M47 44.25C45.7574 44.25 44.75 43.2426 44.75 42V11C44.75 9.75736 45.7574 8.75 47 8.75C48.2426 8.75 49.25 9.75736 49.25 11V42C49.25 43.2426 48.2426 44.25 47 44.25Z"
  />
  <path
    fill-rule="evenodd"
    clip-rule="evenodd"
    d="M19 44.25C17.7574 44.25 16.75 43.2426 16.75 42L16.75 24C16.75 22.7574 17.7574 21.75 19 21.75C20.2426 21.75 21.25 22.7574 21.25 24V42C21.25 43.2426 20.2426 44.25 19 44.25Z"
  />
</svg>
