<svg
  width="60"
  height="60"
  viewBox="0 0 60 60"
  fill="currentColor"
  xmlns="http://www.w3.org/2000/svg"
>
  <path
    d="M3 28C3 26.8954 3.89543 26 5 26H10C11.1046 26 12 26.8954 12 28V48C12 49.1046 11.1046 50 10 50H5C3.89543 50 3 49.1046 3 48V28Z"
  />
  <path
    d="M18 35C18 33.8954 18.8954 33 20 33H25C26.1046 33 27 33.8954 27 35V48C27 49.1046 26.1046 50 25 50H20C18.8954 50 18 49.1046 18 48V35Z"
  />
  <path
    d="M48 14C48 12.8954 48.8954 12 50 12H55C56.1046 12 57 12.8954 57 14V48C57 49.1046 56.1046 50 55 50H50C48.8954 50 48 49.1046 48 48V14Z"
  />
  <path
    d="M33 22C33 20.8954 33.8954 20 35 20H40C41.1046 20 42 20.8954 42 22V48C42 49.1046 41.1046 50 40 50H35C33.8954 50 33 49.1046 33 48V22Z"
  />
</svg>
