<svg
  width="60"
  height="60"
  viewBox="0 0 60 60"
  fill="currentColor"
  xmlns="http://www.w3.org/2000/svg"
>
  <path
    d="M3 28C3 26.8954 3.89543 26 5 26H10C11.1046 26 12 26.8954 12 28V48C12 49.1046 11.1046 50 10 50H5C3.89543 50 3 49.1046 3 48V28Z"
  />
  <path
    d="M18 12C18 10.8954 18.8954 10 20 10H25C26.1046 10 27 10.8954 27 12V48C27 49.1046 26.1046 50 25 50H20C18.8954 50 18 49.1046 18 48V12Z"
  />
  <path
    d="M48 42C48 40.8954 48.8954 40 50 40H55C56.1046 40 57 40.8954 57 42V48C57 49.1046 56.1046 50 55 50H50C48.8954 50 48 49.1046 48 48V42Z"
  />
  <path
    d="M33 33C33 31.8954 33.8954 31 35 31H40C41.1046 31 42 31.8954 42 33V48C42 49.1046 41.1046 50 40 50H35C33.8954 50 33 49.1046 33 48V33Z"
  />
</svg>
