<svg
  width="60"
  height="60"
  viewBox="0 0 60 60"
  fill="currentColor"
  xmlns="http://www.w3.org/2000/svg"
>
  <path
    d="M16 9.25C12.2721 9.25 9.25 12.2721 9.25 16V20C9.25 21.2426 8.24264 22.25 7 22.25C5.75736 22.25 4.75 21.2426 4.75 20V16C4.75 9.7868 9.7868 4.75 16 4.75H20C21.2426 4.75 22.25 5.75736 22.25 7C22.25 8.24264 21.2426 9.25 20 9.25H16Z"
  />
  <path
    d="M37.75 7C37.75 5.75736 38.7574 4.75 40 4.75H44C50.2132 4.75 55.25 9.7868 55.25 16V20C55.25 21.2426 54.2426 22.25 53 22.25C51.7574 22.25 50.75 21.2426 50.75 20V16C50.75 12.2721 47.7279 9.25 44 9.25H40C38.7574 9.25 37.75 8.24264 37.75 7Z"
  />
  <path
    d="M7 37.75C8.24264 37.75 9.25 38.7574 9.25 40V44C9.25 47.7279 12.2721 50.75 16 50.75H20C21.2426 50.75 22.25 51.7574 22.25 53C22.25 54.2426 21.2426 55.25 20 55.25H16C9.7868 55.25 4.75 50.2132 4.75 44V40C4.75 38.7574 5.75736 37.75 7 37.75Z"
  />
  <path
    d="M53 37.75C54.2426 37.75 55.25 38.7574 55.25 40V44C55.25 50.2132 50.2132 55.25 44 55.25H40C38.7574 55.25 37.75 54.2426 37.75 53C37.75 51.7574 38.7574 50.75 40 50.75H44C47.7279 50.75 50.75 47.7279 50.75 44V40C50.75 38.7574 51.7574 37.75 53 37.75Z"
  />
  <path
    d="M15 16.6C15 16.0399 15 15.7599 15.109 15.546C15.2049 15.3578 15.3578 15.2049 15.546 15.109C15.7599 15 16.0399 15 16.6 15H17.4C17.9601 15 18.2401 15 18.454 15.109C18.6422 15.2049 18.7951 15.3578 18.891 15.546C19 15.7599 19 16.0399 19 16.6V43.4C19 43.9601 19 44.2401 18.891 44.454C18.7951 44.6422 18.6422 44.7951 18.454 44.891C18.2401 45 17.9601 45 17.4 45H16.6C16.0399 45 15.7599 45 15.546 44.891C15.3578 44.7951 15.2049 44.6422 15.109 44.454C15 44.2401 15 43.9601 15 43.4V16.6Z"
  />
  <path
    d="M25.109 15.546C25 15.7599 25 16.0399 25 16.6V43.4C25 43.9601 25 44.2401 25.109 44.454C25.2049 44.6422 25.3578 44.7951 25.546 44.891C25.7599 45 26.0399 45 26.6 45H27.4C27.9601 45 28.2401 45 28.454 44.891C28.6422 44.7951 28.7951 44.6422 28.891 44.454C29 44.2401 29 43.9601 29 43.4V16.6C29 16.0399 29 15.7599 28.891 15.546C28.7951 15.3578 28.6422 15.2049 28.454 15.109C28.2401 15 27.9601 15 27.4 15H26.6C26.0399 15 25.7599 15 25.546 15.109C25.3578 15.2049 25.2049 15.3578 25.109 15.546Z"
  />
  <path
    d="M21 16C21 15.4477 21.4477 15 22 15C22.5523 15 23 15.4477 23 16V44C23 44.5523 22.5523 45 22 45C21.4477 45 21 44.5523 21 44V16Z"
  />
  <path
    d="M44 15C43.4477 15 43 15.4477 43 16V44C43 44.5523 43.4477 45 44 45C44.5523 45 45 44.5523 45 44V16C45 15.4477 44.5523 15 44 15Z"
  />
  <path
    d="M39 16C39 15.4477 39.4477 15 40 15C40.5523 15 41 15.4477 41 16V44C41 44.5523 40.5523 45 40 45C39.4477 45 39 44.5523 39 44V16Z"
  />
  <path
    d="M31.109 15.546C31 15.7599 31 16.0399 31 16.6V43.4C31 43.9601 31 44.2401 31.109 44.454C31.2049 44.6422 31.3578 44.7951 31.546 44.891C31.7599 45 32.0399 45 32.6 45H35.4C35.9601 45 36.2401 45 36.454 44.891C36.6422 44.7951 36.7951 44.6422 36.891 44.454C37 44.2401 37 43.9601 37 43.4V16.6C37 16.0399 37 15.7599 36.891 15.546C36.7951 15.3578 36.6422 15.2049 36.454 15.109C36.2401 15 35.9601 15 35.4 15H32.6C32.0399 15 31.7599 15 31.546 15.109C31.3578 15.2049 31.2049 15.3578 31.109 15.546Z"
  />
</svg>
