<svg
  width="60"
  height="60"
  viewBox="0 0 60 60"
  fill="currentColor"
  xmlns="http://www.w3.org/2000/svg"
>
  <path
    fill-rule="evenodd"
    clip-rule="evenodd"
    d="M30 57C44.9117 57 57 44.9117 57 30C57 15.0883 44.9117 3 30 3C15.0883 3 3 15.0883 3 30C3 44.9117 15.0883 57 30 57ZM47.5747 44.0506C50.6568 40.2004 52.5 35.3155 52.5 30C52.5 24.6826 50.6555 19.7961 47.5713 15.9453C42.3502 21.8695 40.2226 26.1388 40.2503 30.0707C40.278 34.0081 42.4681 38.2286 47.5747 44.0506ZM44.4173 47.2747C40.5129 50.5368 35.4857 52.5 30 52.5C24.5679 52.5 19.5854 50.575 15.6975 47.37C21.1661 41.2078 24.4086 35.8271 24.4488 30.1023C24.4892 24.359 21.3056 18.9132 15.7006 12.6274C19.5881 9.42395 24.5694 7.5 30 7.5C35.4841 7.5 40.51 9.46205 44.414 12.7225C38.8616 18.9682 35.7102 24.388 35.7504 30.1023C35.7905 35.7975 38.9998 41.1522 44.4173 47.2747ZM7.5 30C7.5 24.6282 9.38249 19.6961 12.5237 15.8274C17.8207 21.8129 19.9768 26.1128 19.9489 30.0707C19.9211 34.0347 17.7015 38.2856 12.5206 44.1688C9.38124 40.3007 7.5 35.37 7.5 30Z"
  />
</svg>
