<svg xmlns="http://www.w3.org/2000/svg" width="1em" height="1em" viewBox="0 0 16 16" fill="currentColor">
  <path
    d="M4.88763 11.5619C5.12192 11.3276 5.50175 11.3277 5.73607 11.5619C5.97039 11.7962 5.97039 12.176 5.73607 12.4103L3.98763 14.159C3.54504 14.6016 2.82736 14.6016 2.38477 14.159L1.44258 13.2168C1.20827 12.9825 1.20827 12.6025 1.44258 12.3681C1.67688 12.1339 2.05673 12.1339 2.29102 12.3681L3.18607 13.2635L4.88763 11.5619Z" />
  <path
    d="M14.1335 12.4668C14.4648 12.4669 14.7335 12.7355 14.7335 13.0668C14.7334 13.3982 14.4648 13.6668 14.1335 13.6668H8.2668C7.93545 13.6668 7.66684 13.3982 7.6668 13.0668C7.6668 12.7355 7.93543 12.4668 8.2668 12.4668H14.1335Z" />
  <path
    d="M4.88763 6.49522C5.12192 6.26094 5.50175 6.261 5.73607 6.49522C5.97039 6.72954 5.97039 7.10934 5.73607 7.34366L3.98763 9.09236C3.54504 9.53495 2.82736 9.53495 2.38477 9.09236L1.44258 8.15017C1.20827 7.91585 1.20827 7.53579 1.44258 7.30147C1.67688 7.06727 2.05673 7.06725 2.29102 7.30147L3.18607 8.19678L4.88763 6.49522Z" />
  <path
    d="M14.1335 7.40017C14.4648 7.40021 14.7335 7.66882 14.7335 8.00017C14.7334 8.33149 14.4648 8.60013 14.1335 8.60017H8.2668C7.93545 8.60017 7.66684 8.33151 7.6668 8.00017C7.6668 7.6688 7.93543 7.40017 8.2668 7.40017H14.1335Z" />
  <path
    d="M4.88763 1.69522C5.12192 1.46094 5.50175 1.461 5.73607 1.69522C5.97039 1.92954 5.97039 2.30934 5.73607 2.54366L3.98763 4.29236C3.54504 4.73495 2.82736 4.73495 2.38477 4.29236L1.44258 3.35017C1.20827 3.11586 1.20827 2.73579 1.44258 2.50147C1.67688 2.26727 2.05673 2.26725 2.29102 2.50147L3.18607 3.39678L4.88763 1.69522Z" />
  <path
    d="M14.1335 2.60017C14.4648 2.60021 14.7335 2.86882 14.7335 3.20017C14.7334 3.53149 14.4648 3.80013 14.1335 3.80017H8.2668C7.93545 3.80017 7.66684 3.53151 7.6668 3.20017C7.6668 2.8688 7.93543 2.60017 8.2668 2.60017H14.1335Z" />
</svg>