<svg
  width="60"
  height="60"
  viewBox="0 0 60 60"
  fill="currentColor"
  xmlns="http://www.w3.org/2000/svg"
>
  <g clip-path="url(#clip0_14583_128)">
    <path
      d="M28.7527 21.4087C28.7441 21.474 28.7441 21.5482 28.7441 21.6211C28.7441 21.9043 28.803 22.1766 28.9094 22.4271L29.0044 22.615L29.3803 23.5382L31.3325 28.3193L33.0352 32.4946C33.521 33.3374 34.2989 33.9991 35.2371 34.3518L35.5286 34.4546C35.54 34.458 35.5591 34.458 35.5747 34.4621L40.2416 36.0027V36.0061L42.0259 36.5943L42.1478 36.6338C42.1521 36.6338 42.1592 36.6379 42.1634 36.6379C42.5152 36.723 42.8598 36.8373 43.1889 36.9769C43.9498 37.2921 44.6398 37.7414 45.2291 38.2894C45.4667 38.5073 45.6851 38.7422 45.8872 38.9927C46.0593 39.203 46.2166 39.4241 46.3581 39.6544C46.9807 40.647 47.3381 41.8139 47.3381 43.0563C47.3381 43.2783 47.3268 43.4927 47.3034 43.7106C47.2956 43.8065 47.2835 43.8991 47.2686 43.991V43.9985C47.253 44.0959 47.2339 44.1966 47.2147 44.2953C47.1949 44.3913 47.1764 44.4866 47.1537 44.582C47.1502 44.5928 47.1459 44.6044 47.1417 44.6153C47.1204 44.712 47.0935 44.8073 47.0658 44.9033C47.041 44.9938 47.0098 45.0871 46.975 45.1749C46.9444 45.271 46.9087 45.3656 46.868 45.4581C46.8332 45.5534 46.7921 45.6501 46.746 45.7413C46.6198 46.0211 46.4694 46.2901 46.3006 46.5467C46.0831 46.8839 45.8346 47.2017 45.5582 47.4964C47.748 45.2362 49.2039 42.3177 49.5663 39.088C49.6273 38.5584 49.6585 38.0212 49.6585 37.4807C49.6585 37.1355 49.6429 36.7938 49.6195 36.4506C49.3436 32.5776 47.5069 29.1138 44.7036 26.6419C43.9306 25.955 43.086 25.3436 42.1776 24.8248L40.4615 23.9827L31.7651 19.6985C31.4978 19.5885 31.21 19.532 30.9191 19.5324C29.793 19.5324 28.8633 20.3568 28.7527 21.4087Z"
      fill="#7F7F7F"
    />
    <path
      d="M28.7527 21.4087C28.7441 21.474 28.7441 21.5482 28.7441 21.6211C28.7441 21.9043 28.803 22.1766 28.9094 22.4271L29.0044 22.615L29.3803 23.5382L31.3325 28.3193L33.0352 32.4946C33.521 33.3374 34.2989 33.9991 35.2371 34.3518L35.5286 34.4546C35.54 34.458 35.5591 34.458 35.5747 34.4621L40.2416 36.0027V36.0061L42.0259 36.5943L42.1478 36.6338C42.1521 36.6338 42.1592 36.6379 42.1634 36.6379C42.5152 36.723 42.8598 36.8373 43.1889 36.9769C43.9498 37.2921 44.6398 37.7414 45.2291 38.2894C45.4667 38.5073 45.6851 38.7422 45.8872 38.9927C46.0593 39.203 46.2166 39.4241 46.3581 39.6544C46.9807 40.647 47.3381 41.8139 47.3381 43.0563C47.3381 43.2783 47.3268 43.4927 47.3034 43.7106C47.2956 43.8065 47.2835 43.8991 47.2686 43.991V43.9985C47.253 44.0959 47.2339 44.1966 47.2147 44.2953C47.1949 44.3913 47.1764 44.4866 47.1537 44.582C47.1502 44.5928 47.1459 44.6044 47.1417 44.6153C47.1204 44.712 47.0935 44.8073 47.0658 44.9033C47.041 44.9938 47.0098 45.0871 46.975 45.1749C46.9444 45.271 46.9087 45.3656 46.868 45.4581C46.8332 45.5534 46.7921 45.6501 46.746 45.7413C46.6198 46.0211 46.4694 46.2901 46.3006 46.5467C46.0831 46.8839 45.8346 47.2017 45.5582 47.4964C47.748 45.2362 49.2039 42.3177 49.5663 39.088C49.6273 38.5584 49.6585 38.0212 49.6585 37.4807C49.6585 37.1355 49.6429 36.7938 49.6195 36.4506C49.3436 32.5776 47.5069 29.1138 44.7036 26.6419C43.9306 25.955 43.086 25.3436 42.1776 24.8248L40.4615 23.9827L31.7651 19.6985C31.4978 19.5885 31.21 19.532 30.9191 19.5324C29.793 19.5324 28.8633 20.3568 28.7527 21.4087Z"
      fill="url(#paint0_linear_14583_128)"
    />
    <path
      d="M13.2683 2.52502C12.0309 2.54613 11.0374 3.51829 11.0374 4.70695V42.767C11.0423 43.0325 11.0579 43.2946 11.0778 43.5608C11.0955 43.701 11.1147 43.8467 11.1416 43.9883C11.7068 47.043 14.4753 49.3611 17.8183 49.3611C18.9905 49.3611 20.0897 49.0745 21.0513 48.5762C21.057 48.5721 21.0669 48.5666 21.0719 48.5666L21.4179 48.3658L22.8206 47.5734L24.6049 46.5569L24.6091 12.7402C24.6091 10.493 23.4376 8.51186 21.6442 7.33478C21.6016 7.31027 21.5605 7.2844 21.5229 7.25513L14.5803 2.89673C14.2285 2.67344 13.8045 2.53319 13.3499 2.52502H13.2683Z"
      fill="#7F7F7F"
    />
    <path
      d="M13.2683 2.52502C12.0309 2.54613 11.0374 3.51829 11.0374 4.70695V42.767C11.0423 43.0325 11.0579 43.2946 11.0778 43.5608C11.0955 43.701 11.1147 43.8467 11.1416 43.9883C11.7068 47.043 14.4753 49.3611 17.8183 49.3611C18.9905 49.3611 20.0897 49.0745 21.0513 48.5762C21.057 48.5721 21.0669 48.5666 21.0719 48.5666L21.4179 48.3658L22.8206 47.5734L24.6049 46.5569L24.6091 12.7402C24.6091 10.493 23.4376 8.51186 21.6442 7.33478C21.6016 7.31027 21.5605 7.2844 21.5229 7.25513L14.5803 2.89673C14.2285 2.67344 13.8045 2.53319 13.3499 2.52502H13.2683Z"
      fill="url(#paint1_linear_14583_128)"
    />
    <path
      d="M40.797 37.2955L24.8347 46.3785L24.6049 46.5113V46.5596L22.8207 47.574L21.4187 48.3685L21.0748 48.568L21.0513 48.5789C20.0919 49.0792 18.992 49.3624 17.8204 49.3624C14.4782 49.3624 11.7061 47.0457 11.1431 43.9897C11.4104 46.2254 12.204 48.3065 13.401 50.1195C15.866 53.8549 20.0344 56.4535 24.8567 56.9049H27.8053C30.4136 56.6434 32.5914 55.6406 34.8805 54.2866L38.4008 52.2197C39.9864 51.2441 44.2903 48.8444 45.5583 47.4978C45.8341 47.203 46.083 46.8871 46.3007 46.5487C46.4695 46.2914 46.6199 46.0225 46.7461 45.7427C46.7886 45.6474 46.8291 45.5548 46.8681 45.4602C46.9049 45.3662 46.9397 45.2716 46.9751 45.1756C47.0411 44.9918 47.0936 44.8073 47.1439 44.6174C47.1694 44.5091 47.1928 44.4022 47.2162 44.296C47.2928 43.895 47.3347 43.4832 47.3347 43.0563C47.3347 41.8139 46.9773 40.647 46.3582 39.6558C46.2163 39.4243 46.0603 39.2031 45.8873 38.9941C45.6852 38.7422 45.4668 38.5087 45.2292 38.2908C44.6399 37.7428 43.952 37.2934 43.189 36.9776C42.8599 36.838 42.5167 36.723 42.1635 36.6392C42.1593 36.6392 42.1522 36.6351 42.1479 36.6351L42.026 36.5956L40.797 37.2955Z"
      fill="#7F7F7F"
    />
    <path
      d="M40.797 37.2955L24.8347 46.3785L24.6049 46.5113V46.5596L22.8207 47.574L21.4187 48.3685L21.0748 48.568L21.0513 48.5789C20.0919 49.0792 18.992 49.3624 17.8204 49.3624C14.4782 49.3624 11.7061 47.0457 11.1431 43.9897C11.4104 46.2254 12.204 48.3065 13.401 50.1195C15.866 53.8549 20.0344 56.4535 24.8567 56.9049H27.8053C30.4136 56.6434 32.5914 55.6406 34.8805 54.2866L38.4008 52.2197C39.9864 51.2441 44.2903 48.8444 45.5583 47.4978C45.8341 47.203 46.083 46.8871 46.3007 46.5487C46.4695 46.2914 46.6199 46.0225 46.7461 45.7427C46.7886 45.6474 46.8291 45.5548 46.8681 45.4602C46.9049 45.3662 46.9397 45.2716 46.9751 45.1756C47.0411 44.9918 47.0936 44.8073 47.1439 44.6174C47.1694 44.5091 47.1928 44.4022 47.2162 44.296C47.2928 43.895 47.3347 43.4832 47.3347 43.0563C47.3347 41.8139 46.9773 40.647 46.3582 39.6558C46.2163 39.4243 46.0603 39.2031 45.8873 38.9941C45.6852 38.7422 45.4668 38.5087 45.2292 38.2908C44.6399 37.7428 43.952 37.2934 43.189 36.9776C42.8599 36.838 42.5167 36.723 42.1635 36.6392C42.1593 36.6392 42.1522 36.6351 42.1479 36.6351L42.026 36.5956L40.797 37.2955Z"
      fill="url(#paint2_linear_14583_128)"
    />
    <path
      opacity="0.15"
      d="M47.3347 43.0563C47.3347 43.4832 47.2928 43.8957 47.2155 44.2967C47.1928 44.4029 47.1694 44.5091 47.1432 44.6167C47.0936 44.8073 47.0411 44.9918 46.9751 45.1763C46.9404 45.2716 46.9049 45.3669 46.8681 45.4595C46.8298 45.5548 46.7886 45.6474 46.7454 45.7427C46.6189 46.0216 46.4705 46.2908 46.3014 46.5481C46.084 46.8853 45.8353 47.2029 45.5583 47.4971C44.2903 48.8444 39.9864 51.2441 38.4008 52.2197L34.8805 54.2866C32.2999 55.8129 29.8619 56.8933 26.787 56.9675C26.6416 56.9716 26.4991 56.975 26.3579 56.975C26.1594 56.975 25.9636 56.9716 25.7672 56.9641C20.5606 56.7735 16.0199 54.0878 13.401 50.1195C12.1756 48.2662 11.4036 46.1705 11.1431 43.9897C11.7061 47.0457 14.4782 49.3624 17.8204 49.3624C18.992 49.3624 20.0919 49.0785 21.0513 48.5789L21.0748 48.5673L21.4187 48.3685L22.8207 47.574L24.6049 46.5596V46.5113L24.8347 46.3785L40.797 37.2948L42.026 36.5956L42.1479 36.6351C42.1515 36.6351 42.1593 36.6392 42.1635 36.6392C42.5167 36.723 42.8606 36.838 43.189 36.9776C43.952 37.2934 44.6392 37.7428 45.2292 38.2908C45.4667 38.509 45.6867 38.7441 45.8873 38.9941C46.0603 39.2031 46.2163 39.4243 46.3582 39.6558C46.9773 40.647 47.3347 41.8139 47.3347 43.0563Z"
      fill="#7F7F7F"
    />
    <path
      opacity="0.15"
      d="M47.3347 43.0563C47.3347 43.4832 47.2928 43.8957 47.2155 44.2967C47.1928 44.4029 47.1694 44.5091 47.1432 44.6167C47.0936 44.8073 47.0411 44.9918 46.9751 45.1763C46.9404 45.2716 46.9049 45.3669 46.8681 45.4595C46.8298 45.5548 46.7886 45.6474 46.7454 45.7427C46.6189 46.0216 46.4705 46.2908 46.3014 46.5481C46.084 46.8853 45.8353 47.2029 45.5583 47.4971C44.2903 48.8444 39.9864 51.2441 38.4008 52.2197L34.8805 54.2866C32.2999 55.8129 29.8619 56.8933 26.787 56.9675C26.6416 56.9716 26.4991 56.975 26.3579 56.975C26.1594 56.975 25.9636 56.9716 25.7672 56.9641C20.5606 56.7735 16.0199 54.0878 13.401 50.1195C12.1756 48.2662 11.4036 46.1705 11.1431 43.9897C11.7061 47.0457 14.4782 49.3624 17.8204 49.3624C18.992 49.3624 20.0919 49.0785 21.0513 48.5789L21.0748 48.5673L21.4187 48.3685L22.8207 47.574L24.6049 46.5596V46.5113L24.8347 46.3785L40.797 37.2948L42.026 36.5956L42.1479 36.6351C42.1515 36.6351 42.1593 36.6392 42.1635 36.6392C42.5167 36.723 42.8606 36.838 43.189 36.9776C43.952 37.2934 44.6392 37.7428 45.2292 38.2908C45.4667 38.509 45.6867 38.7441 45.8873 38.9941C46.0603 39.2031 46.2163 39.4243 46.3582 39.6558C46.9773 40.647 47.3347 41.8139 47.3347 43.0563Z"
      fill="url(#paint3_linear_14583_128)"
    />
  </g>
  <defs>
    <linearGradient
      id="paint0_linear_14583_128"
      x1="31.3349"
      y1="21.864"
      x2="48.6501"
      y2="41.9655"
      gradientUnits="userSpaceOnUse"
    >
      <stop stop-color="#37BDFF" />
      <stop offset="0.25" stop-color="#26C6F4" />
      <stop offset="0.5" stop-color="#15D0E9" />
      <stop offset="0.75" stop-color="#3BD6DF" />
      <stop offset="1" stop-color="#62DCD4" />
    </linearGradient>
    <linearGradient
      id="paint1_linear_14583_128"
      x1="18.7543"
      y1="48.538"
      x2="18.2169"
      y2="5.49057"
      gradientUnits="userSpaceOnUse"
    >
      <stop stop-color="#1B48EF" />
      <stop offset="0.5" stop-color="#2080F1" />
      <stop offset="1" stop-color="#26B8F4" />
    </linearGradient>
    <linearGradient
      id="paint2_linear_14583_128"
      x1="29.2387"
      y1="46.7502"
      x2="73.1217"
      y2="46.7502"
      gradientUnits="userSpaceOnUse"
    >
      <stop stop-color="#39D2FF" />
      <stop offset="0.5" stop-color="#248FFA" />
      <stop offset="1" stop-color="#104CF5" />
    </linearGradient>
    <linearGradient
      id="paint3_linear_14583_128"
      x1="29.2387"
      y1="46.7502"
      x2="73.1217"
      y2="46.7502"
      gradientUnits="userSpaceOnUse"
    >
      <stop stop-color="white" />
      <stop offset="1" />
    </linearGradient>
    <clipPath id="clip0_14583_128">
      <rect
        width="40.8375"
        height="54.45"
        fill="white"
        transform="translate(10.1438 2.52502)"
      />
    </clipPath>
  </defs>
</svg>
