<svg
  width="60"
  height="60"
  viewBox="0 0 60 60"
  fill="currentColor"
  xmlns="http://www.w3.org/2000/svg"
>
  <path
    fill-rule="evenodd"
    clip-rule="evenodd"
    d="M9.33261 6.75C7.90627 6.75 6.75 7.90628 6.75 9.33261V20C6.75 20.0161 6.75017 20.0321 6.7505 20.0481C6.75017 20.0644 6.75 20.0807 6.75 20.0971V30.5696C6.75 32.0499 7.95007 33.25 9.43043 33.25H25.5C29.7802 33.25 33.25 29.7802 33.25 25.5C33.25 21.8831 30.7723 18.8448 27.4215 17.9901C27.9515 16.9412 28.25 15.7555 28.25 14.5C28.25 10.2198 24.7802 6.75 20.5 6.75H9.33261ZM20.5 17.75C22.2949 17.75 23.75 16.2949 23.75 14.5C23.75 12.7051 22.2949 11.25 20.5 11.25H11.25V17.75H20.5ZM11.25 22.25V28.75H25.5C27.2949 28.75 28.75 27.2949 28.75 25.5C28.75 23.7051 27.2949 22.25 25.5 22.25H11.25Z"
  />
  <path
    d="M6.75 39C6.75 37.7574 7.75736 36.75 9 36.75H51C52.2426 36.75 53.25 37.7574 53.25 39C53.25 40.2426 52.2426 41.25 51 41.25H9C7.75736 41.25 6.75 40.2426 6.75 39Z"
  />
  <path
    d="M25 48.75C23.7574 48.75 22.75 49.7574 22.75 51C22.75 52.2426 23.7574 53.25 25 53.25H50C51.2426 53.25 52.25 52.2426 52.25 51C52.25 49.7574 51.2426 48.75 50 48.75H25Z"
  />
</svg>
