<svg
  width="60"
  height="60"
  viewBox="0 0 60 60"
  fill="currentColor"
  xmlns="http://www.w3.org/2000/svg"
>
  <path
    fill-rule="evenodd"
    clip-rule="evenodd"
    d="M25 2.75C21.5482 2.75 18.75 5.54822 18.75 9V11.975C13.615 13.0174 9.75 17.5573 9.75 23V30.5627L6.68444 31.9292C4.73798 32.7968 3.73502 34.9718 4.339 37.0155L7.30113 47.0385C9.09078 53.0941 14.6523 57.2498 20.9668 57.2498H39.0335C45.3481 57.2498 50.9096 53.0941 52.6992 47.0385L55.6613 37.0155C56.2653 34.9718 55.2624 32.7968 53.3159 31.9292L50.25 30.5626V23C50.25 17.5573 46.385 13.0174 41.25 11.975V9C41.25 5.54822 38.4518 2.75 35 2.75H25ZM28.2699 22.3076L14.25 28.5569V23C14.25 19.2721 17.2721 16.25 21 16.25H39C42.7279 16.25 45.75 19.2721 45.75 23V28.5567L31.7305 22.3076C30.6292 21.8167 29.3712 21.8167 28.2699 22.3076ZM36.75 11.75V9C36.75 8.0335 35.9665 7.25 35 7.25H25C24.0335 7.25 23.25 8.0335 23.25 9V11.75H36.75ZM27.75 27.4662L8.71656 35.9502L11.6166 45.7631C12.8411 49.9064 16.6464 52.7498 20.9668 52.7498H27.75L27.75 27.4662ZM32.25 27.466L32.25 52.7498H39.0335C43.354 52.7498 47.1592 49.9064 48.3837 45.7631L51.2838 35.9502L32.25 27.466Z"
  />
</svg>
