<svg
  width="60"
  height="60"
  viewBox="0 0 60 60"
  fill="currentColor"
  xmlns="http://www.w3.org/2000/svg"
>
  <path
    fill-rule="evenodd"
    clip-rule="evenodd"
    d="M25 2.75C21.5482 2.75 18.75 5.54822 18.75 9V11.975C13.615 13.0174 9.75 17.5573 9.75 23V30.5629L6.6842 31.9294C4.73774 32.797 3.73477 34.9721 4.33876 37.0158L7.30088 47.0387C9.09053 53.0943 14.652 57.25 20.9666 57.25H39.0333C45.3478 57.25 50.9093 53.0943 52.699 47.0387L55.6611 37.0158C56.2651 34.9721 55.2621 32.797 53.3157 31.9294L50.25 30.5629V23C50.25 17.5573 46.385 13.0174 41.25 11.975V9C41.25 5.54822 38.4518 2.75 35 2.75H25ZM28.2696 22.3079L14.25 28.557V23C14.25 19.2721 17.2721 16.25 21 16.25H39C42.7279 16.25 45.75 19.2721 45.75 23V28.5571L31.7302 22.3079C30.6289 21.817 29.3709 21.817 28.2696 22.3079ZM36.75 11.75V9C36.75 8.0335 35.9665 7.25 35 7.25H25C24.0335 7.25 23.25 8.0335 23.25 9V11.75H36.75ZM27.75 27.4663L8.71632 35.9504L11.6164 45.7633C12.8409 49.9066 16.6461 52.75 20.9666 52.75H27.75L27.75 27.4663ZM32.25 27.4664L32.25 52.75H39.0333C43.3537 52.75 47.159 49.9066 48.3835 45.7633L51.2835 35.9504L32.25 27.4664Z"
  />
</svg>
