<svg
  width="60"
  height="60"
  viewBox="0 0 60 60"
  fill="currentColor"
  xmlns="http://www.w3.org/2000/svg"
>
  <path
    fill-rule="evenodd"
    clip-rule="evenodd"
    d="M54 40.25H53.25L53.2501 40.3864C53.2508 42.9243 53.2513 44.6176 52.9517 45.8924C51.5211 51.9808 45.3995 55.7336 39.3247 54.2463C38.0527 53.9349 36.5441 53.1663 34.2828 52.0143L19.7669 44.6243C15.9264 42.6692 12.9078 41.1324 10.6933 39.7469C8.48501 38.3653 6.71855 36.9256 5.76686 35.0142C4.19458 31.8563 4.19458 28.1437 5.76686 24.9858C6.71855 23.0744 8.48501 21.6347 10.6934 20.2531C12.9078 18.8676 15.9265 17.3308 19.7669 15.3757L34.2826 7.98582C36.544 6.83375 38.0527 6.06513 39.3247 5.75371C45.3995 4.26644 51.5211 8.01925 52.9517 14.1076C53.2513 15.3824 53.2508 17.0756 53.2501 19.6135L53.25 19.75H54C55.2427 19.75 56.25 20.7574 56.25 22C56.25 23.2426 55.2427 24.25 54 24.25H48C46.7574 24.25 45.75 23.2426 45.75 22C45.75 20.7574 46.7574 19.75 48 19.75H48.75C48.749 16.8769 48.7293 15.8103 48.571 15.137C47.7127 11.4839 44.0397 9.23226 40.3948 10.1246C39.7038 10.2938 38.7086 10.7822 35.9799 12.1714L30.9295 14.7425C35.5575 19.5697 38.125 24.6601 38.125 30C38.125 35.3399 35.5575 40.4303 30.9295 45.2575L35.9798 47.8286C38.7086 49.2178 39.7038 49.7062 40.3948 49.8754C44.0397 50.7677 47.7127 48.5161 48.571 44.8631C48.7293 44.1897 48.749 43.1231 48.75 40.25H48C46.7574 40.25 45.75 39.2426 45.75 38C45.75 36.7574 46.7574 35.75 48 35.75H54C55.2427 35.75 56.25 36.7574 56.25 38C56.25 39.2426 55.2427 40.25 54 40.25ZM26.7167 43.1128C31.5325 38.4419 33.625 34.0767 33.625 30C33.625 25.9234 31.5325 21.5581 26.7167 16.8872L21.9129 19.3328C17.9455 21.3525 15.1057 22.8006 13.0801 24.0679C11.0285 25.3515 10.1682 26.2423 9.79518 26.9915C8.85181 28.8862 8.85181 31.1138 9.79518 33.0085C10.1682 33.7577 11.0285 34.6485 13.0801 35.9321C15.1057 37.1994 17.9455 38.6475 21.9129 40.6672L26.7167 43.1128Z"
  />
</svg>
