<svg
  width="60"
  height="60"
  viewBox="0 0 60 60"
  fill="currentColor"
  xmlns="http://www.w3.org/2000/svg"
>
  <path
    fill-rule="evenodd"
    clip-rule="evenodd"
    d="M24.3037 3.75L30 3.75C31.2426 3.75 32.25 4.75736 32.25 6C32.25 7.24264 31.2426 8.25 30 8.25H24.4C21.8426 8.25 20.0599 8.25175 18.672 8.36515C17.3104 8.4764 16.5281 8.68379 15.9356 8.98571C14.6655 9.63285 13.6329 10.6655 12.9857 11.9356C12.6838 12.5281 12.4764 13.3104 12.3651 14.672C12.2518 16.0599 12.25 17.8426 12.25 20.4V44.6446C12.25 46.4029 12.2522 47.5666 12.3309 48.4261C12.4099 49.2887 12.5443 49.5 12.566 49.5309C12.8418 49.9253 13.268 50.1887 13.7442 50.2591C13.7815 50.2646 14.0306 50.2904 14.8375 49.9752C15.6414 49.6612 16.6832 49.1428 18.2559 48.3565L26.1316 44.4186C26.1949 44.387 26.2578 44.3554 26.3203 44.324C27.1802 43.8927 27.978 43.4924 28.8475 43.3293C29.6092 43.1864 30.3908 43.1864 31.1525 43.3293C32.022 43.4924 32.8199 43.8927 33.6797 44.3241C33.7422 44.3554 33.8051 44.387 33.8684 44.4186L41.7441 48.3565C43.3168 49.1428 44.3586 49.6612 45.1625 49.9752C45.9694 50.2904 46.2185 50.2646 46.2558 50.2591C46.732 50.1887 47.1582 49.9253 47.4341 49.5309C47.4557 49.5 47.5901 49.2887 47.6691 48.4261C47.7478 47.5666 47.75 46.4029 47.75 44.6446V31C47.75 29.7574 48.7574 28.75 50 28.75C51.2426 28.75 52.25 29.7574 52.25 31V44.7503C52.25 46.3746 52.2501 47.7466 52.1504 48.8362C52.0488 49.9461 51.8222 51.1084 51.1216 52.11C50.1363 53.5188 48.6142 54.4595 46.9135 54.7107C45.7043 54.8894 44.5634 54.5723 43.5253 54.1668C42.5061 53.7687 41.2789 53.1551 39.8261 52.4286L31.8559 48.4435C30.6898 47.8605 30.4907 47.7837 30.3227 47.7521C30.1094 47.7121 29.8906 47.7121 29.6773 47.7521C29.5093 47.7837 29.3102 47.8605 28.1441 48.4435L20.174 52.4286C18.7212 53.1551 17.4939 53.7687 16.4747 54.1668C15.4366 54.5723 14.2957 54.8894 13.0865 54.7107C11.3858 54.4595 9.86371 53.5188 8.8784 52.11C8.17784 51.1084 7.95122 49.9461 7.84964 48.8362C7.74992 47.7466 7.74996 46.3746 7.75 44.7502L7.75 20.3037C7.74998 17.8652 7.74996 15.8983 7.88009 14.3056C8.01408 12.6657 8.29716 11.2253 8.97618 9.89261C10.0548 7.77578 11.7758 6.05475 13.8926 4.97618C15.2253 4.29716 16.6657 4.01408 18.3056 3.88009C19.8983 3.74996 21.8652 3.74998 24.3037 3.75Z"
  />
  <path
    d="M43.75 24C43.75 25.2426 44.7574 26.25 46 26.25C47.2426 26.25 48.25 25.2426 48.25 24V16.25H56C57.2426 16.25 58.25 15.2426 58.25 14C58.25 12.7574 57.2426 11.75 56 11.75H48.25V4C48.25 2.75736 47.2426 1.75 46 1.75C44.7574 1.75 43.75 2.75736 43.75 4V11.75H36C34.7574 11.75 33.75 12.7574 33.75 14C33.75 15.2426 34.7574 16.25 36 16.25H43.75V24Z"
  />
</svg>
