<svg
  width="60"
  height="60"
  viewBox="0 0 60 60"
  fill="currentColor"
  xmlns="http://www.w3.org/2000/svg"
>
  <path
    fill-rule="evenodd"
    clip-rule="evenodd"
    d="M28.8719 9.09296L19.7223 6.50722C17.7347 5.94547 16.0992 5.48322 14.7585 5.23015C13.3807 4.97005 12.0468 4.87284 10.7329 5.24844C8.75779 5.81306 7.06437 7.09424 5.98388 8.84136C5.26511 10.0036 4.99591 11.3136 4.87148 12.7103C4.75042 14.0692 4.75044 15.7688 4.75048 17.8343L4.75023 38.0564C4.74822 40.2218 4.74665 41.9103 5.31512 43.3667C5.8232 44.6685 6.60329 45.7607 7.66982 46.6637C8.35083 47.2402 9.11575 47.6355 9.94875 47.9829C10.7488 48.3166 11.7439 48.6579 12.9353 49.0665L13.0035 49.0899C17.2337 50.5407 22.801 52.5623 27.7872 54.7313L27.8939 54.778C28.2696 54.943 28.7732 55.164 29.3061 55.2523C29.7725 55.3295 30.2284 55.3295 30.6949 55.2523C31.2278 55.164 31.7313 54.943 32.1071 54.778L32.2138 54.7313C37.2 52.5623 42.7673 50.5407 46.9975 49.0899L47.0656 49.0665C48.2569 48.6579 49.2521 48.3166 50.0522 47.9829C50.8852 47.6355 51.6501 47.2402 52.3311 46.6637C53.3977 45.7607 54.1778 44.6685 54.6858 43.3667C55.2543 41.9103 55.2527 40.2218 55.2507 38.0564L55.2505 17.8343C55.2505 15.7688 55.2505 14.0692 55.1295 12.7103C55.0051 11.3136 54.7359 10.0036 54.0171 8.84136C52.9366 7.09424 51.2432 5.81306 49.268 5.24844C47.9541 4.87284 46.6203 4.97005 45.2424 5.23015C43.9018 5.48322 42.2663 5.94546 40.2787 6.50721L31.1291 9.09296C30.412 9.29562 30.2944 9.32153 30.1929 9.33277C30.065 9.34691 29.936 9.34691 29.8081 9.33277C29.7065 9.32153 29.589 9.29562 28.8719 9.09296ZM11.9698 9.57513C12.2956 9.48198 12.8183 9.44337 13.9238 9.65205C15.0439 9.86349 16.4858 10.2688 18.5994 10.8661L27.75 13.4522V49.8241C23.1188 47.8896 18.2391 46.1282 14.4634 44.8333C13.1865 44.3953 12.3304 44.1006 11.6809 43.8297C11.0492 43.5662 10.7584 43.3824 10.5775 43.2292C10.0819 42.8096 9.74322 42.3355 9.50713 41.7306C9.28856 41.1706 9.25048 40.4177 9.25048 37.6597V17.9391C9.25048 15.7428 9.25258 14.2449 9.35373 13.1096C9.45356 11.989 9.63287 11.4965 9.81112 11.2083C10.3022 10.4141 11.072 9.83177 11.9698 9.57513ZM32.25 49.8245C36.8815 47.8899 41.7616 46.1283 45.5376 44.8333C46.8145 44.3953 47.6706 44.1006 48.32 43.8297C48.9518 43.5662 49.2425 43.3824 49.4235 43.2292C49.9191 42.8096 50.2577 42.3355 50.4938 41.7306C50.7124 41.1706 50.7505 40.4177 50.7505 37.6597V17.9391C50.7505 15.7428 50.7484 14.2449 50.6472 13.1096C50.5474 11.989 50.3681 11.4965 50.1898 11.2083C49.6987 10.4141 48.929 9.83177 48.0312 9.57513C47.7054 9.48198 47.1826 9.44337 46.0772 9.65205C44.9571 9.86349 43.5151 10.2688 41.4016 10.8661L32.25 13.4525V49.8245Z"
  />
</svg>
