<svg
  width="60"
  height="60"
  viewBox="0 0 60 60"
  fill="currentColor"
  xmlns="http://www.w3.org/2000/svg"
>
  <path
    fill-rule="evenodd"
    clip-rule="evenodd"
    d="M36.6846 5C37.7324 4.99996 38.6509 4.99992 39.4104 5.06198C40.2166 5.12784 41.0396 5.27468 41.8374 5.68122C43.0135 6.28042 43.9696 7.23655 44.5688 8.41257C44.9753 9.21044 45.1222 10.0334 45.188 10.8396C45.2501 11.5991 45.25 12.5176 45.25 13.5654L45.25 38.1187C45.2501 38.6189 45.2502 39.12 45.2153 39.5468C45.1767 40.0195 45.0843 40.5955 44.7868 41.1795C44.3793 41.9792 43.7291 42.6293 42.9295 43.0368C42.3455 43.3343 41.7695 43.4267 41.2968 43.4653C40.87 43.5002 40.369 43.5001 39.8687 43.5L14 43.5C11.9304 43.5 10.2523 45.1766 10.25 47.2457V47.2543C10.2523 49.3234 11.9304 51 14 51L42.4 51C44.1173 51 45.2699 50.9983 46.1576 50.9257C47.0189 50.8554 47.4308 50.7297 47.7025 50.5913C48.4081 50.2318 48.9818 49.6581 49.3413 48.9525C49.4797 48.6808 49.6054 48.2689 49.6757 47.4076C49.7483 46.5199 49.75 45.3673 49.75 43.65V14.25C49.75 13.0074 50.7574 12 52 12C53.2426 12 54.25 13.0074 54.25 14.25V43.7414C54.25 45.3438 54.2501 46.6813 54.1608 47.774C54.0677 48.9137 53.8663 49.9836 53.3508 50.9954C52.5599 52.5478 51.2978 53.8099 49.7454 54.6008C48.7336 55.1163 47.6637 55.3177 46.524 55.4108C45.4313 55.5001 44.0938 55.5 42.4914 55.5L14 55.5C9.79506 55.5 6.32488 52.3541 5.81462 48.2875C5.77239 48.1153 5.75 47.9353 5.75 47.75L5.75 16.7587C5.74997 15.1563 5.74995 13.8187 5.83922 12.726C5.93234 11.5863 6.13367 10.5164 6.6492 9.50458C7.44016 7.95224 8.70224 6.69016 10.2546 5.8992C11.2664 5.38367 12.3363 5.18234 13.476 5.08922C14.5687 4.99995 15.9062 4.99997 17.5086 5L36.6846 5ZM17.6 9.5C15.8827 9.5 14.7301 9.50175 13.8424 9.57428C12.9811 9.64465 12.5692 9.7703 12.2975 9.90873C11.5919 10.2683 11.0183 10.8419 10.6587 11.5475C10.5203 11.8192 10.3947 12.2311 10.3243 13.0924C10.2518 13.9801 10.25 15.1327 10.25 16.85V39.8996C11.3751 39.3244 12.6497 39 14 39L39.8 39C40.2453 39 40.5324 38.999 40.7411 38.9911C40.749 38.7824 40.75 38.4953 40.75 38.05V13.65C40.75 12.4928 40.7482 11.7602 40.703 11.206C40.6598 10.6782 40.5887 10.5133 40.5593 10.4555C40.3915 10.1262 40.1238 9.85852 39.7945 9.69074C39.7367 9.66131 39.5718 9.59016 39.044 9.54703C38.4898 9.50176 37.7572 9.50001 36.6 9.50001L17.6 9.5Z"
  />
</svg>
