<svg
  width="60"
  height="60"
  viewBox="0 0 60 60"
  fill="currentColor"
  xmlns="http://www.w3.org/2000/svg"
>
  <path
    fill-rule="evenodd"
    clip-rule="evenodd"
    d="M6.75 14.6469C6.75 8.6287 11.6287 3.75 17.6469 3.75H42.3531C48.3713 3.75 53.25 8.6287 53.25 14.6469V49.9237C53.25 55.0958 47.3263 58.0296 43.2122 54.8951L32.2727 46.5602C30.9302 45.5374 29.0699 45.5374 27.7274 46.5602L16.7878 54.8951C12.6737 58.0297 6.75 55.0958 6.75 49.9237V14.6469ZM17.6469 8.25C14.114 8.25 11.25 11.114 11.25 14.6469V49.9237C11.25 51.3719 12.9086 52.1934 14.0606 51.3157L25.0002 42.9808C27.9537 40.7305 32.0465 40.7305 34.9999 42.9808L45.9394 51.3157C47.0914 52.1933 48.75 51.3718 48.75 49.9237V14.6469C48.75 11.114 45.886 8.25 42.3531 8.25H17.6469Z"
  />
  <path
    fill-rule="evenodd"
    clip-rule="evenodd"
    d="M19.75 23C19.75 21.7574 20.7574 20.75 22 20.75L38 20.75C39.2426 20.75 40.25 21.7574 40.25 23C40.25 24.2426 39.2426 25.25 38 25.25L22 25.25C20.7574 25.25 19.75 24.2426 19.75 23Z"
  />
</svg>
