<svg
  width="60"
  height="60"
  viewBox="0 0 60 60"
  fill="currentColor"
  xmlns="http://www.w3.org/2000/svg"
>
  <path
    fill-rule="evenodd"
    clip-rule="evenodd"
    d="M35.6963 3.75H24.3037C21.8652 3.74998 19.8983 3.74996 18.3056 3.88009C16.6657 4.01408 15.2253 4.29716 13.8926 4.97618C11.7758 6.05475 10.0548 7.77578 8.97618 9.89261C8.29716 11.2253 8.01408 12.6657 7.88009 14.3056C7.74996 15.8983 7.74998 17.8652 7.75 20.3037L7.75 44.7502C7.74996 46.3746 7.74992 47.7466 7.84964 48.8362C7.95122 49.9461 8.17784 51.1084 8.8784 52.11C9.86371 53.5188 11.3858 54.4595 13.0865 54.7107C14.2957 54.8894 15.4366 54.5723 16.4747 54.1668C17.4939 53.7687 18.7212 53.1551 20.174 52.4286L28.1441 48.4435C29.3102 47.8605 29.5093 47.7837 29.6773 47.7521C29.8906 47.7121 30.1094 47.7121 30.3227 47.7521C30.4907 47.7837 30.6898 47.8605 31.8559 48.4435L39.8261 52.4286C41.2789 53.1551 42.5062 53.7688 43.5253 54.1668C44.5634 54.5723 45.7043 54.8894 46.9135 54.7107C48.6142 54.4595 50.1363 53.5188 51.1216 52.11C51.8222 51.1084 52.0488 49.9461 52.1504 48.8362C52.2501 47.7467 52.25 46.3747 52.25 44.7504V20.3036C52.25 17.8652 52.25 15.8983 52.1199 14.3056C51.9859 12.6657 51.7029 11.2253 51.0238 9.89261C49.9453 7.77578 48.2242 6.05475 46.1074 4.97618C44.7747 4.29716 43.3343 4.01408 41.6944 3.88009C40.1017 3.74996 38.1348 3.74998 35.6963 3.75ZM22 15.75C20.7574 15.75 19.75 16.7574 19.75 18C19.75 19.2426 20.7574 20.25 22 20.25H38C39.2426 20.25 40.25 19.2426 40.25 18C40.25 16.7574 39.2426 15.75 38 15.75H22Z"
  />
</svg>
