<svg
  width="60"
  height="60"
  viewBox="0 0 60 60"
  fill="currentColor"
  xmlns="http://www.w3.org/2000/svg"
>
  <path
    d="M20 16.75C18.7574 16.75 17.75 17.7574 17.75 19C17.75 20.2426 18.7574 21.25 20 21.25H40C41.2426 21.25 42.25 20.2426 42.25 19C42.25 17.7574 41.2426 16.75 40 16.75H20Z"
  />
  <path
    fill-rule="evenodd"
    clip-rule="evenodd"
    d="M42.4913 4.75H17.5087C15.9063 4.74997 14.5687 4.74995 13.476 4.83922C12.3363 4.93234 11.2664 5.13367 10.2546 5.6492C8.70224 6.44016 7.44016 7.70224 6.6492 9.25458C6.13367 10.2664 5.93234 11.3363 5.83922 12.476C5.74995 13.5687 5.74997 14.9062 5.75 16.5086L5.75 47.5C5.75 47.6853 5.77239 47.8653 5.81462 48.0375C6.32488 52.1041 9.79506 55.25 14 55.25L47.5 55.25C48.7426 55.25 49.75 54.2426 49.75 53C49.75 51.7574 48.7426 50.75 47.5 50.75L14 50.75C11.9304 50.75 10.2523 49.0734 10.25 47.0043V46.9957C10.2523 44.9266 11.9304 43.25 14 43.25L42.4914 43.25C44.0938 43.25 45.4313 43.2501 46.524 43.1608C47.6637 43.0677 48.7336 42.8663 49.7454 42.3508C51.2978 41.5599 52.5598 40.2978 53.3508 38.7454C53.8663 37.7336 54.0677 36.6637 54.1608 35.524C54.2501 34.4313 54.25 33.0938 54.25 31.4914V16.5086C54.25 14.9062 54.2501 13.5687 54.1608 12.476C54.0677 11.3363 53.8663 10.2664 53.3508 9.25458C52.5598 7.70224 51.2978 6.44016 49.7454 5.6492C48.7336 5.13367 47.6637 4.93234 46.524 4.83922C45.4313 4.74995 44.0937 4.74997 42.4913 4.75ZM46.1576 9.32428C45.2699 9.25175 44.1173 9.25 42.4 9.25H17.6C15.8827 9.25 14.7301 9.25175 13.8424 9.32428C12.9811 9.39465 12.5692 9.5203 12.2975 9.65873C11.5919 10.0183 11.0183 10.5919 10.6587 11.2975C10.5203 11.5692 10.3947 11.9811 10.3243 12.8424C10.2518 13.7301 10.25 14.8827 10.25 16.6V39.6496C11.3751 39.0744 12.6497 38.75 14 38.75L42.4 38.75C44.1173 38.75 45.2699 38.7483 46.1576 38.6757C47.0189 38.6054 47.4308 38.4797 47.7025 38.3413C48.4081 37.9818 48.9818 37.4081 49.3413 36.7025C49.4797 36.4308 49.6054 36.0189 49.6757 35.1576C49.7483 34.2699 49.75 33.1173 49.75 31.4V16.6C49.75 14.8827 49.7483 13.7301 49.6757 12.8424C49.6054 11.9811 49.4797 11.5692 49.3413 11.2975C48.9818 10.5919 48.4081 10.0183 47.7025 9.65873C47.4308 9.5203 47.0189 9.39465 46.1576 9.32428Z"
  />
</svg>
