<svg
  width="60"
  height="60"
  viewBox="0 0 60 60"
  fill="currentColor"
  xmlns="http://www.w3.org/2000/svg"
>
  <path
    fill-rule="evenodd"
    clip-rule="evenodd"
    d="M19.7223 6.75722L28.8719 9.34296C29.589 9.54562 29.7065 9.57153 29.8081 9.58277C29.936 9.59691 30.065 9.59691 30.1929 9.58277C30.2944 9.57153 30.412 9.54562 31.1291 9.34296L40.2786 6.75723C42.2662 6.19547 43.9018 5.73322 45.2424 5.48015C46.6203 5.22005 47.9541 5.12284 49.268 5.49844C51.2432 6.06306 52.9366 7.34424 54.0171 9.09136C54.7359 10.2536 55.0051 11.5636 55.1295 12.9603C55.2505 14.3192 55.2505 16.0187 55.2505 18.0841V32.6563C55.2505 33.8989 54.2431 34.9063 53.0005 34.9063C51.7578 34.9063 50.7505 33.8989 50.7505 32.6563V18.1891C50.7505 15.9928 50.7484 14.4949 50.6472 13.3596C50.5474 12.239 50.3681 11.7465 50.1898 11.4583C49.6987 10.6641 48.929 10.0818 48.0312 9.82513C47.7054 9.73198 47.1826 9.69337 46.0772 9.90205C44.9571 10.1135 43.5151 10.5188 41.4016 11.1161L32.25 13.7025V50.0745C32.8601 49.8197 33.4741 49.568 34.0889 49.3202C35.2414 48.8555 36.5523 49.4132 37.0169 50.5657C37.4816 51.7182 36.9239 53.0292 35.7714 53.4938C34.5688 53.9786 33.3753 54.4761 32.2149 54.9808L32.108 55.0276C31.7317 55.1928 31.2277 55.414 30.6948 55.5023C30.2284 55.5795 29.7725 55.5795 29.3061 55.5023C28.7732 55.414 28.2696 55.193 27.8939 55.028L27.7872 54.9813C22.801 52.8123 17.2337 50.7907 13.0035 49.3399L12.9356 49.3166C11.7442 48.908 10.7489 48.5667 9.94876 48.233C9.11577 47.8855 8.35083 47.4902 7.66982 46.9137C6.6033 46.0108 5.8232 44.9185 5.31512 43.6167C4.74665 42.1603 4.74822 40.4718 4.75023 38.3064L4.75048 18.0843C4.75044 16.0188 4.75042 14.3192 4.87148 12.9603C4.99591 11.5636 5.26511 10.2536 5.98388 9.09136C7.06437 7.34424 8.75779 6.06306 10.7329 5.49844C12.0468 5.12284 13.3807 5.22005 14.7585 5.48015C16.0992 5.73322 17.7347 6.19546 19.7223 6.75722ZM27.75 50.0741V13.7022L18.5994 11.1161C16.4858 10.5188 15.0439 10.1135 13.9238 9.90205C12.8183 9.69337 12.2956 9.73198 11.9698 9.82513C11.072 10.0818 10.3022 10.6641 9.81112 11.4583C9.63287 11.7465 9.45356 12.239 9.35373 13.3596C9.25258 14.4949 9.25048 15.9928 9.25048 18.1891V37.9097C9.25048 40.6677 9.28856 41.4206 9.50713 41.9806C9.74322 42.5855 10.0819 43.0596 10.5775 43.4792C10.7584 43.6324 11.0491 43.8162 11.6809 44.0797C12.3304 44.3506 13.1865 44.6453 14.4634 45.0833C18.2391 46.3782 23.1188 48.1396 27.75 50.0741Z"
  />
  <path
    d="M48.4816 37.1122C48.178 36.9626 47.822 36.9626 47.5184 37.1122C47.248 37.2453 47.1077 37.4776 47.0434 37.5908C46.974 37.7129 46.9034 37.8681 46.8354 38.0179L44.7937 42.5087C44.7531 42.5981 44.7319 42.6443 44.7149 42.6779C44.7124 42.6828 44.7103 42.6868 44.7086 42.69C44.7071 42.6928 44.7059 42.695 44.705 42.6966C44.7025 42.6997 44.6997 42.7025 44.6966 42.705C44.6933 42.7069 44.6873 42.7101 44.6779 42.7149C44.6443 42.7319 44.5981 42.7531 44.5087 42.7937L40.0182 44.8352C39.8686 44.9033 39.7128 44.974 39.5908 45.0434C39.4776 45.1077 39.2453 45.248 39.1122 45.5184C38.9626 45.822 38.9626 46.178 39.1122 46.4816C39.2453 46.752 39.4776 46.8923 39.5908 46.9566C39.713 47.0261 39.8684 47.0967 40.0182 47.1647L44.5087 49.2063C44.5981 49.2469 44.6443 49.2681 44.6779 49.2851L44.6877 49.2902L44.6966 49.295C44.6997 49.2975 44.7025 49.3003 44.705 49.3034C44.7069 49.3067 44.7101 49.3127 44.7149 49.3221C44.7319 49.3557 44.7531 49.4019 44.7937 49.4913L46.8353 53.9818C46.9033 54.1316 46.9739 54.287 47.0434 54.4092C47.1077 54.5224 47.248 54.7547 47.5184 54.8878C47.822 55.0374 48.178 55.0374 48.4816 54.8878C48.752 54.7547 48.8923 54.5224 48.9566 54.4092C49.0261 54.287 49.0967 54.1316 49.1648 53.9818L51.2063 49.4913C51.2469 49.4019 51.2681 49.3557 51.2851 49.3221C51.2871 49.3181 51.2889 49.3147 51.2904 49.3119C51.2924 49.3081 51.2939 49.3053 51.295 49.3034C51.2964 49.3017 51.2979 49.3001 51.2995 49.2985C51.3007 49.2973 51.302 49.2961 51.3034 49.295L51.314 49.2893L51.3221 49.2851C51.3557 49.2681 51.4019 49.2469 51.4913 49.2063L55.9818 47.1647C56.1316 47.0967 56.2871 47.026 56.4092 46.9566C56.5224 46.8923 56.7547 46.752 56.8878 46.4816C57.0374 46.178 57.0374 45.822 56.8878 45.5184C56.7547 45.248 56.5224 45.1077 56.4092 45.0434C56.287 44.9739 56.1316 44.9033 55.9818 44.8352L51.4913 42.7937C51.4019 42.7531 51.3557 42.7319 51.3221 42.7149L51.3094 42.7083L51.3034 42.705L51.2987 42.7007L51.295 42.6966L51.291 42.6893L51.2851 42.6779C51.2681 42.6443 51.2469 42.5981 51.2063 42.5087L49.1648 38.0182C49.0967 37.8684 49.0261 37.713 48.9566 37.5908C48.8923 37.4776 48.752 37.2453 48.4816 37.1122Z"
  />
</svg>
