<svg
  width="60"
  height="60"
  viewBox="0 0 60 60"
  fill="currentColor"
  xmlns="http://www.w3.org/2000/svg"
>
  <path
    d="M2.50244 29.9963C2.50244 14.8085 14.8146 2.49634 30.0024 2.49634C45.1903 2.49634 57.5024 14.8085 57.5024 29.9963C57.5024 45.1842 45.1903 57.4963 30.0024 57.4963C14.8146 57.4963 2.50244 45.1842 2.50244 29.9963Z"
    fill="#03C1C2"
  />
  <path
    d="M11.9237 24.723V14.313H15.4337C18.4787 14.313 19.3187 15.243 19.3187 17.118C19.3187 18.198 18.9437 18.933 17.8037 19.248V19.308C19.0187 19.623 19.6337 20.418 19.6337 21.723C19.6337 23.613 18.7937 24.723 15.7487 24.723H11.9237ZM14.2037 18.603H14.9687C16.4537 18.603 17.0687 18.378 17.0687 17.358C17.0687 16.278 16.4687 16.128 14.9687 16.128H14.2037V18.603ZM14.2037 22.893H15.2537C16.8587 22.893 17.3237 22.638 17.3237 21.573C17.3237 20.598 16.8737 20.253 15.2537 20.253H14.2037V22.893Z"
    fill="white"
  />
  <path
    d="M26.0317 24.873C23.0167 24.873 21.3067 23.763 21.3067 19.518C21.3067 15.273 23.0167 14.163 26.0317 14.163C29.0917 14.163 30.7567 15.273 30.7567 19.518C30.7567 23.763 29.0917 24.873 26.0317 24.873ZM26.0317 22.968C27.9517 22.968 28.3717 22.083 28.3717 19.518C28.3717 16.983 27.9517 16.023 26.0317 16.023C24.1267 16.023 23.7067 16.983 23.7067 19.518C23.7067 22.083 24.1267 22.968 26.0317 22.968Z"
    fill="white"
  />
  <path
    d="M35.4977 24.873C34.2827 24.873 33.1127 24.678 32.4677 24.498V22.503C33.1127 22.743 34.3577 22.923 35.4077 22.923C36.7877 22.923 37.2377 22.608 37.2377 21.678C37.2377 20.883 36.9377 20.598 35.3477 20.208C33.1277 19.698 32.4827 19.068 32.4827 17.208C32.4827 15.003 33.8777 14.163 36.2927 14.163C37.4777 14.163 38.4077 14.343 38.9627 14.538V16.413C38.4527 16.248 37.2527 16.038 36.3827 16.038C35.1977 16.038 34.7027 16.263 34.7027 17.148C34.7027 17.823 34.9427 18.063 36.4727 18.423C38.9627 19.023 39.5027 19.803 39.5027 21.738C39.5027 23.778 38.3627 24.873 35.4977 24.873Z"
    fill="white"
  />
  <path
    d="M43.9938 24.873C42.7788 24.873 41.6088 24.678 40.9638 24.498V22.503C41.6088 22.743 42.8538 22.923 43.9038 22.923C45.2838 22.923 45.7338 22.608 45.7338 21.678C45.7338 20.883 45.4338 20.598 43.8438 20.208C41.6238 19.698 40.9788 19.068 40.9788 17.208C40.9788 15.003 42.3738 14.163 44.7888 14.163C45.9738 14.163 46.9038 14.343 47.4588 14.538V16.413C46.9488 16.248 45.7488 16.038 44.8788 16.038C43.6938 16.038 43.1988 16.263 43.1988 17.148C43.1988 17.823 43.4388 18.063 44.9688 18.423C47.4588 19.023 47.9988 19.803 47.9988 21.738C47.9988 23.778 46.8588 24.873 43.9938 24.873Z"
    fill="white"
  />
  <path
    d="M21.9287 32.2496H27.1287V43.0896H29.3887V45.4697H11.6687V43.0896H14.0087V32.2496H19.2287V31.4096H12.5687V29.0496H19.2287V27.8496L21.9287 27.9496V29.0496H28.5687V31.4096H21.9287V32.2496ZM16.7287 35.1496H24.4087V34.3296H16.7287V35.1496ZM16.7287 36.9896V37.7896H24.4087V36.9896H16.7287ZM24.4087 40.4296V39.6496H16.7287V40.4296H24.4087ZM24.4087 43.0896V42.2696H16.7287V43.0896H24.4087Z"
    fill="white"
  />
  <path
    d="M43.6762 27.9496V29.1296H47.2162V36.6496H37.8962V29.1296H41.4362V27.8496L43.6762 27.9496ZM37.7162 40.3096L37.8762 42.9296C37.5762 42.9496 37.2362 42.9896 36.8362 43.0496V45.7696H34.5362V43.3296L33.0162 43.5096L30.1762 43.8896L29.9362 41.3696L31.0162 41.2296V31.0496H30.4762V28.5096H37.4362V31.0496H36.8362V40.4496L37.7162 40.3096ZM33.3362 32.7496H34.5362V31.0496H33.3362V32.7496ZM40.0362 32.0496H41.4962V31.2096H40.0362V32.0496ZM43.6162 31.2096V32.0496H45.0362V31.2096H43.6162ZM41.4962 34.7496V33.8696H40.0362V34.7496H41.4962ZM45.0362 33.8696H43.6162V34.7496H45.0362V33.8696ZM34.5362 36.7696V35.1096H33.3362V36.7696H34.5362ZM48.0362 37.3896V39.4296H41.2562L41.1562 40.1296H46.7962L46.5162 43.4096C46.2762 45.4296 45.8962 45.6096 43.4362 45.9096L42.0162 46.0296L41.3362 43.7696L42.9162 43.6497C43.9362 43.5696 44.1362 43.4496 44.2162 42.8096L44.3162 42.1096H38.4762L38.8562 39.4296H37.4562V37.3896H48.0362ZM33.3362 39.1296V40.9296C33.8762 40.8496 34.2762 40.7896 34.5362 40.7696V39.1296H33.3362Z"
    fill="white"
  />
</svg>
