<svg
  width="60"
  height="60"
  viewBox="0 0 60 60"
  fill="currentColor"
  xmlns="http://www.w3.org/2000/svg"
>
  <path
    d="M5 15C5 9.47715 9.47715 5 15 5H45C50.5228 5 55 9.47715 55 15V45C55 50.5228 50.5228 55 45 55H15C9.47715 55 5 50.5228 5 45V15Z"
    fill="#03C1C2"
  />
  <path
    d="M11.9213 24.7266V14.3166H15.4313C18.4763 14.3166 19.3163 15.2466 19.3163 17.1216C19.3163 18.2016 18.9413 18.9366 17.8013 19.2516V19.3116C19.0163 19.6266 19.6313 20.4216 19.6313 21.7266C19.6313 23.6166 18.7913 24.7266 15.7463 24.7266H11.9213ZM14.2013 18.6066H14.9663C16.4513 18.6066 17.0663 18.3816 17.0663 17.3616C17.0663 16.2816 16.4663 16.1316 14.9663 16.1316H14.2013V18.6066ZM14.2013 22.8966H15.2513C16.8563 22.8966 17.3213 22.6416 17.3213 21.5766C17.3213 20.6016 16.8713 20.2566 15.2513 20.2566H14.2013V22.8966Z"
    fill="white"
  />
  <path
    d="M26.0292 24.8766C23.0142 24.8766 21.3042 23.7666 21.3042 19.5216C21.3042 15.2766 23.0142 14.1666 26.0292 14.1666C29.0892 14.1666 30.7542 15.2766 30.7542 19.5216C30.7542 23.7666 29.0892 24.8766 26.0292 24.8766ZM26.0292 22.9716C27.9492 22.9716 28.3692 22.0866 28.3692 19.5216C28.3692 16.9866 27.9492 16.0266 26.0292 16.0266C24.1242 16.0266 23.7042 16.9866 23.7042 19.5216C23.7042 22.0866 24.1242 22.9716 26.0292 22.9716Z"
    fill="white"
  />
  <path
    d="M35.4953 24.8766C34.2803 24.8766 33.1103 24.6816 32.4653 24.5016V22.5066C33.1103 22.7466 34.3553 22.9266 35.4053 22.9266C36.7853 22.9266 37.2353 22.6116 37.2353 21.6816C37.2353 20.8866 36.9353 20.6016 35.3453 20.2116C33.1253 19.7016 32.4803 19.0716 32.4803 17.2116C32.4803 15.0066 33.8753 14.1666 36.2903 14.1666C37.4753 14.1666 38.4053 14.3466 38.9603 14.5416V16.4166C38.4503 16.2516 37.2503 16.0416 36.3803 16.0416C35.1953 16.0416 34.7003 16.2666 34.7003 17.1516C34.7003 17.8266 34.9403 18.0666 36.4703 18.4266C38.9603 19.0266 39.5003 19.8066 39.5003 21.7416C39.5003 23.7816 38.3603 24.8766 35.4953 24.8766Z"
    fill="white"
  />
  <path
    d="M43.9914 24.8766C42.7764 24.8766 41.6064 24.6816 40.9614 24.5016V22.5066C41.6064 22.7466 42.8514 22.9266 43.9014 22.9266C45.2814 22.9266 45.7314 22.6116 45.7314 21.6816C45.7314 20.8866 45.4314 20.6016 43.8414 20.2116C41.6214 19.7016 40.9764 19.0716 40.9764 17.2116C40.9764 15.0066 42.3714 14.1666 44.7864 14.1666C45.9714 14.1666 46.9014 14.3466 47.4564 14.5416V16.4166C46.9464 16.2516 45.7464 16.0416 44.8764 16.0416C43.6914 16.0416 43.1964 16.2666 43.1964 17.1516C43.1964 17.8266 43.4364 18.0666 44.9664 18.4266C47.4564 19.0266 47.9964 19.8066 47.9964 21.7416C47.9964 23.7816 46.8564 24.8766 43.9914 24.8766Z"
    fill="white"
  />
  <path
    d="M21.9263 32.2533H27.1263V43.0933H29.3863V45.4733H11.6663V43.0933H14.0063V32.2533H19.2263V31.4133H12.5663V29.0533H19.2263V27.8533L21.9263 27.9533V29.0533H28.5663V31.4133H21.9263V32.2533ZM16.7263 35.1533H24.4063V34.3333H16.7263V35.1533ZM16.7263 36.9933V37.7933H24.4063V36.9933H16.7263ZM24.4063 40.4333V39.6533H16.7263V40.4333H24.4063ZM24.4063 43.0933V42.2733H16.7263V43.0933H24.4063Z"
    fill="white"
  />
  <path
    d="M43.6738 27.9533V29.1333H47.2138V36.6533H37.8938V29.1333H41.4338V27.8533L43.6738 27.9533ZM37.7138 40.3133L37.8738 42.9333C37.5738 42.9533 37.2338 42.9933 36.8338 43.0533V45.7733H34.5338V43.3333L33.0138 43.5133L30.1738 43.8933L29.9338 41.3733L31.0138 41.2333V31.0533H30.4738V28.5133H37.4338V31.0533H36.8338V40.4533L37.7138 40.3133ZM33.3338 32.7533H34.5338V31.0533H33.3338V32.7533ZM40.0338 32.0533H41.4938V31.2133H40.0338V32.0533ZM43.6138 31.2133V32.0533H45.0338V31.2133H43.6138ZM41.4938 34.7533V33.8733H40.0338V34.7533H41.4938ZM45.0338 33.8733H43.6138V34.7533H45.0338V33.8733ZM34.5338 36.7733V35.1133H33.3338V36.7733H34.5338ZM48.0338 37.3933V39.4333H41.2538L41.1538 40.1333H46.7938L46.5138 43.4133C46.2738 45.4333 45.8938 45.6133 43.4338 45.9133L42.0138 46.0333L41.3338 43.7733L42.9138 43.6533C43.9338 43.5733 44.1338 43.4533 44.2138 42.8133L44.3138 42.1133H38.4738L38.8538 39.4333H37.4538V37.3933H48.0338ZM33.3338 39.1333V40.9333C33.8738 40.8533 34.2738 40.7933 34.5338 40.7733V39.1333H33.3338Z"
    fill="white"
  />
</svg>
