<svg
  xmlns="http://www.w3.org/2000/svg"
  width="38"
  height="35"
  viewBox="0 0 38 35"
  fill="currentColor"
>
  <path
    d="M19.2669 0.500003C20.3622 0.500003 21.2741 0.498608 22.0163 0.559248C22.7759 0.621329 23.489 0.756001 24.1634 1.09961C25.1983 1.62692 26.0397 2.46837 26.5671 3.50326C26.9107 4.17768 27.0453 4.89076 27.1074 5.65039C27.1288 5.91244 27.1403 6.1957 27.1491 6.50065C28.3159 6.50383 29.2991 6.51874 30.1296 6.58659C31.2228 6.67592 32.1832 6.86503 33.0716 7.31771C34.4827 8.03674 35.6299 9.18394 36.349 10.5951C36.8016 11.4835 36.9907 12.4438 37.0801 13.5371C37.168 14.6129 37.1667 15.9449 37.1667 17.6003V23.7331C37.1667 25.3885 37.168 26.7205 37.0801 27.7962C36.9907 28.8895 36.8016 29.8498 36.349 30.7383C35.6299 32.1494 34.4827 33.2966 33.0716 34.0156C32.1832 34.4683 31.2228 34.6574 30.1296 34.7467C29.0538 34.8346 27.7218 34.8333 26.0664 34.8333H11.9336C10.2782 34.8333 8.94619 34.8346 7.87044 34.7467C6.77717 34.6574 5.81682 34.4683 4.92838 34.0156C3.51726 33.2966 2.37007 32.1494 1.65104 30.7383C1.19836 29.8498 1.00924 28.8895 0.919918 27.7962C0.832029 26.7205 0.833329 25.3885 0.833329 23.7331V17.6003C0.833329 15.9449 0.832029 14.6129 0.919918 13.5371C1.00924 12.4438 1.19836 11.4835 1.65104 10.5951C2.37007 9.18393 3.51726 8.03674 4.92838 7.31771C5.81682 6.86503 6.77717 6.67592 7.87044 6.58659C8.70076 6.51875 9.68375 6.50383 10.8503 6.50065C10.859 6.19569 10.8712 5.91244 10.8926 5.65039C10.9547 4.89076 11.0893 4.17768 11.4329 3.50326C11.9602 2.46837 12.8017 1.62692 13.8366 1.09961C14.511 0.756001 15.2241 0.621329 15.9837 0.559248C16.7259 0.498607 17.6378 0.500003 18.7331 0.500003H19.2669ZM11.9336 9.5C10.2287 9.5 9.03984 9.50123 8.11458 9.57683C7.20697 9.65099 6.68537 9.78899 6.29036 9.99024C5.44363 10.4217 4.75499 11.1103 4.32356 11.957C4.12232 12.352 3.98432 12.8736 3.91015 13.7813C3.83456 14.7065 3.83333 15.8954 3.83333 17.6003V23.7331C3.83333 25.438 3.83456 26.6268 3.91015 27.5521C3.98432 28.4597 4.12232 28.9813 4.32356 29.3763C4.75499 30.223 5.44363 30.9117 6.29036 31.3431C6.68537 31.5443 7.20697 31.6824 8.11458 31.7565C9.03984 31.8321 10.2287 31.8333 11.9336 31.8333H26.0664C27.7713 31.8333 28.9601 31.8321 29.8854 31.7565C30.793 31.6824 31.3146 31.5443 31.7096 31.3431C32.5564 30.9117 33.245 30.223 33.6764 29.3763C33.8777 28.9813 34.0157 28.4597 34.0898 27.5521C34.1654 26.6268 34.1667 25.438 34.1667 23.7331V17.6003C34.1667 15.8954 34.1654 14.7065 34.0898 13.7813C34.0157 12.8736 33.8777 12.352 33.6764 11.957C33.245 11.1103 32.5564 10.4217 31.7096 9.99024C31.3146 9.78899 30.793 9.65099 29.8854 9.57683C28.9601 9.50123 27.7713 9.5 26.0664 9.5H11.9336ZM29.6667 15.8333C30.4951 15.8333 31.1667 16.5049 31.1667 17.3333C31.1667 18.1618 30.4951 18.8333 29.6667 18.8333H8.33333C7.5049 18.8333 6.83333 18.1618 6.83333 17.3333C6.83333 16.5049 7.5049 15.8333 8.33333 15.8333H29.6667ZM18.7331 3.5C17.5885 3.5 16.8202 3.50116 16.2285 3.54948C15.6543 3.5964 15.3797 3.68051 15.1986 3.77279C14.7282 4.01247 14.3458 4.39483 14.1061 4.86524C14.0138 5.04636 13.9297 5.32099 13.8828 5.89518C13.8679 6.07796 13.8588 6.27764 13.8516 6.5H24.1484C24.1412 6.27764 24.1321 6.07796 24.1172 5.89518C24.0703 5.32099 23.9862 5.04636 23.8939 4.86524C23.6542 4.39483 23.2718 4.01247 22.8014 3.77279C22.6203 3.68051 22.3457 3.5964 21.7715 3.54948C21.1798 3.50116 20.4115 3.5 19.2669 3.5H18.7331Z"
  />
</svg>
