<svg
  width="60"
  height="60"
  viewBox="0 0 60 60"
  fill="currentColor"
  xmlns="http://www.w3.org/2000/svg"
>
  <path
    fill-rule="evenodd"
    clip-rule="evenodd"
    d="M10 14C11.6569 14 13 12.6569 13 11C13 9.34315 11.6569 8 10 8C8.34315 8 7 9.34315 7 11C7 12.6569 8.34315 14 10 14ZM20 8.75C18.7574 8.75 17.75 9.75736 17.75 11C17.75 12.2426 18.7574 13.25 20 13.25L51 13.25C52.2426 13.25 53.25 12.2426 53.25 11C53.25 9.75736 52.2426 8.75 51 8.75L20 8.75ZM20 32.25C18.7574 32.25 17.75 31.2426 17.75 30C17.75 28.7574 18.7574 27.75 20 27.75L51 27.75C52.2426 27.75 53.25 28.7574 53.25 30C53.25 31.2426 52.2426 32.25 51 32.25L20 32.25ZM17.75 49C17.75 47.7574 18.7574 46.75 20 46.75L51 46.75C52.2426 46.75 53.25 47.7574 53.25 49C53.25 50.2426 52.2426 51.25 51 51.25L20 51.25C18.7574 51.25 17.75 50.2426 17.75 49ZM13 30C13 31.6569 11.6569 33 10 33C8.34315 33 7 31.6569 7 30C7 28.3431 8.34315 27 10 27C11.6569 27 13 28.3431 13 30ZM10 52C11.6569 52 13 50.6569 13 49C13 47.3431 11.6569 46 10 46C8.34315 46 7 47.3431 7 49C7 50.6569 8.34315 52 10 52Z"
  />
</svg>
