<svg
  width="60"
  height="60"
  viewBox="0 0 60 60"
  fill="currentColor"
  xmlns="http://www.w3.org/2000/svg"
>
  <path
    d="M15.75 40C15.75 38.7574 16.7574 37.75 18 37.75H22C23.2426 37.75 24.25 38.7574 24.25 40C24.25 41.2426 23.2426 42.25 22 42.25H18C16.7574 42.25 15.75 41.2426 15.75 40Z"
  />
  <path
    d="M38 37.75C36.7574 37.75 35.75 38.7574 35.75 40C35.75 41.2426 36.7574 42.25 38 42.25H42C43.2426 42.25 44.25 41.2426 44.25 40C44.25 38.7574 43.2426 37.75 42 37.75H38Z"
  />
  <path
    fill-rule="evenodd"
    clip-rule="evenodd"
    d="M26.3037 2.75H33.6963C36.1348 2.74998 38.1017 2.74996 39.6944 2.88009C41.3343 3.01408 42.7747 3.29716 44.1074 3.97618C46.2242 5.05475 47.9452 6.77578 49.0238 8.89261C49.7028 10.2253 49.9859 11.6657 50.1199 13.3056C50.25 14.8983 50.25 16.865 50.25 19.3034V34.6964C50.25 37.1348 50.25 39.1017 50.1199 40.6944C49.9859 42.3343 49.7028 43.7747 49.0238 45.1074C48.5497 46.0379 47.9514 46.8919 47.25 47.6485L47.25 50.2787C47.2501 51.0511 47.2501 51.7606 47.2017 52.3536C47.1494 52.993 47.0298 53.6925 46.6778 54.3834C46.1744 55.3713 45.3713 56.1744 44.3834 56.6778C43.6925 57.0298 42.993 57.1494 42.3536 57.2017C41.7606 57.2501 41.0511 57.2501 40.2787 57.25H39.7213C38.9489 57.2501 38.2394 57.2501 37.6464 57.2017C37.007 57.1494 36.3075 57.0298 35.6166 56.6778C34.6287 56.1744 33.8256 55.3713 33.3222 54.3834C32.9702 53.6925 32.8506 52.993 32.7983 52.3536C32.771 52.0195 32.7591 51.6484 32.754 51.25H27.246C27.2409 51.6484 27.229 52.0195 27.2017 52.3536C27.1494 52.993 27.0298 53.6925 26.6778 54.3834C26.1744 55.3713 25.3713 56.1744 24.3835 56.6778C23.6925 57.0298 22.993 57.1494 22.3536 57.2017C21.7606 57.2501 21.0511 57.2501 20.2787 57.25H19.7213C18.9489 57.2501 18.2394 57.2501 17.6464 57.2017C17.007 57.1494 16.3075 57.0298 15.6165 56.6778C14.6287 56.1744 13.8256 55.3713 13.3222 54.3834C12.9702 53.6925 12.8506 52.993 12.7983 52.3536C12.7499 51.7606 12.7499 51.0511 12.75 50.2786L12.75 47.6485C12.0486 46.8919 11.4503 46.0379 10.9762 45.1074C10.2972 43.7747 10.0141 42.3343 9.88009 40.6944C9.74996 39.1017 9.74998 37.1348 9.75 34.6963V19.3037C9.74998 16.8652 9.74996 14.8983 9.88009 13.3056C10.0141 11.6657 10.2972 10.2253 10.9762 8.89261C12.0548 6.77578 13.7758 5.05475 15.8926 3.97618C17.2253 3.29716 18.6657 3.01408 20.3056 2.88009C21.8983 2.74996 23.8652 2.74998 26.3037 2.75ZM33.6 46.75C36.1574 46.75 37.9401 46.7482 39.328 46.6349C40.6896 46.5236 41.4719 46.3162 42.0644 46.0143C43.3345 45.3671 44.3671 44.3345 45.0143 43.0644C45.3162 42.4719 45.5236 41.6896 45.6349 40.328C45.7482 38.9401 45.75 37.1574 45.75 34.6V33H14.25V34.6C14.25 37.1574 14.2518 38.9401 14.3651 40.328C14.4764 41.6896 14.6838 42.4719 14.9857 43.0644C15.6329 44.3345 16.6655 45.3671 17.9356 46.0143C18.5281 46.3162 19.3104 46.5236 20.672 46.6349C22.0599 46.7482 23.8426 46.75 26.4 46.75H33.6ZM14.25 28.5V19.4C14.25 17.5903 14.2509 16.1685 14.2916 15H45.7084C45.7491 16.1685 45.75 17.5903 45.75 19.4V28.5H14.25ZM15.2283 10.5H44.7717C44.1224 9.42925 43.186 8.55718 42.0644 7.98571C41.4719 7.68379 40.6896 7.4764 39.328 7.36515C37.9401 7.25175 36.1574 7.25 33.6 7.25H26.4C23.8426 7.25 22.0599 7.25175 20.672 7.36515C19.3104 7.4764 18.5281 7.68379 17.9356 7.98571C16.814 8.55718 15.8776 9.42925 15.2283 10.5ZM17.2544 51.25C17.2587 51.5517 17.2671 51.7874 17.2834 51.9872C17.3027 52.2236 17.3282 52.323 17.3365 52.3496C17.407 52.4835 17.5165 52.593 17.6504 52.6635C17.677 52.6718 17.7764 52.6973 18.0128 52.7166C18.4002 52.7482 18.9228 52.75 19.8 52.75H20.2C21.0772 52.75 21.5998 52.7482 21.9872 52.7166C22.2236 52.6973 22.323 52.6718 22.3496 52.6635C22.4835 52.593 22.593 52.4835 22.6635 52.3496C22.6718 52.323 22.6973 52.2236 22.7166 51.9872C22.7329 51.7874 22.7413 51.5517 22.7456 51.25H17.2544ZM37.2834 51.9872C37.2671 51.7874 37.2587 51.5517 37.2544 51.25H42.7456C42.7413 51.5517 42.7329 51.7874 42.7166 51.9872C42.6973 52.2236 42.6718 52.323 42.6635 52.3496C42.593 52.4835 42.4835 52.593 42.3496 52.6635C42.323 52.6718 42.2236 52.6973 41.9872 52.7166C41.5998 52.7482 41.0772 52.75 40.2 52.75H39.8C38.9228 52.75 38.4002 52.7482 38.0128 52.7166C37.7764 52.6973 37.677 52.6718 37.6504 52.6635C37.5165 52.593 37.407 52.4835 37.3365 52.3496C37.3282 52.323 37.3027 52.2236 37.2834 51.9872Z"
  />
</svg>
