<svg
  width="60"
  height="60"
  viewBox="0 0 60 60"
  fill="currentColor"
  xmlns="http://www.w3.org/2000/svg"
>
  <path
    d="M15.75 28C15.75 26.7574 16.7574 25.75 18 25.75H26C27.2426 25.75 28.25 26.7574 28.25 28C28.25 29.2426 27.2426 30.25 26 30.25H18C16.7574 30.25 15.75 29.2426 15.75 28Z"
  />
  <path
    d="M34 25.75C32.7574 25.75 31.75 26.7574 31.75 28C31.75 29.2426 32.7574 30.25 34 30.25H42C43.2426 30.25 44.25 29.2426 44.25 28C44.25 26.7574 43.2426 25.75 42 25.75H34Z"
  />
  <path
    d="M31.75 42C31.75 40.7574 32.7574 39.75 34 39.75H42C43.2426 39.75 44.25 40.7574 44.25 42C44.25 43.2426 43.2426 44.25 42 44.25H34C32.7574 44.25 31.75 43.2426 31.75 42Z"
  />
  <path
    d="M18 39.75C16.7574 39.75 15.75 40.7574 15.75 42C15.75 43.2426 16.7574 44.25 18 44.25H26C27.2426 44.25 28.25 43.2426 28.25 42C28.25 40.7574 27.2426 39.75 26 39.75H18Z"
  />
  <path
    fill-rule="evenodd"
    clip-rule="evenodd"
    d="M22.25 5C22.25 3.75736 21.2426 2.75 20 2.75C18.7574 2.75 17.75 3.75736 17.75 5V7.75005C15.9529 7.75102 14.6796 7.76971 13.5652 8.01677C9.29669 8.96307 5.96307 12.2967 5.01677 16.5652C4.7491 17.7725 4.74949 19.1664 4.75005 21.2107L4.7501 38.6964C4.75008 41.1349 4.75006 43.1018 4.88019 44.6945C5.01418 46.3344 5.29726 47.7748 5.97628 49.1075C7.05486 51.2243 8.77589 52.9454 10.8927 54.0239C12.2254 54.7029 13.6658 54.986 15.3057 55.12C16.8984 55.2501 18.8651 55.2501 21.3036 55.2501H38.6965C41.1349 55.2501 43.1018 55.2501 44.6945 55.12C46.3344 54.986 47.7748 54.7029 49.1075 54.0239C51.2243 52.9454 52.9454 51.2243 54.0239 49.1075C54.7029 47.7748 54.986 46.3344 55.12 44.6945C55.2501 43.1018 55.2501 41.135 55.2501 38.6966L55.2502 21.2107C55.2507 19.1664 55.2511 17.7725 54.9834 16.5652C54.0371 12.2967 50.7035 8.96307 46.435 8.01677C45.3206 7.7697 44.0472 7.75102 42.25 7.75005V5C42.25 3.75736 41.2426 2.75 40 2.75C38.7574 2.75 37.75 3.75736 37.75 5V7.7501H22.25V5ZM17.75 12.2507V17.5C17.75 18.7426 18.7574 19.75 20 19.75C21.2426 19.75 22.25 18.7426 22.25 17.5V12.2501H37.75V17.5C37.75 18.7426 38.7574 19.75 40 19.75C41.2426 19.75 42.25 18.7426 42.25 17.5V12.2507C44.1297 12.2547 44.8726 12.2797 45.4611 12.4101C48.0221 12.9779 50.0223 14.9781 50.5901 17.5391C50.7367 18.2002 50.7501 19.0562 50.7501 21.5001V38.6001C50.7501 41.1575 50.7484 42.9402 50.635 44.3281C50.5237 45.6897 50.3163 46.472 50.0144 47.0645C49.3673 48.3346 48.3346 49.3673 47.0645 50.0144C46.472 50.3163 45.6897 50.5237 44.3281 50.635C42.9402 50.7484 41.1575 50.7501 38.6001 50.7501H21.4001C18.8427 50.7501 17.06 50.7484 15.6721 50.635C14.3105 50.5237 13.5282 50.3163 12.9357 50.0144C11.6656 49.3673 10.633 48.3346 9.98581 47.0645C9.68389 46.472 9.4765 45.6897 9.36525 44.3281C9.25185 42.9402 9.2501 41.1575 9.2501 38.6001V21.5001C9.2501 19.0562 9.26355 18.2002 9.41011 17.5391C9.97788 14.9781 11.9781 12.9779 14.5391 12.4101C15.1276 12.2797 15.8704 12.2547 17.75 12.2507Z"
  />
</svg>
