<svg
  width="60"
  height="60"
  viewBox="0 0 60 60"
  fill="currentColor"
  xmlns="http://www.w3.org/2000/svg"
>
  <path
    d="M15.75 28C15.75 26.7574 16.7574 25.75 18 25.75H26C27.2426 25.75 28.25 26.7574 28.25 28C28.25 29.2426 27.2426 30.25 26 30.25H18C16.7574 30.25 15.75 29.2426 15.75 28Z"
  />
  <path
    d="M34 25.75C32.7574 25.75 31.75 26.7574 31.75 28C31.75 29.2426 32.7574 30.25 34 30.25H42C43.2426 30.25 44.25 29.2426 44.25 28C44.25 26.7574 43.2426 25.75 42 25.75H34Z"
  />
  <path
    d="M31.75 42C31.75 40.7574 32.7574 39.75 34 39.75H42C43.2426 39.75 44.25 40.7574 44.25 42C44.25 43.2426 43.2426 44.25 42 44.25H34C32.7574 44.25 31.75 43.2426 31.75 42Z"
  />
  <path
    d="M18 39.75C16.7574 39.75 15.75 40.7574 15.75 42C15.75 43.2426 16.7574 44.25 18 44.25H26C27.2426 44.25 28.25 43.2426 28.25 42C28.25 40.7574 27.2426 39.75 26 39.75H18Z"
  />
  <path
    fill-rule="evenodd"
    clip-rule="evenodd"
    d="M22.25 5C22.25 3.75736 21.2426 2.75 20 2.75C18.7574 2.75 17.75 3.75736 17.75 5V7.74992C15.9529 7.75089 14.6796 7.76958 13.5652 8.01665C9.29669 8.96295 5.96307 12.2966 5.01677 16.565C4.7491 17.7724 4.74949 19.1663 4.75005 21.2106L4.7501 38.6963C4.75008 41.1348 4.75006 43.1017 4.88019 44.6944C5.01418 46.3343 5.29726 47.7747 5.97628 49.1074C7.05486 51.2242 8.77589 52.9452 10.8927 54.0238C12.2254 54.7028 13.6658 54.9859 15.3057 55.1199C16.8984 55.25 18.8651 55.25 21.3035 55.25H38.6965C41.1348 55.25 43.1018 55.25 44.6945 55.1199C46.3344 54.9859 47.7748 54.7028 49.1075 54.0238C51.2243 52.9452 52.9454 51.2242 54.0239 49.1074C54.7029 47.7747 54.986 46.3343 55.12 44.6944C55.2501 43.1017 55.2501 41.1349 55.2501 38.6966L55.2502 21.2106C55.2507 19.1663 55.2511 17.7724 54.9834 16.565C54.0371 12.2966 50.7035 8.96295 46.435 8.01665C45.3206 7.76958 44.0472 7.75089 42.25 7.74992V5C42.25 3.75736 41.2426 2.75 40 2.75C38.7574 2.75 37.75 3.75736 37.75 5V7.74998H22.25V5ZM17.75 12.2506V17.5C17.75 18.7426 18.7574 19.75 20 19.75C21.2426 19.75 22.25 18.7426 22.25 17.5V12.25H37.75V17.5C37.75 18.7426 38.7574 19.75 40 19.75C41.2426 19.75 42.25 18.7426 42.25 17.5V12.2506C44.1297 12.2545 44.8726 12.2795 45.4611 12.41C48.0221 12.9778 50.0223 14.9779 50.5901 17.539C50.7367 18.2001 50.7501 19.0561 50.7501 21.5V38.6C50.7501 41.1573 50.7484 42.94 50.635 44.3279C50.5237 45.6896 50.3163 46.4719 50.0144 47.0644C49.3673 48.3345 48.3346 49.3671 47.0645 50.0143C46.472 50.3162 45.6897 50.5236 44.3281 50.6348C42.9402 50.7482 41.1575 50.75 38.6001 50.75H21.4001C18.8427 50.75 17.06 50.7482 15.6721 50.6348C14.3105 50.5236 13.5282 50.3162 12.9357 50.0143C11.6656 49.3671 10.633 48.3345 9.98581 47.0644C9.68389 46.4719 9.4765 45.6896 9.36525 44.3279C9.25185 42.94 9.2501 41.1573 9.2501 38.6V21.5C9.2501 19.0561 9.26355 18.2001 9.41011 17.539C9.97788 14.9779 11.9781 12.9778 14.5391 12.41C15.1276 12.2795 15.8704 12.2545 17.75 12.2506Z"
  />
</svg>
