<svg
  width="60"
  height="60"
  viewBox="0 0 60 60"
  fill="currentColor"
  xmlns="http://www.w3.org/2000/svg"
>
  <path
    fill-rule="evenodd"
    clip-rule="evenodd"
    d="M26.9242 4.75H33.0758C34.4091 4.74998 35.5222 4.74996 36.4361 4.81231C37.3874 4.87722 38.286 5.01715 39.1571 5.378C41.1786 6.21532 42.7847 7.82138 43.622 9.84286C44.0891 10.9706 44.208 12.2475 44.2388 13.7517C46.4003 13.7625 47.9961 13.8334 49.3829 14.2707C52.8835 15.3744 55.6256 18.1165 56.7293 21.6171C57.2519 23.2747 57.2512 25.2307 57.2501 28.0946C57.25 28.2278 57.25 28.3629 57.25 28.5V37.6964C57.25 40.1349 57.25 42.1017 57.1199 43.6944C56.9859 45.3343 56.7028 46.7747 56.0238 48.1074C54.9452 50.2242 53.2242 51.9452 51.1074 53.0238C49.7747 53.7028 48.3343 53.9859 46.6944 54.1199C45.1017 54.25 43.1348 54.25 40.6964 54.25H19.3036C16.8651 54.25 14.8983 54.25 13.3056 54.1199C11.6657 53.9859 10.2253 53.7028 8.89259 53.0238C6.77577 51.9452 5.05474 50.2242 3.97616 48.1074C3.29714 46.7747 3.01406 45.3343 2.88008 43.6944C2.74995 42.1017 2.74996 40.1348 2.74999 37.6963L2.74999 28.5C2.74999 28.3629 2.74994 28.2277 2.74988 28.0946C2.74879 25.2307 2.74804 23.2747 3.27067 21.6171C4.37441 18.1165 7.11645 15.3744 10.617 14.2707C12.0039 13.8334 13.5996 13.7625 15.7612 13.7517C15.792 12.2475 15.9108 10.9706 16.378 9.84286C17.2153 7.82138 18.8214 6.21532 20.8428 5.378C21.714 5.01715 22.6126 4.87722 23.5639 4.81231C24.4777 4.74996 25.5908 4.74998 26.9242 4.75ZM23.8702 9.30187C23.148 9.35115 22.7964 9.43958 22.5649 9.53545C21.6461 9.91606 20.916 10.6461 20.5354 11.5649C20.3163 12.094 20.2518 12.865 20.2501 15.5014C20.2491 17.0175 19.0202 18.25 17.5 18.25C14.0731 18.25 12.8778 18.2763 11.9702 18.5624C9.86987 19.2247 8.22464 20.8699 7.5624 22.9702C7.27624 23.8778 7.24999 25.0731 7.24999 28.5V37.6C7.24999 40.1574 7.25174 41.9401 7.36513 43.328C7.47638 44.6896 7.68377 45.4719 7.98569 46.0644C8.63284 47.3345 9.66546 48.3671 10.9356 49.0143C11.5281 49.3162 12.3104 49.5236 13.672 49.6349C15.0599 49.7482 16.8426 49.75 19.4 49.75H40.6C43.1574 49.75 44.9401 49.7482 46.3279 49.6349C47.6896 49.5236 48.4719 49.3162 49.0644 49.0143C50.3345 48.3671 51.3671 47.3345 52.0143 46.0644C52.3162 45.4719 52.5236 44.6896 52.6348 43.328C52.7482 41.9401 52.75 40.1574 52.75 37.6V28.5C52.75 25.0731 52.7237 23.8778 52.4376 22.9702C51.7753 20.8699 50.1301 19.2247 48.0298 18.5624C47.1222 18.2763 45.9268 18.25 42.5 18.25C40.9798 18.25 39.7509 17.0175 39.7499 15.5014C39.7481 12.865 39.6837 12.094 39.4645 11.5649C39.0839 10.6461 38.3539 9.91606 37.4351 9.53545C37.2036 9.43958 36.8519 9.35115 36.1298 9.30187C35.3874 9.25122 34.4286 9.25 33 9.25H27C25.5714 9.25 24.6126 9.25122 23.8702 9.30187ZM23.5 16C23.5 14.7574 24.5073 13.75 25.75 13.75H34.25C35.4926 13.75 36.5 14.7574 36.5 16C36.5 17.2426 35.4926 18.25 34.25 18.25H25.75C24.5073 18.25 23.5 17.2426 23.5 16Z"
  />
  <path
    fill-rule="evenodd"
    clip-rule="evenodd"
    d="M30 28.25C26.8243 28.25 24.25 30.8244 24.25 34C24.25 37.1756 26.8243 39.75 30 39.75C33.1756 39.75 35.75 37.1756 35.75 34C35.75 30.8244 33.1756 28.25 30 28.25ZM19.75 34C19.75 28.3391 24.3391 23.75 30 23.75C35.6609 23.75 40.25 28.3391 40.25 34C40.25 39.6609 35.6609 44.25 30 44.25C24.3391 44.25 19.75 39.6609 19.75 34Z"
  />
</svg>
