<svg
  xmlns="http://www.w3.org/2000/svg"
  width="60"
  height="60"
  viewBox="0 0 60 60"
  fill="currentColor"
>
  <path
    d="M45.8612 47.1641C46.8754 46.446 48.2798 46.6861 48.998 47.7002C49.7154 48.7142 49.4754 50.1179 48.4618 50.8359C43.2022 54.5604 36.7749 56.75 29.8437 56.75C23.1925 56.75 17.0056 54.7341 11.8691 51.2803L15.1933 48.0713C19.4443 50.7196 24.4625 52.25 29.8437 52.25C35.8132 52.25 41.3369 50.3678 45.8612 47.1641ZM48.7499 3.90918C49.6286 3.0306 51.0529 3.03053 51.9315 3.90918C52.8101 4.78783 52.8101 6.21217 51.9315 7.09082L8.68164 50.3406L8.51074 50.4949C7.62703 51.2158 6.32382 51.1643 5.5 50.3406C4.67619 49.5168 4.62478 48.2136 5.3457 47.3299L5.5 47.159L48.7499 3.90918ZM49.4892 13.7803C51.7137 17.3207 52.9999 21.5101 52.9999 26C52.9999 38.7025 42.7025 49 29.9999 49C25.5088 49 21.3182 47.7129 17.7773 45.4873L21.0653 42.2031C23.714 43.6668 26.7596 44.5 29.9999 44.5C40.2172 44.5 48.4999 36.2173 48.4999 26C48.4999 22.7589 47.6663 19.7126 46.2021 17.0635L49.4892 13.7803ZM29.9999 3C34.4127 3 38.5356 4.24293 42.037 6.39746L38.7362 9.68848C36.1344 8.29204 33.1595 7.5 29.9999 7.5C19.7827 7.50007 11.4999 15.7828 11.4999 26C11.4999 29.1592 12.2923 32.1337 13.6884 34.7354L10.3896 38.0234C8.24005 34.5249 6.99991 30.4072 6.99991 26C6.99991 13.2975 17.2974 3.00007 29.9999 3ZM38.8583 24.4004C38.9514 24.9195 38.9999 25.4541 38.9999 26C38.9999 30.9706 34.9705 35 29.9999 35C29.4506 35 28.9127 34.9507 28.3905 34.8564L38.8583 24.4004ZM29.9999 17C30.453 17 30.8988 17.033 31.3339 17.0977L21.0976 27.3281C21.0335 26.8948 20.9999 26.4511 20.9999 26C20.9999 21.0295 25.0294 17.0001 29.9999 17Z"
    fill="currentColor"
    fill-opacity="0.96"
  />
</svg>
