<svg
  xmlns="http://www.w3.org/2000/svg"
  width="60"
  height="60"
  viewBox="0 0 60 60"
  fill="currentColor"
>
  <path
    d="M32.75 21.5C32.75 19.9812 31.5188 18.75 30 18.75C28.4813 18.75 27.25 19.9812 27.25 21.5C27.25 23.0188 28.4813 24.25 30 24.25C31.5188 24.25 32.75 23.0188 32.75 21.5ZM37.25 21.5C37.25 25.5041 34.0041 28.75 30 28.75C25.996 28.75 22.75 25.5041 22.75 21.5C22.75 17.496 25.996 14.25 30 14.25C34.0041 14.25 37.25 17.4959 37.25 21.5Z"
  />
  <path
    d="M30 30.25C32.7935 30.25 35.4314 30.9134 37.7246 32.0889C40.5188 33.5211 41.7044 36.2756 41.3692 38.8857C41.049 41.3776 39.3588 43.6931 36.6309 44.6748L36.3633 44.7656C34.3673 45.4044 32.2248 45.75 30 45.75C27.9143 45.75 25.9009 45.4462 24.0127 44.8818L23.6368 44.7656C20.7519 43.8423 18.9614 41.4581 18.6309 38.8857C18.2956 36.2755 19.4812 33.521 22.2754 32.0889C24.5687 30.9135 27.2066 30.25 30 30.25ZM30 34.75C27.9214 34.75 25.9871 35.2435 24.3282 36.0938C23.3226 36.6092 22.9855 37.4695 23.0938 38.3125C23.207 39.1935 23.827 40.1012 25.0088 40.4795L25.5967 40.6553C26.9834 41.0408 28.4618 41.25 30 41.25C31.7577 41.25 33.4374 40.9768 34.9912 40.4795L35.2071 40.4023C36.249 39.9876 36.8002 39.1383 36.9063 38.3125C37.0146 37.4695 36.6775 36.6092 35.6719 36.0938C34.013 35.2435 32.0787 34.75 30 34.75Z"
  />
  <path
    d="M53.75 23.4004C53.75 20.843 53.7482 19.0598 53.6348 17.6719C53.5374 16.4803 53.3666 15.7323 53.123 15.167L53.0146 14.9355C52.4079 13.7448 51.4622 12.7627 50.2998 12.1113L50.0645 11.9854C49.4719 11.6835 48.6895 11.4765 47.3281 11.3652C45.9402 11.2518 44.157 11.25 41.5996 11.25H18.4004C15.843 11.25 14.0598 11.2518 12.6719 11.3652C11.3105 11.4765 10.5281 11.6835 9.93555 11.9854C8.66545 12.6325 7.6325 13.6655 6.98535 14.9355C6.68348 15.5281 6.47648 16.3105 6.36524 17.6719C6.25184 19.0598 6.25 20.843 6.25 23.4004V36.5996C6.25 39.157 6.25184 40.9402 6.36524 42.3281C6.47648 43.6895 6.68348 44.4719 6.98535 45.0645L7.11133 45.2998C7.76266 46.4622 8.74482 47.4079 9.93555 48.0146L10.167 48.123C10.7323 48.3666 11.4803 48.5374 12.6719 48.6348C14.0598 48.7482 15.843 48.75 18.4004 48.75H41.5996C44.157 48.75 45.9402 48.7482 47.3281 48.6348C48.6895 48.5235 49.4719 48.3165 50.0645 48.0146L50.2998 47.8887C51.4622 47.2373 52.4079 46.2552 53.0146 45.0645L53.123 44.833C53.3666 44.2677 53.5374 43.5197 53.6348 42.3281C53.7482 40.9402 53.75 39.157 53.75 36.5996V23.4004ZM58.25 36.5996C58.25 39.0827 58.2519 41.0807 58.1201 42.6943C57.9945 44.2318 57.7376 45.5941 57.1465 46.8564L57.0234 47.1074C56.0123 49.0918 54.4371 50.7289 52.5 51.8145L52.1074 52.0234C50.7748 52.7025 49.3342 52.9861 47.6943 53.1201C46.0807 53.2519 44.0827 53.25 41.5996 53.25H18.4004C15.9173 53.25 13.9193 53.2519 12.3057 53.1201C10.7682 52.9945 9.40594 52.7376 8.14356 52.1465L7.89258 52.0234C5.90819 51.0123 4.27107 49.4371 3.18555 47.5L2.97656 47.1074C2.29754 45.7748 2.01387 44.3342 1.87988 42.6943C1.74805 41.0807 1.75 39.0827 1.75 36.5996V23.4004C1.75 20.9173 1.74805 18.9193 1.87988 17.3057C2.01387 15.6658 2.29754 14.2252 2.97656 12.8926C4.05511 10.7759 5.7759 9.05511 7.89258 7.97656C9.22523 7.29754 10.6658 7.01387 12.3057 6.87988C13.9193 6.74805 15.9173 6.75 18.4004 6.75H41.5996C44.0827 6.75 46.0807 6.74805 47.6943 6.87988C49.3342 7.01387 50.7748 7.29754 52.1074 7.97656L52.5 8.18555C54.4371 9.27107 56.0123 10.9082 57.0234 12.8926L57.1465 13.1436C57.7376 14.4059 57.9945 15.7682 58.1201 17.3057C58.2519 18.9193 58.25 20.9173 58.25 23.4004V36.5996Z"
  />
</svg>
