<svg
  xmlns="http://www.w3.org/2000/svg"
  width="60"
  height="60"
  viewBox="0 0 60 60"
  fill="currentColor"
>
  <path
    d="M45.8613 47.1641C46.8754 46.4461 48.28 46.6861 48.998 47.7002C49.7155 48.7141 49.4755 50.1179 48.4619 50.8359C43.2023 54.5604 36.775 56.75 29.8438 56.75C23.1291 56.75 16.888 54.6952 11.7227 51.1807L11.2266 50.8359L11.0449 50.6934C10.1859 49.9437 10.0174 48.6508 10.6904 47.7002C11.3636 46.7497 12.6394 46.4787 13.6318 47.04L13.8262 47.1641L14.2539 47.46C18.6968 50.483 24.0608 52.25 29.8438 52.25C35.8133 52.25 41.337 50.3678 45.8613 47.1641ZM30 3C42.7025 3 53 13.2975 53 26C53 38.7025 42.7025 49 30 49C17.2975 49 7 38.7025 7 26C7 13.2975 17.2975 3 30 3ZM30 7.5C19.7827 7.5 11.5 15.7827 11.5 26C11.5 36.2173 19.7827 44.5 30 44.5C40.2173 44.5 48.5 36.2173 48.5 26C48.5 15.7827 40.2173 7.5 30 7.5ZM30 17C34.9706 17 39 21.0294 39 26C39 30.9706 34.9706 35 30 35C25.0294 35 21 30.9706 21 26C21 21.0294 25.0294 17 30 17ZM30 21.5C27.5147 21.5 25.5 23.5147 25.5 26C25.5 28.4853 27.5147 30.5 30 30.5C32.4853 30.5 34.5 28.4853 34.5 26C34.5 23.5147 32.4853 21.5 30 21.5Z"
    fill="currentColor"
    fill-opacity="0.96"
  />
</svg>
