<svg
  width="60"
  height="60"
  viewBox="0 0 60 60"
  fill="currentColor"
  xmlns="http://www.w3.org/2000/svg"
>
  <path
    d="M10.2501 34C10.2501 32.7573 11.2575 31.75 12.5001 31.75H20.0001C21.2427 31.75 22.2501 32.7573 22.2501 34C22.2501 35.2426 21.2427 36.25 20.0001 36.25H12.5001C11.2575 36.25 10.2501 35.2426 10.2501 34Z"
  />
  <path
    d="M40.0001 31.75C38.7575 31.75 37.7501 32.7573 37.7501 34C37.7501 35.2426 38.7575 36.25 40.0001 36.25H47.5001C48.7427 36.25 49.7501 35.2426 49.7501 34C49.7501 32.7573 48.7427 31.75 47.5001 31.75H40.0001Z"
  />
  <path
    fill-rule="evenodd"
    clip-rule="evenodd"
    d="M21.1432 8.74977C19.1479 8.74801 17.5825 8.74662 16.1785 9.2704C14.946 9.73024 13.8413 10.4782 12.9566 11.4518C11.9488 12.5608 11.3687 14.0147 10.6294 15.868L8.74667 20.5753L5.83574 19.4109C4.68198 18.9494 3.37254 19.5106 2.91104 20.6644C2.44953 21.8181 3.01072 23.1276 4.16448 23.5891L6.57115 24.5517C5.36354 25.6137 4.38753 26.931 3.72272 28.4242C3.18349 29.6353 2.95948 30.9236 2.8533 32.3836C2.75008 33.8028 2.75009 37.5494 2.75011 39.7146L2.75011 42.7866C2.75009 42.9829 2.75008 43.134 2.75453 43.2699C2.89675 47.6145 6.38562 51.1033 10.7302 51.2456C10.866 51.25 11.017 51.25 11.2131 51.25H14.1668C17.0534 51.25 19.4283 49.0594 19.72 46.25H40.2802C40.5719 49.0594 42.9468 51.25 45.8334 51.25H48.7867C48.9828 51.25 49.1343 51.25 49.27 51.2456C53.6146 51.1033 57.1035 47.6145 57.2457 43.2699C57.2501 43.1341 57.2501 42.983 57.2501 42.7868V39.7147C57.2501 37.5494 57.2501 33.8028 57.1469 32.3836C57.0407 30.9236 56.8167 29.6353 56.2775 28.4242C55.6127 26.931 54.6367 25.6137 53.4291 24.5517L55.8357 23.5891C56.9895 23.1276 57.5507 21.8181 57.0892 20.6644C56.6277 19.5106 55.3182 18.9494 54.1645 19.4109L51.2536 20.5753L49.3708 15.868C48.6315 14.0147 48.0514 12.5608 47.0436 11.4518C46.1589 10.4782 45.0542 9.73024 43.8217 9.2704C42.4177 8.74662 40.8523 8.74801 38.8571 8.74977H21.1432ZM46.928 21.8779L45.3249 17.8703C44.3866 15.5246 44.1026 14.9066 43.7132 14.4781C43.3111 14.0355 42.809 13.6956 42.2487 13.4865C41.7062 13.2841 41.027 13.25 38.5006 13.25H21.4996C18.9732 13.25 18.294 13.2841 17.7515 13.4865C17.1913 13.6956 16.6891 14.0355 16.287 14.4781C15.8976 14.9066 15.6136 15.5246 14.6753 17.8703L13.0723 21.8779C13.1752 21.869 13.279 21.8608 13.3837 21.8532C14.8029 21.75 16.5494 21.75 18.7147 21.75H41.2855C43.4507 21.75 45.1973 21.75 46.6165 21.8532C46.7212 21.8608 46.825 21.869 46.928 21.8779ZM11.2546 26.8336C11.7911 26.5947 12.4955 26.4297 13.7101 26.3413C14.9469 26.2514 16.5296 26.25 18.8001 26.25H41.2001C43.4707 26.25 45.0534 26.2514 46.2901 26.3413C47.5047 26.4297 48.2091 26.5947 48.7456 26.8336C50.2694 27.512 51.4881 28.7307 52.1665 30.2545C52.4054 30.791 52.5704 31.4954 52.6588 32.71C52.7487 33.9467 52.7501 37.5294 52.7501 39.8V42.75C52.7501 42.9999 52.7498 43.0706 52.7481 43.1227C52.6835 45.0975 51.0976 46.6833 49.1228 46.748C49.0708 46.7497 49 46.75 48.7501 46.75H45.8334C45.2351 46.75 44.7501 46.265 44.7501 45.6666C44.7501 43.5035 42.9966 41.75 40.8334 41.75H19.1668C17.0037 41.75 15.2501 43.5035 15.2501 45.6666C15.2501 46.265 14.7651 46.75 14.1668 46.75H11.2501C11.0002 46.75 10.9295 46.7497 10.8774 46.748C8.90262 46.6833 7.31677 45.0975 7.25212 43.1227C7.25041 43.0706 7.25011 42.9999 7.25011 42.75V39.8C7.25011 37.5294 7.2515 33.9467 7.34144 32.71C7.42978 31.4954 7.59482 30.791 7.83368 30.2545C8.51214 28.7307 9.7308 27.512 11.2546 26.8336Z"
  />
</svg>
