<svg
  width="60"
  height="60"
  viewBox="0 0 60 60"
  fill="currentColor"
  xmlns="http://www.w3.org/2000/svg"
>
  <path
    fill-rule="evenodd"
    clip-rule="evenodd"
    d="M19.3037 7.75H19.4H40.6H40.6963C43.1348 7.74998 45.1017 7.74996 46.6944 7.88009C48.3343 8.01408 49.7747 8.29716 51.1074 8.97618C53.2242 10.0548 54.9452 11.7758 56.0238 13.8926C56.7028 15.2253 56.9859 16.6657 57.1199 18.3056C57.25 19.8983 57.25 21.8651 57.25 24.3036V24.3036V24.3036V24.4V35.6V35.6964V35.6964V35.6964C57.25 38.1349 57.25 40.1017 57.1199 41.6944C56.9859 43.3343 56.7028 44.7747 56.0238 46.1074C54.9452 48.2242 53.2242 49.9452 51.1074 51.0238C49.7747 51.7028 48.3343 51.9859 46.6944 52.1199C45.1017 52.25 43.1349 52.25 40.6964 52.25H40.6964H40.6964H40.6H19.4H19.3036H19.3036H19.3036C16.8651 52.25 14.8983 52.25 13.3056 52.1199C11.6657 51.9859 10.2253 51.7028 8.89261 51.0238C6.77578 49.9452 5.05475 48.2242 3.97618 46.1074C3.29716 44.7747 3.01408 43.3343 2.88009 41.6944C2.74996 40.1017 2.74998 38.1348 2.75 35.6963V35.6963V35.6V24.4V24.3037V24.3037C2.74998 21.8652 2.74996 19.8983 2.88009 18.3056C3.01408 16.6657 3.29716 15.2253 3.97618 13.8926C5.05475 11.7758 6.77578 10.0548 8.89261 8.97618C10.2253 8.29716 11.6657 8.01408 13.3056 7.88009C14.8983 7.74996 16.8652 7.74998 19.3037 7.75H19.3037ZM13.672 12.3651C12.3104 12.4764 11.5281 12.6838 10.9356 12.9857C9.66547 13.6329 8.63285 14.6655 7.98571 15.9356C7.68379 16.5281 7.4764 17.3104 7.36515 18.672C7.25175 20.0599 7.25 21.8426 7.25 24.4V35.6C7.25 38.1574 7.25175 39.9401 7.36515 41.328C7.4764 42.6896 7.68379 43.4719 7.98571 44.0644C8.63285 45.3345 9.66547 46.3671 10.9356 47.0143C11.5281 47.3162 12.3104 47.5236 13.672 47.6349C15.0599 47.7482 16.8426 47.75 19.4 47.75H40.6C43.1574 47.75 44.9401 47.7482 46.328 47.6349C47.6896 47.5236 48.4719 47.3162 49.0644 47.0143C50.3345 46.3671 51.3671 45.3345 52.0143 44.0644C52.3162 43.4719 52.5236 42.6896 52.6349 41.328C52.7482 39.9401 52.75 38.1574 52.75 35.6V24.4C52.75 21.8426 52.7482 20.0599 52.6349 18.672C52.5236 17.3104 52.3162 16.5281 52.0143 15.9356C51.3671 14.6655 50.3345 13.6329 49.0644 12.9857C48.4719 12.6838 47.6896 12.4764 46.328 12.3651C44.9401 12.2518 43.1574 12.25 40.6 12.25H19.4C16.8426 12.25 15.0599 12.2518 13.672 12.3651ZM13.75 21C13.75 19.7574 14.7574 18.75 16 18.75H27C28.2426 18.75 29.25 19.7574 29.25 21C29.25 22.2426 28.2426 23.25 27 23.25H16C14.7574 23.25 13.75 22.2426 13.75 21ZM16 28.75C14.7574 28.75 13.75 29.7574 13.75 31C13.75 32.2426 14.7574 33.25 16 33.25H44C45.2426 33.25 46.25 32.2426 46.25 31C46.25 29.7574 45.2426 28.75 44 28.75H16Z"
  />
</svg>
