<svg
  width="60"
  height="60"
  viewBox="0 0 60 60"
  fill="currentColor"
  xmlns="http://www.w3.org/2000/svg"
>
  <path
    fill-rule="evenodd"
    clip-rule="evenodd"
    d="M16.8 4.75H16.705H16.7049C14.5454 4.74998 12.7884 4.74996 11.3624 4.86647C9.88924 4.98683 8.5723 5.24266 7.3466 5.86719C5.41794 6.84989 3.84989 8.41794 2.86719 10.3466C2.24266 11.5723 1.98683 12.8892 1.86647 14.3624C1.74996 15.7884 1.74998 17.5454 1.75 19.7049V19.705V19.8V30.2V30.295V30.2951C1.74998 32.4546 1.74996 34.2116 1.86647 35.6376C1.98683 37.1108 2.24266 38.4277 2.86719 39.6534C3.84989 41.5821 5.41794 43.1501 7.3466 44.1328C8.5723 44.7573 9.88924 45.0132 11.3624 45.1335C12.1196 45.1954 12.9701 45.2244 13.9246 45.238C14.0644 46.4721 14.3287 47.5966 14.8672 48.6534C15.8499 50.5821 17.4179 52.1501 19.3466 53.1328C20.5723 53.7574 21.8892 54.0132 23.3624 54.1336C24.7884 54.2501 26.5454 54.25 28.7049 54.25H28.8H43.2H43.2951C45.4546 54.25 47.2116 54.2501 48.6376 54.1336C50.1108 54.0132 51.4277 53.7574 52.6534 53.1328C54.5821 52.1501 56.1501 50.5821 57.1328 48.6534C57.7573 47.4277 58.0132 46.1108 58.1335 44.6376C58.25 43.2116 58.25 41.4546 58.25 39.2951V39.2V32.8V32.7049C58.25 30.5454 58.25 28.7884 58.1335 27.3624C58.0132 25.8892 57.7573 24.5723 57.1328 23.3466C56.1501 21.4179 54.5821 19.8499 52.6534 18.8672C51.5993 18.3301 50.4776 18.0657 49.2472 17.9256C49.2402 16.554 49.2163 15.3748 49.1335 14.3624C49.0132 12.8892 48.7573 11.5723 48.1328 10.3466C47.1501 8.41794 45.5821 6.84989 43.6534 5.86719C42.4277 5.24266 41.1108 4.98683 39.6376 4.86647C38.2116 4.74996 36.4546 4.74998 34.2951 4.75H34.295H34.2H16.8ZM49.25 22.4675V30.2V30.2951C49.25 32.4546 49.25 34.2116 49.1335 35.6376C49.0132 37.1108 48.7573 38.4277 48.1328 39.6534C47.1501 41.5821 45.5821 43.1501 43.6534 44.1328C42.4277 44.7573 41.1108 45.0132 39.6376 45.1335C38.2116 45.25 36.4546 45.25 34.2951 45.25H34.2H18.4675C18.569 45.863 18.707 46.2774 18.8767 46.6105C19.428 47.6924 20.3076 48.572 21.3896 49.1233C21.8751 49.3707 22.534 49.5509 23.7288 49.6485C24.95 49.7483 26.5227 49.75 28.8 49.75H43.2C45.4773 49.75 47.05 49.7483 48.2712 49.6485C49.466 49.5509 50.1249 49.3707 50.6105 49.1233C51.6924 48.572 52.572 47.6924 53.1233 46.6105C53.3707 46.1249 53.5509 45.4661 53.6485 44.2712C53.7483 43.05 53.75 41.4774 53.75 39.2V32.8C53.75 30.5227 53.7483 28.95 53.6485 27.7288C53.5509 26.534 53.3707 25.8752 53.1233 25.3896C52.572 24.3076 51.6924 23.428 50.6105 22.8767C50.2774 22.707 49.863 22.569 49.25 22.4675ZM9.38956 9.87672C9.87515 9.62929 10.534 9.44915 11.7288 9.35152C12.95 9.25175 14.5227 9.25 16.8 9.25H34.2C36.4773 9.25 38.05 9.25175 39.2712 9.35152C40.466 9.44915 41.1249 9.62929 41.6105 9.87672C42.6924 10.428 43.572 11.3076 44.1233 12.3896C44.3707 12.8752 44.5509 13.534 44.6485 14.7288C44.7483 15.95 44.75 17.5227 44.75 19.8V30.2C44.75 32.4773 44.7483 34.05 44.6485 35.2712C44.5509 36.466 44.3707 37.1249 44.1233 37.6105C43.572 38.6924 42.6924 39.572 41.6105 40.1233C41.1249 40.3707 40.466 40.5509 39.2712 40.6485C38.05 40.7483 36.4773 40.75 34.2 40.75H16.8C14.5227 40.75 12.95 40.7483 11.7288 40.6485C10.534 40.5509 9.87515 40.3707 9.38956 40.1233C8.30763 39.572 7.42799 38.6924 6.87672 37.6105C6.62929 37.1249 6.44915 36.466 6.35152 35.2712C6.25175 34.05 6.25 32.4773 6.25 30.2V19.8C6.25 17.5227 6.25175 15.95 6.35152 14.7288C6.44915 13.534 6.62929 12.8752 6.87672 12.3896C7.42799 11.3076 8.30763 10.428 9.38956 9.87672ZM11.75 17C11.75 15.7574 12.7574 14.75 14 14.75H22C23.2426 14.75 24.25 15.7574 24.25 17C24.25 18.2426 23.2426 19.25 22 19.25H14C12.7574 19.25 11.75 18.2426 11.75 17ZM14 24.75C12.7574 24.75 11.75 25.7574 11.75 27C11.75 28.2426 12.7574 29.25 14 29.25H35C36.2426 29.25 37.25 28.2426 37.25 27C37.25 25.7574 36.2426 24.75 35 24.75H14Z"
  />
</svg>
