<svg
  width="60"
  height="60"
  viewBox="0 0 60 60"
  fill="currentColor"
  xmlns="http://www.w3.org/2000/svg"
>
  <path
    d="M56.25 21.4224C56.25 18.6507 55.4291 15.0486 53.2273 12.0793C50.953 9.01218 47.2893 6.75 42 6.75C37.3037 6.75 33.9701 8.8993 31.77 11.2614C31.0764 12.006 30.4902 12.7761 30 13.5155C29.5097 12.7762 28.9235 12.0061 28.2299 11.2615C26.0298 8.89946 22.6963 6.75022 18 6.75022C12.7107 6.75022 9.047 9.01244 6.77269 12.0795C4.57089 15.0487 3.75 18.6508 3.75 21.4222C3.75 22.6648 4.75736 23.6722 6 23.6722C7.24264 23.6722 8.25 22.6648 8.25 21.4222C8.25 19.4162 8.86911 16.8072 10.3873 14.7599C11.833 12.8103 14.1693 11.2502 18 11.2502C21.1648 11.2502 23.3743 12.6508 24.9371 14.3286C26.5389 16.0483 27.4029 18.0112 27.7218 18.855L27.7277 18.8708C27.7504 18.9311 27.8001 19.0634 27.8531 19.1799C27.8833 19.2462 27.9522 19.3929 28.0627 19.5568C28.1557 19.6947 28.417 20.0588 28.9069 20.3162C29.593 20.6768 30.407 20.6768 31.0932 20.3162C31.583 20.0588 31.8443 19.6947 31.9373 19.5568C32.0478 19.3929 32.1167 19.2462 32.1469 19.1798C32.1999 19.0634 32.2496 18.9311 32.2723 18.8708L32.2782 18.855C32.597 18.0112 33.4611 16.0482 35.0629 14.3285C36.6257 12.6506 38.8352 11.25 42 11.25C45.8307 11.25 48.167 12.81 49.6127 14.7596C51.1309 16.807 51.75 19.4161 51.75 21.4224C51.75 22.665 52.7574 23.6724 54 23.6724C55.2426 23.6724 56.25 22.665 56.25 21.4224Z"
  />
  <path
    d="M45.7965 42.1868C46.7098 41.3441 46.767 39.9206 45.9243 39.0073C45.0816 38.0941 43.6582 38.0369 42.7449 38.8796C39.8251 41.5737 36.3694 44.2366 32.4821 47.2319C31.8653 47.7072 31.2377 48.1908 30.5996 48.6842C30.3144 48.9048 30.1336 49.0437 30 49.14C29.8664 49.0437 29.6856 48.9048 29.4004 48.6842C28.7624 48.1908 28.1348 47.7073 27.5181 47.2321C23.6307 44.2367 20.1749 41.5738 17.2551 38.8796C16.3419 38.0369 14.9184 38.0941 14.0757 39.0073C13.233 39.9206 13.2902 41.3441 14.2035 42.1868C17.2826 45.0279 20.919 47.8292 24.7901 50.8113C25.4038 51.284 26.0233 51.7613 26.6475 52.244L26.6926 52.2789C27.0096 52.5241 27.3328 52.7741 27.627 52.97C27.9568 53.1896 28.3726 53.427 28.8938 53.5675C29.6212 53.7636 30.3788 53.7636 31.1062 53.5675C31.6274 53.427 32.0432 53.1896 32.373 52.97C32.6672 52.7741 32.9903 52.5242 33.3072 52.279L33.3525 52.244C33.9767 51.7613 34.5962 51.284 35.2099 50.8113C39.0809 47.8293 42.7175 45.0279 45.7965 42.1868Z"
  />
  <path
    fill-rule="evenodd"
    clip-rule="evenodd"
    d="M36.7058 32.5607L33.9499 28.051L29.5099 39.4682C29.3812 39.7994 29.2348 40.1762 29.0827 40.4818C28.9371 40.7745 28.5985 41.4127 27.8905 41.8306C27.0992 42.2977 26.1395 42.3832 25.2782 42.0633C24.5074 41.777 24.0614 41.2087 23.8663 40.9464C23.6626 40.6724 23.4519 40.3274 23.2668 40.0242L19.7381 34.25H9.5C8.25736 34.25 7.25 33.2426 7.25 32C7.25 30.7574 8.25736 29.75 9.5 29.75H20.2821C20.2875 29.75 20.2939 29.7499 20.3012 29.7499C20.3076 29.7498 20.3147 29.7497 20.3225 29.7496C20.4937 29.7471 20.9909 29.7399 21.4721 29.8923C21.8698 30.0182 22.2374 30.2244 22.5523 30.4981C22.9332 30.8292 23.1864 31.2573 23.2735 31.4046C23.282 31.4189 23.2889 31.4306 23.2942 31.4393L26.0501 35.949L30.4901 24.5318C30.6188 24.2006 30.7652 23.8238 30.9173 23.5182C31.0629 23.2255 31.4015 22.5873 32.1095 22.1694C32.9008 21.7023 33.8605 21.6168 34.7218 21.9367C35.4926 22.223 35.9386 22.7913 36.1337 23.0536C36.3374 23.3275 36.548 23.6725 36.7331 23.9756L40.2619 29.75H50.5C51.7426 29.75 52.75 30.7574 52.75 32C52.75 33.2426 51.7426 34.25 50.5 34.25H39.7179C39.7127 34.25 39.7067 34.25 39.6999 34.2501C39.6932 34.2502 39.6857 34.2503 39.6775 34.2504C39.5063 34.2529 39.0091 34.2601 38.5279 34.1077C38.1302 33.9818 37.7626 33.7756 37.4477 33.5019C37.0668 33.1708 36.8136 32.7427 36.7265 32.5954C36.718 32.5811 36.7111 32.5694 36.7058 32.5607Z"
  />
</svg>
