<svg
  width="60"
  height="60"
  viewBox="0 0 60 60"
  fill="currentColor"
  xmlns="http://www.w3.org/2000/svg"
>
  <path
    d="M11.75 17C11.75 15.7574 12.7574 14.75 14 14.75H22C23.2426 14.75 24.25 15.7574 24.25 17C24.25 18.2426 23.2426 19.25 22 19.25H14C12.7574 19.25 11.75 18.2426 11.75 17Z"
  />
  <path
    d="M14 24.75C12.7574 24.75 11.75 25.7574 11.75 27C11.75 28.2426 12.7574 29.25 14 29.25H35C36.2426 29.25 37.25 28.2426 37.25 27C37.25 25.7574 36.2426 24.75 35 24.75H14Z"
  />
  <path
    fill-rule="evenodd"
    clip-rule="evenodd"
    d="M34.295 4.75H16.705C14.5455 4.74998 12.7884 4.74996 11.3624 4.86647C9.88924 4.98683 8.5723 5.24266 7.3466 5.86719C5.41794 6.84989 3.84989 8.41794 2.86719 10.3466C2.24266 11.5723 1.98683 12.8892 1.86647 14.3624C1.74996 15.7884 1.74998 17.5454 1.75 19.7049V30.295C1.74998 32.4545 1.74996 34.2116 1.86647 35.6376C1.98683 37.1108 2.24266 38.4277 2.86719 39.6534C3.84989 41.5821 5.41794 43.1501 7.3466 44.1328C8.5723 44.7573 9.88924 45.0132 11.3624 45.1335C12.1195 45.1954 12.9699 45.2244 13.9243 45.238C14.0641 46.4722 14.3284 47.5968 14.8669 48.6537C15.8496 50.5823 17.4177 52.1504 19.3463 53.1331C20.572 53.7576 21.889 54.0134 23.3621 54.1338C24.7882 54.2503 26.5452 54.2503 28.7047 54.2503H43.2948C45.4543 54.2503 47.2113 54.2503 48.6374 54.1338C50.1105 54.0134 51.4275 53.7576 52.6532 53.1331C54.5818 52.1504 56.1499 50.5823 57.1326 48.6537C57.7571 47.428 58.0129 46.111 58.1333 44.6379C58.2498 43.2118 58.2498 41.4548 58.2497 39.2953V32.7052C58.2498 30.5457 58.2498 28.7887 58.1333 27.3626C58.0129 25.8895 57.7571 24.5725 57.1326 23.3468C56.1499 21.4182 54.5818 19.8501 52.6532 18.8674C51.5991 18.3304 50.4775 18.066 49.2472 17.9259C49.2402 16.5542 49.2163 15.3749 49.1335 14.3624C49.0132 12.8892 48.7573 11.5723 48.1328 10.3466C47.1501 8.41794 45.5821 6.84989 43.6534 5.86719C42.4277 5.24266 41.1108 4.98683 39.6376 4.86647C38.2116 4.74996 36.4545 4.74998 34.295 4.75ZM49.25 22.4678V30.2951C49.25 32.4546 49.25 34.2116 49.1335 35.6376C49.0132 37.1108 48.7573 38.4277 48.1328 39.6534C47.1501 41.5821 45.5821 43.1501 43.6534 44.1328C42.4277 44.7573 41.1108 45.0132 39.6376 45.1335C38.2116 45.25 36.4546 45.25 34.2951 45.25H18.4672C18.5687 45.8631 18.7068 46.2776 18.8765 46.6107C19.4277 47.6926 20.3074 48.5723 21.3893 49.1235C21.8749 49.371 22.5337 49.5511 23.7286 49.6487C24.9497 49.7485 26.5224 49.7503 28.7997 49.7503H43.1997C45.4771 49.7503 47.0498 49.7485 48.2709 49.6487C49.4658 49.5511 50.1246 49.371 50.6102 49.1235C51.6921 48.5723 52.5718 47.6926 53.123 46.6107C53.3705 46.1251 53.5506 45.4663 53.6482 44.2714C53.748 43.0503 53.7497 41.4776 53.7497 39.2003V32.8003C53.7497 30.5229 53.748 28.9502 53.6482 27.7291C53.5506 26.5342 53.3705 25.8754 53.123 25.3898C52.5718 24.3079 51.6921 23.4282 50.6102 22.877C50.2772 22.7073 49.8628 22.5693 49.25 22.4678ZM9.38956 9.87671C9.87515 9.62929 10.534 9.44915 11.7288 9.35152C12.95 9.25175 14.5227 9.25 16.8 9.25H34.2C36.4773 9.25 38.05 9.25175 39.2712 9.35152C40.466 9.44915 41.1249 9.62929 41.6104 9.87671C42.6924 10.428 43.572 11.3076 44.1233 12.3896C44.3707 12.8752 44.5509 13.534 44.6485 14.7288C44.7482 15.95 44.75 17.5227 44.75 19.8V30.2C44.75 32.4773 44.7482 34.05 44.6485 35.2712C44.5509 36.466 44.3707 37.1249 44.1233 37.6104C43.572 38.6924 42.6924 39.572 41.6104 40.1233C41.1249 40.3707 40.466 40.5509 39.2712 40.6485C38.05 40.7482 36.4773 40.75 34.2 40.75H16.8C14.5227 40.75 12.95 40.7482 11.7288 40.6485C10.534 40.5509 9.87515 40.3707 9.38956 40.1233C8.30762 39.572 7.42799 38.6924 6.87671 37.6104C6.62929 37.1249 6.44915 36.466 6.35152 35.2712C6.25175 34.05 6.25 32.4773 6.25 30.2V19.8C6.25 17.5227 6.25175 15.95 6.35152 14.7288C6.44915 13.534 6.62929 12.8752 6.87671 12.3896C7.42799 11.3076 8.30762 10.428 9.38956 9.87671Z"
  />
</svg>
