<svg
  width="60"
  height="60"
  viewBox="0 0 60 60"
  fill="currentColor"
  xmlns="http://www.w3.org/2000/svg"
>
  <path
    fill-rule="evenodd"
    clip-rule="evenodd"
    d="M13 14.5H9C7.61929 14.5 6.5 15.6193 6.5 17V21C6.5 22.3807 7.61929 23.5 9 23.5H13C14.3807 23.5 15.5 22.3807 15.5 21V17C15.5 15.6193 14.3807 14.5 13 14.5ZM19.6869 14.9237C18.8023 12.0715 16.1431 10 13 10H9C5.13401 10 2 13.134 2 17V21C2 24.1431 4.07151 26.8023 6.92373 27.6869C7.57975 27.8904 8.27708 28 9 28H13C13.7229 28 14.4202 27.8904 15.0763 27.6869C17.2725 27.0058 19.0058 25.2725 19.6869 23.0763C19.8904 22.4202 20 21.7229 20 21V17C20 16.2771 19.8904 15.5798 19.6869 14.9237ZM15.0763 32.3131C14.4202 32.1096 13.7229 32 13 32H9C8.27708 32 7.57975 32.1096 6.92373 32.3131C4.07151 33.1977 2 35.8569 2 39V43C2 46.866 5.13401 50 9 50H13C16.1431 50 18.8023 47.9285 19.6869 45.0763C19.8904 44.4202 20 43.7229 20 43V39C20 38.2771 19.8904 37.5798 19.6869 36.9237C19.0058 34.7275 17.2725 32.9942 15.0763 32.3131ZM24.3131 36.9237C24.1096 37.5798 24 38.2771 24 39V43C24 43.7229 24.1096 44.4202 24.3131 45.0763C25.1977 47.9285 27.8569 50 31 50H51C54.866 50 58 46.866 58 43V39C58 35.8569 55.9285 33.1977 53.0763 32.3131C52.4202 32.1096 51.7229 32 51 32H31C30.2771 32 29.5798 32.1096 28.9237 32.3131C26.7275 32.9942 24.9942 34.7275 24.3131 36.9237ZM28.9237 27.6869C29.5798 27.8904 30.2771 28 31 28H51C51.7229 28 52.4202 27.8904 53.0763 27.6869C55.9285 26.8023 58 24.1431 58 21V17C58 13.134 54.866 10 51 10H31C27.8569 10 25.1977 12.0715 24.3131 14.9237C24.1096 15.5798 24 16.2771 24 17V21C24 21.7229 24.1096 22.4202 24.3131 23.0763C24.9942 25.2725 26.7275 27.0058 28.9237 27.6869ZM13 36.5H9C7.61929 36.5 6.5 37.6193 6.5 39V43C6.5 44.3807 7.61929 45.5 9 45.5H13C14.3807 45.5 15.5 44.3807 15.5 43V39C15.5 37.6193 14.3807 36.5 13 36.5ZM51 14.5H31C29.6193 14.5 28.5 15.6193 28.5 17V21C28.5 22.3807 29.6193 23.5 31 23.5H51C52.3807 23.5 53.5 22.3807 53.5 21V17C53.5 15.6193 52.3807 14.5 51 14.5ZM51 36.5H31C29.6193 36.5 28.5 37.6193 28.5 39V43C28.5 44.3807 29.6193 45.5 31 45.5H51C52.3807 45.5 53.5 44.3807 53.5 43V39C53.5 37.6193 52.3807 36.5 51 36.5Z"
  />
</svg>
