<svg
  width="60"
  height="60"
  viewBox="0 0 60 60"
  fill="currentColor"
  xmlns="http://www.w3.org/2000/svg"
>
  <path
    fill-rule="evenodd"
    clip-rule="evenodd"
    d="M48 37.5H41C39.067 37.5 37.5 39.067 37.5 41V48C37.5 49.933 39.067 51.5 41 51.5H48C49.933 51.5 51.5 49.933 51.5 48V41C51.5 39.067 49.933 37.5 48 37.5ZM41 33C36.5817 33 33 36.5817 33 41V48C33 52.4183 36.5817 56 41 56H48C52.4183 56 56 52.4183 56 48V41C56 36.5817 52.4183 33 48 33H41Z"
  />
  <path
    d="M14.9545 4.61455C14.582 3.79515 13.418 3.79515 13.0455 4.61455L10.723 9.72304L5.61455 12.0455C4.79515 12.418 4.79515 13.582 5.61455 13.9545L10.723 16.277L13.0455 21.3854C13.418 22.2049 14.582 22.2048 14.9545 21.3854L17.277 16.277L22.3854 13.9545C23.2049 13.582 23.2048 12.418 22.3854 12.0455L17.277 9.72304L14.9545 4.61455Z"
  />
  <path
    fill-rule="evenodd"
    clip-rule="evenodd"
    d="M16 51.5C20.1421 51.5 23.5 48.1421 23.5 44C23.5 39.8579 20.1421 36.5 16 36.5C11.8579 36.5 8.5 39.8579 8.5 44C8.5 48.1421 11.8579 51.5 16 51.5ZM16 56C22.6274 56 28 50.6274 28 44C28 37.3726 22.6274 32 16 32C9.37258 32 4 37.3726 4 44C4 50.6274 9.37258 56 16 56Z"
  />
  <path
    fill-rule="evenodd"
    clip-rule="evenodd"
    d="M44.5 10L37.1388 22.75H51.8612L44.5 10ZM47.9641 7C46.4245 4.33333 42.5755 4.33333 41.0359 6.99999L32.8087 21.25C31.2691 23.9167 33.1936 27.25 36.2728 27.25H52.7272C55.8064 27.25 57.7309 23.9167 56.1913 21.25L47.9641 7Z"
  />
</svg>
