<svg
  width="60"
  height="60"
  viewBox="0 0 60 60"
  fill="currentColor"
  xmlns="http://www.w3.org/2000/svg"
>
  <path
    d="M30 36C34.4182 36 38 32.4183 38 28C38 23.5817 34.4182 20 30 20C25.5817 20 22 23.5817 22 28C22 32.4183 25.5817 36 30 36Z"
  />
  <path
    fill-rule="evenodd"
    clip-rule="evenodd"
    d="M8.21032 37.8635C12.4979 43.4909 16.1732 45.3542 19.7871 46.1916C20.6354 46.3882 21.4561 46.5234 22.2135 46.6424C22.3371 46.6618 22.4585 46.6807 22.5781 46.6993C23.2112 46.7978 23.7929 46.8884 24.3823 47.0043C25.7389 47.271 27.0142 47.6513 28.3639 48.4416C29.8508 49.3122 31.0845 50.1716 32.2304 50.9883C32.3685 51.0867 32.5066 51.1854 32.6447 51.2842C33.6237 51.9843 34.6048 52.6859 35.5874 53.2681C38.0076 54.702 40.5471 55.4794 44.2296 54.9417C52.0047 53.8065 56.7845 46.146 57.2452 39.6587C57.667 33.7213 53.964 28.7685 50.2628 24.1017C49.5299 23.1776 49.1078 22.2153 48.7462 21.068C48.5891 20.5697 48.452 20.0661 48.2984 19.5024L48.2078 19.17C48.0211 18.4879 47.8099 17.7379 47.5387 16.9557C46.3954 13.6579 44.304 10.1601 38.7758 6.31947L38.7683 6.31422C38.5001 6.12791 38.3153 5.99956 37.9789 5.799C37.7485 5.66166 37.3008 5.42217 37.0587 5.30677C36.7051 5.13824 36.5101 5.06145 36.2225 4.94817L36.2204 4.94736C28.0195 1.71752 20.1625 2.37317 13.3208 6.58345C9.35295 9.02522 6.3704 14.3207 5.17383 19.9712C3.96096 25.6987 4.45105 32.3745 8.14311 37.7704L8.17553 37.8178L8.21032 37.8635ZM30.6376 44.5582C28.7133 43.4315 26.9141 42.9159 25.2504 42.5888C24.5654 42.4541 23.8824 42.3479 23.2505 42.2497C23.1357 42.2318 23.0226 42.2143 22.9115 42.1968C22.1678 42.0801 21.4829 41.9653 20.8029 41.8078C18.3114 41.2304 15.5201 40.0166 11.8253 35.1829C9.04513 31.0853 8.54296 25.7827 9.5762 20.9035C10.6296 15.9288 13.1472 11.9741 15.6793 10.4159C21.2378 6.99527 27.6007 6.389 34.5714 9.13434C34.8318 9.23687 34.9113 9.26826 35.1225 9.36894C35.239 9.42444 35.5638 9.59823 35.6746 9.66428C35.8733 9.78271 35.9524 9.83734 36.2083 10.0152C40.9865 13.3347 42.4684 16.0686 43.287 18.4298C43.5063 19.0624 43.6849 19.6914 43.8674 20.3579C43.8946 20.4573 43.9221 20.5584 43.95 20.6609L43.9509 20.6642C44.104 21.2269 44.2681 21.83 44.4543 22.4208C44.9083 23.8611 45.5392 25.3876 46.737 26.8979C50.6322 31.8094 53.0355 35.4135 52.7566 39.3399C52.396 44.4165 48.6412 49.7499 43.5795 50.4889C41.0422 50.8594 39.532 50.3746 37.8812 49.3966C37.0773 48.9203 36.2678 48.342 35.2658 47.6262C35.1284 47.528 34.9872 47.4271 34.8421 47.3237C33.6682 46.4871 32.3028 45.5332 30.6376 44.5582Z"
  />
</svg>
