<svg
  width="60"
  height="60"
  viewBox="0 0 60 60"
  fill="currentColor"
  xmlns="http://www.w3.org/2000/svg"
>
  <path
    fill-rule="evenodd"
    clip-rule="evenodd"
    d="M7.25 30C7.25 17.4355 17.4355 7.25 30 7.25C31.2426 7.25 32.25 6.24264 32.25 5C32.25 3.75736 31.2426 2.75 30 2.75C14.9502 2.75 2.75 14.9502 2.75 30C2.75 45.0498 14.9502 57.25 30 57.25C45.0498 57.25 57.25 45.0498 57.25 30C57.25 26.3093 56.5151 22.7846 55.1814 19.5686C54.7054 18.4207 53.389 17.876 52.2412 18.352C51.0933 18.828 50.5486 20.1444 51.0246 21.2923C52.1357 23.9715 52.75 26.9112 52.75 30C52.75 42.5645 42.5645 52.75 30 52.75C17.4355 52.75 7.25 42.5645 7.25 30ZM20.25 30C20.25 24.6152 24.6152 20.25 30 20.25C31.2426 20.25 32.25 19.2426 32.25 18C32.25 16.7574 31.2426 15.75 30 15.75C22.1299 15.75 15.75 22.1299 15.75 30C15.75 37.8701 22.1299 44.25 30 44.25C37.8701 44.25 44.25 37.8701 44.25 30C44.25 28.072 43.8659 26.228 43.1678 24.5447C42.6918 23.3969 41.3755 22.8522 40.2276 23.3282C39.0797 23.8042 38.5351 25.1206 39.0111 26.2685C39.4865 27.4149 39.75 28.6739 39.75 30C39.75 35.3848 35.3848 39.75 30 39.75C24.6152 39.75 20.25 35.3848 20.25 30Z"
  />
</svg>
