<svg
  width="60"
  height="60"
  viewBox="0 0 60 60"
  fill="currentColor"
  xmlns="http://www.w3.org/2000/svg"
>
  <path
    fill-rule="evenodd"
    clip-rule="evenodd"
    d="M24.4161 4.86084C27.8714 3.02986 32.1285 3.02986 35.5838 4.86084L50.9285 12.992C54.3838 14.823 56.5123 18.2068 56.5123 21.8688V38.1312C56.5123 41.7932 54.3838 45.177 50.9285 47.008L35.5838 55.1392C32.1285 56.9701 27.8714 56.9701 24.4161 55.1392L9.07142 47.008C5.61611 45.177 3.48755 41.7932 3.48755 38.1312V21.8688C3.48755 18.2068 5.61611 14.823 9.07142 12.992L24.4161 4.86084ZM33.1324 8.75796C31.194 7.73082 28.8059 7.73082 26.8675 8.75796L11.5229 16.8892C9.58453 17.9163 8.39046 19.8145 8.39046 21.8688V38.1312C8.39046 40.1855 9.58453 42.0837 11.5229 43.1108L26.8675 51.242C28.8059 52.2692 31.194 52.2692 33.1324 51.242L48.477 43.1108C50.4154 42.0837 51.6094 40.1855 51.6094 38.1312V21.8688C51.6094 19.8145 50.4154 17.9163 48.477 16.8892L33.1324 8.75796Z"
  />
</svg>
