<svg
  width="60"
  height="60"
  viewBox="0 0 60 60"
  fill="currentColor"
  xmlns="http://www.w3.org/2000/svg"
>
  <path
    fill-rule="evenodd"
    clip-rule="evenodd"
    d="M56.25 54C56.25 55.2426 55.2426 56.25 54 56.25H12.4H12.3154C11.2676 56.25 10.3491 56.2501 9.58959 56.188C8.78344 56.1222 7.96044 55.9753 7.16256 55.5688C5.98655 54.9696 5.03042 54.0135 4.43121 52.8374C4.02467 52.0396 3.87784 51.2166 3.81197 50.4104C3.74992 49.6509 3.74996 48.7324 3.75 47.6846L3.75 47.6L3.75 6C3.75 4.75736 4.75736 3.75 6 3.75C7.24265 3.75 8.25 4.75736 8.25 6L8.25 47.6C8.25 48.7572 8.25175 49.4898 8.29703 50.044C8.34016 50.5718 8.41131 50.7367 8.44074 50.7945C8.60852 51.1238 8.87623 51.3915 9.20552 51.5593C9.26329 51.5887 9.42816 51.6598 9.95603 51.703C10.5102 51.7483 11.2428 51.75 12.4 51.75H54C55.2426 51.75 56.25 52.7574 56.25 54ZM19.7214 18.75L19.8 18.75H22.2L22.2786 18.75C23.0511 18.7499 23.7606 18.7499 24.3536 18.7983C24.993 18.8506 25.6925 18.9702 26.3835 19.3222C27.3713 19.8256 28.1744 20.6287 28.6778 21.6166C29.0298 22.3075 29.1494 23.007 29.2017 23.6464C29.2501 24.2394 29.2501 24.9489 29.25 25.7213L29.25 25.8V40.2L29.25 40.2787C29.2501 41.0511 29.2501 41.7606 29.2017 42.3536C29.1494 42.993 29.0298 43.6925 28.6778 44.3835C28.1744 45.3713 27.3713 46.1745 26.3835 46.6778C25.6925 47.0298 24.993 47.1494 24.3536 47.2017C23.7606 47.2501 23.0511 47.2501 22.2786 47.25H22.2786L22.2 47.25H19.8L19.7214 47.25C18.9489 47.2501 18.2395 47.2501 17.6464 47.2017C17.007 47.1494 16.3075 47.0298 15.6166 46.6778C14.6287 46.1745 13.8256 45.3713 13.3222 44.3835C12.9702 43.6925 12.8506 42.993 12.7983 42.3536C12.7499 41.7606 12.7499 41.0511 12.75 40.2786L12.75 40.2V25.8L12.75 25.7214C12.7499 24.9489 12.7499 24.2394 12.7983 23.6464C12.8506 23.007 12.9702 22.3075 13.3222 21.6166C13.8256 20.6287 14.6287 19.8256 15.6166 19.3222C16.3075 18.9702 17.007 18.8506 17.6464 18.7983C18.2394 18.7499 18.9489 18.7499 19.7214 18.75ZM17.6426 23.3392C17.6425 23.3391 17.644 23.3386 17.6472 23.3375C17.6443 23.3387 17.6427 23.3392 17.6426 23.3392ZM17.6504 23.3365C17.677 23.3282 17.7764 23.3027 18.0128 23.2834C18.4002 23.2517 18.9228 23.25 19.8 23.25H22.2C23.0772 23.25 23.5998 23.2517 23.9872 23.2834C24.2236 23.3027 24.323 23.3282 24.3496 23.3365C24.4835 23.407 24.593 23.5165 24.6635 23.6504C24.6718 23.677 24.6973 23.7764 24.7166 24.0128C24.7483 24.4002 24.75 24.9228 24.75 25.8V40.2C24.75 41.0772 24.7483 41.5998 24.7166 41.9872C24.6973 42.2236 24.6718 42.323 24.6635 42.3496C24.593 42.4835 24.4835 42.593 24.3496 42.6635C24.323 42.6718 24.2236 42.6973 23.9872 42.7166C23.5998 42.7483 23.0772 42.75 22.2 42.75H19.8C18.9228 42.75 18.4002 42.7483 18.0128 42.7166C17.7764 42.6973 17.677 42.6718 17.6504 42.6635C17.5165 42.593 17.407 42.4835 17.3365 42.3496C17.3282 42.323 17.3027 42.2236 17.2834 41.9872C17.2518 41.5998 17.25 41.0772 17.25 40.2V25.8C17.25 24.9228 17.2518 24.4002 17.2834 24.0128C17.3027 23.7764 17.3282 23.677 17.3365 23.6504C17.407 23.5165 17.5165 23.407 17.6504 23.3365ZM17.3392 23.6426C17.3392 23.6427 17.3387 23.6443 17.3375 23.6472C17.3386 23.644 17.3392 23.6425 17.3392 23.6426ZM17.3392 42.3574C17.3392 42.3575 17.3386 42.3561 17.3375 42.3529C17.3387 42.3557 17.3392 42.3573 17.3392 42.3574ZM17.6426 42.6608L17.6437 42.6611L17.6471 42.6625C17.6454 42.6619 17.6442 42.6615 17.6434 42.6612C17.6428 42.661 17.6426 42.6608 17.6426 42.6608ZM24.3574 42.6608C24.3575 42.6609 24.356 42.6614 24.3528 42.6625C24.3557 42.6613 24.3573 42.6608 24.3574 42.6608ZM24.6608 42.3574C24.6608 42.3573 24.6613 42.3557 24.6625 42.3528C24.6614 42.356 24.6609 42.3575 24.6608 42.3574ZM24.6608 23.6426C24.6609 23.6425 24.6614 23.644 24.6625 23.6472C24.6613 23.6443 24.6608 23.6427 24.6608 23.6426ZM24.3574 23.3392C24.3573 23.3392 24.3557 23.3387 24.3528 23.3375C24.356 23.3386 24.3575 23.3391 24.3574 23.3392ZM40.8 6.75L40.7214 6.75C39.9489 6.74994 39.2394 6.74989 38.6464 6.79835C38.007 6.85059 37.3075 6.97017 36.6166 7.32222C35.6287 7.82555 34.8256 8.6287 34.3222 9.61655C33.9702 10.3075 33.8506 11.007 33.7983 11.6464C33.7499 12.2394 33.7499 12.9489 33.75 13.7213V13.7214L33.75 13.8V40.2L33.75 40.2786V40.2787C33.7499 41.0511 33.7499 41.7606 33.7983 42.3536C33.8506 42.993 33.9702 43.6925 34.3222 44.3835C34.8256 45.3713 35.6287 46.1745 36.6166 46.6778C37.3075 47.0298 38.007 47.1494 38.6464 47.2017C39.2394 47.2501 39.9489 47.2501 40.7213 47.25H40.8H43.2H43.2787C44.0511 47.2501 44.7606 47.2501 45.3536 47.2017C45.993 47.1494 46.6925 47.0298 47.3834 46.6778C48.3713 46.1745 49.1744 45.3713 49.6778 44.3835C50.0298 43.6925 50.1494 42.993 50.2017 42.3536C50.2501 41.7606 50.2501 41.0511 50.25 40.2787L50.25 40.2V13.8L50.25 13.7213C50.2501 12.9489 50.2501 12.2394 50.2017 11.6464C50.1494 11.007 50.0298 10.3075 49.6778 9.61655C49.1744 8.6287 48.3713 7.82555 47.3834 7.32222C46.6925 6.97017 45.993 6.85059 45.3536 6.79835C44.7606 6.74989 44.0511 6.74994 43.2786 6.75L43.2 6.75H40.8ZM38.6426 11.3392C38.6425 11.3391 38.644 11.3386 38.6472 11.3375C38.6443 11.3387 38.6427 11.3392 38.6426 11.3392ZM39.0128 11.2834C38.7764 11.3027 38.677 11.3282 38.6504 11.3365C38.5165 11.407 38.407 11.5165 38.3365 11.6504C38.3282 11.677 38.3027 11.7764 38.2834 12.0128C38.2518 12.4002 38.25 12.9228 38.25 13.8V40.2C38.25 41.0772 38.2518 41.5998 38.2834 41.9872C38.3027 42.2236 38.3282 42.323 38.3365 42.3496C38.407 42.4835 38.5165 42.593 38.6504 42.6635C38.677 42.6718 38.7764 42.6973 39.0128 42.7166C39.4002 42.7483 39.9228 42.75 40.8 42.75H43.2C44.0772 42.75 44.5998 42.7483 44.9872 42.7166C45.2236 42.6973 45.323 42.6718 45.3496 42.6635C45.4835 42.593 45.593 42.4835 45.6635 42.3496C45.6718 42.323 45.6973 42.2236 45.7166 41.9872C45.7482 41.5998 45.75 41.0772 45.75 40.2V13.8C45.75 12.9228 45.7482 12.4002 45.7166 12.0128C45.6973 11.7764 45.6718 11.677 45.6635 11.6504C45.593 11.5165 45.4835 11.407 45.3496 11.3365C45.323 11.3282 45.2236 11.3027 44.9872 11.2834C44.5998 11.2517 44.0772 11.25 43.2 11.25H40.8C39.9228 11.25 39.4002 11.2517 39.0128 11.2834ZM38.3392 11.6426C38.3392 11.6427 38.3387 11.6443 38.3375 11.6472C38.3386 11.644 38.3391 11.6425 38.3392 11.6426ZM38.3392 42.3574C38.3391 42.3575 38.3386 42.3561 38.3375 42.3529C38.3387 42.3557 38.3392 42.3573 38.3392 42.3574ZM38.6438 42.6612C38.6431 42.6609 38.6427 42.6608 38.6426 42.6608C38.6425 42.6608 38.6439 42.6614 38.6471 42.6625C38.6456 42.6619 38.6445 42.6614 38.6438 42.6612ZM45.3574 42.6608C45.3574 42.6609 45.356 42.6614 45.3529 42.6625C45.3557 42.6613 45.3573 42.6608 45.3574 42.6608ZM45.6616 42.3552C45.661 42.3566 45.6608 42.3573 45.6608 42.3574C45.6608 42.3575 45.6614 42.3561 45.6625 42.3529C45.6621 42.3538 45.6618 42.3545 45.6616 42.3552ZM45.6611 11.6433C45.6609 11.6428 45.6608 11.6426 45.6608 11.6426C45.6608 11.6427 45.6613 11.6443 45.6625 11.6472C45.6619 11.6453 45.6614 11.644 45.6611 11.6433ZM45.3574 11.3392C45.3573 11.3392 45.3557 11.3387 45.3528 11.3375C45.356 11.3386 45.3575 11.3391 45.3574 11.3392Z"
  />
</svg>
