<svg
  width="60"
  height="60"
  viewBox="0 0 60 60"
  fill="currentColor"
  xmlns="http://www.w3.org/2000/svg"
>
  <path
    fill-rule="evenodd"
    clip-rule="evenodd"
    d="M54 56.25C55.2426 56.25 56.25 55.2426 56.25 54C56.25 52.7574 55.2426 51.75 54 51.75H12.4C11.2428 51.75 10.5102 51.7483 9.95603 51.703C9.42816 51.6598 9.26329 51.5887 9.20552 51.5593C8.87623 51.3915 8.60852 51.1238 8.44074 50.7945C8.41131 50.7367 8.34016 50.5718 8.29703 50.044C8.25175 49.4898 8.25 48.7572 8.25 47.6L8.25 6C8.25 4.75736 7.24265 3.75 6 3.75C4.75736 3.75 3.75 4.75736 3.75 6L3.75 47.6L3.75 47.6846C3.74996 48.7324 3.74992 49.6509 3.81197 50.4104C3.87784 51.2166 4.02467 52.0396 4.43121 52.8374C5.03042 54.0135 5.98655 54.9696 7.16256 55.5688C7.96044 55.9753 8.78344 56.1222 9.58959 56.188C10.3491 56.2501 11.2676 56.25 12.3154 56.25H12.4H54ZM44.2797 18.0169C44.7249 17.6442 44.9481 17.5249 45.011 17.4927C45.2022 17.4955 45.3853 17.5713 45.5225 17.7046C45.5442 17.7719 45.6177 18.014 45.6689 18.5924C45.7479 19.483 45.75 20.7263 45.75 22.5882V38.6C45.75 39.7572 45.7483 40.4898 45.703 41.044C45.6598 41.5718 45.5887 41.7367 45.5593 41.7945C45.3915 42.1238 45.1238 42.3915 44.7945 42.5593C44.7367 42.5887 44.5718 42.6598 44.044 42.703C43.4898 42.7483 42.7572 42.75 41.6 42.75H21.4C20.2428 42.75 19.5102 42.7483 18.956 42.703C18.4282 42.6598 18.2633 42.5887 18.2055 42.5593C17.8762 42.3915 17.6085 42.1238 17.4407 41.7945C17.4113 41.7367 17.3402 41.5718 17.297 41.044C17.2518 40.4898 17.25 39.7572 17.25 38.6V29.9882C17.25 29.6018 17.2505 29.3859 17.258 29.2223C17.2627 29.1207 17.2688 29.0786 17.2707 29.0676C17.2891 28.991 17.3194 28.9179 17.3605 28.8508C17.3534 28.8624 17.3646 28.838 17.461 28.7323C17.5713 28.6114 17.7236 28.4584 17.9969 28.1851L20.1969 25.9851C20.8172 25.3648 21.1879 24.9965 21.4842 24.745C21.6651 24.5915 21.7533 24.5392 21.778 24.5262C21.9226 24.4814 22.0774 24.4814 22.222 24.5262C22.2467 24.5392 22.3349 24.5915 22.5158 24.745C22.8121 24.9965 23.1828 25.3648 23.8031 25.9851L25.0149 27.1969L25.0705 27.2525L25.0706 27.2526C25.6168 27.7988 26.1183 28.3005 26.5719 28.6855C27.061 29.1007 27.6402 29.5108 28.3777 29.7504C29.4321 30.093 30.5679 30.093 31.6223 29.7504C32.3598 29.5108 32.939 29.1007 33.4281 28.6855C33.8817 28.3005 34.3833 27.7988 34.9294 27.2526L34.9295 27.2525L34.9851 27.1969L41.3969 20.7851C42.7135 19.4685 43.5941 18.5909 44.2797 18.0169ZM17.2707 29.0676C17.2709 29.0665 17.2711 29.0657 17.2712 29.0652C17.2713 29.0646 17.2714 29.0644 17.2714 29.0644L17.2707 29.0676ZM21.7854 24.5227C21.7854 24.5228 21.7839 24.5235 21.781 24.5247C21.784 24.5232 21.7855 24.5226 21.7854 24.5227ZM22.2146 24.5227C22.2145 24.5226 22.216 24.5232 22.219 24.5247C22.2161 24.5235 22.2146 24.5228 22.2146 24.5227ZM48.9921 14.833C47.9007 13.5551 46.2635 12.877 44.5881 13.0088C43.2789 13.1119 42.2094 13.8813 41.391 14.5665C40.5336 15.2844 39.5114 16.3065 38.2918 17.5263L38.2916 17.5264L38.2149 17.6031L31.8031 24.0149C31.1828 24.6352 30.8121 25.0035 30.5158 25.255C30.3349 25.4085 30.2467 25.4608 30.222 25.4738C30.0774 25.5186 29.9226 25.5186 29.778 25.4738C29.7533 25.4608 29.6651 25.4085 29.4842 25.255C29.1879 25.0035 28.8172 24.6352 28.1969 24.0149L26.9851 22.8031L26.9295 22.7475C26.3833 22.2013 25.8817 21.6996 25.4281 21.3145C24.939 20.8993 24.3598 20.4892 23.6223 20.2496C22.5679 19.907 21.4321 19.907 20.3777 20.2496C19.6402 20.4892 19.061 20.8993 18.5719 21.3145C18.1183 21.6995 17.6167 22.2012 17.0706 22.7474L17.0705 22.7475L17.0149 22.8031L14.8149 25.0031L14.7127 25.1051C14.2976 25.5187 13.8534 25.9613 13.5236 26.4995C13.2358 26.9693 13.0237 27.4814 12.8951 28.0171C12.7477 28.6308 12.7488 29.2579 12.7498 29.8439L12.75 29.9882V38.6L12.75 38.6846V38.6846C12.75 39.7324 12.7499 40.6509 12.812 41.4104C12.8778 42.2166 13.0247 43.0396 13.4312 43.8374C14.0304 45.0135 14.9865 45.9696 16.1626 46.5688C16.9604 46.9753 17.7834 47.1222 18.5896 47.188C19.3491 47.2501 20.2676 47.25 21.3154 47.25H21.4H41.6H41.6846C42.7324 47.25 43.6509 47.2501 44.4104 47.188C45.2166 47.1222 46.0396 46.9753 46.8374 46.5688C48.0135 45.9696 48.9696 45.0135 49.5688 43.8374C49.9753 43.0396 50.1222 42.2166 50.188 41.4104C50.2501 40.6509 50.25 39.7324 50.25 38.6846V38.6V22.5882V22.4797C50.25 20.7547 50.2501 19.3091 50.1514 18.1952C50.0572 17.132 49.845 15.8317 48.9921 14.833ZM30.2146 25.4773C30.2146 25.4772 30.2161 25.4765 30.219 25.4753C30.216 25.4768 30.2145 25.4774 30.2146 25.4773ZM29.7854 25.4773C29.7855 25.4774 29.784 25.4768 29.781 25.4753C29.7839 25.4765 29.7854 25.4772 29.7854 25.4773Z"
  />
</svg>
