<svg
  width="60"
  height="60"
  viewBox="0 0 60 60"
  fill="currentColor"
  xmlns="http://www.w3.org/2000/svg"
>
  <path
    fill-rule="evenodd"
    clip-rule="evenodd"
    d="M27.75 7.35986C16.2417 8.48969 7.25 18.1948 7.25 30C7.25 42.5645 17.4355 52.75 30 52.75C35.4728 52.75 40.4916 50.8198 44.4174 47.5994L28.409 31.591C27.9871 31.169 27.75 30.5967 27.75 30L27.75 7.35986ZM32.25 7.35986L32.25 27.75L52.6401 27.75C51.583 16.9819 43.0181 8.41703 32.25 7.35986ZM52.6402 32.25L35.432 32.25L47.5994 44.4174C50.373 41.0362 52.1896 36.8444 52.6402 32.25ZM2.75 30C2.75 14.9502 14.9502 2.75 30 2.75C45.0498 2.75 57.25 14.9502 57.25 30C57.25 37.5243 54.1975 44.3398 49.2687 49.2687C44.3398 54.1975 37.5243 57.25 30 57.25C14.9502 57.25 2.75 45.0498 2.75 30Z"
  />
</svg>
