<svg
  width="60"
  height="60"
  viewBox="0 0 60 60"
  fill="currentColor"
  xmlns="http://www.w3.org/2000/svg"
>
  <path
    fill-rule="evenodd"
    clip-rule="evenodd"
    d="M54 56.25C55.2426 56.25 56.25 55.2426 56.25 54C56.25 52.7574 55.2426 51.75 54 51.75H12.4C11.2428 51.75 10.5102 51.7483 9.95603 51.703C9.42816 51.6598 9.26329 51.5887 9.20552 51.5593C8.87623 51.3915 8.60852 51.1238 8.44074 50.7945C8.41131 50.7367 8.34016 50.5718 8.29703 50.044C8.25175 49.4898 8.25 48.7572 8.25 47.6L8.25 6C8.25 4.75736 7.24265 3.75 6 3.75C4.75736 3.75 3.75 4.75736 3.75 6L3.75 47.6L3.75 47.6846C3.74996 48.7324 3.74992 49.6509 3.81197 50.4104C3.87784 51.2166 4.02467 52.0396 4.43121 52.8374C5.03042 54.0135 5.98655 54.9696 7.16256 55.5688C7.96044 55.9753 8.78344 56.1222 9.58959 56.188C10.3491 56.2501 11.2676 56.25 12.3154 56.25H12.4H54ZM51.7892 21.591C52.6679 20.7123 52.6679 19.2877 51.7892 18.409C50.9105 17.5303 49.4859 17.5303 48.6072 18.409L34.1983 32.8181L24.0911 22.7109C23.2124 21.8323 21.7878 21.8323 20.9091 22.7109L13.409 30.2111C12.5303 31.0897 12.5303 32.5144 13.409 33.393C14.2877 34.2717 15.7123 34.2717 16.591 33.393L22.5001 27.4839L32.6073 37.5911C33.0293 38.013 33.6016 38.2501 34.1983 38.2501C34.795 38.2501 35.3673 38.013 35.7893 37.591L51.7892 21.591Z"
  />
</svg>
