<svg
  width="60"
  height="60"
  viewBox="0 0 60 60"
  fill="currentColor"
  xmlns="http://www.w3.org/2000/svg"
>
  <path
    d="M16.75 29C16.75 27.7574 17.7574 26.75 19 26.75H27.75V18C27.75 16.7574 28.7574 15.75 30 15.75C31.2426 15.75 32.25 16.7574 32.25 18V26.75H41C42.2426 26.75 43.25 27.7574 43.25 29C43.25 30.2426 42.2426 31.25 41 31.25H32.25V40C32.25 41.2426 31.2426 42.25 30 42.25C28.7574 42.25 27.75 41.2426 27.75 40V31.25H19C17.7574 31.25 16.75 30.2426 16.75 29Z"
  />
  <path
    fill-rule="evenodd"
    clip-rule="evenodd"
    d="M21.3037 4.25H38.6963C41.1348 4.24998 43.1017 4.24996 44.6944 4.38009C46.3343 4.51408 47.7747 4.79716 49.1074 5.47618C51.2242 6.55475 52.9453 8.27578 54.0238 10.3926C54.7029 11.7253 54.9859 13.1657 55.1199 14.8056C55.2501 16.3983 55.25 18.3651 55.25 20.8036V35.6964C55.25 38.1348 55.2501 40.1017 55.1199 41.6944C54.9859 43.3343 54.7029 44.7747 54.0238 46.1074C52.9453 48.2242 51.2242 49.9452 49.1074 51.0238C47.7747 51.7028 46.3343 51.9859 44.6944 52.1199C43.1017 52.25 41.1349 52.25 38.6965 52.25H24.4311C22.7194 52.25 22.0703 52.2548 21.4467 52.3401C20.862 52.4202 20.2858 52.5532 19.7252 52.7374C19.1273 52.934 18.5416 53.2142 17.0031 53.9643L12.5083 56.1557C11.8145 56.494 11.1623 56.8121 10.6057 57.0231C10.0297 57.2415 9.23992 57.4758 8.34936 57.3378C7.19997 57.1597 6.17377 56.5184 5.51001 55.5633C4.99573 54.8232 4.86019 54.0107 4.80407 53.3972C4.74985 52.8044 4.74993 52.0788 4.75001 51.3068L4.75001 20.8037C4.74999 18.3652 4.74997 16.3983 4.8801 14.8056C5.01409 13.1657 5.29717 11.7253 5.97619 10.3926C7.05476 8.27578 8.7758 6.55475 10.8926 5.47618C12.2253 4.79716 13.6657 4.51408 15.3056 4.38009C16.8983 4.24996 18.8652 4.24998 21.3037 4.25ZM15.6721 8.86515C14.3104 8.9764 13.5281 9.18379 12.9356 9.48571C11.6655 10.1329 10.6329 11.1655 9.98572 12.4356C9.6838 13.0281 9.47641 13.8104 9.36516 15.172C9.25176 16.5599 9.25001 18.3426 9.25001 20.9V51.2178C9.25001 51.9053 9.25134 52.3686 9.26707 52.7106C9.58141 52.5748 9.99841 52.373 10.6163 52.0718L15.171 49.8512C16.5235 49.1916 17.3958 48.7662 18.3202 48.4624C19.1395 48.1931 19.9816 47.9988 20.8362 47.8818C21.8002 47.7497 22.7706 47.7498 24.2753 47.75L38.6 47.75C41.1574 47.75 42.9401 47.7482 44.328 47.6349C45.6896 47.5236 46.4719 47.3162 47.0644 47.0143C48.3345 46.3671 49.3672 45.3345 50.0143 44.0644C50.3162 43.4719 50.5236 42.6896 50.6349 41.328C50.7483 39.9401 50.75 38.1574 50.75 35.6V20.9C50.75 18.3426 50.7483 16.5599 50.6349 15.172C50.5236 13.8104 50.3162 13.0281 50.0143 12.4356C49.3672 11.1655 48.3345 10.1329 47.0644 9.48571C46.4719 9.18379 45.6896 8.9764 44.328 8.86515C42.9401 8.75175 41.1574 8.75 38.6 8.75H21.4C18.8426 8.75 17.0599 8.75175 15.6721 8.86515Z"
  />
</svg>
