<svg
  width="60"
  height="60"
  viewBox="0 0 60 60"
  fill="currentColor"
  xmlns="http://www.w3.org/2000/svg"
>
  <path
    d="M42.75 25C42.75 26.2426 43.7574 27.25 45 27.25C46.2426 27.25 47.25 26.2426 47.25 25V17.25H55C56.2426 17.25 57.25 16.2426 57.25 15C57.25 13.7574 56.2426 12.75 55 12.75H47.25V5C47.25 3.75736 46.2426 2.75 45 2.75C43.7574 2.75 42.75 3.75736 42.75 5V12.75H35C33.7574 12.75 32.75 13.7574 32.75 15C32.75 16.2426 33.7574 17.25 35 17.25H42.75V25Z"
  />
  <path
    d="M21.3037 5.25L30 5.25C31.2426 5.25 32.25 6.25736 32.25 7.5C32.25 8.74264 31.2426 9.75 30 9.75H21.4C18.8426 9.75 17.0599 9.75175 15.672 9.86515C14.3104 9.9764 13.5281 10.1838 12.9356 10.4857C11.6655 11.1329 10.6329 12.1655 9.98571 13.4356C9.68379 14.0281 9.4764 14.8104 9.36515 16.172C9.25176 17.5599 9.25001 19.3426 9.25001 21.9V37.3844C9.25001 39.7539 9.26265 40.5841 9.40049 41.226C9.95811 43.8223 11.9863 45.8505 14.5826 46.4081C15.2245 46.546 16.0547 46.5586 18.4242 46.5586L18.5116 46.5586C19.0183 46.5585 19.4166 46.5584 19.8122 46.5963C21.2414 46.7335 22.61 47.2413 23.7828 48.0696C24.1075 48.2988 24.4093 48.5586 24.7933 48.8892L29.3804 52.8365C29.6734 53.0887 29.8608 53.2488 30 53.3603C30.1392 53.2488 30.3266 53.0887 30.6197 52.8364L35.2067 48.8893C35.5907 48.5587 35.8925 48.2988 36.2172 48.0696C37.39 47.2413 38.7586 46.7335 40.1878 46.5963C40.5834 46.5584 40.9816 46.5585 41.4883 46.5586L41.5758 46.5586C43.9453 46.5586 44.7755 46.546 45.4174 46.4081C48.0137 45.8505 50.0419 43.8223 50.5995 41.226C50.7374 40.5841 50.75 39.7539 50.75 37.3844V28.1543C50.75 26.9117 51.7574 25.9043 53 25.9043C54.2426 25.9043 55.25 26.9117 55.25 28.1543L55.2501 37.665C55.2506 39.6472 55.2509 40.9987 54.9992 42.1709C54.0698 46.4982 50.6896 49.8784 46.3623 50.8078C45.1901 51.0595 43.8387 51.0592 41.8565 51.0587L41.5758 51.0586C40.9421 51.0586 40.7717 51.061 40.6178 51.0758C39.9682 51.1381 39.3461 51.3689 38.813 51.7454C38.6867 51.8346 38.556 51.9439 38.0757 52.3572L33.508 56.2877C33.1786 56.5713 32.8434 56.8598 32.5358 57.0862C32.191 57.34 31.7523 57.6152 31.1918 57.779C30.4135 58.0063 29.5865 58.0063 28.8083 57.779C28.2477 57.6152 27.809 57.34 27.4642 57.0862C27.1567 56.8599 26.8216 56.5714 26.4922 56.2879L21.9244 52.3572C21.444 51.9439 21.3133 51.8346 21.187 51.7454C20.6539 51.3689 20.0318 51.1381 19.3822 51.0758C19.2283 51.061 19.058 51.0586 18.4242 51.0586L18.1436 51.0587C16.1614 51.0592 14.8099 51.0595 13.6377 50.8078C9.31045 49.8784 5.93017 46.4982 5.00081 42.1709C4.74907 40.9987 4.74943 39.6473 4.74996 37.665L4.75 21.8037C4.74998 19.3652 4.74996 17.3983 4.8801 15.8056C5.01408 14.1657 5.29716 12.7253 5.97618 11.3926C7.05476 9.27578 8.77579 7.55475 10.8926 6.47618C12.2253 5.79716 13.6657 5.51408 15.3056 5.38009C16.8983 5.24996 18.8652 5.24998 21.3037 5.25Z"
  />
</svg>
