<svg
  width="60"
  height="60"
  viewBox="0 0 60 60"
  fill="currentColor"
  xmlns="http://www.w3.org/2000/svg"
>
  <path
    fill-rule="evenodd"
    clip-rule="evenodd"
    d="M35.3037 4.75H38.6963C41.1348 4.74998 43.1017 4.74996 44.6944 4.88009C46.3343 5.01408 47.7747 5.29716 49.1074 5.97618C51.2242 7.05475 52.9452 8.77578 54.0238 10.8926C54.7028 12.2253 54.9859 13.6657 55.1199 15.3056C55.25 16.8983 55.25 18.8652 55.25 21.3037V36.7292C55.25 37.1902 55.2501 37.6248 55.23 37.985C55.2094 38.3542 55.161 38.8452 54.9689 39.3468C54.2944 41.1083 52.5394 42.2145 50.6592 42.0632C50.1239 42.0202 49.66 41.852 49.318 41.7113C48.9843 41.5741 48.5923 41.3866 48.1764 41.1877L46.914 40.5841C45.3964 39.8585 44.8189 39.5875 44.23 39.3974C43.6779 39.2192 43.1109 39.0907 42.536 39.0133C42.181 38.9655 41.8178 38.9438 41.2486 38.9341C41.2436 40.6693 41.221 42.1329 41.1199 43.3706C40.9859 45.0105 40.7029 46.4509 40.0238 47.7835C38.9453 49.9004 37.2242 51.6214 35.1074 52.7C33.7747 53.379 32.3343 53.6621 30.6944 53.7961C29.1017 53.9262 27.1349 53.9262 24.6964 53.9261H20.3974C18.7153 53.9261 18.0773 53.9307 17.464 54.0133C16.8891 54.0907 16.3221 54.2192 15.77 54.3974C15.1811 54.5875 14.6036 54.8585 13.086 55.5841L11.8237 56.1877C11.4077 56.3866 11.0156 56.5741 10.682 56.7113C10.34 56.852 9.87614 57.0202 9.34082 57.0632C7.46059 57.2145 5.70563 56.1083 5.03106 54.3468C4.839 53.8453 4.7906 53.3542 4.77002 52.985C4.74995 52.6248 4.74997 52.1902 4.75 51.7292L4.75 36.3037C4.74998 33.8652 4.74996 31.8983 4.88009 30.3056C5.01408 28.6657 5.29716 27.2253 5.97618 25.8926C7.05476 23.7758 8.77579 22.0548 10.8926 20.9762C12.2253 20.2972 13.6657 20.0141 15.3056 19.8801C16.3003 19.7988 17.441 19.7683 18.7514 19.7569C18.7563 18.0151 18.7787 16.5468 18.8801 15.3056C19.0141 13.6657 19.2971 12.2253 19.9762 10.8926C21.0547 8.77578 22.7758 7.05475 24.8926 5.97618C26.2253 5.29716 27.6657 5.01408 29.3056 4.88009C30.8983 4.74996 32.8652 4.74998 35.3037 4.75ZM23.2516 19.75H24.6963C27.1348 19.75 29.1017 19.75 30.6944 19.8801C32.3343 20.0141 33.7747 20.2972 35.1074 20.9762C37.2242 22.0548 38.9453 23.7758 40.0238 25.8926C40.7029 27.2253 40.9859 28.6657 41.1199 30.3056C41.215 31.4691 41.2406 32.8323 41.2475 34.4331C41.9612 34.4445 42.5498 34.4746 43.1362 34.5535C43.9766 34.6666 44.8052 34.8545 45.6122 35.115C46.5225 35.4088 47.3829 35.8203 48.717 36.4583L50.0696 37.105C50.3604 37.244 50.5765 37.347 50.7468 37.4251C50.7497 37.2378 50.75 36.9984 50.75 36.6761V21.4C50.75 18.8426 50.7482 17.0599 50.6348 15.672C50.5236 14.3104 50.3162 13.5281 50.0143 12.9356C49.3671 11.6655 48.3345 10.6329 47.0644 9.98571C46.4719 9.68379 45.6896 9.4764 44.328 9.36515C42.9401 9.25175 41.1574 9.25 38.6 9.25H35.4C32.8426 9.25 31.0599 9.25175 29.672 9.36515C28.3104 9.4764 27.5281 9.68379 26.9356 9.98571C25.6655 10.6329 24.6328 11.6655 23.9857 12.9356C23.6838 13.5281 23.4764 14.3104 23.3651 15.672C23.2779 16.7399 23.2567 18.0416 23.2516 19.75ZM12.9356 24.9857C13.5281 24.6838 14.3104 24.4764 15.672 24.3651C17.0599 24.2518 18.8426 24.25 21.4 24.25H24.6C27.1574 24.25 28.9401 24.2518 30.328 24.3651C31.6896 24.4764 32.4719 24.6838 33.0644 24.9857C34.3345 25.6329 35.3672 26.6655 36.0143 27.9356C36.3162 28.5281 36.5236 29.3104 36.6349 30.672C36.7483 32.0599 36.75 33.8426 36.75 36.4V37.2761C36.75 39.8335 36.7483 41.6162 36.6349 43.0041C36.5236 44.3657 36.3162 45.148 36.0143 45.7406C35.3672 47.0107 34.3345 48.0433 33.0644 48.6904C32.4719 48.9924 31.6896 49.1998 30.328 49.311C28.9401 49.4244 27.1574 49.4261 24.6 49.4261L20.2444 49.4261C18.7657 49.426 17.8118 49.4259 16.8638 49.5535C16.0234 49.6666 15.1948 49.8545 14.3878 50.115C13.4775 50.4088 12.6171 50.8203 11.283 51.4583L9.93038 52.105C9.63962 52.244 9.42354 52.347 9.25325 52.4251C9.25031 52.2378 9.25 51.9984 9.25 51.6761V36.4C9.25 33.8426 9.25175 32.0599 9.36515 30.672C9.4764 29.3104 9.68379 28.5281 9.98571 27.9356C10.6329 26.6655 11.6655 25.6329 12.9356 24.9857Z"
  />
</svg>
