<svg
  width="60"
  height="60"
  viewBox="0 0 60 60"
  fill="currentColor"
  xmlns="http://www.w3.org/2000/svg"
>
  <path
    fill-rule="evenodd"
    clip-rule="evenodd"
    d="M21.3037 5.25H38.6963C41.1348 5.24998 43.1017 5.24996 44.6944 5.38009C46.3343 5.51408 47.7747 5.79716 49.1074 6.47618C51.2242 7.55475 52.9452 9.27578 54.0238 11.3926C54.7028 12.7253 54.9859 14.1657 55.1199 15.8056C55.25 17.3983 55.25 19.3651 55.25 21.8036V37.3844C55.25 37.4793 55.25 37.5729 55.25 37.665C55.2506 39.6473 55.2509 40.9987 54.9992 42.1709C54.0698 46.4982 50.6896 49.8784 46.3623 50.8078C45.1901 51.0595 43.8387 51.0592 41.8564 51.0587C41.7643 51.0586 41.6707 51.0586 41.5758 51.0586C40.942 51.0586 40.7717 51.061 40.6178 51.0758C39.9682 51.1381 39.3461 51.3689 38.813 51.7454C38.6867 51.8346 38.556 51.9439 38.0757 52.3572L33.508 56.2877C33.1786 56.5713 32.8434 56.8598 32.5358 57.0862C32.191 57.34 31.7523 57.6152 31.1918 57.779C30.4135 58.0063 29.5865 58.0063 28.8082 57.779C28.2477 57.6152 27.809 57.34 27.4642 57.0862C27.1566 56.8598 26.8215 56.5713 26.492 56.2878L21.9243 52.3572C21.444 51.9439 21.3133 51.8346 21.187 51.7454C20.6539 51.3689 20.0318 51.1381 19.3822 51.0758C19.2283 51.061 19.058 51.0586 18.4242 51.0586C18.3293 51.0586 18.2357 51.0586 18.1436 51.0587C16.1613 51.0592 14.8099 51.0595 13.6377 50.8078C9.31045 49.8784 5.93017 46.4982 5.00081 42.1709C4.74906 40.9987 4.74942 39.6473 4.74995 37.665C4.74997 37.5728 4.75 37.4793 4.75 37.3844L4.75 21.8037C4.74998 19.3652 4.74996 17.3983 4.88009 15.8056C5.01408 14.1657 5.29715 12.7253 5.97618 11.3926C7.05475 9.27578 8.77578 7.55475 10.8926 6.47618C12.2253 5.79716 13.6657 5.51408 15.3056 5.38009C16.8983 5.24996 18.8652 5.24998 21.3037 5.25ZM15.672 9.86515C14.3104 9.9764 13.5281 10.1838 12.9356 10.4857C11.6655 11.1329 10.6329 12.1655 9.98571 13.4356C9.68379 14.0281 9.47639 14.8104 9.36514 16.172C9.25175 17.5599 9.25 19.3426 9.25 21.9V37.3844C9.25 39.7539 9.26264 40.5841 9.40049 41.226C9.9581 43.8223 11.9863 45.8505 14.5826 46.4081C15.2245 46.546 16.0547 46.5586 18.4242 46.5586C18.4537 46.5586 18.4828 46.5586 18.5116 46.5586C19.0183 46.5585 19.4165 46.5584 19.8122 46.5963C21.2414 46.7335 22.61 47.2413 23.7828 48.0696C24.1075 48.2988 24.4093 48.5586 24.7933 48.8892C24.8151 48.908 24.8372 48.927 24.8595 48.9462L29.3804 52.8365C29.6734 53.0887 29.8608 53.2488 30 53.3603C30.1392 53.2488 30.3266 53.0887 30.6196 52.8364L35.1405 48.9462C35.1628 48.927 35.1849 48.908 35.2067 48.8893C35.5907 48.5587 35.8925 48.2988 36.2172 48.0696C37.39 47.2413 38.7586 46.7335 40.1878 46.5963C40.5835 46.5584 40.9817 46.5585 41.4884 46.5586C41.5172 46.5586 41.5463 46.5586 41.5758 46.5586C43.9453 46.5586 44.7755 46.546 45.4174 46.4081C48.0137 45.8505 50.0419 43.8223 50.5995 41.226C50.7374 40.5841 50.75 39.7539 50.75 37.3844V21.9C50.75 19.3426 50.7482 17.5599 50.6349 16.172C50.5236 14.8104 50.3162 14.0281 50.0143 13.4356C49.3671 12.1655 48.3345 11.1329 47.0644 10.4857C46.4719 10.1838 45.6896 9.9764 44.328 9.86515C42.9401 9.75175 41.1574 9.75 38.6 9.75H21.4C18.8426 9.75 17.0599 9.75175 15.672 9.86515Z"
  />
  <path
    fill-rule="evenodd"
    clip-rule="evenodd"
    d="M34.409 20.409C35.2877 19.5303 36.7123 19.5303 37.591 20.409L42.3282 25.1463C42.3444 25.1625 42.3606 25.1787 42.3768 25.1948C42.7306 25.5485 43.0849 25.9028 43.3621 26.2292C43.669 26.5907 44.011 27.0634 44.2136 27.6867C44.4909 28.5403 44.4909 29.4597 44.2136 30.3133C44.011 30.9366 43.669 31.4093 43.3621 31.7708C43.0849 32.0973 42.7306 32.4515 42.3768 32.8052C42.3606 32.8214 42.3444 32.8376 42.3282 32.8537L37.591 37.591C36.7123 38.4697 35.2877 38.4697 34.409 37.591C33.5303 36.7123 33.5303 35.2877 34.409 34.409L39.1463 29.6718C39.4612 29.3569 39.6634 29.1532 39.8054 29C39.6634 28.8468 39.4612 28.6431 39.1463 28.3283L34.409 23.591C33.5303 22.7123 33.5303 21.2877 34.409 20.409Z"
  />
  <path
    fill-rule="evenodd"
    clip-rule="evenodd"
    d="M25.591 20.409C24.7123 19.5303 23.2877 19.5303 22.409 20.409L17.6717 25.1463C17.6556 25.1625 17.6394 25.1787 17.6232 25.1948C17.2694 25.5485 16.9151 25.9028 16.6379 26.2292C16.331 26.5907 15.989 27.0634 15.7864 27.6867C15.5091 28.5403 15.5091 29.4597 15.7864 30.3133C15.989 30.9366 16.331 31.4093 16.6379 31.7708C16.9151 32.0973 17.2694 32.4515 17.6232 32.8052C17.6394 32.8214 17.6556 32.8376 17.6718 32.8537L22.409 37.591C23.2877 38.4697 24.7123 38.4697 25.591 37.591C26.4697 36.7123 26.4697 35.2877 25.591 34.409L20.8537 29.6718C20.5388 29.3569 20.3366 29.1532 20.1946 29C20.3366 28.8468 20.5388 28.6431 20.8537 28.3283L25.591 23.591C26.4697 22.7123 26.4697 21.2877 25.591 20.409Z"
  />
</svg>
