<svg
  width="60"
  height="60"
  viewBox="0 0 60 60"
  fill="currentColor"
  xmlns="http://www.w3.org/2000/svg"
>
  <path
    d="M38.6963 4.25H21.3037C18.8652 4.24998 16.8983 4.24996 15.3056 4.38009C13.6657 4.51408 12.2253 4.79716 10.8926 5.47618C8.7758 6.55475 7.05476 8.27578 5.97619 10.3926C5.29717 11.7253 5.01409 13.1657 4.8801 14.8056C4.74997 16.3983 4.74999 18.3652 4.75001 20.8037L4.75001 51.3068C4.74993 52.0788 4.74985 52.8044 4.80407 53.3972C4.86019 54.0107 4.99573 54.8232 5.51001 55.5633C6.17377 56.5184 7.19997 57.1597 8.34936 57.3378C9.23992 57.4758 10.0297 57.2415 10.6057 57.0231C11.1623 56.8121 11.8144 56.4941 12.5082 56.1557L17.0031 53.9643C18.5416 53.2142 19.1273 52.934 19.7252 52.7374C20.2858 52.5532 20.862 52.4202 21.4467 52.3401C22.0703 52.2548 22.7194 52.25 24.4311 52.25H38.6964C41.1349 52.25 43.1017 52.25 44.6944 52.1199C46.3343 51.9859 47.7747 51.7028 49.1074 51.0238C51.2242 49.9452 52.9453 48.2242 54.0238 46.1074C54.7029 44.7747 54.9859 43.3343 55.1199 41.6944C55.2501 40.1017 55.25 38.1349 55.25 35.6964V20.8036C55.25 18.3652 55.2501 16.3983 55.1199 14.8056C54.9859 13.1657 54.7029 11.7253 54.0238 10.3926C52.9453 8.27578 51.2242 6.55475 49.1074 5.47618C47.7747 4.79716 46.3343 4.51408 44.6944 4.38009C43.1017 4.24996 41.1348 4.24998 38.6963 4.25Z"
  />
  <path
    d="M32.25 17C32.25 15.7574 31.2426 14.75 30 14.75C28.7574 14.75 27.75 15.7574 27.75 17V25.75L19 25.75C17.7574 25.75 16.75 26.7574 16.75 28C16.75 29.2426 17.7574 30.25 19 30.25L27.75 30.25V39C27.75 40.2426 28.7574 41.25 30 41.25C31.2426 41.25 32.25 40.2426 32.25 39V30.25L41 30.25C42.2426 30.25 43.25 29.2426 43.25 28C43.25 26.7574 42.2426 25.75 41 25.75L32.25 25.75V17Z"
    fill="white"
  />
</svg>
