<svg
  width="60"
  height="60"
  viewBox="0 0 60 60"
  fill="currentColor"
  xmlns="http://www.w3.org/2000/svg"
>
  <path
    d="M21.0615 31.9017C20.5636 30.7632 19.2371 30.2438 18.0985 30.7417C16.96 31.2396 16.4406 32.5662 16.9385 33.7047C19.1363 38.7307 24.1547 42.2498 30 42.2498C35.8453 42.2498 40.8637 38.7307 43.0615 33.7047C43.5594 32.5662 43.04 31.2396 41.9015 30.7417C40.7629 30.2438 39.4364 30.7632 38.9385 31.9017C37.4313 35.3485 33.9935 37.7498 30 37.7498C26.0064 37.7498 22.5687 35.3485 21.0615 31.9017Z"
  />
  <path
    fill-rule="evenodd"
    clip-rule="evenodd"
    d="M38.6963 5.25H21.3037C18.8652 5.24998 16.8983 5.24996 15.3056 5.38009C13.6657 5.51408 12.2253 5.79716 10.8926 6.47618C8.77578 7.55475 7.05475 9.27578 5.97617 11.3926C5.29715 12.7253 5.01407 14.1657 4.88009 15.8056C4.74996 17.3983 4.74997 19.3652 4.75 21.8037L4.74995 37.665C4.74942 39.6473 4.74906 40.9987 5.00081 42.1709C5.93017 46.4982 9.31045 49.8784 13.6377 50.8078C14.8099 51.0595 16.1613 51.0592 18.1435 51.0587L18.4242 51.0586C19.058 51.0586 19.2283 51.061 19.3822 51.0758C20.0318 51.1381 20.6539 51.3689 21.187 51.7454C21.3133 51.8346 21.444 51.9439 21.9243 52.3572L26.492 56.2878C26.8214 56.5713 27.1567 56.8599 27.4642 57.0862C27.809 57.34 28.2477 57.6152 28.8082 57.779C29.5865 58.0063 30.4135 58.0063 31.1918 57.779C31.7523 57.6152 32.191 57.34 32.5358 57.0862C32.8434 56.8598 33.1786 56.5713 33.508 56.2877L38.0757 52.3572C38.556 51.9439 38.6867 51.8346 38.813 51.7454C39.3461 51.3689 39.9682 51.1381 40.6178 51.0758C40.7717 51.061 40.942 51.0586 41.5758 51.0586L41.8564 51.0587C43.8386 51.0592 45.1901 51.0595 46.3623 50.8078C50.6895 49.8784 54.0698 46.4982 54.9992 42.1709C55.2509 40.9987 55.2506 39.6473 55.25 37.6651L55.25 21.8036C55.25 19.3652 55.25 17.3983 55.1199 15.8056C54.9859 14.1657 54.7028 12.7253 54.0238 11.3926C52.9452 9.27578 51.2242 7.55475 49.1074 6.47618C47.7747 5.79716 46.3343 5.51408 44.6944 5.38009C43.1017 5.24996 41.1348 5.24998 38.6963 5.25ZM12.9356 10.4857C13.5281 10.1838 14.3104 9.9764 15.672 9.86515C17.0599 9.75175 18.8426 9.75 21.4 9.75H38.6C41.1574 9.75 42.9401 9.75175 44.328 9.86515C45.6896 9.9764 46.4719 10.1838 47.0644 10.4857C48.3345 11.1329 49.3671 12.1655 50.0143 13.4356C50.3162 14.0281 50.5236 14.8104 50.6348 16.172C50.7482 17.5599 50.75 19.3426 50.75 21.9V37.3844C50.75 39.7539 50.7374 40.5841 50.5995 41.226C50.0419 43.8223 48.0137 45.8505 45.4174 46.4081C44.7755 46.546 43.9453 46.5586 41.5758 46.5586L41.4884 46.5586C40.9817 46.5585 40.5834 46.5584 40.1878 46.5963C38.7586 46.7335 37.39 47.2413 36.2172 48.0696C35.8925 48.2988 35.5907 48.5587 35.2067 48.8893L30.6196 52.8364C30.3266 53.0887 30.1392 53.2488 30 53.3603C29.8608 53.2488 29.6734 53.0887 29.3804 52.8365L24.7933 48.8892C24.4093 48.5586 24.1075 48.2988 23.7828 48.0696C22.61 47.2413 21.2414 46.7335 19.8122 46.5963C19.4166 46.5584 19.0184 46.5585 18.5117 46.5586L18.4242 46.5586C16.0547 46.5586 15.2245 46.546 14.5826 46.4081C11.9863 45.8505 9.9581 43.8223 9.40048 41.226C9.26264 40.5841 9.25 39.7539 9.25 37.3844V21.9C9.25 19.3426 9.25175 17.5599 9.36514 16.172C9.47639 14.8104 9.68378 14.0281 9.9857 13.4356C10.6328 12.1655 11.6655 11.1329 12.9356 10.4857Z"
  />
</svg>
