<svg
  width="60"
  height="60"
  viewBox="0 0 60 60"
  fill="currentColor"
  xmlns="http://www.w3.org/2000/svg"
>
  <path
    d="M15.75 21.3379C15.75 20.0953 16.7574 19.0879 18 19.0879H42C43.2426 19.0879 44.25 20.0953 44.25 21.3379C44.25 22.5805 43.2426 23.5879 42 23.5879H18C16.7574 23.5879 15.75 22.5805 15.75 21.3379Z"
  />
  <path
    d="M15.75 35.3379C15.75 34.0952 16.7574 33.0879 18 33.0879H36C37.2426 33.0879 38.25 34.0952 38.25 35.3379C38.25 36.5805 37.2426 37.5879 36 37.5879H18C16.7574 37.5879 15.75 36.5805 15.75 35.3379Z"
  />
  <path
    fill-rule="evenodd"
    clip-rule="evenodd"
    d="M38.6963 4.25H21.3037C18.8652 4.24998 16.8983 4.24996 15.3056 4.38009C13.6657 4.51408 12.2253 4.79716 10.8926 5.47618C8.7758 6.55475 7.05476 8.27578 5.97619 10.3926C5.29717 11.7253 5.01409 13.1657 4.8801 14.8056C4.74997 16.3983 4.74999 18.3652 4.75001 20.8037L4.75001 51.3068C4.74993 52.0788 4.74985 52.8044 4.80407 53.3972C4.86019 54.0107 4.99573 54.8232 5.51001 55.5633C6.17377 56.5184 7.19997 57.1597 8.34936 57.3378C9.23992 57.4758 10.0297 57.2415 10.6057 57.0231C11.1623 56.8121 11.8144 56.4941 12.5082 56.1557L17.0031 53.9643C18.5416 53.2142 19.1273 52.934 19.7252 52.7374C20.2858 52.5532 20.862 52.4202 21.4467 52.3401C22.0703 52.2548 22.7194 52.25 24.4311 52.25H38.6964C41.1349 52.25 43.1017 52.25 44.6944 52.1199C46.3343 51.9859 47.7747 51.7028 49.1074 51.0238C51.2242 49.9452 52.9453 48.2242 54.0238 46.1074C54.7029 44.7747 54.9859 43.3343 55.1199 41.6944C55.2501 40.1017 55.25 38.1349 55.25 35.6964V20.8036C55.25 18.3652 55.2501 16.3983 55.1199 14.8056C54.9859 13.1657 54.7029 11.7253 54.0238 10.3926C52.9453 8.27578 51.2242 6.55475 49.1074 5.47618C47.7747 4.79716 46.3343 4.51408 44.6944 4.38009C43.1017 4.24996 41.1348 4.24998 38.6963 4.25ZM12.9356 9.48571C13.5281 9.18379 14.3104 8.9764 15.6721 8.86515C17.0599 8.75175 18.8426 8.75 21.4 8.75H38.6C41.1574 8.75 42.9401 8.75175 44.328 8.86515C45.6896 8.9764 46.4719 9.18379 47.0644 9.48571C48.3345 10.1329 49.3672 11.1655 50.0143 12.4356C50.3162 13.0281 50.5236 13.8104 50.6349 15.172C50.7483 16.5599 50.75 18.3426 50.75 20.9V35.6C50.75 38.1574 50.7483 39.9401 50.6349 41.328C50.5236 42.6896 50.3162 43.4719 50.0143 44.0644C49.3672 45.3345 48.3345 46.3671 47.0644 47.0143C46.4719 47.3162 45.6896 47.5236 44.328 47.6349C42.9401 47.7482 41.1574 47.75 38.6 47.75L24.2753 47.75C22.7706 47.7498 21.8002 47.7497 20.8362 47.8818C19.9816 47.9988 19.1395 48.1931 18.3202 48.4624C17.3958 48.7662 16.5235 49.1916 15.171 49.8512L10.6163 52.0718C9.99841 52.373 9.58141 52.5748 9.26707 52.7106C9.25134 52.3686 9.25001 51.9053 9.25001 51.2178V20.9C9.25001 18.3426 9.25176 16.5599 9.36516 15.172C9.47641 13.8104 9.6838 13.0281 9.98572 12.4356C10.6329 11.1655 11.6655 10.1329 12.9356 9.48571Z"
  />
</svg>
