<svg xmlns="http://www.w3.org/2000/svg" width="16" height="16" viewBox="0 0 16 16" fill="none">
  <path d="M13.2786 10.1869L15.4665 8.00077L13.2786 5.81285V2.72113H10.1869L7.99896 0.533203L5.81285 2.72113H2.71932V5.81285L0.533203 8.00077L2.71932 10.1869V13.2804H5.81285L7.99896 15.4665L10.1869 13.2804H13.2786V10.1869Z" fill="url(#paint0_linear_15529_64095)"/>
  <path fill-rule="evenodd" clip-rule="evenodd" d="M11.5114 6.12935C11.7458 6.36366 11.7458 6.74356 11.5114 6.97788L8.18466 10.3047C7.74207 10.7473 7.02448 10.7473 6.58189 10.3047L4.76119 8.48396C4.52687 8.24964 4.52687 7.86974 4.76119 7.63543C4.9955 7.40111 5.3754 7.40111 5.60971 7.63543L7.38328 9.40899L10.6629 6.12935C10.8972 5.89503 11.2771 5.89503 11.5114 6.12935Z" fill="white"/>
  <defs>
    <linearGradient id="paint0_linear_15529_64095" x1="1.19203" y1="3.3881" x2="15.4665" y2="11.7332" gradientUnits="userSpaceOnUse">
      <stop stop-color="#8CD5B4"/>
      <stop offset="0.26451" stop-color="#ADC6FF"/>
      <stop offset="1" stop-color="#6128FF"/>
    </linearGradient>
  </defs>
</svg>