<svg xmlns="http://www.w3.org/2000/svg" width="16" height="16" viewBox="0 0 16 16" fill="none">
  <path d="M7.99994 0.733398C3.98667 0.733398 0.733276 3.9868 0.733276 8.00006C0.733276 12.0133 3.98667 15.2667 7.99994 15.2667C12.0132 15.2667 15.2666 12.0133 15.2666 8.00006C15.2666 3.9868 12.0132 0.733398 7.99994 0.733398Z" fill="#008862" fill-opacity="0.32"/>
  <path fill-rule="evenodd" clip-rule="evenodd" d="M11.7779 5.86275C12.0122 6.09706 12.0122 6.47696 11.7779 6.71128L8.18448 10.3047C7.74189 10.7473 7.0243 10.7473 6.58171 10.3047L4.49434 8.21736C4.26002 7.98304 4.26002 7.60314 4.49434 7.36883C4.72865 7.13451 5.10855 7.13451 5.34287 7.36883L7.3831 9.40906L10.9294 5.86275C11.1637 5.62843 11.5436 5.62843 11.7779 5.86275Z" fill="#20B082"/>
</svg>