<svg
  width="60"
  height="60"
  viewBox="0 0 60 60"
  fill="currentColor"
  xmlns="http://www.w3.org/2000/svg"
>
  <path
    fill-rule="evenodd"
    clip-rule="evenodd"
    d="M44.1673 22.9852C45.046 23.8639 45.046 25.2885 44.1673 26.1672L30.6919 39.6426C29.0322 41.3023 26.3412 41.3023 24.6815 39.6426L16.8538 31.815C15.9752 30.9363 15.9752 29.5117 16.8538 28.633C17.7325 27.7543 19.1571 27.7543 20.0358 28.633L27.6867 36.2838L40.9853 22.9852C41.864 22.1065 43.2886 22.1065 44.1673 22.9852Z"
  />
  <path
    fill-rule="evenodd"
    clip-rule="evenodd"
    d="M30 7.25C17.4355 7.25 7.25 17.4355 7.25 30C7.25 42.5645 17.4355 52.75 30 52.75C42.5645 52.75 52.75 42.5645 52.75 30C52.75 17.4355 42.5645 7.25 30 7.25ZM2.75 30C2.75 14.9502 14.9502 2.75 30 2.75C45.0498 2.75 57.25 14.9502 57.25 30C57.25 45.0498 45.0498 57.25 30 57.25C14.9502 57.25 2.75 45.0498 2.75 30Z"
  />
</svg>
