<svg
  width="60"
  height="60"
  viewBox="0 0 60 60"
  fill="currentColor"
  xmlns="http://www.w3.org/2000/svg"
>
  <path
    d="M17.1857 26.6571L9.75714 13.8429C14.4 7.9 21.8286 4 30 4C39.4714 4 47.8286 9.2 52.2857 16.8143H30C23.8714 16.6286 18.6714 20.9 17.1857 26.6571ZM39.2857 20.5286H54.1429C55.2571 23.5 56 26.6571 56 30C56 44.3 44.4857 55.8143 30.3714 56L40.9571 37.6143C42.4429 35.3857 43.3714 32.7857 43.3714 30C43.3714 26.2857 41.7 22.9429 39.2857 20.5286ZM20.5286 30C20.5286 24.8 24.8 20.5286 30 20.5286C35.2 20.5286 39.4714 24.8 39.4714 30C39.4714 35.2 35.2 39.4714 30 39.4714C24.8 39.4714 20.5286 35.2 20.5286 30ZM33.5286 42.8143L26.1 55.6286C13.6571 53.7714 4 43 4 30C4 25.3571 5.3 21.0857 7.34286 17.1857L17.9286 35.5714C19.9714 40.0286 24.6143 43.1857 30 43.1857C31.3 43.3714 32.4143 43.1857 33.5286 42.8143Z"
  />
</svg>
