<svg
  width="60"
  height="60"
  viewBox="0 0 60 60"
  fill="currentColor"
  xmlns="http://www.w3.org/2000/svg"
>
  <path
    d="M41.0035 35.1458L30.0099 55.993C25.4526 55.8869 20.7481 54.7338 16.7295 52.3517C12.7109 49.9696 9.4096 46.5512 7.17269 42.4558C4.93579 38.3604 3.84589 33.7393 4.01756 29.0783C4.18922 24.4173 5.61612 19.8885 8.14825 15.968L19.5334 36.0867L41.0035 35.1458Z"
    fill="#2FA14B"
  />
  <path
    d="M30.5895 17.9623L53.6022 19.244C59.6188 32.4776 53.8537 47.3912 41.0039 53.5664C36.9335 55.5226 33.193 55.993 30.0099 55.993L40.963 35.1624L30.5895 17.9623Z"
    fill="#FCBE13"
  />
  <path
    d="M19.6849 36.4023L8.14258 15.9718C15.9672 3.94849 31.8613 0.256998 44.1042 8.19283C48.2978 10.9111 51.4497 14.6925 53.6089 19.2556L30.6183 17.9686L19.6849 36.4023Z"
    fill="#E94739"
  />
  <path
    d="M18.0203 29.8471C18.0203 31.4248 18.3317 32.987 18.9367 34.4446C19.5418 35.9022 20.4286 37.2266 21.5466 38.3421C22.6646 39.4577 23.9919 40.3427 25.4526 40.9464C26.9133 41.5502 28.4789 41.8609 30.06 41.8609C31.6411 41.8609 33.2067 41.5502 34.6674 40.9464C36.1282 40.3427 37.4554 39.4577 38.5734 38.3421C39.6914 37.2266 40.5783 35.9022 41.1833 34.4446C41.7884 32.987 42.0998 31.4248 42.0998 29.8471C42.0998 26.6608 40.8313 23.6051 38.5734 21.352C36.3155 19.099 33.2532 17.8333 30.06 17.8333C26.8669 17.8333 23.8045 19.099 21.5466 21.352C19.2887 23.6051 18.0203 26.6608 18.0203 29.8471Z"
    fill="white"
  />
  <path
    d="M20.8959 30.1633C20.8959 32.5949 21.889 34.8454 23.6264 36.5872C25.3294 38.2945 27.7072 39.2002 30.06 39.2002C32.4129 39.2002 34.5236 38.3421 36.3332 36.6464C37.9969 34.9269 39.1135 32.5949 39.1135 30.1633C39.1135 27.7317 38.2069 25.414 36.4028 23.6621C34.7391 21.9427 32.413 20.9948 30.0601 20.9948C27.7073 20.9948 25.2085 21.9844 23.5448 23.7038C21.8374 25.4683 20.8959 27.7317 20.8959 30.1633Z"
    fill="#3382EF"
  />
</svg>
