<svg
  width="60"
  height="60"
  viewBox="0 0 60 60"
  fill="currentColor"
  xmlns="http://www.w3.org/2000/svg"
>
  <path
    fill-rule="evenodd"
    clip-rule="evenodd"
    d="M30 52.5C42.4264 52.5 52.5 42.4264 52.5 30C52.5 17.5736 42.4264 7.5 30 7.5C17.5736 7.5 7.5 17.5736 7.5 30C7.5 42.4264 17.5736 52.5 30 52.5ZM30 57C44.9117 57 57 44.9117 57 30C57 15.0883 44.9117 3 30 3C15.0883 3 3 15.0883 3 30C3 44.9117 15.0883 57 30 57Z"
  />
  <path
    d="M30 15C30 13.8954 30.8986 12.9878 31.9955 13.1175C35.2088 13.4973 38.2621 14.7886 40.7847 16.8588C43.825 19.3539 45.9061 22.826 46.6734 26.6835C47.4406 30.5409 46.8467 34.5451 44.9927 38.0137C43.1386 41.4824 40.1393 44.2008 36.5056 45.706C32.872 47.2111 28.8288 47.4097 25.0652 46.268C21.3015 45.1263 18.0501 42.7149 15.865 39.4447C13.6799 36.1745 12.6964 32.2478 13.0819 28.3337C13.4017 25.0861 14.6477 22.0139 16.6512 19.4733C17.3352 18.606 18.6124 18.6123 19.3934 19.3934L30 30V15Z"
  />
</svg>
