<svg
  width="60"
  height="60"
  viewBox="0 0 60 60"
  fill="currentColor"
  xmlns="http://www.w3.org/2000/svg"
>
  <path
    fill-rule="evenodd"
    clip-rule="evenodd"
    d="M30 52.5C42.4264 52.5 52.5 42.4264 52.5 30C52.5 17.5736 42.4264 7.5 30 7.5C17.5736 7.5 7.5 17.5736 7.5 30C7.5 42.4264 17.5736 52.5 30 52.5ZM30 57C44.9117 57 57 44.9117 57 30C57 15.0883 44.9117 3 30 3C15.0883 3 3 15.0883 3 30C3 44.9117 15.0883 57 30 57Z"
  />
  <path
    d="M30 15C30 13.8954 30.8985 12.9879 31.9954 13.1175C34.6512 13.4314 37.2055 14.3688 39.4447 15.865C42.2403 17.733 44.4193 20.388 45.706 23.4944C46.9926 26.6007 47.3293 30.0189 46.6734 33.3165C46.148 35.9578 45.0047 38.4268 43.3487 40.5267C42.6647 41.3941 41.3876 41.3876 40.6066 40.6066L30 30V15Z"
  />
</svg>
