<svg
  width="60"
  height="60"
  viewBox="0 0 60 60"
  fill="currentColor"
  xmlns="http://www.w3.org/2000/svg"
>
  <path
    fill-rule="evenodd"
    clip-rule="evenodd"
    d="M30 52.5C42.4264 52.5 52.5 42.4264 52.5 30C52.5 17.5736 42.4264 7.5 30 7.5C17.5736 7.5 7.5 17.5736 7.5 30C7.5 42.4264 17.5736 52.5 30 52.5ZM30 57C44.9117 57 57 44.9117 57 30C57 15.0883 44.9117 3 30 3C15.0883 3 3 15.0883 3 30C3 44.9117 15.0883 57 30 57Z"
  />
  <path
    d="M30 15C30 13.8954 30.8985 12.9879 31.9954 13.1175C33.5426 13.3004 35.0604 13.6954 36.5056 14.294C38.5682 15.1484 40.4422 16.4006 42.0208 17.9792C43.5994 19.5578 44.8516 21.4319 45.706 23.4944C46.3046 24.9396 46.6996 26.4574 46.8825 28.0046C47.0121 29.1015 46.1046 30 45 30L30 30V15Z"
  />
</svg>
