<svg
  width="60"
  height="60"
  viewBox="0 0 60 60"
  fill="currentColor"
  xmlns="http://www.w3.org/2000/svg"
>
  <path
    fill-rule="evenodd"
    clip-rule="evenodd"
    d="M30 52.5C42.4264 52.5 52.5 42.4264 52.5 30C52.5 17.5736 42.4264 7.5 30 7.5C17.5736 7.5 7.5 17.5736 7.5 30C7.5 42.4264 17.5736 52.5 30 52.5ZM30 57C44.9117 57 57 44.9117 57 30C57 15.0883 44.9117 3 30 3C15.0883 3 3 15.0883 3 30C3 44.9117 15.0883 57 30 57Z"
  />
  <path
    d="M30 15C30 13.8954 30.8985 12.9879 31.9954 13.1175C34.6512 13.4314 37.2055 14.3688 39.4447 15.865C42.2403 17.733 44.4193 20.388 45.706 23.4944C46.9926 26.6007 47.3293 30.0189 46.6734 33.3165C46.0174 36.6142 44.3983 39.6433 42.0208 42.0208C39.6433 44.3983 36.6142 46.0174 33.3165 46.6734C30.0189 47.3293 26.6007 46.9926 23.4944 45.706C20.388 44.4193 17.733 42.2403 15.865 39.4447C14.3688 37.2055 13.4314 34.6512 13.1175 31.9954C12.9879 30.8985 13.8954 30 15 30H30V15Z"
  />
</svg>
