<svg
  width="60"
  height="60"
  viewBox="0 0 60 60"
  fill="currentColor"
  xmlns="http://www.w3.org/2000/svg"
>
  <path
    d="M31.995 13.1178C30.8981 12.9882 29.9996 13.8958 29.9996 15.0003V30.0003L19.393 40.6069C18.6119 41.388 18.6055 42.6651 19.4728 43.349C21.1338 44.6588 23.0294 45.6509 25.0647 46.2683C27.74 47.0798 30.5742 47.2191 33.3161 46.6737C36.0581 46.1283 38.6232 44.9151 40.7843 43.1415C42.9453 41.368 44.6357 39.0888 45.7055 36.5059C46.7754 33.9231 47.1917 31.1162 46.9177 28.334C46.6437 25.5518 45.6877 22.8801 44.1346 20.5556C42.5814 18.2311 40.4789 16.3255 38.0133 15.0077C36.1375 14.005 34.0956 13.3661 31.995 13.1178Z"
  />
  <path
    fill-rule="evenodd"
    clip-rule="evenodd"
    d="M57 30C57 44.9117 44.9117 57 30 57C15.0883 57 3 44.9117 3 30C3 15.0883 15.0883 3 30 3C44.9117 3 57 15.0883 57 30ZM52.5 30C52.5 42.4264 42.4264 52.5 30 52.5C17.5736 52.5 7.5 42.4264 7.5 30C7.5 17.5736 17.5736 7.5 30 7.5C42.4264 7.5 52.5 17.5736 52.5 30Z"
  />
</svg>
