<svg
  width="60"
  height="60"
  viewBox="0 0 60 60"
  fill="currentColor"
  xmlns="http://www.w3.org/2000/svg"
>
  <path
    fill-rule="evenodd"
    clip-rule="evenodd"
    d="M30 52.5C42.4264 52.5 52.5 42.4264 52.5 30C52.5 17.5736 42.4264 7.5 30 7.5C17.5736 7.5 7.5 17.5736 7.5 30C7.5 42.4264 17.5736 52.5 30 52.5ZM30 57C44.9117 57 57 44.9117 57 30C57 15.0883 44.9117 3 30 3C15.0883 3 3 15.0883 3 30C3 44.9117 15.0883 57 30 57Z"
  />
  <path
    d="M30 15C30 13.8954 30.8986 12.9878 31.9955 13.1175C35.7693 13.5634 39.3067 15.265 42.0208 17.9792C45.2089 21.1673 47 25.4913 47 30C47 34.5087 45.2089 38.8327 42.0208 42.0208C39.3067 44.735 35.7693 46.4366 31.9955 46.8825C30.8986 47.0122 30 46.1046 30 45L30 15Z"
  />
</svg>
