<svg
  width="60"
  height="60"
  viewBox="0 0 60 60"
  fill="currentColor"
  xmlns="http://www.w3.org/2000/svg"
>
  <path
    fill-rule="evenodd"
    clip-rule="evenodd"
    d="M48.4592 22.456C49.1635 24.7098 47.4797 27 45.1185 27H14.8816C12.5203 27 10.8366 24.7098 11.5409 22.456C11.9975 20.9949 13.3507 20 14.8816 20H22.99C25.4807 20 27.5 17.9809 27.5 15.49V9C27.5 8.17157 28.1716 7.5 29 7.5H31C31.8285 7.5 32.5 8.17157 32.5 9V15.49C32.5 17.9808 34.5193 20 37.01 20H45.1185C46.6493 20 48.0026 20.9949 48.4592 22.456ZM8.99991 28.9237C7.15743 26.9202 6.34256 24.0039 7.24571 21.1138C8.2894 17.774 11.3825 15.5 14.8816 15.5H22.99C22.9956 15.5 23 15.4955 23 15.49V9C23 5.68629 25.6863 3 29 3H31C34.3137 3 37 5.68629 37 9V15.49C37 15.4955 37.0045 15.5 37.01 15.5H45.1185C48.6176 15.5 51.7107 17.774 52.7543 21.1138C53.6148 23.8671 52.9159 26.6443 51.2547 28.6332C51.551 30.8442 51.9999 35.2997 51.9999 42C51.9999 44.7256 51.8513 47.0798 51.6352 49.0625C51.1034 53.9404 46.7824 57 41.8755 57H16.2416C10.1699 57 5.84025 51.1109 7.65131 45.3155L8.59023 42.311C8.86178 41.442 8.99991 40.5369 8.99991 39.6265V28.9237ZM45.1185 31.5H14.8816H13.4999V39.6265C13.4999 40.9921 13.2927 42.3498 12.8854 43.6532L11.9465 46.6578C11.0409 49.5555 13.2057 52.5 16.2416 52.5H18.6391C19.174 51.5614 20.2704 49.26 20.8403 46.6071C21.4814 43.6234 21.3914 41.773 21.341 41.4559C21.1458 40.2287 21.9825 39.0756 23.2097 38.8805C24.4369 38.6853 25.59 39.5219 25.7852 40.7492C25.9506 41.7894 25.9537 44.2301 25.2399 47.5523C24.8386 49.4203 24.2278 51.1382 23.6416 52.5H31.2011C31.736 51.5614 32.8324 49.26 33.4023 46.6071C34.0434 43.6234 33.9534 41.773 33.903 41.4559C33.7078 40.2287 34.5445 39.0756 35.7717 38.8805C36.9989 38.6853 38.152 39.5219 38.3472 40.7492C38.5126 41.7894 38.5157 44.2301 37.802 47.5523C37.4007 49.4203 36.7898 51.1382 36.2036 52.5H41.8755C45.0547 52.5 46.9359 50.6456 47.1617 48.5748C47.3603 46.7531 47.4999 44.5617 47.4999 42C47.4999 37.3535 47.2773 33.8537 47.0518 31.5H45.1185Z"
  />
</svg>
