<svg
  width="60"
  height="60"
  viewBox="0 0 60 60"
  fill="currentColor"
  xmlns="http://www.w3.org/2000/svg"
>
  <path
    fill-rule="evenodd"
    clip-rule="evenodd"
    d="M9.00003 28.9238C7.15746 26.9203 6.34254 24.004 7.24571 21.1138C8.2894 17.774 11.3825 15.5 14.8816 15.5H22.984L22.9878 15.5L22.9912 15.4998C22.9925 15.4997 22.9936 15.4994 22.9946 15.4989C22.9964 15.498 22.998 15.4964 22.9989 15.4945C23 15.4924 23 15.4896 23 15.484V10C23 9.07116 23 8.60674 23.0514 8.21684C23.4058 5.52444 25.5245 3.40579 28.2169 3.05133C28.6068 3 29.0712 3 30 3C30.9289 3 31.3933 3 31.7832 3.05133C34.4756 3.40579 36.5942 5.52444 36.9487 8.21684C37 8.60674 37 9.07116 37 10V15.484L37.0001 15.4898C37.0002 15.4918 37.0005 15.4933 37.0011 15.4945C37.0021 15.4964 37.0036 15.498 37.0055 15.4989C37.0076 15.5 37.0104 15.5 37.016 15.5H45.1185C48.6176 15.5 51.7107 17.774 52.7543 21.1138C53.6147 23.8671 52.9159 26.6442 51.2548 28.6331C51.5511 30.844 52 35.2996 52 42C52 42.7628 51.9884 43.4965 51.9669 44.201C51.8858 46.8587 51.8453 48.1876 50.5103 50.6749C49.6053 52.3609 46.9996 54.8884 45.2868 55.7415C42.7599 57 40.8403 57 37.001 57H19.072C16.5328 57 15.2632 57 14.3076 56.7897C9.89465 55.8186 6.88583 51.7261 7.27523 47.2244C7.35956 46.2495 7.73825 45.0377 8.49563 42.6141C8.59011 42.3117 8.63735 42.1606 8.67906 42.0086C8.86416 41.3342 8.97003 40.6405 8.99451 39.9416C9.00003 39.7841 9.00003 39.6257 9.00003 39.3089V28.9238ZM11.5409 22.456C11.9975 20.9949 13.3507 20 14.8816 20L22.9887 20L23.0015 20L23.0158 19.9999L23.0585 19.9994C23.102 19.9987 23.2143 19.9966 23.357 19.9849C23.637 19.962 24.2963 19.8861 25.0375 19.5084C25.8861 19.076 26.5761 18.3861 27.0085 17.5375C27.3861 16.7963 27.4621 16.137 27.4849 15.857C27.4966 15.7143 27.4988 15.602 27.4995 15.5584C27.4999 15.5325 27.5 15.5119 27.5 15.5015L27.5 15.4887L27.5 10C27.5 9.51527 27.5003 9.22672 27.5053 9.00906C27.5084 8.87068 27.5128 8.8105 27.5139 8.79611C27.6054 8.12956 28.1296 7.60533 28.7962 7.51392C28.8106 7.51274 28.8708 7.5084 29.0091 7.50524C29.2267 7.50027 29.5153 7.5 30 7.5C30.4848 7.5 30.7733 7.50027 30.991 7.50524C31.1293 7.5084 31.1895 7.51274 31.2039 7.51392C31.8705 7.60533 32.3947 8.12956 32.4861 8.79611C32.4873 8.8105 32.4916 8.87068 32.4948 9.00906C32.4998 9.22672 32.5 9.51527 32.5 10L32.5 15.4887L32.5001 15.5015L32.5002 15.5205L32.5006 15.5584C32.5013 15.602 32.5034 15.7143 32.5151 15.857C32.538 16.137 32.6139 16.7963 32.9916 17.5375C33.424 18.3861 34.1139 19.076 34.9625 19.5084C35.7037 19.8861 36.3631 19.962 36.643 19.9849C36.7857 19.9966 36.898 19.9987 36.9416 19.9994C36.9675 19.9998 36.9881 19.9999 36.9985 20L37.0114 20L45.1185 20C46.6493 20 48.0026 20.9949 48.4592 22.456C49.1635 24.7098 47.4797 27 45.1185 27H14.8816C12.5203 27 10.8366 24.7098 11.5409 22.456ZM13.5 31.5L13.5 39.3621C13.5001 39.627 13.5001 39.8608 13.4918 40.0991C13.455 41.1475 13.2962 42.188 13.0186 43.1997C12.9555 43.4296 12.8857 43.6526 12.8067 43.9053L12.7908 43.9563C11.9536 46.6352 11.7895 47.2535 11.7585 47.6122C11.5638 49.863 13.0682 51.9093 15.2747 52.3949C15.6074 52.4681 16.1976 52.4969 18.6389 52.4998C19.1739 51.561 20.2701 49.2598 20.84 46.6071C21.481 43.6234 21.3911 41.773 21.3407 41.4559C21.1455 40.2287 21.9821 39.0756 23.2094 38.8805C24.4366 38.6853 25.5896 39.5219 25.7848 40.7492C25.9502 41.7894 25.9533 44.2301 25.2396 47.5523C24.8383 49.4203 24.2275 51.1382 23.6413 52.5H31.2012C31.7362 51.5614 32.8326 49.26 33.4025 46.6071C34.0435 43.6234 33.9536 41.773 33.9032 41.4559C33.708 40.2287 34.5446 39.0756 35.7719 38.8805C36.9991 38.6853 38.1521 39.5219 38.3473 40.7492C38.5127 41.7894 38.5158 44.2301 37.8021 47.5523C37.4008 49.4203 36.79 51.1382 36.2038 52.5H37.001C40.9642 52.5 41.836 52.4329 43.2806 51.7134C43.5391 51.5847 44.2332 51.1005 45.0684 50.2904C45.9035 49.4804 46.4087 48.8013 46.5453 48.5468C47.0476 47.611 47.206 47.0886 47.2894 46.6539C47.396 46.0986 47.4257 45.4825 47.469 44.0638C47.4891 43.4049 47.5 42.717 47.5 42C47.5 37.3535 47.2775 33.8537 47.0519 31.5H13.5Z"
  />
</svg>
