<svg
  width="60"
  height="60"
  viewBox="0 0 60 60"
  fill="currentColor"
  xmlns="http://www.w3.org/2000/svg"
>
  <path
    fill-rule="evenodd"
    clip-rule="evenodd"
    d="M25.7066 2.74988C24.1352 2.74884 22.921 2.74804 21.8645 3.03112C19.398 3.69201 17.3993 5.44937 16.4131 7.75854C15.2829 7.77724 14.3814 7.83569 13.5652 8.01665C9.29669 8.96295 5.96307 12.2966 5.01677 16.565C4.7491 17.7724 4.74949 19.1663 4.75005 21.2106L4.7501 38.6963C4.75008 41.1348 4.75006 43.1017 4.88019 44.6944C5.01418 46.3343 5.29726 47.7747 5.97628 49.1074C7.05486 51.2242 8.77589 52.9452 10.8927 54.0238C12.2254 54.7028 13.6658 54.9859 15.3057 55.1199C16.8984 55.25 18.8652 55.25 21.3037 55.25H38.6965C41.1349 55.25 43.1018 55.25 44.6945 55.1199C46.3344 54.9859 47.7748 54.7028 49.1075 54.0238C51.2243 52.9452 52.9454 51.2242 54.0239 49.1074C54.7029 47.7747 54.986 46.3343 55.12 44.6944C55.2501 43.1017 55.2501 41.1349 55.2501 38.6964L55.2502 21.2106C55.2507 19.1663 55.2511 17.7724 54.9834 16.565C54.0371 12.2966 50.7035 8.96295 46.435 8.01665C45.6186 7.83565 44.7169 7.77722 43.5865 7.75853C42.6002 5.44937 40.6015 3.69201 38.135 3.03112C37.0786 2.74804 35.8643 2.74884 34.2929 2.74988H25.7066ZM44.25 12.2789C44.2501 12.4186 44.25 12.5612 44.2499 12.7069V13.2932C44.2509 14.8646 44.2517 16.0788 43.9687 17.1353C43.2058 19.9823 40.982 22.206 38.135 22.9689C37.0786 23.252 35.8643 23.2512 34.2929 23.2501H25.7066C24.1352 23.2512 22.921 23.252 21.8645 22.9689C19.0175 22.206 16.7937 19.9823 16.0309 17.1353C15.7478 16.0788 15.7486 14.8646 15.7496 13.2932V12.7069C15.7495 12.5612 15.7494 12.4186 15.7496 12.2789C15.2056 12.3014 14.8507 12.3409 14.5391 12.41C11.9781 12.9778 9.97788 14.9779 9.41011 17.539C9.26355 18.2001 9.2501 19.0561 9.2501 21.5V38.6C9.2501 41.1573 9.25185 42.94 9.36525 44.3279C9.4765 45.6896 9.68389 46.4719 9.98581 47.0644C10.633 48.3345 11.6656 49.3671 12.9357 50.0143C13.5282 50.3162 14.3105 50.5236 15.6721 50.6348C17.06 50.7482 18.8427 50.75 21.4001 50.75H38.6001C41.1575 50.75 42.9402 50.7482 44.3281 50.6348C45.6897 50.5236 46.472 50.3162 47.0645 50.0143C48.3346 49.3671 49.3673 48.3345 50.0144 47.0644C50.3163 46.4719 50.5237 45.6896 50.635 44.3279C50.7484 42.94 50.7501 41.1573 50.7501 38.6V21.5C50.7501 19.0561 50.7367 18.2001 50.5901 17.539C50.0223 14.9779 48.0221 12.9778 45.4611 12.41C45.1494 12.3409 44.7943 12.3014 44.25 12.2789ZM23.0292 7.37779C23.4339 7.26933 23.995 7.25001 25.9998 7.25001H33.9998C36.0046 7.25001 36.5656 7.26933 36.9703 7.37779C38.2644 7.72454 39.2752 8.73534 39.622 10.0294C39.7304 10.4342 39.7498 10.9952 39.7498 13C39.7498 15.0048 39.7304 15.5658 39.622 15.9706C39.2752 17.2647 38.2644 18.2755 36.9703 18.6222C36.5656 18.7307 36.0046 18.75 33.9998 18.75H25.9998C23.995 18.75 23.4339 18.7307 23.0292 18.6222C21.7351 18.2755 20.7243 17.2647 20.3775 15.9706C20.2691 15.5658 20.2498 15.0048 20.2498 13C20.2498 10.9952 20.2691 10.4342 20.3775 10.0294C20.7243 8.73534 21.7351 7.72454 23.0292 7.37779Z"
  />
</svg>
