<svg
  width="60"
  height="60"
  viewBox="0 0 60 60"
  fill="currentColor"
  xmlns="http://www.w3.org/2000/svg"
>
  <path
    fill-rule="evenodd"
    clip-rule="evenodd"
    d="M8.34903 52.9601C1.22197 45.8331 1.22196 34.2778 8.34903 27.1507L27.3556 8.14417C34.3116 1.18817 45.5895 1.18817 52.5455 8.14417C59.5015 15.1002 59.5015 26.3781 52.5455 33.3341L38.0551 47.8245C33.9282 51.9514 27.2372 51.9514 23.1102 47.8245C18.9833 43.6976 18.9834 37.0065 23.1103 32.8796L36.6266 19.3633C37.5053 18.4846 38.9299 18.4846 39.8086 19.3633C40.6872 20.242 40.6872 21.6666 39.8086 22.5453L26.2922 36.0616C23.9227 38.4312 23.9227 42.273 26.2922 44.6425C28.6618 47.012 32.5036 47.012 34.8731 44.6425L49.3635 30.1521C54.5622 24.9535 54.5622 16.5248 49.3635 11.3262C44.1649 6.12751 35.7362 6.12751 30.5376 11.3262L11.531 30.3327C6.1613 35.7024 6.16131 44.4084 11.531 49.7781L12.7391 50.9862C13.6177 51.8649 13.6177 53.2895 12.7391 54.1682C11.8604 55.0468 10.4358 55.0468 9.55708 54.1682L8.34903 52.9601Z"
  />
</svg>
