<svg
  width="60"
  height="60"
  viewBox="0 0 60 60"
  fill="currentColor"
  xmlns="http://www.w3.org/2000/svg"
>
  <path
    fill-rule="evenodd"
    clip-rule="evenodd"
    d="M49.0919 49.0919C44.2058 53.9779 37.4558 57 30 57C15.0883 57 3 44.9117 3 30C3 15.0883 15.0883 3 30 3C37.3393 3 43.9947 5.92838 48.8615 10.6805C49.0727 10.8867 49.2805 11.0964 49.4849 11.3094C54.104 16.1235 56.9562 22.6458 56.9995 29.8341C57.0002 29.9489 57.0002 30.0638 56.9994 30.1787C56.9524 37.4328 54.0447 44.0079 49.3478 48.8325C49.2631 48.9195 49.1778 49.006 49.0919 49.0919ZM45.9099 45.9099C41.8382 49.9816 36.2132 52.5 30 52.5C17.5736 52.5 7.5 42.4264 7.5 30C7.5 17.5736 17.5736 7.5 30 7.5V30L45.9099 45.9099Z"
  />
</svg>
