<svg
  width="60"
  height="60"
  viewBox="0 0 60 60"
  fill="currentColor"
  xmlns="http://www.w3.org/2000/svg"
>
  <path
    fill-rule="evenodd"
    clip-rule="evenodd"
    d="M30 3C37.32 3 43.9596 5.91293 48.8229 10.6428C49.081 10.8939 49.3342 11.1501 49.5821 11.4112C54.1793 16.2525 57 22.7968 57 30C57 44.9117 44.9117 57 30 57C29.9918 57 29.9836 57 29.9754 57C22.5293 56.9934 15.7888 53.9726 10.9081 49.0919C10.7483 48.932 10.5904 48.7702 10.4346 48.6064C5.82758 43.7634 3 37.2119 3 30C3 15.0883 15.0883 3 30 3ZM14.0901 14.0901L30 30V7.5C23.7868 7.5 18.1618 10.0184 14.0901 14.0901Z"
  />
</svg>
