<svg
  width="60"
  height="60"
  viewBox="0 0 60 60"
  fill="currentColor"
  xmlns="http://www.w3.org/2000/svg"
>
  <path
    fill-rule="evenodd"
    clip-rule="evenodd"
    d="M48.5928 10.4217C43.7512 5.82231 37.2052 3.00002 30.0001 3C30.0001 3 30.0001 3 30.0001 3C15.0884 3 3 15.0883 3 30C3 44.8908 15.0544 56.9661 29.9373 56.9999C29.9843 57 30.0313 57 30.0783 56.9999C37.2374 56.9796 43.7412 54.173 48.5622 49.6074C48.9253 49.2636 49.2784 48.9102 49.6211 48.5476C54.0923 43.8193 56.8729 37.4756 56.9958 30.4837C57.0016 30.1601 57.0015 29.8362 56.9957 29.5122C56.8717 22.5132 54.0845 16.164 49.6044 11.4347C49.2761 11.088 48.9388 10.7502 48.5928 10.4217ZM14.0901 45.9099L30.0001 30V7.5C30.0001 7.5 30.0001 7.5 30.0001 7.5C17.5737 7.5 7.5 17.5736 7.5 30C7.5 36.2132 10.0184 41.8382 14.0901 45.9099Z"
  />
</svg>
