<svg
  width="60"
  height="60"
  viewBox="0 0 60 60"
  fill="currentColor"
  xmlns="http://www.w3.org/2000/svg"
>
  <path
    fill-rule="evenodd"
    clip-rule="evenodd"
    d="M30 3C37.4558 3 44.2058 6.02208 49.0919 10.9081C53.9779 15.7942 57 22.5442 57 30C57 44.9117 44.9117 57 30 57C15.0883 57 3 44.9117 3 30C3 15.0883 15.0883 3 30 3ZM45.9099 14.0901C49.9816 18.1618 52.5 23.7868 52.5 30C52.5 42.4264 42.4264 52.5 30 52.5C17.5736 52.5 7.5 42.4264 7.5 30C7.5 17.5736 17.5736 7.5 30 7.5V30L45.9099 14.0901Z"
  />
</svg>
