<svg
  width="60"
  height="60"
  viewBox="0 0 60 60"
  fill="currentColor"
  xmlns="http://www.w3.org/2000/svg"
>
  <path
    fill-rule="evenodd"
    clip-rule="evenodd"
    d="M48.8615 10.6805C43.9947 5.92838 37.3393 3 30 3C15.0883 3 3 15.0883 3 30C3 37.251 5.85828 43.8344 10.5096 48.6849C10.7157 48.8999 10.9254 49.1115 11.1385 49.3195C16.0053 54.0716 22.6607 57 30 57C44.9117 57 57 44.9117 57 30C57 22.7281 54.1252 16.1276 49.45 11.2731C49.2569 11.0725 49.0607 10.875 48.8615 10.6805ZM7.5 30L30 30L30 7.5C17.5736 7.5 7.5 17.5736 7.5 30Z"
  />
</svg>
