<svg
  width="60"
  height="60"
  viewBox="0 0 60 60"
  fill="currentColor"
  xmlns="http://www.w3.org/2000/svg"
>
  <path
    fill-rule="evenodd"
    clip-rule="evenodd"
    d="M30 3C37.3102 3 43.9419 5.90518 48.8035 10.624C48.9003 10.718 48.9965 10.8127 49.0919 10.9081C49.111 10.9272 49.13 10.9463 49.1491 10.9655C49.2252 11.042 49.3008 11.1191 49.376 11.1965C54.0651 16.0274 56.9633 22.6062 56.9997 29.8618C56.9999 29.9078 57 29.9539 57 30C57 30.0461 56.9999 30.0922 56.9997 30.1382C56.9633 37.3938 54.0651 43.9726 49.376 48.8035C49.282 48.9003 49.1873 48.9965 49.0919 49.0919C49.006 49.1778 48.9195 49.2631 48.8325 49.3478C43.9683 54.0832 37.3248 57 30 57C15.0883 57 3 44.9117 3 30C3 15.0883 15.0883 3 30 3ZM30 52.5V7.5C17.5736 7.5 7.5 17.5736 7.5 30C7.5 42.4264 17.5736 52.5 30 52.5Z"
  />
</svg>
