<svg
  width="60"
  height="60"
  viewBox="0 0 60 60"
  fill="currentColor"
  xmlns="http://www.w3.org/2000/svg"
>
  <path
    d="M41.5909 18.4093C42.4696 19.2879 42.4696 20.7126 41.5909 21.5912L33.1822 29.9999L41.591 38.4087C42.4697 39.2873 42.4697 40.712 41.591 41.5906C40.7123 42.4693 39.2877 42.4693 38.409 41.5906L30.0002 33.1819L21.5915 41.5906C20.7128 42.4693 19.2882 42.4693 18.4095 41.5906C17.5308 40.712 17.5308 39.2873 18.4095 38.4087L26.8183 29.9999L18.4096 21.5912C17.5309 20.7126 17.5309 19.2879 18.4096 18.4093C19.2883 17.5306 20.7129 17.5306 21.5916 18.4093L30.0002 26.8179L38.4089 18.4093C39.2876 17.5306 40.7122 17.5306 41.5909 18.4093Z"
  />
  <path
    fill-rule="evenodd"
    clip-rule="evenodd"
    d="M2.75 30C2.75 14.9502 14.9502 2.75 30 2.75C45.0498 2.75 57.25 14.9502 57.25 30C57.25 45.0498 45.0498 57.25 30 57.25C14.9502 57.25 2.75 45.0498 2.75 30ZM30 7.25C17.4355 7.25 7.25 17.4355 7.25 30C7.25 42.5645 17.4355 52.75 30 52.75C42.5645 52.75 52.75 42.5645 52.75 30C52.75 17.4355 42.5645 7.25 30 7.25Z"
  />
</svg>
