<svg xmlns="http://www.w3.org/2000/svg" width="16" height="16" viewBox="0 0 16 16" fill="none">
  <path d="M7.99994 0.733398C3.98667 0.733398 0.733276 3.9868 0.733276 8.00006C0.733276 12.0133 3.98667 15.2667 7.99994 15.2667C12.0132 15.2667 15.2666 12.0133 15.2666 8.00006C15.2666 3.9868 12.0132 0.733398 7.99994 0.733398Z" fill="#D6DAFF" fill-opacity="0.16"/>
  <path d="M11.091 5.75766C11.3253 5.52335 11.3253 5.14345 11.091 4.90913C10.8566 4.67482 10.4767 4.67482 10.2424 4.90913L8.00012 7.15145L5.75781 4.90913C5.52349 4.67482 5.14359 4.67482 4.90928 4.90913C4.67497 5.14345 4.67497 5.52335 4.90928 5.75766L7.15159 7.99997L4.90926 10.2423C4.67494 10.4766 4.67494 10.8565 4.90926 11.0908C5.14357 11.3252 5.52347 11.3252 5.75778 11.0908L8.00012 8.8485L10.2425 11.0908C10.4768 11.3252 10.8567 11.3252 11.091 11.0908C11.3253 10.8565 11.3253 10.4766 11.091 10.2423L8.84865 7.99997L11.091 5.75766Z" fill="#D6DAFF" fill-opacity="0.56"/>
</svg>