<svg width="18" height="18" viewBox="0 0 18 18" fill="none" xmlns="http://www.w3.org/2000/svg">
  <path
    d="M8.99995 0.825195C4.48502 0.825195 0.824951 4.48527 0.824951 9.0002C0.824951 13.5151 4.48502 17.1752 8.99995 17.1752C13.5149 17.1752 17.175 13.5151 17.175 9.0002C17.175 4.48527 13.5149 0.825195 8.99995 0.825195Z"
    fill="#E55649" />
  <path
    d="M12.4773 6.47749C12.7409 6.21389 12.7409 5.7865 12.4773 5.5229C12.2137 5.25929 11.7863 5.25929 11.5227 5.5229L9.00012 8.0455L6.47752 5.5229C6.21391 5.25929 5.78653 5.25929 5.52292 5.5229C5.25932 5.7865 5.25932 6.21389 5.52292 6.47749L8.04553 9.00009L5.5229 11.5227C5.25929 11.7863 5.25929 12.2137 5.5229 12.4773C5.7865 12.7409 6.21389 12.7409 6.47749 12.4773L9.00012 9.95469L11.5227 12.4773C11.7864 12.7409 12.2137 12.7409 12.4773 12.4773C12.7409 12.2137 12.7409 11.7863 12.4773 11.5227L9.95471 9.00009L12.4773 6.47749Z"
    fill="white" />
</svg>