<svg
  width="60"
  height="60"
  viewBox="0 0 60 60"
  fill="currentColor"
  xmlns="http://www.w3.org/2000/svg"
>
  <path
    d="M30 2.75C14.9502 2.75 2.75 14.9502 2.75 30C2.75 45.0498 14.9502 57.25 30 57.25C45.0498 57.25 57.25 45.0498 57.25 30C57.25 14.9502 45.0498 2.75 30 2.75Z"
  />
  <path
    d="M41.5909 21.5912C42.4696 20.7126 42.4696 19.2879 41.5909 18.4093C40.7122 17.5306 39.2876 17.5306 38.4089 18.4093L30.0002 26.8179L21.5916 18.4093C20.7129 17.5306 19.2883 17.5306 18.4096 18.4093C17.5309 19.2879 17.5309 20.7126 18.4096 21.5912L26.8183 29.9999L18.4095 38.4087C17.5308 39.2873 17.5308 40.712 18.4095 41.5906C19.2882 42.4693 20.7128 42.4693 21.5915 41.5906L30.0002 33.1819L38.409 41.5906C39.2877 42.4693 40.7123 42.4693 41.591 41.5906C42.4697 40.712 42.4697 39.2873 41.591 38.4087L33.1822 29.9999L41.5909 21.5912Z"
    fill="white"
  />
</svg>
