<svg
  width="60"
  height="60"
  viewBox="0 0 60 60"
  fill="currentColor"
  xmlns="http://www.w3.org/2000/svg"
>
  <path
    fill-rule="evenodd"
    clip-rule="evenodd"
    d="M39.1763 35.5939C38.2232 31.2213 33.9661 28.4634 30.0246 28.5103C26.0066 28.5581 21.7698 31.2634 20.8236 35.5947C20.5338 36.9216 19.3907 37.9557 17.967 38.0281C15.956 38.1305 13.9131 38.6742 12.4334 39.7227C11.047 40.7051 10.07 42.1741 10.07 44.5204C10.07 46.9617 11.1213 48.3077 12.6461 49.1668C14.3259 50.1132 16.6704 50.4904 19.04 50.4904H40.96C43.3296 50.4904 45.6741 50.1132 47.3539 49.1668C48.8787 48.3077 49.93 46.9617 49.93 44.5204C49.93 42.1741 48.953 40.7051 47.5666 39.7227C46.0869 38.6742 44.044 38.1305 42.033 38.0281C40.6098 37.9557 39.4658 36.922 39.1763 35.5939ZM43.0309 33.9511C41.3029 27.8467 35.3632 24.3064 29.9754 24.3706C24.6601 24.4339 18.7048 27.8375 16.9696 33.951C14.6597 34.1713 12.122 34.8694 10.0398 36.3448C7.62479 38.056 5.93 40.7518 5.93 44.5204C5.93 48.5588 7.8787 51.2327 10.6139 52.7737C13.1941 54.2274 16.3696 54.6304 19.04 54.6304H40.96C43.6304 54.6304 46.8059 54.2274 49.3861 52.7737C52.1213 51.2327 54.07 48.5588 54.07 44.5204C54.07 40.7518 52.3752 38.056 49.9602 36.3448C47.8782 34.8695 45.3408 34.1715 43.0309 33.9511Z"
  />
  <path
    fill-rule="evenodd"
    clip-rule="evenodd"
    d="M27.5 18.25C23.4959 18.25 20.25 21.4959 20.25 25.5C20.25 26.7426 19.2426 27.75 18 27.75C16.7574 27.75 15.75 26.7426 15.75 25.5C15.75 19.0107 21.0107 13.75 27.5 13.75C32.4642 13.75 36.704 16.8276 38.4261 21.1707C38.8841 22.3258 38.319 23.6336 37.1638 24.0916C36.0087 24.5496 34.7009 23.9845 34.2429 22.8293C33.1778 20.1431 30.5573 18.25 27.5 18.25Z"
  />
  <path
    fill-rule="evenodd"
    clip-rule="evenodd"
    d="M5.75 25C5.75 23.7574 6.75736 22.75 8 22.75H12C13.2426 22.75 14.25 23.7574 14.25 25C14.25 26.2426 13.2426 27.25 12 27.25H8C6.75736 27.25 5.75 26.2426 5.75 25Z"
  />
  <path
    fill-rule="evenodd"
    clip-rule="evenodd"
    d="M11.409 9.40901C12.2877 8.53033 13.7123 8.53033 14.591 9.40901L17.4194 12.2374C18.2981 13.1161 18.2981 14.5407 17.4194 15.4194C16.5407 16.2981 15.1161 16.2981 14.2374 15.4194L11.409 12.591C10.5303 11.7123 10.5303 10.2877 11.409 9.40901Z"
  />
  <path
    fill-rule="evenodd"
    clip-rule="evenodd"
    d="M49.25 25C49.25 23.7574 48.2426 22.75 47 22.75H43C41.7574 22.75 40.75 23.7574 40.75 25C40.75 26.2426 41.7574 27.25 43 27.25H47C48.2426 27.25 49.25 26.2426 49.25 25Z"
  />
  <path
    fill-rule="evenodd"
    clip-rule="evenodd"
    d="M43.4191 9.40901C42.5404 8.53033 41.1158 8.53033 40.2371 9.40901L37.4087 12.2374C36.53 13.1161 36.53 14.5407 37.4087 15.4194C38.2874 16.2981 39.712 16.2981 40.5907 15.4194L43.4191 12.591C44.2978 11.7123 44.2978 10.2877 43.4191 9.40901Z"
  />
  <path
    fill-rule="evenodd"
    clip-rule="evenodd"
    d="M27 3.75C28.2426 3.75 29.25 4.75736 29.25 6V10C29.25 11.2426 28.2426 12.25 27 12.25C25.7574 12.25 24.75 11.2426 24.75 10V6C24.75 4.75736 25.7574 3.75 27 3.75Z"
  />
</svg>
