<svg
  width="60"
  height="60"
  viewBox="0 0 60 60"
  fill="currentColor"
  xmlns="http://www.w3.org/2000/svg"
>
  <path
    fill-rule="evenodd"
    clip-rule="evenodd"
    d="M41.4857 21.4228C39.8634 21.6843 38.0325 22.374 36.7004 24.1501C35.9548 25.1442 36.1562 26.5546 37.1504 27.3001C38.1445 28.0457 39.5548 27.8442 40.3004 26.8501C41.0186 25.8925 42.2734 25.7469 44.3136 25.7772C44.4624 25.7794 44.608 25.7672 44.7492 25.7417C49.2875 26.2082 52.2251 29.5425 53.2919 33.7839C54.4307 38.3122 53.2447 43.167 50.1335 45.6843C47.3558 47.9318 44.9602 48.8587 42.0656 48.8373L42.049 48.8372H13.1892C8.46782 48.4689 6.01132 44.9265 5.8914 41.2208C5.83093 39.3521 6.38375 37.5593 7.47074 36.2213C8.52806 34.9198 10.1929 33.9181 12.6583 33.7443C12.695 33.7417 12.7315 33.7397 12.7679 33.7384C12.8921 33.7514 13.018 33.7541 13.1443 33.746C14.4583 33.8483 15.5447 34.7263 16.4093 35.5908C17.2879 36.4695 18.7126 36.4695 19.5912 35.5908C20.4699 34.7122 20.4699 33.2875 19.5912 32.4089C18.7846 31.6023 17.0613 29.9686 14.5829 29.4201C12.7421 24.5064 13.2334 20.5506 14.8318 17.6139C16.5902 14.3832 19.8552 12.0799 23.6495 11.1111C27.4413 10.143 31.5787 10.5578 34.9566 12.537C37.7917 14.1981 40.2336 17.043 41.4857 21.4228ZM9.90479 29.6457C8.21282 24.2241 8.748 19.3783 10.8793 15.4626C13.3315 10.9573 17.7379 7.97613 22.5362 6.75101C27.337 5.52527 32.7135 6.00719 37.2315 8.65436C41.4243 11.1109 44.7109 15.3356 46.123 21.3855C52.4405 22.4241 56.3146 27.3527 57.656 32.6864C59.094 38.4042 57.8043 45.2662 52.964 49.1826C49.5639 51.9336 46.1889 53.3659 42.0408 53.3372H13.106C13.0532 53.3372 13.0005 53.3353 12.9478 53.3316C5.50425 52.8068 1.57619 47.004 1.39375 41.3663C1.30273 38.5535 2.12516 35.6647 3.97804 33.3839C5.41731 31.6122 7.41602 30.2865 9.90479 29.6457Z"
  />
</svg>
