<svg
  width="60"
  height="60"
  viewBox="0 0 60 60"
  fill="currentColor"
  xmlns="http://www.w3.org/2000/svg"
>
  <path
    fill-rule="evenodd"
    clip-rule="evenodd"
    d="M30 9.25C24.1178 9.25 19.2115 13.6179 17.8377 19.3343C17.533 20.602 16.5173 21.575 15.2414 21.8279C13.2617 22.2205 11.2442 23.1093 9.75221 24.5655C8.31034 25.9728 7.25 28.0089 7.25 31C7.25 36.6105 10.8855 39.4984 14.5544 40.4313C15.7588 40.7375 16.4868 41.962 16.1806 43.1663C15.8744 44.3707 14.6499 45.0987 13.4456 44.7925C8.30672 43.4859 2.75 39.1646 2.75 31C2.75 26.8007 4.29653 23.6023 6.60905 21.3452C8.66585 19.3377 11.2367 18.1588 13.6484 17.5723C15.6732 10.4387 22.0291 4.75 30 4.75C37.9709 4.75 44.3268 10.4387 46.3516 17.5723C48.7633 18.1588 51.3342 19.3377 53.391 21.3452C55.7035 23.6023 57.25 26.8007 57.25 31C57.25 39.1646 51.6933 43.4859 46.5544 44.7925C45.3501 45.0987 44.1256 44.3707 43.8194 43.1663C43.5132 41.962 44.2412 40.7375 45.4456 40.4313C49.1146 39.4984 52.75 36.6105 52.75 31C52.75 28.0089 51.6897 25.9728 50.2478 24.5655C48.7558 23.1093 46.7383 22.2205 44.7586 21.8279C43.4827 21.575 42.467 20.602 42.1623 19.3343C40.7885 13.6179 35.8822 9.25 30 9.25Z"
  />
  <path
    fill-rule="evenodd"
    clip-rule="evenodd"
    d="M32.7537 41.25L25.638 51.7366C24.9402 52.7649 25.2082 54.1641 26.2364 54.8618C27.2647 55.5595 28.6639 55.2916 29.3616 54.2633L37.8018 41.8249C39.266 39.667 37.7203 36.7501 35.1125 36.75L27.2574 36.75L34.3542 26.3379C35.0541 25.3111 34.789 23.9114 33.7622 23.2115C32.7354 22.5116 31.3357 22.7767 30.6358 23.8035L22.2071 36.1695C20.7366 38.3269 22.2817 41.2499 24.8926 41.2499L32.7537 41.25Z"
  />
</svg>
