<svg
  width="60"
  height="60"
  viewBox="0 0 60 60"
  fill="currentColor"
  xmlns="http://www.w3.org/2000/svg"
>
  <path
    fill-rule="evenodd"
    clip-rule="evenodd"
    d="M26.7705 17.7189C27.0629 12.1149 30.4832 7.34299 35.3097 5.10864C36.6159 4.50393 37.9163 4.90924 38.7283 5.60534C39.5103 6.2756 40.0218 7.33982 39.9244 8.50885C39.7651 10.4212 40.0099 13.8278 43.0912 16.909C46.1724 19.9903 49.579 20.2351 51.4913 20.0758C52.6602 19.9784 53.7245 20.4898 54.3948 21.2717C55.091 22.0837 55.4963 23.3841 54.8916 24.6904C53.6954 27.2745 51.7729 29.4549 49.3838 30.9684C50.1361 31.4376 50.857 31.991 51.5199 32.638C53.6474 34.7146 55.0702 37.6571 55.0702 41.5204C55.0702 46.0704 53.1664 49.4128 50.5137 51.5769C47.9254 53.6884 44.6914 54.6304 41.9602 54.6304H18.0402C15.3089 54.6304 12.075 53.6884 9.48667 51.5769C6.83392 49.4128 4.93018 46.0704 4.93018 41.5204C4.93018 37.6571 6.35298 34.7146 8.4805 32.638C10.3728 30.7911 12.738 29.7066 14.9567 29.1669C16.5366 23.6008 20.9827 18.9908 26.7705 17.7189ZM31.3057 17.4263C31.6114 14.4895 33.1572 11.919 35.4144 10.2509C35.5747 13.0192 36.5488 16.7306 39.9092 20.091C43.2695 23.4513 46.9808 24.4254 49.7491 24.5858C48.5072 26.2659 46.7651 27.5523 44.7462 28.2259C42.7473 22.497 37.6768 17.9746 31.3057 17.4263ZM18.8109 30.788C20.0747 25.5289 24.5886 21.5104 30.0002 21.5104C35.4118 21.5104 39.9256 25.5289 41.1895 30.788C41.4698 31.9543 42.4043 32.8494 43.5781 33.0821C45.3994 33.4433 47.2555 34.261 48.6281 35.6007C49.9547 36.8954 50.9302 38.7686 50.9302 41.5204C50.9302 44.7905 49.6139 46.9681 47.8967 48.369C46.115 49.8224 43.8289 50.4904 41.9602 50.4904H18.0402C16.1714 50.4904 13.8854 49.8224 12.1037 48.369C10.3864 46.9681 9.07018 44.7905 9.07018 41.5204C9.07018 38.7686 10.0457 36.8954 11.3722 35.6007C12.7448 34.261 14.6009 33.4433 16.4223 33.0821C17.5961 32.8494 18.5306 31.9543 18.8109 30.788Z"
  />
  <path
    d="M6.75018 14C6.75018 12.7574 7.75754 11.75 9.00018 11.75H11.7502V9.00001C11.7502 7.75737 12.7575 6.75001 14.0002 6.75001C15.2428 6.75001 16.2502 7.75737 16.2502 9.00001V11.75H19.0002C20.2428 11.75 21.2502 12.7574 21.2502 14C21.2502 15.2426 20.2428 16.25 19.0002 16.25H16.2502V19C16.2502 20.2426 15.2428 21.25 14.0002 21.25C12.7575 21.25 11.7502 20.2426 11.7502 19V16.25H9.00018C7.75754 16.25 6.75018 15.2426 6.75018 14Z"
  />
</svg>
