<svg
  width="60"
  height="60"
  viewBox="0 0 60 60"
  fill="currentColor"
  xmlns="http://www.w3.org/2000/svg"
>
  <path
    fill-rule="evenodd"
    clip-rule="evenodd"
    d="M26.8077 17.7108C27.4593 10.4448 33.5647 4.75 41.0002 4.75C48.8702 4.75 55.2502 11.1299 55.2502 19C55.2502 23.887 52.7912 28.1968 49.0442 30.7635C49.9192 31.2741 50.7579 31.8943 51.5199 32.638C53.6474 34.7145 55.0702 37.6571 55.0702 41.5204C55.0702 46.0704 53.1664 49.4128 50.5137 51.5769C47.9254 53.6884 44.6914 54.6304 41.9602 54.6304H18.0402C15.3089 54.6304 12.075 53.6884 9.48667 51.5769C6.83392 49.4128 4.93018 46.0704 4.93018 41.5204C4.93018 37.6571 6.35298 34.7145 8.4805 32.638C10.3728 30.7911 12.738 29.7066 14.9567 29.1669C16.54 23.5889 21.0017 18.9711 26.8077 17.7108ZM31.3755 17.4325C32.1253 12.7929 36.149 9.25 41.0002 9.25C46.385 9.25 50.7502 13.6152 50.7502 19C50.7502 23.0817 48.2404 26.5816 44.6777 28.0334C42.6408 22.4167 37.6424 18.0012 31.3755 17.4325ZM18.8109 30.788C20.0747 25.5289 24.5886 21.5104 30.0002 21.5104C35.4118 21.5104 39.9256 25.5289 41.1895 30.788C41.4698 31.9542 42.4043 32.8494 43.5781 33.0821C45.3994 33.4433 47.2555 34.261 48.6281 35.6007C49.9547 36.8954 50.9302 38.7686 50.9302 41.5204C50.9302 44.7905 49.6139 46.968 47.8967 48.369C46.115 49.8224 43.8289 50.4904 41.9602 50.4904H18.0402C16.1714 50.4904 13.8854 49.8224 12.1037 48.369C10.3864 46.968 9.07018 44.7905 9.07018 41.5204C9.07018 38.7686 10.0457 36.8954 11.3722 35.6007C12.7448 34.261 14.6009 33.4433 16.4223 33.0821C17.5961 32.8494 18.5306 31.9542 18.8109 30.788Z"
  />
</svg>
