<svg
  width="60"
  height="60"
  viewBox="0 0 60 60"
  fill="currentColor"
  xmlns="http://www.w3.org/2000/svg"
>
  <path
    fill-rule="evenodd"
    clip-rule="evenodd"
    d="M30 9.25C24.1518 9.25 19.2685 13.5669 17.8616 19.2362C17.5066 20.667 16.2625 21.6776 14.8241 21.7725C12.9765 21.8944 11.0365 22.5058 9.61 23.6559C8.26046 24.744 7.25 26.3994 7.25 29C7.25 31.7674 8.39769 33.6187 9.99176 34.8377C11.659 36.1126 13.9049 36.75 16 36.75H44C46.0951 36.75 48.341 36.1126 50.0082 34.8377C51.6023 33.6187 52.75 31.7674 52.75 29C52.75 26.3994 51.7395 24.744 50.39 23.6559C48.9635 22.5058 47.0235 21.8944 45.1759 21.7725C43.7375 21.6776 42.4934 20.667 42.1384 19.2362C40.7315 13.567 35.8482 9.25 30 9.25ZM13.7104 17.3586C15.7999 10.3264 22.1086 4.75 30 4.75C37.8914 4.75 44.2001 10.3264 46.2896 17.3586C48.6083 17.6382 51.143 18.4825 53.2145 20.1528C55.6095 22.0837 57.25 25.0204 57.25 29C57.25 33.2326 55.3977 36.3813 52.7418 38.4123C50.159 40.3874 46.9049 41.25 44 41.25H16C13.0951 41.25 9.84102 40.3874 7.25824 38.4123C4.60231 36.3813 2.75 33.2326 2.75 29C2.75 25.0204 4.39054 22.0837 6.78549 20.1528C8.85699 18.4825 11.3917 17.6382 13.7104 17.3586Z"
  />
  <path
    fill-rule="evenodd"
    clip-rule="evenodd"
    d="M13.75 53C13.75 51.7574 14.7574 50.75 16 50.75H32C33.2426 50.75 34.25 51.7574 34.25 53C34.25 54.2426 33.2426 55.25 32 55.25H16C14.7574 55.25 13.75 54.2426 13.75 53Z"
  />
  <path
    fill-rule="evenodd"
    clip-rule="evenodd"
    d="M22.75 46C22.75 44.7574 23.7574 43.75 25 43.75H46C47.2426 43.75 48.25 44.7574 48.25 46C48.25 47.2426 47.2426 48.25 46 48.25H25C23.7574 48.25 22.75 47.2426 22.75 46Z"
  />
  <path
    fill-rule="evenodd"
    clip-rule="evenodd"
    d="M36.75 53C36.75 51.7574 37.7574 50.75 39 50.75H44C45.2426 50.75 46.25 51.7574 46.25 53C46.25 54.2426 45.2426 55.25 44 55.25H39C37.7574 55.25 36.75 54.2426 36.75 53Z"
  />
  <path
    fill-rule="evenodd"
    clip-rule="evenodd"
    d="M11.75 46C11.75 44.7574 12.7574 43.75 14 43.75H19C20.2426 43.75 21.25 44.7574 21.25 46C21.25 47.2426 20.2426 48.25 19 48.25H14C12.7574 48.25 11.75 47.2426 11.75 46Z"
  />
</svg>
