<svg
  width="60"
  height="60"
  viewBox="0 0 60 60"
  fill="currentColor"
  xmlns="http://www.w3.org/2000/svg"
>
  <path
    fill-rule="evenodd"
    clip-rule="evenodd"
    d="M30 14.25C24.1178 14.25 19.2115 18.6179 17.8377 24.3343C17.533 25.602 16.5173 26.575 15.2414 26.8279C13.2617 27.2205 11.2442 28.1093 9.75221 29.5655C8.31034 30.9728 7.25 33.0089 7.25 36C7.25 39.5544 8.68071 41.9213 10.5473 43.4441C12.4839 45.0239 14.9687 45.75 17 45.75H43C45.0313 45.75 47.5161 45.0239 49.4527 43.4441C51.3193 41.9213 52.75 39.5544 52.75 36C52.75 33.0089 51.6897 30.9728 50.2478 29.5655C48.7558 28.1093 46.7383 27.2205 44.7586 26.8279C43.4827 26.575 42.467 25.602 42.1623 24.3343C40.7885 18.6179 35.8822 14.25 30 14.25ZM13.6484 22.5723C15.6732 15.4387 22.0291 9.75 30 9.75C37.9709 9.75 44.3268 15.4387 46.3516 22.5723C48.7633 23.1588 51.3342 24.3377 53.391 26.3452C55.7035 28.6023 57.25 31.8007 57.25 36C57.25 40.9456 55.1807 44.5787 52.2973 46.9309C49.4839 49.2261 45.9687 50.25 43 50.25H17C14.0313 50.25 10.5161 49.2261 7.70271 46.9309C4.81929 44.5787 2.75 40.9456 2.75 36C2.75 31.8007 4.29653 28.6023 6.60905 26.3452C8.66585 24.3377 11.2367 23.1588 13.6484 22.5723Z"
  />
</svg>
