<svg
  width="60"
  height="60"
  viewBox="0 0 60 60"
  fill="currentColor"
  xmlns="http://www.w3.org/2000/svg"
>
  <path
    fill-rule="evenodd"
    clip-rule="evenodd"
    d="M30 9.25C24.1178 9.25 19.2115 13.6179 17.8377 19.3343C17.533 20.602 16.5173 21.575 15.2414 21.8279C13.2617 22.2205 11.2442 23.1093 9.75221 24.5655C8.31034 25.9728 7.25 28.0089 7.25 31C7.25 36.6105 10.8855 39.4984 14.5544 40.4313C15.7588 40.7375 16.4868 41.962 16.1806 43.1663C15.8744 44.3707 14.6499 45.0987 13.4456 44.7925C8.30672 43.4859 2.75 39.1646 2.75 31C2.75 26.8007 4.29653 23.6023 6.60905 21.3452C8.66585 19.3377 11.2367 18.1588 13.6484 17.5723C15.6732 10.4387 22.0291 4.75 30 4.75C37.9709 4.75 44.3268 10.4387 46.3516 17.5723C48.7633 18.1588 51.3342 19.3377 53.391 21.3452C55.7035 23.6023 57.25 26.8007 57.25 31C57.25 39.1646 51.6933 43.4859 46.5544 44.7925C45.3501 45.0987 44.1256 44.3707 43.8194 43.1663C43.5132 41.962 44.2412 40.7375 45.4456 40.4313C49.1146 39.4984 52.75 36.6105 52.75 31C52.75 28.0089 51.6897 25.9728 50.2478 24.5655C48.7558 23.1093 46.7383 22.2205 44.7586 21.8279C43.4827 21.575 42.467 20.602 42.1623 19.3343C40.7885 13.6179 35.8822 9.25 30 9.25Z"
  />
  <path
    fill-rule="evenodd"
    clip-rule="evenodd"
    d="M21 27.75C22.2426 27.75 23.25 28.7574 23.25 30V49C23.25 50.2426 22.2426 51.25 21 51.25C19.7574 51.25 18.75 50.2426 18.75 49V30C18.75 28.7574 19.7574 27.75 21 27.75Z"
  />
  <path
    fill-rule="evenodd"
    clip-rule="evenodd"
    d="M30 31.75C31.2426 31.75 32.25 32.7574 32.25 34V53C32.25 54.2426 31.2426 55.25 30 55.25C28.7574 55.25 27.75 54.2426 27.75 53V34C27.75 32.7574 28.7574 31.75 30 31.75Z"
  />
  <path
    fill-rule="evenodd"
    clip-rule="evenodd"
    d="M39 27.75C40.2426 27.75 41.25 28.7574 41.25 30V49C41.25 50.2426 40.2426 51.25 39 51.25C37.7574 51.25 36.75 50.2426 36.75 49V30C36.75 28.7574 37.7574 27.75 39 27.75Z"
  />
</svg>
