<svg
  width="60"
  height="60"
  viewBox="0 0 60 60"
  fill="currentColor"
  xmlns="http://www.w3.org/2000/svg"
>
  <path
    fill-rule="evenodd"
    clip-rule="evenodd"
    d="M30 9.25C24.1178 9.25 19.2115 13.6179 17.8377 19.3343C17.533 20.602 16.5173 21.575 15.2414 21.8279C13.2617 22.2205 11.2442 23.1093 9.75221 24.5655C8.31034 25.9728 7.25 28.0089 7.25 31C7.25 36.6105 10.8855 39.4984 14.5544 40.4313C15.7588 40.7375 16.4868 41.962 16.1806 43.1663C15.8744 44.3707 14.6499 45.0987 13.4456 44.7925C8.30672 43.4859 2.75 39.1646 2.75 31C2.75 26.8007 4.29653 23.6023 6.60905 21.3452C8.66585 19.3377 11.2367 18.1588 13.6484 17.5723C15.6732 10.4387 22.0291 4.75 30 4.75C37.9709 4.75 44.3268 10.4387 46.3516 17.5723C48.7633 18.1588 51.3342 19.3377 53.391 21.3452C55.7035 23.6023 57.25 26.8007 57.25 31C57.25 39.1646 51.6933 43.4859 46.5544 44.7925C45.3501 45.0987 44.1256 44.3707 43.8194 43.1663C43.5132 41.962 44.2412 40.7375 45.4456 40.4313C49.1146 39.4984 52.75 36.6105 52.75 31C52.75 28.0089 51.6897 25.9728 50.2478 24.5655C48.7558 23.1093 46.7383 22.2205 44.7586 21.8279C43.4827 21.575 42.467 20.602 42.1623 19.3343C40.7885 13.6179 35.8822 9.25 30 9.25Z"
  />
  <path
    fill-rule="evenodd"
    clip-rule="evenodd"
    d="M25.0195 28.4584C26.1872 28.8835 26.7893 30.1746 26.3643 31.3423L19.8659 49.1965C19.4409 50.3642 18.1498 50.9662 16.9821 50.5412C15.8144 50.1162 15.2123 48.8251 15.6373 47.6574L22.1357 29.8032C22.5607 28.6355 23.8518 28.0334 25.0195 28.4584Z"
  />
  <path
    fill-rule="evenodd"
    clip-rule="evenodd"
    d="M32.2676 32.8857C33.4353 33.3107 34.0374 34.6018 33.6124 35.7695L27.114 53.6237C26.689 54.7914 25.3978 55.3935 24.2301 54.9685C23.0624 54.5435 22.4603 53.2523 22.8854 52.0846L29.3837 34.2305C29.8087 33.0628 31.0999 32.4607 32.2676 32.8857Z"
  />
  <path
    fill-rule="evenodd"
    clip-rule="evenodd"
    d="M43.0195 28.4584C44.1872 28.8835 44.7893 30.1746 44.3643 31.3423L37.8659 49.1965C37.4409 50.3642 36.1498 50.9662 34.9821 50.5412C33.8144 50.1162 33.2123 48.8251 33.6373 47.6574L40.1357 29.8032C40.5607 28.6355 41.8518 28.0334 43.0195 28.4584Z"
  />
</svg>
