<svg
  width="60"
  height="60"
  viewBox="0 0 60 60"
  fill="currentColor"
  xmlns="http://www.w3.org/2000/svg"
>
  <path
    fill-rule="evenodd"
    clip-rule="evenodd"
    d="M13.9163 2.75H46.0836C47.114 2.74994 48.0361 2.74988 48.7648 2.81561C49.4646 2.87873 50.4746 3.02963 51.307 3.71056C52.3272 4.54525 52.9025 5.80613 52.8641 7.12378C52.8327 8.1987 52.2847 9.06038 51.8736 9.63026C51.4456 10.2237 50.8412 10.92 50.1658 11.698L34.0667 30.2471C33.6927 30.6781 33.3245 31.1024 32.9836 31.4331C32.7805 31.6302 32.5389 31.8432 32.2499 32.0358L32.2499 52.75H41.9999C43.2426 52.75 44.2499 53.7574 44.2499 55C44.2499 56.2426 43.2426 57.25 41.9999 57.25H17.9999C16.7573 57.25 15.7499 56.2426 15.7499 55C15.7499 53.7574 16.7573 52.75 17.9999 52.75H27.7499L27.7499 32.0358C27.461 31.8432 27.2194 31.6302 27.0163 31.4331C26.6754 31.1024 26.3072 30.6781 25.9333 30.2471L9.83415 11.6981C9.15875 10.9201 8.55427 10.2237 8.12625 9.63026C7.71522 9.06039 7.16716 8.1987 7.13584 7.12378C7.09745 5.80613 7.67266 4.54525 8.69293 3.71056C9.52526 3.02963 10.5353 2.87873 11.2351 2.81561C11.9638 2.74988 12.8859 2.74994 13.9163 2.75ZM11.9852 7.27426C12.2791 7.6478 12.6965 8.13079 13.297 8.82271L18.0452 14.2934C22.8466 12.3334 27.1184 13.5552 30.6574 14.5673L30.8403 14.6196C34.7893 15.7479 37.8639 16.5577 41.4382 14.7705C41.4937 14.7428 41.5498 14.7175 41.6064 14.6948L46.7029 8.82271C47.3034 8.13079 47.7208 7.6478 48.0147 7.27426C47.5399 7.25139 46.9016 7.25001 45.9854 7.25001H14.0145C13.0983 7.25001 12.46 7.25139 11.9852 7.27426ZM36.7312 20.3118C34.1916 20.2585 31.8631 19.5925 29.7869 18.9987L29.604 18.9465C26.5006 18.0598 23.9372 17.3697 21.2469 17.9823L29.2825 27.2407C29.6156 27.6245 29.8337 27.8742 30 28.0506C30.1662 27.8742 30.3843 27.6245 30.7174 27.2407L36.7312 20.3118Z"
  />
</svg>
