<svg
  width="60"
  height="60"
  viewBox="0 0 60 60"
  fill="currentColor"
  xmlns="http://www.w3.org/2000/svg"
>
  <path
    d="M34.409 20.409C35.2877 19.5303 36.7123 19.5303 37.591 20.409L43.1768 25.9948C44.8365 27.6545 44.8365 30.3455 43.1768 32.0052L37.591 37.591C36.7123 38.4697 35.2877 38.4697 34.409 37.591C33.5303 36.7123 33.5303 35.2877 34.409 34.409L39.818 29L34.409 23.591C33.5303 22.7123 33.5303 21.2877 34.409 20.409Z"
  />
  <path
    d="M22.409 20.409C23.2877 19.5303 24.7123 19.5303 25.591 20.409C26.4697 21.2877 26.4697 22.7123 25.591 23.591L20.182 29L25.591 34.409C26.4697 35.2877 26.4697 36.7123 25.591 37.591C24.7123 38.4697 23.2877 38.4697 22.409 37.591L16.8232 32.0052C15.1635 30.3455 15.1635 27.6545 16.8232 25.9948L22.409 20.409Z"
  />
  <path
    fill-rule="evenodd"
    clip-rule="evenodd"
    d="M21.3037 5.25H38.6963C41.1348 5.24998 43.1017 5.24996 44.6944 5.38009C46.3343 5.51408 47.7747 5.79716 49.1074 6.47618C51.2242 7.55475 52.9453 9.27578 54.0238 11.3926C54.7029 12.7253 54.9859 14.1657 55.1199 15.8056C55.25 17.3983 55.25 19.3651 55.25 21.8036V39.3C55.25 40.9024 55.2501 42.2399 55.1608 43.3326C55.0677 44.4723 54.8663 45.5422 54.3508 46.554C53.5599 48.1064 52.2978 49.3685 50.7454 50.1594C49.7336 50.6749 48.6637 50.8763 47.524 50.9694C46.4313 51.0587 45.0938 51.0586 43.4914 51.0586H42.3118C40.8979 51.0586 40.5205 51.0704 40.1828 51.1435C39.835 51.2188 39.4996 51.3432 39.1869 51.513C38.8833 51.6778 38.5895 51.9151 37.5177 52.8373L33.508 56.2877C33.1786 56.5713 32.8434 56.8598 32.5358 57.0862C32.191 57.34 31.7523 57.6152 31.1918 57.779C30.4135 58.0063 29.5865 58.0063 28.8082 57.779C28.2477 57.6152 27.809 57.34 27.4642 57.0862C27.1567 56.8599 26.8216 56.5714 26.4922 56.2879L22.4823 52.8373C21.4105 51.9151 21.1167 51.6778 20.8131 51.513C20.5004 51.3432 20.165 51.2188 19.8172 51.1435C19.4795 51.0704 19.1021 51.0586 17.6882 51.0586H16.5086C14.9062 51.0586 13.5687 51.0587 12.476 50.9694C11.3363 50.8763 10.2664 50.6749 9.25458 50.1594C7.70224 49.3685 6.44016 48.1064 5.6492 46.554C5.13367 45.5422 4.93234 44.4723 4.83922 43.3326C4.74995 42.2399 4.74997 40.9024 4.75 39.3L4.75 21.8037C4.74998 19.3652 4.74996 17.3983 4.88009 15.8056C5.01408 14.1657 5.29716 12.7253 5.97618 11.3926C7.05476 9.27578 8.77579 7.55475 10.8926 6.47618C12.2253 5.79716 13.6657 5.51408 15.3056 5.38009C16.8983 5.24996 18.8652 5.24998 21.3037 5.25ZM15.672 9.86515C14.3104 9.9764 13.5281 10.1838 12.9356 10.4857C11.6655 11.1329 10.6329 12.1655 9.98571 13.4356C9.68379 14.0281 9.4764 14.8104 9.36515 16.172C9.25175 17.5599 9.25 19.3426 9.25 21.9V39.2086C9.25 40.9259 9.25175 42.0785 9.32428 42.9662C9.39465 43.8275 9.5203 44.2394 9.65873 44.5111C10.0183 45.2167 10.5919 45.7904 11.2975 46.1499C11.5692 46.2883 11.9811 46.414 12.8424 46.4843C13.7301 46.5569 14.8827 46.5586 16.6 46.5586L17.8829 46.5585C19.0121 46.5579 19.9013 46.5575 20.7692 46.7453C21.5344 46.911 22.2722 47.1847 22.9602 47.5583C23.7406 47.9819 24.4144 48.5623 25.2699 49.2993L29.3804 52.8365C29.6734 53.0887 29.8608 53.2488 30 53.3603C30.1392 53.2488 30.3266 53.0887 30.6197 52.8364L34.7301 49.2993C35.5857 48.5623 36.2594 47.9819 37.0398 47.5583C37.7278 47.1847 38.4656 46.911 39.2308 46.7453C40.0987 46.5575 40.9879 46.5579 42.1171 46.5585L43.4 46.5586C45.1173 46.5586 46.2699 46.5569 47.1576 46.4843C48.0189 46.414 48.4308 46.2883 48.7025 46.1499C49.4081 45.7904 49.9818 45.2167 50.3413 44.5111C50.4797 44.2394 50.6054 43.8275 50.6757 42.9662C50.7483 42.0785 50.75 40.9259 50.75 39.2086V21.9C50.75 19.3426 50.7483 17.5599 50.6349 16.172C50.5236 14.8104 50.3162 14.0281 50.0143 13.4356C49.3672 12.1655 48.3345 11.1329 47.0644 10.4857C46.4719 10.1838 45.6896 9.9764 44.328 9.86515C42.9401 9.75175 41.1574 9.75 38.6 9.75H21.4C18.8426 9.75 17.0599 9.75175 15.672 9.86515Z"
  />
</svg>
