<svg
  xmlns="http://www.w3.org/2000/svg"
  width="14"
  height="14"
  viewBox="0 0 14 14"
  fill="currentColor"
>
  <path
    d="M4.85325 10.1149C4.69014 10.3324 4.39074 10.3874 4.16282 10.25L4.11838 10.22L0.882706 7.79342L0.834627 7.75492C0.369903 7.36053 0.369903 6.63947 0.834627 6.24508L0.882706 6.20658L4.11838 3.78005C4.35034 3.60611 4.67929 3.65314 4.85325 3.88509C5.02718 4.11705 4.98015 4.44599 4.7482 4.61995L1.57519 7L4.7482 9.38005L4.78967 9.41445C4.98525 9.5948 5.01629 9.89748 4.85325 10.1149Z"
  />
  <path
    d="M9.14667 10.1149C9.30978 10.3324 9.60918 10.3874 9.8371 10.25L9.88154 10.22L13.1172 7.79342L13.1653 7.75492C13.63 7.36053 13.63 6.63947 13.1653 6.24508L13.1172 6.20658L9.88154 3.78005C9.64958 3.60611 9.32063 3.65314 9.14667 3.88509C8.97273 4.11705 9.01977 4.44599 9.25172 4.61995L12.4247 7L9.25172 9.38005L9.21025 9.41445C9.01467 9.5948 8.98363 9.89748 9.14667 10.1149Z"
  />
  <path
    d="M6.58133 11.7696C6.52446 12.054 6.24788 12.2384 5.96357 12.1816C5.67933 12.1247 5.49508 11.8481 5.55188 11.5638L7.4186 2.23033L7.43171 2.17827C7.51 1.92396 7.76978 1.76534 8.03632 1.81865C8.3206 1.87555 8.50486 2.15208 8.448 2.43637L6.58133 11.7696Z"
  />
</svg>
