<svg
  width="60"
  height="60"
  viewBox="0 0 60 60"
  fill="currentColor"
  xmlns="http://www.w3.org/2000/svg"
>
  <path
    fill-rule="evenodd"
    clip-rule="evenodd"
    d="M45.7198 4.74995C46.898 4.74936 47.807 4.74891 48.6095 4.90854C51.8822 5.55952 54.4405 8.11783 55.0915 11.3905C55.2511 12.193 55.2507 13.102 55.2501 14.2801V14.7199C55.2507 15.898 55.2511 16.807 55.0915 17.6095C54.4405 20.8822 51.8822 23.4405 48.6095 24.0915C47.807 24.2511 46.898 24.2507 45.7198 24.2501L45.25 24.25V28.6964C45.25 31.1349 45.25 33.1017 45.1199 34.6944C44.9859 36.3343 44.7029 37.7748 44.0238 39.1074C42.9453 41.2242 41.2242 42.9453 39.1074 44.0238C37.7747 44.7029 36.3343 44.9859 34.6944 45.1199C33.1017 45.2501 31.1349 45.25 28.6964 45.25H22.3036C19.8652 45.25 17.8983 45.2501 16.3056 45.1199C14.6657 44.9859 13.2253 44.7029 11.8926 44.0238C9.77579 42.9453 8.05476 41.2242 6.97618 39.1074C6.29716 37.7748 6.01408 36.3343 5.88009 34.6944C5.74996 33.1017 5.74998 31.1348 5.75 28.6963L5.75 16.5087C5.74997 14.9063 5.74995 13.5687 5.83922 12.476C5.93234 11.3364 6.13367 10.2664 6.6492 9.2546C7.44016 7.70226 8.70224 6.44017 10.2546 5.64922C11.2664 5.13368 12.3363 4.93235 13.476 4.83924C14.5687 4.74996 15.9062 4.74999 17.5087 4.75002L45.7198 4.74995ZM45.5 9.25002C47.0018 9.25002 47.4241 9.26092 47.7316 9.32207C49.2192 9.61797 50.382 10.7808 50.6779 12.2684C50.7391 12.5759 50.75 12.9982 50.75 14.5C50.75 16.0018 50.7391 16.4241 50.6779 16.7316C50.382 18.2192 49.2192 19.3821 47.7316 19.678C47.4241 19.7391 47.0018 19.75 45.5 19.75H45.25V9.25002H45.5ZM13.8424 9.32429C12.9811 9.39467 12.5692 9.52032 12.2975 9.65875C11.5919 10.0183 11.0183 10.5919 10.6587 11.2976C10.5203 11.5692 10.3947 11.9811 10.3243 12.8425C10.2518 13.7301 10.25 14.8827 10.25 16.6V28.6C10.25 31.1574 10.2518 32.9401 10.3651 34.328C10.4764 35.6896 10.6838 36.4719 10.9857 37.0645C11.6329 38.3345 12.6655 39.3672 13.9356 40.0143C14.5281 40.3162 15.3104 40.5236 16.672 40.6349C18.0599 40.7483 19.8426 40.75 22.4 40.75H28.6C31.1574 40.75 32.9401 40.7483 34.328 40.6349C35.6896 40.5236 36.4719 40.3162 37.0644 40.0143C38.3345 39.3672 39.3672 38.3345 40.0143 37.0645C40.3162 36.4719 40.5236 35.6896 40.6349 34.328C40.7483 32.9401 40.75 31.1574 40.75 28.6V9.25002H17.6C15.8827 9.25002 14.7301 9.25177 13.8424 9.32429Z"
  />
  <path
    d="M5.75 53C5.75 51.7574 6.75736 50.75 8 50.75H44C45.2426 50.75 46.25 51.7574 46.25 53C46.25 54.2427 45.2426 55.25 44 55.25H8C6.75736 55.25 5.75 54.2427 5.75 53Z"
  />
</svg>
