<svg
  width="60"
  height="60"
  viewBox="0 0 60 60"
  fill="currentColor"
  xmlns="http://www.w3.org/2000/svg"
>
  <path
    fill-rule="evenodd"
    clip-rule="evenodd"
    d="M21.2165 1.60042C22.0952 0.721736 23.5198 0.721736 24.3985 1.60042L51.3989 28.6009C52.2776 29.4796 52.2776 30.9042 51.3989 31.7829L28.8335 54.3483C25.6117 57.5702 20.388 57.5702 17.1662 54.3484L3.00817 40.1903C-0.213658 36.9685 -0.21366 31.7449 3.00816 28.523L23.9826 7.54856L21.2165 4.7824C20.3378 3.90372 20.3378 2.4791 21.2165 1.60042ZM27.1646 10.7305L6.19015 31.705C4.72568 33.1695 4.72568 35.5438 6.19015 37.0083L20.3482 51.1664C21.8127 52.6308 24.187 52.6308 25.6515 51.1664L46.626 30.1919L27.1646 10.7305Z"
  />
  <path
    fill-rule="evenodd"
    clip-rule="evenodd"
    d="M50.9999 53.5C52.9999 53.5 54.4999 51.9224 54.4999 50.125C54.4999 48.9256 53.6119 47.2557 51.8055 45.4352C51.5362 45.1638 51.265 44.9078 50.9999 44.6696C50.7347 44.9078 50.4635 45.1638 50.1942 45.4352C48.3878 47.2557 47.4999 48.9256 47.4999 50.125C47.4999 51.9224 48.9998 53.5 50.9999 53.5ZM48.6042 42.8093C48.6024 42.8081 48.6024 42.8082 48.6042 42.8093V42.8093ZM50.9999 58C55.4181 58 58.9999 54.4742 58.9999 50.125C58.9999 44 50.9999 39 50.9999 39C50.9999 39 42.9999 44 42.9999 50.125C42.9999 54.4742 46.5816 58 50.9999 58Z"
  />
  <path
    fill-rule="evenodd"
    clip-rule="evenodd"
    d="M41.9999 40.25H3.99985V35.75H41.9999V40.25Z"
  />
</svg>
