<svg
  width="60"
  height="60"
  viewBox="0 0 60 60"
  fill="currentColor"
  xmlns="http://www.w3.org/2000/svg"
>
  <path
    fill-rule="evenodd"
    clip-rule="evenodd"
    d="M13.8 6.75L13.71 6.75H13.7099C12.2465 6.74997 11.0138 6.74994 10.0044 6.83241C8.94811 6.91871 7.93989 7.10642 6.98158 7.5947C5.52332 8.33772 4.33772 9.52332 3.5947 10.9816C3.10642 11.9399 2.91871 12.9481 2.83241 14.0044C2.74994 15.0138 2.74997 16.2465 2.75 17.7099V17.71L2.75 17.8V42.2L2.75 42.29V42.2901C2.74997 43.7535 2.74994 44.9862 2.83241 45.9956C2.91871 47.0519 3.10642 48.0601 3.5947 49.0184C4.33772 50.4767 5.52332 51.6623 6.98158 52.4053C7.93989 52.8936 8.94811 53.0813 10.0044 53.1676C11.0137 53.2501 12.2464 53.25 13.7099 53.25H13.7099H13.8H17.2H17.2901H17.2902C18.7536 53.25 19.9863 53.2501 20.9956 53.1676C22.0519 53.0813 23.0601 52.8936 24.0184 52.4053C25.4767 51.6623 26.6623 50.4767 27.4053 49.0184C27.8936 48.0601 28.0813 47.0519 28.1676 45.9956C28.2501 44.9862 28.25 43.7535 28.25 42.2901V42.29V42.2V17.8V17.71V17.7099C28.25 16.2465 28.2501 15.0138 28.1676 14.0044C28.0813 12.9481 27.8936 11.9399 27.4053 10.9816C26.6623 9.52332 25.4767 8.33772 24.0184 7.5947C23.0601 7.10642 22.0519 6.91871 20.9956 6.83241C19.9862 6.74994 18.7535 6.74997 17.2901 6.75H17.29L17.2 6.75H13.8ZM9.02454 11.6042C9.24274 11.4931 9.59284 11.381 10.3708 11.3175C11.1751 11.2518 12.2227 11.25 13.8 11.25H17.2C18.7773 11.25 19.8249 11.2518 20.6292 11.3175C21.4072 11.381 21.7573 11.4931 21.9755 11.6042C22.587 11.9158 23.0842 12.413 23.3958 13.0245C23.507 13.2427 23.619 13.5928 23.6825 14.3708C23.7483 15.1751 23.75 16.2227 23.75 17.8V42.2C23.75 43.7773 23.7483 44.8249 23.6825 45.6292C23.619 46.4072 23.507 46.7573 23.3958 46.9755C23.0842 47.587 22.587 48.0842 21.9755 48.3958C21.7573 48.507 21.4072 48.619 20.6292 48.6825C19.8249 48.7482 18.7773 48.75 17.2 48.75H13.8C12.2227 48.75 11.1751 48.7482 10.3708 48.6825C9.59284 48.619 9.24274 48.507 9.02454 48.3958C8.41301 48.0842 7.91582 47.587 7.60423 46.9755C7.49305 46.7573 7.38103 46.4072 7.31746 45.6292C7.25175 44.8249 7.25 43.7773 7.25 42.2V17.8C7.25 16.2227 7.25175 15.1751 7.31746 14.3708C7.38103 13.5928 7.49305 13.2427 7.60423 13.0245C7.91582 12.413 8.41301 11.9158 9.02454 11.6042ZM42.8 6.75L42.71 6.75H42.7099C41.2465 6.74997 40.0138 6.74994 39.0044 6.83241C37.9481 6.91871 36.9399 7.10642 35.9816 7.5947C34.5233 8.33772 33.3377 9.52332 32.5947 10.9816C32.1064 11.9399 31.9187 12.9481 31.8324 14.0044C31.7499 15.0138 31.75 16.2465 31.75 17.71L31.75 17.8V42.2L31.75 42.29C31.75 43.7535 31.7499 44.9862 31.8324 45.9956C31.9187 47.0519 32.1064 48.0601 32.5947 49.0184C33.3377 50.4767 34.5233 51.6623 35.9816 52.4053C36.9399 52.8936 37.9481 53.0813 39.0044 53.1676C40.0137 53.2501 41.2464 53.25 42.7099 53.25H42.7099H42.8H46.2H46.2901H46.2901C47.7536 53.25 48.9863 53.2501 49.9956 53.1676C51.0519 53.0813 52.0601 52.8936 53.0184 52.4053C54.4767 51.6623 55.6623 50.4767 56.4053 49.0184C56.8936 48.0601 57.0813 47.0519 57.1676 45.9956C57.2501 44.9862 57.25 43.7535 57.25 42.29V42.2V17.8V17.71C57.25 16.2465 57.2501 15.0138 57.1676 14.0044C57.0813 12.9481 56.8936 11.9399 56.4053 10.9816C55.6623 9.52332 54.4767 8.33772 53.0184 7.5947C52.0601 7.10642 51.0519 6.91871 49.9956 6.83241C48.9862 6.74994 47.7535 6.74997 46.2901 6.75H46.29L46.2 6.75H42.8ZM38.0245 11.6042C38.2427 11.4931 38.5928 11.381 39.3708 11.3175C40.1751 11.2518 41.2227 11.25 42.8 11.25H46.2C47.7773 11.25 48.8249 11.2518 49.6292 11.3175C50.4072 11.381 50.7573 11.4931 50.9755 11.6042C51.587 11.9158 52.0842 12.413 52.3958 13.0245C52.507 13.2427 52.619 13.5928 52.6825 14.3708C52.7483 15.1751 52.75 16.2227 52.75 17.8V42.2C52.75 43.7773 52.7483 44.8249 52.6825 45.6292C52.619 46.4072 52.507 46.7573 52.3958 46.9755C52.0842 47.587 51.587 48.0842 50.9755 48.3958C50.7573 48.507 50.4072 48.619 49.6292 48.6825C48.8249 48.7482 47.7773 48.75 46.2 48.75H42.8C41.2227 48.75 40.1751 48.7482 39.3708 48.6825C38.5928 48.619 38.2427 48.507 38.0245 48.3958C37.413 48.0842 36.9158 47.587 36.6042 46.9755C36.493 46.7573 36.381 46.4072 36.3175 45.6292C36.2518 44.8249 36.25 43.7773 36.25 42.2V17.8C36.25 16.2227 36.2518 15.1751 36.3175 14.3708C36.381 13.5928 36.493 13.2427 36.6042 13.0245C36.9158 12.413 37.413 11.9158 38.0245 11.6042Z"
  />
</svg>
