<svg
  width="60"
  height="60"
  viewBox="0 0 60 60"
  fill="currentColor"
  xmlns="http://www.w3.org/2000/svg"
>
  <path
    fill-rule="evenodd"
    clip-rule="evenodd"
    d="M32.25 6C32.25 4.75736 31.2426 3.75 30 3.75C28.7573 3.75 27.75 4.75736 27.75 6V8.56055C24.2872 9.53995 21.75 12.7237 21.75 16.5C21.75 18.6986 22.6101 20.6964 24.0121 22.1752L14.8049 38.1226C13.5965 37.221 12.6482 36.3569 11.9738 35.6824C11.5574 35.266 11.2476 34.9242 11.0477 34.6939C10.9478 34.5789 10.8755 34.4919 10.8313 34.4376C10.8092 34.4105 10.7941 34.3916 10.7861 34.3815L10.7814 34.3756L10.7801 34.3738C10.0215 33.3932 8.61146 33.2102 7.62814 33.9666C6.64319 34.7242 6.45893 36.1369 7.21659 37.1218L7.21927 37.1253L7.22453 37.1319C7.25172 37.1663 7.3113 37.2416 7.34372 37.2814C7.41595 37.3699 7.51801 37.4924 7.64956 37.644C7.91252 37.9469 8.29417 38.3668 8.79181 38.8644C9.67455 39.7472 10.9294 40.8816 12.5415 42.0428L7.12799 51.4193C6.50667 52.4955 6.87539 53.8716 7.95155 54.4929C9.02771 55.1142 10.4038 54.7455 11.0251 53.6693L16.3737 44.4053C19.9342 46.2585 24.5077 47.75 30 47.75C35.4922 47.75 40.0658 46.2585 43.6263 44.4053L48.9749 53.6693C49.5962 54.7455 50.9723 55.1142 52.0484 54.4929C53.1246 53.8716 53.4933 52.4955 52.872 51.4193L47.4585 42.0428C49.0706 40.8816 50.3254 39.7472 51.2082 38.8644C51.7058 38.3668 52.0875 37.9469 52.3504 37.644C52.482 37.4924 52.584 37.3699 52.6563 37.2814C52.6887 37.2416 52.7483 37.1663 52.7755 37.1319L52.7821 37.1235C52.7821 37.1235 52.7773 37.1297 52.7834 37.1218C53.541 36.1369 53.3568 34.7242 52.3718 33.9666C51.3885 33.2102 49.9789 33.3926 49.2204 34.3732L49.2177 34.3767L49.2139 34.3815C49.2059 34.3916 49.1908 34.4105 49.1687 34.4376C49.1245 34.4919 49.0522 34.5789 48.9523 34.6939C48.7524 34.9242 48.4426 35.266 48.0262 35.6824C47.3518 36.3569 46.4035 37.221 45.1951 38.1226L35.9879 22.1752C37.3899 20.6964 38.25 18.6986 38.25 16.5C38.25 12.7237 35.7128 9.53993 32.25 8.56054V6ZM41.3739 40.5041L32.1196 24.4752C31.4432 24.6545 30.7328 24.75 30 24.75C29.2672 24.75 28.5567 24.6545 27.8804 24.4752L18.626 40.5041C21.6338 42.0411 25.4453 43.25 30 43.25C34.5547 43.25 38.3662 42.0411 41.3739 40.5041ZM30 12.75C27.9289 12.75 26.25 14.4289 26.25 16.5C26.25 18.5711 27.9289 20.25 30 20.25C32.0711 20.25 33.75 18.5711 33.75 16.5C33.75 14.4289 32.0711 12.75 30 12.75Z"
  />
</svg>
