<svg
  width="60"
  height="60"
  viewBox="0 0 60 60"
  fill="currentColor"
  xmlns="http://www.w3.org/2000/svg"
>
  <path
    fill-rule="evenodd"
    clip-rule="evenodd"
    d="M11 5.75C6.99594 5.75 3.75 8.99594 3.75 13C3.75 16.3103 5.9686 19.1025 9 19.9706L9 40.0294C5.9686 40.8975 3.75 43.6897 3.75 47C3.75 51.0041 6.99594 54.25 11 54.25C15.0041 54.25 18.25 51.0041 18.25 47C18.25 43.8745 16.2723 41.211 13.5 40.1926V32.7267L28 32.7267V40.0294C24.9686 40.8975 22.75 43.6897 22.75 47C22.75 51.0041 25.9959 54.25 30 54.25C34.0041 54.25 37.25 51.0041 37.25 47C37.25 43.8745 35.2723 41.211 32.5 40.1926V32.7267L45.1504 32.7267C48.6022 32.7267 51.4004 29.9286 51.4004 26.4768L51.4006 19.8431C54.2249 18.8524 56.25 16.1627 56.25 13C56.25 8.99594 53.0041 5.75 49 5.75C44.9959 5.75 41.75 8.99594 41.75 13C41.75 16.274 43.9202 19.0412 46.9006 19.9414L46.9004 26.4767C46.9004 27.4432 46.1169 28.2267 45.1504 28.2267L32.5 28.2267V19.8074C35.2723 18.789 37.25 16.1255 37.25 13C37.25 8.99594 34.0041 5.75 30 5.75C25.9959 5.75 22.75 8.99594 22.75 13C22.75 16.3103 24.9686 19.1025 28 19.9706V28.2267L13.5 28.2267V19.8074C16.2723 18.789 18.25 16.1255 18.25 13C18.25 8.99594 15.0041 5.75 11 5.75ZM8.25 13C8.25 11.4812 9.48122 10.25 11 10.25C12.5188 10.25 13.75 11.4812 13.75 13C13.75 14.5188 12.5188 15.75 11 15.75C9.48122 15.75 8.25 14.5188 8.25 13ZM8.25 47C8.25 45.4812 9.48122 44.25 11 44.25C12.5188 44.25 13.75 45.4812 13.75 47C13.75 48.5188 12.5188 49.75 11 49.75C9.48122 49.75 8.25 48.5188 8.25 47ZM30 44.25C28.4812 44.25 27.25 45.4812 27.25 47C27.25 48.5188 28.4812 49.75 30 49.75C31.5188 49.75 32.75 48.5188 32.75 47C32.75 45.4812 31.5188 44.25 30 44.25ZM30 10.25C28.4812 10.25 27.25 11.4812 27.25 13C27.25 14.5188 28.4812 15.75 30 15.75C31.5188 15.75 32.75 14.5188 32.75 13C32.75 11.4812 31.5188 10.25 30 10.25ZM46.25 13C46.25 11.4812 47.4812 10.25 49 10.25C50.5188 10.25 51.75 11.4812 51.75 13C51.75 14.5188 50.5188 15.75 49 15.75C47.4812 15.75 46.25 14.5188 46.25 13Z"
  />
</svg>
