<svg
  width="60"
  height="60"
  viewBox="0 0 60 60"
  fill="currentColor"
  xmlns="http://www.w3.org/2000/svg"
>
  <path
    fill-rule="evenodd"
    clip-rule="evenodd"
    d="M21.8644 11.5C20.8055 8.1658 17.6849 5.75 14 5.75C9.44365 5.75 5.75 9.44365 5.75 14C5.75 17.8666 8.41005 21.112 12 22.0059L12 37.9941C8.41005 38.888 5.75 42.1334 5.75 46C5.75 50.5564 9.44365 54.25 14 54.25C17.8666 54.25 21.112 51.59 22.0059 48H37.9941C38.888 51.59 42.1334 54.25 46 54.25C50.5564 54.25 54.25 50.5564 54.25 46C54.25 42.3151 51.8342 39.1945 48.5 38.1356V21.8644C51.8342 20.8055 54.25 17.6849 54.25 14C54.25 9.44365 50.5564 5.75 46 5.75C42.3151 5.75 39.1945 8.1658 38.1356 11.5H21.8644ZM46 10.25C43.9289 10.25 42.25 11.9289 42.25 14C42.25 16.0711 43.9289 17.75 46 17.75C48.0711 17.75 49.75 16.0711 49.75 14C49.75 11.9289 48.0711 10.25 46 10.25ZM22.0059 16H37.9941C38.7286 18.9496 41.0504 21.2714 44 22.0059V37.9941C41.2192 38.6865 38.9963 40.7899 38.1356 43.5H21.8644C21.0559 40.9544 19.0456 38.9441 16.5 38.1356L16.5 21.8644C19.2101 21.0037 21.3135 18.7808 22.0059 16ZM14 42.25C11.9289 42.25 10.25 43.9289 10.25 46C10.25 48.0711 11.9289 49.75 14 49.75C16.0711 49.75 17.75 48.0711 17.75 46C17.75 43.9289 16.0711 42.25 14 42.25ZM42.25 46C42.25 43.9289 43.9289 42.25 46 42.25C48.0711 42.25 49.75 43.9289 49.75 46C49.75 48.0711 48.0711 49.75 46 49.75C43.9289 49.75 42.25 48.0711 42.25 46ZM10.25 14C10.25 11.9289 11.9289 10.25 14 10.25C16.0711 10.25 17.75 11.9289 17.75 14C17.75 16.0711 16.0711 17.75 14 17.75C11.9289 17.75 10.25 16.0711 10.25 14Z"
  />
</svg>
