<svg
  width="60"
  height="60"
  viewBox="0 0 60 60"
  fill="currentColor"
  xmlns="http://www.w3.org/2000/svg"
>
  <path
    fill-rule="evenodd"
    clip-rule="evenodd"
    d="M19.9241 26.9951L7.38407 39.5351C3.77172 43.1475 3.77172 49.0043 7.38407 52.6166C10.9964 56.229 16.8532 56.2289 20.4655 52.6166L33.0055 40.0766L29.8236 36.8946L17.2836 49.4346C15.4286 51.2896 12.421 51.2896 10.566 49.4346C8.71106 47.5796 8.71106 44.5721 10.566 42.7171L23.1061 30.1771L19.9241 26.9951ZM36.8946 29.8235L42.768 23.9501L36.0505 17.2326L30.1771 23.106L26.9951 19.9241L39.535 7.38419C43.1474 3.77184 49.0041 3.77184 52.6165 7.38419C56.2288 10.9965 56.2288 16.8533 52.6165 20.4657L40.0766 33.0055L36.8946 29.8235ZM39.2325 14.0506L45.95 20.7682L49.4345 17.2837C51.2895 15.4287 51.2895 12.4212 49.4345 10.5662C47.5795 8.71118 44.572 8.71118 42.717 10.5662L39.2325 14.0506ZM10.591 7.40901C9.71231 6.53033 8.28769 6.53033 7.40901 7.40901C6.53033 8.28769 6.53033 9.71231 7.40901 10.591L49.409 52.591C50.2877 53.4697 51.7123 53.4697 52.591 52.591C53.4697 51.7123 53.4697 50.2877 52.591 49.409L10.591 7.40901Z"
  />
</svg>
