<svg
  width="60"
  height="60"
  viewBox="0 0 60 60"
  fill="currentColor"
  xmlns="http://www.w3.org/2000/svg"
>
  <path
    fill-rule="evenodd"
    clip-rule="evenodd"
    d="M38 13C35.2386 13 33 15.2386 33 18C33 20.7614 35.2386 23 38 23C40.7615 23 43 20.7614 43 18C43 15.2386 40.7615 13 38 13ZM27.4141 15C28.72 10.383 32.9649 7 38 7C43.0352 7 47.2801 10.383 48.586 15L54.5 15C56.1569 15 57.5 16.3431 57.5 18C57.5 19.6569 56.1569 21 54.5 21L48.586 21C47.2801 25.617 43.0352 29 38 29C32.9649 29 28.72 25.617 27.4141 21H6.5C4.84315 21 3.5 19.6569 3.5 18C3.5 16.3431 4.84315 15 6.5 15H27.4141ZM11.4141 39C12.72 34.383 16.9649 31 22 31C27.0352 31 31.2801 34.383 32.586 39L54.5 39C56.1569 39 57.5 40.3432 57.5 42C57.5 43.6569 56.1569 45 54.5 45L32.586 45C31.2801 49.617 27.0351 53 22 53C16.9649 53 12.72 49.617 11.4141 45H6.50004C4.84319 45 3.50004 43.6569 3.50004 42C3.50004 40.3431 4.84319 39 6.50004 39H11.4141ZM22 37C19.2386 37 17 39.2386 17 42C17 44.7614 19.2386 47 22 47C24.7615 47 27 44.7614 27 42C27 39.2386 24.7615 37 22 37Z"
  />
</svg>
