<svg
  width="60"
  height="60"
  viewBox="0 0 60 60"
  fill="currentColor"
  xmlns="http://www.w3.org/2000/svg"
>
  <path
    fill-rule="evenodd"
    clip-rule="evenodd"
    d="M52.6165 7.38394C49.0041 3.77159 43.1474 3.7716 39.535 7.38395L7.38407 39.5349C3.77172 43.1472 3.77172 49.004 7.38407 52.6164C10.9964 56.2287 16.8532 56.2287 20.4655 52.6164L52.6165 20.4654C56.2288 16.8531 56.2288 10.9963 52.6165 7.38394ZM42.717 10.5659C44.572 8.71094 47.5795 8.71093 49.4345 10.5659C51.2895 12.4209 51.2895 15.4284 49.4345 17.2834L45.9499 20.768L39.2324 14.0505L42.717 10.5659ZM36.0504 17.2325L10.566 42.7169C8.71106 44.5719 8.71106 47.5794 10.566 49.4344C12.421 51.2894 15.4286 51.2894 17.2836 49.4344L42.7679 23.95L36.0504 17.2325ZM30.7501 53C30.7501 51.7574 31.7574 50.75 33.0001 50.75H53.0001C54.2427 50.75 55.2501 51.7574 55.2501 53C55.2501 54.2427 54.2427 55.25 53.0001 55.25H33.0001C31.7574 55.25 30.7501 54.2427 30.7501 53ZM44.0001 39.75C42.7574 39.75 41.7501 40.7574 41.7501 42C41.7501 43.2427 42.7574 44.25 44.0001 44.25H53.0001C54.2427 44.25 55.2501 43.2427 55.2501 42C55.2501 40.7574 54.2427 39.75 53.0001 39.75H44.0001Z"
  />
</svg>
