<svg
  width="60"
  height="60"
  viewBox="0 0 60 60"
  fill="currentColor"
  xmlns="http://www.w3.org/2000/svg"
>
  <path
    fill-rule="evenodd"
    clip-rule="evenodd"
    d="M6 15.75H27.9977C29.0232 11.1714 33.112 7.75 38 7.75C42.888 7.75 46.9768 11.1714 48.0023 15.75L55 15.75C56.2426 15.75 57.25 16.7574 57.25 18C57.25 19.2426 56.2426 20.25 55 20.25L48.0023 20.25C46.9768 24.8286 42.888 28.25 38 28.25C33.112 28.25 29.0232 24.8286 27.9977 20.25H6C4.75736 20.25 3.75 19.2426 3.75 18C3.75 16.7574 4.75736 15.75 6 15.75ZM38 12.25C34.8244 12.25 32.25 14.8244 32.25 18C32.25 21.1756 34.8244 23.75 38 23.75C41.1756 23.75 43.75 21.1756 43.75 18C43.75 14.8244 41.1756 12.25 38 12.25Z"
  />
  <path
    fill-rule="evenodd"
    clip-rule="evenodd"
    d="M55 44.25C56.2426 44.25 57.25 43.2426 57.25 42C57.25 40.7574 56.2426 39.75 55 39.75L32.0023 39.75C30.9768 35.1714 26.888 31.75 22 31.75C17.1121 31.75 13.0232 35.1714 11.9977 39.75H6C4.75736 39.75 3.75 40.7574 3.75 42C3.75 43.2426 4.75736 44.25 6 44.25H11.9977C13.0232 48.8286 17.1121 52.25 22 52.25C26.8879 52.25 30.9768 48.8286 32.0023 44.25L55 44.25ZM27.75 42C27.75 38.8244 25.1756 36.25 22 36.25C18.8244 36.25 16.25 38.8244 16.25 42C16.25 45.1756 18.8244 47.75 22 47.75C25.1756 47.75 27.75 45.1756 27.75 42Z"
  />
</svg>
