<svg
  width="60"
  height="60"
  viewBox="0 0 60 60"
  fill="currentColor"
  xmlns="http://www.w3.org/2000/svg"
>
  <path
    fill-rule="evenodd"
    clip-rule="evenodd"
    d="M30 2.75C14.9502 2.75 2.75 14.9502 2.75 30C2.75 45.0498 14.9502 57.25 30 57.25C45.0498 57.25 57.25 45.0498 57.25 30C57.25 14.9502 45.0498 2.75 30 2.75ZM27.75 7.35986C16.2417 8.48969 7.25 18.1948 7.25 30C7.25 41.8052 16.2417 51.5103 27.75 52.6401V7.35986ZM32.25 52.6401C43.7583 51.5103 52.75 41.8052 52.75 30C52.75 29.1762 52.7062 28.3626 52.6208 27.5614L32.25 47.9322V52.6401ZM51.4414 22.3769C50.3932 19.4288 48.7542 16.7608 46.667 14.5152L32.25 28.9322V41.5682L51.4414 22.3769ZM43.287 11.5312C40.1211 9.24956 36.3448 7.76187 32.25 7.35986V22.5682L43.287 11.5312Z"
  />
</svg>
