<svg
  width="60"
  height="60"
  viewBox="0 0 60 60"
  fill="currentColor"
  xmlns="http://www.w3.org/2000/svg"
>
  <path
    fill-rule="evenodd"
    clip-rule="evenodd"
    d="M20.6785 14.2525C19.7057 17.5741 16.6361 20 13 20C8.58172 20 5 16.4183 5 12C5 7.58172 8.58172 4 13 4C16.638 4 19.7088 6.42834 20.68 9.75255L44.4994 9.75243C50.7122 9.7524 55.7488 14.7889 55.7488 21.0017C55.7488 27.2147 50.7121 32.2512 44.4991 32.251L20.4997 32.2502C16.7715 32.2501 13.7491 35.2725 13.7493 39.0008C13.7494 42.7286 16.7714 45.7505 20.4992 45.7507L39.3202 45.7517C40.2917 42.4279 43.3623 40 47 40C51.4183 40 55 43.5817 55 48C55 52.4183 51.4183 56 47 56C43.3636 56 40.2938 53.5737 39.3213 50.2517L20.4989 50.2507C14.286 50.2504 9.24954 45.2139 9.24929 39.001C9.24902 32.7873 14.2862 27.75 20.4999 27.7502L44.4993 27.751C48.2269 27.7511 51.2488 24.7293 51.2488 21.0017C51.2488 17.2742 48.227 14.2524 44.4994 14.2524L20.6785 14.2525ZM16.5 12C16.5 13.933 14.933 15.5 13 15.5C11.067 15.5 9.5 13.933 9.5 12C9.5 10.067 11.067 8.5 13 8.5C14.933 8.5 16.5 10.067 16.5 12Z"
  />
</svg>
