<svg
  width="60"
  height="60"
  viewBox="0 0 60 60"
  fill="currentColor"
  xmlns="http://www.w3.org/2000/svg"
>
  <path
    d="M30 23C31.1046 23 32 22.1046 32 21C32 19.8954 31.1046 19 30 19C28.8954 19 28 19.8954 28 21C28 22.1046 28.8954 23 30 23Z"
  />
  <path
    d="M32 30C32 31.1046 31.1046 32 30 32C28.8954 32 28 31.1046 28 30C28 28.8954 28.8954 28 30 28C31.1046 28 32 28.8954 32 30Z"
  />
  <path
    d="M30 41C31.1046 41 32 40.1046 32 39C32 37.8954 31.1046 37 30 37C28.8954 37 28 37.8954 28 39C28 40.1046 28.8954 41 30 41Z"
  />
  <path
    fill-rule="evenodd"
    clip-rule="evenodd"
    d="M14 9.75C8.01566 9.75 2.75001 14.1667 2.75001 20.1L2.75001 22.1421C2.74996 22.3749 2.7499 22.6373 2.76316 22.8631C2.77689 23.0967 2.81251 23.506 2.99124 23.9436C3.0638 24.1213 3.18558 24.3927 3.39947 24.6763C3.61337 24.9599 3.84081 25.1515 3.9917 25.2701C4.40347 25.5938 4.86506 25.7487 5.05974 25.8141L5.06177 25.8148C5.30439 25.8963 5.60792 25.983 5.9192 26.0719L5.96147 26.084C7.50592 26.5255 8.75001 28.0602 8.75001 30C8.75001 31.9398 7.50592 33.4745 5.96147 33.916L5.91971 33.9279C5.60845 34.0169 5.30438 34.1037 5.06177 34.1852L5.05974 34.1859C4.86507 34.2513 4.40347 34.4062 3.9917 34.7299C3.84081 34.8485 3.61337 35.0401 3.39947 35.3237C3.18558 35.6073 3.0638 35.8787 2.99124 36.0564C2.81251 36.494 2.77689 36.9033 2.76316 37.1369C2.7499 37.3627 2.74996 37.6251 2.75001 37.8578L2.75001 39.9C2.75001 45.8333 8.01566 50.25 14 50.25H46C51.9844 50.25 57.25 45.8333 57.25 39.9L57.25 37.8579C57.2501 37.6252 57.2501 37.3626 57.2369 37.1369C57.2231 36.9033 57.1875 36.494 57.0088 36.0564C56.9362 35.8787 56.8144 35.6073 56.6006 35.3237C56.3867 35.0401 56.1592 34.8485 56.0083 34.7299C55.5965 34.4062 55.1349 34.2513 54.9403 34.1859L54.9382 34.1852C54.6955 34.1037 54.3918 34.0169 54.0803 33.9279L54.0386 33.916C52.4941 33.4745 51.25 31.9398 51.25 30C51.25 28.0602 52.4941 26.5255 54.0386 26.084L54.0803 26.0721C54.3918 25.9831 54.6955 25.8963 54.9382 25.8148L54.9403 25.8141C55.1349 25.7488 55.5965 25.5938 56.0083 25.2701C56.1592 25.1515 56.3867 24.9599 56.6006 24.6763C56.8144 24.3927 56.9362 24.1213 57.0088 23.9436C57.1875 23.506 57.2231 23.0967 57.2369 22.8631C57.2501 22.6374 57.2501 22.375 57.25 22.1423L57.25 20.1C57.25 14.1667 51.9844 9.75 46 9.75H14ZM7.25001 20.1C7.25001 17.0863 10.0432 14.25 14 14.25H46C49.9568 14.25 52.75 17.0863 52.75 20.1V21.7723C49.2275 22.8048 46.75 26.1481 46.75 30C46.75 33.8519 49.2275 37.1952 52.75 38.2277V39.9C52.75 42.9137 49.9568 45.75 46 45.75H14C10.0432 45.75 7.25001 42.9137 7.25001 39.9V38.2277C10.7726 37.1952 13.25 33.8519 13.25 30C13.25 26.1481 10.7726 22.8048 7.25001 21.7723V20.1Z"
  />
</svg>
