<svg
  width="60"
  height="60"
  viewBox="0 0 60 60"
  fill="currentColor"
  xmlns="http://www.w3.org/2000/svg"
>
  <path
    d="M30.9511 20.9271C30.6517 20.0057 29.3483 20.0057 29.0489 20.9271L27.5303 25.6008C27.3965 26.0128 27.0125 26.2918 26.5793 26.2918H21.665C20.6963 26.2918 20.2935 27.5314 21.0772 28.1008L25.053 30.9894C25.4034 31.244 25.5501 31.6954 25.4162 32.1074L23.8976 36.7812C23.5983 37.7025 24.6528 38.4686 25.4365 37.8992L29.4122 35.0106C29.7627 34.756 30.2373 34.756 30.5878 35.0106L34.5635 37.8992C35.3472 38.4686 36.4017 37.7025 36.1024 36.7812L34.5838 32.1074C34.4499 31.6954 34.5966 31.244 34.947 30.9894L38.9228 28.1008C39.7065 27.5314 39.3037 26.2918 38.335 26.2918H33.4207C32.9875 26.2918 32.6035 26.0128 32.4697 25.6008L30.9511 20.9271Z"
  />
  <path
    fill-rule="evenodd"
    clip-rule="evenodd"
    d="M14 9.75C8.01565 9.75 2.75 14.1667 2.75 20.1V22.7C2.75 24.5732 4.22803 25.7608 5.60683 26.0025C7.31186 26.3014 8.75 27.9088 8.75 30C8.75 32.0912 7.31186 33.6986 5.60683 33.9975C4.22803 34.2392 2.75 35.4268 2.75 37.3V39.9C2.75 45.8333 8.01565 50.25 14 50.25H46C51.9844 50.25 57.25 45.8333 57.25 39.9V37.3C57.25 35.4268 55.772 34.2392 54.3932 33.9975C52.6881 33.6986 51.25 32.0912 51.25 30C51.25 27.9088 52.6881 26.3014 54.3932 26.0025C55.772 25.7608 57.25 24.5732 57.25 22.7V20.1C57.25 14.1667 51.9843 9.75 46 9.75H14ZM7.25 20.1C7.25 17.0863 10.0432 14.25 14 14.25H46C49.9568 14.25 52.75 17.0863 52.75 20.1V21.7718C49.2281 22.801 46.75 26.1528 46.75 30C46.75 33.8472 49.2281 37.199 52.75 38.2282V39.9C52.75 42.9137 49.9568 45.75 46 45.75H14C10.0432 45.75 7.25 42.9137 7.25 39.9V38.2282C10.7719 37.199 13.25 33.8472 13.25 30C13.25 26.1528 10.7719 22.801 7.25 21.7718V20.1Z"
  />
</svg>
