<svg
  width="60"
  height="60"
  viewBox="0 0 60 60"
  fill="currentColor"
  xmlns="http://www.w3.org/2000/svg"
>
  <path
    fill-rule="evenodd"
    clip-rule="evenodd"
    d="M32.7693 7.31247C32.4104 7.17925 32.0646 7.25348 31.8111 7.53857L31.8067 7.54354L29.5444 10.0727C28.7159 10.9989 27.2935 11.0781 26.3673 10.2497C25.4411 9.42121 25.3619 7.99879 26.1904 7.07261L28.4482 4.54841C28.4491 4.54744 28.45 4.54648 28.4508 4.54551C31.6643 0.9363 37.8129 3.11512 37.8129 8.05506V11.3762C37.8129 12.6188 36.8055 13.6262 35.5629 13.6262C34.3202 13.6262 33.3129 12.6188 33.3129 11.3762V8.05506C33.3129 7.71184 33.1274 7.44542 32.7693 7.31247ZM23.7116 13.2186C24.6378 14.047 24.717 15.4695 23.8886 16.3956L19.364 21.454C18.5355 22.3802 17.1131 22.4594 16.1869 21.6309C15.2607 20.8025 15.1815 19.3801 16.01 18.4539L20.5346 13.3955C21.363 12.4694 22.7855 12.3901 23.7116 13.2186ZM35.5629 17.4289C36.8055 17.4289 37.8129 18.4363 37.8129 19.6789V23C37.8129 24.2426 36.8055 25.25 35.5629 25.25C34.3202 25.25 33.3129 24.2426 33.3129 23V19.6789C33.3129 18.4363 34.3202 17.4289 35.5629 17.4289ZM13.5313 24.5999C14.4574 25.4283 14.5367 26.8507 13.7082 27.7769L11.4535 30.2976C11.025 30.7913 11.3331 31.6379 12.1089 31.6379C13.3515 31.6379 14.3589 32.6453 14.3589 33.8879C14.3589 35.1306 13.3515 36.1379 12.1089 36.1379C7.56143 36.1379 5.01803 30.7961 8.08037 27.319L8.09188 27.306L10.3542 24.7768C11.1827 23.8506 12.6051 23.7714 13.5313 24.5999ZM41.624 27.1121C41.624 25.8694 42.6313 24.8621 43.874 24.8621C48.428 24.8621 51.0158 30.1996 47.8912 33.6938L45.6286 36.2232C44.8002 37.1494 43.3778 37.2286 42.4516 36.4001C41.5254 35.5717 41.4462 34.1492 42.2746 33.2231L44.5368 30.6941C44.5367 30.6942 44.5368 30.694 44.5368 30.6941C44.9622 30.218 44.6992 29.3621 43.874 29.3621C42.6313 29.3621 41.624 28.3547 41.624 27.1121ZM20.42 31.6379C21.6626 31.6379 22.67 32.6453 22.67 33.8879V38.1228C22.67 39.3654 21.6626 40.3728 20.42 40.3728C19.1773 40.3728 18.17 39.3654 18.17 38.1228V33.8879C18.17 32.6453 19.1773 31.6379 20.42 31.6379ZM39.7959 39.3691C40.7221 40.1975 40.8013 41.6199 39.9728 42.5461L35.4482 47.6045C34.6198 48.5306 33.1973 48.6099 32.2712 47.7814C31.345 46.9529 31.2658 45.5305 32.0942 44.6043L36.6189 39.546C37.4473 38.6198 38.8697 38.5406 39.7959 39.3691ZM20.42 46.46C21.6626 46.46 22.67 47.4674 22.67 48.71V52.9449C22.67 53.2882 22.8555 53.5546 23.2136 53.6875C23.5724 53.8207 23.9181 53.7465 24.1717 53.4614L24.1761 53.4564L26.4384 50.9273C27.2669 50.0011 28.6893 49.9219 29.6155 50.7503C30.5417 51.5788 30.6209 53.0012 29.7924 53.9274L27.5345 56.4516C27.5337 56.4525 27.5329 56.4534 27.5321 56.4543C24.3186 60.0638 18.17 57.8849 18.17 52.9449V48.71C18.17 47.4674 19.1773 46.46 20.42 46.46Z"
  />
</svg>
