<svg
  width="60"
  height="60"
  viewBox="0 0 60 60"
  fill="currentColor"
  xmlns="http://www.w3.org/2000/svg"
>
  <path
    fill-rule="evenodd"
    clip-rule="evenodd"
    d="M28.4504 4.54596C31.6638 0.936118 37.8129 3.11491 37.8129 8.05506V24.8621H43.874C48.428 24.8621 51.0158 30.1996 47.8912 33.6938L47.891 33.694L27.5345 56.4516C27.5337 56.4525 27.5329 56.4534 27.5321 56.4543C24.3186 60.0638 18.17 57.8849 18.17 52.9449V36.1379H12.1089C7.56143 36.1379 5.01803 30.7961 8.08037 27.319L8.09188 27.306L28.4482 4.54841C28.449 4.54759 28.4497 4.54678 28.4504 4.54596ZM32.7693 7.31247C32.4104 7.17925 32.0646 7.25348 31.8111 7.53857L31.8067 7.54355L11.4535 30.2975C11.025 30.7912 11.3331 31.6379 12.1089 31.6379H20.42C21.6626 31.6379 22.67 32.6453 22.67 33.8879V52.9449C22.67 53.2882 22.8555 53.5546 23.2136 53.6875C23.5724 53.8207 23.9182 53.7465 24.1717 53.4614L24.1761 53.4564L44.5368 30.6941C44.9625 30.2181 44.6993 29.3621 43.874 29.3621H35.5629C34.3202 29.3621 33.3129 28.3547 33.3129 27.1121V8.05506C33.3129 7.71184 33.1274 7.44542 32.7693 7.31247Z"
  />
</svg>
