<svg
  width="60"
  height="60"
  viewBox="0 0 60 60"
  fill="currentColor"
  xmlns="http://www.w3.org/2000/svg"
>
  <path
    d="M46.7149 3.74111C45.9488 3.3638 45.0509 3.3638 44.2849 3.74111C43.5589 4.09866 43.2094 4.70772 43.0956 4.90816C42.9657 5.13687 42.84 5.41372 42.745 5.62314L41.2248 8.96696C40.7105 10.0982 41.2106 11.4321 42.3418 11.9464C43.4731 12.4607 44.807 11.9606 45.3213 10.8294L45.4999 10.4365L46.4208 12.4621C46.9351 13.5933 48.269 14.0934 49.4002 13.5791C50.5315 13.0648 51.0316 11.7309 50.5173 10.5997L48.2549 5.62321C48.1598 5.41378 48.0341 5.13687 47.9042 4.90816C47.7903 4.70772 47.4409 4.09866 46.7149 3.74111Z"
  />
  <path
    d="M41.3136 12.0842C41.6612 12.8488 41.5454 13.7059 41.0846 14.3401L43.462 15.4209C44.5932 15.9352 45.0933 17.2691 44.579 18.4004C44.0647 19.5316 42.7308 20.0317 41.5995 19.5174L36.6231 17.255C36.4136 17.1599 36.1368 17.0343 35.908 16.9043C35.7076 16.7905 35.0985 16.441 34.741 15.7151C34.3637 14.949 34.3637 14.0511 34.741 13.285C35.0985 12.559 35.7076 12.2096 35.908 12.0957C36.1367 11.9658 36.4136 11.8401 36.623 11.7451L38.3341 10.9672C39.4653 10.4529 40.7993 10.953 41.3136 12.0842Z"
  />
  <path
    d="M54.2984 11.7095C53.1672 11.1952 51.8332 11.6953 51.3189 12.8265C51.1761 13.1406 51.1115 13.4703 51.1169 13.7937L50.8033 13.9363C49.672 14.4506 49.1719 15.7846 49.6862 16.9158C50.2005 18.047 51.5344 18.5471 52.6657 18.0328L54.3767 17.255C54.5862 17.1599 54.863 17.0343 55.0918 16.9043C55.2922 16.7905 55.9013 16.441 56.2588 15.7151C56.6361 14.949 56.6361 14.0511 56.2588 13.285C55.9012 12.559 55.2922 12.2096 55.0918 12.0957C54.863 11.9658 54.5862 11.8401 54.3768 11.7451L54.2984 11.7095Z"
  />
  <path
    d="M49.4039 20.8494C49.9182 19.7182 49.418 18.3843 48.2868 17.87C47.1556 17.3557 45.8216 17.8558 45.3074 18.987L44.361 21.0686C44.3061 21.0886 44.2516 21.1108 44.1975 21.1354C43.0663 21.6497 42.5662 22.9836 43.0805 24.1149C44.0248 26.1919 46.975 26.1919 47.9193 24.1149L49.4039 20.8494Z"
  />
  <path
    d="M25.936 14.5007C25.0306 14.0548 23.9695 14.0548 23.0641 14.5007C22.258 14.8977 21.8395 15.5901 21.6478 15.9276C21.4408 16.292 21.2303 16.7553 21.0273 17.2021L20.85 17.592C20.3357 18.7232 20.8358 20.0572 21.9671 20.5715C22.8499 20.9729 23.8562 20.7564 24.5 20.1042C25.1439 20.7564 26.1502 20.9729 27.033 20.5715C28.1642 20.0572 28.6644 18.7232 28.1501 17.592L27.9728 17.2021C27.7698 16.7554 27.5593 16.292 27.3523 15.9276C27.1606 15.5901 26.7421 14.8977 25.936 14.5007Z"
  />
  <path
    d="M21.743 26.5009C22.2573 25.3697 21.7571 24.0357 20.6259 23.5214C19.4947 23.0071 18.1607 23.5073 17.6465 24.6385L16.3938 27.3938L13.6385 28.6464C12.5073 29.1607 12.0072 30.4947 12.5215 31.6259C13.0357 32.7571 14.3697 33.2572 15.5009 32.7429L19.0241 31.1412C19.5193 30.9161 19.9161 30.5192 20.1412 30.0241L21.743 26.5009Z"
  />
  <path
    d="M31.3536 24.6385C30.8393 23.5073 29.5054 23.0071 28.3742 23.5214C27.2429 24.0357 26.7428 25.3697 27.2571 26.5009L28.8589 30.0241C29.3732 31.1553 30.7071 31.6555 31.8383 31.1412C32.9696 30.6269 33.4697 29.2929 32.9554 28.1617L31.3536 24.6385Z"
  />
  <path
    d="M38.8848 30.2482C37.7536 29.7339 36.4196 30.234 35.9053 31.3653C35.391 32.4965 35.8912 33.8304 37.0224 34.3447L39.7957 35.6055C39.2224 36.2503 39.0485 37.197 39.4286 38.033C39.9428 39.1642 41.2768 39.6643 42.408 39.15L42.798 38.9728C43.2447 38.7698 43.708 38.5592 44.0724 38.3523C44.41 38.1605 45.1024 37.7421 45.4994 36.936C45.9453 36.0306 45.9453 34.9694 45.4994 34.0641C45.1024 33.2579 44.41 32.8395 44.0724 32.6477C43.708 32.4408 43.2447 32.2302 42.798 32.0273L38.8848 30.2482Z"
  />
  <path
    d="M9.57152 32.967C9.95158 33.803 9.77765 34.7497 9.20442 35.3945L15.5009 38.2571C16.6321 38.7714 17.1323 40.1053 16.618 41.2365C16.1037 42.3678 14.7697 42.8679 13.6385 42.3536L6.20213 38.9728C5.75542 38.7698 5.29202 38.5592 4.92766 38.3523C4.59012 38.1605 3.89772 37.7421 3.50069 36.936C3.05478 36.0306 3.05478 34.9694 3.50069 34.0641C3.89772 33.2579 4.59012 32.8395 4.92766 32.6477C5.29205 32.4408 5.75538 32.2302 6.20213 32.0272L6.59206 31.85C7.72328 31.3357 9.05723 31.8358 9.57152 32.967Z"
  />
  <path
    d="M35.3616 42.3536C36.4928 41.8393 36.9929 40.5053 36.4786 39.3741C35.9643 38.2429 34.6304 37.7428 33.4992 38.2571L29.9759 39.8588C29.4808 40.0839 29.084 40.4808 28.8589 40.9759L27.2571 44.4991C26.7428 45.6303 27.2429 46.9643 28.3742 47.4786C29.5054 47.9929 30.8393 47.4928 31.3536 46.3615L32.6063 43.6062L35.3616 42.3536Z"
  />
  <path
    d="M23.3447 48.0223C22.8305 46.8911 21.4965 46.391 20.3653 46.9053C19.2341 47.4196 18.7339 48.7535 19.2482 49.8848L21.0273 53.798C21.2303 54.2447 21.4408 54.708 21.6478 55.0724C21.8395 55.4099 22.258 56.1023 23.0641 56.4994C23.9695 56.9453 25.0306 56.9453 25.936 56.4994C26.7421 56.1023 27.1606 55.4099 27.3523 55.0724C27.5593 54.708 27.7698 54.2447 27.9728 53.798L28.1501 53.408C28.6644 52.2768 28.1642 50.9428 27.033 50.4285C26.197 50.0485 25.2504 50.2224 24.6056 50.7956L23.3447 48.0223Z"
  />
</svg>
