<svg
  width="60"
  height="60"
  viewBox="0 0 60 60"
  fill="currentColor"
  xmlns="http://www.w3.org/2000/svg"
>
  <path
    fill-rule="evenodd"
    clip-rule="evenodd"
    d="M14 9.75C7.7868 9.75 2.75 14.7868 2.75 21V39C2.75 45.2132 7.7868 50.25 14 50.25H46C52.2132 50.25 57.25 45.2132 57.25 39V21C57.25 14.7868 52.2132 9.75 46 9.75H14ZM7.32356 20C7.80676 16.7463 10.6119 14.25 14 14.25H46C49.3881 14.25 52.1932 16.7463 52.6764 20H7.32356ZM7.25 27V39C7.25 42.7279 10.2721 45.75 14 45.75H46C49.7279 45.75 52.75 42.7279 52.75 39V27H7.25Z"
  />
</svg>
