
<svg xmlns="http://www.w3.org/2000/svg" width="60" height="60" viewBox="0 0 60 60" fill="none">
  <path fill-rule="evenodd" clip-rule="evenodd" d="M51.286 12.7518C51.8766 11.3273 50.5352 9.86143 49.064 10.3237L36.915 14.1411C32.8456 15.4198 28.4558 15.2252 24.5154 13.5915L12.7518 8.71418C11.3273 8.12357 9.86142 9.46504 10.3237 10.9362L14.1411 23.0852C15.4198 27.1547 15.2252 31.5444 13.5915 35.4848L8.71418 47.2484C8.12357 48.6729 9.46504 50.1388 10.9362 49.6765L23.0852 45.8591C27.1547 44.5804 31.5444 44.775 35.4848 46.4087L47.2484 51.286C48.6729 51.8766 50.1388 50.5352 49.6765 49.064L45.8591 36.9151C44.5804 32.8455 44.775 28.4558 46.4087 24.5154L51.286 12.7518Z" fill="#FFA442"/>
</svg>