<svg
  width="60"
  height="60"
  viewBox="0 0 60 60"
  fill="currentColor"
  xmlns="http://www.w3.org/2000/svg"
>
  <path
    d="M22.6794 13.0047C23.39 11.4417 25.6101 11.4417 26.3207 13.0047L32.1573 25.8428L44.9954 31.6794C46.5584 32.39 46.5584 34.6101 44.9954 35.3207L32.1573 41.1573L26.3207 53.9953C25.6101 55.5583 23.39 55.5583 22.6794 53.9953L16.8428 41.1573L4.00478 35.3207C2.44177 34.6101 2.44176 32.39 4.00478 31.6794L16.8428 25.8428L22.6794 13.0047Z"
  />
  <path
    d="M44.5897 2.00239C44.945 1.22088 46.0551 1.22088 46.4104 2.00239L49.4068 8.59327L55.9977 11.5897C56.7792 11.945 56.7792 13.0551 55.9977 13.4104L49.4068 16.4068L46.4104 22.9977C46.0551 23.7792 44.945 23.7792 44.5897 22.9977L41.5933 16.4068L35.0024 13.4104C34.2209 13.0551 34.2209 11.945 35.0024 11.5897L41.5933 8.59327L44.5897 2.00239Z"
  />
</svg>
