<svg
  width="60"
  height="60"
  viewBox="0 0 60 60"
  fill="currentColor"
  xmlns="http://www.w3.org/2000/svg"
>
  <path
    fill-rule="evenodd"
    clip-rule="evenodd"
    d="M46.7149 3.74111C45.9488 3.3638 45.0509 3.3638 44.2849 3.74111C43.5589 4.09866 43.2094 4.70771 43.0956 4.90816C42.9657 5.13683 42.8401 5.41361 42.745 5.62302L40.8316 9.83174L36.6231 11.7451C36.4137 11.8401 36.1367 11.9658 35.908 12.0957C35.7076 12.2096 35.0985 12.559 34.741 13.285C34.3637 14.0511 34.3637 14.949 34.741 15.7151C35.0985 16.441 35.7076 16.7905 35.908 16.9043C36.1368 17.0343 36.4136 17.1599 36.6231 17.255L40.8316 19.1683L42.7449 23.3769C42.84 23.5863 42.9657 23.8632 43.0956 24.0919C43.2094 24.2923 43.5589 24.9014 44.2849 25.2589C45.0509 25.6362 45.9488 25.6362 46.7149 25.2589C47.4409 24.9014 47.7903 24.2923 47.9042 24.0919C48.0341 23.8632 48.1597 23.5864 48.2548 23.377L50.1682 19.1683L54.3767 17.255C54.5862 17.1599 54.863 17.0343 55.0918 16.9043C55.2922 16.7905 55.9013 16.441 56.2588 15.7151C56.6361 14.949 56.6361 14.0511 56.2588 13.285C55.9013 12.559 55.2922 12.2096 55.0918 12.0957C54.863 11.9658 54.5862 11.8401 54.3767 11.7451L50.1682 9.83174L48.2549 5.6232C48.1598 5.41378 48.0341 5.13687 47.9042 4.90816C47.7903 4.70772 47.4409 4.09866 46.7149 3.74111ZM44.579 12.4621L45.4999 10.4365L46.4208 12.4621C46.6459 12.9572 47.0427 13.354 47.5378 13.5791L49.5634 14.5L47.5378 15.4209C47.0427 15.646 46.6459 16.0428 46.4208 16.538L45.4999 18.5635L44.579 16.538C44.3539 16.0428 43.9571 15.646 43.462 15.4209L41.4364 14.5L43.462 13.5791C43.9571 13.354 44.3539 12.9572 44.579 12.4621Z"
  />
  <path
    fill-rule="evenodd"
    clip-rule="evenodd"
    d="M25.936 14.5006C25.0306 14.0547 23.9695 14.0547 23.0641 14.5006C22.258 14.8977 21.8395 15.5901 21.6478 15.9276C21.4408 16.292 21.2303 16.7553 21.0273 17.202L16.5412 27.0695C16.4942 27.173 16.4582 27.2522 16.4264 27.3204C16.4134 27.3484 16.4023 27.3722 16.3926 27.3925C16.3722 27.4022 16.3485 27.4134 16.3205 27.4264C16.2522 27.4581 16.173 27.4941 16.0696 27.5412L6.20214 32.0272C5.75538 32.2302 5.29205 32.4407 4.92767 32.6477C4.59012 32.8395 3.89772 33.2579 3.50069 34.064C3.05478 34.9694 3.05478 36.0305 3.50069 36.9359C3.89772 37.7421 4.59012 38.1605 4.92767 38.3522C5.29202 38.5592 5.7553 38.7697 6.20201 38.9727L16.0696 43.4588C16.173 43.5058 16.2522 43.5418 16.3205 43.5736C16.3348 43.5802 16.3479 43.5864 16.3601 43.5921C16.3718 43.5976 16.3826 43.6027 16.3926 43.6075C16.4022 43.6278 16.4134 43.6516 16.4264 43.6795C16.4582 43.7478 16.4942 43.827 16.5412 43.9304L21.0273 53.7979C21.2303 54.2446 21.4408 54.708 21.6478 55.0723C21.8395 55.4099 22.258 56.1023 23.0641 56.4993C23.9695 56.9452 25.0306 56.9452 25.936 56.4993C26.7421 56.1023 27.1605 55.4099 27.3523 55.0723C27.5593 54.708 27.7698 54.2447 27.9728 53.7979L32.4589 43.9304C32.5059 43.827 32.5419 43.7478 32.5736 43.6795C32.5866 43.6516 32.5978 43.6278 32.6075 43.6075C32.6278 43.5978 32.6516 43.5866 32.6796 43.5736C32.7479 43.5418 32.827 43.5058 32.9305 43.4588L42.7979 38.9727C43.2447 38.7698 43.708 38.5592 44.0724 38.3522C44.4099 38.1605 45.1024 37.7421 45.4994 36.9359C45.9453 36.0305 45.9453 34.9694 45.4994 34.064C45.1024 33.2579 44.4099 32.8395 44.0724 32.6477C43.708 32.4407 43.2447 32.2302 42.798 32.0272L32.9305 27.5412C32.827 27.4941 32.7479 27.4581 32.6796 27.4264C32.6516 27.4134 32.6278 27.4022 32.6075 27.3925C32.5978 27.3722 32.5866 27.3484 32.5736 27.3204C32.5419 27.2522 32.5059 27.173 32.4589 27.0695L27.9728 17.2021C27.7698 16.7553 27.5593 16.292 27.3523 15.9276C27.1605 15.5901 26.7421 14.8977 25.936 14.5006ZM20.6377 28.9319L24.5 20.4365L28.3623 28.9319L28.4009 29.0172C28.5413 29.3285 28.7315 29.7501 29.0134 30.1272C29.2573 30.4533 29.5467 30.7428 29.8729 30.9866C30.2499 31.2685 30.6716 31.4587 30.9828 31.5991L31.0681 31.6377L39.5635 35.5L31.0681 39.3623L30.9828 39.4009C30.6716 39.5413 30.2499 39.7315 29.8729 40.0134C29.5467 40.2572 29.2573 40.5466 29.0134 40.8728C28.7315 41.2499 28.5413 41.6715 28.4009 41.9827L28.3623 42.068L24.5 50.5635L20.6377 42.068L20.5991 41.9827C20.4587 41.6715 20.2685 41.2499 19.9866 40.8728C19.7428 40.5466 19.4534 40.2572 19.1272 40.0134C18.7501 39.7315 18.3285 39.5413 18.0173 39.4009L17.932 39.3623L9.43654 35.5L17.932 31.6377L18.0173 31.5991C18.3285 31.4587 18.7501 31.2685 19.1272 30.9866C19.4534 30.7428 19.7428 30.4533 19.9866 30.1272C20.2685 29.7501 20.4587 29.3285 20.5991 29.0173L20.6377 28.9319Z"
  />
</svg>
