<svg
  width="60"
  height="60"
  viewBox="0 0 60 60"
  fill="currentColor"
  xmlns="http://www.w3.org/2000/svg"
>
  <path
    fill-rule="evenodd"
    clip-rule="evenodd"
    d="M9.54616 13.7175L6.71774 16.5459C6.52247 16.7412 6.52247 17.0578 6.71773 17.253L28.2768 38.8121C28.4721 39.0074 28.7886 39.0074 28.9839 38.8121L31.8123 35.9837C32.0076 35.7884 32.0076 35.4718 31.8123 35.2766L10.2533 13.7175C10.058 13.5223 9.74143 13.5223 9.54616 13.7175ZM3.53576 13.364C1.58313 15.3166 1.58313 18.4824 3.53575 20.435L25.0948 41.9941C27.0474 43.9467 30.2133 43.9467 32.1659 41.9941L34.9943 39.1657C36.9469 37.213 36.9469 34.0472 34.9943 32.0946L13.4353 10.5355C11.4826 8.58291 8.3168 8.58291 6.36418 10.5355L3.53576 13.364Z"
  />
  <path
    fill-rule="evenodd"
    clip-rule="evenodd"
    d="M49.4096 55.591C48.5309 56.4697 47.1063 56.4697 46.2276 55.591L36.2276 45.591C35.3489 44.7123 35.3489 43.2877 36.2276 42.409C37.1063 41.5303 38.5309 41.5303 39.4096 42.409L49.4096 52.409C50.2883 53.2877 50.2883 54.7123 49.4096 55.591Z"
  />
  <path
    fill-rule="evenodd"
    clip-rule="evenodd"
    d="M47.0002 16.5C48.9332 16.5 50.5002 14.933 50.5002 13C50.5002 11.067 48.9332 9.5 47.0002 9.5C45.0672 9.5 43.5002 11.067 43.5002 13C43.5002 14.933 45.0672 16.5 47.0002 16.5ZM47.0002 21C51.4185 21 55.0002 17.4183 55.0002 13C55.0002 8.58172 51.4185 5 47.0002 5C42.5819 5 39.0002 8.58172 39.0002 13C39.0002 17.4183 42.5819 21 47.0002 21Z"
  />
</svg>
