<svg
  width="60"
  height="60"
  viewBox="0 0 60 60"
  fill="currentColor"
  xmlns="http://www.w3.org/2000/svg"
>
  <path
    fill-rule="evenodd"
    clip-rule="evenodd"
    d="M19.25 5C19.25 3.75736 18.2426 2.75 17 2.75C15.7574 2.75 14.75 3.75736 14.75 5V14.75H5C3.75736 14.75 2.75 15.7574 2.75 17C2.75 18.2426 3.75736 19.25 5 19.25H14.75V37C14.75 41.5564 18.4437 45.25 23 45.25H40.75V55C40.75 56.2426 41.7574 57.25 43 57.25C44.2426 57.25 45.25 56.2426 45.25 55V45.25H55C56.2426 45.25 57.25 44.2426 57.25 43C57.25 41.7574 56.2426 40.75 55 40.75H45.25V23C45.25 18.4437 41.5564 14.75 37 14.75H19.25V5ZM19.25 19.25V37C19.25 39.0711 20.9289 40.75 23 40.75H40.75V23C40.75 20.9289 39.0711 19.25 37 19.25H19.25Z"
  />
</svg>
