<svg
  width="60"
  height="60"
  viewBox="0 0 60 60"
  fill="currentColor"
  xmlns="http://www.w3.org/2000/svg"
>
  <path
    d="M22 39.75C20.7574 39.75 19.75 40.7574 19.75 42C19.75 43.2426 20.7574 44.25 22 44.25H38C39.2426 44.25 40.25 43.2426 40.25 42C40.25 40.7574 39.2426 39.75 38 39.75H22Z"
  />
  <path
    fill-rule="evenodd"
    clip-rule="evenodd"
    d="M32.6157 7.80294C30.9558 7.03802 29.0442 7.03802 27.3842 7.80294C26.1831 8.35646 25.3611 9.37063 24.6927 10.3849C24.0249 11.3983 23.2971 12.7588 22.4247 14.3895L17.2902 23.9865C16.9049 24.7066 16.6388 25.201 16.4248 25.5589C16.2207 25.1952 15.9683 24.6937 15.6029 23.9634L13.3691 19.4981C12.4776 17.716 11.7533 16.2681 11.1465 15.2412C10.8377 14.7186 10.5067 14.2129 10.1446 13.7949C9.80812 13.4065 9.25629 12.8689 8.45299 12.6235C6.9523 12.165 5.32108 12.5708 4.21002 13.6788C3.61529 14.272 3.37956 15.0054 3.26427 15.5062C3.1402 16.0451 3.08461 16.6469 3.05661 17.2533C3.0016 18.4449 3.03996 20.0633 3.08719 22.0554L3.41973 36.0894C3.47624 38.475 3.52184 40.4005 3.6852 41.9593C3.8535 43.5654 4.16204 44.9735 4.8515 46.2729C5.94796 48.3394 7.66135 50.0127 9.75323 51.0599C11.0686 51.7184 12.4837 51.9935 14.0933 52.1237C15.6555 52.2501 17.5816 52.2501 19.9678 52.25L40.0323 52.25C42.4184 52.25 44.3445 52.2501 45.9067 52.1237C47.5163 51.9935 48.9314 51.7184 50.2467 51.0599C52.3386 50.0127 54.052 48.3394 55.1485 46.2729C55.8379 44.9735 56.1465 43.5654 56.3148 41.9593C56.4781 40.4005 56.5237 38.475 56.5802 36.0895L56.9128 22.0554C56.96 20.0633 56.9984 18.4448 56.9433 17.2533C56.9153 16.647 56.8598 16.0451 56.7357 15.5062C56.6204 15.0054 56.3847 14.272 55.7899 13.6788C54.6789 12.5708 53.0477 12.165 51.547 12.6235C50.7437 12.8689 50.1918 13.4065 49.8554 13.7949C49.4933 14.2129 49.1622 14.7186 48.8534 15.2412C48.2467 16.2681 47.5224 17.716 46.6308 19.4981L44.397 23.9634C44.0317 24.6937 43.7792 25.1952 43.5751 25.5589C43.3611 25.201 43.095 24.7066 42.7098 23.9865L37.5753 14.3895C36.7029 12.7588 35.975 11.3983 35.3073 10.3849C34.6389 9.37063 33.8169 8.35646 32.6157 7.80294ZM29.2676 11.8899C29.7324 11.6757 30.2676 11.6757 30.7324 11.8899C30.7507 11.8983 30.9967 12.0217 31.5497 12.8609C32.0901 13.6811 32.7216 14.8565 33.6592 16.6091L38.7869 26.1934C39.2198 27.0026 39.6149 27.7412 39.9856 28.304C40.3535 28.8625 40.9198 29.6101 41.8363 30.0233C42.9841 30.5409 44.3024 30.5228 45.4356 29.974C46.3404 29.5358 46.8861 28.773 47.2385 28.2046C47.5937 27.6318 47.9685 26.8825 48.3791 26.0616L50.6124 21.5973C51.4038 20.0152 51.9913 18.843 52.4649 17.9903C52.4838 18.9655 52.4537 20.2763 52.4118 22.0448L52.0837 35.8879C52.0244 38.3906 51.9814 40.1339 51.8393 41.4903C51.6999 42.82 51.4808 43.5844 51.1734 44.1638C50.5155 45.4037 49.4874 46.4076 48.2323 47.0359C47.6458 47.3296 46.8765 47.5305 45.5438 47.6383C44.1844 47.7483 42.4407 47.75 39.9372 47.75L20.0628 47.75C17.5593 47.75 15.8155 47.7483 14.4561 47.6383C13.1235 47.5305 12.3542 47.3296 11.7676 47.036C10.5125 46.4076 9.48448 45.4037 8.8266 44.1638C8.51916 43.5844 8.30004 42.82 8.16069 41.4903C8.01854 40.1339 7.97552 38.3906 7.91622 35.8878L7.5882 22.0448C7.5463 20.2763 7.5162 18.9655 7.53509 17.9903C8.00862 18.843 8.59612 20.0152 9.38755 21.5972L11.621 26.0617C12.0315 26.8826 12.4063 27.6319 12.7614 28.2046C13.1139 28.773 13.6595 29.5358 14.5643 29.974C15.6976 30.5228 17.0158 30.5409 18.1637 30.0233C19.0801 29.6101 19.6465 28.8625 20.0144 28.304C20.3851 27.7412 20.7802 27.0025 21.2131 26.1933L26.3408 16.6091C27.2784 14.8566 27.9098 13.6811 28.4503 12.8609C29.0033 12.0217 29.2493 11.8983 29.2676 11.8899ZM53.2996 16.6962C53.3023 16.6936 53.3036 16.692 53.3036 16.6918C53.3036 16.6913 53.298 16.6962 53.2868 16.708C53.2925 16.7029 53.2968 16.699 53.2996 16.6962ZM52.3394 16.4724C52.3341 16.4584 52.3319 16.4506 52.3321 16.4502C52.3324 16.4498 52.335 16.4567 52.3394 16.4724ZM7.66782 16.4502C7.66806 16.4506 7.66585 16.4584 7.6605 16.4724C7.66491 16.4567 7.66758 16.4498 7.66782 16.4502ZM6.71322 16.708C6.70195 16.6982 6.69634 16.6923 6.69635 16.6918C6.69636 16.6913 6.702 16.6962 6.71322 16.708Z"
  />
</svg>
