<svg
  width="60"
  height="60"
  viewBox="0 0 60 60"
  fill="currentColor"
  xmlns="http://www.w3.org/2000/svg"
>
  <path
    d="M32.616 7.80294C30.956 7.03802 29.0444 7.03802 27.3845 7.80294C26.1833 8.35646 25.3613 9.37063 24.6929 10.3849C24.0252 11.3983 23.2974 12.7588 22.425 14.3894L17.2904 23.9865C16.9052 24.7066 16.6391 25.201 16.4251 25.5589C16.221 25.1952 15.9685 24.6937 15.6032 23.9634L13.3694 19.4981C12.4778 17.716 11.7536 16.2681 11.1468 15.2412C10.838 14.7186 10.5069 14.2129 10.1448 13.7949C9.80837 13.4065 9.25654 12.8689 8.45323 12.6235C6.95254 12.165 5.32132 12.5708 4.21027 13.6788C3.61553 14.272 3.37981 15.0054 3.26452 15.5062C3.14045 16.0451 3.08486 16.6469 3.05686 17.2533C3.00184 18.4449 3.04021 20.0633 3.08743 22.0554L3.41998 36.0894C3.47648 38.475 3.52209 40.4005 3.68544 41.9593C3.85375 43.5654 4.16228 44.9735 4.85174 46.2729C5.94821 48.3394 7.6616 50.0127 9.75347 51.0599C11.0688 51.7184 12.4839 51.9935 14.0935 52.1237C15.6558 52.2501 17.5818 52.2501 19.968 52.25L40.0326 52.25C42.4187 52.25 44.3447 52.2501 45.9069 52.1237C47.5165 51.9935 48.9316 51.7184 50.247 51.0599C52.3389 50.0127 54.0522 48.3394 55.1487 46.2729C55.8382 44.9735 56.1467 43.5654 56.315 41.9593C56.4784 40.4005 56.524 38.475 56.5805 36.0895L56.913 22.0554C56.9602 20.0633 56.9986 18.4448 56.9436 17.2533C56.9156 16.647 56.86 16.0451 56.7359 15.5062C56.6206 15.0054 56.3849 14.272 55.7902 13.6788C54.6791 12.5708 53.0479 12.165 51.5472 12.6235C50.7439 12.8689 50.1921 13.4065 49.8556 13.7949C49.4935 14.2129 49.1625 14.7186 48.8537 15.2412C48.2469 16.2681 47.5226 17.716 46.6311 19.4981L44.3973 23.9634C44.0319 24.6937 43.7795 25.1952 43.5754 25.5589C43.3614 25.201 43.0953 24.7066 42.71 23.9865L37.5755 14.3895C36.7031 12.7588 35.9753 11.3983 35.3075 10.3849C34.6391 9.37063 33.8171 8.35646 32.616 7.80294Z"
  />
  <path
    fill-rule="evenodd"
    clip-rule="evenodd"
    d="M19.75 42C19.75 40.7574 20.7574 39.75 22 39.75L38 39.75C39.2426 39.75 40.25 40.7574 40.25 42C40.25 43.2426 39.2426 44.25 38 44.25L22 44.25C20.7574 44.25 19.75 43.2426 19.75 42Z"
    fill="white"
  />
</svg>
