<svg
  width="60"
  height="60"
  viewBox="0 0 60 60"
  fill="currentColor"
  xmlns="http://www.w3.org/2000/svg"
>
  <path
    d="M26.4331 3.82689C28.6252 2.72773 31.1989 2.72421 33.3941 3.81735L49.9205 12.0473C52.4482 13.306 52.4854 16.936 49.984 18.2474L33.5397 26.8686C31.2655 28.0609 28.559 28.057 26.288 26.8583L9.96631 18.2428C7.47628 16.9284 7.51345 13.3131 10.03 12.0514L26.4331 3.82689Z"
  />
  <path
    d="M23.7493 29.7872C26.3801 31.143 28.0364 33.876 28.0364 36.8612L28.0364 53.5214C28.0364 56.1392 25.2808 57.8164 22.9922 56.5915L7.1795 48.1288C4.6082 46.7527 3 44.0525 3 41.1113L3.00001 24.7639C3.00001 22.1696 5.71082 20.4907 7.99712 21.669L23.7493 29.7872Z"
  />
  <path
    d="M36.2508 29.7872C33.6199 31.143 31.9637 33.876 31.9637 36.8612V53.5214C31.9637 56.1392 34.7192 57.8164 37.0079 56.5915L52.8205 48.1288C55.3918 46.7527 57 44.0525 57 41.1113V24.764C57 22.1697 54.2892 20.4908 52.0029 21.6691L36.2508 29.7872Z"
  />
</svg>
