<svg
  width="60"
  height="60"
  viewBox="0 0 60 60"
  fill="currentColor"
  xmlns="http://www.w3.org/2000/svg"
>
  <path
    fill-rule="evenodd"
    clip-rule="evenodd"
    d="M26.6645 3.73267C28.7853 2.73749 31.2453 2.75702 33.3499 3.78575L52.6838 13.2363C55.3257 14.5276 57 17.2039 57 20.1356V39.8879C57 42.8196 55.3257 45.4959 52.6838 46.7873L33.3981 56.2142C31.2547 57.2619 28.7453 57.2619 26.6019 56.2142L7.3162 46.7873C4.67428 45.4959 3 42.8196 3 39.8879V19.7124C3 16.7364 4.72461 14.028 7.42702 12.7599L26.6645 3.73267ZM9.60176 21.1003C8.63779 20.5726 7.45872 21.2674 7.45872 22.3631V39.5888C7.45872 41.0546 8.29585 42.3928 9.61682 43.0385L25.6871 50.8937C26.6481 51.3635 27.7706 50.6665 27.7706 49.6001V33.32C27.7706 31.9181 27.0043 30.6275 25.7711 29.9524L9.60176 21.1003ZM34.2805 29.9868C33.0185 30.653 32.2294 31.9594 32.2294 33.3821V49.6001C32.2294 50.6665 33.3519 51.3635 34.3129 50.8937L50.3832 43.0385C51.7041 42.3928 52.5413 41.0546 52.5413 39.5888V22.7411C52.5413 21.655 51.3809 20.9593 50.4176 21.4679L34.2805 29.9868ZM47.4324 18.09C48.4761 17.539 48.4527 16.0415 47.3923 15.5231L31.6449 7.82573C30.5926 7.31136 29.3626 7.3016 28.3022 7.79919L12.6314 15.1527C11.5624 15.6544 11.5156 17.1522 12.5512 17.7192L28.1952 26.2837C29.3338 26.907 30.7109 26.9174 31.8589 26.3114L47.4324 18.09Z"
  />
</svg>
