<svg
  width="60"
  height="60"
  viewBox="0 0 60 60"
  fill="currentColor"
  xmlns="http://www.w3.org/2000/svg"
>
  <path
    d="M28.5 2.75C23.0174 2.75 18.8145 5.22082 16.0209 8.30092C13.2969 11.3043 11.75 15.0716 11.75 18C11.75 23.7797 14.4109 27.5464 16.674 30.6897L16.7131 30.744C16.9603 31.0873 17.2012 31.4218 17.4342 31.75H14C12.7574 31.75 11.75 32.7574 11.75 34C11.75 35.2426 12.7574 36.25 14 36.25H20.0549C20.496 37.3953 20.75 38.6089 20.75 40C20.75 44.8362 18.0777 47.7491 13.2096 51.1567L13.1578 51.193L13.1081 51.2321C11.9338 52.1565 11.6735 53.6011 11.9017 54.6798C12.1466 55.8375 13.1483 57.25 15 57.25H38C40.3318 57.25 42.7756 56.2795 44.7324 54.9026C46.6847 53.5287 48.4774 51.5193 49.1634 49.1181C49.5048 47.9233 48.813 46.678 47.6181 46.3366C46.4233 45.9952 45.1779 46.687 44.8366 47.8819C44.5226 48.9807 43.5653 50.2213 42.1426 51.2224C40.7244 52.2205 39.1682 52.75 38 52.75H18.573C22.3951 49.6073 25.25 45.8185 25.25 40C25.25 38.6424 25.0727 37.3992 24.7723 36.25H34C35.2426 36.25 36.25 35.2426 36.25 34C36.25 32.7574 35.2426 31.75 34 31.75L22.835 31.75C22.1208 30.5461 21.3307 29.4521 20.5866 28.4216C20.4991 28.3004 20.412 28.1798 20.326 28.0603C18.0891 24.9536 16.25 22.2203 16.25 18C16.25 16.4284 17.2031 13.6957 19.3541 11.3241C21.4355 9.02918 24.4826 7.25 28.5 7.25C30.1301 7.25 31.6271 7.36711 33.2806 8.02589C34.9434 8.68835 36.9311 9.96791 39.364 12.5447C40.2171 13.4482 41.6411 13.4891 42.5447 12.636C43.4482 11.7829 43.4891 10.3589 42.636 9.45533C39.8713 6.52723 37.3591 4.80679 34.9462 3.84546C32.5241 2.88046 30.3699 2.75 28.5 2.75Z"
  />
</svg>
