<svg
  width="60"
  height="60"
  viewBox="0 0 60 60"
  fill="currentColor"
  xmlns="http://www.w3.org/2000/svg"
>
  <path
    d="M32.4114 36.25H46C47.2426 36.25 48.25 35.2426 48.25 34C48.25 32.7574 47.2426 31.75 46 31.75L32.6739 31.75L49.0551 6.2145C49.7261 5.16858 49.4221 3.77676 48.3762 3.10579C47.3303 2.43482 45.9385 2.73878 45.2675 3.78471L30.081 27.4578L14.8946 3.78471C14.2236 2.73878 12.8318 2.43482 11.7859 3.10579C10.7399 3.77676 10.436 5.16858 11.107 6.2145L27.4882 31.75L14 31.75C12.7573 31.75 11.75 32.7574 11.75 34C11.75 35.2426 12.7573 36.25 14 36.25H27.7507L27.7508 54.9996C27.7508 56.2422 28.7581 57.2496 30.0008 57.2496C30.0276 57.2496 30.0544 57.2491 30.081 57.2482C30.1077 57.2491 30.1344 57.2496 30.1613 57.2496C31.4039 57.2496 32.4113 56.2422 32.4113 54.9996L32.4114 36.25Z"
  />
</svg>
