<svg
  width="60"
  height="60"
  viewBox="0 0 60 60"
  fill="currentColor"
  xmlns="http://www.w3.org/2000/svg"
>
  <path
    fill-rule="evenodd"
    clip-rule="evenodd"
    d="M35.0867 35.2484C35.1116 35.2492 35.1367 35.2496 35.1619 35.2496C45.5123 35.2496 51.2495 26.4536 51.2495 18.9996C51.2495 15.3257 50.1252 11.2881 47.5014 8.12556C44.8234 4.89777 40.7169 2.74973 35.1619 2.7496L22.1616 2.74967C18.7098 2.74968 15.9116 5.54792 15.9116 8.9997L15.9118 30.75H12C10.7574 30.75 9.75 31.7574 9.75 33C9.75 34.2427 10.7574 35.25 12 35.25H15.9118L15.9118 42.7501L12 42.7501C10.7574 42.7501 9.75 43.7574 9.75 45.0001C9.75 46.2427 10.7574 47.2501 12 47.2501L15.9119 47.2501L15.9119 54.9996C15.9119 56.2423 16.9193 57.2496 18.1619 57.2496C19.4046 57.2496 20.4119 56.2422 20.4119 54.9996L20.4119 47.25L31 47.25C32.2426 47.25 33.25 46.2426 33.25 45C33.25 43.7574 32.2426 42.75 31 42.75L20.4118 42.75L20.4118 35.25L35 35.25C35.029 35.25 35.0579 35.2495 35.0867 35.2484ZM22.1616 7.24967C21.1951 7.24967 20.4116 8.03318 20.4116 8.99968L20.4118 30.75L35 30.75C35.0252 30.75 35.0503 30.7504 35.0752 30.7512C35.104 30.7502 35.1329 30.7496 35.1619 30.7496C42.4866 30.7496 46.7495 24.5456 46.7495 18.9997C46.7495 16.1737 45.8738 13.2113 44.0382 10.9989C42.2568 8.85171 39.4445 7.24971 35.1618 7.2496L22.1616 7.24967Z"
  />
</svg>
