<svg
  width="60"
  height="60"
  viewBox="0 0 60 60"
  fill="currentColor"
  xmlns="http://www.w3.org/2000/svg"
>
  <path
    d="M21.2501 4.99982C21.2501 3.75718 22.2574 2.74982 23.5001 2.74982C24.7427 2.74982 25.7501 3.75718 25.7501 4.99982V17.84L36.3544 11.564C37.4238 10.9311 38.8037 11.285 39.4367 12.3544C40.0696 13.4238 39.7157 14.8037 38.6463 15.4366L25.7501 23.0691L25.7501 32.84L36.3544 26.564C37.4238 25.9311 38.8037 26.285 39.4367 27.3544C40.0696 28.4238 39.7157 29.8037 38.6463 30.4366L25.7501 38.0691V51.4998C25.7501 52.5346 26.5525 53.148 27.2836 53.0784C33.1697 52.5186 37.0875 50.6413 39.7322 48.1434C42.3926 45.6306 43.9609 42.3041 44.8037 38.5117C45.0732 37.2987 46.2751 36.5338 47.4882 36.8034C48.7012 37.073 49.4661 38.2749 49.1965 39.4879C48.2211 43.8772 46.3185 48.1125 42.8221 51.4149C39.3099 54.7321 34.3851 56.9233 27.7097 57.5582C24.0425 57.907 21.2501 54.8833 21.2501 51.4998V40.7323L14.1463 44.9366C13.0769 45.5695 11.697 45.2156 11.0641 44.1463C10.4312 43.0769 10.785 41.6969 11.8544 41.064L21.2501 35.5033L21.2501 25.7323L14.1463 29.9366C13.0769 30.5695 11.697 30.2156 11.0641 29.1463C10.4312 28.0769 10.785 26.6969 11.8544 26.064L21.2501 20.5033V4.99982Z"
  />
</svg>
