<svg
  width="60"
  height="60"
  viewBox="0 0 60 60"
  fill="currentColor"
  xmlns="http://www.w3.org/2000/svg"
>
  <path
    d="M30.081 27.4578L45.2675 3.78471C45.9385 2.73878 47.3303 2.43482 48.3762 3.10579C49.4221 3.77676 49.7261 5.16858 49.0551 6.2145L34.5984 28.75L46 28.75C47.2426 28.75 48.25 29.7574 48.25 31C48.25 32.2426 47.2426 33.25 46 33.25L32.4114 33.25L32.4113 40.75H46C47.2426 40.75 48.25 41.7574 48.25 43C48.25 44.2427 47.2426 45.25 46 45.25H32.4113L32.4113 54.9996C32.4113 56.2422 31.4039 57.2496 30.1613 57.2496C30.1344 57.2496 30.1077 57.2491 30.081 57.2482C30.0544 57.2491 30.0276 57.2496 30.0008 57.2496C28.7581 57.2496 27.7508 56.2422 27.7508 54.9996L27.7507 45.25H14C12.7573 45.25 11.75 44.2426 11.75 43C11.75 41.7574 12.7573 40.75 14 40.75H27.7507L27.7507 33.25L14 33.25C12.7573 33.25 11.75 32.2426 11.75 31C11.75 29.7574 12.7573 28.75 14 28.75L25.5637 28.75L11.107 6.2145C10.436 5.16858 10.7399 3.77676 11.7859 3.10579C12.8318 2.43482 14.2236 2.73878 14.8946 3.78471L30.081 27.4578Z"
  />
</svg>
