<svg
  width="60"
  height="60"
  viewBox="0 0 60 60"
  fill="currentColor"
  xmlns="http://www.w3.org/2000/svg"
>
  <path
    d="M17.25 42.75L17.25 14.5089C17.25 12.9064 17.25 11.5688 17.3393 10.4761C17.4324 9.33643 17.6337 8.26645 18.1492 7.25465C18.9402 5.7023 20.2023 4.44021 21.7547 3.64927C22.7665 3.13374 23.8365 2.93242 24.9761 2.83932C26.0688 2.75006 27.4064 2.7501 29.0089 2.75016L48.0001 2.75042C49.2427 2.75044 50.2501 3.75781 50.2501 5.00045C50.25 6.2431 49.2427 7.25044 48 7.25042L29.1001 7.25016C27.3828 7.25013 26.2302 7.25187 25.3425 7.32438C24.4811 7.39474 24.0693 7.52039 23.7976 7.65882C23.092 8.01834 22.5183 8.59202 22.1588 9.29763C22.0203 9.56931 21.8947 9.98116 21.8243 10.8425C21.7518 11.7302 21.75 12.8828 21.75 14.6002L21.75 27.75H45C46.2426 27.75 47.25 28.7574 47.25 30C47.25 31.2427 46.2426 32.25 45 32.25H21.75L21.75 42.75H32C33.2426 42.75 34.25 43.7574 34.25 45C34.25 46.2427 33.2426 47.25 32 47.25H21.75L21.75 55.5C21.75 56.7427 20.7426 57.75 19.5 57.75C18.2574 57.75 17.25 56.7427 17.25 55.5L17.25 47.25H13C11.7574 47.25 10.75 46.2427 10.75 45C10.75 43.7574 11.7574 42.75 13 42.75H17.25Z"
  />
</svg>
