<svg
  width="60"
  height="60"
  viewBox="0 0 60 60"
  fill="currentColor"
  xmlns="http://www.w3.org/2000/svg"
>
  <path
    d="M30 2.75C31.2427 2.75 32.25 3.75736 32.25 5V8.50383C35.6587 9.04248 39.0044 10.7738 41.2503 14.0157C41.9579 15.0371 41.7035 16.4389 40.682 17.1465C39.6606 17.8541 38.2589 17.5997 37.5512 16.5783C35.4506 13.546 31.6777 12.3986 28.2131 12.9464C24.682 13.5048 22.4175 15.5902 22.2463 18.1163C22.1303 21.1792 23.1193 22.6977 24.466 23.7286C26.051 24.942 28.2884 25.6187 31.112 26.4703L31.1178 26.4721C33.7251 27.2585 36.8765 28.2091 39.2751 30.1846C41.8696 32.3214 43.3921 35.4611 43.2482 40.07L43.2475 40.091L43.2464 40.1121C42.9296 46.4484 37.5549 50.0893 32.25 50.8985V55C32.25 56.2426 31.2427 57.25 30 57.25C28.7574 57.25 27.75 56.2426 27.75 55V50.9353C23.4366 50.3518 19.2436 47.942 17.3129 43.1357C16.8497 41.9826 17.409 40.6723 18.562 40.2091C19.7151 39.7459 21.0254 40.3052 21.4886 41.4583C23.0432 45.3283 27.1216 47.0072 31.2719 46.4914C35.4749 45.969 38.5654 43.3923 38.751 39.9075C38.8518 36.5306 37.801 34.8002 36.4143 33.6582C34.8306 32.3538 32.5914 31.6168 29.8125 30.7786L29.4205 30.6607C26.9338 29.9137 23.9853 29.0279 21.7306 27.3018C19.1217 25.3045 17.5747 22.3289 17.751 17.9099L17.752 17.8846L17.7536 17.8593C18.095 12.3956 22.8272 9.24217 27.5103 8.50164C27.59 8.48904 27.6699 8.47708 27.75 8.46575V5C27.75 3.75736 28.7574 2.75 30 2.75Z"
  />
</svg>
