<svg
  width="60"
  height="60"
  viewBox="0 0 60 60"
  fill="currentColor"
  xmlns="http://www.w3.org/2000/svg"
>
  <path
    d="M53.2311 50.8829C54.2711 50.2028 54.563 48.8084 53.8829 47.7684C53.2029 46.7283 51.8085 46.4365 50.7684 47.1165C44.953 50.9189 36.8881 51.4076 30.2803 48.5025C25.9112 46.5816 22.1938 43.1853 20.2343 38.25L36 38.25C37.2426 38.25 38.25 37.2426 38.25 36C38.25 34.7574 37.2426 33.75 36 33.75L19.0274 33.75C18.8454 32.5651 18.7497 31.3151 18.7497 29.9997C18.7497 28.6845 18.8454 27.4348 19.0273 26.25L36 26.25C37.2426 26.25 38.25 25.2426 38.25 24C38.25 22.7574 37.2426 21.75 36 21.75L20.234 21.75C22.1935 16.8143 25.9111 13.4179 30.2803 11.4969C36.8881 8.59177 44.953 9.08045 50.7684 12.8829C51.8085 13.5629 53.2029 13.2711 53.8829 12.231C54.5629 11.191 54.2711 9.79656 53.231 9.11652C46.0465 4.41887 36.3614 3.90758 28.4692 7.37748C22.5639 9.97377 17.6435 14.809 15.4608 21.75H7C5.75736 21.75 4.75 22.7574 4.75 24C4.75 25.2426 5.75736 26.25 7 26.25H14.483C14.3296 27.4507 14.2497 28.7008 14.2497 29.9997C14.2497 31.2988 14.3296 32.5491 14.483 33.75H7C5.75736 33.75 4.75 34.7574 4.75 36C4.75 37.2426 5.75736 38.25 7 38.25H15.461C17.6438 45.1906 22.5641 50.0257 28.4692 52.6219C36.3614 56.0918 46.0465 55.5805 53.2311 50.8829Z"
  />
</svg>
