<svg
  width="60"
  height="60"
  viewBox="0 0 60 60"
  fill="currentColor"
  xmlns="http://www.w3.org/2000/svg"
>
  <path
    fill-rule="evenodd"
    clip-rule="evenodd"
    d="M20.3037 3.75H27.6963C30.1348 3.74998 32.1017 3.74996 33.6944 3.88009C35.3343 4.01408 36.7747 4.29716 38.1074 4.97618C40.2242 6.05475 41.9452 7.77578 43.0238 9.89261C43.7028 11.2253 43.9859 12.6657 44.1199 14.3056C44.25 15.8983 44.25 17.8651 44.25 20.3036V27.6964C44.25 30.1349 44.25 32.1017 44.1199 33.6944C43.9859 35.3343 43.7028 36.7747 43.0238 38.1074C41.9452 40.2242 40.2242 41.9452 38.1074 43.0238C36.7747 43.7028 35.3343 43.9859 33.6944 44.1199C32.1017 44.25 30.1349 44.25 27.6964 44.25H20.3036C17.8651 44.25 15.8983 44.25 14.3056 44.1199C12.6657 43.9859 11.2253 43.7028 9.89261 43.0238C7.77578 41.9452 6.05475 40.2242 4.97618 38.1074C4.29716 36.7747 4.01408 35.3343 3.88009 33.6944C3.74996 32.1017 3.74998 30.1348 3.75 27.6963V20.3037C3.74998 17.8652 3.74996 15.8983 3.88009 14.3056C4.01408 12.6657 4.29716 11.2253 4.97618 9.89261C6.05475 7.77578 7.77578 6.05475 9.89261 4.97618C11.2253 4.29716 12.6657 4.01408 14.3056 3.88009C15.8983 3.74996 17.8652 3.74998 20.3037 3.75ZM14.672 8.36515C13.3104 8.4764 12.5281 8.68379 11.9356 8.98571C10.6655 9.63285 9.63285 10.6655 8.98571 11.9356C8.68379 12.5281 8.4764 13.3104 8.36515 14.672C8.25175 16.0599 8.25 17.8426 8.25 20.4V27.6C8.25 30.1574 8.25175 31.9401 8.36515 33.328C8.4764 34.6896 8.68379 35.4719 8.98571 36.0644C9.63285 37.3345 10.6655 38.3671 11.9356 39.0143C12.5281 39.3162 13.3104 39.5236 14.672 39.6349C16.0599 39.7482 17.8426 39.75 20.4 39.75H27.6C30.1574 39.75 31.9401 39.7482 33.328 39.6349C34.6896 39.5236 35.4719 39.3162 36.0644 39.0143C37.3345 38.3671 38.3671 37.3345 39.0143 36.0644C39.3162 35.4719 39.5236 34.6896 39.6349 33.328C39.7482 31.9401 39.75 30.1574 39.75 27.6V20.4C39.75 17.8426 39.7482 16.0599 39.6349 14.672C39.5236 13.3104 39.3162 12.5281 39.0143 11.9356C38.3671 10.6655 37.3345 9.63285 36.0644 8.98571C35.4719 8.68379 34.6896 8.4764 33.328 8.36515C31.9401 8.25175 30.1574 8.25 27.6 8.25H20.4C17.8426 8.25 16.0599 8.25175 14.672 8.36515Z"
  />
  <path
    fill-rule="evenodd"
    clip-rule="evenodd"
    d="M45.8412 17.7589C46.2505 16.5856 47.5335 15.9663 48.7068 16.3756C50.1235 16.8699 51.409 17.6381 52.5006 18.6151C54.7985 20.6719 56.25 23.6679 56.25 27C56.25 28.2426 55.2426 29.25 54 29.25C52.7574 29.25 51.75 28.2426 51.75 27C51.75 25.0011 50.884 23.2074 49.4994 21.9682C48.842 21.3798 48.0706 20.9197 47.2245 20.6245C46.0512 20.2152 45.4319 18.9322 45.8412 17.7589ZM54 31.5C55.2426 31.5 56.25 32.5074 56.25 33.75V38.25C56.25 39.4926 55.2426 40.5 54 40.5C52.7574 40.5 51.75 39.4926 51.75 38.25V33.75C51.75 32.5074 52.7574 31.5 54 31.5ZM54 42.75C55.2426 42.75 56.25 43.7574 56.25 45C56.25 47.0454 55.7021 48.9697 54.7435 50.6267C53.8789 52.1214 52.6812 53.3973 51.2514 54.3543C49.4626 55.5517 47.3094 56.25 45 56.25C43.7574 56.25 42.75 55.2426 42.75 54C42.75 52.7574 43.7574 51.75 45 51.75C46.3908 51.75 47.677 51.3318 48.7483 50.6147C49.6084 50.0391 50.3292 49.2709 50.8483 48.3734C51.4213 47.3829 51.75 46.2332 51.75 45C51.75 43.7574 52.7574 42.75 54 42.75ZM17.8302 46.4275C18.9749 45.9438 20.2949 46.4797 20.7785 47.6244C21.07 48.3143 21.4739 48.9471 21.9682 49.4994C23.2074 50.884 25.0011 51.75 27 51.75H27.5C28.7426 51.75 29.75 52.7574 29.75 54C29.75 55.2426 28.7426 56.25 27.5 56.25H27C23.6679 56.25 20.6719 54.7985 18.6151 52.5006C17.7943 51.5834 17.1208 50.5295 16.6333 49.3757C16.1497 48.2311 16.6856 46.9111 17.8302 46.4275ZM31.5 54C31.5 52.7574 32.5074 51.75 33.75 51.75H38.25C39.4926 51.75 40.5 52.7574 40.5 54C40.5 55.2426 39.4926 56.25 38.25 56.25H33.75C32.5074 56.25 31.5 55.2426 31.5 54Z"
  />
</svg>
