<svg
  width="60"
  height="60"
  viewBox="0 0 60 60"
  fill="currentColor"
  xmlns="http://www.w3.org/2000/svg"
>
  <path
    fill-rule="evenodd"
    clip-rule="evenodd"
    d="M2.75 17C2.75 15.7574 3.75736 14.75 5 14.75H37C41.5564 14.75 45.25 18.4437 45.25 23V55C45.25 56.2426 44.2426 57.25 43 57.25C41.7574 57.25 40.75 56.2426 40.75 55V23C40.75 20.9289 39.0711 19.25 37 19.25H5C3.75736 19.25 2.75 18.2426 2.75 17Z"
  />
  <path
    fill-rule="evenodd"
    clip-rule="evenodd"
    d="M17 2.75C18.2426 2.75 19.25 3.75736 19.25 5V37C19.25 39.0711 20.9289 40.75 23 40.75H55C56.2426 40.75 57.25 41.7574 57.25 43C57.25 44.2426 56.2426 45.25 55 45.25H23C18.4437 45.25 14.75 41.5564 14.75 37V5C14.75 3.75736 15.7574 2.75 17 2.75Z"
  />
</svg>
