<svg
  width="60"
  height="60"
  viewBox="0 0 60 60"
  fill="currentColor"
  xmlns="http://www.w3.org/2000/svg"
>
  <path
    d="M32.6142 6.63261C29.493 6.34057 26.345 6.68273 23.3594 7.63853C20.3739 8.59433 17.6124 10.144 15.2411 12.1944C14.3012 13.0072 14.198 14.4281 15.0108 15.368C15.8236 16.308 17.2445 16.4111 18.1844 15.5984C20.0968 13.9448 22.3238 12.6951 24.7315 11.9243C27.1392 11.1535 29.6779 10.8775 32.195 11.113C34.7121 11.3486 37.1556 12.0907 39.3785 13.2947C40.8497 14.0916 42.2042 15.08 43.4079 16.2312L39.5891 16.0865C38.3473 16.0394 37.3025 17.0079 37.2554 18.2496C37.2084 19.4914 38.1769 20.5362 39.4186 20.5832L47.0984 20.8743C48.7816 20.9381 50.1979 19.6253 50.2617 17.942L50.5528 10.2623C50.5999 9.02053 49.6314 7.97573 48.3896 7.92867C47.1479 7.8816 46.1031 8.85008 46.056 10.0918L45.966 12.4678C44.6154 11.2573 43.1244 10.206 41.5218 9.33791C38.7653 7.84486 35.7354 6.92464 32.6142 6.63261Z"
  />
  <path
    d="M53.5221 35.2185C52.809 38.2711 51.486 41.148 49.6325 43.6762C47.779 46.2044 45.4334 48.3317 42.7367 49.9301C41.1685 50.8596 39.5005 51.5991 37.7679 52.1364L39.7608 53.4341C40.8021 54.1122 41.0965 55.5061 40.4185 56.5474C39.7404 57.5887 38.3465 57.8832 37.3052 57.2051L30.865 53.0114C29.4534 52.0922 29.0543 50.2027 29.9734 48.7912L34.1672 42.351C34.8453 41.3096 36.2391 41.0152 37.2804 41.6933C38.3218 42.3714 38.6162 43.7652 37.9381 44.8065L35.8531 48.0085C37.4591 47.5669 39.0028 46.9122 40.4422 46.059C42.6169 44.77 44.5085 43.0545 46.0033 41.0156C47.498 38.9767 48.565 36.6566 49.1401 34.1948C49.7152 31.733 49.7865 29.1803 49.3497 26.6903C49.1351 25.4663 49.9532 24.3 51.1772 24.0854C52.4011 23.8707 53.5674 24.6889 53.7821 25.9128C54.3237 29.0005 54.2352 32.1658 53.5221 35.2185Z"
  />
  <path
    d="M14.9613 46.7927C12.643 44.6825 10.7754 42.1254 9.47071 39.2749C8.16605 36.4245 7.4513 33.3396 7.36944 30.2059C7.32184 28.3837 7.48878 26.5669 7.86375 24.7922L5.76064 25.8996C4.66111 26.4785 3.30043 26.0565 2.72148 24.957C2.14254 23.8574 2.56456 22.4968 3.6641 21.9178L10.4643 18.3372C11.9548 17.5525 13.7993 18.1245 14.5841 19.615L18.1646 26.4152C18.7436 27.5148 18.3216 28.8755 17.222 29.4544C16.1225 30.0333 14.7618 29.6113 14.1829 28.5118L12.4019 25.1294C12.0048 26.7476 11.8242 28.4152 11.8679 30.0883C11.9339 32.6156 12.5103 35.1033 13.5625 37.4021C14.6146 39.7008 16.1208 41.7631 17.9904 43.4648C19.8599 45.1665 22.0544 46.4726 24.4417 47.3045C25.6151 47.7134 26.2349 48.9961 25.826 50.1696C25.4171 51.343 24.1343 51.9628 22.9609 51.5539C20.0006 50.5223 17.2796 48.9028 14.9613 46.7927Z"
  />
</svg>
