<svg
  width="60"
  height="60"
  viewBox="0 0 60 60"
  fill="currentColor"
  xmlns="http://www.w3.org/2000/svg"
>
  <path
    fill-rule="evenodd"
    clip-rule="evenodd"
    d="M21.3037 4.75H38.6963H38.6964C41.1349 4.74998 43.1017 4.74996 44.6944 4.88009C46.3343 5.01408 47.7747 5.29716 49.1074 5.97618C51.2242 7.05475 52.9452 8.77579 54.0238 10.8926C54.7028 12.2253 54.9859 13.6657 55.1199 15.3056C55.25 16.8983 55.25 18.8651 55.25 21.3036V21.3036V38.6964V38.6964C55.25 41.1349 55.25 43.1017 55.1199 44.6944C54.9859 46.3343 54.7028 47.7747 54.0238 49.1074C52.9452 51.2242 51.2242 52.9452 49.1074 54.0238C47.7747 54.7028 46.3343 54.9859 44.6944 55.1199C43.1017 55.25 41.1349 55.25 38.6964 55.25H38.6964H21.3036H21.3036C18.8651 55.25 16.8983 55.25 15.3056 55.1199C13.6657 54.9859 12.2253 54.7028 10.8926 54.0238C8.77578 52.9452 7.05475 51.2242 5.97618 49.1074C5.29716 47.7747 5.01408 46.3343 4.88009 44.6944C4.74996 43.1017 4.74998 41.1348 4.75 38.6963V21.3037V21.3036C4.74998 18.8651 4.74996 16.8983 4.88009 15.3056C5.01408 13.6657 5.29716 12.2253 5.97618 10.8926C7.05475 8.77579 8.77578 7.05475 10.8926 5.97618C12.2253 5.29716 13.6657 5.01408 15.3056 4.88009C16.8983 4.74996 18.8651 4.74998 21.3036 4.75H21.3037ZM16.409 17.409C17.2877 16.5303 18.7123 16.5303 19.591 17.409L29.1768 26.9948C30.8365 28.6545 30.8365 31.3455 29.1768 33.0052L19.591 42.591C18.7123 43.4697 17.2877 43.4697 16.409 42.591C15.5303 41.7123 15.5303 40.2877 16.409 39.409L25.818 30L16.409 20.591C15.5303 19.7123 15.5303 18.2877 16.409 17.409ZM30.75 41C30.75 39.7574 31.7573 38.75 33 38.75H45C46.2426 38.75 47.25 39.7574 47.25 41C47.25 42.2426 46.2426 43.25 45 43.25H33C31.7573 43.25 30.75 42.2426 30.75 41Z"
  />
</svg>
