<svg
  width="60"
  height="60"
  viewBox="0 0 60 60"
  fill="currentColor"
  xmlns="http://www.w3.org/2000/svg"
>
  <path
    fill-rule="evenodd"
    clip-rule="evenodd"
    d="M11.8119 29.9998C5.1608 39.6866 2.9433 48.9051 7.0191 52.9809C11.0949 57.0567 20.3134 54.8392 30.0002 48.1882C39.6869 54.8392 48.9054 57.0567 52.9812 52.9809C57.057 48.9051 54.8395 39.6866 48.1885 29.9998C54.8394 20.3131 57.0568 11.0947 52.981 7.01898C48.9053 2.94321 39.6869 5.16064 30.0002 11.8116C20.3135 5.16064 11.0951 2.94321 7.01929 7.01898C2.94353 11.0947 5.16095 20.3131 11.8119 29.9998ZM14.6626 33.8363C13.0601 36.3177 11.8072 38.7119 10.9313 40.9135C9.88248 43.5497 9.45711 45.7016 9.47154 47.2805C9.48572 48.8314 9.90448 49.5023 10.2011 49.7989C10.4977 50.0955 11.1686 50.5143 12.7195 50.5285C14.2984 50.5429 16.4503 50.1175 19.0866 49.0687C21.2881 48.1928 23.6823 46.94 26.1637 45.3374C24.1218 43.7035 22.0865 41.8852 20.1008 39.8994C18.115 37.9137 16.2965 35.8782 14.6626 33.8363ZM17.3729 29.9998C19.0891 32.2368 21.0652 34.5 23.2827 36.7175C25.5002 38.9349 27.7632 40.911 30.0002 42.6272C32.2371 40.911 34.5002 38.9349 36.7176 36.7175C38.9351 34.5 40.9112 32.2368 42.6275 29.9998C40.9113 27.7629 38.9352 25.4999 36.7178 23.2824C34.5003 21.0649 32.2372 19.0888 30.0002 17.3726C27.7632 19.0888 25.5001 21.0649 23.2826 23.2824C21.0651 25.4999 19.0891 27.7629 17.3729 29.9998ZM26.1637 14.6623C24.1218 16.2963 22.0863 18.1147 20.1006 20.1005C18.1149 22.0861 16.2965 24.1215 14.6626 26.1633C13.0602 23.682 11.8074 21.2879 10.9315 19.0864C9.88267 16.4502 9.4573 14.2983 9.47173 12.7194C9.48591 11.1685 9.90467 10.4976 10.2013 10.201C10.4979 9.90436 11.1688 9.4856 12.7197 9.47142C14.2986 9.45699 16.4505 9.88236 19.0868 10.9312C21.2883 11.8071 23.6823 13.0598 26.1637 14.6623ZM33.8367 14.6623C35.8786 16.2963 37.914 18.1147 39.8998 20.1005C41.8854 22.0861 43.7038 24.1215 45.3377 26.1633C46.9402 23.682 48.193 21.2879 49.0688 19.0864C50.1177 16.4502 50.543 14.2983 50.5286 12.7194C50.5144 11.1685 50.0957 10.4976 49.7991 10.201C49.5025 9.90436 48.8315 9.4856 47.2806 9.47142C45.7017 9.45699 43.5498 9.88236 40.9136 10.9312C38.7121 11.8071 36.318 13.0598 33.8367 14.6623ZM45.3377 33.8363C43.7038 35.8782 41.8853 37.9137 39.8996 39.8994C37.9139 41.8852 35.8785 43.7035 33.8367 45.3374C36.3181 46.94 38.7122 48.1928 40.9138 49.0687C43.55 50.1175 45.7019 50.5429 47.2808 50.5285C48.8317 50.5143 49.5026 50.0955 49.7993 49.7989C50.0959 49.5023 50.5146 48.8314 50.5288 47.2805C50.5432 45.7016 50.1179 43.5497 49.069 40.9135C48.1931 38.7119 46.9403 36.3177 45.3377 33.8363Z"
  />
  <path
    d="M34.1198 30.1196C34.1198 32.3288 32.3289 34.1196 30.1198 34.1196C27.9107 34.1196 26.1198 32.3288 26.1198 30.1196C26.1198 27.9105 27.9107 26.1196 30.1198 26.1196C32.3289 26.1196 34.1198 27.9105 34.1198 30.1196Z"
  />
</svg>
