<svg
  width="60"
  height="60"
  viewBox="0 0 60 60"
  fill="currentColor"
  xmlns="http://www.w3.org/2000/svg"
>
  <path
    d="M27.25 28C27.25 26.7574 26.2426 25.75 25 25.75C23.7574 25.75 22.75 26.7574 22.75 28V42C22.75 43.2426 23.7574 44.25 25 44.25C26.2426 44.25 27.25 43.2426 27.25 42L27.25 28Z"
    fill="white"
  />
  <path
    d="M37.25 28C37.25 26.7574 36.2426 25.75 35 25.75C33.7574 25.75 32.75 26.7574 32.75 28L32.75 42C32.75 43.2426 33.7574 44.25 35 44.25C36.2426 44.25 37.25 43.2426 37.25 42L37.25 28Z"
    fill="white"
  />
  <path
    fill-rule="evenodd"
    clip-rule="evenodd"
    d="M26.9242 3.75H33.0758C34.4091 3.74998 35.5223 3.74996 36.4361 3.81231C37.3874 3.87722 38.286 4.01715 39.1571 4.378C41.1786 5.21532 42.7847 6.82138 43.622 8.84287C43.9829 9.71403 44.1228 10.6126 44.1877 11.5639C44.2125 11.9273 44.2274 12.3222 44.2364 12.75H53C54.2426 12.75 55.25 13.7574 55.25 15C55.25 16.2426 54.2426 17.25 53 17.25H51.0309L48.1135 45.6945C47.9648 47.1449 47.8401 48.361 47.6594 49.3533C47.4702 50.3924 47.1925 51.3587 46.6481 52.2613C45.8076 53.6546 44.5739 54.7682 43.1021 55.4622C42.1487 55.9117 41.1591 56.0893 40.1061 56.1716C39.1005 56.2501 37.8779 56.25 36.4199 56.25H23.5796C22.1217 56.25 20.8993 56.2501 19.8937 56.1716C18.8407 56.0893 17.8511 55.9117 16.8977 55.4622C15.4259 54.7682 14.1922 53.6546 13.3517 52.2613C12.8073 51.3587 12.5296 50.3924 12.3404 49.3533C12.1597 48.3609 12.035 47.1448 11.8862 45.6944L8.96886 17.25H7C5.75736 17.25 4.75 16.2426 4.75 15C4.75 13.7574 5.75736 12.75 7 12.75H15.7636C15.7726 12.3222 15.7875 11.9273 15.8123 11.5639C15.8772 10.6126 16.0171 9.71403 16.378 8.84287C17.2153 6.82138 18.8214 5.21532 20.8429 4.378C21.714 4.01715 22.6126 3.87722 23.5639 3.81231C24.4777 3.74996 25.5909 3.74998 26.9242 3.75ZM39.7355 12.75C39.7278 12.4222 39.716 12.1327 39.6981 11.8702C39.6489 11.148 39.5604 10.7964 39.4646 10.5649C39.0839 9.64609 38.3539 8.91606 37.4351 8.53546C37.2036 8.43958 36.852 8.35115 36.1298 8.30188C35.3874 8.25122 34.4286 8.25 33 8.25H27C25.5714 8.25 24.6126 8.25122 23.8702 8.30188C23.148 8.35115 22.7964 8.43958 22.5649 8.53546C21.6461 8.91606 20.9161 9.64609 20.5355 10.5649C20.4396 10.7964 20.3511 11.148 20.3019 11.8702C20.284 12.1327 20.2722 12.4222 20.2646 12.75H39.7355ZM25 25.75C26.2426 25.75 27.25 26.7574 27.25 28V42C27.25 43.2426 26.2426 44.25 25 44.25C23.7574 44.25 22.75 43.2426 22.75 42V28C22.75 26.7574 23.7574 25.75 25 25.75ZM37.25 28C37.25 26.7574 36.2426 25.75 35 25.75C33.7574 25.75 32.75 26.7574 32.75 28V42C32.75 43.2426 33.7574 44.25 35 44.25C36.2426 44.25 37.25 43.2426 37.25 42V28Z"
  />
</svg>
