<svg
  width="60"
  height="60"
  viewBox="0 0 60 60"
  fill="currentColor"
  xmlns="http://www.w3.org/2000/svg"
>
  <path
    fill-rule="evenodd"
    clip-rule="evenodd"
    d="M26.9242 3.75H33.0758C34.4091 3.74998 35.5223 3.74996 36.4361 3.81231C37.3874 3.87722 38.286 4.01715 39.1571 4.378C41.1786 5.21532 42.7847 6.82138 43.622 8.84286C43.9829 9.71403 44.1228 10.6126 44.1877 11.5639C44.2125 11.9273 44.2274 12.3222 44.2364 12.75H53C54.2426 12.75 55.25 13.7574 55.25 15C55.25 16.2426 54.2426 17.25 53 17.25H51.031L50.1836 25.5128C50.0568 26.7489 48.9519 27.6482 47.7157 27.5215C46.4796 27.3947 45.5803 26.2898 45.7071 25.0536L46.5074 17.25H13.4926L16.3541 45.1499C16.5139 46.7079 16.6222 47.7482 16.7677 48.5471C16.9082 49.3187 17.0556 49.6891 17.2051 49.937C17.5871 50.5703 18.1479 51.0765 18.8169 51.3919C19.3336 51.6355 20.0875 51.739 22.5089 51.7486C23.7515 51.7535 24.7549 52.7648 24.75 54.0075C24.7451 55.2501 23.7337 56.2535 22.4911 56.2485C20.2998 56.2399 18.4815 56.2089 16.8978 55.4622C15.426 54.7682 14.1923 53.6546 13.3518 52.2613C12.8074 51.3587 12.5297 50.3924 12.3405 49.3533C12.1598 48.3609 12.0351 47.1448 11.8863 45.6944L8.96897 17.25H7C5.75736 17.25 4.75 16.2426 4.75 15C4.75 13.7574 5.75736 12.75 7 12.75H15.7636C15.7726 12.3222 15.7875 11.9273 15.8123 11.5639C15.8772 10.6126 16.0171 9.71403 16.378 8.84286C17.2153 6.82138 18.8214 5.21532 20.8429 4.378C21.714 4.01715 22.6126 3.87722 23.5639 3.81231C24.4777 3.74996 25.5909 3.74998 26.9242 3.75ZM20.2646 12.75H39.7354C39.7278 12.4222 39.716 12.1327 39.6981 11.8702C39.6489 11.148 39.5604 10.7964 39.4645 10.5649C39.0839 9.64608 38.3539 8.91606 37.4351 8.53545C37.2036 8.43958 36.852 8.35115 36.1298 8.30187C35.3874 8.25122 34.4286 8.25 33 8.25H27C25.5714 8.25 24.6126 8.25122 23.8702 8.30187C23.148 8.35115 22.7964 8.43958 22.5649 8.53545C21.6461 8.91606 20.9161 9.64608 20.5354 10.5649C20.4396 10.7964 20.3511 11.148 20.3019 11.8702C20.284 12.1327 20.2722 12.4222 20.2646 12.75ZM35.5 29.75C36.4971 29.75 37.3753 30.4062 37.6578 31.3625L44.1578 53.3625C44.5099 54.5542 43.8292 55.8057 42.6375 56.1578C41.4458 56.5099 40.1943 55.8292 39.8422 54.6375L39.1368 52.25H31.8632L31.1578 54.6375C30.8057 55.8292 29.5542 56.5099 28.3625 56.1578C27.1708 55.8057 26.4901 54.5542 26.8422 53.3625L33.3422 31.3625C33.6247 30.4062 34.5029 29.75 35.5 29.75ZM33.1927 47.75H37.8073L35.5 39.9408L33.1927 47.75ZM47 29.75C48.2426 29.75 49.25 30.7574 49.25 32V54C49.25 55.2426 48.2426 56.25 47 56.25C45.7574 56.25 44.75 55.2426 44.75 54V32C44.75 30.7574 45.7574 29.75 47 29.75ZM54 29.75C55.2426 29.75 56.25 30.7574 56.25 32V54C56.25 55.2426 55.2426 56.25 54 56.25C52.7574 56.25 51.75 55.2426 51.75 54V32C51.75 30.7574 52.7574 29.75 54 29.75Z"
  />
</svg>
