<svg
  width="60"
  height="60"
  viewBox="0 0 60 60"
  fill="currentColor"
  xmlns="http://www.w3.org/2000/svg"
>
  <path
    d="M25 25.75C26.2426 25.75 27.25 26.7574 27.25 28V42C27.25 43.2426 26.2426 44.25 25 44.25C23.7574 44.25 22.75 43.2426 22.75 42V28C22.75 26.7574 23.7574 25.75 25 25.75Z"
  />
  <path
    d="M37.25 28C37.25 26.7574 36.2426 25.75 35 25.75C33.7574 25.75 32.75 26.7574 32.75 28V42C32.75 43.2426 33.7574 44.25 35 44.25C36.2426 44.25 37.25 43.2426 37.25 42V28Z"
  />
  <path
    fill-rule="evenodd"
    clip-rule="evenodd"
    d="M33.0758 3.75H26.9242C25.5909 3.74998 24.4777 3.74996 23.5639 3.81231C22.6126 3.87722 21.714 4.01715 20.8429 4.378C18.8214 5.21532 17.2153 6.82138 16.378 8.84287C16.0171 9.71403 15.8772 10.6126 15.8123 11.5639C15.7875 11.9273 15.7726 12.3222 15.7636 12.75H7C5.75736 12.75 4.75 13.7574 4.75 15C4.75 16.2426 5.75736 17.25 7 17.25H8.96886L11.8862 45.6944C12.035 47.1448 12.1597 48.3609 12.3404 49.3533C12.5296 50.3924 12.8073 51.3587 13.3517 52.2613C14.1922 53.6546 15.4259 54.7682 16.8977 55.4622C17.8511 55.9117 18.8407 56.0893 19.8937 56.1716C20.8993 56.2501 22.1217 56.25 23.5796 56.25H36.4199C37.8779 56.25 39.1005 56.2501 40.1061 56.1716C41.1591 56.0893 42.1487 55.9117 43.1021 55.4622C44.5739 54.7682 45.8076 53.6546 46.6481 52.2613C47.1925 51.3587 47.4702 50.3924 47.6594 49.3533C47.8401 48.361 47.9648 47.1449 48.1135 45.6945L51.0309 17.25H53C54.2426 17.25 55.25 16.2426 55.25 15C55.25 13.7574 54.2426 12.75 53 12.75H44.2364C44.2274 12.3222 44.2125 11.9273 44.1877 11.5639C44.1228 10.6126 43.9829 9.71403 43.622 8.84287C42.7847 6.82138 41.1786 5.21532 39.1571 4.378C38.286 4.01715 37.3874 3.87722 36.4361 3.81231C35.5223 3.74996 34.4091 3.74998 33.0758 3.75ZM39.7355 12.75C39.7278 12.4222 39.716 12.1327 39.6981 11.8702C39.6489 11.148 39.5604 10.7964 39.4646 10.5649C39.0839 9.64609 38.3539 8.91606 37.4351 8.53546C37.2036 8.43958 36.852 8.35115 36.1298 8.30188C35.3874 8.25122 34.4286 8.25 33 8.25H27C25.5714 8.25 24.6126 8.25122 23.8702 8.30188C23.148 8.35115 22.7964 8.43958 22.5649 8.53546C21.6461 8.91606 20.9161 9.64609 20.5355 10.5649C20.4396 10.7964 20.3511 11.148 20.3019 11.8702C20.284 12.1327 20.2722 12.4222 20.2646 12.75H39.7355ZM46.5073 17.25L43.6458 45.1499C43.486 46.7079 43.3777 47.7482 43.2322 48.5471C43.0917 49.3187 42.9443 49.6891 42.7948 49.937C42.4128 50.5703 41.852 51.0765 41.183 51.3919C40.9213 51.5153 40.5377 51.6242 39.7558 51.6852C38.9462 51.7484 37.9003 51.75 36.3342 51.75H23.6656C22.0995 51.75 21.0536 51.7484 20.244 51.6852C19.4621 51.6242 19.0785 51.5153 18.8168 51.3919C18.1478 51.0765 17.587 50.5703 17.205 49.937C17.0555 49.6891 16.9081 49.3187 16.7676 48.5471C16.6221 47.7482 16.5138 46.7079 16.354 45.1499L13.4925 17.25H46.5073Z"
  />
</svg>
