<svg
  width="60"
  height="60"
  viewBox="0 0 60 60"
  fill="currentColor"
  xmlns="http://www.w3.org/2000/svg"
>
  <path
    fill-rule="evenodd"
    clip-rule="evenodd"
    d="M33.0758 3.75H26.9242C25.5909 3.74998 24.4777 3.74996 23.5639 3.81231C22.6126 3.87722 21.714 4.01715 20.8429 4.378C18.8214 5.21532 17.2153 6.82138 16.378 8.84286C16.0171 9.71403 15.8772 10.6126 15.8123 11.5639C15.7875 11.9273 15.7726 12.3222 15.7636 12.75H7C5.75736 12.75 4.75 13.7574 4.75 15C4.75 16.2426 5.75736 17.25 7 17.25H8.96935L11.8867 45.6944C12.0355 47.1448 12.1602 48.361 12.3409 49.3533C12.5301 50.3924 12.8077 51.3587 13.3522 52.2613C14.1927 53.6546 15.4264 54.7682 16.8982 55.4622C18.4819 56.2089 20.3002 56.2399 22.4915 56.2485C23.7341 56.2535 24.7454 55.2501 24.7504 54.0075C24.7553 52.7648 23.7519 51.7535 22.5093 51.7486C20.0879 51.739 19.334 51.6355 18.8172 51.3919C18.1483 51.0765 17.5875 50.5703 17.2054 49.937C17.056 49.6891 16.9085 49.3187 16.7681 48.5471C16.6226 47.7482 16.5143 46.7079 16.3545 45.1499L13.493 17.25H46.5078L45.7074 25.0536C45.5807 26.2898 46.48 27.3947 47.7161 27.5215C48.9523 27.6482 50.0572 26.7489 50.184 25.5128L51.0314 17.25H53C54.2426 17.25 55.25 16.2426 55.25 15C55.25 13.7574 54.2426 12.75 53 12.75H44.2364C44.2274 12.3222 44.2125 11.9273 44.1877 11.5639C44.1228 10.6126 43.9829 9.71403 43.622 8.84286C42.7847 6.82138 41.1786 5.21532 39.1571 4.378C38.286 4.01715 37.3874 3.87722 36.4361 3.81231C35.5223 3.74996 34.4091 3.74998 33.0758 3.75ZM39.7355 12.75H20.2646C20.2722 12.4222 20.284 12.1327 20.3019 11.8702C20.3511 11.148 20.4396 10.7964 20.5355 10.5649C20.9161 9.64608 21.6461 8.91606 22.5649 8.53545C22.7964 8.43958 23.148 8.35115 23.8702 8.30187C24.6126 8.25122 25.5714 8.25 27 8.25H33C34.4286 8.25 35.3874 8.25122 36.1298 8.30187C36.852 8.35115 37.2036 8.43958 37.4351 8.53545C38.3539 8.91606 39.0839 9.64608 39.4646 10.5649C39.5604 10.7964 39.6489 11.148 39.6981 11.8702C39.716 12.1327 39.7278 12.4222 39.7355 12.75Z"
  />
  <path
    d="M56.25 32C56.25 30.7574 55.2426 29.75 54 29.75C52.7574 29.75 51.75 30.7574 51.75 32V54C51.75 55.2426 52.7574 56.25 54 56.25C55.2426 56.25 56.25 55.2426 56.25 54V32Z"
  />
  <path
    d="M47 29.75C48.2426 29.75 49.25 30.7574 49.25 32V54C49.25 55.2426 48.2426 56.25 47 56.25C45.7574 56.25 44.75 55.2426 44.75 54V32C44.75 30.7574 45.7574 29.75 47 29.75Z"
  />
  <path
    fill-rule="evenodd"
    clip-rule="evenodd"
    d="M39.8153 54.5357L39.1399 52.25H31.8601L31.1847 54.5357C30.8326 55.7274 29.5689 56.4535 28.362 56.1574C27.1552 55.8613 26.4622 54.6552 26.8143 53.4635L33.2294 31.751C33.2957 30.8539 33.9236 30.0723 34.8629 29.8418C35.0753 29.7897 35.2894 29.7693 35.5 29.7774C35.7106 29.7693 35.9247 29.7897 36.1371 29.8418C37.0764 30.0723 37.7043 30.8539 37.7706 31.751L44.1857 53.4635C44.5378 54.6552 43.8448 55.8613 42.638 56.1574C41.4311 56.4535 40.1674 55.7274 39.8153 54.5357ZM35.5 39.9302L33.1896 47.75H37.8104L35.5 39.9302Z"
  />
</svg>
