<svg
  width="60"
  height="60"
  viewBox="0 0 60 60"
  fill="currentColor"
  xmlns="http://www.w3.org/2000/svg"
>
  <path
    d="M25 25.75C26.2426 25.75 27.25 26.7574 27.25 28V42C27.25 43.2426 26.2426 44.25 25 44.25C23.7574 44.25 22.75 43.2426 22.75 42V28C22.75 26.7574 23.7574 25.75 25 25.75Z"
  />
  <path
    d="M37.25 28C37.25 26.7574 36.2426 25.75 35 25.75C33.7574 25.75 32.75 26.7574 32.75 28V42C32.75 43.2426 33.7574 44.25 35 44.25C36.2426 44.25 37.25 43.2426 37.25 42V28Z"
  />
  <path
    fill-rule="evenodd"
    clip-rule="evenodd"
    d="M33.0758 3.75H26.9242C25.5909 3.74998 24.4777 3.74996 23.5639 3.81231C22.6126 3.87722 21.714 4.01715 20.8429 4.378C18.8214 5.21532 17.2153 6.82138 16.378 8.84286C16.0171 9.71403 15.8772 10.6126 15.8123 11.5639C15.7875 11.9273 15.7726 12.3222 15.7636 12.75H7C5.75736 12.75 4.75 13.7574 4.75 15C4.75 16.2426 5.75736 17.25 7 17.25H8.96935L11.8867 45.6944C12.0355 47.1448 12.1602 48.3609 12.3409 49.3533C12.5301 50.3924 12.8077 51.3587 13.3522 52.2613C14.1927 53.6546 15.4264 54.7682 16.8982 55.4622C17.8516 55.9117 18.8412 56.0893 19.8942 56.1716C20.8998 56.2501 22.1222 56.25 23.5801 56.25H36.4204C37.8784 56.25 39.101 56.2501 40.1066 56.1716C41.1596 56.0893 42.1491 55.9117 43.1026 55.4622C44.5744 54.7682 45.8081 53.6546 46.6486 52.2613C47.193 51.3587 47.4707 50.3924 47.6599 49.3533C47.8406 48.361 47.9653 47.1449 48.114 45.6945L51.0314 17.25H53C54.2426 17.25 55.25 16.2426 55.25 15C55.25 13.7574 54.2426 12.75 53 12.75H44.2364C44.2274 12.3222 44.2125 11.9273 44.1877 11.5639C44.1228 10.6126 43.9829 9.71403 43.622 8.84286C42.7847 6.82138 41.1786 5.21532 39.1571 4.378C38.286 4.01715 37.3874 3.87722 36.4361 3.81231C35.5223 3.74996 34.4091 3.74998 33.0758 3.75ZM39.7355 12.75C39.7278 12.4222 39.716 12.1327 39.6981 11.8702C39.6489 11.148 39.5604 10.7964 39.4646 10.5649C39.0839 9.64608 38.3539 8.91606 37.4351 8.53545C37.2036 8.43958 36.852 8.35115 36.1298 8.30187C35.3874 8.25122 34.4286 8.25 33 8.25H27C25.5714 8.25 24.6126 8.25122 23.8702 8.30187C23.148 8.35115 22.7964 8.43958 22.5649 8.53545C21.6461 8.91606 20.9161 9.64608 20.5355 10.5649C20.4396 10.7964 20.3511 11.148 20.3019 11.8702C20.284 12.1327 20.2722 12.4222 20.2646 12.75H39.7355ZM46.5078 17.25L43.6463 45.1499C43.4865 46.7079 43.3782 47.7482 43.2327 48.5471C43.0922 49.3187 42.9448 49.6891 42.7953 49.937C42.4133 50.5703 41.8525 51.0765 41.1835 51.3919C40.9217 51.5153 40.5382 51.6242 39.7563 51.6852C38.9467 51.7484 37.9008 51.75 36.3346 51.75H23.6661C22.0999 51.75 21.0541 51.7484 20.2445 51.6852C19.4626 51.6242 19.079 51.5153 18.8172 51.3919C18.1483 51.0765 17.5875 50.5703 17.2054 49.937C17.056 49.6891 16.9085 49.3187 16.7681 48.5471C16.6226 47.7482 16.5143 46.7079 16.3545 45.1499L13.493 17.25H46.5078Z"
  />
</svg>
