<svg
  width="60"
  height="60"
  viewBox="0 0 60 60"
  fill="currentColor"
  xmlns="http://www.w3.org/2000/svg"
>
  <path
    fill-rule="evenodd"
    clip-rule="evenodd"
    d="M7.75 10C7.75 6.54822 10.5482 3.75 14 3.75H46C49.4518 3.75 52.25 6.54822 52.25 10V35.75H55C56.2426 35.75 57.25 36.7574 57.25 38C57.25 39.2426 56.2426 40.25 55 40.25H32.25V52.75H39C40.2426 52.75 41.25 53.7574 41.25 55C41.25 56.2426 40.2426 57.25 39 57.25H21C19.7574 57.25 18.75 56.2426 18.75 55C18.75 53.7574 19.7574 52.75 21 52.75H27.75V40.25H5C3.75736 40.25 2.75 39.2426 2.75 38C2.75 36.7574 3.75736 35.75 5 35.75H7.75V10ZM12.25 35.75L47.75 35.75V10C47.75 9.0335 46.9665 8.25 46 8.25H14C13.0335 8.25 12.25 9.0335 12.25 10V35.75Z"
  />
</svg>
