<svg
  width="60"
  height="60"
  viewBox="0 0 60 60"
  fill="currentColor"
  xmlns="http://www.w3.org/2000/svg"
>
  <path
    fill-rule="evenodd"
    clip-rule="evenodd"
    d="M45.3955 49.4753L49.4722 15.5871C49.9769 11.3923 45.7597 8.21862 41.8686 9.86485L35.6497 12.4959C32.0382 14.0239 27.9617 14.0238 24.3502 12.4959L18.1317 9.86495C14.2406 8.2187 10.0234 11.3924 10.528 15.5872L14.6048 49.475C14.7688 50.8388 16.5274 51.2831 17.3195 50.1609L25.5066 38.5623C27.6979 35.458 32.302 35.458 34.4933 38.5623L42.6808 50.1611C43.4729 51.2833 45.2314 50.839 45.3955 49.4753ZM39.0044 52.7562C42.1729 57.2448 49.207 55.4677 49.8633 50.0127L53.94 16.1246C54.8575 8.4977 47.19 2.72735 40.1152 5.7205L33.8964 8.35154C31.4056 9.4053 28.5943 9.40529 26.1036 8.35152L19.8851 5.72061C12.8103 2.72742 5.14272 8.49777 6.06024 16.1247L10.137 50.0125C10.7932 55.4675 17.8274 57.2446 20.9958 52.756L29.183 41.1574C29.5814 40.593 30.4185 40.593 30.8169 41.1574L39.0044 52.7562Z"
  />
</svg>
