<svg
  width="60"
  height="60"
  viewBox="0 0 60 60"
  fill="currentColor"
  xmlns="http://www.w3.org/2000/svg"
>
  <path
    d="M39.4376 8.23034C33.9941 12.7521 32.2501 19.0205 32.2497 33.9998C32.2496 35.2424 31.2422 36.2498 29.9996 36.2497C28.7569 36.2497 27.7496 35.2423 27.7497 33.9997C27.7501 18.9795 29.3936 10.7235 36.5623 4.7688C37.5182 3.97479 38.9367 4.10601 39.7307 5.06189C40.5247 6.01777 40.3935 7.43633 39.4376 8.23034Z"
  />
  <path
    d="M14 41C15.1046 41 16 40.1046 16 39C16 37.8954 15.1046 37 14 37C12.8954 37 12 37.8954 12 39C12 40.1046 12.8954 41 14 41Z"
  />
  <path
    d="M18.5 45.5C18.5 46.6046 17.6046 47.5 16.5 47.5C15.3954 47.5 14.5 46.6046 14.5 45.5C14.5 44.3954 15.3954 43.5 16.5 43.5C17.6046 43.5 18.5 44.3954 18.5 45.5Z"
  />
  <path
    d="M46 41C47.1046 41 48 40.1046 48 39C48 37.8954 47.1046 37 46 37C44.8954 37 44 37.8954 44 39C44 40.1046 44.8954 41 46 41Z"
  />
  <path
    fill-rule="evenodd"
    clip-rule="evenodd"
    d="M11 29C7.68629 29 5 31.6863 5 35V46C5 50.9706 9.02944 55 14 55H46C50.9706 55 55 50.9706 55 46V35C55 31.6863 52.3137 29 49 29H42.0825C39.6585 29 37.79 31.1811 37.34 33.5629C36.7687 36.5867 35.0134 40 30 40C25.1024 40 23.4622 36.7426 22.9846 33.773C22.5882 31.3091 20.7028 29 18.2071 29H11ZM50.5 46V35C50.5 34.1716 49.8284 33.5 49 33.5H42.2247C42.213 33.5104 42.1996 33.5231 42.1845 33.5384C42.1098 33.6146 42.0184 33.7341 41.9351 33.8968C41.852 34.059 41.793 34.2329 41.7618 34.3984C41.3919 36.3559 40.5681 38.882 38.6419 40.9681C36.5806 43.2006 33.6512 44.5 30 44.5C26.4419 44.5 23.545 43.2624 21.5109 41.0336C19.6129 38.9537 18.855 36.4352 18.5417 34.4877C18.513 34.3096 18.4544 34.1204 18.3685 33.9425C18.2824 33.7639 18.1858 33.6313 18.1056 33.546C18.088 33.5274 18.0725 33.5122 18.0591 33.5H11C10.1716 33.5 9.5 34.1716 9.5 35V46C9.5 48.4853 11.5147 50.5 14 50.5H46C48.4853 50.5 50.5 48.4853 50.5 46Z"
  />
</svg>
