<svg
  width="60"
  height="60"
  viewBox="0 0 60 60"
  fill="currentColor"
  xmlns="http://www.w3.org/2000/svg"
>
  <path
    fill-rule="evenodd"
    clip-rule="evenodd"
    d="M21.3037 4.75H38.6963C41.1348 4.74998 43.1017 4.74996 44.6944 4.88009C46.3343 5.01408 47.7747 5.29716 49.1074 5.97618C51.2242 7.05475 52.9452 8.77578 54.0238 10.8926C54.7028 12.2253 54.9859 13.6657 55.1199 15.3056C55.25 16.8983 55.25 18.8651 55.25 21.3036V32.6964C55.25 35.1348 55.25 37.1017 55.1199 38.6944C54.9859 40.3343 54.7028 41.7747 54.0238 43.1074C52.9452 45.2242 51.2242 46.9452 49.1074 48.0238C47.7747 48.7028 46.3343 48.9859 44.6944 49.1199C43.1017 49.25 41.1349 49.25 38.6964 49.25H32.25V52.75H41C42.2426 52.75 43.25 53.7574 43.25 55C43.25 56.2426 42.2426 57.25 41 57.25H19C17.7574 57.25 16.75 56.2426 16.75 55C16.75 53.7574 17.7574 52.75 19 52.75H27.75V49.25H21.3036C18.8652 49.25 16.8983 49.25 15.3056 49.1199C13.6657 48.9859 12.2253 48.7028 10.8926 48.0238C8.77578 46.9452 7.05475 45.2242 5.97618 43.1074C5.29716 41.7747 5.01408 40.3343 4.88009 38.6944C4.74996 37.1017 4.74998 35.1348 4.75 32.6963V21.3037C4.74998 18.8652 4.74996 16.8983 4.88009 15.3056C5.01408 13.6657 5.29716 12.2253 5.97618 10.8926C7.05475 8.77578 8.77578 7.05475 10.8926 5.97618C12.2253 5.29716 13.6657 5.01408 15.3056 4.88009C16.8983 4.74996 18.8652 4.74998 21.3037 4.75ZM15.672 9.36515C14.3104 9.4764 13.5281 9.68379 12.9356 9.98571C11.6655 10.6329 10.6329 11.6655 9.98571 12.9356C9.68379 13.5281 9.4764 14.3104 9.36515 15.672C9.25175 17.0599 9.25 18.8426 9.25 21.4V32.6C9.25 35.1574 9.25175 36.9401 9.36515 38.328C9.4764 39.6896 9.68379 40.4719 9.98571 41.0644C10.6329 42.3345 11.6655 43.3671 12.9356 44.0143C13.5281 44.3162 14.3104 44.5236 15.672 44.6349C17.0599 44.7482 18.8426 44.75 21.4 44.75H38.6C41.1574 44.75 42.9401 44.7482 44.328 44.6349C45.6896 44.5236 46.4719 44.3162 47.0644 44.0143C48.3345 43.3671 49.3671 42.3345 50.0143 41.0644C50.3162 40.4719 50.5236 39.6896 50.6349 38.328C50.7482 36.9401 50.75 35.1574 50.75 32.6V21.4C50.75 18.8426 50.7482 17.0599 50.6349 15.672C50.5236 14.3104 50.3162 13.5281 50.0143 12.9356C49.3671 11.6655 48.3345 10.6329 47.0644 9.98571C46.4719 9.68379 45.6896 9.4764 44.328 9.36515C42.9401 9.25175 41.1574 9.25 38.6 9.25H21.4C18.8426 9.25 17.0599 9.25175 15.672 9.36515Z"
  />
</svg>
