<svg
  width="60"
  height="60"
  viewBox="0 0 60 60"
  fill="currentColor"
  xmlns="http://www.w3.org/2000/svg"
>
  <path
    fill-rule="evenodd"
    clip-rule="evenodd"
    d="M34.6963 2.75H25.3037C22.8652 2.74998 20.8983 2.74996 19.3056 2.88009C17.6657 3.01408 16.2253 3.29716 14.8926 3.97618C12.7758 5.05475 11.0548 6.77579 9.97618 8.89261C9.29716 10.2253 9.01408 11.6657 8.88009 13.3056C8.74996 14.8983 8.74998 16.8652 8.75 19.3037V40.6963C8.74998 43.1348 8.74996 45.1017 8.88009 46.6944C9.01408 48.3343 9.29716 49.7747 9.97618 51.1074C11.0548 53.2242 12.7758 54.9452 14.8926 56.0238C16.2253 56.7028 17.6657 56.9859 19.3056 57.1199C20.8983 57.25 22.8651 57.25 25.3035 57.25H34.6964C37.1348 57.25 39.1017 57.25 40.6944 57.1199C42.3343 56.9859 43.7747 56.7028 45.1074 56.0238C47.2242 54.9452 48.9452 53.2242 50.0238 51.1074C50.7028 49.7747 50.9859 48.3343 51.1199 46.6944C51.25 45.1017 51.25 43.1349 51.25 40.6965V19.3036C51.25 16.8652 51.25 14.8983 51.1199 13.3056C50.9859 11.6657 50.7028 10.2253 50.0238 8.89261C48.9452 6.77579 47.2242 5.05475 45.1074 3.97618C43.7747 3.29716 42.3343 3.01408 40.6944 2.88009C39.1017 2.74996 37.1348 2.74998 34.6963 2.75ZM20.75 48C20.75 46.7574 21.7574 45.75 23 45.75H37C38.2426 45.75 39.25 46.7574 39.25 48C39.25 49.2426 38.2426 50.25 37 50.25H23C21.7574 50.25 20.75 49.2426 20.75 48ZM27 9.75C25.7574 9.75 24.75 10.7574 24.75 12C24.75 13.2426 25.7574 14.25 27 14.25H33C34.2426 14.25 35.25 13.2426 35.25 12C35.25 10.7574 34.2426 9.75 33 9.75H27Z"
  />
</svg>
