<svg
  width="60"
  height="60"
  viewBox="0 0 60 60"
  fill="currentColor"
  xmlns="http://www.w3.org/2000/svg"
>
  <path
    d="M20.75 48C20.75 46.7574 21.7574 45.75 23 45.75H37C38.2426 45.75 39.25 46.7574 39.25 48C39.25 49.2426 38.2426 50.25 37 50.25H23C21.7574 50.25 20.75 49.2426 20.75 48Z"
  />
  <path
    d="M27 9.75C25.7574 9.75 24.75 10.7574 24.75 12C24.75 13.2426 25.7574 14.25 27 14.25H33C34.2426 14.25 35.25 13.2426 35.25 12C35.25 10.7574 34.2426 9.75 33 9.75H27Z"
  />
  <path
    fill-rule="evenodd"
    clip-rule="evenodd"
    d="M25.3037 2.75H34.6963C37.1348 2.74998 39.1017 2.74996 40.6944 2.88009C42.3343 3.01408 43.7747 3.29716 45.1074 3.97618C47.2242 5.05475 48.9452 6.77578 50.0238 8.89261C50.7028 10.2253 50.9859 11.6657 51.1199 13.3056C51.25 14.8983 51.25 16.8651 51.25 19.3036V40.6964C51.25 43.1348 51.25 45.1017 51.1199 46.6944C50.9859 48.3343 50.7028 49.7747 50.0238 51.1074C48.9452 53.2242 47.2242 54.9452 45.1074 56.0238C43.7747 56.7028 42.3343 56.9859 40.6944 57.1199C39.1017 57.25 37.1349 57.25 34.6964 57.25H25.3036C22.8652 57.25 20.8983 57.25 19.3056 57.1199C17.6657 56.9859 16.2253 56.7028 14.8926 56.0238C12.7758 54.9452 11.0548 53.2242 9.97618 51.1074C9.29716 49.7747 9.01408 48.3343 8.88009 46.6944C8.74996 45.1017 8.74998 43.1348 8.75 40.6963V19.3037C8.74998 16.8652 8.74996 14.8983 8.88009 13.3056C9.01408 11.6657 9.29716 10.2253 9.97618 8.89261C11.0548 6.77578 12.7758 5.05475 14.8926 3.97618C16.2253 3.29716 17.6657 3.01408 19.3056 2.88009C20.8983 2.74996 22.8652 2.74998 25.3037 2.75ZM19.672 7.36515C18.3104 7.4764 17.5281 7.68379 16.9356 7.98571C15.6655 8.63285 14.6329 9.66547 13.9857 10.9356C13.6838 11.5281 13.4764 12.3104 13.3651 13.672C13.2518 15.0599 13.25 16.8426 13.25 19.4V40.6C13.25 43.1574 13.2518 44.9401 13.3651 46.328C13.4764 47.6896 13.6838 48.4719 13.9857 49.0644C14.6329 50.3345 15.6655 51.3671 16.9356 52.0143C17.5281 52.3162 18.3104 52.5236 19.672 52.6349C21.0599 52.7482 22.8426 52.75 25.4 52.75H34.6C37.1574 52.75 38.9401 52.7482 40.328 52.6349C41.6896 52.5236 42.4719 52.3162 43.0644 52.0143C44.3345 51.3671 45.3671 50.3345 46.0143 49.0644C46.3162 48.4719 46.5236 47.6896 46.6349 46.328C46.7482 44.9401 46.75 43.1574 46.75 40.6V19.4C46.75 16.8426 46.7482 15.0599 46.6349 13.672C46.5236 12.3104 46.3162 11.5281 46.0143 10.9356C45.3671 9.66547 44.3345 8.63285 43.0644 7.98571C42.4719 7.68379 41.6896 7.4764 40.328 7.36515C38.9401 7.25175 37.1574 7.25 34.6 7.25H25.4C22.8426 7.25 21.0599 7.25175 19.672 7.36515Z"
  />
</svg>
