<svg
  width="60"
  height="60"
  viewBox="0 0 60 60"
  fill="currentColor"
  xmlns="http://www.w3.org/2000/svg"
>
  <path
    fill-rule="evenodd"
    clip-rule="evenodd"
    d="M27.5087 15.75H32.4913C34.0937 15.75 35.4313 15.7499 36.524 15.8392C37.6637 15.9323 38.7336 16.1337 39.7454 16.6492C41.2978 17.4402 42.5599 18.7022 43.3508 20.2546C43.8663 21.2664 44.0677 22.3363 44.1608 23.476C44.2501 24.5687 44.25 25.9063 44.25 27.5087V32.4913C44.25 34.0937 44.2501 35.4313 44.1608 36.524C44.0677 37.6637 43.8663 38.7336 43.3508 39.7454C42.5599 41.2978 41.2978 42.5599 39.7454 43.3508C38.7336 43.8663 37.6637 44.0677 36.524 44.1608C35.4313 44.2501 34.0937 44.25 32.4913 44.25H27.5087C25.9063 44.25 24.5687 44.2501 23.476 44.1608C22.3363 44.0677 21.2664 43.8663 20.2546 43.3508C18.7022 42.5599 17.4402 41.2978 16.6492 39.7454C16.1337 38.7336 15.9323 37.6637 15.8392 36.524C15.7499 35.4313 15.75 34.0938 15.75 32.4913V27.5087C15.75 25.9063 15.7499 24.5687 15.8392 23.476C15.9323 22.3363 16.1337 21.2664 16.6492 20.2546C17.4402 18.7022 18.7022 17.4402 20.2546 16.6492C21.2664 16.1337 22.3363 15.9323 23.476 15.8392C24.5687 15.7499 25.9063 15.75 27.5087 15.75ZM23.8424 20.3243C22.9811 20.3947 22.5692 20.5203 22.2975 20.6587C21.5919 21.0183 21.0183 21.5919 20.6587 22.2975C20.5203 22.5692 20.3947 22.9811 20.3243 23.8424C20.2518 24.7301 20.25 25.8827 20.25 27.6V32.4C20.25 34.1173 20.2518 35.2699 20.3243 36.1576C20.3947 37.0189 20.5203 37.4308 20.6587 37.7025C21.0183 38.4081 21.5919 38.9818 22.2975 39.3413C22.5692 39.4797 22.9811 39.6054 23.8424 39.6757C24.7301 39.7483 25.8827 39.75 27.6 39.75H32.4C34.1173 39.75 35.2699 39.7483 36.1576 39.6757C37.0189 39.6054 37.4308 39.4797 37.7025 39.3413C38.4081 38.9818 38.9818 38.4081 39.3413 37.7025C39.4797 37.4308 39.6054 37.0189 39.6757 36.1576C39.7483 35.2699 39.75 34.1173 39.75 32.4V27.6C39.75 25.8827 39.7483 24.7301 39.6757 23.8424C39.6054 22.9811 39.4797 22.5692 39.3413 22.2975C38.9818 21.5919 38.4081 21.0183 37.7025 20.6587C37.4308 20.5203 37.0189 20.3947 36.1576 20.3243C35.2699 20.2518 34.1173 20.25 32.4 20.25H27.6C25.8827 20.25 24.7301 20.2518 23.8424 20.3243Z"
  />
  <path
    fill-rule="evenodd"
    clip-rule="evenodd"
    d="M22.25 5C22.25 3.75736 21.2426 2.75 20 2.75C18.7574 2.75 17.75 3.75736 17.75 5V7.93235C16.3372 8.08409 15.0727 8.3749 13.8926 8.97618C11.7758 10.0548 10.0548 11.7758 8.97618 13.8926C8.3749 15.0727 8.08409 16.3372 7.93235 17.75H5C3.75736 17.75 2.75 18.7574 2.75 20C2.75 21.2426 3.75736 22.25 5 22.25H7.75341C7.74999 22.8945 7.74999 23.5782 7.75 24.3037V27.75H5C3.75736 27.75 2.75 28.7574 2.75 30C2.75 31.2426 3.75736 32.25 5 32.25H7.75V35.6963C7.74999 36.4218 7.74999 37.1055 7.75341 37.75H5C3.75736 37.75 2.75 38.7574 2.75 40C2.75 41.2426 3.75736 42.25 5 42.25H7.93235C8.08409 43.6628 8.3749 44.9273 8.97618 46.1074C10.0548 48.2242 11.7758 49.9452 13.8926 51.0238C15.0727 51.6251 16.3372 51.9159 17.75 52.0677V55C17.75 56.2426 18.7574 57.25 20 57.25C21.2426 57.25 22.25 56.2426 22.25 55V52.2466C22.8945 52.25 23.5782 52.25 24.3036 52.25H27.75V55C27.75 56.2426 28.7574 57.25 30 57.25C31.2426 57.25 32.25 56.2426 32.25 55V52.25H35.6964C36.4218 52.25 37.1055 52.25 37.75 52.2466V55C37.75 56.2426 38.7574 57.25 40 57.25C41.2426 57.25 42.25 56.2426 42.25 55V52.0677C43.6628 51.9159 44.9273 51.6251 46.1074 51.0238C48.2242 49.9452 49.9452 48.2242 51.0238 46.1074C51.6251 44.9273 51.9159 43.6628 52.0677 42.25H55C56.2426 42.25 57.25 41.2426 57.25 40C57.25 38.7574 56.2426 37.75 55 37.75H52.2466C52.25 37.1055 52.25 36.4218 52.25 35.6964V32.25H55C56.2426 32.25 57.25 31.2426 57.25 30C57.25 28.7574 56.2426 27.75 55 27.75H52.25V24.3036C52.25 23.5782 52.25 22.8945 52.2466 22.25H55C56.2426 22.25 57.25 21.2426 57.25 20C57.25 18.7574 56.2426 17.75 55 17.75H52.0677C51.9159 16.3372 51.6251 15.0727 51.0238 13.8926C49.9452 11.7758 48.2242 10.0548 46.1074 8.97618C44.9273 8.3749 43.6628 8.08409 42.25 7.93235V5C42.25 3.75736 41.2426 2.75 40 2.75C38.7574 2.75 37.75 3.75736 37.75 5V7.75341C37.1055 7.74999 36.4218 7.74999 35.6963 7.75H32.25V5C32.25 3.75736 31.2426 2.75 30 2.75C28.7574 2.75 27.75 3.75736 27.75 5V7.75H24.3037C23.5782 7.74999 22.8945 7.74999 22.25 7.75341V5ZM15.9356 12.9857C16.5281 12.6838 17.3104 12.4764 18.672 12.3651C20.0599 12.2518 21.8426 12.25 24.4 12.25H35.6C38.1574 12.25 39.9401 12.2518 41.328 12.3651C42.6896 12.4764 43.4719 12.6838 44.0644 12.9857C45.3345 13.6329 46.3671 14.6655 47.0143 15.9356C47.3162 16.5281 47.5236 17.3104 47.6349 18.672C47.7482 20.0599 47.75 21.8426 47.75 24.4V35.6C47.75 38.1574 47.7482 39.9401 47.6349 41.328C47.5236 42.6896 47.3162 43.4719 47.0143 44.0644C46.3671 45.3345 45.3345 46.3671 44.0644 47.0143C43.4719 47.3162 42.6896 47.5236 41.328 47.6349C39.9401 47.7482 38.1574 47.75 35.6 47.75H24.4C21.8426 47.75 20.0599 47.7482 18.672 47.6349C17.3104 47.5236 16.5281 47.3162 15.9356 47.0143C14.6655 46.3671 13.6329 45.3345 12.9857 44.0644C12.6838 43.4719 12.4764 42.6896 12.3651 41.328C12.2518 39.9401 12.25 38.1574 12.25 35.6V24.4C12.25 21.8426 12.2518 20.0599 12.3651 18.672C12.4764 17.3104 12.6838 16.5281 12.9857 15.9356C13.6329 14.6655 14.6655 13.6329 15.9356 12.9857Z"
  />
</svg>
