<svg
  width="60"
  height="60"
  viewBox="0 0 60 60"
  fill="currentColor"
  xmlns="http://www.w3.org/2000/svg"
>
  <path
    fill-rule="evenodd"
    clip-rule="evenodd"
    d="M25.9026 3.75H37.0974C39.815 3.74998 41.9918 3.74996 43.7512 3.89372C45.5579 4.04133 47.1218 4.35165 48.5614 5.08517C50.8664 6.25962 52.7404 8.13363 53.9148 10.4386C54.6483 11.8782 54.9587 13.4421 55.1063 15.2488C55.25 17.0082 55.25 19.1848 55.25 21.9024V30.0974C55.25 32.815 55.25 34.9918 55.1063 36.7512C54.9587 38.5579 54.6483 40.1218 53.9148 41.5614C52.7404 43.8664 50.8664 45.7404 48.5614 46.9148C47.1218 47.6483 45.5579 47.9587 43.7512 48.1063C41.9918 48.25 39.8152 48.25 37.0977 48.25H31.2266C31.2134 48.7069 31.1929 49.1313 31.1608 49.524C31.1546 49.5996 31.1479 49.675 31.1408 49.75H43C44.2426 49.75 45.25 50.7574 45.25 52C45.25 53.2426 44.2426 54.25 43 54.25H29.364C28.6483 55.1175 27.7587 55.8345 26.7454 56.3508C25.7336 56.8663 24.6637 57.0677 23.524 57.1608C22.4313 57.2501 21.0938 57.25 19.4914 57.25H14.5086C12.9062 57.25 11.5687 57.2501 10.476 57.1608C9.33634 57.0677 8.26637 56.8663 7.25458 56.3508C5.70224 55.5599 4.44016 54.2978 3.6492 52.7454C3.13367 51.7336 2.93233 50.6637 2.83922 49.524C2.74995 48.4313 2.74997 47.0938 2.75 45.4914V31.5087C2.74997 29.9063 2.74995 28.5687 2.83922 27.476C2.93233 26.3363 3.13367 25.2664 3.6492 24.2546C4.44016 22.7022 5.70224 21.4402 7.25458 20.6492C7.4185 20.5657 7.58394 20.4904 7.75095 20.4225C7.75508 18.3791 7.77706 16.6766 7.89372 15.2488C8.04133 13.4421 8.35165 11.8782 9.08517 10.4386C10.2596 8.13363 12.1336 6.25962 14.4386 5.08517C15.8782 4.35165 17.4421 4.04133 19.2488 3.89372C21.0082 3.74996 23.185 3.74998 25.9026 3.75ZM12.2533 19.7619C12.9375 19.75 13.6884 19.75 14.5087 19.75H19.4913C21.0938 19.75 22.4313 19.7499 23.524 19.8392C24.6637 19.9323 25.7336 20.1337 26.7454 20.6492C28.2978 21.4402 29.5599 22.7022 30.3508 24.2546C30.8663 25.2664 31.0677 26.3363 31.1608 27.476C31.2501 28.5687 31.25 29.9063 31.25 31.5087V43.75H37C39.8374 43.75 41.8301 43.7482 43.3848 43.6212C44.9131 43.4964 45.8189 43.2617 46.5184 42.9053C47.9767 42.1623 49.1623 40.9767 49.9053 39.5184C50.2617 38.8189 50.4964 37.9131 50.6212 36.3848C50.7482 34.8301 50.75 32.8374 50.75 30V22C50.75 19.1626 50.7482 17.1699 50.6212 15.6152C50.4964 14.0869 50.2617 13.1811 49.9053 12.4816C49.1623 11.0233 47.9767 9.83772 46.5184 9.0947C45.8189 8.73829 44.9131 8.50364 43.3848 8.37877C41.8301 8.25175 39.8374 8.25 37 8.25H26C23.1626 8.25 21.1699 8.25175 19.6152 8.37877C18.0869 8.50364 17.1811 8.73829 16.4816 9.0947C15.0233 9.83772 13.8377 11.0233 13.0947 12.4816C12.7383 13.1811 12.5036 14.0869 12.3788 15.6152C12.2881 16.725 12.2613 18.0579 12.2533 19.7619ZM9.29754 24.6587C9.56922 24.5203 9.98107 24.3947 10.8424 24.3243C11.7301 24.2518 12.8827 24.25 14.6 24.25H19.4C21.1173 24.25 22.2699 24.2518 23.1576 24.3243C24.0189 24.3947 24.4308 24.5203 24.7025 24.6587C25.4081 25.0183 25.9818 25.5919 26.3413 26.2975C26.4797 26.5692 26.6054 26.9811 26.6757 27.8424C26.7483 28.7301 26.75 29.8827 26.75 31.6V45.4C26.75 47.1173 26.7483 48.2699 26.6757 49.1576C26.6054 50.0189 26.4797 50.4308 26.3413 50.7025C25.9818 51.4081 25.4081 51.9818 24.7025 52.3413C24.4308 52.4797 24.0189 52.6054 23.1576 52.6757C22.2699 52.7483 21.1173 52.75 19.4 52.75H14.6C12.8827 52.75 11.7301 52.7483 10.8424 52.6757C9.98107 52.6054 9.56922 52.4797 9.29754 52.3413C8.59193 51.9818 8.01825 51.4081 7.65873 50.7025C7.5203 50.4308 7.39465 50.0189 7.32428 49.1576C7.25175 48.2699 7.25 47.1173 7.25 45.4V31.6C7.25 29.8827 7.25175 28.7301 7.32428 27.8424C7.39465 26.9811 7.5203 26.5692 7.65873 26.2975C8.01825 25.5919 8.59193 25.0183 9.29754 24.6587Z"
  />
</svg>
