<svg
  width="60"
  height="60"
  viewBox="0 0 60 60"
  fill="currentColor"
  xmlns="http://www.w3.org/2000/svg"
>
  <path
    d="M25.7502 13.75C24.5076 13.75 23.5002 14.7574 23.5002 16C23.5002 17.2426 24.5076 18.25 25.7502 18.25H34.2502C35.4928 18.25 36.5002 17.2426 36.5002 16C36.5002 14.7574 35.4928 13.75 34.2502 13.75H25.7502Z"
  />
  <path
    fill-rule="evenodd"
    clip-rule="evenodd"
    d="M30 23.75C24.3391 23.75 19.75 28.3391 19.75 34C19.75 39.6609 24.3391 44.25 30 44.25C35.6609 44.25 40.25 39.6609 40.25 34C40.25 28.3391 35.6609 23.75 30 23.75ZM24.25 34C24.25 30.8244 26.8244 28.25 30 28.25C33.1756 28.25 35.75 30.8244 35.75 34C35.75 37.1756 33.1756 39.75 30 39.75C26.8244 39.75 24.25 37.1756 24.25 34Z"
  />
  <path
    fill-rule="evenodd"
    clip-rule="evenodd"
    d="M33.076 4.75H26.9244C25.5911 4.74998 24.4779 4.74996 23.5641 4.81231C22.6128 4.87722 21.7142 5.01715 20.8431 5.378C18.8216 6.21532 17.2155 7.82138 16.3782 9.84286C15.9111 10.9706 15.7922 12.2475 15.7614 13.7517C13.5998 13.7625 12.0041 13.8334 10.6173 14.2707C7.11667 15.3744 4.37462 18.1165 3.27089 21.6171C2.74825 23.2747 2.749 25.2307 2.7501 28.0946L2.7502 37.6963C2.75018 40.1348 2.75016 42.1017 2.88029 43.6944C3.01428 45.3343 3.29736 46.7747 3.97638 48.1074C5.05495 50.2242 6.77599 51.9452 8.89281 53.0238C10.2255 53.7028 11.6659 53.9859 13.3058 54.1199C14.8985 54.25 16.8653 54.25 19.3038 54.25H40.6966C43.135 54.25 45.1019 54.25 46.6946 54.1199C48.3345 53.9859 49.7749 53.7028 51.1076 53.0238C53.2244 51.9452 54.9454 50.2242 56.024 48.1074C56.703 46.7747 56.9861 45.3343 57.1201 43.6944C57.2502 42.1017 57.2502 40.1349 57.2502 37.6964L57.2503 28.0946C57.2514 25.2307 57.2522 23.2747 56.7295 21.6171C55.6258 18.1165 52.8837 15.3744 49.3831 14.2707C47.9963 13.8334 46.4006 13.7625 44.239 13.7517C44.2082 12.2475 44.0894 10.9706 43.6222 9.84286C42.7849 7.82138 41.1788 6.21532 39.1573 5.378C38.2862 5.01715 37.3876 4.87722 36.4363 4.81231C35.5225 4.74996 34.4093 4.74998 33.076 4.75ZM22.5651 9.53545C22.7966 9.43958 23.1482 9.35115 23.8704 9.30187C24.6128 9.25122 25.5716 9.25 27.0002 9.25H33.0002C34.4288 9.25 35.3876 9.25122 36.13 9.30187C36.8522 9.35115 37.2038 9.43958 37.4353 9.53545C38.3541 9.91606 39.0841 10.6461 39.4648 11.5649C39.6839 12.094 39.7484 12.865 39.7501 15.5014C39.7511 17.0175 40.98 18.25 42.5002 18.25C45.9271 18.25 47.1224 18.2763 48.03 18.5624C50.1303 19.2247 51.7756 20.8699 52.4378 22.9702C52.724 23.8778 52.7502 25.0731 52.7502 28.5V37.6C52.7502 40.1574 52.7485 41.9401 52.6351 43.328C52.5238 44.6896 52.3164 45.4719 52.0145 46.0644C51.3674 47.3345 50.3347 48.3671 49.0646 49.0143C48.4721 49.3162 47.6898 49.5236 46.3282 49.6349C44.9403 49.7482 43.1576 49.75 40.6002 49.75H19.4002C16.8428 49.75 15.0601 49.7482 13.6722 49.6349C12.3106 49.5236 11.5283 49.3162 10.9358 49.0143C9.66567 48.3671 8.63305 47.3345 7.98591 46.0644C7.68399 45.4719 7.4766 44.6896 7.36535 43.328C7.25195 41.9401 7.2502 40.1574 7.2502 37.6V28.5C7.2502 25.0731 7.27645 23.8778 7.56261 22.9702C8.22485 20.8699 9.87008 19.2247 11.9704 18.5624C12.878 18.2763 14.0733 18.25 17.5002 18.25C19.0204 18.25 20.2493 17.0175 20.2503 15.5014C20.252 12.865 20.3165 12.094 20.5357 11.5649C20.9163 10.6461 21.6463 9.91606 22.5651 9.53545Z"
  />
</svg>
