<svg
  width="60"
  height="60"
  viewBox="0 0 60 60"
  fill="currentColor"
  xmlns="http://www.w3.org/2000/svg"
>
  <path
    fill-rule="evenodd"
    clip-rule="evenodd"
    d="M6 30C6 27.2386 8.23858 25 11 25C13.7614 25 16 27.2386 16 30C16 32.7614 13.7614 35 11 35C8.23858 35 6 32.7614 6 30ZM19.75 30C19.75 28.7574 20.7574 27.75 22 27.75H28.7704C28.8505 23.5036 29.1717 20.0849 29.8086 17.3491C30.5592 14.1249 31.7918 11.661 33.7684 9.93156C35.7374 8.20866 38.1726 7.4552 40.8248 7.09819C43.4123 6.74989 46.4757 6.74994 49.8737 6.75H50C51.2426 6.75 52.25 7.75736 52.25 9C52.25 10.2426 51.2426 11.25 50 11.25C46.4484 11.25 43.6806 11.2544 41.4252 11.558C39.2024 11.8572 37.7626 12.4161 36.7316 13.3182C35.7082 14.2137 34.8158 15.6872 34.1914 18.3694C33.657 20.6649 33.3513 23.7053 33.2713 27.75L50 27.75C51.2426 27.75 52.25 28.7574 52.25 30C52.25 31.2426 51.2426 32.25 50 32.25L33.2713 32.25C33.3513 36.2947 33.657 39.3351 34.1914 41.6306C34.8158 44.3127 35.7082 45.7863 36.7316 46.6818C37.7626 47.5839 39.2024 48.1428 41.4252 48.442C43.6806 48.7456 46.4484 48.75 50 48.75C51.2426 48.75 52.25 49.7574 52.25 51C52.25 52.2426 51.2426 53.25 50 53.25H49.8738C46.4758 53.2501 43.4124 53.2501 40.8248 52.9018C38.1726 52.5448 35.7374 51.7913 33.7684 50.0684C31.7918 48.339 30.5592 45.8751 29.8086 42.6509C29.1717 39.9151 28.8505 36.4964 28.7704 32.25H22C20.7574 32.25 19.75 31.2426 19.75 30Z"
  />
</svg>
