<svg
  width="60"
  height="60"
  viewBox="0 0 60 60"
  fill="currentColor"
  xmlns="http://www.w3.org/2000/svg"
>
  <path
    fill-rule="evenodd"
    clip-rule="evenodd"
    d="M9 6.75L9.14238 6.75L9.14239 6.75C11.9745 6.7499 14.5987 6.7498 16.8288 7.10628C19.1614 7.47913 21.321 8.27626 23.0422 10.0646C24.7274 11.8156 25.7458 14.2633 26.3659 17.4264C26.8959 20.1299 27.1653 23.5197 27.2328 27.75H32.7672C32.8347 23.5197 33.1041 20.1299 33.6341 17.4264C34.2542 14.2633 35.2726 11.8156 36.9578 10.0646C38.679 8.27626 40.8386 7.47913 43.1712 7.10628C45.4014 6.7498 48.0256 6.7499 50.8576 6.75L51 6.75C52.2426 6.75 53.25 7.75736 53.25 9C53.25 10.2426 52.2426 11.25 51 11.25C47.9918 11.25 45.7192 11.2561 43.8815 11.5499C42.1088 11.8332 41.0052 12.3485 40.2001 13.1851C39.359 14.0591 38.5879 15.5489 38.0501 18.2921C37.5938 20.6197 37.3353 23.6888 37.2679 27.75H51C52.2426 27.75 53.25 28.7574 53.25 30C53.25 31.2426 52.2426 32.25 51 32.25H37.2679C37.3353 36.3111 37.5938 39.3803 38.0501 41.7079C38.5879 44.4511 39.359 45.9409 40.2001 46.8149C41.0052 47.6515 42.1088 48.1668 43.8815 48.4501C45.7192 48.7439 47.9918 48.75 51 48.75C52.2426 48.75 53.25 49.7574 53.25 51C53.25 52.2426 52.2426 53.25 51 53.25H50.8576C48.0256 53.2501 45.4014 53.2502 43.1712 52.8937C40.8386 52.5209 38.679 51.7237 36.9578 49.9354C35.2726 48.1844 34.2542 45.7367 33.6341 42.5736C33.1041 39.8701 32.8347 36.4803 32.7672 32.25H27.2328C27.1653 36.4803 26.8959 39.8701 26.3659 42.5736C25.7458 45.7367 24.7274 48.1844 23.0422 49.9354C21.321 51.7237 19.1614 52.5209 16.8288 52.8937C14.5986 53.2502 11.9744 53.2501 9.14235 53.25H9C7.75736 53.25 6.75 52.2426 6.75 51C6.75 49.7574 7.75736 48.75 9 48.75C12.0082 48.75 14.2808 48.7439 16.1185 48.4501C17.8912 48.1668 18.9948 47.6515 19.7999 46.8149C20.641 45.9409 21.4121 44.4511 21.9499 41.7079C22.4062 39.3803 22.6647 36.3111 22.7321 32.25H9C7.75736 32.25 6.75 31.2426 6.75 30C6.75 28.7574 7.75736 27.75 9 27.75H22.7321C22.6647 23.6888 22.4062 20.6197 21.9499 18.2921C21.4121 15.5489 20.641 14.0591 19.7999 13.1851C18.9948 12.3485 17.8912 11.8332 16.1185 11.5499C14.2808 11.2561 12.0082 11.25 9 11.25C7.75736 11.25 6.75 10.2426 6.75 9C6.75 7.75736 7.75736 6.75 9 6.75Z"
  />
</svg>
