<svg
  width="60"
  height="60"
  viewBox="0 0 60 60"
  fill="currentColor"
  xmlns="http://www.w3.org/2000/svg"
>
  <path
    fill-rule="evenodd"
    clip-rule="evenodd"
    d="M18.1163 14.0465C19.1952 14.663 19.5701 16.0374 18.9535 17.1163L12.8772 27.75H18.9564C18.9841 27.7495 19.0118 27.7495 19.0395 27.75H27.6943L35.0465 14.8837C35.663 13.8048 37.0374 13.4299 38.1163 14.0465C39.1952 14.663 39.5701 16.0374 38.9535 17.1163L32.8772 27.75H38.9564C38.9841 27.7495 39.0118 27.7495 39.0395 27.75H54C55.2426 27.75 56.25 28.7574 56.25 30C56.25 31.2426 55.2426 32.25 54 32.25H42.8772L48.9535 42.8837C49.5701 43.9626 49.1952 45.337 48.1163 45.9535C47.0374 46.5701 45.663 46.1952 45.0465 45.1163L37.6943 32.25H29.0395C29.0118 32.2505 28.9841 32.2505 28.9564 32.25H22.8772L28.9535 42.8837C29.5701 43.9626 29.1952 45.337 28.1163 45.9535C27.0374 46.5701 25.663 46.1952 25.0465 45.1163L17.6943 32.25H9.03947C9.0118 32.2505 8.98409 32.2505 8.95636 32.25H5C3.75736 32.25 2.75 31.2426 2.75 30C2.75 28.7574 3.75736 27.75 5 27.75H7.69427L15.0465 14.8837C15.663 13.8048 17.0374 13.4299 18.1163 14.0465Z"
  />
</svg>
