<svg
  width="60"
  height="60"
  viewBox="0 0 60 60"
  fill="currentColor"
  xmlns="http://www.w3.org/2000/svg"
>
  <path
    fill-rule="evenodd"
    clip-rule="evenodd"
    d="M36 11.25C36 10.0074 34.9926 9 33.75 9H26.25C25.0074 9 24 10.0074 24 11.25C24 12.4926 25.0074 13.5 26.25 13.5H27.75V25.7704C23.5036 25.8505 20.0849 26.1717 17.3491 26.8086C14.1249 27.5592 11.661 28.7918 9.93157 30.7684C8.20866 32.7374 7.4552 35.1726 7.09819 37.8248C6.7499 40.4124 6.74995 43.4757 6.75 46.8737V46.8738V47H5.25C4.00736 47 3 48.0074 3 49.25C3 50.4926 4.00736 51.5 5.25 51.5H12.75C13.9926 51.5 15 50.4926 15 49.25C15 48.0074 13.9926 47 12.75 47H11.25C11.25 43.4484 11.2544 40.6806 11.558 38.4252C11.8572 36.2024 12.4161 34.7626 13.3182 33.7316C14.2137 32.7082 15.6873 31.8158 18.3694 31.1914C20.6649 30.657 23.7053 30.3513 27.75 30.2713V47H26.25C25.0074 47 24 48.0074 24 49.25C24 50.4926 25.0074 51.5 26.25 51.5H33.75C34.9926 51.5 36 50.4926 36 49.25C36 48.0074 34.9926 47 33.75 47H32.25V30.2713C36.2947 30.3513 39.3351 30.657 41.6306 31.1914C44.3128 31.8158 45.7863 32.7082 46.6818 33.7316C47.5839 34.7626 48.1428 36.2024 48.442 38.4252C48.7456 40.6806 48.75 43.4484 48.75 47H47.25C46.0074 47 45 48.0074 45 49.25C45 50.4926 46.0074 51.5 47.25 51.5H54.75C55.9926 51.5 57 50.4926 57 49.25C57 48.0074 55.9926 47 54.75 47L53.25 47V46.8737V46.8737C53.2501 43.4757 53.2501 40.4123 52.9018 37.8248C52.5448 35.1726 51.7913 32.7374 50.0684 30.7684C48.339 28.7918 45.8751 27.5592 42.6509 26.8086C39.9151 26.1717 36.4964 25.8505 32.25 25.7704V13.5H33.75C34.9926 13.5 36 12.4926 36 11.25Z"
  />
</svg>
