<svg
  width="60"
  height="60"
  viewBox="0 0 60 60"
  fill="currentColor"
  xmlns="http://www.w3.org/2000/svg"
>
  <path
    fill-rule="evenodd"
    clip-rule="evenodd"
    d="M25.25 8C25.25 6.75736 24.2426 5.75 23 5.75C21.7574 5.75 20.75 6.75736 20.75 8V52C20.75 53.2426 21.7574 54.25 23 54.25C24.2426 54.25 25.25 53.2426 25.25 52V8ZM33 11.75C31.7574 11.75 30.75 12.7574 30.75 14C30.75 15.2426 31.7574 16.25 33 16.25H39C40.2426 16.25 41.25 15.2426 41.25 14C41.25 12.7574 40.2426 11.75 39 11.75H33ZM30.75 30C30.75 28.7574 31.7574 27.75 33 27.75H39C40.2426 27.75 41.25 28.7574 41.25 30C41.25 31.2426 40.2426 32.25 39 32.25H33C31.7574 32.25 30.75 31.2426 30.75 30ZM33 43.75C31.7574 43.75 30.75 44.7574 30.75 46C30.75 47.2426 31.7574 48.25 33 48.25H39C40.2426 48.25 41.25 47.2426 41.25 46C41.25 44.7574 40.2426 43.75 39 43.75H33Z"
  />
</svg>
