<svg
  width="60"
  height="60"
  viewBox="0 0 60 60"
  fill="currentColor"
  xmlns="http://www.w3.org/2000/svg"
>
  <path
    fill-rule="evenodd"
    clip-rule="evenodd"
    d="M30 6C32.7614 6 35 8.23858 35 11C35 13.7614 32.7614 16 30 16C27.2386 16 25 13.7614 25 11C25 8.23858 27.2386 6 30 6ZM30 19.75C31.2426 19.75 32.25 20.7574 32.25 22V28.7704C36.4964 28.8505 39.9151 29.1717 42.6509 29.8086C45.8751 30.5592 48.339 31.7918 50.0684 33.7684C51.7913 35.7374 52.5448 38.1726 52.9018 40.8248C53.2501 43.4123 53.2501 46.4757 53.25 49.8737V49.8737V50C53.25 51.2426 52.2426 52.25 51 52.25C49.7574 52.25 48.75 51.2426 48.75 50C48.75 46.4484 48.7456 43.6806 48.442 41.4252C48.1428 39.2024 47.5839 37.7626 46.6818 36.7316C45.7863 35.7082 44.3128 34.8158 41.6306 34.1914C39.3351 33.657 36.2947 33.3513 32.25 33.2713L32.25 50C32.25 51.2426 31.2426 52.25 30 52.25C28.7574 52.25 27.75 51.2426 27.75 50L27.75 33.2713C23.7053 33.3513 20.6649 33.657 18.3694 34.1914C15.6873 34.8158 14.2137 35.7082 13.3182 36.7316C12.4161 37.7626 11.8572 39.2024 11.558 41.4252C11.2544 43.6806 11.25 46.4484 11.25 50C11.25 51.2426 10.2426 52.25 9 52.25C7.75736 52.25 6.75 51.2426 6.75 50L6.75 49.8738L6.75 49.8737C6.74995 46.4757 6.7499 43.4124 7.09819 40.8248C7.4552 38.1726 8.20867 35.7374 9.93157 33.7684C11.661 31.7918 14.1249 30.5592 17.3491 29.8086C20.0849 29.1717 23.5036 28.8505 27.75 28.7704V22C27.75 20.7574 28.7574 19.75 30 19.75Z"
  />
</svg>
