<svg
  width="60"
  height="60"
  viewBox="0 0 60 60"
  fill="currentColor"
  xmlns="http://www.w3.org/2000/svg"
>
  <path
    fill-rule="evenodd"
    clip-rule="evenodd"
    d="M46 3.74999L45.8953 3.74999C43.733 3.74996 41.8974 3.74993 40.4346 3.88443C38.9756 4.01858 37.4976 4.31049 36.3016 5.18028C35.0032 6.1246 34.3948 7.47315 34.0942 8.91605C33.9217 9.74391 33.8322 10.6925 33.7883 11.75C30.6924 11.7499 28.0919 11.7516 26.0379 12.0188C23.9115 12.2953 21.9459 12.9012 20.4836 14.461C19.0579 15.9817 18.4449 18.0594 18.1287 20.4556C17.8723 22.3991 17.7834 24.8108 17.7584 27.75H8C6.75736 27.75 5.75 28.7574 5.75 30C5.75 31.2426 6.75736 32.25 8 32.25H17.7584C17.7834 35.1892 17.8723 37.6009 18.1287 39.5444C18.4449 41.9406 19.0579 44.0182 20.4836 45.539C21.9459 47.0988 23.9115 47.7046 26.0379 47.9812C28.0919 48.2484 30.6924 48.2501 33.7883 48.25C33.8322 49.3075 33.9217 50.2561 34.0942 51.0839C34.3948 52.5268 35.0032 53.8754 36.3016 54.8197C37.4976 55.6895 38.9756 55.9814 40.4346 56.1156C41.8974 56.2501 43.733 56.25 45.8953 56.25H46C47.2426 56.25 48.25 55.2426 48.25 54C48.25 52.7574 47.2426 51.75 46 51.75C43.7077 51.75 42.079 51.7478 40.8466 51.6345C39.5869 51.5186 39.1274 51.3106 38.9484 51.1804C38.8718 51.1247 38.6677 50.9733 38.4996 50.1662C38.318 49.2944 38.25 48.0072 38.25 46C38.25 43.9928 38.318 42.7056 38.4996 41.8338C38.6677 41.0267 38.8718 40.8753 38.9484 40.8196C39.1274 40.6894 39.5869 40.4814 40.8466 40.3655C42.079 40.2522 43.7077 40.25 46 40.25C47.2426 40.25 48.25 39.2426 48.25 38C48.25 36.7574 47.2426 35.75 46 35.75H45.8953C43.733 35.75 41.8974 35.7499 40.4346 35.8844C38.9756 36.0186 37.4976 36.3105 36.3016 37.1803C35.0032 38.1246 34.3948 39.4732 34.0942 40.916C33.9217 41.7439 33.8322 42.6925 33.7883 43.75C30.5896 43.7497 28.3241 43.7407 26.6183 43.5188C24.901 43.2955 24.1791 42.9013 23.7664 42.4612C23.3171 41.982 22.8676 41.0597 22.59 38.9558C22.3154 36.8742 22.25 34.0175 22.25 30C22.25 25.9824 22.3154 23.1258 22.59 21.0442C22.8676 18.9403 23.3171 18.018 23.7664 17.5388C24.1791 17.0986 24.901 16.7045 26.6183 16.4812C28.3241 16.2593 30.5896 16.2503 33.7883 16.25C33.8322 17.3075 33.9217 18.2561 34.0942 19.0839C34.3948 20.5268 35.0032 21.8754 36.3016 22.8197C37.4976 23.6895 38.9756 23.9814 40.4346 24.1156C41.8974 24.2501 43.733 24.25 45.8953 24.25H46C47.2426 24.25 48.25 23.2426 48.25 22C48.25 20.7574 47.2426 19.75 46 19.75C43.7077 19.75 42.079 19.7478 40.8466 19.6345C39.5869 19.5186 39.1274 19.3106 38.9484 19.1804C38.8718 19.1247 38.6677 18.9733 38.4996 18.1662C38.318 17.2944 38.25 16.0072 38.25 14C38.25 11.9928 38.318 10.7056 38.4996 9.83384C38.6677 9.02672 38.8718 8.87528 38.9484 8.81961C39.1274 8.68942 39.5869 8.48136 40.8466 8.36553C42.079 8.25221 43.7077 8.24999 46 8.24999C47.2426 8.24999 48.25 7.24264 48.25 5.99999C48.25 4.75735 47.2426 3.74999 46 3.74999Z"
  />
</svg>
