<svg
  width="60"
  height="60"
  viewBox="0 0 60 60"
  fill="currentColor"
  xmlns="http://www.w3.org/2000/svg"
>
  <path
    fill-rule="evenodd"
    clip-rule="evenodd"
    d="M15 47.5C16.3807 47.5 17.5 46.3807 17.5 45V39C17.5 37.6193 16.3807 36.5 15 36.5C13.6193 36.5 12.5 37.6193 12.5 39V45C12.5 46.3807 13.6193 47.5 15 47.5ZM3.5 30C3.5 31.3807 4.61929 32.5 6 32.5H54C55.3807 32.5 56.5 31.3807 56.5 30C56.5 28.6193 55.3807 27.5 54 27.5H6C4.61929 27.5 3.5 28.6193 3.5 30ZM27.5 21C27.5 22.3807 26.3807 23.5 25 23.5C23.6193 23.5 22.5 22.3807 22.5 21V15C22.5 13.6193 23.6193 12.5 25 12.5C26.3807 12.5 27.5 13.6193 27.5 15V21ZM35 47.5C36.3807 47.5 37.5 46.3807 37.5 45V39C37.5 37.6193 36.3807 36.5 35 36.5C33.6193 36.5 32.5 37.6193 32.5 39V45C32.5 46.3807 33.6193 47.5 35 47.5ZM47.5 21C47.5 22.3807 46.3807 23.5 45 23.5C43.6193 23.5 42.5 22.3807 42.5 21V15C42.5 13.6193 43.6193 12.5 45 12.5C46.3807 12.5 47.5 13.6193 47.5 15V21Z"
  />
</svg>
