<svg
  width="60"
  height="60"
  viewBox="0 0 60 60"
  fill="currentColor"
  xmlns="http://www.w3.org/2000/svg"
>
  <path
    d="M21.591 33.409C20.7123 32.5303 19.2877 32.5303 18.409 33.409C17.5303 34.2877 17.5303 35.7123 18.409 36.591L25.5806 43.7626C28.0214 46.2033 31.9786 46.2033 34.4194 43.7626L41.591 36.591C42.4697 35.7123 42.4697 34.2877 41.591 33.409C40.7123 32.5303 39.2877 32.5303 38.409 33.409L31.2374 40.5806C30.554 41.264 29.446 41.264 28.7626 40.5806L21.591 33.409Z"
  />
  <path
    fill-rule="evenodd"
    clip-rule="evenodd"
    d="M17.9576 6.75C15.0678 6.75 12.3886 8.26209 10.895 10.7361L3.50954 22.9691C1.54367 26.2253 2.05879 30.4034 4.75665 33.0847L24.1843 52.3925C27.402 55.5903 32.5978 55.5903 35.8155 52.3925L55.2432 33.0847C57.941 30.4034 58.4561 26.2253 56.4903 22.9691L49.1048 10.7361C47.6112 8.26209 44.932 6.75 42.0422 6.75H17.9576ZM14.7473 13.0618C15.4262 11.9373 16.6441 11.25 17.9576 11.25H42.0422C43.3557 11.25 44.5736 11.9373 45.2525 13.0618L52.6379 25.2949C53.5315 26.7749 53.2973 28.6741 52.071 29.8928L32.6433 49.2007C31.1808 50.6542 28.819 50.6542 27.3565 49.2007L7.92877 29.8929C6.70247 28.6741 6.46833 26.7749 7.3619 25.2948L14.7473 13.0618Z"
  />
</svg>
