<svg
  width="60"
  height="60"
  viewBox="0 0 60 60"
  fill="currentColor"
  xmlns="http://www.w3.org/2000/svg"
>
  <path
    d="M48.4514 10.41C47.2846 8.47743 45.1918 7.29626 42.9344 7.29626H17.0658C14.8084 7.29626 12.7156 8.47743 11.5488 10.4099L3.61634 23.5491C2.08072 26.0927 2.4831 29.3564 4.59052 31.4509L25.4573 52.1889C27.9708 54.6868 32.0294 54.6868 34.5429 52.1889L55.4097 31.4509C57.5171 29.3564 57.9195 26.0927 56.3839 23.5491L48.4514 10.41Z"
    fill="url(#paint0_linear_772_8607)"
  />
  <path
    fill-rule="evenodd"
    clip-rule="evenodd"
    d="M18.409 33.409C19.2877 32.5303 20.7123 32.5303 21.591 33.409L28.7626 40.5806C29.446 41.264 30.554 41.264 31.2374 40.5806L38.409 33.409C39.2877 32.5303 40.7123 32.5303 41.591 33.409C42.4697 34.2877 42.4697 35.7123 41.591 36.591L34.4194 43.7626C31.9786 46.2033 28.0214 46.2033 25.5806 43.7626L18.409 36.591C17.5303 35.7123 17.5303 34.2877 18.409 33.409Z"
    fill="white"
  />
  <defs>
    <linearGradient
      id="paint0_linear_772_8607"
      x1="46.9167"
      y1="39.8915"
      x2="5.89001"
      y2="25.3215"
      gradientUnits="userSpaceOnUse"
    >
      <stop stop-color="#6128FF" />
      <stop offset="1" stop-color="#7A59FF" stop-opacity="0.24" />
    </linearGradient>
  </defs>
</svg>
