<svg
  width="60"
  height="60"
  viewBox="0 0 60 60"
  fill="currentColor"
  xmlns="http://www.w3.org/2000/svg"
>
  <path
    fill-rule="evenodd"
    clip-rule="evenodd"
    d="M10.8952 10.7361C12.3888 8.26209 15.068 6.75 17.9579 6.75H42.0424C44.9323 6.75 47.6115 8.26209 49.1051 10.7361L56.4905 22.9691C58.4564 26.2253 57.9413 30.4034 55.2434 33.0847L35.8157 52.3925C32.5981 55.5903 27.4022 55.5903 24.1846 52.3925L4.7569 33.0847C2.05904 30.4034 1.54392 26.2253 3.50978 22.9691L10.8952 10.7361ZM17.9579 11.25C16.6443 11.25 15.4265 11.9373 14.7476 13.0618L7.36215 25.2948C6.46857 26.7749 6.70271 28.6741 7.92902 29.8929L27.3567 49.2007C28.8193 50.6542 31.181 50.6542 32.6436 49.2007L52.0713 29.8928C53.2976 28.6741 53.5317 26.7749 52.6381 25.2949L45.2527 13.0618C44.5738 11.9373 43.356 11.25 42.0424 11.25H17.9579Z"
  />
  <path
    fill-rule="evenodd"
    clip-rule="evenodd"
    d="M18.4092 33.409C19.2878 32.5303 20.7125 32.5303 21.5911 33.409L28.7627 40.5806C29.4461 41.264 30.5542 41.264 31.2376 40.5806L38.4092 33.409C39.2878 32.5303 40.7125 32.5303 41.5911 33.409C42.4698 34.2877 42.4698 35.7123 41.5911 36.591L34.4196 43.7626C31.9788 46.2033 28.0215 46.2033 25.5807 43.7626L18.4092 36.591C17.5305 35.7123 17.5305 34.2877 18.4092 33.409Z"
  />
</svg>
