<svg
  width="60"
  height="60"
  viewBox="0 0 60 60"
  fill="currentColor"
  xmlns="http://www.w3.org/2000/svg"
>
  <path
    fill-rule="evenodd"
    clip-rule="evenodd"
    d="M45.044 8.29703C44.4898 8.25175 43.7572 8.25 42.6 8.25H20.6C18.8827 8.25 17.7301 8.25175 16.8424 8.32428C15.9811 8.39465 15.5692 8.5203 15.2975 8.65873C14.5919 9.01826 14.0183 9.59193 13.6587 10.2975C13.5203 10.5692 13.3947 10.9811 13.3243 11.8424C13.2518 12.7301 13.25 13.8827 13.25 15.6V42.2897C14.098 41.9418 15.0266 41.75 16 41.75H30H31H42.6C43.7572 41.75 44.4898 41.7483 45.044 41.703C45.5718 41.6599 45.7367 41.5887 45.7945 41.5593C46.1238 41.3915 46.3915 41.1238 46.5593 40.7945C46.5887 40.7367 46.6598 40.5718 46.703 40.044C46.7482 39.4898 46.75 38.7572 46.75 37.6V12.4C46.75 11.2428 46.7482 10.5102 46.703 9.95603C46.6598 9.42817 46.5887 9.26329 46.5593 9.20552C46.3915 8.87624 46.1238 8.60852 45.7945 8.44074C45.7367 8.41131 45.5718 8.34016 45.044 8.29703ZM8.75001 15.6V48.999V49C8.75001 53.0024 11.9913 56.25 15.9971 56.25H44.5C45.7426 56.25 46.75 55.2426 46.75 54C46.75 52.7574 45.7426 51.75 44.5 51.75H15.9971C14.48 51.75 13.25 50.5205 13.25 49C13.25 47.4812 14.4812 46.25 16 46.25H30H31H42.6H42.6846C43.7324 46.25 44.6509 46.2501 45.4104 46.188C46.2166 46.1222 47.0396 45.9753 47.8374 45.5688C49.0135 44.9696 49.9696 44.0135 50.5688 42.8374C50.9753 42.0396 51.1222 41.2166 51.188 40.4104C51.2501 39.6509 51.25 38.7324 51.25 37.6846V37.6V12.4V12.3154C51.25 11.2676 51.2501 10.3491 51.188 9.58959C51.1222 8.78344 50.9753 7.96044 50.5688 7.16256C49.9696 5.98655 49.0135 5.03042 47.8374 4.43121C47.0396 4.02468 46.2166 3.87784 45.4104 3.81197C44.6509 3.74992 43.7324 3.74996 42.6846 3.75L42.6 3.75H20.6L20.5087 3.75C18.9062 3.74997 17.5687 3.74995 16.476 3.83922C15.3363 3.93234 14.2664 4.13367 13.2546 4.6492C11.7022 5.44016 10.4402 6.70225 9.6492 8.25458C9.13367 9.26637 8.93234 10.3363 8.83922 11.476C8.74995 12.5687 8.74997 13.9062 8.75 15.5086L8.75001 15.6ZM28.5757 15.4435C29.4747 15.0052 30.5254 15.0052 31.4244 15.4435C32.2206 15.8317 32.64 16.5067 32.835 16.8418C33.0427 17.1988 33.2541 17.652 33.4564 18.086L33.4889 18.1555L39.039 30.0485C39.5645 31.1746 39.0776 32.5135 37.9515 33.039C36.8255 33.5644 35.4866 33.0776 34.9611 31.9515L34.1671 30.25H25.833L25.039 31.9515C24.5135 33.0776 23.1746 33.5644 22.0486 33.039C20.9225 32.5135 20.4356 31.1746 20.9611 30.0485L26.5112 18.1555L26.5436 18.086C26.746 17.6521 26.9574 17.1988 27.1651 16.8418C27.3601 16.5067 27.7795 15.8317 28.5757 15.4435ZM30 21.3206L32.0671 25.75H27.933L30 21.3206Z"
  />
</svg>
