<svg
  width="60"
  height="60"
  viewBox="0 0 60 60"
  fill="currentColor"
  xmlns="http://www.w3.org/2000/svg"
>
  <path
    d="M52.4766 14.5928C55.4866 18.9755 57.25 24.2814 57.25 30C57.25 45.0498 45.0498 57.25 30 57.25C24.2814 57.25 18.9755 55.4866 14.5928 52.4766L17.8408 49.2285C18.9708 49.9445 20.1677 50.5645 21.4209 51.0752C20.9672 50.2947 20.5477 49.4603 20.1621 48.584C19.9927 48.1991 19.8301 47.8031 19.6719 47.3975L23.2002 43.8691C23.5278 44.9096 23.8892 45.8806 24.2812 46.7715C25.2015 48.8629 26.2391 50.415 27.2773 51.4131C28.3045 52.4005 29.2212 52.75 30 52.75C30.7788 52.75 31.6955 52.4005 32.7227 51.4131C33.7609 50.415 34.7985 48.8629 35.7188 46.7715C36.9172 44.0477 37.8378 40.5788 38.3359 36.6465C35.7034 37.0377 32.9002 37.25 30 37.25C29.9404 37.25 29.8808 37.2482 29.8213 37.248L34.5068 32.5625C35.9636 32.4401 37.3686 32.2605 38.709 32.0303C38.7336 31.362 38.75 30.685 38.75 30C38.75 29.4438 38.738 28.8929 38.7217 28.3477L42.9521 24.1172C43.1453 26.0161 43.25 27.9852 43.25 30C43.25 30.3317 43.2437 30.6621 43.2383 30.9912C43.9591 30.7793 44.6501 30.5536 45.3066 30.3105C49.1602 28.8836 51.4302 27.1114 52.3115 25.5391C51.7582 22.7563 50.6963 20.1572 49.2285 17.8408L52.4766 14.5928ZM51.4092 5.40918C52.2879 4.5305 53.7121 4.5305 54.5908 5.40918C55.4695 6.28786 55.4695 7.71214 54.5908 8.59082L8.59082 54.5908C7.71214 55.4695 6.28786 55.4695 5.40918 54.5908C4.5305 53.7121 4.5305 52.2879 5.40918 51.4092L51.4092 5.40918ZM52.6973 31.5264C51.0332 32.7303 49.0272 33.7312 46.8691 34.5303C45.6501 34.9817 44.3445 35.3812 42.9678 35.7285C42.484 40.6204 41.3928 45.05 39.8379 48.584C39.4522 49.4605 39.0319 50.2946 38.5781 51.0752C46.4428 47.8708 52.1098 40.394 52.6973 31.5264ZM30 2.75C35.7181 2.75 41.0237 4.51289 45.4062 7.52246L42.1572 10.7715C41.0273 10.0556 39.8313 9.43439 38.5781 8.92383C39.0321 9.70463 39.4521 10.5393 39.8379 11.416C40.0071 11.8006 40.169 12.1964 40.3271 12.6016L36.7979 16.1309C36.4699 15.0907 36.1107 14.1192 35.7188 13.2285C34.7985 11.1371 33.7609 9.58502 32.7227 8.58691C31.6955 7.5995 30.7788 7.25 30 7.25C29.2212 7.25 28.3045 7.5995 27.2773 8.58691C26.2391 9.58502 25.2015 11.1371 24.2812 13.2285C22.4434 17.4054 21.25 23.3332 21.25 30C21.25 30.5555 21.2614 31.1058 21.2783 31.6504L17.0469 35.8818C17.0417 35.8308 17.0363 35.7797 17.0312 35.7285C15.6549 35.3812 14.3497 34.9816 13.1309 34.5303C10.9725 33.7311 8.96593 32.7305 7.30176 31.5264C7.55971 35.42 8.79678 39.0457 10.7695 42.1592L7.52246 45.4062C4.51289 41.0237 2.75 35.7181 2.75 30C2.75 14.9502 14.9502 2.75 30 2.75ZM21.4209 8.92383C14.4408 11.768 9.19069 17.9783 7.6875 25.5391C8.56864 27.1115 10.8395 28.8835 14.6934 30.3105C15.3496 30.5536 16.0402 30.7793 16.7607 30.9912C16.7553 30.6621 16.75 30.3317 16.75 30C16.75 22.8597 18.0187 16.2873 20.1621 11.416C20.5478 10.5394 20.967 9.7045 21.4209 8.92383Z"
  />
</svg>
