<svg
  width="60"
  height="60"
  viewBox="0 0 60 60"
  fill="currentColor"
  xmlns="http://www.w3.org/2000/svg"
>
  <path
    fill-rule="evenodd"
    clip-rule="evenodd"
    d="M44.75 9.75567V35.249L42.6997 35.2554L42.1914 35.2815L41.7063 35.3424L41.3654 35.4115L41 35.5079L40.6501 35.623L40.25 35.7836L40.25 9.75567H44.75Z"
  />
  <path
    fill-rule="evenodd"
    clip-rule="evenodd"
    d="M21.6226 5.24988C21.7655 5.24995 21.9105 5.25001 22.0575 5.25001L42.9913 5.25001C44.5938 5.24998 45.9313 5.24995 47.024 5.33923C48.1637 5.43234 49.2337 5.63368 50.2454 6.14921C51.7978 6.94016 53.0599 8.20225 53.8508 9.75459C54.3664 10.7664 54.5677 11.8363 54.6608 12.976C54.7501 14.0687 54.7501 15.4062 54.75 17.0087V28.8692C54.75 30.068 54.7501 31.0688 54.6995 31.8921C54.6469 32.7486 54.5336 33.5596 54.2405 34.3543C53.4052 36.6196 51.6196 38.4052 49.3543 39.2405C48.5596 39.5336 47.7486 39.6468 46.8921 39.6995C46.0688 39.75 45.068 39.75 43.8692 39.75H43.5345C42.718 39.75 42.5806 39.7579 42.4772 39.7759C42.0763 39.8456 41.7122 40.0529 41.4475 40.362C41.3793 40.4417 41.3023 40.5558 40.8855 41.2579L37.6055 46.782C36.338 48.9168 35.3719 50.544 34.6587 51.7014C34.3011 52.2817 33.9932 52.7666 33.7337 53.1494C33.4988 53.4958 33.2228 53.8813 32.9355 54.1724C27.7762 59.3996 18.8721 55.7865 18.8141 48.4422C18.8109 48.0333 18.8815 47.5644 18.9545 47.1522C19.0351 46.6968 19.1522 46.1345 19.3001 45.4692C19.595 44.1422 20.0358 42.3023 20.6141 39.8885L20.62 39.8637C20.63 39.8221 20.639 39.7844 20.6472 39.75C20.6119 39.75 20.5731 39.75 20.5304 39.75H19.7145C17.1431 39.75 15.0954 39.75 13.467 39.6369C11.8171 39.5223 10.3709 39.2813 9.08254 38.673C5.47436 36.9693 3.03859 33.4819 2.68117 29.5077C2.55355 28.0887 2.8252 26.6479 3.28558 25.0594C3.73994 23.4916 4.44489 21.569 5.33011 19.1548L6.42521 16.1682C6.47582 16.0302 6.52566 15.894 6.57483 15.7598C7.67557 12.7535 8.43521 10.6789 9.80777 9.10522C11.016 7.71996 12.5453 6.65187 14.2618 5.99436C16.2118 5.24743 18.4211 5.24843 21.6226 5.24988ZM22.0575 9.75001C18.2476 9.75001 16.9436 9.78595 15.8715 10.1966C14.8415 10.5911 13.924 11.232 13.199 12.0631C12.4444 12.9283 11.9617 14.1403 10.6502 17.7173L9.58461 20.6234C8.66319 23.1363 8.01339 24.9122 7.60773 26.312C7.20305 27.7084 7.10995 28.5138 7.16308 29.1046C7.37753 31.4891 8.839 33.5816 11.0039 34.6038C11.5403 34.8571 12.3286 35.047 13.7789 35.1477C15.2328 35.2487 17.1238 35.25 19.8004 35.25H20.5304C20.5588 35.25 20.5883 35.2499 20.6187 35.2499C20.9092 35.2493 21.2833 35.2485 21.6183 35.3006C23.8173 35.6431 25.3797 37.6241 25.2004 39.8424C25.1731 40.1803 25.0852 40.5439 25.0169 40.8263C25.0098 40.8559 25.0028 40.8845 24.9962 40.9122C24.4109 43.3553 23.9788 45.1592 23.6929 46.4455C23.5498 47.0891 23.4492 47.5771 23.3856 47.9365C23.3354 48.2204 23.3205 48.3589 23.316 48.4009C23.3142 48.4185 23.3141 48.4192 23.314 48.4067C23.3404 51.745 27.3876 53.3873 29.7328 51.0113C29.724 51.0202 29.7244 51.0197 29.7353 51.0058C29.7613 50.9725 29.8472 50.8628 30.009 50.6241C30.2138 50.322 30.4818 49.9019 30.8276 49.3407C31.5189 48.2189 32.466 46.6239 33.7486 44.4637L37.0161 38.9605C37.039 38.9221 37.0616 38.8838 37.0841 38.8458C37.3911 38.3279 37.6743 37.85 38.029 37.4357C38.9741 36.3316 40.2744 35.5914 41.7063 35.3424C42.2436 35.249 42.7991 35.2494 43.4012 35.2499C43.4454 35.25 43.4898 35.25 43.5345 35.25H43.8012C45.0854 35.25 45.9473 35.249 46.6162 35.2079C47.2676 35.1679 47.5873 35.0959 47.7974 35.0184C48.8271 34.6387 49.6387 33.8271 50.0184 32.7974C50.0959 32.5872 50.1679 32.2676 50.2079 31.6162C50.249 30.9473 50.25 30.0854 50.25 28.8012V17.1C50.25 15.3827 50.2483 14.2301 50.1758 13.3424C50.1054 12.4811 49.9797 12.0692 49.8413 11.7975C49.4818 11.0919 48.9081 10.5183 48.2025 10.1587C47.9308 10.0203 47.519 9.89466 46.6576 9.82428C45.77 9.75176 44.6173 9.75001 42.9 9.75001H22.0575Z"
  />
</svg>
