<svg
  width="60"
  height="60"
  viewBox="0 0 60 60"
  fill="currentColor"
  xmlns="http://www.w3.org/2000/svg"
>
  <path
    fill-rule="evenodd"
    clip-rule="evenodd"
    d="M18.8141 48.4427C18.8721 55.787 27.7762 59.4001 32.9355 54.1729C33.2228 53.8818 33.4988 53.4963 33.7337 53.1498C33.9932 52.7671 34.3011 52.2822 34.6586 51.7019C35.3718 50.5446 36.3378 48.9177 37.6051 46.7832L40.8855 41.2584C41.3023 40.5563 41.3792 40.4422 41.4475 40.3625C41.7121 40.0533 42.0762 39.8461 42.4771 39.7764C42.5806 39.7584 42.7179 39.7505 43.5344 39.7505H43.8692C45.068 39.7505 46.0687 39.7505 46.8921 39.6999C47.7486 39.6473 48.5596 39.534 49.3543 39.241C51.6195 38.4057 53.4052 36.62 54.2405 34.3548C54.5335 33.5601 54.6468 32.7491 54.6994 31.8926C54.75 31.0692 54.75 30.0684 54.75 28.8697L54.75 17.0092C54.75 15.4068 54.7501 14.0692 54.6608 12.9765C54.5677 11.8368 54.3663 10.7669 53.8508 9.75508C53.0598 8.20274 51.7978 6.94065 50.2454 6.14969C49.2336 5.63417 48.1637 5.43283 47.024 5.33972C45.9313 5.25044 44.5938 5.25047 42.9914 5.2505L21.6225 5.25037C18.4211 5.24892 16.2117 5.24792 14.2618 5.99485C12.5452 6.65235 11.016 7.72045 9.80774 9.10571C8.43518 10.6793 7.67554 12.754 6.57481 15.7602L5.33006 19.1553C4.44488 21.5694 3.7399 23.4921 3.28555 25.0599C2.82517 26.6484 2.55352 28.0892 2.68114 29.5082C3.03855 33.4823 5.47433 36.9698 9.08252 38.6735C10.3709 39.2818 11.8171 39.5228 13.467 39.6374C15.0954 39.7505 17.143 39.7505 19.7143 39.7505L20.6472 39.7505L20.6139 39.8898C20.0357 42.3032 19.5949 44.1429 19.3 45.4697C19.1521 46.135 19.0351 46.6973 18.9545 47.1527C18.8815 47.5649 18.8109 48.0337 18.8141 48.4427ZM29.7328 51.0118C27.3876 53.3878 23.3403 51.7455 23.314 48.4071C23.3141 48.4197 23.3141 48.419 23.316 48.4014C23.3205 48.3594 23.3354 48.2208 23.3856 47.9369C23.4492 47.5776 23.5498 47.0896 23.6928 46.446C23.9787 45.1597 24.4108 43.3558 24.9962 40.9127L25.0169 40.8268C25.0852 40.5444 25.1731 40.1808 25.2004 39.8429C25.3797 37.6246 23.8173 35.6436 21.6183 35.3011C21.2833 35.249 20.9092 35.2498 20.6186 35.2504L20.5303 35.2505H19.8004C17.1238 35.2505 15.2328 35.2492 13.7789 35.1482C12.3285 35.0474 11.5403 34.8576 11.0039 34.6043C8.83897 33.5821 7.3775 31.4896 7.16305 29.1051C7.10992 28.5143 7.20302 27.7089 7.6077 26.3125C8.01336 24.9127 8.66316 23.1368 9.58458 20.6239L10.6501 17.7178C11.9617 14.1408 12.4444 12.9288 13.199 12.0636C13.924 11.2325 14.8415 10.5916 15.8714 10.1971C16.9435 9.78644 18.2476 9.7505 22.0575 9.7505H38.25V37.1913C38.1743 37.2708 38.1006 37.3524 38.0289 37.4362C37.6743 37.8505 37.391 38.3284 37.0841 38.8463L33.7486 44.4642C32.466 46.6244 31.5189 48.2194 30.8276 49.3412C30.4817 49.9024 30.2138 50.3225 30.009 50.6246C29.8472 50.8633 29.7613 50.973 29.7353 51.0063C29.7244 51.0201 29.724 51.0207 29.7328 51.0118ZM42.75 35.2547C42.9616 35.2501 43.1782 35.2502 43.4011 35.2504L43.8011 35.2505C45.0854 35.2505 45.9472 35.2495 46.6162 35.2084C47.2676 35.1684 47.5872 35.0964 47.7974 35.0189C48.8271 34.6392 49.6387 33.8276 50.0184 32.7979C50.0959 32.5877 50.1679 32.2681 50.2079 31.6167C50.249 30.9477 50.25 30.0859 50.25 28.8016V17.1005C50.25 15.3832 50.2482 14.2306 50.1757 13.3429C50.1053 12.4816 49.9797 12.0697 49.8413 11.798C49.4817 11.0924 48.9081 10.5187 48.2025 10.1592C47.9308 10.0208 47.5189 9.89514 46.6576 9.82477C45.7699 9.75225 44.6173 9.7505 42.9 9.7505H42.75V35.2547Z"
  />
</svg>
