<svg
  width="60"
  height="60"
  viewBox="0 0 60 60"
  fill="currentColor"
  xmlns="http://www.w3.org/2000/svg"
>
  <path
    d="M41 5.25L21.6226 5.24988C18.4211 5.24843 16.2118 5.24743 14.2618 5.99436C12.5453 6.65187 11.016 7.71996 9.80777 9.10522C8.43521 10.6789 7.67557 12.7535 6.57483 15.7598L5.33011 19.1548C4.44489 21.569 3.73994 23.4916 3.28558 25.0594C2.8252 26.6479 2.55355 28.0887 2.68117 29.5077C3.03859 33.4819 5.47436 36.9693 9.08254 38.673C10.3709 39.2813 11.8171 39.5223 13.467 39.6369C15.0954 39.75 17.1431 39.75 19.7145 39.75L20.6472 39.75L20.6141 39.8885C20.0359 42.3019 19.5949 44.1424 19.3001 45.4692C19.1522 46.1345 19.0351 46.6968 18.9545 47.1522C18.8816 47.5644 18.8109 48.0333 18.8141 48.4422C18.8721 55.7865 27.7762 59.3996 32.9355 54.1724C33.2228 53.8813 33.4988 53.4958 33.7337 53.1494C33.9932 52.7666 34.3011 52.2817 34.6587 51.7014C35.3718 50.5442 36.3377 48.9174 37.6049 46.7831L40.8855 41.2579C40.9269 41.1882 40.965 41.1242 41 41.0655V5.25Z"
  />
  <path
    d="M45 39.7482C45.7138 39.7444 46.3425 39.7332 46.8921 39.6995C47.7486 39.6468 48.5596 39.5336 49.3543 39.2405C51.6196 38.4052 53.4052 36.6196 54.2405 34.3543C54.5336 33.5596 54.6469 32.7486 54.6995 31.8921C54.7501 31.0688 54.75 30.068 54.75 28.8692V17.0087C54.7501 15.4062 54.7501 14.0687 54.6608 12.976C54.5677 11.8363 54.3664 10.7664 53.8508 9.75459C53.0599 8.20225 51.7978 6.94016 50.2454 6.14921C49.2337 5.63368 48.1637 5.43234 47.024 5.33923C46.4242 5.29022 45.7507 5.26813 45 5.25817L45 39.7482Z"
  />
</svg>
