<svg
  width="60"
  height="60"
  viewBox="0 0 60 60"
  fill="currentColor"
  xmlns="http://www.w3.org/2000/svg"
>
  <path
    fill-rule="evenodd"
    clip-rule="evenodd"
    d="M50.591 8.40901C51.4697 9.28769 51.4697 10.7123 50.591 11.591L33.0052 29.1768C31.3455 30.8365 28.6545 30.8365 26.9948 29.1768L9.40901 11.591C8.53033 10.7123 8.53033 9.28769 9.40901 8.40901C10.2877 7.53033 11.7123 7.53033 12.591 8.40901L30 25.818L47.409 8.40901C48.2877 7.53033 49.7123 7.53033 50.591 8.40901Z"
  />
  <path
    fill-rule="evenodd"
    clip-rule="evenodd"
    d="M50.591 32.409C51.4697 33.2877 51.4697 34.7123 50.591 35.591L33.0052 53.1768C31.3455 54.8365 28.6545 54.8365 26.9948 53.1768L9.40901 35.591C8.53033 34.7123 8.53033 33.2877 9.40901 32.409C10.2877 31.5303 11.7123 31.5303 12.591 32.409L30 49.818L47.409 32.409C48.2877 31.5303 49.7123 31.5303 50.591 32.409Z"
  />
</svg>
