<svg
  width="60"
  height="60"
  viewBox="0 0 60 60"
  fill="currentColor"
  xmlns="http://www.w3.org/2000/svg"
>
  <path
    fill-rule="evenodd"
    clip-rule="evenodd"
    d="M8.40901 9.40901C9.28769 8.53033 10.7123 8.53033 11.591 9.40901L29.1768 26.9948C30.8365 28.6545 30.8365 31.3455 29.1768 33.0052L11.591 50.591C10.7123 51.4697 9.28769 51.4697 8.40901 50.591C7.53033 49.7123 7.53033 48.2877 8.40901 47.409L25.818 30L8.40901 12.591C7.53033 11.7123 7.53033 10.2877 8.40901 9.40901Z"
  />
  <path
    fill-rule="evenodd"
    clip-rule="evenodd"
    d="M32.409 9.40901C33.2877 8.53033 34.7123 8.53033 35.591 9.40901L53.1768 26.9948C54.8365 28.6545 54.8365 31.3455 53.1768 33.0052L35.591 50.591C34.7123 51.4697 33.2877 51.4697 32.409 50.591C31.5303 49.7123 31.5303 48.2877 32.409 47.409L49.818 30L32.409 12.591C31.5303 11.7123 31.5303 10.2877 32.409 9.40901Z"
  />
</svg>
