<svg
  width="60"
  height="60"
  viewBox="0 0 60 60"
  fill="currentColor"
  xmlns="http://www.w3.org/2000/svg"
>
  <path
    fill-rule="evenodd"
    clip-rule="evenodd"
    d="M51.591 50.591C50.7123 51.4697 49.2877 51.4697 48.409 50.591L30.8232 33.0052C29.1635 31.3455 29.1635 28.6545 30.8232 26.9948L48.409 9.40901C49.2877 8.53033 50.7123 8.53033 51.591 9.40901C52.4697 10.2877 52.4697 11.7123 51.591 12.591L34.182 30L51.591 47.409C52.4697 48.2877 52.4697 49.7123 51.591 50.591Z"
  />
  <path
    fill-rule="evenodd"
    clip-rule="evenodd"
    d="M27.591 50.591C26.7123 51.4697 25.2877 51.4697 24.409 50.591L6.82323 33.0052C5.1635 31.3455 5.1635 28.6545 6.82323 26.9948L24.409 9.40901C25.2877 8.53033 26.7123 8.53033 27.591 9.40901C28.4697 10.2877 28.4697 11.7123 27.591 12.591L10.182 30L27.591 47.409C28.4697 48.2877 28.4697 49.7123 27.591 50.591Z"
  />
</svg>
