<svg
  width="60"
  height="60"
  viewBox="0 0 60 60"
  fill="currentColor"
  xmlns="http://www.w3.org/2000/svg"
>
  <path
    fill-rule="evenodd"
    clip-rule="evenodd"
    d="M9.40901 51.5909C8.53033 50.7122 8.53033 49.2876 9.40901 48.409L26.9948 30.8232C28.6545 29.1634 31.3455 29.1634 33.0052 30.8232L50.591 48.409C51.4697 49.2876 51.4697 50.7123 50.591 51.5909C49.7123 52.4696 48.2877 52.4696 47.409 51.5909L30 34.1819L12.591 51.5909C11.7123 52.4696 10.2877 52.4696 9.40901 51.5909Z"
  />
  <path
    fill-rule="evenodd"
    clip-rule="evenodd"
    d="M9.40901 27.5909C8.53033 26.7122 8.53033 25.2876 9.40901 24.4089L26.9948 6.82316C28.6545 5.16344 31.3455 5.16344 33.0052 6.82317L50.591 24.409C51.4697 25.2876 51.4697 26.7123 50.591 27.5909C49.7123 28.4696 48.2877 28.4696 47.409 27.5909L30 10.1819L12.591 27.5909C11.7123 28.4696 10.2877 28.4696 9.40901 27.5909Z"
  />
</svg>
