<svg
  width="60"
  height="60"
  viewBox="0 0 60 60"
  fill="currentColor"
  xmlns="http://www.w3.org/2000/svg"
>
  <path
    fill-rule="evenodd"
    clip-rule="evenodd"
    d="M30 2.75C31.2426 2.75 32.25 3.75736 32.25 5L32.25 32.568L30 34.818L27.75 32.568L27.75 5C27.75 3.75736 28.7574 2.75 30 2.75Z"
  />
  <path
    fill-rule="evenodd"
    clip-rule="evenodd"
    d="M46.591 21.409C47.4697 22.2877 47.4697 23.7123 46.591 24.591L33.0052 38.1768C31.3455 39.8365 28.6545 39.8365 26.9948 38.1768L13.409 24.591C12.5303 23.7123 12.5303 22.2877 13.409 21.409C14.2877 20.5303 15.7123 20.5303 16.591 21.409L30 34.818L43.409 21.409C44.2877 20.5303 45.7123 20.5303 46.591 21.409Z"
  />
  <path
    fill-rule="evenodd"
    clip-rule="evenodd"
    d="M53.25 38V44C53.25 50.212 48.2181 55.25 42.0037 55.25H17.9963C11.7819 55.25 6.75 50.212 6.75 44L6.75 38C6.75 36.7574 7.75736 35.75 9 35.75C10.2426 35.75 11.25 36.7574 11.25 38L11.25 44C11.25 47.7291 14.2696 50.75 17.9963 50.75H42.0037C45.7304 50.75 48.75 47.7291 48.75 44V38C48.75 36.7574 49.7574 35.75 51 35.75C52.2426 35.75 53.25 36.7574 53.25 38Z"
  />
</svg>
