<svg
  width="60"
  height="60"
  viewBox="0 0 60 60"
  fill="currentColor"
  xmlns="http://www.w3.org/2000/svg"
>
  <path
    fill-rule="evenodd"
    clip-rule="evenodd"
    d="M30 2.75C31.2426 2.75 32.25 3.75736 32.25 5L32.25 32.568L30 34.818L27.75 32.568L27.75 5C27.75 3.75736 28.7574 2.75 30 2.75Z"
  />
  <path
    fill-rule="evenodd"
    clip-rule="evenodd"
    d="M46.591 21.409C47.4697 22.2877 47.4697 23.7123 46.591 24.591L33.0052 38.1768C31.3455 39.8365 28.6545 39.8365 26.9948 38.1768L13.409 24.591C12.5303 23.7123 12.5303 22.2877 13.409 21.409C14.2877 20.5303 15.7123 20.5303 16.591 21.409L30 34.818L43.409 21.409C44.2877 20.5303 45.7123 20.5303 46.591 21.409Z"
  />
  <path
    fill-rule="evenodd"
    clip-rule="evenodd"
    d="M51.25 37V44C51.25 50.212 46.2181 55.25 40.0037 55.25H19.9963C13.7819 55.25 8.75 50.212 8.75 44L8.75 37C8.75 35.7574 9.75736 34.75 11 34.75C12.2426 34.75 13.25 35.7574 13.25 37L13.25 44C13.25 47.7291 16.2696 50.75 19.9963 50.75H40.0037C43.7304 50.75 46.75 47.7291 46.75 44V37C46.75 35.7574 47.7574 34.75 49 34.75C50.2426 34.75 51.25 35.7574 51.25 37Z"
  />
</svg>
