<svg
  width="60"
  height="60"
  viewBox="0 0 60 60"
  fill="currentColor"
  xmlns="http://www.w3.org/2000/svg"
>
  <path
    d="M30 1.75C31.2426 1.75 32.25 2.75736 32.25 4L32.25 31.568L43.409 20.409C44.2877 19.5303 45.7123 19.5303 46.591 20.409C47.4697 21.2877 47.4697 22.7123 46.591 23.591L33.0052 37.1768C31.3455 38.8365 28.6545 38.8365 26.9948 37.1768L13.409 23.591C12.5303 22.7123 12.5303 21.2877 13.409 20.409C14.2877 19.5303 15.7123 19.5303 16.591 20.409L27.75 31.568L27.75 4C27.75 2.75736 28.7574 1.75 30 1.75Z"
  />
  <path
    d="M51.25 44V37C51.25 35.7574 50.2426 34.75 49 34.75C47.7574 34.75 46.75 35.7574 46.75 37V44C46.75 47.7291 43.7304 50.75 40.0037 50.75H19.9963C16.2696 50.75 13.25 47.7291 13.25 44L13.25 37C13.25 35.7574 12.2426 34.75 11 34.75C9.75736 34.75 8.75 35.7574 8.75 37V44C8.75 50.212 13.7819 55.25 19.9963 55.25H40.0037C46.2181 55.25 51.25 50.212 51.25 44Z"
  />
</svg>
