<svg
  width="60"
  height="60"
  viewBox="0 0 60 60"
  fill="currentColor"
  xmlns="http://www.w3.org/2000/svg"
>
  <path
    d="M13.409 37.2374C12.5303 38.1161 12.5303 39.5407 13.409 40.4194L26.9948 54.0051C28.6545 55.6649 31.3455 55.6649 33.0052 54.0051L46.591 40.4194C47.4697 39.5407 47.4697 38.1161 46.591 37.2374C45.7123 36.3587 44.2877 36.3587 43.409 37.2374L32.25 48.3964L32.25 20.8284C32.25 19.5857 31.2426 18.5784 30 18.5784C28.7574 18.5784 27.75 19.5857 27.75 20.8284L27.75 48.3964L16.591 37.2374C15.7123 36.3587 14.2877 36.3587 13.409 37.2374Z"
  />
  <path
    d="M51.25 13.8284V20.8284C51.25 22.071 50.2426 23.0784 49 23.0784C47.7574 23.0784 46.75 22.071 46.75 20.8284V13.8284C46.75 10.0993 43.7304 7.07837 40.0037 7.07837H19.9963C16.2696 7.07837 13.25 10.0993 13.25 13.8284L13.25 20.8284C13.25 22.071 12.2426 23.0784 11 23.0784C9.75736 23.0784 8.75 22.071 8.75 20.8284V13.8284C8.75 7.61636 13.7819 2.57837 19.9963 2.57837H40.0037C46.2181 2.57837 51.25 7.61636 51.25 13.8284Z"
  />
</svg>
