<svg
  width="60"
  height="60"
  viewBox="0 0 60 60"
  fill="currentColor"
  xmlns="http://www.w3.org/2000/svg"
>
  <path
    d="M19 15C16.2386 15 14 12.7614 14 10C14 7.23858 16.2386 5 19 5C21.7614 5 24 7.23858 24 10C24 12.7614 21.7614 15 19 15Z"
  />
  <path
    d="M19 35C16.2386 35 14 32.7614 14 30C14 27.2386 16.2386 25 19 25C21.7614 25 24 27.2386 24 30C24 32.7614 21.7614 35 19 35Z"
  />
  <path
    d="M19 55C16.2386 55 14 52.7614 14 50C14 47.2386 16.2386 45 19 45C21.7614 45 24 47.2386 24 50C24 52.7614 21.7614 55 19 55Z"
  />
  <path
    d="M41 15C38.2386 15 36 12.7614 36 10C36 7.23858 38.2386 5 41 5C43.7614 5 46 7.23858 46 10C46 12.7614 43.7614 15 41 15Z"
  />
  <path
    d="M41 35C38.2386 35 36 32.7614 36 30C36 27.2386 38.2386 25 41 25C43.7614 25 46 27.2386 46 30C46 32.7614 43.7614 35 41 35Z"
  />
  <path
    d="M41 55C38.2386 55 36 52.7614 36 50C36 47.2386 38.2386 45 41 45C43.7614 45 46 47.2386 46 50C46 52.7614 43.7614 55 41 55Z"
  />
</svg>
