<svg
  width="60"
  height="60"
  viewBox="0 0 60 60"
  fill="currentColor"
  xmlns="http://www.w3.org/2000/svg"
>
  <path
    d="M14.409 16.591C13.5303 15.7123 13.5303 14.2877 14.409 13.409C15.2877 12.5303 16.7123 12.5303 17.591 13.409L30 25.818L42.409 13.409C43.2877 12.5303 44.7123 12.5303 45.591 13.409C46.4697 14.2877 46.4697 15.7123 45.591 16.591L33.0052 29.1768C31.3455 30.8365 28.6545 30.8365 26.9948 29.1768L14.409 16.591Z"
  />
  <path
    d="M48 44.25C49.2426 44.25 50.25 43.2426 50.25 42C50.25 40.7574 49.2426 39.75 48 39.75H12.0006C10.7579 39.75 9.75 40.7574 9.75 42C9.75 43.2426 10.7574 44.25 12 44.25H48Z"
  />
</svg>
