<svg
  width="60"
  height="60"
  viewBox="0 0 60 60"
  fill="currentColor"
  xmlns="http://www.w3.org/2000/svg"
>
  <path
    d="M14.409 43.409C13.5303 44.2877 13.5303 45.7123 14.409 46.591C15.2877 47.4697 16.7123 47.4697 17.591 46.591L30 34.182L42.409 46.591C43.2877 47.4697 44.7123 47.4697 45.591 46.591C46.4697 45.7123 46.4697 44.2877 45.591 43.409L33.0052 30.8232C31.3455 29.1635 28.6545 29.1635 26.9948 30.8232L14.409 43.409Z"
  />
  <path
    d="M48 15.75C49.2426 15.75 50.25 16.7574 50.25 18C50.25 19.2426 49.2426 20.25 48 20.25H12.0006C10.7579 20.25 9.75 19.2426 9.75 18C9.75 16.7574 10.7574 15.75 12 15.75H48Z"
  />
</svg>
