<svg
  width="60"
  height="60"
  viewBox="0 0 60 60"
  fill="currentColor"
  xmlns="http://www.w3.org/2000/svg"
>
  <path
    fill-rule="evenodd"
    clip-rule="evenodd"
    d="M18 9.75C16.7574 9.75 15.75 10.7574 15.75 12H20.25C20.25 10.7574 19.2426 9.75 18 9.75ZM20.25 12L20.25 47.9994C20.25 49.2421 19.2426 50.25 18 50.25C16.7574 50.25 15.75 49.2426 15.75 48L15.75 12H20.25Z"
  />
  <path
    fill-rule="evenodd"
    clip-rule="evenodd"
    d="M46.591 14.409C45.7123 13.5303 44.2877 13.5303 43.409 14.409L30.8232 26.9948C29.1635 28.6545 29.1635 31.3455 30.8232 33.0052L43.409 45.591C44.2877 46.4697 45.7123 46.4697 46.591 45.591C47.4697 44.7123 47.4697 43.2877 46.591 42.409L34.182 30L46.591 17.591C47.4697 16.7123 47.4697 15.2877 46.591 14.409Z"
  />
</svg>
