<svg
  width="60"
  height="60"
  viewBox="0 0 60 60"
  fill="currentColor"
  xmlns="http://www.w3.org/2000/svg"
>
  <path
    fill-rule="evenodd"
    clip-rule="evenodd"
    d="M42 9.75C43.2426 9.75 44.25 10.7574 44.25 12H39.75C39.75 10.7574 40.7574 9.75 42 9.75ZM39.75 12L39.75 47.9994C39.75 49.2421 40.7574 50.25 42 50.25C43.2426 50.25 44.25 49.2426 44.25 48L44.25 12H39.75Z"
  />
  <path
    fill-rule="evenodd"
    clip-rule="evenodd"
    d="M13.409 14.409C14.2877 13.5303 15.7123 13.5303 16.591 14.409L29.1768 26.9948C30.8365 28.6545 30.8365 31.3455 29.1768 33.0052L16.591 45.591C15.7123 46.4697 14.2877 46.4697 13.409 45.591C12.5303 44.7123 12.5303 43.2877 13.409 42.409L25.818 30L13.409 17.591C12.5303 16.7123 12.5303 15.2877 13.409 14.409Z"
  />
</svg>
