<svg
  width="60"
  height="60"
  viewBox="0 0 60 60"
  fill="currentColor"
  xmlns="http://www.w3.org/2000/svg"
>
  <path
    fill-rule="evenodd"
    clip-rule="evenodd"
    d="M39 10.4552C37.3112 13.4149 34.7792 18.027 32.4887 22.8932C31.0517 25.9462 29.7268 29.0633 28.7653 31.9124C27.7893 34.8046 27.25 37.2435 27.25 39C27.25 43.2293 29.1164 46.1036 31.5117 47.9781C33.9878 49.916 36.9988 50.75 39 50.75C41.0012 50.75 44.0122 49.916 46.4883 47.9781C48.8836 46.1036 50.75 43.2293 50.75 39C50.75 37.2435 50.2107 34.8046 49.2347 31.9124C48.2732 29.0633 46.9483 25.9462 45.5113 22.8932C43.2208 18.027 40.6888 13.4149 39 10.4552ZM36.2254 6.26425C37.4738 4.13556 40.5262 4.13555 41.7746 6.26424C43.2961 8.8586 46.6263 14.6955 49.5828 20.9768C51.0607 24.1164 52.4622 27.4028 53.4985 30.4736C54.5202 33.5013 55.25 36.4987 55.25 39C55.25 44.7707 52.6164 48.8965 49.2617 51.5219C45.9878 54.0841 41.9988 55.25 39 55.25C36.0012 55.25 32.0122 54.0841 28.7383 51.5219C25.3836 48.8965 22.75 44.7707 22.75 39C22.75 36.4987 23.4798 33.5013 24.5015 30.4736C25.5378 27.4028 26.9393 24.1164 28.4172 20.9768C31.3738 14.6955 34.7039 8.8586 36.2254 6.26425Z"
  />
  <path
    fill-rule="evenodd"
    clip-rule="evenodd"
    d="M14 10.6536C13.2003 12.1707 12.2712 14.0222 11.4423 15.8993C10.8078 17.3362 10.2472 18.7544 9.84874 20.0275C9.43917 21.3361 9.25 22.3404 9.25 23C9.25 24.8028 9.99718 25.9171 10.9253 26.6377C11.9384 27.4243 13.1956 27.75 14 27.75C14.8044 27.75 16.0616 27.4243 17.0747 26.6377C18.0028 25.9171 18.75 24.8028 18.75 23C18.75 22.3404 18.5608 21.3361 18.1513 20.0275C17.7528 18.7544 17.1922 17.3362 16.5577 15.8993C15.7288 14.0222 14.7997 12.1707 14 10.6536ZM11.1951 6.38256C12.4228 4.17338 15.5772 4.17335 16.8049 6.38255C17.7487 8.08101 19.3263 11.0288 20.6742 14.0816C21.3479 15.6073 21.9793 17.1929 22.4458 18.6834C22.9012 20.1385 23.25 21.6577 23.25 23C23.25 26.3036 21.7699 28.6893 19.8344 30.1921C17.9838 31.629 15.7411 32.25 14 32.25C12.2589 32.25 10.0162 31.629 8.16558 30.1921C6.23009 28.6893 4.75 26.3036 4.75 23C4.75 21.6577 5.09876 20.1385 5.55417 18.6834C6.02068 17.1929 6.65206 15.6073 7.32576 14.0816C8.67371 11.0288 10.2513 8.08101 11.1951 6.38256Z"
  />
</svg>
