<svg
  width="60"
  height="60"
  viewBox="0 0 60 60"
  fill="currentColor"
  xmlns="http://www.w3.org/2000/svg"
>
  <path
    fill-rule="evenodd"
    clip-rule="evenodd"
    d="M30 2.75C14.9502 2.75 2.75 14.9502 2.75 30C2.75 45.0498 14.9502 57.25 30 57.25C45.0498 57.25 57.25 45.0498 57.25 30C57.25 14.9502 45.0498 2.75 30 2.75ZM10.6115 18.0923C14.6152 11.5872 21.8011 7.25 30 7.25C31.2158 7.25 32.4094 7.34537 33.5735 7.52905L32.8678 15.9977L23.4176 20.2932L23.3933 20.3042C23.3004 20.3459 23.0885 20.441 22.8851 20.5706C22.7135 20.68 22.5525 20.8053 22.4043 20.9448C22.2287 21.1101 22.0845 21.2921 22.0212 21.3719L22.0046 21.3928L19.5687 24.4371L10.6115 18.0923ZM8.62294 22.1984C7.73466 24.6317 7.25 27.2592 7.25 30C7.25 42.5645 17.4355 52.75 30 52.75C42.5645 52.75 52.75 42.5645 52.75 30C52.75 20.2479 46.614 11.929 37.9921 8.69345L37.3206 16.7514C37.3192 16.7686 37.3177 16.7894 37.3159 16.8133C37.2989 17.0496 37.2595 17.595 37.0442 18.1022C36.8639 18.527 36.5951 18.9085 36.2559 19.2214C35.8509 19.5949 35.3512 19.8154 35.1345 19.911C35.1122 19.9208 35.0929 19.9293 35.0771 19.9365L25.4212 24.3256L22.6705 27.7634C22.5311 27.9377 22.3553 28.1577 22.1828 28.3412C21.9794 28.5576 21.6616 28.8569 21.1992 29.0759C20.6024 29.3585 19.9336 29.4526 19.282 29.3457C18.7771 29.2629 18.389 29.063 18.1338 28.9111C17.9174 28.7823 17.6876 28.6194 17.5056 28.4904L8.62294 22.1984Z"
  />
  <path
    fill-rule="evenodd"
    clip-rule="evenodd"
    d="M32.3091 30.5578C32.324 30.5644 32.3387 30.5708 32.353 30.5772L41.6627 34.6734C41.6792 34.6807 41.6961 34.6881 41.7131 34.6956C41.967 34.8071 42.2734 34.9418 42.5314 35.0831C42.8248 35.2439 43.2674 35.522 43.6279 36.0133C44.0796 36.6289 44.3002 37.384 44.2508 38.146C44.2114 38.7541 43.988 39.2267 43.8272 39.5201C43.6858 39.778 43.5 40.0564 43.3461 40.2871C43.3358 40.3026 43.3256 40.3179 43.3155 40.333L39.8471 45.5356C39.8382 45.549 39.8276 45.5652 39.8154 45.5839C39.6963 45.7666 39.422 46.1873 39.0284 46.5108C38.6984 46.7821 38.318 46.9856 37.9092 47.1098C37.4218 47.2578 36.9196 47.2527 36.7014 47.2504C36.6791 47.2502 36.6598 47.25 36.6437 47.25H31.1532C31.1323 47.25 31.1069 47.2503 31.0775 47.2507C30.7939 47.2544 30.1379 47.2631 29.5312 47.0245C29.0249 46.8254 28.5767 46.5023 28.2276 46.0849C27.8095 45.5849 27.6102 44.9598 27.5241 44.6896C27.5151 44.6615 27.5074 44.6373 27.5008 44.6175L25.5641 38.8076C25.5603 38.7961 25.5557 38.7825 25.5503 38.7667C25.4972 38.6116 25.3757 38.2561 25.3382 37.8718C25.3067 37.5485 25.3238 37.2222 25.389 36.9039C25.4665 36.5257 25.6246 36.1849 25.6936 36.0361C25.7006 36.021 25.7067 36.0079 25.7117 35.997L27.2976 32.508C27.3041 32.4937 27.3107 32.4791 27.3174 32.4643C27.4138 32.2521 27.5344 31.9864 27.6608 31.7591C27.8091 31.4927 28.0531 31.1112 28.4667 30.7791C28.9976 30.3527 29.6491 30.1039 30.3291 30.0678C30.8587 30.0396 31.2949 30.1613 31.583 30.2611C31.8288 30.3462 32.0958 30.4639 32.3091 30.5578ZM31.1285 34.9547L29.9139 37.6267L31.6217 42.75H36.2958L39.1421 38.4807L31.1285 34.9547Z"
  />
</svg>
