<svg
  width="60"
  height="60"
  viewBox="0 0 60 60"
  fill="currentColor"
  xmlns="http://www.w3.org/2000/svg"
>
  <path
    fill-rule="evenodd"
    clip-rule="evenodd"
    d="M13.9101 4.00215C13.5548 3.22064 12.4448 3.22064 12.0895 4.00215L9.87438 8.87438L5.00215 11.0895C4.22064 11.4448 4.22064 12.5548 5.00215 12.9101L9.87438 15.1252L12.0895 19.9974C12.4448 20.7789 13.5548 20.7789 13.9101 19.9974L16.1252 15.1252L20.9974 12.9101C21.7789 12.5548 21.7789 11.4448 20.9974 11.0895L16.1252 8.87438L13.9101 4.00215ZM39.5349 7.384C43.1473 3.77166 49.0041 3.77165 52.6164 7.384C56.2288 10.9963 56.2288 16.8531 52.6164 20.4655L20.4655 52.6164C16.8531 56.2288 10.9964 56.2288 7.38401 52.6164C3.77166 49.0041 3.77166 43.1473 7.38401 39.5349L39.5349 7.384ZM49.4344 10.566C47.5795 8.71099 44.5719 8.71099 42.7169 10.566L39.2323 14.0506L45.9498 20.7681L49.4344 17.2835C51.2894 15.4285 51.2894 12.421 49.4344 10.566ZM10.566 42.7169L36.0503 17.2326L42.7678 23.9501L17.2835 49.4344C15.4285 51.2894 12.421 51.2894 10.566 49.4344C8.711 47.5794 8.711 44.5719 10.566 42.7169Z"
  />
</svg>
