<svg
  width="60"
  height="60"
  viewBox="0 0 60 60"
  fill="currentColor"
  xmlns="http://www.w3.org/2000/svg"
>
  <path
    fill-rule="evenodd"
    clip-rule="evenodd"
    d="M52.6165 7.38394C49.0041 3.77159 43.1474 3.7716 39.535 7.38395L7.38407 39.5349C3.77172 43.1472 3.77172 49.004 7.38407 52.6164C10.9964 56.2287 16.8532 56.2287 20.4655 52.6164L52.6165 20.4654C56.2288 16.8531 56.2288 10.9963 52.6165 7.38394ZM42.717 10.5659C44.572 8.71094 47.5795 8.71093 49.4345 10.5659C51.2895 12.4209 51.2895 15.4284 49.4345 17.2834L45.95 20.768L39.2325 14.0505L42.717 10.5659ZM36.0505 17.2324L10.566 42.7169C8.71106 44.5719 8.71106 47.5794 10.566 49.4344C12.421 51.2894 15.4286 51.2894 17.2836 49.4344L42.768 23.9499L36.0505 17.2324Z"
  />
</svg>
