<svg
  width="60"
  height="60"
  viewBox="0 0 60 60"
  fill="currentColor"
  xmlns="http://www.w3.org/2000/svg"
>
  <path
    fill-rule="evenodd"
    clip-rule="evenodd"
    d="M6.85664 8.83484C7.18397 7.91085 7.91085 7.18397 8.83484 6.85664C9.64393 6.57001 10.393 6.72376 10.7683 6.81406C11.1578 6.90776 11.6139 7.06257 12.0442 7.2086C12.0679 7.21666 12.0916 7.22468 12.1151 7.23267L23.6469 11.1432L33.4659 3.81574C33.83 3.54388 34.216 3.25569 34.5575 3.04622C34.8865 2.84437 35.5514 2.46667 36.4094 2.48925C37.3893 2.51503 38.3053 2.98172 38.9021 3.75933C39.4247 4.44025 39.51 5.20016 39.5401 5.585C39.5713 5.98437 39.565 6.46603 39.5591 6.9204L39.4025 19.1711L49.3444 26.2019C49.3647 26.2163 49.3851 26.2307 49.4055 26.2451C49.7766 26.5074 50.17 26.7855 50.4748 27.0455C50.7684 27.2961 51.3331 27.8117 51.5768 28.6347C51.8551 29.5747 51.6942 30.59 51.1391 31.3979C50.653 32.1054 49.9567 32.4212 49.6 32.5688C49.2298 32.7219 48.7698 32.8648 48.3358 32.9996L36.6363 36.6363L32.9996 48.3358C32.8648 48.7697 32.7219 49.2298 32.5688 49.6C32.4212 49.9567 32.1054 50.653 31.3979 51.1391C30.59 51.6942 29.5747 51.8551 28.6347 51.5768C27.8117 51.3331 27.2961 50.7684 27.0455 50.4748C26.7855 50.17 26.5075 49.7767 26.2452 49.4056L19.1711 39.4025L6.9953 39.5582C6.97042 39.5585 6.94545 39.5588 6.92039 39.5591C6.46602 39.565 5.98437 39.5713 5.585 39.5401C5.20016 39.51 4.44025 39.4247 3.75933 38.9021C2.98172 38.3053 2.51503 37.3893 2.48925 36.4094C2.46667 35.5514 2.84437 34.8865 3.04622 34.5575C3.25569 34.216 3.54387 33.83 3.81573 33.4659C3.83072 33.4458 3.84567 33.4258 3.86055 33.4059L11.1432 23.6469L7.23267 12.1152C7.22468 12.0916 7.21666 12.068 7.20861 12.0442C7.06257 11.6139 6.90776 11.1578 6.81406 10.7683C6.72376 10.393 6.57001 9.64393 6.85664 8.83484ZM11.9173 11.9173L22.5254 15.5146C22.5403 15.5197 22.5583 15.526 22.579 15.5332C22.7816 15.6042 23.2479 15.7676 23.7492 15.7859C24.1697 15.8012 24.5892 15.7348 24.9844 15.5902C25.4554 15.4179 25.8484 15.1185 26.0192 14.9883C26.0366 14.975 26.0517 14.9635 26.0644 14.9541L35.0417 8.25472L34.8985 19.4553C34.8983 19.4711 34.8979 19.4901 34.8974 19.5121C34.8925 19.7267 34.8812 20.2206 35.0187 20.703C35.134 21.1077 35.3268 21.4861 35.5864 21.8173C35.8959 22.212 36.3021 22.4932 36.4786 22.6154C36.4967 22.6279 36.5123 22.6387 36.5252 22.6479L45.6708 29.1156L34.9742 32.4406C34.9591 32.4453 34.9409 32.4507 34.9199 32.457C34.7143 32.5187 34.241 32.6606 33.8247 32.9404C33.4755 33.1751 33.1751 33.4755 32.9404 33.8247C32.6606 34.241 32.5187 34.7143 32.457 34.9199C32.4507 34.9409 32.4453 34.9591 32.4406 34.9742L29.1156 45.6708L22.6479 36.5252C22.6387 36.5123 22.6279 36.4967 22.6154 36.4786C22.4932 36.3021 22.212 35.8959 21.8173 35.5864C21.4861 35.3268 21.1077 35.134 20.703 35.0187C20.2206 34.8812 19.7267 34.8925 19.512 34.8974C19.4901 34.8979 19.4711 34.8983 19.4553 34.8985L8.25472 35.0417L14.9541 26.0644C14.9635 26.0517 14.975 26.0366 14.9883 26.0192C15.1185 25.8484 15.4179 25.4554 15.5902 24.9844C15.7348 24.5892 15.8012 24.1697 15.7859 23.7492C15.7676 23.2479 15.6042 22.7816 15.5332 22.579C15.526 22.5583 15.5197 22.5403 15.5146 22.5254L11.9173 11.9173Z"
  />
  <path
    fill-rule="evenodd"
    clip-rule="evenodd"
    d="M40.409 40.409C41.2877 39.5303 42.7123 39.5303 43.591 40.409L56.591 53.409C57.4697 54.2877 57.4697 55.7123 56.591 56.591C55.7123 57.4697 54.2877 57.4697 53.409 56.591L40.409 43.591C39.5303 42.7123 39.5303 41.2877 40.409 40.409Z"
  />
</svg>
