<svg
  width="60"
  height="60"
  viewBox="0 0 60 60"
  fill="currentColor"
  xmlns="http://www.w3.org/2000/svg"
>
  <path
    fill-rule="evenodd"
    clip-rule="evenodd"
    d="M15.1784 31.604C9.91525 29.3954 6.75008 24.367 6.75008 20L6.75006 17.0552C6.74999 16.5888 6.74992 16.1215 6.78038 15.7227C6.81404 15.2817 6.89434 14.7434 7.15453 14.1905C7.57562 13.2956 8.2956 12.5756 9.19048 12.1545C9.74354 11.8942 10.2821 11.814 10.723 11.7803C11.122 11.7499 11.5895 11.7499 12.0562 11.75L14.75 11.75V7.48276L14.7498 7.38395C14.7489 7.04836 14.7478 6.60744 14.8261 6.19911C15.154 4.49035 16.4903 3.15403 18.1991 2.82615C18.6074 2.7478 19.0483 2.74895 19.3839 2.74983L19.4828 2.75H40.5172L40.6161 2.74983C40.9517 2.74895 41.3926 2.7478 41.8009 2.82615C43.5097 3.15403 44.846 4.49035 45.1739 6.19911C45.2522 6.60742 45.2511 7.04832 45.2502 7.38391L45.25 7.48276V11.75L47.8685 11.75C48.3688 11.7499 48.8699 11.7498 49.2967 11.7847C49.7694 11.8233 50.3454 11.9157 50.9294 12.2132C51.7291 12.6207 52.3793 13.2709 52.7867 14.0706C53.0842 14.6544 53.1766 15.2303 53.2152 15.703C53.2501 16.1298 53.25 16.6306 53.2499 17.1307L53.2499 20C53.2499 24.367 50.0847 29.3954 44.8216 31.604C43.3747 37.5755 38.4129 42.1738 32.25 43.0852V52C32.25 52.1719 32.2307 52.3392 32.1942 52.5H41C42.2426 52.5 43.25 53.5074 43.25 54.75C43.25 55.9926 42.2426 57 41 57H20C18.7574 57 17.75 55.9926 17.75 54.75C17.75 53.5074 18.7574 52.5 20 52.5H27.8058C27.7693 52.3392 27.75 52.1719 27.75 52V43.0852C21.5871 42.1738 16.6253 37.5755 15.1784 31.604ZM14.75 16.25V26.1992C12.4521 24.4401 11.2501 21.8987 11.2501 20L11.2501 17.1191C11.2501 16.7149 11.2509 16.4506 11.2573 16.2573C11.4509 16.2508 11.7154 16.25 12.1202 16.25H14.75ZM45.25 26.1992V16.25H47.7998C48.2452 16.25 48.5323 16.251 48.741 16.2589C48.749 16.4675 48.7499 16.7543 48.7499 17.1993L48.7499 20C48.7499 21.8987 47.5479 24.4401 45.25 26.1992ZM30 38.75C24.0629 38.75 19.25 33.9371 19.25 28V7.48276C19.25 7.38944 19.25 7.31351 19.2503 7.25028C19.3135 7.25005 19.3894 7.25 19.4828 7.25H40.5172C40.6106 7.25 40.6865 7.25005 40.7497 7.25028C40.75 7.31351 40.75 7.38944 40.75 7.48276V28C40.75 33.9371 35.9371 38.75 30 38.75Z"
  />
</svg>
