<svg
  width="60"
  height="60"
  viewBox="0 0 60 60"
  fill="currentColor"
  xmlns="http://www.w3.org/2000/svg"
>
  <path
    d="M48.75 11C48.75 9.75736 49.7574 8.75 51 8.75C52.2426 8.75 53.25 9.75736 53.25 11V28C53.25 34.2132 48.2132 39.25 42 39.25L14.432 39.25L20.591 45.409C21.4697 46.2877 21.4697 47.7123 20.591 48.591C19.7123 49.4697 18.2877 49.4697 17.409 48.591L8.82323 40.0052C7.1635 38.3455 7.1635 35.6545 8.82323 33.9948L17.409 25.409C18.2877 24.5303 19.7123 24.5303 20.591 25.409C21.4697 26.2877 21.4697 27.7123 20.591 28.591L14.432 34.75L42 34.75C45.7279 34.75 48.75 31.7279 48.75 28V11Z"
  />
</svg>
