<svg
  width="60"
  height="60"
  viewBox="0 0 60 60"
  fill="currentColor"
  xmlns="http://www.w3.org/2000/svg"
>
  <path
    fill-rule="evenodd"
    clip-rule="evenodd"
    d="M26.9242 3.75H33.0758C34.4091 3.74998 35.5223 3.74996 36.4361 3.81231C37.3874 3.87722 38.286 4.01715 39.1571 4.378C41.1786 5.21532 42.7847 6.82138 43.622 8.84286C43.9829 9.71403 44.1228 10.6126 44.1877 11.5639C44.2129 11.933 44.2279 12.3347 44.2368 12.7702C45.1423 12.7876 45.9583 12.82 46.6944 12.8801C48.3343 13.0141 49.7747 13.2972 51.1074 13.9762C53.2242 15.0548 54.9452 16.7758 56.0238 18.8926C56.7028 20.2253 56.9859 21.6657 57.1199 23.3056C57.25 24.8983 57.25 26.8652 57.25 29.3037V36.6962C57.25 39.1347 57.25 41.1017 57.1199 42.6944C56.9859 44.3343 56.7028 45.7747 56.0238 47.1074C54.9452 49.2242 53.2242 50.9452 51.1074 52.0238C49.7747 52.7028 48.3343 52.9859 46.6944 53.1199C45.1017 53.25 43.1349 53.25 40.6965 53.25H19.3036C16.8652 53.25 14.8983 53.25 13.3056 53.1199C11.6657 52.9859 10.2253 52.7028 8.89261 52.0238C6.77578 50.9452 5.05475 49.2242 3.97618 47.1074C3.29716 45.7747 3.01408 44.3343 2.88009 42.6944C2.74996 41.1017 2.74998 39.1348 2.75 36.6963V29.3037C2.74998 26.8652 2.74996 24.8983 2.88009 23.3056C3.01408 21.6657 3.29716 20.2253 3.97618 18.8926C5.05475 16.7758 6.77578 15.0548 8.89261 13.9762C10.2253 13.2972 11.6657 13.0141 13.3056 12.8801C14.0417 12.82 14.8577 12.7876 15.7632 12.7702C15.7721 12.3347 15.7871 11.933 15.8123 11.5639C15.8772 10.6126 16.0171 9.71403 16.378 8.84286C17.2153 6.82138 18.8214 5.21532 20.8429 4.378C21.714 4.01715 22.6126 3.87722 23.5639 3.81231C24.4777 3.74996 25.5909 3.74998 26.9242 3.75ZM40.6921 17.25C43.2002 17.2501 44.9568 17.2531 46.328 17.3651C47.6896 17.4764 48.4719 17.6838 49.0644 17.9857C50.3345 18.6329 51.3671 19.6655 52.0143 20.9356C52.3162 21.5281 52.5236 22.3104 52.6349 23.672C52.7221 24.7399 52.7433 26.0416 52.7484 27.75L38.9744 27.75C37.9695 23.7287 34.3326 20.75 30 20.75C25.6674 20.75 22.0305 23.7287 21.0256 27.75H7.25163C7.25674 26.0416 7.2779 24.7399 7.36515 23.672C7.4764 22.3104 7.68379 21.5281 7.98571 20.9356C8.63285 19.6655 9.66547 18.6329 10.9356 17.9857C11.5281 17.6838 12.3104 17.4764 13.672 17.3651C15.0432 17.2531 16.7998 17.2501 19.3079 17.25H40.6921ZM21.0256 32.25H7.25V36.6C7.25 39.1574 7.25175 40.9401 7.36515 42.328C7.4764 43.6896 7.68379 44.4719 7.98571 45.0644C8.63285 46.3345 9.66547 47.3671 10.9356 48.0143C11.5281 48.3162 12.3104 48.5236 13.672 48.6349C15.0599 48.7482 16.8426 48.75 19.4 48.75H40.6C43.1574 48.75 44.9401 48.7482 46.328 48.6349C47.6896 48.5236 48.4719 48.3162 49.0644 48.0143C50.3345 47.3671 51.3671 46.3345 52.0143 45.0644C52.3162 44.4719 52.5236 43.6896 52.6349 42.328C52.7482 40.9401 52.75 39.1574 52.75 36.6V32.25L38.9744 32.25C37.9695 36.2713 34.3326 39.25 30 39.25C25.6674 39.25 22.0305 36.2713 21.0256 32.25ZM39.6981 11.8702C39.716 12.1327 39.7278 12.4222 39.7355 12.75H20.2646C20.2722 12.4222 20.284 12.1327 20.3019 11.8702C20.3511 11.148 20.4396 10.7964 20.5355 10.5649C20.9161 9.64608 21.6461 8.91606 22.5649 8.53545C22.7964 8.43958 23.148 8.35115 23.8702 8.30187C24.6126 8.25122 25.5714 8.25 27 8.25H33C34.4286 8.25 35.3874 8.25122 36.1298 8.30187C36.852 8.35115 37.2036 8.43958 37.4351 8.53545C38.3539 8.91606 39.0839 9.64608 39.4646 10.5649C39.5604 10.7964 39.6489 11.148 39.6981 11.8702ZM25.25 30C25.25 27.3766 27.3766 25.25 30 25.25C32.6234 25.25 34.75 27.3766 34.75 30C34.75 32.6234 32.6234 34.75 30 34.75C27.3766 34.75 25.25 32.6234 25.25 30Z"
  />
</svg>
