<svg
  width="60"
  height="60"
  viewBox="0 0 60 60"
  fill="currentColor"
  xmlns="http://www.w3.org/2000/svg"
>
  <path
    fill-rule="evenodd"
    clip-rule="evenodd"
    d="M48 7.5C50.2091 7.5 52 9.29086 52 11.5V18.4651C52.0001 21.685 52.0001 24.3425 51.8232 26.5073C51.6395 28.7557 51.2453 30.8225 50.2561 32.7638C48.7221 35.7744 46.2744 38.2221 43.2638 39.7561C41.3225 40.7453 39.2557 41.1395 37.0073 41.3232C34.8425 41.5001 32.1851 41.5001 28.9652 41.5H18.6569L22.8284 45.6716C24.3905 47.2337 24.3905 49.7663 22.8284 51.3284C21.2663 52.8905 18.7337 52.8905 17.1716 51.3284L6.17157 40.3284C4.60948 38.7663 4.60948 36.2337 6.17157 34.6716L17.1716 23.6716C18.7337 22.1095 21.2663 22.1095 22.8284 23.6716C24.3905 25.2337 24.3905 27.7663 22.8284 29.3284L18.6569 33.5H28.8C32.2263 33.5 34.5555 33.4969 36.3558 33.3498C38.1095 33.2065 39.0063 32.9468 39.6319 32.6281C41.1372 31.8611 42.3611 30.6372 43.1281 29.1319C43.4468 28.5063 43.7065 27.6095 43.8498 25.8559C43.9969 24.0555 44 21.7263 44 18.3V11.5C44 9.29086 45.7909 7.5 48 7.5Z"
  />
</svg>
