<svg
  width="60"
  height="60"
  viewBox="0 0 60 60"
  fill="currentColor"
  xmlns="http://www.w3.org/2000/svg"
>
  <path
    fill-rule="evenodd"
    clip-rule="evenodd"
    d="M48 9.25C49.2426 9.25 50.25 10.2574 50.25 11.5V18.3991C50.25 21.6755 50.25 24.2719 50.079 26.3648C49.9042 28.505 49.5394 30.3158 48.6968 31.9694C47.3306 34.6507 45.1507 36.8306 42.4694 38.1968C40.8158 39.0394 39.005 39.4042 36.8648 39.579C34.7719 39.75 32.1754 39.75 28.899 39.75H14.432L21.591 46.909C22.4697 47.7877 22.4697 49.2123 21.591 50.091C20.7123 50.9697 19.2877 50.9697 18.409 50.091L7.40901 39.091C6.53033 38.2123 6.53033 36.7877 7.40901 35.909L18.409 24.909C19.2877 24.0303 20.7123 24.0303 21.591 24.909C22.4697 25.7877 22.4697 27.2123 21.591 28.091L14.432 35.25H28.8C32.1974 35.25 34.6102 35.2483 36.4984 35.094C38.3602 34.9419 39.513 34.6527 40.4264 34.1873C42.261 33.2525 43.7525 31.761 44.6873 29.9264C45.1527 29.013 45.4419 27.8602 45.594 25.9984C45.7482 24.1102 45.75 21.6974 45.75 18.3V11.5C45.75 10.2574 46.7574 9.25 48 9.25Z"
  />
</svg>
