<svg
  width="60"
  height="60"
  viewBox="0 0 60 60"
  fill="currentColor"
  xmlns="http://www.w3.org/2000/svg"
>
  <path
    fill-rule="evenodd"
    clip-rule="evenodd"
    d="M48 8.5C49.6569 8.5 51 9.84315 51 11.5V18.4285C51 21.6798 51.0001 24.3023 50.8265 26.4259C50.6479 28.6124 50.2705 30.533 49.3651 32.3099C47.927 35.1323 45.6323 37.427 42.8099 38.8651C41.033 39.7705 39.1124 40.1479 36.9259 40.3265C34.8022 40.5001 32.1798 40.5 28.9284 40.5H16.2426L22.1213 46.3787C23.2929 47.5503 23.2929 49.4497 22.1213 50.6213C20.9497 51.7929 19.0503 51.7929 17.8787 50.6213L6.87868 39.6213C5.70711 38.4497 5.70711 36.5503 6.87868 35.3787L17.8787 24.3787C19.0503 23.2071 20.9497 23.2071 22.1213 24.3787C23.2929 25.5503 23.2929 27.4497 22.1213 28.6213L16.2426 34.5H28.8C32.2098 34.5 34.5868 34.4977 36.4373 34.3465C38.2528 34.1981 39.2958 33.9216 40.0859 33.5191C41.7794 32.6562 43.1562 31.2794 44.0191 29.5859C44.4216 28.7958 44.6981 27.7528 44.8465 25.9373C44.9977 24.0868 45 21.7098 45 18.3V11.5C45 9.84315 46.3431 8.5 48 8.5Z"
  />
</svg>
