<svg
  width="60"
  height="60"
  viewBox="0 0 60 60"
  fill="currentColor"
  xmlns="http://www.w3.org/2000/svg"
>
  <path
    d="M0 18.7776C0 12.2048 0 8.91844 1.27915 6.40797C2.40432 4.1997 4.1997 2.40432 6.40797 1.27915C8.91844 0 12.2048 0 18.7776 0H41.2224C47.7952 0 51.0816 0 53.592 1.27915C55.8003 2.40432 57.5957 4.1997 58.7209 6.40797C60 8.91844 60 12.2048 60 18.7776V41.2224C60 47.7952 60 51.0816 58.7209 53.592C57.5957 55.8003 55.8003 57.5957 53.592 58.7209C51.0816 60 47.7952 60 41.2224 60H18.7776C12.2048 60 8.91844 60 6.40797 58.7209C4.1997 57.5957 2.40432 55.8003 1.27915 53.592C0 51.0816 0 47.7952 0 41.2224V18.7776Z"
    fill="#008862"
    fill-opacity="0.08"
  />
  <path
    d="M34.2083 13.7777C31.3316 10.901 26.6674 10.9009 23.7907 13.7777L12.7781 24.7903C9.90131 27.6671 9.9013 32.3312 12.7781 35.208L23.7907 46.2206C26.6674 49.0974 31.3316 49.0974 34.2083 46.2206L48.5546 31.8743C49.5902 30.8387 49.5902 29.1596 48.5546 28.124C47.519 27.0883 45.8399 27.0883 44.8043 28.124L30.458 42.4702C29.6525 43.2757 28.3465 43.2757 27.541 42.4702L16.5284 31.4576C15.7229 30.6521 15.7229 29.3462 16.5284 28.5407L27.541 17.5281C28.3465 16.7226 29.6525 16.7226 30.458 17.5281L34.0887 21.1588L25.8441 29.4034C24.8086 30.4389 24.8088 32.1181 25.8441 33.1538C26.8797 34.1894 28.5588 34.1893 29.5945 33.1538L38.8808 23.8674C40.3767 22.3715 40.3767 19.9461 38.8808 18.4502L34.2083 13.7777Z"
    fill="#20B082"
  />
</svg>
