<svg
  width="60"
  height="60"
  viewBox="0 0 60 60"
  fill="currentColor"
  xmlns="http://www.w3.org/2000/svg"
>
  <path
    d="M5 20.648C5 15.1707 5 12.432 6.06596 10.34C7.0036 8.49975 8.49975 7.0036 10.34 6.06596C12.432 5 15.1707 5 20.648 5H39.352C44.8293 5 47.568 5 49.66 6.06596C51.5003 7.0036 52.9964 8.49975 53.934 10.34C55 12.432 55 15.1707 55 20.648V39.352C55 44.8293 55 47.568 53.934 49.66C52.9964 51.5003 51.5003 52.9964 49.66 53.934C47.568 55 44.8293 55 39.352 55H20.648C15.1707 55 12.432 55 10.34 53.934C8.49975 52.9964 7.0036 51.5003 6.06596 49.66C5 47.568 5 44.8293 5 39.352V20.648Z"
    fill="#20B082"
  />
  <path
    d="M33.4189 16.2359C30.9782 13.7951 27.0209 13.7951 24.5801 16.2359L15.2365 25.5795C12.7957 28.0203 12.7957 31.9776 15.2365 34.4184L24.5801 43.762C27.0209 46.2028 30.9782 46.2028 33.4189 43.762L45.591 31.5899C46.4697 30.7113 46.4697 29.2866 45.591 28.408C44.7123 27.5293 43.2877 27.5293 42.409 28.408L30.2369 40.58C29.5535 41.2634 28.4455 41.2634 27.7621 40.58L18.4185 31.2364C17.735 30.553 17.735 29.4449 18.4185 28.7615L27.7621 19.4179C28.4455 18.7345 29.5535 18.7345 30.2369 19.4179L33.3174 22.4984L26.3223 29.4935C25.4438 30.3721 25.4439 31.7968 26.3223 32.6755C27.201 33.5541 28.6256 33.5541 29.5043 32.6755L37.3833 24.7965C38.6525 23.5273 38.6525 21.4695 37.3833 20.2003L33.4189 16.2359Z"
    fill="white"
  />
</svg>
