<svg
  width="60"
  height="60"
  viewBox="0 0 60 60"
  fill="currentColor"
  xmlns="http://www.w3.org/2000/svg"
>
  <path
    d="M38.5996 4.75C41.0827 4.75 43.0807 4.74805 44.6943 4.87988C46.3342 5.01387 47.7748 5.29754 49.1074 5.97656C51.2241 7.05511 52.9449 8.7759 54.0234 10.8926C54.7025 12.2252 54.9861 13.6658 55.1201 15.3057C55.2519 16.9193 55.25 18.9173 55.25 21.4004V38.5996C55.25 41.0827 55.2519 43.0807 55.1201 44.6943C54.9861 46.3342 54.7025 47.7748 54.0234 49.1074C52.9449 51.2241 51.2241 52.9449 49.1074 54.0234C47.7748 54.7025 46.3342 54.9861 44.6943 55.1201C43.0807 55.2519 41.0827 55.25 38.5996 55.25H21.4004C18.9173 55.25 16.9193 55.2519 15.3057 55.1201C13.6658 54.9861 12.2252 54.7025 10.8926 54.0234C8.7759 52.9449 7.05511 51.2241 5.97656 49.1074C5.29754 47.7748 5.01387 46.3342 4.87988 44.6943C4.74805 43.0807 4.75 41.0827 4.75 38.5996V21.4004C4.75 18.9173 4.74805 16.9193 4.87988 15.3057C5.01387 13.6658 5.29754 12.2252 5.97656 10.8926C7.05511 8.7759 8.7759 7.05511 10.8926 5.97656C12.2252 5.29754 13.6658 5.01387 15.3057 4.87988C16.9193 4.74805 18.9173 4.75 21.4004 4.75H38.5996ZM21.4004 9.25C18.843 9.25 17.0598 9.25184 15.6719 9.36524C14.3105 9.47648 13.5281 9.68348 12.9355 9.98535C11.6655 10.6325 10.6325 11.6655 9.98535 12.9355C9.68348 13.5281 9.47648 14.3105 9.36524 15.6719C9.25184 17.0598 9.25 18.843 9.25 21.4004V38.5996C9.25 41.157 9.25184 42.9402 9.36524 44.3281C9.47648 45.6895 9.68348 46.4719 9.98535 47.0645C10.6325 48.3345 11.6655 49.3675 12.9355 50.0146C13.5281 50.3165 14.3105 50.5235 15.6719 50.6348C17.0598 50.7482 18.843 50.75 21.4004 50.75H38.5996C41.157 50.75 42.9402 50.7482 44.3281 50.6348C45.6895 50.5235 46.4719 50.3165 47.0645 50.0146C48.3345 49.3675 49.3675 48.3345 50.0146 47.0645C50.3165 46.4719 50.5235 45.6895 50.6348 44.3281C50.7482 42.9402 50.75 41.157 50.75 38.5996V21.4004C50.75 18.843 50.7482 17.0598 50.6348 15.6719C50.5235 14.3105 50.3165 13.5281 50.0146 12.9355C49.3675 11.6655 48.3345 10.6325 47.0645 9.98535C46.4719 9.68348 45.6895 9.47648 44.3281 9.36524C42.9402 9.25184 41.157 9.25 38.5996 9.25H21.4004ZM25.5811 16.2373C28.0218 13.7966 31.9782 13.7966 34.4189 16.2373L38.3838 20.2012C39.653 21.4704 39.653 23.5287 38.3838 24.7979L30.5049 32.6768C29.6263 33.5552 28.2019 33.555 27.3232 32.6768C26.4449 31.7981 26.4447 30.3727 27.3232 29.4941L34.3184 22.499L31.2373 19.4189C30.5539 18.7356 29.4461 18.7356 28.7627 19.4189L19.4189 28.7627C18.7356 29.4461 18.7356 30.5539 19.4189 31.2373L28.7627 40.5811C29.4461 41.2644 30.5539 41.2644 31.2373 40.5811L43.4092 28.4092C44.2879 27.5305 45.7131 27.5305 46.5918 28.4092C47.4701 29.2878 47.4701 30.7122 46.5918 31.5908L34.4189 43.7627C31.9782 46.2034 28.0218 46.2034 25.5811 43.7627L16.2373 34.4189C13.7966 31.9782 13.7966 28.0218 16.2373 25.5811L25.5811 16.2373Z"
  />
</svg>
