<svg
  xmlns="http://www.w3.org/2000/svg"
  width="60"
  height="60"
  viewBox="0 0 60 60"
  fill="currentColor"
>
  <path
    d="M53.9997 11.75C55.2423 11.75 56.2497 12.7574 56.2497 14C56.2497 15.2426 55.2423 16.25 53.9997 16.25H25.193L16.1618 47.6221C15.9029 48.5212 15.1148 49.1662 14.1823 49.2422C13.3079 49.3132 12.477 48.8706 12.0465 48.1182L11.9665 47.9629L2.96646 28.9629L2.87857 28.75C2.49716 27.6754 2.98406 26.4655 4.03677 25.9668C5.08964 25.4682 6.33472 25.8579 6.92447 26.834L7.03287 27.0371L13.484 40.6562L21.3376 13.3779L21.3961 13.2002C21.7253 12.3332 22.5595 11.75 23.4997 11.75H53.9997Z"
  />
  <path
    d="M29.4088 26.4092C30.2875 25.5305 31.7118 25.5305 32.5905 26.4092L39.4997 33.3184L46.3795 26.4385L46.5504 26.2842C47.4342 25.5637 48.7375 25.6149 49.5612 26.4385C50.3848 27.2621 50.4368 28.5655 49.7165 29.4492L49.5612 29.6201L42.6813 36.5L49.5612 43.3799L49.7165 43.5508C50.4368 44.4345 50.3848 45.7379 49.5612 46.5615C48.7375 47.3851 47.4342 47.4363 46.5504 46.7158L46.3795 46.5615L39.4997 39.6816L32.5905 46.5908C31.7118 47.4695 30.2875 47.4695 29.4088 46.5908C28.5302 45.7122 28.5302 44.2878 29.4088 43.4092L36.318 36.5L29.4088 29.5908C28.5302 28.7122 28.5302 27.2878 29.4088 26.4092Z"
  />
</svg>
