<svg
  width="60"
  height="60"
  viewBox="0 0 60 60"
  fill="currentColor"
  xmlns="http://www.w3.org/2000/svg"
>
  <path
    fill-rule="evenodd"
    clip-rule="evenodd"
    d="M6.68568 26.8575C2.29228 31.2509 2.29227 38.374 6.68567 42.7674L15.8133 51.895C17.0791 53.1609 18.796 53.872 20.5862 53.872H31.2097C33 53.872 34.7168 53.1609 35.9827 51.895L53.3158 34.5619C57.7092 30.1685 57.7092 23.0454 53.3158 18.652L42.0584 7.39466C37.665 3.00126 30.5419 3.00126 26.1485 7.39466L6.68568 26.8575ZM9.86765 39.5854C7.23161 36.9494 7.23162 32.6755 9.86766 30.0395L17.6941 22.213L38.4974 43.0163L32.8007 48.713C32.3788 49.135 31.8065 49.372 31.2097 49.372H20.5862C19.9895 49.372 19.4172 49.135 18.9952 48.713L9.86765 39.5854ZM41.6794 39.8344L50.1338 31.3799C52.7699 28.7439 52.7699 24.47 50.1338 21.834L38.8765 10.5766C36.2404 7.9406 31.9666 7.9406 29.3305 10.5766L20.8761 19.031L41.6794 39.8344Z"
  />
</svg>
