<svg
  width="60"
  height="60"
  viewBox="0 0 60 60"
  fill="currentColor"
  xmlns="http://www.w3.org/2000/svg"
>
  <path
    fill-rule="evenodd"
    clip-rule="evenodd"
    d="M6.68519 26.858C2.29179 31.2514 2.29178 38.3745 6.68518 42.7679L15.8128 51.8955C17.0786 53.1614 18.7955 53.8725 20.5857 53.8725H31.2093C32.9995 53.8725 34.7164 53.1614 35.9822 51.8955L53.3153 34.5624C57.7087 30.169 57.7087 23.0459 53.3153 18.6525L42.0579 7.39515C37.6645 3.00175 30.5414 3.00175 26.148 7.39514L6.68519 26.858ZM9.86716 39.5859C7.23113 36.9499 7.23113 32.676 9.86717 30.04L17.6936 22.2135L38.4969 43.0168L32.8002 48.7135C32.3783 49.1355 31.806 49.3725 31.2093 49.3725H20.5857C19.989 49.3725 19.4167 49.1355 18.9948 48.7135L9.86716 39.5859ZM41.6789 39.8348L50.1333 31.3804C52.7694 28.7444 52.7694 24.4705 50.1333 21.8345L38.876 10.5771C36.2399 7.94109 31.9661 7.94109 29.33 10.5771L20.8756 19.0315L41.6789 39.8348Z"
  />
</svg>
