<svg
  width="60"
  height="60"
  viewBox="0 0 60 60"
  fill="currentColor"
  xmlns="http://www.w3.org/2000/svg"
>
  <path
    d="M0 18.7826C0 12.2081 0 8.92081 1.27949 6.40968C2.40496 4.20082 4.20082 2.40496 6.40968 1.27949C8.92081 0 12.2081 0 18.7826 0H41.2174C47.7919 0 51.0792 0 53.5903 1.27949C55.7992 2.40496 57.595 4.20082 58.7205 6.40968C60 8.92081 60 12.2081 60 18.7826V41.2174C60 47.7919 60 51.0792 58.7205 53.5903C57.595 55.7992 55.7992 57.595 53.5903 58.7205C51.0792 60 47.7919 60 41.2174 60H18.7826C12.2081 60 8.92081 60 6.40968 58.7205C4.20082 57.595 2.40496 55.7992 1.27949 53.5903C0 51.0792 0 47.7919 0 41.2174V18.7826Z"
    fill="#008862"
    fill-opacity="0.08"
  />
  <path
    fill-rule="evenodd"
    clip-rule="evenodd"
    d="M20.9725 14.3645C22.272 13.6142 23.9337 14.0594 24.6839 15.3589L30.5825 25.5752L41.3618 14.7962C42.4229 13.7352 44.1432 13.7352 45.2042 14.7962C46.2653 15.8572 46.2653 17.5775 45.2042 18.6385L33.3953 30.4471L40.0218 41.9242C40.7721 43.2237 40.3269 44.8853 39.0274 45.6355C37.7278 46.3858 36.0662 45.9406 35.3159 44.6411L29.4174 34.4249L18.6382 45.2038C17.5771 46.2648 15.8568 46.2648 14.7958 45.2038C13.7347 44.1428 13.7347 42.4225 14.7958 41.3615L26.6046 29.5531L19.978 18.0758C19.2277 16.7763 19.673 15.1147 20.9725 14.3645Z"
    fill="#20B082"
  />
</svg>
