<svg
  width="60"
  height="60"
  viewBox="0 0 60 60"
  fill="currentColor"
  xmlns="http://www.w3.org/2000/svg"
>
  <path
    d="M5 20.6522C5 15.1734 5 12.434 6.06624 10.3414C7.00413 8.50068 8.50068 7.00413 10.3414 6.06624C12.434 5 15.1734 5 20.6522 5H39.3478C44.8266 5 47.566 5 49.6586 6.06624C51.4993 7.00413 52.9959 8.50068 53.9338 10.3414C55 12.434 55 15.1734 55 20.6522V39.3478C55 44.8266 55 47.566 53.9338 49.6586C52.9959 51.4993 51.4993 52.9959 49.6586 53.9338C47.566 55 44.8266 55 39.3478 55H20.6522C15.1734 55 12.434 55 10.3414 53.9338C8.50068 52.9959 7.00413 51.4993 6.06624 49.6586C5 47.566 5 44.8266 5 39.3478V20.6522Z"
    fill="#20B082"
  />
  <path
    fill-rule="evenodd"
    clip-rule="evenodd"
    d="M22.5241 17.0513C23.6002 16.43 24.9763 16.7987 25.5976 17.8749L30.4823 26.3355L39.4089 17.4089C40.2876 16.5302 41.7122 16.5302 42.5909 17.4089C43.4696 18.2876 43.4696 19.7122 42.5909 20.5909L32.8117 30.3701L38.2993 39.8748C38.9206 40.951 38.5519 42.3271 37.4757 42.9484C36.3996 43.5697 35.0235 43.201 34.4022 42.1248L29.5175 33.6643L20.591 42.5908C19.7123 43.4695 18.2877 43.4695 17.409 42.5908C16.5303 41.7121 16.5303 40.2875 17.409 39.4088L27.1881 29.6297L21.7005 20.1249C21.0792 19.0487 21.4479 17.6727 22.5241 17.0513Z"
    fill="white"
  />
</svg>
