<svg
  width="60"
  height="60"
  viewBox="0 0 60 60"
  fill="currentColor"
  xmlns="http://www.w3.org/2000/svg"
>
  <path
    fill-rule="evenodd"
    clip-rule="evenodd"
    d="M21.3037 4.75H38.6963C41.1348 4.74998 43.1017 4.74996 44.6944 4.88009C46.3343 5.01408 47.7747 5.29716 49.1074 5.97618C51.2242 7.05475 52.9452 8.77578 54.0238 10.8926C54.7028 12.2253 54.9859 13.6657 55.1199 15.3056C55.25 16.8983 55.25 18.8651 55.25 21.3036V38.6964C55.25 41.1349 55.25 43.1017 55.1199 44.6944C54.9859 46.3343 54.7028 47.7747 54.0238 49.1074C52.9452 51.2242 51.2242 52.9452 49.1074 54.0238C47.7747 54.7028 46.3343 54.9859 44.6944 55.1199C43.1017 55.25 41.1349 55.25 38.6964 55.25H21.3036C18.8651 55.25 16.8983 55.25 15.3056 55.1199C13.6657 54.9859 12.2253 54.7028 10.8926 54.0238C8.77578 52.9452 7.05475 51.2242 5.97618 49.1074C5.29716 47.7747 5.01408 46.3343 4.88009 44.6944C4.74996 43.1017 4.74998 41.1348 4.75 38.6963V21.3037C4.74998 18.8652 4.74996 16.8983 4.88009 15.3056C5.01408 13.6657 5.29716 12.2253 5.97618 10.8926C7.05475 8.77578 8.77578 7.05475 10.8926 5.97618C12.2253 5.29716 13.6657 5.01408 15.3056 4.88009C16.8983 4.74996 18.8652 4.74998 21.3037 4.75ZM15.672 9.36515C14.3104 9.4764 13.5281 9.68379 12.9356 9.98571C11.6655 10.6329 10.6329 11.6655 9.98571 12.9356C9.68379 13.5281 9.4764 14.3104 9.36515 15.672C9.25175 17.0599 9.25 18.8426 9.25 21.4V38.6C9.25 41.1574 9.25175 42.9401 9.36515 44.328C9.4764 45.6896 9.68379 46.4719 9.98571 47.0644C10.6329 48.3345 11.6655 49.3671 12.9356 50.0143C13.5281 50.3162 14.3104 50.5236 15.672 50.6349C17.0599 50.7482 18.8426 50.75 21.4 50.75H38.6C41.1574 50.75 42.9401 50.7482 44.328 50.6349C45.6896 50.5236 46.4719 50.3162 47.0644 50.0143C48.3345 49.3671 49.3671 48.3345 50.0143 47.0644C50.3162 46.4719 50.5236 45.6896 50.6349 44.328C50.7482 42.9401 50.75 41.1574 50.75 38.6V21.4C50.75 18.8426 50.7482 17.0599 50.6349 15.672C50.5236 14.3104 50.3162 13.5281 50.0143 12.9356C49.3671 11.6655 48.3345 10.6329 47.0644 9.98571C46.4719 9.68379 45.6896 9.4764 44.328 9.36515C42.9401 9.25175 41.1574 9.25 38.6 9.25H21.4C18.8426 9.25 17.0599 9.25175 15.672 9.36515Z"
  />
  <path
    fill-rule="evenodd"
    clip-rule="evenodd"
    d="M22.5241 17.0514C23.6003 16.4301 24.9764 16.7988 25.5977 17.875L30.4824 26.3356L39.409 17.409C40.2877 16.5303 41.7123 16.5303 42.591 17.409C43.4697 18.2877 43.4697 19.7123 42.591 20.591L32.8118 30.3702L38.2994 39.8749C38.9207 40.9511 38.552 42.3272 37.4758 42.9485C36.3996 43.5698 35.0236 43.2011 34.4022 42.1249L29.5176 33.6644L20.5911 42.5909C19.7124 43.4696 18.2878 43.4696 17.4091 42.5909C16.5304 41.7122 16.5304 40.2876 17.4091 39.4089L27.1882 29.6298L21.7006 20.125C21.0793 19.0488 21.448 17.6728 22.5241 17.0514Z"
  />
</svg>
