<svg
  width="60"
  height="60"
  viewBox="0 0 60 60"
  fill="currentColor"
  xmlns="http://www.w3.org/2000/svg"
>
  <path
    d="M27.0523 17.0986C26.9681 15.4129 28.3121 14 29.9999 14C31.6877 14 33.0318 15.4129 32.9475 17.0986L31.9974 36.0999C31.9442 37.1643 31.0657 38 29.9999 38C28.9342 38 28.0556 37.1643 28.0024 36.0999L27.0523 17.0986Z"
  />
  <path
    d="M30 41.5C28.6193 41.5 27.5 42.6193 27.5 44C27.5 45.3807 28.6193 46.5 30 46.5H30.1C31.4807 46.5 32.6 45.3807 32.6 44C32.6 42.6193 31.4807 41.5 30.1 41.5H30Z"
  />
  <path
    fill-rule="evenodd"
    clip-rule="evenodd"
    d="M2.75 30C2.75 14.9502 14.9502 2.75 30 2.75C45.0498 2.75 57.25 14.9502 57.25 30C57.25 45.0498 45.0498 57.25 30 57.25C14.9502 57.25 2.75 45.0498 2.75 30ZM30 7.25C17.4355 7.25 7.25 17.4355 7.25 30C7.25 42.5645 17.4355 52.75 30 52.75C42.5645 52.75 52.75 42.5645 52.75 30C52.75 17.4355 42.5645 7.25 30 7.25Z"
  />
</svg>
