<svg
  width="60"
  height="60"
  viewBox="0 0 60 60"
  fill="currentColor"
  xmlns="http://www.w3.org/2000/svg"
>
  <path
    d="M26.1151 11.4842C26.004 9.26233 27.7755 7.40002 30.0001 7.40002C32.2247 7.40002 33.9962 9.26233 33.8852 11.4842L32.6329 36.5288C32.5628 37.9318 31.4048 39.0333 30.0001 39.0333C28.5954 39.0333 27.4374 37.9318 27.3673 36.5288L26.1151 11.4842Z"
  />
  <path
    d="M30.0002 43.6465C28.1804 43.6465 26.7051 45.1217 26.7051 46.9416C26.7051 48.7614 28.1804 50.2367 30.0002 50.2367H30.132C31.9519 50.2367 33.4272 48.7614 33.4272 46.9416C33.4272 45.1217 31.9519 43.6465 30.132 43.6465H30.0002Z"
  />
</svg>
