<svg
  width="60"
  height="60"
  viewBox="0 0 60 60"
  fill="currentColor"
  xmlns="http://www.w3.org/2000/svg"
>
  <path
    d="M27.0523 18.0986C26.9681 16.4129 28.3121 15 29.9999 15C31.6877 15 33.0318 16.4129 32.9475 18.0986L31.9974 37.0999C31.9442 38.1643 31.0657 39 29.9999 39C28.9342 39 28.0556 38.1643 28.0024 37.0999L27.0523 18.0986Z"
  />
  <path
    d="M30 42.5C28.6193 42.5 27.5 43.6193 27.5 45C27.5 46.3807 28.6193 47.5 30 47.5H30.1C31.4807 47.5 32.6 46.3807 32.6 45C32.6 43.6193 31.4807 42.5 30.1 42.5H30Z"
  />
  <path
    fill-rule="evenodd"
    clip-rule="evenodd"
    d="M26.6435 4.47039C28.7801 3.51882 31.2201 3.51882 33.3566 4.47039C34.8139 5.11942 35.8896 6.3196 36.8612 7.69583C37.8258 9.06202 38.8915 10.9093 40.2073 13.19L53.6999 36.5772C55.0144 38.8557 56.0792 40.7013 56.7785 42.2189C57.4831 43.7479 57.9832 45.2787 57.8162 46.8643C57.5714 49.1891 56.3516 51.301 54.4602 52.6749C53.1703 53.6119 51.5943 53.9436 49.9179 54.0974C48.2539 54.2501 46.1233 54.2501 43.4929 54.25H16.5074C13.877 54.2501 11.7462 54.2501 10.0822 54.0974C8.40583 53.9436 6.82986 53.6119 5.53996 52.6749C3.64855 51.301 2.42882 49.1891 2.18394 46.8643C2.01693 45.2787 2.51711 43.7479 3.22163 42.2189C3.92095 40.7013 4.98572 38.8557 6.30025 36.5773L19.7928 13.1901C21.1086 10.9094 22.1744 9.062 23.1389 7.69583C24.1106 6.3196 25.1863 5.11942 26.6435 4.47039ZM31.5258 8.58111C30.5546 8.14858 29.4455 8.14858 28.4744 8.58111C28.1502 8.72552 27.653 9.10441 26.815 10.2913C25.9839 11.4685 25.0201 13.1346 23.6336 15.5378L10.2552 38.7271C8.87004 41.128 7.9111 42.7947 7.3086 44.1022C6.70121 45.4203 6.622 46.0399 6.65918 46.3929C6.77049 47.4496 7.32491 48.4096 8.18465 49.0341C8.47179 49.2427 9.04806 49.4837 10.4933 49.6163C11.927 49.7478 13.8498 49.75 16.6216 49.75H43.3786C46.1503 49.75 48.0732 49.7478 49.5068 49.6163C50.9521 49.4837 51.5284 49.2427 51.8155 49.0341C52.6753 48.4096 53.2297 47.4496 53.341 46.3929C53.3782 46.0399 53.299 45.4203 52.6916 44.1022C52.0891 42.7947 51.1301 41.128 49.745 38.7271L36.3666 15.5378C34.9801 13.1346 34.0163 11.4685 33.1851 10.2913C32.3472 9.10441 31.85 8.72552 31.5258 8.58111Z"
  />
</svg>
