<svg
  width="60"
  height="60"
  viewBox="0 0 60 60"
  fill="currentColor"
  xmlns="http://www.w3.org/2000/svg"
>
  <path
    d="M33.3566 4.47039C31.2201 3.51882 28.7801 3.51882 26.6435 4.47039C25.1863 5.11942 24.1106 6.3196 23.1389 7.69583C22.1744 9.062 21.1086 10.9094 19.7928 13.1901L6.30025 36.5773C4.98572 38.8557 3.92095 40.7013 3.22163 42.2189C2.51711 43.7479 2.01693 45.2787 2.18394 46.8643C2.42882 49.1891 3.64855 51.301 5.53996 52.6749C6.82986 53.6119 8.40583 53.9436 10.0822 54.0974C11.7462 54.2501 13.877 54.2501 16.5074 54.25H43.4929C46.1233 54.2501 48.2539 54.2501 49.9179 54.0974C51.5943 53.9436 53.1703 53.6119 54.4602 52.6749C56.3516 51.301 57.5714 49.1891 57.8162 46.8643C57.9832 45.2787 57.4831 43.7479 56.7785 42.2189C56.0792 40.7013 55.0144 38.8557 53.6999 36.5772L40.2073 13.19C38.8915 10.9093 37.8258 9.06202 36.8612 7.69583C35.8896 6.3196 34.8139 5.11942 33.3566 4.47039Z"
    fill="#EB7E26"
  />
  <path
    d="M27.0523 18.0986C26.9681 16.4129 28.3121 15 29.9999 15C31.6877 15 33.0318 16.4129 32.9475 18.0986L31.9974 37.0999C31.9442 38.1643 31.0657 39 29.9999 39C28.9342 39 28.0556 38.1643 28.0024 37.0999L27.0523 18.0986Z"
    fill="white"
  />
  <path
    d="M30 42.5C28.6193 42.5 27.5 43.6193 27.5 45C27.5 46.3807 28.6193 47.5 30 47.5H30.1C31.4807 47.5 32.6 46.3807 32.6 45C32.6 43.6193 31.4807 42.5 30.1 42.5H30Z"
    fill="white"
  />
</svg>
