<svg
  width="60"
  height="60"
  viewBox="0 0 60 60"
  fill="currentColor"
  xmlns="http://www.w3.org/2000/svg"
>
  <path
    fill-rule="evenodd"
    clip-rule="evenodd"
    d="M20 2.75C18.7574 2.75 17.75 3.75736 17.75 5C17.75 6.24264 18.7574 7.25 20 7.25H21.25V19.2835C21.25 19.352 21.25 19.4042 21.2498 19.4493L21.2494 19.4961L21.2298 19.5386C21.2107 19.5795 21.1885 19.6267 21.1593 19.6886L11.3729 40.4477C10.3409 42.6367 9.50027 44.4198 8.96659 45.8844C8.42488 47.3711 8.0753 48.8422 8.32106 50.3377C8.68473 52.5508 9.93374 54.5205 11.7805 55.7932C13.0285 56.6532 14.5081 56.9643 16.0839 57.1082C17.6363 57.2501 19.6075 57.25 22.0276 57.25H37.9724C40.3925 57.25 42.3637 57.2501 43.9161 57.1082C45.4919 56.9643 46.9715 56.6532 48.2195 55.7932C50.0663 54.5205 51.3153 52.5508 51.6789 50.3377C51.9247 48.8422 51.5751 47.3711 51.0334 45.8844C50.4997 44.4198 49.6592 42.6368 48.6272 40.4478L38.8407 19.6886C38.8115 19.6267 38.7893 19.5795 38.7702 19.5386L38.7506 19.4961L38.7502 19.4493C38.75 19.4042 38.75 19.352 38.75 19.2835V7.25H40C41.2426 7.25 42.25 6.24264 42.25 5C42.25 3.75736 41.2426 2.75 40 2.75H20ZM34.25 7.25H25.75V19.2835L25.7501 19.3397C25.7504 19.5464 25.7509 19.8265 25.7129 20.1122C25.68 20.3599 25.6253 20.6041 25.5495 20.8421C25.462 21.1168 25.3422 21.3699 25.2537 21.5567L25.2297 21.6075L18.4384 36.0133C20.4457 35.4723 22.2516 35.3381 23.9342 35.5118C26.7815 35.8057 29.0431 36.9736 30.9216 37.9436L31.0319 38.0005C33.0068 39.0198 34.5874 39.8115 36.5279 40.0118C38.1131 40.1754 40.1153 39.9518 42.8591 38.7654L34.7703 21.6075L34.7463 21.5568C34.6578 21.3699 34.538 21.1168 34.4505 20.8421C34.3747 20.6041 34.32 20.3599 34.2871 20.1122C34.2491 19.8265 34.2496 19.5464 34.2499 19.3397L34.25 19.2835V7.25ZM15.4908 42.2658L15.6435 41.9418C19.177 40.137 21.6116 39.7959 23.4721 39.988C25.4125 40.1883 26.9932 40.98 28.9681 41.9993L29.0782 42.0562C30.9568 43.0262 33.2184 44.1941 36.0659 44.488C38.6011 44.7496 41.4162 44.3121 44.7786 42.8374C45.7249 44.8474 46.389 46.2823 46.8053 47.425C47.2603 48.6736 47.2955 49.2612 47.2385 49.6081C47.0732 50.614 46.5055 51.5093 45.666 52.0878C45.3766 52.2873 44.8301 52.506 43.5067 52.6269C42.1837 52.7478 40.4194 52.75 37.861 52.75H22.139C19.5806 52.75 17.8163 52.7478 16.4933 52.6269C15.1699 52.506 14.6234 52.2873 14.334 52.0878C13.4945 51.5093 12.9268 50.614 12.7615 49.6081C12.7045 49.2612 12.7397 48.6736 13.1947 47.425C13.6495 46.1768 14.3998 44.58 15.4908 42.2658Z"
  />
</svg>
