<svg
  width="60"
  height="60"
  viewBox="0 0 60 60"
  fill="currentColor"
  xmlns="http://www.w3.org/2000/svg"
>
  <path
    fill-rule="evenodd"
    clip-rule="evenodd"
    d="M26.9948 2.32317C28.6545 0.66344 31.3455 0.663434 33.0052 2.32316L39.591 8.90895C40.4697 9.78763 40.4697 11.2123 39.591 12.0909C38.7123 12.9696 37.2877 12.9696 36.409 12.0909L32.25 7.93192L32.25 35.4999C32.25 36.7426 31.2427 37.7499 30 37.7499C28.7574 37.7499 27.75 36.7426 27.75 35.4999L27.75 7.93193L23.591 12.0909C22.7123 12.9696 21.2877 12.9696 20.409 12.0909C19.5303 11.2123 19.5303 9.78763 20.409 8.90895L26.9948 2.32317ZM22.5365 17.2498C22.6888 17.2499 22.8432 17.2499 23 17.2499V21.7499C19.0797 21.7499 17.7158 21.7841 16.6914 22.157C14.8165 22.8394 13.3395 24.3164 12.6571 26.1913C12.2842 27.2158 12.25 28.5796 12.25 32.4999V41.0999C12.25 43.6573 12.2518 45.44 12.3652 46.8279C12.4764 48.1895 12.6838 48.9718 12.9857 49.5644C13.6329 50.8345 14.6655 51.8671 15.9356 52.5142C16.5281 52.8162 17.3104 53.0235 18.6721 53.1348C20.06 53.2482 21.8427 53.2499 24.4 53.2499H35.6C38.1574 53.2499 39.9401 53.2482 41.328 53.1348C42.6896 53.0235 43.4719 52.8162 44.0645 52.5142C45.3345 51.8671 46.3672 50.8345 47.0143 49.5644C47.3162 48.9718 47.5236 48.1895 47.6349 46.8279C47.7483 45.44 47.75 43.6573 47.75 41.0999V32.4999C47.75 28.5796 47.7158 27.2158 47.3429 26.1913C46.6605 24.3164 45.1836 22.8394 43.3087 22.157C42.2842 21.7841 40.9203 21.7499 37 21.7499V17.2499C37.1568 17.2499 37.3113 17.2499 37.4635 17.2498C40.7379 17.2484 42.9767 17.2474 44.8477 17.9284C47.9726 19.0658 50.4342 21.5273 51.5716 24.6522C52.2526 26.5233 52.2516 28.7621 52.2502 32.0365C52.2501 32.1887 52.25 32.3432 52.25 32.4999V41.1963C52.25 43.6348 52.2501 45.6016 52.1199 47.1943C51.9859 48.8343 51.7029 50.2747 51.0238 51.6073C49.9453 53.7242 48.2242 55.4452 46.1074 56.5238C44.7748 57.2028 43.3343 57.4859 41.6944 57.6199C40.1017 57.75 38.1349 57.75 35.6964 57.7499H24.3036C21.8652 57.75 19.8983 57.75 18.3056 57.6199C16.6657 57.4859 15.2253 57.2028 13.8926 56.5238C11.7758 55.4452 10.0548 53.7242 8.9762 51.6073C8.29717 50.2747 8.01409 48.8343 7.88011 47.1943C7.74998 45.6016 7.75 43.6348 7.75002 41.1963L7.75002 32.4999C7.75002 32.3432 7.74995 32.1887 7.74988 32.0365C7.74845 28.762 7.74747 26.5233 8.42848 24.6522C9.56584 21.5273 12.0274 19.0658 15.1523 17.9284C17.0233 17.2474 19.2621 17.2484 22.5365 17.2498Z"
  />
</svg>
