<svg
  width="60"
  height="60"
  viewBox="0 0 60 60"
  fill="currentColor"
  xmlns="http://www.w3.org/2000/svg"
>
  <path
    d="M25.4167 57.5C12.4306 55.1955 2.5 43.8268 2.5 30.1536C2.5 14.9441 14.875 2.5 30 2.5C45.125 2.5 57.5 14.9441 57.5 30.1536C57.5 43.8268 47.5694 55.1955 34.5833 57.5L33.0556 56.271H26.9444L25.4167 57.5Z"
    fill="url(#paint0_linear_5431_1572)"
  />
  <path
    d="M41.4375 38.3125L42.6875 30.5H35.1875V25.0312C35.1875 22.8438 35.9688 21.125 39.4063 21.125H43V13.9375C40.9688 13.625 38.7813 13.3125 36.75 13.3125C30.3438 13.3125 25.8125 17.2188 25.8125 24.25V30.5H18.7812V38.3125H25.8125V58.1562C27.375 58.4688 28.9375 58.625 30.5 58.625C32.0625 58.625 33.625 58.4688 35.1875 58.1562V38.3125H41.4375Z"
    fill="white"
  />
  <defs>
    <linearGradient
      id="paint0_linear_5431_1572"
      x1="30"
      y1="55.893"
      x2="30"
      y2="2.5"
      gradientUnits="userSpaceOnUse"
    >
      <stop stop-color="#0062E0" />
      <stop offset="1" stop-color="#19AFFF" />
    </linearGradient>
  </defs>
</svg>
