<svg
  width="60"
  height="60"
  viewBox="0 0 60 60"
  fill="currentColor"
  xmlns="http://www.w3.org/2000/svg"
>
  <path
    fill-rule="evenodd"
    clip-rule="evenodd"
    d="M25 7C25 4.79086 23.2091 3 21 3H9C6.79086 3 5 4.79086 5 7V19C5 21.2091 6.79086 23 9 23H12.75V27C12.75 30.4518 15.5482 33.25 19 33.25H27.5V39.315C23.1869 40.4252 20 44.3404 20 49C20 54.5228 24.4772 59 30 59C35.5228 59 40 54.5228 40 49C40 44.1621 36.5645 40.1266 32 39.2V33.25H41C44.4518 33.25 47.25 30.4518 47.25 27V22.7459C51.6893 21.7251 55 17.7492 55 13C55 7.47715 50.5228 3 45 3C39.4772 3 35 7.47715 35 13C35 17.7492 38.3107 21.7251 42.75 22.7459V27C42.75 27.9665 41.9665 28.75 41 28.75H19C18.0335 28.75 17.25 27.9665 17.25 27V23H21C23.2091 23 25 21.2091 25 19V7ZM20.5 7.5H9.5V18.5H20.5V7.5ZM45 18.5C48.0376 18.5 50.5 16.0376 50.5 13C50.5 9.96243 48.0376 7.5 45 7.5C41.9624 7.5 39.5 9.96243 39.5 13C39.5 16.0376 41.9624 18.5 45 18.5ZM35.5 49C35.5 52.0376 33.0376 54.5 30 54.5C26.9624 54.5 24.5 52.0376 24.5 49C24.5 45.9624 26.9624 43.5 30 43.5C33.0376 43.5 35.5 45.9624 35.5 49Z"
  />
</svg>
