<svg
  width="60"
  height="60"
  viewBox="0 0 60 60"
  fill="currentColor"
  xmlns="http://www.w3.org/2000/svg"
>
  <path
    d="M22 24.75C20.7574 24.75 19.75 25.7574 19.75 27C19.75 28.2426 20.7574 29.25 22 29.25H38C39.2426 29.25 40.25 28.2426 40.25 27C40.25 25.7574 39.2426 24.75 38 24.75H22Z"
  />
  <path
    fill-rule="evenodd"
    clip-rule="evenodd"
    d="M21.3037 4.75H38.6963C41.1348 4.74998 43.1017 4.74996 44.6944 4.88009C46.3343 5.01408 47.7747 5.29716 49.1074 5.97618C51.2242 7.05475 52.9452 8.77578 54.0238 10.8926C54.7028 12.2253 54.9859 13.6657 55.1199 15.3056C55.25 16.8983 55.25 18.8651 55.25 21.3036L55.25 43.4914C55.25 45.0938 55.2501 46.4313 55.1608 47.524C55.0677 48.6637 54.8663 49.7336 54.3508 50.7454C53.5599 52.2978 52.2978 53.5599 50.7454 54.3508C49.7336 54.8663 48.6637 55.0677 47.524 55.1608C46.4313 55.2501 45.0938 55.25 43.4914 55.25H16.5086C14.9062 55.25 13.5687 55.2501 12.476 55.1608C11.3363 55.0677 10.2664 54.8663 9.25458 54.3508C7.70224 53.5599 6.44016 52.2978 5.6492 50.7454C5.13367 49.7336 4.93234 48.6637 4.83922 47.524C4.74995 46.4313 4.74997 45.0938 4.75 43.4914V21.3037C4.74998 18.8652 4.74996 16.8983 4.88009 15.3056C5.01408 13.6657 5.29716 12.2253 5.97618 10.8926C7.05475 8.77578 8.77579 7.05475 10.8926 5.97618C12.2253 5.29716 13.6657 5.01408 15.3056 4.88009C16.8983 4.74996 18.8652 4.74998 21.3037 4.75ZM50.0143 12.9356C50.3102 13.5162 50.5153 14.2792 50.6281 15.5909C49.651 15.1183 48.6197 14.9287 47.524 14.8392C46.4313 14.7499 45.0938 14.75 43.4913 14.75H16.5087C14.9063 14.75 13.5687 14.7499 12.476 14.8392C11.3803 14.9287 10.349 15.1183 9.37195 15.5909C9.48474 14.2792 9.68984 13.5162 9.98571 12.9356C10.6329 11.6655 11.6655 10.6329 12.9356 9.98571C13.5281 9.68379 14.3104 9.4764 15.672 9.36515C17.0599 9.25175 18.8426 9.25 21.4 9.25H38.6C41.1574 9.25 42.9401 9.25175 44.328 9.36515C45.6896 9.4764 46.4719 9.68379 47.0644 9.98571C48.3345 10.6329 49.3671 11.6655 50.0143 12.9356ZM15.672 50.6349C17.0599 50.7482 18.8426 50.75 21.4 50.75H38.6C41.1574 50.75 42.9401 50.7482 44.328 50.6349C45.6896 50.5236 46.4719 50.3162 47.0644 50.0143C48.3345 49.3671 49.3671 48.3345 50.0143 47.0644C50.3162 46.4719 50.5236 45.6896 50.6349 44.328C50.7482 42.9401 50.75 41.1574 50.75 38.6V26.4796C50.7499 24.8286 50.7465 23.7092 50.6757 22.8424C50.6054 21.9811 50.4797 21.5692 50.3413 21.2975C49.9818 20.5919 49.4081 20.0183 48.7025 19.6587C48.4308 19.5203 48.0189 19.3947 47.1576 19.3243C46.2699 19.2518 45.1173 19.25 43.4 19.25H16.6C14.8827 19.25 13.7301 19.2518 12.8424 19.3243C11.9811 19.3947 11.5692 19.5203 11.2975 19.6587C10.5919 20.0183 10.0183 20.5919 9.65873 21.2975C9.5203 21.5692 9.39465 21.9811 9.32428 22.8424C9.25175 23.7301 9.25 24.8827 9.25 26.6V38.7105C9.25008 41.2088 9.25339 42.9601 9.36515 44.328C9.4764 45.6896 9.68379 46.4719 9.98571 47.0644C10.6329 48.3345 11.6655 49.3671 12.9356 50.0143C13.5281 50.3162 14.3104 50.5236 15.672 50.6349Z"
  />
</svg>
