<svg
  width="60"
  height="60"
  viewBox="0 0 60 60"
  fill="currentColor"
  xmlns="http://www.w3.org/2000/svg"
>
  <path
    d="M0 18.7826C0 12.2081 0 8.92081 1.27949 6.40968C2.40496 4.20082 4.20082 2.40496 6.40968 1.27949C8.92081 0 12.2081 0 18.7826 0H41.2174C47.7919 0 51.0792 0 53.5903 1.27949C55.7992 2.40496 57.595 4.20082 58.7205 6.40968C60 8.92081 60 12.2081 60 18.7826V41.2174C60 47.7919 60 51.0792 58.7205 53.5903C57.595 55.7992 55.7992 57.595 53.5903 58.7205C51.0792 60 47.7919 60 41.2174 60H18.7826C12.2081 60 8.92081 60 6.40968 58.7205C4.20082 57.595 2.40496 55.7992 1.27949 53.5903C0 51.0792 0 47.7919 0 41.2174V18.7826Z"
    fill="#EB7E26"
    fill-opacity="0.08"
  />
  <path
    fill-rule="evenodd"
    clip-rule="evenodd"
    d="M13 21.5C13 20.1193 14.2018 19 15.6842 19H44.3158C45.7982 19 47 20.1193 47 21.5C47 22.8807 45.7982 24 44.3158 24H15.6842C14.2018 24 13 22.8807 13 21.5Z"
    fill="#EB7E26"
  />
  <path
    fill-rule="evenodd"
    clip-rule="evenodd"
    d="M13 38.5C13 37.1193 14.2088 36 15.7 36H37.3C38.7912 36 40 37.1193 40 38.5C40 39.8807 38.7912 41 37.3 41H15.7C14.2088 41 13 39.8807 13 38.5Z"
    fill="#EB7E26"
  />
</svg>
