<svg
  width="60"
  height="60"
  viewBox="0 0 60 60"
  fill="currentColor"
  xmlns="http://www.w3.org/2000/svg"
>
  <path
    d="M5 20.6522C5 15.1734 5 12.434 6.06624 10.3414C7.00413 8.50068 8.50068 7.00413 10.3414 6.06624C12.434 5 15.1734 5 20.6522 5H39.3478C44.8266 5 47.566 5 49.6586 6.06624C51.4993 7.00413 52.9959 8.50068 53.9338 10.3414C55 12.434 55 15.1734 55 20.6522V39.3478C55 44.8266 55 47.566 53.9338 49.6586C52.9959 51.4993 51.4993 52.9959 49.6586 53.9338C47.566 55 44.8266 55 39.3478 55H20.6522C15.1734 55 12.434 55 10.3414 53.9338C8.50068 52.9959 7.00413 51.4993 6.06624 49.6586C5 47.566 5 44.8266 5 39.3478V20.6522Z"
    fill="#EB7E26"
  />
  <path
    fill-rule="evenodd"
    clip-rule="evenodd"
    d="M15.75 23C15.75 21.7574 16.7574 20.75 18 20.75H42C43.2426 20.75 44.25 21.7574 44.25 23C44.25 24.2426 43.2426 25.25 42 25.25H18C16.7574 25.25 15.75 24.2426 15.75 23Z"
    fill="white"
  />
  <path
    fill-rule="evenodd"
    clip-rule="evenodd"
    d="M15.75 37C15.75 35.7574 16.7574 34.75 18 34.75H36C37.2426 34.75 38.25 35.7574 38.25 37C38.25 38.2426 37.2426 39.25 36 39.25H18C16.7574 39.25 15.75 38.2426 15.75 37Z"
    fill="white"
  />
</svg>
