<svg
  width="60"
  height="60"
  viewBox="0 0 60 60"
  fill="currentColor"
  xmlns="http://www.w3.org/2000/svg"
>
  <path
    d="M20 31.75C18.7574 31.75 17.75 32.7574 17.75 34C17.75 35.2426 18.7574 36.25 20 36.25H40C41.2426 36.25 42.25 35.2426 42.25 34C42.25 32.7574 41.2426 31.75 40 31.75H20Z"
  />
  <path
    d="M17.75 44C17.75 42.7574 18.7574 41.75 20 41.75H29C30.2426 41.75 31.25 42.7574 31.25 44C31.25 45.2426 30.2426 46.25 29 46.25H20C18.7574 46.25 17.75 45.2426 17.75 44Z"
  />
  <path
    fill-rule="evenodd"
    clip-rule="evenodd"
    d="M37.9458 2.97526C36.996 2.74861 36.0136 2.74918 34.7657 2.7499L19.6066 2.74998C17.7258 2.74995 16.1786 2.74993 14.9192 2.85282C13.6128 2.95956 12.4193 3.18814 11.3006 3.75817C9.56009 4.645 8.14502 6.06007 7.25819 7.80057C6.68816 8.91931 6.45958 10.1128 6.35284 11.4192C6.24995 12.6785 6.24997 14.2258 6.25 16.1066V43.8934C6.24997 45.7742 6.24995 47.3214 6.35284 48.5808C6.45958 49.8872 6.68816 51.0807 7.25819 52.1994C8.14502 53.9399 9.56009 55.355 11.3006 56.2418C12.4193 56.8118 13.6128 57.0404 14.9192 57.1471C16.1785 57.25 17.7256 57.25 19.6063 57.25H40.3935C42.2742 57.25 43.8216 57.25 45.0809 57.1471C46.3873 57.0404 47.5807 56.8118 48.6995 56.2418C50.44 55.355 51.855 53.9399 52.7419 52.1994C53.3119 51.0807 53.5405 49.8872 53.6472 48.5808C53.7501 47.3215 53.7501 45.7744 53.7501 43.8937L53.7502 21.6637C53.7509 20.3999 53.7515 19.4051 53.5194 18.4445C53.315 17.598 52.9777 16.7892 52.5203 16.0482C52.0012 15.2072 51.2942 14.5075 50.3959 13.6186L42.7365 6.02992C41.8506 5.15109 41.1531 4.45928 40.3188 3.95174C39.5836 3.50447 38.7829 3.17499 37.9458 2.97526ZM34.75 7.25007C34.6854 7.25001 34.6186 7.24998 34.5497 7.24998H19.7C17.7027 7.24998 16.34 7.25173 15.2856 7.33788C14.2575 7.42188 13.7222 7.57477 13.3435 7.7677C12.4498 8.2231 11.7231 8.94975 11.2677 9.84352C11.0748 10.2222 10.9219 10.7575 10.8379 11.7856C10.7518 12.84 10.75 14.2027 10.75 16.2V43.8C10.75 45.7973 10.7518 47.16 10.8379 48.2143C10.9219 49.2425 11.0748 49.7778 11.2677 50.1564C11.7231 51.0502 12.4498 51.7769 13.3435 52.2323C13.7222 52.4252 14.2575 52.5781 15.2856 52.6621C16.34 52.7482 17.7027 52.75 19.7 52.75H40.3001C42.2974 52.75 43.66 52.7482 44.7144 52.6621C45.7426 52.5781 46.2779 52.4252 46.6565 52.2323C47.5503 51.7769 48.277 51.0502 48.7323 50.1564C48.9253 49.7778 49.0782 49.2425 49.1622 48.2143C49.2483 47.16 49.2501 45.7973 49.2501 43.8V22.25L43.3154 22.25C42.2676 22.25 41.3491 22.2501 40.5896 22.188C39.7834 22.1222 38.9604 21.9753 38.1626 21.5688C36.9865 20.9696 36.0304 20.0134 35.4312 18.8374C35.0247 18.0396 34.8778 17.2166 34.812 16.4104C34.7499 15.6509 34.75 14.7323 34.75 13.6845L34.75 7.25007ZM48.1516 17.75C47.9154 17.4999 47.5784 17.1619 47.0731 16.6613L39.7227 9.3787C39.5459 9.20349 39.3894 9.04897 39.25 8.91219V13.6C39.25 14.7572 39.2518 15.4898 39.297 16.044C39.3402 16.5718 39.4113 16.7367 39.4407 16.7945C39.6085 17.1238 39.8762 17.3915 40.2055 17.5593C40.2633 17.5887 40.4282 17.6598 40.956 17.703C41.5102 17.7482 42.2428 17.75 43.4 17.75H48.1516Z"
  />
</svg>
