<svg
  width="60"
  height="60"
  viewBox="0 0 60 60"
  fill="currentColor"
  xmlns="http://www.w3.org/2000/svg"
>
  <path
    fill-rule="evenodd"
    clip-rule="evenodd"
    d="M4.75 12C4.75 10.7574 5.75736 9.75 7 9.75H53C54.2426 9.75 55.25 10.7574 55.25 12C55.25 13.2426 54.2426 14.25 53 14.25H7C5.75736 14.25 4.75 13.2426 4.75 12ZM11.75 30C11.75 28.7574 12.7574 27.75 14 27.75H46C47.2426 27.75 48.25 28.7574 48.25 30C48.25 31.2426 47.2426 32.25 46 32.25H14C12.7574 32.25 11.75 31.2426 11.75 30ZM18.75 49C18.75 47.7574 19.7574 46.75 21 46.75H39C40.2426 46.75 41.25 47.7574 41.25 49C41.25 50.2426 40.2426 51.25 39 51.25H21C19.7574 51.25 18.75 50.2426 18.75 49Z"
  />
</svg>
