<svg xmlns="http://www.w3.org/2000/svg" width="18" height="18" viewBox="0 0 18 18" fill="none">
  <path d="M10.3464 3.43371C9.78561 2.37528 9.15408 1.67319 8.5736 1.29656C8.28981 1.11242 7.97072 0.975646 7.64906 0.961536C7.30624 0.946499 6.8789 1.08508 6.68311 1.52565C5.99423 3.07585 5.55572 4.02308 4.70453 5.27304C4.26206 5.9228 3.67105 6.7953 3.19285 7.76626C2.71671 8.73301 2.32495 9.85041 2.32495 10.9952C2.32495 13.0361 3.21507 14.6012 4.50809 15.6414C5.78499 16.6687 7.43892 17.1748 8.99995 17.1748C10.561 17.1748 12.2149 16.6687 13.4918 15.6414C14.7848 14.6012 15.675 13.0361 15.675 10.9952C15.675 8.84099 15.1086 7.32515 13.9167 5.48304C13.7051 5.15603 13.4843 4.86791 13.2399 4.69936C13.1099 4.6097 12.9066 4.50726 12.652 4.52253C12.3761 4.53908 12.1778 4.68414 12.0577 4.82404C11.9478 4.95202 11.8844 5.0945 11.8459 5.19876C11.805 5.30962 11.775 5.42587 11.7514 5.5323C11.7169 5.68846 11.6868 5.87139 11.6594 6.0371C11.6509 6.08892 11.6426 6.13906 11.6346 6.18617C11.5688 6.57159 11.4913 6.87652 11.4063 7.07119C11.3185 7.0161 11.2606 6.94696 11.2126 6.86348C11.1184 6.69979 11.0521 6.46028 10.9944 6.09553C10.9753 5.97449 10.9578 5.83852 10.9389 5.69141C10.8559 5.0461 10.7453 4.18653 10.3464 3.43371Z" fill="black" fill-opacity="0.96"/>
  <path d="M10.3464 3.43371C9.78561 2.37528 9.15408 1.67319 8.5736 1.29656C8.28981 1.11242 7.97072 0.975646 7.64906 0.961536C7.30624 0.946499 6.8789 1.08508 6.68311 1.52565C5.99423 3.07585 5.55572 4.02308 4.70453 5.27304C4.26206 5.9228 3.67105 6.7953 3.19285 7.76626C2.71671 8.73301 2.32495 9.85041 2.32495 10.9952C2.32495 13.0361 3.21507 14.6012 4.50809 15.6414C5.78499 16.6687 7.43892 17.1748 8.99995 17.1748C10.561 17.1748 12.2149 16.6687 13.4918 15.6414C14.7848 14.6012 15.675 13.0361 15.675 10.9952C15.675 8.84099 15.1086 7.32515 13.9167 5.48304C13.7051 5.15603 13.4843 4.86791 13.2399 4.69936C13.1099 4.6097 12.9066 4.50726 12.652 4.52253C12.3761 4.53908 12.1778 4.68414 12.0577 4.82404C11.9478 4.95202 11.8844 5.0945 11.8459 5.19876C11.805 5.30962 11.775 5.42587 11.7514 5.5323C11.7169 5.68846 11.6868 5.87139 11.6594 6.0371C11.6509 6.08892 11.6426 6.13906 11.6346 6.18617C11.5688 6.57159 11.4913 6.87652 11.4063 7.07119C11.3185 7.0161 11.2606 6.94696 11.2126 6.86348C11.1184 6.69979 11.0521 6.46028 10.9944 6.09553C10.9753 5.97449 10.9578 5.83852 10.9389 5.69141C10.8559 5.0461 10.7453 4.18653 10.3464 3.43371Z" fill="url(#paint0_linear_16954_51610)"/>
  <path d="M10.0653 9.80769C10.0065 9.7631 9.91786 9.64958 9.82543 9.39666C9.73569 9.15111 9.67147 8.85937 9.60304 8.53157L9.58917 8.46491C9.52994 8.17979 9.46059 7.84597 9.36026 7.57757C9.27154 7.34026 9.03971 6.81796 8.45866 6.73786C7.90574 6.66164 7.39442 6.85627 6.98284 7.12896C6.56858 7.40343 6.2023 7.78991 5.90482 8.20521C5.60559 8.62296 5.35812 9.09472 5.19405 9.56305C5.03285 10.0232 4.93632 10.5255 4.98821 10.9903C5.09499 11.9467 5.32399 12.6705 5.71192 13.2506C6.10106 13.8325 6.60978 14.2084 7.15701 14.5315C8.40866 15.2704 10.1582 15.2426 11.5975 14.379C11.9079 14.1927 12.1451 13.9112 12.3218 13.632C12.5023 13.3468 12.6451 13.0237 12.7509 12.7044C12.9521 12.0976 13.0644 11.3648 12.9376 10.8292C12.8831 10.5987 12.7602 10.4004 12.5792 10.2537C12.4104 10.117 12.2234 10.0508 12.0703 10.0155C11.7932 9.95164 11.47 9.95779 11.2319 9.96232L11.1973 9.96297C10.9253 9.96809 10.6961 9.97239 10.4848 9.94595C10.2744 9.9196 10.1461 9.86894 10.0653 9.80769Z" fill="black" fill-opacity="0.96"/>
  <path d="M10.0653 9.80769C10.0065 9.7631 9.91786 9.64958 9.82543 9.39666C9.73569 9.15111 9.67147 8.85937 9.60304 8.53157L9.58917 8.46491C9.52994 8.17979 9.46059 7.84597 9.36026 7.57757C9.27154 7.34026 9.03971 6.81796 8.45866 6.73786C7.90574 6.66164 7.39442 6.85627 6.98284 7.12896C6.56858 7.40343 6.2023 7.78991 5.90482 8.20521C5.60559 8.62296 5.35812 9.09472 5.19405 9.56305C5.03285 10.0232 4.93632 10.5255 4.98821 10.9903C5.09499 11.9467 5.32399 12.6705 5.71192 13.2506C6.10106 13.8325 6.60978 14.2084 7.15701 14.5315C8.40866 15.2704 10.1582 15.2426 11.5975 14.379C11.9079 14.1927 12.1451 13.9112 12.3218 13.632C12.5023 13.3468 12.6451 13.0237 12.7509 12.7044C12.9521 12.0976 13.0644 11.3648 12.9376 10.8292C12.8831 10.5987 12.7602 10.4004 12.5792 10.2537C12.4104 10.117 12.2234 10.0508 12.0703 10.0155C11.7932 9.95164 11.47 9.95779 11.2319 9.96232L11.1973 9.96297C10.9253 9.96809 10.6961 9.97239 10.4848 9.94595C10.2744 9.9196 10.1461 9.86894 10.0653 9.80769Z" fill="url(#paint1_linear_16954_51610)"/>
  <defs>
    <linearGradient id="paint0_linear_16954_51610" x1="8.99995" y1="0.960449" x2="8.99995" y2="17.1748" gradientUnits="userSpaceOnUse">
      <stop stop-color="#ED6557"/>
      <stop offset="1" stop-color="#E55749"/>
    </linearGradient>
    <linearGradient id="paint1_linear_16954_51610" x1="8.9827" y1="6.72119" x2="8.9827" y2="15.0581" gradientUnits="userSpaceOnUse">
      <stop stop-color="#FFF2DB"/>
      <stop offset="1" stop-color="#F4BF00"/>
    </linearGradient>
  </defs>
</svg>