<svg
  width="60"
  height="60"
  viewBox="0 0 60 60"
  fill="currentColor"
  xmlns="http://www.w3.org/2000/svg"
>
  <path
    fill-rule="evenodd"
    clip-rule="evenodd"
    d="M22 5.75C15.7868 5.75 10.75 10.7868 10.75 17V55C10.75 56.2426 11.7574 57.25 13 57.25C14.2426 57.25 15.25 56.2426 15.25 55L15.25 41.25H50.1774C53.962 41.25 55.859 36.6758 53.1851 33.9974L45.3505 26.1494C43.889 24.6854 43.889 22.3146 45.3505 20.8506L53.1851 13.0026C55.859 10.3243 53.962 5.75 50.1774 5.75H22ZM15.25 36.75H49.5745L42.1658 29.3287C38.9506 26.108 38.9506 20.892 42.1658 17.6713L49.5745 10.25H22C18.2721 10.25 15.25 13.2721 15.25 17V36.75Z"
  />
</svg>
