<svg
  width="60"
  height="60"
  viewBox="0 0 60 60"
  fill="currentColor"
  xmlns="http://www.w3.org/2000/svg"
>
  <path
    fill-rule="evenodd"
    clip-rule="evenodd"
    d="M14.8615 25.5164C13.9681 22.1822 15.9468 18.7551 19.2809 17.8618C22.6151 16.9684 26.0422 18.947 26.9356 22.2812C27.829 25.6153 25.8503 29.0424 22.5162 29.9358C19.182 30.8292 15.7549 28.8506 14.8615 25.5164ZM20.4456 22.2084C19.5121 22.4586 18.958 23.4182 19.2082 24.3517C19.4583 25.2853 20.4179 25.8393 21.3515 25.5892C22.2851 25.339 22.8391 24.3794 22.5889 23.4459C22.3388 22.5123 21.3792 21.9583 20.4456 22.2084Z"
  />
  <path
    fill-rule="evenodd"
    clip-rule="evenodd"
    d="M16.354 11.4498C16.4005 11.4065 16.4473 11.3636 16.4946 11.321C17.6061 10.3202 18.9242 9.67397 20.4735 9.12011C21.9783 8.58219 23.8782 8.07315 26.2336 7.44203L33.3743 5.52868C35.7297 4.89752 37.6296 4.38845 39.2017 4.10192C40.8204 3.8069 42.285 3.70753 43.748 4.01849C46.0719 4.51244 48.1797 5.7294 49.7694 7.49494C50.7702 8.60644 51.4164 9.92451 51.9703 11.4739C52.5082 12.9787 53.0173 14.8785 53.6484 17.234L56.0794 26.3065C56.7105 28.6619 57.2196 30.5617 57.5061 32.1339C57.8011 33.7526 57.9005 35.2172 57.5895 36.6802C57.0956 39.004 55.8786 41.1119 54.1131 42.7016C53.0016 43.7024 51.6835 44.3486 50.1342 44.9025C48.6294 45.4404 46.7296 45.9494 44.3743 46.5805L43.8501 46.721C43.5491 47.7878 43.264 48.727 42.9704 49.5485C42.4165 51.0978 41.7702 52.4159 40.7694 53.5274C39.1798 55.293 37.0719 56.5099 34.7481 57.0039C33.2851 57.3148 31.8205 57.2154 30.2018 56.9204C28.6296 56.6339 26.7298 56.1248 24.3744 55.4937L17.2337 53.5803C14.8783 52.9492 12.9784 52.4402 11.4736 51.9022C9.92427 51.3484 8.60619 50.7021 7.49469 49.7013C5.72915 48.1116 4.5122 46.0038 4.01825 43.68C3.70728 42.217 3.80666 40.7524 4.10168 39.1337C4.3882 37.5615 4.89727 35.6618 5.52841 33.3064L7.95945 24.2336C8.59055 21.8782 9.09959 19.9784 9.63751 18.4736C10.1914 16.9243 10.8376 15.6062 11.8384 14.4947C13.0768 13.1194 14.6296 12.0769 16.354 11.4498ZM34.446 9.90028C36.9162 9.23838 38.6386 8.77868 40.0086 8.52899C41.3526 8.28404 42.1619 8.28189 42.8124 8.42016C44.2067 8.71653 45.4714 9.4467 46.4252 10.506C46.8702 11.0002 47.273 11.7022 47.7329 12.9886C48.2016 14.2999 48.6647 16.0214 49.3266 18.4916L51.7424 27.5073C52.3857 29.9086 52.8337 31.5948 53.079 32.9407C53.324 34.2848 53.3261 35.0941 53.1879 35.7446C52.8915 37.1389 52.1613 38.4036 51.102 39.3574C50.6078 39.8024 49.9058 40.2052 48.6194 40.6651C47.715 40.9884 46.6155 41.309 45.2098 41.694L47.0828 34.7039C47.7124 32.3541 48.2202 30.458 48.5063 28.8886C48.8013 27.2699 48.9007 25.8053 48.5897 24.3423C48.3427 23.1804 47.915 22.0724 47.3283 21.0563C46.7417 20.0401 45.996 19.1158 45.1133 18.3209C45.1132 18.3209 45.1133 18.3209 45.1133 18.3209C44.0018 17.3201 42.6836 16.6738 41.1342 16.1199C39.6295 15.582 37.7297 15.0729 35.3743 14.4418L28.2334 12.5284C27.6008 12.3589 27.001 12.1982 26.4316 12.0482C26.7688 11.9574 27.1217 11.8628 27.4913 11.7638L34.446 9.90028ZM18.2188 15.5693C17.0536 15.9268 16.0031 16.5945 15.1826 17.5058C14.7376 18 14.3348 18.702 13.8749 19.9884C13.4062 21.2997 12.9431 23.0212 12.2812 25.4914L9.90003 34.3779C9.23814 36.8481 8.77843 38.5706 8.52875 39.9405C8.28379 41.2845 8.28165 42.0939 8.41991 42.7444C8.71628 44.1387 9.44645 45.4034 10.5058 46.3572C11 46.8022 11.702 47.205 12.9884 47.6648C14.2996 48.1336 16.0212 48.5967 18.4914 49.2586L25.446 51.1221C27.9163 51.784 29.6387 52.2437 31.0086 52.4934C32.3527 52.7383 33.162 52.7405 33.8125 52.6022C35.2068 52.3058 36.4715 51.5756 37.4253 50.5163C37.8703 50.0221 38.2731 49.3201 38.733 48.0337C39.2017 46.7225 39.6648 45.0009 40.3267 42.5307L42.7078 33.6442C43.3697 31.174 43.8294 29.4516 44.0791 28.0816C44.3241 26.7376 44.3262 25.9283 44.188 25.2778C44.0658 24.703 43.8699 24.1503 43.6077 23.6323C43.2337 22.8937 42.7248 22.2257 42.1022 21.6651C41.608 21.2201 40.906 20.8173 39.6196 20.3574C38.3083 19.8887 36.5868 19.4256 34.1166 18.7637L27.1619 16.9002C24.6917 16.2383 22.9693 15.7786 21.5993 15.5289C20.2553 15.2839 19.446 15.2818 18.7955 15.4201C18.6006 15.4615 18.4081 15.5113 18.2188 15.5693Z"
  />
</svg>
