<svg
  xmlns="http://www.w3.org/2000/svg"
  width="24"
  height="24"
  viewBox="0 0 24 24"
  fill="currentColor"
>
  <path
    d="M12.8801 4.3002C13.7613 4.30019 14.4763 4.29939 15.0551 4.34668C15.6443 4.39482 16.1711 4.49727 16.6613 4.74707C17.4328 5.14015 18.06 5.7674 18.4531 6.53887C18.7029 7.02913 18.8054 7.55587 18.8535 8.14512C18.889 8.5792 18.8972 9.09 18.8992 9.69004L18.9 10.3201V16.8803C18.9 17.7615 18.9008 18.4765 18.8535 19.0553C18.8054 19.6445 18.7029 20.1713 18.4531 20.6615C18.06 21.433 17.4328 22.0602 16.6613 22.4533C16.1711 22.7031 15.6443 22.8056 15.0551 22.8537C14.4763 22.901 13.7613 22.9002 12.8801 22.9002H7.51992C6.63873 22.9002 5.92366 22.901 5.34492 22.8537C4.75568 22.8056 4.22894 22.7031 3.73867 22.4533C2.96721 22.0602 2.33996 21.433 1.94688 20.6615C1.69708 20.1713 1.59463 19.6445 1.54649 19.0553C1.4992 18.4765 1.5 17.7615 1.5 16.8803V10.3201C1.5 9.43892 1.4992 8.72386 1.54649 8.14512C1.59463 7.55587 1.69708 7.02913 1.94688 6.53887C2.33996 5.7674 2.96721 5.14015 3.73867 4.74707C4.22894 4.49727 4.75568 4.39482 5.34492 4.34668C5.92366 4.29939 6.63873 4.3002 7.51992 4.3002H12.8801ZM7.51992 6.10019C6.60903 6.10019 5.97985 6.10091 5.49141 6.14082C5.01354 6.17987 4.75008 6.25202 4.55586 6.35098C4.1231 6.57148 3.77129 6.92329 3.55078 7.35605C3.45182 7.55027 3.37968 7.81373 3.34063 8.2916C3.30072 8.78004 3.3 9.40922 3.3 10.3201V16.8803C3.3 17.7912 3.30072 18.4203 3.34063 18.9088C3.37968 19.3867 3.45182 19.6501 3.55078 19.8443C3.77129 20.2771 4.1231 20.6289 4.55586 20.8494C4.75008 20.9484 5.01354 21.0205 5.49141 21.0596C5.97985 21.0995 6.60903 21.1002 7.51992 21.1002H12.8801C13.791 21.1002 14.4202 21.0995 14.9086 21.0596C15.3865 21.0205 15.6499 20.9484 15.8441 20.8494C16.2769 20.6289 16.6287 20.2771 16.8492 19.8443C16.9482 19.6501 17.0203 19.3867 17.0594 18.9088C17.0993 18.4203 17.1 17.7912 17.1 16.8803V10.3201L17.0992 9.68769C17.0972 9.10354 17.0893 8.65796 17.0594 8.2916C17.0203 7.81373 16.9482 7.55027 16.8492 7.35605C16.6287 6.92329 16.2769 6.57148 15.8441 6.35098C15.6499 6.25202 15.3865 6.17987 14.9086 6.14082C14.4202 6.10091 13.791 6.10019 12.8801 6.10019H7.51992ZM12 0.700195C13.6653 0.700196 14.9684 0.699528 16.0141 0.784961C17.0702 0.871249 17.9427 1.04979 18.7324 1.45215C20.0307 2.11367 21.0865 3.16946 21.7481 4.46777C22.1504 5.25749 22.329 6.13002 22.4152 7.18613C22.5007 8.23179 22.5 9.53489 22.5 11.2002V16.8002C22.5 17.2973 22.0971 17.7002 21.6 17.7002C21.1029 17.7002 20.7 17.2973 20.7 16.8002V11.2002C20.7 9.50519 20.6992 8.28798 20.6211 7.33262C20.5439 6.38787 20.3957 5.77864 20.1441 5.28496C19.6552 4.32533 18.8749 3.54501 17.9152 3.05605C17.4216 2.80453 16.8123 2.6563 15.8676 2.5791C14.9122 2.50105 13.695 2.5002 12 2.5002H8.8C8.30295 2.50019 7.9 2.09725 7.9 1.6002C7.9 1.10314 8.30295 0.700196 8.8 0.700195H12ZM7.2 7.5002C8.58071 7.5002 9.7 8.61948 9.7 10.0002C9.7 11.3809 8.58071 12.5002 7.2 12.5002C5.81929 12.5002 4.7 11.3809 4.7 10.0002C4.7 8.61948 5.81929 7.5002 7.2 7.5002ZM7.2 9.30019C6.8134 9.30019 6.5 9.6136 6.5 10.0002C6.5 10.3868 6.8134 10.7002 7.2 10.7002C7.5866 10.7002 7.9 10.3868 7.9 10.0002C7.9 9.6136 7.5866 9.30019 7.2 9.30019Z"
  />
</svg>
