<svg
  width="60"
  height="60"
  viewBox="0 0 60 60"
  fill="currentColor"
  xmlns="http://www.w3.org/2000/svg"
>
  <path
    fill-rule="evenodd"
    clip-rule="evenodd"
    d="M32.8377 8.42604C31.3911 7.05501 29.1248 7.05501 27.6783 8.42604C27.6259 8.47571 27.5565 8.54693 27.3134 8.79921C27.1668 8.95137 27.1166 9.00363 27.0709 9.05318C25.955 10.2629 25.3194 11.8386 25.2838 13.484C25.2823 13.5514 25.2822 13.6239 25.2822 13.8351V18.9623C25.2822 19.0166 25.2825 19.0731 25.2827 19.1317C25.2857 19.7312 25.2896 20.5414 25.0084 21.2865C24.7666 21.9273 24.3734 22.5002 23.8624 22.9564C23.2682 23.4867 22.5109 23.7744 21.9504 23.9873C21.8957 24.0081 21.8428 24.0281 21.7921 24.0477L10.0374 28.578C9.32593 28.8522 9.20566 28.9057 9.12366 28.9531C8.66681 29.2174 8.35362 29.6737 8.27132 30.1951C8.25655 30.2886 8.24992 30.4201 8.24992 31.1825C8.24992 32.6567 8.26836 32.9496 8.30386 33.0892C8.5161 33.9242 9.30443 34.4804 10.1622 34.4005C10.3057 34.3872 10.5878 34.3064 11.9767 33.8123L18.0847 31.6393C18.7353 31.4077 19.358 31.1861 19.8894 31.0494C20.4517 30.9047 21.1964 30.7734 22.0093 30.9655C23.0771 31.2177 24.006 31.8732 24.6016 32.7947C25.055 33.4962 25.1809 34.2418 25.233 34.8201C25.2823 35.3666 25.2823 36.0275 25.2822 36.718L25.2822 41.6721C25.2822 41.7145 25.2824 41.7586 25.2825 41.8043C25.2844 42.2799 25.287 42.9237 25.1003 43.5411C24.9393 44.0737 24.6753 44.5694 24.3232 45.0003C23.9151 45.4997 23.3795 45.8569 22.9838 46.1208C22.9458 46.1461 22.9091 46.1706 22.8739 46.1943L20.3554 47.8883C19.45 48.4972 19.2896 48.6194 19.205 48.7059C18.7 49.2222 18.564 49.9956 18.8627 50.6532C18.9127 50.7633 19.0218 50.933 19.6652 51.8142C20.1155 52.4309 20.1988 52.5338 20.2655 52.6004C20.6511 52.9849 21.1936 53.168 21.7333 53.0959C21.8268 53.0834 21.9554 53.052 22.6873 52.8344L28.7047 51.0452C28.7276 51.0384 28.7514 51.0312 28.776 51.0239C29.0374 50.9455 29.3916 50.8393 29.7678 50.7956C30.0935 50.7578 30.4225 50.7578 30.7482 50.7956C31.1244 50.8393 31.4785 50.9455 31.74 51.0239C31.7646 51.0312 31.7884 51.0384 31.8113 51.0452L37.8287 52.8344C38.5606 53.052 38.6892 53.0834 38.7827 53.0959C39.3224 53.168 39.8649 52.9849 40.2504 52.6004C40.3172 52.5338 40.4005 52.4309 40.8508 51.8142C41.4941 50.933 41.6033 50.7633 41.6533 50.6532C41.9519 49.9956 41.8159 49.2222 41.311 48.7059C41.2264 48.6194 41.0659 48.4972 40.1606 47.8883L37.6421 46.1943C37.6069 46.1706 37.5702 46.1461 37.5322 46.1208C37.1365 45.8569 36.6008 45.4997 36.1927 45.0003C35.8407 44.5694 35.5767 44.0737 35.4157 43.5411C35.229 42.9237 35.2316 42.2799 35.2334 41.8043C35.2336 41.7586 35.2338 41.7145 35.2338 41.6721L35.2338 36.7652C35.2337 36.068 35.2336 35.4017 35.2834 34.8514C35.3359 34.2701 35.4627 33.5189 35.9212 32.814C36.5227 31.8894 37.46 31.2348 38.5352 30.9886C39.3549 30.801 40.1038 30.9407 40.6677 31.0916C41.2015 31.2344 41.827 31.464 42.4815 31.7042L48.0206 33.7364C49.394 34.2402 49.674 34.3238 49.8155 34.3388C50.6825 34.4306 51.4849 33.8703 51.6972 33.0248C51.7319 32.8868 51.7499 32.5951 51.7499 31.1322C51.7499 30.3903 51.7436 30.2626 51.7296 30.1713C51.6496 29.6512 51.3398 29.1947 50.886 28.9282C50.8064 28.8815 50.6899 28.8284 50.0005 28.5544L38.6708 24.0514C38.6209 24.0316 38.5689 24.0112 38.5149 23.99C37.9623 23.7735 37.2155 23.4808 36.6305 22.9509C36.1273 22.4951 35.7406 21.9253 35.5029 21.2893C35.2265 20.55 35.2304 19.7478 35.2332 19.1543C35.2335 19.0964 35.2338 19.0405 35.2338 18.9868V13.8351C35.2338 13.6239 35.2337 13.5514 35.2322 13.484C35.1966 11.8386 34.561 10.2629 33.445 9.05318C33.3993 9.00363 33.3491 8.95137 33.2026 8.79921C32.9595 8.54693 32.8901 8.47571 32.8377 8.42604ZM24.5827 5.15998C27.7651 2.14369 32.7509 2.1437 35.9333 5.15998C36.0702 5.28977 36.2168 5.442 36.4075 5.63999L36.4595 5.69392C36.5838 5.82294 36.6697 5.91207 36.7525 6.00188C38.6125 8.018 39.6718 10.6442 39.7312 13.3866C39.7338 13.5088 39.7338 13.6325 39.7338 13.8118V18.9868C39.7338 19.187 39.7338 19.3426 39.7356 19.4773C39.7363 19.5358 39.7374 19.5855 39.7387 19.6282C39.7778 19.6451 39.8237 19.6644 39.8777 19.6867C40.0022 19.7381 40.1469 19.7957 40.3329 19.8696L51.6626 24.3726C51.7007 24.3877 51.7386 24.4028 51.7763 24.4177C52.2826 24.6185 52.7477 24.803 53.1645 25.0477C54.7851 25.9993 55.8915 27.6296 56.1773 29.4871C56.2508 29.9648 56.2504 30.4652 56.25 31.0099C56.25 31.0504 56.2499 31.0912 56.2499 31.1322C56.2499 31.2187 56.25 31.3045 56.2501 31.3895C56.2514 32.4354 56.2525 33.3612 56.0617 34.1209C55.3033 37.1408 52.4376 39.1418 49.3413 38.8137C48.5624 38.7312 47.6936 38.4113 46.7121 38.0498C46.6324 38.0205 46.5519 37.9908 46.4706 37.961L41.011 35.958C40.428 35.7441 40.0391 35.6028 39.7486 35.5107C39.7351 35.8151 39.7338 36.2289 39.7338 36.8499V41.6721C39.7338 41.8314 39.7338 41.9543 39.735 42.0607C39.7355 42.1055 39.7362 42.1436 39.737 42.1763C39.7636 42.1952 39.7949 42.2171 39.8318 42.2425C39.9194 42.3028 40.0214 42.3714 40.1536 42.4604L42.6721 44.1543C42.7238 44.1891 42.7752 44.2236 42.8262 44.2578C43.4816 44.6977 44.0743 45.0955 44.5279 45.5593C46.3315 47.4032 46.8171 50.1655 45.7506 52.5139C45.4823 53.1047 45.0608 53.6808 44.5947 54.3179C44.5584 54.3674 44.5219 54.4173 44.4852 54.4677C44.4602 54.5018 44.4355 54.5358 44.4109 54.5695C44.081 55.0221 43.7782 55.4374 43.4282 55.7866C42.0513 57.1598 40.1137 57.8139 38.1862 57.5562C37.6962 57.4906 37.2037 57.3438 36.667 57.1838C36.627 57.1718 36.5867 57.1598 36.5461 57.1478L30.5287 55.3585C30.4419 55.3327 30.3756 55.313 30.3182 55.2964C30.2949 55.2896 30.275 55.2839 30.258 55.2792C30.2409 55.2839 30.2211 55.2896 30.1978 55.2964C30.1403 55.313 30.0741 55.3327 29.9872 55.3585L23.9698 57.1477C23.9293 57.1598 23.889 57.1718 23.849 57.1837C23.3123 57.3438 22.8198 57.4906 22.3297 57.5562C20.4023 57.8139 18.4647 57.1598 17.0878 55.7866C16.7377 55.4374 16.435 55.0222 16.1051 54.5696C16.0805 54.5358 16.0557 54.5018 16.0308 54.4677C15.994 54.4173 15.9575 54.3674 15.9213 54.3179C15.4552 53.6808 15.0337 53.1047 14.7654 52.5139C13.6989 50.1655 14.1845 47.4032 15.988 45.5593C16.4417 45.0955 17.0344 44.6977 17.6898 44.2578C17.7408 44.2236 17.7922 44.1891 17.8439 44.1543L20.3624 42.4604C20.4946 42.3714 20.5966 42.3028 20.6841 42.2425C20.7211 42.2171 20.7523 42.1952 20.779 42.1763C20.7798 42.1436 20.7805 42.1055 20.781 42.0607C20.7821 41.9543 20.7822 41.8314 20.7822 41.6721V36.8022C20.7822 36.1871 20.7809 35.7778 20.7675 35.4767C20.4794 35.565 20.0933 35.701 19.5138 35.9072L13.485 38.052C13.403 38.0812 13.3217 38.1102 13.2411 38.1389C12.2483 38.4935 11.3686 38.8077 10.5795 38.8812C7.51603 39.1665 4.70057 37.1798 3.94256 34.1979C3.74732 33.4298 3.74844 32.4957 3.74971 31.4414C3.74982 31.3559 3.74992 31.2696 3.74992 31.1825C3.74992 31.1403 3.74989 31.0984 3.74986 31.0568C3.74943 30.4972 3.74904 29.9832 3.82636 29.4934C4.12028 27.6315 5.2388 26.0017 6.87043 25.0579C7.29969 24.8096 7.77939 24.6251 8.30172 24.4242C8.3406 24.4093 8.37971 24.3943 8.41905 24.3791L20.1738 19.8487C20.3626 19.776 20.5094 19.7193 20.6358 19.6687C20.6908 19.6467 20.7374 19.6276 20.7772 19.6109C20.7785 19.5677 20.7796 19.5173 20.7804 19.4581C20.7821 19.3219 20.7822 19.1646 20.7822 18.9623V13.8117C20.7822 13.6325 20.7822 13.5088 20.7848 13.3866C20.8442 10.6442 21.9035 8.018 23.7634 6.00188C23.8463 5.9121 23.9321 5.823 24.0563 5.69405L24.1086 5.63985C24.2992 5.44192 24.4458 5.28974 24.5827 5.15998Z"
  />
</svg>
