<svg
  width="60"
  height="60"
  viewBox="0 0 60 60"
  fill="currentColor"
  xmlns="http://www.w3.org/2000/svg"
>
  <path
    fill-rule="evenodd"
    clip-rule="evenodd"
    d="M9 5C6.79086 5 5 6.79086 5 9V21C5 23.2091 6.79086 25 9 25H17C19.2091 25 21 23.2091 21 21V17H27.751L27.7497 41.3288C27.7496 44.7807 30.5478 47.5791 33.9997 47.5791L39 47.5791V51C39 53.2091 40.7909 55 43 55H51C53.2091 55 55 53.2091 55 51V39C55 36.7909 53.2091 35 51 35H43C40.7909 35 39 36.7909 39 39V43.0791L33.9997 43.0791C33.0332 43.0791 32.2497 42.2956 32.2497 41.329L32.251 17H39V21C39 23.2091 40.7909 25 43 25H51C53.2091 25 55 23.2091 55 21V9C55 6.79086 53.2091 5 51 5H43C40.7909 5 39 6.79086 39 9V12.5H21V9C21 6.79086 19.2091 5 17 5H9ZM9.5 9.5V20.5H16.5V9.5H9.5ZM43.5 9.5V20.5H50.5V9.5H43.5ZM43.5 50.5V39.5H50.5V50.5H43.5Z"
  />
</svg>
