<svg
  width="60"
  height="60"
  viewBox="0 0 60 60"
  fill="currentColor"
  xmlns="http://www.w3.org/2000/svg"
>
  <path
    fill-rule="evenodd"
    clip-rule="evenodd"
    d="M16.9999 23C21.9705 23 25.9999 18.9706 25.9999 14C25.9999 9.02944 21.9705 5 16.9999 5C12.0294 5 7.99992 9.02944 7.99992 14C7.99992 16.5746 9.08102 18.8968 10.814 20.5372L5.40944 33.0129C4.97446 34.017 4.75003 35.0996 4.75 36.1938C4.74984 42.8644 12.4315 46.6073 17.6846 42.4962L45.0887 21.0499C47.3879 19.2506 50.75 20.8887 50.75 23.8083C50.75 24.2875 50.6517 24.7617 50.4611 25.2014L45.2263 37.2775C44.5143 37.0963 43.7684 37 42.9999 37C38.0294 37 33.9999 41.0294 33.9999 46C33.9999 50.9706 38.0294 55 42.9999 55C47.9705 55 51.9999 50.9706 51.9999 46C51.9999 43.4246 50.9182 41.1019 49.1843 39.4613L54.5899 26.9911C55.0253 25.9865 55.25 24.9032 55.25 23.8083C55.25 17.1378 47.5684 13.3951 42.3153 17.5061L14.9113 38.9524C12.6121 40.7517 9.24993 39.1135 9.25 36.194C9.25001 35.715 9.34824 35.2412 9.53862 34.8017L14.7717 22.722C15.4843 22.9035 16.2308 23 16.9999 23ZM16.9999 18.5C19.4852 18.5 21.4999 16.4853 21.4999 14C21.4999 11.5147 19.4852 9.5 16.9999 9.5C14.5146 9.5 12.4999 11.5147 12.4999 14C12.4999 16.4853 14.5146 18.5 16.9999 18.5ZM42.9999 50.5C45.4852 50.5 47.4999 48.4853 47.4999 46C47.4999 43.5147 45.4852 41.5 42.9999 41.5C40.5146 41.5 38.4999 43.5147 38.4999 46C38.4999 48.4853 40.5146 50.5 42.9999 50.5Z"
  />
</svg>
