<svg
  width="60"
  height="60"
  viewBox="0 0 60 60"
  fill="currentColor"
  xmlns="http://www.w3.org/2000/svg"
>
  <path
    fill-rule="evenodd"
    clip-rule="evenodd"
    d="M44.7157 21.4171C45.5944 22.2957 47.019 22.2957 47.8977 21.4171L54.8536 14.4611C56.1322 13.1826 56.1322 11.1096 54.8536 9.831L47.8977 2.87508C47.019 1.99639 45.5944 1.99639 44.7157 2.87508C43.837 3.75375 43.837 5.17838 44.7157 6.05706L48.4083 9.74968L42.0003 9.75007C35.2349 9.75047 29.7508 15.2352 29.7511 22.0006L29.7517 37.5009C29.7518 41.7813 26.2819 45.2513 22.0015 45.2512L20.5153 45.2512C19.3943 42.1869 16.4526 39.9999 13 39.9999C8.58175 39.9999 5.00003 43.5816 5.00003 47.9999C5.00003 52.4182 8.58175 55.9999 13 55.9999C16.8167 55.9999 20.0091 53.3271 20.8078 49.7512L22.0015 49.7512C28.7672 49.7513 34.2519 44.2665 34.2517 37.5007L34.2511 22.0004C34.2509 17.7202 37.7204 14.2503 42.0006 14.2501L48.7011 14.2497L44.7157 18.2351C43.837 19.1138 43.837 20.5384 44.7157 21.4171ZM13 51.4999C14.933 51.4999 16.5 49.9329 16.5 47.9999C16.5 46.0669 14.933 44.4999 13 44.4999C11.067 44.4999 9.50003 46.0669 9.50003 47.9999C9.50003 49.9329 11.067 51.4999 13 51.4999Z"
  />
  <path
    d="M5.40902 5.40922C6.28771 4.53056 7.71235 4.53056 8.59104 5.40922L12.091 8.90912L15.5917 5.40852C16.4704 4.52985 17.8951 4.52985 18.7738 5.40852C19.6525 6.28718 19.6525 7.71178 18.7738 8.59045L15.2731 12.0911L18.7734 15.5913C19.6521 16.4699 19.6521 17.8945 18.7734 18.7732C17.8947 19.6519 16.47 19.6519 15.5914 18.7732L12.091 15.273L8.59143 18.7725C7.71274 19.6512 6.2881 19.6512 5.4094 18.7725C4.53071 17.8938 4.53071 16.4692 5.4094 15.5906L8.90901 12.0911L5.40902 8.59116C4.53033 7.71249 4.53033 6.28789 5.40902 5.40922Z"
  />
  <path
    d="M44.591 41.4092C43.7124 40.5306 42.2877 40.5306 41.409 41.4092C40.5303 42.2879 40.5303 43.7125 41.409 44.5912L44.909 48.0911L41.4094 51.5906C40.5307 52.4692 40.5307 53.8938 41.4094 54.7725C42.2881 55.6512 43.7127 55.6512 44.5914 54.7725L48.091 51.273L51.5914 54.7732C52.47 55.6519 53.8947 55.6519 54.7734 54.7732C55.6521 53.8945 55.6521 52.4699 54.7734 51.5913L51.2731 48.0911L54.7738 44.5905C55.6525 43.7118 55.6525 42.2872 54.7738 41.4085C53.8951 40.5298 52.4704 40.5298 51.5917 41.4085L48.091 44.9091L44.591 41.4092Z"
  />
</svg>
