<svg
  width="60"
  height="60"
  viewBox="0 0 60 60"
  fill="currentColor"
  xmlns="http://www.w3.org/2000/svg"
>
  <path
    fill-rule="evenodd"
    clip-rule="evenodd"
    d="M32 32.25V33C32 37.4183 28.4183 41 24 41H12C7.58172 41 4 37.4183 4 33V27C4 22.5817 7.58172 19 12 19H24C28.4183 19 32 22.5817 32 27V27.75H39.25V14C39.25 8.33908 43.8391 3.75 49.5 3.75H54.5C55.7426 3.75 56.75 4.75736 56.75 6C56.75 7.24264 55.7426 8.25 54.5 8.25H49.5C46.3244 8.25 43.75 10.8244 43.75 14V27.75H54.5C55.7426 27.75 56.75 28.7574 56.75 30C56.75 31.2426 55.7426 32.25 54.5 32.25H43.75V46C43.75 49.1756 46.3244 51.75 49.5 51.75H54.5C55.7426 51.75 56.75 52.7574 56.75 54C56.75 55.2426 55.7426 56.25 54.5 56.25H49.5C43.8391 56.25 39.25 51.6609 39.25 46V32.25H32ZM12 23.5H24C25.933 23.5 27.5 25.067 27.5 27V33C27.5 34.933 25.933 36.5 24 36.5H12C10.067 36.5 8.5 34.933 8.5 33V27C8.5 25.067 10.067 23.5 12 23.5Z"
  />
</svg>
