<svg
  width="60"
  height="60"
  viewBox="0 0 60 60"
  fill="currentColor"
  xmlns="http://www.w3.org/2000/svg"
>
  <path
    d="M16.3177 13.7815C15.3149 15.6947 13.3099 17 11 17C7.68629 17 5 14.3137 5 11C5 7.68629 7.68629 5 11 5C14.0735 5 16.6073 7.31102 16.9585 10.2902C25.7804 13.352 30.544 20.7394 31.1266 28.5H50.1716L46.909 25.2374C46.2256 24.554 46.2256 23.446 46.909 22.7626C47.5925 22.0791 48.7005 22.0791 49.3839 22.7626L54.8182 28.1969C55.8141 29.1927 55.8141 30.8073 54.8182 31.8031L49.3839 37.2374C48.7005 37.9209 47.5925 37.9209 46.909 37.2374C46.2256 36.554 46.2256 35.446 46.909 34.7626L49.6716 32H31.1067C30.4382 39.7523 25.6223 47.2541 16.7799 50.6158C16.0744 53.1447 13.7539 55 11 55C7.68629 55 5 52.3137 5 49C5 45.6863 7.68629 43 11 43C13.5736 43 15.7687 44.6203 16.6209 46.8964C23.3478 43.9036 26.972 38.0433 27.5916 32H16.6586C15.8349 34.3304 13.6124 36 11 36C7.68629 36 5 33.3137 5 30C5 26.6863 7.68629 24 11 24C13.7958 24 16.1449 25.9122 16.811 28.5H27.6153C27.0625 22.3047 23.3329 16.43 16.3177 13.7815Z"
  />
</svg>
