<svg
  width="60"
  height="60"
  viewBox="0 0 60 60"
  fill="currentColor"
  xmlns="http://www.w3.org/2000/svg"
>
  <path
    fill-rule="evenodd"
    clip-rule="evenodd"
    d="M14.75 30C14.75 37.6579 20.3945 43.9975 27.75 45.0852V45.4913C27.75 47.0938 27.75 48.4313 27.8392 49.524C27.9323 50.6637 28.1337 51.7336 28.6492 52.7454C29.4402 54.2978 30.7023 55.5599 32.2546 56.3508C33.2664 56.8663 34.3364 57.0677 35.476 57.1608C36.5687 57.2501 37.9061 57.25 39.5085 57.25H43.5C44.7426 57.25 45.75 56.2426 45.75 55C45.75 53.7574 44.7426 52.75 43.5 52.75H39.6C37.8827 52.75 36.7301 52.7483 35.8425 52.6757C34.9811 52.6054 34.5692 52.4797 34.2976 52.3413C33.5919 51.9818 33.0183 51.4081 32.6587 50.7025C32.5203 50.4308 32.3947 50.0189 32.3243 49.1576C32.2518 48.2699 32.25 47.1173 32.25 45.4V45.0852C39.6055 43.9975 45.25 37.6579 45.25 30V14.5087C45.25 12.9063 45.2501 11.5687 45.1608 10.476C45.0677 9.33634 44.8663 8.26637 44.3508 7.25458C43.5599 5.70224 42.2978 4.44015 40.7454 3.6492C39.7336 3.13366 38.6637 2.93233 37.524 2.83922C36.4313 2.74994 35.0938 2.74997 33.4914 2.75H26.5086C24.9062 2.74997 23.5687 2.74994 22.476 2.83922C21.3363 2.93233 20.2664 3.13366 19.2546 3.6492C17.7022 4.44015 16.4402 5.70224 15.6492 7.25458C15.1337 8.26637 14.9323 9.33634 14.8392 10.476C14.7499 11.5687 14.75 12.9062 14.75 14.5086L14.75 30ZM19.6307 32.8456C20.8781 37.4017 25.048 40.75 30 40.75C34.4996 40.75 38.3536 37.9855 39.956 34.0622C38.1583 34.3809 36.5872 34.4593 35.1576 34.3707C32.8359 34.2267 31.0066 33.6445 29.4393 33.1429L29.4373 33.1423C27.8497 32.6343 26.5685 32.2243 24.9923 32.12C23.6206 32.0293 21.929 32.1691 19.6307 32.8456ZM40.75 29.2929V26.25H33C31.7574 26.25 30.75 25.2426 30.75 24C30.75 22.7574 31.7574 21.75 33 21.75H40.75V17.25L30 17.25C28.7574 17.25 27.75 16.2426 27.75 15C27.75 13.7574 28.7574 12.75 30 12.75L40.7443 12.75C40.7366 11.9811 40.7185 11.3657 40.6757 10.8424C40.6054 9.98106 40.4797 9.56922 40.3413 9.29754C39.9818 8.59193 39.4081 8.01825 38.7025 7.65873C38.4308 7.5203 38.0189 7.39465 37.1576 7.32427C36.2699 7.25175 35.1173 7.25 33.4 7.25H26.6C24.8827 7.25 23.7301 7.25175 22.8424 7.32427C21.9811 7.39465 21.5692 7.5203 21.2975 7.65873C20.5919 8.01825 20.0183 8.59193 19.6587 9.29754C19.5203 9.56922 19.3947 9.98106 19.3243 10.8424C19.2518 11.7301 19.25 12.8827 19.25 14.6V28.2824C21.5766 27.6805 23.5296 27.5134 25.2892 27.6298C27.4209 27.7708 29.1565 28.327 30.6581 28.8081L30.8108 28.857C32.3685 29.3555 33.7266 29.7733 35.4361 29.8793C36.8218 29.9652 38.5186 29.8481 40.75 29.2929Z"
  />
</svg>
