<svg
  width="60"
  height="60"
  viewBox="0 0 60 60"
  fill="currentColor"
  xmlns="http://www.w3.org/2000/svg"
>
  <path
    fill-rule="evenodd"
    clip-rule="evenodd"
    d="M20.3339 11.25C21.3004 11.25 21.6316 11.2526 21.9381 11.283C23.2636 11.4144 24.5206 11.9351 25.5508 12.7794C25.789 12.9746 26.025 13.207 26.7084 13.8904L26.7822 13.9642C27.3446 14.5268 27.7333 14.9155 28.1524 15.2609C29.8186 16.634 31.8447 17.4986 33.9889 17.7515C34.5282 17.8151 35.0778 17.8268 35.8732 17.8436L40.8584 17.9496C43.3668 18.003 45.1141 18.0419 46.4737 18.1812C47.8067 18.3177 48.5729 18.5357 49.1537 18.8426C50.3966 19.4994 51.4035 20.5279 52.0337 21.7846C52.3282 22.3717 52.5298 23.1423 52.638 24.478C52.6695 24.8675 52.6922 25.2886 52.7085 25.75H7.25V23.1422C7.25 20.7082 7.25159 19.0115 7.35459 17.6885C7.4557 16.3898 7.64435 15.6406 7.91828 15.0717C8.5818 13.6937 9.69364 12.5818 11.0717 11.9183C11.6406 11.6444 12.3898 11.4557 13.6884 11.3546C15.0115 11.2516 16.7082 11.25 19.1421 11.25H20.3339ZM7.25 30.25V37.1C7.25 39.6574 7.25175 41.4401 7.36515 42.828C7.4764 44.1896 7.68379 44.9719 7.98571 45.5645C8.63285 46.8345 9.66547 47.8672 10.9356 48.5143C11.5281 48.8162 12.3104 49.0236 13.672 49.1349C15.0599 49.2483 16.8426 49.25 19.4 49.25H40.6C43.1574 49.25 44.9401 49.2483 46.328 49.1349C47.6896 49.0236 48.4719 48.8162 49.0644 48.5143C50.3345 47.8672 51.3671 46.8345 52.0143 45.5645C52.3162 44.9719 52.5236 44.1896 52.6349 42.828C52.7482 41.4401 52.75 39.6574 52.75 37.1V30.25H7.25ZM22.3821 6.80491C21.8266 6.74984 21.2606 6.74991 20.4414 6.75001L19.0505 6.75002C16.7296 6.75 14.8575 6.74998 13.3392 6.86818C11.7765 6.98984 10.4011 7.2467 9.11945 7.86381C6.82273 8.96967 4.96966 10.8227 3.86379 13.1195C3.24669 14.4011 2.98982 15.7765 2.86817 17.3392C2.74996 18.8575 2.74998 20.7296 2.75 23.0505V37.1963C2.74998 39.6348 2.74996 41.6017 2.88009 43.1944C3.01408 44.8343 3.29716 46.2748 3.97618 47.6074C5.05475 49.7242 6.77578 51.4453 8.89261 52.5238C10.2253 53.2029 11.6657 53.4859 13.3056 53.6199C14.8983 53.7501 16.8651 53.75 19.3036 53.75H40.6964C43.1348 53.75 45.1017 53.7501 46.6944 53.6199C48.3343 53.4859 49.7747 53.2029 51.1074 52.5238C53.2242 51.4453 54.9452 49.7242 56.0238 47.6074C56.7028 46.2748 56.9859 44.8343 57.1199 43.1944C57.25 41.6017 57.25 39.6349 57.25 37.1964V30.0018C57.25 27.6103 57.25 25.68 57.1233 24.1147C56.9927 22.502 56.7168 21.0844 56.0562 19.7672C55.0058 17.6728 53.3277 15.9586 51.2561 14.8639C49.9533 14.1755 48.5418 13.8695 46.9323 13.7046C45.37 13.5446 43.4403 13.5035 41.0493 13.4527L36.0731 13.3468C35.135 13.3268 34.8136 13.3176 34.5161 13.2825C33.2296 13.1307 32.0139 12.612 31.0142 11.7881C30.783 11.5976 30.5539 11.372 29.8904 10.7084L29.8144 10.6325C29.2352 10.0531 28.835 9.65281 28.4033 9.29901C26.6863 7.89174 24.5913 7.02395 22.3821 6.80491Z"
  />
</svg>
