<svg
  width="60"
  height="60"
  viewBox="0 0 60 60"
  fill="currentColor"
  xmlns="http://www.w3.org/2000/svg"
>
  <path
    d="M47.6157 38.9451C47.8966 38.3271 48.0371 38.0181 48.2317 37.9222C48.4009 37.8389 48.5991 37.8389 48.7683 37.9222C48.9629 38.0181 49.1034 38.3271 49.3843 38.9451L51.1566 42.8433L55.0549 44.6156C55.6728 44.8965 55.9818 45.037 56.0777 45.2317C56.161 45.4008 56.161 45.599 56.0777 45.7682C55.9818 45.9628 55.6728 46.1033 55.0549 46.3842L51.1566 48.1565L49.3843 52.0548C49.1034 52.6727 48.9629 52.9817 48.7683 53.0776C48.5991 53.1609 48.4009 53.1609 48.2317 53.0776C48.0371 52.9817 47.8966 52.6727 47.6157 52.0548L45.8434 48.1565L41.9451 46.3842C41.3272 46.1033 41.0182 45.9628 40.9223 45.7682C40.839 45.599 40.839 45.4008 40.9223 45.2317C41.0182 45.037 41.3272 44.8965 41.9451 44.6156L45.8434 42.8433L47.6157 38.9451Z"
  />
  <path
    fill-rule="evenodd"
    clip-rule="evenodd"
    d="M23.3901 11.3535C23.0188 11.2644 22.5982 11.2499 21.0236 11.2499H17.8C15.5227 11.2499 13.95 11.2517 12.7288 11.3514C11.534 11.4491 10.8752 11.6292 10.3896 11.8766C9.30762 12.4279 8.42799 13.3075 7.87671 14.3895C7.62929 14.8751 7.44915 15.5339 7.35152 16.7288C7.25175 17.9499 7.25 19.5226 7.25 21.7999V37.0999C7.25 39.6573 7.25175 41.44 7.36515 42.8279C7.4764 44.1895 7.68379 44.9718 7.98571 45.5644C8.63285 46.8344 9.66547 47.8671 10.9356 48.5142C11.5281 48.8161 12.3104 49.0235 13.672 49.1348C15.0599 49.2482 16.8426 49.2499 19.4 49.2499H38C39.2426 49.2499 40.25 50.2573 40.25 51.4999C40.25 52.7426 39.2426 53.7499 38 53.7499H19.3036C16.8651 53.7499 14.8983 53.75 13.3056 53.6198C11.6657 53.4858 10.2253 53.2028 8.89261 52.5237C6.77578 51.4452 5.05475 49.7241 3.97618 47.6073C3.29716 46.2747 3.01408 44.8342 2.88009 43.1943C2.74996 41.6016 2.74998 39.6348 2.75 37.1962L2.75 21.7049C2.74998 19.5454 2.74996 17.7883 2.86647 16.3623C2.98683 14.8892 3.24266 13.5722 3.86718 12.3465C4.84989 10.4179 6.41794 8.84981 8.3466 7.8671C9.5723 7.24258 10.8892 6.98675 12.3624 6.86639C13.7884 6.74987 15.5455 6.74989 17.705 6.74992L21.0236 6.74992C21.0969 6.74992 21.1694 6.74988 21.241 6.74984C22.4968 6.74911 23.4854 6.74853 24.4406 6.97787C25.2824 7.17997 26.0872 7.5133 26.8253 7.96564C27.663 8.47893 28.3616 9.17837 29.2491 10.0669C29.2997 10.1175 29.3509 10.1688 29.4028 10.2207L30.3634 11.1814C31.4443 12.2623 31.7426 12.5412 32.0582 12.7374C32.3833 12.9395 32.7374 13.0906 33.1083 13.1855C33.4683 13.2776 33.8761 13.3 35.4043 13.3325L41.0493 13.4526C43.4403 13.5034 45.37 13.5445 46.9323 13.7045C48.5418 13.8694 49.9533 14.1754 51.2561 14.8638C53.3277 15.9585 55.0058 17.6727 56.0562 19.7671C56.7168 21.0843 56.9927 22.5019 57.1233 24.1146C57.25 25.68 57.25 27.6102 57.25 30.0017V34.9999C57.25 36.2426 56.2426 37.2499 55 37.2499C53.7574 37.2499 52.75 36.2426 52.75 34.9999V30.0968C52.75 27.5878 52.7483 25.8401 52.638 24.4779C52.5298 23.1423 52.3282 22.3716 52.0337 21.7845C51.4035 20.5278 50.3966 19.4993 49.1537 18.8425C48.5729 18.5356 47.8067 18.3176 46.4737 18.1811C45.1141 18.0418 43.3668 18.0029 40.8584 17.9495L35.3086 17.8315C35.2375 17.8299 35.1672 17.8285 35.0978 17.8271C33.8784 17.8018 32.9185 17.7819 31.9928 17.545C31.1769 17.3363 30.3978 17.0038 29.6825 16.5592C28.871 16.0547 28.1924 15.3754 27.3305 14.5125C27.2815 14.4634 27.2318 14.4137 27.1815 14.3634L26.2208 13.4027C25.1073 12.2892 24.7997 12.0021 24.4741 11.8025C24.1386 11.5969 23.7728 11.4454 23.3901 11.3535Z"
  />
  <path
    fill-rule="evenodd"
    clip-rule="evenodd"
    d="M10.75 26.9999C10.75 25.7573 11.7574 24.7499 13 24.7499H47C48.2426 24.7499 49.25 25.7573 49.25 26.9999C49.25 28.2426 48.2426 29.2499 47 29.2499H13C11.7574 29.2499 10.75 28.2426 10.75 26.9999Z"
  />
</svg>
