<svg
  width="60"
  height="60"
  viewBox="0 0 60 60"
  fill="currentColor"
  xmlns="http://www.w3.org/2000/svg"
>
  <path
    d="M47.6157 38.9451C47.8966 38.3272 48.0371 38.0182 48.2317 37.9223C48.4009 37.839 48.5991 37.839 48.7683 37.9223C48.9629 38.0182 49.1034 38.3272 49.3843 38.9451L51.1566 42.8434L55.0549 44.6157C55.6728 44.8966 55.9818 45.0371 56.0777 45.2317C56.161 45.4009 56.161 45.5991 56.0777 45.7682C55.9818 45.9629 55.6728 46.1034 55.0549 46.3843L51.1566 48.1566L49.3843 52.0548C49.1034 52.6728 48.9629 52.9818 48.7683 53.0777C48.5991 53.161 48.4009 53.161 48.2317 53.0777C48.0371 52.9818 47.8966 52.6728 47.6157 52.0548L45.8434 48.1566L41.9451 46.3843C41.3272 46.1034 41.0182 45.9629 40.9223 45.7682C40.839 45.5991 40.839 45.4009 40.9223 45.2317C41.0182 45.0371 41.3272 44.8966 41.9451 44.6157L45.8434 42.8434L47.6157 38.9451Z"
  />
  <path
    fill-rule="evenodd"
    clip-rule="evenodd"
    d="M23.3901 11.3536C23.0188 11.2644 22.5982 11.25 21.0236 11.25H17.8C15.5227 11.25 13.95 11.2517 12.7288 11.3515C11.534 11.4491 10.8752 11.6293 10.3896 11.8767C9.30762 12.428 8.42799 13.3076 7.87671 14.3895C7.62929 14.8751 7.44915 15.5339 7.35152 16.7288C7.25175 17.95 7.25 19.5226 7.25 21.8V37.1C7.25 39.6573 7.25175 41.44 7.36515 42.8279C7.4764 44.1896 7.68379 44.9719 7.98571 45.5644C8.63285 46.8345 9.66547 47.8671 10.9356 48.5143C11.5281 48.8162 12.3104 49.0236 13.672 49.1348C15.0599 49.2482 16.8426 49.25 19.4 49.25H38C39.2426 49.25 40.25 50.2573 40.25 51.5C40.25 52.7426 39.2426 53.75 38 53.75H19.3036C16.8651 53.75 14.8983 53.75 13.3056 53.6199C11.6657 53.4859 10.2253 53.2028 8.89261 52.5238C6.77578 51.4452 5.05475 49.7242 3.97618 47.6074C3.29716 46.2747 3.01408 44.8343 2.88009 43.1944C2.74996 41.6017 2.74998 39.6348 2.75 37.1963L2.75 21.705C2.74998 19.5454 2.74996 17.7884 2.86647 16.3624C2.98683 14.8892 3.24266 13.5723 3.86718 12.3466C4.84989 10.4179 6.41794 8.84987 8.3466 7.86716C9.5723 7.24264 10.8892 6.98681 12.3624 6.86645C13.7884 6.74994 15.5455 6.74996 17.705 6.74998L21.0236 6.74998C21.0969 6.74998 21.1694 6.74994 21.241 6.7499C22.4968 6.74917 23.4854 6.74859 24.4406 6.97793C25.2824 7.18003 26.0872 7.51336 26.8253 7.9657C27.663 8.479 28.3616 9.17843 29.2491 10.067C29.2997 10.1176 29.3509 10.1689 29.4028 10.2208L30.3634 11.1814C31.4443 12.2623 31.7426 12.5413 32.0582 12.7375C32.3833 12.9395 32.7374 13.0907 33.1083 13.1856C33.4683 13.2777 33.8761 13.3 35.4043 13.3325L41.0493 13.4526C43.4403 13.5035 45.37 13.5445 46.9323 13.7046C48.5418 13.8694 49.9533 14.1754 51.2561 14.8639C53.3277 15.9586 55.0058 17.6728 56.0562 19.7672C56.7168 21.0844 56.9927 22.502 57.1233 24.1147C57.25 25.68 57.25 27.6102 57.25 30.0017V35C57.25 36.2426 56.2426 37.25 55 37.25C53.7574 37.25 52.75 36.2426 52.75 35V30.0969C52.75 27.5879 52.7483 25.8402 52.638 24.4779C52.5298 23.1423 52.3282 22.3717 52.0337 21.7845C51.4035 20.5279 50.3966 19.4994 49.1537 18.8425C48.5729 18.5356 47.8067 18.3177 46.4737 18.1811C45.1141 18.0419 43.3668 18.003 40.8584 17.9496L35.3086 17.8315C35.2375 17.83 35.1672 17.8286 35.0978 17.8271C33.8784 17.8019 32.9185 17.782 31.9928 17.5451C31.1769 17.3363 30.3978 17.0039 29.6825 16.5592C28.871 16.0548 28.1924 15.3755 27.3305 14.5126C27.2815 14.4635 27.2318 14.4137 27.1815 14.3634L26.2208 13.4027C25.1073 12.2893 24.7997 12.0021 24.4741 11.8026C24.1386 11.597 23.7728 11.4455 23.3901 11.3536Z"
  />
  <path
    fill-rule="evenodd"
    clip-rule="evenodd"
    d="M10.75 27C10.75 25.7573 11.7574 24.75 13 24.75H47C48.2426 24.75 49.25 25.7573 49.25 27C49.25 28.2426 48.2426 29.25 47 29.25H13C11.7574 29.25 10.75 28.2426 10.75 27Z"
  />
</svg>
