<svg
  xmlns="http://www.w3.org/2000/svg"
  width="60"
  height="60"
  viewBox="0 0 60 60"
  fill="currentColor"
>
  <path
    fill-rule="evenodd"
    clip-rule="evenodd"
    d="M21.1708 12.4932C22.6189 11.8273 24.3032 11.8747 25.7176 12.6357L25.9403 12.7666C27.0201 13.4511 27.6292 14.6275 28.0516 15.5703C28.5517 16.6866 29.083 18.2097 29.7284 20.0537L38.7245 45.7568C39.1349 46.9296 38.5172 48.2134 37.3446 48.624C36.1717 49.0345 34.8879 48.416 34.4774 47.2432L31.659 39.1914H14.9432L12.1249 47.2432C11.7144 48.416 10.4305 49.0344 9.25767 48.624C8.08487 48.2135 7.46646 46.9297 7.87681 45.7568L17.3368 18.7324C17.7819 17.4737 18.1746 16.4075 18.5497 15.5703C19.0003 14.5644 19.6643 13.2924 20.8846 12.6357L21.1708 12.4932ZM23.492 16.5596C23.3675 16.5176 23.2328 16.5173 23.1083 16.5596C23.0515 16.6403 22.8962 16.8743 22.6561 17.4102C22.3538 18.085 22.02 18.9875 21.5877 20.209L16.5184 34.6914H30.0838L25.4813 21.54C24.8073 19.6143 24.3483 18.31 23.9452 17.4102C23.7044 16.8728 23.5484 16.6397 23.492 16.5596Z"
  />
  <path
    d="M44.0008 11.25C45.2434 11.2501 46.2508 12.2574 46.2508 13.5V17.25H50.0008C51.2434 17.2501 52.2508 18.2574 52.2508 19.5C52.2508 20.7426 51.2434 21.7499 50.0008 21.75H46.2508V25.5C46.2508 26.7426 45.2434 27.7499 44.0008 27.75C42.7582 27.75 41.7508 26.7426 41.7508 25.5V21.75H38.0008C36.7582 21.75 35.7508 20.7426 35.7508 19.5C35.7508 18.2574 36.7582 17.25 38.0008 17.25H41.7508V13.5C41.7508 12.2574 42.7582 11.25 44.0008 11.25Z"
  />
</svg>
