<svg
  xmlns="http://www.w3.org/2000/svg"
  width="60"
  height="60"
  viewBox="0 0 60 60"
  fill="currentColor"
>
  <path
    fill-rule="evenodd"
    clip-rule="evenodd"
    d="M21.1708 12.4933C22.6189 11.8274 24.3032 11.8748 25.7176 12.6358L25.9403 12.7667C27.0201 13.4512 27.6292 14.6276 28.0516 15.5704C28.5517 16.6867 29.083 18.2098 29.7284 20.0538L38.7245 45.7569C39.1349 46.9296 38.5172 48.2135 37.3446 48.6241C36.1717 49.0346 34.8879 48.4161 34.4774 47.2433L31.659 39.1915H14.9432L12.1249 47.2433C11.7144 48.4161 10.4305 49.0345 9.25767 48.6241C8.08487 48.2136 7.46646 46.9297 7.87681 45.7569L17.3368 18.7325C17.7819 17.4738 18.1746 16.4076 18.5497 15.5704C19.0003 14.5645 19.6643 13.2925 20.8846 12.6358L21.1708 12.4933ZM23.492 16.5597C23.3675 16.5177 23.2328 16.5174 23.1083 16.5597C23.0515 16.6404 22.8962 16.8744 22.6561 17.4102C22.3538 18.0851 22.02 18.9876 21.5877 20.2091L16.5184 34.6915H30.0838L25.4813 21.5401C24.8073 19.6144 24.3483 18.3101 23.9452 17.4102C23.7044 16.8729 23.5484 16.6398 23.492 16.5597Z"
  />
  <path
    d="M46.2508 17.2501H50.0008C51.2434 17.2502 52.2508 18.2575 52.2508 19.5001C52.2508 20.7427 51.2434 21.75 50.0008 21.7501H46.2508H41.7508H38.0008C36.7582 21.7501 35.7508 20.7427 35.7508 19.5001C35.7508 18.2575 36.7582 17.2501 38.0008 17.2501H41.7508H46.2508Z"
  />
</svg>
