<svg
  width="60"
  height="60"
  viewBox="0 0 60 60"
  fill="currentColor"
  xmlns="http://www.w3.org/2000/svg"
>
  <path
    d="M23.4093 33.409C22.5307 34.2877 22.5307 35.7123 23.4093 36.591C24.288 37.4697 25.7127 37.4697 26.5913 36.591L36.5913 26.591C37.47 25.7123 37.47 24.2877 36.5913 23.409C35.7127 22.5303 34.288 22.5303 33.4093 23.409L23.4093 33.409Z"
  />
  <path
    fill-rule="evenodd"
    clip-rule="evenodd"
    d="M15.0007 15.0005C27.6717 2.32989 46.0504 5.357 51.4529 6.60271C52.4273 6.82739 53.1738 7.57393 53.3985 8.54833C54.6443 13.9509 57.6717 32.3299 45.0007 45.0005C32.3297 57.6712 13.951 54.644 8.54851 53.3983C7.5741 53.1737 6.82755 52.4271 6.60286 51.4527C5.35706 46.0502 2.32964 27.6712 15.0007 15.0005ZM31.0001 11.0007C26.5083 12.158 22.0218 14.3435 18.1826 18.1826C14.3435 22.0216 12.1579 26.5082 11.0006 31L29.0011 49.0004C33.4929 47.8431 37.9795 45.6576 41.8188 41.8185C45.6579 37.9795 47.8434 33.4931 49.0007 29.0014L31.0001 11.0007ZM10.7364 49.2648C10.1884 46.4946 9.54148 41.7445 10.0585 36.4218L23.5792 49.9425C18.2566 50.4596 13.5065 49.8128 10.7364 49.2648ZM49.9428 23.5796C50.4599 18.2568 49.813 13.5065 49.265 10.7363C46.4948 10.1883 41.7446 9.54146 36.4218 10.0586L49.9428 23.5796Z"
  />
</svg>
