<svg
  width="60"
  height="60"
  viewBox="0 0 60 60"
  fill="currentColor"
  xmlns="http://www.w3.org/2000/svg"
>
  <path
    fill-rule="evenodd"
    clip-rule="evenodd"
    d="M23.75 11C23.75 9.75736 24.7574 8.75 26 8.75H51C52.2426 8.75 53.25 9.75736 53.25 11C53.25 12.2426 52.2426 13.25 51 13.25H26C24.7574 13.25 23.75 12.2426 23.75 11Z"
  />
  <path
    fill-rule="evenodd"
    clip-rule="evenodd"
    d="M23.75 30C23.75 28.7574 24.7574 27.75 26 27.75L51 27.75C52.2426 27.75 53.25 28.7574 53.25 30C53.25 31.2426 52.2426 32.25 51 32.25L26 32.25C24.7574 32.25 23.75 31.2426 23.75 30Z"
  />
  <path
    fill-rule="evenodd"
    clip-rule="evenodd"
    d="M23.75 49C23.75 47.7574 24.7574 46.75 26 46.75H51C52.2426 46.75 53.25 47.7574 53.25 49C53.25 50.2426 52.2426 51.25 51 51.25H26C24.7574 51.25 23.75 50.2426 23.75 49Z"
  />
  <path
    fill-rule="evenodd"
    clip-rule="evenodd"
    d="M8.46728 13.7464C8.19315 13.5743 8 13.2713 8 12.9V10.8533C8 10.5106 8.17547 10.1918 8.46498 10.0085L11.3915 8.15516C11.5516 8.05381 11.7371 8 11.9265 8H14.17C14.7223 8 15.17 8.44772 15.17 9V24.56C15.17 25.1123 14.7223 25.56 14.17 25.56H12.2972C11.7449 25.56 11.2972 25.1123 11.2972 24.56V12.6547L9.52615 13.7504C9.20133 13.9514 8.83046 13.9405 8.53565 13.7857L8.46728 13.828V13.7464Z"
  />
  <path
    fill-rule="evenodd"
    clip-rule="evenodd"
    d="M7.34715 47.7259C7.18285 47.9093 7.092 48.1469 7.092 48.3931V50.204C7.092 50.7563 7.53971 51.204 8.092 51.204H17.4C17.9523 51.204 18.4 50.7563 18.4 50.204V48.444C18.4 47.8917 17.9523 47.444 17.4 47.444H12.7573L16.2632 43.5889C16.9523 42.869 17.4935 42.1308 17.8449 41.3725C18.2038 40.6221 18.377 39.7767 18.377 38.848V38.536C18.377 37.5292 18.1213 36.6488 17.6648 35.8547L17.661 35.8483C17.192 35.0599 16.4954 34.4471 15.641 34.0276L15.6361 34.0253C14.7635 33.609 13.7519 33.38 12.631 33.38C10.9436 33.38 9.5795 33.8088 8.54879 34.723C7.51384 35.641 7 36.8645 7 38.344V38.42C7 38.9723 7.44772 39.42 8 39.42H9.94922C10.4374 39.42 10.8332 39.0242 10.8332 38.536C10.8332 38.0298 10.9747 37.7036 11.2577 37.457C11.5438 37.2117 11.9793 37.044 12.585 37.044C13.184 37.044 13.6182 37.208 13.9283 37.475C14.2275 37.7552 14.3828 38.1171 14.3828 38.608V38.872C14.3828 39.2641 14.2898 39.6439 14.1342 39.9924C13.9583 40.3353 13.6526 40.7457 13.1741 41.2223L13.1643 41.2322L7.34715 47.7259Z"
  />
</svg>
