<svg
  width="60"
  height="60"
  viewBox="0 0 60 60"
  fill="currentColor"
  xmlns="http://www.w3.org/2000/svg"
>
  <path
    fill-rule="evenodd"
    clip-rule="evenodd"
    d="M41.6906 53.0988C41.0559 52.0305 41.4074 50.6499 42.4758 50.0152C46.7682 47.465 49.0771 45.8436 50.5136 43.2878C51.894 40.832 52.6168 37.2272 52.6933 30.5021C51.6821 31.0168 50.6129 31.2179 49.4741 31.3109C48.3814 31.4002 47.0438 31.4002 45.4414 31.4001H43.5088C41.9063 31.4002 40.5687 31.4002 39.476 31.3109C38.3364 31.2178 37.2664 31.0165 36.2546 30.5009C34.7023 29.71 33.4402 28.4479 32.6493 26.8956C32.1337 25.8838 31.9324 24.8138 31.8393 23.6742C31.75 22.5814 31.75 21.2439 31.7501 19.6414V17.7089C31.75 16.1064 31.75 14.7688 31.8393 13.6761C31.9324 12.5365 32.1337 11.4665 32.6493 10.4547C33.4402 8.90237 34.7023 7.64028 36.2546 6.84933C37.2664 6.3338 38.3364 6.13246 39.476 6.03935C40.5688 5.95007 41.9063 5.9501 43.5088 5.95013H45.4413C47.0438 5.9501 48.3814 5.95007 49.4741 6.03935C50.6137 6.13246 51.6837 6.3338 52.6955 6.84933C54.2478 7.64028 55.5099 8.90237 56.3009 10.4547C56.8164 11.4665 57.0177 12.5365 57.1109 13.6761C57.2001 14.7688 57.2001 16.1063 57.2001 17.7088V19.6414C57.2001 20.6415 57.2001 21.5384 57.1784 22.337C57.1927 22.4394 57.2001 22.5441 57.2001 22.6504V29.2747C57.2001 36.878 56.5119 41.8003 54.4364 45.4928C52.3355 49.2306 48.9818 51.3842 44.7742 53.884C43.7059 54.5187 42.3253 54.1672 41.6906 53.0988ZM50.6525 26.4914C50.3809 26.6298 49.969 26.7555 49.1076 26.8259C48.22 26.8984 47.0674 26.9001 45.3501 26.9001H43.6001C41.8828 26.9001 40.7301 26.8984 39.8425 26.8259C38.9811 26.7555 38.5693 26.6298 38.2976 26.4914C37.592 26.1319 37.0183 25.5582 36.6588 24.8526C36.5204 24.5809 36.3947 24.1691 36.3243 23.3077C36.2518 22.4201 36.2501 21.2674 36.2501 19.5501V17.8001C36.2501 16.0828 36.2518 14.9302 36.3243 14.0426C36.3947 13.1812 36.5204 12.7693 36.6588 12.4977C37.0183 11.7921 37.592 11.2184 38.2976 10.8589C38.5693 10.7204 38.9811 10.5948 39.8425 10.5244C40.7301 10.4519 41.8828 10.4501 43.6001 10.4501H45.3501C47.0674 10.4501 48.22 10.4519 49.1076 10.5244C49.969 10.5948 50.3809 10.7204 50.6525 10.8589C51.3581 11.2184 51.9318 11.7921 52.2913 12.4977C52.4298 12.7693 52.5554 13.1812 52.6258 14.0426C52.6983 14.9302 52.7001 16.0828 52.7001 17.8001V19.5501C52.7001 21.2674 52.6983 22.4201 52.6258 23.3077C52.5554 24.1691 52.4298 24.5809 52.2913 24.8526C51.9318 25.5582 51.3581 26.1319 50.6525 26.4914Z"
  />
  <path
    fill-rule="evenodd"
    clip-rule="evenodd"
    d="M14.5088 31.5251H16.4414C18.0438 31.5252 19.3814 31.5252 20.4741 31.4359C21.6123 31.3429 22.6811 31.142 23.6918 30.6278C23.6078 37.2723 22.8854 40.8473 21.5136 43.2878C20.0771 45.8436 17.7682 47.465 13.4758 50.0152C12.4074 50.6499 12.0559 52.0305 12.6906 53.0988C13.3253 54.1672 14.7059 54.5187 15.7742 53.884C19.9818 51.3842 23.3355 49.2306 25.4364 45.4928C27.5119 41.8003 28.2001 36.878 28.2001 29.2747V18.6503C28.2001 18.6493 28.2001 18.6483 28.2001 18.6473V17.8338C28.2001 16.2314 28.2001 14.8938 28.1109 13.8011C28.0177 12.6615 27.8164 11.5915 27.3009 10.5797C26.5099 9.02737 25.2478 7.76528 23.6955 6.97433C22.6837 6.4588 21.6137 6.25746 20.4741 6.16435C19.3814 6.07507 18.0438 6.0751 16.4413 6.07513H14.5088C12.9063 6.0751 11.5688 6.07507 10.4761 6.16435C9.3364 6.25746 8.26643 6.4588 7.25464 6.97433C5.7023 7.76528 4.44021 9.02737 3.64925 10.5797C3.13372 11.5915 2.93239 12.6615 2.83928 13.8011C2.75 14.8938 2.75003 16.2314 2.75006 17.8339V19.7664C2.75003 21.3689 2.75 22.7064 2.83928 23.7992C2.93239 24.9388 3.13372 26.0088 3.64925 27.0206C4.44021 28.5729 5.7023 29.835 7.25464 30.6259C8.26643 31.1415 9.3364 31.3428 10.4761 31.4359C11.5687 31.5252 12.9063 31.5252 14.5088 31.5251ZM23.7001 17.9251C23.7001 16.2078 23.6983 15.0552 23.6258 14.1676C23.5554 13.3062 23.4298 12.8943 23.2913 12.6227C22.9318 11.9171 22.3581 11.3434 21.6525 10.9839C21.3809 10.8454 20.969 10.7198 20.1076 10.6494C19.22 10.5769 18.0674 10.5751 16.3501 10.5751H14.6001C12.8828 10.5751 11.7301 10.5769 10.8425 10.6494C9.98112 10.7198 9.56927 10.8454 9.29759 10.9839C8.59199 11.3434 8.01831 11.9171 7.65878 12.6227C7.52036 12.8943 7.39471 13.3062 7.32433 14.1676C7.25181 15.0552 7.25006 16.2078 7.25006 17.9251V19.6751C7.25006 21.3924 7.25181 22.5451 7.32433 23.4327C7.39471 24.2941 7.52036 24.7059 7.65878 24.9776C8.01831 25.6832 8.59199 26.2569 9.29759 26.6164C9.56927 26.7548 9.98112 26.8805 10.8425 26.9509C11.7301 27.0234 12.8828 27.0251 14.6001 27.0251H16.3501C18.0674 27.0251 19.22 27.0234 20.1076 26.9509C20.969 26.8805 21.3809 26.7548 21.6525 26.6164C22.3581 26.2569 22.9318 25.6832 23.2913 24.9776C23.4298 24.7059 23.5554 24.2941 23.6258 23.4327C23.6983 22.5451 23.7001 21.3924 23.7001 19.6751V17.9251Z"
  />
</svg>
