<svg
  width="60"
  height="60"
  viewBox="0 0 60 60"
  fill="currentColor"
  xmlns="http://www.w3.org/2000/svg"
>
  <path
    d="M9.25 10C9.25 8.75736 8.24264 7.75 7 7.75C5.75736 7.75 4.75 8.75736 4.75 10V50C4.75 51.2426 5.75736 52.25 7 52.25C8.24264 52.25 9.25 51.2426 9.25 50L9.25 32.25H29.75V50C29.75 51.2426 30.7574 52.25 32 52.25C33.2426 52.25 34.25 51.2426 34.25 50L34.25 10C34.25 8.75736 33.2426 7.75 32 7.75C30.7574 7.75 29.75 8.75736 29.75 10V27.75H9.25L9.25 10Z"
  />
  <path
    d="M39.8164 45.6277C39.8164 47.8237 40.5004 49.5157 41.9404 50.6677C43.3444 51.8197 45.3964 52.3957 48.0604 52.3957C50.5804 52.3957 52.5964 51.7477 54.1084 50.4517C55.6204 49.1557 56.3764 47.3557 56.3764 45.0877V44.5117C56.3764 43.1077 56.0164 41.9197 55.3684 40.9117C54.7204 39.9397 53.7484 39.2197 52.4884 38.7877C53.6044 38.2837 54.4684 37.5997 55.0444 36.7357C55.6204 35.8717 55.9444 34.8637 55.9444 33.7117V33.2437C55.9444 31.2277 55.2244 29.6437 53.8204 28.4917C52.3804 27.3397 50.4364 26.7637 47.9524 26.7637C45.3964 26.7637 43.4524 27.3757 42.0844 28.5637C40.7164 29.7517 40.0324 31.4437 40.0324 33.6757C40.0324 33.8546 40.1775 33.9997 40.3564 33.9997H44.0284C44.2073 33.9997 44.3524 33.8546 44.3524 33.6757C44.3524 32.7397 44.6404 32.0197 45.2524 31.5157C45.8284 31.0117 46.6924 30.7597 47.8444 30.7597C48.9244 30.7597 49.7884 31.0477 50.4004 31.5517C50.9764 32.0557 51.3004 32.7757 51.3004 33.7117V34.1437C51.3004 35.1517 50.9764 35.9077 50.3284 36.4117C49.6804 36.9517 48.7804 37.2037 47.5564 37.2037H47.3884C46.7257 37.2037 46.1884 37.7409 46.1884 38.4037V39.9997C46.1884 40.6624 46.7257 41.1997 47.3884 41.1997H47.5924C48.9604 41.1997 50.0044 41.4877 50.6884 42.0277C51.3724 42.5677 51.7324 43.3957 51.7324 44.5117V45.0517C51.7324 46.1317 51.4084 46.9597 50.7604 47.5357C50.1124 48.1117 49.1764 48.3997 47.9884 48.3997C46.7644 48.3997 45.8284 48.1837 45.1804 47.6797C44.5324 47.1757 44.2084 46.4557 44.2084 45.5197C44.2084 45.3606 44.0795 45.2317 43.9204 45.2317H40.2124C39.9937 45.2317 39.8164 45.409 39.8164 45.6277Z"
  />
</svg>
