<svg
  width="60"
  height="60"
  viewBox="0 0 60 60"
  fill="currentColor"
  xmlns="http://www.w3.org/2000/svg"
>
  <path
    d="M14.591 7.40901C14.169 6.98705 13.5967 6.75 13 6.75C12.4033 6.75 11.831 6.98705 11.409 7.40901L5.90901 12.909C5.03033 13.7877 5.03033 15.2123 5.90901 16.091C6.78769 16.9697 8.21231 16.9697 9.09099 16.091L10.75 14.432L10.75 45.568L9.09099 43.909C8.21231 43.0303 6.78769 43.0303 5.90901 43.909C5.03033 44.7877 5.03033 46.2123 5.90901 47.091L11.409 52.591C12.2877 53.4697 13.7123 53.4697 14.591 52.591L20.091 47.091C20.9697 46.2123 20.9697 44.7877 20.091 43.909C19.2123 43.0303 17.7877 43.0303 16.909 43.909L15.25 45.568L15.25 14.432L16.909 16.091C17.7877 16.9697 19.2123 16.9697 20.091 16.091C20.9697 15.2123 20.9697 13.7877 20.091 12.909L14.591 7.40901Z"
  />
  <path
    d="M28 8.75C26.7574 8.75 25.75 9.75736 25.75 11C25.75 12.2426 26.7574 13.25 28 13.25H53C54.2426 13.25 55.25 12.2426 55.25 11C55.25 9.75736 54.2426 8.75 53 8.75H28Z"
  />
  <path
    d="M25.75 30C25.75 28.7574 26.7574 27.75 28 27.75H53C54.2426 27.75 55.25 28.7574 55.25 30C55.25 31.2426 54.2426 32.25 53 32.25H28C26.7574 32.25 25.75 31.2426 25.75 30Z"
  />
  <path
    d="M28 46.75C26.7574 46.75 25.75 47.7574 25.75 49C25.75 50.2426 26.7574 51.25 28 51.25H45C46.2426 51.25 47.25 50.2426 47.25 49C47.25 47.7574 46.2426 46.75 45 46.75H28Z"
  />
</svg>
