<svg
  width="60"
  height="60"
  viewBox="0 0 60 60"
  fill="currentColor"
  xmlns="http://www.w3.org/2000/svg"
>
  <path
    d="M9.25 10C9.25 8.75736 8.24264 7.75 7 7.75C5.75736 7.75 4.75 8.75736 4.75 10V50C4.75 51.2426 5.75736 52.25 7 52.25C8.24264 52.25 9.25 51.2426 9.25 50L9.25 32.25H29.75V50C29.75 51.2426 30.7574 52.25 32 52.25C33.2426 52.25 34.25 51.2426 34.25 50L34.25 10C34.25 8.75736 33.2426 7.75 32 7.75C30.7574 7.75 29.75 8.75736 29.75 10V27.75H9.25L9.25 10Z"
  />
  <path
    d="M40.4771 47.9097C40.2694 48.132 40.1538 48.4249 40.1538 48.7292V50.7997C40.1538 51.4624 40.691 51.9997 41.3538 51.9997H55.1538C55.8165 51.9997 56.3538 51.4624 56.3538 50.7997V49.0597C56.3538 48.3969 55.8165 47.8597 55.1538 47.8597H46.5258L53.2218 40.8037C54.2658 39.7597 55.0578 38.7157 55.5618 37.6717C56.0658 36.6637 56.3178 35.5117 56.3178 34.2157V33.7477C56.3178 32.3797 55.9578 31.1917 55.3098 30.1117C54.6618 29.0677 53.6898 28.2397 52.4658 27.6637C51.2058 27.0877 49.7298 26.7637 48.0738 26.7637C45.5538 26.7637 43.6098 27.3757 42.1698 28.5997C40.7298 29.8237 40.0098 31.4437 40.0098 33.4597C40.0098 33.9368 40.3966 34.3237 40.8738 34.3237H43.9338C44.2519 34.3237 44.5098 34.0658 44.5098 33.7477C44.5098 32.8117 44.7978 32.0917 45.4458 31.5517C46.0578 31.0477 46.9218 30.7597 48.0018 30.7597C49.0818 30.7597 49.9458 31.0477 50.5938 31.5877C51.2418 32.1637 51.5658 32.9197 51.5658 33.8557V34.2517C51.5658 34.9717 51.3858 35.6557 51.0978 36.2677C50.7738 36.8797 50.2338 37.5637 49.4418 38.3197L40.4771 47.9097Z"
  />
</svg>
