<svg
  width="60"
  height="60"
  viewBox="0 0 60 60"
  fill="currentColor"
  xmlns="http://www.w3.org/2000/svg"
>
  <path
    fill-rule="evenodd"
    clip-rule="evenodd"
    d="M18.2594 7.05131C18.8941 8.11962 18.5426 9.5002 17.4743 10.1349C13.1819 12.6851 10.873 14.3065 9.43644 16.8623C8.05605 19.3182 7.33326 22.9229 7.25679 29.6481C8.26793 29.1334 9.33717 28.9323 10.476 28.8392C11.5687 28.7499 12.9062 28.75 14.5087 28.75H16.4413C18.0438 28.75 19.3813 28.7499 20.474 28.8392C21.6137 28.9323 22.6836 29.1337 23.6954 29.6492C25.2478 30.4402 26.5099 31.7022 27.3008 33.2546C27.8164 34.2664 28.0177 35.3363 28.1108 36.476C28.2001 37.5687 28.2 38.9063 28.2 40.5087V42.4413C28.2 44.0438 28.2001 45.3813 28.1108 46.474C28.0177 47.6137 27.8164 48.6836 27.3008 49.6954C26.5099 51.2478 25.2478 52.5099 23.6954 53.3008C22.6836 53.8163 21.6137 54.0177 20.474 54.1108C19.3813 54.2001 18.0438 54.2 16.4413 54.2H14.5087C12.9063 54.2 11.5687 54.2001 10.476 54.1108C9.33634 54.0177 8.26637 53.8163 7.25458 53.3008C5.70224 52.5099 4.44016 51.2478 3.6492 49.6954C3.13367 48.6836 2.93233 47.6137 2.83922 46.474C2.74995 45.3813 2.74997 44.0438 2.75 42.4414V40.5087C2.74998 39.5087 2.74997 38.6117 2.77165 37.8132C2.75738 37.7107 2.75 37.6061 2.75 37.4997V30.8754C2.75 23.2722 3.43819 18.3499 5.51364 14.6574C7.61461 10.9195 10.9683 8.76598 15.1758 6.26618C16.2442 5.63148 17.6247 5.98299 18.2594 7.05131ZM9.29754 33.6587C9.56922 33.5203 9.98107 33.3947 10.8424 33.3243C11.7301 33.2518 12.8827 33.25 14.6 33.25H16.35C18.0673 33.25 19.2199 33.2518 20.1076 33.3243C20.969 33.3947 21.3808 33.5203 21.6525 33.6587C22.3581 34.0183 22.9318 34.5919 23.2913 35.2975C23.4297 35.5692 23.5554 35.9811 23.6257 36.8424C23.6983 37.7301 23.7 38.8827 23.7 40.6V42.35C23.7 44.0673 23.6983 45.2199 23.6257 46.1076C23.5554 46.969 23.4297 47.3808 23.2913 47.6525C22.9318 48.3581 22.3581 48.9318 21.6525 49.2913C21.3808 49.4297 20.969 49.5554 20.1076 49.6257C19.2199 49.6983 18.0673 49.7 16.35 49.7H14.6C12.8827 49.7 11.7301 49.6983 10.8424 49.6257C9.98107 49.5554 9.56922 49.4297 9.29754 49.2913C8.59193 48.9318 8.01825 48.3581 7.65873 47.6525C7.5203 47.3808 7.39465 46.969 7.32428 46.1076C7.25175 45.2199 7.25 44.0673 7.25 42.35V40.6C7.25 38.8827 7.25175 37.7301 7.32428 36.8424C7.39465 35.9811 7.5203 35.5692 7.65873 35.2975C8.01825 34.5919 8.59193 34.0183 9.29754 33.6587Z"
  />
  <path
    fill-rule="evenodd"
    clip-rule="evenodd"
    d="M45.4413 28.625H43.5087C41.9062 28.625 40.5687 28.6249 39.476 28.7142C38.3377 28.8072 37.269 29.0082 36.2583 29.5223C36.3423 22.8779 37.0647 19.3028 38.4364 16.8623C39.873 14.3065 42.1819 12.6851 46.4743 10.1349C47.5426 9.5002 47.8941 8.11962 47.2594 7.05131C46.6247 5.98299 45.2442 5.63148 44.1758 6.26618C39.9683 8.76598 36.6146 10.9195 34.5136 14.6574C32.4382 18.3499 31.75 23.2722 31.75 30.8754V41.4999C31.75 41.5009 31.75 41.5018 31.75 41.5028V42.3163C31.75 43.9188 31.7499 45.2563 31.8392 46.349C31.9323 47.4887 32.1337 48.5586 32.6492 49.5704C33.4402 51.1228 34.7022 52.3849 36.2546 53.1758C37.2664 53.6913 38.3363 53.8927 39.476 53.9858C40.5687 54.0751 41.9063 54.075 43.5087 54.075H45.4413C47.0438 54.075 48.3813 54.0751 49.474 53.9858C50.6137 53.8927 51.6836 53.6913 52.6954 53.1758C54.2478 52.3849 55.5099 51.1228 56.3008 49.5704C56.8163 48.5586 57.0177 47.4887 57.1108 46.349C57.2001 45.2563 57.2 43.9188 57.2 42.3163V40.3837C57.2 38.7813 57.2001 37.4437 57.1108 36.351C57.0177 35.2113 56.8163 34.1414 56.3008 33.1296C55.5099 31.5772 54.2478 30.3152 52.6954 29.5242C51.6836 29.0087 50.6137 28.8073 49.474 28.7142C48.3813 28.6249 47.0438 28.625 45.4413 28.625ZM36.25 42.225C36.25 43.9423 36.2518 45.0949 36.3243 45.9826C36.3947 46.844 36.5203 47.2558 36.6587 47.5275C37.0183 48.2331 37.5919 48.8068 38.2975 49.1663C38.5692 49.3047 38.9811 49.4304 39.8424 49.5007C40.7301 49.5733 41.8827 49.575 43.6 49.575H45.35C47.0673 49.575 48.2199 49.5733 49.1076 49.5007C49.969 49.4304 50.3808 49.3047 50.6525 49.1663C51.3581 48.8068 51.9318 48.2331 52.2913 47.5275C52.4297 47.2558 52.5554 46.844 52.6257 45.9826C52.6983 45.0949 52.7 43.9423 52.7 42.225V40.475C52.7 38.7577 52.6983 37.6051 52.6257 36.7174C52.5554 35.8561 52.4297 35.4442 52.2913 35.1725C51.9318 34.4669 51.3581 33.8933 50.6525 33.5337C50.3808 33.3953 49.969 33.2697 49.1076 33.1993C48.2199 33.1268 47.0673 33.125 45.35 33.125H43.6C41.8827 33.125 40.7301 33.1268 39.8424 33.1993C38.9811 33.2697 38.5692 33.3953 38.2975 33.5337C37.5919 33.8933 37.0183 34.4669 36.6587 35.1725C36.5203 35.4442 36.3947 35.8561 36.3243 36.7174C36.2518 37.6051 36.25 38.7577 36.25 40.475V42.225Z"
  />
</svg>
