<svg
  width="60"
  height="60"
  viewBox="0 0 60 60"
  fill="currentColor"
  xmlns="http://www.w3.org/2000/svg"
>
  <path
    d="M13 6.75C13.5967 6.75 14.169 6.98705 14.591 7.40901L20.091 12.909C20.9697 13.7877 20.9697 15.2123 20.091 16.091C19.2123 16.9697 17.7877 16.9697 16.909 16.091L15.25 14.432L15.25 45.568L16.909 43.909C17.7877 43.0303 19.2123 43.0303 20.091 43.909C20.9697 44.7877 20.9697 46.2123 20.091 47.091L14.591 52.591C13.7123 53.4697 12.2877 53.4697 11.409 52.591L5.90901 47.091C5.03033 46.2123 5.03033 44.7877 5.90901 43.909C6.78769 43.0303 8.21231 43.0303 9.09099 43.909L10.75 45.568L10.75 14.432L9.09099 16.091C8.21231 16.9697 6.78769 16.9697 5.90901 16.091C5.03033 15.2123 5.03033 13.7877 5.90901 12.909L11.409 7.40901C11.831 6.98705 12.4033 6.75 13 6.75Z"
  />
  <path
    d="M25.75 11C25.75 9.75736 26.7574 8.75 28 8.75H53C54.2426 8.75 55.25 9.75736 55.25 11C55.25 12.2426 54.2426 13.25 53 13.25H28C26.7574 13.25 25.75 12.2426 25.75 11Z"
  />
  <path
    d="M28 34.75C26.7574 34.75 25.75 35.7574 25.75 37C25.75 38.2426 26.7574 39.25 28 39.25H53C54.2426 39.25 55.25 38.2426 55.25 37C55.25 35.7574 54.2426 34.75 53 34.75H28Z"
  />
  <path
    d="M25.75 24C25.75 22.7574 26.7574 21.75 28 21.75H43C44.2426 21.75 45.25 22.7574 45.25 24C45.25 25.2426 44.2426 26.25 43 26.25H28C26.7574 26.25 25.75 25.2426 25.75 24Z"
  />
  <path
    d="M28 47.75C26.7574 47.75 25.75 48.7574 25.75 50C25.75 51.2426 26.7574 52.25 28 52.25H43C44.2426 52.25 45.25 51.2426 45.25 50C45.25 48.7574 44.2426 47.75 43 47.75H28Z"
  />
</svg>
