<svg
  width="60"
  height="60"
  viewBox="0 0 60 60"
  fill="currentColor"
  xmlns="http://www.w3.org/2000/svg"
>
  <path
    d="M38.6963 55.25H21.3037C18.8652 55.25 16.8983 55.25 15.3056 55.1199C13.6657 54.9859 12.2253 54.7028 10.8926 54.0238C8.77578 52.9452 7.05475 51.2242 5.97618 49.1074C5.29716 47.7747 5.01408 46.3343 4.88009 44.6944C4.74996 43.1017 4.74998 41.1348 4.75 38.6963V21.3037C4.74998 18.8652 4.74996 16.8983 4.88009 15.3056C5.01408 13.6657 5.29716 12.2253 5.97618 10.8926C7.05475 8.77578 8.77578 7.05475 10.8926 5.97618C12.2253 5.29715 13.6657 5.01408 15.3056 4.88009C16.8983 4.74996 18.8651 4.74998 21.3035 4.75H30C31.2426 4.75 32.25 5.75736 32.25 7C32.25 8.24264 31.2426 9.25 30 9.25H21.4C18.8426 9.25 17.0599 9.25175 15.672 9.36515C14.3104 9.4764 13.5281 9.68379 12.9356 9.98571C11.6655 10.6329 10.6329 11.6655 9.98571 12.9356C9.68379 13.5281 9.4764 14.3104 9.36515 15.672C9.25175 17.0599 9.25 18.8426 9.25 21.4V38.6C9.25 41.1574 9.25175 42.9401 9.36515 44.328C9.4764 45.6896 9.68379 46.4719 9.98571 47.0644C10.6329 48.3345 11.6655 49.3671 12.9356 50.0143C13.5281 50.3162 14.3104 50.5236 15.672 50.6349C17.0599 50.7482 18.8426 50.75 21.4 50.75H38.6C41.1574 50.75 42.9401 50.7482 44.328 50.6349C45.6896 50.5236 46.4719 50.3162 47.0644 50.0143C48.3345 49.3671 49.3671 48.3345 50.0143 47.0644C50.3162 46.4719 50.5236 45.6896 50.6349 44.328C50.7482 42.9401 50.75 41.1574 50.75 38.6V30C50.75 28.7574 51.7574 27.75 53 27.75C54.2426 27.75 55.25 28.7574 55.25 30V38.6964C55.25 41.1348 55.25 43.1017 55.1199 44.6944C54.9859 46.3343 54.7028 47.7747 54.0238 49.1074C52.9452 51.2242 51.2242 52.9452 49.1074 54.0238C47.7747 54.7028 46.3343 54.9859 44.6944 55.1199C43.1017 55.25 41.1348 55.25 38.6963 55.25Z"
  />
  <path
    d="M47.5184 22.8878C47.822 23.0374 48.178 23.0374 48.4816 22.8878C48.752 22.7547 48.8923 22.5224 48.9566 22.4092C49.026 22.2872 49.0965 22.132 49.1645 21.9823L51.2063 17.4913C51.2469 17.4019 51.2681 17.3557 51.2851 17.3221L51.291 17.3107L51.295 17.3034L51.2987 17.2993L51.3034 17.295C51.3067 17.2931 51.3127 17.2899 51.3221 17.2851C51.3557 17.2681 51.4019 17.2469 51.4913 17.2063L55.9818 15.1648C56.1316 15.0967 56.287 15.0261 56.4092 14.9566C56.5224 14.8923 56.7547 14.752 56.8878 14.4816C57.0374 14.178 57.0374 13.822 56.8878 13.5184C56.7547 13.248 56.5224 13.1077 56.4092 13.0434C56.287 12.9739 56.1316 12.9033 55.9818 12.8353L51.4913 10.7937C51.4019 10.7531 51.3557 10.7319 51.3221 10.7149L51.314 10.7107L51.3034 10.705L51.3008 10.7027L51.2984 10.7004L51.295 10.6966L51.2912 10.6896L51.2851 10.6779C51.2681 10.6443 51.2469 10.5981 51.2063 10.5087L49.1648 6.01821C49.0967 5.8684 49.0261 5.71297 48.9566 5.59078C48.8923 5.47756 48.752 5.24533 48.4816 5.11217C48.178 4.96261 47.822 4.96261 47.5184 5.11217C47.248 5.24533 47.1077 5.47756 47.0434 5.59078C46.9739 5.71296 46.9033 5.86837 46.8353 6.01818L44.7937 10.5087C44.7531 10.5981 44.7319 10.6443 44.7149 10.6779C44.7101 10.6873 44.7069 10.6933 44.705 10.6966C44.7024 10.6997 44.6996 10.7025 44.6966 10.705C44.6933 10.7069 44.6873 10.7101 44.6779 10.7149C44.6443 10.7319 44.5981 10.7531 44.5087 10.7937L40.0182 12.8353C39.8685 12.9033 39.7128 12.974 39.5908 13.0434C39.4776 13.1077 39.2453 13.248 39.1122 13.5184C38.9626 13.822 38.9626 14.178 39.1122 14.4816C39.2453 14.752 39.4776 14.8923 39.5908 14.9566C39.713 15.0261 39.8684 15.0967 40.0182 15.1648L44.5087 17.2063C44.5981 17.2469 44.6443 17.2681 44.6779 17.2851C44.6873 17.2899 44.6933 17.2931 44.6966 17.295L44.6997 17.2978C44.7016 17.2995 44.7034 17.3014 44.705 17.3034L44.7097 17.3121L44.7149 17.3221C44.7319 17.3557 44.7531 17.4019 44.7937 17.4913L46.8353 21.9818C46.9033 22.1315 46.974 22.2872 47.0434 22.4092C47.1077 22.5224 47.248 22.7547 47.5184 22.8878Z"
  />
  <path
    d="M15.75 37C15.75 38.2426 16.7574 39.25 18 39.25H42C43.2426 39.25 44.25 38.2426 44.25 37C44.25 35.7574 43.2426 34.75 42 34.75H18C16.7574 34.75 15.75 35.7574 15.75 37Z"
  />
  <path
    d="M18 25.25C16.7574 25.25 15.75 24.2426 15.75 23C15.75 21.7574 16.7574 20.75 18 20.75H36C37.2426 20.75 38.25 21.7574 38.25 23C38.25 24.2426 37.2426 25.25 36 25.25H18Z"
  />
</svg>
