<svg
  width="60"
  height="60"
  viewBox="0 0 60 60"
  fill="currentColor"
  xmlns="http://www.w3.org/2000/svg"
>
  <path
    fill-rule="evenodd"
    clip-rule="evenodd"
    d="M17.75 11C17.75 9.75736 18.7574 8.75 20 8.75L51 8.75C52.2426 8.75 53.25 9.75736 53.25 11C53.25 12.2426 52.2426 13.25 51 13.25L20 13.25C18.7574 13.25 17.75 12.2426 17.75 11Z"
  />
  <path
    fill-rule="evenodd"
    clip-rule="evenodd"
    d="M17.75 30C17.75 31.2426 18.7574 32.25 20 32.25L51 32.25C52.2426 32.25 53.25 31.2426 53.25 30C53.25 28.7574 52.2426 27.75 51 27.75L20 27.75C18.7574 27.75 17.75 28.7574 17.75 30Z"
  />
  <path
    fill-rule="evenodd"
    clip-rule="evenodd"
    d="M17.75 49C17.75 47.7574 18.7574 46.75 20 46.75L51 46.75C52.2426 46.75 53.25 47.7574 53.25 49C53.25 50.2426 52.2426 51.25 51 51.25L20 51.25C18.7574 51.25 17.75 50.2426 17.75 49Z"
  />
  <path
    d="M13 11C13 12.6569 11.6569 14 10 14C8.34315 14 7 12.6569 7 11C7 9.34315 8.34315 8 10 8C11.6569 8 13 9.34315 13 11Z"
  />
  <path
    d="M13 30C13 31.6569 11.6569 33 10 33C8.34315 33 7 31.6569 7 30C7 28.3431 8.34315 27 10 27C11.6569 27 13 28.3431 13 30Z"
  />
  <path
    d="M13 49C13 50.6569 11.6569 52 10 52C8.34315 52 7 50.6569 7 49C7 47.3431 8.34315 46 10 46C11.6569 46 13 47.3431 13 49Z"
  />
</svg>
