<svg
  width="60"
  height="60"
  viewBox="0 0 60 60"
  fill="currentColor"
  xmlns="http://www.w3.org/2000/svg"
>
  <path
    d="M38.6963 4.75H21.3037C18.8652 4.74998 16.8983 4.74996 15.3056 4.88009C13.6657 5.01408 12.2253 5.29716 10.8926 5.97618C8.77578 7.05475 7.05475 8.77578 5.97618 10.8926C5.29716 12.2253 5.01408 13.6657 4.88009 15.3056C4.74996 16.8983 4.74998 18.8652 4.75 21.3037V38.6963C4.74998 41.1348 4.74996 43.1017 4.88009 44.6944C5.01408 46.3343 5.29716 47.7747 5.97618 49.1074C7.05475 51.2242 8.77578 52.9452 10.8926 54.0238C12.2253 54.7028 13.6657 54.9859 15.3056 55.1199C16.8983 55.25 18.8651 55.25 21.3035 55.25H30C31.2426 55.25 32.25 54.2426 32.25 53C32.25 51.7574 31.2426 50.75 30 50.75H21.4C18.8426 50.75 17.0599 50.7482 15.672 50.6349C14.3104 50.5236 13.5281 50.3162 12.9356 50.0143C11.6655 49.3671 10.6329 48.3345 9.98571 47.0644C9.68379 46.4719 9.4764 45.6896 9.36515 44.328C9.25175 42.9401 9.25 41.1574 9.25 38.6V21.4C9.25 18.8426 9.25175 17.0599 9.36515 15.672C9.4764 14.3104 9.68379 13.5281 9.98571 12.9356C10.6329 11.6655 11.6655 10.6329 12.9356 9.98571C13.5281 9.68379 14.3104 9.4764 15.672 9.36515C17.0599 9.25175 18.8426 9.25 21.4 9.25H38.6C41.1574 9.25 42.9401 9.25175 44.328 9.36515C45.6896 9.4764 46.4719 9.68379 47.0644 9.98571C48.3345 10.6329 49.3671 11.6655 50.0143 12.9356C50.3162 13.5281 50.5236 14.3104 50.6349 15.672C50.7482 17.0599 50.75 18.8426 50.75 21.4V30C50.75 31.2426 51.7574 32.25 53 32.25C54.2426 32.25 55.25 31.2426 55.25 30V21.3036C55.25 18.8652 55.25 16.8983 55.1199 15.3056C54.9859 13.6657 54.7028 12.2253 54.0238 10.8926C52.9452 8.77578 51.2242 7.05475 49.1074 5.97618C47.7747 5.29716 46.3343 5.01408 44.6944 4.88009C43.1017 4.74996 41.1348 4.74998 38.6963 4.75Z"
  />
  <path
    d="M47.5184 37.1122C47.822 36.9626 48.178 36.9626 48.4816 37.1122C48.752 37.2453 48.8923 37.4776 48.9566 37.5908C49.026 37.7128 49.0965 37.868 49.1645 38.0177L51.2063 42.5087C51.2469 42.5981 51.2681 42.6443 51.2851 42.6779L51.291 42.6893L51.295 42.6966L51.2987 42.7007L51.3034 42.705C51.3067 42.7069 51.3127 42.7101 51.3221 42.7149C51.3557 42.7319 51.4019 42.7531 51.4913 42.7937L55.9818 44.8352C56.1316 44.9033 56.287 44.9739 56.4092 45.0434C56.5224 45.1077 56.7547 45.248 56.8878 45.5184C57.0374 45.822 57.0374 46.178 56.8878 46.4816C56.7547 46.752 56.5224 46.8923 56.4092 46.9566C56.287 47.0261 56.1316 47.0967 55.9818 47.1647L51.4913 49.2063C51.4019 49.2469 51.3557 49.2681 51.3221 49.2851L51.314 49.2893L51.3034 49.295L51.3008 49.2973L51.2984 49.2996L51.295 49.3034L51.2912 49.3104L51.2851 49.3221C51.2681 49.3557 51.2469 49.4019 51.2063 49.4913L49.1648 53.9818C49.0967 54.1316 49.0261 54.287 48.9566 54.4092C48.8923 54.5224 48.752 54.7547 48.4816 54.8878C48.178 55.0374 47.822 55.0374 47.5184 54.8878C47.248 54.7547 47.1077 54.5224 47.0434 54.4092C46.9739 54.287 46.9033 54.1316 46.8353 53.9818L44.7937 49.4913C44.7531 49.4019 44.7319 49.3557 44.7149 49.3221C44.7101 49.3127 44.7069 49.3067 44.705 49.3034C44.7024 49.3003 44.6996 49.2975 44.6966 49.295C44.6933 49.2931 44.6873 49.2899 44.6779 49.2851C44.6443 49.2681 44.5981 49.2469 44.5087 49.2063L40.0182 47.1647C39.8685 47.0967 39.7128 47.026 39.5908 46.9566C39.4776 46.8923 39.2453 46.752 39.1122 46.4816C38.9626 46.178 38.9626 45.822 39.1122 45.5184C39.2453 45.248 39.4776 45.1077 39.5908 45.0434C39.713 44.9739 39.8684 44.9033 40.0182 44.8352L44.5087 42.7937C44.5981 42.7531 44.6443 42.7319 44.6779 42.7149C44.6873 42.7101 44.6933 42.7069 44.6966 42.705L44.6997 42.7022C44.7016 42.7005 44.7034 42.6986 44.705 42.6966L44.7097 42.6879L44.7149 42.6779C44.7319 42.6443 44.7531 42.5981 44.7937 42.5087L46.8353 38.0182C46.9033 37.8685 46.974 37.7128 47.0434 37.5908C47.1077 37.4776 47.248 37.2453 47.5184 37.1122Z"
  />
  <path
    d="M15.75 23C15.75 21.7574 16.7574 20.75 18 20.75H42C43.2426 20.75 44.25 21.7574 44.25 23C44.25 24.2426 43.2426 25.25 42 25.25H18C16.7574 25.25 15.75 24.2426 15.75 23Z"
  />
  <path
    d="M18 34.75C16.7574 34.75 15.75 35.7574 15.75 37C15.75 38.2426 16.7574 39.25 18 39.25H36C37.2426 39.25 38.25 38.2426 38.25 37C38.25 35.7574 37.2426 34.75 36 34.75H18Z"
  />
</svg>
