<svg
  width="60"
  height="60"
  viewBox="0 0 60 60"
  fill="currentColor"
  xmlns="http://www.w3.org/2000/svg"
>
  <path
    fill-rule="evenodd"
    clip-rule="evenodd"
    d="M47 4.75C48.2426 4.75 49.25 5.75736 49.25 7V25C49.25 35.6315 40.6315 44.25 30 44.25C19.3685 44.25 10.75 35.6315 10.75 25L10.75 7C10.75 5.75736 11.7574 4.75 13 4.75C14.2426 4.75 15.25 5.75736 15.25 7L15.25 25C15.25 33.1462 21.8538 39.75 30 39.75C38.1462 39.75 44.75 33.1462 44.75 25V7C44.75 5.75736 45.7574 4.75 47 4.75Z"
  />
  <path
    fill-rule="evenodd"
    clip-rule="evenodd"
    d="M7.75 53C7.75 51.7574 8.75736 50.75 10 50.75H50C51.2426 50.75 52.25 51.7574 52.25 53C52.25 54.2426 51.2426 55.25 50 55.25H10C8.75736 55.25 7.75 54.2426 7.75 53Z"
  />
</svg>
