<svg
  width="60"
  height="60"
  viewBox="0 0 60 60"
  fill="currentColor"
  xmlns="http://www.w3.org/2000/svg"
>
  <path
    fill-rule="evenodd"
    clip-rule="evenodd"
    d="M15.75 11C15.75 9.75736 16.7574 8.75 18 8.75L51 8.75C52.2426 8.75 53.25 9.75736 53.25 11C53.25 12.2426 52.2426 13.25 51 13.25L18 13.25C16.7574 13.25 15.75 12.2426 15.75 11Z"
  />
  <path
    fill-rule="evenodd"
    clip-rule="evenodd"
    d="M24.75 30C24.75 28.7574 25.7574 27.75 27 27.75L51 27.75C52.2426 27.75 53.25 28.7574 53.25 30C53.25 31.2426 52.2426 32.25 51 32.25L27 32.25C25.7574 32.25 24.75 31.2426 24.75 30Z"
  />
  <path
    fill-rule="evenodd"
    clip-rule="evenodd"
    d="M15.75 49C15.75 47.7574 16.7574 46.75 18 46.75L51 46.75C52.2426 46.75 53.25 47.7574 53.25 49C53.25 50.2426 52.2426 51.25 51 51.25L18 51.25C16.7574 51.25 15.75 50.2426 15.75 49Z"
  />
  <path
    d="M16 26.847C17.6877 27.8817 18.5315 28.3991 18.8147 29.0745C19.0618 29.6636 19.0618 30.3364 18.8147 30.9255C18.5315 31.6009 17.6877 32.1183 16 33.153L12.1429 35.5177C10.4552 36.5524 9.61131 37.0697 8.91887 36.9924C8.31489 36.925 7.76621 36.5887 7.40925 36.0669C7 35.4688 7 34.4341 7 32.3647V27.6353C7 25.5659 7 24.5312 7.40925 23.9331C7.76621 23.4113 8.31489 23.075 8.91887 23.0076C9.61131 22.9303 10.4552 23.4476 12.1429 24.4823L16 26.847Z"
  />
</svg>
