<svg
  width="60"
  height="60"
  viewBox="0 0 60 60"
  fill="currentColor"
  xmlns="http://www.w3.org/2000/svg"
>
  <path
    d="M3 10C3 6.13401 6.13401 3.00001 10 3.00001H21C24.866 3.00001 28 6.13401 28 10V21C28 24.866 24.866 28 21 28H10C6.13401 28 3 24.866 3 21V10Z"
  />
  <path
    d="M3 39C3 35.134 6.13401 32 10 32H21C24.866 32 28 35.134 28 39V50C28 53.866 24.866 57 21 57H10C6.13401 57 3 53.866 3 50V39Z"
  />
  <path
    d="M32 39C32 35.134 35.134 32 39 32H50C53.866 32 57 35.134 57 39V50C57 53.866 53.866 57 50 57H39C35.134 57 32 53.866 32 50V39Z"
  />
  <path
    d="M32 10C32 6.13401 35.134 3 39 3H50C53.866 3 57 6.13401 57 10V21C57 24.866 53.866 28 50 28H39C35.134 28 32 24.866 32 21V10Z"
  />
</svg>
