<svg
  width="60"
  height="60"
  viewBox="0 0 60 60"
  fill="currentColor"
  xmlns="http://www.w3.org/2000/svg"
>
  <path
    d="M7 45C7 43.8954 7.89543 43 9 43H14C15.1046 43 16 43.8954 16 45V51C16 52.1046 15.1046 53 14 53H9C7.89543 53 7 52.1046 7 51V45Z"
  />
  <path
    d="M7 35C7 33.8954 7.89543 33 9 33H14C15.1046 33 16 33.8954 16 35V39C16 40.1046 15.1046 41 14 41H9C7.89543 41 7 40.1046 7 39V35Z"
  />
  <path
    d="M7 9C7 7.89543 7.89543 7 9 7H14C15.1046 7 16 7.89543 16 9V29C16 30.1046 15.1046 31 14 31H9C7.89543 31 7 30.1046 7 29V9Z"
  />
  <path
    d="M44 9C44 7.89543 44.8954 7 46 7H51C52.1046 7 53 7.89543 53 9V31C53 32.1046 52.1046 33 51 33H46C44.8954 33 44 32.1046 44 31V9Z"
  />
  <path
    d="M44 37C44 35.8954 44.8954 35 46 35H51C52.1046 35 53 35.8954 53 37V43C53 44.1046 52.1046 45 51 45H46C44.8954 45 44 44.1046 44 43V37Z"
  />
  <path
    d="M44 49C44 47.8954 44.8954 47 46 47H51C52.1046 47 53 47.8954 53 49V51C53 52.1046 52.1046 53 51 53H46C44.8954 53 44 52.1046 44 51V49Z"
  />
  <path
    d="M26 29C26 27.8954 26.8954 27 28 27H33C34.1046 27 35 27.8954 35 29V51C35 52.1046 34.1046 53 33 53H28C26.8954 53 26 52.1046 26 51V29Z"
  />
  <path
    d="M26 9C26 7.89543 26.8954 7 28 7H33C34.1046 7 35 7.89543 35 9V13C35 14.1046 34.1046 15 33 15H28C26.8954 15 26 14.1046 26 13V9Z"
  />
  <path
    d="M26 19C26 17.8954 26.8954 17 28 17H33C34.1046 17 35 17.8954 35 19V23C35 24.1046 34.1046 25 33 25H28C26.8954 25 26 24.1046 26 23V19Z"
  />
</svg>
