<svg
  xmlns="http://www.w3.org/2000/svg"
  width="60"
  height="60"
  viewBox="0 0 60 60"
  fill="currentColor"
>
  <path
    d="M29 2.75C30.2426 2.75 31.25 3.75736 31.25 5C31.25 6.24264 30.2426 7.25 29 7.25H26.8037C24.9697 7.25 23.414 8.57426 23.1074 10.3652L23.082 10.54L18.3838 48.5127C17.8725 52.6458 14.3609 55.75 10.1963 55.75H8.5C7.25736 55.75 6.25 54.7426 6.25 53.5C6.25 52.2574 7.25736 51.25 8.5 51.25H10.1963C12.0893 51.25 13.6856 49.8387 13.918 47.96L18.6162 9.9873L18.6729 9.60254C19.3477 5.66293 22.7693 2.75 26.8037 2.75H29Z"
  />
  <path
    d="M44.9654 33.8527L45.1366 33.698C46.0203 32.9775 47.3237 33.029 48.1473 33.8527C48.971 34.6763 49.0225 35.9797 48.302 36.8634L48.1473 37.0346L32.591 52.591C31.7123 53.4697 30.2877 53.4697 29.409 52.591C28.5303 51.7123 28.5303 50.2877 29.409 49.409L44.9654 33.8527Z"
  />
  <path
    d="M48.1473 48.9654L48.302 49.1366C49.0225 50.0203 48.971 51.3237 48.1473 52.1473C47.3237 52.971 46.0203 53.0225 45.1366 52.302L44.9654 52.1473L29.409 36.591C28.5303 35.7123 28.5303 34.2877 29.409 33.409C30.2877 32.5303 31.7123 32.5303 32.591 33.409L48.1473 48.9654Z"
  />
  <path
    d="M25 22.75L25.2305 22.7617C26.3648 22.8771 27.25 23.8352 27.25 25C27.25 26.1648 26.3648 27.1229 25.2305 27.2383L25 27.25H13C11.7574 27.25 10.75 26.2426 10.75 25C10.75 23.7574 11.7574 22.75 13 22.75H25Z"
  />
</svg>
