<svg
  width="60"
  height="60"
  viewBox="0 0 60 60"
  fill="currentColor"
  xmlns="http://www.w3.org/2000/svg"
>
  <path
    d="M24.1831 20.0264C25.4223 19.6709 26.7095 19.8715 27.8813 20.1641C29.171 20.4861 30.7894 21.0529 32.7505 21.7363L45.3491 26.127L47.5815 26.9072C49.6896 27.6494 51.4276 28.2862 52.7759 28.8848C54.3369 29.5778 55.9365 30.4398 56.8003 31.8271L56.9634 32.1123C57.9663 34.0327 57.9835 36.3097 57.0288 38.2354L56.8237 38.6152C56.3547 39.4264 55.6612 40.0148 54.9536 40.4648C54.2434 40.9166 53.3943 41.3082 52.4595 41.6748C51.0671 42.2209 49.2754 42.7908 47.1011 43.4531L44.8003 44.1484C44.6445 44.1954 44.5235 44.2321 44.4194 44.2646C44.3736 44.279 44.3352 44.2929 44.3022 44.3037C44.2915 44.3365 44.2784 44.3746 44.2642 44.4199L44.147 44.8008C43.1719 48.0381 42.4014 50.6036 41.6733 52.46C41.3068 53.3945 40.916 54.244 40.4644 54.9541C40.0704 55.5734 39.571 56.182 38.9087 56.6387L38.6147 56.8242C36.7388 57.9086 34.4654 58.0221 32.5005 57.1504L32.1108 56.9639C30.5545 56.1507 29.6225 54.4416 28.8833 52.7764C28.0852 50.9783 27.22 48.4875 26.1265 45.3496L21.7349 32.751C21.0514 30.7899 20.4866 29.1715 20.1646 27.8818C19.8525 26.6318 19.6445 25.2508 20.105 23.9365L20.2319 23.6045C20.9111 21.9701 22.2553 20.6946 23.936 20.1055L24.1831 20.0264ZM25.4751 24.3428L25.4253 24.3516C24.9861 24.5055 24.6276 24.8271 24.4272 25.2412L24.3521 25.4248C24.3485 25.4373 24.3297 25.5152 24.3394 25.7041C24.3514 25.9395 24.4029 26.2837 24.5298 26.792C24.7904 27.8357 25.2719 29.2245 25.9849 31.2705L30.3755 43.8682C31.497 47.0865 32.2923 49.3636 32.9966 50.9502C33.3456 51.7365 33.6332 52.2613 33.8735 52.6035C34.1123 52.9433 34.2282 52.9927 34.1958 52.9756L34.3247 53.0381C34.9796 53.3285 35.7376 53.2901 36.3628 52.9287L36.4136 52.8789C36.4659 52.8239 36.5522 52.7203 36.6675 52.5391C36.8964 52.1791 37.1651 51.6317 37.4849 50.8164C38.1297 49.1722 38.84 46.8206 39.8394 43.5029L39.9575 43.1113C40.0883 42.6884 40.2666 42.1857 40.563 41.7412L40.6831 41.5693C40.9327 41.2325 41.2311 40.9342 41.5679 40.6846L41.7397 40.5635L41.9663 40.4238C42.5034 40.1215 43.0892 39.9643 43.5024 39.8398C46.8204 38.8404 49.1727 38.1302 50.8169 37.4854C51.632 37.1656 52.1787 36.8959 52.5386 36.667C52.8997 36.4372 52.951 36.3241 52.9282 36.3633L52.9956 36.2363C53.3139 35.5945 53.3083 34.8364 52.9741 34.1963C52.9921 34.2305 52.9448 34.1141 52.603 33.874C52.2609 33.6337 51.7367 33.347 50.9507 32.998C49.3642 32.2938 47.0869 31.4985 43.8687 30.377L31.269 25.9854C29.2237 25.2726 27.8361 24.7909 26.7925 24.5303C26.2839 24.4033 25.9391 24.3519 25.7036 24.3398C25.5917 24.3341 25.5185 24.3376 25.4751 24.3428ZM14.3062 34.1895C15.1848 33.3108 16.6101 33.3109 17.4888 34.1895C18.3674 35.0681 18.3674 36.4934 17.4888 37.3721L12.3521 42.5078C11.4734 43.3865 10.0491 43.3865 9.17041 42.5078C8.29185 41.6291 8.2918 40.2048 9.17041 39.3262L14.3062 34.1895ZM11.7485 23.5146C12.9911 23.5147 13.9985 24.522 13.9985 25.7646C13.9985 27.0072 12.9911 28.0146 11.7485 28.0146H4.48486C3.24227 28.0146 2.23493 27.0072 2.23486 25.7646C2.23486 24.522 3.24222 23.5146 4.48486 23.5146H11.7485ZM9.17041 9.01953C10.049 8.14121 11.4734 8.14131 12.3521 9.01953L17.4888 14.1562C18.3672 15.0349 18.3672 16.4592 17.4888 17.3379C16.6101 18.2166 15.1848 18.2166 14.3062 17.3379L9.17041 12.2021C8.29173 11.3235 8.29173 9.89821 9.17041 9.01953ZM39.4761 9.01953C40.3547 8.14124 41.7791 8.14128 42.6577 9.01953C43.5364 9.89821 43.5364 11.3235 42.6577 12.2021L37.522 17.3379C36.6433 18.2166 35.218 18.2166 34.3394 17.3379C33.4611 16.4593 33.461 15.0348 34.3394 14.1562L39.4761 9.01953ZM25.9136 2.08496C27.1562 2.08496 28.1636 3.09232 28.1636 4.33496V11.5986C28.1635 12.8412 27.1562 13.8486 25.9136 13.8486C24.6711 13.8484 23.6636 12.8411 23.6636 11.5986V4.33496C23.6636 3.09243 24.6711 2.08514 25.9136 2.08496Z"
  />
</svg>
