<svg
  width="60"
  height="60"
  viewBox="0 0 60 60"
  fill="currentColor"
  xmlns="http://www.w3.org/2000/svg"
>
  <path
    d="M28.79 24.5098C30.0923 24.1612 31.4497 24.4293 32.6729 24.7822C34.0352 25.1753 35.7538 25.8449 37.8535 26.6602L46.9189 30.1787C49.5745 31.2098 51.6943 32.0324 53.2266 32.7695C53.999 33.1412 54.7088 33.5316 55.3027 33.9668C55.8193 34.3454 56.3366 34.821 56.7197 35.4365L56.875 35.709C57.8796 37.6361 57.8069 39.9358 56.708 41.7871L56.4746 42.1514C55.9936 42.8473 55.3376 43.3303 54.6982 43.6865C54.055 44.0448 53.3026 44.3441 52.4902 44.6172C50.9558 45.133 48.8831 45.6573 46.3037 46.3057C45.6555 48.8842 45.1308 50.9561 44.6152 52.4902C44.3422 53.3026 44.0428 54.0551 43.6846 54.6982C43.373 55.2575 42.9654 55.8297 42.4023 56.2861L42.1504 56.4756C40.3622 57.7114 38.0701 57.9232 36.0967 57.0615L35.7061 56.875C34.9562 56.4838 34.3973 55.892 33.9648 55.3018C33.5299 54.708 33.139 53.9996 32.7676 53.2275C32.0306 51.6954 31.2096 49.5753 30.1787 46.9199L26.6582 37.8535C25.8432 35.7542 25.1753 34.036 24.7822 32.6738C24.4058 31.3689 24.1256 29.9099 24.5879 28.5293C25.2107 26.67 26.67 25.2106 28.5293 24.5879L28.79 24.5098ZM29.959 28.8555C29.5035 29.008 29.1329 29.3393 28.9307 29.7686L28.8555 29.959C28.8535 29.9682 28.7759 30.2833 29.1055 31.4258C29.4291 32.5474 30.0061 34.0419 30.8535 36.2246L34.373 45.291C35.4331 48.0214 36.1812 49.9416 36.8232 51.2764C37.141 51.937 37.3933 52.3676 37.5947 52.6426C37.7142 52.8056 37.7882 52.8762 37.8125 52.8975C38.3749 53.1796 39.0451 53.1376 39.5684 52.7881C39.5898 52.764 39.6546 52.6854 39.7529 52.5088C39.9188 52.211 40.116 51.7525 40.3496 51.0576C40.8215 49.6536 41.3261 47.6552 42.04 44.8145L42.0889 44.6162C42.1551 44.3578 42.2788 43.9424 42.5098 43.5684L42.6143 43.4102C42.8309 43.1014 43.0994 42.8319 43.4082 42.6152L43.5664 42.5117L43.7559 42.4053C44.2014 42.1759 44.6579 42.0798 44.8125 42.041L46.79 41.542C48.6163 41.077 50.0035 40.7046 51.0566 40.3506C51.7518 40.1169 52.211 39.9208 52.5088 39.7549C52.6813 39.6587 52.7601 39.5942 52.7861 39.5713C53.1367 39.0477 53.1791 38.3766 52.8965 37.8135C52.8746 37.7886 52.8043 37.7152 52.6426 37.5967C52.3675 37.3951 51.9365 37.1423 51.2754 36.8242C49.9405 36.182 48.0207 35.4343 45.29 34.374L36.2256 30.8545C34.0427 30.0069 32.5475 29.4292 31.4258 29.1055C30.5412 28.8503 30.1522 28.8388 30.0176 28.8477L29.959 28.8555ZM35.5996 4.75C38.0827 4.75 40.0807 4.74805 41.6943 4.87988C43.3342 5.01387 44.7748 5.29754 46.1074 5.97656L46.5 6.18555C48.4371 7.27106 50.0123 8.9082 51.0234 10.8926L51.1465 11.1436C51.7376 12.4059 51.9945 13.7682 52.1201 15.3057C52.2519 16.9193 52.25 18.9173 52.25 21.4004V21.6592C52.25 22.9018 51.2426 23.9092 50 23.9092C48.7574 23.9092 47.75 22.9018 47.75 21.6592V21.4004C47.75 18.843 47.7482 17.0598 47.6348 15.6719C47.5374 14.4803 47.3666 13.7323 47.123 13.167L47.0146 12.9355C46.4079 11.7448 45.4622 10.7627 44.2998 10.1113L44.0645 9.98535C43.4719 9.68348 42.6895 9.47648 41.3281 9.36524C39.9402 9.25184 38.157 9.25 35.5996 9.25H21.4004C18.843 9.25 17.0598 9.25184 15.6719 9.36524C14.3105 9.47648 13.5281 9.68348 12.9355 9.98535C11.6655 10.6325 10.6325 11.6655 9.98535 12.9355C9.68348 13.5281 9.47648 14.3105 9.36524 15.6719C9.25184 17.0598 9.25 18.843 9.25 21.4004V35.5996C9.25 38.157 9.25184 39.9402 9.36524 41.3281C9.47648 42.6895 9.68348 43.4719 9.98535 44.0645L10.1113 44.2998C10.7627 45.4622 11.7448 46.4079 12.9355 47.0146L13.167 47.123C13.7323 47.3666 14.4803 47.5374 15.6719 47.6348C17.0598 47.7482 18.843 47.75 21.4004 47.75H21.6592L21.8887 47.7617C23.0235 47.8767 23.9092 48.8349 23.9092 50C23.9092 51.1651 23.0235 52.1233 21.8887 52.2383L21.6592 52.25H21.4004C18.9173 52.25 16.9193 52.2519 15.3057 52.1201C13.7682 51.9945 12.4059 51.7376 11.1436 51.1465L10.8926 51.0234C8.9082 50.0123 7.27106 48.4371 6.18555 46.5L5.97656 46.1074C5.29754 44.7748 5.01387 43.3342 4.87988 41.6943C4.74805 40.0807 4.75 38.0827 4.75 35.5996V21.4004C4.75 18.9173 4.74805 16.9193 4.87988 15.3057C5.01387 13.6658 5.29754 12.2252 5.97656 10.8926C7.05511 8.7759 8.7759 7.05511 10.8926 5.97656C12.2252 5.29754 13.6658 5.01387 15.3057 4.87988C16.9193 4.74805 18.9173 4.75 21.4004 4.75H35.5996Z"
  />
</svg>
