<svg
  width="21"
  height="20"
  viewBox="0 0 21 20"
  fill="currentColor"
  xmlns="http://www.w3.org/2000/svg"
>
  <path
    d="M8.79346 6.59741C9.1954 6.47784 9.61235 6.5336 9.99398 6.62085C10.4113 6.71627 10.9332 6.8876 11.5633 7.09351L16.1196 8.58244C17.1421 8.91656 17.9557 9.18162 18.5454 9.43042C19.0596 9.64737 19.5861 9.91992 19.881 10.3695L19.9367 10.462C20.2844 11.0883 20.3118 11.84 20.0171 12.4867L19.9539 12.6147C19.6815 13.1244 19.1236 13.4279 18.5789 13.6681C17.9933 13.9262 17.1844 14.2047 16.1675 14.5551L15.7339 14.7045C15.6879 14.7204 15.6521 14.7324 15.6216 14.7432C15.6088 14.7478 15.5977 14.7522 15.5884 14.7556C15.585 14.7648 15.5811 14.7756 15.5767 14.7882L15.5376 14.9008L15.3882 15.3341C15.0377 16.3511 14.7597 17.1602 14.5015 17.7458C14.2763 18.2565 13.9955 18.7784 13.5412 19.0662L13.4478 19.1205C12.816 19.458 12.0643 19.4733 11.4224 19.1684L11.2954 19.1033C10.7901 18.8227 10.4955 18.2604 10.2642 17.712C10.0154 17.1223 9.74999 16.3084 9.41585 15.2859L7.92692 10.7299C7.72099 10.0997 7.55001 9.57759 7.45459 9.16024C7.36154 8.75322 7.30406 8.30629 7.45719 7.87996L7.49951 7.77157C7.72553 7.23796 8.16471 6.82057 8.71338 6.62345L8.79346 6.59741ZM9.24202 8.03101L9.22054 8.03524C9.07725 8.08672 8.96044 8.19176 8.89404 8.3269L8.86865 8.3868C8.86724 8.39073 8.83769 8.48114 8.9165 8.82593C8.99301 9.16055 9.13749 9.60547 9.3527 10.2641L10.842 14.8204C11.1849 15.87 11.4275 16.6108 11.646 17.1287C11.7542 17.3851 11.8441 17.5561 11.9198 17.6681C11.9952 17.7797 12.0327 17.797 12.0233 17.7917L12.0656 17.8132C12.2795 17.9149 12.5301 17.91 12.7407 17.7976L12.7612 17.7797C12.7792 17.7624 12.8079 17.7306 12.8465 17.6755C12.924 17.5648 13.0165 17.3953 13.1287 17.1407C13.3555 16.6264 13.6104 15.8895 13.9702 14.8455L14.1193 14.4119L14.1593 14.2953C14.2037 14.1694 14.2635 14.0191 14.3563 13.8845L14.394 13.8321C14.4718 13.7297 14.5634 13.6384 14.6659 13.5606L14.7176 13.5229L14.7863 13.4792C14.9481 13.3833 15.1221 13.3282 15.245 13.2859L15.6789 13.1368L16.4058 12.8855C17.0774 12.6516 17.5881 12.4657 17.9738 12.2957C18.2284 12.1834 18.3982 12.0909 18.509 12.0134C18.6192 11.9363 18.636 11.8983 18.631 11.9076L18.6519 11.865C18.7501 11.6494 18.7411 11.3987 18.6252 11.1899L18.6073 11.17C18.5896 11.1523 18.5573 11.1241 18.5015 11.0863C18.3895 11.0107 18.2185 10.9208 17.9621 10.8126C17.4442 10.5941 16.7034 10.3512 15.6538 10.0082L11.0975 8.51929C10.439 8.30409 9.99428 8.1596 9.65967 8.08309C9.40069 8.02388 9.28512 8.0258 9.24202 8.03101ZM5.60238 11.3966C5.89526 11.1037 6.37035 11.1037 6.66325 11.3966C6.95614 11.6895 6.95614 12.1645 6.66325 12.4574L4.95101 14.1694C4.65811 14.4622 4.18335 14.4622 3.89046 14.1694C3.59761 13.8765 3.59759 13.4017 3.89046 13.1088L5.60238 11.3966ZM4.74984 7.8383C5.16404 7.83831 5.49984 8.17409 5.49984 8.5883C5.49981 9.00248 5.16403 9.33829 4.74984 9.3383H2.32861C1.91441 9.3383 1.57864 9.00249 1.57861 8.5883C1.57861 8.17408 1.9144 7.8383 2.32861 7.8383H4.74984ZM3.89046 3.00659C4.18332 2.71382 4.65813 2.71385 4.95101 3.00659L6.66325 4.71883C6.95607 5.0117 6.95605 5.4865 6.66325 5.77938C6.37036 6.07227 5.89527 6.07227 5.60238 5.77938L3.89046 4.06746C3.59757 3.77457 3.59757 3.29948 3.89046 3.00659ZM13.9924 3.00659C14.2852 2.71383 14.76 2.71384 15.0529 3.00659C15.3458 3.29949 15.3458 3.77457 15.0529 4.06746L13.341 5.77938C13.0481 6.07227 12.573 6.07227 12.2801 5.77938C11.9874 5.4865 11.9873 5.01169 12.2801 4.71883L13.9924 3.00659ZM9.47152 0.695068C9.88573 0.695068 10.2215 1.03085 10.2215 1.44507V3.86629C10.2215 4.2805 9.88572 4.61629 9.47152 4.61629C9.05736 4.61623 8.72153 4.28046 8.72152 3.86629V1.44507C8.72152 1.03089 9.05736 0.69513 9.47152 0.695068Z"
  />
</svg>
