<svg
  width="60"
  height="60"
  viewBox="0 0 60 60"
  fill="currentColor"
  xmlns="http://www.w3.org/2000/svg"
>
  <path
    fill-rule="evenodd"
    clip-rule="evenodd"
    d="M28.2912 26.4819C28.291 24.373 27.0511 22.4279 25.089 21.6382C23.2036 20.8794 20.7474 19.0175 20.7475 15.9993L20.7477 6.99918C20.7477 5.75654 21.7551 4.7492 22.9977 4.74922C24.2403 4.74925 25.2477 5.75662 25.2477 6.99926L25.2475 15.9994C25.2475 16.1567 25.3053 16.3759 25.5625 16.6629C25.8323 16.964 26.2579 17.2579 26.7691 17.4636C30.5395 18.981 32.7909 22.6515 32.7912 26.4814C32.7916 30.4307 30.4357 34.3209 25.583 36.4436C24.1023 37.0913 22.5574 37.2498 21.214 37.2498L15.9975 37.2496C13.9263 37.2495 12.2473 38.9285 12.2473 40.9996L12.2473 52.9994C12.2473 54.242 11.24 55.2494 9.99731 55.2494C8.75467 55.2494 7.74731 54.242 7.74731 52.9994L7.74733 40.9996C7.74733 36.4431 11.4411 32.7494 15.9976 32.7496L21.2141 32.7498C22.2386 32.7498 23.091 32.622 23.7796 32.3207C27.1572 30.8433 28.2914 28.4714 28.2912 26.4819Z"
  />
  <path
    fill-rule="evenodd"
    clip-rule="evenodd"
    d="M44.5933 18.768C42.6716 16.839 39.8243 15.3605 35.7558 14.8996C33.1529 14.6047 30.7474 12.4744 30.7477 9.49945L30.7479 6.9991C30.748 5.75646 31.7554 4.74918 32.998 4.74928C34.2407 4.74938 35.248 5.75682 35.2479 6.99946L35.2477 9.4998C35.2477 9.68651 35.3196 9.88076 35.4963 10.0618C35.6808 10.251 35.9542 10.3933 36.2623 10.4282C41.2088 10.9886 45.0472 12.8474 47.7813 15.592C50.5036 18.3246 51.9992 21.8022 52.5041 25.3915C53.4996 32.4679 50.6908 40.3632 45.1856 44.7797C41.6952 47.5798 37.1262 47.75 33.5847 47.75L25.9975 47.75C23.9265 47.75 22.2475 49.429 22.2475 51.5L22.2475 52.9995C22.2475 54.2421 21.2401 55.2495 19.9975 55.2495C18.7549 55.2494 17.7475 54.2421 17.7475 52.9994L17.7475 51.5C17.7476 46.9437 21.4412 43.2501 25.9975 43.25L33.5846 43.25C37.2314 43.25 40.2531 42.9676 42.3696 41.2696C46.5218 37.9386 48.8437 31.6748 48.048 26.0184C47.6573 23.2413 46.527 20.7089 44.5933 18.768Z"
  />
</svg>
