<svg
  width="60"
  height="60"
  viewBox="0 0 60 60"
  fill="currentColor"
  xmlns="http://www.w3.org/2000/svg"
>
  <path
    d="M9 7.5C9 8.88071 7.88071 10 6.5 10C5.11929 10 4 8.88071 4 7.5C4 6.11929 5.11929 5 6.5 5C7.88071 5 9 6.11929 9 7.5Z"
  />
  <path
    d="M9 19.5C9 20.8807 7.88071 22 6.5 22C5.11929 22 4 20.8807 4 19.5C4 18.1193 5.11929 17 6.5 17C7.88071 17 9 18.1193 9 19.5Z"
  />
  <path
    d="M9 31.5C9 32.8807 7.88071 34 6.5 34C5.11929 34 4 32.8807 4 31.5C4 30.1193 5.11929 29 6.5 29C7.88071 29 9 30.1193 9 31.5Z"
  />
  <path
    d="M20 31.5C20 32.8807 18.8807 34 17.5 34C16.1193 34 15 32.8807 15 31.5C15 30.1193 16.1193 29 17.5 29C18.8807 29 20 30.1193 20 31.5Z"
  />
  <path
    d="M20 7.5C20 8.88071 18.8807 10 17.5 10C16.1193 10 15 8.88071 15 7.5C15 6.11929 16.1193 5 17.5 5C18.8807 5 20 6.11929 20 7.5Z"
  />
  <path
    d="M32 7.5C32 8.88071 30.8807 10 29.5 10C28.1193 10 27 8.88071 27 7.5C27 6.11929 28.1193 5 29.5 5C30.8807 5 32 6.11929 32 7.5Z"
  />
  <path
    d="M44 7.5C44 8.88071 42.8807 10 41.5 10C40.1193 10 39 8.88071 39 7.5C39 6.11929 40.1193 5 41.5 5C42.8807 5 44 6.11929 44 7.5Z"
  />
  <path
    d="M44 31.5C44 32.8807 42.8807 34 41.5 34C40.1193 34 39 32.8807 39 31.5C39 30.1193 40.1193 29 41.5 29C42.8807 29 44 30.1193 44 31.5Z"
  />
  <path
    d="M56 7.5C56 8.88071 54.8807 10 53.5 10C52.1193 10 51 8.88071 51 7.5C51 6.11929 52.1193 5 53.5 5C54.8807 5 56 6.11929 56 7.5Z"
  />
  <path
    d="M56 19.5C56 20.8807 54.8807 22 53.5 22C52.1193 22 51 20.8807 51 19.5C51 18.1193 52.1193 17 53.5 17C54.8807 17 56 18.1193 56 19.5Z"
  />
  <path
    d="M56 31.5C56 32.8807 54.8807 34 53.5 34C52.1193 34 51 32.8807 51 31.5C51 30.1193 52.1193 29 53.5 29C54.8807 29 56 30.1193 56 31.5Z"
  />
  <path
    fill-rule="evenodd"
    clip-rule="evenodd"
    d="M21.75 26.25C21.75 21.8317 25.3317 18.25 29.75 18.25C34.1683 18.25 37.75 21.8317 37.75 26.25V38.718L46.2153 40.7098C46.3228 40.7351 46.4289 40.76 46.5336 40.7845C48.288 41.1959 49.6569 41.5168 50.7836 42.2013C52.47 43.2259 53.7334 44.821 54.3445 46.6973C54.7527 47.9508 54.7516 49.3568 54.7502 51.1588C54.7501 51.2663 54.75 51.3753 54.75 51.4857V53C54.75 54.2426 53.7426 55.25 52.5 55.25C51.2574 55.25 50.25 54.2426 50.25 53V51.4857C50.25 49.1982 50.2229 48.5737 50.0657 48.0908C49.7879 47.238 49.2136 46.5129 48.4471 46.0472C48.013 45.7835 47.4114 45.6141 45.1847 45.0902L35.7343 42.8666C34.2787 42.5241 33.25 41.2252 33.25 39.7299V26.25C33.25 24.317 31.683 22.75 29.75 22.75C27.817 22.75 26.25 24.317 26.25 26.25V53C26.25 54.2426 25.2426 55.25 24 55.25C22.7574 55.25 21.75 54.2426 21.75 53V26.25Z"
  />
</svg>
