<svg
  width="60"
  height="60"
  viewBox="0 0 60 60"
  fill="currentColor"
  xmlns="http://www.w3.org/2000/svg"
>
  <path
    d="M21.591 4.40901C20.7123 3.53033 19.2877 3.53033 18.409 4.40901C17.5303 5.28769 17.5303 6.71231 18.409 7.59099L22.0451 11.227C26.4385 15.6204 33.5616 15.6204 37.9549 11.227L41.591 7.59099C42.4697 6.71231 42.4697 5.28769 41.591 4.40901C40.7123 3.53033 39.2877 3.53033 38.409 4.40901L34.773 8.04505C32.1369 10.6811 27.8631 10.6811 25.227 8.04505L21.591 4.40901Z"
  />
  <path
    fill-rule="evenodd"
    clip-rule="evenodd"
    d="M4.75 23C4.75 18.9959 7.99594 15.75 12 15.75H48C52.0041 15.75 55.25 18.9959 55.25 23C55.25 25.8356 53.6222 28.2909 51.25 29.4825V44.4914C51.25 46.0938 51.2501 47.4313 51.1608 48.524C51.0677 49.6637 50.8663 50.7336 50.3508 51.7454C49.5599 53.2978 48.2978 54.5598 46.7454 55.3508C45.7336 55.8663 44.6637 56.0677 43.524 56.1608C42.4314 56.2501 41.0939 56.25 39.4916 56.25H20.5087C18.9064 56.25 17.5686 56.2501 16.476 56.1608C15.3363 56.0677 14.2664 55.8663 13.2546 55.3508C11.7022 54.5598 10.4402 53.2978 9.6492 51.7454C9.13367 50.7336 8.93233 49.6637 8.83922 48.524C8.74994 47.4313 8.74997 46.0938 8.75 44.4913L8.75 29.4825C6.37785 28.2909 4.75 25.8356 4.75 23ZM13.25 30.25H46.75V44.4C46.75 46.1173 46.7483 47.2699 46.6757 48.1576C46.6054 49.0189 46.4797 49.4308 46.3413 49.7025C45.9818 50.4081 45.4081 50.9818 44.7025 51.3413C44.4308 51.4797 44.0189 51.6054 43.1576 51.6757C42.2699 51.7483 41.1173 51.75 39.4 51.75H20.6C18.8827 51.75 17.7301 51.7483 16.8424 51.6757C15.9811 51.6054 15.5692 51.4797 15.2975 51.3413C14.5919 50.9818 14.0183 50.4081 13.6587 49.7025C13.5203 49.4308 13.3947 49.0189 13.3243 48.1576C13.2518 47.2699 13.25 46.1173 13.25 44.4V30.25ZM50.75 23C50.75 24.5188 49.5188 25.75 48 25.75H12C10.4812 25.75 9.25 24.5188 9.25 23C9.25 21.4812 10.4812 20.25 12 20.25H48C49.5188 20.25 50.75 21.4812 50.75 23Z"
  />
</svg>
