<svg
  width="60"
  height="60"
  viewBox="0 0 60 60"
  fill="currentColor"
  xmlns="http://www.w3.org/2000/svg"
>
  <path
    d="M21.0517 4.37069C20.1519 3.5137 18.7277 3.54844 17.8707 4.44828C17.0137 5.34812 17.0484 6.77232 17.9483 7.62931L18.5851 8.23579C20.2737 9.84399 21.6377 11.1431 22.8304 12.1099C24.0601 13.1067 25.2495 13.8711 26.6281 14.3042C28.8231 14.9938 31.1769 14.9938 33.3719 14.3042C34.7505 13.8711 35.9399 13.1067 37.1696 12.1099C38.3623 11.1431 39.7264 9.84399 41.4149 8.23578L42.0517 7.62931C42.9516 6.77232 42.9863 5.34812 42.1293 4.44828C41.2723 3.54844 39.8481 3.5137 38.9483 4.37069L38.3793 4.91257C36.607 6.60052 35.3723 7.77406 34.336 8.61408C33.3208 9.43697 32.6397 9.81742 32.0232 10.0111C30.7061 10.4249 29.2939 10.4249 27.9769 10.0111C27.3604 9.81742 26.6792 9.43697 25.664 8.61408C24.6277 7.77406 23.393 6.60052 21.6207 4.91257L21.0517 4.37069Z"
  />
  <path
    fill-rule="evenodd"
    clip-rule="evenodd"
    d="M4.75 23C4.75 18.9959 7.99594 15.75 12 15.75H48C52.0041 15.75 55.25 18.9959 55.25 23C55.25 25.8356 53.6222 28.2909 51.25 29.4825V39.6964C51.25 42.1348 51.25 44.1017 51.1199 45.6944C50.9859 47.3343 50.7028 48.7747 50.0238 50.1074C48.9452 52.2242 47.2242 53.9453 45.1074 55.0238C43.7747 55.7029 42.3343 55.9859 40.6944 56.1199C39.1017 56.25 37.1348 56.25 34.6963 56.25H25.3037C22.8652 56.25 20.8983 56.25 19.3056 56.1199C17.6657 55.9859 16.2253 55.7029 14.8926 55.0238C12.7758 53.9453 11.0548 52.2242 9.97618 50.1074C9.29716 48.7747 9.01408 47.3343 8.88009 45.6944C8.74996 44.1017 8.74998 42.1348 8.75 39.6963L8.75 29.4825C6.37785 28.2909 4.75 25.8356 4.75 23ZM13.25 30.25H46.75V39.6C46.75 42.1574 46.7482 43.9401 46.6349 45.328C46.5236 46.6896 46.3162 47.4719 46.0143 48.0644C45.3671 49.3345 44.3345 50.3672 43.0644 51.0143C42.4719 51.3162 41.6896 51.5236 40.328 51.6349C38.9401 51.7483 37.1574 51.75 34.6 51.75H25.4C22.8426 51.75 21.0599 51.7483 19.672 51.6349C18.3104 51.5236 17.5281 51.3162 16.9356 51.0143C15.6655 50.3672 14.6329 49.3345 13.9857 48.0644C13.6838 47.4719 13.4764 46.6896 13.3651 45.328C13.2518 43.9401 13.25 42.1574 13.25 39.6V30.25ZM50.75 23C50.75 24.5188 49.5188 25.75 48 25.75H12C10.4812 25.75 9.25 24.5188 9.25 23C9.25 21.4812 10.4812 20.25 12 20.25H48C49.5188 20.25 50.75 21.4812 50.75 23Z"
  />
</svg>
