<svg
  width="60"
  height="60"
  viewBox="0 0 60 60"
  fill="currentColor"
  xmlns="http://www.w3.org/2000/svg"
>
  <path
    d="M51.25 25.75H8.75L8.75 44.4913C8.74997 46.0937 8.74995 47.4313 8.83922 48.524C8.93234 49.6637 9.13367 50.7336 9.6492 51.7454C10.4402 53.2978 11.7022 54.5598 13.2546 55.3508C14.2664 55.8663 15.3363 56.0677 16.476 56.1608C17.5687 56.2501 18.9063 56.25 20.5087 56.25H39.4913C41.0938 56.25 42.4313 56.2501 43.524 56.1608C44.6637 56.0677 45.7336 55.8663 46.7454 55.3508C48.2978 54.5598 49.5599 53.2978 50.3508 51.7454C50.8663 50.7336 51.0677 49.6637 51.1608 48.524C51.2501 47.4313 51.25 46.0938 51.25 44.4914V25.75Z"
    fill="#6128FF"
  />
  <path
    d="M51.25 25.75H8.75L8.75 44.4913C8.74997 46.0937 8.74995 47.4313 8.83922 48.524C8.93234 49.6637 9.13367 50.7336 9.6492 51.7454C10.4402 53.2978 11.7022 54.5598 13.2546 55.3508C14.2664 55.8663 15.3363 56.0677 16.476 56.1608C17.5687 56.2501 18.9063 56.25 20.5087 56.25H39.4913C41.0938 56.25 42.4313 56.2501 43.524 56.1608C44.6637 56.0677 45.7336 55.8663 46.7454 55.3508C48.2978 54.5598 49.5599 53.2978 50.3508 51.7454C50.8663 50.7336 51.0677 49.6637 51.1608 48.524C51.2501 47.4313 51.25 46.0938 51.25 44.4914V25.75Z"
    fill="url(#paint0_linear_506_8793)"
  />
  <path
    d="M12 15.75C7.99594 15.75 4.75 18.9959 4.75 23C4.75 27.0041 7.99593 30.25 12 30.25H48C52.0041 30.25 55.25 27.0041 55.25 23C55.25 18.9959 52.0041 15.75 48 15.75H12Z"
    fill="#CABEFF"
  />
  <path
    d="M12 15.75C7.99594 15.75 4.75 18.9959 4.75 23C4.75 27.0041 7.99593 30.25 12 30.25H48C52.0041 30.25 55.25 27.0041 55.25 23C55.25 18.9959 52.0041 15.75 48 15.75H12Z"
    fill="url(#paint1_linear_506_8793)"
  />
  <path
    fill-rule="evenodd"
    clip-rule="evenodd"
    d="M18.409 4.40901C19.2877 3.53033 20.7123 3.53033 21.591 4.40901L25.227 8.04505C27.8631 10.6811 32.1369 10.6811 34.773 8.04505L38.409 4.40901C39.2877 3.53033 40.7123 3.53033 41.591 4.40901C42.4697 5.28769 42.4697 6.71231 41.591 7.59099L37.955 11.227C33.5616 15.6204 26.4385 15.6204 22.0451 11.227L18.409 7.59099C17.5303 6.71231 17.5303 5.28769 18.409 4.40901Z"
    fill="#6128FF"
  />
  <defs>
    <linearGradient
      id="paint0_linear_506_8793"
      x1="42.3958"
      y1="45.8716"
      x2="30.3783"
      y2="24.653"
      gradientUnits="userSpaceOnUse"
    >
      <stop stop-color="#6128FF" />
      <stop offset="1" stop-color="#7A59FF" stop-opacity="0.24" />
    </linearGradient>
    <linearGradient
      id="paint1_linear_506_8793"
      x1="30"
      y1="30"
      x2="23.2883"
      y2="10.4174"
      gradientUnits="userSpaceOnUse"
    >
      <stop stop-color="#6128FF" />
      <stop offset="1" stop-color="#7A59FF" stop-opacity="0.24" />
    </linearGradient>
  </defs>
</svg>
