<svg
  width="60"
  height="60"
  viewBox="0 0 60 60"
  fill="currentColor"
  xmlns="http://www.w3.org/2000/svg"
>
  <path
    fill-rule="evenodd"
    clip-rule="evenodd"
    d="M21.2669 8.30182C22.3431 8.92314 22.7118 10.2992 22.0905 11.3754L12.3228 28.2935C13.1845 28.1014 14.0804 28.0001 15 28.0001C20.4717 28.0001 25.1056 31.5875 26.6777 36.5387C28.813 35.7258 31.187 35.7258 33.3223 36.5387C34.8944 31.5875 39.5283 28.0001 45 28.0001C45.9782 28.0001 46.9297 28.1147 47.8416 28.3313L38.0521 11.3754C37.4308 10.2992 37.7995 8.92314 38.8757 8.30182C39.9518 7.6805 41.3279 8.04922 41.9492 9.12538L56.9492 35.1061C57.3764 35.846 57.3356 36.7276 56.9187 37.4083C57.1353 38.3203 57.25 39.2718 57.25 40.2501C57.25 47.0155 51.7655 52.5001 45 52.5001C38.5956 52.5001 33.3391 47.5854 32.7962 41.3218C31.1281 40.1314 28.8719 40.1314 27.2038 41.3218C26.6609 47.5854 21.4044 52.5001 15 52.5001C8.23451 52.5001 2.75 47.0155 2.75 40.2501C2.75 39.2076 2.8802 38.1956 3.12523 37.2294C2.80344 36.5778 2.80274 35.7827 3.19336 35.1061L18.1934 9.12538C18.8147 8.04922 20.1908 7.6805 21.2669 8.30182ZM15 32.5001C10.7198 32.5001 7.25 35.9699 7.25 40.2501C7.25 44.5303 10.7198 48.0001 15 48.0001C19.2802 48.0001 22.75 44.5303 22.75 40.2501C22.75 35.9699 19.2802 32.5001 15 32.5001ZM37.25 40.2501C37.25 35.9699 40.7198 32.5001 45 32.5001C49.2802 32.5001 52.75 35.9699 52.75 40.2501C52.75 44.5303 49.2802 48.0001 45 48.0001C40.7198 48.0001 37.25 44.5303 37.25 40.2501Z"
  />
</svg>
