<svg
  width="60"
  height="60"
  viewBox="0 0 60 60"
  fill="currentColor"
  xmlns="http://www.w3.org/2000/svg"
>
  <path
    d="M30 2.75C14.9502 2.75 2.75 14.9502 2.75 30C2.75 45.0498 14.9502 57.25 30 57.25C45.0498 57.25 57.25 45.0498 57.25 30C57.25 14.9502 45.0498 2.75 30 2.75Z"
    fill="white"
  />
  <path
    fill-rule="evenodd"
    clip-rule="evenodd"
    d="M51.12 30.5C51.12 28.94 50.98 27.44 50.72 26H30V34.51H41.84C41.33 37.26 39.78 39.59 37.45 41.15V46.67H44.56C48.72 42.84 51.12 37.2 51.12 30.5Z"
    fill="#4285F4"
  />
  <path
    fill-rule="evenodd"
    clip-rule="evenodd"
    d="M30.0023 51.9968C35.9423 51.9968 40.9223 50.0268 44.5623 46.6668L37.4523 41.1468C35.4823 42.4668 32.9623 43.2468 30.0023 43.2468C24.2723 43.2468 19.4223 39.3768 17.6923 34.1768H10.3423V39.8768C13.9623 47.0668 21.4023 51.9968 30.0023 51.9968Z"
    fill="#34A853"
  />
  <path
    fill-rule="evenodd"
    clip-rule="evenodd"
    d="M17.69 34.1791C17.25 32.8591 17 31.4491 17 29.9991C17 28.5491 17.25 27.1391 17.69 25.8191V20.1191H10.34C8.85 23.0891 8 26.4491 8 29.9991C8 33.5491 8.85 36.9091 10.34 39.8791L17.69 34.1791Z"
    fill="#FBBC05"
  />
  <path
    fill-rule="evenodd"
    clip-rule="evenodd"
    d="M30.0023 16.75C33.2323 16.75 36.1323 17.86 38.4123 20.04L44.7223 13.73C40.9123 10.18 35.9323 8 30.0023 8C21.4023 8 13.9623 12.93 10.3423 20.12L17.6923 25.82C19.4223 20.62 24.2723 16.75 30.0023 16.75Z"
    fill="#EA4335"
  />
</svg>
