<svg
  width="60"
  height="60"
  viewBox="0 0 60 60"
  fill="currentColor"
  xmlns="http://www.w3.org/2000/svg"
>
  <path
    fill-rule="evenodd"
    clip-rule="evenodd"
    d="M55.2 30.5966C55.2 28.7352 55.033 26.9455 54.7227 25.2273H30V35.3813H44.1273C43.5188 38.6625 41.6693 41.4426 38.8892 43.304V49.8904H47.3727C52.3364 45.3205 55.2 38.5909 55.2 30.5966Z"
    fill="#4285F4"
  />
  <path
    fill-rule="evenodd"
    clip-rule="evenodd"
    d="M30.0026 56.2461C37.0901 56.2461 43.0322 53.8956 47.3754 49.8865L38.8918 43.3001C36.5413 44.8751 33.5345 45.8058 30.0026 45.8058C23.1657 45.8058 17.3788 41.1882 15.3146 34.9836H6.54468V41.7848C10.864 50.3638 19.7413 56.2461 30.0026 56.2461Z"
    fill="#34A853"
  />
  <path
    fill-rule="evenodd"
    clip-rule="evenodd"
    d="M15.3119 34.9865C14.7869 33.4115 14.4886 31.7291 14.4886 29.999C14.4886 28.2688 14.7869 26.5865 15.3119 25.0115V18.2103H6.54205C4.7642 21.7541 3.75 25.7632 3.75 29.999C3.75 34.2348 4.7642 38.2438 6.54205 41.7876L15.3119 34.9865Z"
    fill="#FBBC05"
  />
  <path
    fill-rule="evenodd"
    clip-rule="evenodd"
    d="M30.0026 14.1903C33.8566 14.1903 37.3168 15.5148 40.0373 18.1159L47.5663 10.5869C43.0203 6.35114 37.0782 3.75 30.0026 3.75C19.7413 3.75 10.864 9.63239 6.54468 18.2114L15.3146 25.0125C17.3788 18.808 23.1657 14.1903 30.0026 14.1903Z"
    fill="#EA4335"
  />
</svg>
