<svg
  width="60"
  height="60"
  viewBox="0 0 60 60"
  fill="currentColor"
  xmlns="http://www.w3.org/2000/svg"
>
  <path
    d="M40.2079 31.955C41.0866 31.0764 41.0866 29.6517 40.2079 28.7731C39.3292 27.8944 37.9046 27.8944 37.0259 28.7731L28.3638 37.4351L23.5909 32.6622C22.7122 31.7835 21.2876 31.7835 20.4089 32.6622C19.5302 33.5408 19.5302 34.9655 20.4089 35.8441L26.7729 42.2081C27.1948 42.6301 27.7671 42.8671 28.3638 42.8671C28.9606 42.8671 29.5329 42.6301 29.9548 42.2081L40.2079 31.955Z"
  />
  <path
    fill-rule="evenodd"
    clip-rule="evenodd"
    d="M21.8645 3.03112C22.921 2.74804 24.1352 2.74884 25.7066 2.74988H34.2929C35.8643 2.74884 37.0786 2.74804 38.135 3.03112C40.6015 3.69202 42.6003 5.44943 43.5865 7.75866C44.7169 7.77734 45.6186 7.83578 46.435 8.01677C50.7035 8.96307 54.0371 12.2967 54.9834 16.5652C55.2511 17.7725 55.2507 19.1664 55.2502 21.2107L55.2501 38.6965C55.2501 41.135 55.2501 43.1018 55.12 44.6945C54.986 46.3344 54.7029 47.7748 54.0239 49.1075C52.9454 51.2243 51.2243 52.9454 49.1075 54.0239C47.7748 54.7029 46.3344 54.986 44.6945 55.12C43.1018 55.2501 41.135 55.2501 38.6965 55.2501H21.3037C18.8652 55.2501 16.8984 55.2501 15.3057 55.12C13.6658 54.986 12.2254 54.7029 10.8927 54.0239C8.77589 52.9454 7.05486 51.2243 5.97628 49.1075C5.29726 47.7748 5.01418 46.3344 4.88019 44.6945C4.75006 43.1018 4.75008 41.1349 4.7501 38.6964L4.75005 21.2107C4.74949 19.1664 4.7491 17.7725 5.01677 16.5652C5.96307 12.2967 9.29669 8.96307 13.5652 8.01677C14.3814 7.83581 15.2829 7.77737 16.413 7.75867C17.3993 5.44944 19.398 3.69202 21.8645 3.03112ZM44.2499 12.703C44.25 12.5587 44.2501 12.4175 44.25 12.279C44.7943 12.3015 45.1494 12.341 45.4611 12.4101C48.0221 12.9779 50.0223 14.9781 50.5901 17.5391C50.7367 18.2002 50.7501 19.0562 50.7501 21.5001V38.6001C50.7501 41.1575 50.7484 42.9402 50.635 44.3281C50.5237 45.6897 50.3163 46.472 50.0144 47.0645C49.3673 48.3346 48.3346 49.3673 47.0645 50.0144C46.472 50.3163 45.6897 50.5237 44.3281 50.635C42.9402 50.7484 41.1575 50.7501 38.6001 50.7501H21.4001C18.8427 50.7501 17.06 50.7484 15.6721 50.635C14.3105 50.5237 13.5282 50.3163 12.9357 50.0144C11.6656 49.3673 10.633 48.3346 9.98581 47.0645C9.68389 46.472 9.4765 45.6897 9.36525 44.3281C9.25185 42.9402 9.2501 41.1575 9.2501 38.6001V21.5001C9.2501 19.0562 9.26355 18.2002 9.41011 17.5391C9.97788 14.9781 11.9781 12.9779 14.5391 12.4101C14.8507 12.341 15.2056 12.3015 15.7496 12.2791C15.7494 12.4187 15.7495 12.5612 15.7496 12.7069V13.2932C15.7486 14.8646 15.7478 16.0788 16.0309 17.1353C16.7937 19.9823 19.0175 22.206 21.8645 22.9689C22.921 23.252 24.1352 23.2512 25.7066 23.2501H34.2929C35.8643 23.2512 37.0786 23.252 38.135 22.9689C40.982 22.206 43.2058 19.9823 43.9687 17.1353C44.2517 16.0788 44.2509 14.8646 44.2499 13.2932V12.703ZM25.9998 7.25001C23.995 7.25001 23.4339 7.26933 23.0292 7.37779C21.7351 7.72454 20.7243 8.73534 20.3775 10.0294C20.2691 10.4342 20.2498 10.9952 20.2498 13C20.2498 15.0048 20.2691 15.5658 20.3775 15.9706C20.7243 17.2647 21.7351 18.2755 23.0292 18.6222C23.4339 18.7307 23.995 18.75 25.9998 18.75H33.9998C36.0046 18.75 36.5656 18.7307 36.9703 18.6222C38.2644 18.2755 39.2752 17.2647 39.622 15.9706C39.7304 15.5658 39.7498 15.0048 39.7498 13C39.7498 10.9952 39.7304 10.4342 39.622 10.0294C39.2752 8.73534 38.2644 7.72454 36.9703 7.37779C36.5656 7.26933 36.0046 7.25001 33.9998 7.25001H25.9998Z"
  />
</svg>
