<svg
  width="60"
  height="60"
  viewBox="0 0 60 60"
  fill="currentColor"
  xmlns="http://www.w3.org/2000/svg"
>
  <path
    d="M24.0721 22.4366C24.9508 21.5579 24.9508 20.1333 24.0721 19.2546C23.1934 18.3759 21.7688 18.3759 20.8901 19.2546L18.7587 21.386L18.5041 21.1315C17.6254 20.2528 16.2008 20.2528 15.3221 21.1315C14.4434 22.0101 14.4434 23.4348 15.3221 24.3134L17.1677 26.159C17.5896 26.581 18.1619 26.818 18.7587 26.818C19.3554 26.818 19.9277 26.581 20.3497 26.159L24.0721 22.4366Z"
  />
  <path
    d="M30.9998 20.75C29.7572 20.75 28.7498 21.7574 28.7498 23C28.7498 24.2427 29.7572 25.25 30.9998 25.25L42.9998 25.25C44.2425 25.25 45.2498 24.2427 45.2498 23C45.2498 21.7574 44.2425 20.75 42.9998 20.75L30.9998 20.75Z"
  />
  <path
    d="M24.0721 35.2546C24.9508 36.1333 24.9508 37.5579 24.0721 38.4366L20.3497 42.159C19.9277 42.581 19.3554 42.818 18.7587 42.818C18.1619 42.818 17.5896 42.581 17.1677 42.159L15.3221 40.3134C14.4434 39.4348 14.4434 38.0101 15.3221 37.1315C16.2008 36.2528 17.6254 36.2528 18.5041 37.1315L18.7587 37.3861L20.8901 35.2546C21.7688 34.3759 23.1934 34.3759 24.0721 35.2546Z"
  />
  <path
    d="M30.9998 36.75C29.7572 36.75 28.7498 37.7574 28.7498 39C28.7498 40.2427 29.7572 41.25 30.9998 41.25H42.9998C44.2425 41.25 45.2498 40.2427 45.2498 39C45.2498 37.7574 44.2425 36.75 42.9998 36.75H30.9998Z"
  />
  <path
    fill-rule="evenodd"
    clip-rule="evenodd"
    d="M38.6963 4.75H21.3037C18.8652 4.74998 16.8983 4.74996 15.3056 4.88009C13.6657 5.01408 12.2253 5.29716 10.8926 5.97618C8.77578 7.05475 7.05475 8.77578 5.97618 10.8926C5.29716 12.2253 5.01408 13.6657 4.88009 15.3056C4.74996 16.8983 4.74998 18.8652 4.75 21.3037V38.6963C4.74998 41.1348 4.74996 43.1017 4.88009 44.6944C5.01408 46.3343 5.29716 47.7747 5.97618 49.1074C7.05475 51.2242 8.77578 52.9452 10.8926 54.0238C12.2253 54.7028 13.6657 54.9859 15.3056 55.1199C16.8983 55.25 18.8651 55.25 21.3036 55.25H38.6964C41.1348 55.25 43.1017 55.25 44.6944 55.1199C46.3343 54.9859 47.7747 54.7028 49.1074 54.0238C51.2242 52.9452 52.9452 51.2242 54.0238 49.1074C54.7028 47.7747 54.9859 46.3343 55.1199 44.6944C55.25 43.1017 55.25 41.1349 55.25 38.6964V21.3036C55.25 18.8652 55.25 16.8983 55.1199 15.3056C54.9859 13.6657 54.7028 12.2253 54.0238 10.8926C52.9452 8.77578 51.2242 7.05475 49.1074 5.97618C47.7747 5.29716 46.3343 5.01408 44.6944 4.88009C43.1017 4.74996 41.1348 4.74998 38.6963 4.75ZM12.9356 9.98571C13.5281 9.68379 14.3104 9.4764 15.672 9.36515C17.0599 9.25175 18.8426 9.25 21.4 9.25H38.6C41.1574 9.25 42.9401 9.25175 44.328 9.36515C45.6896 9.4764 46.4719 9.68379 47.0644 9.98571C48.3345 10.6329 49.3671 11.6655 50.0143 12.9356C50.3162 13.5281 50.5236 14.3104 50.6349 15.672C50.7482 17.0599 50.75 18.8426 50.75 21.4V38.6C50.75 41.1574 50.7482 42.9401 50.6349 44.328C50.5236 45.6896 50.3162 46.4719 50.0143 47.0644C49.3671 48.3345 48.3345 49.3671 47.0644 50.0143C46.4719 50.3162 45.6896 50.5236 44.328 50.6349C42.9401 50.7482 41.1574 50.75 38.6 50.75H21.4C18.8426 50.75 17.0599 50.7482 15.672 50.6349C14.3104 50.5236 13.5281 50.3162 12.9356 50.0143C11.6655 49.3671 10.6329 48.3345 9.98571 47.0644C9.68379 46.4719 9.4764 45.6896 9.36515 44.328C9.25175 42.9401 9.25 41.1574 9.25 38.6V21.4C9.25 18.8426 9.25175 17.0599 9.36515 15.672C9.4764 14.3104 9.68379 13.5281 9.98571 12.9356C10.6329 11.6655 11.6655 10.6329 12.9356 9.98571Z"
  />
</svg>
