<svg
  width="60"
  height="60"
  viewBox="0 0 60 60"
  fill="currentColor"
  xmlns="http://www.w3.org/2000/svg"
>
  <path
    d="M20.436 5.18404C20 6.03969 20 7.15979 20 9.4V12.6C20 14.8402 20 15.9603 20.436 16.816C20.8195 17.5686 21.4314 18.1805 22.184 18.564C23.0397 19 24.1598 19 26.4 19H33.6C35.8402 19 36.9603 19 37.816 18.564C38.5686 18.1805 39.1805 17.5686 39.564 16.816C40 15.9603 40 14.8402 40 12.6V9.4C40 7.15979 40 6.03969 39.564 5.18404C39.1805 4.43139 38.5686 3.81947 37.816 3.43597C36.9603 3 35.8402 3 33.6 3H26.4C24.1598 3 23.0397 3 22.184 3.43597C21.4314 3.81947 20.8195 4.43139 20.436 5.18404Z"
  />
  <path
    d="M13.5652 8.01667C14.2212 7.87122 14.9323 7.80492 15.773 7.77479L15.7756 8.20198C15.7884 10.2348 15.8076 12.2418 15.8366 13.792C15.8511 14.5654 15.8682 15.2375 15.8887 15.7466C15.8989 15.9995 15.9106 16.2284 15.9245 16.4166L15.9256 16.4318C15.9341 16.5479 15.9566 16.8575 16.031 17.1353C16.7939 19.9823 19.0177 22.2061 21.8647 22.9689C22.9211 23.252 24.1354 23.2512 25.7068 23.2501H34.2931C35.8645 23.2512 37.0787 23.252 38.1352 22.9689C40.9822 22.2061 43.206 19.9823 43.9688 17.1353C44.0432 16.8576 44.0658 16.5481 44.0742 16.4319L44.0753 16.4166C44.0893 16.2284 44.1009 15.9995 44.1111 15.7467C44.1317 15.2375 44.1488 14.5654 44.1633 13.7921C44.1923 12.2418 44.2116 10.2348 44.2244 8.202L44.227 7.77478C45.0677 7.80491 45.7789 7.8712 46.435 8.01667C50.7035 8.96296 54.0371 12.2966 54.9834 16.5651C55.2511 17.7724 55.2507 19.1663 55.2502 21.2106L55.2501 38.6964C55.2501 41.1349 55.2501 43.1017 55.12 44.6944C54.986 46.3343 54.7029 47.7747 54.0239 49.1074C52.9453 51.2242 51.2243 52.9452 49.1075 54.0238C47.7748 54.7028 46.3344 54.9859 44.6945 55.1199C43.1018 55.25 41.1349 55.25 38.6965 55.25H21.3037C18.8652 55.25 16.8984 55.25 15.3057 55.1199C13.6658 54.9859 12.2254 54.7028 10.8927 54.0238C8.77589 52.9452 7.05486 51.2242 5.97628 49.1074C5.29726 47.7747 5.01418 46.3343 4.88019 44.6944C4.75006 43.1017 4.75008 41.1348 4.7501 38.6963L4.75005 21.2106C4.74949 19.1663 4.7491 17.7724 5.01677 16.5651C5.96307 12.2966 9.29669 8.96296 13.5652 8.01667Z"
  />
  <path
    fill-rule="evenodd"
    clip-rule="evenodd"
    d="M40.208 28.773C41.0867 29.6517 41.0867 31.0763 40.208 31.955L29.955 42.2081C29.533 42.63 28.9607 42.8671 28.364 42.8671C27.7672 42.8671 27.1949 42.63 26.773 42.2081L20.409 35.8441C19.5303 34.9654 19.5303 33.5408 20.409 32.6621C21.2877 31.7834 22.7123 31.7834 23.591 32.6621L28.364 37.4351L37.026 28.773C37.9047 27.8943 39.3293 27.8943 40.208 28.773Z"
    fill="white"
  />
</svg>
