<svg
  width="60"
  height="60"
  viewBox="0 0 60 60"
  fill="currentColor"
  xmlns="http://www.w3.org/2000/svg"
>
  <path
    fill-rule="evenodd"
    clip-rule="evenodd"
    d="M23.52 10.3824C25.886 9.66877 27.9443 9.3255 29.9658 9.31705C31.9682 9.30869 34.0177 9.62868 36.3759 10.3322C36.1841 10.5868 36.0122 10.846 35.859 11.1053C35.3161 12.024 35.0129 12.9226 34.8437 13.5794C34.758 13.9121 34.7037 14.1947 34.6698 14.4032C34.6529 14.5077 34.6409 14.5946 34.6327 14.6609C34.6285 14.694 34.6253 14.7221 34.6229 14.7448L34.6198 14.7748L34.6187 14.7866L34.6182 14.7918L34.618 14.7941L34.6178 14.7964L34.6085 14.898L34.6086 24.7341C34.6086 25.6388 34.6044 25.8907 34.5803 26.086C34.5498 26.3322 34.5254 26.4497 34.4551 26.6876C34.4003 26.8734 34.2767 27.1692 33.8457 28.1606C33.3908 29.207 32.847 30.5479 32.4131 31.8931C31.9969 33.1836 31.6089 34.6931 31.6089 35.9999C31.6089 38.0048 32.544 40.0254 33.224 41.4944L33.3156 41.6927C34.1315 43.4607 34.6085 44.597 34.6086 45.5001C34.6087 46.7953 34.3877 48.3873 34.145 49.7222C34.0262 50.3753 33.9073 50.94 33.8184 51.3398C33.7741 51.5393 33.7374 51.6968 33.7123 51.8025C33.6998 51.8554 33.6901 51.8953 33.6839 51.921L33.6771 51.9486L33.6758 51.9541C33.3745 53.1595 34.1073 54.3812 35.3127 54.6827C36.5182 54.9841 37.7399 54.2513 38.0413 53.0457L38.0428 53.0398L38.0457 53.028L38.0557 52.9875C38.064 52.9531 38.0759 52.9041 38.0907 52.8418C38.1203 52.717 38.1618 52.5386 38.2112 52.3162C38.3099 51.8722 38.4411 51.2493 38.5724 50.5273C38.8297 49.1122 39.1088 47.2042 39.1086 45.4997C39.1084 43.4951 38.1733 41.4748 37.4934 40.0059L37.4016 39.8072C36.5858 38.0393 36.1089 36.903 36.1089 35.9999C36.1089 35.432 36.3066 34.4812 36.6958 33.2745C37.0673 32.1226 37.5487 30.9298 37.9725 29.9547L38.0389 29.8021C38.3739 29.0323 38.626 28.4528 38.771 27.9617C38.9109 27.4876 38.9856 27.1287 39.0462 26.6382C39.109 26.1305 39.1088 25.5778 39.1086 24.8647L39.1085 15.1441L39.1117 15.1243C39.1267 15.032 39.1544 14.8849 39.2015 14.7019C39.2979 14.3275 39.4635 13.851 39.7332 13.3946C40.2186 12.5732 41.0461 11.7499 42.8588 11.75C44.5722 11.7501 45.4118 12.5912 45.9427 13.5716C46.2275 14.0974 46.4025 14.6467 46.5046 15.0793C46.5436 15.2445 46.5702 15.3854 46.5879 15.4918C43.7676 16.5696 41.7646 19.3009 41.7646 22.5C41.7646 26.6421 45.1225 30 49.2646 30C53.4068 30 56.7646 26.6421 56.7646 22.5C56.7646 18.9882 54.351 16.0401 51.0921 15.2242L51.087 15.1783C51.0793 15.1104 51.068 15.0204 51.0517 14.9113C51.0194 14.6937 50.9671 14.3966 50.8843 14.0457C50.7209 13.3534 50.4272 12.4027 49.8997 11.4286C48.8059 9.40893 46.6457 7.25012 42.8589 7.25001C42.3658 7.24999 41.8998 7.28443 41.4597 7.34872C37.2348 5.67976 33.6288 4.80171 29.947 4.81709C26.266 4.83248 22.6854 5.74061 18.5171 7.36685C18.0425 7.29093 17.5371 7.24999 16.9995 7.25001C13.2127 7.25012 11.0525 9.40893 9.95871 11.4286C9.43115 12.4027 9.13752 13.3534 8.97412 14.0457C8.89131 14.3966 8.83902 14.6937 8.80667 14.9113C8.79044 15.0204 8.7791 15.1104 8.77138 15.1783L8.76885 15.2008C5.46131 15.9823 3 18.9537 3 22.5C3 26.6421 6.35786 30 10.5 30C14.6421 30 18 26.6421 18 22.5C18 19.3343 16.0387 16.6268 13.265 15.5261C13.2824 15.4165 13.3105 15.263 13.3538 15.0793C13.4559 14.6467 13.6309 14.0974 13.9157 13.5716C14.4466 12.5912 15.2862 11.7501 16.9996 11.75C18.8123 11.7499 19.6398 12.5732 20.1252 13.3946C20.3949 13.851 20.5605 14.3275 20.6569 14.7019C20.704 14.8849 20.7317 15.032 20.7467 15.1243L20.7499 15.1441L20.7498 24.8646C20.7496 25.5778 20.7494 26.1305 20.8122 26.6382C20.8728 27.1287 20.9475 27.4876 21.0874 27.9617C21.2324 28.4528 21.4845 29.0323 21.8195 29.8021L21.8859 29.9547C22.3097 30.9298 22.7911 32.1226 23.1626 33.2745C23.5518 34.4812 23.7495 35.432 23.7495 35.9999C23.7495 36.903 23.2726 38.0393 22.4568 39.8072L22.365 40.0059C21.6851 41.4748 20.75 43.4951 20.7498 45.4997C20.7496 47.2042 21.0287 49.1122 21.286 50.5273C21.4173 51.2493 21.5485 51.8722 21.6472 52.3162C21.6966 52.5386 21.7381 52.717 21.7677 52.8418C21.7825 52.9041 21.7943 52.9531 21.8027 52.9875L21.8127 53.028L21.8156 53.0398L21.8171 53.0457C22.1185 54.2513 23.3402 54.9841 24.5457 54.6827C25.7511 54.3812 26.4839 53.1595 26.1826 51.9541L26.1813 51.9486L26.1745 51.921C26.1683 51.8953 26.1586 51.8554 26.1461 51.8025C26.121 51.6968 26.0843 51.5393 26.04 51.3398C25.9511 50.94 25.8322 50.3753 25.7134 49.7222C25.4707 48.3873 25.2497 46.7953 25.2498 45.5001C25.2499 44.597 25.7269 43.4607 26.5428 41.6927L26.6344 41.4944C27.3144 40.0254 28.2495 38.0048 28.2495 35.9999C28.2495 34.6931 27.8615 33.1836 27.4453 31.8931C27.0114 30.5479 26.4676 29.207 26.0127 28.1606C25.5817 27.1692 25.4581 26.8734 25.4033 26.6876C25.333 26.4497 25.3086 26.3322 25.2781 26.086C25.254 25.8907 25.2498 25.6388 25.2498 24.7341L25.2499 14.898L25.2406 14.7964L25.2397 14.7866C25.2404 14.7941 25.2404 14.7941 25.2404 14.7941L25.2402 14.7918L25.2397 14.7866L25.2386 14.7748L25.2355 14.7448C25.2331 14.7221 25.2299 14.694 25.2257 14.6609C25.2175 14.5946 25.2055 14.5077 25.1886 14.4032C25.1547 14.1947 25.1004 13.9121 25.0147 13.5794C24.8455 12.9226 24.5423 12.024 23.9994 11.1053C23.8562 10.8631 23.6968 10.6208 23.52 10.3824ZM10.5 25.5C12.1569 25.5 13.5 24.1569 13.5 22.5C13.5 20.8431 12.1569 19.5 10.5 19.5C8.84315 19.5 7.5 20.8431 7.5 22.5C7.5 24.1569 8.84315 25.5 10.5 25.5ZM49.2646 25.5C47.6078 25.5 46.2646 24.1569 46.2646 22.5C46.2646 20.8431 47.6078 19.5 49.2646 19.5C50.9215 19.5 52.2646 20.8431 52.2646 22.5C52.2646 24.1569 50.9215 25.5 49.2646 25.5Z"
  />
</svg>
