<svg
  width="60"
  height="60"
  viewBox="0 0 60 60"
  fill="currentColor"
  xmlns="http://www.w3.org/2000/svg"
>
  <path
    d="M53 13.75C54.2426 13.75 55.25 12.7426 55.25 11.5C55.25 10.2574 54.2426 9.25 53 9.25H7.00045C5.75776 9.25 4.75 10.2574 4.75 11.5C4.75 12.7426 5.75736 13.75 7.00005 13.75H53Z"
  />
  <path
    d="M55.25 29.5C55.25 30.7426 54.2426 31.75 53 31.75H7.00005C5.75736 31.75 4.75 30.7426 4.75 29.5C4.75 28.2574 5.75776 27.25 7.00045 27.25H53C54.2426 27.25 55.25 28.2574 55.25 29.5Z"
  />
  <path
    d="M55.25 48.5C55.25 49.7426 54.2426 50.75 53 50.75H7.00005C5.75736 50.75 4.75 49.7426 4.75 48.5C4.75 47.2574 5.75776 46.25 7.00045 46.25H53C54.2426 46.25 55.25 47.2574 55.25 48.5Z"
  />
</svg>
