<svg
  width="60"
  height="60"
  viewBox="0 0 60 60"
  fill="currentColor"
  xmlns="http://www.w3.org/2000/svg"
>
  <path
    d="M44.25 12.0951L48.2364 12.0951C49.0903 12.095 49.8672 12.095 50.5113 12.1497C51.1997 12.2083 51.9587 12.3426 52.6927 12.7471C53.7318 13.3198 54.5463 14.2276 55.0034 15.3225C55.3263 16.096 55.3778 16.865 55.3617 17.5557C55.3466 18.2019 55.2626 18.9743 55.1703 19.8232L52.0283 48.7396C51.9529 49.4339 51.8831 50.0769 51.7821 50.614C51.6724 51.1972 51.4983 51.8253 51.1264 52.4359C50.5901 53.3166 49.8063 54.0199 48.8728 54.4579C48.2256 54.7617 47.5824 54.8669 46.9907 54.9129C46.4459 54.9553 45.7991 54.9553 45.1008 54.9553L44.0853 54.9552C42.8426 54.9552 41.8353 53.9479 41.8353 52.7052C41.8353 51.4626 42.8426 50.4552 44.0853 50.4552H45.0275C45.8238 50.4552 46.2926 50.4537 46.6415 50.4265C46.8546 50.4099 46.944 50.3881 46.9678 50.381C47.096 50.3193 47.204 50.2224 47.2791 50.1017C47.2887 50.0788 47.3201 49.9923 47.3596 49.7822C47.4243 49.4383 47.4765 48.9724 47.5625 48.1807L50.6876 19.4205C50.7918 18.461 50.8528 17.8819 50.8629 17.4505C50.8691 17.1872 50.8516 17.0741 50.8453 17.0434C50.7809 16.8969 50.6714 16.7748 50.5328 16.695C50.5029 16.6855 50.3923 16.6559 50.1299 16.6336C49.6999 16.597 49.1176 16.5951 48.1525 16.5951L29.5346 16.5951C28.292 16.5951 27.2846 15.5877 27.2846 14.3451C27.2846 13.1024 28.292 12.0951 29.5346 12.0951L39.75 12.0951V5C39.75 3.75736 40.7574 2.75 42 2.75C43.2426 2.75 44.25 3.75736 44.25 5V12.0951Z"
  />
  <path
    fill-rule="evenodd"
    clip-rule="evenodd"
    d="M22 21.75C16.0059 21.75 11.9592 23.2515 9.27156 25.3951C6.59063 27.5334 5.49702 30.1232 5.05652 31.872C5.05113 31.8934 5.04462 31.918 5.03734 31.9455C4.94812 32.2822 4.74202 33.0601 5.01764 33.9558C5.15218 34.393 5.37674 34.7474 5.5676 34.9923C5.75845 35.2371 6.0472 35.5415 6.43832 35.7787C7.25183 36.2722 8.14033 36.2573 8.51002 36.2511C8.54463 36.2505 8.575 36.25 8.6 36.25L35.4 36.25C35.4186 36.25 35.44 36.2503 35.464 36.2507L35.49 36.2511C35.8597 36.2573 36.7482 36.2722 37.5617 35.7787C37.9528 35.5415 38.2416 35.2372 38.4324 34.9923C38.6233 34.7474 38.8478 34.393 38.9824 33.9558C39.258 33.0601 39.0519 32.2823 38.9627 31.9456C38.9554 31.9181 38.9489 31.8935 38.9435 31.872C38.503 30.1232 37.4094 27.5334 34.7285 25.3951C32.0408 23.2515 27.9941 21.75 22 21.75ZM31.9225 28.9132C33.0668 29.8259 33.7472 30.8512 34.1533 31.75L9.84676 31.75C10.2528 30.8512 10.9332 29.8259 12.0775 28.9132C13.7861 27.5504 16.7653 26.25 22 26.25C27.2347 26.25 30.214 27.5504 31.9225 28.9132Z"
  />
  <path
    d="M4.75 43C4.75 41.7574 5.75736 40.75 7 40.75L37 40.75C38.2426 40.75 39.25 41.7574 39.25 43C39.25 44.2426 38.2426 45.25 37 45.25L7 45.25C5.75736 45.25 4.75 44.2426 4.75 43Z"
  />
  <path
    d="M4.75 52C4.75 50.7574 5.75736 49.75 7 49.75L37 49.75C38.2426 49.75 39.25 50.7574 39.25 52C39.25 53.2426 38.2426 54.25 37 54.25L7 54.25C5.75736 54.25 4.75 53.2426 4.75 52Z"
  />
</svg>
