<svg
  width="60"
  height="60"
  viewBox="0 0 60 60"
  fill="currentColor"
  xmlns="http://www.w3.org/2000/svg"
>
  <g id="Property 1=medium">
    <path
      id="1"
      fill-rule="evenodd"
      clip-rule="evenodd"
      d="M4.5 13C4.5 11.3431 5.84315 10 7.5 10H52.5C54.1569 10 55.5 11.3431 55.5 13C55.5 14.6569 54.1569 16 52.5 16H7.5C5.84315 16 4.5 14.6569 4.5 13ZM4.5 30C4.5 28.3431 5.84315 27 7.5 27H52.5C54.1569 27 55.5 28.3431 55.5 30C55.5 31.6569 54.1569 33 52.5 33H7.5C5.84315 33 4.5 31.6569 4.5 30ZM4.5 48C4.5 46.3431 5.84315 45 7.5 45H52.5C54.1569 45 55.5 46.3431 55.5 48C55.5 49.6569 54.1569 51 52.5 51H7.5C5.84315 51 4.5 49.6569 4.5 48Z"
    />
  </g>
</svg>
