<svg
  width="60"
  height="60"
  viewBox="0 0 60 60"
  fill="currentColor"
  xmlns="http://www.w3.org/2000/svg"
>
  <path
    fill-rule="evenodd"
    clip-rule="evenodd"
    d="M4.74997 44C4.74997 41.1005 7.10047 38.75 9.99997 38.75H50C52.8995 38.75 55.25 41.1005 55.25 44C55.25 50.2132 50.2132 55.25 44 55.25H16C9.78676 55.25 4.74997 50.2132 4.74997 44ZM9.99997 43.25C9.58575 43.25 9.24997 43.5858 9.24997 44C9.24997 47.7279 12.272 50.75 16 50.75H44C47.7279 50.75 50.75 47.7279 50.75 44C50.75 43.5858 50.4142 43.25 50 43.25H9.99997Z"
  />
  <path
    fill-rule="evenodd"
    clip-rule="evenodd"
    d="M11.0254 24.2503C11.0849 24.2501 11.1439 24.25 11.2024 24.25H48.7975C48.8561 24.25 48.9151 24.2501 48.9745 24.2503C50.036 24.2529 51.2332 24.2558 52.5228 23.4458C53.1138 23.0746 53.5994 22.5168 53.9146 22.0899C54.2298 21.6631 54.6201 21.0349 54.801 20.3608C54.9622 19.7602 55.0404 19.1811 54.9793 18.5559C54.9285 18.0367 54.7827 17.5659 54.6859 17.2531C54.6792 17.2314 54.6727 17.2106 54.6665 17.1905C53.8451 14.5221 52.0005 11.3387 48.0775 8.85939C44.1948 6.40563 38.4497 4.75 30 4.75C21.5502 4.75 15.8051 6.40563 11.9225 8.85938C7.99941 11.3387 6.15479 14.5221 5.33339 17.1905C5.32722 17.2106 5.32076 17.2314 5.31407 17.253C5.21719 17.5659 5.07142 18.0367 5.02067 18.5559C4.95957 19.1811 5.03772 19.7602 5.19893 20.3608C5.37983 21.0349 5.77009 21.6631 6.08532 22.0899C6.40056 22.5168 6.88609 23.0746 7.47709 23.4458C8.76671 24.2558 9.96393 24.2529 11.0254 24.2503ZM9.91381 19.6609C9.90768 19.655 9.90019 19.6476 9.89138 19.6387C9.84004 19.5863 9.77375 19.5095 9.70524 19.4167C9.63673 19.3239 9.5828 19.238 9.54785 19.1735C9.54103 19.1609 9.5357 19.1506 9.53168 19.1425C9.50903 19.0514 9.50251 19.0039 9.50064 18.9865C9.50062 18.9863 9.50066 18.9866 9.50064 18.9865C9.50279 18.9743 9.50787 18.9483 9.51933 18.9038C9.54218 18.8151 9.57431 18.7091 9.63424 18.5144C10.1795 16.7432 11.4197 14.5004 14.3265 12.6634C17.2737 10.8008 22.1034 9.25 30 9.25C37.8966 9.25 42.7262 10.8008 45.6734 12.6634C48.5802 14.5004 49.8205 16.7432 50.3657 18.5144C50.4256 18.7091 50.4577 18.8151 50.4806 18.9038C50.4921 18.9483 50.4972 18.9738 50.4993 18.986C50.4993 18.9862 50.4994 18.9859 50.4993 18.986C50.4975 19.0034 50.4909 19.0514 50.4682 19.1425C50.4642 19.1506 50.4589 19.1609 50.4521 19.1735C50.4171 19.238 50.3632 19.3239 50.2947 19.4167C50.2262 19.5095 50.1599 19.5863 50.1085 19.6387C50.0997 19.6477 50.0922 19.655 50.0861 19.6609C50.0516 19.6803 50.0318 19.688 50.022 19.6915C50.0085 19.6965 49.9785 19.7063 49.9096 19.7165C49.8327 19.7277 49.7174 19.7381 49.5267 19.7439C49.3317 19.7498 49.1065 19.75 48.7975 19.75H11.2024C10.8935 19.75 10.6682 19.7498 10.4733 19.7439C10.2825 19.7381 10.1672 19.7277 10.0904 19.7165C10.0215 19.7063 9.99143 19.6965 9.97788 19.6915C9.96815 19.688 9.94832 19.6803 9.91381 19.6609Z"
  />
  <path
    fill-rule="evenodd"
    clip-rule="evenodd"
    d="M17.3613 33.1065C15.6977 32.1301 13.636 32.1301 11.9724 33.1066L8.13906 35.3566C7.06739 35.9856 5.6887 35.6267 5.05968 34.5551C4.43066 33.4834 4.7895 32.1047 5.86117 31.4757L9.69452 29.2257C12.7645 27.4238 16.5691 27.4237 19.6391 29.2256C21.3026 30.202 23.3643 30.202 25.0278 29.2256C28.0978 27.4237 31.9024 27.4237 34.9724 29.2257C36.6359 30.2022 38.6976 30.2022 40.3612 29.2257C43.4311 27.4238 47.2357 27.4238 50.3057 29.2257L54.1391 31.4757C55.2107 32.1047 55.5696 33.4834 54.9406 34.5551C54.3115 35.6267 52.9328 35.9856 51.8612 35.3566L48.0278 33.1066C46.3643 32.1301 44.3026 32.1301 42.6391 33.1066C39.5691 34.9086 35.7644 34.9085 32.6945 33.1066C31.0309 32.1301 28.9692 32.1301 27.3057 33.1065C24.2357 34.9083 20.4312 34.9083 17.3613 33.1065Z"
  />
</svg>
