<svg
  width="60"
  height="60"
  viewBox="0 0 60 60"
  fill="currentColor"
  xmlns="http://www.w3.org/2000/svg"
>
  <path
    fill-rule="evenodd"
    clip-rule="evenodd"
    d="M11 22.75C7.54822 22.75 4.75 25.5482 4.75 29V48C4.75 51.4518 7.54822 54.25 11 54.25C13.6252 54.25 15.8724 52.6314 16.7981 50.3378L33.0906 54.8846C34.0349 55.1485 34.7787 55.3565 35.5511 55.423C36.2324 55.4816 36.9185 55.4553 37.5933 55.3447C38.3583 55.2193 39.0841 54.955 40.0054 54.6195L53.2184 49.8147C54.4381 49.3712 55.25 48.212 55.25 46.9142C55.25 43.2254 52.1542 40.2924 48.4708 40.4915L44.7287 40.6938C44.7258 40.6726 44.7225 40.6514 44.719 40.6301C44.2811 38.0029 42.5318 35.7814 40.0806 34.7396L24.5815 28.1523C24.0043 27.9068 23.5494 27.7133 23.0682 27.5743C22.6433 27.4515 22.2092 27.3631 21.7701 27.3099C21.2729 27.2496 20.7786 27.2498 20.1513 27.25L17.0017 27.25C16.2449 24.65 13.8443 22.75 11 22.75ZM40.1785 40.9398C39.8948 40.0206 39.2193 39.2631 38.3204 38.8811L22.9195 32.3356C22.1999 32.0297 22.0066 31.9516 21.8189 31.8974C21.6258 31.8416 21.4285 31.8014 21.2289 31.7772C21.035 31.7537 20.8266 31.75 20.0446 31.75H17.25V45.7919L34.1382 50.5049C35.3189 50.8344 35.6363 50.9137 35.937 50.9396C36.2467 50.9662 36.5586 50.9543 36.8653 50.904C37.1632 50.8551 37.4736 50.7518 38.6256 50.3329L50.5239 46.0062C50.1824 45.3661 49.4917 44.9429 48.7137 44.985L37.9002 45.5695C36.7554 45.6315 35.9841 45.6733 35.2092 45.6171C34.5226 45.5674 33.8415 45.4599 33.1731 45.2957C32.4185 45.1104 31.6976 44.833 30.6277 44.4213L27.1923 43.1C26.0325 42.6539 25.4539 41.3521 25.9 40.1923C26.3461 39.0325 27.6479 38.4539 28.8077 38.9L32.1156 40.1722C33.3579 40.65 33.8018 40.8164 34.2463 40.9255C34.6692 41.0294 35.1001 41.0974 35.5345 41.1289C35.991 41.162 36.4646 41.1405 37.7937 41.0687L40.1785 40.9398ZM12.75 47.4507V29C12.75 28.0335 11.9665 27.25 11 27.25C10.0335 27.25 9.25 28.0335 9.25 29V48C9.25 48.9665 10.0335 49.75 11 49.75C11.9665 49.75 12.75 48.9665 12.75 48V47.5518C12.7492 47.5182 12.7492 47.4845 12.75 47.4507Z"
  />
  <path
    fill-rule="evenodd"
    clip-rule="evenodd"
    d="M55.7088 11.5269C56.4776 13.5371 56.3794 15.6621 55.9669 17.2019C54.9478 21.0051 52.7304 23.5151 49.8607 25.4488C47.4373 27.0817 44.4313 28.3718 41.2952 29.7177C40.8768 29.8973 40.4561 30.0778 40.0342 30.2603C40.0236 30.2649 40.0126 30.2697 40.0013 30.2746C39.8547 30.3381 39.6522 30.4258 39.4627 30.4921C39.234 30.572 38.8832 30.6741 38.4507 30.6768C37.8942 30.6802 37.3502 30.5345 36.8699 30.2532C36.4967 30.0347 36.2439 29.7708 36.0859 29.5873C35.9549 29.4351 35.8235 29.258 35.7283 29.1297C35.7209 29.1197 35.7138 29.1101 35.7068 29.1008C35.4327 28.7318 35.1586 28.3651 34.8861 28.0005C32.8431 25.2667 30.8849 22.6465 29.6026 20.0206C28.0842 16.9111 27.4189 13.6287 28.438 9.82542C28.8505 8.28577 29.8281 6.39642 31.499 5.04001C33.2659 3.60562 35.7065 2.86404 38.6341 3.64849C41.3242 4.36931 42.8769 6.16507 43.7241 7.8345C45.2925 6.81229 47.5351 6.03339 50.2253 6.75421C53.1529 7.53867 54.8958 9.40119 55.7088 11.5269ZM51.5057 13.1344C51.1863 12.2995 50.5376 11.4966 49.0606 11.1009C47.9072 10.7918 46.9719 11.0884 46.1785 11.6062C45.3384 12.1546 44.761 12.8975 44.5532 13.1953L44.5525 13.1963C44.545 13.2072 44.4809 13.3004 44.4135 13.3845C44.3768 13.4305 44.281 13.5481 44.1396 13.6744C44.0235 13.7782 43.6798 14.0705 43.1347 14.1967C42.3907 14.3689 41.6117 14.1602 41.0535 13.639C40.6446 13.2572 40.4931 12.8322 40.4444 12.6843C40.3851 12.5042 40.361 12.3545 40.3521 12.2963C40.3358 12.1898 40.3269 12.0771 40.3259 12.0638L40.3258 12.0626C40.2947 11.7008 40.1661 10.7687 39.7127 9.87379C39.2846 9.02871 38.6229 8.30422 37.4694 7.99516C35.9925 7.59941 35.0292 7.97031 34.3352 8.53371C33.5451 9.17508 33.0047 10.1688 32.7847 10.9901C32.107 13.519 32.4906 15.6794 33.6463 18.0461C34.7293 20.2639 36.4078 22.5136 38.5005 25.3184C38.631 25.4934 38.7632 25.6705 38.8969 25.85C39.1025 25.7615 39.3055 25.6741 39.5061 25.5879C42.7208 24.2051 45.2993 23.0961 47.3461 21.7169C49.5302 20.2452 50.9426 18.566 51.6202 16.0372C51.8403 15.2157 51.8692 14.0849 51.5057 13.1344Z"
  />
</svg>
