<svg
  width="60"
  height="60"
  viewBox="0 0 60 60"
  fill="currentColor"
  xmlns="http://www.w3.org/2000/svg"
>
  <path
    d="M33.9807 7.50951C33.9913 6.12667 32.8732 5 31.4904 5C30.1149 5 29 6.115 29 7.49041V12.5C29 13.3284 29.6715 14 30.5 14H32.4424C33.2663 14 33.936 13.3354 33.9423 12.5115L33.9807 7.50951Z"
  />
  <path
    d="M52.4145 17.7812C54.174 18.3825 55.1562 20.2548 54.6509 22.0443L53.9614 24.4858C53.7285 25.3107 52.8528 25.773 52.0403 25.5001L50.4224 24.9567C49.6513 24.6977 49.2271 23.8713 49.4663 23.0937L50.9223 18.3606C51.0883 17.8212 51.6675 17.5259 52.2015 17.7084L52.4145 17.7812Z"
  />
  <path
    d="M8.1012 29.194C9.80485 28.5954 11.6843 29.3911 12.4401 31.031L13.8553 34.1014C14.2086 34.8678 13.8603 35.7746 13.0848 36.1076L11.2838 36.8808C10.505 37.2152 9.60407 36.8383 9.29521 36.0491L7.17002 30.6183C6.96375 30.0912 7.23571 29.4981 7.76974 29.3105L8.1012 29.194Z"
  />
  <path
    d="M18.4379 7.71398C17.2391 7.90278 16.3862 8.98057 16.4781 10.1907L16.9148 15.9448C16.9792 16.7937 17.7365 17.4189 18.5823 17.3214L20.4576 17.1052C21.2811 17.0103 21.8715 16.2653 21.7758 15.4418L21.1134 9.74548C20.9606 8.43121 19.7449 7.50814 18.4379 7.71398Z"
  />
  <path
    d="M44.4855 11.8453C44.5739 10.6332 43.7167 9.55637 42.5157 9.37071C41.2088 9.16869 39.9956 10.0926 39.8428 11.4061L39.2571 16.4417C39.1613 17.2651 39.7517 18.0101 40.5752 18.1051L42.4459 18.3208C43.2934 18.4185 44.0517 17.7907 44.1138 16.9398L44.4855 11.8453Z"
  />
  <path
    d="M31.4904 18C32.8732 18 33.9913 19.1267 33.9807 20.5095L33.9423 25.5115C33.936 26.3354 33.2663 27 32.4424 27H30.5C29.6715 27 29 26.3284 29 25.5V20.4904C29 19.115 30.1149 18 31.4904 18Z"
  />
  <path
    d="M17.3285 21.7024C17.2188 20.4883 18.0703 19.3974 19.2748 19.209C20.5723 19.006 21.7783 19.9227 21.93 21.2272L22.5917 26.9178C22.6771 27.6518 22.2151 28.3387 21.5031 28.5364L19.1883 29.1791C18.5868 29.3461 17.9809 28.9272 17.9248 28.3055L17.3285 21.7024Z"
  />
  <path
    d="M41.7033 20.6618C42.9094 20.8482 43.7635 21.939 43.6552 23.1546L43.1065 29.3123C43.0513 29.9318 42.45 30.3512 41.8496 30.1889L39.5374 29.5642C38.8202 29.3704 38.3529 28.6808 38.4387 27.9428L39.0507 22.6818C39.2023 21.3782 40.4063 20.4613 41.7033 20.6618Z"
  />
  <path
    d="M51.2386 30.578C51.5702 29.3941 50.9177 28.1576 49.7532 27.7632C48.5191 27.3452 47.1835 28.0285 46.8003 29.2738L45.9309 32.0991C45.6913 32.8779 46.1172 33.7056 46.8902 33.9633L48.5061 34.5019C49.3192 34.7729 50.1937 34.3087 50.4248 33.4834L51.2386 30.578Z"
  />
  <path
    fill-rule="evenodd"
    clip-rule="evenodd"
    d="M31.5066 30C32.8816 30 33.9944 31.1183 33.9875 32.4933L33.9452 41H35.2274L36.7657 34.4418C37.0808 33.0982 38.4334 32.2715 39.7729 32.6037C41.1062 32.9344 41.9155 34.2871 41.5766 35.6183L40.1231 41.3278C40.7695 41.5333 41.3753 41.8302 41.9251 42.2032L43.4825 38.3368C43.999 37.0546 45.4688 36.4479 46.7393 36.9924C47.9961 37.5311 48.5741 38.9901 48.0271 40.2434L44.9619 47.2659C44.9871 47.5072 45 47.7521 45 48C45 51.866 41.8659 55 38 55H27C24.1445 55 21.6884 53.2903 20.5994 50.8387L13.2978 42.7436C12.3735 41.7189 12.4626 40.137 13.4962 39.2226C14.5263 38.3111 16.1013 38.4114 17.0076 39.4461L21.1421 44.1664C21.5186 43.5922 21.9773 43.0767 22.5014 42.6367L19.8258 34.9645C19.3713 33.6613 20.0678 32.2377 21.3756 31.7967C22.6786 31.3573 24.0903 32.0614 24.5231 33.3665L27.0548 41H29.1136L29.0259 32.5066C29.0116 31.1264 30.1264 30 31.5066 30ZM24.5 48C24.5 49.3807 25.6192 50.5 27 50.5H38C39.3807 50.5 40.5 49.3807 40.5 48C40.5 46.6193 39.3807 45.5 38 45.5H27C25.6192 45.5 24.5 46.6193 24.5 48Z"
  />
</svg>
