<svg
  width="60"
  height="60"
  viewBox="0 0 60 60"
  fill="currentColor"
  xmlns="http://www.w3.org/2000/svg"
>
  <path
    fill-rule="evenodd"
    clip-rule="evenodd"
    d="M9.25 10C9.25 8.75736 8.24264 7.75 7 7.75C5.75736 7.75 4.75 8.75736 4.75 10V30L4.75 50C4.75 51.2426 5.75736 52.25 7 52.25C8.24264 52.25 9.25 51.2426 9.25 50L9.25 32.25H29.75V50C29.75 51.2426 30.7574 52.25 32 52.25C33.2426 52.25 34.25 51.2426 34.25 50L34.25 10C34.25 8.75736 33.2426 7.75 32 7.75C30.7574 7.75 29.75 8.75736 29.75 10V27.75H9.25L9.25 10ZM40.4762 47.9101C40.2684 48.1324 40.1528 48.4253 40.1528 48.7295V50.8C40.1528 51.4627 40.69 52 41.3528 52H55.1528C55.8155 52 56.3528 51.4627 56.3528 50.8V49.06C56.3528 48.3973 55.8155 47.86 55.1528 47.86H46.5248L53.2208 40.804C54.2648 39.76 55.0568 38.716 55.5608 37.672C56.0648 36.664 56.3168 35.512 56.3168 34.216V33.748C56.3168 32.38 55.9568 31.192 55.3088 30.112C54.6608 29.068 53.6888 28.24 52.4648 27.664C51.2048 27.088 49.7288 26.764 48.0728 26.764C45.5528 26.764 43.6088 27.376 42.1688 28.6C40.7288 29.824 40.0088 31.444 40.0088 33.46C40.0088 33.9372 40.3956 34.324 40.8728 34.324H43.9328C44.2509 34.324 44.5088 34.0661 44.5088 33.748C44.5088 32.812 44.7968 32.092 45.4448 31.552C46.0568 31.048 46.9208 30.76 48.0008 30.76C49.0808 30.76 49.9448 31.048 50.5928 31.588C51.2408 32.164 51.5648 32.92 51.5648 33.856V34.252C51.5648 34.972 51.3848 35.656 51.0968 36.268C50.7728 36.88 50.2328 37.564 49.4408 38.32L40.4762 47.9101Z"
  />
</svg>
