<svg
  width="60"
  height="60"
  viewBox="0 0 60 60"
  fill="currentColor"
  xmlns="http://www.w3.org/2000/svg"
>
  <path
    fill-rule="evenodd"
    clip-rule="evenodd"
    d="M9.25 10C9.25 8.75736 8.24264 7.75 7 7.75C5.75736 7.75 4.75 8.75736 4.75 10V30L4.75 50C4.75 51.2426 5.75736 52.25 7 52.25C8.24264 52.25 9.25 51.2426 9.25 50L9.25 32.25H29.75V50C29.75 51.2426 30.7574 52.25 32 52.25C33.2426 52.25 34.25 51.2426 34.25 50L34.25 10C34.25 8.75736 33.2426 7.75 32 7.75C30.7574 7.75 29.75 8.75736 29.75 10V27.75H9.25L9.25 10ZM45.4483 33.1303L47.2878 31.9638V50.08C47.2878 50.7521 47.2878 51.0881 47.4186 51.3448C47.5336 51.5706 47.7172 51.7542 47.943 51.8692C48.1997 52 48.5357 52 49.2078 52H50.08C50.7521 52 51.0881 52 51.3448 51.8692C51.5706 51.7542 51.7542 51.5706 51.8692 51.3448C52 51.0881 52 50.7521 52 50.08V28.92C52 28.2479 52 27.9119 51.8692 27.6552C51.7542 27.4294 51.5706 27.2458 51.3448 27.1308C51.0881 27 50.7521 27 50.08 27H47.8564C47.645 27 47.5393 27 47.4369 27.0179C47.346 27.0337 47.2573 27.06 47.1724 27.0962C47.0768 27.137 46.9882 27.1945 46.8108 27.3097L43.3744 29.5409C43.0549 29.7484 42.8952 29.8521 42.7794 29.9905C42.677 30.113 42.6 30.2548 42.5531 30.4074C42.5 30.5799 42.5 30.7703 42.5 31.1513V31.5089C42.5 32.6471 42.5 33.2162 42.738 33.5354C42.9455 33.8136 43.2633 33.9884 43.6093 34.0146C44.0064 34.0447 44.487 33.7399 45.4483 33.1303Z"
  />
</svg>
