<svg
  width="60"
  height="60"
  viewBox="0 0 60 60"
  fill="currentColor"
  xmlns="http://www.w3.org/2000/svg"
>
  <path
    fill-rule="evenodd"
    clip-rule="evenodd"
    d="M8.25541 28.5098C9.89401 27.399 11.8712 26.75 14 26.75C19.6609 26.75 24.25 31.3391 24.25 37V42C24.25 47.6609 19.6609 52.25 14 52.25C8.33908 52.25 3.75 47.6609 3.75 42V37C3.75 36.7709 3.75752 36.5435 3.77232 36.3181C3.75761 36.2142 3.75 36.108 3.75 36V29C3.75 14.5025 15.5025 2.75 30 2.75C44.4975 2.75 56.25 14.5025 56.25 29V36C56.25 36.108 56.2424 36.2142 56.2277 36.3181C56.2425 36.5435 56.25 36.7709 56.25 37V42C56.25 47.6609 51.6609 52.25 46 52.25C40.3391 52.25 35.75 47.6609 35.75 42V37C35.75 31.3391 40.3391 26.75 46 26.75C48.1288 26.75 50.106 27.399 51.7446 28.5098C51.484 16.724 41.8484 7.25 30 7.25C18.1516 7.25 8.51603 16.724 8.25541 28.5098ZM14 31.25C10.8244 31.25 8.25 33.8244 8.25 37V42C8.25 45.1756 10.8244 47.75 14 47.75C17.1756 47.75 19.75 45.1756 19.75 42V37C19.75 33.8244 17.1756 31.25 14 31.25ZM46 31.25C42.8244 31.25 40.25 33.8244 40.25 37V42C40.25 45.1756 42.8244 47.75 46 47.75C49.1756 47.75 51.75 45.1756 51.75 42V37C51.75 33.8244 49.1756 31.25 46 31.25Z"
  />
</svg>
