<svg
  width="60"
  height="60"
  viewBox="0 0 60 60"
  fill="currentColor"
  xmlns="http://www.w3.org/2000/svg"
>
  <path
    fill-rule="evenodd"
    clip-rule="evenodd"
    d="M9.25 10C9.25 8.75736 8.24264 7.75 7 7.75C5.75736 7.75 4.75 8.75736 4.75 10V30L4.75 50C4.75 51.2426 5.75736 52.25 7 52.25C8.24264 52.25 9.25 51.2426 9.25 50L9.25 32.25H29.75V50C29.75 51.2426 30.7574 52.25 32 52.25C33.2426 52.25 34.25 51.2426 34.25 50L34.25 10C34.25 8.75736 33.2426 7.75 32 7.75C30.7574 7.75 29.75 8.75736 29.75 10V27.75H9.25L9.25 10ZM39.8154 45.628C39.8154 47.824 40.4994 49.516 41.9394 50.668C43.3434 51.82 45.3954 52.396 48.0594 52.396C50.5794 52.396 52.5954 51.748 54.1074 50.452C55.6194 49.156 56.3754 47.356 56.3754 45.088V44.512C56.3754 43.108 56.0154 41.92 55.3674 40.912C54.7194 39.94 53.7474 39.22 52.4874 38.788C53.6034 38.284 54.4674 37.6 55.0434 36.736C55.6194 35.872 55.9434 34.864 55.9434 33.712V33.244C55.9434 31.228 55.2234 29.644 53.8194 28.492C52.3794 27.34 50.4354 26.764 47.9514 26.764C45.3954 26.764 43.4514 27.376 42.0834 28.564C40.7154 29.752 40.0314 31.444 40.0314 33.676C40.0314 33.8549 40.1765 34 40.3554 34H44.0274C44.2064 34 44.3514 33.8549 44.3514 33.676C44.3514 32.74 44.6394 32.02 45.2514 31.516C45.8274 31.012 46.6914 30.76 47.8434 30.76C48.9234 30.76 49.7874 31.048 50.3994 31.552C50.9754 32.056 51.2994 32.776 51.2994 33.712V34.144C51.2994 35.152 50.9754 35.908 50.3274 36.412C49.6794 36.952 48.7794 37.204 47.5554 37.204H47.3874C46.7247 37.204 46.1874 37.7413 46.1874 38.404V40C46.1874 40.6628 46.7247 41.2 47.3874 41.2H47.5914C48.9594 41.2 50.0034 41.488 50.6874 42.028C51.3714 42.568 51.7314 43.396 51.7314 44.512V45.052C51.7314 46.132 51.4074 46.96 50.7594 47.536C50.1114 48.112 49.1754 48.4 47.9874 48.4C46.7634 48.4 45.8274 48.184 45.1794 47.68C44.5314 47.176 44.2074 46.456 44.2074 45.52C44.2074 45.361 44.0785 45.232 43.9194 45.232H40.2114C39.9927 45.232 39.8154 45.4093 39.8154 45.628Z"
  />
</svg>
