<svg
  width="60"
  height="60"
  viewBox="0 0 60 60"
  fill="currentColor"
  xmlns="http://www.w3.org/2000/svg"
>
  <path
    d="M30 18.75C31.2427 18.75 32.25 19.7574 32.25 21V27.75H39C40.2427 27.75 41.25 28.7574 41.25 30C41.25 31.2427 40.2427 32.25 39 32.25H32.25V39C32.25 40.2427 31.2427 41.25 30 41.25C28.7574 41.25 27.75 40.2427 27.75 39V32.25H21C19.7574 32.25 18.75 31.2427 18.75 30C18.75 28.7574 19.7574 27.75 21 27.75H27.75V21C27.75 19.7574 28.7574 18.75 30 18.75Z"
  />
  <path
    fill-rule="evenodd"
    clip-rule="evenodd"
    d="M28.7795 4.27939C29.5887 4.15834 30.4114 4.15834 31.2206 4.27939C32.1386 4.41671 33.0063 4.75504 34.1084 5.18476L44.0344 9.04853C45.9115 9.77732 47.384 10.349 48.5085 11.3575C49.4955 12.2428 50.2547 13.353 50.7216 14.5939C51.2535 16.0076 51.2521 17.5872 51.2503 19.6009L51.2501 30.0378C51.2501 40.6365 44.7124 50.6519 34.1076 55.7297L34.0472 55.7586C33.221 56.1545 32.5613 56.4705 31.4659 56.6683C31.0057 56.7513 30.4537 56.7767 30.0001 56.7767C29.5464 56.7767 28.9944 56.7513 28.5342 56.6683C27.4388 56.4705 26.7792 56.1545 25.9529 55.7586L25.8925 55.7297C15.2877 50.6519 8.75005 40.6365 8.75005 30.0378L8.74984 19.6009C8.74804 17.5872 8.74663 16.0076 9.27853 14.5939C9.74545 13.353 10.5046 12.2428 11.4916 11.3575C12.6161 10.349 14.0886 9.77732 15.9658 9.04853L25.8917 5.18476C26.9938 4.75504 27.8615 4.41671 28.7795 4.27939ZM30.5548 8.72987C30.187 8.67484 29.8131 8.67484 29.4453 8.72987C29.0882 8.78327 28.7148 8.9148 27.3338 9.4524L17.9338 13.1116C15.5571 14.0368 14.9306 14.3179 14.4962 14.7075C14.0476 15.1099 13.7025 15.6145 13.4903 16.1786C13.2848 16.7247 13.2501 17.4106 13.2501 19.9609V30.0378C13.2501 38.7426 18.6422 47.2689 27.8359 51.671C28.6797 52.075 28.8642 52.1551 29.3338 52.2399C29.4098 52.2536 29.6557 52.2767 30.0001 52.2767C30.3444 52.2767 30.5903 52.2536 30.6663 52.2399C31.1359 52.1551 31.3204 52.075 32.1642 51.671C41.3579 47.2689 46.7501 38.7426 46.7501 30.0378V19.9609C46.7501 17.4106 46.7153 16.7247 46.5098 16.1786C46.2976 15.6145 45.9525 15.1099 45.5039 14.7075C45.0695 14.3179 44.443 14.0368 42.0663 13.1116L32.6663 9.4524C31.2853 8.9148 30.9119 8.78327 30.5548 8.72987Z"
  />
</svg>
