<svg
  width="60"
  height="60"
  viewBox="0 0 60 60"
  fill="currentColor"
  xmlns="http://www.w3.org/2000/svg"
>
  <path
    fill-rule="evenodd"
    clip-rule="evenodd"
    d="M36.0364 4.75H23.9636C22.9158 4.74996 21.9973 4.74992 21.2377 4.81197C20.4316 4.87784 19.6086 5.02468 18.8107 5.43121C17.6347 6.03042 16.6786 6.98655 16.0794 8.16256C15.6728 8.96044 15.526 9.78344 15.4601 10.5896C15.3981 11.3491 15.3981 12.2676 15.3982 13.3154L15.3982 15.3982L13.3154 15.3982C12.2676 15.3981 11.3491 15.3981 10.5896 15.4601C9.78344 15.526 8.96044 15.6728 8.16256 16.0794C6.98655 16.6786 6.03042 17.6347 5.43121 18.8107C5.02468 19.6086 4.87784 20.4316 4.81197 21.2377C4.74992 21.9973 4.74996 22.9158 4.75 23.9636V36.0364C4.74996 37.0842 4.74992 38.0028 4.81197 38.7623C4.87784 39.5684 5.02468 40.3914 5.43121 41.1893C6.03042 42.3653 6.98655 43.3214 8.16256 43.9206C8.96044 44.3272 9.78344 44.474 10.5896 44.5399C11.3491 44.6019 12.2676 44.6019 13.3154 44.6019H15.3982L15.3982 46.6846C15.3981 47.7324 15.3981 48.6509 15.4601 49.4104C15.526 50.2166 15.6728 51.0396 16.0794 51.8374C16.6786 53.0135 17.6347 53.9696 18.8107 54.5688C19.6086 54.9753 20.4316 55.1222 21.2377 55.188C21.9972 55.2501 22.9158 55.25 23.9635 55.25H36.0365C37.0842 55.25 38.0028 55.2501 38.7623 55.188C39.5684 55.1222 40.3914 54.9753 41.1893 54.5688C42.3653 53.9696 43.3214 53.0135 43.9206 51.8374C44.3272 51.0396 44.474 50.2166 44.5399 49.4104C44.6019 48.6509 44.6019 47.7324 44.6019 46.6846V44.6019H46.6846C47.7324 44.6019 48.6509 44.6019 49.4104 44.5399C50.2166 44.474 51.0396 44.3272 51.8374 43.9206C53.0135 43.3214 53.9696 42.3653 54.5688 41.1893C54.9753 40.3914 55.1222 39.5684 55.188 38.7623C55.2501 38.0028 55.25 37.0842 55.25 36.0365V23.9635C55.25 22.9158 55.2501 21.9972 55.188 21.2377C55.1222 20.4316 54.9753 19.6086 54.5688 18.8107C53.9696 17.6347 53.0135 16.6786 51.8374 16.0794C51.0396 15.6728 50.2166 15.526 49.4104 15.4601C48.6509 15.3981 47.7324 15.3981 46.6846 15.3982L44.6019 15.3982V13.3154C44.6019 12.2676 44.6019 11.3491 44.5399 10.5896C44.474 9.78344 44.3272 8.96044 43.9206 8.16256C43.3214 6.98655 42.3653 6.03042 41.1893 5.43121C40.3914 5.02468 39.5684 4.87784 38.7623 4.81197C38.0028 4.74992 37.0842 4.74996 36.0364 4.75ZM20.8537 9.44074C20.9114 9.41131 21.0763 9.34016 21.6042 9.29703C22.1583 9.25175 22.8909 9.25 24.0482 9.25H35.9518C37.1091 9.25 37.8417 9.25175 38.3958 9.29703C38.9237 9.34016 39.0886 9.41131 39.1463 9.44074C39.4756 9.60852 39.7433 9.87624 39.9111 10.2055C39.9406 10.2633 40.0117 10.4282 40.0548 10.956C40.1001 11.5102 40.1019 12.2428 40.1019 13.4V17.4906C40.1019 17.5022 40.1018 17.5313 40.1023 17.5606C40.1028 17.5927 40.1042 17.6578 40.1107 17.7371C40.1234 17.8929 40.164 18.2343 40.358 18.615C40.5833 19.0572 40.9428 19.4167 41.385 19.642C41.7657 19.836 42.1071 19.8766 42.263 19.8893C42.3422 19.8958 42.4073 19.8972 42.4394 19.8977C42.4715 19.8982 42.503 19.8982 42.5119 19.8982H46.6C47.7572 19.8982 48.4898 19.8999 49.044 19.9452C49.5718 19.9883 49.7367 20.0595 49.7945 20.0889C50.1238 20.2567 50.3915 20.5244 50.5593 20.8537C50.5887 20.9114 50.6599 21.0763 50.703 21.6042C50.7483 22.1583 50.75 22.8909 50.75 24.0482V27.75H40.2619L36.7332 21.9757C36.5481 21.6726 36.3374 21.3275 36.1337 21.0536C35.9386 20.7913 35.4926 20.223 34.7218 19.9367C33.8605 19.6168 32.9008 19.7023 32.1095 20.1694C31.4015 20.5874 31.0629 21.2255 30.9173 21.5182C30.7652 21.8239 30.6188 22.2006 30.4901 22.5318L26.0501 33.949L23.2942 29.4393C23.2889 29.4306 23.282 29.419 23.2735 29.4046C23.1864 29.2573 22.9332 28.8292 22.5523 28.4981C22.2374 28.2244 21.8698 28.0182 21.4721 27.8923C20.9909 27.74 20.4937 27.7471 20.3225 27.7496C20.3058 27.7498 20.2923 27.75 20.2821 27.75H9.25V24.0482C9.25 22.8909 9.25175 22.1583 9.29703 21.6042C9.34016 21.0763 9.41131 20.9114 9.44074 20.8537C9.60852 20.5244 9.87624 20.2567 10.2055 20.0889C10.2633 20.0595 10.4282 19.9883 10.956 19.9452C11.5102 19.8999 12.2428 19.8982 13.4 19.8982H17.4906C17.5019 19.8982 17.531 19.8982 17.5606 19.8977C17.5927 19.8972 17.6578 19.8958 17.7371 19.8893C17.8929 19.8766 18.2343 19.836 18.615 19.642C19.0572 19.4167 19.4167 19.0572 19.642 18.615C19.836 18.2343 19.8766 17.8929 19.8893 17.7371C19.8958 17.6578 19.8972 17.5927 19.8977 17.5606C19.8982 17.531 19.8982 17.5019 19.8982 17.4906V13.4C19.8982 12.2428 19.8999 11.5102 19.9452 10.956C19.9883 10.4282 20.0595 10.2633 20.0889 10.2055C20.2567 9.87624 20.5244 9.60852 20.8537 9.44074ZM9.25 32.25V35.9519C9.25 37.1091 9.25175 37.8417 9.29703 38.3958C9.34016 38.9237 9.41131 39.0886 9.44074 39.1463C9.60852 39.4756 9.87624 39.7433 10.2055 39.9111C10.2633 39.9406 10.4282 40.0117 10.956 40.0548C11.5102 40.1001 12.2428 40.1019 13.4 40.1019H17.4906C17.4959 40.1019 17.5048 40.1019 17.5159 40.1019C17.5289 40.1019 17.5446 40.1021 17.5606 40.1023C17.5927 40.1028 17.6578 40.1042 17.7371 40.1107C17.8929 40.1234 18.2343 40.164 18.615 40.358C19.0572 40.5833 19.4167 40.9428 19.642 41.385C19.836 41.7657 19.8766 42.1071 19.8893 42.263C19.8958 42.3422 19.8972 42.4073 19.8977 42.4394C19.8982 42.469 19.8982 42.4981 19.8982 42.5094V46.6C19.8982 47.7572 19.8999 48.4898 19.9452 49.044C19.9883 49.5718 20.0595 49.7367 20.0889 49.7945C20.2567 50.1238 20.5244 50.3915 20.8537 50.5593C20.9114 50.5887 21.0763 50.6599 21.6042 50.703C22.1583 50.7483 22.8909 50.75 24.0482 50.75H35.9519C37.1091 50.75 37.8417 50.7483 38.3958 50.703C38.9237 50.6599 39.0886 50.5887 39.1463 50.5593C39.4756 50.3915 39.7433 50.1238 39.9111 49.7945C39.9406 49.7367 40.0117 49.5718 40.0548 49.044C40.1001 48.4898 40.1019 47.7572 40.1019 46.6V42.5119C40.1019 42.503 40.1018 42.4715 40.1023 42.4394C40.1028 42.4073 40.1042 42.3422 40.1107 42.263C40.1234 42.1071 40.164 41.7657 40.358 41.385C40.5833 40.9428 40.9428 40.5833 41.385 40.358C41.7657 40.164 42.1071 40.1234 42.263 40.1107C42.3422 40.1042 42.4073 40.1028 42.4394 40.1023C42.469 40.1018 42.4981 40.1019 42.5094 40.1019H46.6C47.7572 40.1019 48.4898 40.1001 49.044 40.0548C49.5718 40.0117 49.7367 39.9406 49.7945 39.9111C50.1238 39.7433 50.3915 39.4756 50.5593 39.1463C50.5887 39.0886 50.6599 38.9237 50.703 38.3958C50.7483 37.8417 50.75 37.1091 50.75 35.9518V32.25H39.7179C39.7077 32.25 39.6942 32.2502 39.6775 32.2504C39.5063 32.2529 39.009 32.2601 38.5279 32.1077C38.1302 31.9818 37.7626 31.7756 37.4477 31.5019C37.0668 31.1708 36.8136 30.7427 36.7265 30.5954C36.718 30.5811 36.7111 30.5694 36.7058 30.5607L33.9499 26.051L29.5099 37.4682C29.3812 37.7994 29.2348 38.1762 29.0827 38.4818C28.9371 38.7745 28.5985 39.4127 27.8905 39.8306C27.0992 40.2977 26.1395 40.3832 25.2782 40.0633C24.5074 39.777 24.0614 39.2087 23.8663 38.9464C23.6626 38.6724 23.4519 38.3274 23.2668 38.0243L19.7381 32.25H9.25Z"
  />
</svg>
