<svg
  width="60"
  height="60"
  viewBox="0 0 60 60"
  fill="currentColor"
  xmlns="http://www.w3.org/2000/svg"
>
  <path
    fill-rule="evenodd"
    clip-rule="evenodd"
    d="M26.3755 13.1074C21.7174 10.1549 15.4888 10.7219 11.4298 14.8083C6.91488 19.3536 7.3997 26.1063 11.6869 32.3357C13.9119 35.5686 17.9814 40.5758 21.9474 44.7696C23.9303 46.8663 25.8391 48.7082 27.441 50.0086C28.2448 50.661 28.9223 51.1369 29.4574 51.4385C29.8022 51.633 30.0045 51.7069 30.0879 51.7345C30.1736 51.7068 30.3853 51.6317 30.7491 51.4302C31.2994 51.1254 31.9955 50.6465 32.8181 49.9934C34.4573 48.6918 36.4105 46.8494 38.419 44.7573C42.4524 40.556 46.4797 35.5889 48.4216 32.4324C52.3627 26.026 53.2022 19.2989 48.7417 14.8083C44.6827 10.7219 38.4541 10.1549 33.796 13.1074L33.758 13.1315C33.2157 13.4752 32.7551 13.7671 32.3894 13.9802C32.0754 14.1632 31.5784 14.445 31.0379 14.5692C31.0306 14.5709 31.023 14.5726 31.015 14.5745C30.8273 14.6178 30.4813 14.6977 30.0857 14.6977C29.6902 14.6977 29.3442 14.6178 29.1564 14.5745C29.1485 14.5726 29.1409 14.5709 29.1335 14.5692C28.5931 14.445 28.0961 14.1632 27.7821 13.9802C27.4163 13.7671 26.9558 13.4752 26.4135 13.1315L26.3755 13.1074ZM8.23715 11.637C13.8137 6.02284 22.3782 5.24604 28.7846 9.30655C29.3751 9.68086 29.7636 9.92665 30.0475 10.092C30.0608 10.0998 30.0735 10.1072 30.0857 10.1142C30.0979 10.1072 30.1107 10.0998 30.124 10.092C30.4078 9.92665 30.7963 9.68086 31.3869 9.30655C37.7932 5.24604 46.3577 6.02284 51.9343 11.637C58.6588 18.4067 56.5483 27.8105 52.2544 34.7903C50.0788 38.3267 45.8124 43.554 41.6652 47.8738C39.5834 50.0422 37.4746 52.042 35.6163 53.5176C34.6901 54.253 33.7786 54.8964 32.9294 55.3667C32.1506 55.7981 31.1371 56.25 30.0857 56.25C29.028 56.25 28.019 55.7935 27.2471 55.3583C26.4075 54.8849 25.5118 54.2385 24.605 53.5024C22.7857 52.0256 20.7242 50.0253 18.6779 47.8615C14.5856 43.5342 10.3614 38.3471 7.98001 34.8869C3.05459 27.7302 1.56705 18.352 8.23715 11.637ZM29.8555 10.2375C29.8556 10.2374 29.858 10.2363 29.8626 10.2344C29.8578 10.2366 29.8555 10.2375 29.8555 10.2375ZM30.3159 10.2375C30.316 10.2375 30.3136 10.2366 30.3088 10.2344C30.3135 10.2363 30.3159 10.2374 30.3159 10.2375Z"
  />
</svg>
