<svg
  width="60"
  height="60"
  viewBox="0 0 60 60"
  fill="currentColor"
  xmlns="http://www.w3.org/2000/svg"
>
  <path
    fill-rule="evenodd"
    clip-rule="evenodd"
    d="M53.2273 11.0793C55.4291 14.0486 56.25 17.6507 56.25 20.4224C56.25 27.449 53.5759 32.8051 49.3566 37.5797C45.6577 41.7652 40.6673 45.6085 35.2389 49.7892C34.6162 50.2687 33.9879 50.7526 33.355 51.242L33.3098 51.277C32.992 51.5228 32.6684 51.7732 32.3739 51.9693C32.044 52.189 31.6279 52.4269 31.1062 52.5675C30.3788 52.7636 29.6212 52.7636 28.8938 52.5675C28.3721 52.4269 27.956 52.189 27.6261 51.9693C27.3316 51.7732 27.008 51.5228 26.6902 51.277L26.645 51.242C26.0122 50.7526 25.3838 50.2687 24.7612 49.7892C19.3327 45.6086 14.3423 41.7653 10.6434 37.5796C6.42406 32.805 3.75 27.4488 3.75 20.4222C3.75 17.6508 4.57089 14.0487 6.77269 11.0795C9.047 8.01244 12.7107 5.75022 18 5.75022C22.6963 5.75022 26.0298 7.89946 28.2299 10.2615C28.9235 11.0061 29.5097 11.7762 30 12.5155C30.4902 11.7761 31.0764 11.006 31.77 10.2614C33.9701 7.8993 37.3037 5.75 42 5.75C47.2893 5.75 50.953 8.01218 53.2273 11.0793ZM49.6127 13.7596C48.167 11.81 45.8307 10.25 42 10.25C38.8352 10.25 36.6257 11.6506 35.0629 13.3285C33.4611 15.0482 32.597 17.0112 32.2782 17.855C32.2765 17.8595 32.2746 17.8648 32.2723 17.8708C32.2496 17.9311 32.1999 18.0634 32.1469 18.1798C32.1167 18.2462 32.0478 18.3929 31.9373 18.5568C31.8443 18.6947 31.583 19.0588 31.0932 19.3162C30.407 19.6768 29.593 19.6768 28.9069 19.3162C28.417 19.0588 28.1557 18.6947 28.0627 18.5568C27.9522 18.3929 27.8833 18.2462 27.8531 18.1799C27.8001 18.0634 27.7504 17.9311 27.7277 17.8708C27.7254 17.8648 27.7235 17.8595 27.7218 17.855C27.4029 17.0112 26.5389 15.0483 24.9371 13.3286C23.3743 11.6508 21.1648 10.2502 18 10.2502C14.1693 10.2502 11.833 11.8103 10.3873 13.7599C8.86911 15.8072 8.25 18.4162 8.25 20.4222C8.25 26.1093 10.3449 30.4463 14.0154 34.5998C17.4101 38.4412 22.0361 42.0067 27.5524 46.2583C28.157 46.7243 28.7723 47.1985 29.3978 47.6823C29.6843 47.9038 29.8658 48.0433 30 48.14C30.1342 48.0433 30.3157 47.9038 30.6022 47.6823C31.2277 47.1985 31.843 46.7243 32.4476 46.2583C37.9639 42.0066 42.5899 38.4412 45.9846 34.5998C49.6551 30.4463 51.75 26.1094 51.75 20.4224C51.75 18.4161 51.1309 15.807 49.6127 13.7596Z"
  />
</svg>
