<svg
  width="60"
  height="60"
  viewBox="0 0 60 60"
  fill="currentColor"
  xmlns="http://www.w3.org/2000/svg"
>
  <path
    fill-rule="evenodd"
    clip-rule="evenodd"
    d="M56.25 20.4224C56.25 17.6507 55.4291 14.0486 53.2273 11.0793C50.953 8.01218 47.2893 5.75 42 5.75C37.3037 5.75 33.9701 7.8993 31.77 10.2614C31.0764 11.006 30.4902 11.7761 30 12.5155C29.5097 11.7762 28.9235 11.0061 28.2299 10.2615C26.0298 7.89946 22.6963 5.75022 18 5.75022C12.7107 5.75022 9.047 8.01244 6.77269 11.0795C4.57089 14.0487 3.75 17.6508 3.75 20.4222C3.75 27.4488 6.42406 32.805 10.6434 37.5796C14.3423 41.7653 19.3327 45.6086 24.7612 49.7892C25.3838 50.2687 26.0122 50.7526 26.645 51.242L26.6902 51.277C27.008 51.5228 27.3316 51.7732 27.6261 51.9693C27.956 52.189 28.3721 52.4269 28.8938 52.5675C29.6212 52.7636 30.3788 52.7636 31.1062 52.5675C31.6279 52.4269 32.044 52.189 32.3739 51.9693C32.6684 51.7732 32.992 51.5228 33.3098 51.277L33.355 51.242C33.9879 50.7526 34.6162 50.2687 35.2389 49.7892C40.6673 45.6085 45.6577 41.7652 49.3566 37.5797C53.5759 32.8051 56.25 27.449 56.25 20.4224ZM42 10.25C45.8307 10.25 48.167 11.81 49.6127 13.7596C51.1309 15.807 51.75 18.4161 51.75 20.4224C51.75 23.5399 51.1205 26.2517 49.947 28.75H40.2619L36.7332 22.9757C36.5481 22.6726 36.3374 22.3275 36.1337 22.0536C35.9386 21.7913 35.4926 21.223 34.7218 20.9367C33.8605 20.6168 32.9008 20.7023 32.1095 21.1694C31.4015 21.5873 31.0629 22.2255 30.9173 22.5182C30.7652 22.8238 30.6188 23.2006 30.4901 23.5318L26.0501 34.949L23.2942 30.4393C23.2889 30.4306 23.282 30.4189 23.2735 30.4046C23.1864 30.2573 22.9332 29.8292 22.5523 29.4981C22.2374 29.2244 21.8698 29.0182 21.4721 28.8923C20.991 28.7399 20.4937 28.7471 20.3225 28.7496C20.3059 28.7498 20.2923 28.75 20.2821 28.75H10.0531C8.87954 26.2517 8.25 23.5398 8.25 20.4222C8.25 18.4162 8.86911 15.8072 10.3873 13.7599C11.833 11.8103 14.1693 10.2502 18 10.2502C21.1648 10.2502 23.3743 11.6508 24.9371 13.3286C26.5389 15.0483 27.4029 17.0112 27.7218 17.855L27.7277 17.8708C27.7504 17.9311 27.8001 18.0634 27.8531 18.1799C27.8833 18.2462 27.9522 18.3929 28.0627 18.5568C28.1557 18.6947 28.417 19.0588 28.9069 19.3162C29.593 19.6768 30.407 19.6768 31.0932 19.3162C31.583 19.0588 31.8443 18.6947 31.9373 18.5568C32.0478 18.3929 32.1167 18.2462 32.1469 18.1798C32.1999 18.0634 32.2496 17.9311 32.2723 17.8708L32.2782 17.855C32.597 17.0112 33.4611 15.0482 35.0629 13.3285C36.6257 11.6506 38.8352 10.25 42 10.25ZM12.885 33.25C13.2431 33.703 13.6201 34.1525 14.0154 34.5998C17.4101 38.4412 22.0361 42.0067 27.5524 46.2583C28.157 46.7243 28.7723 47.1985 29.3978 47.6823C29.6843 47.9038 29.8658 48.0433 30 48.14C30.1342 48.0433 30.3157 47.9038 30.6022 47.6823C31.2265 47.1994 31.8407 46.7261 32.4442 46.2609L32.4476 46.2583C37.9639 42.0067 42.5899 38.4412 45.9846 34.5998C46.3799 34.1525 46.7569 33.703 47.115 33.25H39.7179C39.7127 33.25 39.7067 33.25 39.6999 33.2501C39.6932 33.2502 39.6857 33.2503 39.6775 33.2504C39.5063 33.2529 39.0091 33.2601 38.5279 33.1077C38.1302 32.9818 37.7626 32.7756 37.4477 32.5019C37.0668 32.1708 36.8136 31.7427 36.7265 31.5954C36.718 31.5811 36.7111 31.5694 36.7058 31.5607L33.9499 27.051L29.5099 38.4682C29.3812 38.7994 29.2348 39.1762 29.0827 39.4818C28.9371 39.7745 28.5985 40.4127 27.8905 40.8306C27.0992 41.2977 26.1395 41.3832 25.2782 41.0633C24.5074 40.777 24.0614 40.2087 23.8663 39.9464C23.6626 39.6725 23.452 39.3275 23.2668 39.0243L19.7381 33.25H12.885Z"
  />
</svg>
