<svg
  width="60"
  height="60"
  viewBox="0 0 60 60"
  fill="currentColor"
  xmlns="http://www.w3.org/2000/svg"
>
  <path
    fill-rule="evenodd"
    clip-rule="evenodd"
    d="M30 17.25C27.9251 17.25 26.0703 18.1835 24.8286 19.6616C23.8422 20.8358 23.25 22.3458 23.25 24C23.25 25.2426 22.2426 26.25 21 26.25C19.7574 26.25 18.75 25.2426 18.75 24C18.75 21.248 19.741 18.7216 21.3831 16.767C23.4433 14.3147 26.54 12.75 30 12.75C36.2132 12.75 41.25 17.7868 41.25 24C41.25 28.4847 38.6258 32.352 34.8391 34.1584C33.0739 35.0004 32.25 36.1376 32.25 37C32.25 38.2426 31.2426 39.25 30 39.25C28.7574 39.25 27.75 38.2426 27.75 37C27.75 33.4441 30.6789 31.1572 32.9015 30.0969C35.182 29.009 36.75 26.6854 36.75 24C36.75 20.2721 33.7279 17.25 30 17.25Z"
  />
  <path
    fill-rule="evenodd"
    clip-rule="evenodd"
    d="M27.5 45C27.5 43.6193 28.6193 42.5 30 42.5H30.1C31.4807 42.5 32.6 43.6193 32.6 45C32.6 46.3807 31.4807 47.5 30.1 47.5H30C28.6193 47.5 27.5 46.3807 27.5 45Z"
  />
  <path
    fill-rule="evenodd"
    clip-rule="evenodd"
    d="M4.75 16C4.75 9.7868 9.7868 4.75 16 4.75H44C50.2132 4.75 55.25 9.7868 55.25 16V44C55.25 50.2132 50.2132 55.25 44 55.25H16C9.7868 55.25 4.75 50.2132 4.75 44V16ZM16 9.25C12.2721 9.25 9.25 12.2721 9.25 16V44C9.25 47.7279 12.2721 50.75 16 50.75H44C47.7279 50.75 50.75 47.7279 50.75 44V16C50.75 12.2721 47.7279 9.25 44 9.25H16Z"
  />
</svg>
