<svg
  width="60"
  height="60"
  viewBox="0 0 60 60"
  fill="currentColor"
  xmlns="http://www.w3.org/2000/svg"
>
  <path
    d="M32.25 17.5C32.25 16.2574 31.2426 15.25 30 15.25C28.7574 15.25 27.75 16.2574 27.75 17.5L27.75 30.432L38.909 41.591C39.7877 42.4697 41.2123 42.4697 42.091 41.591C42.9697 40.7123 42.9697 39.2877 42.091 38.409L32.25 28.568L32.25 17.5Z"
  />
  <path
    fill-rule="evenodd"
    clip-rule="evenodd"
    d="M30 2.75C14.9502 2.75 2.75 14.9502 2.75 30C2.75 45.0498 14.9502 57.25 30 57.25C45.0498 57.25 57.25 45.0498 57.25 30C57.25 14.9502 45.0498 2.75 30 2.75ZM7.25 30C7.25 17.4355 17.4355 7.25 30 7.25C42.5645 7.25 52.75 17.4355 52.75 30C52.75 42.5645 42.5645 52.75 30 52.75C17.4355 52.75 7.25 42.5645 7.25 30Z"
  />
</svg>
