<svg
  width="60"
  height="60"
  viewBox="0 0 60 60"
  fill="currentColor"
  xmlns="http://www.w3.org/2000/svg"
>
  <path
    fill-rule="evenodd"
    clip-rule="evenodd"
    d="M28.8038 9.10771C29.5883 8.90355 30.412 8.90355 31.1965 9.10771C31.9829 9.31237 32.7717 9.84643 35.32 11.7299L46.471 19.972C48.4798 21.4568 49.1156 21.9524 49.5637 22.5369C50.0007 23.1071 50.3271 23.7541 50.5258 24.4444C50.7295 25.1522 50.7502 25.9581 50.7502 28.4561V39.6C50.7502 42.1574 50.7484 43.9401 50.635 45.328C50.5238 46.6896 50.3164 47.4719 50.0145 48.0645C49.3673 49.3346 48.3347 50.3672 47.0646 51.0143C46.472 51.3162 45.6898 51.5236 44.3281 51.6349C42.9402 51.7483 41.1575 51.75 38.6002 51.75H21.4002C18.8428 51.75 17.0601 51.7483 15.6722 51.6349C14.3106 51.5236 13.5283 51.3162 12.9357 51.0143C11.6656 50.3672 10.633 49.3346 9.98587 48.0645C9.68395 47.4719 9.47656 46.6896 9.36531 45.328C9.25191 43.9401 9.25017 42.1574 9.25017 39.6V28.4561C9.25017 25.9581 9.27081 25.1522 9.47455 24.4444C9.67328 23.7541 9.99961 23.1071 10.4366 22.5369C10.8847 21.9524 11.5205 21.4568 13.5293 19.972L24.6804 11.7299C27.2287 9.84643 28.0174 9.31237 28.8038 9.10771ZM32.3299 4.75278C30.8022 4.35519 29.1981 4.35519 27.6704 4.75278C25.931 5.20548 24.4002 6.33863 22.3412 7.86282L22.0056 8.11116L10.8546 16.3532L10.6136 16.5312L10.6136 16.5312C8.94336 17.7647 7.74837 18.6471 6.86519 19.7993C6.08613 20.8156 5.50441 21.969 5.15016 23.1996C4.74857 24.5946 4.7492 26.0802 4.75008 28.1565L4.75016 28.4561V39.6L4.75016 39.6963C4.75014 42.1349 4.75012 44.1017 4.88026 45.6944C5.01424 47.3343 5.29732 48.7748 5.97634 50.1074C7.05492 52.2242 8.77595 53.9453 10.8928 55.0239C12.2254 55.7029 13.6658 55.986 15.3058 56.1199C16.8985 56.2501 18.8653 56.2501 21.3038 56.25H21.3038H21.4002H38.6002H38.6965H38.6966C41.135 56.2501 43.1019 56.2501 44.6946 56.1199C46.3345 55.986 47.7749 55.7029 49.1076 55.0239C51.2244 53.9453 52.9454 52.2242 54.024 50.1074C54.703 48.7748 54.9861 47.3343 55.1201 45.6944C55.2502 44.1017 55.2502 42.1349 55.2502 39.6964V39.6964V39.6V28.4561L55.2502 28.1565C55.2511 26.0802 55.2518 24.5947 54.8502 23.1996C54.4959 21.969 53.9142 20.8156 53.1351 19.7993C52.252 18.6471 51.057 17.7647 49.3867 16.5312L49.1458 16.3532L37.9947 8.11116L37.6591 7.86282C35.6001 6.33862 34.0693 5.20548 32.3299 4.75278ZM27.7502 44C27.7502 45.2427 28.7575 46.25 30.0002 46.25C31.2428 46.25 32.2502 45.2427 32.2502 44V34C32.2502 32.7574 31.2428 31.75 30.0002 31.75C28.7575 31.75 27.7502 32.7574 27.7502 34V44Z"
  />
</svg>
