<svg
  width="60"
  height="60"
  viewBox="0 0 60 60"
  fill="currentColor"
  xmlns="http://www.w3.org/2000/svg"
>
  <path
    d="M27.75 44C27.75 45.2426 28.7574 46.25 30 46.25C31.2426 46.25 32.25 45.2426 32.25 44V34C32.25 32.7574 31.2426 31.75 30 31.75C28.7574 31.75 27.75 32.7574 27.75 34V44Z"
  />
  <path
    fill-rule="evenodd"
    clip-rule="evenodd"
    d="M32.3299 4.75229C30.8022 4.35471 29.1981 4.35471 27.6704 4.75229C25.931 5.20499 24.4002 6.33814 22.3413 7.86233L10.6136 16.5307C8.94336 17.7642 7.74837 18.6466 6.86519 19.7988C6.08613 20.8151 5.50441 21.9685 5.15016 23.1991C4.74857 24.5942 4.7492 26.0797 4.75008 28.156L4.75016 38.6959C4.75014 41.1344 4.75012 43.1012 4.88026 44.6939C5.01424 46.3339 5.29732 47.7743 5.97634 49.1069C7.05492 51.2238 8.77595 52.9448 10.8928 54.0234C12.2254 54.7024 13.6658 54.9855 15.3058 55.1195C16.8985 55.2496 18.8653 55.2496 21.3038 55.2495H38.6965C41.135 55.2496 43.1019 55.2496 44.6946 55.1195C46.3345 54.9855 47.7749 54.7024 49.1076 54.0234C51.2244 52.9448 52.9454 51.2238 54.024 49.1069C54.703 47.7743 54.9861 46.3339 55.1201 44.6939C55.2502 43.1012 55.2502 41.1344 55.2502 38.6959L55.2502 28.1561C55.2511 26.0797 55.2518 24.5942 54.8502 23.1991C54.4959 21.9685 53.9142 20.8151 53.1351 19.7988C52.252 18.6466 51.057 17.7642 49.3867 16.5307L37.6591 7.86233C35.6001 6.33814 34.0693 5.20499 32.3299 4.75229ZM28.8038 9.10723C29.5883 8.90306 30.412 8.90306 31.1965 9.10723C31.9829 9.31189 32.7717 9.84594 35.32 11.7295L46.471 19.9715C48.4798 21.4563 49.1156 21.9519 49.5637 22.5365C50.0007 23.1066 50.3271 23.7536 50.5258 24.4439C50.7295 25.1517 50.7502 25.9576 50.7502 28.4556V38.5995C50.7502 41.1569 50.7484 42.9396 50.635 44.3275C50.5238 45.6891 50.3164 46.4714 50.0145 47.064C49.3673 48.3341 48.3347 49.3667 47.0646 50.0138C46.472 50.3158 45.6898 50.5231 44.3281 50.6344C42.9402 50.7478 41.1575 50.7495 38.6002 50.7495H21.4002C18.8428 50.7495 17.0601 50.7478 15.6722 50.6344C14.3106 50.5231 13.5283 50.3158 12.9357 50.0138C11.6656 49.3667 10.633 48.3341 9.98587 47.064C9.68395 46.4714 9.47656 45.6891 9.36531 44.3275C9.25191 42.9396 9.25016 41.1569 9.25016 38.5995V28.4556C9.25016 25.9576 9.27081 25.1517 9.47455 24.4439C9.67328 23.7536 9.99961 23.1066 10.4366 22.5365C10.8847 21.9519 11.5205 21.4563 13.5293 19.9715L24.6804 11.7295C27.2287 9.84594 28.0174 9.31189 28.8038 9.10723Z"
  />
</svg>
