<svg
  width="60"
  height="60"
  viewBox="0 0 60 60"
  fill="currentColor"
  xmlns="http://www.w3.org/2000/svg"
>
  <path
    d="M30 20.75C31.2427 20.75 32.25 21.7574 32.25 23V29.75H39C40.2427 29.75 41.25 30.7574 41.25 32C41.25 33.2426 40.2427 34.25 39 34.25H32.25V41C32.25 42.2426 31.2427 43.25 30 43.25C28.7574 43.25 27.75 42.2426 27.75 41V34.25H21C19.7574 34.25 18.75 33.2426 18.75 32C18.75 30.7574 19.7574 29.75 21 29.75H27.75V23C27.75 21.7574 28.7574 20.75 30 20.75Z"
  />
  <path
    fill-rule="evenodd"
    clip-rule="evenodd"
    d="M32.3298 4.75275C30.8021 4.35516 29.198 4.35516 27.6703 4.75275C25.9309 5.20545 24.4001 6.3386 22.3411 7.86279L10.6135 16.5312C8.94324 17.7646 7.74825 18.6471 6.86507 19.7993C6.086 20.8156 5.50429 21.9689 5.15004 23.1996C4.74845 24.5946 4.74908 26.0801 4.74996 28.1565L4.75004 38.6963C4.75002 41.1348 4.75 43.1017 4.88013 44.6944C5.01412 46.3343 5.2972 47.7747 5.97622 49.1074C7.0548 51.2242 8.77583 52.9452 10.8926 54.0238C12.2253 54.7028 13.6657 54.9859 15.3056 55.1199C16.8983 55.25 18.8652 55.25 21.3036 55.25H38.6964C41.1349 55.25 43.1017 55.25 44.6944 55.1199C46.3344 54.9859 47.7748 54.7028 49.1074 54.0238C51.2243 52.9452 52.9453 51.2242 54.0239 49.1074C54.7029 47.7747 54.986 46.3343 55.12 44.6944C55.2501 43.1017 55.2501 41.1349 55.25 38.6964L55.2501 28.1565C55.251 26.0801 55.2516 24.5946 54.85 23.1996C54.4958 21.9689 53.9141 20.8156 53.135 19.7993C52.2518 18.6471 51.0568 17.7646 49.3866 16.5312L37.659 7.86279C35.6 6.33859 34.0692 5.20545 32.3298 4.75275ZM28.8037 9.10768C29.5882 8.90352 30.4119 8.90352 31.1964 9.10768C31.9828 9.31234 32.7715 9.8464 35.3198 11.7299L46.4709 19.972C48.4797 21.4568 49.1155 21.9524 49.5636 22.5369C50.0006 23.1071 50.3269 23.7541 50.5257 24.4444C50.7294 25.1522 50.75 25.958 50.75 28.456V38.6C50.75 41.1574 50.7483 42.9401 50.6349 44.328C50.5236 45.6896 50.3163 46.4719 50.0143 47.0644C49.3672 48.3345 48.3346 49.3671 47.0645 50.0143C46.4719 50.3162 45.6896 50.5236 44.328 50.6349C42.9401 50.7482 41.1574 50.75 38.6 50.75H21.4C18.8427 50.75 17.06 50.7482 15.6721 50.6349C14.3105 50.5236 13.5282 50.3162 12.9356 50.0143C11.6655 49.3671 10.6329 48.3345 9.98575 47.0644C9.68383 46.4719 9.47644 45.6896 9.36519 44.328C9.25179 42.9401 9.25004 41.1574 9.25004 38.6V28.456C9.25004 25.958 9.27069 25.1522 9.47443 24.4444C9.67316 23.7541 9.99948 23.1071 10.4365 22.5369C10.8846 21.9524 11.5204 21.4568 13.5292 19.972L24.6802 11.7299C27.2285 9.8464 28.0173 9.31234 28.8037 9.10768Z"
  />
</svg>
