<svg
  width="60"
  height="60"
  viewBox="0 0 60 60"
  fill="currentColor"
  xmlns="http://www.w3.org/2000/svg"
>
  <path
    d="M34.4882 11.4465C32.6189 7.91836 30.5137 5.57808 28.5788 4.32264C27.6329 3.70885 26.5692 3.25293 25.497 3.20589C24.3543 3.15577 22.9298 3.6177 22.2772 5.08627C19.9809 10.2536 18.5192 13.411 15.6819 17.5776C14.207 19.7435 12.237 22.6518 10.643 25.8883C9.05588 29.1108 7.75 32.8355 7.75 36.6514C7.75 43.4545 10.7171 48.6715 15.0271 52.1389C19.2834 55.5631 24.7966 57.25 30 57.25C35.2034 57.25 40.7166 55.5631 44.9729 52.1389C49.2829 48.6715 52.25 43.4545 52.25 36.6514C52.25 29.4708 50.3622 24.4179 46.389 18.2776C45.6837 17.1875 44.9478 16.2271 44.1333 15.6653C43.6999 15.3664 43.022 15.025 42.1734 15.0759C41.2538 15.131 40.5929 15.6146 40.1925 16.0809C39.8262 16.5075 39.615 16.9825 39.4867 17.33C39.3502 17.6995 39.2501 18.087 39.1716 18.4418C39.0566 18.9623 38.956 19.5721 38.8649 20.1244C38.8364 20.2972 38.8088 20.4643 38.7821 20.6213C38.5629 21.9061 38.3044 22.9225 38.021 23.5714C37.7284 23.3878 37.5356 23.1573 37.3754 22.879C37.0614 22.3334 36.8406 21.535 36.6483 20.3192C36.5844 19.9157 36.5261 19.4625 36.463 18.9721C36.1863 16.8211 35.8177 13.9559 34.4882 11.4465Z"
    fill="black"
    fill-opacity="0.96"
  />
  <path
    d="M34.4882 11.4465C32.6189 7.91836 30.5137 5.57808 28.5788 4.32264C27.6329 3.70885 26.5692 3.25293 25.497 3.20589C24.3543 3.15577 22.9298 3.6177 22.2772 5.08627C19.9809 10.2536 18.5192 13.411 15.6819 17.5776C14.207 19.7435 12.237 22.6518 10.643 25.8883C9.05588 29.1108 7.75 32.8355 7.75 36.6514C7.75 43.4545 10.7171 48.6715 15.0271 52.1389C19.2834 55.5631 24.7966 57.25 30 57.25C35.2034 57.25 40.7166 55.5631 44.9729 52.1389C49.2829 48.6715 52.25 43.4545 52.25 36.6514C52.25 29.4708 50.3622 24.4179 46.389 18.2776C45.6837 17.1875 44.9478 16.2271 44.1333 15.6653C43.6999 15.3664 43.022 15.025 42.1734 15.0759C41.2538 15.131 40.5929 15.6146 40.1925 16.0809C39.8262 16.5075 39.615 16.9825 39.4867 17.33C39.3502 17.6995 39.2501 18.087 39.1716 18.4418C39.0566 18.9623 38.956 19.5721 38.8649 20.1244C38.8364 20.2972 38.8088 20.4643 38.7821 20.6213C38.5629 21.9061 38.3044 22.9225 38.021 23.5714C37.7284 23.3878 37.5356 23.1573 37.3754 22.879C37.0614 22.3334 36.8406 21.535 36.6483 20.3192C36.5844 19.9157 36.5261 19.4625 36.463 18.9721C36.1863 16.8211 35.8177 13.9559 34.4882 11.4465Z"
    fill="url(#paint0_linear_14427_152)"
  />
  <path
    d="M33.5506 32.6917C33.3545 32.543 33.0592 32.1646 32.7511 31.3215C32.452 30.503 32.2379 29.5306 32.0098 28.4379L31.9636 28.2157C31.7661 27.2653 31.535 26.1526 31.2005 25.2579C30.9048 24.4669 30.1321 22.7259 28.1952 22.4589C26.3521 22.2048 24.6477 22.8536 23.2758 23.7626C21.8949 24.6774 20.674 25.9657 19.6824 27.35C18.685 28.7425 17.8601 30.3151 17.3132 31.8762C16.7758 33.41 16.4541 35.0843 16.6271 36.6337C16.983 39.8216 17.7463 42.2342 19.0394 44.1679C20.3365 46.1076 22.0323 47.3606 23.8564 48.4375C28.0285 50.9007 33.8603 50.8079 38.6579 47.9294C39.6928 47.3084 40.4834 46.37 41.0724 45.4393C41.674 44.4885 42.15 43.4115 42.5028 42.3474C43.1734 40.3247 43.5476 37.8819 43.1252 36.0968C42.9433 35.3285 42.5338 34.6675 41.9303 34.1785C41.3678 33.7226 40.7442 33.5022 40.234 33.3845C39.3105 33.1715 38.2331 33.192 37.4393 33.2071L37.324 33.2093C36.4175 33.2263 35.6532 33.2407 34.9491 33.1525C34.2477 33.0647 33.82 32.8958 33.5506 32.6917Z"
    fill="black"
    fill-opacity="0.96"
  />
  <path
    d="M33.5506 32.6917C33.3545 32.543 33.0592 32.1646 32.7511 31.3215C32.452 30.503 32.2379 29.5306 32.0098 28.4379L31.9636 28.2157C31.7661 27.2653 31.535 26.1526 31.2005 25.2579C30.9048 24.4669 30.1321 22.7259 28.1952 22.4589C26.3521 22.2048 24.6477 22.8536 23.2758 23.7626C21.8949 24.6774 20.674 25.9657 19.6824 27.35C18.685 28.7425 17.8601 30.3151 17.3132 31.8762C16.7758 33.41 16.4541 35.0843 16.6271 36.6337C16.983 39.8216 17.7463 42.2342 19.0394 44.1679C20.3365 46.1076 22.0323 47.3606 23.8564 48.4375C28.0285 50.9007 33.8603 50.8079 38.6579 47.9294C39.6928 47.3084 40.4834 46.37 41.0724 45.4393C41.674 44.4885 42.15 43.4115 42.5028 42.3474C43.1734 40.3247 43.5476 37.8819 43.1252 36.0968C42.9433 35.3285 42.5338 34.6675 41.9303 34.1785C41.3678 33.7226 40.7442 33.5022 40.234 33.3845C39.3105 33.1715 38.2331 33.192 37.4393 33.2071L37.324 33.2093C36.4175 33.2263 35.6532 33.2407 34.9491 33.1525C34.2477 33.0647 33.82 32.8958 33.5506 32.6917Z"
    fill="url(#paint1_linear_14427_152)"
  />
  <defs>
    <linearGradient
      id="paint0_linear_14427_152"
      x1="30"
      y1="3.20227"
      x2="30"
      y2="57.25"
      gradientUnits="userSpaceOnUse"
    >
      <stop stop-color="#ED6557" />
      <stop offset="1" stop-color="#E55749" />
    </linearGradient>
    <linearGradient
      id="paint1_linear_14427_152"
      x1="29.942"
      y1="22.4033"
      x2="29.942"
      y2="50.1929"
      gradientUnits="userSpaceOnUse"
    >
      <stop stop-color="#FFF2DB" />
      <stop offset="1" stop-color="#F4BF00" />
    </linearGradient>
  </defs>
</svg>
