<svg
  width="60"
  height="60"
  viewBox="0 0 60 60"
  fill="currentColor"
  xmlns="http://www.w3.org/2000/svg"
>
  <path
    fill-rule="evenodd"
    clip-rule="evenodd"
    d="M33.5506 32.6917C33.3545 32.5431 33.0592 32.1646 32.7511 31.3216C32.452 30.5031 32.2379 29.5306 32.0098 28.4379L31.9636 28.2158C31.7661 27.2654 31.535 26.1526 31.2005 25.258C30.9048 24.4669 30.132 22.7259 28.1952 22.4589C26.3521 22.2049 24.6477 22.8536 23.2758 23.7626C21.8949 24.6775 20.674 25.9658 19.6824 27.3501C18.685 28.7426 17.8601 30.3151 17.3132 31.8762C16.7758 33.41 16.4541 35.0843 16.627 36.6337C16.983 39.8216 17.7463 42.2343 19.0394 44.168C20.3365 46.1077 22.0323 47.3607 23.8564 48.4376C28.0285 50.9007 33.8603 50.808 38.6579 47.9294C39.6928 47.3084 40.4834 46.3701 41.0724 45.4394C41.674 44.4886 42.15 43.4116 42.5028 42.3475C43.1734 40.3247 43.5476 37.8819 43.1252 36.0968C42.9433 35.3285 42.5338 34.6676 41.9303 34.1785C41.3678 33.7226 40.7442 33.5022 40.234 33.3845C39.3105 33.1715 38.2331 33.192 37.4393 33.2071L37.324 33.2093C36.4175 33.2263 35.6532 33.2407 34.9491 33.1525C34.2477 33.0647 33.82 32.8959 33.5506 32.6917ZM26.831 26.501C26.8315 26.4988 26.8425 26.5129 26.8623 26.5497C26.8404 26.5216 26.8304 26.5032 26.831 26.501ZM27.5981 29.3256C27.3769 28.2657 27.2163 27.4968 27.0247 26.9431C26.6824 27.0125 26.2615 27.1825 25.7612 27.514C24.9534 28.0492 24.1064 28.9016 23.3407 29.9705C22.5809 31.0313 21.9593 32.2246 21.5601 33.364C21.1513 34.5308 21.0275 35.4918 21.0993 36.1344C21.4058 38.8803 22.0172 40.5257 22.7801 41.6665C23.539 42.8013 24.5805 43.6394 26.1441 44.5625C28.7473 46.0994 32.8069 46.1922 36.3426 44.0707C36.5577 43.9417 36.892 43.63 37.2698 43.0331C37.6348 42.4562 37.9673 41.7278 38.2314 40.9313C38.6585 39.6433 38.8155 38.4696 38.8045 37.7159C38.4966 37.6963 38.0677 37.6961 37.4529 37.7077L37.3004 37.7106C36.4823 37.7266 35.4248 37.7472 34.39 37.6177C33.2754 37.4781 31.9747 37.1438 30.8324 36.2779C29.6168 35.3566 28.9437 34.0133 28.5245 32.8662C28.0963 31.6946 27.8242 30.4086 27.6048 29.3575L27.5981 29.3256Z"
  />
  <path
    fill-rule="evenodd"
    clip-rule="evenodd"
    d="M34.4882 11.4465C32.6189 7.91836 30.5137 5.57808 28.5788 4.32264C27.6329 3.70885 26.5692 3.25293 25.497 3.20589C24.3543 3.15577 22.9298 3.6177 22.2772 5.08627C19.9809 10.2536 18.5192 13.411 15.6819 17.5776C14.207 19.7435 12.237 22.6518 10.643 25.8883C9.05588 29.1108 7.75 32.8355 7.75 36.6514C7.75 43.4545 10.7171 48.6715 15.0271 52.1389C19.2834 55.5631 24.7966 57.25 30 57.25C35.2034 57.25 40.7166 55.5631 44.9729 52.1389C49.2829 48.6715 52.25 43.4545 52.25 36.6514C52.25 29.4708 50.3622 24.4179 46.389 18.2776C45.6837 17.1875 44.9478 16.2271 44.1333 15.6653C43.6999 15.3664 43.022 15.025 42.1734 15.0759C41.2538 15.131 40.5929 15.6146 40.1925 16.0809C39.8262 16.5075 39.615 16.9825 39.4867 17.33C39.3502 17.6995 39.2501 18.087 39.1716 18.4418C39.0566 18.9623 38.956 19.5721 38.8649 20.1244C38.8364 20.2972 38.8088 20.4643 38.7821 20.6213C38.5629 21.9061 38.3044 22.9225 38.021 23.5714C37.7284 23.3878 37.5356 23.1573 37.3754 22.879C37.0614 22.3334 36.8406 21.535 36.6483 20.3192C36.5844 19.9157 36.5261 19.4625 36.463 18.9721C36.1863 16.8211 35.8177 13.9559 34.4882 11.4465ZM19.4014 20.1105C22.2679 15.9011 23.8496 12.6015 25.9195 7.96873C25.9845 8.00624 26.0545 8.04898 26.1295 8.09765C27.2363 8.81576 28.8811 10.4755 30.5118 13.5533C31.421 15.2693 31.6637 17.0905 31.9406 19.1687C32.0199 19.7643 32.1021 20.3811 32.2036 21.0224C32.4109 22.3329 32.7272 23.824 33.4753 25.1238C34.284 26.529 35.536 27.6096 37.3535 28.1549C38.4301 28.4779 39.4985 28.2926 40.3735 27.6951C41.1423 27.1702 41.6316 26.4196 41.9513 25.7853C42.558 24.5813 42.9259 23.0283 43.177 21.6135C46.3878 26.7722 47.75 30.8583 47.75 36.6514C47.75 42.0086 45.4671 45.9659 42.1521 48.6327C38.7834 51.3428 34.2966 52.75 30 52.75C25.7034 52.75 21.2166 51.3428 17.8479 48.6327C14.5329 45.9659 12.25 42.0086 12.25 36.6514C12.25 33.8156 13.2358 30.8088 14.6799 27.8765C16.1172 24.9584 17.918 22.2888 19.4014 20.1105Z"
  />
</svg>
