<svg
  width="60"
  height="60"
  viewBox="0 0 60 60"
  fill="currentColor"
  xmlns="http://www.w3.org/2000/svg"
>
  <path
    fill-rule="evenodd"
    clip-rule="evenodd"
    d="M30 1.75C25.9959 1.75 22.75 4.99594 22.75 9C22.75 12.3103 24.9686 15.1025 28 15.9706V20.9668C25.5037 21.517 23.3857 23.0756 22.0951 25.1937L17.2215 23.6474C17.2404 23.4341 17.25 23.2182 17.25 23C17.25 18.9959 14.0041 15.75 10 15.75C5.99594 15.75 2.75 18.9959 2.75 23C2.75 27.0041 5.99594 30.25 10 30.25C12.1628 30.25 14.1044 29.3029 15.4328 27.8009L20.7637 29.4923C20.7546 29.6604 20.75 29.8297 20.75 30C20.75 32.4709 21.7189 34.7156 23.2974 36.3748L19.1075 42.0611C18.4406 41.8588 17.733 41.75 17 41.75C12.9959 41.75 9.75 44.9959 9.75 49C9.75 53.0041 12.9959 56.25 17 56.25C21.0041 56.25 24.25 53.0041 24.25 49C24.25 47.3646 23.7085 45.8556 22.795 44.6426L27.1082 38.789C28.018 39.0882 28.9901 39.25 30 39.25C31.0099 39.25 31.982 39.0882 32.8918 38.789L37.205 44.6426C36.2915 45.8556 35.75 47.3646 35.75 49C35.75 53.0041 38.9959 56.25 43 56.25C47.0041 56.25 50.25 53.0041 50.25 49C50.25 44.9959 47.0041 41.75 43 41.75C42.267 41.75 41.5594 41.8588 40.8925 42.0611L36.7026 36.3748C38.2811 34.7156 39.25 32.4709 39.25 30C39.25 29.6718 39.2329 29.3475 39.1995 29.0281L44.2557 27.4238C45.5814 29.1427 47.6614 30.25 50 30.25C54.0041 30.25 57.25 27.0041 57.25 23C57.25 18.9959 54.0041 15.75 50 15.75C45.9959 15.75 42.75 18.9959 42.75 23C42.75 23.0601 42.7507 23.12 42.7522 23.1798L37.6501 24.7986C36.4388 23.0205 34.6238 21.6866 32.5 21.0918V15.8074C35.2723 14.789 37.25 12.1255 37.25 9C37.25 4.99594 34.0041 1.75 30 1.75ZM27.25 9C27.25 7.48122 28.4812 6.25 30 6.25C31.5188 6.25 32.75 7.48122 32.75 9C32.75 10.5188 31.5188 11.75 30 11.75C28.4812 11.75 27.25 10.5188 27.25 9ZM17 46.25C15.4812 46.25 14.25 47.4812 14.25 49C14.25 50.5188 15.4812 51.75 17 51.75C18.5188 51.75 19.75 50.5188 19.75 49C19.75 47.4812 18.5188 46.25 17 46.25ZM40.25 49C40.25 47.4812 41.4812 46.25 43 46.25C44.5188 46.25 45.75 47.4812 45.75 49C45.75 50.5188 44.5188 51.75 43 51.75C41.4812 51.75 40.25 50.5188 40.25 49ZM10 20.25C8.48122 20.25 7.25 21.4812 7.25 23C7.25 24.5188 8.48122 25.75 10 25.75C11.5188 25.75 12.75 24.5188 12.75 23C12.75 21.4812 11.5188 20.25 10 20.25ZM50 20.25C48.4812 20.25 47.25 21.4812 47.25 23C47.25 24.5188 48.4812 25.75 50 25.75C51.5188 25.75 52.75 24.5188 52.75 23C52.75 21.4812 51.5188 20.25 50 20.25ZM25.25 30C25.25 27.3766 27.3766 25.25 30 25.25C32.6234 25.25 34.75 27.3766 34.75 30C34.75 32.6234 32.6234 34.75 30 34.75C27.3766 34.75 25.25 32.6234 25.25 30Z"
  />
</svg>
