<svg
  width="60"
  height="60"
  viewBox="0 0 60 60"
  fill="currentColor"
  xmlns="http://www.w3.org/2000/svg"
>
  <path
    fill-rule="evenodd"
    clip-rule="evenodd"
    d="M4.75 7.55566C4.75 6.31302 5.75736 5.30566 7 5.30566H53C54.2426 5.30566 55.25 6.31302 55.25 7.55566C55.25 8.7983 54.2426 9.80566 53 9.80566H7C5.75736 9.80566 4.75 8.7983 4.75 7.55566ZM12.4167 16.7779C12.4167 15.5352 13.424 14.5279 14.6667 14.5279L50.4444 14.5279C51.6871 14.5279 52.6944 15.5353 52.6944 16.7779C52.6944 18.0205 51.6871 19.0279 50.4444 19.0279L14.6667 19.0279C13.424 19.0279 12.4167 18.0205 12.4167 16.7779ZM20.0833 26.0001C20.0833 24.7575 21.0907 23.7501 22.3333 23.7501L45.3333 23.7501C46.576 23.7501 47.5833 24.7575 47.5833 26.0001C47.5833 27.2428 46.576 28.2501 45.3333 28.2501L22.3333 28.2501C21.0907 28.2501 20.0833 27.2428 20.0833 26.0001ZM17.7778 32.9723L35.6667 32.9723C36.9093 32.9723 37.9167 33.9797 37.9167 35.2223C37.9167 36.465 36.9093 37.4723 35.6667 37.4723L17.7778 37.4723C16.5351 37.4723 15.5278 36.465 15.5278 35.2223C15.5278 33.9797 16.5351 32.9723 17.7778 32.9723ZM23.75 44.4446C23.75 43.2019 24.7574 42.1946 26 42.1946H38.7778C40.0204 42.1946 41.0278 43.2019 41.0278 44.4446C41.0278 45.6872 40.0204 46.6946 38.7778 46.6946H26C24.7574 46.6946 23.75 45.6872 23.75 44.4446ZM31.75 52.5C31.75 51.2574 32.7574 50.25 34 50.25H42C43.2426 50.25 44.25 51.2574 44.25 52.5C44.25 53.7426 43.2426 54.75 42 54.75H34C32.7574 54.75 31.75 53.7426 31.75 52.5Z"
  />
</svg>
