<svg
  width="60"
  height="60"
  viewBox="0 0 60 60"
  fill="currentColor"
  xmlns="http://www.w3.org/2000/svg"
>
  <path
    d="M30 34C32.2091 34 34 32.2091 34 30C34 27.7909 32.2091 26 30 26C27.7909 26 26 27.7909 26 30C26 32.2091 27.7909 34 30 34Z"
  />
  <path
    fill-rule="evenodd"
    clip-rule="evenodd"
    d="M35 13.25C33.5631 13.25 32.1685 13.4309 30.8377 13.7712C39.423 14.2072 46.25 21.3063 46.25 30C46.25 41.7361 36.7361 51.25 25 51.25C13.2639 51.25 3.75 41.7361 3.75 30C3.75 28.7574 4.75736 27.75 6 27.75C7.24264 27.75 8.25 28.7574 8.25 30C8.25 39.2508 15.7492 46.75 25 46.75C26.4369 46.75 27.8314 46.5691 29.1623 46.2288C20.577 45.7928 13.75 38.6937 13.75 30C13.75 18.2639 23.2639 8.75 35 8.75C46.7361 8.75 56.25 18.2639 56.25 30C56.25 31.2426 55.2426 32.25 54 32.25C52.7574 32.25 51.75 31.2426 51.75 30C51.75 20.7492 44.2508 13.25 35 13.25ZM30 41.75C23.5107 41.75 18.25 36.4893 18.25 30C18.25 23.5107 23.5107 18.25 30 18.25C36.4893 18.25 41.75 23.5107 41.75 30C41.75 36.4893 36.4893 41.75 30 41.75Z"
  />
</svg>
