<svg
  width="60"
  height="60"
  viewBox="0 0 60 60"
  fill="currentColor"
  xmlns="http://www.w3.org/2000/svg"
>
  <path
    fill-rule="evenodd"
    clip-rule="evenodd"
    d="M12.2505 11.6619C12.25 11.6647 12.25 11.6667 12.25 11.6667C12.25 11.6667 12.25 11.6686 12.2505 11.6715C12.2509 11.6744 12.2521 11.6813 12.2556 11.6926C12.2624 11.7148 12.2799 11.7616 12.3238 11.8331C12.416 11.9832 12.6059 12.2119 12.9644 12.4945C13.6946 13.07 14.8908 13.6866 16.5694 14.2462C19.9031 15.3574 24.6517 16.0833 30 16.0833C35.3483 16.0833 40.0969 15.3574 43.4306 14.2462C45.1092 13.6866 46.3054 13.07 47.0356 12.4945C47.3941 12.2119 47.584 11.9832 47.6762 11.8331C47.7201 11.7616 47.7376 11.7148 47.7444 11.6926C47.7479 11.6813 47.7491 11.6744 47.7495 11.6715C47.75 11.6686 47.75 11.6667 47.75 11.6667C47.75 11.6667 47.75 11.6647 47.7495 11.6619C47.7491 11.6589 47.7479 11.6521 47.7444 11.6408C47.7376 11.6185 47.7201 11.5717 47.6762 11.5002C47.584 11.3501 47.3941 11.1214 47.0356 10.8389C46.3054 10.2634 45.1092 9.6467 43.4306 9.08716C40.0969 7.97592 35.3483 7.25 30 7.25C24.6517 7.25 19.9031 7.97592 16.5694 9.08716C14.8908 9.6467 13.6946 10.2634 12.9644 10.8389C12.6059 11.1214 12.416 11.3501 12.3238 11.5002C12.2799 11.5717 12.2624 11.6185 12.2556 11.6408C12.2521 11.6521 12.2509 11.6589 12.2505 11.6619ZM15.1464 4.81808C19.0512 3.51646 24.3026 2.75 30 2.75C35.6974 2.75 40.9488 3.51646 44.8536 4.81808C46.7943 5.46497 48.5271 6.28485 49.821 7.30452C51.0895 8.30421 52.25 9.7613 52.25 11.6667C52.25 13.572 51.0895 15.0291 49.821 16.0288C48.5271 17.0485 46.7943 17.8684 44.8536 18.5153C40.9488 19.8169 35.6974 20.5833 30 20.5833C24.3026 20.5833 19.0512 19.8169 15.1464 18.5153C13.2057 17.8684 11.4729 17.0485 10.179 16.0288C8.91051 15.0291 7.75 13.572 7.75 11.6667C7.75 9.7613 8.91051 8.30421 10.179 7.30452C11.4729 6.28485 13.2057 5.46497 15.1464 4.81808ZM11.4237 24.0719C12.0809 23.0173 13.4686 22.6951 14.5233 23.3523C17.1702 25.0017 22.9315 26.3426 30 26.3426C37.0685 26.3426 42.8298 25.0017 45.4767 23.3523C46.5314 22.6951 47.9191 23.0173 48.5763 24.0719C49.2334 25.1266 48.9113 26.5143 47.8566 27.1715C44.1416 29.4865 37.3621 30.8426 30 30.8426C22.6379 30.8426 15.8584 29.4865 12.1434 27.1715C11.0888 26.5143 10.7666 25.1266 11.4237 24.0719ZM14.5618 35.0507C15.0008 33.8882 16.2991 33.3017 17.4616 33.7408C20.3913 34.8472 24.8698 35.6019 30 35.6019C35.1302 35.6019 39.6087 34.8472 42.5384 33.7408C43.7009 33.3017 44.9992 33.8882 45.4382 35.0507C45.8773 36.2132 45.2908 37.5115 44.1283 37.9506C40.5429 39.3046 35.4893 40.1019 30 40.1019C24.5107 40.1019 19.4571 39.3046 15.8717 37.9506C14.7092 37.5115 14.1227 36.2132 14.5618 35.0507ZM17.8174 45.3428C18.1192 44.1374 19.341 43.4049 20.5465 43.7067C23.1253 44.3524 26.4009 44.75 30 44.75C33.5991 44.75 36.8747 44.3524 39.4535 43.7067C40.659 43.4049 41.8808 44.1374 42.1826 45.3428C42.4844 46.5483 41.7519 47.7701 40.5465 48.0719C37.5542 48.8211 33.905 49.25 30 49.25C26.095 49.25 22.4458 48.8211 19.4535 48.0719C18.2481 47.7701 17.5156 46.5483 17.8174 45.3428ZM20.7764 54.1441C20.9661 52.916 22.1154 52.0742 23.3435 52.264C25.3508 52.574 27.6072 52.7499 30 52.7499C32.3928 52.7499 34.6492 52.574 36.6565 52.264C37.8846 52.0742 39.0339 52.916 39.2236 54.1441C39.4133 55.3721 38.5716 56.5215 37.3435 56.7112C35.0941 57.0587 32.6074 57.2499 30 57.2499C27.3926 57.2499 24.9059 57.0587 22.6565 56.7112C21.4284 56.5215 20.5867 55.3721 20.7764 54.1441Z"
  />
</svg>
