<svg
  width="60"
  height="60"
  viewBox="0 0 60 60"
  fill="currentColor"
  xmlns="http://www.w3.org/2000/svg"
>
  <path
    fill-rule="evenodd"
    clip-rule="evenodd"
    d="M44.8481 15.1188C44.8366 15.1065 44.8289 15.0983 44.8242 15.0934L44.8135 15.0722C44.8099 15.0635 44.8043 15.0499 44.7967 15.0306C44.7713 14.9667 44.7355 14.8722 44.6854 14.7357C44.5852 14.4624 44.4489 14.078 44.2588 13.5422C42.1707 7.65558 36.7198 2.75 30 2.75C23.2802 2.75 17.8293 7.65558 15.7412 13.5422C15.5511 14.078 15.4148 14.4624 15.3146 14.7357C15.2645 14.8722 15.2287 14.9667 15.2033 15.0306C15.1957 15.0499 15.1901 15.0635 15.1865 15.0722L15.1758 15.0934C15.1711 15.0983 15.1634 15.1065 15.1519 15.1188C15.1226 15.1501 15.0691 15.2071 14.9818 15.2981C14.8032 15.4842 14.5434 15.7513 14.1967 16.1055C13.5043 16.8126 12.4863 17.8456 11.1235 19.2284C9.6641 20.7094 8.75 22.7479 8.75 25C8.75 29.3849 12.171 32.9709 16.4896 33.2345L23.5272 50.242C24.1873 51.8374 24.7404 53.1743 25.2579 54.1665C25.7517 55.1134 26.4453 56.2346 27.6159 56.8313C29.1136 57.5947 30.8864 57.5947 32.3841 56.8313C33.5547 56.2346 34.2483 55.1134 34.7421 54.1665C35.2596 53.1743 35.8127 51.8374 36.4728 50.2421L43.5104 33.2345C47.829 32.9709 51.25 29.3849 51.25 25C51.25 22.7479 50.3359 20.7094 48.8765 19.2284C47.5137 17.8456 46.4957 16.8126 45.8033 16.1055C45.4566 15.7513 45.1968 15.4842 45.0182 15.2981C44.9309 15.2071 44.8774 15.15 44.8481 15.1188ZM19.9823 15.0466C21.5771 10.5505 25.5824 7.25 30 7.25C34.4176 7.25 38.4229 10.5505 40.0177 15.0466L40.0226 15.0604C40.2066 15.5792 40.351 15.9862 40.4604 16.2847C40.548 16.5234 40.6588 16.8228 40.7724 17.0527C40.789 17.0992 40.8051 17.1395 40.8191 17.1727C40.8523 17.2513 40.8849 17.316 40.9104 17.3637C40.9369 17.4132 40.9636 17.4586 40.9894 17.5C41.0153 17.5413 41.0446 17.5851 41.0775 17.6306C41.1093 17.6744 41.1533 17.7319 41.2095 17.7961C41.2334 17.8233 41.2628 17.8556 41.2977 17.8912C41.4244 18.0526 41.6225 18.2588 41.7495 18.3911L41.7709 18.4134C41.9661 18.6169 42.2391 18.8974 42.5879 19.2537C43.2854 19.966 44.3072 21.0029 45.6636 22.3793L45.6713 22.3871C46.3435 23.0692 46.75 23.9893 46.75 25C46.75 27.0711 45.0711 28.75 43 28.75C42.8398 28.75 42.6829 28.7401 42.5298 28.721L42.5268 28.7207L42.5246 28.7204C40.3116 28.4453 38.6477 28.2384 37.5157 28.1002C36.9499 28.031 36.5116 27.9784 36.2021 27.9428L36.1597 27.9379C35.9915 27.9185 35.7658 27.8924 35.5873 27.8811L35.5832 27.8805C35.5294 27.872 35.483 27.8666 35.4473 27.8631C35.4109 27.8596 35.3787 27.8573 35.3522 27.8558C35.3001 27.8529 35.2556 27.8521 35.222 27.8521C35.1557 27.8519 35.0966 27.8545 35.0479 27.8578C34.9993 27.8611 34.9403 27.8664 34.8746 27.8754C34.8414 27.88 34.7973 27.8867 34.7461 27.8966C34.72 27.9017 34.6885 27.9082 34.6529 27.9166C34.6186 27.9247 34.5745 27.9359 34.5236 27.951C34.1956 28.0133 33.6597 28.1551 33.0042 28.3284L32.7524 28.395C31.8764 28.6262 30.9544 28.75 30 28.75C29.0317 28.75 28.0967 28.6226 27.2092 28.3848L27.1973 28.3816L27.1952 28.381C26.6742 28.2414 26.2678 28.1325 25.9701 28.0556C25.7573 28.0006 25.4972 27.9339 25.2772 27.8946C25.2594 27.8894 25.2432 27.8849 25.2286 27.881C25.1834 27.8688 25.1438 27.8597 25.1119 27.8529C25.0496 27.8396 24.9965 27.8309 24.9583 27.8254C24.9184 27.8196 24.8824 27.8154 24.8516 27.8123C24.8203 27.8092 24.7902 27.8068 24.7613 27.8049C24.7325 27.8031 24.7022 27.8017 24.6709 27.8008C24.6399 27.8 24.6037 27.7996 24.5634 27.8003C24.5247 27.8009 24.471 27.8028 24.4074 27.8081C24.375 27.8108 24.3345 27.8149 24.2881 27.8212C24.2711 27.8235 24.2519 27.8263 24.2306 27.8298C24.0451 27.8415 23.806 27.8716 23.6345 27.8931L23.5951 27.8981C23.2937 27.9358 22.869 27.9914 22.3225 28.0642C21.2284 28.2098 19.6227 28.4275 17.4877 28.7169L17.4855 28.7173C17.3264 28.7388 17.1644 28.75 17 28.75C14.9289 28.75 13.25 27.0711 13.25 25C13.25 23.9893 13.6565 23.0692 14.3287 22.3871L14.3346 22.3811C15.6919 21.0038 16.7143 19.9664 17.4121 19.2537C17.7609 18.8974 18.0339 18.6169 18.2291 18.4134L18.2505 18.3911C18.3775 18.2588 18.5756 18.0525 18.7023 17.8911C18.7372 17.8556 18.7666 17.8233 18.7905 17.7961C18.8467 17.7319 18.8907 17.6744 18.9225 17.6306C18.9554 17.5851 18.9847 17.5413 19.0106 17.5C19.0364 17.4586 19.0631 17.4132 19.0896 17.3637C19.1151 17.316 19.1477 17.2513 19.1809 17.1727C19.1949 17.1395 19.211 17.0992 19.2276 17.0527C19.3412 16.8228 19.452 16.5234 19.5396 16.2847C19.6489 15.9863 19.7932 15.5796 19.9772 15.0611L19.9823 15.0466ZM38.8222 32.7952C38.0949 32.7051 37.4783 32.629 36.9701 32.567C36.4061 32.4981 35.9808 32.447 35.6877 32.4133C35.5522 32.3977 35.4639 32.3883 35.411 32.3826C35.3722 32.3785 35.3525 32.3764 35.3474 32.3754L35.3287 32.3782C35.3201 32.38 35.3068 32.3829 35.2879 32.3873C35.2268 32.4014 35.1375 32.4232 35.01 32.4557C34.7548 32.5206 34.3975 32.6149 33.9008 32.746C32.6533 33.0752 31.3454 33.25 30 33.25C28.635 33.25 27.3085 33.0701 26.0446 32.7315C25.5078 32.5876 25.1203 32.4838 24.8442 32.4125C24.7062 32.3768 24.609 32.3526 24.5422 32.337C24.533 32.3348 24.5249 32.333 24.518 32.3314C24.509 32.3294 24.5019 32.3278 24.4966 32.3266L24.4786 32.324C24.4722 32.325 24.4547 32.3271 24.4232 32.3307C24.373 32.3366 24.2874 32.3465 24.1545 32.3632C23.8712 32.3987 23.4609 32.4523 22.9163 32.5248C22.4336 32.5891 21.8501 32.6675 21.1634 32.7602L27.6438 48.4211C28.3563 50.1431 28.8341 51.2922 29.2479 52.0857C29.5167 52.6011 29.6774 52.7969 29.7232 52.8509C29.9009 52.9215 30.0991 52.9215 30.2768 52.8509C30.3227 52.7969 30.4833 52.6011 30.7521 52.0857C31.1659 51.2922 31.6437 50.1431 32.3562 48.4211L38.8222 32.7952ZM40.831 17.1702C40.8339 17.1765 40.8331 17.175 40.8295 17.167L40.831 17.1702ZM41.2191 17.7892L41.2169 17.7865C41.2145 17.7835 41.2137 17.7826 41.2144 17.7835C41.215 17.7842 41.2166 17.7862 41.2191 17.7892ZM18.7831 17.7865C18.7875 17.7811 18.7865 17.7825 18.7809 17.7892L18.7831 17.7865ZM19.169 17.1702L19.1705 17.167C19.1669 17.175 19.1661 17.1765 19.169 17.1702Z"
  />
</svg>
