<svg
  width="60"
  height="60"
  viewBox="0 0 60 60"
  fill="currentColor"
  xmlns="http://www.w3.org/2000/svg"
>
  <path
    fill-rule="evenodd"
    clip-rule="evenodd"
    d="M32.75 12.9535C32.75 7.31826 37.3183 2.75 42.9535 2.75C48.5887 2.75 53.157 7.31826 53.157 12.9535C53.157 14.9565 52.5798 16.8246 51.5828 18.4008L55.591 22.409C56.4697 23.2877 56.4697 24.7123 55.591 25.591C54.7123 26.4697 53.2877 26.4697 52.409 25.591L48.4008 21.5828C46.8246 22.5798 44.9565 23.157 42.9535 23.157C37.3183 23.157 32.75 18.5887 32.75 12.9535ZM42.9535 7.25C39.8035 7.25 37.25 9.80354 37.25 12.9535C37.25 16.1034 39.8035 18.657 42.9535 18.657C46.1034 18.657 48.657 16.1034 48.657 12.9535C48.657 9.80354 46.1034 7.25 42.9535 7.25Z"
  />
  <path
    fill-rule="evenodd"
    clip-rule="evenodd"
    d="M21.3029 4.75L30 4.75C31.2426 4.75 32.25 5.75736 32.25 7C32.25 8.24264 31.2426 9.25 30 9.25H21.3992C18.8421 9.25 17.0596 9.25175 15.6719 9.36515C14.3104 9.47639 13.5281 9.68378 12.9356 9.98571C11.6655 10.6329 10.6329 11.6655 9.98571 12.9356C9.68379 13.5281 9.4764 14.3104 9.36515 15.672C9.25175 17.0599 9.25 18.8426 9.25 21.4V37.068L16.6853 29.6327C17.8184 28.4996 18.7642 27.5537 19.6 26.8442C20.4717 26.1042 21.3706 25.49 22.4506 25.1391C24.1076 24.6007 25.8924 24.6007 27.5494 25.1391C28.6294 25.49 29.5283 26.1042 30.4 26.8442C31.2358 27.5537 32.1815 28.4995 33.3146 29.6326L50.091 46.409C50.1398 46.4579 50.186 46.5084 50.2294 46.5604C50.417 46.029 50.5523 45.3378 50.6349 44.328C50.7482 42.9401 50.75 41.1574 50.75 38.6V30C50.75 28.7574 51.7574 27.75 53 27.75C54.2426 27.75 55.25 28.7574 55.25 30V38.6964C55.25 41.1348 55.25 43.1017 55.1199 44.6944C54.9859 46.3343 54.7028 47.7747 54.0238 49.1074C52.9452 51.2242 51.2242 52.9452 49.1074 54.0238C47.7747 54.7028 46.3343 54.9859 44.6944 55.1199C43.1017 55.25 41.1349 55.25 38.6964 55.25H21.3036C18.8652 55.25 16.8983 55.25 15.3056 55.1199C13.6657 54.9859 12.2253 54.7028 10.8926 54.0238C8.77578 52.9452 7.05475 51.2242 5.97618 49.1074C5.29716 47.7747 5.01408 46.3343 4.88009 44.6944C4.74996 43.1017 4.74998 41.1348 4.75 38.6963V21.3037C4.74998 18.8652 4.74996 16.8983 4.88009 15.3056C5.01408 13.6657 5.29716 12.2253 5.97618 10.8926C7.05475 8.77578 8.77578 7.05475 10.8926 5.97618C12.2252 5.29717 13.6656 5.01408 15.3054 4.88009C16.898 4.74996 18.8647 4.74998 21.3029 4.75ZM47.287 49.8956C47.153 49.8097 47.0262 49.7082 46.909 49.591L30.1972 32.8792C28.9829 31.6649 28.1667 30.8511 27.4877 30.2747C26.8289 29.7154 26.4488 29.5131 26.1588 29.4188C25.4057 29.1741 24.5943 29.1741 23.8412 29.4188C23.5512 29.5131 23.1711 29.7154 22.5123 30.2747C21.8333 30.8511 21.0171 31.6649 19.8028 32.8792L9.30645 43.3755C9.3216 43.7137 9.3408 44.0299 9.36515 44.328C9.4764 45.6896 9.68379 46.4719 9.98571 47.0644C10.6329 48.3345 11.6655 49.3671 12.9356 50.0143C13.5281 50.3162 14.3104 50.5236 15.672 50.6349C17.0599 50.7482 18.8426 50.75 21.4 50.75H38.6C41.1574 50.75 42.9401 50.7482 44.328 50.6349C45.6896 50.5236 46.4719 50.3162 47.0644 50.0143C47.1395 49.9761 47.2137 49.9365 47.287 49.8956Z"
  />
</svg>
