<svg
  width="60"
  height="60"
  viewBox="0 0 60 60"
  fill="currentColor"
  xmlns="http://www.w3.org/2000/svg"
>
  <path
    d="M5 19.4C5 14.3595 5 11.8393 5.98094 9.91409C6.8438 8.22063 8.22063 6.8438 9.91409 5.98094C11.8393 5 14.3595 5 19.4 5H40.6C45.6405 5 48.1607 5 50.0859 5.98094C51.7794 6.8438 53.1562 8.22063 54.0191 9.91409C55 11.8393 55 14.3595 55 19.4V40.6C55 45.6405 55 48.1607 54.0191 50.0859C53.1562 51.7794 51.7794 53.1562 50.0859 54.0191C48.1607 55 45.6405 55 40.6 55H19.4C14.3595 55 11.8393 55 9.91409 54.0191C8.22063 53.1562 6.8438 51.7794 5.98094 50.0859C5 48.1607 5 45.6405 5 40.6V19.4Z"
    fill="#0072F2"
    fill-opacity="0.08"
  />
  <path
    fill-rule="evenodd"
    clip-rule="evenodd"
    d="M20 16.25C17.9289 16.25 16.25 17.9289 16.25 20C16.25 22.0711 17.9289 23.75 20 23.75C22.0711 23.75 23.75 22.0711 23.75 20C23.75 17.9289 22.0711 16.25 20 16.25ZM11.75 20C11.75 15.4437 15.4437 11.75 20 11.75C24.5563 11.75 28.25 15.4437 28.25 20C28.25 24.5563 24.5563 28.25 20 28.25C15.4437 28.25 11.75 24.5563 11.75 20Z"
    fill="#3182FF"
  />
  <path
    fill-rule="evenodd"
    clip-rule="evenodd"
    d="M39.1588 33.4188C38.4057 33.1741 37.5943 33.1741 36.8412 33.4188C36.5512 33.513 36.1711 33.7154 35.5123 34.2747C34.8333 34.8511 34.0171 35.6649 32.8028 36.8792L18.591 51.091C17.7123 51.9697 16.2877 51.9697 15.409 51.091C14.5303 50.2123 14.5303 48.7877 15.409 47.909L29.6854 33.6327C30.8184 32.4995 31.7642 31.5537 32.6 30.8442C33.4717 30.1042 34.3706 29.49 35.4506 29.1391C37.1076 28.6007 38.8924 28.6007 40.5494 29.1391C41.6294 29.49 42.5283 30.1042 43.4 30.8442C44.2358 31.5537 45.1816 32.4995 46.3146 33.6327L51.091 38.409C51.9697 39.2877 51.9697 40.7123 51.091 41.591C50.2123 42.4697 48.7877 42.4697 47.909 41.591L43.1972 36.8792C41.9829 35.6649 41.1667 34.8511 40.4877 34.2747C39.8289 33.7154 39.4488 33.513 39.1588 33.4188Z"
    fill="#3182FF"
  />
</svg>
