<svg
  width="60"
  height="60"
  viewBox="0 0 60 60"
  fill="currentColor"
  xmlns="http://www.w3.org/2000/svg"
>
  <rect x="0.000976562" width="60.0003" height="60" rx="30" fill="white" />
  <rect x="0.000976562" width="60" height="60" rx="30" fill="black" />
  <path
    d="M49.2568 25.9179C50.2777 22.8536 49.9262 19.4969 48.2935 16.7097C45.8382 12.4347 40.9023 10.2354 36.0816 11.2704C33.9371 8.85443 30.856 7.48052 27.6259 7.50021C22.6984 7.48896 18.3263 10.6615 16.8104 15.3499C13.6449 15.9982 10.9126 17.9796 9.31366 20.7879C6.84007 25.0516 7.40397 30.4263 10.7087 34.0825C9.68772 37.1468 10.0393 40.5035 11.6719 43.2907C14.1273 47.5657 19.0632 49.765 23.8838 48.73C26.0269 51.146 29.1094 52.5199 32.3396 52.4988C37.2699 52.5114 41.6434 49.3361 43.1593 44.6435C46.3248 43.9952 49.0571 42.0138 50.656 39.2055C53.1268 34.9418 52.5601 29.5741 49.2568 25.9179ZM32.3424 49.5583C30.3694 49.5611 28.4584 48.8707 26.9438 47.6065C27.0127 47.5699 27.1323 47.5038 27.2096 47.456L36.1702 42.281C36.6287 42.0208 36.9099 41.5329 36.9071 41.0055V28.3732L40.6941 30.5599C40.7349 30.5796 40.7616 30.619 40.7673 30.664V41.125C40.7616 45.7769 36.9943 49.5485 32.3424 49.5583ZM14.2243 41.8197C13.2357 40.1125 12.8799 38.1115 13.2188 36.1694C13.2849 36.2088 13.4016 36.2805 13.4846 36.3283L22.4452 41.5033C22.8994 41.7691 23.4619 41.7691 23.9176 41.5033L34.8568 35.1865V39.5599C34.8596 39.6049 34.8385 39.6485 34.8034 39.6766L25.7457 44.9065C21.7112 47.2296 16.5573 45.8486 14.2243 41.8197ZM11.866 22.2602C12.8504 20.5502 14.4043 19.2424 16.2549 18.5632C16.2549 18.6405 16.2507 18.7769 16.2507 18.8726V29.224C16.2479 29.7499 16.5291 30.2379 16.9862 30.498L27.9254 36.8135L24.1384 39.0002C24.1004 39.0255 24.0526 39.0297 24.0104 39.0115L14.9513 33.7774C10.9252 31.4458 9.54569 26.2933 11.866 22.2602ZM42.9807 29.501L32.0415 23.1841L35.8285 20.9988C35.8665 20.9735 35.9143 20.9693 35.9565 20.9876L45.0155 26.2174C49.0487 28.5475 50.431 33.7071 48.1009 37.7402C47.1151 39.4474 45.5626 40.7552 43.7134 41.4358V30.775C43.7176 30.2491 43.4363 29.7625 42.9807 29.501ZM46.7494 23.8282C46.6834 23.7874 46.5666 23.7171 46.4837 23.6693L37.523 18.4943C37.0688 18.2285 36.5063 18.2285 36.0507 18.4943L25.1115 24.8111V20.4377C25.1087 20.3927 25.1298 20.3491 25.1649 20.321L34.2226 15.0954C38.2571 12.768 43.4152 14.1532 45.7412 18.1891C46.7241 19.8935 47.0827 21.889 46.7494 23.8282ZM23.0527 31.623L19.2643 29.4363C19.2235 29.4166 19.1968 29.3772 19.1912 29.3322V18.8711C19.194 14.2136 22.9726 10.4393 27.6301 10.4421C29.6002 10.4421 31.5071 11.134 33.0216 12.394C32.9527 12.4305 32.8346 12.4966 32.7559 12.5444L23.7952 17.7194C23.3368 17.9796 23.0555 18.4661 23.0584 18.9935L23.0527 31.623ZM25.1101 27.1877L29.9827 24.3738L34.8554 27.1863V32.8127L29.9827 35.6252L25.1101 32.8127V27.1877Z"
    fill="white"
  />
</svg>
