<svg
  width="60"
  height="60"
  viewBox="0 0 60 60"
  fill="currentColor"
  xmlns="http://www.w3.org/2000/svg"
>
  <circle cx="30" cy="30" r="30" fill="white" />
  <path
    d="M47.031 46.7369C49.8095 46.7369 52.0619 44.4845 52.0619 41.706C52.0619 38.9275 49.8095 36.675 47.031 36.675C44.2524 36.675 42 38.9275 42 41.706C42 44.4845 44.2524 46.7369 47.031 46.7369Z"
    fill="#E80000"
  />
  <path
    d="M23.073 47.9901C20.6888 47.9901 18.4535 47.8038 16.3673 47.4313C14.3183 47.096 12.5487 46.5931 11.0586 45.9225V38.2668C12.6977 38.9746 14.5046 39.5521 16.479 39.9991C18.4908 40.4462 20.3907 40.6697 22.1789 40.6697C24.4142 40.6697 26.072 40.4648 27.1523 40.055C28.27 39.6452 28.8288 38.7511 28.8288 37.3727C28.8288 36.4413 28.5494 35.6963 27.9906 35.1374C27.469 34.5786 26.5935 34.0943 25.3642 33.6845C24.172 33.2375 22.5328 32.7159 20.4466 32.1199C17.9878 31.3748 16.032 30.5552 14.5791 29.6611C13.1262 28.7297 12.0831 27.6121 11.4497 26.3082C10.8164 25.0043 10.4998 23.4024 10.4998 21.5024C10.4998 18.0751 11.7291 15.4486 14.1879 13.6232C16.6467 11.7977 20.279 10.885 25.0847 10.885C27.171 10.885 29.2013 11.0527 31.1758 11.3879C33.1503 11.686 34.7522 12.0399 35.9816 12.4497V20.1613C34.3796 19.528 32.7591 19.0623 31.1199 18.7643C29.518 18.4662 27.9533 18.3172 26.4259 18.3172C24.4142 18.3172 22.775 18.5035 21.5083 18.876C20.279 19.2486 19.6643 20.1054 19.6643 21.4466C19.6643 22.2289 19.8878 22.8622 20.3348 23.3465C20.7819 23.7936 21.5456 24.2034 22.626 24.5759C23.7436 24.9484 25.2524 25.3955 27.1523 25.917C30.0954 26.6994 32.3493 27.6494 33.914 28.767C35.4786 29.8474 36.559 31.114 37.1551 32.5669C37.7511 33.9826 38.0492 35.5845 38.0492 37.3727C38.0492 40.5393 36.8198 43.1098 34.361 45.0843C31.9022 47.0215 28.1396 47.9901 23.073 47.9901Z"
    fill="url(#paint0_linear_20238_3608)"
  />
  <defs>
    <linearGradient
      id="paint0_linear_20238_3608"
      x1="24.2747"
      y1="10.885"
      x2="24.2747"
      y2="47.9897"
      gradientUnits="userSpaceOnUse"
    >
      <stop stop-color="#984FF6" />
      <stop offset="1" stop-color="#A184F8" />
    </linearGradient>
  </defs>
</svg>
