<svg
  width="60"
  height="60"
  viewBox="0 0 60 60"
  fill="currentColor"
  xmlns="http://www.w3.org/2000/svg"
>
  <rect x="0.000244141" width="60.0003" height="60" rx="30" fill="white" />
  <circle cx="30.0002" cy="30" r="30" fill="white" />
  <path
    d="M47.0307 46.7369C49.8092 46.7369 52.0617 44.4845 52.0617 41.706C52.0617 38.9275 49.8092 36.675 47.0307 36.675C44.2522 36.675 41.9998 38.9275 41.9998 41.706C41.9998 44.4845 44.2522 46.7369 47.0307 46.7369Z"
    fill="#E80000"
  />
  <path
    d="M23.0733 47.9901C20.689 47.9901 18.4538 47.8038 16.3675 47.4313C14.3185 47.096 12.549 46.5931 11.0588 45.9225V38.2668C12.698 38.9746 14.5048 39.5521 16.4793 39.9991C18.491 40.4462 20.391 40.6697 22.1792 40.6697C24.4144 40.6697 26.0722 40.4648 27.1526 40.055C28.2702 39.6452 28.829 38.7511 28.829 37.3727C28.829 36.4413 28.5496 35.6963 27.9908 35.1374C27.4693 34.5786 26.5938 34.0943 25.3644 33.6845C24.1723 33.2375 22.5331 32.7159 20.4468 32.1199C17.9881 31.3748 16.0322 30.5552 14.5793 29.6611C13.1264 28.7297 12.0833 27.6121 11.45 26.3082C10.8167 25.0043 10.5 23.4024 10.5 21.5024C10.5 18.0751 11.7294 15.4486 14.1882 13.6232C16.6469 11.7977 20.2792 10.885 25.085 10.885C27.1712 10.885 29.2016 11.0527 31.176 11.3879C33.1505 11.686 34.7524 12.0399 35.9818 12.4497V20.1613C34.3799 19.528 32.7593 19.0623 31.1202 18.7643C29.5182 18.4662 27.9536 18.3172 26.4261 18.3172C24.4144 18.3172 22.7752 18.5035 21.5086 18.876C20.2792 19.2486 19.6645 20.1054 19.6645 21.4466C19.6645 22.2289 19.888 22.8622 20.3351 23.3465C20.7821 23.7936 21.5458 24.2034 22.6262 24.5759C23.7438 24.9484 25.2526 25.3955 27.1526 25.917C30.0957 26.6994 32.3495 27.6494 33.9142 28.767C35.4789 29.8474 36.5593 31.114 37.1553 32.5669C37.7514 33.9826 38.0494 35.5845 38.0494 37.3727C38.0494 40.5393 36.82 43.1098 34.3613 45.0843C31.9025 47.0215 28.1398 47.9901 23.0733 47.9901Z"
    fill="black"
  />
</svg>
