<svg
  width="60"
  height="60"
  viewBox="0 0 60 60"
  fill="currentColor"
  xmlns="http://www.w3.org/2000/svg"
>
  <rect x="0.0012207" width="60.0003" height="60" rx="30" fill="white" />
  <path
    d="M23.4935 16.3582H15.6798M23.4935 43.6838H15.6798M4.94556 30.0325H23.5137M22.2685 50.3563H24.1742C27.9178 50.3563 30.9527 47.3215 30.9527 43.5779C30.9527 39.8343 27.9178 36.7994 24.1742 36.7994M24.1742 36.7994H9.02411M24.1742 36.7994C27.9178 36.7994 30.9527 33.7646 30.9527 30.021C30.9527 26.7917 28.6944 24.0898 25.6711 23.4083C25.1895 23.2998 24.6886 23.1953 24.1742 23.1953M22.2685 9.63843H24.1742C27.9178 9.63843 30.9527 12.6733 30.9527 16.4169C30.9527 20.1605 27.9178 23.1953 24.1742 23.1953M24.1742 23.1953H9.02411"
    stroke="#27272A"
    stroke-width="3.77778"
    stroke-linecap="round"
    stroke-linejoin="round"
  />
  <path
    d="M30.8966 18.2881C31.6751 17.6683 32.6127 17.2806 33.6017 17.1698C34.5906 17.0589 35.5908 17.2294 36.4872 17.6615C38.3166 18.5432 39.4793 20.3946 39.4793 22.4254C39.4793 21.4971 39.7237 20.5851 40.1879 19.7811C40.6521 18.9771 41.3197 18.3095 42.1237 17.8454C42.9276 17.3812 43.8396 17.1368 44.7679 17.1368C45.6963 17.1368 46.6082 17.3812 47.4122 17.8454M30.8708 31.1425C31.1484 30.8942 31.4515 30.676 31.775 30.4914L31.7724 30.4903C32.5037 30.0721 33.3243 29.8347 34.1658 29.7978C35.0074 29.7609 35.8456 29.9255 36.6107 30.278C37.3758 30.6306 38.0456 31.1607 38.5644 31.8244C39.0831 32.4881 39.4358 33.2662 39.5931 34.0937C40.0878 36.4395 42.0931 38.1447 44.4615 38.2812L44.4605 38.2873C44.9546 38.3163 45.4504 38.2758 45.9332 38.167"
    stroke="#27272A"
    stroke-width="3.77778"
    stroke-linecap="round"
    stroke-linejoin="round"
  />
  <path
    d="M28.8457 49.3532C28.7488 49.1617 28.6637 48.9645 28.5907 48.7626M44.7673 27.7139C46.9063 27.7139 48.8348 26.4254 49.6533 24.4491C50.4719 22.473 50.0193 20.1983 48.5068 18.6858C47.7191 17.9059 46.7063 17.3932 45.6115 17.2201C45.2882 15.5611 44.6096 13.9918 43.6224 12.6198C42.6352 11.2478 41.3628 10.1058 39.8925 9.27209C37.9869 8.19186 35.8166 7.66764 33.6281 7.75897C31.4395 7.8503 29.3205 8.55351 27.5115 9.78875C27.3431 9.9085 27.1778 10.0327 27.0159 10.1612M38.674 45.5981C39.8996 47.4743 42.1746 48.3744 44.352 47.8445C46.5295 47.3147 48.1366 45.4701 48.3631 43.2405C48.5694 41.2075 47.5859 39.2375 45.837 38.1805C48.4288 37.6452 50.2259 35.2764 50.0432 32.6363C49.8508 29.8643 47.546 27.7138 44.7673 27.7139M28.8631 49.3864C30.0996 51.7898 32.9493 52.8741 35.4706 51.9005C37.992 50.9269 39.3736 48.2088 38.674 45.5982"
    stroke="#27272A"
    stroke-width="3.77778"
    stroke-linecap="round"
    stroke-linejoin="round"
  />
</svg>
