<svg
  xmlns="http://www.w3.org/2000/svg"
  width="12"
  height="12"
  viewBox="0 0 12 12"
  fill="currentColor"
>
  <path
    fill-rule="evenodd"
    clip-rule="evenodd"
    d="M5.29995 0.950344C5.54848 0.950344 5.74995 1.15182 5.74995 1.40034C5.74993 1.64885 5.54846 1.85034 5.29995 1.85034H4.27944C3.7682 1.85034 3.41181 1.85072 3.13433 1.87339C2.86211 1.89564 2.70558 1.93703 2.58706 1.99741C2.33305 2.12684 2.12645 2.33344 1.99702 2.58745C1.93666 2.70595 1.89524 2.86246 1.873 3.13472C1.85032 3.41229 1.84995 3.76898 1.84995 4.28042V7.41401L3.32417 5.9398C3.5565 5.70746 3.74957 5.51368 3.91987 5.36909C4.09419 5.22111 4.27403 5.09826 4.48999 5.02808L4.55249 5.00913C4.86597 4.92081 5.19924 4.92713 5.50991 5.02808L5.58921 5.05698C5.77068 5.12954 5.9275 5.2396 6.08003 5.36909C6.25034 5.51368 6.44339 5.70746 6.67573 5.9398L10.0181 9.28218L10.0455 9.31245C10.083 9.20615 10.1104 9.068 10.1269 8.86597C10.1496 8.5884 10.15 8.23171 10.15 7.72026V5.40034C10.15 5.15182 10.3514 4.95034 10.6 4.95034C10.8485 4.95034 11.05 5.15182 11.05 5.40034V7.72026C11.05 8.21686 11.0503 8.61649 11.024 8.93921C10.9988 9.24669 10.9475 9.51917 10.8292 9.77163L10.8046 9.82183C10.6024 10.2187 10.2874 10.5461 9.89995 10.7632L9.82144 10.805C9.55491 10.9408 9.26679 10.9976 8.93882 11.0244C8.61609 11.0507 8.21648 11.0503 7.71987 11.0503H4.28003C3.78342 11.0503 3.38381 11.0507 3.06108 11.0244C2.75359 10.9992 2.48113 10.9479 2.22866 10.8296L2.17847 10.805C1.7816 10.6028 1.45416 10.2877 1.23706 9.90034L1.19526 9.82183C1.05947 9.55531 1.00273 9.26717 0.975928 8.93921C0.949562 8.61649 0.949951 8.21686 0.949951 7.72026V4.28042C0.949951 3.78383 0.949565 3.38419 0.975928 3.06148C1.00272 2.73351 1.05947 2.44538 1.19526 2.17886C1.41097 1.75553 1.75514 1.41137 2.17847 1.19566C2.44497 1.05987 2.73299 1.00312 3.06089 0.97632C3.38353 0.949953 3.783 0.950344 4.27944 0.950344H5.29995ZM5.23179 5.88413C5.09997 5.8413 4.95919 5.83599 4.82515 5.86812L4.76812 5.88413C4.71014 5.90299 4.63413 5.94348 4.50249 6.05523C4.36671 6.17049 4.20332 6.3333 3.9605 6.57612L1.86147 8.67495C1.86451 8.74277 1.86812 8.80623 1.873 8.86597C1.89525 9.13822 1.93665 9.29474 1.99702 9.41323L2.02222 9.4603C2.15248 9.69276 2.34893 9.88194 2.58706 10.0033L2.63335 10.025C2.74641 10.0737 2.89602 10.1078 3.13433 10.1273C3.4119 10.15 3.76856 10.1503 4.28003 10.1503H7.71987C8.23134 10.1503 8.588 10.15 8.86558 10.1273C9.13785 10.105 9.29434 10.0636 9.41284 10.0033L9.45776 9.97905C9.44349 9.96991 9.42935 9.96029 9.41597 9.94937L9.38179 9.91851L6.0394 6.57612C5.79657 6.33329 5.63319 6.1705 5.49741 6.05523C5.38221 5.95744 5.30963 5.91424 5.25444 5.89234L5.23179 5.88413Z"
  />
  <path
    d="M11.2 1.95034C11.4485 1.95034 11.65 2.15182 11.65 2.40034V3.20034C11.6499 3.89068 11.0903 4.45034 10.4 4.45034H8.48628L8.51812 4.48218L8.54897 4.51636C8.69312 4.69311 8.68286 4.95376 8.51812 5.11851C8.35337 5.28323 8.09271 5.29351 7.91597 5.14937L7.88179 5.11851L7.28667 4.52339L7.25464 4.48902C6.94365 4.12656 7.19771 3.55039 7.6896 3.55034H10.4C10.5932 3.55034 10.7499 3.39362 10.75 3.20034V2.40034C10.75 2.15182 10.9514 1.95034 11.2 1.95034Z"
  />
  <path
    d="M9.28179 0.28218C9.44654 0.117424 9.70719 0.107153 9.88394 0.25132L9.91812 0.28218L10.5132 0.877297L10.5453 0.911672C10.8562 1.27413 10.6022 1.8503 10.1103 1.85034H7.39995C7.20665 1.85034 7.04995 2.00704 7.04995 2.20034V3.00034C7.04993 3.24885 6.84846 3.45034 6.59995 3.45034C6.35144 3.45034 6.14998 3.24885 6.14995 3.00034V2.20034C6.14995 1.50999 6.7096 0.950344 7.39995 0.950344H9.31362L9.28179 0.918508L9.25093 0.884328C9.10677 0.707588 9.11705 0.446936 9.28179 0.28218Z"
  />
</svg>
