<svg
  width="60"
  height="60"
  viewBox="0 0 60 60"
  fill="currentColor"
  xmlns="http://www.w3.org/2000/svg"
>
  <rect x="0.00146484" width="60.0003" height="60" rx="30" fill="#FF3D59" />
  <path
    d="M23.4937 16.3582H15.6801M23.4937 43.6838H15.6801M4.9458 30.0325H23.5139M22.2687 50.3563H24.1744C27.9181 50.3563 30.9529 47.3215 30.9529 43.5779C30.9529 39.8343 27.9181 36.7994 24.1744 36.7994M24.1744 36.7994H9.02436M24.1744 36.7994C27.9181 36.7994 30.9529 33.7646 30.9529 30.021C30.9529 26.7917 28.6947 24.0898 25.6713 23.4083C25.1897 23.2998 24.6888 23.1953 24.1744 23.1953M22.2687 9.63843H24.1744C27.9181 9.63843 30.9529 12.6733 30.9529 16.4169C30.9529 20.1605 27.9181 23.1953 24.1744 23.1953M24.1744 23.1953H9.02436"
    stroke="white"
    stroke-width="3.77778"
    stroke-linecap="round"
    stroke-linejoin="round"
  />
  <path
    d="M30.8969 18.2881C31.6754 17.6683 32.613 17.2806 33.6019 17.1698C34.5909 17.0589 35.5911 17.2294 36.4875 17.6615C38.3168 18.5432 39.4796 20.3946 39.4796 22.4254C39.4796 21.4971 39.724 20.5851 40.1881 19.7811C40.6523 18.9771 41.32 18.3095 42.1239 17.8454C42.9279 17.3812 43.8399 17.1368 44.7682 17.1368C45.6965 17.1368 46.6085 17.3812 47.4124 17.8454M30.8711 31.1425C31.1487 30.8942 31.4517 30.676 31.7752 30.4914L31.7727 30.4903C32.5039 30.0721 33.3245 29.8347 34.1661 29.7978C35.0077 29.7609 35.8459 29.9255 36.611 30.278C37.3761 30.6306 38.0459 31.1607 38.5646 31.8244C39.0834 32.4881 39.4361 33.2662 39.5934 34.0937C40.088 36.4395 42.0934 38.1447 44.4617 38.2812L44.4608 38.2873C44.9549 38.3163 45.4506 38.2758 45.9335 38.167"
    stroke="white"
    stroke-width="3.77778"
    stroke-linecap="round"
    stroke-linejoin="round"
  />
  <path
    d="M28.8459 49.3532C28.7491 49.1617 28.6639 48.9645 28.5909 48.7626M44.7676 27.7139C46.9066 27.7139 48.835 26.4254 49.6536 24.4491C50.4721 22.473 50.0196 20.1983 48.5071 18.6858C47.7194 17.9059 46.7066 17.3932 45.6117 17.2201C45.2884 15.5611 44.6098 13.9918 43.6227 12.6198C42.6355 11.2478 41.363 10.1058 39.8927 9.27209C37.9872 8.19186 35.8169 7.66764 33.6283 7.75897C31.4398 7.8503 29.3207 8.55351 27.5118 9.78875C27.3433 9.9085 27.178 10.0327 27.0161 10.1612M38.6743 45.5981C39.8998 47.4743 42.1748 48.3744 44.3523 47.8445C46.5297 47.3147 48.1368 45.4701 48.3633 43.2405C48.5696 41.2075 47.5861 39.2375 45.8373 38.1805C48.4291 37.6452 50.2261 35.2764 50.0434 32.6363C49.8511 29.8643 47.5463 27.7138 44.7676 27.7139M28.8633 49.3864C30.0998 51.7898 32.9496 52.8741 35.4709 51.9005C37.9923 50.9269 39.3738 48.2088 38.6743 45.5982"
    stroke="white"
    stroke-width="3.77778"
    stroke-linecap="round"
    stroke-linejoin="round"
  />
</svg>
