<svg
  width="60"
  height="60"
  viewBox="0 0 60 60"
  fill="currentColor"
  xmlns="http://www.w3.org/2000/svg"
>
  <path
    fill-rule="evenodd"
    clip-rule="evenodd"
    d="M17.0001 17C15.8955 17 15.0001 17.8954 15.0001 19C15.0001 20.1046 15.8955 21 17.0001 21C18.1047 21 19.0001 20.1046 19.0001 19C19.0001 17.8954 18.1047 17 17.0001 17ZM11.0001 19C11.0001 15.6863 13.6864 13 17.0001 13C20.3138 13 23.0001 15.6863 23.0001 19C23.0001 22.3137 20.3138 25 17.0001 25C13.6864 25 11.0001 22.3137 11.0001 19Z"
  />
  <path
    fill-rule="evenodd"
    clip-rule="evenodd"
    d="M43.9338 29.8521C45.12 30.2222 45.7816 31.4839 45.4115 32.6702C44.7646 34.7437 43.4822 38.1762 41.3183 40.8356C41.9147 41.1862 42.6145 41.5429 43.3378 41.8759C44.0022 42.1819 44.6152 42.4364 45.0623 42.6143C45.2851 42.7029 45.4647 42.7718 45.5867 42.8178C45.6477 42.8408 45.6941 42.858 45.7241 42.869L45.7566 42.881L45.7631 42.8833C46.9318 43.3048 47.5381 44.5941 47.1168 45.763C46.6954 46.932 45.4061 47.5381 44.2371 47.1167L45.0001 45C44.2371 47.1167 44.2371 47.1167 44.2371 47.1167L44.2301 47.1142L44.2163 47.1091L44.1687 47.0917C44.1284 47.0769 44.0712 47.0556 43.9989 47.0284C43.8544 46.9739 43.6493 46.8952 43.3985 46.7954C42.8986 46.5965 42.2098 46.3107 41.4555 45.9634C40.401 45.4778 39.0367 44.7918 37.8969 43.9782C36.1779 45.1992 34.1372 46.2535 31.769 47.1146C30.6011 47.5392 29.3102 46.9367 28.8855 45.7689C28.4609 44.601 29.0634 43.3101 30.2312 42.8854C31.9733 42.252 33.4429 41.522 34.672 40.7285C34.0103 39.9162 33.43 39.1299 32.9716 38.48C32.2553 37.4646 32.4979 36.0607 33.5133 35.3445C34.5287 34.6282 35.9326 34.8707 36.6488 35.8862C37.0445 36.4471 37.5171 37.0865 38.0363 37.7324C39.5067 35.8119 40.5261 33.2198 41.1157 31.3299C41.4858 30.1436 42.7475 29.482 43.9338 29.8521Z"
  />
  <path
    fill-rule="evenodd"
    clip-rule="evenodd"
    d="M31.4346 9.2622C31.2334 9.2509 30.9796 9.25001 30.2858 9.25001H21.0001C18.1627 9.25001 16.17 9.25176 14.6153 9.37878C13.087 9.50365 12.1812 9.73829 11.4817 10.0947C10.0234 10.8377 8.83781 12.0233 8.09479 13.4816C7.73838 14.1811 7.50374 15.0869 7.37886 16.6152C7.25184 18.1699 7.25009 20.1626 7.25009 23V30.1429C7.25009 32.9224 7.26431 33.9355 7.4444 34.7245C8.00044 37.1607 9.68653 39.1488 11.9302 40.1164C12.0398 39.8594 12.1995 39.6187 12.4091 39.409L24.4434 27.3747C25.1843 26.6338 25.8337 25.9842 26.4147 25.4911C27.0313 24.9676 27.7171 24.4895 28.5687 24.2128C29.824 23.8049 31.1762 23.8049 32.4314 24.2128C33.2831 24.4895 33.9689 24.9676 34.5855 25.4911C35.1664 25.9842 35.8159 26.6337 36.5567 27.3747L37.0911 27.909C37.9698 28.7877 37.9698 30.2123 37.0911 31.091C36.2124 31.9697 34.7878 31.9697 33.9091 31.091L33.4346 30.6165C32.6163 29.7982 32.097 29.2814 31.6732 28.9216C31.2694 28.5788 31.1025 28.5125 31.0409 28.4925C30.6894 28.3783 30.3108 28.3783 29.9593 28.4925C29.8976 28.5125 29.7308 28.5788 29.327 28.9216C28.9032 29.2814 28.3839 29.7982 27.5656 30.6165L17.4322 40.7499C17.5691 40.75 17.7107 40.75 17.8572 40.75H19.8572C22.8356 40.75 25.2501 43.1645 25.2501 46.1429C25.2501 49.2396 27.7605 51.75 30.8572 51.75H39.0001C41.8375 51.75 43.8302 51.7483 45.3849 51.6212C46.9132 51.4964 47.819 51.2617 48.5185 50.9053C49.9768 50.1623 51.1624 48.9767 51.9054 47.5184C52.2618 46.8189 52.4965 45.9131 52.6213 44.3848C52.7483 42.8301 52.7501 40.8374 52.7501 38V32C52.7501 27.7198 49.2803 24.25 45.0001 24.25C41.5483 24.25 38.7501 21.4518 38.7501 18V17.7143C38.7501 17.0205 38.7492 16.7667 38.7379 16.5655C38.5167 12.6272 35.3729 9.48336 31.4346 9.2622ZM30.3629 4.75C30.9522 4.74997 31.3427 4.74994 31.687 4.76928C37.9119 5.11886 42.8812 10.0882 43.2308 16.3131C43.2502 16.6574 43.2501 17.0479 43.2501 17.6371V18C43.2501 18.9665 44.0336 19.75 45.0001 19.75C51.7656 19.75 57.2501 25.2345 57.2501 32V38.0974C57.2501 40.8151 57.2501 42.9918 57.1064 44.7512C56.9588 46.5579 56.6484 48.1218 55.9149 49.5614C54.7405 51.8664 52.8665 53.7404 50.5615 54.9148C49.1219 55.6484 47.558 55.9587 45.7513 56.1063C43.9919 56.25 41.8152 56.25 39.0975 56.25H30.8572C25.2752 56.25 20.7501 51.7249 20.7501 46.1429C20.7501 45.6498 20.3503 45.25 19.8572 45.25H17.8572C17.7528 45.25 17.6499 45.25 17.5485 45.2501C15.1898 45.2506 13.6241 45.251 12.2742 44.9429C7.68664 43.8958 4.10431 40.3135 3.05723 35.7259C2.74912 34.376 2.74949 32.8102 2.75005 30.4516C2.75007 30.3502 2.75009 30.2473 2.75009 30.1429L2.75009 22.9026C2.75007 20.1849 2.75006 18.0082 2.89381 16.2488C3.04142 14.4421 3.35175 12.8782 4.08526 11.4386C5.25971 9.13364 7.13372 7.25962 9.43871 6.08518C10.8783 5.35166 12.4422 5.04133 14.2489 4.89372C16.0083 4.74997 18.185 4.74999 20.9027 4.75001L30.3629 4.75Z"
  />
</svg>
