<svg
  width="60"
  height="60"
  viewBox="0 0 60 60"
  fill="currentColor"
  xmlns="http://www.w3.org/2000/svg"
>
  <path
    fill-rule="evenodd"
    clip-rule="evenodd"
    d="M4.08993 8.46009C3 10.5992 3 13.3995 3 19V33C3 38.6005 3 41.4008 4.08993 43.5399C5.04867 45.4215 6.57847 46.9513 8.46009 47.9101C10.5992 49 13.3995 49 19 49C20.3298 49 21.3935 49.9972 21.9338 51.2122C21.9832 51.3233 22.0352 51.4324 22.0899 51.5399C23.0487 53.4215 24.5785 54.9513 26.4601 55.9101C28.5992 57 31.3995 57 37 57H41C46.6005 57 49.4008 57 51.5399 55.9101C53.4215 54.9513 54.9513 53.4215 55.9101 51.5399C57 49.4008 57 46.6005 57 41V37C57 31.3995 57 28.5992 55.9101 26.4601C54.9513 24.5785 53.4215 23.0487 51.5399 22.0899C50.8223 21.7243 50.0303 21.4813 49.0832 21.3199C47.9223 21.122 47 20.1777 47 19C47 13.3995 47 10.5992 45.9101 8.46009C44.9513 6.57847 43.4215 5.04867 41.5399 4.08993C39.4008 3 36.6005 3 31 3H19C13.3995 3 10.5992 3 8.46009 4.08993C6.57847 5.04867 5.04867 6.57847 4.08993 8.46009Z"
    fill="url(#paint0_linear_17647_945)"
  />
  <path
    fill-rule="evenodd"
    clip-rule="evenodd"
    d="M45.9338 31.8521C47.12 32.2222 47.7816 33.4839 47.4115 34.6701C46.7646 36.7437 45.4822 40.1762 43.3184 42.8356C43.9147 43.1862 44.6145 43.5429 45.3378 43.8759C46.0023 44.1819 46.6152 44.4363 47.0623 44.6142C47.2851 44.7029 47.4648 44.7718 47.5867 44.8178C47.6477 44.8408 47.6941 44.858 47.7241 44.869L47.7566 44.8809L47.7631 44.8833C48.9319 45.3048 49.5381 46.5941 49.1168 47.763C48.6954 48.932 47.4062 49.5381 46.2372 49.1167L47.0001 47C46.2372 49.1167 46.2372 49.1167 46.2372 49.1167L46.2302 49.1142L46.2163 49.1091L46.1688 49.0917C46.1285 49.0769 46.0712 49.0556 45.999 49.0283C45.8545 48.9739 45.6493 48.8952 45.3986 48.7954C44.8986 48.5964 44.2098 48.3107 43.4556 47.9634C42.401 47.4778 41.0368 46.7918 39.8969 45.9782C38.1779 47.1992 36.1372 48.2535 33.769 49.1145C32.6012 49.5392 31.3102 48.9367 30.8856 47.7689C30.4609 46.601 31.0634 45.3101 32.2313 44.8854C33.9733 44.252 35.4429 43.522 36.672 42.7285C36.0103 41.9162 35.4301 41.1299 34.9716 40.48C34.2554 39.4645 34.4979 38.0607 35.5133 37.3445C36.5288 36.6282 37.9326 36.8707 38.6489 37.8862C39.0445 38.4471 39.5171 39.0865 40.0363 39.7324C41.5067 37.8118 42.5261 35.2198 43.1158 33.3298C43.4859 32.1436 44.7476 31.482 45.9338 31.8521Z"
    fill="#FFD8BD"
  />
  <path
    fill-rule="evenodd"
    clip-rule="evenodd"
    d="M15.5 12.25C14.2574 12.25 13.25 13.2574 13.25 14.5C13.25 15.7426 14.2574 16.75 15.5 16.75C16.7426 16.75 17.75 15.7426 17.75 14.5C17.75 13.2574 16.7426 12.25 15.5 12.25ZM8.75 14.5C8.75 10.7721 11.7721 7.75 15.5 7.75C19.2279 7.75 22.25 10.7721 22.25 14.5C22.25 18.2279 19.2279 21.25 15.5 21.25C11.7721 21.25 8.75 18.2279 8.75 14.5Z"
    fill="white"
  />
  <path
    fill-rule="evenodd"
    clip-rule="evenodd"
    d="M30.8508 26.5319C30.4187 26.3915 29.9533 26.3915 29.5213 26.5319C29.4292 26.5618 29.2217 26.6495 28.7467 27.0527C28.2494 27.4749 27.6418 28.0798 26.6916 29.03L12.7678 42.9538C11.7915 43.9301 10.2085 43.9301 9.23223 42.9538C8.25592 41.9775 8.25592 40.3946 9.23223 39.4183L23.2232 25.4273C24.0868 24.5637 24.839 23.8114 25.5108 23.241C26.2223 22.637 27.0063 22.0917 27.9762 21.7766C29.4125 21.3099 30.9596 21.3099 32.3959 21.7766C33.3658 22.0917 34.1498 22.637 34.8612 23.241C35.5331 23.8113 36.2853 24.5636 37.1488 25.4272L37.7678 26.0462C38.7441 27.0225 38.7441 28.6054 37.7678 29.5817C36.7915 30.558 35.2085 30.558 34.2322 29.5817L33.6805 29.03C32.7303 28.0798 32.1227 27.4749 31.6254 27.0527C31.1504 26.6495 30.9429 26.5618 30.8508 26.5319Z"
    fill="white"
  />
  <defs>
    <linearGradient
      id="paint0_linear_17647_945"
      x1="5.3077"
      y1="6"
      x2="28.0798"
      y2="42.8619"
      gradientUnits="userSpaceOnUse"
    >
      <stop stop-color="#E47100" />
      <stop offset="1" stop-color="#FFA56D" />
    </linearGradient>
  </defs>
</svg>
