<svg
  width="60"
  height="60"
  viewBox="0 0 60 60"
  fill="currentColor"
  xmlns="http://www.w3.org/2000/svg"
>
  <path
    d="M49.25 3C49.25 1.75736 48.2426 0.75 47 0.75C45.7574 0.75 44.75 1.75736 44.75 3V10.75L37 10.75C35.7574 10.75 34.75 11.7574 34.75 13C34.75 14.2426 35.7574 15.25 37 15.25L44.75 15.25V23C44.75 24.2426 45.7574 25.25 47 25.25C48.2426 25.25 49.25 24.2426 49.25 23V15.25L57 15.25C58.2426 15.25 59.25 14.2426 59.25 13C59.25 11.7574 58.2426 10.75 57 10.75L49.25 10.75V3Z"
  />
  <path
    fill-rule="evenodd"
    clip-rule="evenodd"
    d="M21.3029 4.75L30 4.75C31.2426 4.75 32.25 5.75736 32.25 7C32.25 8.24264 31.2426 9.25 30 9.25H21.3992C18.8421 9.25 17.0596 9.25175 15.6719 9.36514C14.3104 9.47639 13.5281 9.68378 12.9356 9.98571C11.6655 10.6329 10.6329 11.6655 9.98571 12.9356C9.68379 13.5281 9.4764 14.3104 9.36515 15.672C9.25175 17.0599 9.25 18.8426 9.25 21.4V38.6C9.25 41.1574 9.25175 42.9401 9.36515 44.328C9.4764 45.6896 9.68379 46.4719 9.98571 47.0644C10.6329 48.3345 11.6655 49.3671 12.9356 50.0143C13.5281 50.3162 14.3104 50.5236 15.672 50.6349C15.9701 50.6592 16.2863 50.6784 16.6245 50.6935L31.6853 35.6327C32.8184 34.4995 33.7642 33.5537 34.6 32.8442C35.4717 32.1042 36.3706 31.49 37.4506 31.1391C39.1076 30.6007 40.8924 30.6007 42.5494 31.1391C43.6294 31.49 44.5283 32.1042 45.4 32.8442C46.2358 33.5537 47.1816 34.4995 48.3146 35.6326L50.75 38.068V30C50.75 28.7574 51.7574 27.75 53 27.75C54.2426 27.75 55.25 28.7574 55.25 30V38.6964C55.25 40.3638 55.25 41.8108 55.2084 43.0683C55.277 43.4207 55.2607 43.7864 55.1597 44.1326C55.148 44.3249 55.1348 44.5121 55.1199 44.6944C54.9859 46.3343 54.7028 47.7747 54.0238 49.1074C52.9452 51.2242 51.2242 52.9452 49.1074 54.0238C47.7747 54.7028 46.3343 54.9859 44.6944 55.1199C43.1017 55.25 41.1349 55.25 38.6965 55.25H21.3036C18.8652 55.25 16.8983 55.25 15.3056 55.1199C13.6657 54.9859 12.2253 54.7028 10.8926 54.0238C8.77578 52.9452 7.05475 51.2242 5.97618 49.1074C5.29716 47.7747 5.01408 46.3343 4.88009 44.6944C4.74996 43.1017 4.74998 41.1348 4.75 38.6963V21.3037C4.74998 18.8652 4.74996 16.8983 4.88009 15.3056C5.01408 13.6657 5.29716 12.2253 5.97618 10.8926C7.05475 8.77578 8.77578 7.05475 10.8926 5.97618C12.2252 5.29717 13.6656 5.01408 15.3054 4.88009C16.898 4.74996 18.8647 4.74998 21.3029 4.75ZM50.6357 44.3177L45.1972 38.8792C43.9829 37.6649 43.1666 36.8511 42.4877 36.2747C41.8289 35.7154 41.4488 35.513 41.1588 35.4188C40.4057 35.1741 39.5943 35.1741 38.8412 35.4188C38.5512 35.513 38.1711 35.7154 37.5123 36.2747C36.8333 36.8511 36.0171 37.6649 34.8028 38.8792L22.932 50.75H38.6C41.1574 50.75 42.9401 50.7482 44.328 50.6349C45.6896 50.5236 46.4719 50.3162 47.0644 50.0143C48.3345 49.3671 49.3671 48.3345 50.0143 47.0644C50.3162 46.4719 50.5236 45.6896 50.6349 44.328C50.6351 44.3245 50.6354 44.3211 50.6357 44.3177Z"
  />
  <path
    fill-rule="evenodd"
    clip-rule="evenodd"
    d="M13.75 23C13.75 17.8914 17.8914 13.75 23 13.75C28.1086 13.75 32.25 17.8914 32.25 23C32.25 28.1086 28.1086 32.25 23 32.25C17.8914 32.25 13.75 28.1086 13.75 23ZM23 18.25C20.3766 18.25 18.25 20.3766 18.25 23C18.25 25.6234 20.3766 27.75 23 27.75C25.6234 27.75 27.75 25.6234 27.75 23C27.75 20.3766 25.6234 18.25 23 18.25Z"
  />
</svg>
