<svg
  width="60"
  height="60"
  viewBox="0 0 60 60"
  fill="currentColor"
  xmlns="http://www.w3.org/2000/svg"
>
  <rect x="0.000732422" width="60.0003" height="60" rx="30" fill="black" />
  <rect
    x="0.000732422"
    width="60.0003"
    height="60"
    rx="30"
    fill="url(#paint0_linear_20238_3602)"
  />
  <circle cx="29.9988" cy="30" r="30" fill="white" />
  <circle cx="29.9988" cy="30" r="30" fill="url(#paint1_linear_20238_3602)" />
  <path
    d="M47.0292 46.7369C49.8078 46.7369 52.0602 44.4845 52.0602 41.706C52.0602 38.9275 49.8078 36.675 47.0292 36.675C44.2507 36.675 41.9983 38.9275 41.9983 41.706C41.9983 44.4845 44.2507 46.7369 47.0292 46.7369Z"
    fill="#E80000"
  />
  <path
    d="M23.072 47.9901C20.6878 47.9901 18.4525 47.8038 16.3663 47.4313C14.3173 47.096 12.5478 46.5931 11.0576 45.9225V38.2668C12.6968 38.9746 14.5036 39.5521 16.4781 39.9991C18.4898 40.4462 20.3897 40.6697 22.1779 40.6697C24.4132 40.6697 26.071 40.4648 27.1514 40.055C28.269 39.6452 28.8278 38.7511 28.8278 37.3727C28.8278 36.4413 28.5484 35.6963 27.9896 35.1374C27.468 34.5786 26.5926 34.0943 25.3632 33.6845C24.171 33.2375 22.5319 32.7159 20.4456 32.1199C17.9869 31.3748 16.031 30.5552 14.5781 29.6611C13.1252 28.7297 12.0821 27.6121 11.4488 26.3082C10.8154 25.0043 10.4988 23.4024 10.4988 21.5024C10.4988 18.0751 11.7282 15.4486 14.1869 13.6232C16.6457 11.7977 20.278 10.885 25.0838 10.885C27.17 10.885 29.2003 11.0527 31.1748 11.3879C33.1493 11.686 34.7512 12.0399 35.9806 12.4497V20.1613C34.3787 19.528 32.7581 19.0623 31.1189 18.7643C29.517 18.4662 27.9523 18.3172 26.4249 18.3172C24.4132 18.3172 22.774 18.5035 21.5074 18.876C20.278 19.2486 19.6633 20.1054 19.6633 21.4466C19.6633 22.2289 19.8868 22.8622 20.3339 23.3465C20.7809 23.7936 21.5446 24.2034 22.625 24.5759C23.7426 24.9484 25.2514 25.3955 27.1514 25.917C30.0944 26.6994 32.3483 27.6494 33.913 28.767C35.4777 29.8474 36.558 31.114 37.1541 32.5669C37.7502 33.9826 38.0482 35.5845 38.0482 37.3727C38.0482 40.5393 36.8188 43.1098 34.36 45.0843C31.9013 47.0215 28.1386 47.9901 23.072 47.9901Z"
    fill="white"
  />
  <defs>
    <linearGradient
      id="paint0_linear_20238_3602"
      x1="30.0014"
      y1="0"
      x2="30.0014"
      y2="59.9993"
      gradientUnits="userSpaceOnUse"
    >
      <stop stop-color="#984FF6" />
      <stop offset="1" stop-color="#A184F8" />
    </linearGradient>
    <linearGradient
      id="paint1_linear_20238_3602"
      x1="29.9993"
      y1="0"
      x2="29.9993"
      y2="59.9993"
      gradientUnits="userSpaceOnUse"
    >
      <stop stop-color="#984FF6" />
      <stop offset="1" stop-color="#A184F8" />
    </linearGradient>
  </defs>
</svg>
