<svg
  width="60"
  height="60"
  viewBox="0 0 60 60"
  fill="currentColor"
  xmlns="http://www.w3.org/2000/svg"
>
  <rect x="0.00170898" width="60.0003" height="60" rx="30" fill="black" />
  <path
    d="M28.8462 49.3532C28.7493 49.1617 28.6642 48.9645 28.5912 48.7626M44.7678 27.7139C46.9068 27.7139 48.8352 26.4254 49.6538 24.4491C50.4724 22.473 50.0198 20.1983 48.5073 18.6858C47.7196 17.9059 46.7068 17.3932 45.612 17.2201C45.2886 15.5611 44.6101 13.9918 43.6229 12.6198C42.6357 11.2478 41.3633 10.1058 39.893 9.27209C37.9874 8.19186 35.8171 7.66764 33.6286 7.75897C31.44 7.8503 29.321 8.55351 27.512 9.78875C27.3435 9.9085 27.1783 10.0327 27.0164 10.1612M38.6745 45.5981C39.9001 47.4743 42.1751 48.3744 44.3525 47.8445C46.53 47.3147 48.1371 45.4701 48.3636 43.2405C48.5699 41.2075 47.5864 39.2375 45.8375 38.1805C48.4293 37.6452 50.2264 35.2764 50.0436 32.6363C49.8513 29.8643 47.5465 27.7138 44.7678 27.7139M28.8636 49.3864C30.1001 51.7898 32.9498 52.8741 35.4711 51.9005C37.9925 50.9269 39.3741 48.2088 38.6745 45.5982"
    stroke="white"
    stroke-width="3.77778"
    stroke-linecap="round"
    stroke-linejoin="round"
  />
  <path
    d="M30.8971 18.2881C31.6756 17.6683 32.6132 17.2806 33.6022 17.1698C34.5911 17.0589 35.5913 17.2294 36.4877 17.6615C38.3171 18.5432 39.4798 20.3946 39.4798 22.4254C39.4798 21.4971 39.7242 20.5851 40.1884 19.7811C40.6526 18.9771 41.3202 18.3095 42.1242 17.8454C42.9281 17.3812 43.8401 17.1368 44.7684 17.1368C45.6967 17.1368 46.6087 17.3812 47.4127 17.8454M30.8713 31.1425C31.1489 30.8942 31.452 30.676 31.7754 30.4914L31.7729 30.4903C32.5042 30.0721 33.3247 29.8347 34.1663 29.7978C35.0079 29.7609 35.8461 29.9255 36.6112 30.278C37.3763 30.6306 38.0461 31.1607 38.5649 31.8244C39.0836 32.4881 39.4363 33.2662 39.5936 34.0937C40.0883 36.4395 42.0936 38.1447 44.4619 38.2812L44.461 38.2873C44.9551 38.3163 45.4509 38.2758 45.9337 38.167"
    stroke="white"
    stroke-width="3.77778"
    stroke-linecap="round"
    stroke-linejoin="round"
  />
  <path
    d="M23.494 16.3582H15.6803M23.494 43.6838H15.6803M4.94604 30.0325H23.5142M22.269 50.3563H24.1747C27.9183 50.3563 30.9532 47.3215 30.9532 43.5779C30.9532 39.8343 27.9183 36.7994 24.1747 36.7994M24.1747 36.7994H9.0246M24.1747 36.7994C27.9183 36.7994 30.9532 33.7646 30.9532 30.021C30.9532 26.7917 28.6949 24.0898 25.6715 23.4083C25.19 23.2998 24.689 23.1953 24.1747 23.1953M22.269 9.63843H24.1747C27.9183 9.63843 30.9532 12.6733 30.9532 16.4169C30.9532 20.1605 27.9183 23.1953 24.1747 23.1953M24.1747 23.1953H9.0246"
    stroke="white"
    stroke-width="3.77778"
    stroke-linecap="round"
    stroke-linejoin="round"
  />
</svg>
