<svg
  width="60"
  height="60"
  viewBox="0 0 60 60"
  fill="currentColor"
  xmlns="http://www.w3.org/2000/svg"
>
  <rect x="0.000488281" width="60.0003" height="60" rx="30" fill="black" />
  <circle cx="29.9985" cy="30" r="30" fill="black" />
  <path
    d="M47.0297 46.7369C49.8083 46.7369 52.0607 44.4845 52.0607 41.706C52.0607 38.9275 49.8083 36.675 47.0297 36.675C44.2512 36.675 41.9988 38.9275 41.9988 41.706C41.9988 44.4845 44.2512 46.7369 47.0297 46.7369Z"
    fill="#E80000"
  />
  <path
    d="M23.0718 47.9901C20.6875 47.9901 18.4523 47.8038 16.3661 47.4313C14.3171 47.096 12.5475 46.5931 11.0573 45.9225V38.2668C12.6965 38.9746 14.5034 39.5521 16.4778 39.9991C18.4895 40.4462 20.3895 40.6697 22.1777 40.6697C24.4129 40.6697 26.0708 40.4648 27.1511 40.055C28.2687 39.6452 28.8276 38.7511 28.8276 37.3727C28.8276 36.4413 28.5482 35.6963 27.9893 35.1374C27.4678 34.5786 26.5923 34.0943 25.3629 33.6845C24.1708 33.2375 22.5316 32.7159 20.4454 32.1199C17.9866 31.3748 16.0308 30.5552 14.5779 29.6611C13.125 28.7297 12.0818 27.6121 11.4485 26.3082C10.8152 25.0043 10.4985 23.4024 10.4985 21.5024C10.4985 18.0751 11.7279 15.4486 14.1867 13.6232C16.6455 11.7977 20.2777 10.885 25.0835 10.885C27.1698 10.885 29.2001 11.0527 31.1746 11.3879C33.149 11.686 34.751 12.0399 35.9804 12.4497V20.1613C34.3784 19.528 32.7579 19.0623 31.1187 18.7643C29.5168 18.4662 27.9521 18.3172 26.4247 18.3172C24.4129 18.3172 22.7738 18.5035 21.5071 18.876C20.2777 19.2486 19.663 20.1054 19.663 21.4466C19.663 22.2289 19.8866 22.8622 20.3336 23.3465C20.7807 23.7936 21.5444 24.2034 22.6248 24.5759C23.7424 24.9484 25.2512 25.3955 27.1511 25.917C30.0942 26.6994 32.3481 27.6494 33.9127 28.767C35.4774 29.8474 36.5578 31.114 37.1539 32.5669C37.7499 33.9826 38.048 35.5845 38.048 37.3727C38.048 40.5393 36.8186 43.1098 34.3598 45.0843C31.901 47.0215 28.1384 47.9901 23.0718 47.9901Z"
    fill="white"
  />
</svg>
