<svg
  width="60"
  height="60"
  viewBox="0 0 60 60"
  fill="currentColor"
  xmlns="http://www.w3.org/2000/svg"
>
  <path
    d="M34.9091 46.591C35.7878 47.4697 37.2124 47.4697 38.0911 46.591C38.9698 45.7123 38.9698 44.2877 38.0911 43.409L26.9321 32.25L54.5001 32.25C55.7428 32.25 56.7501 31.2426 56.7501 30C56.7501 28.7574 55.7428 27.75 54.5001 27.75L26.9321 27.75L38.0911 16.591C38.9698 15.7123 38.9698 14.2877 38.0911 13.409C37.2124 12.5303 35.7878 12.5303 34.9091 13.409L21.3234 26.9948C19.6636 28.6545 19.6636 31.3455 21.3234 33.0052L34.9091 46.591Z"
  />
  <path
    fill-rule="evenodd"
    clip-rule="evenodd"
    d="M21.5 51.25H14.5C8.28799 51.25 3.25 46.2181 3.25 40.0037L3.25 19.9963C3.25 13.7819 8.28799 8.75 14.5 8.75L21.5 8.75C22.7426 8.75 23.75 9.75736 23.75 11C23.75 12.2426 22.7426 13.25 21.5 13.25L14.5 13.25C10.7709 13.25 7.75 16.2696 7.75 19.9963L7.75 40.0037C7.75 43.7304 10.7709 46.75 14.5 46.75H21.5C22.7426 46.75 23.75 47.7574 23.75 49C23.75 50.2426 22.7426 51.25 21.5 51.25Z"
  />
</svg>
