<svg
  width="60"
  height="60"
  viewBox="0 0 60 60"
  fill="currentColor"
  xmlns="http://www.w3.org/2000/svg"
>
  <path
    d="M13.75 21C13.75 19.7574 14.7574 18.75 16 18.75H36C37.2426 18.75 38.25 19.7574 38.25 21C38.25 22.2426 37.2426 23.25 36 23.25H16C14.7574 23.25 13.75 22.2426 13.75 21Z"
  />
  <path
    d="M16 32.75C14.7574 32.75 13.75 33.7574 13.75 35C13.75 36.2426 14.7574 37.25 16 37.25H26C27.2426 37.25 28.25 36.2426 28.25 35C28.25 33.7574 27.2426 32.75 26 32.75H16Z"
  />
  <path
    d="M43.6926 34.859L43.0153 36.7507C42.7008 37.6289 42.5436 38.068 42.3217 38.4552C41.8764 39.232 41.2322 39.8763 40.4553 40.3215C40.0681 40.5435 39.629 40.7007 38.7508 41.0151L36.8591 41.6925C36.6589 41.7641 36.5586 41.8 36.5194 41.8433C36.4388 41.9322 36.4388 42.0678 36.5194 42.1567C36.5586 42.2 36.6588 42.2358 36.8591 42.3076L38.7508 42.9849C39.6289 43.2993 40.0681 43.4566 40.4553 43.6785C41.2322 44.1238 41.8764 44.768 42.3217 45.5449C42.5436 45.932 42.7008 46.3711 43.0153 47.2494L43.6926 49.1411C43.7642 49.3412 43.8002 49.4415 43.8435 49.4807C43.9324 49.5613 44.0679 49.5613 44.1568 49.4807C44.2001 49.4415 44.236 49.3414 44.3077 49.1411L44.985 47.2494C45.2994 46.3712 45.4567 45.932 45.6786 45.5449C46.1239 44.768 46.7681 44.1238 47.545 43.6785C47.9321 43.4566 48.3712 43.2993 49.2494 42.9849L51.1412 42.3076C51.3415 42.2358 51.4416 42.2 51.4809 42.1567C51.5614 42.0678 51.5614 41.9322 51.4809 41.8433C51.4416 41.8 51.3415 41.7642 51.1413 41.6925L49.2495 41.0151C48.3713 40.7007 47.9322 40.5435 47.545 40.3215C46.7681 39.8763 46.1239 39.232 45.6786 38.4552C45.4567 38.068 45.2995 37.6289 44.9851 36.7508L44.3077 34.859C44.236 34.6587 44.2001 34.5585 44.1568 34.5193C44.0679 34.4387 43.9324 34.4387 43.8435 34.5193C43.8002 34.5585 43.7643 34.6588 43.6926 34.859Z"
  />
  <path
    fill-rule="evenodd"
    clip-rule="evenodd"
    d="M41.5785 55.0292C39.8129 55.2502 37.606 55.2501 34.7975 55.25L21.3036 55.25C18.8652 55.25 16.8983 55.25 15.3056 55.1199C13.6657 54.9859 12.2253 54.7028 10.8926 54.0238C8.77579 52.9452 7.05475 51.2242 5.97618 49.1074C5.29716 47.7747 5.01408 46.3343 4.88009 44.6944C4.74996 43.1017 4.74998 41.1348 4.75 38.6963V21.3037C4.74998 18.8652 4.74996 16.8983 4.88009 15.3056C5.01408 13.6657 5.29716 12.2253 5.97618 10.8926C7.05475 8.77578 8.77578 7.05475 10.8926 5.97618C12.2253 5.29716 13.6657 5.01408 15.3056 4.88009C16.8983 4.74996 18.8652 4.74998 21.3037 4.75H34.6963C37.1348 4.74998 39.1017 4.74996 40.6944 4.88009C42.3343 5.01408 43.7747 5.29716 45.1074 5.97618C47.2242 7.05475 48.9452 8.77579 50.0238 10.8926C50.7028 12.2253 50.9859 13.6657 51.1199 15.3056C51.25 16.8983 51.25 18.865 51.25 21.3035V30.9077C54.8632 33.2741 57.25 37.3583 57.25 42C57.25 49.3178 51.3178 55.25 44 55.25C43.173 55.25 42.3636 55.1742 41.5785 55.0292ZM12.9356 9.98571C13.5281 9.68379 14.3104 9.4764 15.672 9.36515C17.0599 9.25175 18.8426 9.25 21.4 9.25H34.6C37.1574 9.25 38.9401 9.25175 40.328 9.36515C41.6896 9.4764 42.4719 9.68379 43.0644 9.98571C44.3345 10.6329 45.3671 11.6655 46.0143 12.9356C46.3162 13.5281 46.5236 14.3104 46.6349 15.672C46.7482 17.0599 46.75 18.8426 46.75 21.4V29.0358C45.9736 28.8719 45.1722 28.776 44.3522 28.7546C44.2351 28.7515 44.1177 28.75 44 28.75C36.6822 28.75 30.75 34.6822 30.75 42L30.75 42.0197C30.7542 44.9111 31.6841 47.5846 33.2591 49.7603C33.5071 50.1029 33.7711 50.4332 34.0499 50.75H21.4C18.8426 50.75 17.0599 50.7482 15.672 50.6349C14.3104 50.5236 13.5281 50.3162 12.9356 50.0143C11.6655 49.3671 10.6329 48.3345 9.98571 47.0644C9.68379 46.4719 9.4764 45.6896 9.36515 44.328C9.25175 42.9401 9.25 41.1574 9.25 38.6V21.4C9.25 18.8426 9.25175 17.0599 9.36515 15.672C9.4764 14.3104 9.68379 13.5281 9.98571 12.9356C10.6329 11.6655 11.6655 10.6329 12.9356 9.98571ZM36.9383 47.1678C38.5305 49.3398 41.1006 50.75 44 50.75C48.8325 50.75 52.75 46.8325 52.75 42C52.75 37.2793 49.0117 33.4317 44.3339 33.2562C44.2232 33.2521 44.1118 33.25 44 33.25C39.1675 33.25 35.25 37.1675 35.25 42C35.25 42.2618 35.2615 42.5208 35.284 42.7768C35.4278 44.4102 36.0206 45.9155 36.9383 47.1678Z"
  />
</svg>
