<svg
  width="60"
  height="60"
  viewBox="0 0 60 60"
  fill="currentColor"
  xmlns="http://www.w3.org/2000/svg"
>
  <path
    fill-rule="evenodd"
    clip-rule="evenodd"
    d="M7.75289 19.0359C13.2481 14.8336 21.0054 15.3485 25.8971 20.2402L30.0001 24.3431L34.1031 20.2402C38.9947 15.3485 46.752 14.8336 52.2473 19.0359C59.4715 24.5603 59.4715 35.4397 52.2473 40.9641C46.752 45.1664 38.9947 44.6515 34.1031 39.7599L30.0001 35.6569L25.8971 39.7599C21.0054 44.6515 13.2481 45.1664 7.75289 40.9641C0.528658 35.4397 0.528658 24.5603 7.75289 19.0359ZM24.3432 30L20.2402 25.897C18.1838 23.8406 14.9227 23.6241 12.6125 25.3907C9.57546 27.7132 9.57546 32.2868 12.6125 34.6093C14.9227 36.3759 18.1838 36.1594 20.2402 34.103L24.3432 30ZM35.6569 30L39.7599 34.103C41.8164 36.1594 45.0775 36.3759 47.3877 34.6093C50.4247 32.2868 50.4247 27.7132 47.3877 25.3907C45.0775 23.6241 41.8164 23.8406 39.7599 25.897L35.6569 30Z"
  />
</svg>
