<svg
  width="60"
  height="60"
  viewBox="0 0 60 60"
  fill="currentColor"
  xmlns="http://www.w3.org/2000/svg"
>
  <path
    fill-rule="evenodd"
    clip-rule="evenodd"
    d="M8.81593 20.426C13.6145 16.7565 20.3882 17.2061 24.6597 21.4776L30.0001 26.818L35.3405 21.4776C39.612 17.2061 46.3857 16.7565 51.1842 20.426C57.4925 25.25 57.4925 34.75 51.1842 39.574C46.3857 43.2435 39.612 42.7939 35.3405 38.5224L30.0001 33.182L24.6596 38.5224C20.3882 42.7939 13.6144 43.2435 8.81593 39.574C2.50765 34.75 2.50765 25.25 8.81593 20.426ZM26.8181 30L21.4777 24.6596C18.801 21.9829 14.5564 21.7012 11.5495 24.0006C7.59647 27.0235 7.59647 32.9765 11.5495 35.9994C14.5564 38.2988 18.801 38.0171 21.4777 35.3404L26.8181 30ZM33.1821 30L38.5225 35.3404C41.1991 38.0171 45.4438 38.2988 48.4507 35.9994C52.4037 32.9765 52.4037 27.0235 48.4507 24.0006C45.4438 21.7012 41.1991 21.9829 38.5225 24.6596L33.1821 30Z"
  />
</svg>
