<svg
  width="60"
  height="60"
  viewBox="0 0 60 60"
  fill="currentColor"
  xmlns="http://www.w3.org/2000/svg"
>
  <path
    fill-rule="evenodd"
    clip-rule="evenodd"
    d="M8.36034 19.8302C13.4575 15.9324 20.6527 16.41 25.19 20.9473L30.0001 25.7573L34.8102 20.9473C39.3474 16.41 46.5427 15.9324 51.6398 19.8302C58.3407 24.9544 58.3407 35.0456 51.6398 40.1698C46.5427 44.0676 39.3474 43.59 34.8102 39.0527L30.0001 34.2426L25.19 39.0527C20.6527 43.59 13.4575 44.0676 8.36034 40.1698C1.65951 35.0456 1.65951 24.9544 8.36034 19.8302ZM25.7574 30L20.9473 25.1899C18.5365 22.7791 14.7134 22.5253 12.005 24.5964C8.44461 27.319 8.44461 32.6809 12.005 35.4036C14.7134 37.4747 18.5365 37.2209 20.9473 34.8101L25.7574 30ZM34.2427 30L39.0528 34.8101C41.4637 37.2209 45.2868 37.4747 47.9951 35.4036C51.5556 32.6809 51.5556 27.319 47.9951 24.5964C45.2868 22.5253 41.4637 22.7791 39.0528 25.1899L34.2427 30Z"
  />
</svg>
