<svg
  width="60"
  height="60"
  viewBox="0 0 60 60"
  fill="currentColor"
  xmlns="http://www.w3.org/2000/svg"
>
  <path
    fill-rule="evenodd"
    clip-rule="evenodd"
    d="M30 7.25C17.4355 7.25 7.25 17.4355 7.25 30C7.25 42.5645 17.4355 52.75 30 52.75C42.5645 52.75 52.75 42.5645 52.75 30C52.75 17.4355 42.5645 7.25 30 7.25ZM2.75 30C2.75 14.9502 14.9502 2.75 30 2.75C45.0498 2.75 57.25 14.9502 57.25 30C57.25 45.0498 45.0498 57.25 30 57.25C14.9502 57.25 2.75 45.0498 2.75 30Z"
  />
  <path
    fill-rule="evenodd"
    clip-rule="evenodd"
    d="M30 21.5C31.3807 21.5 32.5 22.6193 32.5 24V44C32.5 45.3807 31.3807 46.5 30 46.5C28.6193 46.5 27.5 45.3807 27.5 44V24C27.5 22.6193 28.6193 21.5 30 21.5Z"
  />
  <path
    fill-rule="evenodd"
    clip-rule="evenodd"
    d="M27.5 16C27.5 14.6193 28.6193 13.5 30 13.5H30.1C31.4807 13.5 32.6 14.6193 32.6 16C32.6 17.3807 31.4807 18.5 30.1 18.5H30C28.6193 18.5 27.5 17.3807 27.5 16Z"
  />
</svg>
