<svg
  width="60"
  height="60"
  viewBox="0 0 60 60"
  fill="currentColor"
  xmlns="http://www.w3.org/2000/svg"
>
  <path
    d="M4.99978 21C4.99978 15.3995 4.99978 12.5992 6.08972 10.4601C7.04845 8.57847 8.57826 7.04867 10.4599 6.08993C12.599 5 15.3993 5 20.9998 5H38.9998C44.6003 5 47.4006 5 49.5397 6.08993C51.4213 7.04867 52.9511 8.57847 53.9098 10.4601C54.9998 12.5992 54.9998 15.3995 54.9998 21V39C54.9998 44.6005 54.9998 47.4008 53.9098 49.5399C52.9511 51.4215 51.4213 52.9513 49.5397 53.9101C47.4006 55 44.6003 55 38.9998 55H20.9998C15.3993 55 12.599 55 10.4599 53.9101C8.57826 52.9513 7.04845 51.4215 6.08972 49.5399C4.99978 47.4008 4.99978 44.6005 4.99978 39V21Z"
    fill="url(#paint0_linear_13577_178)"
  />
  <path
    d="M34.976 37.1268C31.6734 40.0621 27.8716 39.8384 24.9362 36.5358C22.0008 33.2333 22.2246 29.4315 25.5271 26.4961C28.8297 23.5607 37.5601 25.3153 37.5601 25.3153C37.5601 25.3153 38.2785 34.1914 34.976 37.1268Z"
    fill="white"
  />
  <path
    d="M20.414 35.0398C20.3157 34.746 19.9394 34.6383 19.7168 34.8537L1.84992 52.1499C0.69516 53.2678 0.626508 55.0971 1.69424 56.2984L2.71418 57.4459C3.78191 58.6472 5.60666 58.7936 6.85228 57.7779L26.2109 41.9933C26.4563 41.7932 26.3843 41.396 26.0937 41.2702C24.8529 40.7329 23.6602 39.8453 22.5625 38.6104C21.535 37.4544 20.8195 36.2513 20.414 35.0398Z"
    fill="#AECBFF"
  />
  <path
    fill-rule="evenodd"
    clip-rule="evenodd"
    d="M22.6758 12.3658C26.3071 10.7991 30.3251 10.3587 34.2096 11.1015C38.094 11.8444 41.666 13.7364 44.4629 16.5324C47.2599 19.3285 49.153 22.8999 49.8971 26.7841C50.6412 30.6683 50.202 34.6865 48.6364 38.3182C47.0709 41.95 44.451 45.0281 41.1161 47.154C37.7812 49.2799 33.8849 50.3556 29.9317 50.2418C28.6895 50.2061 27.7116 49.1702 27.7473 47.928C27.7831 46.6859 28.819 45.7079 30.0611 45.7437C33.1136 45.8315 36.1222 45.0009 38.6972 43.3594C41.2722 41.7179 43.2952 39.3412 44.504 36.5369C45.7129 33.7326 46.052 30.63 45.4774 27.6307C44.9029 24.6315 43.4411 21.8739 41.2815 19.7149C39.1218 17.5559 36.3637 16.0951 33.3643 15.5214C30.3649 14.9478 27.2624 15.2879 24.4585 16.4977C21.6546 17.7074 19.2784 19.7311 17.6378 22.3067C15.9971 24.8822 15.1674 27.891 15.2562 30.9435C15.2924 32.1856 14.3147 33.2218 13.0726 33.258C11.8305 33.2941 10.7943 32.3165 10.7581 31.0743C10.6431 27.1212 11.7176 23.2245 13.8424 19.8889C15.9672 16.5534 19.0445 13.9326 22.6758 12.3658Z"
    fill="white"
  />
  <defs>
    <linearGradient
      id="paint0_linear_13577_178"
      x1="8.82075"
      y1="5"
      x2="48.2738"
      y2="53.8818"
      gradientUnits="userSpaceOnUse"
    >
      <stop stop-color="#1C7BEB" />
      <stop offset="1" stop-color="#4FA0FF" />
    </linearGradient>
  </defs>
</svg>
