<svg
  width="60"
  height="60"
  viewBox="0 0 60 60"
  fill="currentColor"
  xmlns="http://www.w3.org/2000/svg"
>
  <path
    fill-rule="evenodd"
    clip-rule="evenodd"
    d="M31.5 7.25C20.3162 7.25 11.25 16.3162 11.25 27.5C11.25 29.0498 11.4237 30.5563 11.7518 32.0021C12.0267 33.2139 11.2673 34.4192 10.0554 34.6942C8.8436 34.9692 7.6383 34.2097 7.36332 32.9979C6.96162 31.2276 6.75 29.3871 6.75 27.5C6.75 13.831 17.831 2.75 31.5 2.75C45.169 2.75 56.25 13.831 56.25 27.5C56.25 41.169 45.169 52.25 31.5 52.25C30.9466 52.25 30.3972 52.2318 29.8522 52.1959C28.6123 52.1143 27.6732 51.043 27.7549 49.803C27.8365 48.5631 28.9078 47.624 30.1478 47.7057C30.5944 47.7351 31.0453 47.75 31.5 47.75C42.6838 47.75 51.75 38.6838 51.75 27.5C51.75 16.3162 42.6838 7.25 31.5 7.25Z"
  />
  <path
    fill-rule="evenodd"
    clip-rule="evenodd"
    d="M29.268 23.0946C27.8026 23.4687 26.7627 23.9956 26.1495 24.6089C24.4374 26.321 23.7523 28.0366 23.7523 29.5764C23.7523 31.1162 24.4374 32.8318 26.1495 34.5439C27.8616 36.256 29.5772 36.9411 31.117 36.9411C32.6567 36.9411 34.3723 36.256 36.0845 34.5439C36.6977 33.9306 37.2246 32.8908 37.5988 31.4254C37.9652 29.9902 38.1345 28.3483 38.1843 26.7485C38.2336 25.1692 38.1647 23.697 38.0818 22.6116C36.9963 22.5287 35.5242 22.4598 33.9449 22.509C32.3451 22.5589 30.7031 22.7282 29.268 23.0946ZM42.1271 18.5662L42.3631 20.2465L42.3638 20.2511L42.1271 18.5662L42.3695 20.2928C42.373 20.3196 42.378 20.3571 42.3841 20.4048C42.3962 20.5003 42.4129 20.6368 42.4323 20.8095C42.471 21.1548 42.5209 21.6464 42.567 22.2468C42.659 23.4434 42.7381 25.0929 42.6822 26.8887C42.6265 28.6736 42.4357 30.6711 41.9589 32.5385C41.4899 34.3758 40.6906 36.3017 39.2664 37.7259C36.9036 40.0887 34.0982 41.4411 31.117 41.4411C30.4866 41.4411 29.8641 41.3806 29.2519 41.2629L14.783 54.2331C12.0165 56.9372 7.57509 56.9222 4.82709 54.1881C2.05763 51.4327 2.05764 46.9604 4.82709 44.205L4.8686 44.1637L19.3798 31.1556C19.2954 30.6358 19.2523 30.1089 19.2523 29.5764C19.2523 26.5952 20.6047 23.7897 22.9675 21.4269C24.3917 20.0027 26.3176 19.2035 28.1548 18.7344C30.0223 18.2577 32.0198 18.0668 33.8047 18.0112C35.6004 17.9552 37.25 18.0344 38.4465 18.1264C39.047 18.1725 39.5386 18.2223 39.8838 18.2611C40.0566 18.2805 40.193 18.2972 40.2885 18.3093C40.3363 18.3154 40.3738 18.3203 40.4005 18.3239L42.1271 18.5662L40.4423 18.3296L40.4468 18.3302L42.1271 18.5662ZM20.2393 36.4284L7.96621 47.4303C6.9998 48.4289 7.0114 50.0135 8.001 50.9981C9.00864 52.0006 10.6471 52.0006 11.6547 50.9981L11.6962 50.9568L23.8717 40.0425L20.2393 36.4284Z"
  />
</svg>
