<svg
  width="60"
  height="60"
  viewBox="0 0 60 60"
  fill="currentColor"
  xmlns="http://www.w3.org/2000/svg"
>
  <path
    d="M9 8.75C7.75736 8.75 6.75 9.75736 6.75 11C6.75 12.2426 7.75736 13.25 9 13.25H51C52.2426 13.25 53.25 12.2426 53.25 11C53.25 9.75736 52.2426 8.75 51 8.75H9Z"
  />
  <path
    d="M39.091 51.909L37.432 50.25H45C49.5564 50.25 53.25 46.5564 53.25 42V30C53.25 28.7574 52.2426 27.75 51 27.75C49.7574 27.75 48.75 28.7574 48.75 30V42C48.75 44.0711 47.0711 45.75 45 45.75H37.432L39.091 44.091C39.9697 43.2123 39.9697 41.7877 39.091 40.909C38.2123 40.0303 36.7877 40.0303 35.909 40.909L30.409 46.409C29.9871 46.831 29.75 47.4033 29.75 48C29.75 48.5967 29.9871 49.169 30.409 49.591L35.909 55.091C36.7877 55.9697 38.2123 55.9697 39.091 55.091C39.9697 54.2123 39.9697 52.7877 39.091 51.909Z"
  />
  <path
    d="M6.75 30C6.75 28.7574 7.75736 27.75 9 27.75L40 27.75C41.2426 27.75 42.25 28.7574 42.25 30C42.25 31.2426 41.2426 32.25 40 32.25L9 32.25C7.75736 32.25 6.75 31.2426 6.75 30Z"
  />
  <path
    d="M9 46.75C7.75736 46.75 6.75 47.7574 6.75 49C6.75 50.2426 7.75736 51.25 9 51.25H23C24.2426 51.25 25.25 50.2426 25.25 49C25.25 47.7574 24.2426 46.75 23 46.75H9Z"
  />
</svg>
