<svg
  width="60"
  height="60"
  viewBox="0 0 60 60"
  fill="currentColor"
  xmlns="http://www.w3.org/2000/svg"
>
  <path
    fill-rule="evenodd"
    clip-rule="evenodd"
    d="M18 8.75C16.7574 8.75 15.75 9.75736 15.75 11C15.75 12.2426 16.7574 13.25 18 13.25L51 13.25C52.2426 13.25 53.25 12.2426 53.25 11C53.25 9.75736 52.2426 8.75 51 8.75L18 8.75ZM27 27.75C25.7574 27.75 24.75 28.7574 24.75 30C24.75 31.2426 25.7574 32.25 27 32.25L51 32.25C52.2426 32.25 53.25 31.2426 53.25 30C53.25 28.7574 52.2426 27.75 51 27.75L27 27.75ZM15.75 49C15.75 47.7574 16.7574 46.75 18 46.75L51 46.75C52.2426 46.75 53.25 47.7574 53.25 49C53.25 50.2426 52.2426 51.25 51 51.25L18 51.25C16.7574 51.25 15.75 50.2426 15.75 49ZM16 26.847L16 26.847L12.1429 24.4823C10.4552 23.4476 9.61131 22.9303 8.91887 23.0076C8.31489 23.075 7.76621 23.4113 7.40925 23.9331C7 24.5312 7 25.5659 7 27.6353V32.3647C7 34.4341 7 35.4688 7.40925 36.0669C7.76621 36.5887 8.31489 36.925 8.91887 36.9924C9.61131 37.0697 10.4552 36.5524 12.1429 35.5177L16 33.153C17.6877 32.1183 18.5315 31.6009 18.8147 30.9255C19.0618 30.3364 19.0618 29.6636 18.8147 29.0745C18.5315 28.3991 17.6877 27.8817 16 26.847Z"
  />
</svg>
