<svg
  width="60"
  height="60"
  viewBox="0 0 60 60"
  fill="currentColor"
  xmlns="http://www.w3.org/2000/svg"
>
  <path
    d="M30.0626 2.5H29.9374C14.7841 2.5 2.5 14.7841 2.5 29.9374V30.0626C2.5 45.2159 14.7841 57.5 29.9374 57.5H30.0626C45.2159 57.5 57.5 45.2159 57.5 30.0626V29.9374C57.5 14.7841 45.2159 2.5 30.0626 2.5Z"
    fill="url(#paint0_radial_11016_162)"
  />
  <path
    d="M30.0626 2.5H29.9374C14.7841 2.5 2.5 14.7841 2.5 29.9374V30.0626C2.5 45.2159 14.7841 57.5 29.9374 57.5H30.0626C45.2159 57.5 57.5 45.2159 57.5 30.0626V29.9374C57.5 14.7841 45.2159 2.5 30.0626 2.5Z"
    fill="url(#paint1_radial_11016_162)"
  />
  <path
    d="M38.0451 13.5H21.0266C16.3249 13.5 12.5 17.3249 12.5 22.0266V37.5961C12.5 42.2978 16.3249 46.1227 21.0266 46.1227H38.0451C42.7468 46.1227 46.5718 42.2978 46.5718 37.5961V22.0266C46.5718 17.3249 42.7468 13.5 38.0451 13.5ZM15.5079 22.0266C15.5079 18.984 17.984 16.5079 21.0266 16.5079H38.0451C41.0877 16.5079 43.5638 18.984 43.5638 22.0266V37.5961C43.5638 40.6387 41.0877 43.1148 38.0451 43.1148H21.0266C17.984 43.1148 15.5079 40.6387 15.5079 37.5961V22.0266Z"
    fill="white"
  />
  <path
    d="M29.5359 37.7406C33.9081 37.7406 37.4671 34.1835 37.4671 29.8094C37.4671 25.4353 33.91 21.8782 29.5359 21.8782C25.1618 21.8782 21.6047 25.4353 21.6047 29.8094C21.6047 34.1835 25.1618 37.7406 29.5359 37.7406ZM29.5359 24.8881C32.251 24.8881 34.4592 27.0963 34.4592 29.8114C34.4592 32.5264 32.251 34.7346 29.5359 34.7346C26.8209 34.7346 24.6127 32.5264 24.6127 29.8114C24.6127 27.0963 26.8209 24.8881 29.5359 24.8881Z"
    fill="white"
  />
  <path
    d="M38.2014 23.1596C39.3787 23.1596 40.3384 22.202 40.3384 21.0227C40.3384 19.8434 39.3807 18.8857 38.2014 18.8857C37.0221 18.8857 36.0645 19.8434 36.0645 21.0227C36.0645 22.202 37.0221 23.1596 38.2014 23.1596Z"
    fill="white"
  />
  <defs>
    <radialGradient
      id="paint0_radial_11016_162"
      cx="0"
      cy="0"
      r="1"
      gradientUnits="userSpaceOnUse"
      gradientTransform="translate(17.1094 61.7362) rotate(-90) scale(54.5091 50.6977)"
    >
      <stop stop-color="#FFDD55" />
      <stop offset="0.1" stop-color="#FFDD55" />
      <stop offset="0.5" stop-color="#FF543E" />
      <stop offset="1" stop-color="#C837AB" />
    </radialGradient>
    <radialGradient
      id="paint1_radial_11016_162"
      cx="0"
      cy="0"
      r="1"
      gradientUnits="userSpaceOnUse"
      gradientTransform="translate(-6.71279 6.46211) rotate(78.6806) scale(24.3658 100.437)"
    >
      <stop stop-color="#3771C8" />
      <stop offset="0.128" stop-color="#3771C8" />
      <stop offset="1" stop-color="#6600FF" stop-opacity="0" />
    </radialGradient>
  </defs>
</svg>
