<svg
  width="60"
  height="60"
  viewBox="0 0 60 60"
  fill="currentColor"
  xmlns="http://www.w3.org/2000/svg"
>
  <path
    fill-rule="evenodd"
    clip-rule="evenodd"
    d="M2.75 30C2.75 45.0498 14.9502 57.25 30 57.25C45.0498 57.25 57.25 45.0498 57.25 30C57.25 14.9502 45.0498 2.75 30 2.75C14.9502 2.75 2.75 14.9502 2.75 30ZM7.68723 25.5389C9.1906 17.9775 14.4416 11.7662 21.4227 8.92239C20.9685 9.70365 20.5484 10.5389 20.1624 11.4162C18.019 16.2875 16.75 22.8597 16.75 30C16.75 30.332 16.7527 30.6628 16.7582 30.9923C16.0384 30.7806 15.3491 30.5525 14.6934 30.3097C10.8392 28.8826 8.5682 27.1113 7.68723 25.5389ZM7.30039 31.5263C7.88786 40.3946 13.5571 47.8736 21.4227 51.0776C20.9685 50.2964 20.5484 49.4611 20.1624 48.5838C18.6075 45.0501 17.5128 40.6212 17.0288 35.7298C15.6531 35.3826 14.349 34.9808 13.1308 34.5297C10.9722 33.7304 8.96466 32.7307 7.30039 31.5263ZM21.6604 36.6486C22.1586 40.5803 23.083 44.0481 24.2813 46.7715C25.2016 48.8631 26.2393 50.4152 27.2776 51.4133C28.3048 52.4007 29.2212 52.75 30 52.75C30.7788 52.75 31.6952 52.4007 32.7224 51.4133C33.7607 50.4152 34.7984 48.8631 35.7187 46.7715C36.917 44.0481 37.8414 40.5803 38.3396 36.6486C35.7062 37.0402 32.9014 37.2496 29.9999 37.2496C27.0986 37.2496 24.2938 37.0402 21.6604 36.6486ZM42.9712 35.7297C42.4872 40.6212 41.3925 45.0501 39.8376 48.5838C39.4516 49.4611 39.0315 50.2963 38.5773 51.0776C46.4429 47.8735 52.1122 40.3946 52.6996 31.5263C51.0353 32.7306 49.0278 33.7304 46.8691 34.5297C45.6509 34.9808 44.3468 35.3825 42.9712 35.7297ZM52.3127 25.5387C51.4318 27.1112 49.1608 28.8825 45.3065 30.3097C44.6509 30.5525 43.9616 30.7805 43.2418 30.9923C43.2473 30.6628 43.25 30.332 43.25 30C43.25 22.8597 41.981 16.2875 39.8376 11.4162C39.4516 10.5389 39.0315 9.70365 38.5773 8.92239C45.5584 11.7661 50.8093 17.9774 52.3127 25.5387ZM38.7128 32.0317C36.0328 32.4924 33.0942 32.7496 29.9999 32.7496C26.9057 32.7496 23.9672 32.4924 21.2872 32.0317C21.2626 31.363 21.25 30.6854 21.25 30C21.25 23.3332 22.4434 17.4054 24.2813 13.2285C25.2016 11.1369 26.2393 9.58481 27.2776 8.58671C28.3048 7.59929 29.2212 7.25 30 7.25C30.7788 7.25 31.6952 7.59929 32.7224 8.58671C33.7607 9.58481 34.7984 11.1369 35.7187 13.2285C37.5565 17.4054 38.75 23.3332 38.75 30C38.75 30.6854 38.7374 31.363 38.7128 32.0317Z"
  />
</svg>
