<svg
  width="60"
  height="60"
  viewBox="0 0 60 60"
  fill="currentColor"
  xmlns="http://www.w3.org/2000/svg"
>
  <path
    d="M23.9771 56.25H12C10.7574 56.25 9.75 55.2426 9.75 54C9.75 52.7573 10.7574 51.75 12 51.75H22.2432L33.1182 8.24995H24C22.7574 8.24995 21.75 7.24259 21.75 5.99995C21.75 4.75731 22.7574 3.74995 24 3.74995H35.9338C35.9767 3.74872 36.0197 3.74871 36.0628 3.74995H48C49.2426 3.74995 50.25 4.75731 50.25 5.99995C50.25 7.24259 49.2426 8.24995 48 8.24995H37.7567L26.8817 51.75H36C37.2426 51.75 38.25 52.7573 38.25 54C38.25 55.2426 37.2426 56.25 36 56.25H24.0263C24.0099 56.2501 23.9935 56.2501 23.9771 56.25Z"
  />
</svg>
