<svg
  width="40"
  height="40"
  viewBox="0 0 40 40"
  fill="currentColor"
  xmlns="http://www.w3.org/2000/svg"
>
  <g id="ic_attention red">
    <path
      id="Vector"
      d="M20 40C25.5228 40 30.5228 37.7614 34.1421 34.1421C37.7614 30.5228 40 25.5228 40 20C40 14.4772 37.7614 9.4772 34.1421 5.85786C30.5228 2.23858 25.5228 0 20 0C14.4772 0 9.4772 2.23858 5.85786 5.85786C2.23858 9.4772 0 14.4772 0 20C0 25.5228 2.23858 30.5228 5.85786 34.1421C9.4772 37.7614 14.4772 40 20 40Z"
      fill="#FFECEB"
    />
    <path
      id="Vector_2"
      fill-rule="evenodd"
      clip-rule="evenodd"
      d="M20 31.4004C21.3807 31.4004 22.5 30.2811 22.5 28.9004C22.5 27.5197 21.3807 26.4004 20 26.4004C18.6193 26.4004 17.5 27.5197 17.5 28.9004C17.5 30.2811 18.6193 31.4004 20 31.4004Z"
      fill="#E65A5A"
    />
    <path
      id="Vector_3"
      d="M20 8.80078V22.4008"
      stroke="#E65A5A"
      stroke-width="3"
      stroke-linecap="round"
      stroke-linejoin="round"
    />
  </g>
</svg>
