<svg
  width="60"
  height="60"
  viewBox="0 0 60 60"
  fill="currentColor"
  xmlns="http://www.w3.org/2000/svg"
>
  <path
    d="M38.6 3H21.4C16.3595 3 13.8393 3 11.9141 3.98094C10.2206 4.8438 8.8438 6.22063 7.98094 7.91408C7 9.83929 7 12.3595 7 17.4V42.6C7 47.6405 7 50.1607 7.98094 52.0859C8.8438 53.7794 10.2206 55.1562 11.9141 56.0191C13.8393 57 16.3595 57 21.4 57H38.6C43.6405 57 46.1607 57 48.0859 56.0191C49.7794 55.1562 51.1562 53.7794 52.0191 52.0859C53 50.1607 53 47.6405 53 42.6V17.4C53 12.3595 53 9.83929 52.0191 7.91408C51.1562 6.22063 49.7794 4.8438 48.0859 3.98094C46.1607 3 43.6405 3 38.6 3Z"
    fill="url(#paint0_linear_22990_5362)"
  />
  <path
    fill-rule="evenodd"
    clip-rule="evenodd"
    d="M14 13C14 11.3431 15.3431 10 17 10H27C28.6569 10 30 11.3431 30 13C30 14.6569 28.6569 16 27 16H17C15.3431 16 14 14.6569 14 13Z"
    fill="white"
  />
  <path
    fill-rule="evenodd"
    clip-rule="evenodd"
    d="M14 24C14 22.3431 15.3431 21 17 21H43C44.6569 21 46 22.3431 46 24C46 25.6569 44.6569 27 43 27H17C15.3431 27 14 25.6569 14 24Z"
    fill="white"
  />
  <path
    fill-rule="evenodd"
    clip-rule="evenodd"
    d="M14 35C14 33.3431 15.3431 32 17 32H43C44.6569 32 46 33.3431 46 35C46 36.6569 44.6569 38 43 38H17C15.3431 38 14 36.6569 14 35Z"
    fill="white"
  />
  <path
    d="M45.9137 41.2564C46.146 40.7585 46.854 40.7585 47.0863 41.2564L48.5279 44.3451C49.1706 45.7224 50.2776 46.8294 51.6549 47.4721L54.7436 48.9137C55.2415 49.146 55.2415 49.854 54.7436 50.0863L51.6549 51.5279C50.2776 52.1706 49.1706 53.2776 48.5279 54.6549L47.0863 57.7436C46.854 58.2415 46.146 58.2415 45.9137 57.7436L44.4721 54.6549C43.8294 53.2776 42.7224 52.1706 41.3451 51.5279L38.2564 50.0863C37.7585 49.854 37.7585 49.146 38.2564 48.9137L41.3451 47.4721C42.7224 46.8294 43.8294 45.7224 44.4721 44.3451L45.9137 41.2564Z"
    fill="#A9EED2"
  />
  <defs>
    <linearGradient
      id="paint0_linear_22990_5362"
      x1="11.1841"
      y1="5.04137"
      x2="49.1544"
      y2="59.0006"
      gradientUnits="userSpaceOnUse"
    >
      <stop stop-color="#24B184" />
      <stop offset="1" stop-color="#76C4A3" />
    </linearGradient>
  </defs>
</svg>
