<svg
  width="60"
  height="60"
  viewBox="0 0 60 60"
  fill="currentColor"
  xmlns="http://www.w3.org/2000/svg"
>
  <path
    d="M23.3037 2.75H36.6963C39.1348 2.74998 41.1017 2.74996 42.6944 2.88009C44.3343 3.01408 45.7747 3.29716 47.1074 3.97618C49.2242 5.05475 50.9452 6.77578 52.0238 8.89261C52.7028 10.2253 52.9859 11.6657 53.1199 13.3056C53.25 14.8983 53.25 16.8652 53.25 19.3037V43C53.25 44.2426 52.2426 45.25 51 45.25C49.7574 45.25 48.75 44.2426 48.75 43V19.4C48.75 16.8426 48.7482 15.0599 48.6349 13.672C48.5236 12.3104 48.3162 11.5281 48.0143 10.9356C47.3671 9.66547 46.3345 8.63285 45.0644 7.98571C44.4719 7.68379 43.6896 7.4764 42.328 7.36515C40.9401 7.25175 39.1574 7.25 36.6 7.25H23.4C20.8426 7.25 19.0599 7.25175 17.672 7.36515C16.3104 7.4764 15.5281 7.68379 14.9356 7.98571C13.6655 8.63285 12.6329 9.66547 11.9857 10.9356C11.6838 11.5281 11.4764 12.3104 11.3651 13.672C11.2518 15.0599 11.25 16.8426 11.25 19.4V40.6C11.25 43.1574 11.2518 44.9401 11.3651 46.328C11.4764 47.6896 11.6838 48.4719 11.9857 49.0644C12.6329 50.3345 13.6655 51.3671 14.9356 52.0143C15.5281 52.3162 16.3104 52.5236 17.672 52.6349C19.0599 52.7482 20.8426 52.75 23.4 52.75H38.4C39.6426 52.75 40.65 53.7574 40.65 55C40.65 56.2426 39.6426 57.25 38.4 57.25H23.3036C20.8652 57.25 18.8983 57.25 17.3056 57.1199C15.6657 56.9859 14.2253 56.7028 12.8926 56.0238C10.7758 54.9452 9.05475 53.2242 7.97618 51.1074C7.29716 49.7747 7.01408 48.3343 6.88009 46.6944C6.74996 45.1017 6.74998 43.1348 6.75 40.6963V19.3037C6.74998 16.8652 6.74996 14.8983 6.88009 13.3056C7.01408 11.6657 7.29716 10.2253 7.97618 8.89261C9.05475 6.77578 10.7758 5.05475 12.8926 3.97618C14.2253 3.29716 15.6657 3.01408 17.3056 2.88009C18.8983 2.74996 20.8652 2.74998 23.3037 2.75Z"
  />
  <path
    d="M15.75 15C15.75 13.7574 16.7574 12.75 18 12.75H30C31.2426 12.75 32.25 13.7574 32.25 15C32.25 16.2426 31.2426 17.25 30 17.25H18C16.7574 17.25 15.75 16.2426 15.75 15Z"
  />
  <path
    d="M18 22.75C16.7574 22.75 15.75 23.7574 15.75 25C15.75 26.2426 16.7574 27.25 18 27.25H42C43.2426 27.25 44.25 26.2426 44.25 25C44.25 23.7574 43.2426 22.75 42 22.75H18Z"
  />
  <path
    d="M15.75 35C15.75 33.7574 16.7574 32.75 18 32.75H42C43.2426 32.75 44.25 33.7574 44.25 35C44.25 36.2426 43.2426 37.25 42 37.25H18C16.7574 37.25 15.75 36.2426 15.75 35Z"
  />
  <path
    d="M45.5862 43.2563C45.3538 42.7585 44.6459 42.7585 44.4135 43.2563L43.4493 45.3224C42.8065 46.6996 41.6995 47.8066 40.3223 48.4494L38.2562 49.4136C37.7583 49.646 37.7583 50.354 38.2562 50.5863L40.3223 51.5506C41.6995 52.1933 42.8065 53.3003 43.4493 54.6775L44.4135 56.7436C44.6459 57.2415 45.3538 57.2415 45.5862 56.7436L46.5504 54.6775C47.1932 53.3003 48.3002 52.1933 49.6774 51.5506L51.7435 50.5863C52.2414 50.354 52.2414 49.646 51.7435 49.4136L49.6774 48.4494C48.3002 47.8066 47.1932 46.6996 46.5504 45.3224L45.5862 43.2563Z"
  />
</svg>
