<svg
  xmlns="http://www.w3.org/2000/svg"
  width="60"
  height="60"
  viewBox="0 0 60 60"
  fill="currentColor"
>
  <g clip-path="url(#clip0_23014_5387)">
    <path
      d="M41.175 57.8398C46.6536 55.6399 51.3615 51.8723 54.7087 47.009C58.056 42.1457 59.8939 36.4029 59.9922 30.4998L51.0021 30.3501C50.9332 34.484 49.6462 38.5056 47.3022 41.9114C44.9581 45.317 41.6613 47.9555 37.8246 49.496L41.175 57.8398Z"
      fill="url(#paint0_linear_23014_5387)"
    />
    <path
      d="M30.0002 -0.00195312C25.5779 -0.00195312 21.2103 0.975746 17.2101 2.8611C13.2098 4.74652 9.67586 7.49295 6.86119 10.9039C4.04651 14.3148 2.02076 18.3058 0.928913 22.5912C-0.162937 26.8766 -0.293812 31.3504 0.545513 35.6923C1.38491 40.0342 3.17389 44.1368 5.78426 47.7065C8.39464 51.2761 11.762 54.2246 15.6451 56.3406C19.5282 58.4567 23.8312 59.6881 28.2459 59.9467C32.6607 60.2053 37.078 59.4847 41.1816 57.8364L37.8304 49.4929C34.9567 50.6472 31.8633 51.1518 28.7717 50.9707C25.6801 50.7896 22.6668 49.9273 19.9475 48.4454C17.2281 46.9636 14.8701 44.8988 13.0421 42.3991C11.214 39.8992 9.96124 37.0262 9.37346 33.9856C8.78561 30.9451 8.87734 27.8122 9.64189 24.8111C10.4065 21.8101 11.8251 19.0153 13.7962 16.6267C15.7673 14.238 18.2421 12.3147 21.0434 10.9944C23.8447 9.6741 26.9033 8.98943 30.0002 8.98943V-0.00195312Z"
      fill="url(#paint1_linear_23014_5387)"
    />
    <path
      d="M30.002 0.00161743C24.0685 0.00161743 18.2683 1.76112 13.3349 5.05752C8.40136 8.354 4.55618 13.0393 2.28556 18.5211C0.0149307 24.0029 -0.579144 30.0349 0.578407 35.8543C1.73596 41.6737 4.59315 47.0193 8.78873 51.2148L15.1466 44.8569C12.2085 41.9189 10.2076 38.1755 9.39698 34.1002C8.58638 30.0249 9.0024 25.8008 10.5925 21.9619C12.1826 18.1231 14.8753 14.842 18.3302 12.5336C21.785 10.2251 25.8468 8.993 30.002 8.993V0.00161743Z"
      fill="url(#paint2_linear_23014_5387)"
    />
    <path
      d="M30.002 0.00119019C24.2635 0.00119019 18.6454 1.64699 13.814 4.74351C8.9826 7.83996 5.14073 12.2572 2.74395 17.4712L10.9135 21.2266C12.5919 17.5753 15.2824 14.482 18.6657 12.3136C22.049 10.1451 25.9834 8.99257 30.002 8.99257V0.00119019Z"
      fill="url(#paint3_linear_23014_5387)"
    />
    <path
      d="M29.998 0.00390625C27.5128 0.00390625 25.498 2.01863 25.498 4.50391C25.498 6.98918 27.5128 9.00391 29.998 9.00391C32.4833 9.00391 34.498 6.98918 34.498 4.50391C34.498 2.01863 32.4833 0.00390625 29.998 0.00390625Z"
      fill="#6128FF"
    />
  </g>
  <defs>
    <linearGradient
      id="paint0_linear_23014_5387"
      x1="37.8687"
      y1="48.7503"
      x2="58.4929"
      y2="38.2514"
      gradientUnits="userSpaceOnUse"
    >
      <stop stop-color="#D5CBFF" stop-opacity="0.5" />
      <stop offset="1" stop-color="white" stop-opacity="0" />
    </linearGradient>
    <linearGradient
      id="paint1_linear_23014_5387"
      x1="13.8742"
      y1="47.998"
      x2="38.2476"
      y2="52.1225"
      gradientUnits="userSpaceOnUse"
    >
      <stop stop-color="#D5CBFF" />
      <stop offset="1" stop-color="#D5CBFF" stop-opacity="0.5" />
    </linearGradient>
    <linearGradient
      id="paint2_linear_23014_5387"
      x1="11.2511"
      y1="22.5016"
      x2="13.5013"
      y2="46.5016"
      gradientUnits="userSpaceOnUse"
    >
      <stop stop-color="#927DFF" />
      <stop offset="1" stop-color="#D5CBFF" />
    </linearGradient>
    <linearGradient
      id="paint3_linear_23014_5387"
      x1="27.0001"
      y1="5.25119"
      x2="10.5001"
      y2="21.3751"
      gradientUnits="userSpaceOnUse"
    >
      <stop stop-color="#6128FF" />
      <stop offset="1" stop-color="#927DFF" />
    </linearGradient>
    <clipPath id="clip0_23014_5387">
      <rect
        width="60"
        height="60"
        fill="white"
        transform="matrix(0 -1 -1 0 60 60)"
      />
    </clipPath>
  </defs>
</svg>
