<svg xmlns="http://www.w3.org/2000/svg" width="49" height="56" viewBox="0 0 49 56" fill="none">
  <path d="M31.6 0H14.4C9.35953 0 6.83929 0 4.91409 0.980941C3.22063 1.8438 1.8438 3.22063 0.980941 4.91408C0 6.83929 0 9.35953 0 14.4V39.6C0 44.6405 0 47.1607 0.980941 49.0859C1.8438 50.7794 3.22063 52.1562 4.91409 53.0191C6.83929 54 9.35953 54 14.4 54H31.6C36.6405 54 39.1607 54 41.0859 53.0191C42.7794 52.1562 44.1562 50.7794 45.0191 49.0859C46 47.1607 46 44.6405 46 39.6V14.4C46 9.35953 46 6.83929 45.0191 4.91408C44.1562 3.22063 42.7794 1.8438 41.0859 0.980941C39.1607 0 36.6405 0 31.6 0Z" fill="url(#paint0_linear_22990_7830)"/>
  <path fill-rule="evenodd" clip-rule="evenodd" d="M7 10C7 8.34315 8.34315 7 10 7H20C21.6569 7 23 8.34315 23 10C23 11.6569 21.6569 13 20 13H10C8.34315 13 7 11.6569 7 10Z" fill="white"/>
  <path fill-rule="evenodd" clip-rule="evenodd" d="M7 21C7 19.3431 8.34315 18 10 18H36C37.6569 18 39 19.3431 39 21C39 22.6569 37.6569 24 36 24H10C8.34315 24 7 22.6569 7 21Z" fill="white"/>
  <path fill-rule="evenodd" clip-rule="evenodd" d="M7 32C7 30.3431 8.34315 29 10 29H36C37.6569 29 39 30.3431 39 32C39 33.6569 37.6569 35 36 35H10C8.34315 35 7 33.6569 7 32Z" fill="white"/>
  <path d="M38.9137 38.2564C39.146 37.7585 39.854 37.7585 40.0863 38.2564L41.5279 41.3451C42.1706 42.7224 43.2776 43.8294 44.6549 44.4721L47.7436 45.9137C48.2415 46.146 48.2415 46.854 47.7436 47.0863L44.6549 48.5279C43.2776 49.1706 42.1706 50.2776 41.5279 51.6549L40.0863 54.7436C39.854 55.2415 39.146 55.2415 38.9137 54.7436L37.4721 51.6549C36.8294 50.2776 35.7224 49.1706 34.3451 48.5279L31.2564 47.0863C30.7585 46.854 30.7585 46.146 31.2564 45.9137L34.3451 44.4721C35.7224 43.8294 36.8294 42.7224 37.4721 41.3451L38.9137 38.2564Z" fill="#A9EED2"/>
  <defs>
    <linearGradient id="paint0_linear_22990_7830" x1="4.18409" y1="2.04137" x2="42.1544" y2="56.0006" gradientUnits="userSpaceOnUse">
      <stop stop-color="#24B184"/>
      <stop offset="1" stop-color="#76C4A3"/>
    </linearGradient>
  </defs>
</svg>
