<svg
  width="60"
  height="60"
  viewBox="0 0 60 60"
  fill="currentColor"
  xmlns="http://www.w3.org/2000/svg"
>
  <path
    d="M32 4.75C30.7574 4.75 29.75 5.75736 29.75 7C29.75 8.24264 30.7574 9.25 32 9.25H47.2145L26.2322 30.2322C25.2559 31.2085 25.2559 32.7915 26.2322 33.7678C27.2085 34.7441 28.7915 34.7441 29.7678 33.7678L50.75 12.7855V28C50.75 29.2426 51.7574 30.25 53 30.25C54.2426 30.25 55.25 29.2426 55.25 28V9C55.25 6.65279 53.3472 4.75 51 4.75H32Z"
  />
  <path
    fill-rule="evenodd"
    clip-rule="evenodd"
    d="M15.672 9.36515C17.0599 9.25175 18.8426 9.25 21.4 9.25H23C24.2426 9.25 25.25 8.24264 25.25 7C25.25 5.75736 24.2426 4.75 23 4.75L21.3037 4.75C18.8652 4.74998 16.8983 4.74996 15.3056 4.88009C13.6657 5.01408 12.2253 5.29716 10.8926 5.97618C8.77578 7.05475 7.05475 8.77578 5.97618 10.8926C5.29715 12.2253 5.01408 13.6657 4.88009 15.3056C4.74996 16.8983 4.74998 18.8651 4.75 21.3036V38.6964C4.74998 41.1349 4.74996 43.1017 4.88009 44.6944C5.01408 46.3343 5.29715 47.7747 5.97618 49.1074C7.05476 51.2242 8.77578 52.9452 10.8926 54.0238C12.2253 54.7028 13.6657 54.9859 15.3056 55.1199C16.8983 55.25 18.8651 55.25 21.3036 55.25H38.6964C41.1349 55.25 43.1017 55.25 44.6944 55.1199C46.3343 54.9859 47.7747 54.7028 49.1074 54.0238C51.2242 52.9452 52.9452 51.2242 54.0238 49.1074C54.7028 47.7747 54.9859 46.3343 55.1199 44.6944C55.25 43.1017 55.25 41.1348 55.25 38.6963L55.25 37C55.25 35.7574 54.2426 34.75 53 34.75C51.7574 34.75 50.75 35.7574 50.75 37V38.6C50.75 41.1574 50.7482 42.9401 50.6349 44.328C50.5236 45.6896 50.3162 46.4719 50.0143 47.0644C49.3671 48.3345 48.3345 49.3671 47.0644 50.0143C46.4719 50.3162 45.6896 50.5236 44.328 50.6349C42.9401 50.7482 41.1574 50.75 38.6 50.75H21.4C18.8426 50.75 17.0599 50.7482 15.672 50.6349C14.3104 50.5236 13.5281 50.3162 12.9356 50.0143C11.6655 49.3671 10.6329 48.3345 9.98571 47.0644C9.68379 46.4719 9.47639 45.6896 9.36515 44.328C9.25175 42.9401 9.25 41.1574 9.25 38.6V21.4C9.25 18.8426 9.25175 17.0599 9.36515 15.672C9.47639 14.3104 9.68379 13.5281 9.98571 12.9356C10.6329 11.6655 11.6655 10.6329 12.9356 9.98571C13.5281 9.68379 14.3104 9.4764 15.672 9.36515Z"
  />
</svg>
