<svg
  width="60"
  height="60"
  viewBox="0 0 60 60"
  fill="currentColor"
  xmlns="http://www.w3.org/2000/svg"
>
  <path
    fill-rule="evenodd"
    clip-rule="evenodd"
    d="M43.7476 50.0017C44.9874 48.8827 45.6404 47.3015 46.1283 45.5834C46.6163 43.8644 47.0397 41.6064 47.5652 38.8035L48.2927 34.9235C48.3101 34.8309 48.3233 34.7603 48.3352 34.6992L48.3479 34.6352L48.3935 34.5886C48.4372 34.5443 48.4881 34.4935 48.5547 34.4268L52.4447 30.5368C53.5779 29.4037 54.5237 28.458 55.2332 27.6222C55.9732 26.7505 56.5874 25.8515 56.9383 24.7715C57.4767 23.1146 57.4767 21.3297 56.9383 19.6728C56.5874 18.5928 55.9732 17.6938 55.2332 16.8221C54.5237 15.9864 53.5779 15.0406 52.4448 13.9076L46.0931 7.55584C44.96 6.42272 44.0142 5.47689 43.1784 4.76737C42.3067 4.02736 41.4078 3.41314 40.3278 3.06223C38.6708 2.52385 36.886 2.52385 35.229 3.06223C34.149 3.41314 33.2501 4.02735 32.3784 4.76737C31.5426 5.47689 30.5969 6.42268 29.4638 7.5558L25.5737 11.4459C25.5071 11.5125 25.4562 11.5633 25.4119 11.607L25.3653 11.6526L25.3014 11.6653C25.2403 11.6772 25.1696 11.6905 25.077 11.7078L21.1972 12.4353C18.3943 12.9608 16.1362 13.3842 14.4172 13.8723C12.6991 14.3601 11.1178 15.0132 9.9989 16.253C8.37339 18.0541 7.62309 20.4794 7.94757 22.8838C8.17093 24.5389 9.10715 25.9707 10.2497 27.3435C11.3928 28.7171 13.0172 30.3415 15.0337 32.358L19.7466 37.0708L7.75203 49.0654C6.87335 49.9441 6.87335 51.3687 7.75203 52.2474C8.63071 53.1261 10.0553 53.1261 10.934 52.2474L22.9286 40.2528L27.6426 44.9668C29.659 46.9833 31.2835 48.6078 32.657 49.7509C34.0298 50.8934 35.4617 51.8296 37.1168 52.053C39.5211 52.3775 41.9464 51.6272 43.7476 50.0017ZM43.1637 37.8599C42.6117 40.8037 42.2244 42.8574 41.7994 44.3543C41.3675 45.8753 40.9967 46.4226 40.7326 46.661C39.9139 47.3999 38.8115 47.7409 37.7186 47.5934C37.366 47.5458 36.7509 47.3035 35.5356 46.292C34.3396 45.2967 32.8602 43.8205 30.7424 41.7026L18.2979 29.2582C16.1801 27.1403 14.7039 25.6609 13.7085 24.4649C12.6971 23.2496 12.4547 22.6346 12.4071 22.2819C12.2597 21.189 12.6007 20.0866 13.3396 19.268C13.578 19.0038 14.1253 18.633 15.6463 18.2012C17.1431 17.7762 19.1969 17.3888 22.1406 16.8368L25.9063 16.1308L25.9824 16.1166C26.2613 16.065 26.6392 15.9951 27.0065 15.8546C27.3244 15.733 27.6266 15.5736 27.9066 15.3799C28.2299 15.1561 28.501 14.8837 28.701 14.6827L28.7557 14.6279L32.5812 10.8024C33.7955 9.58808 34.6117 8.77427 35.2907 8.1979C35.9495 7.63858 36.3296 7.43621 36.6196 7.34199C37.3727 7.09727 38.184 7.09727 38.9372 7.34198C39.2272 7.43621 39.6073 7.63858 40.2661 8.1979C40.9451 8.77427 41.7613 9.58808 42.9756 10.8024L49.1982 17.0249C50.4125 18.2392 51.2263 19.0555 51.8027 19.7344C52.362 20.3933 52.5643 20.7733 52.6586 21.0633C52.9033 21.8165 52.9033 22.6278 52.6586 23.381C52.5643 23.671 52.362 24.051 51.8027 24.7099C51.2263 25.3888 50.4125 26.2051 49.1982 27.4194L45.3727 31.2449L45.3179 31.2995C45.1168 31.4996 44.8445 31.7706 44.6207 32.094C44.427 32.3739 44.2676 32.6761 44.1459 32.9941C44.0054 33.3614 43.9355 33.7392 43.8839 34.0181L43.8698 34.0942L43.1637 37.8599Z"
  />
</svg>
