<svg
  width="60"
  height="60"
  viewBox="0 0 60 60"
  fill="currentColor"
  xmlns="http://www.w3.org/2000/svg"
>
  <path
    fill-rule="evenodd"
    clip-rule="evenodd"
    d="M16.5 19.25C10.8391 19.25 6.25 23.8391 6.25 29.5C6.25 35.1609 10.8391 39.75 16.5 39.75C19.6638 39.75 22.4913 38.3193 24.3751 36.0614L24.3994 36.0323C24.8595 35.4807 25.2382 35.0268 25.542 34.6844C25.8203 34.3707 26.1751 33.9867 26.5751 33.7054C26.7867 33.5566 27.0446 33.3831 27.3641 33.2336C27.6836 33.0841 27.982 32.9972 28.2318 32.93C28.9143 32.7466 29.7179 32.7482 30.5038 32.7497C30.5758 32.7499 30.6477 32.75 30.7193 32.75H37.9C37.9159 32.75 37.932 32.75 37.9485 32.75C38.1842 32.7499 38.4786 32.7497 38.74 32.7711C39.0459 32.7961 39.4985 32.8612 39.9755 33.1042C40.587 33.4158 41.0842 33.913 41.3958 34.5245C41.6388 35.0015 41.7039 35.4541 41.7289 35.76C41.7503 36.0214 41.7501 36.3158 41.75 36.5515C41.75 36.568 41.75 36.5841 41.75 36.6V37C41.75 37.7297 41.7512 38.1643 41.7733 38.4883C41.787 38.6888 41.8053 38.774 41.8109 38.7961C41.8867 38.9726 42.0274 39.1133 42.2039 39.1891C42.226 39.1947 42.3112 39.213 42.5117 39.2267C42.8357 39.2488 43.2703 39.25 44 39.25C44.7297 39.25 45.1643 39.2488 45.4883 39.2267C45.6888 39.213 45.774 39.1947 45.7961 39.1891C45.9726 39.1133 46.1133 38.9726 46.1891 38.7961C46.1947 38.774 46.213 38.6888 46.2267 38.4883C46.2488 38.1643 46.25 37.7297 46.25 37L46.25 36.5515C46.2499 36.3158 46.2497 36.0214 46.2711 35.76C46.2961 35.4541 46.3612 35.0015 46.6042 34.5245C46.9158 33.913 47.413 33.4158 48.0245 33.1042C48.5015 32.8612 48.9541 32.7961 49.26 32.7711C49.5214 32.7497 49.8158 32.7499 50.0515 32.75L51.2 32.75C52.0772 32.75 52.5998 32.7482 52.9872 32.7166C53.2236 32.6973 53.323 32.6718 53.3496 32.6635C53.4835 32.593 53.593 32.4835 53.6635 32.3496C53.6718 32.323 53.6973 32.2236 53.7166 31.9872C53.7482 31.5998 53.75 31.0772 53.75 30.2V28.8C53.75 27.9228 53.7482 27.4002 53.7166 27.0128C53.6973 26.7764 53.6718 26.677 53.6635 26.6504C53.593 26.5165 53.4835 26.407 53.3496 26.3365C53.323 26.3282 53.2236 26.3027 52.9872 26.2834C52.5998 26.2517 52.0772 26.25 51.2 26.25H30.7193C30.6477 26.25 30.5758 26.2501 30.5038 26.2503C29.7179 26.2518 28.9143 26.2534 28.2318 26.07C27.982 26.0028 27.6836 25.9159 27.3641 25.7664C27.0446 25.6169 26.7867 25.4434 26.5751 25.2946C26.1751 25.0133 25.8203 24.6293 25.542 24.3156C25.2382 23.9732 24.8595 23.5192 24.3993 22.9676L24.3751 22.9386C22.4913 20.6807 19.6638 19.25 16.5 19.25ZM1.75 29.5C1.75 21.3538 8.3538 14.75 16.5 14.75C21.0545 14.75 25.1283 16.817 27.8304 20.0558C28.3209 20.6437 28.6555 21.0443 28.9082 21.3292C29.1023 21.5479 29.1859 21.6255 29.1949 21.6355C29.2311 21.6606 29.2564 21.6774 29.2728 21.6882C29.295 21.695 29.3314 21.7056 29.3872 21.7208C29.4022 21.723 29.4695 21.7325 29.6269 21.7392C29.869 21.7495 30.1929 21.75 30.7193 21.75L51.2787 21.75C52.0511 21.7499 52.7606 21.7499 53.3536 21.7983C53.993 21.8506 54.6925 21.9702 55.3834 22.3222C56.3713 22.8256 57.1744 23.6287 57.6778 24.6166C58.0298 25.3075 58.1494 26.007 58.2017 26.6464C58.2501 27.2394 58.2501 27.9489 58.25 28.7213V30.2787C58.2501 31.0511 58.2501 31.7606 58.2017 32.3536C58.1494 32.993 58.0298 33.6925 57.6778 34.3834C57.1744 35.3713 56.3713 36.1744 55.3834 36.6778C54.6925 37.0298 53.993 37.1494 53.3536 37.2017C52.7605 37.2501 52.0511 37.2501 51.2786 37.25L50.75 37.25C50.7497 37.8213 50.7468 38.3465 50.7162 38.7946C50.6799 39.3276 50.597 39.9136 50.3504 40.5091C49.8175 41.7955 48.7955 42.8175 47.5091 43.3504C46.9136 43.597 46.3276 43.6799 45.7946 43.7162C45.2987 43.7501 44.7081 43.75 44.0653 43.75H43.9347C43.2919 43.75 42.7013 43.7501 42.2054 43.7162C41.6724 43.6799 41.0864 43.597 40.4909 43.3504C39.2045 42.8175 38.1825 41.7955 37.6496 40.5091C37.403 39.9136 37.3201 39.3276 37.2838 38.7946C37.2532 38.3465 37.2503 37.8213 37.25 37.25H30.7193C30.1929 37.25 29.869 37.2505 29.6269 37.2608C29.4695 37.2675 29.4022 37.277 29.3872 37.2792C29.3314 37.2944 29.295 37.305 29.2728 37.3118C29.2564 37.3226 29.2311 37.3394 29.1949 37.3645C29.1859 37.3746 29.1023 37.4521 28.9082 37.6708C28.6555 37.9557 28.3209 38.3563 27.8304 38.9442C25.1283 42.183 21.0545 44.25 16.5 44.25C8.3538 44.25 1.75 37.6462 1.75 29.5Z"
  />
</svg>
