<svg
  width="60"
  height="60"
  viewBox="0 0 60 60"
  fill="currentColor"
  xmlns="http://www.w3.org/2000/svg"
>
  <path
    fill-rule="evenodd"
    clip-rule="evenodd"
    d="M9.31721 12.4992C8.43853 11.6205 8.43853 10.1959 9.31721 9.31722L15.6812 2.95326C16.5599 2.07458 17.9845 2.07458 18.8632 2.95326C19.7418 3.83194 19.7418 5.25656 18.8632 6.13524L14.0902 10.9082L19.3936 16.2116L24.1665 11.4386C25.0452 10.5599 26.4698 10.5599 27.3485 11.4386C28.2272 12.3173 28.2272 13.7419 27.3485 14.6206L22.5755 19.3936L27.9822 24.8002C30.8909 22.5645 34.5328 21.2354 38.485 21.2354C48.0119 21.2354 55.735 28.9585 55.735 38.4854C55.735 48.0123 48.0119 55.7354 38.485 55.7354C28.9581 55.7354 21.235 48.0123 21.235 38.4854C21.235 34.5329 22.5643 30.891 24.8002 27.9822L17.8026 20.9846L9.31721 12.4992ZM29.447 29.4922L29.4698 29.4698L29.4922 29.4471C31.7976 27.1531 34.9758 25.7354 38.485 25.7354C45.5266 25.7354 51.235 31.4437 51.235 38.4854C51.235 45.527 45.5266 51.2354 38.485 51.2354C31.4434 51.2354 25.735 45.527 25.735 38.4854C25.735 34.976 27.1529 31.7977 29.447 29.4922Z"
  />
</svg>
