<svg
  width="60"
  height="60"
  viewBox="0 0 60 60"
  fill="currentColor"
  xmlns="http://www.w3.org/2000/svg"
>
  <path
    d="M19.7812 25.6875H15.5938C13.8854 25.6667 12.3229 25.25 10.9062 24.4375C9.48958 23.6042 8.35417 22.4896 7.5 21.0938C6.66667 19.6979 6.25 18.1354 6.25 16.4062C6.25 14.6979 6.66667 13.1354 7.5 11.7188C8.35417 10.3021 9.48958 9.16667 10.9062 8.3125C12.3229 7.45833 13.8854 7.03125 15.5938 7.03125C17.3229 7.03125 18.8854 7.45833 20.2812 8.3125C21.6979 9.16667 22.8229 10.3021 23.6562 11.7188C24.5104 13.1354 24.9375 14.6979 24.9375 16.4062V20.5625H34.4062V16.4062C34.4062 14.6979 34.8333 13.1354 35.6875 11.7188C36.5417 10.3021 37.6667 9.16667 39.0625 8.3125C40.4792 7.45833 42.0417 7.03125 43.75 7.03125C45.4792 7.03125 47.0521 7.45833 48.4688 8.3125C49.8854 9.16667 51.0104 10.3021 51.8438 11.7188C52.6771 13.1354 53.0938 14.6979 53.0938 16.4062C53.0938 18.1354 52.6771 19.6979 51.8438 21.0938C51.0104 22.4896 49.8854 23.6042 48.4688 24.4375C47.0521 25.25 45.4792 25.6667 43.75 25.6875H39.5938V35.25H43.75C45.4792 35.25 47.0521 35.6667 48.4688 36.5C49.8854 37.3125 51.0104 38.4167 51.8438 39.8125C52.6771 41.2083 53.0938 42.7812 53.0938 44.5312C53.0938 46.2396 52.6771 47.8021 51.8438 49.2188C51.0104 50.6354 49.8854 51.7708 48.4688 52.625C47.0521 53.4583 45.4792 53.875 43.75 53.875C42.0417 53.875 40.4792 53.4583 39.0625 52.625C37.6667 51.7708 36.5417 50.6354 35.6875 49.2188C34.8333 47.8021 34.4062 46.2396 34.4062 44.5312V40.375H24.9375V44.5312C24.9375 46.2396 24.5104 47.8021 23.6562 49.2188C22.8229 50.6354 21.6979 51.7708 20.2812 52.625C18.8854 53.4583 17.3229 53.875 15.5938 53.875C13.8854 53.875 12.3229 53.4583 10.9062 52.625C9.48958 51.7708 8.35417 50.6354 7.5 49.2188C6.66667 47.8021 6.25 46.2396 6.25 44.5312C6.25 42.7812 6.66667 41.2083 7.5 39.8125C8.35417 38.4167 9.48958 37.3125 10.9062 36.5C12.3229 35.6667 13.8854 35.25 15.5938 35.25H19.7812V25.6875ZM15.6875 20.625H19.7812V16.5C19.7812 15.3333 19.3646 14.3333 18.5312 13.5C17.7188 12.6667 16.7396 12.25 15.5938 12.25C14.4688 12.25 13.4896 12.6667 12.6562 13.5C11.8438 14.3125 11.4375 15.2812 11.4375 16.4062C11.4375 17.5729 11.8542 18.5729 12.6875 19.4062C13.5208 20.2188 14.5208 20.625 15.6875 20.625ZM43.6562 20.625C44.8438 20.625 45.8438 20.2188 46.6562 19.4062C47.4896 18.5729 47.9062 17.5729 47.9062 16.4062C47.9062 15.2812 47.5 14.3125 46.6875 13.5C45.875 12.6667 44.8958 12.25 43.75 12.25C42.625 12.25 41.6458 12.6667 40.8125 13.5C40 14.3333 39.5938 15.3333 39.5938 16.5V20.625H43.6562ZM24.9375 35.25H34.4062V25.6875H24.9375V35.25ZM15.6875 40.2812C14.5208 40.2812 13.5208 40.6979 12.6875 41.5312C11.8542 42.3438 11.4375 43.3333 11.4375 44.5C11.4375 45.625 11.8438 46.6042 12.6562 47.4375C13.4896 48.25 14.4688 48.6562 15.5938 48.6562C16.7396 48.6562 17.7188 48.2396 18.5312 47.4062C19.3646 46.5729 19.7812 45.5729 19.7812 44.4062V40.2812H15.6875ZM43.6562 40.2812H39.5938V44.4062C39.5938 45.5729 40 46.5729 40.8125 47.4062C41.6458 48.2396 42.625 48.6562 43.75 48.6562C44.8958 48.6562 45.875 48.25 46.6875 47.4375C47.5 46.6042 47.9062 45.625 47.9062 44.5C47.9062 43.3333 47.4896 42.3438 46.6562 41.5312C45.8438 40.6979 44.8438 40.2812 43.6562 40.2812Z"
  />
</svg>
