<svg
  width="60"
  height="60"
  viewBox="0 0 60 60"
  fill="currentColor"
  xmlns="http://www.w3.org/2000/svg"
>
  <path
    fill-rule="evenodd"
    clip-rule="evenodd"
    d="M20.3037 9.75H39.6963C42.1348 9.74998 44.1017 9.74996 45.6944 9.88009C47.3343 10.0141 48.7747 10.2972 50.1074 10.9762C52.2242 12.0548 53.9452 13.7758 55.0238 15.8926C55.7028 17.2253 55.9859 18.6657 56.1199 20.3056C56.25 21.8983 56.25 23.8651 56.25 26.3036V33.6964C56.25 36.1349 56.25 38.1017 56.1199 39.6944C55.9859 41.3343 55.7028 42.7747 55.0238 44.1074C53.9452 46.2242 52.2242 47.9452 50.1074 49.0238C48.7747 49.7028 47.3343 49.9859 45.6944 50.1199C44.1017 50.25 42.1349 50.25 39.6964 50.25H20.3036C17.8651 50.25 15.8983 50.25 14.3056 50.1199C12.6657 49.9859 11.2253 49.7028 9.89261 49.0238C7.77578 47.9452 6.05475 46.2242 4.97618 44.1074C4.29716 42.7747 4.01408 41.3343 3.88009 39.6944C3.74996 38.1017 3.74998 36.1348 3.75 33.6963V26.3037C3.74998 23.8652 3.74996 21.8983 3.88009 20.3056C4.01408 18.6657 4.29716 17.2253 4.97618 15.8926C6.05475 13.7758 7.77578 12.0548 9.89261 10.9762C11.2253 10.2972 12.6657 10.0141 14.3056 9.88009C15.8983 9.74996 17.8652 9.74998 20.3037 9.75ZM14.672 14.3651C13.3104 14.4764 12.5281 14.6838 11.9356 14.9857C10.6655 15.6329 9.63285 16.6655 8.98571 17.9356C8.68379 18.5281 8.4764 19.3104 8.36515 20.672C8.25175 22.0599 8.25 23.8426 8.25 26.4V33.6C8.25 36.1574 8.25175 37.9401 8.36515 39.328C8.4764 40.6896 8.68379 41.4719 8.98571 42.0644C9.63285 43.3345 10.6655 44.3671 11.9356 45.0143C12.5281 45.3162 13.3104 45.5236 14.672 45.6349C16.0599 45.7482 17.8426 45.75 20.4 45.75H39.6C42.1574 45.75 43.9401 45.7482 45.328 45.6349C46.6896 45.5236 47.4719 45.3162 48.0644 45.0143C49.3345 44.3671 50.3671 43.3345 51.0143 42.0644C51.3162 41.4719 51.5236 40.6896 51.6349 39.328C51.7482 37.9401 51.75 36.1574 51.75 33.6V26.4C51.75 23.8426 51.7482 22.0599 51.6349 20.672C51.5236 19.3104 51.3162 18.5281 51.0143 17.9356C50.3671 16.6655 49.3345 15.6329 48.0644 14.9857C47.4719 14.6838 46.6896 14.4764 45.328 14.3651C43.9401 14.2518 42.1574 14.25 39.6 14.25H20.4C17.8426 14.25 16.0599 14.2518 14.672 14.3651Z"
  />
  <path
    d="M18 21.5C18 22.8807 16.8807 24 15.5 24C14.1193 24 13 22.8807 13 21.5C13 20.1193 14.1193 19 15.5 19C16.8807 19 18 20.1193 18 21.5Z"
  />
  <path
    d="M27.6667 21.5C27.6667 22.8807 26.5474 24 25.1667 24C23.786 24 22.6667 22.8807 22.6667 21.5C22.6667 20.1193 23.786 19 25.1667 19C26.5474 19 27.6667 20.1193 27.6667 21.5Z"
  />
  <path
    d="M37.3333 21.5C37.3333 22.8807 36.214 24 34.8333 24C33.4526 24 32.3333 22.8807 32.3333 21.5C32.3333 20.1193 33.4526 19 34.8333 19C36.214 19 37.3333 20.1193 37.3333 21.5Z"
  />
  <path
    d="M47 21.5C47 22.8807 45.8807 24 44.5 24C43.1193 24 42 22.8807 42 21.5C42 20.1193 43.1193 19 44.5 19C45.8807 19 47 20.1193 47 21.5Z"
  />
  <path
    d="M18 30.25C18 31.6307 16.8807 32.75 15.5 32.75C14.1193 32.75 13 31.6307 13 30.25C13 28.8693 14.1193 27.75 15.5 27.75C16.8807 27.75 18 28.8693 18 30.25Z"
  />
  <path
    d="M27.6667 30.25C27.6667 31.6307 26.5474 32.75 25.1667 32.75C23.786 32.75 22.6667 31.6307 22.6667 30.25C22.6667 28.8693 23.786 27.75 25.1667 27.75C26.5474 27.75 27.6667 28.8693 27.6667 30.25Z"
  />
  <path
    d="M37.3333 30.25C37.3333 31.6307 36.214 32.75 34.8333 32.75C33.4526 32.75 32.3333 31.6307 32.3333 30.25C32.3333 28.8693 33.4526 27.75 34.8333 27.75C36.214 27.75 37.3333 28.8693 37.3333 30.25Z"
  />
  <path
    d="M47 30.25C47 31.6307 45.8807 32.75 44.5 32.75C43.1193 32.75 42 31.6307 42 30.25C42 28.8693 43.1193 27.75 44.5 27.75C45.8807 27.75 47 28.8693 47 30.25Z"
  />
  <path
    fill-rule="evenodd"
    clip-rule="evenodd"
    d="M19.75 38.75C19.75 37.5074 20.7574 36.5 22 36.5H38C39.2426 36.5 40.25 37.5074 40.25 38.75C40.25 39.9926 39.2426 41 38 41H22C20.7574 41 19.75 39.9926 19.75 38.75Z"
  />
</svg>
