<svg
  xmlns="http://www.w3.org/2000/svg"
  width="24"
  height="24"
  viewBox="0 0 24 24"
  fill="currentColor"
>
  <path
    d="M12.0002 1.21387C14.2093 1.21392 16.0002 3.00476 16.0002 5.21387C16.0002 7.11335 14.6758 8.70228 12.9002 9.11074V12.5307L16.1042 14.3807C17.3532 13.1343 19.3273 12.8255 20.9284 13.7498C22.8414 14.8544 23.497 17.3008 22.3924 19.2139C21.2879 21.1269 18.8415 21.7824 16.9284 20.6779C15.2399 19.703 14.5314 17.6831 15.1475 15.9068L11.9995 14.0893L8.8522 15.9061C9.46872 17.6824 8.76067 19.7025 7.07212 20.6775C5.15895 21.7821 2.71263 21.1266 1.60806 19.2135C0.503584 17.3003 1.15899 14.854 3.07212 13.7494C4.6729 12.8253 6.64654 13.134 7.89556 14.3799L11.1002 12.5299V9.11074C9.3247 8.70232 8.0003 7.11338 8.00025 5.21387C8.00025 3.00473 9.79111 1.21387 12.0002 1.21387ZM6.9772 16.1135C6.36966 15.0615 5.02427 14.7011 3.97212 15.3084C2.91995 15.9159 2.55932 17.2613 3.16665 18.3135C3.77417 19.3657 5.11988 19.7265 6.17212 19.1189C7.22424 18.5114 7.58468 17.1657 6.9772 16.1135ZM20.0284 15.3084C18.9761 14.701 17.6304 15.0617 17.0229 16.1139C16.4155 17.1661 16.7763 18.5114 17.8284 19.1189C18.8806 19.7264 20.2259 19.366 20.8334 18.3139C21.441 17.2616 21.0806 15.9159 20.0284 15.3084ZM12.0002 3.01387C10.7852 3.01387 9.80025 3.99884 9.80025 5.21387C9.80031 6.42884 10.7853 7.41387 12.0002 7.41387C13.2152 7.41382 14.2002 6.42881 14.2002 5.21387C14.2002 3.99887 13.2152 3.01392 12.0002 3.01387Z"
  />
</svg>
