<svg
  width="60"
  height="60"
  viewBox="0 0 60 60"
  fill="currentColor"
  xmlns="http://www.w3.org/2000/svg"
>
  <path
    fill-rule="evenodd"
    clip-rule="evenodd"
    d="M44.5472 0.970795C44.7267 0.586069 45.2738 0.58607 45.4533 0.970796L46.777 3.80695C47.2736 4.87116 48.1291 5.72658 49.1933 6.22325L52.0294 7.54689C52.4141 7.72644 52.4141 8.2735 52.0294 8.45306L49.1933 9.77669C48.1291 10.2734 47.2736 11.1288 46.777 12.193L45.4533 15.0291C45.2738 15.4139 44.7267 15.4139 44.5472 15.0291L43.2235 12.193C42.7269 11.1288 41.8714 10.2734 40.8072 9.77669L37.9711 8.45306C37.5863 8.2735 37.5863 7.72644 37.9711 7.54689L40.8072 6.22325C41.8714 5.72658 42.7269 4.87116 43.2235 3.80695L44.5472 0.970795ZM11.865 10.2295C11.1391 10.279 10.7786 10.3683 10.5368 10.4684C9.60021 10.8564 8.85605 11.6005 8.46808 12.5372C8.36794 12.779 8.27867 13.1394 8.22915 13.8653C8.17829 14.6107 8.17711 15.5724 8.17711 17C8.17711 18.4276 8.17829 19.3893 8.22915 20.1347C8.27867 20.8606 8.36794 21.2211 8.46808 21.4629C8.85605 22.3995 9.60021 23.1437 10.5368 23.5316C10.7786 23.6318 11.1391 23.721 11.865 23.7706C12.6104 23.8214 13.5721 23.8226 14.9997 23.8226H45.8012H50.7207C49.8677 22.1402 49.3428 20.1897 49.2002 18.1521C49.1162 16.9525 50.0206 15.9119 51.2203 15.8279C52.4199 15.7439 53.4604 16.6484 53.5444 17.848C53.7474 20.7473 54.9513 22.9749 56.3384 24.0545C56.8605 24.4609 57.1695 25.0826 57.1782 25.7442C57.1869 26.4057 56.8943 27.0354 56.3831 27.4553C56.2067 27.6002 56.0143 27.7264 55.8088 27.8311C55.3437 28.0681 54.9018 28.132 54.6004 28.1566C54.3421 28.1777 54.0505 28.1776 53.8141 28.1775L14.926 28.1774C13.5908 28.1775 12.4799 28.1775 11.5685 28.1153C10.6209 28.0506 9.73117 27.9116 8.87032 27.555C6.86663 26.725 5.27469 25.1331 4.44474 23.1294C4.08816 22.2685 3.94906 21.3788 3.88441 20.4312C3.82223 19.5198 3.82225 18.4089 3.82227 17.0737V16.9263C3.82225 15.5912 3.82223 14.4802 3.88441 13.5689C3.94906 12.6213 4.08816 11.7315 4.44474 10.8707C5.27469 8.86696 6.86663 7.27503 8.87032 6.44507C9.73117 6.0885 10.6209 5.9494 11.5685 5.88475C12.4799 5.82257 13.5908 5.82258 14.926 5.8226L31.383 5.8226C32.5855 5.8226 33.5604 6.79747 33.5604 8.00002C33.5604 9.20258 32.5855 10.1774 31.383 10.1774H14.9997C13.5721 10.1774 12.6104 10.1786 11.865 10.2295ZM53.7666 32.8225L53.8144 32.8225C54.0508 32.8224 54.3424 32.8223 54.6007 32.8434C54.9021 32.868 55.344 32.9319 55.8091 33.1689C56.0146 33.2736 56.207 33.3998 56.3834 33.5447C56.8946 33.9646 57.1872 34.5943 57.1785 35.2558C57.1698 35.9174 56.8608 36.5391 56.3387 36.9455C54.8101 38.1352 53.5152 40.714 53.5152 44C53.5152 47.2859 54.8101 49.8647 56.3387 51.0544C56.8608 51.4608 57.1698 52.0825 57.1785 52.7441C57.1872 53.4057 56.8946 54.0353 56.3834 54.4552C56.207 54.6001 56.0146 54.7263 55.8091 54.8311C55.344 55.068 54.9021 55.1319 54.6007 55.1565C54.3424 55.1776 54.0508 55.1775 53.8144 55.1774L53.7666 55.1774H14.9263C13.5912 55.1774 12.4802 55.1774 11.5689 55.1152C10.6213 55.0506 9.73149 54.9115 8.87064 54.5549C6.86695 53.7249 5.27502 52.133 4.44506 50.1293C4.08848 49.2685 3.94938 48.3787 3.88473 47.4311C3.82255 46.5198 3.82257 45.4088 3.82259 44.0736V43.9263C3.82257 42.5911 3.82255 41.4801 3.88473 40.5688C3.94938 39.6212 4.08848 38.7314 4.44506 37.8706C5.27502 35.8669 6.86695 34.275 8.87065 33.445C9.73149 33.0884 10.6213 32.9493 11.5689 32.8847C12.4801 32.8225 13.591 32.8225 14.9261 32.8225L53.7666 32.8225ZM49.1604 44C49.1604 41.5386 49.7117 39.1678 50.7206 37.1774H15C13.5724 37.1774 12.6107 37.1786 11.8653 37.2294C11.1394 37.2789 10.7789 37.3682 10.5372 37.4684C9.60053 37.8563 8.85637 38.6005 8.4684 39.5371C8.36826 39.7789 8.27899 40.1394 8.22947 40.8652C8.17861 41.6107 8.17743 42.5723 8.17743 44C8.17743 45.4276 8.17861 46.3892 8.22947 47.1347C8.27899 47.8605 8.36826 48.221 8.4684 48.4628C8.85637 49.3994 9.60053 50.1436 10.5372 50.5316C10.7789 50.6317 11.1394 50.721 11.8653 50.7705C12.6107 50.8214 13.5724 50.8225 15 50.8225H50.7206C49.7117 48.8321 49.1604 46.4613 49.1604 44Z"
  />
</svg>
