<svg
  width="60"
  height="60"
  viewBox="0 0 60 60"
  fill="currentColor"
  xmlns="http://www.w3.org/2000/svg"
>
  <path
    fill-rule="evenodd"
    clip-rule="evenodd"
    d="M4.75 16C4.75 12.5482 7.54822 9.75 11 9.75H22C25.4518 9.75 28.25 12.5482 28.25 16C28.25 19.1114 25.9764 21.6918 23 22.1704V27.75H37V22.1704C34.0236 21.6918 31.75 19.1114 31.75 16C31.75 12.5482 34.5482 9.75 38 9.75H49C52.4518 9.75 55.25 12.5482 55.25 16C55.25 19.1114 52.9764 21.6918 50 22.1704V27.8613C50.7453 27.9419 51.46 28.0892 52.1571 28.378C54.1786 29.2153 55.7847 30.8214 56.622 32.8429C56.9829 33.714 57.1228 34.6126 57.1877 35.5639C57.25 36.4778 57.25 37.5909 57.25 38.9243V39.0757C57.25 40.4091 57.25 41.5222 57.1877 42.4361C57.1228 43.3874 56.9829 44.286 56.622 45.1571C55.7847 47.1786 54.1786 48.7847 52.1571 49.622C51.286 49.9829 50.3874 50.1228 49.4361 50.1877C48.5223 50.25 47.4093 50.25 46.076 50.25H13.9242C12.591 50.25 11.4777 50.25 10.5639 50.1877C9.61261 50.1228 8.71403 49.9829 7.84286 49.622C5.82138 48.7847 4.21532 47.1786 3.378 45.1571C3.01715 44.286 2.87722 43.3874 2.81231 42.4361C2.74996 41.5223 2.74998 40.4092 2.75 39.0758V38.9242C2.74998 37.5909 2.74996 36.4777 2.81231 35.5639C2.87722 34.6126 3.01715 33.714 3.378 32.8429C4.21532 30.8214 5.82138 29.2153 7.84286 28.378C8.54003 28.0892 9.25475 27.9419 10 27.8613L10 22.1704C7.02357 21.6918 4.75 19.1114 4.75 16ZM45.5 27.75V22.25H41.5V27.75H45.5ZM14.5 22.25H18.5L18.5 27.75H14.5L14.5 22.25ZM11 14.25C10.0335 14.25 9.25 15.0335 9.25 16C9.25 16.9665 10.0335 17.75 11 17.75H22C22.9665 17.75 23.75 16.9665 23.75 16C23.75 15.0335 22.9665 14.25 22 14.25H11ZM10.8702 32.3019C10.148 32.3511 9.7964 32.4396 9.56494 32.5355C8.64608 32.9161 7.91606 33.6461 7.53545 34.5649C7.43958 34.7964 7.35115 35.148 7.30187 35.8702C7.25122 36.6126 7.25 37.5714 7.25 39C7.25 40.4286 7.25122 41.3874 7.30187 42.1298C7.35115 42.852 7.43958 43.2036 7.53545 43.4351C7.91606 44.3539 8.64608 45.0839 9.56494 45.4646C9.7964 45.5604 10.148 45.6489 10.8702 45.6981C11.6126 45.7488 12.5714 45.75 14 45.75H46C47.4286 45.75 48.3874 45.7488 49.1298 45.6981C49.852 45.6489 50.2036 45.5604 50.4351 45.4646C51.3539 45.0839 52.0839 44.3539 52.4646 43.4351C52.5604 43.2036 52.6489 42.852 52.6981 42.1298C52.7488 41.3874 52.75 40.4286 52.75 39C52.75 37.5714 52.7488 36.6126 52.6981 35.8702C52.6489 35.148 52.5604 34.7964 52.4646 34.5649C52.0839 33.6461 51.3539 32.9161 50.4351 32.5355C50.2036 32.4396 49.852 32.3511 49.1298 32.3019C48.3874 32.2512 47.4286 32.25 46 32.25H14C12.5714 32.25 11.6126 32.2512 10.8702 32.3019ZM36.25 16C36.25 15.0335 37.0335 14.25 38 14.25H49C49.9665 14.25 50.75 15.0335 50.75 16C50.75 16.9665 49.9665 17.75 49 17.75H38C37.0335 17.75 36.25 16.9665 36.25 16Z"
  />
</svg>
