<svg
  width="60"
  height="60"
  viewBox="0 0 60 60"
  fill="currentColor"
  xmlns="http://www.w3.org/2000/svg"
>
  <path
    d="M22 20.75C20.7574 20.75 19.75 21.7574 19.75 23C19.75 24.2426 20.7574 25.25 22 25.25L38 25.25C39.2426 25.25 40.25 24.2426 40.25 23C40.25 21.7574 39.2426 20.75 38 20.75L22 20.75Z"
  />
  <path
    fill-rule="evenodd"
    clip-rule="evenodd"
    d="M17.6469 3.75C11.6287 3.75 6.75 8.6287 6.75 14.6469V49.9237C6.75 55.0958 12.6737 58.0297 16.7878 54.8951L27.7274 46.5602C29.0699 45.5374 30.9302 45.5374 32.2727 46.5602L43.2122 54.8951C47.3263 58.0296 53.25 55.0958 53.25 49.9237V14.6469C53.25 8.6287 48.3713 3.75 42.3531 3.75H17.6469ZM11.25 14.6469C11.25 11.114 14.114 8.25 17.6469 8.25H42.3531C45.886 8.25 48.75 11.114 48.75 14.6469V49.9237C48.75 51.3718 47.0914 52.1933 45.9394 51.3157L34.9999 42.9808C32.0465 40.7305 27.9537 40.7305 25.0002 42.9808L14.0606 51.3157C12.9086 52.1934 11.25 51.3719 11.25 49.9237V14.6469Z"
  />
</svg>
