<svg
  width="60"
  height="60"
  viewBox="0 0 60 60"
  fill="currentColor"
  xmlns="http://www.w3.org/2000/svg"
>
  <path
    fill-rule="evenodd"
    clip-rule="evenodd"
    d="M6.76581 16.0009C3.93451 18.8322 3.93451 23.4227 6.76581 26.254C8.8751 28.3633 11.9607 28.9012 14.568 27.8677L38.487 51.7867C42.1595 55.4592 48.1138 55.4592 51.7864 51.7867C55.4589 48.1142 55.4589 42.1599 51.7864 38.4874L27.8677 14.5688C28.902 11.9612 28.3643 8.87483 26.2546 6.76514C23.4233 3.93384 18.8329 3.93383 16.0016 6.76514L6.76581 16.0009ZM9.94779 23.072C8.87385 21.9981 8.87385 20.2568 9.94779 19.1829L19.1836 9.94712C20.2575 8.87318 21.9987 8.87318 23.0727 9.94712C24.1466 11.0211 24.1466 12.7623 23.0727 13.8362L13.8369 23.072C12.7629 24.1459 11.0217 24.1459 9.94779 23.072ZM41.669 48.6047C43.5842 50.5199 46.6892 50.5199 48.6044 48.6047C50.5195 46.6896 50.5195 43.5845 48.6044 41.6694L43.0941 36.1591L40.591 38.6623C39.7123 39.541 38.2877 39.541 37.409 38.6623C36.5303 37.7836 36.5303 36.359 37.409 35.4803L39.9121 32.9772L35.0941 28.1591L32.591 30.6623C31.7123 31.541 30.2877 31.541 29.409 30.6623C28.5303 29.7836 28.5303 28.359 29.409 27.4803L31.9121 24.9772L25.1564 18.2214L18.221 25.1567L41.669 48.6047Z"
  />
</svg>
