<svg
  width="60"
  height="60"
  viewBox="0 0 60 60"
  fill="currentColor"
  xmlns="http://www.w3.org/2000/svg"
>
  <path
    d="M19.591 6.40901C18.7123 5.53033 17.2877 5.53033 16.409 6.40901C15.5303 7.28769 15.5303 8.71231 16.409 9.59099L17.568 10.75H10C8.75736 10.75 7.75 11.7574 7.75 13C7.75 14.2426 8.75736 15.25 10 15.25H25.0812C23.9367 18.1348 22.277 21.3996 20.0507 23.7505C18.8094 22.3387 17.6872 20.8721 16.813 19.6587C16.0866 18.6505 14.6804 18.422 13.6722 19.1484C12.664 19.8748 12.4355 21.281 13.1619 22.2892C14.0661 23.5443 15.2646 25.1176 16.6283 26.6728C14.3853 28.2517 11.6151 29.6808 8.24556 30.8803C7.07488 31.297 6.46369 32.5839 6.88042 33.7546C7.29716 34.9252 8.58401 35.5364 9.75469 35.1197C13.7487 33.6979 17.104 31.9358 19.8494 29.8965C21.6229 31.2976 24.0623 32.5226 25.9843 33.3891C27.1434 33.9117 28.2037 34.3424 28.9739 34.6424C29.3597 34.7927 29.6747 34.911 29.8951 34.9924C30.0054 35.0331 30.0922 35.0646 30.1525 35.0864L30.2228 35.1116L30.2425 35.1186L30.2502 35.1213L30.2514 35.1218C31.4232 35.5353 32.7084 34.9206 33.1219 33.7487C33.5354 32.577 32.9205 31.2919 31.7489 30.8782L31.747 30.8776L31.7345 30.8731L31.679 30.8532C31.6288 30.8351 31.5527 30.8075 31.4537 30.7709C31.2554 30.6977 30.9656 30.5889 30.6074 30.4493C29.8893 30.1696 28.904 29.7693 27.8337 29.2867C26.1963 28.5485 24.5362 27.6944 23.3072 26.8561C26.5589 23.427 28.6635 18.6997 29.8878 15.25H33C34.2426 15.25 35.25 14.2426 35.25 13C35.25 11.7574 34.2426 10.75 33 10.75H28.323C28.2881 10.7492 28.2533 10.7492 28.2186 10.75H23.8713C23.7908 10.6296 23.6973 10.5153 23.591 10.409L19.591 6.40901Z"
  />
  <path
    fill-rule="evenodd"
    clip-rule="evenodd"
    d="M34.5158 46.1389H47.4842L49.9991 51.0291C50.5674 52.1341 51.9239 52.5693 53.029 52.0009C54.1341 51.4326 54.5692 50.0761 54.0009 48.971L50.8662 42.8757L44.8096 30.6281C43.2496 27.4733 38.7504 27.4733 37.1903 30.6281L31.1338 42.8757L27.9991 48.971C27.4308 50.0761 27.8659 51.4326 28.971 52.0009C30.076 52.5693 31.4326 52.1341 32.0009 51.0291L34.5158 46.1389ZM36.7655 41.6389L41 33.076L45.2344 41.6389H36.7655Z"
  />
</svg>
