<svg
  width="60"
  height="60"
  viewBox="0 0 60 60"
  fill="currentColor"
  xmlns="http://www.w3.org/2000/svg"
>
  <path
    fill-rule="evenodd"
    clip-rule="evenodd"
    d="M24.9287 39.2058C28.0589 41.0477 31.9415 41.0477 35.0716 39.2058L53.2827 28.4899C58.5398 25.3964 58.5398 17.7935 53.2827 14.7001L35.0716 3.98417C31.9415 2.14232 28.0589 2.14232 24.9287 3.98417L6.71765 14.7001C1.46052 17.7935 1.46052 25.3964 6.71765 28.4899L24.9287 39.2058ZM35.0223 44.0846C31.9174 45.8875 28.0844 45.8875 24.9796 44.0846L5.12784 32.5578C1.52463 36.1048 2.05379 42.3921 6.71532 45.1342L24.9318 55.8497C28.0613 57.6906 31.9427 57.6906 35.0722 55.8497L53.2886 45.1342C57.9505 42.3919 58.4794 36.1039 54.8753 32.5571L35.0223 44.0846Z"
  />
</svg>
