<svg
  width="60"
  height="60"
  viewBox="0 0 60 60"
  fill="currentColor"
  xmlns="http://www.w3.org/2000/svg"
>
  <path
    fill-rule="evenodd"
    clip-rule="evenodd"
    d="M9.14143 29.9161L6.71765 28.4899C1.46052 25.3964 1.46052 17.7935 6.71765 14.7001L24.9287 3.98417C28.0589 2.14232 31.9415 2.14232 35.0716 3.98417L53.2827 14.7001C58.5398 17.7935 58.5398 25.3964 53.2827 28.4899L50.8607 29.9151L53.2886 31.3432C58.5471 34.4364 58.5471 42.041 53.2886 45.1342L35.0722 55.8497C31.9427 57.6906 28.0613 57.6906 24.9318 55.8497L6.71532 45.1342C1.45687 42.041 1.45687 34.4364 6.71532 31.3432L9.14143 29.9161ZM13.4356 27.3901L8.92618 24.7366C6.53079 23.3271 6.53079 19.8629 8.92618 18.4534L27.1373 7.73744C28.9043 6.69768 31.0961 6.69768 32.8631 7.73744L51.0742 18.4534C53.4696 19.8629 53.4696 23.3271 51.0742 24.7366L46.5665 27.3891L46.5599 27.3852L35.0223 34.0844C31.9174 35.8872 28.0844 35.8872 24.9796 34.0844L13.443 27.3858L13.4356 27.3901ZM13.4353 32.4427L8.92332 35.0968C6.52732 36.5062 6.52733 39.9712 8.92331 41.3806L27.1398 52.0961C28.9064 53.1354 31.0975 53.1354 32.8642 52.0961L51.0806 41.3806C53.4766 39.9712 53.4766 36.5062 51.0806 35.0968L46.5669 32.4417L35.0716 39.2058C31.9415 41.0477 28.0589 41.0477 24.9287 39.2058L13.4353 32.4427Z"
  />
</svg>
