<svg
  width="60"
  height="60"
  viewBox="0 0 60 60"
  fill="currentColor"
  xmlns="http://www.w3.org/2000/svg"
>
  <path
    fill-rule="evenodd"
    clip-rule="evenodd"
    d="M20.9001 4.25H20.8038H20.8037C18.3652 4.24998 16.3984 4.24996 14.8057 4.38009C13.1658 4.51408 11.7253 4.79716 10.3927 5.47618C8.27585 6.55475 6.55482 8.27579 5.47624 10.3926C4.79722 11.7253 4.51414 13.1657 4.38016 14.8056C4.25002 16.3983 4.25004 18.3652 4.25007 20.8037L4.25007 20.9V39.5L4.25003 39.7315C4.24967 41.3665 4.24943 42.4806 4.42098 43.4535C5.24224 48.1112 8.88889 51.7578 13.5465 52.5791C14.5194 52.7506 15.6335 52.7504 17.2685 52.75H17.2686L17.5001 52.75C18.7427 52.75 19.7501 51.7426 19.7501 50.5C19.7501 49.2574 18.7427 48.25 17.5001 48.25C15.5461 48.25 14.8607 48.2414 14.3279 48.1475C11.5334 47.6547 9.34537 45.4667 8.85261 42.6721C8.75868 42.1394 8.75007 41.4539 8.75007 39.5V20.9C8.75007 18.3426 8.75182 16.5599 8.86521 15.172C8.97646 13.8104 9.18385 13.0281 9.48577 12.4356C10.1329 11.1655 11.1655 10.1329 12.4356 9.48571C13.0282 9.18379 13.8105 8.9764 15.1721 8.86515C16.56 8.75175 18.3427 8.75 20.9001 8.75H36.1001C38.6574 8.75 40.4401 8.75175 41.828 8.86515C43.1897 8.9764 43.972 9.18379 44.5645 9.48571C45.8346 10.1329 46.8672 11.1655 47.5144 12.4356C47.8163 13.0281 48.0237 13.8104 48.1349 15.172C48.2483 16.5599 48.2501 18.3426 48.2501 20.9V26.5C48.2501 27.7426 49.2574 28.75 50.5001 28.75C51.7427 28.75 52.7501 27.7426 52.7501 26.5V20.9V20.8036V20.8036C52.7501 18.3651 52.7501 16.3983 52.62 14.8056C52.486 13.1657 52.2029 11.7253 51.5239 10.3926C50.4453 8.27579 48.7243 6.55475 46.6075 5.47618C45.2748 4.79716 43.8344 4.51408 42.1945 4.38009C40.6017 4.24996 38.6349 4.24998 36.1964 4.25H36.1964H36.1001H20.9001ZM35.0001 32.25L34.9114 32.25H34.9113C33.3538 32.25 32.0538 32.25 30.9907 32.3344C29.8824 32.4225 28.8407 32.6128 27.8512 33.1008C26.2224 33.904 24.9041 35.2223 24.1009 36.8511C23.6129 37.8407 23.4226 38.8824 23.3345 39.9907C23.25 41.0537 23.25 42.3537 23.2501 43.9113V43.9113L23.2501 44L23.2501 44.0887V44.0888C23.25 45.6463 23.25 46.9463 23.3345 48.0093C23.4226 49.1177 23.6129 50.1594 24.1009 51.1489C24.9041 52.7777 26.2224 54.096 27.8512 54.8992C28.8407 55.3872 29.8824 55.5775 30.9907 55.6656C32.0537 55.7501 33.3537 55.75 34.911 55.75H34.9113H35.0001H44.0001H44.0888H44.0891C45.6465 55.75 46.9464 55.7501 48.0094 55.6656C49.1177 55.5775 50.1594 55.3872 51.1489 54.8992C52.7778 54.096 54.096 52.7777 54.8993 51.1489C55.3872 50.1594 55.5776 49.1177 55.6656 48.0093C55.7501 46.9463 55.7501 45.6463 55.7501 44.0887V44V43.9113C55.7501 42.3538 55.7501 41.0537 55.6656 39.9907C55.5776 38.8824 55.3872 37.8407 54.8993 36.8511C54.096 35.2223 52.7778 33.904 51.1489 33.1008C50.1594 32.6128 49.1177 32.4225 48.0094 32.3344C46.9464 32.25 45.6463 32.25 44.0888 32.25H44.0888L44.0001 32.25H35.0001ZM29.8415 37.1367C30.1067 37.006 30.5088 36.8869 31.3472 36.8203C32.2107 36.7517 33.331 36.75 35.0001 36.75H44.0001C45.6691 36.75 46.7894 36.7517 47.6529 36.8203C48.4913 36.8869 48.8934 37.006 49.1586 37.1367C49.899 37.5018 50.4982 38.1011 50.8633 38.8414C50.9941 39.1066 51.1132 39.5088 51.1798 40.3471C51.2484 41.2107 51.2501 42.3309 51.2501 44C51.2501 45.6691 51.2484 46.7893 51.1798 47.6529C51.1132 48.4912 50.9941 48.8934 50.8633 49.1586C50.4982 49.899 49.899 50.4982 49.1586 50.8633C48.8934 50.9941 48.4913 51.1131 47.6529 51.1797C46.7894 51.2483 45.6691 51.25 44.0001 51.25H35.0001C33.331 51.25 32.2107 51.2483 31.3472 51.1797C30.5088 51.1131 30.1067 50.9941 29.8415 50.8633C29.1011 50.4982 28.5019 49.899 28.1368 49.1586C28.006 48.8934 27.887 48.4912 27.8203 47.6529C27.7517 46.7893 27.7501 45.6691 27.7501 44C27.7501 42.3309 27.7517 41.2107 27.8203 40.3471C27.887 39.5088 28.006 39.1066 28.1368 38.8414C28.5019 38.1011 29.1011 37.5018 29.8415 37.1367Z"
  />
</svg>
