<svg
  width="60"
  height="60"
  viewBox="0 0 60 60"
  fill="currentColor"
  xmlns="http://www.w3.org/2000/svg"
>
  <path
    fill-rule="evenodd"
    clip-rule="evenodd"
    d="M6.08426 8.35929L6.08423 8.33616C6.08423 7.12995 7.03628 6.13735 8.24144 6.08713L8.26413 6.08622L8.32492 6.08388C8.37763 6.08191 8.4545 6.07915 8.5542 6.07586C8.7536 6.06929 9.04441 6.06062 9.41601 6.05198C10.1591 6.0347 11.2261 6.01752 12.5321 6.01752C15.1411 6.01752 18.7178 6.08607 22.5776 6.36175C26.4289 6.63682 30.6112 7.1214 34.4156 7.96675C38.1642 8.79974 41.7941 10.0345 44.3502 11.9514C49.5056 15.8177 51.1901 22.9338 51.739 28.422C52.0228 31.26 52.022 33.8722 51.9517 35.7702C51.9165 36.7218 51.8635 37.5003 51.8188 38.0457C51.7964 38.3186 51.7761 38.5335 51.761 38.6831C51.7558 38.7344 51.7513 38.7781 51.7475 38.8137L51.7427 38.8576L51.7373 38.9065L51.7356 38.921L51.7349 38.9275C51.7349 38.9275 51.7347 38.9288 49.5001 38.6659L51.7347 38.9288C51.5895 40.1629 50.4713 41.0457 49.2372 40.9005C48.0033 40.7553 47.1208 39.6368 47.2655 38.403L47.266 38.3985L47.2694 38.3681L47.277 38.2967L47.2837 38.2319C47.2961 38.1085 47.3139 37.9215 47.3338 37.6781C47.3737 37.191 47.4223 36.4801 47.4548 35.6037C47.5199 33.8458 47.5191 31.448 47.2613 28.8698C46.7268 23.5257 45.1614 18.1846 41.6503 15.5515C39.8731 14.2186 37.0031 13.1515 33.4394 12.3596C29.9314 11.5801 25.9889 11.1169 22.257 10.8503C18.5336 10.5844 15.0688 10.5175 12.5321 10.5175C11.8172 10.5175 11.1772 10.5228 10.6271 10.5304C10.644 11.0788 10.6675 11.7168 10.7003 12.4292C10.817 14.962 11.0501 18.4212 11.5148 22.1382C11.9805 25.8637 12.6727 29.7974 13.6934 33.2967C14.7277 36.8428 16.0369 39.7187 17.6107 41.5171C20.9221 45.3014 25.7574 47.0554 29.9967 47.8261C32.0899 48.2067 33.9667 48.3342 35.3176 48.366C35.9913 48.3818 36.5294 48.3738 36.8923 48.3622C37.0737 48.3565 37.211 48.3499 37.2992 48.345C37.3433 48.3425 37.3751 48.3405 37.3939 48.3393L37.4111 48.3381L37.4124 48.338C38.6508 48.2434 39.7318 49.1704 39.8271 50.4089C39.9224 51.6479 38.9952 52.7296 37.7562 52.8249C37.4682 49.0798 37.7568 52.8248 37.7546 52.825L37.7479 52.8255L37.7344 52.8265L37.6922 52.8294C37.6732 52.8306 37.6502 52.8321 37.6234 52.8337C37.601 52.8351 37.5759 52.8365 37.5482 52.8381C37.4264 52.8448 37.2537 52.853 37.0351 52.86C36.5983 52.8738 35.9769 52.8827 35.2118 52.8647C33.6852 52.8288 31.5673 52.6854 29.1918 52.2536C24.4938 51.3994 18.4959 49.3622 14.2242 44.4805C12.0063 41.946 10.4718 38.3225 9.3734 34.5567C8.26131 30.7441 7.53168 26.5535 7.0495 22.6964C6.56626 18.8307 6.32543 15.249 6.2051 12.6363C6.14486 11.3284 6.11466 10.2596 6.0995 9.51501C6.09193 9.14262 6.08811 8.85105 6.08618 8.65094C6.08522 8.55087 6.08473 8.47365 6.08448 8.42059L6.08426 8.35929ZM8.24157 6.08963L8.24144 6.08713L8.24157 6.08963Z"
  />
  <path
    d="M20.4141 16.0293C21.5024 15.4296 22.8709 15.8257 23.4706 16.9141C25.0246 19.7343 27.371 23.672 30.3551 27.9291L31.2638 19.7515C31.401 18.5164 32.5134 17.6265 33.7485 17.7637C34.9835 17.9009 35.8735 19.0134 35.7362 20.2484L34.2951 33.219L34.4472 33.4104C39.4264 39.66 45.4678 45.7473 52.1162 49.5464C53.1952 50.1629 53.57 51.5373 52.9535 52.6162C52.337 53.6952 50.9625 54.07 49.8836 53.4535C42.532 49.2526 36.0735 42.6732 30.9277 36.2145C30.8043 36.0596 30.6816 35.9048 30.5597 35.75H20.5C19.2574 35.75 18.25 34.7426 18.25 33.5C18.25 32.2573 19.2574 31.25 20.5 31.25H27.1916C23.8448 26.5493 21.2318 22.1755 19.5293 19.0858C18.9296 17.9974 19.3257 16.629 20.4141 16.0293Z"
  />
</svg>
