<svg
  width="60"
  height="60"
  viewBox="0 0 60 60"
  fill="currentColor"
  xmlns="http://www.w3.org/2000/svg"
>
  <path
    fill-rule="evenodd"
    clip-rule="evenodd"
    d="M8.23729 6.08719L8.25998 6.08628L8.32077 6.08395C8.37348 6.08197 8.45035 6.07921 8.55005 6.07592C8.74945 6.06935 9.04026 6.06068 9.41186 6.05204C10.1549 6.03476 11.222 6.01758 12.5279 6.01758C15.137 6.01758 18.7137 6.08613 22.5734 6.36181C26.4247 6.63688 30.6071 7.12146 34.4114 7.96682C38.1601 8.7998 41.79 10.0345 44.346 11.9514C49.5015 15.8177 51.1859 22.9339 51.7348 28.4221C52.0186 31.2601 52.0179 33.8723 51.9476 35.7703C51.9123 36.7219 51.8593 37.5004 51.8146 38.0458C51.7923 38.3186 51.7719 38.5336 51.7568 38.6832L51.7515 38.7356L51.7433 38.8138L51.7386 38.8577L51.7331 38.9065L51.7315 38.921L51.7307 38.9275L51.7306 38.9288C51.5854 40.163 50.4672 41.0457 49.2331 40.9005C47.9992 40.7553 47.1166 39.6369 47.2614 38.403L47.2619 38.3986L47.2653 38.3681L47.2729 38.2968L47.2795 38.2319C47.292 38.1086 47.3097 37.9215 47.3297 37.6781C47.3696 37.1911 47.4182 36.4801 47.4506 35.6037C47.5157 33.8459 47.515 31.4481 47.2571 28.8699C46.7227 23.5257 45.1572 18.1846 41.6462 15.5515C39.8689 14.2187 36.999 13.1515 33.4353 12.3597C29.9273 11.5802 25.9848 11.1169 22.2529 10.8504C18.5294 10.5844 15.0646 10.5176 12.5279 10.5176C11.8131 10.5176 11.173 10.5229 10.6229 10.5305C10.6398 11.0789 10.6634 11.7168 10.6962 12.4293C10.8128 14.962 11.0459 18.4213 11.5106 22.1383C11.9763 25.8638 12.6685 29.7975 13.6892 33.2967C14.7236 36.8428 16.0328 39.7187 17.6065 41.5172C20.918 45.3014 25.7533 47.0555 29.9926 47.8262C32.0858 48.2068 33.9625 48.3342 35.3135 48.366C35.9872 48.3819 36.5252 48.3738 36.8882 48.3623C37.0696 48.3565 37.2068 48.3499 37.295 48.345C37.3391 48.3426 37.3709 48.3406 37.3898 48.3393L37.407 48.3382L37.4082 48.3381C38.6467 48.2435 39.7276 49.1704 39.8229 50.409C39.9182 51.648 38.9911 52.7296 37.7521 52.8249L37.7505 52.825L37.7438 52.8255L37.7303 52.8265L37.688 52.8294L37.6193 52.8338L37.544 52.8381C37.4222 52.8449 37.2495 52.8531 37.031 52.86C36.5942 52.8739 35.9727 52.8828 35.2076 52.8648C33.681 52.8288 31.5631 52.6855 29.1876 52.2536C24.4896 51.3995 18.4918 49.3622 14.22 44.4806C12.0022 41.9461 10.4677 38.3226 9.36925 34.5568C8.25716 30.7442 7.52753 26.5536 7.04535 22.6965C6.56211 18.8308 6.32128 15.249 6.20095 12.6363C6.14071 11.3285 6.11051 10.2597 6.09535 9.51507C6.08778 9.14268 6.08396 8.85111 6.08203 8.651C6.08107 8.55093 6.08058 8.47371 6.08033 8.42065L6.08011 8.35935L6.08008 8.33622C6.08008 7.13001 7.03213 6.13741 8.23729 6.08719Z"
  />
  <path
    d="M23.0524 17.0772C22.5424 15.944 21.2104 15.4388 20.0772 15.9487C18.944 16.4587 18.4388 17.7907 18.9487 18.9239C20.5636 22.5125 23.5024 26.8971 27.0306 31.342L21.224 30.7613C19.9876 30.6377 18.885 31.5398 18.7613 32.7763C18.6377 34.0128 19.5398 35.1154 20.7763 35.239L31.1648 36.2778C31.6062 36.7791 32.0519 37.2776 32.5005 37.7722C38.3464 44.2171 44.9699 50.2915 50.1494 53.4944C51.2063 54.148 52.5929 53.821 53.2464 52.7642C53.9 51.7073 53.5731 50.3207 52.5162 49.6671C47.8634 46.7898 41.5709 41.0741 35.8336 34.7489C35.6398 34.5352 35.4468 34.3211 35.2549 34.1067L36.3268 20.1727C36.4221 18.9337 35.495 17.8521 34.256 17.7567C33.017 17.6614 31.9354 18.5886 31.84 19.8275L31.1156 29.2441C27.4777 24.7358 24.5482 20.4013 23.0524 17.0772Z"
  />
</svg>
