<svg
  width="60"
  height="60"
  viewBox="0 0 60 60"
  fill="currentColor"
  xmlns="http://www.w3.org/2000/svg"
>
  <path
    fill-rule="evenodd"
    clip-rule="evenodd"
    d="M23.3373 14.423C22.762 13.9961 21.9845 13.963 21.375 14.3395L6.68236 23.4143C5.62512 24.0673 4.2387 23.7396 3.5857 22.6824C2.93271 21.6252 3.2604 20.2388 4.31764 19.5858L19.0103 10.5109C21.1872 9.16633 23.9638 9.28444 26.0187 10.809L37.0625 19.0028C37.6595 19.4458 38.4712 19.4632 39.0867 19.0463L52.2381 10.1372C53.2669 9.4403 54.6659 9.70934 55.3628 10.7381C56.0597 11.767 55.7907 13.1659 54.7619 13.8629L41.6105 22.7719C39.4124 24.2609 36.5134 24.1987 34.3812 22.6168L23.3373 14.423Z"
  />
  <path
    fill-rule="evenodd"
    clip-rule="evenodd"
    d="M2.75 48.0001C2.75 46.7574 3.75736 45.7501 5 45.7501H55C56.2426 45.7501 57.25 46.7574 57.25 48.0001C57.25 49.2427 56.2426 50.2501 55 50.2501H5C3.75736 50.2501 2.75 49.2427 2.75 48.0001Z"
  />
  <path
    fill-rule="evenodd"
    clip-rule="evenodd"
    d="M2.75 36.0001C2.75 34.7574 3.75736 33.7501 5 33.7501H55C56.2426 33.7501 57.25 34.7574 57.25 36.0001C57.25 37.2427 56.2426 38.2501 55 38.2501H5C3.75736 38.2501 2.75 37.2427 2.75 36.0001Z"
  />
</svg>
