<svg
  xmlns="http://www.w3.org/2000/svg"
  width="20"
  height="20"
  viewBox="0 0 20 20"
  fill="currentColor"
>
  <path
    d="M10 0C10.4602 0 10.8333 0.373096 10.8333 0.833333V1.66667C10.8333 2.1269 10.4602 2.5 10 2.5C9.53976 2.5 9.16667 2.1269 9.16667 1.66667V0.833333C9.16667 0.373096 9.53976 0 10 0Z"
  />
  <path
    d="M2.74408 2.74408C3.06951 2.41864 3.59715 2.41864 3.92259 2.74408L4.75592 3.57741C5.08136 3.90285 5.08136 4.43049 4.75592 4.75592C4.43049 5.08136 3.90285 5.08136 3.57741 4.75592L2.74408 3.92259C2.41864 3.59715 2.41864 3.06951 2.74408 2.74408Z"
  />
  <path
    d="M17.2559 2.74408C17.5814 3.06951 17.5814 3.59715 17.2559 3.92259L16.4226 4.75592C16.0972 5.08136 15.5695 5.08136 15.2441 4.75592C14.9186 4.43049 14.9186 3.90285 15.2441 3.57741L16.0774 2.74408C16.4028 2.41864 16.9305 2.41864 17.2559 2.74408Z"
  />
  <path
    d="M0 10C0 9.53976 0.373096 9.16667 0.833333 9.16667H1.66667C2.1269 9.16667 2.5 9.53976 2.5 10C2.5 10.4602 2.1269 10.8333 1.66667 10.8333H0.833333C0.373096 10.8333 0 10.4602 0 10Z"
  />
  <path
    d="M17.5 10C17.5 9.53976 17.8731 9.16667 18.3333 9.16667H19.1667C19.6269 9.16667 20 9.53976 20 10C20 10.4602 19.6269 10.8333 19.1667 10.8333H18.3333C17.8731 10.8333 17.5 10.4602 17.5 10Z"
  />
  <path
    d="M4.16667 10C4.16667 6.77834 6.77834 4.16667 10 4.16667C13.2217 4.16667 15.8333 6.77834 15.8333 10C15.8333 11.9833 14.8432 13.7345 13.3333 14.7876V15.8333C13.3333 17.6743 11.8409 19.1667 10 19.1667C8.15905 19.1667 6.66667 17.6743 6.66667 15.8333V14.7876C5.15682 13.7345 4.16667 11.9833 4.16667 10ZM10 5.83333C7.69881 5.83333 5.83333 7.69881 5.83333 10C5.83333 11.5412 6.66968 12.8881 7.91727 13.6098C8.17476 13.7587 8.33333 14.0336 8.33333 14.3311V15H11.6667V14.3311C11.6667 14.0336 11.8252 13.7587 12.0827 13.6098C13.3303 12.8881 14.1667 11.5412 14.1667 10C14.1667 7.69881 12.3012 5.83333 10 5.83333ZM11.4437 16.6667H8.5563C8.84448 17.1648 9.3831 17.5 10 17.5C10.6169 17.5 11.1555 17.1648 11.4437 16.6667Z"
  />
</svg>
