<svg
  width="60"
  height="60"
  viewBox="0 0 60 60"
  fill="currentColor"
  xmlns="http://www.w3.org/2000/svg"
>
  <path
    fill-rule="evenodd"
    clip-rule="evenodd"
    d="M28.4507 4.546C31.6641 0.936148 37.8131 3.11494 37.8131 8.05509V24.8621H43.8742C48.4282 24.8621 51.0161 30.1997 47.8914 33.6938L27.5348 56.4516C27.534 56.4525 27.5331 56.4534 27.5323 56.4544C24.3188 60.0638 18.1702 57.8849 18.1702 52.945V36.1379H12.1091C7.56167 36.1379 5.01827 30.7961 8.08061 27.319L8.09213 27.306L28.4485 4.54844C28.4492 4.54762 28.4499 4.54681 28.4507 4.546ZM32.7695 7.3125C32.4106 7.17928 32.0649 7.25351 31.8114 7.53861L31.8069 7.54358L11.4538 30.2976C11.0252 30.7913 11.3334 31.6379 12.1091 31.6379H20.4202C21.6629 31.6379 22.6702 32.6453 22.6702 33.8879V52.945C22.6702 53.2882 22.8557 53.5546 23.2138 53.6876C23.5726 53.8208 23.9184 53.7466 24.1719 53.4614L24.1763 53.4565L44.537 30.6941C44.9627 30.2181 44.6995 29.3621 43.8742 29.3621H35.5631C34.3205 29.3621 33.3131 28.3548 33.3131 27.1121V8.05509C33.3131 7.71187 33.1276 7.44545 32.7695 7.3125Z"
  />
</svg>
