<svg
  width="60"
  height="60"
  viewBox="0 0 60 60"
  fill="currentColor"
  xmlns="http://www.w3.org/2000/svg"
>
  <path
    fill-rule="evenodd"
    clip-rule="evenodd"
    d="M41.6859 11.5573C41.6279 4.21302 32.7238 0.599921 27.5645 5.82713C27.2772 6.11819 27.0012 6.50371 26.7663 6.85019C26.5068 7.23295 26.1989 7.71787 25.8414 8.29813C25.1282 9.45543 24.1622 11.0824 22.8949 13.2169L19.6145 18.7416C19.1977 19.4437 19.1208 19.5578 19.0525 19.6375C18.7879 19.9467 18.4238 20.1539 18.0229 20.2237C17.9194 20.2416 17.7821 20.2495 16.9656 20.2495H16.6308C15.432 20.2495 14.4313 20.2495 13.6079 20.3001C12.7514 20.3527 11.9404 20.466 11.1457 20.759C8.88046 21.5943 7.0948 23.38 6.2595 25.6452C5.96646 26.4399 5.85317 27.251 5.80056 28.1074C5.74997 28.9308 5.74999 29.9316 5.75 31.1304L5.75 42.9908C5.74997 44.5933 5.74995 45.9309 5.83922 47.0235C5.93234 48.1632 6.13367 49.2332 6.6492 50.245C7.44016 51.7973 8.70224 53.0594 10.2546 53.8503C11.2664 54.3659 12.3363 54.5672 13.476 54.6603C14.5687 54.7496 15.9062 54.7496 17.5086 54.7495L38.8775 54.7497C42.0788 54.7511 44.2883 54.7521 46.2382 54.0052C47.9547 53.3477 49.484 52.2796 50.6923 50.8943C52.0648 49.3207 52.8245 47.246 53.9252 44.2398L55.1699 40.8447C56.0551 38.4306 56.7601 36.5079 57.2144 34.9402C57.6748 33.3516 57.9465 31.9109 57.8189 30.4918C57.4614 26.5177 55.0257 23.0302 51.4175 21.3265C50.1291 20.7182 48.6829 20.4773 47.033 20.3626C45.4046 20.2495 43.3569 20.2495 40.7855 20.2495L39.8528 20.2495L39.8861 20.1102C40.4643 17.6968 40.9051 15.8572 41.2 14.5304C41.3479 13.865 41.4649 13.3027 41.5455 12.8473C41.6185 12.4351 41.6891 11.9663 41.6859 11.5573ZM30.7672 8.98824C33.1124 6.61224 37.1597 8.25456 37.186 11.5929C37.1859 11.5804 37.1859 11.5811 37.184 11.5986C37.1795 11.6406 37.1646 11.7792 37.1144 12.0631C37.0508 12.4225 36.9502 12.9105 36.8072 13.554C36.5213 14.8403 36.0892 16.6442 35.5038 19.0874L35.4831 19.1732C35.4148 19.4556 35.3269 19.8193 35.2996 20.1572C35.1203 22.3755 36.6827 24.3564 38.8817 24.6989C39.2167 24.7511 39.5908 24.7503 39.8813 24.7497L39.9697 24.7495H40.6996C43.3762 24.7495 45.2672 24.7508 46.7211 24.8518C48.1714 24.9526 48.9597 25.1425 49.4961 25.3957C51.661 26.4179 53.1225 28.5104 53.3369 30.8949C53.3901 31.4857 53.297 32.2912 52.8923 33.6876C52.4866 35.0873 51.8368 36.8632 50.9154 39.3762L49.8499 42.2822C48.5383 45.8592 48.0556 47.0712 47.301 47.9364C46.576 48.7676 45.6585 49.4084 44.6286 49.8029C43.5565 50.2136 42.2524 50.2495 38.4425 50.2495H22.25L22.25 22.8087C22.3257 22.7293 22.3994 22.6476 22.4711 22.5639C22.8257 22.1496 23.109 21.6716 23.4159 21.1537L26.7514 15.5358C28.034 13.3756 28.9811 11.7807 29.6724 10.6589C30.0183 10.0976 30.2862 9.6775 30.491 9.37543C30.6528 9.13673 30.7387 9.02704 30.7647 8.99377C30.7756 8.97989 30.776 8.97932 30.7672 8.98824ZM17.75 24.7454C17.5384 24.75 17.3218 24.7498 17.0989 24.7496L16.6989 24.7495C15.4146 24.7495 14.5528 24.7505 13.8838 24.7916C13.2324 24.8316 12.9128 24.9036 12.7026 24.9811C11.6729 25.3608 10.8613 26.1725 10.4816 27.2021C10.4041 27.4123 10.3321 27.732 10.2921 28.3834C10.251 29.0523 10.25 29.9141 10.25 31.1984V42.8995C10.25 44.6168 10.2518 45.7695 10.3243 46.6571C10.3947 47.5185 10.5203 47.9303 10.6587 48.202C11.0183 48.9076 11.5919 49.4813 12.2975 49.8408C12.5692 49.9792 12.9811 50.1049 13.8424 50.1753C14.7301 50.2478 15.8827 50.2495 17.6 50.2495H17.75L17.75 24.7454Z"
  />
</svg>
