<svg
  width="60"
  height="60"
  viewBox="0 0 60 60"
  fill="currentColor"
  xmlns="http://www.w3.org/2000/svg"
>
  <path
    d="M27.5645 5.82762C32.7238 0.60041 41.6279 4.21351 41.6859 11.5578C41.6891 11.9668 41.6185 12.4356 41.5455 12.8478C41.4649 13.3032 41.3479 13.8655 41.2 14.5309C40.9051 15.8576 40.4644 17.6971 39.8862 20.1104L39.8528 20.25L40.7855 20.25C43.3568 20.25 45.4046 20.25 47.033 20.3631C48.6829 20.4778 50.1291 20.7187 51.4175 21.327C55.0257 23.0307 57.4614 26.5182 57.8189 30.4923C57.9465 31.9114 57.6748 33.3521 57.2145 34.9407C56.7601 36.5084 56.0552 38.4309 55.17 40.845L53.9252 44.2402C52.8245 47.2465 52.0648 49.3212 50.6923 50.8948C49.484 52.2801 47.9548 53.3482 46.2382 54.0057C44.2882 54.7526 42.0789 54.7516 38.8775 54.7501L20.25 54.75L20.25 17.6719L22.895 13.2171C24.1623 11.0828 25.1282 9.45589 25.8414 8.29862C26.1989 7.71836 26.5068 7.23344 26.7663 6.85068C27.0012 6.50419 27.2772 6.11868 27.5645 5.82762Z"
  />
  <path
    d="M15.75 20.2509C14.932 20.2533 14.2208 20.2629 13.6079 20.3006C12.7514 20.3532 11.9404 20.4665 11.1457 20.7595C8.88046 21.5948 7.0948 23.3805 6.2595 25.6457C5.96646 26.4404 5.85317 27.2515 5.80056 28.1079C5.74997 28.9313 5.74999 29.9321 5.75 31.1309L5.75 42.9913C5.74997 44.5937 5.74995 45.9313 5.83922 47.024C5.93234 48.1637 6.13367 49.2337 6.6492 50.2454C7.44016 51.7978 8.70224 53.0599 10.2546 53.8508C11.2664 54.3664 12.3363 54.5677 13.476 54.6608C14.1416 54.7152 14.8981 54.7364 15.75 54.7447L15.75 20.2509Z"
  />
</svg>
