<svg
  width="60"
  height="60"
  viewBox="0 0 60 60"
  fill="currentColor"
  xmlns="http://www.w3.org/2000/svg"
>
  <path
    fill-rule="evenodd"
    clip-rule="evenodd"
    d="M41.6859 11.5578C41.6279 4.21351 32.7238 0.60041 27.5645 5.82762C27.2772 6.11868 27.0012 6.50419 26.7663 6.85068C26.5068 7.23344 26.1989 7.71836 25.8414 8.29862C25.1282 9.45589 24.1623 11.0828 22.895 13.2171L19.6145 18.7421C19.1977 19.4442 19.1208 19.5583 19.0525 19.638C18.7879 19.9472 18.4238 20.1544 18.0229 20.2242C17.9194 20.2421 17.7821 20.25 16.9656 20.25H16.6309C15.4321 20.25 14.4313 20.25 13.6079 20.3006C12.7514 20.3532 11.9404 20.4665 11.1457 20.7595C8.88046 21.5948 7.0948 23.3805 6.2595 25.6457C5.96646 26.4404 5.85317 27.2515 5.80056 28.1079C5.74997 28.9313 5.74999 29.9321 5.75 31.1309L5.75 42.9913C5.74997 44.5937 5.74995 45.9313 5.83922 47.024C5.93234 48.1637 6.13367 49.2337 6.6492 50.2454C7.44016 51.7978 8.70224 53.0599 10.2546 53.8508C11.2664 54.3664 12.3363 54.5677 13.476 54.6608C14.5687 54.7501 15.9062 54.7501 17.5086 54.75L38.8775 54.7501C42.0789 54.7516 44.2882 54.7526 46.2382 54.0057C47.9547 53.3482 49.484 52.2801 50.6923 50.8948C52.0648 49.3212 52.8245 47.2465 53.9252 44.2402L55.17 40.845C56.0552 38.4309 56.7601 36.5084 57.2144 34.9407C57.6748 33.3521 57.9465 31.9114 57.8189 30.4923C57.4614 26.5182 55.0257 23.0307 51.4175 21.327C50.1291 20.7187 48.6829 20.4778 47.033 20.3631C45.4046 20.25 43.3568 20.25 40.7855 20.25L39.8528 20.25L39.8862 20.1104C40.4644 17.6971 40.9051 15.8576 41.2 14.5309C41.3479 13.8655 41.4649 13.3032 41.5455 12.8478C41.6185 12.4356 41.6891 11.9668 41.6859 11.5578ZM30.7672 8.98873C33.1124 6.61273 37.1597 8.25505 37.186 11.5934C37.186 11.5865 37.1859 11.5836 37.1856 11.5853C37.1853 11.5867 37.1848 11.5912 37.184 11.5991C37.1795 11.6411 37.1646 11.7797 37.1144 12.0636C37.0508 12.4229 36.9502 12.911 36.8072 13.5545C36.5213 14.8408 36.0892 16.6447 35.5038 19.0879L35.4831 19.1737C35.4148 19.4561 35.3269 19.8197 35.2996 20.1576C35.1203 22.376 36.6827 24.3569 38.8817 24.6994C39.2167 24.7516 39.5908 24.7508 39.8814 24.7501L39.9697 24.75H40.6996C43.3762 24.75 45.2672 24.7513 46.7211 24.8523C48.1715 24.9531 48.9597 25.143 49.4961 25.3962C51.661 26.4184 53.1225 28.5109 53.3369 30.8954C53.3901 31.4862 53.297 32.2917 52.8923 33.6881C52.4866 35.0878 51.8368 36.8637 50.9154 39.3767L49.8499 42.2827C48.5383 45.8597 48.0556 47.0717 47.301 47.9369C46.576 48.768 45.6585 49.4089 44.6286 49.8034C43.5565 50.2141 42.2524 50.25 38.4425 50.25H20.25L20.25 24.2164C21.0987 23.8412 21.8593 23.279 22.4711 22.5644C22.8257 22.1501 23.1089 21.6721 23.4159 21.1542L26.7514 15.5363C28.034 13.3761 28.9811 11.7812 29.6724 10.6593C30.0183 10.0981 30.2862 9.67799 30.491 9.37592C30.6528 9.13723 30.7387 9.02754 30.7647 8.99427C30.7756 8.9804 30.776 8.97981 30.7672 8.98873ZM15.75 24.751C14.965 24.7535 14.3729 24.7621 13.8838 24.7921C13.2324 24.8321 12.9128 24.9041 12.7026 24.9816C11.6729 25.3613 10.8613 26.173 10.4816 27.2026C10.4041 27.4128 10.3321 27.7325 10.2921 28.3838C10.251 29.0528 10.25 29.9146 10.25 31.1989V42.9C10.25 44.6173 10.2518 45.77 10.3243 46.6576C10.3947 47.519 10.5203 47.9308 10.6587 48.2025C11.0183 48.9081 11.5919 49.4818 12.2975 49.8413C12.5692 49.9797 12.9811 50.1054 13.8424 50.1757C14.3657 50.2185 14.9811 50.2367 15.75 50.2444L15.75 24.751Z"
  />
</svg>
