<svg
  width="60"
  height="60"
  viewBox="0 0 60 60"
  fill="currentColor"
  xmlns="http://www.w3.org/2000/svg"
>
  <path
    d="M13.409 37.2374C12.5303 38.1161 12.5303 39.5407 13.409 40.4194L26.9948 54.0051C28.6545 55.6649 31.3455 55.6649 33.0052 54.0051L46.591 40.4194C47.4697 39.5407 47.4697 38.1161 46.591 37.2374C45.7123 36.3587 44.2877 36.3587 43.409 37.2374L32.25 48.3964L32.25 17.8284C32.25 16.5857 31.2426 15.5784 30 15.5784C28.7574 15.5784 27.75 16.5857 27.75 17.8284L27.75 48.3964L16.591 37.2374C15.7123 36.3587 14.2877 36.3587 13.409 37.2374Z"
  />
  <path
    d="M12 7.57837C10.7574 7.57837 9.75 8.58573 9.75 9.82837C9.75 11.071 10.7574 12.0784 12 12.0784H47.9994C49.2421 12.0784 50.25 11.071 50.25 9.82837C50.25 8.58573 49.2426 7.57837 48 7.57837H12Z"
  />
</svg>
