<svg
  width="60"
  height="60"
  viewBox="0 0 60 60"
  fill="currentColor"
  xmlns="http://www.w3.org/2000/svg"
>
  <path
    d="M35.409 47.591C36.2877 48.4697 37.7123 48.4697 38.591 47.591L52.1768 34.0052C53.8365 32.3455 53.8365 29.6545 52.1768 27.9948L38.591 14.409C37.7123 13.5303 36.2877 13.5303 35.409 14.409C34.5303 15.2877 34.5303 16.7123 35.409 17.591L46.568 28.75L16 28.75C14.7574 28.75 13.75 29.7574 13.75 31C13.75 32.2426 14.7574 33.25 16 33.25L46.568 33.25L35.409 44.409C34.5303 45.2877 34.5303 46.7123 35.409 47.591Z"
  />
  <path
    d="M5.75 49C5.75 50.2426 6.75736 51.25 8 51.25C9.24264 51.25 10.25 50.2426 10.25 49L10.25 13.0006C10.25 11.7579 9.24264 10.75 8 10.75C6.75736 10.75 5.75 11.7574 5.75 13L5.75 49Z"
  />
</svg>
