<svg
  width="60"
  height="60"
  viewBox="0 0 60 60"
  fill="currentColor"
  xmlns="http://www.w3.org/2000/svg"
>
  <path
    fill-rule="evenodd"
    clip-rule="evenodd"
    d="M24.195 7.59628C25.4499 6.08757 27.3405 5.25587 29.3007 5.35027C30.7561 5.42036 32.0143 6.21126 33.0945 7.03673C34.2036 7.8843 35.5367 9.10634 37.1618 10.5961L51.4393 23.6838C52.2762 24.4509 53.0055 25.1193 53.5582 25.7191C54.1417 26.3522 54.68 27.065 54.9901 27.9657C55.4439 29.284 55.4439 30.7161 54.9901 32.0344C54.68 32.9351 54.1417 33.6479 53.5582 34.281C53.0055 34.8808 52.2762 35.5493 51.4393 36.3163L37.1618 49.404C35.5367 50.8938 34.2036 52.1159 33.0945 52.9634C32.0143 53.7889 30.7561 54.5798 29.3007 54.6499C27.3406 54.7443 25.4499 53.9126 24.195 52.4039C23.2632 51.2837 22.996 49.8218 22.8746 48.4677C22.7731 47.3353 22.7543 45.9255 22.7508 44.2501H21.3154C20.2677 44.2501 19.3491 44.2502 18.5896 44.1881C17.7835 44.1223 16.9605 43.9754 16.1626 43.5689C14.9866 42.9697 14.0305 42.0136 13.4312 40.8375C13.0247 40.0397 12.8779 39.2167 12.812 38.4105C12.75 37.651 12.75 36.7325 12.75 35.6847V24.3155C12.75 23.2677 12.75 22.3492 12.812 21.5897C12.8779 20.7835 13.0247 19.9605 13.4312 19.1627C14.0305 17.9866 14.9866 17.0305 16.1626 16.4313C16.9605 16.0248 17.7835 15.8779 18.5896 15.8121C19.3491 15.75 20.2677 15.7501 21.3155 15.7501L22.7508 15.7501C22.7543 14.0747 22.7731 12.6649 22.8746 11.5325C22.996 10.1784 23.2632 8.71649 24.195 7.59628ZM29.0842 9.84506C28.5354 9.81863 28.006 10.0515 27.6546 10.4739C27.6457 10.4872 27.4619 10.7607 27.3566 11.9343C27.2522 13.0989 27.25 14.7034 27.25 17.0488V18.0001C27.25 18.5968 27.013 19.1691 26.591 19.5911C26.1691 20.0131 25.5968 20.2501 25 20.2501H21.4C20.2428 20.2501 19.5102 20.2519 18.9561 20.2971C18.4282 20.3403 18.2633 20.4114 18.2056 20.4408C17.8763 20.6086 17.6086 20.8763 17.4408 21.2056C17.4113 21.2634 17.3402 21.4283 17.2971 21.9561C17.2518 22.5103 17.25 23.2429 17.25 24.4001V35.6001C17.25 36.7573 17.2518 37.4899 17.2971 38.0441C17.3402 38.5719 17.4113 38.7368 17.4408 38.7946C17.6086 39.1239 17.8763 39.3916 18.2056 39.5594C18.2633 39.5888 18.4282 39.66 18.9561 39.7031C19.5102 39.7484 20.2428 39.7501 21.4 39.7501H25C26.2427 39.7501 27.25 40.7575 27.25 42.0001V42.9514C27.25 45.2967 27.2522 46.9012 27.3566 48.0658C27.4619 49.2395 27.6455 49.5126 27.6545 49.5259C28.0058 49.9484 28.5354 50.1816 29.0842 50.1551C29.1 50.1527 29.4258 50.1034 30.3621 49.388C31.2912 48.678 32.4754 47.5954 34.2043 46.0105L48.333 33.0592C49.2544 32.2146 49.8407 31.6746 50.2491 31.2314C50.6412 30.806 50.7146 30.6293 50.7351 30.5697C50.8622 30.2005 50.8622 29.7995 50.7351 29.4304C50.7146 29.3708 50.6412 29.1941 50.2491 28.7687C49.8407 28.3255 49.2544 27.7855 48.3329 26.9409L34.2043 13.9896C32.4754 12.4048 31.2912 11.3222 30.3621 10.6122C29.4258 9.89672 29.1 9.84745 29.0842 9.84506Z"
  />
  <path
    fill-rule="evenodd"
    clip-rule="evenodd"
    d="M7 15.7501C8.24264 15.7501 9.25 16.7575 9.25 18.0001L9.25 42.0001C9.25 43.2427 8.24264 44.2501 7 44.2501C5.75736 44.2501 4.75 43.2427 4.75 42.0001L4.75 18.0001C4.75 16.7575 5.75736 15.7501 7 15.7501Z"
  />
</svg>
