<svg
  width="60"
  height="60"
  viewBox="0 0 60 60"
  fill="currentColor"
  xmlns="http://www.w3.org/2000/svg"
>
  <path
    d="M46.591 25.5909C47.4697 24.7123 47.4697 23.2876 46.591 22.409L33.0052 8.82317C31.3455 7.16344 28.6545 7.16344 26.9948 8.82316L13.409 22.409C12.5303 23.2876 12.5303 24.7123 13.409 25.5909C14.2877 26.4696 15.7123 26.4696 16.591 25.5909L27.75 14.4319L27.75 44.9999C27.75 46.2426 28.7574 47.2499 30 47.2499C31.2426 47.2499 32.25 46.2426 32.25 44.9999L32.25 14.4319L43.409 25.5909C44.2877 26.4696 45.7123 26.4696 46.591 25.5909Z"
  />
  <path
    d="M48 55.2499C49.2426 55.2499 50.25 54.2426 50.25 52.9999C50.25 51.7573 49.2426 50.7499 48 50.7499H12.0006C10.7579 50.7499 9.75 51.7573 9.75 52.9999C9.75 54.2426 10.7574 55.2499 12 55.2499H48Z"
  />
</svg>
