<svg
  width="60"
  height="60"
  viewBox="0 0 60 60"
  fill="currentColor"
  xmlns="http://www.w3.org/2000/svg"
>
  <path
    fill-rule="evenodd"
    clip-rule="evenodd"
    d="M37.3664 15.764L25.9047 48.5118C24.9559 51.2227 21.2147 51.4605 19.9303 48.8916L11.6094 32.25H5C3.75736 32.25 2.75 31.2426 2.75 30C2.75 28.7573 3.75736 27.75 5 27.75H12.382C13.613 27.75 14.7383 28.4455 15.2889 29.5465L22.6336 44.236L34.0953 11.4881C35.0441 8.77722 38.7853 8.53942 40.0697 11.1083L48.3906 27.75H55C56.2426 27.75 57.25 28.7573 57.25 30C57.25 31.2426 56.2426 32.25 55 32.25H47.618C46.387 32.25 45.2617 31.5544 44.7111 30.4534L37.3664 15.764Z"
  />
</svg>
