<svg
  width="60"
  height="60"
  viewBox="0 0 60 60"
  fill="currentColor"
  xmlns="http://www.w3.org/2000/svg"
>
  <path
    fill-rule="evenodd"
    clip-rule="evenodd"
    d="M30.2391 17.9511L22.1953 48.5939C21.473 51.3457 17.6076 51.4569 16.7283 48.7512L11.3654 32.25H5C3.75736 32.25 2.75 31.2427 2.75 30C2.75 28.7574 3.75736 27.75 5 27.75H12.2735C13.6814 27.75 14.9292 28.6565 15.3644 29.9955L19.2702 42.0135L27.3071 11.3967C28.0285 8.64861 31.8867 8.53266 32.7719 11.2324L40.1424 33.7124L44.8637 21.1221C45.7689 18.7084 49.1586 18.641 50.1589 21.0169L52.9939 27.75H55C56.2426 27.75 57.25 28.7574 57.25 30C57.25 31.2427 56.2426 32.25 55 32.25H52.164C50.8564 32.25 49.6761 31.4664 49.1687 30.2612L47.621 26.5855L42.7065 39.6907C41.761 42.2121 38.1688 42.1367 37.3298 39.5779L30.2391 17.9511Z"
  />
</svg>
