<svg
  width="60"
  height="60"
  viewBox="0 0 60 60"
  fill="currentColor"
  xmlns="http://www.w3.org/2000/svg"
>
  <path
    fill-rule="evenodd"
    clip-rule="evenodd"
    d="M56.7501 47C56.7501 48.2426 55.7427 49.25 54.5001 49.25H9.5C6.04822 49.25 3.25 46.4518 3.25 43L3.25 13.5C3.25 12.2574 4.25736 11.25 5.5 11.25C6.74264 11.25 7.75 12.2574 7.75 13.5L7.75 43C7.75 43.9665 8.5335 44.75 9.5 44.75H54.5001C55.7427 44.75 56.7501 45.7574 56.7501 47Z"
  />
  <path
    fill-rule="evenodd"
    clip-rule="evenodd"
    d="M53.591 14.4088C54.4697 15.2875 54.4697 16.7121 53.5911 17.5908L33.5911 37.5909C32.7124 38.4695 31.2878 38.4695 30.4091 37.5909L24.3019 31.4837L15.3928 40.3929C14.5141 41.2715 13.0895 41.2715 12.2108 40.3929C11.3322 39.5142 11.3322 38.0896 12.2108 37.2109L22.7109 26.7108C23.5896 25.8321 25.0142 25.8321 25.8929 26.7107L32.0001 32.8179L50.4091 14.4088C51.2877 13.5301 52.7124 13.5301 53.591 14.4088Z"
  />
</svg>
