<svg
  width="60"
  height="60"
  viewBox="0 0 60 60"
  fill="currentColor"
  xmlns="http://www.w3.org/2000/svg"
>
  <path
    d="M23.7626 47.591C22.8839 48.4697 21.4593 48.4697 20.5806 47.591L6.9948 34.0052C5.33507 32.3455 5.33507 29.6545 6.9948 27.9948L20.5806 14.409C21.4593 13.5303 22.8839 13.5303 23.7626 14.409C24.6412 15.2877 24.6412 16.7123 23.7626 17.591L12.6036 28.75L43.1716 28.75C44.4142 28.75 45.4216 29.7574 45.4216 31C45.4216 32.2426 44.4142 33.25 43.1716 33.25L12.6036 33.25L23.7626 44.409C24.6412 45.2877 24.6412 46.7123 23.7626 47.591Z"
  />
  <path
    d="M53.4216 49C53.4216 50.2426 52.4142 51.25 51.1716 51.25C49.9289 51.25 48.9216 50.2426 48.9216 49V13.0006C48.9216 11.7579 49.9289 10.75 51.1716 10.75C52.4142 10.75 53.4216 11.7574 53.4216 13V49Z"
  />
</svg>
