<svg
  width="60"
  height="60"
  viewBox="0 0 60 60"
  fill="currentColor"
  xmlns="http://www.w3.org/2000/svg"
>
  <path
    fill-rule="evenodd"
    clip-rule="evenodd"
    d="M7.59618 24.195C6.08748 25.4499 5.25578 27.3405 5.35018 29.3007C5.42027 30.7561 6.21117 32.0143 7.03664 33.0945C7.88421 34.2036 9.10625 35.5367 10.596 37.1618L23.6837 51.4393C24.4508 52.2762 25.1192 53.0055 25.719 53.5582C26.3521 54.1417 27.0649 54.68 27.9656 54.9901C29.2839 55.4439 30.716 55.4439 32.0343 54.9901C32.935 54.68 33.6478 54.1417 34.2809 53.5582C34.8807 53.0055 35.5492 52.2762 36.3162 51.4393L49.4039 37.1618C50.8937 35.5367 52.1158 34.2036 52.9633 33.0945C53.7888 32.0143 54.5797 30.7561 54.6498 29.3007C54.7442 27.3406 53.9125 25.4499 52.4038 24.195C51.2836 23.2632 49.8217 22.996 48.4676 22.8746C47.3352 22.7731 45.9254 22.7543 44.25 22.7508V21.3154C44.2501 20.2677 44.2501 19.3491 44.188 18.5896C44.1222 17.7835 43.9753 16.9605 43.5688 16.1626C42.9696 14.9866 42.0135 14.0305 40.8374 13.4312C40.0396 13.0247 39.2166 12.8779 38.4104 12.812C37.6509 12.75 36.7324 12.75 35.6846 12.75H24.3154C23.2677 12.75 22.3491 12.75 21.5896 12.812C20.7834 12.8779 19.9604 13.0247 19.1626 13.4312C17.9866 14.0305 17.0304 14.9866 16.4312 16.1626C16.0247 16.9605 15.8778 17.7835 15.812 18.5896C15.7499 19.3491 15.75 20.2677 15.75 21.3155L15.75 22.7508C14.0746 22.7543 12.6648 22.7731 11.5324 22.8746C10.1783 22.996 8.7164 23.2632 7.59618 24.195ZM9.84497 29.0842C9.81853 28.5354 10.0514 28.006 10.4738 27.6546C10.4871 27.6457 10.7606 27.4619 11.9342 27.3566C13.0989 27.2522 14.7033 27.25 17.0487 27.25H18C18.5967 27.25 19.169 27.013 19.591 26.591C20.013 26.1691 20.25 25.5968 20.25 25V21.4C20.25 20.2428 20.2518 19.5102 20.297 18.9561C20.3402 18.4282 20.4113 18.2633 20.4407 18.2056C20.6085 17.8763 20.8762 17.6086 21.2055 17.4408C21.2633 17.4113 21.4282 17.3402 21.956 17.2971C22.5102 17.2518 23.2428 17.25 24.4 17.25H35.6C36.7572 17.25 37.4898 17.2518 38.044 17.2971C38.5718 17.3402 38.7367 17.4113 38.7945 17.4408C39.1238 17.6086 39.3915 17.8763 39.5593 18.2056C39.5887 18.2633 39.6599 18.4282 39.703 18.9561C39.7483 19.5102 39.75 20.2428 39.75 21.4V25C39.75 26.2427 40.7574 27.25 42 27.25H42.9513C45.2967 27.25 46.9011 27.2522 48.0658 27.3566C49.2394 27.4619 49.5126 27.6455 49.5258 27.6545C49.9483 28.0058 50.1815 28.5354 50.155 29.0842C50.1526 29.1 50.1034 29.4258 49.3879 30.3621C48.6779 31.2912 47.5953 32.4754 46.0105 34.2043L33.0591 48.333C32.2145 49.2544 31.6745 49.8407 31.2313 50.2491C30.8059 50.6412 30.6292 50.7146 30.5696 50.7351C30.2005 50.8622 29.7994 50.8622 29.4303 50.7351C29.3707 50.7146 29.194 50.6412 28.7686 50.2491C28.3254 49.8407 27.7854 49.2544 26.9408 48.3329L13.9895 34.2043C12.4047 32.4754 11.3221 31.2912 10.6121 30.3621C9.89663 29.4258 9.84735 29.1 9.84497 29.0842Z"
  />
  <path
    fill-rule="evenodd"
    clip-rule="evenodd"
    d="M15.75 7C15.75 8.24264 16.7574 9.25 18 9.25H42C43.2427 9.25 44.25 8.24264 44.25 7C44.25 5.75736 43.2427 4.75 42 4.75H18C16.7574 4.75 15.75 5.75736 15.75 7Z"
  />
</svg>
