<svg
  width="60"
  height="60"
  viewBox="0 0 60 60"
  fill="currentColor"
  xmlns="http://www.w3.org/2000/svg"
>
  <path
    fill-rule="evenodd"
    clip-rule="evenodd"
    d="M35.805 52.4039C34.5501 53.9126 32.6595 54.7443 30.6993 54.6499C29.2439 54.5798 27.9857 53.7889 26.9055 52.9634C25.7964 52.1159 24.4633 50.8938 22.8382 49.4041L8.5607 36.3164C7.72384 35.5493 6.99453 34.8809 6.44179 34.2811C5.85833 33.6479 5.31999 32.9352 5.00993 32.0345C4.55612 30.7162 4.55612 29.2841 5.00993 27.9658C5.31998 27.0651 5.85832 26.3523 6.44178 25.7192C6.99453 25.1194 7.72384 24.4509 8.56071 23.6839L22.8382 10.5962C24.4633 9.10637 25.7964 7.88432 26.9055 7.03675C27.9857 6.21128 29.2439 5.42036 30.6993 5.35027C32.6594 5.25587 34.5501 6.08757 35.805 7.59627C36.7368 8.71649 37.004 10.1784 37.1254 11.5325C37.2269 12.6649 37.2457 14.0747 37.2492 15.7501H38.6846C39.7324 15.75 40.6509 15.75 41.4104 15.812C42.2165 15.8779 43.0395 16.0247 43.8374 16.4313C45.0134 17.0305 45.9695 17.9866 46.5688 19.1626C46.9753 19.9605 47.1221 20.7835 47.188 21.5897C47.25 22.3492 47.25 23.2677 47.25 24.3155V35.6846C47.25 36.7324 47.25 37.651 47.188 38.4105C47.1221 39.2166 46.9753 40.0396 46.5688 40.8375C45.9695 42.0135 45.0134 42.9697 43.8374 43.5689C43.0395 43.9754 42.2165 44.1222 41.4104 44.1881C40.6509 44.2502 39.7323 44.2501 38.6845 44.2501H37.2492C37.2457 45.9255 37.2269 47.3353 37.1254 48.4677C37.004 49.8218 36.7368 51.2837 35.805 52.4039ZM30.9158 50.1551C31.4646 50.1816 31.994 49.9487 32.3454 49.5262C32.3543 49.513 32.5382 49.2395 32.6434 48.0658C32.7478 46.9012 32.75 45.2968 32.75 42.9514V42.0001C32.75 41.4033 32.987 40.831 33.409 40.4091C33.831 39.9871 34.4032 39.7501 35 39.7501H38.6C39.7572 39.7501 40.4898 39.7483 41.0439 39.7031C41.5718 39.6599 41.7367 39.5888 41.7944 39.5593C42.1237 39.3916 42.3914 39.1238 42.5592 38.7946C42.5887 38.7368 42.6598 38.5719 42.7029 38.044C42.7482 37.4899 42.75 36.7573 42.75 35.6001V24.4001C42.75 23.2428 42.7482 22.5102 42.7029 21.9561C42.6598 21.4282 42.5887 21.2634 42.5592 21.2056C42.3914 20.8763 42.1237 20.6086 41.7944 20.4408C41.7367 20.4114 41.5718 20.3402 41.0439 20.2971C40.4898 20.2518 39.7572 20.2501 38.6 20.2501L35 20.2501C33.7573 20.2501 32.75 19.2427 32.75 18.0001V17.0488C32.75 14.7034 32.7478 13.099 32.6434 11.9343C32.5382 10.7607 32.3545 10.4875 32.3455 10.4743C31.9942 10.0518 31.4646 9.81862 30.9158 9.84506C30.9 9.84745 30.5742 9.89673 29.6379 10.6122C28.7088 11.3222 27.5246 12.4048 25.7957 13.9896L11.6671 26.9409C10.7456 27.7856 10.1593 28.3256 9.75089 28.7688C9.35881 29.1942 9.28541 29.3708 9.26487 29.4305C9.1378 29.7996 9.1378 30.2006 9.26487 30.5698C9.28541 30.6294 9.35881 30.8061 9.75089 31.2315C10.1593 31.6747 10.7456 32.2147 11.6671 33.0593L25.7957 46.0106C27.5246 47.5954 28.7089 48.678 29.6379 49.388C30.5742 50.1035 30.9 50.1527 30.9158 50.1551Z"
  />
  <path
    fill-rule="evenodd"
    clip-rule="evenodd"
    d="M53 44.2501C51.7574 44.2501 50.75 43.2427 50.75 42.0001V18.0001C50.75 16.7574 51.7574 15.7501 53 15.7501C54.2426 15.7501 55.25 16.7574 55.25 18.0001V42.0001C55.25 43.2427 54.2426 44.2501 53 44.2501Z"
  />
</svg>
