<svg
  width="60"
  height="60"
  viewBox="0 0 60 60"
  fill="currentColor"
  xmlns="http://www.w3.org/2000/svg"
>
  <path
    fill-rule="evenodd"
    clip-rule="evenodd"
    d="M18.2763 10.5159C19.0089 7.72301 22.9526 7.66477 23.7673 10.4348L33.341 42.9855L38.7681 21.6165C39.4858 18.7904 43.4818 18.7381 44.2733 21.5444L48.7032 37.2501H55C56.2426 37.2501 57.25 38.2575 57.25 39.5001C57.25 40.7428 56.2426 41.7501 55 41.7501H47.757C46.3018 41.7501 45.024 40.7829 44.629 39.3824L41.6139 28.6924L36.2199 49.9311C35.5063 52.7409 31.5414 52.815 30.7234 50.0337L21.124 17.3957L15.3721 39.3247C14.9973 40.7537 13.7058 41.7501 12.2285 41.7501H5C3.75736 41.7501 2.75 40.7428 2.75 39.5001C2.75 38.2575 3.75736 37.2501 5 37.2501H11.2641L18.2763 10.5159Z"
  />
</svg>
