<svg
  width="60"
  height="60"
  viewBox="0 0 60 60"
  fill="currentColor"
  xmlns="http://www.w3.org/2000/svg"
>
  <path
    d="M5 20.6522C5 15.1734 5 12.434 6.06624 10.3414C7.00413 8.50068 8.50068 7.00413 10.3414 6.06624C12.434 5 15.1734 5 20.6522 5H39.3478C44.8266 5 47.566 5 49.6586 6.06624C51.4993 7.00413 52.9959 8.50068 53.9338 10.3414C55 12.434 55 15.1734 55 20.6522V39.3478C55 44.8266 55 47.566 53.9338 49.6586C52.9959 51.4993 51.4993 52.9959 49.6586 53.9338C47.566 55 44.8266 55 39.3478 55H20.6522C15.1734 55 12.434 55 10.3414 53.9338C8.50068 52.9959 7.00413 51.4993 6.06624 49.6586C5 47.566 5 44.8266 5 39.3478V20.6522Z"
    fill="#6128FF"
  />
  <path
    d="M11.6825 25.3121C10.7553 27.5505 10.5127 30.0136 10.9854 32.3899C11.4581 34.7661 12.6248 36.9489 14.3379 38.6621C16.0511 40.3752 18.2339 41.5419 20.6101 42.0146C22.9864 42.4873 25.4495 42.2447 27.6879 41.3175C29.9263 40.3903 31.8395 38.8202 33.1855 36.8057C34.5316 34.7912 35.25 32.4228 35.25 30C35.25 28.7574 34.2426 27.75 33 27.75C31.7574 27.75 30.75 28.7574 30.75 30C30.75 31.5328 30.2955 33.0312 29.4439 34.3057C28.5923 35.5801 27.3819 36.5735 25.9658 37.1601C24.5497 37.7466 22.9914 37.9001 21.4881 37.6011C19.9847 37.302 18.6038 36.5639 17.5199 35.4801C16.4361 34.3962 15.698 33.0153 15.3989 31.5119C15.0999 30.0086 15.2534 28.4503 15.8399 27.0342C16.4265 25.6181 17.4199 24.4077 18.6943 23.5561C19.9688 22.7045 21.4672 22.25 23 22.25C24.2426 22.25 25.25 21.2426 25.25 20C25.25 18.7574 24.2426 17.75 23 17.75C20.5772 17.75 18.2088 18.4684 16.1943 19.8145C14.1798 21.1605 12.6097 23.0737 11.6825 25.3121Z"
    fill="white"
  />
  <path
    d="M47.3013 34.0348C48.2436 31.8736 48.4922 29.4882 48.0101 27.1855C47.5282 24.8839 46.3419 22.7863 44.6207 21.1512C42.9008 19.5173 40.7231 18.4166 38.3687 17.9717C36.0146 17.5268 33.5733 17.7542 31.3493 18.6294C29.1245 19.5049 27.2045 20.9947 25.8449 22.9277C24.4843 24.8622 23.75 27.1496 23.75 29.5C23.75 30.7426 24.7574 31.75 26 31.75C27.2426 31.75 28.25 30.7426 28.25 29.5C28.25 28.0926 28.6887 26.7065 29.5257 25.5165C30.3637 24.325 31.5673 23.3795 32.997 22.8169C34.4275 22.254 36.0076 22.1051 37.5331 22.3934C39.0583 22.6816 40.4442 23.3905 41.5214 24.4137C42.5973 25.4358 43.3158 26.7238 43.6056 28.1078C43.8952 29.4907 43.7477 30.9256 43.1763 32.2362C42.6042 33.5484 41.6269 34.6887 40.3499 35.4994C39.0718 36.3107 37.5577 36.75 36 36.75C34.7574 36.75 33.75 37.7574 33.75 39C33.75 40.2426 34.7574 41.25 36 41.25C38.3979 41.25 40.7506 40.575 42.7615 39.2986C44.7734 38.0215 46.3596 36.1944 47.3013 34.0348Z"
    fill="white"
  />
</svg>
