<svg
  width="60"
  height="60"
  viewBox="0 0 60 60"
  fill="currentColor"
  xmlns="http://www.w3.org/2000/svg"
>
  <path
    d="M56.8989 36.2926C58.2423 33.0492 58.5938 29.4803 57.9089 26.0371C57.224 22.594 55.5335 19.4312 53.0511 16.9488C50.5688 14.4664 47.406 12.7759 43.9628 12.091C40.5197 11.4062 36.9508 11.7577 33.7074 13.1011C30.464 14.4446 27.6918 16.7196 25.7414 19.6386C23.791 22.5576 22.75 25.9894 22.75 29.5C22.75 30.7426 23.7574 31.75 25 31.75C26.2426 31.75 27.25 30.7426 27.25 29.5C27.25 26.8794 28.0271 24.3176 29.483 22.1387C30.9389 19.9597 33.0083 18.2614 35.4294 17.2586C37.8506 16.2557 40.5147 15.9933 43.0849 16.5046C45.6552 17.0158 48.0161 18.2778 49.8692 20.1308C51.7222 21.9839 52.9841 24.3448 53.4954 26.915C54.0067 29.4853 53.7443 32.1494 52.7414 34.5705C51.7385 36.9916 50.0402 39.061 47.8613 40.5169C45.6824 41.9729 43.1206 42.75 40.5 42.75C39.2574 42.75 38.25 43.7573 38.25 45C38.25 46.2426 39.2574 47.25 40.5 47.25C44.0106 47.25 47.4424 46.209 50.3614 44.2586C53.2803 42.3082 55.5554 39.536 56.8989 36.2926Z"
  />
  <path
    d="M3.10115 23.7073C1.75769 26.9507 1.40618 30.5197 2.09107 33.9628C2.77596 37.406 4.46648 40.5687 6.94886 43.0511C9.43124 45.5335 12.594 47.224 16.0372 47.9089C19.4803 48.5938 23.0492 48.2423 26.2926 46.8988C29.536 45.5554 32.3082 43.2803 34.2586 40.3613C36.209 37.4424 37.25 34.0106 37.25 30.5C37.25 29.2573 36.2426 28.25 35 28.25C33.7574 28.25 32.75 29.2573 32.75 30.5C32.75 33.1206 31.9729 35.6823 30.517 37.8613C29.0611 40.0402 26.9917 41.7385 24.5706 42.7414C22.1494 43.7442 19.4853 44.0066 16.9151 43.4954C14.3448 42.9841 11.9839 41.7222 10.1308 39.8691C8.2778 38.0161 7.01586 35.6552 6.5046 33.0849C5.99335 30.5147 6.25574 27.8505 7.2586 25.4294C8.26146 23.0083 9.95975 20.9389 12.1387 19.483C14.3177 18.0271 16.8794 17.25 19.5 17.25C20.7426 17.25 21.75 16.2426 21.75 15C21.75 13.7573 20.7426 12.75 19.5 12.75C15.9894 12.75 12.5576 13.791 9.63864 15.7414C6.71966 17.6918 4.4446 20.4639 3.10115 23.7073Z"
  />
</svg>
