<svg
  width="60"
  height="60"
  viewBox="0 0 60 60"
  fill="currentColor"
  xmlns="http://www.w3.org/2000/svg"
>
  <path
    d="M57.5 30C57.5 45.1878 45.1878 57.5 30 57.5C14.8122 57.5 2.5 45.1878 2.5 30C2.5 14.8122 14.8122 2.5 30 2.5C45.1878 2.5 57.5 14.8122 57.5 30Z"
    fill="#0966C2"
  />
  <path
    d="M21.7875 46.25H14.6687V23.8469H21.7875V46.25ZM18.2281 20.7062C15.925 20.7062 14.25 19.0312 14.25 16.7281C14.25 14.425 16.1344 12.75 18.2281 12.75C20.5313 12.75 22.2063 14.425 22.2063 16.7281C22.2063 19.0312 20.5313 20.7062 18.2281 20.7062ZM47.75 46.25H40.6313V34.1063C40.6313 30.5469 39.1656 29.5 37.0719 29.5C34.9781 29.5 32.8844 31.175 32.8844 34.3156V46.25H25.7656V23.8469H32.4656V26.9875C33.0937 25.5219 35.6062 23.2188 39.1656 23.2188C43.1437 23.2188 47.3313 25.5219 47.3313 32.4312V46.25H47.75Z"
    fill="white"
  />
</svg>
