<svg
  width="60"
  height="60"
  viewBox="0 0 60 60"
  fill="currentColor"
  xmlns="http://www.w3.org/2000/svg"
>
  <path
    fill-rule="evenodd"
    clip-rule="evenodd"
    d="M2.09107 33.9628C1.40618 30.5197 1.75769 26.9508 3.10115 23.7074C4.4446 20.464 6.71966 17.6918 9.63864 15.7414C12.5576 13.791 15.9894 12.75 19.5 12.75C20.7426 12.75 21.75 13.7574 21.75 15C21.75 16.2426 20.7426 17.25 19.5 17.25C16.8794 17.25 14.3177 18.0271 12.1387 19.483C9.95975 20.939 8.26147 23.0083 7.2586 25.4294C6.25574 27.8506 5.99335 30.5147 6.5046 33.0849C7.01586 35.6552 8.2778 38.0161 10.1308 39.8692C11.9839 41.7222 14.3448 42.9841 16.9151 43.4954C19.4853 44.0066 22.1494 43.7443 24.5706 42.7414C26.9917 41.7385 29.0611 40.0402 30.517 37.8613C31.9729 35.6823 32.75 33.1206 32.75 30.5C32.75 29.2574 33.7574 28.25 35 28.25C36.2426 28.25 37.25 29.2574 37.25 30.5C37.25 34.0106 36.209 37.4424 34.2586 40.3614C32.3082 43.2803 29.536 45.5554 26.2926 46.8989C23.0492 48.2423 19.4803 48.5938 16.0372 47.9089C12.594 47.224 9.43124 45.5335 6.94886 43.0511C4.46648 40.5688 2.77596 37.406 2.09107 33.9628Z"
  />
  <path
    fill-rule="evenodd"
    clip-rule="evenodd"
    d="M57.9089 26.0372C58.5938 29.4803 58.2423 33.0492 56.8989 36.2926C55.5554 39.536 53.2803 42.3082 50.3614 44.2586C47.4424 46.209 44.0106 47.25 40.5 47.25C39.2574 47.25 38.25 46.2426 38.25 45C38.25 43.7574 39.2574 42.75 40.5 42.75C43.1206 42.75 45.6824 41.9729 47.8613 40.517C50.0403 39.061 51.7385 36.9917 52.7414 34.5706C53.7443 32.1494 54.0067 29.4853 53.4954 26.9151C52.9841 24.3448 51.7222 21.9839 49.8692 20.1308C48.0161 18.2778 45.6552 17.0159 43.0849 16.5046C40.5147 15.9933 37.8506 16.2557 35.4294 17.2586C33.0083 18.2615 30.939 19.9598 29.483 22.1387C28.0271 24.3177 27.25 26.8794 27.25 29.5C27.25 30.7426 26.2426 31.75 25 31.75C23.7574 31.75 22.75 30.7426 22.75 29.5C22.75 25.9894 23.791 22.5576 25.7414 19.6386C27.6918 16.7197 30.464 14.4446 33.7074 13.1011C36.9508 11.7577 40.5197 11.4062 43.9628 12.0911C47.406 12.776 50.5688 14.4665 53.0511 16.9489C55.5335 19.4312 57.224 22.594 57.9089 26.0372Z"
  />
</svg>
