<svg
  width="60"
  height="60"
  viewBox="0 0 60 60"
  fill="currentColor"
  xmlns="http://www.w3.org/2000/svg"
>
  <circle cx="30" cy="30" r="30" fill="#6128FF" />
  <path
    d="M12.1825 25.3121C11.2553 27.5505 11.0127 30.0136 11.4854 32.3899C11.9581 34.7661 13.1248 36.9489 14.8379 38.6621C16.5511 40.3752 18.7339 41.5419 21.1101 42.0146C23.4864 42.4873 25.9495 42.2447 28.1879 41.3175C30.4263 40.3903 32.3395 38.8202 33.6855 36.8057C35.0316 34.7912 35.75 32.4228 35.75 30C35.75 28.7574 34.7426 27.75 33.5 27.75C32.2574 27.75 31.25 28.7574 31.25 30C31.25 31.5328 30.7955 33.0312 29.9439 34.3057C29.0923 35.5801 27.8819 36.5735 26.4658 37.1601C25.0497 37.7466 23.4914 37.9001 21.9881 37.6011C20.4847 37.302 19.1038 36.5639 18.0199 35.4801C16.9361 34.3962 16.198 33.0153 15.8989 31.5119C15.5999 30.0086 15.7534 28.4503 16.3399 27.0342C16.9265 25.6181 17.9199 24.4077 19.1943 23.5561C20.4688 22.7045 21.9672 22.25 23.5 22.25C24.7426 22.25 25.75 21.2426 25.75 20C25.75 18.7574 24.7426 17.75 23.5 17.75C21.0772 17.75 18.7088 18.4684 16.6943 19.8145C14.6798 21.1605 13.1097 23.0737 12.1825 25.3121Z"
    fill="white"
  />
  <path
    d="M47.8013 34.0348C48.7436 31.8736 48.9922 29.4882 48.5101 27.1855C48.0282 24.8839 46.8419 22.7863 45.1207 21.1512C43.4008 19.5173 41.2231 18.4166 38.8687 17.9717C36.5146 17.5268 34.0733 17.7542 31.8493 18.6294C29.6245 19.5049 27.7045 20.9947 26.3449 22.9277C24.9843 24.8622 24.25 27.1496 24.25 29.5C24.25 30.7426 25.2574 31.75 26.5 31.75C27.7426 31.75 28.75 30.7426 28.75 29.5C28.75 28.0926 29.1887 26.7065 30.0257 25.5165C30.8637 24.325 32.0673 23.3795 33.497 22.8169C34.9275 22.254 36.5076 22.1051 38.0331 22.3934C39.5583 22.6816 40.9442 23.3905 42.0214 24.4137C43.0973 25.4358 43.8158 26.7238 44.1056 28.1078C44.3952 29.4907 44.2477 30.9256 43.6763 32.2362C43.1042 33.5484 42.1269 34.6887 40.8499 35.4994C39.5718 36.3107 38.0577 36.75 36.5 36.75C35.2574 36.75 34.25 37.7574 34.25 39C34.25 40.2426 35.2574 41.25 36.5 41.25C38.8979 41.25 41.2506 40.575 43.2615 39.2986C45.2734 38.0215 46.8596 36.1944 47.8013 34.0348Z"
    fill="white"
  />
</svg>
