<svg
  width="60"
  height="60"
  viewBox="0 0 60 60"
  fill="currentColor"
  xmlns="http://www.w3.org/2000/svg"
>
  <path
    d="M5 9C5 6.79086 6.79086 5 9 5H51C53.2091 5 55 6.79086 55 9V51C55 53.2091 53.2091 55 51 55H9C6.79086 55 5 53.2091 5 51V9Z"
    fill="#0966C2"
  />
  <path
    d="M20.1 48H12.45V23.925H20.1V48ZM16.275 20.55C13.8 20.55 12 18.75 12 16.275C12 13.8 14.025 12 16.275 12C18.75 12 20.55 13.8 20.55 16.275C20.55 18.75 18.75 20.55 16.275 20.55ZM48 48H40.35V34.95C40.35 31.125 38.775 30 36.525 30C34.275 30 32.025 31.8 32.025 35.175V48H24.375V23.925H31.575V27.3C32.25 25.725 34.95 23.25 38.775 23.25C43.05 23.25 47.55 25.725 47.55 33.15V48H48Z"
    fill="white"
  />
</svg>
