<svg
  width="60"
  height="60"
  viewBox="0 0 60 60"
  fill="currentColor"
  xmlns="http://www.w3.org/2000/svg"
>
  <path
    fill-rule="evenodd"
    clip-rule="evenodd"
    d="M37.6286 6.07999C37.3583 7.29287 36.1559 8.05699 34.943 7.78669C25.4981 5.68183 15.3894 9.80609 10.2978 18.625C5.20621 27.444 6.68884 38.2605 13.2342 45.3876C14.0747 46.3028 14.0141 47.7262 13.0989 48.5667C12.1836 49.4072 10.7603 49.3466 9.91978 48.4314C2.08296 39.898 0.298222 26.9448 6.40071 16.375C12.5032 5.80521 24.6133 0.874254 35.9219 3.39444C37.1348 3.66474 37.8989 4.8671 37.6286 6.07999ZM46.9009 11.4334C47.8162 10.5928 49.2395 10.6534 50.08 11.5687C57.9168 20.102 59.7016 33.0552 53.5991 43.625C47.4966 54.1949 35.3865 59.1258 24.0779 56.6056C22.865 56.3353 22.1009 55.1329 22.3712 53.9201C22.6415 52.7072 23.8439 51.9431 25.0568 52.2134C34.5017 54.3182 44.6104 50.194 49.702 41.375C54.7936 32.5561 53.311 21.7396 46.7657 14.6125C45.9251 13.6972 45.9857 12.2739 46.9009 11.4334Z"
  />
</svg>
