<svg
  width="60"
  height="60"
  viewBox="0 0 60 60"
  fill="currentColor"
  xmlns="http://www.w3.org/2000/svg"
>
  <path
    fill-rule="evenodd"
    clip-rule="evenodd"
    d="M32.25 27.0438C37.9408 25.9873 42.25 20.9969 42.25 15C42.25 8.23451 36.7655 2.75 30 2.75C23.2345 2.75 17.75 8.23451 17.75 15C17.75 20.9969 22.0592 25.9873 27.75 27.0438L27.75 46C27.75 47.2426 28.7574 48.25 30 48.25C31.2426 48.25 32.25 47.2426 32.25 46L32.25 27.0438ZM30 7.25C25.7198 7.25 22.25 10.7198 22.25 15C22.25 19.2802 25.7198 22.75 30 22.75C34.2802 22.75 37.75 19.2802 37.75 15C37.75 10.7198 34.2802 7.25 30 7.25Z"
  />
  <path
    d="M24.2218 37.2587C24.4179 38.4857 23.582 39.6394 22.355 39.8354C18.4308 40.4624 15.2246 41.5377 13.0676 42.8063C10.804 44.1375 10.25 45.3186 10.25 46.0001C10.25 46.4437 10.4603 47.0805 11.2931 47.886C12.1325 48.6979 13.4651 49.5327 15.2956 50.2816C18.9455 51.7747 24.1432 52.7501 30 52.7501C35.8568 52.7501 41.0545 51.7747 44.7044 50.2816C46.5349 49.5327 47.8675 48.6979 48.7069 47.886C49.5397 47.0805 49.75 46.4437 49.75 46.0001C49.75 45.3186 49.196 44.1375 46.9324 42.8063C44.7754 41.5377 41.5692 40.4624 37.645 39.8354C36.418 39.6394 35.5821 38.4857 35.7782 37.2587C35.9742 36.0316 37.1279 35.1958 38.355 35.3918C42.6255 36.0741 46.4193 37.284 49.2136 38.9274C51.9014 40.508 54.25 42.8655 54.25 46.0001C54.25 48.0418 53.2291 49.7726 51.8354 51.1206C50.4483 52.4622 48.559 53.5667 46.4083 54.4465C42.0958 56.2107 36.2935 57.2501 30 57.2501C23.7065 57.2501 17.9042 56.2107 13.5917 54.4465C11.441 53.5667 9.55172 52.4622 8.16462 51.1206C6.7709 49.7726 5.75 48.0418 5.75 46.0001C5.75 42.8655 8.09862 40.508 10.7864 38.9274C13.5807 37.284 17.3745 36.0741 21.645 35.3918C22.8721 35.1958 24.0258 36.0316 24.2218 37.2587Z"
  />
</svg>
