<svg
  width="60"
  height="60"
  viewBox="0 0 60 60"
  fill="currentColor"
  xmlns="http://www.w3.org/2000/svg"
>
  <path
    d="M30 27.5C28.6193 27.5 27.5 28.6193 27.5 30C27.5 31.3807 28.6193 32.5 30 32.5H30.1C31.4807 32.5 32.6 31.3807 32.6 30C32.6 28.6193 31.4807 27.5 30.1 27.5H30Z"
  />
  <path
    fill-rule="evenodd"
    clip-rule="evenodd"
    d="M32.25 4C32.25 2.75736 31.2426 1.75 30 1.75C28.7574 1.75 27.75 2.75736 27.75 4V6.85747C16.7055 7.91805 7.91805 16.7055 6.85747 27.75H4C2.75736 27.75 1.75 28.7574 1.75 30C1.75 31.2426 2.75736 32.25 4 32.25H6.85747C7.91805 43.2945 16.7055 52.082 27.75 53.1425V56C27.75 57.2426 28.7574 58.25 30 58.25C31.2426 58.25 32.25 57.2426 32.25 56V53.1425C43.2945 52.082 52.082 43.2945 53.1425 32.25H56C57.2426 32.25 58.25 31.2426 58.25 30C58.25 28.7574 57.2426 27.75 56 27.75H53.1425C52.082 16.7055 43.2945 7.91805 32.25 6.85747V4ZM11.3836 27.75C12.4069 19.1932 19.1932 12.4069 27.75 11.3836V17C27.75 18.2426 28.7574 19.25 30 19.25C31.2426 19.25 32.25 18.2426 32.25 17V11.3836C40.8068 12.4069 47.5931 19.1932 48.6164 27.75H43C41.7574 27.75 40.75 28.7574 40.75 30C40.75 31.2426 41.7574 32.25 43 32.25H48.6164C47.5931 40.8068 40.8068 47.5931 32.25 48.6164V43C32.25 41.7574 31.2426 40.75 30 40.75C28.7574 40.75 27.75 41.7574 27.75 43V48.6164C19.1932 47.5931 12.4069 40.8068 11.3836 32.25H17C18.2426 32.25 19.25 31.2426 19.25 30C19.25 28.7574 18.2426 27.75 17 27.75H11.3836Z"
  />
</svg>
