<svg
  width="60"
  height="60"
  viewBox="0 0 60 60"
  fill="currentColor"
  xmlns="http://www.w3.org/2000/svg"
>
  <path
    fill-rule="evenodd"
    clip-rule="evenodd"
    d="M30 2.75C21.5777 2.75 14.75 9.57766 14.75 18V25.0512C13.8647 25.2016 13.0378 25.4346 12.2455 25.804C9.84845 26.9218 7.92182 28.8484 6.80404 31.2455C6.21988 32.4983 5.97693 33.8376 5.86183 35.3576C5.74997 36.8348 5.74998 38.6548 5.75 40.911V41.089C5.74998 43.3452 5.74997 45.1652 5.86183 46.6424C5.97693 48.1624 6.21988 49.5017 6.80404 50.7545C7.92182 53.1516 9.84845 55.0782 12.2455 56.196C13.4983 56.7801 14.8376 57.0231 16.3576 57.1382C17.8348 57.25 19.6547 57.25 21.911 57.25H38.089C40.3453 57.25 42.1652 57.25 43.6424 57.1382C45.1624 57.0231 46.5017 56.7801 47.7545 56.196C50.1516 55.0782 52.0782 53.1516 53.196 50.7545C53.7801 49.5017 54.0231 48.1624 54.1382 46.6424C54.25 45.1652 54.25 43.3453 54.25 41.089V40.911C54.25 38.6547 54.25 36.8348 54.1382 35.3576C54.0231 33.8376 53.7801 32.4983 53.196 31.2455C52.0782 28.8484 50.1516 26.9218 47.7545 25.804C46.9622 25.4346 46.1353 25.2016 45.25 25.0512V18C45.25 9.57766 38.4223 2.75 30 2.75ZM38 29.25H22C19.634 29.25 17.9847 29.2515 16.6974 29.349C15.4336 29.4447 14.7029 29.6234 14.1473 29.8824C12.7091 30.5531 11.5531 31.7091 10.8824 33.1473C10.6234 33.7029 10.4447 34.4336 10.349 35.6974C10.2515 36.9847 10.25 38.634 10.25 41C10.25 43.3661 10.2515 45.0153 10.349 46.3026C10.4447 47.5664 10.6234 48.2971 10.8824 48.8527C11.5531 50.2909 12.7091 51.4469 14.1473 52.1176C14.7029 52.3766 15.4336 52.5553 16.6974 52.651C17.9847 52.7485 19.634 52.75 22 52.75H38C40.366 52.75 42.0153 52.7485 43.3026 52.651C44.5664 52.5553 45.2971 52.3766 45.8527 52.1176C47.2909 51.4469 48.4469 50.2909 49.1176 48.8527C49.3766 48.2971 49.5553 47.5664 49.651 46.3026C49.7485 45.0153 49.75 43.3661 49.75 41C49.75 38.634 49.7485 36.9847 49.651 35.6974C49.5553 34.4336 49.3766 33.7029 49.1176 33.1473C48.4469 31.7091 47.2909 30.5531 45.8527 29.8824C45.2971 29.6234 44.5664 29.4447 43.3026 29.349C42.0153 29.2515 40.366 29.25 38 29.25ZM38.2411 24.75H40.75V18C40.75 12.0629 35.9371 7.25 30 7.25C24.0629 7.25 19.25 12.0629 19.25 18V24.75H21.7589C21.8094 24.75 21.8601 24.75 21.911 24.75H38.089C38.1399 24.75 38.1906 24.75 38.2411 24.75Z"
  />
</svg>
