<svg
  width="60"
  height="60"
  viewBox="0 0 60 60"
  fill="currentColor"
  xmlns="http://www.w3.org/2000/svg"
>
  <path
    d="M30 2.75C21.5777 2.75 14.75 9.57766 14.75 18V25.0512C13.8647 25.2016 13.0378 25.4346 12.2455 25.804C9.84845 26.9218 7.92182 28.8484 6.80404 31.2455C6.21988 32.4983 5.97693 33.8376 5.86183 35.3576C5.74997 36.8348 5.74998 38.6547 5.75 40.911V41.089C5.74998 43.3452 5.74997 45.1652 5.86183 46.6424C5.97693 48.1624 6.21988 49.5017 6.80404 50.7545C7.92182 53.1516 9.84845 55.0782 12.2455 56.196C13.4983 56.7801 14.8376 57.0231 16.3576 57.1382C17.8348 57.25 19.6547 57.25 21.911 57.25H38.089C40.3453 57.25 42.1652 57.25 43.6424 57.1382C45.1624 57.0231 46.5017 56.7801 47.7545 56.196C50.1516 55.0782 52.0782 53.1516 53.196 50.7545C53.7801 49.5017 54.0231 48.1624 54.1382 46.6424C54.25 45.1652 54.25 43.3453 54.25 41.089V40.911C54.25 38.6547 54.25 36.8348 54.1382 35.3576C54.0231 33.8376 53.7801 32.4983 53.196 31.2455C52.0782 28.8484 50.1516 26.9218 47.7545 25.804C46.5017 25.2199 45.1624 24.9769 43.6424 24.8618C42.1652 24.75 40.3453 24.75 38.0891 24.75H21.911C20.9468 24.75 20.0622 24.75 19.25 24.7587V18C19.25 12.0629 24.0629 7.25 30 7.25C35.9371 7.25 40.75 12.0629 40.75 18C40.75 19.2426 41.7574 20.25 43 20.25C44.2426 20.25 45.25 19.2426 45.25 18C45.25 9.57766 38.4223 2.75 30 2.75Z"
  />
</svg>
