<svg
  width="60"
  height="60"
  viewBox="0 0 60 60"
  fill="currentColor"
  xmlns="http://www.w3.org/2000/svg"
>
  <path
    fill-rule="evenodd"
    clip-rule="evenodd"
    d="M30 2.75C23.2345 2.75 17.75 8.23451 17.75 15V23.2815C17.104 23.4488 16.4875 23.673 15.8926 23.9762C13.7758 25.0548 12.0548 26.7758 10.9762 28.8926C10.2972 30.2253 10.0141 31.6657 9.88009 33.3056C9.74996 34.8983 9.74998 36.8652 9.75 39.3037V40.6963C9.74998 43.1348 9.74996 45.1017 9.88009 46.6944C10.0141 48.3343 10.2972 49.7747 10.9762 51.1074C12.0548 53.2242 13.7758 54.9452 15.8926 56.0238C17.2253 56.7028 18.6657 56.9859 20.3056 57.1199C21.8983 57.25 23.8651 57.25 26.3036 57.25H33.6964C36.1349 57.25 38.1017 57.25 39.6944 57.1199C41.3343 56.9859 42.7747 56.7028 44.1074 56.0238C46.2242 54.9452 47.9452 53.2242 49.0238 51.1074C49.7028 49.7747 49.9859 48.3343 50.1199 46.6944C50.25 45.1017 50.25 43.1349 50.25 40.6964V39.3036C50.25 36.8652 50.25 34.8983 50.1199 33.3056C49.9859 31.6657 49.7028 30.2253 49.0238 28.8926C47.9452 26.7758 46.2242 25.0548 44.1074 23.9762C42.7747 23.2972 41.3343 23.0141 39.6944 22.8801C38.1017 22.75 36.1349 22.75 33.6964 22.75H26.3037C24.7752 22.75 23.4319 22.75 22.25 22.782V15C22.25 10.7198 25.7198 7.25 30 7.25C34.2802 7.25 37.75 10.7198 37.75 15V18C37.75 19.2426 38.7574 20.25 40 20.25C41.2426 20.25 42.25 19.2426 42.25 18V15C42.25 8.23451 36.7655 2.75 30 2.75ZM17.9356 27.9857C18.5281 27.6838 19.3104 27.4764 20.672 27.3651C22.0599 27.2517 23.8426 27.25 26.4 27.25H33.6C36.1574 27.25 37.9401 27.2517 39.328 27.3651C40.6896 27.4764 41.4719 27.6838 42.0644 27.9857C43.3345 28.6329 44.3671 29.6655 45.0143 30.9356C45.3162 31.5281 45.5236 32.3104 45.6349 33.672C45.7482 35.0599 45.75 36.8426 45.75 39.4V40.6C45.75 43.1574 45.7482 44.9401 45.6349 46.328C45.5236 47.6896 45.3162 48.4719 45.0143 49.0644C44.3671 50.3345 43.3345 51.3671 42.0644 52.0143C41.4719 52.3162 40.6896 52.5236 39.328 52.6349C37.9401 52.7483 36.1574 52.75 33.6 52.75H26.4C23.8426 52.75 22.0599 52.7483 20.672 52.6349C19.3104 52.5236 18.5281 52.3162 17.9356 52.0143C16.6655 51.3671 15.6329 50.3345 14.9857 49.0644C14.6838 48.4719 14.4764 47.6896 14.3651 46.328C14.2518 44.9401 14.25 43.1574 14.25 40.6V39.4C14.25 36.8426 14.2518 35.0599 14.3651 33.672C14.4764 32.3104 14.6838 31.5281 14.9857 30.9356C15.6329 29.6655 16.6655 28.6329 17.9356 27.9857Z"
  />
</svg>
