<svg
  width="60"
  height="60"
  viewBox="0 0 60 60"
  fill="currentColor"
  xmlns="http://www.w3.org/2000/svg"
>
  <path
    fill-rule="evenodd"
    clip-rule="evenodd"
    d="M26.75 30C26.75 28.7574 27.7574 27.75 29 27.75H36.25V14C36.25 8.33908 40.8391 3.75 46.5 3.75H53.5C54.7426 3.75 55.75 4.75736 55.75 6C55.75 7.24264 54.7426 8.25 53.5 8.25H46.5C43.3244 8.25 40.75 10.8244 40.75 14V27.75H53.5C54.7426 27.75 55.75 28.7574 55.75 30C55.75 31.2426 54.7426 32.25 53.5 32.25H40.75V46C40.75 49.1756 43.3244 51.75 46.5 51.75H53.5C54.7426 51.75 55.75 52.7574 55.75 54C55.75 55.2426 54.7426 56.25 53.5 56.25H46.5C40.8391 56.25 36.25 51.6609 36.25 46V32.25H29C27.7574 32.25 26.75 31.2426 26.75 30Z"
  />
  <path
    fill-rule="evenodd"
    clip-rule="evenodd"
    d="M21 24.5H12C10.067 24.5 8.5 26.067 8.5 28V32C8.5 33.933 10.067 35.5 12 35.5H21C22.933 35.5 24.5 33.933 24.5 32V28C24.5 26.067 22.933 24.5 21 24.5ZM12 20C7.58172 20 4 23.5817 4 28V32C4 36.4183 7.58172 40 12 40H21C25.4183 40 29 36.4183 29 32V28C29 23.5817 25.4183 20 21 20H12Z"
  />
</svg>
