<svg
  width="60"
  height="60"
  viewBox="0 0 60 60"
  fill="currentColor"
  xmlns="http://www.w3.org/2000/svg"
>
  <path
    d="M45.5 51.25H38.5C37.2574 51.25 36.25 50.2426 36.25 49C36.25 47.7574 37.2574 46.75 38.5 46.75H45.5C49.2291 46.75 52.25 43.7304 52.25 40.0037L52.25 19.9963C52.25 16.2696 49.2291 13.25 45.5 13.25L38.5 13.25C37.2574 13.25 36.25 12.2426 36.25 11C36.25 9.75736 37.2574 8.75 38.5 8.75H45.5C51.712 8.75 56.75 13.7819 56.75 19.9963L56.75 40.0037C56.75 46.2181 51.712 51.25 45.5 51.25Z"
  />
  <path
    d="M21.909 46.591C22.7877 47.4697 24.2123 47.4697 25.091 46.591L38.6768 33.0052C40.3365 31.3455 40.3365 28.6545 38.6768 26.9948L25.091 13.409C24.2123 12.5303 22.7877 12.5303 21.909 13.409C21.0303 14.2877 21.0303 15.7123 21.909 16.591L33.068 27.75L5.5 27.75C4.25736 27.75 3.25 28.7574 3.25 30C3.25 31.2426 4.25736 32.25 5.5 32.25L33.068 32.25L21.909 43.409C21.0303 44.2877 21.0303 45.7123 21.909 46.591Z"
  />
</svg>
