<svg
  width="60"
  height="60"
  viewBox="0 0 60 60"
  fill="currentColor"
  xmlns="http://www.w3.org/2000/svg"
>
  <path
    d="M14.5 51.25H21.5C22.7426 51.25 23.75 50.2426 23.75 49C23.75 47.7574 22.7426 46.75 21.5 46.75H14.5C10.7709 46.75 7.75 43.7304 7.75 40.0037L7.75 19.9963C7.75 16.2696 10.7709 13.25 14.5 13.25L21.5 13.25C22.7426 13.25 23.75 12.2426 23.75 11C23.75 9.75736 22.7426 8.75 21.5 8.75H14.5C8.288 8.75 3.25 13.7819 3.25 19.9963L3.25 40.0037C3.25 46.2181 8.28799 51.25 14.5 51.25Z"
  />
  <path
    d="M37.909 46.5909C38.7877 47.4696 40.2123 47.4696 41.091 46.5909L54.6768 33.0051C56.3365 31.3454 56.3365 28.6545 54.6768 26.9947L41.091 13.409C40.2123 12.5303 38.7877 12.5303 37.909 13.409C37.0303 14.2876 37.0303 15.7122 37.909 16.5909L49.068 27.7499L21.5 27.7499C20.2574 27.7499 19.25 28.7573 19.25 29.9999C19.25 31.2426 20.2574 32.2499 21.5 32.2499L49.068 32.2499L37.909 43.4089C37.0303 44.2876 37.0303 45.7122 37.909 46.5909Z"
  />
</svg>
