  <svg
      xmlns="http://www.w3.org/2000/svg"
      width="16"
      height="16"
      viewBox="0 0 16 16"
      fill="none"
    >
      <path
        d="M5.31295 1.03906C6.49856 1.03906 7.47746 1.95402 7.625 3.13819L7.625 3.35842H5.45C5.39781 3.35842 5.34725 3.37712 5.30697 3.41132L4.39825 4.18277C4.3305 4.14991 4.25483 4.13154 4.175 4.13154C3.88505 4.13154 3.65 4.37384 3.65 4.67272C3.65 4.97161 3.88505 5.21391 4.175 5.21391C4.46495 5.21391 4.7 4.97161 4.7 4.67272C4.7 4.62724 4.69456 4.58306 4.6843 4.54085L5.53062 3.82229H7.625V7.7652L3.37449 7.76522C3.29023 7.58237 3.10944 7.45595 2.9 7.45595C2.61005 7.45595 2.375 7.69825 2.375 7.99714C2.375 8.29603 2.61005 8.53832 2.9 8.53832C3.10941 8.53832 3.29018 8.41194 3.37445 8.22913L7.625 8.22907V12.172H5.53062L4.6843 11.4534C4.69456 11.4112 4.7 11.367 4.7 11.3216C4.7 11.0227 4.46495 10.7804 4.175 10.7804C3.88505 10.7804 3.65 11.0227 3.65 11.3216C3.65 11.6204 3.88505 11.8627 4.175 11.8627C4.25483 11.8627 4.3305 11.8444 4.39825 11.8115L5.30697 12.583C5.34725 12.6172 5.39781 12.6359 5.45 12.6359H7.625L7.625 12.8562C7.46078 14.0429 6.46873 14.9552 5.27535 14.9552C4.17536 14.9552 3.25047 14.1801 2.9838 13.1295C2.18587 12.7701 1.62804 11.9475 1.62804 10.9903C1.62804 10.7646 1.65904 10.5464 1.71694 10.34C1.00351 9.95657 0.513211 9.19071 0.500263 8.3052L0.5 8.22907C0.5 7.26058 1.07585 6.43074 1.89387 6.08352C1.74333 5.79884 1.6505 5.47682 1.63162 5.13434L1.62955 5.08819C1.62653 5.0403 1.625 4.99199 1.625 4.94332C1.625 3.98373 2.22006 3.16742 3.05055 2.8651C3.30309 1.81628 4.22022 1.03906 5.31295 1.03906Z"
        fill="url(#paint0_linear_9646_13526)"
      />
      <path
        fill-rule="evenodd"
        clip-rule="evenodd"
        d="M12.9557 2.89192C12.7125 1.82953 11.7891 1.03906 10.687 1.03906C9.50144 1.03906 8.52254 1.95402 8.375 3.13819V12.8562C8.53922 14.0429 9.53127 14.9552 10.7247 14.9552C11.8246 14.9552 12.7495 14.1801 13.0162 13.1295C13.8141 12.7701 14.372 11.9475 14.372 10.9903C14.372 10.7646 14.341 10.5464 14.2831 10.34C15.0061 9.95139 15.5 9.16994 15.5 8.26924C15.5 7.45878 15.1001 6.74486 14.4932 6.32703C14.4904 6.37206 14.4749 6.41673 14.4461 6.45503C13.9943 7.05486 13.4837 7.43234 12.9215 7.58678C12.9112 7.61484 12.9011 7.64536 12.8914 7.67817C12.8435 7.84149 12.8186 8.02348 12.8278 8.21867C12.8355 8.38141 12.8668 8.54661 12.9255 8.71336C12.9681 8.83441 12.9077 8.96823 12.7906 9.01225C12.6735 9.05627 12.544 8.99382 12.5014 8.87276C12.4271 8.66132 12.387 8.45003 12.3771 8.24134C12.3675 8.03705 12.3869 7.84389 12.4279 7.66505C11.8601 7.69152 11.2466 7.51224 10.594 7.12683C10.4858 7.06295 10.4481 6.92048 10.5099 6.80863C10.5717 6.69678 10.7096 6.6579 10.8177 6.72179L10.8577 6.74514C12.1749 7.50564 13.2284 7.25609 14.0931 6.1079C14.2707 5.78162 14.372 5.40504 14.372 5.004C14.372 4.03694 13.783 3.21209 12.9557 2.89192ZM9.4968 10.7505C9.45055 10.6309 9.50684 10.4952 9.62253 10.4473C9.7341 10.4012 9.86016 10.4537 9.9105 10.5647L9.91576 10.5773L9.92545 10.5981C9.94526 10.6387 9.97466 10.6875 10.0142 10.7387C10.0791 10.823 10.1586 10.8963 10.2536 10.9524C10.4857 11.0896 10.7886 11.114 11.1877 10.9766C11.515 10.7576 11.9222 10.6533 12.405 10.6677C12.5295 10.6714 12.6276 10.7788 12.624 10.9076C12.6204 11.0363 12.5165 11.1377 12.3919 11.134C11.504 11.1075 10.9806 11.5436 10.7684 12.4945C10.7404 12.62 10.6193 12.6983 10.4979 12.6693C10.3765 12.6404 10.3007 12.5151 10.3287 12.3896C10.4029 12.0572 10.5138 11.7715 10.6602 11.5337C10.4253 11.5277 10.2148 11.4668 10.0297 11.3574C9.77 11.204 9.6037 10.9883 9.50985 10.7812L9.50772 10.7764L9.4968 10.7505ZM10.5251 3.2158C10.4005 3.21882 10.3019 3.32567 10.3048 3.45444C10.3143 3.87265 10.4016 4.23176 10.564 4.52907C10.1794 4.55718 9.8038 4.76678 9.46207 5.18793C9.38199 5.28662 9.39446 5.43373 9.48992 5.51651C9.58538 5.5993 9.72768 5.5864 9.80776 5.48772C10.0866 5.1441 10.3635 4.99863 10.6358 4.99246C10.7451 4.98998 10.8498 5.01053 10.9475 5.04817C11.0069 5.07105 11.0564 5.09718 11.0936 5.12142L11.1123 5.13416L11.1239 5.14267C11.129 5.14618 11.1341 5.14944 11.1394 5.15238C11.3951 5.3216 11.7082 5.44066 12.0768 5.50777C12.1995 5.53011 12.3165 5.44539 12.3381 5.31853C12.3597 5.19167 12.2778 5.07072 12.1551 5.04838C11.8426 4.99149 11.5844 4.89523 11.3787 4.75769L11.3586 4.74326L11.3356 4.72772C10.9578 4.45456 10.7693 4.03104 10.7559 3.4435C10.753 3.31472 10.6496 3.21278 10.5251 3.2158Z"
        fill="url(#paint1_linear_9646_13526)"
      />
      <defs>
        <linearGradient
          id="paint0_linear_9646_13526"
          x1="13.2637"
          y1="14.5807"
          x2="1.63173"
          y2="3.58992"
          gradientUnits="userSpaceOnUse"
        >
          <stop stopColor="#32C5FF" />
          <stop offset="0.25" stopColor="#5666F5" />
          <stop offset="0.523727" stopColor="#8A57EA" />
          <stop offset="0.820607" stopColor="#EB35CE" />
          <stop offset="1" stopColor="#F7B500" />
        </linearGradient>
        <linearGradient
          id="paint1_linear_9646_13526"
          x1="13.2637"
          y1="14.5807"
          x2="1.63173"
          y2="3.58992"
          gradientUnits="userSpaceOnUse"
        >
          <stop stopColor="#32C5FF" />
          <stop offset="0.25" stopColor="#5666F5" />
          <stop offset="0.523727" stopColor="#8A57EA" />
          <stop offset="0.820607" stopColor="#EB35CE" />
          <stop offset="1" stopColor="#F7B500" />
        </linearGradient>
      </defs>
    </svg>
