<svg
  width="60"
  height="60"
  viewBox="0 0 60 60"
  fill="currentColor"
  xmlns="http://www.w3.org/2000/svg"
>
  <path
    d="M45.5 51.25H38.5C37.2574 51.25 36.25 50.2426 36.25 49C36.25 47.7574 37.2574 46.75 38.5 46.75H45.5C49.2291 46.75 52.25 43.7304 52.25 40.0037L52.25 19.9963C52.25 16.2696 49.2291 13.25 45.5 13.25L38.5 13.25C37.2574 13.25 36.25 12.2426 36.25 11C36.25 9.75736 37.2574 8.75 38.5 8.75H45.5C51.712 8.75 56.75 13.7819 56.75 19.9963L56.75 40.0037C56.75 46.2181 51.712 51.25 45.5 51.25Z"
  />
  <path
    d="M22.091 46.591C21.2123 47.4697 19.7877 47.4697 18.909 46.591L5.32322 33.0052C3.6635 31.3455 3.66349 28.6545 5.32322 26.9948L18.909 13.409C19.7877 12.5303 21.2123 12.5303 22.091 13.409C22.9697 14.2877 22.9697 15.7123 22.091 16.591L10.932 27.75L38.5 27.75C39.7426 27.75 40.75 28.7574 40.75 30C40.75 31.2426 39.7426 32.25 38.5 32.25L10.932 32.25L22.091 43.409C22.9697 44.2877 22.9697 45.7123 22.091 46.591Z"
  />
</svg>
