<svg
  width="60"
  height="60"
  viewBox="0 0 60 60"
  fill="currentColor"
  xmlns="http://www.w3.org/2000/svg"
>
  <path
    d="M44.6716 51.25H37.6716C36.429 51.25 35.4216 50.2426 35.4216 49C35.4216 47.7574 36.429 46.75 37.6716 46.75H44.6716C48.4007 46.75 51.4216 43.7304 51.4216 40.0037L51.4216 19.9963C51.4216 16.2696 48.4007 13.25 44.6716 13.25L37.6716 13.25C36.429 13.25 35.4216 12.2426 35.4216 11C35.4216 9.75736 36.429 8.75 37.6716 8.75H44.6716C50.8836 8.75 55.9216 13.7819 55.9216 19.9963L55.9216 40.0037C55.9216 46.2181 50.8836 51.25 44.6716 51.25Z"
  />
  <path
    d="M21.2626 46.5909C20.3839 47.4696 18.9593 47.4696 18.0806 46.5909L4.49485 33.0051C2.83513 31.3454 2.83512 28.6545 4.49485 26.9947L18.0806 13.409C18.9593 12.5303 20.3839 12.5303 21.2626 13.409C22.1413 14.2876 22.1413 15.7122 21.2626 16.5909L10.1036 27.7499L37.6716 27.7499C38.9143 27.7499 39.9216 28.7573 39.9216 29.9999C39.9216 31.2426 38.9143 32.2499 37.6716 32.2499L10.1036 32.2499L21.2626 43.4089C22.1413 44.2876 22.1413 45.7122 21.2626 46.5909Z"
  />
</svg>
