<svg
  width="60"
  height="60"
  viewBox="0 0 60 60"
  fill="currentColor"
  xmlns="http://www.w3.org/2000/svg"
>
  <path
    fill-rule="evenodd"
    clip-rule="evenodd"
    d="M28.7845 9.30658C22.3782 5.24607 13.8137 6.02287 8.23709 11.637C1.56699 18.3521 3.05453 27.7303 7.97995 34.8869C10.3613 38.3471 14.5855 43.5342 18.6779 47.8616C20.7241 50.0253 22.7857 52.0256 24.6049 53.5024C25.5117 54.2385 26.4074 54.8849 27.2471 55.3584C28.0189 55.7936 29.0279 56.25 30.0857 56.25C31.1371 56.25 32.1505 55.7981 32.9293 55.3667C33.7786 54.8964 34.69 54.253 35.6163 53.5176C37.4746 52.0421 39.5833 50.0423 41.6651 47.8738C45.8123 43.554 50.0787 38.3268 52.2543 34.7903C56.5482 27.8106 58.6587 18.4068 51.9342 11.637C46.3577 6.02287 37.7932 5.24607 31.3868 9.30658C30.7963 9.68089 30.4078 9.92668 30.1239 10.0921L30.0857 10.1142L30.0474 10.0921C29.7636 9.92668 29.3751 9.68089 28.7845 9.30658ZM29.8555 10.2375L29.8626 10.2344C29.8578 10.2366 29.8555 10.2375 29.8555 10.2375ZM30.3159 10.2375C30.3159 10.2375 30.3136 10.2366 30.3088 10.2344L30.3159 10.2375Z"
  />
</svg>
