<svg
  width="60"
  height="60"
  viewBox="0 0 60 60"
  fill="currentColor"
  xmlns="http://www.w3.org/2000/svg"
>
  <path
    fill-rule="evenodd"
    clip-rule="evenodd"
    d="M26.3754 13.1074C21.7173 10.155 15.4887 10.722 11.4297 14.8083C6.91482 19.3536 7.39964 26.1064 11.6869 32.3357C13.9118 35.5686 17.9814 40.5758 21.9474 44.7696C23.9303 46.8663 25.8391 48.7083 27.441 50.0086C28.2447 50.661 28.9223 51.1369 29.4573 51.4386C29.8022 51.633 30.0044 51.7069 30.0879 51.7346C30.1736 51.7069 30.3853 51.6317 30.749 51.4302C31.2993 51.1254 31.9955 50.6465 32.818 49.9934C34.4572 48.6918 36.4105 46.8494 38.4189 44.7573C42.4523 40.5561 46.4796 35.5889 48.4215 32.4324C52.3626 26.0261 53.2022 19.2989 48.7416 14.8083C44.6826 10.722 38.454 10.155 33.7959 13.1074L33.7579 13.1315C33.2156 13.4752 32.755 13.7672 32.3893 13.9802C32.0753 14.1632 31.5783 14.445 31.0379 14.5692C31.0305 14.5709 31.0229 14.5727 31.015 14.5745C30.8272 14.6179 30.4812 14.6977 30.0857 14.6977C29.6901 14.6977 29.3441 14.6178 29.1564 14.5745C29.1484 14.5727 29.1408 14.5709 29.1335 14.5692C28.593 14.445 28.096 14.1632 27.782 13.9802C27.4163 13.7672 26.9557 13.4752 26.4134 13.1315L26.3754 13.1074ZM8.23709 11.637C13.8137 6.02287 22.3782 5.24607 28.7845 9.30658C29.3751 9.68089 29.7636 9.92668 30.0474 10.0921C30.0607 10.0998 30.0735 10.1072 30.0857 10.1142C30.0979 10.1072 30.1106 10.0998 30.1239 10.0921C30.4078 9.92668 30.7963 9.68089 31.3868 9.30658C37.7932 5.24607 46.3577 6.02287 51.9342 11.637C58.6587 18.4068 56.5482 27.8106 52.2543 34.7903C50.0787 38.3268 45.8123 43.554 41.6651 47.8738C39.5833 50.0423 37.4746 52.0421 35.6163 53.5176C34.69 54.253 33.7786 54.8964 32.9293 55.3667C32.1505 55.7981 31.1371 56.25 30.0857 56.25C29.0279 56.25 28.0189 55.7936 27.2471 55.3584C26.4074 54.8849 25.5117 54.2385 24.6049 53.5024C22.7857 52.0256 20.7241 50.0253 18.6779 47.8616C14.5855 43.5342 10.3613 38.3471 7.97995 34.8869C3.05453 27.7303 1.56699 18.3521 8.23709 11.637ZM29.8555 10.2375C29.8555 10.2374 29.8579 10.2363 29.8626 10.2344C29.8578 10.2366 29.8554 10.2376 29.8555 10.2375ZM30.3159 10.2375C30.3159 10.2376 30.3136 10.2366 30.3088 10.2344C30.3134 10.2363 30.3158 10.2374 30.3159 10.2375Z"
  />
</svg>
