<svg
  width="60"
  height="60"
  viewBox="0 0 60 60"
  fill="currentColor"
  xmlns="http://www.w3.org/2000/svg"
>
  <path
    fill-rule="evenodd"
    clip-rule="evenodd"
    d="M19.3037 6.75H40.6963C43.1348 6.74998 45.1017 6.74996 46.6944 6.88009C48.3343 7.01408 49.7747 7.29716 51.1074 7.97618C53.2242 9.05475 54.9452 10.7758 56.0238 12.8926C56.7028 14.2253 56.9859 15.6657 57.1199 17.3056C57.25 18.8983 57.25 20.8652 57.25 23.3038V23.3038V36.6962V36.6962C57.25 39.1348 57.25 41.1017 57.1199 42.6944C56.9859 44.3343 56.7028 45.7747 56.0238 47.1074C54.9452 49.2242 53.2242 50.9452 51.1074 52.0238C49.7747 52.7028 48.3343 52.9859 46.6944 53.1199C45.1017 53.25 43.1348 53.25 40.6962 53.25H40.6962H19.3038H19.3038C16.8652 53.25 14.8983 53.25 13.3056 53.1199C11.6657 52.9859 10.2253 52.7028 8.89261 52.0238C6.77578 50.9452 5.05475 49.2242 3.97618 47.1074C3.29716 45.7747 3.01408 44.3343 2.88009 42.6944C2.74996 41.1017 2.74998 39.1348 2.75 36.6963V36.6963V23.3037V23.3036C2.74998 20.8651 2.74996 18.8983 2.88009 17.3056C3.01408 15.6657 3.29716 14.2253 3.97618 12.8926C5.05475 10.7758 6.77578 9.05475 8.89261 7.97618C10.2253 7.29716 11.6657 7.01408 13.3056 6.88009C14.8983 6.74996 16.8652 6.74998 19.3037 6.75H19.3037ZM19.591 20.409C18.7123 19.5303 17.2877 19.5303 16.409 20.409C15.5303 21.2877 15.5303 22.7123 16.409 23.591L22.045 29.227C26.4384 33.6204 33.5616 33.6204 37.955 29.227L43.591 23.591C44.4697 22.7123 44.4697 21.2877 43.591 20.409C42.7123 19.5303 41.2877 19.5303 40.409 20.409L34.773 26.045C32.1369 28.6811 27.8631 28.6811 25.227 26.045L19.591 20.409Z"
  />
</svg>
