<svg
  width="60"
  height="60"
  viewBox="0 0 60 60"
  fill="currentColor"
  xmlns="http://www.w3.org/2000/svg"
>
  <path
    d="M19.591 20.409C18.7123 19.5303 17.2877 19.5303 16.409 20.409C15.5303 21.2877 15.5303 22.7123 16.409 23.591L22.045 29.227C26.4384 33.6204 33.5616 33.6204 37.955 29.227L43.591 23.591C44.4697 22.7123 44.4697 21.2877 43.591 20.409C42.7123 19.5303 41.2877 19.5303 40.409 20.409L34.773 26.045C32.1369 28.6811 27.8631 28.6811 25.227 26.045L19.591 20.409Z"
  />
  <path
    fill-rule="evenodd"
    clip-rule="evenodd"
    d="M40.6963 6.75H19.3037C16.8652 6.74998 14.8983 6.74996 13.3056 6.88009C11.6657 7.01408 10.2253 7.29716 8.89261 7.97618C6.77578 9.05475 5.05475 10.7758 3.97618 12.8926C3.29716 14.2253 3.01408 15.6657 2.88009 17.3056C2.74996 18.8983 2.74998 20.8652 2.75 23.3037V36.6963C2.74998 39.1348 2.74996 41.1017 2.88009 42.6944C3.01408 44.3343 3.29716 45.7747 3.97618 47.1074C5.05475 49.2242 6.77578 50.9452 8.89261 52.0238C10.2253 52.7028 11.6657 52.9859 13.3056 53.1199C14.8984 53.25 16.8652 53.25 19.3038 53.25H40.6962C43.1347 53.25 45.1017 53.25 46.6944 53.1199C48.3343 52.9859 49.7747 52.7028 51.1074 52.0238C53.2242 50.9452 54.9452 49.2242 56.0238 47.1074C56.7028 45.7747 56.9859 44.3343 57.1199 42.6944C57.25 41.1017 57.25 39.1348 57.25 36.6962V23.3038C57.25 20.8653 57.25 18.8983 57.1199 17.3056C56.9859 15.6657 56.7028 14.2253 56.0238 12.8926C54.9452 10.7758 53.2242 9.05475 51.1074 7.97618C49.7747 7.29716 48.3343 7.01408 46.6944 6.88009C45.1017 6.74996 43.1348 6.74998 40.6963 6.75ZM10.9356 11.9857C11.5281 11.6838 12.3104 11.4764 13.672 11.3651C15.0599 11.2518 16.8426 11.25 19.4 11.25H40.6C43.1574 11.25 44.9401 11.2518 46.328 11.3651C47.6896 11.4764 48.4719 11.6838 49.0644 11.9857C50.3345 12.6329 51.3671 13.6655 52.0143 14.9356C52.3162 15.5281 52.5236 16.3104 52.6349 17.672C52.7482 19.0599 52.75 20.8426 52.75 23.4V36.6C52.75 39.1574 52.7482 40.9401 52.6349 42.328C52.5236 43.6896 52.3162 44.4719 52.0143 45.0644C51.3671 46.3345 50.3345 47.3671 49.0644 48.0143C48.4719 48.3162 47.6896 48.5236 46.328 48.6349C44.9401 48.7482 43.1574 48.75 40.6 48.75H19.4C16.8426 48.75 15.0599 48.7482 13.672 48.6349C12.3104 48.5236 11.5281 48.3162 10.9356 48.0143C9.66547 47.3671 8.63285 46.3345 7.98571 45.0644C7.68379 44.4719 7.4764 43.6896 7.36515 42.328C7.25175 40.9401 7.25 39.1574 7.25 36.6V23.4C7.25 20.8426 7.25175 19.0599 7.36515 17.672C7.4764 16.3104 7.68379 15.5281 7.98571 14.9356C8.63285 13.6655 9.66547 12.6329 10.9356 11.9857Z"
  />
</svg>
