<svg
  width="60"
  height="60"
  viewBox="0 0 60 60"
  fill="currentColor"
  xmlns="http://www.w3.org/2000/svg"
>
  <path
    fill-rule="evenodd"
    clip-rule="evenodd"
    d="M18.6783 7H41.3217C43.4584 6.99996 45.2418 6.99992 46.6987 7.11896C48.2182 7.24311 49.6449 7.51156 50.9939 8.19893C53.0637 9.25354 54.7465 10.9363 55.8011 13.0061C56.4885 14.3552 56.7569 15.7818 56.8811 17.3013C57.0001 18.7582 57 20.5416 57 22.6782V37.3218C57 39.4584 57.0001 41.2418 56.8811 42.6987C56.7569 44.2182 56.4885 45.6449 55.8011 46.9939C54.7465 49.0637 53.0637 50.7465 50.9939 51.8011C49.6449 52.4885 48.2182 52.7569 46.6987 52.8811C45.2418 53.0001 43.4584 53 41.3218 53H18.6782C16.5416 53 14.7582 53.0001 13.3013 52.8811C11.7818 52.7569 10.3552 52.4885 9.00611 51.8011C6.93632 50.7465 5.25354 49.0637 4.19893 46.9939C3.51156 45.6449 3.24311 44.2182 3.11896 42.6987C2.99992 41.2418 2.99996 39.4584 3 37.3217V22.6783C2.99996 20.5416 2.99992 18.7583 3.11896 17.3013C3.24311 15.7818 3.51156 14.3552 4.19893 13.0061C5.25354 10.9363 6.93632 9.25354 9.00611 8.19893C10.3552 7.51156 11.7818 7.24311 13.3013 7.11896C14.7583 6.99992 16.5416 6.99996 18.6783 7ZM13.7899 13.099C12.6414 13.1929 12.0923 13.3604 11.7301 13.545C10.7892 14.0243 10.0243 14.7892 9.54497 15.7301C9.3604 16.0923 9.19287 16.6414 9.09903 17.7899C9.00234 18.9734 9 20.5103 9 22.8V37.2C9 39.4897 9.00234 41.0266 9.09903 42.2101C9.19287 43.3586 9.3604 43.9077 9.54497 44.27C10.0243 45.2108 10.7892 45.9757 11.7301 46.455C12.0923 46.6396 12.6414 46.8071 13.7899 46.901C14.9734 46.9977 16.5103 47 18.8 47H41.2C43.4897 47 45.0266 46.9977 46.2101 46.901C47.3586 46.8071 47.9077 46.6396 48.27 46.455C49.2108 45.9757 49.9757 45.2108 50.455 44.27C50.6396 43.9077 50.8071 43.3586 50.901 42.2101C50.9977 41.0266 51 39.4897 51 37.2V22.8C51 20.5103 50.9977 18.9734 50.901 17.7899C50.8071 16.6414 50.6396 16.0923 50.455 15.7301C49.9757 14.7892 49.2108 14.0243 48.27 13.545C47.9077 13.3604 47.3586 13.1929 46.2101 13.099C45.0266 13.0023 43.4897 13 41.2 13H18.8C16.5103 13 14.9734 13.0023 13.7899 13.099Z"
  />
  <path
    fill-rule="evenodd"
    clip-rule="evenodd"
    d="M15.8787 19.8787C17.0503 18.7071 18.9497 18.7071 20.1213 19.8787L21.939 21.6963C23.7561 23.5134 24.9929 24.747 26.0257 25.6238C27.0317 26.4778 27.6451 26.8157 28.1459 26.9784C29.351 27.37 30.649 27.37 31.8541 26.9784C32.3549 26.8157 32.9683 26.4778 33.9743 25.6238C35.0071 24.747 36.2439 23.5134 38.061 21.6963L39.8787 19.8787C41.0503 18.7071 42.9498 18.7071 44.1213 19.8787C45.2929 21.0503 45.2929 22.9497 44.1213 24.1213L42.216 26.0266C40.5084 27.7343 39.0992 29.1436 37.8573 30.1978C36.5675 31.2928 35.2623 32.1798 33.7082 32.6848C31.2981 33.4679 28.7019 33.4679 26.2918 32.6848C24.7377 32.1798 23.4325 31.2928 22.1427 30.1978C20.9008 29.1436 19.4915 27.7342 17.784 26.0266L15.8787 24.1213C14.7071 22.9497 14.7071 21.0503 15.8787 19.8787Z"
  />
</svg>
