<svg
  width="60"
  height="60"
  viewBox="0 0 60 60"
  fill="currentColor"
  xmlns="http://www.w3.org/2000/svg"
>
  <path
    fill-rule="evenodd"
    clip-rule="evenodd"
    d="M20.3197 5.97472C21.9719 4.9937 24.0281 4.9937 25.6803 5.97471L38.5098 13.5922C38.7598 13.7407 39.0732 13.7312 39.3138 13.5679L47.0521 8.31694C50.538 5.95152 55.25 8.44852 55.25 12.6612V41.9102C55.25 43.6503 54.3878 45.2774 52.9479 46.2545L41.8406 53.7916C40.1561 54.9346 37.9627 55.0008 36.2124 53.9616L23.3829 46.3441C23.1469 46.2039 22.8531 46.2039 22.6171 46.3441L12.6803 52.244C9.18072 54.3219 4.75 51.7998 4.75 47.7298V18.2077C4.75 16.3549 5.72657 14.6394 7.31967 13.6935L20.3197 5.97472ZM9.6171 17.5628L20.75 10.9527L20.75 42.2455C20.604 42.3148 20.4604 42.3912 20.3197 42.4747L10.3829 48.3747C9.88296 48.6715 9.25 48.3112 9.25 47.7298V18.2077C9.25 17.943 9.38951 17.6979 9.6171 17.5628ZM25.6803 42.4747C25.5396 42.3912 25.396 42.3148 25.25 42.2455L25.25 10.9526L36.2124 17.4616C36.3875 17.5655 36.567 17.6584 36.75 17.7403L36.75 49.0473L25.6803 42.4747ZM41.25 48.7541L50.4211 42.5308C50.6268 42.3912 50.75 42.1588 50.75 41.9102V12.6612C50.75 12.0594 50.0769 11.7027 49.5789 12.0406L41.8406 17.2916C41.6498 17.421 41.4525 17.5367 41.25 17.6385L41.25 48.7541Z"
  />
</svg>
