<svg
  width="60"
  height="60"
  viewBox="0 0 60 60"
  fill="currentColor"
  xmlns="http://www.w3.org/2000/svg"
>
  <path
    fill-rule="evenodd"
    clip-rule="evenodd"
    d="M4.75 16C4.75 9.7868 9.7868 4.75 16 4.75H44C50.2132 4.75 55.25 9.7868 55.25 16V44C55.25 50.2132 50.2132 55.25 44 55.25H16C9.7868 55.25 4.75 50.2132 4.75 44V16ZM16 9.25C12.2721 9.25 9.25 12.2721 9.25 16V39.1244L27.299 28.9228L18.5556 9.25H16ZM29.1351 33.0541L9.25612 44.29C9.40802 47.8834 12.3692 50.75 16 50.75H37L29.1351 33.0541ZM44 50.75H41.9244L23.48 9.25H44C47.7279 9.25 50.75 12.2721 50.75 16V44C50.75 47.7279 47.7279 50.75 44 50.75Z"
  />
</svg>
