<svg
  width="60"
  height="60"
  viewBox="0 0 60 60"
  fill="currentColor"
  xmlns="http://www.w3.org/2000/svg"
>
  <path
    fill-rule="evenodd"
    clip-rule="evenodd"
    d="M15.49 51.9417C13.6642 51.9677 12.4505 51.9827 11.555 51.9134C10.651 51.8434 10.4336 51.7048 10.4067 51.6861C10.0037 51.4057 9.73703 50.969 9.67172 50.4824C9.66736 50.4499 9.64338 50.1932 9.9942 49.357C10.3417 48.5288 10.9095 47.4561 11.7668 45.8438L14.5668 40.5778C15.0851 40.8989 15.6636 41.206 16.3146 41.5516L24.7019 46.0112C25.3524 46.3576 25.9305 46.6655 26.4866 46.9156L25.9177 47.9856C24.8751 49.9464 24.5714 50.4595 24.1956 50.818C23.8077 51.1879 23.3451 51.4704 22.8388 51.6464C22.3482 51.8169 21.7532 51.8526 19.5325 51.8842L15.49 51.9417ZM11.3908 36.9656C11.0061 36.0779 10.7999 35.0881 10.546 33.8693L9.28648 27.8429L9.24063 27.6237C8.88914 25.9442 8.64575 24.7812 8.64856 23.6008C8.65104 22.557 8.79877 21.5187 9.08749 20.5156C9.28036 19.8456 9.55401 19.2054 9.91181 18.4813L13.3644 21.9339C13.2225 22.4816 13.1499 23.0452 13.1485 23.6115C13.147 24.263 13.2772 24.941 13.6913 26.9222L14.9005 32.7078C15.2636 34.4448 15.3784 34.9055 15.5709 35.2856C15.7693 35.6773 16.035 36.0312 16.3559 36.331C16.6672 36.6219 17.0776 36.8606 18.6445 37.6937L26.5973 41.9223C28.1642 42.7554 28.5916 42.9622 29.0068 43.0576C29.4348 43.156 29.8767 43.1784 30.3125 43.1238C30.7352 43.0709 31.1814 42.9084 32.8244 42.2381L33.424 41.9935L36.8758 45.4453L34.2966 46.4977C33.1442 46.9687 32.2083 47.3513 31.2572 47.5287L29.7451 50.3728C28.9202 51.9273 28.2721 53.1485 27.3014 54.0743C26.4481 54.8881 25.4303 55.5096 24.3165 55.8968C23.0495 56.3373 21.6671 56.3559 19.9075 56.3795L15.447 56.4428C13.7566 56.4669 12.3342 56.4871 11.2079 56.4C10.0665 56.3116 8.86522 56.0957 7.83655 55.3799C6.39735 54.3786 5.44495 52.8187 5.21171 51.081C5.04501 49.839 5.4017 48.6718 5.84461 47.6161C6.28166 46.5744 6.94953 45.3184 7.74319 43.8258L11.3908 36.9656ZM46.0117 40.4391C46.0695 40.3733 46.1266 40.3067 46.1828 40.2395C46.9407 39.3345 47.4982 38.2853 48.3034 36.77L52.8549 28.2098C53.3468 27.2847 53.7781 26.4737 54.0799 25.774C54.4002 25.0313 54.6569 24.2357 54.6725 23.3403C54.6956 22.0206 54.3002 20.7276 53.5432 19.6464C53.0296 18.9129 52.3718 18.3968 51.691 17.9602C51.0495 17.5489 50.2385 17.1177 49.3133 16.6258L26.9136 4.71567C25.9885 4.22374 25.1775 3.79248 24.4778 3.49071C23.7351 3.1704 22.9395 2.91367 22.0441 2.89805C20.7245 2.87501 19.4314 3.27034 18.3502 4.02739C17.6167 4.54102 17.1006 5.19875 16.664 5.87962C16.2527 6.52108 15.8215 7.33211 15.3296 8.25725L14.809 9.23638L18.1364 12.5638L19.2632 10.4446C19.8065 9.42282 20.1519 8.77679 20.4521 8.30877C20.738 7.86294 20.8782 7.75077 20.9313 7.71358C21.234 7.50161 21.5961 7.39091 21.9656 7.39736C22.0304 7.39849 22.2094 7.41308 22.6957 7.62281C23.2063 7.84299 23.8539 8.18538 24.8757 8.72867L47.126 20.5594C48.1478 21.1026 48.7938 21.4481 49.2618 21.7482C49.7076 22.0341 49.8198 22.1744 49.857 22.2275C50.069 22.5302 50.1797 22.8923 50.1732 23.2618C50.1721 23.3266 50.1575 23.5056 49.9478 23.9919C49.7276 24.5024 49.3852 25.1501 48.8419 26.1719L44.4352 34.4597C43.5504 36.1237 43.1999 36.7622 42.8181 37.2455L46.0117 40.4391Z"
  />
  <path
    fill-rule="evenodd"
    clip-rule="evenodd"
    d="M5.91047 7.40901C6.78915 6.53033 8.21378 6.53033 9.09246 7.40901L51.0925 49.409C51.9711 50.2877 51.9711 51.7123 51.0925 52.591C50.2138 53.4697 48.7892 53.4697 47.9105 52.591L5.91047 10.591C5.03179 9.71231 5.03179 8.28769 5.91047 7.40901Z"
  />
</svg>
