<svg
  width="60"
  height="60"
  viewBox="0 0 60 60"
  fill="currentColor"
  xmlns="http://www.w3.org/2000/svg"
>
  <path
    fill-rule="evenodd"
    clip-rule="evenodd"
    d="M11.555 51.9134C12.4505 51.9827 13.6642 51.9677 15.49 51.9417L19.5325 51.8842C21.7532 51.8526 22.3482 51.8169 22.8388 51.6464C23.3451 51.4704 23.8077 51.1879 24.1956 50.818C24.5714 50.4595 24.8751 49.9464 25.9177 47.9856L26.4866 46.9156C25.9305 46.6655 25.3524 46.3576 24.7019 46.0112C24.6304 45.9731 24.558 45.9346 24.4847 45.8956L16.5318 41.667C16.4585 41.628 16.3861 41.5895 16.3146 41.5516C15.6636 41.206 15.0851 40.8989 14.5668 40.5778L11.7668 45.8438C10.9095 47.4561 10.3417 48.5288 9.9942 49.357C9.64338 50.1932 9.66736 50.4499 9.67172 50.4824C9.73703 50.969 10.0037 51.4057 10.4067 51.6861C10.4336 51.7048 10.651 51.8434 11.555 51.9134ZM11.3908 36.9656L7.74324 43.8257C6.94956 45.3183 6.28167 46.5744 5.84461 47.6161C5.4017 48.6718 5.04501 49.839 5.21171 51.081C5.44495 52.8187 6.39735 54.3786 7.83655 55.3799C8.86522 56.0957 10.0665 56.3116 11.2079 56.4C12.3342 56.4871 13.7566 56.4669 15.447 56.4428L19.5965 56.3837C19.7015 56.3823 19.8051 56.3809 19.9075 56.3795C21.6671 56.3559 23.0495 56.3373 24.3165 55.8968C25.4303 55.5096 26.4481 54.8881 27.3014 54.0743C28.2721 53.1485 28.9202 51.9273 29.7451 50.3728C29.7931 50.2824 29.8417 50.1909 29.8909 50.0982L31.2572 47.5287C32.2083 47.3513 33.1442 46.9687 34.2966 46.4977C34.3716 46.467 34.4474 46.436 34.5243 46.4047L39.997 44.1719C40.067 44.1434 40.1361 44.1152 40.2043 44.0874C41.7932 43.4396 42.8935 42.9911 43.8705 42.3287C44.7345 41.7429 45.5127 41.0398 46.1828 40.2395C46.9407 39.3345 47.4982 38.2853 48.3034 36.77C48.338 36.7049 48.373 36.6391 48.4085 36.5723L52.8549 28.2098C53.3468 27.2847 53.7781 26.4737 54.0799 25.774C54.4002 25.0313 54.6569 24.2357 54.6725 23.3403C54.6956 22.0206 54.3002 20.7276 53.5432 19.6464C53.0296 18.9129 52.3718 18.3968 51.691 17.9602C51.0495 17.5489 50.2385 17.1177 49.3133 16.6258L26.9136 4.71567C25.9885 4.22374 25.1775 3.79248 24.4778 3.49071C23.7351 3.1704 22.9395 2.91367 22.0441 2.89805C20.7245 2.87501 19.4314 3.27034 18.3502 4.02739C17.6167 4.54102 17.1007 5.19875 16.664 5.87962C16.2527 6.52108 15.8215 7.33211 15.3296 8.25725L10.8832 16.6197C10.8477 16.6865 10.8127 16.7524 10.7781 16.8174C9.97211 18.3323 9.41402 19.3812 9.0875 20.5156C8.79877 21.5186 8.65104 22.557 8.64856 23.6008C8.64575 24.7812 8.88915 25.9442 9.24063 27.6237C9.25572 27.6958 9.27101 27.7688 9.28648 27.8429L10.4957 33.6284C10.5127 33.7097 10.5294 33.79 10.546 33.8693C10.7999 35.0881 11.0061 36.0779 11.3908 36.9656ZM26.5973 41.9223C28.1642 42.7554 28.5916 42.9622 29.0068 43.0576C29.4348 43.156 29.8767 43.1784 30.3125 43.1238C30.7352 43.0709 31.1814 42.9084 32.8244 42.2381L38.2971 40.0054C40.1712 39.2408 40.806 38.9696 41.3453 38.604C41.8637 38.2525 42.3306 37.8307 42.7327 37.3505C43.151 36.851 43.485 36.2468 44.4352 34.4597L48.8419 26.1719C49.3852 25.1501 49.7276 24.5024 49.9478 23.9919C50.1575 23.5056 50.1721 23.3266 50.1732 23.2618C50.1797 22.8923 50.069 22.5302 49.857 22.2275C49.8198 22.1744 49.7076 22.0341 49.2618 21.7482C48.7938 21.4481 48.1478 21.1026 47.126 20.5594L24.8757 8.72867C23.8539 8.18538 23.2063 7.84299 22.6957 7.62281C22.2094 7.41307 22.0304 7.39849 21.9656 7.39736C21.5961 7.39091 21.234 7.50161 20.9313 7.71358C20.8782 7.75077 20.738 7.86294 20.4521 8.30877C20.1519 8.77679 19.8065 9.42282 19.2632 10.4446L14.8565 18.7324C13.9063 20.5195 13.5921 21.1342 13.4119 21.7604C13.2387 22.3622 13.15 22.9852 13.1485 23.6115C13.147 24.263 13.2772 24.941 13.6913 26.9222L14.9005 32.7078C15.2636 34.4448 15.3784 34.9055 15.5709 35.2856C15.7693 35.6773 16.035 36.0312 16.3559 36.331C16.6672 36.6219 17.0776 36.8606 18.6445 37.6937L26.5973 41.9223Z"
  />
  <path
    d="M11.5552 51.9134C12.4507 51.9827 13.6644 51.9677 15.4902 51.9417L19.5327 51.8842C21.7533 51.8526 22.3484 51.8169 22.839 51.6464C23.3453 51.4704 23.8079 51.1879 24.1958 50.8179C24.5716 50.4595 24.8752 49.9464 25.9179 47.9856L26.4868 46.9156C25.9307 46.6655 25.3526 46.3576 24.7021 46.0112L24.7021 46.0112L24.4849 45.8956L16.532 41.667L16.3148 41.5516L16.3147 41.5515C15.6638 41.206 15.0853 40.8989 14.567 40.5778L11.767 45.8438C10.9097 47.4561 10.3419 48.5288 9.99439 49.357C9.64357 50.1932 9.66755 50.4499 9.67191 50.4824C9.73722 50.969 10.0039 51.4057 10.4069 51.6861C10.4338 51.7048 10.6512 51.8434 11.5552 51.9134Z"
  />
</svg>
