<svg
  xmlns="http://www.w3.org/2000/svg"
  width="24"
  height="24"
  viewBox="0 0 24 24"
  fill="currentColor"
>
  <path
    d="M2 8.26087C2 6.06936 2 4.9736 2.4265 4.13656C2.80165 3.40027 3.40027 2.80165 4.13656 2.4265C4.9736 2 6.06936 2 8.26087 2H15.7391C17.9306 2 19.0264 2 19.8634 2.4265C20.5997 2.80165 21.1983 3.40027 21.5735 4.13656C22 4.9736 22 6.06936 22 8.26087V15.7391C22 17.9306 22 19.0264 21.5735 19.8634C21.1983 20.5997 20.5997 21.1983 19.8634 21.5735C19.0264 22 17.9306 22 15.7391 22H8.26087C6.06936 22 4.9736 22 4.13656 21.5735C3.40027 21.1983 2.80165 20.5997 2.4265 19.8634C2 19.0264 2 17.9306 2 15.7391V8.26087Z"
    fill="#0A0D33"
    fill-opacity="0.6"
  />
  <path
    d="M9.40078 11.3719V15.8016C9.40078 16.0257 9.40078 16.1377 9.35718 16.2233C9.31882 16.2985 9.25761 16.3597 9.18234 16.3981C9.09676 16.4417 8.98473 16.4417 8.76068 16.4416L7.44068 16.4414C7.21669 16.4414 7.10469 16.4414 7.01914 16.3978C6.94389 16.3594 6.88271 16.2982 6.84437 16.223C6.80078 16.1374 6.80078 16.0254 6.80078 15.8014V8.24156C6.80078 8.01754 6.80078 7.90553 6.84438 7.81997C6.88273 7.7447 6.94392 7.68351 7.01919 7.64516C7.10475 7.60156 7.21676 7.60156 7.44078 7.60156H9.09319C9.20615 7.60156 9.26263 7.60156 9.31477 7.61593C9.36097 7.62865 9.4045 7.64958 9.4433 7.6777C9.48709 7.70944 9.52237 7.75354 9.59294 7.84174L12.0008 10.8514L14.4086 7.84174L14.4086 7.84173C14.4792 7.75354 14.5145 7.70944 14.5583 7.6777C14.5971 7.64958 14.6406 7.62865 14.6868 7.61593C14.7389 7.60156 14.7954 7.60156 14.9084 7.60156H16.5608C16.7848 7.60156 16.8968 7.60156 16.9824 7.64516C17.0576 7.68351 17.1188 7.7447 17.1572 7.81997C17.2008 7.90553 17.2008 8.01754 17.2008 8.24156V15.8017C17.2008 16.0258 17.2008 16.1378 17.1572 16.2233C17.1188 16.2986 17.0576 16.3598 16.9824 16.3981C16.8968 16.4417 16.7848 16.4417 16.5608 16.4417H15.2408C15.0168 16.4417 14.9048 16.4417 14.8192 16.3981C14.7439 16.3598 14.6827 16.2986 14.6444 16.2233C14.6008 16.1378 14.6008 16.0258 14.6008 15.8017V11.3719L12.5005 13.997C12.3297 14.2105 12.2443 14.3173 12.1411 14.3559C12.0506 14.3898 11.9509 14.3898 11.8605 14.3559C11.7573 14.3173 11.6719 14.2105 11.501 13.997L9.40078 11.3719Z"
    fill="white"
  />
</svg>
