<svg xmlns="http://www.w3.org/2000/svg" width="32" height="32" viewBox="0 0 32 32" fill="none">
  <path d="M0 10.0174C0 6.51098 0 4.75777 0.682394 3.41849C1.28264 2.24044 2.24044 1.28264 3.41849 0.682394C4.75777 0 6.51098 0 10.0174 0H21.9826C25.489 0 27.2422 0 28.5815 0.682394C29.7596 1.28264 30.7174 2.24044 31.3176 3.41849C32 4.75777 32 6.51098 32 10.0174V21.9826C32 25.489 32 27.2422 31.3176 28.5815C30.7174 29.7596 29.7596 30.7174 28.5815 31.3176C27.2422 32 25.489 32 21.9826 32H10.0174C6.51098 32 4.75777 32 3.41849 31.3176C2.24044 30.7174 1.28264 29.7596 0.682394 28.5815C0 27.2422 0 25.489 0 21.9826V10.0174Z" fill="#72768B" fill-opacity="0.08"/>
  <path d="M11.8397 14.9924V22.0801C11.8397 22.4386 11.8397 22.6178 11.7699 22.7547C11.7085 22.8751 11.6106 22.9731 11.4902 23.0344C11.3533 23.1042 11.174 23.1041 10.8155 23.1041L8.70352 23.1037C8.34514 23.1037 8.16595 23.1036 8.02907 23.0339C7.90866 22.9725 7.81078 22.8746 7.74943 22.7542C7.67969 22.6173 7.67969 22.4381 7.67969 22.0797V9.98396C7.67969 9.62553 7.67969 9.44631 7.74944 9.30941C7.8108 9.18898 7.90871 9.09108 8.02913 9.02972C8.16604 8.95996 8.34525 8.95996 8.70369 8.95996H11.3475C11.5283 8.95996 11.6186 8.95996 11.7021 8.98294C11.776 9.00331 11.8456 9.03678 11.9077 9.08178C11.9778 9.13256 12.0342 9.20312 12.1471 9.34424L12.1471 9.34425L15.9997 14.1596L19.8522 9.34425C19.9651 9.20313 20.0216 9.13257 20.0917 9.08178C20.1537 9.03678 20.2234 9.00331 20.2973 8.98294C20.3807 8.95996 20.4711 8.95996 20.6518 8.95996H23.2957C23.6541 8.95996 23.8333 8.95996 23.9702 9.02972C24.0907 9.09108 24.1886 9.18898 24.2499 9.30941C24.3197 9.44631 24.3197 9.62553 24.3197 9.98396V22.0802C24.3197 22.4387 24.3197 22.6179 24.2499 22.7548C24.1886 22.8752 24.0907 22.9731 23.9702 23.0345C23.8333 23.1042 23.6541 23.1042 23.2957 23.1042H21.1837C20.8253 23.1042 20.646 23.1042 20.5091 23.0345C20.3887 22.9731 20.2908 22.8752 20.2294 22.7548C20.1597 22.6179 20.1597 22.4387 20.1597 22.0802V14.9924L16.7993 19.1927C16.526 19.5343 16.3893 19.7051 16.2242 19.767C16.0794 19.8212 15.9199 19.8212 15.7752 19.767C15.6101 19.7051 15.4734 19.5343 15.2001 19.1927L11.8397 14.9924Z" fill="#0A0D33" fill-opacity="0.6"/>
</svg>