<svg
  width="60"
  height="60"
  viewBox="0 0 60 60"
  fill="currentColor"
  xmlns="http://www.w3.org/2000/svg"
>
  <path
    d="M29.0499 13.9273C29.3493 13.006 30.6527 13.006 30.952 13.9273L32.4706 18.6011C32.6045 19.0131 32.9885 19.2921 33.4217 19.2921H38.336C39.3047 19.2921 39.7075 20.5317 38.9238 21.1011L34.948 23.9896C34.5975 24.2443 34.4509 24.6956 34.5847 25.1077L36.1033 29.7814C36.4027 30.7027 35.3482 31.4688 34.5645 30.8994L30.5888 28.0109C30.2383 27.7563 29.7637 27.7563 29.4132 28.0109L25.4375 30.8994C24.6537 31.4688 23.5993 30.7027 23.8986 29.7814L25.4172 25.1077C25.5511 24.6956 25.4044 24.2443 25.0539 23.9896L21.0782 21.1011C20.2945 20.5317 20.6973 19.2921 21.666 19.2921H26.5803C27.0135 19.2921 27.3974 19.0131 27.5313 18.6011L29.0499 13.9273Z"
  />
  <path
    fill-rule="evenodd"
    clip-rule="evenodd"
    d="M45.25 35.9404C48.2127 32.4524 50 27.9349 50 23C50 11.9543 41.0457 3 30 3C18.9543 3 10 11.9543 10 23C10 27.9349 11.7873 32.4524 14.75 35.9404V54.646C14.75 56.8327 16.8659 58.3954 18.9558 57.7523L30 54L41.0442 57.7523C43.1341 58.3954 45.25 56.8327 45.25 54.646V35.9404ZM30 38.5C38.5604 38.5 45.5 31.5604 45.5 23C45.5 14.4396 38.5604 7.5 30 7.5C21.4396 7.5 14.5 14.4396 14.5 23C14.5 31.5604 21.4396 38.5 30 38.5ZM40.75 39.8682C37.6454 41.8509 33.9569 43 30 43C26.0431 43 22.3546 41.8509 19.25 39.8682V52.9536L29.0442 49.5C29.667 49.3084 30.333 49.3084 30.9558 49.5L40.75 52.9536V39.8682Z"
  />
</svg>
