<svg
  width="60"
  height="60"
  viewBox="0 0 60 60"
  fill="currentColor"
  xmlns="http://www.w3.org/2000/svg"
>
  <path
    d="M40.0564 21.1251C40.9351 20.2465 40.9351 18.8218 40.0564 17.9432C39.1778 17.0645 37.7531 17.0645 36.8745 17.9432L28.9866 25.831L24.6942 21.5386C23.8155 20.6599 22.3909 20.6599 21.5122 21.5386C20.6335 22.4173 20.6335 23.8419 21.5122 24.7206L26.8865 30.0949C28.0464 31.2547 29.9269 31.2547 31.0867 30.0949L40.0564 21.1251Z"
  />
  <path
    fill-rule="evenodd"
    clip-rule="evenodd"
    d="M20.4742 5C18.8846 5 17.4186 5.85739 16.6393 7.24285L9.17835 20.5067C8.44448 21.8114 8.42424 23.3997 9.12461 24.7226L14.7776 35.4004H14.75V53.2964C14.75 55.483 16.8659 57.0458 18.9558 56.4027L30 53.0045L41.0442 56.4027C43.1341 57.0458 45.25 55.483 45.25 53.2964V35.4004H45.2242L50.8772 24.7226C51.5775 23.3997 51.5573 21.8114 50.8234 20.5067L43.3625 7.24285C42.5832 5.85739 41.1172 5 39.5276 5H20.4742ZM20.7959 9.95L13.6398 22.6719L20.8812 36.35H39.1206L46.3619 22.6719L39.2059 9.95H20.7959ZM19.25 51.604V41.1037C19.665 41.2321 20.1025 41.3 20.55 41.3H39.4517C39.8987 41.3 40.3355 41.2323 40.75 41.1042V51.604L30.9558 48.5904C30.333 48.3988 29.667 48.3988 29.0442 48.5904L19.25 51.604Z"
  />
</svg>
