<svg
  width="60"
  height="60"
  viewBox="0 0 60 60"
  fill="currentColor"
  xmlns="http://www.w3.org/2000/svg"
>
  <path
    d="M18 4.75C16.7574 4.75 15.75 5.75736 15.75 7C15.75 8.24264 16.7574 9.25 18 9.25H42C43.2426 9.25 44.25 8.24264 44.25 7C44.25 5.75736 43.2426 4.75 42 4.75H18Z"
  />
  <path
    d="M18.75 34.0361C18.75 32.7935 19.7574 31.7861 21 31.7861H27.75V25.0361C27.75 23.7935 28.7574 22.7861 30 22.7861C31.2426 22.7861 32.25 23.7935 32.25 25.0361V31.7861H39C40.2426 31.7861 41.25 32.7935 41.25 34.0361C41.25 35.2788 40.2426 36.2861 39 36.2861H32.25V43.0361C32.25 44.2788 31.2426 45.2861 30 45.2861C28.7574 45.2861 27.75 44.2788 27.75 43.0361V36.2861H21C19.7574 36.2861 18.75 35.2788 18.75 34.0361Z"
  />
  <path
    fill-rule="evenodd"
    clip-rule="evenodd"
    d="M30.6963 11.75H29.3037C26.8652 11.75 24.8983 11.75 23.3056 11.8801C21.6657 12.0141 20.2253 12.2972 18.8926 12.9762C16.7758 14.0548 15.0548 15.7758 13.9762 17.8926C13.2972 19.2253 13.0141 20.6657 12.8801 22.3056C12.75 23.8983 12.75 25.8652 12.75 28.3037V40.6963C12.75 43.1348 12.75 45.1017 12.8801 46.6944C13.0141 48.3343 13.2972 49.7747 13.9762 51.1074C15.0548 53.2242 16.7758 54.9452 18.8926 56.0238C20.2253 56.7028 21.6657 56.9859 23.3056 57.1199C24.8983 57.25 26.8651 57.25 29.3035 57.25H30.6964C33.1348 57.25 35.1017 57.25 36.6944 57.1199C38.3343 56.9859 39.7747 56.7028 41.1074 56.0238C43.2242 54.9452 44.9452 53.2242 46.0238 51.1074C46.7028 49.7747 46.9859 48.3343 47.1199 46.6944C47.25 45.1017 47.25 43.1349 47.25 40.6965V28.3036C47.25 25.8652 47.25 23.8983 47.1199 22.3056C46.9859 20.6657 46.7028 19.2253 46.0238 17.8926C44.9452 15.7758 43.2242 14.0548 41.1074 12.9762C39.7747 12.2972 38.3343 12.0141 36.6944 11.8801C35.1017 11.75 33.1348 11.75 30.6963 11.75ZM20.9356 16.9857C21.5281 16.6838 22.3104 16.4764 23.672 16.3651C25.0599 16.2518 26.8426 16.25 29.4 16.25H30.6C33.1574 16.25 34.9401 16.2518 36.328 16.3651C37.6896 16.4764 38.4719 16.6838 39.0644 16.9857C40.3345 17.6329 41.3672 18.6655 42.0143 19.9356C42.3162 20.5281 42.5236 21.3104 42.6349 22.672C42.7483 24.0599 42.75 25.8426 42.75 28.4V40.6C42.75 43.1574 42.7483 44.9401 42.6349 46.328C42.5236 47.6896 42.3162 48.4719 42.0143 49.0644C41.3672 50.3345 40.3345 51.3671 39.0644 52.0143C38.4719 52.3162 37.6896 52.5236 36.328 52.6349C34.9401 52.7482 33.1574 52.75 30.6 52.75H29.4C26.8426 52.75 25.0599 52.7482 23.672 52.6349C22.3104 52.5236 21.5281 52.3162 20.9356 52.0143C19.6655 51.3671 18.6329 50.3345 17.9857 49.0644C17.6838 48.4719 17.4764 47.6896 17.3651 46.328C17.2518 44.9401 17.25 43.1574 17.25 40.6V28.4C17.25 25.8426 17.2518 24.0599 17.3651 22.672C17.4764 21.3104 17.6838 20.5281 17.9857 19.9356C18.6329 18.6655 19.6655 17.6329 20.9356 16.9857Z"
  />
</svg>
