<svg
  width="60"
  height="60"
  viewBox="0 0 60 60"
  fill="currentColor"
  xmlns="http://www.w3.org/2000/svg"
>
  <path
    d="M17.7843 24.6088C18.0004 23.385 19.1675 22.5682 20.3913 22.7843C27.9246 24.1145 31.9431 24.0854 39.6235 22.7817C40.8486 22.5738 42.0103 23.3983 42.2183 24.6235C42.4262 25.8486 41.6017 27.0103 40.3765 27.2183C32.2163 28.6034 27.6776 28.6405 19.6088 27.2157C18.3851 26.9996 17.5682 25.8325 17.7843 24.6088Z"
  />
  <path
    d="M20.3913 32.7843C19.1675 32.5682 18.0004 33.385 17.7843 34.6087C17.5682 35.8325 18.3851 36.9996 19.6088 37.2157C27.6776 38.6405 32.2163 38.6034 40.3765 37.2183C41.6017 37.0103 42.4262 35.8486 42.2183 34.6235C42.0103 33.3983 40.8486 32.5738 39.6235 32.7817C31.9431 34.0854 27.9246 34.1145 20.3913 32.7843Z"
  />
  <path
    fill-rule="evenodd"
    clip-rule="evenodd"
    d="M18.2893 49.5004C26.6961 50.5129 33.3251 50.4905 41.6802 49.4891C46.1005 48.9593 49.5237 45.8221 50.755 41.8104C55.5979 39.9599 57.6249 34.5905 57.6249 30C57.6249 25.5691 55.7365 20.4125 51.25 18.3952V18.1189C51.25 12.9686 46.6348 9.20598 41.6774 9.82995C33.4007 10.8717 26.7905 10.8352 18.2541 9.7764C13.308 9.16292 8.75001 12.9358 8.75001 18.0472V18.3952C4.26356 20.4125 2.3751 25.5691 2.37512 30C2.37514 34.5876 4.3995 39.953 9.23557 41.8068C10.455 45.8206 13.8679 48.9679 18.2893 49.5004ZM41.1447 45.021C33.1376 45.9807 26.8692 46.0012 18.8273 45.0327C15.651 44.6502 13.25 41.8682 13.25 38.534L13.25 18.0472C13.25 15.7675 15.3113 13.9459 17.7002 14.2422C26.5834 15.344 33.5691 15.386 42.2394 14.2947C44.6634 13.9896 46.75 15.8295 46.75 18.1189V38.5062C46.75 41.8481 44.3367 44.6385 41.1447 45.021ZM51.25 23.9827V36.0173C52.4242 34.5885 53.1249 32.464 53.1249 30C53.1249 27.5359 52.4242 25.4115 51.25 23.9827ZM6.87512 30C6.87511 27.5359 7.57579 25.4115 8.75001 23.9827V36.0173C7.57581 34.5885 6.87513 32.464 6.87512 30Z"
  />
</svg>
