<svg
  width="60"
  height="60"
  viewBox="0 0 60 60"
  fill="currentColor"
  xmlns="http://www.w3.org/2000/svg"
>
  <path
    d="M19 44.25C17.7574 44.25 16.75 43.2426 16.75 42V38.25H13C11.7574 38.25 10.75 37.2426 10.75 36C10.75 34.7574 11.7574 33.75 13 33.75H16.75V30C16.75 28.7574 17.7574 27.75 19 27.75C20.2426 27.75 21.25 28.7574 21.25 30V33.75H25C26.2426 33.75 27.25 34.7574 27.25 36C27.25 37.2426 26.2426 38.25 25 38.25H21.25V42C21.25 43.2426 20.2426 44.25 19 44.25Z"
  />
  <path
    d="M35 29.75C33.7574 29.75 32.75 30.7574 32.75 32C32.75 33.2426 33.7574 34.25 35 34.25H47C48.2426 34.25 49.25 33.2426 49.25 32C49.25 30.7574 48.2426 29.75 47 29.75H35Z"
  />
  <path
    d="M35 37.75C33.7574 37.75 32.75 38.7574 32.75 40C32.75 41.2426 33.7574 42.25 35 42.25H42C43.2426 42.25 44.25 41.2426 44.25 40C44.25 38.7574 43.2426 37.75 42 37.75H35Z"
  />
  <path
    fill-rule="evenodd"
    clip-rule="evenodd"
    d="M36.25 14.103V11C36.25 7.54822 33.4518 4.75 30 4.75C26.5482 4.75 23.75 7.54822 23.75 11V14.103H21.3036C18.8652 14.103 16.8983 14.103 15.3056 14.2331C13.6657 14.3671 12.2253 14.6502 10.8926 15.3292C8.77578 16.4078 7.05475 18.1288 5.97618 20.2456C5.29716 21.5783 5.01408 23.0187 4.88009 24.6586C4.74996 26.2513 4.74998 28.2182 4.75 30.6567V38.2995C4.74998 40.738 4.74996 42.7049 4.88009 44.2976C5.01408 45.9375 5.29716 47.3779 5.97618 48.7106C7.05475 50.8274 8.77579 52.5484 10.8926 53.627C12.2253 54.306 13.6657 54.5891 15.3056 54.7231C16.8983 54.8532 18.8651 54.8532 21.3035 54.8532H38.6963C41.1347 54.8532 43.1017 54.8532 44.6944 54.7231C46.3343 54.5891 47.7747 54.306 49.1074 53.627C51.2242 52.5484 52.9452 50.8274 54.0238 48.7106C54.7028 47.3779 54.9859 45.9375 55.1199 44.2976C55.25 42.7049 55.25 40.7381 55.25 38.2998V30.6567C55.25 28.2183 55.25 26.2513 55.1199 24.6586C54.9859 23.0187 54.7028 21.5783 54.0238 20.2456C52.9452 18.1288 51.2242 16.4078 49.1074 15.3292C47.7747 14.6502 46.3343 14.3671 44.6944 14.2331C43.1017 14.103 41.1349 14.103 38.6964 14.103H36.25ZM30 25.25C26.5482 25.25 23.75 22.4518 23.75 19V18.603H21.4C18.8426 18.603 17.0599 18.6048 15.672 18.7182C14.3104 18.8294 13.5281 19.0368 12.9356 19.3387C11.6655 19.9859 10.6329 21.0185 9.98571 22.2886C9.68379 22.8811 9.4764 23.6634 9.36515 25.0251C9.25175 26.413 9.25 28.1957 9.25 30.753V38.2032C9.25 40.7605 9.25175 42.5432 9.36515 43.9311C9.4764 45.2928 9.68379 46.0751 9.98571 46.6676C10.6329 47.9377 11.6655 48.9703 12.9356 49.6175C13.5281 49.9194 14.3104 50.1268 15.672 50.238C17.0599 50.3514 18.8426 50.3532 21.4 50.3532H38.6C41.1574 50.3532 42.9401 50.3514 44.328 50.238C45.6896 50.1268 46.4719 49.9194 47.0644 49.6175C48.3345 48.9703 49.3671 47.9377 50.0143 46.6676C50.3162 46.0751 50.5236 45.2928 50.6349 43.9311C50.7482 42.5432 50.75 40.7605 50.75 38.2032V30.753C50.75 28.1957 50.7482 26.413 50.6349 25.0251C50.5236 23.6634 50.3162 22.8811 50.0143 22.2886C49.3671 21.0185 48.3345 19.9859 47.0644 19.3387C46.4719 19.0368 45.6896 18.8294 44.328 18.7182C42.9401 18.6048 41.1574 18.603 38.6 18.603H36.25V19C36.25 22.4518 33.4518 25.25 30 25.25ZM28.25 19C28.25 19.9665 29.0335 20.75 30 20.75C30.9665 20.75 31.75 19.9665 31.75 19V11C31.75 10.0335 30.9665 9.25 30 9.25C29.0335 9.25 28.25 10.0335 28.25 11V19Z"
  />
</svg>
