<svg
  xmlns="http://www.w3.org/2000/svg"
  width="60"
  height="60"
  viewBox="0 0 60 60"
  fill="currentColor"
>
  <path
    d="M54 27.75C55.2426 27.75 56.25 28.7574 56.25 30V31C56.25 45.4975 44.4975 57.25 30 57.25C24.4548 57.25 19.3112 55.5305 15.0732 52.5957L18.3135 49.3467C21.6889 51.5012 25.6987 52.75 30 52.75C42.0122 52.75 51.75 43.0122 51.75 31V30C51.75 28.7574 52.7574 27.75 54 27.75ZM50.4121 6.44336C51.2907 5.56496 52.7151 5.56505 53.5938 6.44336C54.4724 7.32204 54.4724 8.7473 53.5938 9.62598L9.75391 53.4658C8.87523 54.3445 7.44997 54.3445 6.57129 53.4658C5.69294 52.5871 5.69275 51.1628 6.57129 50.2842L50.4121 6.44336ZM47.25 31C47.25 40.5269 39.5269 48.25 30 48.25C26.9501 48.25 24.0846 47.4582 21.5986 46.0693L24.9326 42.7031C26.4857 43.3765 28.1994 43.75 30 43.75C37.0416 43.75 42.75 38.0416 42.75 31V24.8887L47.25 20.3789V31ZM6 27.75C7.24264 27.75 8.25 28.7574 8.25 30V31C8.25 34.9008 9.27696 38.562 11.0752 41.7275L7.79102 45C5.2314 40.948 3.75 36.147 3.75 31V30C3.75 28.7574 4.75736 27.75 6 27.75ZM30 2.75C35.4667 2.75 40.3396 5.29316 43.5 9.26074L40.293 12.4736C37.9732 9.30664 34.2265 7.25 30 7.25C22.9584 7.25 17.25 12.9584 17.25 20V31C17.25 32.3693 17.4657 33.6885 17.8652 34.9248L14.4062 38.3848C13.3442 36.1462 12.75 33.6425 12.75 31V20C12.75 10.4731 20.4731 2.75 30 2.75ZM23.167 13.5703C26.8961 9.84133 32.9428 9.84133 36.6719 13.5703C37.1908 14.0895 37.403 14.7996 37.3086 15.4746L35.3867 17.3896C34.7137 17.4816 34.0067 17.2694 33.4893 16.752C31.5176 14.7804 28.3213 14.7804 26.3496 16.752C25.4709 17.6306 24.0457 17.6306 23.167 16.752C22.2886 15.8734 22.2888 14.449 23.167 13.5703Z"
  />
</svg>
