<svg
  xmlns="http://www.w3.org/2000/svg"
  width="60"
  height="60"
  viewBox="0 0 60 60"
  fill="currentColor"
>
  <path
    fill-rule="evenodd"
    clip-rule="evenodd"
    d="M12.75 20C12.75 10.4731 20.4731 2.75 30 2.75C39.5269 2.75 47.25 10.4731 47.25 20V31C47.25 40.5269 39.5269 48.25 30 48.25C20.4731 48.25 12.75 40.5269 12.75 31V20ZM30 7.25C22.9584 7.25 17.25 12.9584 17.25 20V31C17.25 38.0416 22.9584 43.75 30 43.75C37.0416 43.75 42.75 38.0416 42.75 31V20C42.75 12.9584 37.0416 7.25 30 7.25Z"
    fill="black"
    fill-opacity="0.96"
  />
  <path
    d="M8.25 30C8.25 28.7574 7.24264 27.75 6 27.75C4.75736 27.75 3.75 28.7574 3.75 30V31C3.75 45.4975 15.5025 57.25 30 57.25C44.4975 57.25 56.25 45.4975 56.25 31V30C56.25 28.7574 55.2426 27.75 54 27.75C52.7574 27.75 51.75 28.7574 51.75 30V31C51.75 43.0122 42.0122 52.75 30 52.75C17.9878 52.75 8.25 43.0122 8.25 31V30Z"
    fill="black"
    fill-opacity="0.96"
  />
  <path
    d="M17.25 31C17.25 38.0416 22.9584 43.75 30 43.75C37.0416 43.75 42.75 38.0416 42.75 31H17.25Z"
    fill="#20B082"
  />
</svg>
