<svg
  width="60"
  height="60"
  viewBox="0 0 60 60"
  fill="currentColor"
  xmlns="http://www.w3.org/2000/svg"
>
  <path
    fill-rule="evenodd"
    clip-rule="evenodd"
    d="M21 5C23.2091 5 25 6.79086 25 9V15C25 17.2091 23.2091 19 21 19H17.5V23H21C23.2091 23 25 24.7909 25 27V33C25 35.2091 23.2091 37 21 37H17.5V41H21C23.2091 41 25 42.7909 25 45V51C25 53.2091 23.2091 55 21 55H9C6.79086 55 5 53.2091 5 51V45C5 42.7909 6.79086 41 9 41H13V37H9C6.79086 37 5 35.2091 5 33V27C5 24.7909 6.79086 23 9 23H13V19H9C6.79086 19 5 17.2091 5 15V9C5 6.79086 6.79086 5 9 5H21ZM9.5 9.5H20.5V14.5H9.5V9.5ZM9.5 27.5H20.5V32.5H9.5V27.5ZM20.5 45.5H9.5V50.5H20.5V45.5Z"
  />
  <path
    fill-rule="evenodd"
    clip-rule="evenodd"
    d="M51 23C53.2091 23 55 24.7909 55 27V33C55 35.2091 53.2091 37 51 37H39C36.7909 37 35 35.2091 35 33V27C35 24.7909 36.7909 23 39 23H43V19H39C36.7909 19 35 17.2091 35 15V9C35 6.79086 36.7909 5 39 5H51C53.2091 5 55 6.79086 55 9V15C55 17.2091 53.2091 19 51 19H47.5V23H51ZM39.5 27.5H50.5V32.5H39.5V27.5ZM50.5 9.5H39.5V14.5H50.5V9.5Z"
  />
</svg>
