<svg
  width="60"
  height="60"
  viewBox="0 0 60 60"
  fill="currentColor"
  xmlns="http://www.w3.org/2000/svg"
>
  <rect width="60" height="60" rx="30" fill="#F6F6F8" />
  <path
    d="M10.7205 34.5195C10.7205 36.3976 11.1325 37.8394 11.6715 38.7117C12.3779 39.8543 13.4316 40.3393 14.5058 40.3393C15.8911 40.3393 17.1585 39.9954 19.6009 36.6173C21.5582 33.9097 23.8634 30.1092 25.4147 27.7265L28.0419 23.6899C29.8669 20.8865 31.9792 17.7702 34.4013 15.6578C36.3791 13.9336 38.5114 12.9758 40.658 12.9758C44.262 12.9758 47.6947 15.0643 50.3219 18.9812C53.1972 23.2708 54.5928 28.6742 54.5928 34.25C54.5928 37.565 53.9395 40.0006 52.8276 41.9248C51.7536 43.7856 49.66 45.645 46.1382 45.645V40.3385C49.1538 40.3385 49.9062 37.5674 49.9062 34.3963C49.9062 29.8774 48.8526 24.8626 46.5315 21.2792C44.8846 18.7375 42.75 17.1845 40.4015 17.1845C37.8614 17.1845 35.8175 19.1005 33.5203 22.5158C32.299 24.3306 31.0453 26.5421 29.6376 29.0376L28.0879 31.7829C24.9753 37.3033 24.1866 38.5601 22.6301 40.6343C19.9021 44.2669 17.5724 45.6442 14.5058 45.6442C10.8676 45.6442 8.56713 44.0687 7.14227 41.6947C5.97926 39.7604 5.40796 37.2219 5.40796 34.3298L10.7205 34.5195Z"
    fill="#0081FB"
  />
  <path
    d="M9.59668 19.3548C12.0323 15.6004 15.5473 12.9749 19.5787 12.9749C21.9134 12.9749 24.2349 13.6659 26.6581 15.6449C29.3092 17.8082 32.1348 21.3724 35.6601 27.2441L36.9241 29.3506C39.9755 34.4341 41.7114 37.0493 42.7276 38.2826C44.0342 39.8663 44.9493 40.3385 46.1381 40.3385C49.1536 40.3385 49.906 37.5675 49.906 34.3964L54.5927 34.2493C54.5927 37.5642 53.9394 39.9998 52.8275 41.9241C51.7535 43.7849 49.6598 45.6442 46.1381 45.6442C43.9487 45.6442 42.0092 45.1687 39.8642 43.1452C38.216 41.5922 36.2877 38.8333 34.8047 36.3532L30.3935 28.9847C28.1804 25.2868 26.1494 22.5296 24.9751 21.2809C23.711 19.938 22.086 18.3166 19.493 18.3166C17.3945 18.3166 15.6122 19.7893 14.1208 22.042L9.59668 19.3548Z"
    fill="url(#paint0_linear_2841_10990)"
  />
  <path
    d="M19.4932 18.3166C17.3946 18.3166 15.6123 19.7893 14.1209 22.042C12.0118 25.225 10.7215 29.9662 10.7215 34.5194C10.7215 36.3975 11.1336 37.8392 11.6725 38.7115L7.14227 41.6946C5.97926 39.7602 5.40796 37.2218 5.40796 34.3296C5.40796 29.07 6.85157 23.5882 9.59683 19.3548C12.0324 15.6004 15.5474 12.9749 19.5789 12.9749L19.4932 18.3166Z"
    fill="url(#paint1_linear_2841_10990)"
  />
  <defs>
    <linearGradient
      id="paint0_linear_2841_10990"
      x1="16.0699"
      y1="28.4629"
      x2="49.9361"
      y2="30.1733"
      gradientUnits="userSpaceOnUse"
    >
      <stop stop-color="#0064E1" />
      <stop offset="0.4" stop-color="#0064E1" />
      <stop offset="0.83" stop-color="#0073EE" />
      <stop offset="1" stop-color="#0082FB" />
    </linearGradient>
    <linearGradient
      id="paint1_linear_2841_10990"
      x1="12.4933"
      y1="36.7498"
      x2="12.4933"
      y2="24.2637"
      gradientUnits="userSpaceOnUse"
    >
      <stop stop-color="#0082FB" />
      <stop offset="1" stop-color="#0064E0" />
    </linearGradient>
  </defs>
</svg>
