<svg xmlns="http://www.w3.org/2000/svg" width="16" height="16" viewBox="0 0 16 16" fill="none">
  <g clip-path="url(#clip0_15697_34902)">
    <path d="M16 8C16 12.4183 12.4183 16 8 16C3.58172 16 0 12.4183 0 8C0 3.58172 3.58172 0 8 0C12.4183 0 16 3.58172 16 8Z" fill="#F6F6F8"/>
    <path d="M3.52712 8.93169C1.52666 7.42157 5.72151 4.69191 8.06106 3.36319C8.48982 3.11968 8.7042 2.99792 8.88006 3.02791C9.0289 3.05329 9.16684 3.15299 9.23764 3.28636C9.32128 3.44393 9.27156 3.69255 9.17211 4.18981L8.9488 5.30636C8.8781 5.65986 8.84275 5.8366 8.88354 5.96136C8.92181 6.07841 8.98521 6.16038 9.08888 6.22686C9.19936 6.29771 9.39317 6.30872 9.78078 6.33075C10.6224 6.37859 11.78 6.54479 12.473 7.06796C14.4735 8.57807 10.2787 11.3077 7.93911 12.6365C7.51034 12.88 7.29596 13.0017 7.12011 12.9717C6.97126 12.9464 6.83332 12.8467 6.76252 12.7133C6.67888 12.5557 6.72861 12.3071 6.82806 11.8098L7.05137 10.6933C7.12207 10.3398 7.15742 10.163 7.11662 10.0383C7.07835 9.92124 7.01496 9.83927 6.91129 9.77279C6.8008 9.70194 6.607 9.69092 6.21938 9.66889C5.3778 9.62106 4.22016 9.45486 3.52712 8.93169Z" fill="url(#paint0_linear_15697_34902)"/>
  </g>
  <defs>
    <linearGradient id="paint0_linear_15697_34902" x1="10" y1="3.5" x2="4.5" y2="14.5" gradientUnits="userSpaceOnUse">
      <stop stop-color="#01CFD5"/>
      <stop offset="1" stop-color="#62FBCA"/>
    </linearGradient>
    <clipPath id="clip0_15697_34902">
      <rect width="16" height="16" rx="8" fill="white"/>
    </clipPath>
  </defs>
</svg>