<svg
  width="60"
  height="60"
  viewBox="0 0 60 60"
  fill="currentColor"
  xmlns="http://www.w3.org/2000/svg"
>
  <path
    d="M0 30C0 13.4315 13.4315 0 30 0C46.5685 0 60 13.4315 60 30C60 46.5685 46.5685 60 30 60C13.4315 60 0 46.5685 0 30Z"
    fill="#DBDBE2"
  />
  <path
    d="M52.297 18.173C51.8449 17.9522 51.6505 18.3727 51.386 18.5864C51.2967 18.6565 51.2196 18.7476 51.1442 18.8282C50.4837 19.5359 49.7129 19.9984 48.7074 19.9424C47.2341 19.8618 45.978 20.3243 44.8674 21.4525C44.6308 20.0615 43.8459 19.2311 42.653 18.6985C42.0276 18.4217 41.3951 18.1449 40.959 17.5423C40.6524 17.1149 40.5701 16.6384 40.4158 16.1689C40.3195 15.8851 40.2214 15.5943 39.8956 15.5452C39.5417 15.4891 39.4033 15.787 39.2649 16.0357C38.7078 17.0518 38.494 18.173 38.5134 19.3082C38.5624 21.8588 39.6398 23.8909 41.777 25.3381C42.0206 25.5028 42.0836 25.6708 42.0065 25.9127C41.8612 26.4101 41.6877 26.8937 41.5336 27.3912C41.4373 27.7101 41.2918 27.7801 40.952 27.64C39.7783 27.1496 38.7638 26.4243 37.8687 25.5447C36.3482 24.0732 34.973 22.4476 33.2578 21.1757C32.8549 20.8778 32.4538 20.6011 32.0367 20.3383C30.2866 18.6355 32.2663 17.2375 32.7234 17.0728C33.2035 16.9011 32.8899 16.3055 31.3412 16.3125C29.7943 16.3195 28.3772 16.8381 26.5727 17.5283C26.3083 17.6334 26.0315 17.7105 25.7459 17.7701C24.1079 17.4617 22.4069 17.3916 20.6287 17.5914C17.2826 17.9663 14.6093 19.5499 12.6437 22.2547C10.284 25.5028 9.72866 29.1957 10.4084 33.0497C11.1231 37.1069 13.1921 40.4705 16.3734 43.0984C19.6704 45.8208 23.4685 47.1556 27.8008 46.8998C30.4321 46.7491 33.3629 46.3954 36.6669 43.5958C37.5007 44.0093 38.3749 44.174 39.8272 44.3001C40.945 44.4052 42.0206 44.2441 42.8544 44.0723C44.1595 43.7957 44.0686 42.5868 43.5973 42.3625C39.7713 40.5792 40.6103 41.3045 39.8464 40.7193C41.791 38.414 44.7219 36.0209 45.8677 28.2707C45.957 27.654 45.8798 27.2687 45.8677 26.7676C45.8607 26.4663 45.929 26.3471 46.2758 26.3122C47.2341 26.2034 48.1644 25.9406 49.0192 25.4678C51.4982 24.1118 52.4966 21.887 52.7331 19.2171C52.7682 18.8107 52.7261 18.3867 52.297 18.173ZM30.6967 42.1978C26.988 39.2793 25.1905 38.3193 24.4478 38.3614C23.7539 38.3998 23.8784 39.1952 24.0307 39.7138C24.1902 40.2253 24.3986 40.5792 24.6912 41.0277C24.8927 41.3255 25.0312 41.7704 24.4898 42.0997C23.295 42.8426 21.2191 41.8511 21.121 41.8019C18.7052 40.3795 16.6853 38.4979 15.261 35.9262C13.8876 33.4492 13.0887 30.7933 12.9573 27.9588C12.9223 27.2721 13.1237 27.0303 13.8035 26.9077C14.6987 26.7431 15.6237 26.7081 16.5188 26.8376C20.3029 27.3912 23.5245 29.087 26.2241 31.7674C27.7658 33.2985 28.9325 35.124 30.1343 36.9073C31.4113 38.8029 32.7865 40.6072 34.5367 42.0857C35.1532 42.6043 35.6473 43.0002 36.1185 43.291C34.6962 43.4487 32.3205 43.4837 30.6967 42.1978ZM32.473 30.7513C32.473 30.4464 32.7164 30.2047 33.023 30.2047C33.0913 30.2047 33.1545 30.2187 33.2104 30.2397C33.2858 30.2677 33.3559 30.3099 33.4103 30.3728C33.5082 30.4675 33.5644 30.6076 33.5644 30.7513C33.5644 31.0561 33.321 31.2979 33.016 31.2979C32.7094 31.2979 32.473 31.0561 32.473 30.7513ZM37.993 33.5893C37.6392 33.733 37.2853 33.8591 36.9455 33.8731C36.4181 33.8977 35.8417 33.6838 35.5282 33.4212C35.0429 33.0147 34.6962 32.7869 34.5489 32.0722C34.4875 31.7674 34.5227 31.2979 34.5769 31.0281C34.7031 30.4464 34.5629 30.075 34.1548 29.7353C33.8202 29.4585 33.3979 29.3849 32.932 29.3849C32.7586 29.3849 32.5991 29.3078 32.48 29.2446C32.2855 29.1465 32.126 28.9049 32.2785 28.6071C32.3275 28.5124 32.5641 28.2777 32.6201 28.2356C33.2508 27.8748 33.9795 27.9939 34.654 28.2637C35.2794 28.5194 35.7506 28.9888 36.4303 29.6511C37.1258 30.4536 37.2503 30.6778 37.6462 31.2768C37.958 31.7498 38.2436 32.2333 38.438 32.7869C38.5554 33.1302 38.4031 33.414 37.993 33.5893Z"
    fill="black"
  />
</svg>
