<svg
  width="60"
  height="60"
  viewBox="0 0 60 60"
  fill="currentColor"
  xmlns="http://www.w3.org/2000/svg"
>
  <rect width="60" height="60" rx="30" fill="#DBDBE2" />
  <path
    fill-rule="evenodd"
    clip-rule="evenodd"
    d="M22.3222 9.54366C22.7272 9.70304 23.0928 9.96554 23.4247 10.3124C23.9778 10.8862 24.4447 11.7074 24.8009 12.6805C25.159 13.6593 25.3915 14.743 25.4797 15.8305C26.6602 15.1627 27.9703 14.756 29.3215 14.638L29.4172 14.6305C31.0484 14.4993 32.6609 14.7937 34.0672 15.5193C34.2565 15.6187 34.4422 15.7255 34.624 15.838C34.7178 14.7712 34.9465 13.7118 35.299 12.7555C35.6553 11.7805 36.1222 10.9612 36.6734 10.3855C36.9815 10.0523 37.3583 9.78998 37.7778 9.61679C38.2597 9.42929 38.7715 9.39554 39.2703 9.53804C40.0222 9.75179 40.6672 10.228 41.1753 10.9199C41.6403 11.5518 41.989 12.3618 42.2272 13.333C42.6584 15.0843 42.7334 17.3887 42.4428 20.1674L42.5422 20.2424L42.5909 20.278C44.0103 21.358 44.9984 22.8974 45.5215 24.6843C46.3372 27.4724 45.9265 30.5999 44.5203 32.3493L44.4865 32.3887L44.4903 32.3943C45.2722 33.823 45.7465 35.3324 45.8478 36.8943L45.8515 36.9505C45.9715 38.9474 45.4765 40.9574 44.3253 42.9318L44.3122 42.9505L44.3309 42.9955C45.2159 45.1649 45.4934 47.3493 45.1522 49.5318L45.1409 49.6049C45.088 49.9237 44.9109 50.2085 44.6483 50.3969C44.3858 50.5853 44.0592 50.6619 43.7403 50.6099C43.5824 50.5853 43.4309 50.5297 43.2944 50.4464C43.158 50.363 43.0394 50.2536 42.9453 50.1244C42.8513 49.9952 42.7836 49.8486 42.7463 49.6932C42.709 49.5378 42.7027 49.3765 42.7278 49.2187C43.0409 47.2818 42.7465 45.3393 41.8278 43.363C41.7421 43.1794 41.704 42.9772 41.7171 42.775C41.7302 42.5728 41.7941 42.3772 41.9028 42.2062L41.9103 42.1949C43.0428 40.4624 43.5115 38.7637 43.4103 37.0949C43.324 35.6343 42.8009 34.1999 41.9103 32.833C41.7371 32.5673 41.6754 32.2441 41.7385 31.9332C41.8017 31.6224 41.9846 31.3489 42.2478 31.1718L42.2647 31.1605C42.7203 30.8624 43.1403 30.1012 43.3522 29.0605C43.5859 27.83 43.5249 26.5617 43.174 25.3593C42.7897 24.0468 42.0865 22.9518 41.1022 22.2037C39.9865 21.3524 38.509 20.9418 36.6397 21.0599C36.3952 21.0758 36.1516 21.018 35.9404 20.894C35.7291 20.77 35.5599 20.5855 35.4547 20.3643C34.8659 19.1174 34.0072 18.2249 32.9365 17.6718C31.9087 17.1588 30.7579 16.9432 29.614 17.0493C27.2797 17.2349 25.2209 18.5512 24.6078 20.2105C24.5211 20.4441 24.365 20.6456 24.1606 20.788C23.9562 20.9304 23.7132 21.007 23.464 21.0074C21.4634 21.0112 19.9147 21.4799 18.7822 22.3255C17.8034 23.0568 17.1359 24.0787 16.7834 25.303C16.4644 26.4555 16.4208 27.6668 16.6559 28.8393C16.8659 29.8855 17.2765 30.7518 17.7472 31.2187L17.7622 31.2318C18.1597 31.6199 18.244 32.2255 17.9665 32.7037C17.2915 33.8699 16.7872 35.608 16.7047 37.2787C16.6109 39.1874 17.0534 40.8449 18.0528 42.0337L18.0828 42.0693C18.2336 42.245 18.3306 42.4605 18.3622 42.69C18.3938 42.9194 18.3586 43.1531 18.2609 43.363C17.1809 45.6805 16.849 47.5855 17.2072 49.0855C17.2715 49.3975 17.2116 49.7222 17.0402 49.9906C16.8688 50.259 16.5994 50.4499 16.2894 50.5228C15.9793 50.5956 15.6531 50.5445 15.3801 50.3804C15.1072 50.2164 14.909 49.9522 14.8278 49.6443C14.3722 47.7355 14.6815 45.5493 15.7147 43.0855L15.7409 43.0199L15.7259 42.9974C15.2182 42.2474 14.8392 41.4179 14.6047 40.543L14.5953 40.5074C14.3107 39.4159 14.1987 38.2866 14.2634 37.1605C14.3459 35.4543 14.7847 33.7068 15.4297 32.3043L15.4522 32.2555L15.4484 32.2518C14.899 31.468 14.4922 30.4649 14.2672 29.3549L14.2578 29.3099C13.9478 27.7616 14.0075 26.162 14.4322 24.6412C14.9234 22.9255 15.889 21.4518 17.3122 20.3868C17.4247 20.3024 17.5428 20.218 17.6609 20.1393C17.3628 17.3399 17.4378 15.0205 17.8709 13.258C18.109 12.2868 18.4597 11.4768 18.9247 10.8449C19.4309 10.1549 20.0759 9.67866 20.8278 9.46304C21.3265 9.32054 21.8403 9.35241 22.3222 9.54179V9.54366ZM30.0397 26.5874C31.7947 26.5874 33.4147 27.1743 34.6259 28.1905C35.8072 29.1787 36.5103 30.5062 36.5103 31.828C36.5103 33.493 35.749 34.7905 34.3859 35.6193C33.2234 36.3224 31.6653 36.6637 29.8803 36.6637C27.9884 36.6637 26.3722 36.178 25.2059 35.2874C24.049 34.4062 23.4003 33.1687 23.4003 31.828C23.4003 30.5024 24.1465 29.1712 25.3803 28.1793C26.6328 27.1724 28.2865 26.5874 30.0397 26.5874ZM30.0397 28.2674C28.7389 28.2561 27.4726 28.6856 26.4472 29.4862C25.5828 30.1799 25.0934 31.0518 25.0934 31.8299C25.0934 32.6324 25.4872 33.3843 26.2372 33.9562C27.0903 34.6068 28.3447 34.9837 29.8803 34.9837C31.3784 34.9837 32.6422 34.708 33.5028 34.1849C34.3709 33.6599 34.8153 32.8987 34.8153 31.828C34.8153 31.0349 34.354 30.1593 33.5347 29.473C32.6272 28.7137 31.3972 28.2674 30.0397 28.2674ZM31.2809 30.5362L31.2884 30.5437C31.5134 30.8268 31.4665 31.2374 31.1834 31.4624L30.6359 31.8937V32.7299C30.6349 32.9161 30.5602 33.0942 30.428 33.2253C30.2958 33.3564 30.1171 33.4298 29.9309 33.4293C29.7448 33.4298 29.566 33.3564 29.4338 33.2253C29.3017 33.0942 29.2269 32.9161 29.2259 32.7299V31.8674L28.7178 31.4587C28.6508 31.405 28.595 31.3385 28.5538 31.2631C28.5126 31.1878 28.4867 31.105 28.4777 31.0196C28.4686 30.9342 28.4765 30.8478 28.501 30.7655C28.5255 30.6832 28.566 30.6065 28.6203 30.5399C28.731 30.4052 28.8903 30.3196 29.0638 30.3017C29.2372 30.2838 29.4107 30.335 29.5465 30.4443L29.9497 30.7668L30.3622 30.4405C30.4976 30.3336 30.6694 30.2837 30.841 30.3016C31.0126 30.3194 31.1705 30.4036 31.2809 30.5362ZM21.8309 26.938C22.7272 26.938 23.4565 27.6693 23.4565 28.5712C23.457 29.0035 23.2859 29.4183 22.9808 29.7245C22.6756 30.0307 22.2614 30.2033 21.829 30.2043C21.3974 30.2028 20.9839 30.0303 20.6792 29.7245C20.3745 29.4188 20.2034 29.0047 20.2034 28.573C20.2024 28.1407 20.3731 27.7257 20.6779 27.4191C20.9827 27.1126 21.3986 26.9395 21.8309 26.938ZM38.1547 26.938C39.0547 26.938 39.7822 27.6693 39.7822 28.5712C39.7827 29.0035 39.6115 29.4183 39.3064 29.7245C39.0012 30.0307 38.587 30.2033 38.1547 30.2043C37.723 30.2028 37.3095 30.0303 37.0048 29.7245C36.7001 29.4188 36.529 29.0047 36.529 28.573C36.528 28.1407 36.6987 27.7257 37.0035 27.4191C37.3083 27.1126 37.7224 26.9395 38.1547 26.938ZM21.4503 11.8124L21.4447 11.8162C21.2275 11.9106 21.042 12.0655 20.9103 12.2624L20.9009 12.2737C20.6422 12.628 20.4172 13.1493 20.2484 13.8337C19.9297 15.1312 19.8434 16.8918 20.0159 19.0499C20.8222 18.8099 21.7015 18.6599 22.6484 18.6055L22.6672 18.6037L22.7028 18.5399C22.789 18.3862 22.8809 18.238 22.9803 18.0918C23.2109 16.6462 23.0215 14.9193 22.5059 13.5093C22.2547 12.8268 21.949 12.2905 21.6565 11.9849C21.5962 11.9214 21.5289 11.8648 21.4559 11.8162L21.4503 11.8124ZM38.6515 11.8874L38.6478 11.8893C38.5748 11.9379 38.5076 11.9945 38.4472 12.058C38.1547 12.3637 37.8472 12.9018 37.5978 13.5843C37.054 15.073 36.8722 16.9143 37.1665 18.4068L37.2753 18.5887L37.2903 18.6149H37.3465C38.2771 18.6152 39.2028 18.749 40.0953 19.0124C40.2565 16.9049 40.1665 15.1818 39.8553 13.9087C39.6865 13.2243 39.4615 12.703 39.2009 12.3487L39.1934 12.3374C39.062 12.1398 38.8765 11.9843 38.659 11.8893H38.6515V11.8874Z"
    fill="black"
  />
</svg>
