<svg
  width="60"
  height="60"
  viewBox="0 0 60 60"
  fill="currentColor"
  xmlns="http://www.w3.org/2000/svg"
>
  <g clip-path="url(#clip0_2841_10995)">
    <path
      d="M0 30C0 13.4315 13.4315 0 30 0C46.5685 0 60 13.4315 60 30C60 46.5685 46.5685 60 30 60C13.4315 60 0 46.5685 0 30Z"
      fill="url(#paint0_linear_2841_10995)"
    />
    <path
      d="M14.8981 33.1461C7.99036 27.9315 22.9622 18.41 30.735 14.0466C32.0325 13.3182 32.6812 12.954 33.2072 13.0456C33.6535 13.1233 34.0641 13.4216 34.2759 13.822C34.5255 14.294 34.376 15.0414 34.0771 16.5362L33.1266 21.2883C32.9145 22.3489 32.8085 22.8792 32.9329 23.2555C33.0488 23.6063 33.2444 23.8564 33.5569 24.0535C33.8921 24.2649 34.4688 24.2914 35.6221 24.3446C38.4858 24.4764 42.653 25.0049 45.1019 26.8536C52.0096 32.0682 37.0378 41.5897 29.265 45.9531C27.9675 46.6815 27.3188 47.0456 26.7928 46.9541C26.3465 46.8764 25.9359 46.578 25.7241 46.1776C25.4745 45.7057 25.624 44.9583 25.9229 43.4635L26.8734 38.7114C27.0855 37.6508 27.1915 37.1205 27.0671 36.7442C26.9512 36.3934 26.7556 36.1433 26.4431 35.9462C26.1079 35.7348 25.5312 35.7082 24.3779 35.6551C21.5142 35.5232 17.347 34.9947 14.8981 33.1461Z"
      fill="white"
    />
  </g>
  <defs>
    <linearGradient
      id="paint0_linear_2841_10995"
      x1="58.125"
      y1="58.125"
      x2="-4.94176"
      y2="17.1173"
      gradientUnits="userSpaceOnUse"
    >
      <stop stop-color="#32C5FF" />
      <stop offset="0.25" stop-color="#5666F5" />
      <stop offset="0.523727" stop-color="#8A57EA" />
      <stop offset="0.820607" stop-color="#EB35CE" />
      <stop offset="1" stop-color="#F7B500" />
    </linearGradient>
    <clipPath id="clip0_2841_10995">
      <rect width="60" height="60" rx="30" fill="white" />
    </clipPath>
  </defs>
</svg>
