<svg
  width="60"
  height="60"
  viewBox="0 0 60 60"
  fill="currentColor"
  xmlns="http://www.w3.org/2000/svg"
>
  <rect width="60" height="60" rx="30" fill="#615CED" />
  <path
    d="M31.1324 10.0128C31.8693 11.3066 32.6024 12.6041 33.3337 13.9034C33.3632 13.9554 33.4061 13.9986 33.4578 14.0286C33.5095 14.0585 33.5683 14.0742 33.6281 14.0741H44.0381C44.3643 14.0741 44.6418 14.2803 44.8743 14.6872L47.6006 19.5059C47.9568 20.1378 48.0506 20.4022 47.6456 21.0753C47.1581 21.8816 46.6837 22.6953 46.2206 23.5128L45.5324 24.7466C45.3337 25.1141 45.1143 25.2716 45.4574 25.7066L50.4299 34.4009C50.7524 34.9653 50.6381 35.3272 50.3493 35.8447C49.5299 37.3166 48.6956 38.7772 47.8462 40.2322C47.5481 40.7422 47.1862 40.9353 46.5712 40.9259C45.1143 40.8959 43.6612 40.9072 42.2081 40.9559C42.1769 40.9575 42.1467 40.967 42.1201 40.9834C42.0936 40.9997 42.0716 41.0226 42.0562 41.0497C40.3796 44.0202 38.689 46.9827 36.9843 49.9372C36.6674 50.4866 36.2718 50.6178 35.6249 50.6197C33.7556 50.6253 31.8712 50.6272 29.9681 50.6234C29.7909 50.6229 29.617 50.5757 29.4639 50.4865C29.3108 50.3973 29.184 50.2692 29.0962 50.1153L26.5931 45.7597C26.5785 45.7312 26.5561 45.7074 26.5286 45.6912C26.501 45.6749 26.4694 45.6668 26.4374 45.6678H16.8412C16.3068 45.7241 15.8043 45.6659 15.3318 45.4953L12.3262 40.3016C12.2373 40.1478 12.1902 39.9734 12.1895 39.7958C12.1889 39.6182 12.2347 39.4435 12.3224 39.2891L14.5856 35.3141C14.6178 35.2578 14.6348 35.1942 14.6348 35.1294C14.6348 35.0646 14.6178 35.0009 14.5856 34.9447C13.4067 32.9037 12.2348 30.8587 11.0699 28.8097L9.58869 26.1941C9.28869 25.6128 9.26431 25.2641 9.76681 24.3847C10.6387 22.8603 11.5049 21.3378 12.3674 19.8172C12.6149 19.3784 12.9374 19.1909 13.4624 19.1891C15.0806 19.1822 16.6987 19.1816 18.3168 19.1872C18.3577 19.1869 18.3978 19.1758 18.433 19.155C18.4682 19.1343 18.4973 19.1046 18.5174 19.0691L23.7787 9.89093C23.8584 9.75131 23.9735 9.63516 24.1124 9.55419C24.2514 9.47321 24.4092 9.43027 24.5699 9.42969C25.5524 9.42781 26.5443 9.42968 27.5381 9.41843L29.4449 9.37531C30.0843 9.36968 30.8024 9.43531 31.1324 10.0128ZM24.6974 10.7684C24.6777 10.7684 24.6583 10.7736 24.6411 10.7835C24.624 10.7934 24.6098 10.8076 24.5999 10.8247L19.2262 20.2278C19.2004 20.2721 19.1635 20.3089 19.1191 20.3346C19.0747 20.3602 19.0243 20.3738 18.9731 20.3741H13.5993C13.4943 20.3741 13.4681 20.4209 13.5224 20.5128L24.4162 39.5553C24.4631 39.6341 24.4406 39.6716 24.3524 39.6734L19.1118 39.7016C19.0352 39.699 18.9594 39.718 18.8931 39.7565C18.8268 39.795 18.7726 39.8513 18.7368 39.9191L16.2618 44.2503C16.1793 44.3966 16.2224 44.4716 16.3893 44.4716L27.1068 44.4866C27.1931 44.4866 27.2568 44.5241 27.3018 44.6009L29.9324 49.2022C30.0187 49.3541 30.1049 49.3559 30.1931 49.2022L39.5793 32.7772L41.0474 30.1859C41.0564 30.1699 41.0695 30.1566 41.0853 30.1473C41.1011 30.138 41.1191 30.1332 41.1374 30.1332C41.1558 30.1332 41.1738 30.138 41.1896 30.1473C41.2054 30.1566 41.2185 30.1699 41.2274 30.1859L43.8974 34.9297C43.9175 34.9652 43.9467 34.9947 43.9819 35.0151C44.0172 35.0356 44.0573 35.0462 44.0981 35.0459L49.2787 35.0084C49.292 35.0086 49.305 35.0051 49.3166 34.9986C49.3281 34.992 49.3377 34.9824 49.3443 34.9709C49.3507 34.9595 49.3541 34.9466 49.3541 34.9334C49.3541 34.9203 49.3507 34.9074 49.3443 34.8959L43.9068 25.3597C43.8872 25.3278 43.8769 25.2911 43.8769 25.2537C43.8769 25.2163 43.8872 25.1797 43.9068 25.1478L44.4562 24.1972L46.5562 20.4903C46.6012 20.4134 46.5787 20.3741 46.4906 20.3741H24.7499C24.6393 20.3741 24.6131 20.3253 24.6693 20.2297L27.3581 15.5328C27.3782 15.5008 27.3889 15.4638 27.3889 15.4259C27.3889 15.3881 27.3782 15.3511 27.3581 15.3191L24.7968 10.8266C24.787 10.8088 24.7726 10.7941 24.7551 10.7838C24.7376 10.7736 24.7177 10.7683 24.6974 10.7684ZM36.4912 25.8059C36.5774 25.8059 36.5999 25.8434 36.5549 25.9184L34.9949 28.6653L30.0956 37.2622C30.0864 37.2789 30.0728 37.2928 30.0562 37.3024C30.0397 37.312 30.0209 37.3169 30.0018 37.3166C29.9828 37.3165 29.9641 37.3114 29.9477 37.3019C29.9312 37.2923 29.9176 37.2787 29.9081 37.2622L23.4337 25.9522C23.3962 25.8884 23.4149 25.8547 23.4862 25.8509L23.8912 25.8284L36.4949 25.8059H36.4912Z"
    fill="white"
  />
</svg>
