<svg
  width="60"
  height="60"
  viewBox="0 0 60 60"
  fill="currentColor"
  xmlns="http://www.w3.org/2000/svg"
>
  <path
    d="M0 30C0 13.4315 13.4315 0 30 0C46.5685 0 60 13.4315 60 30C60 46.5685 46.5685 60 30 60C13.4315 60 0 46.5685 0 30Z"
    fill="#DBDBE2"
  />
  <path
    d="M18.315 32.4911H24.4261V46.5036C24.4261 48.5666 27.0367 49.5397 28.4211 47.9827L43.3923 31.2456C44.6976 29.7859 43.6494 27.5089 41.6717 27.5089H35.5606V13.4964C35.5606 11.4334 32.95 10.4603 31.5656 12.0173L16.5944 28.7544C15.3089 30.2141 16.3571 32.4911 18.315 32.4911Z"
    fill="black"
  />
</svg>
