<svg
  width="60"
  height="60"
  viewBox="0 0 60 60"
  fill="currentColor"
  xmlns="http://www.w3.org/2000/svg"
>
  <path
    d="M0 30C0 13.4315 13.4315 0 30 0C46.5685 0 60 13.4315 60 30C60 46.5685 46.5685 60 30 60C13.4315 60 0 46.5685 0 30Z"
    fill="#E0E8FF"
  />
  <path
    d="M52.297 18.174C51.8449 17.9532 51.6505 18.3737 51.386 18.5874C51.2967 18.6575 51.2196 18.7486 51.1442 18.8291C50.4837 19.5369 49.7129 19.9994 48.7074 19.9433C47.2341 19.8627 45.978 20.3252 44.8674 21.4535C44.6308 20.0624 43.8459 19.2321 42.653 18.6995C42.0276 18.4227 41.3951 18.1459 40.959 17.5433C40.6524 17.1158 40.5701 16.6393 40.4158 16.1698C40.3195 15.886 40.2214 15.5952 39.8956 15.5462C39.5417 15.4901 39.4033 15.7879 39.2649 16.0367C38.7078 17.0528 38.494 18.174 38.5134 19.3092C38.5624 21.8598 39.6398 23.8919 41.777 25.339C42.0206 25.5037 42.0836 25.6718 42.0065 25.9136C41.8612 26.4111 41.6877 26.8947 41.5336 27.3922C41.4373 27.7111 41.2918 27.7811 40.952 27.641C39.7783 27.1505 38.7638 26.4253 37.8687 25.5457C36.3482 24.0742 34.973 22.4485 33.2578 21.1767C32.8549 20.8788 32.4538 20.602 32.0367 20.3392C30.2866 18.6364 32.2663 17.2385 32.7234 17.0738C33.2035 16.9021 32.8899 16.3065 31.3412 16.3135C29.7943 16.3205 28.3772 16.839 26.5727 17.5293C26.3083 17.6344 26.0315 17.7115 25.7459 17.771C24.1079 17.4627 22.4069 17.3926 20.6287 17.5923C17.2826 17.9672 14.6093 19.5509 12.6437 22.2557C10.284 25.5037 9.72866 29.1966 10.4084 33.0507C11.1231 37.1079 13.1921 40.4715 16.3734 43.0994C19.6704 45.8218 23.4685 47.1566 27.8008 46.9008C30.4321 46.7501 33.3629 46.3964 36.6669 43.5968C37.5007 44.0103 38.3749 44.175 39.8272 44.3011C40.945 44.4062 42.0206 44.2451 42.8544 44.0733C44.1595 43.7966 44.0686 42.5877 43.5973 42.3635C39.7713 40.5802 40.6103 41.3055 39.8464 40.7203C41.791 38.4149 44.7219 36.0219 45.8677 28.2717C45.957 27.655 45.8798 27.2696 45.8677 26.7686C45.8607 26.4672 45.929 26.3481 46.2758 26.3131C47.2341 26.2044 48.1644 25.9416 49.0192 25.4687C51.4982 24.1127 52.4966 21.888 52.7331 19.2181C52.7682 18.8116 52.7261 18.3877 52.297 18.174ZM30.6967 42.1988C26.988 39.2803 25.1905 38.3202 24.4478 38.3624C23.7539 38.4008 23.8784 39.1962 24.0307 39.7148C24.1902 40.2262 24.3986 40.5802 24.6912 41.0287C24.8927 41.3264 25.0312 41.7713 24.4898 42.1007C23.295 42.8435 21.2191 41.8521 21.121 41.8029C18.7052 40.3805 16.6853 38.4989 15.261 35.9272C13.8876 33.4502 13.0887 30.7943 12.9573 27.9598C12.9223 27.2731 13.1237 27.0312 13.8035 26.9087C14.6987 26.744 15.6237 26.709 16.5188 26.8386C20.3029 27.3922 23.5245 29.0879 26.2241 31.7684C27.7658 33.2995 28.9325 35.1249 30.1343 36.9083C31.4113 38.8039 32.7865 40.6082 34.5367 42.0867C35.1532 42.6053 35.6473 43.0012 36.1185 43.292C34.6962 43.4497 32.3205 43.4847 30.6967 42.1988ZM32.473 30.7523C32.473 30.4474 32.7164 30.2057 33.023 30.2057C33.0913 30.2057 33.1545 30.2197 33.2104 30.2407C33.2858 30.2687 33.3559 30.3108 33.4103 30.3738C33.5082 30.4685 33.5644 30.6086 33.5644 30.7523C33.5644 31.0571 33.321 31.2989 33.016 31.2989C32.7094 31.2989 32.473 31.0571 32.473 30.7523ZM37.993 33.5903C37.6392 33.734 37.2853 33.8601 36.9455 33.8741C36.4181 33.8986 35.8417 33.6848 35.5282 33.4222C35.0429 33.0157 34.6962 32.7879 34.5489 32.0732C34.4875 31.7684 34.5227 31.2989 34.5769 31.0291C34.7031 30.4474 34.5629 30.076 34.1548 29.7362C33.8202 29.4595 33.3979 29.3859 32.932 29.3859C32.7586 29.3859 32.5991 29.3088 32.48 29.2456C32.2855 29.1475 32.126 28.9059 32.2785 28.6081C32.3275 28.5134 32.5641 28.2787 32.6201 28.2366C33.2508 27.8758 33.9795 27.9949 34.654 28.2647C35.2794 28.5203 35.7506 28.9898 36.4303 29.6521C37.1258 30.4545 37.2503 30.6788 37.6462 31.2777C37.958 31.7508 38.2436 32.2343 38.438 32.7878C38.5554 33.1312 38.4031 33.415 37.993 33.5903Z"
    fill="#4D6BFE"
  />
</svg>
