<svg
  width="60"
  height="60"
  viewBox="0 0 60 60"
  fill="currentColor"
  xmlns="http://www.w3.org/2000/svg"
>
  <rect width="60" height="60" rx="30" fill="url(#paint0_linear_5241_18387)" />
  <rect width="60" height="60" rx="30" fill="url(#paint1_linear_5241_18387)" />
  <path
    fill-rule="evenodd"
    clip-rule="evenodd"
    d="M33.9614 17.0218C35.7416 15.47 37.6608 14.6079 39.5928 14.6079C42.8365 14.6079 45.9261 16.4876 48.2907 20.013C50.8786 23.8739 52.1347 28.7371 52.1347 33.7556C52.1347 36.7392 51.5467 38.9313 50.5459 40.6633C49.5793 42.3381 47.6949 44.0116 44.5252 44.0116C42.5546 44.0116 40.809 43.583 38.8785 41.7618C37.395 40.364 35.6594 37.8809 34.3247 35.6487L30.3544 29.0168C30.2412 28.8276 30.1285 28.6411 30.0164 28.4575L29.6739 29.0642L28.2791 31.5351C25.4776 36.5037 24.7678 37.6348 23.3669 39.5017C20.9116 42.7712 18.8147 44.0108 16.0546 44.0108C12.7801 44.0108 10.7096 42.5929 9.42716 40.4561C8.38041 38.7151 7.86621 36.4304 7.86621 33.8274C7.86621 29.0935 9.16552 24.1596 11.6364 20.3494C13.8285 16.9703 16.9922 14.6072 20.6207 14.6072C22.7219 14.6072 24.8114 15.2291 26.9924 17.0104C28.1423 17.9486 29.3286 19.1797 30.6043 20.7949C31.6408 19.3949 32.7587 18.0708 33.9614 17.0218ZM13.5037 37.7713C13.0186 36.9862 12.6477 35.6885 12.6477 33.9982C12.6477 29.9002 13.81 25.6329 15.7082 22.768C17.0506 20.7405 18.6547 19.415 20.5435 19.415C22.8773 19.415 24.3398 20.8743 25.4776 22.083C26.0456 22.687 26.8363 23.6831 27.7555 24.992L25.8731 27.8842C24.4769 30.0287 22.4021 33.4493 20.6405 35.8862C18.4422 38.9267 17.3015 39.2362 16.0546 39.2362C15.0878 39.2362 14.1395 38.7997 13.5037 37.7713ZM47.9165 33.8873C47.9165 36.7414 47.2393 39.2354 44.5252 39.2354C43.4553 39.2354 42.6316 38.8106 41.4556 37.3852C40.541 36.2752 38.9786 33.9214 36.2322 29.3461L35.0946 27.4501C34.2833 26.0988 33.5132 24.8833 32.7763 23.7899C32.9076 23.5864 33.0382 23.3878 33.1685 23.1943C35.2361 20.1204 37.0757 18.3959 39.3619 18.3959C41.4756 18.3959 43.3968 19.7937 44.8792 22.0813C46.9682 25.3065 47.9165 29.8201 47.9165 33.8873Z"
    fill="white"
  />
  <defs>
    <linearGradient
      id="paint0_linear_5241_18387"
      x1="52.5"
      y1="7.5"
      x2="7.5"
      y2="52.5"
      gradientUnits="userSpaceOnUse"
    >
      <stop stop-color="#0081FB" />
      <stop offset="1" stop-color="#0165E2" />
    </linearGradient>
    <linearGradient
      id="paint1_linear_5241_18387"
      x1="60"
      y1="-1.875"
      x2="7.5"
      y2="52.5"
      gradientUnits="userSpaceOnUse"
    >
      <stop stop-color="#006AFF" />
      <stop offset="1" stop-color="#01F3FF" />
    </linearGradient>
  </defs>
</svg>
