<svg
  width="60"
  height="60"
  viewBox="0 0 60 60"
  fill="currentColor"
  xmlns="http://www.w3.org/2000/svg"
>
  <path
    d="M35 36C35 38.7614 32.7614 41 30 41C27.2385 41 25 38.7614 25 36C25 33.2386 27.2385 31 30 31C32.7614 31 35 33.2386 35 36Z"
  />
  <path
    fill-rule="evenodd"
    clip-rule="evenodd"
    d="M35.1675 2.75H24.8324C23.6087 2.74995 22.5392 2.74989 21.6833 2.82832C20.8098 2.90835 19.8046 3.09212 18.9247 3.71496C17.7348 4.55726 16.9487 5.85642 16.7547 7.30132C16.6113 8.36972 16.9149 9.34543 17.2493 10.1563C17.577 10.9509 18.0733 11.8983 18.6412 12.9823L20.0028 15.5818L13.0414 31.2947C11.8902 33.8931 10.9885 35.9282 10.3622 37.5791C9.73186 39.2407 9.3097 40.688 9.22016 42.0948C8.81989 48.3831 12.597 54.1878 18.5085 56.369C19.8309 56.8569 21.3252 57.0572 23.0998 57.1539C24.8628 57.25 27.0887 57.25 29.9308 57.25H30.0691C32.9112 57.25 35.1371 57.25 36.9001 57.1539C38.6747 57.0572 40.169 56.8569 41.4914 56.369C47.4029 54.1878 51.18 48.3831 50.7798 42.0948C50.6902 40.688 50.268 39.2407 49.6377 37.5791C49.0114 35.9282 48.1098 33.8932 46.9586 31.2947L39.9971 15.5818L41.3587 12.9823C41.9266 11.8984 42.4229 10.9509 42.7506 10.1563C43.085 9.34543 43.3886 8.36972 43.2452 7.30132C43.0512 5.85642 42.2651 4.55726 41.0752 3.71496C40.1953 3.09212 39.1901 2.90835 38.3166 2.82832C37.4607 2.74989 36.3912 2.74995 35.1675 2.75ZM21.2202 7.86531C21.2532 7.68451 21.3515 7.52206 21.4964 7.40893C21.542 7.39345 21.7063 7.34506 22.0939 7.30955C22.7192 7.25226 23.5791 7.25001 24.9329 7.25001H35.067C36.4208 7.25001 37.2808 7.25226 37.906 7.30955C38.2936 7.34506 38.4579 7.39345 38.5035 7.40893C38.6484 7.52206 38.7467 7.68451 38.7797 7.86531C38.7722 7.91294 38.7389 8.0809 38.5905 8.44075C38.3511 9.02119 37.9541 9.78399 37.3259 10.9832L36.1385 13.25L23.8614 13.25L22.674 10.9832C22.0458 9.78399 21.6488 9.02119 21.4094 8.44075C21.2611 8.08092 21.2277 7.91295 21.2202 7.86531ZM23.964 17.75L17.1837 33.0542C15.9985 35.7295 15.1472 37.6527 14.5696 39.1753C13.9911 40.7004 13.7577 41.6485 13.7111 42.3806C13.4372 46.6832 16.0216 50.6548 20.0662 52.1472C20.7546 52.4012 21.7159 52.5718 23.3447 52.6606C24.9707 52.7492 27.0739 52.75 30 52.75C32.926 52.75 35.0292 52.7492 36.6552 52.6606C38.284 52.5718 39.2454 52.4012 39.9337 52.1472C43.9784 50.6548 46.5627 46.6832 46.2888 42.3806C46.2422 41.6485 46.0089 40.7004 45.4303 39.1753C44.8527 37.6527 44.0014 35.7295 42.8162 33.0542L36.0359 17.75L23.964 17.75Z"
  />
</svg>
