<svg
  width="60"
  height="60"
  viewBox="0 0 60 60"
  fill="currentColor"
  xmlns="http://www.w3.org/2000/svg"
>
  <path
    fill-rule="evenodd"
    clip-rule="evenodd"
    d="M55.091 6.40901C55.9697 7.28769 55.9697 8.71231 55.091 9.59099L40.8645 23.8175C38.4575 26.2245 34.5669 26.2626 32.1132 23.9033L24.7679 16.8405C24.0808 16.1799 22.9914 16.1905 22.3175 16.8645L7.09099 32.091C6.21231 32.9697 4.78769 32.9697 3.90901 32.091C3.03033 31.2123 3.03033 29.7877 3.90901 28.909L19.1355 13.6825C21.5425 11.2755 25.4331 11.2374 27.8868 13.5967L35.2321 20.6595C35.9192 21.3201 37.0086 21.3095 37.6825 20.6355L51.909 6.40901C52.7877 5.53033 54.2123 5.53033 55.091 6.40901Z"
  />
  <path
    fill-rule="evenodd"
    clip-rule="evenodd"
    d="M5 44.75C6.24264 44.75 7.25 45.7574 7.25 47V52C7.25 53.2426 6.24264 54.25 5 54.25C3.75736 54.25 2.75 53.2426 2.75 52L2.75 47C2.75 45.7574 3.75736 44.75 5 44.75Z"
  />
  <path
    fill-rule="evenodd"
    clip-rule="evenodd"
    d="M17.5 32.75C18.7426 32.75 19.75 33.7574 19.75 35V52C19.75 53.2426 18.7426 54.25 17.5 54.25C16.2574 54.25 15.25 53.2426 15.25 52L15.25 35C15.25 33.7574 16.2574 32.75 17.5 32.75Z"
  />
  <path
    fill-rule="evenodd"
    clip-rule="evenodd"
    d="M30 37.75C31.2426 37.75 32.25 38.7574 32.25 40V52C32.25 53.2426 31.2426 54.25 30 54.25C28.7574 54.25 27.75 53.2426 27.75 52V40C27.75 38.7574 28.7574 37.75 30 37.75Z"
  />
  <path
    fill-rule="evenodd"
    clip-rule="evenodd"
    d="M42.5 31.75C43.7426 31.75 44.75 32.7574 44.75 34V52C44.75 53.2426 43.7426 54.25 42.5 54.25C41.2574 54.25 40.25 53.2426 40.25 52V34C40.25 32.7574 41.2574 31.75 42.5 31.75Z"
  />
  <path
    fill-rule="evenodd"
    clip-rule="evenodd"
    d="M55 23.75C56.2426 23.75 57.25 24.7574 57.25 26V52C57.25 53.2426 56.2426 54.25 55 54.25C53.7574 54.25 52.75 53.2426 52.75 52V26C52.75 24.7574 53.7574 23.75 55 23.75Z"
  />
</svg>
