<svg
  width="60"
  height="60"
  viewBox="0 0 60 60"
  fill="currentColor"
  xmlns="http://www.w3.org/2000/svg"
>
  <path
    d="M38.6963 5.25H21.3037C18.8652 5.24998 16.8983 5.24996 15.3056 5.38009C13.6657 5.51408 12.2253 5.79716 10.8926 6.47618C8.77578 7.55475 7.05475 9.27578 5.97618 11.3926C5.29716 12.7253 5.01408 14.1657 4.88009 15.8056C4.74996 17.3983 4.74998 19.3652 4.75 21.8037V22.5C4.75 23.7426 5.75736 24.75 7 24.75C8.24264 24.75 9.25 23.7426 9.25 22.5V21.9C9.25 19.3426 9.25175 17.5599 9.36515 16.172C9.4764 14.8104 9.68379 14.0281 9.98571 13.4356C10.6329 12.1655 11.6655 11.1329 12.9356 10.4857C13.5281 10.1838 14.3104 9.9764 15.672 9.86515C17.0599 9.75175 18.8426 9.75 21.4 9.75H38.6C41.1574 9.75 42.9401 9.75175 44.328 9.86515C45.6896 9.9764 46.4719 10.1838 47.0644 10.4857C48.3345 11.1329 49.3671 12.1655 50.0143 13.4356C50.3162 14.0281 50.5236 14.8104 50.6349 16.172C50.7482 17.5599 50.75 19.3426 50.75 21.9V22.5C50.75 23.7426 51.7574 24.75 53 24.75C54.2426 24.75 55.25 23.7426 55.25 22.5V21.8036C55.25 19.3652 55.25 17.3983 55.1199 15.8056C54.9859 14.1657 54.7028 12.7253 54.0238 11.3926C52.9452 9.27579 51.2242 7.55475 49.1074 6.47618C47.7747 5.79716 46.3343 5.51408 44.6944 5.38009C43.1017 5.24996 41.1348 5.24998 38.6963 5.25Z"
  />
  <path
    d="M9.25 37.5C9.25 36.2574 8.24264 35.25 7 35.25C5.75736 35.25 4.75 36.2574 4.75 37.5V38.1963C4.74998 40.6348 4.74996 42.6017 4.88009 44.1944C5.01408 45.8343 5.29716 47.2747 5.97618 48.6074C7.05475 50.7242 8.77579 52.4452 10.8926 53.5238C12.2253 54.2028 13.6657 54.4859 15.3056 54.6199C16.8983 54.75 18.8651 54.75 21.3036 54.75H38.6964C41.1348 54.75 43.1017 54.75 44.6944 54.6199C46.3343 54.4859 47.7747 54.2028 49.1074 53.5238C51.2242 52.4452 52.9452 50.7242 54.0238 48.6074C54.7028 47.2747 54.9859 45.8343 55.1199 44.1944C55.25 42.6017 55.25 40.6349 55.25 38.1964V37.5C55.25 36.2574 54.2426 35.25 53 35.25C51.7574 35.25 50.75 36.2574 50.75 37.5V38.1C50.75 40.6574 50.7482 42.4401 50.6349 43.828C50.5236 45.1896 50.3162 45.9719 50.0143 46.5644C49.3671 47.8345 48.3345 48.8671 47.0644 49.5143C46.4719 49.8162 45.6896 50.0236 44.328 50.1349C42.9401 50.2482 41.1574 50.25 38.6 50.25H21.4C18.8426 50.25 17.0599 50.2482 15.672 50.1349C14.3104 50.0236 13.5281 49.8162 12.9356 49.5143C11.6655 48.8671 10.6329 47.8345 9.98571 46.5644C9.68379 45.9719 9.4764 45.1896 9.36515 43.828C9.25175 42.4401 9.25 40.6574 9.25 38.1V37.5Z"
  />
  <path
    fill-rule="evenodd"
    clip-rule="evenodd"
    d="M36.7058 30.5607L33.9499 26.051L29.5099 37.4682C29.3812 37.7994 29.2348 38.1762 29.0827 38.4818C28.9371 38.7745 28.5985 39.4126 27.8905 39.8306C27.0992 40.2977 26.1395 40.3832 25.2782 40.0633C24.5074 39.777 24.0614 39.2087 23.8663 38.9464C23.6626 38.6724 23.452 38.3275 23.2668 38.0243L19.7381 32.25H7C5.75736 32.25 4.75 31.2426 4.75 30C4.75 28.7574 5.75736 27.75 7 27.75H20.2821C20.2923 27.75 20.3059 27.7498 20.3225 27.7496C20.4937 27.7471 20.9909 27.7399 21.4721 27.8923C21.8698 28.0182 22.2374 28.2244 22.5523 28.4981C22.9332 28.8292 23.1864 29.2573 23.2735 29.4046C23.282 29.4189 23.2889 29.4306 23.2942 29.4393L26.0501 33.949L30.4901 22.5318C30.6188 22.2006 30.7652 21.8238 30.9173 21.5182C31.0629 21.2255 31.4015 20.5873 32.1095 20.1694C32.9008 19.7023 33.8605 19.6168 34.7218 19.9367C35.4926 20.223 35.9386 20.7913 36.1337 21.0536C36.3374 21.3275 36.548 21.6725 36.7331 21.9757L40.2619 27.75H53C54.2426 27.75 55.25 28.7574 55.25 30C55.25 31.2426 54.2426 32.25 53 32.25H39.7179C39.7077 32.25 39.6941 32.2502 39.6775 32.2504C39.5063 32.2529 39.009 32.2601 38.5279 32.1077C38.1302 31.9818 37.7626 31.7756 37.4477 31.5019C37.0668 31.1708 36.8136 30.7427 36.7265 30.5954C36.7215 30.5869 36.717 30.5794 36.7131 30.5729C36.7104 30.5684 36.708 30.5643 36.7058 30.5607Z"
  />
</svg>
