<svg
  width="60"
  height="60"
  viewBox="0 0 60 60"
  fill="currentColor"
  xmlns="http://www.w3.org/2000/svg"
>
  <path
    fill-rule="evenodd"
    clip-rule="evenodd"
    d="M21.2451 6.22541C22.0968 7.01776 22.5448 8.29381 22.1652 9.58911C21.57 11.6198 21.25 13.7706 21.25 16C21.25 28.5645 31.4355 38.75 44 38.75C46.2294 38.75 48.3802 38.43 50.4109 37.8348C51.7062 37.4552 52.9823 37.9032 53.7746 38.755C54.5929 39.6346 54.964 41.043 54.2839 42.3752C49.7786 51.1997 40.5978 57.25 30 57.25C14.9502 57.25 2.75 45.0498 2.75 30C2.75 19.4022 8.8003 10.2214 17.6248 5.71614C18.957 5.03599 20.3654 5.4071 21.2451 6.22541ZM17.17 11.2099C11.1773 15.3098 7.25 22.1978 7.25 30C7.25 42.5645 17.4355 52.75 30 52.75C37.8022 52.75 44.6903 48.8227 48.7901 42.83C47.2339 43.1061 45.633 43.25 44 43.25C28.9502 43.25 16.75 31.0498 16.75 16C16.75 14.367 16.8939 12.7661 17.17 11.2099Z"
  />
</svg>
