<svg
  width="60"
  height="60"
  viewBox="0 0 60 60"
  fill="currentColor"
  xmlns="http://www.w3.org/2000/svg"
>
  <path
    fill-rule="evenodd"
    clip-rule="evenodd"
    d="M19.2596 13.9162C13.2987 17.3427 9.25 23.7251 9.25 31C9.25 41.9076 18.0924 50.75 29 50.75C36.2749 50.75 42.6571 46.7013 46.0837 40.7404C42.9508 42.9504 39.1275 44.25 35 44.25C24.3685 44.25 15.75 35.6315 15.75 25C15.75 20.8725 17.0496 17.0491 19.2596 13.9162ZM28.6221 9.13909C28.8916 10.1769 28.6118 11.6144 27.3188 12.4049C23.0745 14.9997 20.25 19.6711 20.25 25C20.25 33.1462 26.8538 39.75 35 39.75C40.3289 39.75 45.0001 36.9255 47.595 32.6812C48.3855 31.3882 49.8229 31.1083 50.8607 31.3779C51.4012 31.5183 51.9866 31.8358 52.4213 32.4015C52.8853 33.0054 53.0768 33.7676 52.9583 34.5305C51.1537 46.1443 41.1441 55.25 29 55.25C15.6071 55.25 4.75 44.3929 4.75 31C4.75 18.8559 13.8557 8.84612 25.4695 7.04154C26.2324 6.92299 26.9946 7.11451 27.5985 7.57858C28.1641 8.01326 28.4817 8.59864 28.6221 9.13909Z"
  />
  <path
    fill-rule="evenodd"
    clip-rule="evenodd"
    d="M41.5382 6.75473C42.638 4.86943 45.362 4.86944 46.4618 6.75473L48.6013 10.4225C48.9457 11.0128 49.4448 11.4978 50.0448 11.8251L53.1117 13.498C55.0921 14.5782 55.0921 17.4218 53.1117 18.502L50.0448 20.1749C49.4448 20.5021 48.9457 20.9871 48.6013 21.5775L46.4618 25.2452C45.362 27.1305 42.638 27.1305 41.5382 25.2452L39.3987 21.5775C39.0543 20.9871 38.5552 20.5021 37.9552 20.1749L34.8883 18.502C32.9079 17.4218 32.9079 14.5782 34.8883 13.498L37.9552 11.8251C38.5552 11.4978 39.0543 11.0128 39.3987 10.4225L41.5382 6.75473ZM44 11.4654L43.2857 12.6899C42.5281 13.9886 41.43 15.0556 40.1101 15.7756L39.6987 16L40.1101 16.2243C41.43 16.9443 42.5281 18.0113 43.2857 19.31L44 20.5346L44.7143 19.31C45.4719 18.0113 46.57 16.9443 47.8899 16.2243L48.3013 16L47.8899 15.7756C46.57 15.0556 45.4719 13.9887 44.7143 12.6899L44 11.4654Z"
  />
</svg>
