<svg
  width="60"
  height="60"
  viewBox="0 0 60 60"
  fill="currentColor"
  xmlns="http://www.w3.org/2000/svg"
>
  <path
    d="M30 15C27.2386 15 25 12.7614 25 10C25 7.23858 27.2386 5 30 5C32.7614 5 35 7.23858 35 10C35 12.7614 32.7614 15 30 15Z"
  />
  <path
    d="M30 35C27.2386 35 25 32.7614 25 30C25 27.2386 27.2386 25 30 25C32.7614 25 35 27.2386 35 30C35 32.7614 32.7614 35 30 35Z"
  />
  <path
    d="M25 50C25 52.7614 27.2386 55 30 55C32.7614 55 35 52.7614 35 50C35 47.2386 32.7614 45 30 45C27.2386 45 25 47.2386 25 50Z"
  />
</svg>
