<svg
  width="60"
  height="60"
  viewBox="0 0 60 60"
  fill="currentColor"
  xmlns="http://www.w3.org/2000/svg"
>
  <path
    fill-rule="evenodd"
    clip-rule="evenodd"
    d="M21.4994 9.30001L21.6 9.30003H36L36.1062 9.30003C37.6959 9.29999 39.0494 9.29995 40.1607 9.39075C41.3282 9.48613 42.464 9.69504 43.5498 10.2483C45.1868 11.0824 46.5177 12.4133 47.3518 14.0503C47.905 15.1361 48.1139 16.2719 48.2093 17.4394C48.3001 18.5507 48.3001 19.9042 48.3 21.4939V21.6V38.4V38.5062C48.3001 40.0958 48.3001 41.4494 48.2093 42.5607C48.1139 43.7282 47.905 44.864 47.3518 45.9498C46.5177 47.5868 45.1868 48.9177 43.5498 49.7518C42.464 50.305 41.3282 50.5139 40.1607 50.6093C39.0494 50.7001 37.6959 50.7001 36.1063 50.7H36H21.6L21.4993 50.7001H21.499C21.0424 50.7002 20.65 50.7003 20.2941 50.6692C16.3782 50.3266 13.2735 47.2219 12.9309 43.306C12.8997 42.95 12.8999 42.5574 12.9 42.1007L12.9 42C12.9 40.5089 14.1089 39.3 15.6 39.3C17.0912 39.3 18.3 40.5089 18.3 42C18.3 42.6143 18.3026 42.7475 18.3103 42.8354C18.4245 44.1407 19.4594 45.1756 20.7647 45.2898C20.8526 45.2974 20.9858 45.3 21.6 45.3H36C37.7248 45.3 38.8559 45.2979 39.721 45.2273C40.5545 45.1592 40.9005 45.0411 41.0982 44.9404C41.7191 44.624 42.224 44.1191 42.5404 43.4982C42.6411 43.3005 42.7592 42.9545 42.8273 42.121C42.8979 41.2559 42.9 40.1247 42.9 38.4V21.6C42.9 19.8753 42.8979 18.7442 42.8273 17.8791C42.7592 17.0456 42.6411 16.6995 42.5404 16.5019C42.224 15.8809 41.7191 15.3761 41.0982 15.0597C40.9005 14.959 40.5545 14.8409 39.721 14.7728C38.8559 14.7021 37.7248 14.7 36 14.7H21.6C20.9858 14.7 20.8526 14.7026 20.7647 14.7103C19.4594 14.8245 18.4245 15.8594 18.3103 17.1647C18.3026 17.2525 18.3 17.3858 18.3 18C18.3 19.4912 17.0912 20.7 15.6 20.7C14.1089 20.7 12.9 19.4912 12.9 18L12.9 17.8994V17.8994C12.8999 17.4426 12.8997 17.0501 12.9309 16.6941C13.2735 12.7782 16.3782 9.67346 20.2941 9.33086C20.6501 9.29971 21.0427 9.29985 21.4994 9.30001ZM9.30005 25.8C9.30005 24.3089 10.5089 23.1 12 23.1H19.2C20.6912 23.1 21.9 24.3089 21.9 25.8C21.9 27.2912 20.6912 28.5 19.2 28.5H12C10.5089 28.5 9.30005 27.2912 9.30005 25.8ZM12 31.5C10.5089 31.5 9.30005 32.7089 9.30005 34.2C9.30005 35.6912 10.5089 36.9 12 36.9H19.2C20.6912 36.9 21.9 35.6912 21.9 34.2C21.9 32.7089 20.6912 31.5 19.2 31.5H12Z"
    fill="currentColor"
  />
</svg>
