<svg
  width="60"
  height="60"
  viewBox="0 0 60 60"
  fill="currentColor"
  xmlns="http://www.w3.org/2000/svg"
>
  <path
    fill-rule="evenodd"
    clip-rule="evenodd"
    d="M3 41.6038C3 41.0432 3 40.7629 3.00351 40.5258C3.25993 23.2239 17.2239 9.25993 34.5258 9.00351C34.7629 9 35.0432 9 35.6038 9C35.9717 9 36.1556 9 36.3112 9.00231C47.6656 9.17058 56.8294 18.3344 56.9977 29.6888C57 29.8444 57 30.0283 57 30.3962V31.0244C57 31.9302 57 32.3832 56.9853 32.7661C56.585 43.2102 48.2102 51.585 37.7661 51.9853C37.3832 52 36.9302 52 36.0244 52H12.439C12.0314 52 11.8276 52 11.6553 51.9934C6.95539 51.8132 3.18676 48.0446 3.0066 43.3447C3 43.1724 3 42.9686 3 42.561V41.6038ZM52.5 30.3962V31.0244C52.5 31.9719 52.4992 32.3187 52.4886 32.5937C52.1784 40.6879 45.6879 47.1784 37.5937 47.4886C37.3187 47.4992 36.9719 47.5 36.0244 47.5H12.439C11.9897 47.5 11.8921 47.4992 11.8276 47.4967C9.47769 47.4066 7.59338 45.5223 7.5033 43.1724C7.50083 43.1079 7.5 43.0103 7.5 42.561V41.6038C7.5 41.0271 7.50012 40.7878 7.50302 40.5925C7.52159 39.3395 7.62382 38.1068 7.80437 36.8998L31.9999 36.8999C35.2517 36.8999 38.0112 34.1749 38.6952 31.1308C39.0624 29.4969 38.8726 27.6835 37.8741 25.9952C36.8877 24.3272 35.2152 22.9507 32.9018 21.9386L32.8811 21.9295L21.3135 17.1429C25.2332 14.8898 29.7614 13.5746 34.5925 13.503C34.7878 13.5001 35.0271 13.5 35.6038 13.5C35.9878 13.5 36.1307 13.5001 36.2445 13.5018C45.1658 13.634 52.366 20.8342 52.4982 29.7555C52.4999 29.8693 52.5 30.0122 52.5 30.3962ZM16.985 20.2218L31.1178 26.07C32.7912 26.8057 33.6138 27.6315 34.0008 28.2859C34.3774 28.9227 34.4376 29.5531 34.3047 30.1441C33.9888 31.55 32.7482 32.3999 31.9999 32.3999L8.87243 32.3999C10.4411 27.6305 13.2782 23.4383 16.985 20.2218Z"
  />
</svg>
