<svg
  width="60"
  height="60"
  viewBox="0 0 60 60"
  fill="currentColor"
  xmlns="http://www.w3.org/2000/svg"
>
  <path
    fill-rule="evenodd"
    clip-rule="evenodd"
    d="M30 12C32.7614 12 35 9.76142 35 7C35 4.23858 32.7614 2 30 2C27.2386 2 25 4.23858 25 7C25 9.76142 27.2386 12 30 12ZM38.5 7.00009C38.5 8.32867 38.1952 9.58605 37.6517 10.7061C45.3247 13.7518 50.75 21.2422 50.75 29.9998C50.75 31.0244 50.6757 32.0316 50.5323 33.0165C52.1302 33.1152 53.6087 33.6554 54.8471 34.5167C55.1118 33.0511 55.25 31.5416 55.25 29.9998C55.25 19.0231 48.2459 9.68237 38.4631 6.203C38.4875 6.46542 38.5 6.7313 38.5 7.00009ZM30 50.7498C34.8912 50.7498 39.3871 49.0574 42.9341 46.2264C43.7925 47.5072 44.9899 48.5416 46.3978 49.2013C41.986 52.9725 36.2589 55.2498 30 55.2498C23.7411 55.2498 18.014 52.9725 13.6022 49.2013C15.0101 48.5416 16.2075 47.5072 17.0659 46.2264C20.6129 49.0574 25.1088 50.7498 30 50.7498ZM5.15286 34.5167C4.88819 33.0511 4.75 31.5416 4.75 29.9998C4.75 19.0231 11.7541 9.68237 21.5369 6.203C21.5125 6.46542 21.5 6.7313 21.5 7.00009C21.5 8.32867 21.8048 9.58605 22.3483 10.7061C14.6753 13.7518 9.25 21.2422 9.25 29.9998C9.25 31.0244 9.32426 32.0316 9.4677 33.0165C7.86977 33.1152 6.39133 33.6554 5.15286 34.5167ZM15 41.5C15 44.2614 12.7614 46.5 10 46.5C7.23858 46.5 5 44.2614 5 41.5C5 38.7386 7.23858 36.5 10 36.5C12.7614 36.5 15 38.7386 15 41.5ZM50 46.5C52.7614 46.5 55 44.2614 55 41.5C55 38.7386 52.7614 36.5 50 36.5C47.2386 36.5 45 38.7386 45 41.5C45 44.2614 47.2386 46.5 50 46.5Z"
  />
</svg>
