<svg
  width="60"
  height="60"
  viewBox="0 0 60 60"
  fill="currentColor"
  xmlns="http://www.w3.org/2000/svg"
>
  <path
    fill-rule="evenodd"
    clip-rule="evenodd"
    d="M29.9843 4.89997C30.095 6.13767 29.1815 7.23079 27.9438 7.34153C27.2536 7.40328 26.5727 7.49579 25.9024 7.61764C15.2938 9.54594 7.25 18.836 7.25 30C7.25 42.5645 17.4355 52.75 30 52.75C42.5645 52.75 52.75 42.5645 52.75 30C52.75 21.1255 47.6675 13.4335 40.25 9.68371V30C40.25 35.6609 35.6609 40.25 30 40.25C24.3391 40.25 19.75 35.6609 19.75 30C19.75 24.3391 24.3391 19.75 30 19.75C32.1311 19.75 34.1103 20.4004 35.75 21.5135V6.35994C35.7492 6.32516 35.7492 6.29029 35.75 6.25534V6H35.7707C35.7898 5.86229 35.8221 5.72439 35.8682 5.58782C36.2656 4.41044 37.5422 3.77815 38.7196 4.17556C49.4901 7.811 57.25 17.9964 57.25 30C57.25 45.0498 45.0498 57.25 30 57.25C14.9502 57.25 2.75 45.0498 2.75 30C2.75 16.6224 12.3875 5.50048 25.0976 3.19019C25.9012 3.04411 26.7169 2.93333 27.5427 2.85943C28.7804 2.7487 29.8736 3.66228 29.9843 4.89997ZM35.75 30C35.75 26.8244 33.1756 24.25 30 24.25C26.8244 24.25 24.25 26.8244 24.25 30C24.25 33.1756 26.8244 35.75 30 35.75C33.1756 35.75 35.75 33.1756 35.75 30Z"
  />
</svg>
