<svg
  width="60"
  height="60"
  viewBox="0 0 60 60"
  fill="currentColor"
  xmlns="http://www.w3.org/2000/svg"
>
  <path
    fill-rule="evenodd"
    clip-rule="evenodd"
    d="M24.75 10.153C24.75 6.07235 28.5969 3.08623 32.55 4.09823L49.55 8.45023C52.3156 9.15823 54.25 11.6502 54.25 14.505V23.847C54.25 27.9276 50.4031 30.9137 46.45 29.9017L29.45 25.5497C29.3828 25.5325 29.3162 25.5143 29.25 25.495L29.25 44C29.25 44.0511 29.2483 44.1017 29.2449 44.152C29.2483 44.2676 29.25 44.3836 29.25 44.5C29.25 50.9893 23.9893 56.25 17.5 56.25C11.0107 56.25 5.75 50.9893 5.75 44.5C5.75 38.0106 11.0107 32.75 17.5 32.75C20.2357 32.75 22.7531 33.6849 24.75 35.2527L24.75 11.5C24.75 11.4974 24.75 11.4948 24.75 11.4922V10.153ZM29.25 19.495C29.25 20.2943 29.7916 20.9921 30.566 21.1903L47.566 25.5423C48.6729 25.8257 49.75 24.9896 49.75 23.847V14.505C49.75 13.7056 49.2084 13.0079 48.434 12.8097L31.434 8.45765C30.3271 8.17429 29.25 9.0104 29.25 10.153V19.495ZM17.5 37.25C13.4959 37.25 10.25 40.4959 10.25 44.5C10.25 48.5041 13.4959 51.75 17.5 51.75C21.5041 51.75 24.75 48.5041 24.75 44.5C24.75 40.4959 21.5041 37.25 17.5 37.25Z"
  />
</svg>
