<svg
  width="60"
  height="60"
  viewBox="0 0 60 60"
  fill="currentColor"
  xmlns="http://www.w3.org/2000/svg"
>
  <path
    fill-rule="evenodd"
    clip-rule="evenodd"
    d="M51.0277 15.9587C52.4168 13.49 51.8875 10.3127 49.6271 8.43414C47.3717 6.55982 44.1389 6.59935 41.9393 8.38817C36.4526 6.57516 30.2449 7.79759 25.8641 11.8392C25.5505 12.0262 25.2881 12.2865 25.0983 12.5945C24.8896 12.8146 24.6858 13.0417 24.4874 13.2759C20.6637 17.7891 19.7861 23.78 21.6476 28.9549C21.2134 32.6601 19.6 34.5962 17.6217 36.9312C16.933 37.7441 15.8652 38.3383 14.1923 39.2622C12.6711 40.1024 10.7189 41.1908 9.20096 42.9825C7.65348 44.809 6.86921 46.9869 7.06553 49.2092C7.26179 51.431 8.41532 53.4387 10.2571 54.9694C12.0994 56.5004 14.2857 57.2685 16.508 57.0759C18.7308 56.8833 20.7513 55.7503 22.2992 53.9233C23.8187 52.1298 24.5635 50.0327 25.1353 48.4017C25.7635 46.6095 26.1672 45.4699 26.854 44.6593C28.8318 42.3248 30.4832 40.4049 34.1173 39.3342C39.5737 40.2541 45.3645 38.3625 49.1834 33.8551C49.3819 33.6208 49.5724 33.3825 49.755 33.1406C50.0281 32.9025 50.2419 32.6004 50.3747 32.26C53.6342 27.2818 53.7759 21.0055 51.0277 15.9587ZM46.9755 29.1957C49.6646 24.4749 48.6688 18.3824 44.318 14.7666C39.9583 11.1435 33.7017 11.2295 29.4603 14.6757C29.6079 15.3046 29.8538 16.1597 30.2562 17.1495C31.1468 19.3408 32.7965 22.1769 35.8405 24.7067C38.8855 27.2372 41.9964 28.3565 44.3378 28.8463C45.4116 29.071 46.3192 29.1621 46.9755 29.1957ZM26.1559 19.0106C24.173 23.5493 25.3258 29.0177 29.3528 32.3643C33.3721 35.7046 39.0039 35.8923 43.1822 33.2007C40.3077 32.5683 36.5857 31.177 32.9644 28.1676C29.3183 25.1375 27.2823 21.7202 26.1559 19.0106ZM28.2665 37.1185C27.6492 36.7336 27.051 36.3026 26.4766 35.8252C25.887 35.3353 25.3417 34.8124 24.841 34.2615C23.8151 36.5828 22.3879 38.2671 21.0987 39.7887L21.0551 39.8401C19.8079 41.3122 18.051 42.2769 16.6664 43.0372C16.5648 43.093 16.4651 43.1477 16.3679 43.2014C14.7938 44.0707 13.5493 44.8115 12.6344 45.8914C11.7489 46.9365 11.4722 47.9548 11.5481 48.8132C11.6239 49.6721 12.0756 50.6295 13.1333 51.5085C14.1904 52.387 15.2313 52.6697 16.1195 52.5927C17.0073 52.5158 17.9807 52.059 18.8658 51.0144C19.7792 49.9363 20.298 48.5978 20.8886 46.9131C20.9251 46.8089 20.9622 46.7024 21 46.5936C21.5157 45.1105 22.1715 43.2247 23.4206 41.7504L23.4608 41.7029C24.7447 40.1874 26.1615 38.515 28.2665 37.1185Z"
  />
</svg>
