<svg
  width="60"
  height="60"
  viewBox="0 0 60 60"
  fill="currentColor"
  xmlns="http://www.w3.org/2000/svg"
>
  <path
    d="M28.75 36.0364V53C28.75 54.2426 27.7426 55.25 26.5 55.25C25.2573 55.25 24.25 54.2426 24.25 53L24.25 43.3473C23.1113 43.8914 21.7907 44.2044 20.3181 44.249L20.2841 44.25H20.25C16.6269 44.25 13.0341 42.3925 10.2837 39.7465C7.51039 37.0784 5.354 33.3878 4.77266 29.3182C4.3079 26.0646 4.38547 23.9089 4.75929 19.7963C5.34486 13.3542 11.1306 5.75 20.25 5.75C23.1272 5.75 25.3077 6.67586 26.7678 8.18609C28.1842 9.65109 28.7378 11.4778 28.75 12.9813C28.7505 13.047 28.7505 13.1132 28.75 13.1784C28.7382 14.5806 28.4739 15.8684 27.8941 16.9991C27.2786 18.1997 26.371 19.0986 25.2921 19.7417C23.2356 20.9674 20.5753 21.25 17.9997 21.25C16.7571 21.25 15.7497 20.2426 15.7497 19C15.7497 17.7574 16.7571 16.75 17.9997 16.75C20.4247 16.75 22.0346 16.4446 22.9882 15.8762C23.4143 15.6222 23.6967 15.3227 23.8898 14.946C24.0916 14.5524 24.2579 13.9515 24.2501 13.0187C24.2462 12.5223 24.0496 11.8487 23.5326 11.3139C23.0591 10.8241 22.1225 10.25 20.25 10.25C13.8693 10.25 9.65511 15.6458 9.24082 20.2037C8.87929 24.1811 8.83513 25.9354 9.22745 28.6818C9.64604 31.6122 11.2395 34.4216 13.4036 36.5035C15.5791 38.5965 18.0963 39.738 20.2165 39.7499C21.8139 39.6943 22.7671 39.1518 23.3282 38.5467C23.9123 37.9168 24.2443 37.0316 24.25 36.0263V36L24.25 35.9887C24.2501 35.9763 24.2502 35.9639 24.2505 35.9515C24.2608 35.0587 24.1 34.4773 23.9017 34.0913C23.7094 33.717 23.4239 33.4118 22.9899 33.1506C22.0281 32.5719 20.4061 32.25 17.9997 32.25C16.7571 32.25 15.7497 31.2426 15.7497 30C15.7497 28.7574 16.7571 27.75 17.9997 27.75C20.594 27.75 23.2552 28.0584 25.31 29.2948C26.3843 29.9413 27.2904 30.8398 27.9043 32.0349C28.469 33.1339 28.7327 34.3781 28.75 35.7281C28.7513 35.8235 28.7513 35.9195 28.75 36.016L28.75 36.0364Z"
  />
  <path
    d="M35.751 36.0263V36C35.751 35.9838 35.7508 35.9676 35.7505 35.9515C35.7401 35.0587 35.901 34.4773 36.0993 34.0913C36.2916 33.717 36.5771 33.4118 37.0111 33.1506C37.9728 32.5719 39.5949 32.25 42.0012 32.25C43.2439 32.25 44.2512 31.2426 44.2512 30C44.2512 28.7574 43.2439 27.75 42.0012 27.75C39.407 27.75 36.7458 28.0584 34.691 29.2948C33.6167 29.9413 32.7106 30.8398 32.0966 32.0349C31.532 33.1339 31.2682 34.3781 31.2509 35.7281C31.2497 35.8235 31.2497 35.9195 31.2509 36.016C31.2509 36.0228 31.2509 36.0296 31.251 36.0364V53C31.251 54.2426 32.2583 55.25 33.501 55.25C34.7436 55.25 35.751 54.2426 35.751 53L35.751 43.3473C36.8896 43.8914 38.2103 44.2044 39.6828 44.249L39.7169 44.25H39.7509C43.3741 44.25 46.9668 42.3925 49.7172 39.7465C52.4906 37.0784 54.6469 33.3878 55.2283 29.3182C55.693 26.0646 55.6155 23.9089 55.2416 19.7963C54.6561 13.3542 48.8703 5.75 39.7509 5.75C36.8737 5.75 34.6932 6.67586 33.2331 8.18609C31.8168 9.65109 31.2632 11.4778 31.251 12.9813C31.2504 13.047 31.2504 13.1132 31.251 13.1784C31.251 13.1781 31.251 13.1786 31.251 13.1784C31.2627 14.5806 31.527 15.8684 32.1068 16.9991C32.7224 18.1997 33.6299 19.0986 34.7088 19.7417C36.7653 20.9674 39.4256 21.25 42.0012 21.25C43.2439 21.25 44.2512 20.2426 44.2512 19C44.2512 17.7574 43.2439 16.75 42.0012 16.75C39.5762 16.75 37.9663 16.4446 37.0127 15.8762C36.5866 15.6222 36.3043 15.3227 36.1111 14.946C35.9093 14.5524 35.7431 13.9515 35.7508 13.0187C35.7548 12.5223 35.9514 11.8487 36.4684 11.3139C36.9419 10.8241 37.8784 10.25 39.7509 10.25C46.1316 10.25 50.3458 15.6458 50.7601 20.2037C51.1217 24.1811 51.1658 25.9354 50.7735 28.6818C50.3549 31.6122 48.7615 34.4216 46.5974 36.5035C44.4218 38.5965 41.9046 39.738 39.7844 39.7499C38.187 39.6943 37.2339 39.1518 36.6727 38.5467C36.0887 37.9168 35.7567 37.0316 35.751 36.0263Z"
  />
</svg>
