<svg
  width="60"
  height="60"
  viewBox="0 0 60 60"
  fill="currentColor"
  xmlns="http://www.w3.org/2000/svg"
>
  <path
    fill-rule="evenodd"
    clip-rule="evenodd"
    d="M19.75 14C19.75 8.33908 24.3391 3.75 30 3.75C35.6609 3.75 40.25 8.33908 40.25 14C40.25 18.7988 36.9522 22.8274 32.4992 23.9431L32.4992 31.8921L38.7805 36.7239C40.6331 34.8856 43.184 33.75 46 33.75C51.6609 33.75 56.25 38.3391 56.25 44C56.25 49.6609 51.6609 54.25 46 54.25C40.3391 54.25 35.75 49.6609 35.75 44C35.75 42.783 35.9621 41.6156 36.3513 40.5326L30.1707 35.7783L23.5593 40.2934C24.0053 41.4429 24.25 42.6929 24.25 44C24.25 49.6609 19.6609 54.25 14 54.25C8.33908 54.25 3.75 49.6609 3.75 44C3.75 38.3391 8.33908 33.75 14 33.75C16.7306 33.75 19.2118 34.8178 21.0489 36.5585L27.9992 31.812L27.9992 24.0548C23.2961 23.1242 19.75 18.9762 19.75 14ZM30 8.25C26.8244 8.25 24.25 10.8244 24.25 14C24.25 17.1756 26.8244 19.75 30 19.75C33.1756 19.75 35.75 17.1756 35.75 14C35.75 10.8244 33.1756 8.25 30 8.25ZM8.25 44C8.25 40.8244 10.8244 38.25 14 38.25C17.1756 38.25 19.75 40.8244 19.75 44C19.75 47.1756 17.1756 49.75 14 49.75C10.8244 49.75 8.25 47.1756 8.25 44ZM40.25 44C40.25 40.8244 42.8244 38.25 46 38.25C49.1756 38.25 51.75 40.8244 51.75 44C51.75 47.1756 49.1756 49.75 46 49.75C42.8244 49.75 40.25 47.1756 40.25 44Z"
  />
</svg>
