<svg
  width="60"
  height="60"
  viewBox="0 0 60 60"
  fill="currentColor"
  xmlns="http://www.w3.org/2000/svg"
>
  <path
    d="M16 18.75C14.7574 18.75 13.75 19.7574 13.75 21C13.75 22.2426 14.7574 23.25 16 23.25H36C37.2426 23.25 38.25 22.2426 38.25 21C38.25 19.7574 37.2426 18.75 36 18.75H16Z"
  />
  <path
    d="M16 32.75C14.7574 32.75 13.75 33.7574 13.75 35C13.75 36.2426 14.7574 37.25 16 37.25H26C27.2426 37.25 28.25 36.2426 28.25 35C28.25 33.7574 27.2426 32.75 26 32.75H16Z"
  />
  <path
    fill-rule="evenodd"
    clip-rule="evenodd"
    d="M47.985 55.25H21.3036C18.8652 55.25 16.8983 55.25 15.3056 55.1199C13.6657 54.9859 12.2253 54.7028 10.8926 54.0238C8.77579 52.9452 7.05475 51.2242 5.97618 49.1074C5.29716 47.7747 5.01408 46.3343 4.88009 44.6944C4.74996 43.1017 4.74998 41.1348 4.75 38.6963V21.3037C4.74998 18.8652 4.74996 16.8983 4.88009 15.3056C5.01408 13.6657 5.29716 12.2253 5.97618 10.8926C7.05475 8.77578 8.77578 7.05475 10.8926 5.97618C12.2253 5.29716 13.6657 5.01408 15.3056 4.88009C16.8983 4.74996 18.8652 4.74998 21.3037 4.75H34C40.2132 4.75 45.25 9.7868 45.25 16V18.8196C50.5612 19.4119 54.7392 23.6709 55.2072 29.0195C55.2502 29.5107 55.2501 30.0671 55.25 30.8843L55.25 48C55.25 51.9204 52.1383 55.114 48.25 55.2458V55.25H48.015C48.01 55.25 48.005 55.25 48 55.25C47.995 55.25 47.99 55.25 47.985 55.25ZM12.9356 9.98571C13.5281 9.68379 14.3104 9.4764 15.672 9.36515C17.0599 9.25175 18.8426 9.25 21.4 9.25H34C37.7279 9.25 40.75 12.2721 40.75 16V48C40.75 48.0609 40.7507 48.1216 40.7522 48.1821C40.7671 48.7859 40.8558 49.3712 41.0096 49.9294C41.0869 50.2101 41.1806 50.484 41.2897 50.75H21.4C18.8426 50.75 17.0599 50.7482 15.672 50.6349C14.3104 50.5236 13.5281 50.3162 12.9356 50.0143C11.6655 49.3671 10.6329 48.3345 9.98571 47.0644C9.68379 46.4719 9.4764 45.6896 9.36515 44.328C9.25175 42.9401 9.25 41.1574 9.25 38.6V21.4C9.25 18.8426 9.25175 17.0599 9.36515 15.672C9.4764 14.3104 9.68379 13.5281 9.98571 12.9356C10.6329 11.6655 11.6655 10.6329 12.9356 9.98571ZM45.2809 48.4136C45.4804 49.7362 46.6218 50.75 48 50.75C49.5188 50.75 50.75 49.5188 50.75 48V31C50.75 30.0238 50.7478 29.6806 50.7243 29.4117C50.4584 26.3724 48.1958 23.9195 45.25 23.3665V48C45.25 48.1405 45.2605 48.2787 45.2809 48.4136Z"
  />
</svg>
