<svg width="60" height="60" viewBox="0 0 60 60" fill="none" xmlns="http://www.w3.org/2000/svg">
<path fill-rule="evenodd" clip-rule="evenodd" d="M39.0621 14.2079L39.0621 14.208L38.4673 16.032C38.2085 16.8256 38.0791 17.2224 37.8359 17.516C37.6212 17.7752 37.3445 17.976 37.0315 18.0998C36.677 18.24 36.2597 18.24 35.4249 18.24H19.1C17.1398 18.24 16.1597 18.24 15.411 18.6215C14.7525 18.957 14.217 19.4925 13.8815 20.151C13.5 20.8997 13.5 21.8798 13.5 23.84V45.4C13.5 47.3602 13.5 48.3403 13.8815 49.089C14.217 49.7475 14.7525 50.283 15.411 50.6185C16.1597 51 17.1398 51 19.1 51H48.9C50.8602 51 51.8403 51 52.589 50.6185C53.2475 50.283 53.783 49.7475 54.1185 49.089C54.5 48.3403 54.5 47.3602 54.5 45.4V23.84C54.5 23.7868 54.5 23.7343 54.5 23.6825V15.2C54.5 14.0799 54.5 13.5198 54.282 13.092C54.0903 12.7157 53.7843 12.4097 53.408 12.218C52.9802 12 52.4201 12 51.3 12H42.1044C41.2697 12 40.8523 12 40.4979 12.1402C40.1849 12.264 39.9082 12.4648 39.6934 12.724C39.4502 13.0176 39.3209 13.4144 39.0621 14.2079Z" fill="#DFE2F9"/>
<rect x="17.5" y="23" width="32" height="13.5" rx="2" fill="url(#paint0_linear_65090_105120)"/>
<path d="M3.21215 20.4674C3.07989 21.132 3.29434 21.8927 3.72325 23.4141L6.18433 34.7672L6.25024 35C6.73263 36.7111 9.78813 37.061 10.6861 35.5266L11.5255 34.0922C11.6711 33.8435 11.7439 33.7191 11.84 33.6178C11.9253 33.5279 12.0239 33.4517 12.1323 33.3918C12.2546 33.3243 12.3933 33.2852 12.6707 33.207L24.5132 29.8684C26.0346 29.4395 26.7953 29.225 27.2929 28.7651C27.7306 28.3606 28.0291 27.8278 28.1454 27.2433C28.2777 26.5787 28.0632 25.818 27.6343 24.2966L25.6433 17.2344C25.2144 15.713 25 14.9523 24.5401 14.4547C24.1355 14.017 23.5848 13.6163 23.0002 13.5C22.3357 13.3677 21.6314 13.1733 20.11 13.6022L6.84435 17.8423C5.32295 18.2712 4.56226 18.4857 4.06463 18.9456C3.62691 19.3501 3.32849 19.8828 3.21215 20.4674Z" fill="#DFE2F9"/>
<mask id="path-4-inside-1_65090_105120" fill="white">
<path fill-rule="evenodd" clip-rule="evenodd" d="M2.21441 20.1889C2.08214 20.8535 2.2966 21.6142 2.72551 23.1356L4.75495 30.3343C4.75496 30.3343 4.75494 30.3344 4.75489 30.3344V30.3344C4.75484 30.3344 4.75482 30.3344 4.75483 30.3345L5.95759 34.6008C6.43998 36.3119 8.73999 36.6064 9.63792 35.072L10.4919 33.6127C10.6206 33.3928 10.6849 33.2829 10.77 33.1934C10.8453 33.114 10.9325 33.0466 11.0283 32.9937C11.1364 32.9339 11.259 32.8994 11.5042 32.8302L23.2895 29.5078C24.8109 29.0789 25.5715 28.8644 26.0692 28.4045C26.5069 28 26.8053 27.4672 26.9217 26.8827C27.0539 26.2181 26.8395 25.4574 26.4105 23.936L24.4577 17.0089C24.0288 15.4875 23.8143 14.7268 23.3544 14.2292C22.9499 13.7914 22.4171 13.493 21.8326 13.3767C21.168 13.2444 20.4073 13.4589 18.8859 13.8878L5.8466 17.5638C4.32521 17.9927 3.56451 18.2072 3.06688 18.6671C2.62916 19.0716 2.33075 19.6043 2.21441 20.1889Z"/>
</mask>
<path fill-rule="evenodd" clip-rule="evenodd" d="M2.21441 20.1889C2.08214 20.8535 2.2966 21.6142 2.72551 23.1356L4.75495 30.3343C4.75496 30.3343 4.75494 30.3344 4.75489 30.3344V30.3344C4.75484 30.3344 4.75482 30.3344 4.75483 30.3345L5.95759 34.6008C6.43998 36.3119 8.73999 36.6064 9.63792 35.072L10.4919 33.6127C10.6206 33.3928 10.6849 33.2829 10.77 33.1934C10.8453 33.114 10.9325 33.0466 11.0283 32.9937C11.1364 32.9339 11.259 32.8994 11.5042 32.8302L23.2895 29.5078C24.8109 29.0789 25.5715 28.8644 26.0692 28.4045C26.5069 28 26.8053 27.4672 26.9217 26.8827C27.0539 26.2181 26.8395 25.4574 26.4105 23.936L24.4577 17.0089C24.0288 15.4875 23.8143 14.7268 23.3544 14.2292C22.9499 13.7914 22.4171 13.493 21.8326 13.3767C21.168 13.2444 20.4073 13.4589 18.8859 13.8878L5.8466 17.5638C4.32521 17.9927 3.56451 18.2072 3.06688 18.6671C2.62916 19.0716 2.33075 19.6043 2.21441 20.1889Z" fill="#1E1F2B"/>
<path d="M2.72551 23.1356L3.68799 22.8642L2.72551 23.1356ZM2.21441 20.1889L1.23364 19.9937L1.23364 19.9937L2.21441 20.1889ZM5.95759 34.6008L6.92007 34.3295L5.95759 34.6008ZM9.63792 35.072L8.77485 34.567L8.77485 34.567L9.63792 35.072ZM23.2895 29.5078L23.0181 28.5453L23.2895 29.5078ZM26.0692 28.4045L25.3904 27.6701L25.3904 27.6701L26.0692 28.4045ZM26.9217 26.8827L27.9024 27.0778L27.9024 27.0778L26.9217 26.8827ZM26.4105 23.936L27.373 23.6647L26.4105 23.936ZM24.4577 17.0089L23.4952 17.2802L24.4577 17.0089ZM23.3544 14.2292L24.0888 13.5504L24.0888 13.5504L23.3544 14.2292ZM21.8326 13.3767L21.6374 14.3574L21.6374 14.3574L21.8326 13.3767ZM18.8859 13.8878L18.6146 12.9253L18.8859 13.8878ZM5.8466 17.5638L6.11794 18.5263L5.8466 17.5638ZM3.06688 18.6671L3.74561 19.4015L3.74561 19.4015L3.06688 18.6671ZM10.4919 33.6127L9.62886 33.1076L10.4919 33.6127ZM10.77 33.1934L11.4952 33.8819L10.77 33.1934ZM11.5042 32.8302L11.2329 31.8678L11.5042 32.8302ZM11.0283 32.9937L11.5119 33.8689L11.0283 32.9937ZM4.75495 30.3343L3.79247 30.6056L4.75495 30.3343ZM3.68799 22.8642C3.46906 22.0876 3.32193 21.5629 3.2409 21.1489C3.16212 20.7463 3.16507 20.5353 3.19517 20.3841L1.23364 19.9937C1.13148 20.507 1.17552 21.0087 1.27813 21.533C1.3785 22.0458 1.55305 22.6621 1.76302 23.4069L3.68799 22.8642ZM5.71743 30.0629L3.68799 22.8642L1.76302 23.4069L3.79247 30.6056L5.71743 30.0629ZM6.92007 34.3295L5.71731 30.0631L3.79235 30.6058L4.99511 34.8722L6.92007 34.3295ZM8.77485 34.567C8.32232 35.3402 7.16318 35.1918 6.92007 34.3295L4.99511 34.8722C5.71677 37.432 9.15766 37.8726 10.501 35.5771L8.77485 34.567ZM9.62886 33.1076L8.77485 34.567L10.501 35.5771L11.355 34.1178L9.62886 33.1076ZM23.0181 28.5453L11.2329 31.8678L11.7755 33.7927L23.5608 30.4703L23.0181 28.5453ZM25.3904 27.6701C25.2772 27.7748 25.0988 27.8875 24.7144 28.0306C24.319 28.1777 23.7947 28.3264 23.0181 28.5453L23.5608 30.4703C24.3056 30.2603 24.9223 30.0872 25.412 29.9049C25.9127 29.7186 26.3635 29.4941 26.7479 29.1389L25.3904 27.6701ZM25.9409 26.6875C25.8658 27.0649 25.6731 27.4089 25.3904 27.6701L26.7479 29.1389C27.3407 28.591 27.7449 27.8695 27.9024 27.0778L25.9409 26.6875ZM25.4481 24.2073C25.667 24.9839 25.8141 25.5087 25.8952 25.9227C25.9739 26.3252 25.971 26.5362 25.9409 26.6875L27.9024 27.0778C28.0046 26.5645 27.9605 26.0629 27.8579 25.5386C27.7576 25.0258 27.583 24.4095 27.373 23.6647L25.4481 24.2073ZM23.4952 17.2802L25.4481 24.2073L27.373 23.6647L25.4201 16.7375L23.4952 17.2802ZM22.62 14.9079C22.7247 15.0211 22.8374 15.1995 22.9805 15.5839C23.1276 15.9793 23.2762 16.5036 23.4952 17.2802L25.4201 16.7375C25.2102 15.9927 25.0371 15.376 24.8548 14.8863C24.6685 14.3856 24.444 13.9348 24.0888 13.5504L22.62 14.9079ZM21.6374 14.3574C22.0148 14.4326 22.3588 14.6253 22.62 14.9079L24.0888 13.5504C23.5409 12.9576 22.8194 12.5535 22.0277 12.3959L21.6374 14.3574ZM19.1572 14.8503C19.9338 14.6313 20.4586 14.4842 20.8726 14.4032C21.2751 14.3244 21.4861 14.3273 21.6374 14.3574L22.0277 12.3959C21.5144 12.2938 21.0128 12.3378 20.4885 12.4404C19.9757 12.5408 19.3594 12.7153 18.6146 12.9253L19.1572 14.8503ZM6.11794 18.5263L19.1572 14.8503L18.6146 12.9253L5.57526 16.6013L6.11794 18.5263ZM3.74561 19.4015C3.85886 19.2968 4.03724 19.1841 4.42165 19.041C4.81702 18.8938 5.34136 18.7452 6.11794 18.5263L5.57526 16.6013C4.83044 16.8113 4.21374 16.9843 3.72401 17.1666C3.22331 17.353 2.77253 17.5774 2.38816 17.9327L3.74561 19.4015ZM3.19517 20.3841C3.27029 20.0067 3.46298 19.6627 3.74561 19.4015L2.38816 17.9327C1.79535 18.4805 1.3912 19.202 1.23364 19.9937L3.19517 20.3841ZM11.355 34.1178C11.4236 34.0005 11.4591 33.9404 11.487 33.8973C11.51 33.8617 11.5097 33.8666 11.4952 33.8819L10.0447 32.5048C9.86173 32.6976 9.73416 32.9277 9.62886 33.1076L11.355 34.1178ZM11.2329 31.8678C11.0322 31.9243 10.7774 31.9898 10.5447 32.1184L11.5119 33.8689C11.4934 33.8792 11.4887 33.8782 11.5289 33.8649C11.5776 33.8488 11.6448 33.8296 11.7755 33.7927L11.2329 31.8678ZM11.4952 33.8819C11.5001 33.8767 11.5057 33.8724 11.5119 33.8689L10.5447 32.1184C10.3593 32.2208 10.1906 32.3512 10.0447 32.5048L11.4952 33.8819ZM4.48355 29.3719C3.95537 29.5208 3.64151 30.0708 3.79235 30.6058L5.71731 30.0631C5.86813 30.5981 5.55431 31.148 5.02623 31.2969L4.48355 29.3719ZM3.79247 30.6056C3.64262 30.0741 3.95203 29.5217 4.48355 29.3719L5.02623 31.2969C5.55784 31.147 5.86731 30.5945 5.71743 30.0629L3.79247 30.6056Z" fill="#DFE2F9" mask="url(#path-4-inside-1_65090_105120)"/>
<rect x="7.37939" y="21.017" width="11.6928" height="1" rx="0.5" transform="rotate(-15.7441 7.37939 21.017)" fill="#DFE2F9"/>
<rect x="8.36475" y="24.5097" width="11.6928" height="1" rx="0.5" transform="rotate(-15.7441 8.36475 24.5097)" fill="#DFE2F9"/>
<rect x="9.34863" y="28.0024" width="4.43521" height="1" rx="0.5" transform="rotate(-15.7441 9.34863 28.0024)" fill="#DFE2F9"/>
<path d="M15.1662 30H52.8338C53.8174 30 54.523 30.0004 55.0704 30.0478C55.6132 30.0949 55.9469 30.1848 56.2025 30.3314C56.7096 30.6223 57.0987 31.0816 57.3022 31.6295C57.4048 31.9058 57.4386 32.2497 57.3958 32.7928C57.3526 33.3406 57.237 34.0367 57.0753 35.0069L54.6753 49.4069C54.5553 50.1268 54.4695 50.6394 54.3713 51.0399C54.2745 51.4342 54.1735 51.6841 54.0404 51.8843C53.7792 52.2771 53.4122 52.5879 52.9819 52.781C52.7625 52.8794 52.4994 52.938 52.0945 52.9686C51.6833 52.9997 51.1636 53 50.4338 53H17.5662C16.8364 53 16.3167 52.9997 15.9055 52.9686C15.5006 52.938 15.2375 52.8794 15.0181 52.781C14.5878 52.5879 14.2208 52.2771 13.9596 51.8843C13.8265 51.6841 13.7255 51.4342 13.6287 51.0399C13.5305 50.6394 13.4447 50.1268 13.3247 49.4069L10.9247 35.0069C10.763 34.0367 10.6474 33.3406 10.6042 32.7928C10.5614 32.2497 10.5952 31.9058 10.6978 31.6295C10.9013 31.0816 11.2904 30.6223 11.7975 30.3314C12.0531 30.1848 12.3868 30.0949 12.9296 30.0478C13.477 30.0004 14.1826 30 15.1662 30Z" fill="#1E1F2B" stroke="#DFE2F9"/>
<circle cx="48.25" cy="37.25" r="2.75" fill="#1E1F2B" stroke="#DFE2F9"/>
<path d="M6.13753 43.7767C6.2531 43.529 6.31089 43.4052 6.39044 43.3664C6.45959 43.3327 6.54041 43.3327 6.60956 43.3664C6.68911 43.4052 6.7469 43.529 6.86247 43.7767L6.9986 44.0684C7.22639 44.5564 7.34028 44.8005 7.4983 45.0101C7.63847 45.1961 7.80393 45.3615 7.98989 45.5017C8.19953 45.6597 8.44357 45.7736 8.93164 46.0014L9.22334 46.1375C9.47097 46.2531 9.59479 46.3109 9.63357 46.3904C9.66729 46.4596 9.66729 46.5404 9.63357 46.6096C9.59479 46.6891 9.47097 46.7469 9.22334 46.8625L8.93164 46.9986C8.44357 47.2264 8.19953 47.3403 7.98989 47.4983C7.80393 47.6385 7.63847 47.8039 7.4983 47.9899C7.34028 48.1995 7.22639 48.4436 6.9986 48.9316L6.86247 49.2233C6.7469 49.471 6.68911 49.5948 6.60956 49.6336C6.54041 49.6673 6.45959 49.6673 6.39044 49.6336C6.31089 49.5948 6.2531 49.471 6.13753 49.2233L6.0014 48.9316C5.77361 48.4436 5.65972 48.1995 5.5017 47.9899C5.36153 47.8039 5.19607 47.6385 5.01011 47.4983C4.80047 47.3403 4.55643 47.2264 4.06836 46.9986L3.77666 46.8625C3.52903 46.7469 3.40521 46.6891 3.36643 46.6096C3.33271 46.5404 3.33271 46.4596 3.36643 46.3904C3.40521 46.3109 3.52903 46.2531 3.77666 46.1375L4.06836 46.0014C4.55643 45.7736 4.80047 45.6597 5.01011 45.5017C5.19607 45.3615 5.36153 45.1961 5.5017 45.0101C5.65972 44.8005 5.77361 44.5564 6.0014 44.0684L6.13753 43.7767Z" fill="#DFE2F9"/>
<path d="M20.6375 3.27666C20.7531 3.02903 20.8109 2.90521 20.8904 2.86643C20.9596 2.83271 21.0404 2.83271 21.1096 2.86643C21.1891 2.90521 21.2469 3.02903 21.3625 3.27666L21.4986 3.56836C21.7264 4.05643 21.8403 4.30047 21.9983 4.51011C22.1385 4.69607 22.3039 4.86153 22.4899 5.0017C22.6995 5.15972 22.9436 5.27361 23.4316 5.5014L23.7233 5.63753C23.971 5.7531 24.0948 5.81089 24.1336 5.89044C24.1673 5.95959 24.1673 6.04041 24.1336 6.10956C24.0948 6.18911 23.971 6.2469 23.7233 6.36247L23.4316 6.4986C22.9436 6.72639 22.6995 6.84028 22.4899 6.9983C22.3039 7.13847 22.1385 7.30393 21.9983 7.48989C21.8403 7.69953 21.7264 7.94357 21.4986 8.43164L21.3625 8.72334C21.2469 8.97097 21.1891 9.09479 21.1096 9.13357C21.0404 9.16729 20.9596 9.16729 20.8904 9.13357C20.8109 9.09479 20.7531 8.97097 20.6375 8.72334L20.5014 8.43164C20.2736 7.94357 20.1597 7.69953 20.0017 7.48989C19.8615 7.30393 19.6961 7.13847 19.5101 6.9983C19.3005 6.84028 19.0564 6.72639 18.5684 6.4986L18.2767 6.36247C18.029 6.2469 17.9052 6.18911 17.8664 6.10956C17.8327 6.04041 17.8327 5.95959 17.8664 5.89044C17.9052 5.81089 18.029 5.7531 18.2767 5.63753L18.5684 5.5014C19.0564 5.27361 19.3005 5.15972 19.5101 5.0017C19.6961 4.86153 19.8615 4.69607 20.0017 4.51011C20.1597 4.30047 20.2736 4.05643 20.5014 3.56836L20.6375 3.27666Z" fill="#DFE2F9"/>
<path d="M31.9183 11.2107C32.0074 11.0198 32.0519 10.9244 32.1073 10.8859C32.1931 10.8262 32.3069 10.8262 32.3927 10.8859C32.4481 10.9244 32.4926 11.0198 32.5817 11.2107V11.2107C32.6522 11.3617 32.6874 11.4372 32.7331 11.5042C32.8035 11.6074 32.8926 11.6965 32.9958 11.7669C33.0628 11.8126 33.1383 11.8478 33.2893 11.9183V11.9183C33.4802 12.0074 33.5756 12.0519 33.6141 12.1073C33.6738 12.1931 33.6738 12.3069 33.6141 12.3927C33.5756 12.4481 33.4802 12.4926 33.2893 12.5817V12.5817C33.1383 12.6522 33.0628 12.6874 32.9958 12.7331C32.8926 12.8035 32.8035 12.8926 32.7331 12.9958C32.6874 13.0628 32.6522 13.1383 32.5817 13.2893V13.2893C32.4926 13.4802 32.4481 13.5756 32.3927 13.6141C32.3069 13.6738 32.1931 13.6738 32.1073 13.6141C32.0519 13.5756 32.0074 13.4802 31.9183 13.2893V13.2893C31.8478 13.1383 31.8126 13.0628 31.7669 12.9958C31.6965 12.8926 31.6074 12.8035 31.5042 12.7331C31.4372 12.6874 31.3617 12.6522 31.2107 12.5817V12.5817C31.0198 12.4926 30.9244 12.4481 30.8859 12.3927C30.8262 12.3069 30.8262 12.1931 30.8859 12.1073C30.9244 12.0519 31.0198 12.0074 31.2107 11.9183V11.9183C31.3617 11.8478 31.4372 11.8126 31.5042 11.7669C31.6074 11.6965 31.6965 11.6074 31.7669 11.5042C31.8126 11.4372 31.8478 11.3617 31.9183 11.2107V11.2107Z" fill="#DFE2F9"/>
<defs>
<linearGradient id="paint0_linear_65090_105120" x1="68.75" y1="23" x2="49.2801" y2="48.4115" gradientUnits="userSpaceOnUse">
<stop offset="0.28446" stop-color="#4FD9AB"/>
<stop offset="0.678209" stop-color="#437CFC"/>
<stop offset="1" stop-color="#542EF3"/>
</linearGradient>
</defs>
</svg>
