<svg width="60" height="60" viewBox="0 0 60 60" fill="none" xmlns="http://www.w3.org/2000/svg">
<path d="M7.57257 22.7728C7.64139 22.619 7.6758 22.5421 7.72168 22.473C7.76241 22.4116 7.80979 22.355 7.86296 22.304C7.92285 22.2467 7.99246 22.1992 8.13169 22.1043L15.4383 17.1219L9.63978 30.0837L5.46164 32.9328C4.4169 33.6452 3.89453 34.0014 3.59244 33.9469C3.33171 33.8998 3.11514 33.7187 3.02272 33.4704C2.91564 33.1827 3.17383 32.6056 3.6902 31.4513L7.57257 22.7728Z" fill="#DFE2F9"/>
<path d="M44 24.5208C44 23.5984 44 23.1372 44.1254 22.7172C44.2364 22.3454 44.4185 21.9986 44.6616 21.6961C44.9362 21.3545 45.3159 21.0927 46.0752 20.5691L48.7376 18.7333C49.9567 17.8927 50.5662 17.4724 51.073 17.4971C51.5143 17.5186 51.9238 17.7336 52.192 18.0848C52.5 18.488 52.5 19.2284 52.5 20.7091V44.4274C52.5 45.1862 52.5 45.5657 52.3979 45.9119C52.3074 46.2186 52.159 46.505 51.9607 46.7557C51.7367 47.0388 51.4267 47.2576 50.8067 47.6953L46.5227 50.7193C45.7068 51.2952 45.2988 51.5832 44.959 51.5693C44.6632 51.5571 44.3879 51.4145 44.2073 51.1798C44 50.9102 44 50.4109 44 49.4122V24.5208Z" fill="#1E1F2B" stroke="#DFE2F9"/>
<path d="M45.3056 52.0212L42.9961 52.7891L43.1089 52.4913L44.2501 51.3574L45.3056 52.0212Z" fill="#DFE2F9"/>
<path fill-rule="evenodd" clip-rule="evenodd" d="M16.3284 17C15.5931 17 14.8765 17.2315 14.2803 17.6618L7.95654 22.225L43.8264 22.5657L51.25 17H16.3284Z" fill="#DFE2F9"/>
<path d="M7.46283 10.3556L10.7901 13.0918" stroke="#DFE2F9" stroke-linecap="round"/>
<path d="M13.4796 6.99548L14.4943 11.1036" stroke="#DFE2F9" stroke-linecap="round"/>
<path d="M49.2444 32.5695C49.691 33.3877 49.9142 33.7968 50.2416 34.0045C50.5291 34.1869 50.8702 34.2661 51.2086 34.229C51.5941 34.1867 51.9747 33.9178 52.736 33.3799L56.6317 30.6274C57.2494 30.191 57.5582 29.9729 57.7232 29.684C57.8687 29.4294 57.9363 29.1379 57.9179 28.8454C57.8969 28.5133 57.7158 28.1814 57.3535 27.5176L52.6106 18.8269C52.3129 18.2814 52.164 18.0086 51.9458 17.8702C51.7541 17.7486 51.5267 17.6958 51.3011 17.7205C51.0441 17.7487 50.7904 17.928 50.2828 18.2866L45.0716 21.9685C44.6598 22.2594 44.454 22.4049 44.3439 22.5975C44.247 22.7671 44.2019 22.9615 44.2142 23.1565C44.2281 23.3779 44.3489 23.5992 44.5904 24.0417L49.2444 32.5695Z" fill="#1E1F2B" stroke="#DFE2F9"/>
<circle cx="29.25" cy="25.75" r="12.25" fill="url(#paint0_linear_65090_105122)"/>
<path d="M44 25.8795V49C44 49.7083 43.9996 50.2095 43.9676 50.6012C43.9361 50.9872 43.8764 51.2228 43.782 51.408C43.5903 51.7843 43.2843 52.0902 42.908 52.282C42.7228 52.3763 42.4872 52.436 42.1013 52.4676C41.7095 52.4996 41.2083 52.5 40.5 52.5H11.5C10.7917 52.5 10.2905 52.4996 9.89872 52.4676C9.51276 52.436 9.27717 52.3763 9.09202 52.282C8.71569 52.0902 8.40973 51.7843 8.21799 51.408C8.12365 51.2228 8.06393 50.9872 8.0324 50.6012C8.00039 50.2095 8 49.7083 8 49V25.8795C8 25.1712 8.00039 24.67 8.0324 24.2782C8.06393 23.8923 8.12365 23.6567 8.21799 23.4715C8.40973 23.0952 8.71569 22.7893 9.09202 22.5975C9.27717 22.5032 9.51276 22.4435 9.89872 22.4119C10.2905 22.3799 10.7917 22.3795 11.5 22.3795H40.5C41.2083 22.3795 41.7095 22.3799 42.1013 22.4119C42.4872 22.4435 42.7228 22.5032 42.908 22.5975C43.2843 22.7893 43.5903 23.0952 43.782 23.4715C43.8764 23.6567 43.9361 23.8923 43.9676 24.2782C43.9996 24.67 44 25.1712 44 25.8795Z" fill="#1E1F2B" stroke="#DFE2F9"/>
<rect x="11.5" y="48" width="8" height="1" rx="0.5" fill="#DFE2F9"/>
<rect x="11.5" y="45" width="4" height="1" rx="0.5" fill="#DFE2F9"/>
<rect x="20" y="26.4531" width="12" height="3.5" rx="1.75" stroke="#DFE2F9"/>
<path d="M53.7375 11.2979L52.9752 9.93309C52.7973 9.61452 52.3491 9.58767 52.1344 9.88273L51.037 11.3909C50.7861 11.7358 51.0545 12.2164 51.4798 12.1836L53.3394 12.0402C53.7033 12.0122 53.9155 11.6165 53.7375 11.2979Z" fill="#DFE2F9"/>
<path d="M45.4199 4.93542L42.8124 4.31726C42.4573 4.23308 42.1346 4.54528 42.207 4.90293L42.841 8.03675C42.9256 8.45484 43.4612 8.58182 43.7245 8.2462L45.6979 5.73054C45.9231 5.44343 45.7749 5.01959 45.4199 4.93542Z" fill="#DFE2F9"/>
<defs>
<linearGradient id="paint0_linear_65090_105122" x1="56.2383" y1="13.5" x2="25.3142" y2="30.5273" gradientUnits="userSpaceOnUse">
<stop offset="0.28446" stop-color="#4FD9AB"/>
<stop offset="0.678209" stop-color="#437CFC"/>
<stop offset="1" stop-color="#542EF3"/>
</linearGradient>
</defs>
</svg>
