<svg width="60" height="60" viewBox="0 0 60 60" fill="currentColor" xmlns="http://www.w3.org/2000/svg">
  <path
    d="M17.4144 39.8693C17.9134 38.3723 19.3143 37.3626 20.8923 37.3626V37.3626C22.4534 37.3626 23.8433 38.3513 24.3554 39.8261L28.3667 51.3786C29.0435 53.3278 27.596 55.3626 25.5326 55.3626H16.4123C14.3646 55.3626 12.9187 53.3565 13.5662 51.4139L17.4144 39.8693Z"
    fill="white" />
  <path
    d="M23.4107 40.1541L27.422 51.7066C27.8732 53.0061 26.9082 54.3626 25.5326 54.3626H16.4123C15.0472 54.3626 14.0832 53.0252 14.5149 51.7302L18.3631 40.1855C18.726 39.0969 19.7448 38.3626 20.8923 38.3626C22.0276 38.3626 23.0383 39.0816 23.4107 40.1541Z"
    stroke="black" stroke-opacity="0.96" stroke-width="2" />
  <ellipse cx="32.8682" cy="25.155" rx="7.42775" ry="25.1672" transform="rotate(-44.5076 32.8682 25.155)" fill="black"
    fill-opacity="0.96" />
  <path fill-rule="evenodd" clip-rule="evenodd"
    d="M45.8751 14.3626C46.9106 14.3626 47.7501 13.5231 47.7501 12.4876C47.7501 11.4521 46.9106 10.6126 45.8751 10.6126C44.8395 10.6126 44.0001 11.4521 44.0001 12.4876C44.0001 12.831 44.0924 13.1529 44.2536 13.4297C44.2258 13.4459 44.1992 13.4648 44.174 13.4864L26.2697 28.9181C25.332 29.7263 25.2703 31.1578 26.1348 32.0437C27.007 32.9374 28.455 32.9009 29.2811 31.9645L44.918 14.239C44.9454 14.208 44.9685 14.1746 44.9874 14.1396C45.2516 14.2819 45.5539 14.3626 45.8751 14.3626Z"
    fill="url(#paint0_linear_65090_105125)" />
  <mask id="path-5-inside-1_65090_105125" fill="white">
    <path fill-rule="evenodd" clip-rule="evenodd"
      d="M15.5367 7.52312L15.2259 7.20691C6.09351 16.1837 6.58896 31.4965 16.3325 41.409C26.0761 51.3215 41.3781 52.08 50.5105 43.1032L50.1826 42.7696C46.171 43.5755 37.1661 38.1059 28.5711 29.3619C19.9761 20.6179 14.662 11.5203 15.5367 7.52312Z" />
  </mask>
  <path fill-rule="evenodd" clip-rule="evenodd"
    d="M15.5367 7.52312L15.2259 7.20691C6.09351 16.1837 6.58896 31.4965 16.3325 41.409C26.0761 51.3215 41.3781 52.08 50.5105 43.1032L50.1826 42.7696C46.171 43.5755 37.1661 38.1059 28.5711 29.3619C19.9761 20.6179 14.662 11.5203 15.5367 7.52312Z"
    fill="white" />
  <path
    d="M15.5367 7.52312L16.5136 7.73689L16.6293 7.20813L16.2499 6.82211L15.5367 7.52312ZM15.2259 7.20691L15.9391 6.5059L15.2381 5.79275L14.5249 6.49375L15.2259 7.20691ZM16.3325 41.409L17.0457 40.708L17.0457 40.708L16.3325 41.409ZM50.5105 43.1032L51.2115 43.8164L51.9247 43.1154L51.2237 42.4022L50.5105 43.1032ZM50.1826 42.7696L50.8958 42.0686L50.5164 41.6826L49.9857 41.7892L50.1826 42.7696ZM28.5711 29.3619L27.8579 30.0629L28.5711 29.3619ZM16.2499 6.82211L15.9391 6.5059L14.5128 7.90791L14.8236 8.22412L16.2499 6.82211ZM14.5249 6.49375C4.94473 15.9107 5.54385 31.8598 15.6194 42.11L17.0457 40.708C7.63406 31.1332 7.24229 16.4567 15.9269 7.92007L14.5249 6.49375ZM15.6194 42.11C25.6949 52.3602 41.6314 53.2333 51.2115 43.8164L49.8095 42.39C41.1249 50.9267 26.4573 50.2828 17.0457 40.708L15.6194 42.11ZM51.2237 42.4022L50.8958 42.0686L49.4695 43.4706L49.7974 43.8042L51.2237 42.4022ZM49.9857 41.7892C49.2399 41.939 48.1263 41.8126 46.6503 41.2997C45.1972 40.7947 43.4941 39.9511 41.6204 38.7958C37.8752 36.4866 33.5372 32.9877 29.2842 28.6609L27.8579 30.0629C32.1999 34.4802 36.6619 38.0881 40.5708 40.4982C42.5241 41.7026 44.3616 42.6217 45.9938 43.1889C47.6032 43.7481 49.1196 44.0032 50.3796 43.75L49.9857 41.7892ZM29.2842 28.6609C25.0312 24.3342 21.6074 19.9367 19.3629 16.1524C18.2399 14.2591 17.4257 12.5417 16.9458 11.0802C16.4583 9.59563 16.351 8.48 16.5136 7.73689L14.5599 7.30934C14.2851 8.56484 14.5141 10.0854 15.0456 11.7041C15.5846 13.3458 16.472 15.1989 17.6427 17.1726C19.9852 21.1223 23.5159 25.6457 27.8579 30.0629L29.2842 28.6609Z"
    fill="black" fill-opacity="0.96" mask="url(#path-5-inside-1_65090_105125)" />
  <path
    d="M16.6644 40.6193C17.1634 39.1223 18.5643 38.1126 20.1423 38.1126V38.1126C21.7034 38.1126 23.0933 39.1013 23.6054 40.5761L27.6167 52.1286C28.2935 54.0778 26.846 56.1126 24.7826 56.1126H15.6623C13.6146 56.1126 12.1687 54.1065 12.8162 52.1639L16.6644 40.6193Z"
    fill="white" />
  <path
    d="M23.133 40.7401L27.1443 52.2926C27.7083 53.917 26.5021 55.6126 24.7826 55.6126H15.6623C13.9559 55.6126 12.751 53.9409 13.2906 52.322L17.1388 40.7774C17.5697 39.4846 18.7795 38.6126 20.1423 38.6126C21.4905 38.6126 22.6908 39.4664 23.133 40.7401Z"
    stroke="black" stroke-opacity="0.96" fill="#fff" />
  <circle cx="20.2002" cy="42.1126" r="2" fill="white" />
  <circle cx="20.2002" cy="42.1126" r="1.5" stroke="black" stroke-opacity="0.96" />
  <path d="M27.7749 54.3577L26.7749 55.3577L27.0249 54.6077L27.7749 54.3577Z" fill="black" fill-opacity="0.96" />
  <path d="M17 52.6126H23.5" stroke="black" stroke-opacity="0.96" stroke-linecap="round" />
  <path d="M18.5 49.6126L22 49.6126" stroke="black" stroke-opacity="0.96" stroke-linecap="round" />
  <path
    d="M49.6499 12.4626C49.6499 14.5337 47.971 16.2126 45.8999 16.2126M42.1499 12.4626C42.1499 10.3916 43.8288 8.71265 45.8999 8.71265"
    stroke="black" stroke-opacity="0.96" stroke-linecap="round" />
  <path
    d="M52.1499 12.4626C52.1499 15.9144 49.3517 18.7126 45.8999 18.7126M39.6499 12.4626C39.6499 9.01087 42.4481 6.21265 45.8999 6.21265"
    stroke="black" stroke-opacity="0.96" stroke-linecap="round" />
  <defs>
    <linearGradient id="paint0_linear_65090_105125" x1="52.6762" y1="29.1933" x2="29.1154" y2="37.3905"
      gradientUnits="userSpaceOnUse">
      <stop stop-color="#8CD5B4" />
      <stop offset="0.26451" stop-color="#80A7FF" />
      <stop offset="1" stop-color="#6128FF" />
    </linearGradient>
  </defs>
</svg>