<svg width="60" height="60" viewBox="0 0 60 60" fill="none" xmlns="http://www.w3.org/2000/svg">
<path fill-rule="evenodd" clip-rule="evenodd" d="M12.8577 10.5914C12.5 11.3206 12.5 12.2568 12.5 14.1292V48.2284L47.5365 53.1082C48.793 53.2832 49.4213 53.3707 49.9093 53.1789C50.3376 53.0106 50.6949 52.6997 50.9207 52.2986C51.1779 51.8418 51.1779 51.2074 51.1779 49.9387V11.0544C51.1779 9.58898 51.1779 8.85625 50.8879 8.30789C50.633 7.82588 50.2275 7.44042 49.7333 7.21024C49.1709 6.94837 48.4391 6.98544 46.9756 7.05956L17.8167 8.53635C15.9468 8.63106 15.0118 8.67841 14.3016 9.07255C13.6765 9.41949 13.1726 9.94954 12.8577 10.5914Z" fill="#DFE2F9"/>
<path d="M17.5177 13.3433C17.5183 12.1781 17.5186 11.5955 17.7489 11.1584C17.9513 10.7741 18.2734 10.4662 18.6663 10.2811C19.1133 10.0707 19.6954 10.0964 20.8594 10.148L44.4417 11.1933C45.5167 11.241 46.0542 11.2648 46.4628 11.4892C46.8224 11.6867 47.1125 11.99 47.2939 12.358C47.5 12.7761 47.5 13.3141 47.5 14.3902V49.317C47.5 50.5876 47.5 51.223 47.2423 51.6802C47.016 52.0816 46.6582 52.3925 46.2291 52.5605C45.7404 52.7518 45.1113 52.6631 43.8531 52.4856L20.2545 49.1573C19.278 49.0196 18.7898 48.9507 18.4225 48.7156C18.0989 48.5084 17.8418 48.2123 17.682 47.8629C17.5007 47.4663 17.5009 46.9732 17.5014 45.987L17.5177 13.3433Z" fill="url(#paint0_linear_65090_105128)"/>
<path d="M49 19.2332V51.3226C49 52.1369 48.9996 52.7156 48.9609 53.1638C48.9226 53.6072 48.85 53.8697 48.7376 54.0669C48.5074 54.4709 48.1435 54.7821 47.7086 54.9469C47.4964 55.0273 47.2258 55.0582 46.7818 55.0272C46.3331 54.9959 45.7613 54.9065 44.9568 54.7802L15.9568 50.2244C15.3496 50.129 14.9216 50.0615 14.5882 49.9828C14.2608 49.9056 14.0607 49.8253 13.9034 49.7222C13.5857 49.5139 13.334 49.2194 13.1775 48.8733C13.1 48.7019 13.0518 48.4918 13.0263 48.1564C13.0003 47.8148 13 47.3815 13 46.7668V14.6774C13 13.8631 13.0004 13.2844 13.0391 12.8362C13.0774 12.3928 13.15 12.1303 13.2624 11.9331C13.4926 11.5291 13.8565 11.2179 14.2914 11.0531C14.5036 10.9727 14.7742 10.9418 15.2182 10.9728C15.6669 11.0041 16.2387 11.0935 17.0432 11.2198L46.0432 15.7756C46.6504 15.871 47.0784 15.9385 47.4118 16.0172C47.7392 16.0944 47.9393 16.1747 48.0966 16.2778C48.4142 16.4861 48.666 16.7806 48.8225 17.1267C48.9 17.2981 48.9482 17.5082 48.9737 17.8436C48.9997 18.1852 49 18.6185 49 19.2332Z" fill="#1E1F2B" stroke="#DFE2F9"/>
<path d="M13 35.5V35H12.5H12C10.067 35 8.5 36.567 8.5 38.5C8.5 40.433 10.067 42 12 42H14.25C14.9404 42 15.5 41.4404 15.5 40.75C15.5 40.0596 14.9404 39.5 14.25 39.5H12C11.4477 39.5 11 39.0523 11 38.5C11 37.9477 11.4477 37.5 12 37.5H12.5H13V37V35.5Z" fill="#1E1F2B" stroke="#DFE2F9"/>
<path d="M13 21V20.5H12.5H12C10.067 20.5 8.5 22.067 8.5 24C8.5 25.933 10.067 27.5 12 27.5H14.25C14.9404 27.5 15.5 26.9404 15.5 26.25C15.5 25.5596 14.9404 25 14.25 25H12C11.4477 25 11 24.5523 11 24C11 23.4477 11.4477 23 12 23H12.5H13V22.5V21Z" fill="#1E1F2B" stroke="#DFE2F9"/>
<path d="M20.5 20.5L40.75 23.75" stroke="#DFE2F9" stroke-linecap="round"/>
<path d="M20.5 28L40.75 31.25" stroke="#DFE2F9" stroke-linecap="round"/>
<path d="M20.5 35.5L28.9803 36.8673" stroke="#DFE2F9" stroke-linecap="round"/>
<path d="M7.64046 5.26995C7.75603 5.02232 7.81382 4.8985 7.89337 4.85971C7.96252 4.826 8.04334 4.826 8.11249 4.85971C8.19204 4.8985 8.24983 5.02232 8.3654 5.26995L8.50153 5.56164C8.72932 6.04972 8.84321 6.29376 9.00123 6.50339C9.1414 6.68935 9.30686 6.85482 9.49282 6.99499C9.70246 7.153 9.9465 7.2669 10.4346 7.49468L10.7263 7.63082C10.9739 7.74639 11.0977 7.80417 11.1365 7.88372C11.1702 7.95287 11.1702 8.0337 11.1365 8.10285C11.0977 8.1824 10.9739 8.24019 10.7263 8.35575L10.4346 8.49189C9.9465 8.71968 9.70246 8.83357 9.49282 8.99158C9.30686 9.13175 9.1414 9.29722 9.00123 9.48318C8.84321 9.69281 8.72932 9.93685 8.50153 10.4249L8.3654 10.7166C8.24983 10.9643 8.19204 11.0881 8.11249 11.1269C8.04334 11.1606 7.96252 11.1606 7.89337 11.1269C7.81382 11.0881 7.75603 10.9643 7.64046 10.7166L7.50433 10.4249C7.27654 9.93685 7.16265 9.69281 7.00463 9.48318C6.86446 9.29722 6.699 9.13175 6.51304 8.99158C6.3034 8.83357 6.05936 8.71968 5.57129 8.49189L5.27959 8.35575C5.03196 8.24019 4.90814 8.1824 4.86936 8.10285C4.83564 8.0337 4.83564 7.95287 4.86936 7.88372C4.90814 7.80417 5.03196 7.74639 5.27959 7.63082L5.57129 7.49468C6.05936 7.2669 6.3034 7.153 6.51304 6.99499C6.699 6.85482 6.86446 6.68935 7.00463 6.50339C7.16265 6.29376 7.27654 6.04972 7.50433 5.56164L7.64046 5.26995Z" fill="#DFE2F9"/>
<path d="M15.6956 3.87418C15.7847 3.68327 15.8293 3.58782 15.8846 3.54935C15.9704 3.48967 16.0843 3.48967 16.1701 3.54935C16.2254 3.58782 16.2699 3.68327 16.359 3.87418V3.87418C16.4295 4.02514 16.4647 4.10062 16.5104 4.16764C16.5808 4.27086 16.6699 4.35997 16.7732 4.43037C16.8402 4.47607 16.9157 4.5113 17.0666 4.58175V4.58175C17.2575 4.67085 17.353 4.7154 17.3914 4.77071C17.4511 4.85651 17.4511 4.97039 17.3914 5.0562C17.353 5.1115 17.2575 5.15605 17.0666 5.24515V5.24515C16.9157 5.3156 16.8402 5.35083 16.7732 5.39653C16.6699 5.46693 16.5808 5.55605 16.5104 5.65927C16.4647 5.72628 16.4295 5.80176 16.359 5.95272V5.95272C16.2699 6.14363 16.2254 6.23909 16.1701 6.27755C16.0843 6.33723 15.9704 6.33723 15.8846 6.27755C15.8293 6.23909 15.7847 6.14363 15.6956 5.95272V5.95272C15.6252 5.80176 15.59 5.72628 15.5443 5.65927C15.4739 5.55605 15.3848 5.46693 15.2815 5.39653C15.2145 5.35083 15.139 5.3156 14.9881 5.24515V5.24515C14.7972 5.15605 14.7017 5.1115 14.6632 5.0562C14.6036 4.97039 14.6036 4.85651 14.6632 4.77071C14.7017 4.7154 14.7972 4.67085 14.9881 4.58175V4.58175C15.139 4.5113 15.2145 4.47607 15.2815 4.43037C15.3848 4.35997 15.4739 4.27086 15.5443 4.16764C15.59 4.10062 15.6252 4.02514 15.6956 3.87418V3.87418Z" fill="#DFE2F9"/>
<defs>
<linearGradient id="paint0_linear_65090_105128" x1="65.5469" y1="10" x2="22.5462" y2="26.5188" gradientUnits="userSpaceOnUse">
<stop offset="0.28446" stop-color="#4FD9AB"/>
<stop offset="0.678209" stop-color="#437CFC"/>
<stop offset="1" stop-color="#542EF3"/>
</linearGradient>
</defs>
</svg>
