<svg width="60" height="60" viewBox="0 0 60 60" fill="none" xmlns="http://www.w3.org/2000/svg">
<path d="M14.5001 27.25C11.339 29.4747 8 31.5 7.5 32.5L15.2501 31.5L14.5001 27.25Z" fill="#DFE2F9"/>
<path fill-rule="evenodd" clip-rule="evenodd" d="M39.854 12.683C39.6365 12.9986 39.5413 13.4067 39.351 14.223L39.0923 15.3322C38.9019 16.1484 38.8067 16.5566 38.5892 16.8722C38.3972 17.1509 38.1383 17.377 37.8363 17.5297C37.4943 17.7028 37.077 17.7421 36.2426 17.8209L21.5863 19.2036C19.6112 19.3899 18.6237 19.4831 17.9056 19.9386C17.274 20.3393 16.7854 20.9297 16.5099 21.6252C16.1967 22.4158 16.2898 23.4033 16.4762 25.3783L18.4959 46.7866C18.6823 48.7617 18.7754 49.7492 19.231 50.4673C19.6317 51.0989 20.222 51.5875 20.9175 51.863C21.7081 52.1762 22.6956 52.0831 24.6707 51.8967L53.244 49.201C55.219 49.0147 56.2065 48.9215 56.9246 48.466C57.5563 48.0653 58.0449 47.4749 58.3204 46.7794C58.6336 45.9888 58.5404 45.0013 58.3541 43.0263L56.5591 24.0001C56.5503 23.9055 56.541 23.8065 56.5312 23.7027L55.5898 13.7241C55.4833 12.5955 55.43 12.0312 55.1697 11.6209C54.9408 11.2599 54.6034 10.9807 54.206 10.8233C53.7542 10.6443 53.1899 10.6976 52.0613 10.804L42.2007 11.7343C41.3662 11.8131 40.949 11.8524 40.607 12.0254C40.3049 12.1782 40.0461 12.4043 39.854 12.683Z" fill="#DFE2F9"/>
<rect x="18.376" y="24.2227" width="34.221" height="24.343" rx="2" transform="rotate(-6.07156 18.376 24.2227)" fill="url(#paint0_linear_65090_105124)"/>
<path d="M12.1754 31.3268L46.4983 27.6836C47.2267 27.6063 47.7454 27.5516 48.1591 27.5389C48.5666 27.5264 48.8357 27.5567 49.0658 27.6312C49.5169 27.7774 49.918 28.0474 50.2231 28.4105C50.3786 28.5956 50.5079 28.8336 50.6496 29.2158C50.7935 29.604 50.9378 30.1051 51.1402 30.8091L55.1712 44.8355C55.4513 45.8101 55.6519 46.5098 55.7605 47.0653C55.8681 47.6164 55.8731 47.9714 55.7994 48.2638C55.6529 48.8444 55.3053 49.3542 54.8183 49.7026C54.5731 49.878 54.2408 50.0031 53.6884 50.1041C53.1317 50.206 52.4071 50.2748 51.3975 50.3701L18.4207 53.4813C17.0768 53.608 16.5474 53.6489 16.0972 53.5138C15.6795 53.3884 15.3013 53.1571 14.9993 52.8425C14.6738 52.5034 14.4689 52.0135 13.9692 50.7596L8.59204 37.2652C8.18571 36.2455 7.89383 35.5118 7.71903 34.9268C7.54519 34.3451 7.5064 33.9691 7.56106 33.6582C7.67006 33.0384 8.00612 32.4815 8.50364 32.0962C8.75317 31.9029 9.10389 31.7619 9.6996 31.6446C10.2986 31.5265 11.0838 31.4427 12.1754 31.3268Z" fill="#1E1F2B" stroke="#DFE2F9" stroke-width="1.01205"/>
<rect width="1.16716" height="0.5" transform="matrix(-0.721499 -0.692416 -0.692416 0.721499 4.22363 49.7497)" fill="#DFE2F9"/>
<mask id="path-6-inside-1_65090_105124" fill="white">
<path d="M16.2456 35.3106L12.1245 32.4792L2.7486 46.1257C1.96673 47.2637 2.25543 48.8201 3.39343 49.602V49.602C4.53143 50.3838 6.08779 50.0951 6.86966 48.9571L16.2456 35.3106Z"/>
</mask>
<path d="M16.2456 35.3106L12.1245 32.4792L2.7486 46.1257C1.96673 47.2637 2.25543 48.8201 3.39343 49.602V49.602C4.53143 50.3838 6.08779 50.0951 6.86966 48.9571L16.2456 35.3106Z" fill="#1E1F2B"/>
<path d="M16.2456 35.3106L12.1245 32.4792L16.2456 35.3106ZM1.10018 44.9932C-0.307191 47.0416 0.21247 49.843 2.26087 51.2504L2.26087 51.2504C4.30927 52.6578 7.11072 52.1381 8.51809 50.0897L5.22124 47.8246C5.06486 48.0522 4.75359 48.1099 4.52599 47.9535C4.29839 47.7972 4.24065 47.4859 4.39703 47.2583L1.10018 44.9932ZM2.26087 51.2504C4.30927 52.6578 7.11072 52.1381 8.51809 50.0897L17.894 36.4432L14.5972 34.178L5.22124 47.8246C5.06486 48.0522 4.75359 48.1099 4.52599 47.9535L2.26087 51.2504ZM10.4761 31.3466L1.10018 44.9932C-0.307191 47.0416 0.21247 49.843 2.26087 51.2504L4.52599 47.9535C4.29839 47.7972 4.24065 47.4859 4.39703 47.2583L13.773 33.6118L10.4761 31.3466Z" fill="#DFE2F9" mask="url(#path-6-inside-1_65090_105124)"/>
<mask id="path-8-inside-2_65090_105124" fill="white">
<path d="M17.0947 35.9239L12.9737 33.0925L3.51602 46.8579C2.73415 47.9959 3.02285 49.5523 4.16085 50.3342V50.3342C5.29885 51.116 6.85521 50.8273 7.63709 49.6893L17.0947 35.9239Z"/>
</mask>
<path d="M17.0947 35.9239L12.9737 33.0925L3.51602 46.8579C2.73415 47.9959 3.02285 49.5523 4.16085 50.3342V50.3342C5.29885 51.116 6.85521 50.8273 7.63709 49.6893L17.0947 35.9239Z" fill="#1E1F2B"/>
<path d="M17.0947 35.9239L12.9737 33.0925L17.0947 35.9239ZM2.69181 46.2917C1.59719 47.8849 2.00137 50.0638 3.59457 51.1584L3.59457 51.1584C5.18777 52.253 7.36668 51.8488 8.4613 50.2556L6.81287 49.1231C6.34375 49.8059 5.40993 49.9791 4.72713 49.51L4.72713 49.51C4.04433 49.0408 3.87111 48.107 4.34024 47.4242L2.69181 46.2917ZM3.59457 51.1584C5.18777 52.253 7.36668 51.8488 8.4613 50.2556L17.9189 36.4902L16.2705 35.3576L6.81287 49.1231C6.34375 49.8059 5.40993 49.9791 4.72713 49.51L3.59457 51.1584ZM12.1495 32.5262L2.69181 46.2917C1.59719 47.8849 2.00137 50.0638 3.59457 51.1584L4.72713 49.51C4.04433 49.0408 3.87111 48.107 4.34024 47.4242L13.7979 33.6588L12.1495 32.5262Z" fill="#DFE2F9" mask="url(#path-8-inside-2_65090_105124)"/>
<circle cx="13" cy="13" r="12" transform="matrix(-0.999789 0.0205648 0.0205648 0.999789 34.2983 10.5141)" fill="#1E1F2B" stroke="#DFE2F9" stroke-width="2"/>
<circle cx="13" cy="13" r="12.5" transform="matrix(-0.999789 0.0205648 0.0205648 0.999789 35.0728 11.2574)" fill="#1E1F2B" stroke="#DFE2F9"/>
<mask id="mask0_65090_105124" style="mask-type:alpha" maskUnits="userSpaceOnUse" x="11" y="13" width="23" height="23">
<circle cx="11.25" cy="11.25" r="10.75" transform="matrix(-0.999789 0.0205648 0.0205648 0.999789 33.355 13.0189)" fill="#1E1F2B" stroke="white"/>
</mask>
<g mask="url(#mask0_65090_105124)">
<path d="M46.2983 22.5822C46.0014 20.1508 45.8529 18.9351 45.2702 18.0521C44.7574 17.2751 44.0163 16.6762 43.1489 16.3381C42.1632 15.9538 40.9434 16.064 38.5039 16.2843L19.8151 17.9721C17.2932 18.1998 16.0322 18.3137 15.1153 18.8922C14.3089 19.401 13.685 20.1529 13.3335 21.0393C12.9339 22.0471 13.0544 23.3074 13.2954 25.8282L15.0328 43.9987C15.2827 46.6126 15.4077 47.9196 16.0178 48.8503C16.5541 49.6685 17.3425 50.2897 18.2635 50.6197C19.3112 50.9951 20.6111 50.8107 23.2109 50.4421L42.2578 47.7414C44.7099 47.3938 45.9359 47.2199 46.8124 46.6121C47.5836 46.0774 48.1683 45.315 48.4847 44.4315C48.8443 43.4274 48.6942 42.1982 48.3939 39.7398L46.2983 22.5822Z" fill="#DFE2F9"/>
<path d="M13.105 23.5C13.25 27 13.25 27 9.5 29.25L17.2501 28.25L13.105 23.5Z" fill="#DFE2F9"/>
<path d="M16.8639 25.6469C16.7478 24.5376 16.6897 23.9829 16.8608 23.5358C17.0114 23.1426 17.2822 22.8068 17.6347 22.5765C18.0354 22.3146 18.5898 22.254 19.6986 22.1327L45.1617 19.3479C46.2752 19.2261 46.8319 19.1653 47.2809 19.3354C47.6758 19.4851 48.0132 19.756 48.2448 20.1093C48.508 20.5109 48.5689 21.0676 48.6906 22.1811L49.469 29.2977C49.5887 30.3925 49.6486 30.94 49.483 31.3844C49.3373 31.7754 49.0729 32.111 48.7269 32.3443C48.3337 32.6094 47.7875 32.6795 46.695 32.8196L21.2487 36.0833C20.1141 36.2289 19.5468 36.3016 19.0889 36.1342C18.6863 35.9869 18.3416 35.7141 18.1058 35.3561C17.8376 34.949 17.778 34.3801 17.659 33.2425L16.8639 25.6469Z" fill="url(#paint1_linear_65090_105124)"/>
<path d="M14.3763 28.9193L34.0948 26.8043C35.409 26.6634 35.927 26.617 36.3644 26.7482C36.7702 26.8699 37.1362 27.0977 37.4245 27.4082C37.7352 27.7428 37.9222 28.2281 38.3757 29.4696L41.1552 37.0792C41.4998 38.0228 41.7471 38.7012 41.892 39.2415C42.036 39.7784 42.0629 40.1253 42.0065 40.4121C41.8943 40.9832 41.5767 41.4933 41.1138 41.846C40.8813 42.0232 40.5581 42.1521 40.0128 42.2598C39.464 42.3683 38.7461 42.4457 37.7473 42.5528L18.0525 44.6652C16.742 44.8058 16.2254 44.8521 15.7888 44.7216C15.3837 44.6005 15.0183 44.3737 14.73 44.0645C14.4193 43.7312 14.2315 43.2477 13.7757 42.011L10.9724 34.4039C10.6242 33.4589 10.3743 32.7794 10.2275 32.2381C10.0816 31.7003 10.0538 31.3528 10.1097 31.0654C10.2209 30.4932 10.5384 29.9817 11.0017 29.6281C11.2344 29.4504 11.5582 29.3211 12.1049 29.2131C12.655 29.1043 13.3749 29.0267 14.3763 28.9193Z" fill="#1E1F2B" stroke="#DFE2F9" stroke-width="0.951807"/>
</g>
<path d="M11.0001 6.14188L13.6098 9.98854" stroke="#DFE2F9" stroke-linecap="round"/>
<path d="M7.78519 10.9922L10.7002 12.8015" stroke="#DFE2F9" stroke-linecap="round"/>
<path d="M16.587 6.25928L16.9535 8.948" stroke="#DFE2F9" stroke-linecap="round"/>
<circle cx="46.75" cy="33.25" r="2.25" fill="#1E1F2B" stroke="#DFE2F9"/>
<path d="M55.26 50L57.51 48H56L55 49.25L55.26 50Z" fill="#DFE2F9"/>
<path d="M51.25 25.5C50.25 26.5 48.25 27 46 27.25L50.5 28L51.25 25.5Z" fill="#DFE2F9"/>
<path d="M51.2985 26.1248L54.3888 23.4923C55.0037 22.9685 55.9537 23.3521 56.0325 24.156L58.1601 45.8579C58.2039 46.3047 58.0454 46.7475 57.728 47.0649L57.443 47.3499C56.9048 47.8881 55.9865 47.6516 55.7752 46.9203L50.5178 28.7218C50.2452 27.7779 50.5506 26.7619 51.2985 26.1248Z" fill="#1E1F2B" stroke="#DFE2F9"/>
<defs>
<linearGradient id="paint0_linear_65090_105124" x1="73.183" y1="24.2227" x2="37.9835" y2="51.4688" gradientUnits="userSpaceOnUse">
<stop offset="0.28446" stop-color="#4FD9AB"/>
<stop offset="0.678209" stop-color="#437CFC"/>
<stop offset="1" stop-color="#542EF3"/>
</linearGradient>
<linearGradient id="paint1_linear_65090_105124" x1="67.5178" y1="16.9029" x2="49.9009" y2="44.7008" gradientUnits="userSpaceOnUse">
<stop offset="0.28446" stop-color="#4FD9AB"/>
<stop offset="0.678209" stop-color="#437CFC"/>
<stop offset="1" stop-color="#542EF3"/>
</linearGradient>
</defs>
</svg>
