<svg
  width="60"
  height="60"
  viewBox="0 0 60 60"
  fill="currentColor"
  xmlns="http://www.w3.org/2000/svg"
>
  <path
    d="M9 8.5C7.61929 8.5 6.5 9.61929 6.5 11C6.5 12.3807 7.61929 13.5 9 13.5H9.1C10.4807 13.5 11.6 12.3807 11.6 11C11.6 9.61929 10.4807 8.5 9.1 8.5H9Z"
  />
  <path
    d="M17 8.75C15.7574 8.75 14.75 9.75736 14.75 11C14.75 12.2426 15.7574 13.25 17 13.25H51C52.2426 13.25 53.25 12.2426 53.25 11C53.25 9.75736 52.2426 8.75 51 8.75H17Z"
  />
  <path
    d="M6.5 49C6.5 47.6193 7.61929 46.5 9 46.5H9.1C10.4807 46.5 11.6 47.6193 11.6 49C11.6 50.3807 10.4807 51.5 9.1 51.5H9C7.61929 51.5 6.5 50.3807 6.5 49Z"
  />
  <path
    d="M9 27.5C7.61929 27.5 6.5 28.6193 6.5 30C6.5 31.3807 7.61929 32.5 9 32.5H9.1C10.4807 32.5 11.6 31.3807 11.6 30C11.6 28.6193 10.4807 27.5 9.1 27.5H9Z"
  />
  <path
    d="M14.75 30C14.75 28.7574 15.7574 27.75 17 27.75L43 27.75C44.2426 27.75 45.25 28.7574 45.25 30C45.25 31.2426 44.2426 32.25 43 32.25L17 32.25C15.7574 32.25 14.75 31.2426 14.75 30Z"
  />
  <path
    d="M17 46.75C15.7574 46.75 14.75 47.7574 14.75 49C14.75 50.2426 15.7574 51.25 17 51.25H51C52.2426 51.25 53.25 50.2426 53.25 49C53.25 47.7574 52.2426 46.75 51 46.75H17Z"
  />
</svg>
