<svg
  width="60"
  height="60"
  viewBox="0 0 60 60"
  fill="currentColor"
  xmlns="http://www.w3.org/2000/svg"
>
  <path
    fill-rule="evenodd"
    clip-rule="evenodd"
    d="M19.8755 2.75001L20 2.75002H39.2L39.295 2.75002C41.4546 2.75 43.2116 2.74998 44.6376 2.86649C46.1108 2.98685 47.4277 3.24268 48.6534 3.86721C50.5821 4.84991 52.1501 6.41796 53.1328 8.34662C53.7573 9.57232 54.0132 10.8893 54.1335 12.3624C54.25 13.7884 54.25 15.5454 54.25 17.705V17.8V42.2V42.2951C54.25 44.4546 54.25 46.2116 54.1335 47.6376C54.0132 49.1108 53.7573 50.4277 53.1328 51.6534C52.1501 53.5821 50.5821 55.1501 48.6534 56.1328C47.4277 56.7574 46.1108 57.0132 44.6376 57.1336C43.2116 57.2501 41.4546 57.25 39.2951 57.25H39.2H20L19.8754 57.25C19.0674 57.2502 18.4986 57.2502 17.9953 57.2007C13.1289 56.7214 9.27866 52.8712 8.79936 48.0047C8.74978 47.5013 8.74986 46.9329 8.74999 46.1246L8.75 46C8.75 44.7574 9.75736 43.75 11 43.75C12.2426 43.75 13.25 44.7574 13.25 46C13.25 46.9822 13.2527 47.3102 13.2777 47.5636C13.5466 50.2936 15.7064 52.4535 18.4364 52.7223C18.6898 52.7473 19.0178 52.75 20 52.75H39.2C41.4773 52.75 43.05 52.7483 44.2712 52.6485C45.466 52.5509 46.1249 52.3707 46.6104 52.1233C47.6924 51.572 48.572 50.6924 49.1233 49.6105C49.3707 49.1249 49.5509 48.4661 49.6485 47.2712C49.7482 46.05 49.75 44.4774 49.75 42.2V17.8C49.75 15.5227 49.7482 13.95 49.6485 12.7289C49.5509 11.534 49.3707 10.8752 49.1233 10.3896C48.572 9.30765 47.6924 8.42801 46.6104 7.87674C46.1249 7.62931 45.466 7.44917 44.2712 7.35155C43.05 7.25177 41.4773 7.25002 39.2 7.25002H20C19.0178 7.25002 18.6898 7.25276 18.4364 7.27771C15.7064 7.54659 13.5466 9.70646 13.2777 12.4364C13.2527 12.6898 13.25 13.0178 13.25 14C13.25 15.2427 12.2426 16.25 11 16.25C9.75736 16.25 8.75 15.2427 8.75 14L8.74999 13.8755C8.74986 13.0673 8.74978 12.4987 8.79936 11.9953C9.27866 7.12888 13.1289 3.27869 17.9953 2.79938C18.4987 2.7498 19.0672 2.74989 19.8755 2.75001ZM13.25 28V32C13.25 33.2427 12.2426 34.25 11 34.25C9.75736 34.25 8.75 33.2427 8.75 32V28C8.75 26.7574 9.75736 25.75 11 25.75C12.2426 25.75 13.25 26.7574 13.25 28ZM3.75 21C3.75 19.7574 4.75736 18.75 6 18.75H16C17.2426 18.75 18.25 19.7574 18.25 21C18.25 22.2427 17.2426 23.25 16 23.25H6C4.75736 23.25 3.75 22.2427 3.75 21ZM6 36.75C4.75736 36.75 3.75 37.7574 3.75 39C3.75 40.2427 4.75736 41.25 6 41.25H16C17.2426 41.25 18.25 40.2427 18.25 39C18.25 37.7574 17.2426 36.75 16 36.75H6Z"
  />
</svg>
