<svg
  width="60"
  height="60"
  viewBox="0 0 60 60"
  fill="currentColor"
  xmlns="http://www.w3.org/2000/svg"
>
  <path
    d="M15.75 28C15.75 26.7574 16.7574 25.75 18 25.75H36C37.2426 25.75 38.25 26.7574 38.25 28C38.25 29.2426 37.2426 30.25 36 30.25H18C16.7574 30.25 15.75 29.2426 15.75 28Z"
  />
  <path
    d="M14 39.75C12.7574 39.75 11.75 40.7574 11.75 42C11.75 43.2426 12.7574 44.25 14 44.25H32C33.2426 44.25 34.25 43.2426 34.25 42C34.25 40.7574 33.2426 39.75 32 39.75H14Z"
  />
  <path
    fill-rule="evenodd"
    clip-rule="evenodd"
    d="M20 2.75C21.2426 2.75 22.25 3.75736 22.25 5V7.74996H37.75V5C37.75 3.75736 38.7574 2.75 40 2.75C41.2426 2.75 42.25 3.75736 42.25 5V7.7658C43.0627 7.78825 43.7457 7.84203 44.3846 7.97041C48.2793 8.75298 51.4726 11.5316 52.7859 15.2808C53.1572 16.3408 53.3272 17.5613 53.5756 19.3449L55.9556 36.4015C56.338 39.1423 56.6451 41.3426 56.7397 43.1279C56.8366 44.9575 56.7288 46.583 56.1284 48.1121C55.1819 50.5223 53.4329 52.5323 51.1766 53.8027C49.7452 54.6088 48.1502 54.9402 46.3247 55.097C44.5435 55.25 42.3219 55.25 39.5546 55.25H15.9998V55.2161C15.1519 55.194 14.3792 55.1575 13.6753 55.097C11.8498 54.9402 10.2548 54.6088 8.82342 53.8027C6.5671 52.5323 4.81813 50.5223 3.87165 48.1121C3.27119 46.583 3.16338 44.9575 3.26034 43.1279C3.35494 41.3426 3.66198 39.1423 4.04445 36.4015L6.42439 19.3449C6.67281 17.5613 6.84281 16.3408 7.21411 15.2808C8.5274 11.5316 11.7207 8.75298 15.6154 7.97041C16.2543 7.84203 16.9373 7.78825 17.75 7.7658V5C17.75 3.75736 18.7574 2.75 20 2.75ZM20.549 50.75H31.47C33.7252 50.75 35.2903 50.7484 36.518 50.6543C37.7177 50.5623 38.4252 50.3909 38.9805 50.1365C40.1604 49.5959 41.1594 48.7266 41.8579 47.6327C42.1866 47.1179 42.4541 46.4408 42.711 45.2654C42.9739 44.0625 43.1917 42.5126 43.5034 40.279L46.3898 19.5931C46.8214 16.4999 44.9938 13.6717 42.25 12.6518V17.5C42.25 18.7426 41.2426 19.75 40 19.75C38.7574 19.75 37.75 18.7426 37.75 17.5V12.25H22.25V17.5C22.25 18.7426 21.2426 19.75 20 19.75C18.7574 19.75 17.75 18.7426 17.75 17.5V12.2681C17.1741 12.2854 16.8183 12.3186 16.5018 12.3822C14.165 12.8518 12.2491 14.5189 11.4611 16.7685C11.2574 17.3499 11.1433 18.0888 10.8466 20.2149L8.51557 36.9209C8.11552 39.7879 7.8372 41.7966 7.75403 43.366C7.67204 44.9133 7.79821 45.7999 8.06026 46.4672C8.62815 47.9134 9.67753 49.1193 11.0313 49.8816C11.656 50.2334 12.5167 50.4809 14.0604 50.6135C15.6263 50.748 17.6542 50.75 20.549 50.75ZM50 26.2825L47.948 40.9885C47.6515 43.1136 47.4113 44.8349 47.1073 46.2262C46.793 47.6641 46.3787 48.9144 45.6506 50.0546C45.5177 50.2626 45.3784 50.4658 45.2328 50.6638C45.4788 50.6495 45.714 50.6329 45.9396 50.6135C47.4833 50.4809 48.344 50.2334 48.9687 49.8816C50.3225 49.1193 51.3718 47.9134 51.9397 46.4672C52.2018 45.7999 52.328 44.9133 52.246 43.366C52.1628 41.7966 51.8845 39.7879 51.4844 36.9209L50 26.2825Z"
  />
</svg>
