<svg
  width="60"
  height="60"
  viewBox="0 0 60 60"
  fill="currentColor"
  xmlns="http://www.w3.org/2000/svg"
>
  <path
    d="M28.3591 17.7758C28.6807 16.5755 29.9144 15.8632 31.1147 16.1848L44.6377 19.8082C45.838 20.1299 46.5503 21.3636 46.2287 22.5639C45.9071 23.7642 44.6733 24.4765 43.473 24.1549L29.9501 20.5314C28.7498 20.2098 28.0374 18.9761 28.3591 17.7758Z"
  />
  <path
    d="M28.9741 28.0354C27.7738 27.7137 26.5401 28.426 26.2184 29.6263C25.8968 30.8266 26.6091 32.0604 27.8094 32.382L35.5368 34.4526C36.7371 34.7742 37.9709 34.0619 38.2925 32.8616C38.6141 31.6613 37.9018 30.4275 36.7015 30.1059L28.9741 28.0354Z"
  />
  <path
    fill-rule="evenodd"
    clip-rule="evenodd"
    d="M44.1048 5.1722L38.8959 3.77649C36.5405 3.14533 34.6406 2.63626 33.0685 2.34972C31.4498 2.0547 29.9852 1.95533 28.5222 2.2663C26.1983 2.76025 24.0905 3.9772 22.5008 5.74274C21.5 6.85424 20.8538 8.17232 20.2999 9.72167C19.9221 10.7786 19.5585 12.0304 19.1569 13.498L15.156 14.5701C12.8006 15.2012 10.9008 15.7102 9.39599 16.2482C7.84663 16.802 6.52856 17.4483 5.41705 18.4491C3.65152 20.0388 2.43456 22.1466 1.94061 24.4704C1.62964 25.9334 1.72902 27.398 2.02404 29.0167C2.31057 30.5889 2.81964 32.4887 3.4508 34.8441L6.06234 44.5905C6.69344 46.9459 7.20249 48.8458 7.74041 50.3505C8.29427 51.8999 8.94051 53.218 9.94131 54.3295C11.531 56.095 13.6388 57.312 15.9627 57.8059C17.4257 58.1169 18.8903 58.0175 20.509 57.7225C22.0812 57.4359 23.981 56.9268 26.3365 56.2957L30.5791 55.1589C32.9346 54.5277 34.8345 54.0187 36.3394 53.4807C37.8887 52.9269 39.2068 52.2806 40.3183 51.2798C41.4025 50.3036 42.2799 49.1319 42.9099 47.8349C43.0998 47.8079 43.2892 47.7745 43.4786 47.7342C45.8025 47.2403 47.9103 46.0233 49.5 44.2578C50.5008 43.1463 51.1471 41.8282 51.7009 40.2789C52.2388 38.7743 52.7478 36.8747 53.3788 34.5196L55.81 25.4462C56.4412 23.0908 56.9502 21.191 57.2367 19.6189C57.5318 18.0002 57.6311 16.5355 57.3202 15.0726C56.8262 12.7487 55.6093 10.6409 53.8437 9.05118C52.7322 8.05038 51.4142 7.40414 49.8648 6.85028C48.36 6.31235 46.4602 5.80331 44.1048 5.1722ZM29.4578 6.66796C30.1083 6.52969 30.9176 6.53184 32.2616 6.7768C33.6316 7.02648 35.354 7.48619 37.8242 8.14808L42.847 9.49394C45.3173 10.1558 47.0388 10.6189 48.35 11.0877C49.6365 11.5475 50.3384 11.9503 50.8326 12.3953C51.892 13.3492 52.6221 14.6138 52.9185 16.0082C53.0568 16.6587 53.0546 17.468 52.8097 18.812C52.56 20.182 52.1003 21.9044 51.4384 24.3746L49.0573 33.2611C48.3954 35.7313 47.9323 37.4528 47.4635 38.7641C47.0037 40.0505 46.6009 40.7525 46.1559 41.2467C45.202 42.306 43.9373 43.0362 42.543 43.3326C41.8925 43.4708 41.0832 43.4687 39.7392 43.2237C38.3692 42.9741 36.6468 42.5143 34.1766 41.8525L29.1538 40.5066C26.6836 39.8447 24.9621 39.3816 23.6508 38.9129C22.3644 38.453 21.6624 38.0502 21.1682 37.6052C20.1089 36.6514 19.3787 35.3867 19.0823 33.9924C18.9441 33.3419 18.9462 32.5326 19.1912 31.1885C19.4408 29.8186 19.9005 28.0962 20.5624 25.6259L22.9436 16.7394C23.6055 14.2692 24.0686 12.5477 24.5373 11.2364C24.9972 9.95001 25.4 9.24804 25.845 8.75383C26.7988 7.6945 28.0635 6.96433 29.4578 6.66796ZM16.4137 18.8918L16.9888 18.7377L15.2648 25.1719C14.6336 27.5273 14.1246 29.4271 13.838 30.9993C13.543 32.618 13.4436 34.0826 13.7546 35.5456C14.2486 37.8694 15.4655 39.9772 17.231 41.5669C18.3425 42.5677 19.6606 43.214 21.21 43.7678C22.7146 44.3057 24.6142 44.8147 26.9693 45.4457L33.2896 47.1393L33.2907 47.1396C34.6981 47.5168 35.9523 47.853 37.0842 48.1221C36.6029 48.4957 35.9292 48.8485 34.8246 49.2434C33.5133 49.7121 31.7918 50.1752 29.3216 50.8371L25.2647 51.9241C22.7945 52.586 21.0721 53.0457 19.7021 53.2954C18.3581 53.5404 17.5488 53.5425 16.8983 53.4042C15.504 53.1079 14.2393 52.3777 13.2855 51.3184C12.8405 50.8242 12.4377 50.1222 11.9778 48.8358C11.5091 47.5245 11.046 45.803 10.3841 43.3328L7.8224 33.7725C7.1605 31.3022 6.7008 29.5798 6.45111 28.2099C6.20616 26.8659 6.20401 26.0565 6.34228 25.406C6.63865 24.0117 7.36882 22.747 8.42814 21.7932C8.92236 21.3482 9.62432 20.9454 10.9108 20.4855C12.222 20.0168 13.9435 19.5537 16.4137 18.8918Z"
  />
</svg>
