<svg
  width="60"
  height="60"
  viewBox="0 0 60 60"
  fill="currentColor"
  xmlns="http://www.w3.org/2000/svg"
>
  <path
    fill-rule="evenodd"
    clip-rule="evenodd"
    d="M25.7071 2.75012C24.1357 2.74909 22.9215 2.74828 21.865 3.03136C19.3986 3.69224 17.3999 5.44955 16.4136 7.75866C15.2832 7.77735 14.3816 7.83578 13.5652 8.01677C9.29669 8.96307 5.96307 12.2967 5.01677 16.5652C4.7491 17.7725 4.74949 19.1664 4.75005 21.2107L4.7501 38.6964C4.75008 41.1349 4.75006 43.1018 4.88019 44.6945C5.01418 46.3344 5.29726 47.7748 5.97628 49.1075C7.05486 51.2243 8.77589 52.9454 10.8927 54.0239C12.2254 54.7029 13.6658 54.986 15.3057 55.12C16.8984 55.2501 18.8652 55.2501 21.3037 55.2501H38.6965C41.1349 55.2501 43.1018 55.2501 44.6945 55.12C46.3344 54.986 47.7748 54.7029 49.1075 54.0239C51.2243 52.9454 52.9454 51.2243 54.0239 49.1075C54.7029 47.7748 54.986 46.3344 55.12 44.6945C55.2501 43.1018 55.2501 41.135 55.2501 38.6965L55.2502 21.2107C55.2507 19.1664 55.2511 17.7725 54.9834 16.5652C54.0371 12.2967 50.7035 8.96307 46.435 8.01677C45.6187 7.8358 44.7171 7.77736 43.5869 7.75866C42.6006 5.44955 40.6019 3.69224 38.1355 3.03136C37.079 2.74828 35.8648 2.74909 34.2934 2.75012H25.7071ZM44.2504 12.2791C44.2506 12.4188 44.2505 12.5614 44.2504 12.7071V13.2934C44.2514 14.8648 44.2522 16.079 43.9691 17.1355C43.2063 19.9825 40.9825 22.2063 38.1355 22.9691C37.079 23.2522 35.8648 23.2514 34.2934 23.2504H25.7071C24.1357 23.2514 22.9215 23.2522 21.865 22.9691C19.018 22.2063 16.7942 19.9825 16.0314 17.1355C15.7483 16.079 15.7491 14.8648 15.7501 13.2934V12.7071C15.75 12.5614 15.7499 12.4188 15.7501 12.279C15.2058 12.3015 14.8508 12.341 14.5391 12.4101C11.9781 12.9779 9.97788 14.9781 9.41011 17.5391C9.26355 18.2002 9.2501 19.0562 9.2501 21.5001V38.6001C9.2501 41.1575 9.25185 42.9402 9.36525 44.3281C9.4765 45.6897 9.68389 46.472 9.98581 47.0645C10.633 48.3346 11.6656 49.3673 12.9357 50.0144C13.5282 50.3163 14.3105 50.5237 15.6721 50.635C17.06 50.7484 18.8427 50.7501 21.4001 50.7501H38.6001C41.1575 50.7501 42.9402 50.7484 44.3281 50.635C45.6897 50.5237 46.472 50.3163 47.0645 50.0144C48.3346 49.3673 49.3673 48.3346 50.0144 47.0645C50.3163 46.472 50.5237 45.6897 50.635 44.3281C50.7484 42.9402 50.7501 41.1575 50.7501 38.6001V21.5001C50.7501 19.0562 50.7367 18.2002 50.5901 17.5391C50.0223 14.9781 48.0221 12.9779 45.4611 12.4101C45.1495 12.341 44.7945 12.3015 44.2504 12.2791ZM23.0297 7.37803C23.4344 7.26958 23.9954 7.25025 26.0003 7.25025H34.0003C36.0051 7.25025 36.5661 7.26958 36.9708 7.37803C38.2649 7.72478 39.2757 8.73558 39.6225 10.0297C39.7309 10.4344 39.7503 10.9954 39.7503 13.0003C39.7503 15.0051 39.7309 15.5661 39.6225 15.9708C39.2757 17.2649 38.2649 18.2757 36.9708 18.6225C36.5661 18.7309 36.0051 18.7503 34.0003 18.7503H26.0003C23.9954 18.7503 23.4344 18.7309 23.0297 18.6225C21.7356 18.2757 20.7248 17.2649 20.378 15.9708C20.2696 15.5661 20.2503 15.0051 20.2503 13.0003C20.2503 10.9954 20.2696 10.4344 20.378 10.0297C20.7248 8.73558 21.7356 7.72478 23.0297 7.37803Z"
  />
</svg>
