<svg
  width="60"
  height="60"
  viewBox="0 0 60 60"
  fill="currentColor"
  xmlns="http://www.w3.org/2000/svg"
>
  <path
    fill-rule="evenodd"
    clip-rule="evenodd"
    d="M14.8615 25.5165C13.9681 22.1824 15.9468 18.7553 19.2809 17.8619C22.6151 16.9685 26.0422 18.9471 26.9356 22.2813C27.829 25.6155 25.8503 29.0426 22.5162 29.9359C19.182 30.8293 15.7549 28.8507 14.8615 25.5165ZM20.4456 22.2085C19.5121 22.4587 18.958 23.4183 19.2082 24.3518C19.4583 25.2854 20.4179 25.8394 21.3515 25.5893C22.2851 25.3391 22.8391 24.3795 22.5889 23.446C22.3388 22.5124 21.3792 21.9584 20.4456 22.2085Z"
  />
  <path
    fill-rule="evenodd"
    clip-rule="evenodd"
    d="M16.3534 11.4506C16.4 11.4071 16.4471 11.364 16.4946 11.3213C17.6061 10.3205 18.9242 9.67422 20.4735 9.12036C21.9783 8.58243 23.8782 8.07339 26.2336 7.44228L33.3743 5.52892C35.7297 4.89777 37.6296 4.38869 39.2017 4.10217C40.8204 3.80715 42.285 3.70777 43.748 4.01874C46.0718 4.51269 48.1797 5.72964 49.7694 7.49518C50.7702 8.60668 51.4164 9.92476 51.9703 11.4741C52.5082 12.9789 53.0173 14.8789 53.6484 17.2344L56.0793 26.3066C56.7105 28.6621 57.2196 30.5619 57.5061 32.1341C57.8011 33.7528 57.9005 35.2174 57.5895 36.6804C57.0956 39.0043 55.8786 41.1121 54.1131 42.7018C53.0016 43.7026 51.6835 44.3488 50.1342 44.9027C48.6293 45.4406 46.7294 45.9497 44.3739 46.5808L43.8511 46.7209C43.5501 47.7878 43.265 48.7272 42.9713 49.5487C42.4175 51.0981 41.7712 52.4162 40.7704 53.5277C39.1807 55.2932 37.0729 56.5102 34.7491 57.0041C33.2861 57.3151 31.8215 57.2157 30.2027 56.9207C28.6306 56.6341 26.7308 56.1251 24.3754 55.4939L17.2346 53.5806C14.8793 52.9495 12.9793 52.4404 11.4746 51.9025C9.92524 51.3486 8.60717 50.7024 7.49567 49.7016C5.73013 48.1119 4.51318 46.0041 4.01923 43.6802C3.70826 42.2172 3.80763 40.7526 4.10265 39.1339C4.38918 37.5618 4.89824 35.662 5.52939 33.3066L7.96042 24.2339C8.59153 21.8785 9.10057 19.9786 9.63849 18.4739C10.1923 16.9245 10.8386 15.6065 11.8394 14.495C13.0774 13.12 14.6296 12.0778 16.3534 11.4506ZM34.446 9.90052C36.9162 9.23863 38.6386 8.77892 40.0086 8.52924C41.3526 8.28428 42.1619 8.28213 42.8124 8.4204C44.2067 8.71677 45.4714 9.44695 46.4252 10.5063C46.8702 11.0005 47.273 11.7024 47.7329 12.9889C48.2016 14.3001 48.6647 16.0216 49.3266 18.4919L51.7078 27.3784C52.3696 29.8486 52.8294 31.571 53.079 32.941C53.324 34.285 53.3261 35.0943 53.1879 35.7448C52.8915 37.1391 52.1613 38.4038 51.102 39.3576C50.6078 39.8026 49.9058 40.2054 48.6194 40.6653C47.7152 40.9885 46.616 41.3091 45.2107 41.694L47.0804 34.7161C47.7116 32.3607 48.2206 30.4608 48.5072 28.8887C48.8022 27.27 48.9016 25.8054 48.5906 24.3424C48.0966 22.0186 46.8797 19.9107 45.1141 18.321C44.0026 17.3202 42.6846 16.674 41.1352 16.1201C39.6305 15.5822 37.7307 15.0732 35.3753 14.4421L28.2344 12.5287C27.6015 12.3591 27.0016 12.1984 26.432 12.0484C26.7691 11.9576 27.1218 11.863 27.4913 11.764L34.446 9.90052ZM19.1015 15.3677C18.9953 15.3818 18.8941 15.3994 18.7964 15.4202C17.4021 15.7166 16.1374 16.4467 15.1835 17.506C14.7385 18.0003 14.3357 18.7022 13.8759 19.9887C13.4071 21.2999 12.944 23.0214 12.2821 25.4916L9.90101 34.3782C9.23912 36.8484 8.77941 38.5708 8.52973 39.9408C8.28477 41.2848 8.28262 42.0941 8.42089 42.7446C8.71726 44.1389 9.44743 45.4036 10.5068 46.3574C11.001 46.8024 11.7029 47.2052 12.9894 47.6651C14.3006 48.1338 16.0221 48.5969 18.4924 49.2588L25.447 51.1223C27.9172 51.7842 29.6397 52.2439 31.0096 52.4936C32.3536 52.7386 33.1629 52.7407 33.8134 52.6024C35.2078 52.3061 36.4725 51.5759 37.4263 50.5166C37.8713 50.0224 38.2741 49.3204 38.7339 48.034C39.0442 47.166 39.352 46.1184 39.7166 44.7928L39.8531 44.2907C40.0016 43.7445 40.1581 43.1606 40.3268 42.5311L42.7079 33.6445C43.3698 31.1743 43.8295 29.4519 44.0792 28.082C44.3242 26.738 44.3263 25.9286 44.188 25.2781C43.8917 23.8838 43.1615 22.6191 42.1022 21.6653C41.608 21.2203 40.906 20.8175 39.6196 20.3576C38.3083 19.8889 36.5868 19.4258 34.1166 18.7639L27.1619 16.9004C24.6917 16.2385 22.9693 15.7788 21.5993 15.5291C20.4577 15.3211 19.7019 15.2882 19.1015 15.3677Z"
  />
</svg>
