<svg
  width="60"
  height="60"
  viewBox="0 0 60 60"
  fill="currentColor"
  xmlns="http://www.w3.org/2000/svg"
>
  <path
    d="M40.2089 31.9553C41.0875 31.0766 41.0875 29.652 40.2089 28.7733C39.3302 27.8946 37.9056 27.8946 37.0269 28.7733L28.3648 37.4354L23.5918 32.6624C22.7132 31.7837 21.2885 31.7837 20.4099 32.6624C19.5312 33.5411 19.5312 34.9657 20.4099 35.8444L26.7738 42.2083C27.1958 42.6303 27.7681 42.8674 28.3648 42.8674C28.9616 42.8673 29.5339 42.6303 29.9558 42.2083L40.2089 31.9553Z"
  />
  <path
    fill-rule="evenodd"
    clip-rule="evenodd"
    d="M25.7071 2.75012H34.2934C35.8648 2.74909 37.079 2.74828 38.1355 3.03136C40.6019 3.69224 42.6006 5.44955 43.5869 7.75866C44.7171 7.77736 45.6187 7.8358 46.435 8.01677C50.7035 8.96307 54.0371 12.2967 54.9834 16.5652C55.2511 17.7725 55.2507 19.1664 55.2502 21.2107L55.2501 38.6965C55.2501 41.1349 55.2501 43.1018 55.12 44.6945C54.986 46.3344 54.7029 47.7748 54.0239 49.1075C52.9454 51.2243 51.2243 52.9454 49.1075 54.0239C47.7748 54.7029 46.3344 54.986 44.6945 55.12C43.1018 55.2501 41.135 55.2501 38.6965 55.2501H21.3037C18.8653 55.2501 16.8984 55.2501 15.3057 55.12C13.6658 54.986 12.2254 54.7029 10.8927 54.0239C8.77589 52.9454 7.05486 51.2243 5.97628 49.1075C5.29726 47.7748 5.01418 46.3344 4.88019 44.6945C4.75006 43.1018 4.75008 41.1349 4.7501 38.6964L4.75005 21.2107C4.74949 19.1664 4.7491 17.7725 5.01677 16.5652C5.96307 12.2967 9.29669 8.96307 13.5652 8.01677C14.3816 7.83578 15.2832 7.77735 16.4136 7.75866C17.3999 5.44955 19.3986 3.69224 21.865 3.03136C22.9215 2.74828 24.1357 2.74909 25.7071 2.75012ZM44.2504 12.7033C44.2505 12.5589 44.2506 12.4175 44.2504 12.2791C44.7945 12.3015 45.1495 12.341 45.4611 12.4101C48.0221 12.9779 50.0223 14.9781 50.5901 17.5391C50.7367 18.2002 50.7501 19.0562 50.7501 21.5001V38.6001C50.7501 41.1575 50.7484 42.9402 50.635 44.3281C50.5237 45.6897 50.3163 46.472 50.0144 47.0645C49.3673 48.3346 48.3346 49.3673 47.0645 50.0144C46.472 50.3163 45.6897 50.5237 44.3281 50.635C42.9402 50.7484 41.1575 50.7501 38.6001 50.7501H21.4001C18.8427 50.7501 17.06 50.7484 15.6721 50.635C14.3105 50.5237 13.5282 50.3163 12.9357 50.0144C11.6656 49.3673 10.633 48.3346 9.98581 47.0645C9.68389 46.472 9.4765 45.6897 9.36525 44.3281C9.25185 42.9402 9.2501 41.1575 9.2501 38.6001V21.5001C9.2501 19.0562 9.26355 18.2002 9.41011 17.5391C9.97788 14.9781 11.9781 12.9779 14.5391 12.4101C14.8508 12.341 15.2058 12.3015 15.7501 12.279C15.7499 12.4188 15.75 12.5614 15.7501 12.7071V13.2934C15.7491 14.8648 15.7483 16.079 16.0314 17.1355C16.7942 19.9825 19.018 22.2063 21.865 22.9691C22.9215 23.2522 24.1357 23.2514 25.7071 23.2504H34.2934C35.8648 23.2514 37.079 23.2522 38.1355 22.9691C40.9825 22.2063 43.2063 19.9825 43.9691 17.1355C44.2522 16.079 44.2514 14.8648 44.2504 13.2934V12.7033ZM26.0003 7.25025C23.9954 7.25025 23.4344 7.26958 23.0297 7.37803C21.7356 7.72478 20.7248 8.73558 20.378 10.0297C20.2696 10.4344 20.2503 10.9954 20.2503 13.0003C20.2503 15.0051 20.2696 15.5661 20.378 15.9708C20.7248 17.2649 21.7356 18.2757 23.0297 18.6225C23.4344 18.7309 23.9954 18.7503 26.0003 18.7503H34.0003C36.0051 18.7503 36.5661 18.7309 36.9708 18.6225C38.2649 18.2757 39.2757 17.2649 39.6225 15.9708C39.7309 15.5661 39.7503 15.0051 39.7503 13.0003C39.7503 10.9954 39.7309 10.4344 39.6225 10.0297C39.2757 8.73558 38.2649 7.72478 36.9708 7.37803C36.5661 7.26958 36.0051 7.25025 34.0003 7.25025H26.0003Z"
  />
</svg>
