<svg
  width="60"
  height="60"
  viewBox="0 0 60 60"
  fill="currentColor"
  xmlns="http://www.w3.org/2000/svg"
>
  <path
    d="M5 20.648C5 15.1707 5 12.432 6.06596 10.34C7.0036 8.49975 8.49975 7.0036 10.34 6.06596C12.432 5 15.1707 5 20.648 5H39.352C44.8293 5 47.568 5 49.66 6.06596C51.5003 7.0036 52.9964 8.49975 53.934 10.34C55 12.432 55 15.1707 55 20.648V39.352C55 44.8293 55 47.568 53.934 49.66C52.9964 51.5003 51.5003 52.9964 49.66 53.934C47.568 55 44.8293 55 39.352 55H20.648C15.1707 55 12.432 55 10.34 53.934C8.49975 52.9964 7.0036 51.5003 6.06596 49.66C5 47.568 5 44.8293 5 39.352V20.648Z"
    fill="#F4BF00"
  />
  <path
    fill-rule="evenodd"
    clip-rule="evenodd"
    d="M22.9161 12.75L23 12.75H35L35.0885 12.75C36.4132 12.7499 37.5411 12.7499 38.4672 12.8256C39.4401 12.9051 40.3866 13.0791 41.2914 13.5402C42.6556 14.2353 43.7647 15.3444 44.4598 16.7085C44.9208 17.6134 45.0949 18.5599 45.1744 19.5328C45.2501 20.4589 45.25 21.5868 45.25 22.9115V23V37V37.0884C45.25 38.4131 45.2501 39.5411 45.1744 40.4672C45.0949 41.4401 44.9208 42.3866 44.4598 43.2914C43.7647 44.6556 42.6556 45.7647 41.2914 46.4598C40.3866 46.9208 39.4401 47.0949 38.4672 47.1744C37.5411 47.25 36.4132 47.25 35.0886 47.25H35H23L22.9161 47.25H22.9158C22.5353 47.2501 22.2083 47.2502 21.9117 47.2243C18.6484 46.9388 16.0612 44.3515 15.7757 41.0883C15.7497 40.7916 15.7498 40.4645 15.75 40.0839L15.75 40C15.75 38.7573 16.7574 37.75 18 37.75C19.2426 37.75 20.25 38.7573 20.25 40C20.25 40.5119 20.2522 40.6229 20.2586 40.6961C20.3537 41.7838 21.2161 42.6463 22.3039 42.7414C22.3771 42.7478 22.4881 42.75 23 42.75H35C36.4373 42.75 37.3799 42.7482 38.1008 42.6893C38.7954 42.6326 39.0837 42.5342 39.2485 42.4502C39.7659 42.1866 40.1866 41.7659 40.4503 41.2485C40.5342 41.0837 40.6326 40.7954 40.6894 40.1007C40.7483 39.3799 40.75 38.4372 40.75 37V23C40.75 21.5627 40.7483 20.6201 40.6894 19.8992C40.6326 19.2046 40.5342 18.9162 40.4503 18.7515C40.1866 18.2341 39.7659 17.8134 39.2485 17.5497C39.0837 17.4658 38.7954 17.3674 38.1008 17.3106C37.3799 17.2517 36.4373 17.25 35 17.25H23C22.4881 17.25 22.3771 17.2521 22.3039 17.2585C21.2161 17.3537 20.3537 18.2161 20.2586 19.3039C20.2522 19.3771 20.25 19.4881 20.25 20C20.25 21.2426 19.2426 22.25 18 22.25C16.7574 22.25 15.75 21.2426 15.75 20L15.75 19.9161V19.9161C15.7498 19.5355 15.7497 19.2084 15.7757 18.9117C16.0612 15.6484 18.6484 13.0612 21.9117 12.7757C22.2084 12.7497 22.5355 12.7498 22.9161 12.75ZM12.75 26.5C12.75 25.2573 13.7574 24.25 15 24.25H21C22.2426 24.25 23.25 25.2573 23.25 26.5C23.25 27.7426 22.2426 28.75 21 28.75H15C13.7574 28.75 12.75 27.7426 12.75 26.5ZM15 31.25C13.7574 31.25 12.75 32.2573 12.75 33.5C12.75 34.7426 13.7574 35.75 15 35.75H21C22.2426 35.75 23.25 34.7426 23.25 33.5C23.25 32.2573 22.2426 31.25 21 31.25H15Z"
    fill="white"
  />
</svg>
