<svg
  width="60"
  height="60"
  viewBox="0 0 60 60"
  fill="currentColor"
  xmlns="http://www.w3.org/2000/svg"
>
  <path
    d="M57 15C57 21.6274 51.6274 27 45 27C38.3726 27 33 21.6274 33 15C33 8.37258 38.3726 3 45 3C51.6274 3 57 8.37258 57 15Z"
    fill="#E55649"
  />
  <path
    d="M49.644 29.2673C48.1818 29.7429 46.6209 30 45 30C36.7157 30 30 23.2843 30 15C30 10.4444 32.0308 6.36317 35.2365 3.61216C33.5935 3.0532 31.8322 2.75 30.0001 2.75C21.0254 2.75 13.7501 10.0254 13.7501 19L13.7501 24.3039L11.355 27.8044C9.74464 30.1579 8.44734 32.054 7.57694 33.6146C6.70699 35.1745 6.05068 36.7544 6.13615 38.4222C6.26033 40.8452 7.44473 43.0907 9.37432 44.5614C10.7026 45.5738 12.3771 45.9243 14.1557 46.0871C15.9352 46.2501 18.2326 46.25 21.0843 46.25H38.9158C41.7676 46.25 44.0649 46.2501 45.8444 46.0871C47.623 45.9243 49.2976 45.5738 50.6258 44.5614C52.5554 43.0907 53.7398 40.8452 53.864 38.4222C53.9494 36.7544 53.2931 35.1745 52.4232 33.6146C51.7409 32.3912 50.7962 30.9617 49.644 29.2673Z"
  />
  <path
    d="M19 52.75C17.7574 52.75 16.75 53.7574 16.75 55C16.75 56.2426 17.7574 57.25 19 57.25L41 57.25C42.2426 57.25 43.25 56.2426 43.25 55C43.25 53.7574 42.2426 52.75 41 52.75L19 52.75Z"
  />
</svg>
