<svg
  width="60"
  height="60"
  viewBox="0 0 60 60"
  fill="currentColor"
  xmlns="http://www.w3.org/2000/svg"
>
  <path
    d="M30.0001 2.75C21.0254 2.75 13.7501 10.0254 13.7501 19L13.7501 24.3039L11.355 27.8044C9.74464 30.1579 8.44734 32.054 7.57694 33.6146C6.70699 35.1745 6.05068 36.7544 6.13615 38.4222C6.26033 40.8452 7.44473 43.0907 9.37432 44.5614C10.7026 45.5738 12.3771 45.9243 14.1557 46.0871C15.9352 46.2501 18.2326 46.25 21.0843 46.25H38.9158C41.7676 46.25 44.0649 46.2501 45.8444 46.0871C47.623 45.9243 49.2976 45.5738 50.6258 44.5614C52.5554 43.0907 53.7398 40.8452 53.864 38.4222C53.9494 36.7544 53.2931 35.1745 52.4232 33.6146C51.5528 32.0539 50.2554 30.1579 48.645 27.8042L46.2501 24.3039V19C46.2501 10.0254 38.9747 2.75 30.0001 2.75Z"
  />
  <path
    d="M16.75 55C16.75 53.7574 17.7574 52.75 19 52.75L41 52.75C42.2426 52.75 43.25 53.7574 43.25 55C43.25 56.2426 42.2426 57.25 41 57.25L19 57.25C17.7574 57.25 16.75 56.2426 16.75 55Z"
  />
</svg>
