<svg
  width="60"
  height="60"
  viewBox="0 0 60 60"
  fill="currentColor"
  xmlns="http://www.w3.org/2000/svg"
>
  <path
    fill-rule="evenodd"
    clip-rule="evenodd"
    d="M53.864 38.4222C53.9494 36.7544 53.2931 35.1745 52.4232 33.6146C51.5528 32.054 50.2555 30.158 48.6452 27.8045L46.2501 24.3039V19C46.2501 10.0254 38.9747 2.75 30.0001 2.75C21.0254 2.75 13.7501 10.0254 13.7501 19L13.7501 24.3039L11.3551 27.8043C9.74467 30.1579 8.44735 32.0539 7.57693 33.6146C6.70699 35.1745 6.05067 36.7544 6.13615 38.4222C6.26033 40.8452 7.44473 43.0907 9.37432 44.5614C10.7026 45.5738 12.3771 45.9243 14.1557 46.0871C15.9352 46.2501 18.2326 46.25 21.0843 46.25H38.9158C41.7676 46.25 44.0649 46.2501 45.8444 46.0871C47.623 45.9243 49.2975 45.5738 50.6258 44.5614C52.5554 43.0907 53.7398 40.8452 53.864 38.4222ZM44.8656 30.2496C46.5569 32.7214 47.7352 34.4476 48.4931 35.8065C49.2632 37.1874 49.3881 37.8366 49.3699 38.1919C49.3134 39.2933 48.775 40.314 47.898 40.9825C47.615 41.1982 47.0087 41.4617 45.4341 41.6059C43.8846 41.7477 41.7947 41.75 38.7996 41.75H21.2005C18.2054 41.75 16.1155 41.7477 14.566 41.6059C12.9914 41.4617 12.3851 41.1982 12.1021 40.9825C11.2251 40.314 10.6867 39.2933 10.6303 38.1919C10.612 37.8366 10.7369 37.1874 11.507 35.8065C12.2649 34.4476 13.4432 32.7214 15.1345 30.2496L17.8223 26.3212C18.101 25.914 18.2501 25.4321 18.2501 24.9386V19C18.2501 12.5107 23.5107 7.25 30.0001 7.25C36.4894 7.25 41.7501 12.5107 41.7501 19L41.7501 24.9386C41.7501 25.4321 41.8992 25.914 42.1778 26.3212L44.8656 30.2496Z"
  />
  <path
    d="M19.0001 52.75C17.7575 52.75 16.7501 53.7574 16.7501 55C16.7501 56.2426 17.7575 57.25 19.0001 57.25L41.0001 57.25C42.2428 57.25 43.2501 56.2426 43.2501 55C43.2501 53.7574 42.2428 52.75 41.0001 52.75L19.0001 52.75Z"
  />
</svg>
