<svg
  width="60"
  height="60"
  viewBox="0 0 60 60"
  fill="currentColor"
  xmlns="http://www.w3.org/2000/svg"
>
  <path
    d="M5 24.2C5 17.4794 5 14.1191 6.30792 11.5521C7.4584 9.29417 9.29417 7.4584 11.5521 6.30792C14.1191 5 17.4794 5 24.2 5H35.8C42.5206 5 45.8809 5 48.4479 6.30792C50.7058 7.4584 52.5416 9.29417 53.6921 11.5521C55 14.1191 55 17.4794 55 24.2V35.8C55 42.5206 55 45.8809 53.6921 48.4479C52.5416 50.7058 50.7058 52.5416 48.4479 53.6921C45.8809 55 42.5206 55 35.8 55H24.2C17.4794 55 14.1191 55 11.5521 53.6921C9.29417 52.5416 7.4584 50.7058 6.30792 48.4479C5 45.8809 5 42.5206 5 35.8V24.2Z"
  />
  <path
    fill-rule="evenodd"
    clip-rule="evenodd"
    d="M7.75 16C7.75 11.4436 11.4436 7.75 16 7.75H21.7391C22.9818 7.75 23.9891 8.75736 23.9891 10C23.9891 11.2426 22.9818 12.25 21.7391 12.25H16C13.9289 12.25 12.25 13.9289 12.25 16V21.7391C12.25 22.9818 11.2426 23.9891 10 23.9891C8.75736 23.9891 7.75 22.9818 7.75 21.7391V16ZM36.0109 10C36.0109 8.75736 37.0182 7.75 38.2609 7.75H44C48.5564 7.75 52.25 11.4436 52.25 16V21.7391C52.25 22.9818 51.2426 23.9891 50 23.9891C48.7574 23.9891 47.75 22.9818 47.75 21.7391V16C47.75 13.9289 46.0711 12.25 44 12.25H38.2609C37.0182 12.25 36.0109 11.2426 36.0109 10ZM10 36.0109C11.2426 36.0109 12.25 37.0182 12.25 38.2609V44C12.25 46.0711 13.9289 47.75 16 47.75H21.7391C22.9818 47.75 23.9891 48.7574 23.9891 50C23.9891 51.2426 22.9818 52.25 21.7391 52.25H16C11.4436 52.25 7.75 48.5563 7.75 44V38.2609C7.75 37.0182 8.75736 36.0109 10 36.0109ZM50 36.0109C51.2426 36.0109 52.25 37.0182 52.25 38.2609V44C52.25 48.5564 48.5564 52.25 44 52.25H38.2609C37.0182 52.25 36.0109 51.2426 36.0109 50C36.0109 48.7574 37.0182 47.75 38.2609 47.75H44C46.0711 47.75 47.75 46.0711 47.75 44V38.2609C47.75 37.0182 48.7574 36.0109 50 36.0109Z"
    fill="white"
  />
  <path
    d="M18 18.75C16.7574 18.75 15.75 19.7574 15.75 21C15.75 22.2426 16.7574 23.25 18 23.25H42C43.2426 23.25 44.25 22.2426 44.25 21C44.25 19.7574 43.2426 18.75 42 18.75H18Z"
    fill="white"
  />
  <path
    d="M18 36.75C16.7574 36.75 15.75 37.7574 15.75 39C15.75 40.2426 16.7574 41.25 18 41.25H33C34.2426 41.25 35.25 40.2426 35.25 39C35.25 37.7574 34.2426 36.75 33 36.75H18Z"
    fill="white"
  />
</svg>
