<svg
  width="60"
  height="60"
  viewBox="0 0 60 60"
  fill="currentColor"
  xmlns="http://www.w3.org/2000/svg"
>
  <path
    d="M4.75 16C4.75 9.7868 9.7868 4.75 16 4.75H20.5C21.7426 4.75 22.75 5.75736 22.75 7C22.75 8.24264 21.7426 9.25 20.5 9.25H16C12.2721 9.25 9.25 12.2721 9.25 16V20.5C9.25 21.7426 8.24264 22.75 7 22.75C5.75736 22.75 4.75 21.7426 4.75 20.5V16Z"
  />
  <path
    d="M37.25 7C37.25 5.75736 38.2574 4.75 39.5 4.75H44C50.2132 4.75 55.25 9.7868 55.25 16V20.5C55.25 21.7426 54.2426 22.75 53 22.75C51.7574 22.75 50.75 21.7426 50.75 20.5V16C50.75 12.2721 47.7279 9.25 44 9.25H39.5C38.2574 9.25 37.25 8.24264 37.25 7Z"
  />
  <path
    d="M7 37.25C8.24264 37.25 9.25 38.2574 9.25 39.5V44C9.25 47.7279 12.2721 50.75 16 50.75H20.5C21.7426 50.75 22.75 51.7574 22.75 53C22.75 54.2426 21.7426 55.25 20.5 55.25H16C9.7868 55.25 4.75 50.2132 4.75 44V39.5C4.75 38.2574 5.75736 37.25 7 37.25Z"
  />
  <path
    d="M53 37.25C54.2426 37.25 55.25 38.2574 55.25 39.5V44C55.25 50.2132 50.2132 55.25 44 55.25H39.5C38.2574 55.25 37.25 54.2426 37.25 53C37.25 51.7574 38.2574 50.75 39.5 50.75H44C47.7279 50.75 50.75 47.7279 50.75 44V39.5C50.75 38.2574 51.7574 37.25 53 37.25Z"
  />
  <path
    d="M15.75 21C15.75 19.7574 16.7574 18.75 18 18.75H42C43.2426 18.75 44.25 19.7574 44.25 21C44.25 22.2426 43.2426 23.25 42 23.25H18C16.7574 23.25 15.75 22.2426 15.75 21Z"
  />
  <path
    d="M18 36.75C16.7574 36.75 15.75 37.7574 15.75 39C15.75 40.2426 16.7574 41.25 18 41.25H33C34.2426 41.25 35.25 40.2426 35.25 39C35.25 37.7574 34.2426 36.75 33 36.75H18Z"
  />
</svg>
