<svg
  width="60"
  height="60"
  viewBox="0 0 60 60"
  fill="currentColor"
  xmlns="http://www.w3.org/2000/svg"
>
  <path
    fill-rule="evenodd"
    clip-rule="evenodd"
    d="M20.4494 6.72104C21.3999 5.92061 21.5215 4.50119 20.7211 3.55068C19.9207 2.60017 18.5013 2.47851 17.5508 3.27894L11.9329 8.00974C8.84068 10.6137 8.99675 15.424 12.2513 17.822L16.0382 20.6124C16.4858 20.9422 16.7501 21.4652 16.7501 22.0212L16.7501 33.1059C13.8475 34.0526 11.7501 36.7813 11.7501 40V50C11.7501 54.0041 14.996 57.25 19.0001 57.25C23.0041 57.25 26.2501 54.0041 26.2501 50V40C26.2501 36.7814 24.1527 34.0526 21.2501 33.1059V22.0212C21.2501 20.0353 20.3063 18.1676 18.7076 16.9896L14.9207 14.1993C14.0094 13.5278 13.9657 12.181 14.8315 11.4518L20.4494 6.72104ZM19.0001 37.25C17.4813 37.25 16.2501 38.4812 16.2501 40V50C16.2501 51.5188 17.4813 52.75 19.0001 52.75C20.5188 52.75 21.7501 51.5188 21.7501 50L21.7501 40C21.7501 38.4812 20.5188 37.25 19.0001 37.25Z"
  />
  <path
    fill-rule="evenodd"
    clip-rule="evenodd"
    d="M32.7501 50C32.7501 54.0041 35.996 57.25 40.0001 57.25C44.0041 57.25 47.2501 54.0041 47.2501 50V40C47.2501 36.7813 45.1527 34.0526 42.2501 33.1059V23.0023C46.8286 21.9768 50.2501 17.8879 50.2501 13C50.2501 7.33907 45.661 2.74998 40.0001 2.74998C34.3391 2.74998 29.7501 7.33907 29.7501 13C29.7501 17.8879 33.1715 21.9768 37.7501 23.0023V33.1059C34.8475 34.0526 32.7501 36.7813 32.7501 40V50ZM40.0001 52.75C38.4813 52.75 37.2501 51.5188 37.2501 50V40C37.2501 38.4812 38.4813 37.25 40.0001 37.25C41.5188 37.25 42.7501 38.4812 42.7501 40V50C42.7501 51.5188 41.5188 52.75 40.0001 52.75ZM34.2501 13C34.2501 9.82435 36.8244 7.24998 40.0001 7.24998C43.1757 7.24998 45.7501 9.82435 45.7501 13C45.7501 16.1756 43.1757 18.75 40.0001 18.75C36.8244 18.75 34.2501 16.1756 34.2501 13Z"
  />
</svg>
