<svg
  width="60"
  height="60"
  viewBox="0 0 60 60"
  fill="currentColor"
  xmlns="http://www.w3.org/2000/svg"
>
  <path
    fill-rule="evenodd"
    clip-rule="evenodd"
    d="M14.75 11C14.75 9.75736 15.7574 8.75 17 8.75H51C52.2426 8.75 53.25 9.75736 53.25 11C53.25 12.2426 52.2426 13.25 51 13.25H17C15.7574 13.25 14.75 12.2426 14.75 11Z"
  />
  <path
    fill-rule="evenodd"
    clip-rule="evenodd"
    d="M6.5 11C6.5 9.61929 7.61929 8.5 9 8.5H9.1C10.4807 8.5 11.6 9.61929 11.6 11C11.6 12.3807 10.4807 13.5 9.1 13.5H9C7.61929 13.5 6.5 12.3807 6.5 11Z"
  />
  <path
    fill-rule="evenodd"
    clip-rule="evenodd"
    d="M6.5 49C6.5 47.6193 7.61929 46.5 9 46.5H9.1C10.4807 46.5 11.6 47.6193 11.6 49C11.6 50.3807 10.4807 51.5 9.1 51.5H9C7.61929 51.5 6.5 50.3807 6.5 49Z"
  />
  <path
    fill-rule="evenodd"
    clip-rule="evenodd"
    d="M14.5 30C14.5 28.6193 15.6193 27.5 17 27.5H17.1C18.4807 27.5 19.6 28.6193 19.6 30C19.6 31.3807 18.4807 32.5 17.1 32.5H17C15.6193 32.5 14.5 31.3807 14.5 30Z"
  />
  <path
    fill-rule="evenodd"
    clip-rule="evenodd"
    d="M22.75 30C22.75 28.7574 23.7574 27.75 25 27.75L51 27.75C52.2426 27.75 53.25 28.7574 53.25 30C53.25 31.2426 52.2426 32.25 51 32.25L25 32.25C23.7574 32.25 22.75 31.2426 22.75 30Z"
  />
  <path
    fill-rule="evenodd"
    clip-rule="evenodd"
    d="M14.75 49C14.75 47.7574 15.7574 46.75 17 46.75H51C52.2426 46.75 53.25 47.7574 53.25 49C53.25 50.2426 52.2426 51.25 51 51.25H17C15.7574 51.25 14.75 50.2426 14.75 49Z"
  />
</svg>
