<svg xmlns="http://www.w3.org/2000/svg" width="1em" height="1em" viewBox="0 0 13 14" fill="none">
  <path
    d="M5.32782 13.0915C7.08461 13.5466 6.69317 10.6571 8.08901 9.71779C9.28002 8.91628 12.3618 10.2225 12.7501 8.72348C13.5936 5.46766 11.6379 2.14457 8.38211 1.30115C5.12629 0.457731 1.8032 2.41337 0.959784 5.66919C0.116364 8.92501 2.072 12.2481 5.32782 13.0915Z"
    fill="#8CD5B4" />
  <path fill-rule="evenodd" clip-rule="evenodd"
    d="M11.6833 1.18747C11.3663 0.870483 10.8601 0.846857 10.515 1.13294L7.7804 3.39965C7.23583 3.85104 7.19746 4.673 7.69762 5.17316C8.19778 5.67332 9.01974 5.63495 9.47113 5.09038L11.7378 2.35578C12.0239 2.01064 12.0003 1.50446 11.6833 1.18747ZM4.26449 6.27539C4.34707 5.97932 4.50456 5.70954 4.72175 5.49205C5.06 5.17128 5.51011 4.99523 5.97623 5.00141C6.44235 5.00759 6.88764 5.1955 7.21727 5.52513C7.5469 5.85475 7.73481 6.30004 7.74099 6.76616C7.74717 7.23228 7.57112 7.6824 7.25035 8.02065C6.74719 8.52416 6.09685 8.8545 5.39347 8.96385C4.6901 9.07321 3.97017 8.9559 3.33789 8.62891C3.64313 8.56209 3.91039 8.37911 4.08311 8.11872C4.25582 7.85832 4.32044 7.54094 4.26329 7.23375C4.25029 7.21792 4.25029 7.20039 4.25029 7.1823C4.17702 6.8838 4.18191 6.57145 4.26449 6.27539Z"
    fill="#1477F7" />
</svg>