<svg
  width="60"
  height="60"
  viewBox="0 0 60 60"
  fill="currentColor"
  xmlns="http://www.w3.org/2000/svg"
>
  <path
    fill-rule="evenodd"
    clip-rule="evenodd"
    d="M3.90999 23.1684C7.62937 8.79502 22.2861 0.158181 36.6494 3.88302C51.0117 7.60763 59.6352 22.2803 55.916 36.6528C55.2651 39.1683 53.4 40.4336 51.4135 40.9874C49.5698 41.5015 47.3885 41.4851 45.4449 41.4067C44.832 41.382 44.2377 41.3509 43.6598 41.3207C42.2675 41.2479 40.9673 41.18 39.7202 41.2169C37.9365 41.2697 36.8049 41.5414 36.1575 41.9776C35.2317 42.6012 34.4901 43.6259 33.8102 45.0666C33.3257 46.093 32.9531 47.1354 32.5532 48.2545L32.5528 48.2555C32.3696 48.7679 32.1807 49.2964 31.9727 49.8469C31.3794 51.4166 30.5893 53.2778 29.2413 54.5656C28.5208 55.254 27.6283 55.7956 26.5388 56.0495C25.463 56.3002 24.3344 56.2384 23.1767 55.9382C8.81434 52.2135 0.190836 37.5409 3.90999 23.1684ZM26 12.75C27.2426 12.75 28.25 13.7574 28.25 15V22.75H36C37.2426 22.75 38.25 23.7574 38.25 25C38.25 26.2426 37.2426 27.25 36 27.25H28.25V35C28.25 36.2426 27.2426 37.25 26 37.25C24.7574 37.25 23.75 36.2426 23.75 35V27.25H16C14.7574 27.25 13.75 26.2426 13.75 25C13.75 23.7574 14.7574 22.75 16 22.75H23.75V15C23.75 13.7574 24.7574 12.75 26 12.75Z"
  />
</svg>
