<svg
  width="60"
  height="60"
  viewBox="0 0 60 60"
  fill="currentColor"
  xmlns="http://www.w3.org/2000/svg"
>
  <path
    fill-rule="evenodd"
    clip-rule="evenodd"
    d="M35.1348 8.38938C32.8076 9.08883 30.4587 10.1504 28.783 11.8361C25.4632 15.1758 23.7215 19.6345 23.8654 23.8888L23.7576 23.7803L6.07703 39.8055L6.03572 39.8471C2.98793 42.9132 2.98793 47.8787 6.03572 50.9448C9.07601 54.0034 14.0016 54.0183 17.0603 50.9896L34.4225 35.253C36.1994 35.2827 37.9879 34.9632 39.565 34.433C43.3578 33.1579 47.432 30.1413 47.7449 25.6512C47.8903 23.5644 49.1287 19.7649 50.4819 16.2162C51.1355 14.5019 51.7799 12.9363 52.2613 11.7984C52.5017 11.23 52.7009 10.7699 52.8394 10.4531C52.9086 10.2947 52.9626 10.1722 52.999 10.0901L53.0401 9.99761L53.0529 9.96896L54.3946 6.97709L51.1203 6.80155L50.9999 9.04832C51.1203 6.80155 51.1203 6.80155 51.1203 6.80155L51.1144 6.80123L51.1028 6.80064L51.0631 6.79868C51.0293 6.79706 50.9812 6.79485 50.9193 6.79226C50.7957 6.78708 50.6174 6.78037 50.3908 6.77383C49.9379 6.76075 49.2905 6.74831 48.4997 6.75019C46.9217 6.75394 44.754 6.81469 42.4084 7.04524C40.0728 7.27483 37.5001 7.67845 35.1348 8.38938ZM47.6099 11.2587C47.2059 12.2383 46.7444 13.3874 46.2772 14.6129C44.9668 18.0494 43.4555 22.4731 43.2558 25.3384C43.1331 27.0989 41.28 29.1089 38.131 30.1676C35.0078 31.2176 32.109 30.8105 30.7478 29.4411C27.3264 25.9992 27.4611 19.5491 31.9745 15.0085C32.8845 14.0931 34.406 13.3073 36.4301 12.6989C38.416 12.102 40.6754 11.7373 42.8486 11.5237C44.6005 11.3515 46.257 11.2811 47.6099 11.2587ZM28.2978 34.7309L13.955 47.7308L13.9137 47.7724C12.618 49.0759 10.5229 49.0759 9.22721 47.7724C7.93614 46.4736 7.92421 44.3698 9.19141 43.0561L23.5956 30.0004L28.2978 34.7309Z"
  />
</svg>
