<svg
  width="60"
  height="60"
  viewBox="0 0 60 60"
  fill="currentColor"
  xmlns="http://www.w3.org/2000/svg"
>
  <path
    d="M25.9999 12.75C27.2425 12.75 28.2499 13.7574 28.2499 15V22.75H35.9999C37.2425 22.75 38.2499 23.7574 38.2499 25C38.2499 26.2427 37.2425 27.25 35.9999 27.25H28.2499V35C28.2499 36.2427 27.2425 37.25 25.9999 37.25C24.7572 37.25 23.7499 36.2427 23.7499 35V27.25H15.9999C14.7572 27.25 13.7499 26.2427 13.7499 25C13.7499 23.7574 14.7572 22.75 15.9999 22.75H23.7499V15C23.7499 13.7574 24.7572 12.75 25.9999 12.75Z"
  />
  <path
    fill-rule="evenodd"
    clip-rule="evenodd"
    d="M36.6489 3.88302C22.2856 0.158181 7.62888 8.79502 3.9095 23.1684C0.190348 37.5409 8.81386 52.2135 23.1762 55.9382C24.3339 56.2384 25.4625 56.3002 26.5383 56.0495C27.6278 55.7956 28.5203 55.254 29.2408 54.5656C30.5888 53.2778 31.3789 51.4166 31.9722 49.8469C32.1804 49.296 32.3694 48.7672 32.5527 48.2544C32.9527 47.1353 33.3252 46.093 33.8097 45.0666C34.4896 43.6259 35.2313 42.6012 36.157 41.9776C36.8044 41.5414 37.936 41.2697 39.7197 41.2169C40.9668 41.18 42.2662 41.2479 43.6584 41.3207C44.2367 41.3509 44.8312 41.382 45.4444 41.4067C47.388 41.4851 49.5693 41.5015 51.4131 40.9874C53.3995 40.4336 55.2646 39.1683 55.9155 36.6528C59.6347 22.2803 51.0112 7.60763 36.6489 3.88302ZM8.266 24.2957C11.3635 12.3256 23.5663 5.13916 35.5192 8.23893C47.473 11.3389 54.6568 23.5544 51.559 35.5254C51.4253 36.0422 51.1451 36.3905 50.2045 36.6527C49.1212 36.9548 47.5937 36.9897 45.6258 36.9104C45.1372 36.8907 44.6183 36.8635 44.0824 36.8355C42.6198 36.7592 41.0304 36.6761 39.5866 36.7189C37.6323 36.7767 35.4021 37.0603 33.6428 38.2454C31.748 39.5219 30.572 41.3834 29.7402 43.1459C29.1575 44.3804 28.6627 45.7631 28.2312 46.9689C28.0663 47.4298 27.9106 47.8648 27.7628 48.2559C27.159 49.8534 26.6608 50.807 26.1323 51.3119C25.9146 51.5199 25.7218 51.6192 25.5168 51.667C25.2981 51.7179 24.9231 51.7423 24.3058 51.5822C12.352 48.4822 5.16826 36.2668 8.266 24.2957Z"
  />
</svg>
