<svg
  width="60"
  height="60"
  viewBox="0 0 60 60"
  fill="currentColor"
  xmlns="http://www.w3.org/2000/svg"
>
  <path
    d="M30.4281 48.9625C31.5154 45.9229 32.6894 42.6411 35.274 40.9C37.498 39.4017 41.2399 39.5971 44.9176 39.7892C49.7956 40.044 54.5608 40.2929 55.5226 36.5762C57.7295 28.0475 55.5244 19.4126 50.3304 13.0924C49.5662 12.1626 48.1554 12.2364 47.4058 13.1779L40.4468 21.9182C39.7005 20.0689 38.5001 18.3191 36.9063 16.7253C35.0358 14.8547 32.9505 13.5262 30.7417 12.8375L37.1562 7.44389C38.2971 6.48459 37.9897 4.6727 36.5468 4.29853C22.403 0.630586 7.96714 9.1349 4.30335 23.2934C0.639557 37.452 9.13528 51.9032 23.2791 55.5712C27.6579 56.7067 28.9645 53.0541 30.4281 48.9625Z"
  />
  <path
    d="M18.5669 35.5225C18.4196 35.5112 18.2783 35.4996 18.1436 35.4881C18.1321 35.3534 18.1206 35.2122 18.1093 35.0649C18.0052 33.7107 17.9177 31.8645 17.9796 29.8799C18.0418 27.8846 18.2532 25.8174 18.7181 23.9963C19.1907 22.145 19.8726 20.7586 20.724 19.9073C22.9123 17.719 25.1562 16.7958 27.2242 16.7958C29.2923 16.7958 31.5362 17.719 33.7245 19.9073C35.9128 22.0955 36.8359 24.3394 36.8359 26.4075C36.8359 28.4756 35.9128 30.7195 33.7245 32.9078C32.8732 33.7591 31.4867 34.441 29.6354 34.9137C27.8144 35.3786 25.7472 35.59 23.7518 35.6522C21.7673 35.7141 19.9211 35.6266 18.5669 35.5225Z"
    fill="white"
  />
</svg>
