<svg
  width="60"
  height="60"
  viewBox="0 0 60 60"
  fill="currentColor"
  xmlns="http://www.w3.org/2000/svg"
>
  <path
    fill-rule="evenodd"
    clip-rule="evenodd"
    d="M36.6118 3.87307C22.2485 0.148232 7.59177 8.78507 3.87239 23.1585C0.153238 37.5309 8.77675 52.2036 23.1391 55.9282C24.2968 56.2284 25.4254 56.2903 26.5012 56.0396C27.5907 55.7856 28.4832 55.2441 29.2037 54.5557C30.5517 53.2679 31.3418 51.4067 31.9351 49.8369C32.1433 49.2861 32.3323 48.7572 32.5156 48.2445C32.9156 47.1254 33.2881 46.083 33.7726 45.0566C34.4525 43.616 35.1942 42.5913 36.1199 41.9676C36.7673 41.5315 37.8989 41.2597 39.6826 41.2069C40.9296 41.17 42.2288 41.2379 43.6209 41.3107C44.1993 41.3409 44.794 41.372 45.4073 41.3968C47.3509 41.4752 49.5322 41.4915 51.3759 40.9775C53.3624 40.4236 55.2275 39.1584 55.8784 36.6428C57.97 28.5601 56.1559 20.3814 51.6198 14.1145C51.579 14.0581 51.5367 13.9987 51.4927 13.9371C51.0068 13.2558 50.3213 12.2946 49.1802 11.8236C48.2414 11.4361 47.0747 11.4093 46.119 11.7534C45.4152 12.0068 44.9081 12.4267 44.5186 12.8254C44.1798 13.1723 43.8307 13.6109 43.4933 14.0349L39.1445 19.4969C37.6928 17.1915 35.7565 15.4386 33.796 14.2862L38.0619 10.6993C40.3206 8.80006 39.9729 4.74471 36.6118 3.87307ZM8.22889 24.2858C11.2266 12.7014 22.7522 5.59738 34.326 7.96116L28.3237 13.0082C25.4901 13.1222 22.8279 14.4574 20.5698 16.7154C19.1457 18.1396 18.3464 20.0655 17.8774 21.9027C17.4006 23.7702 17.2097 25.7677 17.1541 27.5526C17.0982 29.3483 17.1773 30.9979 17.2693 32.1945C17.3154 32.7949 17.3652 33.2865 17.404 33.6317C17.4234 33.8045 17.4401 33.9409 17.4522 34.0364C17.4583 34.0842 17.4632 34.1217 17.4668 34.1485L17.4712 34.1804L17.4725 34.1902L17.4731 34.1948L17.7092 35.875L19.3894 36.1111L19.394 36.1117L19.4038 36.113L19.4357 36.1174C19.4625 36.121 19.5 36.1259 19.5478 36.132C19.6433 36.1441 19.7797 36.1608 19.9524 36.1802C20.2977 36.219 20.7893 36.2688 21.3897 36.3149C22.5863 36.4069 24.2359 36.486 26.0316 36.4301C27.8165 36.3744 29.814 36.1836 31.6815 35.7068C33.5187 35.2378 35.4446 34.4385 36.8688 33.0143C39.2187 30.6644 40.5692 27.8766 40.5839 24.9135L46.9637 16.9008C47.1583 16.6563 47.3103 16.4656 47.4446 16.3035C47.4835 16.2565 47.5188 16.2146 47.551 16.177L47.5799 16.2148C47.6889 16.3586 47.8118 16.5283 47.9745 16.7531C51.7576 21.9796 53.2634 28.7856 51.5219 35.5155C51.3882 36.0322 51.108 36.3805 50.1674 36.6428C49.0841 36.9448 47.5566 36.9798 45.5887 36.9004C45.1002 36.8807 44.5812 36.8536 44.0453 36.8256C42.5827 36.7492 40.9934 36.6662 39.5495 36.7089C37.5952 36.7667 35.365 37.0504 33.6057 38.2355C31.7109 39.5119 30.5349 41.3735 29.7031 43.1359C29.1204 44.3705 28.6256 45.7531 28.1941 46.959C28.0292 47.4198 27.8735 47.8549 27.7257 48.2459C27.1219 49.8435 26.6237 50.797 26.0952 51.3019C25.8775 51.5099 25.6847 51.6093 25.4797 51.657C25.261 51.708 24.886 51.7324 24.2687 51.5723C12.3149 48.4723 5.13115 36.2569 8.22889 24.2858ZM25.8914 31.9323C24.3121 31.9815 22.84 31.9126 21.7545 31.8297C21.6716 30.7442 21.6027 29.2721 21.6519 27.6928C21.7018 26.093 21.8711 24.451 22.2375 23.0159C22.6116 21.5505 23.1386 20.5107 23.7518 19.8974C25.4639 18.1853 27.1795 17.5002 28.7193 17.5002C30.2591 17.5002 31.9747 18.1853 33.6868 19.8974C35.3989 21.6095 36.084 23.3251 36.084 24.8649C36.084 26.4047 35.3989 28.1203 33.6868 29.8324C33.0735 30.4456 32.0337 30.9726 30.5683 31.3467C29.1332 31.7131 27.4912 31.8824 25.8914 31.9323Z"
  />
</svg>
