<svg
  width="60"
  height="60"
  viewBox="0 0 60 60"
  fill="currentColor"
  xmlns="http://www.w3.org/2000/svg"
>
  <path
    d="M20 45C22.2091 45 24 43.2091 24 41C24 38.7908 22.2091 37 20 37C17.7908 37 16 38.7908 16 41C16 43.2091 17.7908 45 20 45Z"
  />
  <path
    d="M18 31C18 32.6568 16.6568 34 15 34C13.3431 34 12 32.6568 12 31C12 29.3431 13.3431 28 15 28C16.6568 28 18 29.3431 18 31Z"
  />
  <path
    d="M17 23C18.1046 23 19 22.1045 19 21C19 19.8954 18.1046 19 17 19C15.8954 19 15 19.8954 15 21C15 22.1045 15.8954 23 17 23Z"
  />
  <path
    fill-rule="evenodd"
    clip-rule="evenodd"
    d="M36.6491 3.88284C22.2859 0.157998 7.62912 8.79483 3.90974 23.1682C0.190592 37.5407 8.8141 52.2134 23.1764 55.938C24.3341 56.2382 25.4628 56.3 26.5385 56.0493C27.6281 55.7954 28.5206 55.2538 29.2411 54.5655C30.5891 53.2776 31.3791 51.4165 31.9724 49.8467C32.1806 49.2959 32.3697 48.767 32.5529 48.2542C32.9529 47.1351 33.3255 46.0928 33.8099 45.0664C34.4899 43.6257 35.2315 42.601 36.1573 41.9774C36.8047 41.5413 37.9362 41.2695 39.72 41.2167C40.9671 41.1798 42.2664 41.2477 43.6587 41.3205C44.2368 41.3507 44.8316 41.3818 45.4447 41.4065C47.3883 41.4849 49.5695 41.5013 51.4133 40.9872C53.3998 40.4334 55.2649 39.1681 55.9158 36.6526C59.6349 22.2801 51.0114 7.60745 36.6491 3.88284ZM8.26625 24.2955C11.3638 12.3254 23.5666 5.13898 35.5195 8.23875C47.4733 11.3388 54.657 23.5542 51.5593 35.5253C51.4256 36.042 51.1454 36.3903 50.2047 36.6526C49.1215 36.9546 47.594 36.9896 45.626 36.9102C45.1378 36.8905 44.6192 36.8634 44.0835 36.8354C42.6209 36.759 41.0307 36.6759 39.5869 36.7187C37.6326 36.7765 35.4023 37.0601 33.6431 38.2453C31.7483 39.5217 30.5722 41.3833 29.7404 43.1457C29.1577 44.3803 28.663 45.7629 28.2315 46.9687C28.0667 47.4293 27.9108 47.8649 27.7631 48.2557C27.1593 49.8532 26.661 50.8068 26.1325 51.3117C25.9148 51.5197 25.722 51.619 25.5171 51.6668C25.2983 51.7178 24.9233 51.7421 24.3061 51.5821C12.3522 48.4821 5.16851 36.2666 8.26625 24.2955Z"
  />
</svg>
