<svg
  width="60"
  height="60"
  viewBox="0 0 60 60"
  fill="currentColor"
  xmlns="http://www.w3.org/2000/svg"
>
  <path
    fill-rule="evenodd"
    clip-rule="evenodd"
    d="M9.75 14C9.75 7.7868 14.7868 2.75 21 2.75H39C45.2132 2.75 50.25 7.7868 50.25 14V46C50.25 52.2132 45.2132 57.25 39 57.25H21C14.7868 57.25 9.75 52.2132 9.75 46V14ZM21 7.25C17.2721 7.25 14.25 10.2721 14.25 14V46C14.25 49.7279 17.2721 52.75 21 52.75H39C42.7279 52.75 45.75 49.7279 45.75 46V14C45.75 10.2721 42.7279 7.25 39 7.25H21Z"
  />
  <path
    fill-rule="evenodd"
    clip-rule="evenodd"
    d="M30 18.25C27.3766 18.25 25.25 20.3766 25.25 23C25.25 25.6234 27.3766 27.75 30 27.75C32.6234 27.75 34.75 25.6234 34.75 23C34.75 20.3766 32.6234 18.25 30 18.25ZM20.75 23C20.75 17.8914 24.8914 13.75 30 13.75C35.1086 13.75 39.25 17.8914 39.25 23C39.25 28.1086 35.1086 32.25 30 32.25C24.8914 32.25 20.75 28.1086 20.75 23Z"
  />
  <path
    fill-rule="evenodd"
    clip-rule="evenodd"
    d="M21.75 39.75C21.75 38.5074 22.7574 37.5 24 37.5H36C37.2426 37.5 38.25 38.5074 38.25 39.75C38.25 40.9926 37.2426 42 36 42H24C22.7574 42 21.75 40.9926 21.75 39.75Z"
  />
</svg>
