<svg
  width="60"
  height="60"
  viewBox="0 0 60 60"
  fill="currentColor"
  xmlns="http://www.w3.org/2000/svg"
>
  <path
    fill-rule="evenodd"
    clip-rule="evenodd"
    d="M27.6963 3.75H20.3037C17.8652 3.74998 15.8983 3.74996 14.3056 3.88009C12.6657 4.01408 11.2253 4.29716 9.89261 4.97618C7.77578 6.05475 6.05475 7.77578 4.97618 9.89261C4.29716 11.2253 4.01408 12.6657 3.88009 14.3056C3.74996 15.8983 3.74998 17.8652 3.75 20.3037V27.6963C3.74998 30.1348 3.74996 32.1017 3.88009 33.6944C4.01408 35.3343 4.29716 36.7747 4.97618 38.1074C6.05475 40.2242 7.77578 41.9452 9.89261 43.0238C11.2253 43.7028 12.6657 43.9859 14.3056 44.1199C15.8983 44.25 17.8651 44.25 20.3036 44.25H27.6964C30.1348 44.25 32.1017 44.25 33.6944 44.1199C35.3343 43.9859 36.7747 43.7028 38.1074 43.0238C40.2242 41.9452 41.9452 40.2242 43.0238 38.1074C43.7028 36.7747 43.9859 35.3343 44.1199 33.6944C44.25 32.1017 44.25 30.1349 44.25 27.6964V20.3036C44.25 17.8652 44.25 15.8983 44.1199 14.3056C43.9859 12.6657 43.7028 11.2253 43.0238 9.89261C41.9452 7.77578 40.2242 6.05475 38.1074 4.97618C36.7747 4.29716 35.3343 4.01408 33.6944 3.88009C32.1017 3.74996 30.1348 3.74998 27.6963 3.75ZM11.9356 8.98571C12.5281 8.68379 13.3104 8.4764 14.672 8.36515C16.0599 8.25175 17.8426 8.25 20.4 8.25H27.6C30.1574 8.25 31.9401 8.25175 33.328 8.36515C34.6896 8.4764 35.4719 8.68379 36.0644 8.98571C37.3345 9.63285 38.3671 10.6655 39.0143 11.9356C39.3162 12.5281 39.5236 13.3104 39.6349 14.672C39.7482 16.0599 39.75 17.8426 39.75 20.4V27.6C39.75 30.1574 39.7482 31.9401 39.6349 33.328C39.5236 34.6896 39.3162 35.4719 39.0143 36.0644C38.3671 37.3345 37.3345 38.3671 36.0644 39.0143C35.4719 39.3162 34.6896 39.5236 33.328 39.6349C31.9401 39.7482 30.1574 39.75 27.6 39.75H20.4C17.8426 39.75 16.0599 39.7482 14.672 39.6349C13.3104 39.5236 12.5281 39.3162 11.9356 39.0143C10.6655 38.3671 9.63285 37.3345 8.98571 36.0644C8.68379 35.4719 8.4764 34.6896 8.36515 33.328C8.25175 31.9401 8.25 30.1574 8.25 27.6V20.4C8.25 17.8426 8.25175 16.0599 8.36515 14.672C8.4764 13.3104 8.68379 12.5281 8.98571 11.9356C9.63285 10.6655 10.6655 9.63285 11.9356 8.98571Z"
  />
  <path
    d="M48.707 16.3756C47.5337 15.9663 46.2507 16.5856 45.8414 17.7589C45.4321 18.9321 46.0514 20.2151 47.2247 20.6244C48.0708 20.9196 48.8422 21.3798 49.4997 21.9682C50.8842 23.2074 51.7502 25.001 51.7502 27C51.7502 28.2426 52.7576 29.25 54.0002 29.25C55.2429 29.25 56.2502 28.2426 56.2502 27C56.2502 23.6679 54.7987 20.6718 52.5008 18.6151C51.4092 17.6381 50.1237 16.8698 48.707 16.3756Z"
  />
  <path
    d="M56.2502 33.75C56.2502 32.5073 55.2429 31.5 54.0002 31.5C52.7576 31.5 51.7502 32.5073 51.7502 33.75V38.25C51.7502 39.4926 52.7576 40.5 54.0002 40.5C55.2429 40.5 56.2502 39.4926 56.2502 38.25V33.75Z"
  />
  <path
    d="M56.2502 45C56.2502 43.7573 55.2429 42.75 54.0002 42.75C52.7576 42.75 51.7502 43.7573 51.7502 45C51.7502 46.2332 51.4216 47.3828 50.8485 48.3734C50.3294 49.2708 49.6086 50.039 48.7485 50.6147C47.6772 51.3318 46.391 51.75 45.0002 51.75C43.7576 51.75 42.7502 52.7573 42.7502 54C42.7502 55.2426 43.7576 56.25 45.0002 56.25C47.3096 56.25 49.4628 55.5517 51.2516 54.3543C52.6814 53.3973 53.8791 52.1213 54.7438 50.6267C55.7023 48.9696 56.2502 47.0454 56.2502 45Z"
  />
  <path
    d="M20.7787 47.6243C20.2951 46.4796 18.9751 45.9438 17.8305 46.4274C16.6858 46.911 16.1499 48.231 16.6336 49.3757C17.121 50.5294 17.7945 51.5834 18.6153 52.5005C20.6721 54.7985 23.6681 56.25 27.0002 56.25H27.5002C28.7429 56.25 29.7502 55.2426 29.7502 54C29.7502 52.7573 28.7429 51.75 27.5002 51.75H27.0002C25.0013 51.75 23.2076 50.8839 21.9685 49.4994C21.4741 48.9471 21.0702 48.3142 20.7787 47.6243Z"
  />
  <path
    d="M33.7502 51.75C32.5076 51.75 31.5002 52.7573 31.5002 54C31.5002 55.2426 32.5076 56.25 33.7502 56.25H38.2502C39.4929 56.25 40.5002 55.2426 40.5002 54C40.5002 52.7573 39.4929 51.75 38.2502 51.75H33.7502Z"
  />
</svg>
