<svg
  width="60"
  height="60"
  viewBox="0 0 60 60"
  fill="currentColor"
  xmlns="http://www.w3.org/2000/svg"
>
  <path
    fill-rule="evenodd"
    clip-rule="evenodd"
    d="M8.75 11C8.75 7.54822 11.5482 4.75 15 4.75H18C21.4518 4.75 24.25 7.54822 24.25 11V49C24.25 52.4518 21.4518 55.25 18 55.25H15C11.5482 55.25 8.75 52.4518 8.75 49V11ZM15 9.25C14.0335 9.25 13.25 10.0335 13.25 11V49C13.25 49.9665 14.0335 50.75 15 50.75H18C18.9665 50.75 19.75 49.9665 19.75 49V11C19.75 10.0335 18.9665 9.25 18 9.25H15Z"
  />
  <path
    fill-rule="evenodd"
    clip-rule="evenodd"
    d="M35.75 11C35.75 7.54822 38.5482 4.75 42 4.75H45C48.4518 4.75 51.25 7.54822 51.25 11V49C51.25 52.4518 48.4518 55.25 45 55.25H42C38.5482 55.25 35.75 52.4518 35.75 49V11ZM42 9.25C41.0335 9.25 40.25 10.0335 40.25 11V49C40.25 49.9665 41.0335 50.75 42 50.75H45C45.9665 50.75 46.75 49.9665 46.75 49V11C46.75 10.0335 45.9665 9.25 45 9.25H42Z"
  />
</svg>
