<svg
  width="60"
  height="60"
  viewBox="0 0 60 60"
  fill="currentColor"
  xmlns="http://www.w3.org/2000/svg"
>
  <path
    d="M38 27C38 29.7614 35.7614 32 33 32C30.2386 32 28 29.7614 28 27C28 24.2386 30.2386 22 33 22C35.7614 22 38 24.2386 38 27Z"
  />
  <path
    fill-rule="evenodd"
    clip-rule="evenodd"
    d="M15.7214 43.25H50.2787C51.051 43.2501 51.7606 43.2501 52.3536 43.2017C52.993 43.1494 53.6925 43.0298 54.3834 42.6778C55.3713 42.1745 56.1744 41.3713 56.6778 40.3835C57.0298 39.6925 57.1494 38.993 57.2017 38.3536C57.2501 37.7606 57.2501 37.0513 57.25 36.2789V16.7213C57.2501 15.949 57.2501 15.2394 57.2017 14.6464C57.1494 14.007 57.0298 13.3075 56.6778 12.6166C56.1744 11.6287 55.3713 10.8256 54.3834 10.3222C53.6925 9.97018 52.993 9.8506 52.3536 9.79835C51.7605 9.7499 51.0511 9.74995 50.2786 9.75H15.7214C14.9489 9.74995 14.2395 9.7499 13.6464 9.79835C13.007 9.8506 12.3075 9.97018 11.6166 10.3222C10.6287 10.8256 9.82555 11.6287 9.32222 12.6166C8.97018 13.3075 8.85059 14.007 8.79835 14.6464C8.74989 15.2395 8.74994 15.9489 8.75 16.7214V36.2787C8.74994 37.0511 8.74989 37.7606 8.79835 38.3536C8.85059 38.993 8.97018 39.6925 9.32222 40.3835C9.82555 41.3713 10.6287 42.1745 11.6166 42.6778C12.3075 43.0298 13.007 43.1494 13.6464 43.2017C14.2394 43.2501 14.949 43.2501 15.7214 43.25ZM47.4877 38.75H18.5123C18.1775 37.5749 17.6282 36.4718 16.7437 35.5353C15.7703 34.5046 14.5734 33.8633 13.25 33.4797L13.25 19.4906C14.5734 19.1069 15.7703 18.4656 16.7437 17.4349C17.6207 16.5063 18.1682 15.4139 18.5038 14.25H47.4962C47.8318 15.4139 48.3793 16.5063 49.2563 17.4349C50.2297 18.4656 51.4266 19.1069 52.75 19.4906V33.4797C51.4266 33.8633 50.2297 34.5046 49.2563 35.5353C48.3718 36.4718 47.8225 37.5749 47.4877 38.75Z"
  />
  <path
    d="M54 50.25C55.2426 50.25 56.25 49.2426 56.25 48C56.25 46.7574 55.2426 45.75 54 45.75L13 45.75C9.27208 45.75 6.25 42.7279 6.25 39L6.25 15C6.25 13.7574 5.24264 12.75 4 12.75C2.75736 12.75 1.75 13.7574 1.75 15V39C1.75 45.2132 6.7868 50.25 13 50.25L54 50.25Z"
  />
</svg>
