<svg
  width="60"
  height="60"
  viewBox="0 0 60 60"
  fill="currentColor"
  xmlns="http://www.w3.org/2000/svg"
>
  <path
    fill-rule="evenodd"
    clip-rule="evenodd"
    d="M33 8.25C29.5271 8.25 26.6641 10.8746 26.2913 14.2472L26.0699 16.25H23.6C21.8827 16.25 20.7301 16.2517 19.8424 16.3243C18.9811 16.3946 18.5692 16.5203 18.2975 16.6587C17.5919 17.0183 17.0183 17.5919 16.6587 18.2975C16.5203 18.5692 16.3946 18.9811 16.3243 19.8424C16.2517 20.7301 16.25 21.8827 16.25 23.6V28.0699L14.2472 28.2913C10.8746 28.6641 8.25 31.5271 8.25 35C8.25 38.4729 10.8747 41.3359 14.2473 41.7087L16.2488 41.9299L16.2501 43.9436C16.2511 45.4683 16.2619 46.5008 16.3363 47.2954C16.4084 48.064 16.5284 48.4466 16.6587 48.7025C17.0182 49.4081 17.5919 49.9817 18.2975 50.3413C18.5692 50.4797 18.9811 50.6054 19.8424 50.6757C20.7301 50.7482 21.8827 50.75 23.6 50.75H43.4C45.1173 50.75 46.2699 50.7482 47.1576 50.6757C48.0189 50.6054 48.4308 50.4797 48.7025 50.3413C49.4081 49.9817 49.9817 49.4081 50.3413 48.7025C50.4716 48.4466 50.5916 48.064 50.6637 47.2954C50.7037 46.8684 50.7253 46.3727 50.7369 45.769C46.1143 44.3699 42.75 40.079 42.75 35C42.75 29.9162 46.1207 25.622 50.75 24.2271V23.6C50.75 21.8827 50.7482 20.7301 50.6757 19.8424C50.6054 18.9811 50.4797 18.5692 50.3413 18.2975C49.9817 17.5919 49.4081 17.0183 48.7025 16.6587C48.4308 16.5203 48.0189 16.3946 47.1576 16.3243C46.2699 16.2517 45.1173 16.25 43.4 16.25H39.9301L39.7087 14.2472C39.3359 10.8746 36.4729 8.25 33 8.25ZM22.2265 11.7519C23.6208 7.1216 27.9155 3.75 33 3.75C38.0838 3.75 42.378 7.12067 43.7729 11.75C45.2512 11.7503 46.496 11.7552 47.524 11.8392C48.6637 11.9323 49.7336 12.1337 50.7454 12.6492C52.2978 13.4402 53.5598 14.7022 54.3508 16.2546C54.8663 17.2664 55.0677 18.3363 55.1608 19.476C55.2501 20.5687 55.25 21.9062 55.25 23.5086V28.0699L53.2472 28.2913C49.8746 28.6641 47.25 31.5271 47.25 35C47.25 38.4729 49.8746 41.3358 53.2471 41.7087L55.2512 41.9302L55.2499 43.9465C55.249 45.4227 55.2416 46.6736 55.144 47.7152C55.044 48.7827 54.838 49.7892 54.3508 50.7454C53.5598 52.2978 52.2978 53.5598 50.7454 54.3508C49.7336 54.8663 48.6637 55.0677 47.524 55.1608C46.4313 55.2501 45.0938 55.25 43.4914 55.25H23.5086C21.9062 55.25 20.5687 55.2501 19.476 55.1608C18.3363 55.0677 17.2664 54.8663 16.2546 54.3508C14.7022 53.5598 13.4402 52.2978 12.6492 50.7454C12.162 49.7892 11.956 48.7827 11.856 47.7152C11.8016 47.1349 11.7752 46.4896 11.7624 45.7766C7.12669 44.3857 3.75 40.0884 3.75 35C3.75 29.9162 7.12066 25.622 11.75 24.2271L11.75 23.5087C11.75 21.9062 11.7499 20.5687 11.8392 19.476C11.9323 18.3363 12.1337 17.2664 12.6492 16.2546C13.4402 14.7022 14.7022 13.4402 16.2546 12.6492C17.2664 12.1337 18.3363 11.9323 19.476 11.8392C20.2632 11.7749 21.1776 11.7569 22.2265 11.7519Z"
  />
</svg>
