<svg
  width="60"
  height="60"
  viewBox="0 0 60 60"
  fill="currentColor"
  xmlns="http://www.w3.org/2000/svg"
>
  <path
    d="M38.6963 4.75H21.3037C18.8652 4.74998 16.8983 4.74996 15.3056 4.88009C13.6657 5.01408 12.2253 5.29716 10.8926 5.97618C8.77578 7.05475 7.05475 8.77578 5.97618 10.8926C5.29716 12.2253 5.01408 13.6657 4.88009 15.3056C4.74996 16.8983 4.74998 18.8652 4.75 21.3037V38.6963C4.74998 41.1348 4.74996 43.1017 4.88009 44.6944C5.01408 46.3343 5.29716 47.7747 5.97618 49.1074C7.05475 51.2242 8.77578 52.9452 10.8926 54.0238C12.2253 54.7028 13.6657 54.9859 15.3056 55.1199C16.8983 55.25 18.8651 55.25 21.3036 55.25H38.6964C41.1348 55.25 43.1017 55.25 44.6944 55.1199C46.3343 54.9859 47.7747 54.7028 49.1074 54.0238C51.2242 52.9452 52.9452 51.2242 54.0238 49.1074C54.7028 47.7747 54.9859 46.3343 55.1199 44.6944C55.25 43.1017 55.25 41.1349 55.25 38.6964V21.3036C55.25 18.8652 55.25 16.8983 55.1199 15.3056C54.9859 13.6657 54.7028 12.2253 54.0238 10.8926C52.9452 8.77578 51.2242 7.05475 49.1074 5.97618C47.7747 5.29716 46.3343 5.01408 44.6944 4.88009C43.1017 4.74996 41.1348 4.74998 38.6963 4.75Z"
    fill="#E55649"
  />
  <path
    fill-rule="evenodd"
    clip-rule="evenodd"
    d="M31.0767 18.9541C31.1371 18.3832 31.1715 17.8601 31.1766 17.4001C31.1822 16.8814 31.1558 16.2361 30.9797 15.6584C30.8964 15.3853 30.7031 14.861 30.2284 14.4164C29.6243 13.8506 28.7789 13.6186 27.9525 13.8231C26.7188 14.1285 26.3465 15.2049 26.2895 15.3696L26.2893 15.3702C26.1748 15.7011 26.1431 16.0094 26.1306 16.1941C26.1034 16.596 26.1324 17.0416 26.1826 17.4659C26.2436 17.9815 26.3507 18.5853 26.5067 19.2496C26.4404 19.7238 26.3541 20.2514 26.2463 20.8259C25.6754 23.8681 24.5709 27.862 23.046 31.4389C21.8012 34.3586 20.4083 36.7262 19.1718 38.4942C18.9387 38.6595 18.7149 38.8231 18.5007 38.9843C17.365 39.8393 16.4293 40.6808 15.8036 41.4216C15.5105 41.7687 15.167 42.2303 14.9581 42.7571C14.8543 43.0189 14.7153 43.4643 14.7579 44.0064C14.8071 44.6334 15.1016 45.3136 15.7313 45.7867C16.2629 46.1861 16.8203 46.2546 17.1596 46.2497C17.4942 46.245 17.7607 46.1702 17.9149 46.1181C18.2228 46.0141 18.4693 45.8663 18.6146 45.7724C18.9304 45.5684 19.2512 45.2998 19.5505 45.0224C20.1687 44.4494 20.9305 43.6189 21.759 42.5615C21.9586 42.3067 22.1634 42.0371 22.3722 41.7529C24.2796 40.4733 26.8585 39.0686 29.9176 37.9299C33.4432 36.6176 37.0005 36.0708 39.612 35.9591C39.9307 35.9454 40.2306 35.9385 40.5105 35.9371C41.0883 36.1975 41.632 36.4054 42.1196 36.5496C42.5502 36.6769 43.0838 36.7998 43.6182 36.7969C43.8819 36.7955 44.3025 36.7645 44.7508 36.5717C45.2491 36.3575 45.8301 35.912 46.1074 35.141C46.4275 34.2508 46.1724 33.4021 45.7393 32.8419C45.3899 32.3899 44.9611 32.1546 44.7324 32.0441C44.243 31.8077 43.685 31.6856 43.2234 31.6115C42.7476 31.5351 42.1945 31.4831 41.582 31.4568C41.4361 31.3812 41.2849 31.3003 41.1288 31.2141C39.1717 30.1329 36.764 28.3849 34.8484 26.1792C33.0175 24.0711 31.8522 21.5001 31.2101 19.4082C31.1624 19.2528 31.118 19.1013 31.0767 18.9541ZM29.5217 26.5055C28.9032 28.6995 28.1193 31.0133 27.1855 33.2037C27.0145 33.6047 26.8408 33.9967 26.665 34.3797C27.2109 34.1499 27.7722 33.9269 28.3478 33.7126C30.4228 32.9402 32.4977 32.4012 34.433 32.0423C33.4 31.1777 32.3833 30.2036 31.4509 29.13C30.7204 28.2888 30.0802 27.4024 29.5217 26.5055Z"
    fill="white"
  />
</svg>
