<svg
  width="60"
  height="60"
  viewBox="0 0 60 60"
  fill="currentColor"
  xmlns="http://www.w3.org/2000/svg"
>
  <path
    fill-rule="evenodd"
    clip-rule="evenodd"
    d="M4.08993 8.46009C3 10.5992 3 13.3995 3 19V33C3 38.6005 3 41.4008 4.08993 43.5399C5.04867 45.4215 6.57847 46.9513 8.46009 47.9101C10.5992 49 13.3995 49 19 49C20.3298 49 21.3935 49.9972 21.9338 51.2122C21.9832 51.3233 22.0352 51.4324 22.0899 51.5399C23.0487 53.4215 24.5785 54.9513 26.4601 55.9101C28.5992 57 31.3995 57 37 57H41C46.6005 57 49.4008 57 51.5399 55.9101C53.4215 54.9513 54.9513 53.4215 55.9101 51.5399C57 49.4008 57 46.6005 57 41V37C57 31.3995 57 28.5992 55.9101 26.4601C54.9513 24.5785 53.4215 23.0487 51.5399 22.0899C50.8223 21.7243 50.0303 21.4813 49.0832 21.3199C47.9223 21.122 47 20.1777 47 19C47 13.3995 47 10.5992 45.9101 8.46009C44.9513 6.57847 43.4215 5.04867 41.5399 4.08993C39.4008 3 36.6005 3 31 3H19C13.3995 3 10.5992 3 8.46009 4.08993C6.57847 5.04867 5.04867 6.57847 4.08993 8.46009Z"
    fill="url(#paint0_linear_17647_946)"
  />
  <path
    fill-rule="evenodd"
    clip-rule="evenodd"
    d="M45.9338 31.8521C47.12 32.2222 47.7816 33.4839 47.4115 34.6701C46.7646 36.7437 45.4822 40.1762 43.3184 42.8356C43.9147 43.1862 44.6145 43.5429 45.3378 43.8759C46.0023 44.1819 46.6152 44.4363 47.0623 44.6142C47.2851 44.7029 47.4648 44.7718 47.5867 44.8178C47.6477 44.8408 47.6941 44.858 47.7241 44.869L47.7566 44.8809L47.7631 44.8833C48.9319 45.3048 49.5381 46.5941 49.1168 47.763C48.6954 48.932 47.4062 49.5381 46.2372 49.1167L47.0001 47C46.2372 49.1167 46.2372 49.1167 46.2372 49.1167L46.2302 49.1142L46.2163 49.1091L46.1688 49.0917C46.1285 49.0769 46.0712 49.0556 45.999 49.0283C45.8545 48.9739 45.6493 48.8952 45.3986 48.7954C44.8986 48.5964 44.2098 48.3107 43.4556 47.9634C42.401 47.4778 41.0368 46.7918 39.8969 45.9782C38.1779 47.1992 36.1372 48.2535 33.769 49.1145C32.6012 49.5392 31.3102 48.9367 30.8856 47.7689C30.4609 46.601 31.0634 45.3101 32.2313 44.8854C33.9733 44.252 35.4429 43.522 36.672 42.7285C36.0103 41.9162 35.4301 41.1299 34.9716 40.48C34.2554 39.4645 34.4979 38.0607 35.5133 37.3445C36.5288 36.6282 37.9326 36.8707 38.6489 37.8862C39.0445 38.4471 39.5171 39.0865 40.0363 39.7324C41.5067 37.8118 42.5261 35.2198 43.1158 33.3298C43.4859 32.1436 44.7476 31.482 45.9338 31.8521Z"
    fill="#FFD8BD"
  />
  <path
    fill-rule="evenodd"
    clip-rule="evenodd"
    d="M22.5149 13.3669C22.5537 12.9832 22.5763 12.6257 22.5799 12.3033C22.5844 11.9067 22.5663 11.3458 22.3992 10.8174C22.3194 10.5651 22.1272 10.0584 21.6516 9.62885C21.0519 9.08722 20.2345 8.88044 19.4514 9.06738C18.2308 9.35878 17.8454 10.4037 17.7813 10.5825C17.6643 10.9085 17.6342 11.2048 17.6229 11.3664C17.5979 11.7226 17.6252 12.0971 17.6657 12.4273C17.7111 12.7976 17.787 13.2194 17.8941 13.677C17.8487 13.9762 17.7915 14.3072 17.7215 14.6672C17.2974 16.8464 16.4745 19.715 15.342 22.2768C14.4392 24.3189 13.4325 25.9803 12.5358 27.2284C12.3853 27.3323 12.2398 27.4353 12.0995 27.5372C11.2213 28.1747 10.474 28.8188 9.95892 29.4068C9.72297 29.6762 9.40773 30.0761 9.20842 30.5609C9.10953 30.8014 8.96371 31.2409 9.00824 31.7878C9.06055 32.4303 9.37387 33.1038 10.002 33.5589C10.5322 33.943 11.0782 34.0042 11.4004 33.9998C11.7222 33.9954 11.9777 33.926 12.124 33.8784C12.416 33.7833 12.6453 33.6497 12.7724 33.5705C13.0507 33.3972 13.3216 33.1767 13.5604 32.9633C14.0576 32.5189 14.6566 31.8874 15.2998 31.0959C15.4343 30.9304 15.5717 30.7566 15.7115 30.5747C17.1119 29.6778 18.9971 28.6937 21.2313 27.8917C23.8446 26.9536 26.487 26.5617 28.4227 26.4818C28.6189 26.4738 28.8047 26.469 28.9795 26.4671C29.398 26.645 29.7967 26.7899 30.1617 26.894C30.5065 26.9924 30.9644 27.0968 31.4394 27.0944C31.6723 27.0932 32.0649 27.0673 32.4919 26.8902C32.9627 26.695 33.5581 26.2706 33.8479 25.4936C34.1892 24.5782 33.9097 23.7104 33.4683 23.1598C33.1185 22.7234 32.6997 22.5066 32.499 22.4131C32.0595 22.2084 31.5787 22.1105 31.2152 22.0542C30.8635 21.9997 30.4637 21.9618 30.0271 21.9406C29.9518 21.9023 29.8745 21.862 29.7953 21.8198C28.3557 21.0529 26.5898 19.8142 25.1952 18.2656C23.8833 16.809 23.0395 15.0199 22.5734 13.5555C22.553 13.4915 22.5335 13.4286 22.5149 13.3669ZM20.9556 20.2586C20.5984 21.3702 20.1853 22.5035 19.7195 23.605C20.8692 23.1935 22.018 22.8715 23.1264 22.6244C22.6757 22.2115 22.2363 21.7722 21.8179 21.3076C21.5103 20.9662 21.2233 20.6152 20.9556 20.2586Z"
    fill="white"
  />
  <defs>
    <linearGradient
      id="paint0_linear_17647_946"
      x1="5.3077"
      y1="6"
      x2="28.0798"
      y2="42.8619"
      gradientUnits="userSpaceOnUse"
    >
      <stop stop-color="#E47100" />
      <stop offset="1" stop-color="#FFA56D" />
    </linearGradient>
  </defs>
</svg>
