<svg
  width="60"
  height="60"
  viewBox="0 0 60 60"
  fill="currentColor"
  xmlns="http://www.w3.org/2000/svg"
>
  <path
    d="M40.3322 6.641e-07H19.6678C16.7705 -2.51376e-05 14.4336 -4.59428e-05 12.5413 0.154565C10.5929 0.313756 8.8815 0.650087 7.29815 1.45685C4.78311 2.73832 2.73832 4.78311 1.45685 7.29815C0.650087 8.8815 0.313756 10.5929 0.154565 12.5413C-4.59428e-05 14.4336 -2.51376e-05 16.7705 6.641e-07 19.6677V40.3322C-2.51376e-05 43.2295 -4.59428e-05 45.5664 0.154565 47.4587C0.313756 49.4071 0.650087 51.1185 1.45685 52.7019C2.73832 55.2169 4.78311 57.2617 7.29815 58.5432C8.8815 59.3499 10.5929 59.6862 12.5413 59.8454C14.4336 60 16.7704 60 19.6676 60H40.3323C43.2295 60 45.5664 60 47.4587 59.8454C49.4071 59.6862 51.1185 59.3499 52.7019 58.5432C55.2169 57.2617 57.2617 55.2169 58.5432 52.7019C59.3499 51.1185 59.6862 49.4071 59.8454 47.4587C60 45.5664 60 43.2296 60 40.3324V19.6677C60 16.7705 60 14.4336 59.8454 12.5413C59.6862 10.5929 59.3499 8.8815 58.5432 7.29815C57.2617 4.78311 55.2169 2.73832 52.7019 1.45685C51.1185 0.650087 49.4071 0.313756 47.4587 0.154565C45.5664 -4.59428e-05 43.2295 -2.51376e-05 40.3322 6.641e-07Z"
    fill="#D74134"
    fill-opacity="0.08"
  />
  <path
    fill-rule="evenodd"
    clip-rule="evenodd"
    d="M31.2794 16.8761C31.3511 16.1978 31.3921 15.5763 31.3981 15.0297C31.4048 14.4135 31.3734 13.6468 31.1641 12.9604C31.0652 12.6359 30.8355 12.013 30.2715 11.4847C29.5538 10.8126 28.5493 10.5369 27.5675 10.7799C26.1017 11.1428 25.6594 12.4216 25.5917 12.6173L25.5914 12.618C25.4554 13.0111 25.4177 13.3774 25.4028 13.5969C25.3705 14.0744 25.4049 14.6038 25.4646 15.108C25.5371 15.7206 25.6644 16.438 25.8497 17.2271C25.771 17.7906 25.6684 18.4174 25.5404 19.1C24.8621 22.7145 23.5497 27.4597 21.7379 31.7095C20.259 35.1785 18.6041 37.9914 17.1349 40.092C16.858 40.2885 16.5921 40.4828 16.3377 40.6744C14.9882 41.6902 13.8766 42.69 13.1332 43.5702C12.7849 43.9826 12.3768 44.531 12.1286 45.1569C12.0053 45.468 11.8401 45.9971 11.8907 46.6412C11.9492 47.3861 12.2991 48.1943 13.0473 48.7565C13.6788 49.231 14.3411 49.3123 14.7442 49.3066C15.1417 49.3009 15.4584 49.212 15.6416 49.1502C16.0074 49.0266 16.3003 48.851 16.473 48.7395C16.8482 48.4971 17.2293 48.1779 17.5849 47.8484C18.3195 47.1676 19.2245 46.1808 20.2088 44.9245C20.446 44.6218 20.6893 44.3015 20.9374 43.9638C23.2036 42.4435 26.2676 40.7745 29.9023 39.4216C34.0911 37.8624 38.3176 37.2128 41.4203 37.08C41.799 37.0638 42.1554 37.0556 42.4879 37.0539C43.1743 37.3633 43.8203 37.6103 44.3997 37.7816C44.9113 37.9329 45.5453 38.0789 46.1802 38.0755C46.4936 38.0739 46.9933 38.0369 47.5259 37.8079C48.1179 37.5534 48.8082 37.0241 49.1376 36.1081C49.518 35.0505 49.2149 34.042 48.7003 33.3764C48.2852 32.8394 47.7758 32.5599 47.504 32.4286C46.9225 32.1477 46.2596 32.0027 45.7111 31.9146C45.1459 31.8239 44.4887 31.762 43.761 31.7308C43.5876 31.6409 43.4079 31.5449 43.2225 31.4424C40.8973 30.1579 38.0367 28.081 35.7606 25.4604C33.5853 22.9557 32.2008 19.9011 31.4379 17.4157C31.3813 17.231 31.3285 17.051 31.2794 16.8761ZM29.4319 25.848C28.697 28.4548 27.7656 31.2039 26.6562 33.8063C26.4531 34.2827 26.2467 34.7485 26.0378 35.2035C26.6864 34.9305 27.3532 34.6655 28.0371 34.411C30.5024 33.4933 32.9677 32.8528 35.2671 32.4264C34.0397 31.3992 32.8318 30.2418 31.724 28.9662C30.856 27.9668 30.0954 26.9137 29.4319 25.848Z"
    fill="#ED6557"
  />
</svg>
