<svg
  width="60"
  height="60"
  viewBox="0 0 60 60"
  fill="currentColor"
  xmlns="http://www.w3.org/2000/svg"
>
  <path
    fill-rule="evenodd"
    clip-rule="evenodd"
    d="M23.8939 17.8429C23.9281 17.5052 23.9479 17.1907 23.9511 16.9069C23.9551 16.5579 23.9391 16.0643 23.7921 15.5993C23.7219 15.3773 23.5527 14.9314 23.1342 14.5534C22.6064 14.0768 21.887 13.8948 21.1979 14.0593C20.1236 14.3157 19.7845 15.2353 19.728 15.3926C19.6251 15.6795 19.5986 15.9402 19.5887 16.0825C19.5667 16.3959 19.5907 16.7255 19.6263 17.016C19.6663 17.3419 19.7331 17.7131 19.8273 18.1158C19.7874 18.3791 19.7371 18.6703 19.6754 18.9871C19.3022 20.9048 18.5781 23.4292 17.5814 25.6835C16.7869 27.4806 15.9009 28.9426 15.1118 30.041C14.9793 30.1324 14.8513 30.2231 14.7278 30.3127C13.9549 30.8737 13.2973 31.4405 12.844 31.958C12.6363 32.1951 12.3589 32.547 12.1835 32.9736C12.0965 33.1852 11.9681 33.572 12.0073 34.0532C12.0534 34.6186 12.3291 35.2113 12.8819 35.6118C13.3485 35.9499 13.829 36.0037 14.1126 35.9998C14.3958 35.9959 14.6206 35.9349 14.7493 35.893C15.0063 35.8093 15.2081 35.6917 15.32 35.6221C15.5649 35.4695 15.8033 35.2755 16.0135 35.0877C16.4511 34.6966 16.9782 34.1409 17.5442 33.4444C17.6626 33.2987 17.7835 33.1458 17.9066 32.9857C19.139 32.1964 20.798 31.3304 22.7642 30.6247C25.0641 29.7992 27.3896 29.4543 29.0931 29.384C29.2657 29.3769 29.4292 29.3727 29.5831 29.371C29.9514 29.5276 30.3022 29.6551 30.6235 29.7467C30.9269 29.8333 31.3299 29.9252 31.7479 29.923C31.9529 29.922 32.2984 29.8992 32.6742 29.7434C33.0885 29.5716 33.6125 29.1982 33.8675 28.5143C34.1679 27.7088 33.9219 26.9452 33.5334 26.4606C33.2256 26.0766 32.857 25.8858 32.6804 25.8035C32.2936 25.6234 31.8705 25.5372 31.5506 25.4877C31.2411 25.4398 30.8893 25.4064 30.505 25.3878C30.4387 25.354 30.3707 25.3186 30.301 25.2814C29.0341 24.6065 27.48 23.5165 26.2527 22.1538C25.0982 20.8719 24.3555 19.2976 23.9454 18.0088C23.9274 17.9526 23.9103 17.8972 23.8939 17.8429ZM22.5216 23.9076C22.2073 24.8858 21.8437 25.8831 21.4338 26.8524C22.4456 26.4903 23.4566 26.2069 24.4321 25.9895C24.0354 25.6262 23.6487 25.2395 23.2805 24.8307C23.0098 24.5302 22.7572 24.2213 22.5216 23.9076Z"
  />
  <path
    fill-rule="evenodd"
    clip-rule="evenodd"
    d="M31.4346 9.2622C31.2334 9.2509 30.9796 9.25001 30.2858 9.25001H21.0001C18.1627 9.25001 16.17 9.25176 14.6153 9.37878C13.087 9.50365 12.1812 9.73829 11.4817 10.0947C10.0234 10.8377 8.83781 12.0233 8.09479 13.4816C7.73838 14.1811 7.50374 15.0869 7.37886 16.6152C7.25184 18.1699 7.25009 20.1626 7.25009 23V30.1429C7.25009 32.9224 7.26431 33.9355 7.4444 34.7245C8.10684 37.6269 10.3732 39.8933 13.2756 40.5557C14.0646 40.7358 15.0777 40.75 17.8572 40.75H19.8572C22.8356 40.75 25.2501 43.1645 25.2501 46.1429C25.2501 49.2396 27.7605 51.75 30.8572 51.75H39.0001C41.8375 51.75 43.8302 51.7483 45.3849 51.6212C46.9132 51.4964 47.819 51.2617 48.5185 50.9053C49.9768 50.1623 51.1624 48.9767 51.9054 47.5184C52.2618 46.8189 52.4965 45.9131 52.6213 44.3848C52.7483 42.8301 52.7501 40.8374 52.7501 38V32C52.7501 27.7198 49.2803 24.25 45.0001 24.25C41.5483 24.25 38.7501 21.4518 38.7501 18V17.7143C38.7501 17.0205 38.7492 16.7667 38.7379 16.5655C38.5167 12.6272 35.3729 9.48336 31.4346 9.2622ZM30.3629 4.75C30.9522 4.74997 31.3427 4.74994 31.687 4.76928C37.9119 5.11886 42.8812 10.0882 43.2308 16.3131C43.2502 16.6574 43.2501 17.0479 43.2501 17.6371V18C43.2501 18.9665 44.0336 19.75 45.0001 19.75C51.7656 19.75 57.2501 25.2345 57.2501 32V38.0974C57.2501 40.8151 57.2501 42.9918 57.1064 44.7512C56.9588 46.5579 56.6484 48.1218 55.9149 49.5614C54.7405 51.8664 52.8665 53.7404 50.5615 54.9148C49.1219 55.6484 47.558 55.9587 45.7513 56.1063C43.9919 56.25 41.8152 56.25 39.0975 56.25H30.8572C25.2752 56.25 20.7501 51.7249 20.7501 46.1429C20.7501 45.6498 20.3503 45.25 19.8572 45.25H17.8572C17.7528 45.25 17.6499 45.25 17.5485 45.2501C15.1898 45.2506 13.6241 45.251 12.2742 44.9429C7.68664 43.8958 4.10431 40.3135 3.05723 35.7259C2.74912 34.376 2.74949 32.8102 2.75005 30.4516C2.75007 30.3502 2.75009 30.2473 2.75009 30.1429L2.75009 22.9026C2.75007 20.1849 2.75006 18.0082 2.89381 16.2488C3.04142 14.4421 3.35175 12.8782 4.08526 11.4386C5.25971 9.13364 7.13372 7.25962 9.43871 6.08518C10.8783 5.35166 12.4422 5.04133 14.2489 4.89372C16.0083 4.74997 18.185 4.74999 20.9027 4.75001L30.3629 4.75Z"
  />
  <path
    fill-rule="evenodd"
    clip-rule="evenodd"
    d="M43.9338 29.8521C45.12 30.2222 45.7816 31.4839 45.4115 32.6702C44.7646 34.7437 43.4822 38.1762 41.3183 40.8356C41.9147 41.1862 42.6145 41.5429 43.3378 41.8759C44.0022 42.1819 44.6152 42.4364 45.0623 42.6143C45.2851 42.7029 45.4647 42.7718 45.5867 42.8178C45.6477 42.8408 45.6941 42.858 45.7241 42.869L45.7566 42.881L45.7631 42.8833C46.9318 43.3048 47.5381 44.5941 47.1168 45.763C46.6954 46.932 45.3853 47.5305 44.2163 47.1091C44.176 47.0943 44.0712 47.0556 43.9989 47.0284C43.8544 46.9739 43.6493 46.8952 43.3985 46.7954C42.8986 46.5965 42.2098 46.3107 41.4555 45.9634C40.401 45.4778 39.0367 44.7918 37.8969 43.9782C36.1779 45.1992 34.1372 46.2535 31.769 47.1146C30.6011 47.5392 29.3102 46.9367 28.8855 45.7689C28.4609 44.601 29.0634 43.3101 30.2312 42.8854C31.9733 42.252 33.4429 41.522 34.672 40.7285C34.0103 39.9162 33.43 39.1299 32.9716 38.48C32.2553 37.4646 32.4979 36.0607 33.5133 35.3445C34.5287 34.6282 35.9326 34.8707 36.6488 35.8862C37.0445 36.4471 37.5171 37.0865 38.0363 37.7324C39.5067 35.8119 40.5261 33.2198 41.1157 31.3299C41.4858 30.1436 42.7475 29.482 43.9338 29.8521Z"
  />
</svg>
