<svg
  width="60"
  height="60"
  viewBox="0 0 60 60"
  fill="currentColor"
  xmlns="http://www.w3.org/2000/svg"
>
  <path
    fill-rule="evenodd"
    clip-rule="evenodd"
    d="M31.1766 17.4001C31.1715 17.8601 31.1371 18.3832 31.0767 18.9541C31.118 19.1013 31.1624 19.2528 31.2101 19.4082C31.8522 21.5001 33.0175 24.0711 34.8484 26.1792C36.764 28.3849 39.1717 30.1329 41.1288 31.2141C41.2849 31.3003 41.4361 31.3812 41.582 31.4568C42.1945 31.4831 42.7476 31.5351 43.2234 31.6115C43.685 31.6856 44.243 31.8077 44.7324 32.0441C44.9611 32.1546 45.3899 32.3899 45.7393 32.8419C46.1724 33.4021 46.4275 34.2508 46.1074 35.141C45.8301 35.912 45.2491 36.3575 44.7508 36.5717C44.3025 36.7645 43.8819 36.7955 43.6182 36.7969C43.0838 36.7998 42.5502 36.6769 42.1196 36.5496C41.632 36.4054 41.0883 36.1975 40.5105 35.9371C40.2306 35.9385 39.9307 35.9454 39.612 35.9591C37.0005 36.0708 33.4432 36.6176 29.9176 37.9299C26.8585 39.0686 24.2796 40.4733 22.3722 41.7529C22.1634 42.0371 21.9586 42.3067 21.759 42.5615C20.9305 43.6189 20.1687 44.4494 19.5505 45.0224C19.2512 45.2998 18.9304 45.5685 18.6146 45.7724C18.4693 45.8663 18.2228 46.0141 17.9149 46.1181C17.7607 46.1702 17.4942 46.245 17.1596 46.2497C16.8203 46.2546 16.2629 46.1861 15.7313 45.7867C15.1016 45.3136 14.8071 44.6334 14.7579 44.0064C14.7153 43.4643 14.8543 43.0189 14.9581 42.7571C15.167 42.2303 15.5105 41.7687 15.8036 41.4216C16.4293 40.6808 17.365 39.8393 18.5007 38.9843C18.7149 38.8231 18.9387 38.6595 19.1718 38.4942C20.4083 36.7262 21.8012 34.3586 23.046 31.4389C24.5709 27.862 25.6754 23.8681 26.2463 20.8259C26.3541 20.2514 26.4404 19.7238 26.5067 19.2496C26.3507 18.5853 26.2436 17.9815 26.1826 17.4659C26.1324 17.0416 26.1034 16.596 26.1306 16.1941C26.1431 16.0094 26.1748 15.7011 26.2893 15.3702C26.3463 15.2054 26.7188 14.1285 27.9525 13.8231C28.7789 13.6186 29.6243 13.8506 30.2284 14.4164C30.7031 14.861 30.8964 15.3853 30.9797 15.6584C31.1558 16.2361 31.1822 16.8814 31.1766 17.4001ZM27.1855 33.2037C28.1193 31.0133 28.9032 28.6995 29.5217 26.5055C30.0802 27.4024 30.7204 28.2888 31.4509 29.13C32.3833 30.2036 33.4 31.1777 34.433 32.0423C32.4977 32.4012 30.4228 32.9402 28.3478 33.7126C27.7722 33.9269 27.2109 34.1499 26.665 34.3797C26.8408 33.9967 27.0145 33.6047 27.1855 33.2037Z"
  />
  <path
    fill-rule="evenodd"
    clip-rule="evenodd"
    d="M38.6963 4.75H21.3037C18.8652 4.74998 16.8983 4.74996 15.3056 4.88009C13.6657 5.01408 12.2253 5.29716 10.8926 5.97618C8.77578 7.05475 7.05475 8.77578 5.97618 10.8926C5.29716 12.2253 5.01408 13.6657 4.88009 15.3056C4.74996 16.8983 4.74998 18.8652 4.75 21.3037V38.6963C4.74998 41.1348 4.74996 43.1017 4.88009 44.6944C5.01408 46.3343 5.29716 47.7747 5.97618 49.1074C7.05475 51.2242 8.77578 52.9452 10.8926 54.0238C12.2253 54.7028 13.6657 54.9859 15.3056 55.1199C16.8983 55.25 18.8651 55.25 21.3036 55.25H38.6964C41.1348 55.25 43.1017 55.25 44.6944 55.1199C46.3343 54.9859 47.7747 54.7028 49.1074 54.0238C51.2242 52.9452 52.9452 51.2242 54.0238 49.1074C54.7028 47.7747 54.9859 46.3343 55.1199 44.6944C55.25 43.1017 55.25 41.1349 55.25 38.6964V21.3036C55.25 18.8652 55.25 16.8983 55.1199 15.3056C54.9859 13.6657 54.7028 12.2253 54.0238 10.8926C52.9452 8.77578 51.2242 7.05475 49.1074 5.97618C47.7747 5.29716 46.3343 5.01408 44.6944 4.88009C43.1017 4.74996 41.1348 4.74998 38.6963 4.75ZM12.9356 9.98571C13.5281 9.68379 14.3104 9.4764 15.672 9.36515C17.0599 9.25175 18.8426 9.25 21.4 9.25H38.6C41.1574 9.25 42.9401 9.25175 44.328 9.36515C45.6896 9.4764 46.4719 9.68379 47.0644 9.98571C48.3345 10.6329 49.3671 11.6655 50.0143 12.9356C50.3162 13.5281 50.5236 14.3104 50.6349 15.672C50.7482 17.0599 50.75 18.8426 50.75 21.4V38.6C50.75 41.1574 50.7482 42.9401 50.6349 44.328C50.5236 45.6896 50.3162 46.4719 50.0143 47.0644C49.3671 48.3345 48.3345 49.3671 47.0644 50.0143C46.4719 50.3162 45.6896 50.5236 44.328 50.6349C42.9401 50.7482 41.1574 50.75 38.6 50.75H21.4C18.8426 50.75 17.0599 50.7482 15.672 50.6349C14.3104 50.5236 13.5281 50.3162 12.9356 50.0143C11.6655 49.3671 10.6329 48.3345 9.98571 47.0644C9.68379 46.4719 9.4764 45.6896 9.36515 44.328C9.25175 42.9401 9.25 41.1574 9.25 38.6V21.4C9.25 18.8426 9.25175 17.0599 9.36515 15.672C9.4764 14.3104 9.68379 13.5281 9.98571 12.9356C10.6329 11.6655 11.6655 10.6329 12.9356 9.98571Z"
  />
</svg>
