<svg
  width="60"
  height="60"
  viewBox="0 0 60 60"
  fill="currentColor"
  xmlns="http://www.w3.org/2000/svg"
>
  <path
    fill-rule="evenodd"
    clip-rule="evenodd"
    d="M21.3037 4.75H38.6963C41.1348 4.74998 43.1017 4.74996 44.6944 4.88009C46.3343 5.01408 47.7747 5.29716 49.1074 5.97618C51.2242 7.05475 52.9452 8.77578 54.0238 10.8926C54.7028 12.2253 54.9859 13.6657 55.1199 15.3056C55.25 16.8983 55.25 18.8651 55.25 21.3036V38.6964C55.25 41.1349 55.25 43.1017 55.1199 44.6944C54.9859 46.3343 54.7028 47.7747 54.0238 49.1074C52.9452 51.2242 51.2242 52.9452 49.1074 54.0238C47.7747 54.7028 46.3343 54.9859 44.6944 55.1199C43.1017 55.25 41.1349 55.25 38.6964 55.25H21.3036C18.8651 55.25 16.8983 55.25 15.3056 55.1199C13.6657 54.9859 12.2253 54.7028 10.8926 54.0238C8.77578 52.9452 7.05475 51.2242 5.97618 49.1074C5.29716 47.7747 5.01408 46.3343 4.88009 44.6944C4.74996 43.1017 4.74998 41.1348 4.75 38.6963V21.3037C4.74998 18.8652 4.74996 16.8983 4.88009 15.3056C5.01408 13.6657 5.29716 12.2253 5.97618 10.8926C7.05475 8.77578 8.77578 7.05475 10.8926 5.97618C12.2253 5.29716 13.6657 5.01408 15.3056 4.88009C16.8983 4.74996 18.8652 4.74998 21.3037 4.75ZM15.672 9.36515C14.3104 9.4764 13.5281 9.68379 12.9356 9.98571C11.6655 10.6329 10.6329 11.6655 9.98571 12.9356C9.68379 13.5281 9.4764 14.3104 9.36515 15.672C9.25175 17.0599 9.25 18.8426 9.25 21.4V38.6C9.25 41.1574 9.25175 42.9401 9.36515 44.328C9.4764 45.6896 9.68379 46.4719 9.98571 47.0644C10.6329 48.3345 11.6655 49.3671 12.9356 50.0143C13.5281 50.3162 14.3104 50.5236 15.672 50.6349C17.0599 50.7482 18.8426 50.75 21.4 50.75H38.6C41.1574 50.75 42.9401 50.7482 44.328 50.6349C45.6896 50.5236 46.4719 50.3162 47.0644 50.0143C48.3345 49.3671 49.3671 48.3345 50.0143 47.0644C50.3162 46.4719 50.5236 45.6896 50.6349 44.328C50.7482 42.9401 50.75 41.1574 50.75 38.6V21.4C50.75 18.8426 50.7482 17.0599 50.6349 15.672C50.5236 14.3104 50.3162 13.5281 50.0143 12.9356C49.3671 11.6655 48.3345 10.6329 47.0644 9.98571C46.4719 9.68379 45.6896 9.4764 44.328 9.36515C42.9401 9.25175 41.1574 9.25 38.6 9.25H21.4C18.8426 9.25 17.0599 9.25175 15.672 9.36515Z"
  />
  <path
    fill-rule="evenodd"
    clip-rule="evenodd"
    d="M31.0768 18.9541C31.1372 18.3832 31.1716 17.8601 31.1767 17.4001C31.1823 16.8814 31.1559 16.2361 30.9798 15.6584C30.8965 15.3853 30.7032 14.861 30.2285 14.4164C29.6244 13.8506 28.779 13.6186 27.9526 13.8232C26.7189 14.1286 26.3466 15.2049 26.2896 15.3696C26.1751 15.7006 26.1432 16.0094 26.1307 16.1941C26.1035 16.596 26.1325 17.0416 26.1827 17.466C26.2437 17.9816 26.3508 18.5853 26.5068 19.2496C26.4405 19.7238 26.3542 20.2514 26.2464 20.8259C25.6755 23.8681 24.571 27.862 23.0461 31.4389C21.8013 34.3587 20.4084 36.7262 19.1719 38.4942C18.9388 38.6595 18.715 38.8231 18.5008 38.9843C17.3651 39.8393 16.4294 40.6808 15.8037 41.4216C15.5106 41.7687 15.1671 42.2303 14.9582 42.7571C14.8544 43.019 14.7154 43.4643 14.758 44.0064C14.8072 44.6334 15.1017 45.3136 15.7314 45.7867C16.263 46.1861 16.8204 46.2546 17.1597 46.2498C17.4943 46.245 17.7608 46.1702 17.915 46.1181C18.2229 46.0141 18.4694 45.8663 18.6147 45.7725C18.9305 45.5685 19.2513 45.2998 19.5506 45.0224C20.1688 44.4494 20.9305 43.6189 21.7591 42.5615C21.9587 42.3067 22.1635 42.0372 22.3723 41.7529C24.2797 40.4733 26.8586 39.0686 29.9177 37.9299C33.4433 36.6176 37.0006 36.0708 39.612 35.9591C39.9308 35.9454 40.2307 35.9385 40.5106 35.9371C41.0884 36.1975 41.6321 36.4054 42.1197 36.5496C42.5503 36.6769 43.0839 36.7998 43.6183 36.797C43.882 36.7956 44.3026 36.7645 44.7509 36.5717C45.2492 36.3575 45.8302 35.912 46.1075 35.141C46.4276 34.2509 46.1725 33.4021 45.7394 32.8419C45.39 32.3899 44.9612 32.1546 44.7325 32.0441C44.2431 31.8077 43.6851 31.6857 43.2235 31.6115C42.7477 31.5352 42.1946 31.4831 41.5821 31.4568C41.4362 31.3812 41.285 31.3003 41.1289 31.2141C39.1718 30.133 36.7641 28.3849 34.8485 26.1792C33.0176 24.0711 31.8523 21.5002 31.2102 19.4082C31.1625 19.2528 31.1181 19.1013 31.0768 18.9541ZM29.5218 26.5055C28.9033 28.6995 28.1194 31.0133 27.1856 33.2037C27.0146 33.6047 26.8409 33.9967 26.6651 34.3797C27.211 34.1499 27.7723 33.9269 28.3479 33.7126C30.4228 32.9402 32.4977 32.4012 34.4331 32.0423C33.4 31.1777 32.3834 30.2036 31.451 29.13C30.7204 28.2888 30.0803 27.4024 29.5218 26.5055Z"
  />
</svg>
