<svg
  width="60"
  height="60"
  viewBox="0 0 60 60"
  fill="currentColor"
  xmlns="http://www.w3.org/2000/svg"
>
  <path
    d="M30 2.75C31.2426 2.75 32.25 3.75736 32.25 5V9.5H41C42.2426 9.5 43.25 10.5074 43.25 11.75C43.25 12.9926 42.2426 14 41 14H19C17.7573 14 16.75 12.9926 16.75 11.75C16.75 10.5074 17.7573 9.5 19 9.5H27.75V5C27.75 3.75736 28.7573 2.75 30 2.75Z"
  />
  <path
    fill-rule="evenodd"
    clip-rule="evenodd"
    d="M29.6758 16.7499H30.3242C32.8009 16.7493 34.4454 16.7489 35.8597 17.0885C40.3389 18.1638 43.8362 21.6611 44.9115 26.1403C45.251 27.5546 45.2506 29.199 45.25 31.6758L45.25 45.4913C45.25 47.0937 45.25 48.4313 45.1608 49.524C45.0676 50.6637 44.8663 51.7336 44.3508 52.7454C43.5598 54.2978 42.2977 55.5598 40.7454 56.3508C39.7336 56.8663 38.6636 57.0677 37.524 57.1608C36.4313 57.2501 35.0938 57.25 33.4913 57.25H26.5086C24.9062 57.25 23.5687 57.2501 22.476 57.1608C21.3363 57.0677 20.2663 56.8663 19.2546 56.3508C17.7022 55.5598 16.4401 54.2978 15.6492 52.7454C15.1336 51.7336 14.9323 50.6637 14.8392 49.524C14.7499 48.4313 14.7499 47.0938 14.75 45.4913L14.7499 31.6758C14.7493 29.199 14.7489 27.5546 15.0885 26.1403C16.1638 21.6611 19.6611 18.1638 24.1403 17.0885C25.5546 16.7489 27.199 16.7493 29.6758 16.7499ZM30 21.25C27.081 21.25 26.0174 21.2657 25.1908 21.4641C22.357 22.1445 20.1444 24.357 19.4641 27.1908C19.3676 27.5926 19.3144 28.0504 19.2851 28.75L30 28.75C31.2426 28.75 32.25 29.7574 32.25 31C32.25 32.2426 31.2426 33.25 30 33.25L19.25 33.25V39.75H30C31.2426 39.75 32.25 40.7574 32.25 42C32.25 43.2426 31.2426 44.25 30 44.25H19.25V45.4C19.25 47.1173 19.2517 48.2699 19.3243 49.1576C19.3946 50.0189 19.5203 50.4308 19.6587 50.7025C20.0182 51.4081 20.5919 51.9818 21.2975 52.3413C21.5692 52.4797 21.981 52.6054 22.8424 52.6757C23.7301 52.7482 24.8827 52.75 26.6 52.75H33.4C35.1173 52.75 36.2699 52.7482 37.1575 52.6757C38.0189 52.6054 38.4308 52.4797 38.7024 52.3413C39.4081 51.9818 39.9817 51.4081 40.3413 50.7025C40.4797 50.4308 40.6053 50.0189 40.6757 49.1576C40.7482 48.2699 40.75 47.1173 40.75 45.4V32C40.75 29.081 40.7343 28.0175 40.5358 27.1908C39.8555 24.357 37.643 22.1445 34.8092 21.4641C33.9825 21.2657 32.919 21.25 30 21.25Z"
  />
</svg>
