<svg
  width="60"
  height="60"
  viewBox="0 0 60 60"
  fill="currentColor"
  xmlns="http://www.w3.org/2000/svg"
>
  <path
    fill-rule="evenodd"
    clip-rule="evenodd"
    d="M18.75 21C18.75 14.7868 23.7868 9.75 30 9.75C36.2132 9.75 41.25 14.7868 41.25 21C41.25 27.2132 36.2132 32.25 30 32.25C23.7868 32.25 18.75 27.2132 18.75 21ZM30 14.25C26.2721 14.25 23.25 17.2721 23.25 21C23.25 24.7279 26.2721 27.75 30 27.75C33.7279 27.75 36.75 24.7279 36.75 21C36.75 17.2721 33.7279 14.25 30 14.25Z"
  />
  <path
    fill-rule="evenodd"
    clip-rule="evenodd"
    d="M29.2588 57.2401C29.5051 57.2467 29.7522 57.25 30 57.25C45.0498 57.25 57.25 45.0498 57.25 30C57.25 14.9502 45.0498 2.75 30 2.75C14.9502 2.75 2.75 14.9502 2.75 30C2.75 44.8019 14.5517 56.8474 29.2588 57.2401ZM30 7.25C17.4355 7.25 7.25 17.4355 7.25 30C7.25 35.5353 9.22687 40.6089 12.5131 44.5533C12.867 43.1786 13.6094 41.8674 14.7789 40.7702C18.7566 37.0386 24.1131 34.75 29.9993 34.75C35.8856 34.75 41.2422 37.0387 45.2199 40.7704C46.3897 41.8679 47.1321 43.1795 47.4859 44.5545C50.7727 40.6099 52.75 35.5359 52.75 30C52.75 17.4355 42.5645 7.25 30 7.25ZM41.346 49.7232C43.5321 48.4436 43.8263 45.6334 42.141 44.0522C38.9643 41.072 34.6971 39.25 29.9993 39.25C25.3016 39.25 21.0344 41.0719 17.8578 44.0521C16.183 45.6233 16.463 48.4082 18.6118 49.6988C21.8026 51.5474 25.4839 52.643 29.4128 52.7426C29.6078 52.7475 31.1205 52.7125 31.3167 52.7125M41.346 49.7232C38.3635 51.4426 34.9545 52.5049 31.3167 52.7125L41.346 49.7232Z"
  />
</svg>
