<svg
  width="60"
  height="60"
  viewBox="0 0 60 60"
  fill="currentColor"
  xmlns="http://www.w3.org/2000/svg"
>
  <path
    fill-rule="evenodd"
    clip-rule="evenodd"
    d="M37.346 9.8054C37.4791 8.56991 38.5885 7.67625 39.824 7.80935C44.965 8.36322 48.9663 12.7128 48.9663 18C48.9663 23.2872 44.965 27.6368 39.824 28.1906C38.5885 28.3238 37.4791 27.4301 37.346 26.1946C37.2129 24.9591 38.1065 23.8496 39.342 23.7165C42.2222 23.4062 44.4663 20.9637 44.4663 18C44.4663 15.0363 42.2222 12.5938 39.342 12.2835C38.1065 12.1504 37.2129 11.0409 37.346 9.8054Z"
  />
  <path
    fill-rule="evenodd"
    clip-rule="evenodd"
    d="M23.3955 10.25C19.1153 10.25 15.6455 13.7198 15.6455 18C15.6455 22.2802 19.1153 25.75 23.3955 25.75C27.6757 25.75 31.1455 22.2802 31.1455 18C31.1455 13.7198 27.6757 10.25 23.3955 10.25ZM11.1455 18C11.1455 11.2345 16.63 5.75 23.3955 5.75C30.161 5.75 35.6455 11.2345 35.6455 18C35.6455 24.7655 30.161 30.25 23.3955 30.25C16.63 30.25 11.1455 24.7655 11.1455 18Z"
  />
  <path
    fill-rule="evenodd"
    clip-rule="evenodd"
    d="M41.3343 35.8476C41.6713 34.6516 42.9141 33.9552 44.1102 34.2922C46.1527 34.8677 48.0607 35.7613 49.7773 36.9151C54.7035 40.2261 54.0128 47.3493 48.9073 49.9839C47.3786 50.7727 45.7463 51.3899 44.0362 51.8096C42.8294 52.1058 41.611 51.3675 41.3148 50.1607C41.0186 48.9539 41.7569 47.7355 42.9637 47.4393C44.3253 47.1051 45.6253 46.6137 46.8437 45.985C49.0779 44.832 49.1957 41.9462 47.267 40.6498C45.939 39.7573 44.4653 39.0675 42.8897 38.6235C41.6937 38.2865 40.9973 37.0437 41.3343 35.8476Z"
  />
  <path
    fill-rule="evenodd"
    clip-rule="evenodd"
    d="M23.3957 36.25C18.7541 36.25 14.4921 37.8484 11.1211 40.5264C9.16653 42.0792 9.33615 45.0793 11.5856 46.4485C15.0267 48.5431 19.0669 49.75 23.3959 49.75C27.7248 49.75 31.7649 48.5431 35.2059 46.4487C37.4554 45.0795 37.6251 42.0795 35.6705 40.5266C32.2995 37.8484 28.0374 36.25 23.3957 36.25ZM8.32197 37.003C12.4603 33.7153 17.7016 31.75 23.3957 31.75C29.09 31.75 34.3314 33.7154 38.4697 37.0032C42.9821 40.5881 42.3514 47.3675 37.5456 50.2927C33.4196 52.804 28.5732 54.25 23.3959 54.25C18.2185 54.25 13.372 52.8039 9.24589 50.2924C4.44016 47.3672 3.80955 40.5878 8.32197 37.003Z"
  />
</svg>
