<svg
  width="60"
  height="60"
  viewBox="0 0 60 60"
  fill="currentColor"
  xmlns="http://www.w3.org/2000/svg"
>
  <path
    fill-rule="evenodd"
    clip-rule="evenodd"
    d="M30.0001 9.25C25.7199 9.25 22.2501 12.7198 22.2501 17C22.2501 21.2802 25.7199 24.75 30.0001 24.75C34.2803 24.75 37.7501 21.2802 37.7501 17C37.7501 12.7198 34.2803 9.25 30.0001 9.25ZM17.7501 17C17.7501 10.2345 23.2346 4.75 30.0001 4.75C36.7656 4.75 42.2501 10.2345 42.2501 17C42.2501 23.7655 36.7656 29.25 30.0001 29.25C23.2346 29.25 17.7501 23.7655 17.7501 17Z"
  />
  <path
    fill-rule="evenodd"
    clip-rule="evenodd"
    d="M30 37.25C24.3793 37.25 19.3002 39.4811 15.6187 43.0851C13.8914 44.7761 14.2213 47.6841 16.4817 49.0364C20.418 51.3913 25.0431 52.75 30.0002 52.75C34.9572 52.75 39.5823 51.3914 43.5185 49.0366C45.7789 47.6843 46.1088 44.7763 44.3815 43.0853C40.7 39.4811 35.6209 37.25 30 37.25ZM12.4707 39.8695C16.9671 35.4676 23.1664 32.75 30 32.75C36.8338 32.75 43.0331 35.4677 47.5296 39.8697C51.5183 43.7746 50.4327 50.144 45.8287 52.8983C41.2106 55.661 35.7897 57.25 30.0002 57.25C24.2106 57.25 18.7896 55.6609 14.1714 52.8981C9.5674 50.1437 8.48196 43.7743 12.4707 39.8695Z"
  />
</svg>
