<svg
  width="60"
  height="60"
  viewBox="0 0 60 60"
  fill="currentColor"
  xmlns="http://www.w3.org/2000/svg"
>
  <path
    fill-rule="evenodd"
    clip-rule="evenodd"
    d="M21.2669 7.05145C22.3431 7.67277 22.7118 9.04885 22.0905 10.125L12.3226 27.0435C13.1844 26.8513 14.0803 26.75 15 26.75C20.4717 26.75 25.1056 30.3375 26.6777 35.2886C28.813 34.4757 31.187 34.4757 33.3223 35.2886C34.8944 30.3375 39.5283 26.75 45 26.75C45.9781 26.75 46.9294 26.8646 47.8413 27.0812L38.0516 10.125C37.4303 9.04885 37.799 7.67277 38.8752 7.05145C39.9513 6.43013 41.3274 6.79885 41.9487 7.87501L55.7978 31.8623C56.5511 33.1671 56.9383 34.6509 56.9185 36.1574C56.9185 36.1574 57.25 38.0214 57.25 39C57.25 45.7655 51.7655 51.25 45 51.25C38.5956 51.25 33.3391 46.3354 32.7962 40.0718C31.1281 38.8813 28.8719 38.8813 27.2038 40.0718C26.6609 46.3353 21.4044 51.25 15 51.25C8.23451 51.25 2.75 45.7655 2.75 39C2.75 37.9575 3.12529 35.9792 3.12529 35.9792C3.16998 34.5852 3.55824 33.2238 4.2556 32.0159L18.1934 7.87501C18.8147 6.79885 20.1908 6.43013 21.2669 7.05145ZM15 31.25C10.7198 31.25 7.25 34.7198 7.25 39C7.25 43.2802 10.7198 46.75 15 46.75C19.2802 46.75 22.75 43.2802 22.75 39C22.75 34.7198 19.2802 31.25 15 31.25ZM37.25 39C37.25 34.7198 40.7198 31.25 45 31.25C49.2802 31.25 52.75 34.7198 52.75 39C52.75 43.2802 49.2802 46.75 45 46.75C40.7198 46.75 37.25 43.2802 37.25 39Z"
  />
</svg>
