<svg
  width="60"
  height="60"
  viewBox="0 0 60 60"
  fill="currentColor"
  xmlns="http://www.w3.org/2000/svg"
>
  <path
    fill-rule="evenodd"
    clip-rule="evenodd"
    d="M48.2496 30.76L51.75 28.7275V38C51.75 39.2426 52.7574 40.25 54 40.25C55.2426 40.25 56.25 39.2426 56.25 38V20C56 18 54.402 15.6511 52.1571 14.3476L35.6125 4.74105C32.1421 2.72597 27.8578 2.72597 24.3874 4.74105L7.84273 14.3476C2.4144 17.4995 2.4144 25.3392 7.84273 28.4911L11.7504 30.7601C11.75 31.0269 11.75 31.3034 11.75 31.5896L11.7498 41.5581C11.7477 43.7452 11.7461 45.4479 12.3159 46.906C12.8282 48.2168 13.6005 49.2965 14.6755 50.2049C15.3613 50.7843 16.1383 51.1817 16.9827 51.5314C17.7973 51.8687 18.8144 52.2159 20.037 52.6333L20.1049 52.6565C22.5387 53.4874 25.3058 54.4881 27.8716 55.5449L27.8797 55.5482L27.9764 55.5883C28.3424 55.7404 28.8305 55.9433 29.3385 56.0233C29.7855 56.0937 30.2145 56.0937 30.6615 56.0233C31.1694 55.9433 31.6576 55.7404 32.0235 55.5883L32.1284 55.5449C34.6942 54.4881 37.4613 53.4874 39.8951 52.6565L39.9627 52.6334C41.1854 52.216 42.2027 51.8687 43.0173 51.5314C43.8617 51.1817 44.6387 50.7843 45.3245 50.2049C46.3995 49.2965 47.1718 48.2168 47.6841 46.906C48.2539 45.4479 48.2523 43.7452 48.2502 41.5581L48.25 31.5891C48.25 31.3031 48.25 31.0267 48.2496 30.76ZM33.4258 8.50706C31.3075 7.27708 28.6924 7.27708 26.5741 8.50706L10.0294 18.1136C7.49195 19.587 7.49195 23.2517 10.0294 24.7251L11.8057 25.7565L11.8068 25.6733L27.4685 34.7673C29.0923 35.4163 30.9064 35.4164 32.5303 34.7677L48.1932 25.6731L48.1942 25.7564L49.9704 24.7251C50.9159 24.1761 51.5091 23.3229 51.75 22.3922V20.4465C51.5091 19.5158 50.9159 18.6626 49.9704 18.1136L33.4258 8.50706ZM30 51.5521C29.9105 51.5176 29.7868 51.4669 29.5853 51.384L29.4675 51.3355C26.8195 50.2491 24.0054 49.2331 21.5589 48.3979C20.2514 47.9515 19.3708 47.6497 18.7043 47.3737C18.0526 47.1039 17.7576 46.9178 17.5798 46.7675C17.0768 46.3426 16.7469 45.8813 16.5072 45.268C16.2884 44.708 16.25 43.944 16.25 41.1554V33.4569L25.9543 39.0916C28.4557 40.5441 31.5438 40.5441 34.0452 39.0916L43.75 33.4566V41.1554C43.75 43.944 43.7116 44.708 43.4928 45.268C43.2531 45.8813 42.9232 46.3426 42.4202 46.7675C42.2424 46.9178 41.9474 47.1039 41.2957 47.3737C40.6292 47.6497 39.7486 47.9515 38.4411 48.3979C35.9583 49.2455 33.0969 50.2793 30.4147 51.3839C30.2132 51.4669 30.0895 51.5175 30 51.5521Z"
  />
</svg>
