<svg
  width="60"
  height="60"
  viewBox="0 0 60 60"
  fill="currentColor"
  xmlns="http://www.w3.org/2000/svg"
>
  <path
    d="M19.75 48C19.75 46.7574 20.7574 45.75 22 45.75H38C39.2426 45.75 40.25 46.7574 40.25 48C40.25 49.2426 39.2426 50.25 38 50.25H22C20.7574 50.25 19.75 49.2426 19.75 48Z"
  />
  <path
    d="M26 9.75C24.7574 9.75 23.75 10.7574 23.75 12C23.75 13.2426 24.7574 14.25 26 14.25H34C35.2426 14.25 36.25 13.2426 36.25 12C36.25 10.7574 35.2426 9.75 34 9.75H26Z"
  />
  <path
    fill-rule="evenodd"
    clip-rule="evenodd"
    d="M26.3037 2.75H33.6963C36.1348 2.74998 38.1017 2.74996 39.6944 2.88009C41.3343 3.01408 42.7747 3.29716 44.1074 3.97618C46.2242 5.05475 47.9452 6.77578 49.0238 8.89261C49.7028 10.2253 49.9859 11.6657 50.1199 13.3056C50.25 14.8983 50.25 16.8651 50.25 19.3036V40.6964C50.25 43.1348 50.25 45.1017 50.1199 46.6944C49.9859 48.3343 49.7028 49.7747 49.0238 51.1074C47.9452 53.2242 46.2242 54.9452 44.1074 56.0238C42.7747 56.7028 41.3343 56.9859 39.6944 57.1199C38.1017 57.25 36.1349 57.25 33.6964 57.25H26.3036C23.8652 57.25 21.8983 57.25 20.3056 57.1199C18.6657 56.9859 17.2253 56.7028 15.8926 56.0238C13.7758 54.9452 12.0548 53.2242 10.9762 51.1074C10.2972 49.7747 10.0141 48.3343 9.88009 46.6944C9.74996 45.1017 9.74998 43.1348 9.75 40.6963V19.3037C9.74998 16.8652 9.74996 14.8983 9.88009 13.3056C10.0141 11.6657 10.2972 10.2253 10.9762 8.89261C12.0548 6.77578 13.7758 5.05475 15.8926 3.97618C17.2253 3.29716 18.6657 3.01408 20.3056 2.88009C21.8983 2.74996 23.8652 2.74998 26.3037 2.75ZM20.672 7.36515C19.3104 7.4764 18.5281 7.68379 17.9356 7.98571C16.6655 8.63285 15.6329 9.66547 14.9857 10.9356C14.6838 11.5281 14.4764 12.3104 14.3651 13.672C14.2518 15.0599 14.25 16.8426 14.25 19.4V40.6C14.25 43.1574 14.2518 44.9401 14.3651 46.328C14.4764 47.6896 14.6838 48.4719 14.9857 49.0644C15.6329 50.3345 16.6655 51.3671 17.9356 52.0143C18.5281 52.3162 19.3104 52.5236 20.672 52.6349C22.0599 52.7482 23.8426 52.75 26.4 52.75H33.6C36.1574 52.75 37.9401 52.7482 39.328 52.6349C40.6896 52.5236 41.4719 52.3162 42.0644 52.0143C43.3345 51.3671 44.3671 50.3345 45.0143 49.0644C45.3162 48.4719 45.5236 47.6896 45.6349 46.328C45.7482 44.9401 45.75 43.1574 45.75 40.6V19.4C45.75 16.8426 45.7482 15.0599 45.6349 13.672C45.5236 12.3104 45.3162 11.5281 45.0143 10.9356C44.3671 9.66547 43.3345 8.63285 42.0644 7.98571C41.4719 7.68379 40.6896 7.4764 39.328 7.36515C37.9401 7.25175 36.1574 7.25 33.6 7.25H26.4C23.8426 7.25 22.0599 7.25175 20.672 7.36515Z"
  />
</svg>
