<svg
  width="60"
  height="60"
  viewBox="0 0 60 60"
  fill="currentColor"
  xmlns="http://www.w3.org/2000/svg"
>
  <path
    d="M35.6964 3.75H20.3038C17.8653 3.74998 15.8984 3.74996 14.3057 3.88009C12.6658 4.01408 11.2253 4.29716 9.89267 4.97618C7.77585 6.05475 6.05482 7.77578 4.97624 9.89261C4.29722 11.2253 4.01414 12.6657 3.88016 14.3056C3.75002 15.8983 3.75004 17.8652 3.75007 20.3037L3.75003 39.2315C3.74967 40.8665 3.74943 41.9806 3.92098 42.9535C4.74224 47.6112 8.38889 51.2578 13.0465 52.0791C14.0194 52.2506 15.1335 52.2504 16.7685 52.25L17.0001 52.25C18.2427 52.25 19.2501 51.2426 19.2501 50C19.2501 48.7574 18.2427 47.75 17.0001 47.75C15.0461 47.75 14.3607 47.7414 13.8279 47.6475C11.0334 47.1547 8.84537 44.9667 8.35261 42.1721C8.25868 41.6394 8.25007 40.9539 8.25007 39V20.4C8.25007 17.8426 8.25182 16.0599 8.36521 14.672C8.47646 13.3104 8.68385 12.5281 8.98577 11.9356C9.63292 10.6655 10.6655 9.63285 11.9356 8.98571C12.5282 8.68379 13.3105 8.4764 14.6721 8.36515C16.06 8.25175 17.8427 8.25 20.4001 8.25H35.6001C38.1574 8.25 39.9401 8.25175 41.328 8.36515C42.6897 8.4764 43.472 8.68379 44.0645 8.98571C45.3346 9.63285 46.3672 10.6655 47.0144 11.9356C47.3163 12.5281 47.5237 13.3104 47.6349 14.672C47.7483 16.0599 47.7501 17.8426 47.7501 20.4V26C47.7501 27.2426 48.7574 28.25 50.0001 28.25C51.2427 28.25 52.2501 27.2426 52.2501 26V20.3036C52.2501 17.8652 52.2501 15.8983 52.12 14.3056C51.986 12.6657 51.7029 11.2253 51.0239 9.89261C49.9453 7.77578 48.2243 6.05475 46.1075 4.97618C44.7748 4.29716 43.3344 4.01408 41.6945 3.88009C40.1017 3.74996 38.1349 3.74998 35.6964 3.75Z"
  />
  <path
    fill-rule="evenodd"
    clip-rule="evenodd"
    d="M43.5887 31.75H34.4113C32.8538 31.75 31.5537 31.7499 30.4907 31.8344C29.3824 31.9225 28.3406 32.1128 27.3511 32.6008C25.7223 33.404 24.404 34.7223 23.6008 36.3511C23.1128 37.3406 22.9225 38.3824 22.8344 39.4907C22.7499 40.5537 22.75 41.8538 22.75 43.4113V43.5887C22.75 45.1462 22.7499 46.4463 22.8344 47.5093C22.9225 48.6177 23.1128 49.6594 23.6008 50.6489C24.404 52.2777 25.7223 53.596 27.3511 54.3992C28.3406 54.8872 29.3824 55.0775 30.4907 55.1656C31.5536 55.2501 32.8536 55.25 34.411 55.25H43.5887C45.1461 55.25 46.4464 55.2501 47.5093 55.1656C48.6177 55.0775 49.6594 54.8872 50.6489 54.3992C52.2777 53.596 53.596 52.2777 54.3992 50.6489C54.8872 49.6594 55.0775 48.6177 55.1656 47.5093C55.2501 46.4463 55.25 45.1463 55.25 43.5888V43.4113C55.25 41.8538 55.2501 40.5537 55.1656 39.4907C55.0775 38.3824 54.8872 37.3406 54.3992 36.3511C53.596 34.7223 52.2777 33.404 50.6489 32.6008C49.6594 32.1128 48.6177 31.9225 47.5093 31.8344C46.4463 31.7499 45.1462 31.75 43.5887 31.75ZM29.3414 36.6367C29.6066 36.5059 30.0088 36.3869 30.8471 36.3203C31.7107 36.2517 32.8309 36.25 34.5 36.25H43.5C45.1691 36.25 46.2893 36.2517 47.1529 36.3203C47.9912 36.3869 48.3934 36.5059 48.6586 36.6367C49.399 37.0018 49.9982 37.601 50.3633 38.3414C50.4941 38.6066 50.6131 39.0088 50.6797 39.8471C50.7483 40.7107 50.75 41.8309 50.75 43.5C50.75 45.1691 50.7483 46.2893 50.6797 47.1529C50.6131 47.9912 50.4941 48.3934 50.3633 48.6586C49.9982 49.399 49.399 49.9982 48.6586 50.3633C48.3934 50.4941 47.9912 50.6131 47.1529 50.6797C46.2893 50.7483 45.1691 50.75 43.5 50.75H34.5C32.8309 50.75 31.7107 50.7483 30.8471 50.6797C30.0088 50.6131 29.6066 50.4941 29.3414 50.3633C28.601 49.9982 28.0018 49.399 27.6367 48.6586C27.5059 48.3934 27.3869 47.9912 27.3203 47.1529C27.2517 46.2893 27.25 45.1691 27.25 43.5C27.25 41.8309 27.2517 40.7107 27.3203 39.8471C27.3869 39.0088 27.5059 38.6066 27.6367 38.3414C28.0018 37.601 28.601 37.0018 29.3414 36.6367Z"
  />
</svg>
