<svg
  width="60"
  height="60"
  viewBox="0 0 60 60"
  fill="currentColor"
  xmlns="http://www.w3.org/2000/svg"
>
  <path
    d="M35.6963 3.75H20.3037C17.8652 3.74998 15.8983 3.74996 14.3056 3.88009C12.6657 4.01408 11.2253 4.29716 9.89261 4.97618C7.77578 6.05475 6.05475 7.77578 4.97618 9.89261C4.29716 11.2253 4.01408 12.6657 3.88009 14.3056C3.74996 15.8983 3.74998 17.8652 3.75 20.3037V35.6963C3.74998 38.1348 3.74996 40.1017 3.88009 41.6944C4.01408 43.3343 4.29716 44.7747 4.97618 46.1074C6.05475 48.2242 7.77578 49.9452 9.89261 51.0238C11.2253 51.7028 12.6657 51.9859 14.3056 52.1199C15.8983 52.25 17.8651 52.25 20.3035 52.25H24C25.2426 52.25 26.25 51.2426 26.25 50C26.25 48.7574 25.2426 47.75 24 47.75H20.4C17.8426 47.75 16.0599 47.7482 14.672 47.6349C13.3104 47.5236 12.5281 47.3162 11.9356 47.0143C10.6655 46.3671 9.63285 45.3345 8.98571 44.0644C8.68379 43.4719 8.4764 42.6896 8.36515 41.328C8.25175 39.9401 8.25 38.1574 8.25 35.6V20.4C8.25 17.8426 8.25175 16.0599 8.36515 14.672C8.4764 13.3104 8.68379 12.5281 8.98571 11.9356C9.63285 10.6655 10.6655 9.63285 11.9356 8.98571C12.5281 8.68379 13.3104 8.4764 14.672 8.36515C16.0599 8.25175 17.8426 8.25 20.4 8.25H35.6C38.1574 8.25 39.9401 8.25175 41.328 8.36515C42.6896 8.4764 43.4719 8.68379 44.0644 8.98571C45.3345 9.63285 46.3671 10.6655 47.0143 11.9356C47.3162 12.5281 47.5236 13.3104 47.6349 14.672C47.7482 16.0599 47.75 17.8426 47.75 20.4V26C47.75 27.2426 48.7574 28.25 50 28.25C51.2426 28.25 52.25 27.2426 52.25 26V20.3036C52.25 17.8652 52.25 15.8983 52.1199 14.3056C51.9859 12.6657 51.7028 11.2253 51.0238 9.89261C49.9452 7.77578 48.2242 6.05475 46.1074 4.97618C44.7747 4.29716 43.3343 4.01408 41.6944 3.88009C40.1017 3.74996 38.1348 3.74998 35.6963 3.75Z"
  />
  <path
    fill-rule="evenodd"
    clip-rule="evenodd"
    d="M43.4913 28.75H40.5087C38.9062 28.75 37.5687 28.7499 36.476 28.8392C35.3363 28.9323 34.2664 29.1337 33.2546 29.6492C31.7022 30.4402 30.4402 31.7022 29.6492 33.2546C29.1337 34.2664 28.9323 35.3363 28.8392 36.476C28.7499 37.5687 28.75 38.9062 28.75 40.5087V43.4913C28.75 45.0938 28.7499 46.4313 28.8392 47.524C28.9323 48.6637 29.1337 49.7336 29.6492 50.7454C30.4402 52.2978 31.7022 53.5599 33.2546 54.3508C34.2664 54.8663 35.3363 55.0677 36.476 55.1608C37.5687 55.2501 38.9063 55.25 40.5087 55.25H43.4913C45.0937 55.25 46.4313 55.2501 47.524 55.1608C48.6637 55.0677 49.7336 54.8663 50.7454 54.3508C52.2978 53.5599 53.5599 52.2978 54.3508 50.7454C54.8663 49.7336 55.0677 48.6637 55.1608 47.524C55.2501 46.4313 55.25 45.0937 55.25 43.4913V40.5087C55.25 38.9063 55.2501 37.5687 55.1608 36.476C55.0677 35.3363 54.8663 34.2664 54.3508 33.2546C53.5599 31.7022 52.2978 30.4402 50.7454 29.6492C49.7336 29.1337 48.6637 28.9323 47.524 28.8392C46.4313 28.7499 45.0938 28.75 43.4913 28.75ZM35.2975 33.6587C35.5692 33.5203 35.9811 33.3947 36.8424 33.3243C37.7301 33.2518 38.8827 33.25 40.6 33.25H43.4C45.1173 33.25 46.2699 33.2518 47.1576 33.3243C48.0189 33.3947 48.4308 33.5203 48.7025 33.6587C49.4081 34.0183 49.9818 34.5919 50.3413 35.2975C50.4797 35.5692 50.6054 35.9811 50.6757 36.8424C50.7483 37.7301 50.75 38.8827 50.75 40.6V43.4C50.75 45.1173 50.7483 46.2699 50.6757 47.1576C50.6054 48.0189 50.4797 48.4308 50.3413 48.7025C49.9818 49.4081 49.4081 49.9818 48.7025 50.3413C48.4308 50.4797 48.0189 50.6054 47.1576 50.6757C46.2699 50.7483 45.1173 50.75 43.4 50.75H40.6C38.8827 50.75 37.7301 50.7483 36.8424 50.6757C35.9811 50.6054 35.5692 50.4797 35.2975 50.3413C34.5919 49.9818 34.0183 49.4081 33.6587 48.7025C33.5203 48.4308 33.3947 48.0189 33.3243 47.1576C33.2518 46.2699 33.25 45.1173 33.25 43.4V40.6C33.25 38.8827 33.2518 37.7301 33.3243 36.8424C33.3947 35.9811 33.5203 35.5692 33.6587 35.2975C34.0183 34.5919 34.5919 34.0183 35.2975 33.6587Z"
  />
  <path
    d="M19.8672 16.6853L29.3056 16.6853C30.5482 16.6853 31.5556 15.6779 31.5556 14.4353C31.5556 13.1926 30.5482 12.1853 29.3056 12.1853L16.4355 12.1853C14.0883 12.1853 12.1855 14.0881 12.1855 16.4353L12.1855 29.3053C12.1855 30.548 13.1929 31.5553 14.4355 31.5553C15.6782 31.5553 16.6855 30.548 16.6855 29.3053L16.6855 19.8675L25.909 29.091C26.7877 29.9697 28.2123 29.9697 29.091 29.091C29.9697 28.2123 29.9697 26.7877 29.091 25.909L19.8672 16.6853Z"
  />
</svg>
