<svg
  width="60"
  height="60"
  viewBox="0 0 60 60"
  fill="currentColor"
  xmlns="http://www.w3.org/2000/svg"
>
  <path
    fill-rule="evenodd"
    clip-rule="evenodd"
    d="M9.49983 9.51301C3.54433 15.4685 3.54433 25.1243 9.49982 31.0798L28.8037 50.3836C34.7592 56.3391 44.415 56.3391 50.3705 50.3836C56.326 44.4281 56.326 34.7724 50.3705 28.8169L31.0666 9.51301C25.1111 3.55751 15.4553 3.55751 9.49983 9.51301ZM12.6818 27.8978C8.48367 23.6996 8.48367 16.8931 12.6818 12.695C16.8799 8.49685 23.6865 8.49685 27.8846 12.695L35.8051 20.6155L20.6023 35.8183L12.6818 27.8978ZM23.7843 39.0002L31.9857 47.2017C36.1838 51.3998 42.9903 51.3998 47.1885 47.2017C51.3866 43.0035 51.3866 36.197 47.1885 31.9989L38.9871 23.7974L23.7843 39.0002Z"
  />
</svg>
