<svg
  width="60"
  height="60"
  viewBox="0 0 60 60"
  fill="currentColor"
  xmlns="http://www.w3.org/2000/svg"
>
  <path
    d="M48.2095 33.7052L52.4437 29.4709C55.0737 26.8409 56.3888 25.5259 56.8815 24.0095C57.3148 22.6757 57.3148 21.2389 56.8815 19.9051C56.3888 18.3887 55.0738 17.0737 52.4437 14.4437L45.5563 7.55622C42.9263 4.9262 41.6112 3.6112 40.0949 3.1185C38.761 2.68511 37.3243 2.68511 35.9904 3.1185C34.4741 3.6112 33.159 4.9262 30.529 7.55621L26.2948 11.7905C26.0069 12.0784 25.8629 12.2223 25.6987 12.336C25.5528 12.4369 25.3954 12.5199 25.2298 12.5833C25.0432 12.6547 24.8431 12.6922 24.443 12.7672L20.2749 13.5487C13.8555 14.7524 10.6458 15.3542 9.14345 17.0189C7.83494 18.4687 7.23095 20.4211 7.49215 22.3566C7.79205 24.5788 10.1012 26.8879 14.7195 31.5062L20.0155 36.8022L7.75178 49.0659C6.8731 49.9445 6.8731 51.3692 7.75178 52.2478C8.63046 53.1265 10.0551 53.1265 10.9338 52.2478L23.1974 39.9842L28.4938 45.2805C33.112 49.8988 35.4212 52.2079 37.6434 52.5078C39.5789 52.769 41.5312 52.165 42.9811 50.8565C44.6458 49.3542 45.2476 46.1445 46.4512 39.7251L47.2327 35.557C47.3078 35.1568 47.3453 34.9567 47.4167 34.7701C47.48 34.6045 47.563 34.4471 47.664 34.3013C47.7776 34.137 47.9216 33.993 48.2095 33.7052Z"
  />
</svg>
