<svg
  width="60"
  height="60"
  viewBox="0 0 60 60"
  fill="currentColor"
  xmlns="http://www.w3.org/2000/svg"
>
  <path
    fill-rule="evenodd"
    clip-rule="evenodd"
    d="M6.13588 27.4418C6.0504 29.1097 6.70671 30.6896 7.57666 32.2495C8.44705 33.8101 9.74434 35.7061 11.3547 38.0596L13.5838 41.3176C13.637 41.3954 13.6776 41.4547 13.7124 41.5063L13.7486 41.5605L13.7493 41.6257C13.7498 41.6879 13.7498 41.7598 13.7498 41.8541V47.3554C13.7497 48.9579 13.7497 50.2954 13.839 51.3881C13.9321 52.5278 14.1334 53.5977 14.649 54.6095C15.4399 56.1618 16.702 57.4239 18.2544 58.2149C19.2661 58.7304 20.3361 58.9318 21.4758 59.0249C22.5684 59.1141 23.9059 59.1141 25.5084 59.1141H34.4911C36.0935 59.1141 37.4311 59.1141 38.5238 59.0249C39.6634 58.9318 40.7334 58.7304 41.7452 58.2149C43.2975 57.4239 44.5596 56.1618 45.3506 54.6095C45.8661 53.5977 46.0674 52.5278 46.1606 51.3881C46.2498 50.2954 46.2498 48.9579 46.2498 47.3554L46.2498 41.8541C46.2498 41.7598 46.2498 41.6879 46.2502 41.6257L46.2509 41.5605L46.2872 41.5063C46.3219 41.4547 46.3625 41.3954 46.4157 41.3176L48.6448 38.0598C50.2552 35.7062 51.5525 33.8101 52.4229 32.2495C53.2928 30.6896 53.9492 29.1097 53.8637 27.4418C53.7395 25.0189 52.5551 22.7734 50.6255 21.3027C49.2973 20.2903 47.6228 19.9398 45.8442 19.777C44.0646 19.614 41.7673 19.6141 38.9156 19.6141L32.25 19.6141L32.25 2.65064C32.25 1.408 31.2427 0.400638 30 0.400637C28.7574 0.400639 27.75 1.408 27.75 2.65064L27.75 19.6141L21.084 19.6141C18.2323 19.6141 15.9349 19.614 14.1554 19.777C12.3768 19.9398 10.7023 20.2903 9.37405 21.3027C7.44446 22.7734 6.26005 25.0189 6.13588 27.4418ZM15.1342 35.6145C13.4429 33.1426 12.2647 31.4165 11.5068 30.0576C10.7366 28.6767 10.6118 28.0275 10.63 27.6722C10.6864 26.5708 11.2248 25.5501 12.1019 24.8816C12.3849 24.6659 12.9911 24.4024 14.5657 24.2582C16.1152 24.1163 18.2051 24.1141 21.2002 24.1141L38.7993 24.1141C41.7944 24.1141 43.8843 24.1164 45.4339 24.2582C47.0084 24.4024 47.6147 24.6659 47.8977 24.8816C48.7748 25.5501 49.3131 26.5708 49.3696 27.6722C49.3878 28.0275 49.2629 28.6767 48.4928 30.0576C47.7349 31.4165 46.5566 33.1426 44.8653 35.6145L42.7019 38.7765L42.658 38.8403C42.4973 39.074 42.2796 39.3906 42.1192 39.7497C41.9804 40.0605 41.8794 40.3869 41.8185 40.7219C41.748 41.1088 41.749 41.493 41.7497 41.7766L41.7498 41.8541V47.2641C41.7498 48.9814 41.748 50.134 41.6755 51.0217C41.6051 51.883 41.4795 52.2949 41.3411 52.5666C40.9815 53.2722 40.4079 53.8458 39.7022 54.2054C39.4306 54.3438 39.0187 54.4694 38.1573 54.5398C37.2697 54.6123 36.1171 54.6141 34.3998 54.6141L25.5998 54.6141C23.8825 54.6141 22.7298 54.6123 21.8422 54.5398C20.9808 54.4694 20.569 54.3438 20.2973 54.2054C19.5917 53.8458 19.018 53.2722 18.6585 52.5666C18.5201 52.2949 18.3944 51.883 18.3241 51.0217C18.2515 50.134 18.2498 48.9814 18.2498 47.2641L18.2498 41.8541L18.2499 41.7766C18.2506 41.493 18.2515 41.1088 18.1811 40.7219C18.1202 40.3869 18.0192 40.0605 17.8803 39.7497C17.72 39.3906 17.5022 39.074 17.3415 38.8404L17.2977 38.7765L15.1342 35.6145Z"
  />
</svg>
