<svg
  width="60"
  height="60"
  viewBox="0 0 60 60"
  fill="currentColor"
  xmlns="http://www.w3.org/2000/svg"
>
  <path
    fill-rule="evenodd"
    clip-rule="evenodd"
    d="M43.7473 50.0013C44.9871 48.8824 45.6402 47.3012 46.128 45.583C46.6161 43.864 47.0395 41.606 47.565 38.8032L48.2925 34.9232C48.3098 34.8306 48.3231 34.7599 48.335 34.6989L48.3477 34.6349L48.3933 34.5883C48.437 34.544 48.4878 34.4931 48.5544 34.4265L52.4445 30.5365C53.5776 29.4034 54.5234 28.4576 55.2329 27.6218C55.973 26.7501 56.5872 25.8512 56.9381 24.7712C57.4765 23.1143 57.4765 21.3294 56.9381 19.6724C56.5872 18.5925 55.973 17.6935 55.2329 16.8218C54.5234 15.986 53.5776 15.0403 52.4446 13.9073L46.0928 7.55551C44.9597 6.42239 44.0139 5.47656 43.1782 4.76704C42.3065 4.02702 41.4075 3.4128 40.3275 3.0619C38.6706 2.52352 36.8857 2.52352 35.2288 3.0619C34.1488 3.4128 33.2498 4.02702 32.3781 4.76704C31.5424 5.47655 30.5966 6.42235 29.4635 7.55547L25.5735 11.4455C25.5068 11.5122 25.456 11.563 25.4117 11.6067L25.3651 11.6523L25.3011 11.665C25.24 11.6769 25.1694 11.6902 25.0768 11.7075L21.197 12.435C18.394 12.9605 16.136 13.3839 14.4169 13.872C12.6988 14.3598 11.1176 15.0129 9.99865 16.2527C8.37315 18.0538 7.62284 20.4791 7.94733 22.8834C8.17068 24.5385 9.10691 25.9704 10.2494 27.3432C11.3925 28.7167 13.017 30.3412 15.0335 32.3576L19.7468 37.0709L7.75178 49.0659C6.8731 49.9445 6.8731 51.3692 7.75178 52.2478C8.63046 53.1265 10.0551 53.1265 10.9338 52.2478L22.9287 40.2529L27.6423 44.9664C29.6588 46.983 31.2832 48.6074 32.6568 49.7505C34.0296 50.8931 35.4615 51.8293 37.1165 52.0526C39.5209 52.3771 41.9462 51.6268 43.7473 50.0013ZM43.1635 37.8596C42.6115 40.8034 42.2241 42.8571 41.7991 44.3539C41.3673 45.8749 40.9965 46.4223 40.7324 46.6607C39.9137 47.3995 38.8113 47.7406 37.7184 47.5931C37.3658 47.5455 36.7507 47.3031 35.5354 46.2917C34.3394 45.2963 32.86 43.8201 30.7421 41.7023L18.2977 29.2579C16.1798 27.14 14.7036 25.6606 13.7083 24.4646C12.6968 23.2493 12.4545 22.6342 12.4069 22.2816C12.2594 21.1887 12.6005 20.0863 13.3393 19.2676C13.5777 19.0035 14.125 18.6327 15.6461 18.2008C17.1429 17.7758 19.1966 17.3885 22.1404 16.8365L25.9061 16.1304L25.9822 16.1163C26.2611 16.0647 26.6389 15.9948 27.0062 15.8543C27.3242 15.7327 27.6264 15.5733 27.9063 15.3795C28.2297 15.1557 28.5007 14.8834 28.7008 14.6824L28.7554 14.6275L32.5809 10.802C33.7952 9.58774 34.6115 8.77394 35.2904 8.19756C35.9493 7.63825 36.3294 7.43587 36.6193 7.34165C37.3725 7.09693 38.1838 7.09693 38.937 7.34165C39.227 7.43587 39.607 7.63825 40.2659 8.19756C40.9448 8.77394 41.7611 9.58774 42.9754 10.802L49.1979 17.0246C50.4122 18.2389 51.226 19.0552 51.8024 19.7341C52.3617 20.3929 52.5641 20.773 52.6583 21.063C52.903 21.8162 52.903 22.6275 52.6583 23.3806C52.5641 23.6706 52.3617 24.0507 51.8024 24.7095C51.226 25.3885 50.4122 26.2048 49.1979 27.4191L45.3725 31.2445L45.3176 31.2992C45.1166 31.4993 44.8442 31.7703 44.6204 32.0937C44.4267 32.3736 44.2673 32.6758 44.1457 32.9938C44.0052 33.361 43.9353 33.7389 43.8837 34.0178L43.8695 34.0939L43.1635 37.8596Z"
  />
</svg>
