<svg
  width="60"
  height="60"
  viewBox="0 0 60 60"
  fill="currentColor"
  xmlns="http://www.w3.org/2000/svg"
>
  <path
    d="M14.5042 42.2159V48.204C14.5042 51.9234 14.5042 53.7831 15.2281 55.2038C15.8648 56.4534 16.8808 57.4693 18.1304 58.106C19.551 58.8299 21.4107 58.8299 25.1301 58.8299L34.8705 58.8299C38.5899 58.8299 40.4496 58.8299 41.8702 58.1061C43.1198 57.4693 44.1358 56.4534 44.7725 55.2038C45.4963 53.7831 45.4963 51.9234 45.4963 48.204L45.4963 42.2159C45.4963 41.8088 45.4963 41.6052 45.5321 41.4086C45.5638 41.2342 45.6164 41.0642 45.6887 40.9022C45.7702 40.7198 45.8852 40.5518 46.1151 40.2158L48.5097 36.7159C52.1978 31.3256 54.0419 28.6305 53.9271 26.391C53.8272 24.4406 52.8737 22.633 51.3204 21.4491C49.537 20.0898 46.2714 20.0898 39.7401 20.0898L32.2505 20.0898L32.2505 2.74634C32.2505 1.5037 31.2432 0.496342 30.0005 0.496341C28.7579 0.49634 27.7505 1.5037 27.7505 2.74634L27.7505 20.0898L20.2604 20.0898C13.7292 20.0898 10.4635 20.0898 8.68014 21.4491C7.12684 22.633 6.17341 24.4406 6.07345 26.391C5.95868 28.6305 7.80272 31.3256 11.4908 36.7159L13.8855 40.2158C14.1154 40.5518 14.2303 40.7198 14.3118 40.9022C14.3841 41.0642 14.4367 41.2342 14.4685 41.4086C14.5042 41.6052 14.5042 41.8088 14.5042 42.2159Z"
  />
</svg>
