<svg
  width="60"
  height="60"
  viewBox="0 0 60 60"
  fill="currentColor"
  xmlns="http://www.w3.org/2000/svg"
>
  <path
    d="M35.3867 7.24269C35.3867 6.00005 36.3941 4.99269 37.6367 4.99269L42.9906 4.99268C43.4909 4.99261 43.9919 4.99254 44.4187 5.02741C44.8914 5.06603 45.4674 5.15837 46.0514 5.45591C46.8511 5.86337 47.5012 6.51354 47.9087 7.31323C48.2062 7.89719 48.2986 8.47323 48.3372 8.94587C48.3721 9.37268 48.372 9.87365 48.3719 10.3739L48.3719 15.7279C48.3719 16.9705 47.3645 17.9779 46.1219 17.9779C44.8793 17.9779 43.8719 16.9705 43.8719 15.7279V10.4427C43.8719 9.99737 43.8709 9.71031 43.863 9.50163C43.6543 9.49366 43.3672 9.49269 42.9219 9.49269H37.6367C36.3941 9.49269 35.3867 8.48533 35.3867 7.24269Z"
  />
  <path
    d="M17.9775 29.1221C17.9775 30.3647 16.9702 31.3721 15.7275 31.3721L10.3736 31.3721C9.87337 31.3722 9.37235 31.3722 8.94551 31.3374C8.47286 31.2987 7.89683 31.2064 7.31286 30.9089C6.51317 30.5014 5.86301 29.8512 5.45555 29.0515C5.158 28.4676 5.06566 27.8915 5.02704 27.4189C4.99217 26.9921 4.99224 26.491 4.99232 25.9907L4.99232 20.6369C4.99232 19.3942 5.99968 18.3869 7.24232 18.3869C8.48496 18.3869 9.49232 19.3942 9.49232 20.6369V25.9221C9.49232 26.3674 9.4933 26.6545 9.50127 26.8631C9.70995 26.8711 9.997 26.8721 10.4423 26.8721H15.7275C16.9702 26.8721 17.9775 27.8794 17.9775 29.1221Z"
  />
  <path
    d="M29.75 18.25C25.3317 18.25 21.75 21.8317 21.75 26.25V53C21.75 54.2427 22.7573 55.25 24 55.25C25.2426 55.25 26.25 54.2427 26.25 53V26.25C26.25 24.317 27.817 22.75 29.75 22.75C31.683 22.75 33.25 24.317 33.25 26.25V39.7299C33.25 41.2253 34.2787 42.5241 35.7343 42.8666L45.1847 45.0902C47.4114 45.6141 48.013 45.7835 48.4471 46.0472C49.2136 46.5129 49.7879 47.238 50.0656 48.0908C50.2229 48.5737 50.25 49.1982 50.25 51.4857V53C50.25 54.2427 51.2573 55.25 52.5 55.25C53.7426 55.25 54.75 54.2427 54.75 53L54.7502 51.1588C54.7516 49.3568 54.7527 47.9508 54.3444 46.6973C53.7334 44.821 52.47 43.2259 50.7836 42.2013C49.6569 41.5168 48.288 41.1959 46.5336 40.7845L37.75 38.718V26.25C37.75 21.8317 34.1683 18.25 29.75 18.25Z"
  />
</svg>
