<svg
  width="60"
  height="60"
  viewBox="0 0 60 60"
  fill="currentColor"
  xmlns="http://www.w3.org/2000/svg"
>
  <path
    fill-rule="evenodd"
    clip-rule="evenodd"
    d="M21.25 24.2501C21.25 19.8318 24.8317 16.2501 29.25 16.2501C33.6683 16.2501 37.25 19.8318 37.25 24.2501V39.6648L50.1578 42.3125C53.9952 43.0997 56.75 46.4769 56.75 50.3943V54.0001C56.75 55.2427 55.7426 56.2501 54.5 56.2501C53.2574 56.2501 52.25 55.2427 52.25 54.0001V50.3943C52.25 48.6136 50.9978 47.0785 49.2535 46.7207L35.4403 43.8873C33.8742 43.566 32.75 42.1878 32.75 40.5891V24.2501C32.75 22.3171 31.183 20.7501 29.25 20.7501C27.317 20.7501 25.75 22.3171 25.75 24.2501V54.0001C25.75 55.2427 24.7426 56.2501 23.5 56.2501C22.2574 56.2501 21.25 55.2427 21.25 54.0001V24.2501Z"
  />
  <path
    fill-rule="evenodd"
    clip-rule="evenodd"
    d="M49.6143 14.4854C49.6143 15.7281 48.6069 16.7354 47.3643 16.7354H42.0791C42.0562 16.7354 42.0333 16.7354 42.0104 16.7354C41.5101 16.7355 41.0091 16.7356 40.5822 16.7007C40.1096 16.6621 39.5336 16.5698 38.9496 16.2722C38.1499 15.8648 37.4997 15.2146 37.0923 14.4149C36.7947 13.8309 36.7024 13.2549 36.6638 12.7823C36.6289 12.3554 36.629 11.8544 36.6291 11.3541C36.6291 11.3312 36.6291 11.3083 36.6291 11.2854V6.00024C36.6291 4.7576 37.6364 3.75024 38.8791 3.75024C40.1217 3.75024 41.1291 4.7576 41.1291 6.00024V11.2854C41.1291 11.7308 41.13 12.0178 41.138 12.2265C41.3467 12.2345 41.6337 12.2354 42.0791 12.2354H47.3643C48.6069 12.2354 49.6143 13.2428 49.6143 14.4854Z"
  />
  <path
    fill-rule="evenodd"
    clip-rule="evenodd"
    d="M4.75 30.8795C4.75 29.6368 5.75736 28.6295 7 28.6295H12.2852C12.3081 28.6295 12.331 28.6295 12.3539 28.6295C12.8542 28.6294 13.3552 28.6293 13.782 28.6642C14.2547 28.7028 14.8307 28.7952 15.4147 29.0927C16.2143 29.5002 16.8645 30.1503 17.272 30.95C17.5695 31.534 17.6619 32.11 17.7005 32.5827C17.7354 33.0095 17.7353 33.5106 17.7352 34.0108C17.7352 34.0337 17.7352 34.0566 17.7352 34.0795V39.3647C17.7352 40.6073 16.7278 41.6147 15.4852 41.6147C14.2426 41.6147 13.2352 40.6073 13.2352 39.3647V34.0795C13.2352 33.6342 13.2342 33.3471 13.2263 33.1384C13.0176 33.1305 12.7305 33.1295 12.2852 33.1295H7C5.75736 33.1295 4.75 32.1221 4.75 30.8795Z"
  />
</svg>
