<svg
  width="60"
  height="60"
  viewBox="0 0 60 60"
  fill="currentColor"
  xmlns="http://www.w3.org/2000/svg"
>
  <path
    fill-rule="evenodd"
    clip-rule="evenodd"
    d="M30.0001 8.75C22.6038 8.75 16.1885 11.3573 11.73 13.8744C9.77105 14.9803 9.35221 15.2646 8.8978 15.9732C8.76363 16.1824 8.58816 16.5835 8.45968 17.0956C8.33121 17.6076 8.2965 18.0441 8.31601 18.2918C8.37996 19.1043 8.7046 19.7174 10.2224 22.1108L23.7929 43.5105C25.163 45.671 26.1097 47.1597 26.9203 48.2122C27.7311 49.265 28.2084 49.6094 28.5319 49.7471C29.47 50.1462 30.5301 50.1462 31.4682 49.7471C31.7917 49.6094 32.269 49.265 33.0798 48.2122C33.8904 47.1597 34.8371 45.671 36.2072 43.5105L49.7777 22.1108C51.2955 19.7174 51.6201 19.1043 51.6841 18.2918C51.7036 18.0441 51.6689 17.6076 51.5404 17.0956C51.4119 16.5835 51.2365 16.1824 51.1023 15.9732C50.6479 15.2646 50.2291 14.9803 48.2701 13.8744C43.8116 11.3573 37.3963 8.75 30.0001 8.75ZM9.51763 9.95576C14.3774 7.21209 21.5653 4.25 30.0001 4.25C38.4348 4.25 45.6227 7.21209 50.4825 9.95576C50.5521 9.99505 50.6211 10.034 50.6897 10.0726C52.3908 11.0312 53.7814 11.8149 54.8903 13.5439C55.3639 14.2824 55.698 15.175 55.9051 16.0004C56.1122 16.8258 56.2391 17.7704 56.1702 18.645C56.0087 20.6966 55.0084 22.2702 53.7705 24.2176C53.707 24.3176 53.6428 24.4186 53.578 24.5207L39.9478 46.0146C38.6518 48.0583 37.5962 49.723 36.6451 50.958C35.6796 52.2116 34.6245 53.2945 33.2299 53.8879C31.1662 54.7659 28.8339 54.7659 26.7702 53.8879C25.3756 53.2945 24.3205 52.2116 23.355 50.958C22.4039 49.7229 21.3483 48.0583 20.0523 46.0146L6.42208 24.5207C6.35734 24.4186 6.29315 24.3176 6.22958 24.2176C4.99169 22.2702 3.99138 20.6966 3.82988 18.645C3.76104 17.7704 3.88788 16.8258 4.09499 16.0004C4.30209 15.175 4.63623 14.2824 5.10983 13.5439C6.21866 11.8149 7.60929 11.0312 9.3104 10.0726C9.37897 10.034 9.44804 9.99505 9.51763 9.95576Z"
  />
  <path
    d="M25.0001 20C25.0001 22.2091 23.2092 24 21.0001 24C18.7909 24 17.0001 22.2091 17.0001 20C17.0001 17.7909 18.7909 16 21.0001 16C23.2092 16 25.0001 17.7909 25.0001 20Z"
  />
  <path
    d="M34.0001 36C34.0001 38.2091 32.2092 40 30.0001 40C27.7909 40 26.0001 38.2091 26.0001 36C26.0001 33.7909 27.7909 32 30.0001 32C32.2092 32 34.0001 33.7909 34.0001 36Z"
  />
</svg>
