<svg
  width="60"
  height="60"
  viewBox="0 0 60 60"
  fill="currentColor"
  xmlns="http://www.w3.org/2000/svg"
>
  <path
    fill-rule="evenodd"
    clip-rule="evenodd"
    d="M32.25 12.8489V12C32.25 10.7574 31.2426 9.75 30 9.75C28.7574 9.75 27.75 10.7574 27.75 12V12.8489C14.8588 13.9872 4.74999 24.8131 4.74999 38L4.74999 38.057C4.74994 38.4734 4.74989 38.8905 4.77424 39.2475C4.80109 39.6409 4.8649 40.1228 5.07351 40.6264C5.50486 41.6678 6.33222 42.4951 7.37359 42.9265C7.87721 43.1351 8.35905 43.1989 8.75252 43.2258C9.10943 43.2501 9.52649 43.2501 9.94277 43.25H50.057C50.4733 43.2501 50.8906 43.2501 51.2475 43.2258C51.6409 43.1989 52.1228 43.1351 52.6264 42.9265C53.6678 42.4951 54.4951 41.6678 54.9265 40.6264C55.1351 40.1228 55.1989 39.6409 55.2257 39.2475C55.2501 38.8905 55.25 38.4733 55.25 38.0569L55.25 38C55.25 24.8131 45.1412 13.9872 32.25 12.8489ZM30 17.25C18.5401 17.25 9.24999 26.5401 9.24999 38C9.24999 38.344 9.25058 38.5744 9.25512 38.7449C9.42558 38.7494 9.65599 38.75 9.99999 38.75H50C50.344 38.75 50.5744 38.7494 50.7449 38.7449C50.7494 38.5744 50.75 38.344 50.75 38C50.75 26.5401 41.4599 17.25 30 17.25Z"
  />
  <path
    d="M2.74902 47.75C2.74902 46.5074 3.75638 45.5 4.99902 45.5H55.0015C56.2442 45.5 57.2515 46.5074 57.2515 47.75C57.2515 48.9926 56.2442 50 55.0015 50H4.99902C3.75638 50 2.74902 48.9926 2.74902 47.75Z"
  />
</svg>
