<svg
  width="60"
  height="60"
  viewBox="0 0 60 60"
  fill="currentColor"
  xmlns="http://www.w3.org/2000/svg"
>
  <path
    fill-rule="evenodd"
    clip-rule="evenodd"
    d="M53.9229 25.905C55.0609 28.5164 55.0609 31.4835 53.9229 34.0949C53.1738 35.8138 51.7806 37.139 50.0584 38.4072C48.3508 39.6646 46.0326 41.0648 43.1229 42.8222L31.73 49.7035C28.6393 51.5703 26.1847 53.0529 24.1765 54.0276C22.1599 55.0063 20.2537 55.6508 18.3196 55.4745C15.3986 55.2083 12.7315 53.7034 10.9934 51.3406C9.84264 49.7763 9.40868 47.8114 9.20389 45.5792C8.99996 43.3564 8.99998 40.4888 9 36.8781L9 23.1217C8.99998 19.5111 8.99996 16.6434 9.20389 14.4206C9.40869 12.1885 9.84264 10.2236 10.9934 8.65922C12.7315 6.29649 15.3986 4.7916 18.3196 4.52537C20.2537 4.3491 22.1599 4.99351 24.1765 5.97226C26.1846 6.94691 28.6392 8.42951 31.7299 10.2963L43.1229 17.1776C46.0326 18.9351 48.3508 20.3352 50.0584 21.5926C51.7806 22.8609 53.1738 24.1861 53.9229 25.905ZM49.7976 32.2971C50.436 30.8322 50.436 29.1677 49.7976 27.7028C49.5291 27.0867 48.9165 26.3402 47.39 25.2162C45.8684 24.0957 43.7286 22.8006 40.6967 20.9693L29.5045 14.2093C26.29 12.2678 24.0117 10.8943 22.2116 10.0206C20.3981 9.14043 19.4088 8.94475 18.7281 9.00679C17.0894 9.15614 15.5933 10.0004 14.6183 11.3258C14.2132 11.8764 13.8692 12.8244 13.6851 14.8318C13.5023 16.8243 13.5 19.4846 13.5 23.2398L13.5 36.76C13.5 40.5153 13.5023 43.1756 13.6851 45.1681C13.8692 47.1755 14.2132 48.1234 14.6183 48.6741C15.5933 49.9995 17.0894 50.8437 18.7281 50.9931C19.4088 51.0551 20.3981 50.8594 22.2116 49.9792C24.0117 49.1056 26.29 47.7321 29.5045 45.7906L40.6967 39.0305C43.7286 37.1992 45.8684 35.9042 47.39 34.7837C48.9165 33.6596 49.5291 32.9131 49.7976 32.2971Z"
  />
</svg>
