<svg
  width="60"
  height="60"
  viewBox="0 0 60 60"
  fill="currentColor"
  xmlns="http://www.w3.org/2000/svg"
>
  <path
    d="M46.591 24.0126C47.4697 23.1339 47.4697 21.7093 46.591 20.8306L33.0052 7.24486C31.3455 5.58513 28.6545 5.58513 26.9948 7.24486L13.409 20.8306C12.5303 21.7093 12.5303 23.1339 13.409 24.0126C14.2877 24.8913 15.7123 24.8913 16.591 24.0126L27.75 12.8536L27.75 43.4216C27.75 44.6643 28.7574 45.6716 30 45.6716C31.2426 45.6716 32.25 44.6643 32.25 43.4216L32.25 12.8536L43.409 24.0126C44.2877 24.8913 45.7123 24.8913 46.591 24.0126Z"
  />
  <path
    d="M48 53.6716C49.2426 53.6716 50.25 52.6643 50.25 51.4216C50.25 50.179 49.2426 49.1716 48 49.1716H12.0006C10.7579 49.1716 9.75 50.179 9.75 51.4216C9.75 52.6643 10.7574 53.6716 12 53.6716H48Z"
  />
</svg>
