<svg
  width="60"
  height="60"
  viewBox="0 0 60 60"
  fill="currentColor"
  xmlns="http://www.w3.org/2000/svg"
>
  <path
    d="M46.591 35.9874C47.4697 36.8661 47.4697 38.2907 46.591 39.1694L33.0052 52.7552C31.3455 54.4149 28.6545 54.4149 26.9948 52.7552L13.409 39.1694C12.5303 38.2907 12.5303 36.8661 13.409 35.9874C14.2877 35.1088 15.7123 35.1088 16.591 35.9874L27.75 47.1465L27.75 16.5784C27.75 15.3358 28.7574 14.3284 30 14.3284C31.2426 14.3284 32.25 15.3358 32.25 16.5784L32.25 47.1465L43.409 35.9874C44.2877 35.1088 45.7123 35.1088 46.591 35.9874Z"
  />
  <path
    d="M48 6.32843C49.2426 6.32843 50.25 7.33579 50.25 8.57843C50.25 9.82107 49.2426 10.8284 48 10.8284H12.0006C10.7579 10.8284 9.75 9.82107 9.75 8.57843C9.75 7.33579 10.7574 6.32843 12 6.32843H48Z"
  />
</svg>
