<svg
  width="61"
  height="60"
  viewBox="0 0 61 60"
  fill="currentColor"
  xmlns="http://www.w3.org/2000/svg"
>
  <path
    d="M0.5 18.7826C0.5 12.2081 0.5 8.92081 1.77949 6.40968C2.90496 4.20082 4.70082 2.40496 6.90968 1.27949C9.42081 0 12.7081 0 19.2826 0H41.7174C48.2919 0 51.5792 0 54.0903 1.27949C56.2992 2.40496 58.095 4.20082 59.2205 6.40968C60.5 8.92081 60.5 12.2081 60.5 18.7826V41.2174C60.5 47.7919 60.5 51.0792 59.2205 53.5903C58.095 55.7992 56.2992 57.595 54.0903 58.7205C51.5792 60 48.2919 60 41.7174 60H19.2826C12.7081 60 9.42081 60 6.90968 58.7205C4.70082 57.595 2.90496 55.7992 1.77949 53.5903C0.5 51.0792 0.5 47.7919 0.5 41.2174V18.7826Z"
    fill="#D74134"
    fill-opacity="0.08"
  />
  <path
    fill-rule="evenodd"
    clip-rule="evenodd"
    d="M18.5 13.5615C18.5 12.1468 19.6193 11 21 11H33.2222C38.8985 11 43.5 15.7148 43.5 21.5308C43.5 27.3468 38.8985 32.0615 33.2222 32.0615H23.5V45.4385C23.5 46.8532 22.3807 48 21 48C19.6193 48 18.5 46.8532 18.5 45.4385V13.5615ZM23.5 26.9385H33.2222C36.1371 26.9385 38.5 24.5174 38.5 21.5308C38.5 18.5442 36.1371 16.1231 33.2222 16.1231H23.5V26.9385Z"
    fill="#E55649"
  />
</svg>
