<svg
  width="60"
  height="60"
  viewBox="0 0 60 60"
  fill="currentColor"
  xmlns="http://www.w3.org/2000/svg"
>
  <path
    d="M5 20.6522C5 15.1734 5 12.434 6.06624 10.3414C7.00413 8.50068 8.50068 7.00413 10.3414 6.06624C12.434 5 15.1734 5 20.6522 5H39.3478C44.8266 5 47.566 5 49.6586 6.06624C51.4993 7.00413 52.9959 8.50068 53.9338 10.3414C55 12.434 55 15.1734 55 20.6522V39.3478C55 44.8266 55 47.566 53.9338 49.6586C52.9959 51.4993 51.4993 52.9959 49.6586 53.9338C47.566 55 44.8266 55 39.3478 55H20.6522C15.1734 55 12.434 55 10.3414 53.9338C8.50068 52.9959 7.00413 51.4993 6.06624 49.6586C5 47.566 5 44.8266 5 39.3478V20.6522Z"
    fill="#E55649"
  />
  <path
    fill-rule="evenodd"
    clip-rule="evenodd"
    d="M19.75 16C19.75 14.7574 20.7574 13.75 22 13.75H33C38.1086 13.75 42.25 17.8914 42.25 23C42.25 28.1086 38.1086 32.25 33 32.25H24.25V44C24.25 45.2426 23.2426 46.25 22 46.25C20.7574 46.25 19.75 45.2426 19.75 44V16ZM24.25 27.75H33C35.6234 27.75 37.75 25.6234 37.75 23C37.75 20.3766 35.6234 18.25 33 18.25H24.25V27.75Z"
    fill="white"
  />
</svg>
