<svg
  width="60"
  height="60"
  viewBox="0 0 60 60"
  fill="currentColor"
  xmlns="http://www.w3.org/2000/svg"
>
  <path
    d="M16 22.75C14.7574 22.75 13.75 23.7574 13.75 25C13.75 26.2426 14.7574 27.25 16 27.25H24C25.2426 27.25 26.25 26.2426 26.25 25C26.25 23.7574 25.2426 22.75 24 22.75H16Z"
  />
  <path
    fill-rule="evenodd"
    clip-rule="evenodd"
    d="M48.524 13.8392C47.857 13.7847 47.0988 13.7635 46.2448 13.7552C46.2365 12.9012 46.2153 12.143 46.1608 11.476C46.0677 10.3363 45.8663 9.26637 45.3508 8.25458C44.5598 6.70225 43.2978 5.44016 41.7454 4.6492C40.7336 4.13367 39.6637 3.93234 38.524 3.83922C37.4313 3.74995 36.0938 3.74997 34.4914 3.75H25.5087C23.9063 3.74997 22.5687 3.74995 21.476 3.83922C20.3363 3.93233 19.2664 4.13367 18.2546 4.6492C16.7022 5.44016 15.4402 6.70224 14.6492 8.25458C14.1337 9.26637 13.9323 10.3363 13.8392 11.476C13.7847 12.143 13.7635 12.9012 13.7552 13.7552C12.9012 13.7635 12.143 13.7847 11.476 13.8392C10.3363 13.9323 9.26637 14.1337 8.25458 14.6492C6.70224 15.4402 5.44016 16.7022 4.6492 18.2546C4.13367 19.2664 3.93233 20.3363 3.83922 21.476C3.74995 22.5687 3.74997 23.9062 3.75 25.5086V34.4913C3.74997 36.0937 3.74995 37.4313 3.83922 38.524C3.93233 39.6637 4.13367 40.7336 4.6492 41.7454C5.44016 43.2978 6.70224 44.5599 8.25458 45.3508C9.26637 45.8663 10.3363 46.0677 11.476 46.1608C12.143 46.2153 12.9012 46.2365 13.7552 46.2448C13.7635 47.0988 13.7847 47.857 13.8392 48.524C13.9323 49.6637 14.1337 50.7336 14.6492 51.7454C15.4401 53.2978 16.7022 54.5598 18.2546 55.3508C19.2664 55.8663 20.3363 56.0677 21.476 56.1608C22.5687 56.2501 23.9063 56.25 25.5087 56.25H34.4913C36.0937 56.25 37.4313 56.2501 38.524 56.1608C39.6637 56.0677 40.7336 55.8663 41.7454 55.3508C43.2978 54.5598 44.5598 53.2978 45.3508 51.7454C45.8663 50.7336 46.0677 49.6637 46.1608 48.524C46.2153 47.857 46.2365 47.0988 46.2448 46.2448C47.0988 46.2365 47.857 46.2153 48.524 46.1608C49.6637 46.0677 50.7336 45.8663 51.7454 45.3508C53.2978 44.5599 54.5599 43.2978 55.3508 41.7454C55.8663 40.7336 56.0677 39.6637 56.1608 38.524C56.2501 37.4313 56.25 36.0938 56.25 34.4914V25.5086C56.25 23.9062 56.2501 22.5687 56.1608 21.476C56.0677 20.3363 55.8663 19.2664 55.3508 18.2546C54.5599 16.7022 53.2978 15.4402 51.7454 14.6492C50.7336 14.1337 49.6637 13.9323 48.524 13.8392ZM46.25 41.7443C47.0189 41.7366 47.6343 41.7185 48.1576 41.6757C49.0189 41.6054 49.4308 41.4797 49.7025 41.3413C50.4081 40.9818 50.9818 40.4081 51.3413 39.7025C51.4797 39.4308 51.6054 39.0189 51.6757 38.1576C51.7483 37.2699 51.75 36.1173 51.75 34.4V25.6C51.75 23.8827 51.7483 22.7301 51.6757 21.8424C51.6054 20.9811 51.4797 20.5692 51.3413 20.2975C50.9818 19.5919 50.4081 19.0183 49.7025 18.6587C49.4308 18.5203 49.0189 18.3947 48.1576 18.3243C47.2804 18.2526 46.1445 18.2501 44.4607 18.25L15.6 18.25C13.8827 18.25 12.7301 18.2518 11.8424 18.3243C10.9811 18.3947 10.5692 18.5203 10.2975 18.6587C9.59193 19.0183 9.01825 19.5919 8.65873 20.2975C8.5203 20.5692 8.39465 20.9811 8.32428 21.8424C8.25175 22.7301 8.25 23.8827 8.25 25.6V34.4C8.25 36.1173 8.25175 37.2699 8.32428 38.1576C8.39465 39.0189 8.5203 39.4308 8.65873 39.7025C9.01825 40.4081 9.59193 40.9818 10.2975 41.3413C10.5692 41.4797 10.9811 41.6054 11.8424 41.6757C12.3657 41.7185 12.9811 41.7366 13.75 41.7443L13.75 37.2363C12.625 37.1119 11.75 36.1581 11.75 35C11.75 33.8419 12.625 32.8881 13.75 32.7637V32.75L46.25 32.75V32.7637C47.375 32.8881 48.25 33.8419 48.25 35C48.25 36.1581 47.375 37.1119 46.25 37.2363L46.25 41.7443ZM41.75 37.25H18.25L18.25 44.4C18.25 46.1173 18.2517 47.2699 18.3243 48.1576C18.3946 49.0189 18.5203 49.4308 18.6587 49.7025C19.0182 50.4081 19.5919 50.9818 20.2975 51.3413C20.5692 51.4797 20.9811 51.6054 21.8424 51.6757C22.7301 51.7483 23.8827 51.75 25.6 51.75H34.4C36.1173 51.75 37.2699 51.7483 38.1576 51.6757C39.0189 51.6054 39.4308 51.4797 39.7025 51.3413C40.4081 50.9818 40.9817 50.4081 41.3413 49.7025C41.4797 49.4308 41.6053 49.0189 41.6757 48.1576C41.7482 47.2699 41.75 46.1173 41.75 44.4V37.25ZM41.7443 13.75L18.2557 13.75C18.2634 12.9811 18.2815 12.3657 18.3243 11.8424C18.3946 10.9811 18.5203 10.5692 18.6587 10.2975C19.0183 9.59193 19.5919 9.01825 20.2975 8.65873C20.5692 8.5203 20.9811 8.39465 21.8424 8.32428C22.7301 8.25175 23.8827 8.25 25.6 8.25L34.4 8.25C36.1173 8.25 37.2699 8.25175 38.1576 8.32428C39.0189 8.39465 39.4308 8.5203 39.7025 8.65873C40.4081 9.01825 40.9817 9.59193 41.3413 10.2975C41.4797 10.5692 41.6053 10.9811 41.6757 11.8424C41.7185 12.3657 41.7366 12.9811 41.7443 13.75Z"
  />
</svg>
