<svg
  width="60"
  height="60"
  viewBox="0 0 60 60"
  fill="currentColor"
  xmlns="http://www.w3.org/2000/svg"
>
  <path
    d="M14.3444 5.44167C14.6002 4.87898 15.3995 4.87898 15.6553 5.44167L17.8127 10.1871L22.5582 12.3445C23.1208 12.6003 23.1208 13.3996 22.5582 13.6554L17.8127 15.8128L15.6553 20.5583C15.3995 21.121 14.6002 21.121 14.3444 20.5583L12.187 15.8128L7.44155 13.6554C6.87886 13.3996 6.87886 12.6003 7.44155 12.3445L12.187 10.1871L14.3444 5.44167Z"
  />
  <path
    d="M43.8527 6.00598C44.9289 6.6273 45.2976 8.00338 44.6763 9.07954L19.2204 53.1704C18.5991 54.2465 17.223 54.6152 16.1469 53.9939C15.0707 53.3726 14.702 51.9965 15.3233 50.9204L40.7792 6.82954C41.4005 5.75338 42.7766 5.38466 43.8527 6.00598Z"
  />
  <path
    d="M44.7281 36.6018C44.4439 35.9766 43.5558 35.9766 43.2716 36.6018L40.8744 41.8745L35.6017 44.2717C34.9765 44.5559 34.9765 45.444 35.6017 45.7282L40.8744 48.1254L43.2716 53.3981C43.5558 54.0233 44.4439 54.0233 44.7281 53.3981L47.1252 48.1254L52.3979 45.7282C53.0232 45.444 53.0232 44.5559 52.3979 44.2717L47.1252 41.8745L44.7281 36.6018Z"
  />
</svg>
