<svg
  width="60"
  height="60"
  viewBox="0 0 60 60"
  fill="currentColor"
  xmlns="http://www.w3.org/2000/svg"
>
  <path
    fill-rule="evenodd"
    clip-rule="evenodd"
    d="M43.8529 6.00592C44.9291 6.62724 45.2978 8.00332 44.6765 9.07948L19.2206 53.1703C18.5993 54.2465 17.2232 54.6152 16.1471 53.9939C15.0709 53.3725 14.7022 51.9965 15.3235 50.9203L40.7794 6.82948C41.4007 5.75332 42.7768 5.3846 43.8529 6.00592Z"
  />
  <path
    fill-rule="evenodd"
    clip-rule="evenodd"
    d="M48 33.7499C48.9592 33.7499 49.8129 34.358 50.1264 35.2645L50.1488 35.3292C51.207 38.3887 53.6113 40.793 56.6708 41.8512L56.7355 41.8735C57.6419 42.1871 58.25 43.0408 58.25 43.9999C58.25 44.9591 57.6419 45.8128 56.7355 46.1264L56.6708 46.1487C53.6113 47.2069 51.207 49.6112 50.1488 52.6707L50.1264 52.7354C49.8129 53.6419 48.9592 54.2499 48 54.2499C47.0408 54.2499 46.1871 53.6419 45.8736 52.7354L45.8512 52.6707C44.793 49.6112 42.3887 47.2069 39.3292 46.1487L39.2645 46.1264C38.3581 45.8128 37.75 44.9591 37.75 43.9999C37.75 43.0408 38.3581 42.1871 39.2645 41.8735L39.3292 41.8512C42.3887 40.793 44.793 38.3887 45.8512 35.3292L45.8736 35.2645C46.1871 34.358 47.0408 33.7499 48 33.7499ZM48 40.8042C47.1017 42.024 46.0241 43.1017 44.8042 43.9999C46.0241 44.8982 47.1017 45.9759 48 47.1957C48.8983 45.9759 49.9759 44.8982 51.1958 43.9999C49.9759 43.1017 48.8983 42.024 48 40.8042Z"
  />
  <path
    fill-rule="evenodd"
    clip-rule="evenodd"
    d="M17 5.74995C17.9592 5.74995 18.8129 6.35801 19.1264 7.26449L19.1404 7.30491C19.7171 8.97242 21.0275 10.2828 22.695 10.8596L22.7355 10.8735C23.6419 11.1871 24.25 12.0408 24.25 12.9999C24.25 13.9591 23.6419 14.8128 22.7355 15.1264L22.695 15.1403C21.0275 15.7171 19.7171 17.0275 19.1404 18.695L19.1264 18.7354C18.8129 19.6419 17.9592 20.2499 17 20.2499C16.0408 20.2499 15.1871 19.6419 14.8736 18.7354L14.8596 18.695C14.2829 17.0275 12.9725 15.7171 11.305 15.1403L11.2645 15.1264C10.3581 14.8128 9.75 13.9591 9.75 12.9999C9.75 12.0408 10.3581 11.1871 11.2645 10.8735L11.305 10.8596C12.9725 10.2828 14.2829 8.97242 14.8596 7.30491L14.8736 7.26449C15.1871 6.35801 16.0408 5.74995 17 5.74995ZM17 12.3311C16.7875 12.5642 16.5643 12.7874 16.3312 12.9999C16.5643 13.2125 16.7875 13.4357 17 13.6688C17.2125 13.4357 17.4357 13.2125 17.6688 12.9999C17.4357 12.7874 17.2125 12.5642 17 12.3311Z"
  />
</svg>
