<svg
  width="60"
  height="60"
  viewBox="0 0 60 60"
  fill="currentColor"
  xmlns="http://www.w3.org/2000/svg"
>
  <path
    d="M43.2608 37.4759C43.5493 36.8414 44.4507 36.8414 44.7392 37.4759L47.1723 42.8277L52.5241 45.2608C53.1586 45.5493 53.1586 46.4507 52.5241 46.7392L47.1723 49.1723L44.7392 54.5241C44.4507 55.1586 43.5493 55.1586 43.2608 54.5241L40.8277 49.1723L35.4759 46.7392C34.8414 46.4507 34.8414 45.5493 35.4759 45.2608L40.8277 42.8277L43.2608 37.4759Z"
  />
  <path
    d="M16.7392 5.47594C16.4507 4.84135 15.5493 4.84135 15.2608 5.47594L12.8277 10.8277L7.47594 13.2608C6.84135 13.5493 6.84135 14.4507 7.47594 14.7392L12.8277 17.1723L15.2608 22.5241C15.5493 23.1586 16.4507 23.1586 16.7392 22.5241L19.1723 17.1723L24.5241 14.7392C25.1586 14.4507 25.1586 13.5493 24.5241 13.2608L19.1723 10.8277L16.7392 5.47594Z"
  />
  <path
    d="M45.0934 10.0078C45.9261 8.57548 45.4401 6.73923 44.0077 5.90646C42.5754 5.07369 40.7391 5.55976 39.9063 6.99212L14.9063 49.9921C14.0736 51.4245 14.5596 53.2607 15.992 54.0935C17.4244 54.9263 19.2606 54.4402 20.0934 53.0078L45.0934 10.0078Z"
  />
</svg>
