<svg
  width="60"
  height="60"
  viewBox="0 0 60 60"
  fill="currentColor"
  xmlns="http://www.w3.org/2000/svg"
>
  <path
    fill-rule="evenodd"
    clip-rule="evenodd"
    d="M30 33C34.9706 33 39 28.9706 39 24C39 19.0295 34.9706 15 30 15C25.0294 15 21 19.0295 21 24C21 28.9706 25.0294 33 30 33ZM30 28.5C32.4853 28.5 34.5 26.4853 34.5 24C34.5 21.5147 32.4853 19.5 30 19.5C27.5147 19.5 25.5 21.5147 25.5 24C25.5 26.4853 27.5147 28.5 30 28.5Z"
  />
  <path
    fill-rule="evenodd"
    clip-rule="evenodd"
    d="M27.864 4.81373C29.2398 4.28963 30.7602 4.28963 32.136 4.81373L47.136 10.528C49.4625 11.4143 51 13.6453 51 16.1349V30C51 40.9153 43.7928 51.3802 31.9437 56.264C30.6998 56.7767 29.3002 56.7767 28.0563 56.264C16.2072 51.3802 9 40.9153 9 30V16.1349C9 13.6453 10.5375 11.4143 12.864 10.528L27.864 4.81373ZM30.534 9.01892L45.534 14.7332C46.1156 14.9548 46.5 15.5125 46.5 16.1349V30C46.5 34.2754 45.1315 38.5689 42.5531 42.3489C37.999 40.4173 34.0471 39.375 30 39.375C25.9529 39.375 22.001 40.4173 17.4469 42.3489C14.8685 38.5689 13.5 34.2754 13.5 30V16.1349C13.5 15.5125 13.8844 14.9548 14.466 14.7332L29.466 9.01892C29.8099 8.8879 30.1901 8.8879 30.534 9.01892ZM20.4614 45.9768C22.9551 48.4684 26.0796 50.5821 29.7711 52.1036C29.9166 52.1636 30.0834 52.1636 30.2289 52.1036C33.9204 50.5821 37.0449 48.4684 39.5386 45.9768C35.8899 44.5386 32.9065 43.875 30 43.875C27.0935 43.875 24.1101 44.5386 20.4614 45.9768Z"
  />
</svg>
