<svg
  width="60"
  height="60"
  viewBox="0 0 60 60"
  fill="currentColor"
  xmlns="http://www.w3.org/2000/svg"
>
  <path
    fill-rule="evenodd"
    clip-rule="evenodd"
    d="M33 7.25C29.5271 7.25 26.6641 9.87464 26.2913 13.2472L26.0699 15.25H22.6C20.8827 15.25 19.7301 15.2517 18.8424 15.3243C17.9811 15.3946 17.5692 15.5203 17.2975 15.6587C16.5919 16.0183 16.0183 16.5919 15.6587 17.2975C15.5203 17.5692 15.3946 17.9811 15.3243 18.8424C15.2517 19.7301 15.25 20.8827 15.25 22.6V27.0699L13.2472 27.2913C9.87464 27.6641 7.25 30.5271 7.25 34C7.25 37.4729 9.87468 40.3359 13.2473 40.7087L15.2488 40.9299L15.2501 42.9436C15.2511 44.4683 15.2619 45.5008 15.3363 46.2954C15.4084 47.064 15.5284 47.4466 15.6587 47.7025C16.0182 48.4081 16.5919 48.9817 17.2975 49.3413C17.5692 49.4797 17.9811 49.6054 18.8424 49.6757C19.7301 49.7482 20.8827 49.75 22.6 49.75H42.4C44.1173 49.75 45.2699 49.7482 46.1576 49.6757C47.0189 49.6054 47.4308 49.4797 47.7025 49.3413C48.4081 48.9817 48.9817 48.4081 49.3413 47.7025C49.4716 47.4466 49.5916 47.064 49.6637 46.2954C49.7037 45.8684 49.7253 45.3727 49.7369 44.769C45.1143 43.3699 41.75 39.079 41.75 34C41.75 28.9162 45.1207 24.622 49.75 23.2271V22.6C49.75 20.8827 49.7482 19.7301 49.6757 18.8424C49.6054 17.9811 49.4797 17.5692 49.3413 17.2975C48.9817 16.5919 48.4081 16.0183 47.7025 15.6587C47.4308 15.5203 47.0189 15.3946 46.1576 15.3243C45.2699 15.2517 44.1173 15.25 42.4 15.25H39.9301L39.7087 13.2472C39.3359 9.87464 36.4729 7.25 33 7.25ZM22.2271 10.75C23.622 6.12067 27.9162 2.75 33 2.75C38.0845 2.75 42.3792 6.1216 43.7735 10.7519C44.8224 10.7569 45.7368 10.7749 46.524 10.8392C47.6637 10.9323 48.7336 11.1337 49.7454 11.6492C51.2978 12.4402 52.5598 13.7022 53.3508 15.2546C53.8663 16.2664 54.0677 17.3363 54.1608 18.476C54.2501 19.5687 54.25 20.9062 54.25 22.5086V27.0699L52.2472 27.2913C48.8746 27.6641 46.25 30.5271 46.25 34C46.25 37.4729 48.8746 40.3358 52.2471 40.7087L54.2512 40.9302L54.2499 42.9465C54.249 44.4227 54.2416 45.6736 54.144 46.7152C54.044 47.7827 53.838 48.7892 53.3508 49.7454C52.5598 51.2978 51.2978 52.5598 49.7454 53.3508C48.7336 53.8663 47.6637 54.0677 46.524 54.1608C45.4313 54.2501 44.0938 54.25 42.4914 54.25H22.5086C20.9062 54.25 19.5687 54.2501 18.476 54.1608C17.3363 54.0677 16.2664 53.8663 15.2546 53.3508C13.7022 52.5598 12.4402 51.2978 11.6492 49.7454C11.162 48.7892 10.956 47.7827 10.856 46.7152C10.8016 46.1349 10.7752 45.4896 10.7624 44.7766C6.12669 43.3857 2.75 39.0884 2.75 34C2.75 28.9162 6.12066 24.622 10.75 23.2271L10.75 22.5087C10.75 20.9062 10.7499 19.5687 10.8392 18.476C10.9323 17.3363 11.1337 16.2664 11.6492 15.2546C12.4402 13.7022 13.7022 12.4402 15.2546 11.6492C16.2664 11.1337 17.3363 10.9323 18.476 10.8392C19.504 10.7552 20.7488 10.7503 22.2271 10.75Z"
  />
</svg>
