<svg
  xmlns="http://www.w3.org/2000/svg"
  width="60"
  height="60"
  viewBox="0 0 60 60"
  fill="currentColor"
>
  <path
    d="M49 47.9023V52.4023H11V47.9023H49ZM53.5 43.4023V16.5977C53.5 14.1124 51.4853 12.0977 49 12.0977H11C8.51472 12.0977 6.5 14.1124 6.5 16.5977V43.4023C6.5 45.8876 8.51472 47.9023 11 47.9023V52.4023L10.5371 52.3906C5.93498 52.1575 2.24488 48.4674 2.01172 43.8652L2 43.4023V16.5977C2 11.7823 5.78166 7.8503 10.5371 7.60938L11 7.59766H49L49.4629 7.60938C54.2183 7.8503 58 11.7823 58 16.5977V43.4023L57.9883 43.8652C57.7551 48.4674 54.065 52.1575 49.4629 52.3906L49 52.4023V47.9023C51.4853 47.9023 53.5 45.8876 53.5 43.4023Z"
  />
  <path
    d="M32.4341 19.1953H40.7487C43.3491 19.1953 45.4363 19.8843 46.9419 21.1997C48.4474 22.5463 49.2344 24.7386 49.2344 27.7764V32.1923C49.2344 35.2614 48.4474 37.4537 46.9077 38.8003C45.3337 40.147 43.2465 40.8047 40.6118 40.8047H32.4341V19.1953ZM40.7145 37.2344C42.0489 37.2344 43.0412 36.8273 43.7255 36.013C44.4099 35.1988 44.752 33.9147 44.752 32.1609V27.9957C44.752 26.1792 44.4098 24.8325 43.7597 24.0183C43.0754 23.204 42.0831 22.7656 40.7145 22.7656H36.9164V37.2344H40.7145Z"
  />
  <path
    d="M28.3836 19.1955V40.8048H23.9013V31.8136H16.0657V40.8048H11.5833V19.1955H16.0657V27.913H23.9013V19.1955H28.3836Z"
  />
</svg>
