<svg
  width="60"
  height="60"
  viewBox="0 0 60 60"
  fill="currentColor"
  xmlns="http://www.w3.org/2000/svg"
>
  <path
    fill-rule="evenodd"
    clip-rule="evenodd"
    d="M30 8.5C18.1259 8.5 8.5 18.1259 8.5 30C8.5 41.8741 18.1259 51.5 30 51.5C41.8741 51.5 51.5 41.8741 51.5 30C51.5 18.1259 41.8741 8.5 30 8.5ZM2.5 30C2.5 14.8122 14.8122 2.5 30 2.5C45.1878 2.5 57.5 14.8122 57.5 30C57.5 45.1878 45.1878 57.5 30 57.5C14.8122 57.5 2.5 45.1878 2.5 30Z"
  />
  <path
    fill-rule="evenodd"
    clip-rule="evenodd"
    d="M29.9998 19C28.5331 19 27.2229 19.658 26.3427 20.7057C25.6448 21.5365 25.2271 22.6019 25.2271 23.7727C25.2271 25.4296 23.8839 26.7727 22.2271 26.7727C20.5702 26.7727 19.2271 25.4296 19.2271 23.7727C19.2271 21.1382 20.1766 18.7176 21.7487 16.8463C23.7202 14.4996 26.6863 13 29.9998 13C35.9494 13 40.7725 17.8231 40.7725 23.7727C40.7725 28.0684 38.2581 31.7709 34.634 33.4997C34.0457 33.7804 33.574 34.1307 33.2855 34.4613C33.0114 34.7754 32.9998 34.9482 32.9998 35C32.9998 36.6569 31.6566 38 29.9998 38C28.3429 38 26.9998 36.6569 26.9998 35C26.9998 31.2964 30.0236 29.0513 32.0506 28.0844C33.6663 27.3136 34.7725 25.6694 34.7725 23.7727C34.7725 21.1368 32.6357 19 29.9998 19Z"
  />
  <path
    d="M33.5 44C33.5 45.933 31.933 47.5 30 47.5C28.067 47.5 26.5 45.933 26.5 44C26.5 42.067 28.067 40.5 30 40.5C31.933 40.5 33.5 42.067 33.5 44Z"
  />
</svg>
