<svg
  width="60"
  height="60"
  viewBox="0 0 60 60"
  fill="currentColor"
  xmlns="http://www.w3.org/2000/svg"
>
  <path
    d="M30 17.25C27.9251 17.25 26.0703 18.1835 24.8286 19.6616C23.8422 20.8358 23.25 22.3458 23.25 24C23.25 25.2426 22.2426 26.25 21 26.25C19.7574 26.25 18.75 25.2426 18.75 24C18.75 21.248 19.741 18.7216 21.3831 16.767C23.4433 14.3147 26.54 12.75 30 12.75C36.2132 12.75 41.25 17.7868 41.25 24C41.25 28.4847 38.6258 32.352 34.8391 34.1584C33.0739 35.0004 32.25 36.1376 32.25 37C32.25 38.2426 31.2426 39.25 30 39.25C28.7574 39.25 27.75 38.2426 27.75 37C27.75 33.4441 30.6789 31.1572 32.9015 30.0969C35.182 29.009 36.75 26.6854 36.75 24C36.75 20.2721 33.7279 17.25 30 17.25Z"
  />
  <path
    d="M30 42.5C28.6193 42.5 27.5 43.6193 27.5 45C27.5 46.3807 28.6193 47.5 30 47.5H30.1C31.4807 47.5 32.6 46.3807 32.6 45C32.6 43.6193 31.4807 42.5 30.1 42.5H30Z"
  />
  <path
    fill-rule="evenodd"
    clip-rule="evenodd"
    d="M2.75 30C2.75 14.9502 14.9502 2.75 30 2.75C45.0498 2.75 57.25 14.9502 57.25 30C57.25 45.0498 45.0498 57.25 30 57.25C14.9502 57.25 2.75 45.0498 2.75 30ZM30 7.25C17.4355 7.25 7.25 17.4355 7.25 30C7.25 42.5645 17.4355 52.75 30 52.75C42.5645 52.75 52.75 42.5645 52.75 30C52.75 17.4355 42.5645 7.25 30 7.25Z"
  />
</svg>
