<svg
  width="60"
  height="60"
  viewBox="0 0 60 60"
  fill="currentColor"
  xmlns="http://www.w3.org/2000/svg"
>
  <path
    d="M30 2.75C14.9502 2.75 2.75 14.9502 2.75 30C2.75 45.0498 14.9502 57.25 30 57.25C45.0498 57.25 57.25 45.0498 57.25 30C57.25 14.9502 45.0498 2.75 30 2.75Z"
  />
  <path
    d="M24.8286 19.6616C26.0703 18.1835 27.9251 17.25 30 17.25C33.7279 17.25 36.75 20.2721 36.75 24C36.75 26.6854 35.182 29.009 32.9015 30.0969C30.6789 31.1572 27.75 33.4441 27.75 37C27.75 38.2426 28.7574 39.25 30 39.25C31.2426 39.25 32.25 38.2426 32.25 37C32.25 36.1376 33.0739 35.0004 34.8391 34.1584C38.6258 32.352 41.25 28.4847 41.25 24C41.25 17.7868 36.2132 12.75 30 12.75C26.54 12.75 23.4433 14.3147 21.3831 16.767C19.741 18.7216 18.75 21.248 18.75 24C18.75 25.2426 19.7574 26.25 21 26.25C22.2426 26.25 23.25 25.2426 23.25 24C23.25 22.3458 23.8422 20.8358 24.8286 19.6616Z"
    fill="white"
  />
  <path
    d="M30 42.5C28.6193 42.5 27.5 43.6193 27.5 45C27.5 46.3807 28.6193 47.5 30 47.5H30.1C31.4807 47.5 32.6 46.3807 32.6 45C32.6 43.6193 31.4807 42.5 30.1 42.5H30Z"
    fill="white"
  />
</svg>
