<svg
  xmlns="http://www.w3.org/2000/svg"
  width="24"
  height="24"
  viewBox="0 0 24 24"
  fill="currentColor"
>
  <path
    d="M20.8101 16.7089C21.1615 16.3575 21.7313 16.3576 22.0828 16.7089C22.4342 17.0604 22.4342 17.6301 22.0828 17.9815L17.9816 22.0831C17.8103 22.2543 17.5773 22.3495 17.3351 22.3468C17.0928 22.344 16.8618 22.2431 16.6945 22.0679L14.5488 19.8214C14.2056 19.462 14.2188 18.8924 14.5781 18.5491C14.9376 18.2059 15.5075 18.2186 15.8507 18.578L17.3601 20.1589L20.8101 16.7089ZM14.6398 1.8999C15.633 1.8999 16.4322 1.89912 17.0777 1.95186C17.7337 2.00545 18.3099 2.11892 18.8429 2.39053C19.6896 2.82195 20.3779 3.51026 20.8093 4.35693C21.0809 4.89 21.1944 5.46621 21.248 6.12217C21.3007 6.76762 21.3 7.56683 21.3 8.56006V13.6858C21.3 14.1829 20.897 14.5858 20.4 14.5858C19.9029 14.5858 19.5 14.1829 19.5 13.6858V8.56006C19.5 7.53712 19.4992 6.82381 19.4539 6.26865C19.4094 5.72409 19.3266 5.41113 19.2058 5.17412C18.947 4.66609 18.5338 4.2529 18.0257 3.99404C17.7887 3.8733 17.4758 3.79049 16.9312 3.746C16.3761 3.70064 15.6627 3.6999 14.6398 3.6999H6.77535C5.30343 3.71332 4.11337 4.90337 4.09996 6.37529V17.6245C4.11337 19.0964 5.30343 20.2865 6.77535 20.2999H11.0902C11.5872 20.2999 11.9902 20.7029 11.9902 21.1999C11.9902 21.697 11.5872 22.0999 11.0902 22.0999H6.75894C4.30574 22.0775 2.32232 20.0941 2.29996 17.6409V6.35889C2.32232 3.90568 4.30574 1.92226 6.75894 1.8999H14.6398ZM15.6 6.6999C16.097 6.6999 16.5 7.10285 16.5 7.5999C16.5 8.09696 16.097 8.4999 15.6 8.4999H7.99996C7.5029 8.4999 7.09996 8.09696 7.09996 7.5999C7.09996 7.10285 7.5029 6.6999 7.99996 6.6999H15.6Z"
  />
</svg>
