<svg
  width="60"
  height="60"
  viewBox="0 0 60 60"
  fill="currentColor"
  xmlns="http://www.w3.org/2000/svg"
>
  <path
    d="M46.9672 32.3967C46.0411 32.3211 44.9132 32.3211 43.5885 32.3211H43.4115C42.0868 32.3211 40.9589 32.3211 40.0328 32.3967C39.2563 32.4602 38.4966 32.5839 37.7614 32.8657C37.859 26.367 38.5804 22.8459 39.9364 20.4335C41.373 17.8777 43.6819 16.2563 47.9743 13.7061C49.0426 13.0714 49.3941 11.6908 48.7594 10.6225C48.1247 9.55416 46.7442 9.20264 45.6758 9.83735C41.4683 12.3372 38.1146 14.4907 36.0136 18.2286C33.9382 21.921 33.25 26.8434 33.25 34.4466L33.25 42.6596C33.25 43.9843 33.2499 45.1123 33.3256 46.0383C33.4051 47.0113 33.5792 47.9577 34.0402 48.8626C34.7353 50.2267 35.8444 51.3359 37.2086 52.0309C38.1134 52.492 39.0599 52.6661 40.0328 52.7455C40.9589 52.8212 42.0868 52.8212 43.4114 52.8211H43.5886C44.9132 52.8212 46.0411 52.8212 46.9672 52.7455C47.9401 52.6661 48.8866 52.492 49.7914 52.0309C51.1556 51.3359 52.2647 50.2267 52.9598 48.8626C53.4208 47.9577 53.5949 47.0113 53.6744 46.0383C53.7501 45.1123 53.75 43.9843 53.75 42.6597V42.4826C53.75 41.1579 53.7501 40.03 53.6744 39.1039C53.5949 38.131 53.4208 37.1845 52.9598 36.2797C52.2647 34.9155 51.1556 33.8064 49.7914 33.1113C48.8866 32.6503 47.9401 32.4762 46.9672 32.3967Z"
  />
  <path
    d="M20.9682 32.3967C20.0421 32.3211 18.9142 32.3211 17.5895 32.3211H17.4125C16.0878 32.3211 14.9598 32.3211 14.0338 32.3967C13.2572 32.4602 12.4975 32.5839 11.7624 32.8657C11.86 26.367 12.5814 22.8459 13.9374 20.4335C15.374 17.8777 17.6829 16.2563 21.9753 13.7061C23.0436 13.0714 23.3951 11.6908 22.7604 10.6225C22.1257 9.55416 20.7451 9.20264 19.6768 9.83735C15.4692 12.3372 12.1156 14.4907 10.0146 18.2286C7.93916 21.921 7.25098 26.8434 7.25098 34.4466L7.25098 42.6596C7.25094 43.9843 7.25091 45.1123 7.32657 46.0383C7.40606 47.0113 7.58015 47.9577 8.04118 48.8626C8.73626 50.2267 9.84537 51.3359 11.2095 52.0309C12.1144 52.492 13.0609 52.6661 14.0338 52.7455C14.9598 52.8212 16.0878 52.8212 17.4124 52.8211H17.5895C18.9142 52.8212 20.0421 52.8212 20.9682 52.7455C21.9411 52.6661 22.8876 52.492 23.7924 52.0309C25.1566 51.3359 26.2657 50.2267 26.9608 48.8626C27.4218 47.9577 27.5959 47.0113 27.6754 46.0383C27.7511 45.1123 27.751 43.9843 27.751 42.6597V42.4826C27.751 41.1579 27.7511 40.03 27.6754 39.1039C27.5959 38.131 27.4218 37.1845 26.9608 36.2797C26.2657 34.9155 25.1566 33.8064 23.7924 33.1113C22.8876 32.6503 21.9411 32.4762 20.9682 32.3967Z"
  />
</svg>
