<svg
  width="60"
  height="60"
  viewBox="0 0 60 60"
  fill="currentColor"
  xmlns="http://www.w3.org/2000/svg"
>
  <path
    fill-rule="evenodd"
    clip-rule="evenodd"
    d="M55.2368 6.25452C55.3724 7.48975 54.4809 8.601 53.2457 8.73658L30.2499 11.2606V15.75L53.1215 15.7501C54.3642 15.7501 55.3715 16.7575 55.3715 18.0001C55.3715 19.2427 54.3642 20.2501 53.1215 20.2501L30.2499 20.25L30.2499 31.75L51.4499 31.75C51.6786 31.7498 51.9856 31.7496 52.2635 31.7764C52.61 31.8097 53.0733 31.8955 53.5554 32.1662C54.19 32.5226 54.7181 33.1271 54.986 33.8039C55.3141 34.6329 55.1876 35.4642 55.1347 35.8121L55.1344 35.8144C55.1295 35.8467 55.1252 35.8747 55.122 35.8982C54.0513 43.7941 46.6294 49.2934 39.2499 50.8958L39.2499 51.4485C39.25 51.6841 39.2501 51.9787 39.2288 52.24C39.2038 52.5459 39.1387 52.9984 38.8956 53.4754C38.5841 54.087 38.0869 54.5842 37.4753 54.8957C36.9983 55.1388 36.5458 55.2039 36.2399 55.2289C35.9785 55.2502 35.6841 55.2501 35.4484 55.25H24.5514C24.3157 55.2501 24.0212 55.2502 23.7599 55.2289C23.454 55.2039 23.0014 55.1388 22.5244 54.8957C21.9129 54.5842 21.4157 54.087 21.1041 53.4754C20.8611 52.9984 20.796 52.5459 20.771 52.24C20.7496 51.9786 20.7497 51.6841 20.7499 51.4484L20.7499 50.8958C13.3703 49.2934 5.9484 43.7941 4.87773 35.8982C4.87448 35.8742 4.87009 35.8454 4.86503 35.8121C4.81212 35.4643 4.68564 34.6329 5.01379 33.8039C5.28167 33.1271 5.80971 32.5226 6.44436 32.1662C6.92641 31.8955 7.38979 31.8097 7.73623 31.7764C8.01412 31.7496 8.32111 31.7498 8.54977 31.75L9.74988 31.75L9.74988 11.0375C9.73842 10.3895 10.0065 9.79023 10.4512 9.36773C10.5792 9.24617 10.7218 9.13925 10.8766 9.05C11.1522 8.89087 11.4648 8.78851 11.7982 8.75889L52.7547 4.26344C53.9899 4.12786 55.1012 5.0193 55.2368 6.25452ZM14.2499 20.2499L14.2499 31.75H17.7499L17.7499 20.2499L14.2499 20.2499ZM17.7499 15.7499L14.2499 15.7499V13.0168L17.7499 12.6327V15.7499ZM22.2499 20.2499L22.2499 31.75H25.7499L25.7499 20.2499L22.2499 20.2499ZM25.7499 15.7499L22.2499 15.7499V12.1387L25.7499 11.7546V15.7499ZM22.0409 46.5678C15.9974 45.3767 10.7339 41.2655 9.51757 36.25H50.4822C49.2658 41.2655 44.0024 45.3767 37.9589 46.5678L37.9158 46.5763C37.6904 46.6207 37.4256 46.6728 37.1978 46.7336C36.9493 46.7998 36.5467 46.9243 36.1448 47.2037C35.6442 47.5517 35.2676 48.0098 35.0229 48.5683C34.8332 49.0015 34.7847 49.4028 34.766 49.668C34.7497 49.8986 34.7498 50.1588 34.7499 50.3697L34.7499 50.75H25.2499L25.2499 50.3697C25.25 50.1588 25.2501 49.8986 25.2338 49.668C25.2151 49.4028 25.1666 49.0015 24.9768 48.5683C24.7322 48.0098 24.3555 47.5517 23.8549 47.2037C23.453 46.9243 23.0504 46.7998 22.8019 46.7336C22.5741 46.6728 22.3094 46.6207 22.084 46.5764L22.0409 46.5678Z"
  />
</svg>
