<svg
  width="60"
  height="60"
  viewBox="0 0 60 60"
  fill="currentColor"
  xmlns="http://www.w3.org/2000/svg"
>
  <path
    fill-rule="evenodd"
    clip-rule="evenodd"
    d="M19.7219 6.75722L28.8714 9.34296C29.5885 9.54562 29.706 9.57153 29.8076 9.58277C29.9355 9.59691 30.0645 9.59691 30.1924 9.58277C30.2939 9.57153 30.4115 9.54562 31.1286 9.34296L40.2782 6.75721C42.2658 6.19546 43.9013 5.73322 45.242 5.48015C46.6198 5.22005 47.9537 5.12284 49.2676 5.49844C51.2427 6.06306 52.9361 7.34424 54.0166 9.09136C54.7354 10.2536 55.0046 11.5636 55.129 12.9603C55.2501 14.3192 55.25 16.0188 55.25 18.0843V32.6563C55.25 33.8989 54.2426 34.9063 53 34.9063C51.7574 34.9063 50.75 33.8989 50.75 32.6563V18.1891C50.75 15.9928 50.7479 14.4949 50.6467 13.3596C50.5469 12.239 50.3676 11.7465 50.1894 11.4583C49.6982 10.6641 48.9285 10.0818 48.0307 9.82513C47.7049 9.73198 47.1822 9.69337 46.0767 9.90205C44.9566 10.1135 43.5147 10.5188 41.4011 11.1161L32.25 13.7024V50.0743C32.8599 49.8195 33.4738 49.5679 34.0884 49.3202C35.2409 48.8555 36.5518 49.4132 37.0165 50.5657C37.4811 51.7182 36.9234 53.0292 35.7709 53.4938C34.5683 53.9786 33.3748 54.4761 32.2144 54.9808L32.1074 55.0276C31.7312 55.1928 31.2272 55.414 30.6944 55.5023C30.2279 55.5795 29.772 55.5795 29.3056 55.5023C28.7727 55.414 28.2692 55.193 27.8934 55.028L27.7867 54.9813C22.8005 52.8123 17.2332 50.7907 13.003 49.3399L12.9349 49.3165C11.7434 48.9079 10.7484 48.5666 9.94826 48.2329C9.11526 47.8855 8.35034 47.4902 7.66933 46.9137C6.60281 46.0107 5.82272 44.9185 5.31463 43.6167C4.74616 42.1603 4.74773 40.4718 4.74975 38.3064L4.74999 18.0843C4.74996 16.0188 4.74993 14.3192 4.87099 12.9603C4.99542 11.5636 5.26462 10.2536 5.98339 9.09136C7.06388 7.34424 8.7573 6.06306 10.7324 5.49844C12.0463 5.12284 13.3802 5.22005 14.758 5.48015C16.0987 5.73322 17.7342 6.19547 19.7219 6.75722ZM18.5989 11.1161L27.75 13.7024V50.0743C23.1187 48.1397 18.2387 46.3783 14.4629 45.0833C13.186 44.6453 12.3299 44.3506 11.6804 44.0797C11.0487 43.8162 10.758 43.6324 10.577 43.4792C10.0814 43.0596 9.74273 42.5855 9.50665 41.9806C9.28807 41.4206 9.24999 40.6677 9.24999 37.9097V18.1891C9.24999 15.9928 9.2521 14.4949 9.35324 13.3596C9.45307 12.239 9.63238 11.7465 9.81063 11.4583C10.3018 10.6641 11.0715 10.0818 11.9693 9.82513C12.2951 9.73198 12.8178 9.69337 13.9233 9.90205C15.0434 10.1135 16.4853 10.5188 18.5989 11.1161Z"
  />
  <path
    d="M47.5184 37.1122C47.822 36.9626 48.178 36.9626 48.4816 37.1122C48.752 37.2453 48.8923 37.4776 48.9566 37.5908C49.0261 37.713 49.0967 37.8684 49.1647 38.0182L51.2063 42.5087C51.2469 42.5981 51.2681 42.6443 51.2851 42.6779L51.291 42.6893L51.295 42.6966L51.2987 42.7007L51.3034 42.705C51.3067 42.7069 51.3127 42.7101 51.3221 42.7149C51.3557 42.7319 51.4019 42.7531 51.4913 42.7937L55.9818 44.8352C56.1316 44.9033 56.287 44.9739 56.4092 45.0434C56.5224 45.1077 56.7547 45.248 56.8878 45.5184C57.0374 45.822 57.0374 46.178 56.8878 46.4816C56.7547 46.752 56.5224 46.8923 56.4092 46.9566C56.287 47.0261 56.1316 47.0967 55.9818 47.1647L51.4913 49.2063C51.4019 49.2469 51.3557 49.2681 51.3221 49.2851L51.314 49.2893L51.3034 49.295C51.3017 49.2964 51.3002 49.2978 51.2987 49.2993C51.2974 49.3006 51.2962 49.302 51.295 49.3034C51.2941 49.305 51.2928 49.3072 51.2913 49.3102C51.2896 49.3133 51.2876 49.3172 51.2851 49.3221C51.2681 49.3557 51.2469 49.4019 51.2063 49.4913L49.1648 53.9818C49.0967 54.1316 49.0261 54.287 48.9566 54.4092C48.8923 54.5224 48.752 54.7547 48.4816 54.8878C48.178 55.0374 47.822 55.0374 47.5184 54.8878C47.248 54.7547 47.1077 54.5224 47.0434 54.4092C46.9739 54.287 46.9033 54.1316 46.8353 53.9818L44.7937 49.4913C44.7531 49.4019 44.7319 49.3557 44.7149 49.3221C44.7101 49.3127 44.7069 49.3067 44.705 49.3034C44.7036 49.3017 44.702 49.3 44.7004 49.2984C44.6992 49.2972 44.6979 49.2961 44.6966 49.295C44.6947 49.2939 44.6918 49.2923 44.6879 49.2903C44.6851 49.2888 44.6818 49.2871 44.6779 49.2851C44.6443 49.2681 44.5981 49.2469 44.5087 49.2063L40.0182 47.1647C39.8684 47.0967 39.7129 47.026 39.5908 46.9566C39.4776 46.8923 39.2453 46.752 39.1122 46.4816C38.9626 46.178 38.9626 45.822 39.1122 45.5184C39.2453 45.248 39.4776 45.1077 39.5908 45.0434C39.713 44.9739 39.8684 44.9033 40.0182 44.8352L44.5087 42.7937C44.5981 42.7531 44.6443 42.7319 44.6779 42.7149C44.6873 42.7101 44.6933 42.7069 44.6966 42.705C44.6997 42.7025 44.7025 42.6997 44.705 42.6966C44.7069 42.6933 44.7101 42.6873 44.7149 42.6779C44.7319 42.6443 44.7531 42.5981 44.7937 42.5087L46.8353 38.0182C46.9033 37.8684 46.974 37.7129 47.0434 37.5908C47.1077 37.4776 47.248 37.2453 47.5184 37.1122Z"
  />
</svg>
