<svg
  width="60"
  height="60"
  viewBox="0 0 60 60"
  fill="currentColor"
  xmlns="http://www.w3.org/2000/svg"
>
  <path
    fill-rule="evenodd"
    clip-rule="evenodd"
    d="M28.8714 9.34296L19.7219 6.75722C17.7342 6.19547 16.0987 5.73322 14.758 5.48015C13.3802 5.22005 12.0463 5.12284 10.7324 5.49844C8.7573 6.06306 7.06388 7.34424 5.98339 9.09136C5.26462 10.2536 4.99542 11.5636 4.87099 12.9603C4.74993 14.3192 4.74996 16.0188 4.74999 18.0843L4.74975 38.3064C4.74773 40.4718 4.74616 42.1603 5.31463 43.6167C5.82272 44.9185 6.60281 46.0107 7.66933 46.9137C8.35034 47.4902 9.11526 47.8855 9.94826 48.2329C10.7484 48.5666 11.7434 48.9079 12.9349 49.3165L13.003 49.3399C17.2332 50.7907 22.8005 52.8123 27.7867 54.9813L27.8934 55.028C28.2691 55.193 28.7727 55.414 29.3056 55.5023C29.772 55.5795 30.2279 55.5795 30.6944 55.5023C31.2273 55.414 31.7308 55.193 32.1066 55.028L32.2133 54.9813C37.1995 52.8123 42.7668 50.7907 46.997 49.3399L47.0651 49.3165C48.2565 48.9079 49.2517 48.5666 50.0517 48.2329C50.8847 47.8855 51.6496 47.4902 52.3307 46.9137C53.3972 46.0107 54.1773 44.9185 54.6854 43.6167C55.2538 42.1603 55.2523 40.4718 55.2502 38.3064L55.25 18.0843C55.25 16.0188 55.2501 14.3192 55.129 12.9603C55.0046 11.5636 54.7354 10.2536 54.0166 9.09136C52.9361 7.34424 51.2427 6.06306 49.2676 5.49844C47.9537 5.12284 46.6198 5.22005 45.242 5.48015C43.9013 5.73322 42.2658 6.19546 40.2782 6.75721L31.1286 9.34296C30.4115 9.54562 30.2939 9.57153 30.1924 9.58277C30.0645 9.59691 29.9355 9.59691 29.8076 9.58277C29.706 9.57153 29.5885 9.54562 28.8714 9.34296ZM11.9693 9.82513C12.2951 9.73198 12.8178 9.69337 13.9233 9.90205C15.0434 10.1135 16.4853 10.5188 18.5989 11.1161L27.75 13.7024V50.0743C23.1187 48.1397 18.2387 46.3783 14.4629 45.0833C13.186 44.6453 12.3299 44.3506 11.6804 44.0797C11.0487 43.8162 10.758 43.6324 10.577 43.4792C10.0814 43.0596 9.74273 42.5855 9.50665 41.9806C9.28807 41.4206 9.24999 40.6677 9.24999 37.9097V18.1891C9.24999 15.9928 9.2521 14.4949 9.35324 13.3596C9.45307 12.239 9.63238 11.7465 9.81063 11.4583C10.3018 10.6641 11.0715 10.0818 11.9693 9.82513ZM32.25 50.0743C36.8813 48.1397 41.7613 46.3783 45.5371 45.0833C46.814 44.6453 47.6701 44.3506 48.3195 44.0797C48.9513 43.8162 49.242 43.6324 49.423 43.4792C49.9186 43.0596 50.2572 42.5855 50.4933 41.9806C50.7119 41.4206 50.75 40.6677 50.75 37.9097V18.1891C50.75 15.9928 50.7479 14.4949 50.6467 13.3596C50.5469 12.239 50.3676 11.7465 50.1894 11.4583C49.6982 10.6641 48.9285 10.0818 48.0307 9.82513C47.7049 9.73198 47.1822 9.69337 46.0767 9.90205C44.9566 10.1135 43.5147 10.5188 41.4011 11.1161L32.25 13.7024V50.0743Z"
  />
</svg>
