<svg
  width="60"
  height="60"
  viewBox="0 0 60 60"
  fill="currentColor"
  xmlns="http://www.w3.org/2000/svg"
>
  <path
    d="M17 17.75C15.7574 17.75 14.75 18.7574 14.75 20C14.75 21.2426 15.7574 22.25 17 22.25L43 22.25C44.2426 22.25 45.25 21.2426 45.25 20C45.25 18.7574 44.2426 17.75 43 17.75L17 17.75Z"
  />
  <path
    d="M17 27.75C15.7574 27.75 14.75 28.7574 14.75 30C14.75 31.2426 15.7574 32.25 17 32.25L43 32.25C44.2426 32.25 45.25 31.2426 45.25 30C45.25 28.7574 44.2426 27.75 43 27.75L17 27.75Z"
  />
  <path
    d="M14.75 40C14.75 38.7574 15.7574 37.75 17 37.75L43 37.75C44.2426 37.75 45.25 38.7574 45.25 40C45.25 41.2426 44.2426 42.25 43 42.25L17 42.25C15.7574 42.25 14.75 41.2426 14.75 40Z"
  />
  <path
    fill-rule="evenodd"
    clip-rule="evenodd"
    d="M7.10657 6.63045C6.40972 7.46225 6.0613 7.87816 5.79795 8.33637C5.45235 8.93769 5.21363 9.59438 5.09239 10.2773C5 10.7976 5 11.3402 5 12.4253V47.5743C5 48.6595 5 49.202 5.09239 49.7224C5.21363 50.4053 5.45235 51.062 5.79794 51.6633C6.06129 52.1215 6.40972 52.5374 7.10657 53.3692L7.21467 53.4982C7.7531 54.1409 8.02231 54.4623 8.32591 54.6385C8.87817 54.9591 9.55031 54.9967 10.1349 54.7397C10.4562 54.5985 10.7596 54.3091 11.3664 53.7305C11.9151 53.2072 12.1894 52.9456 12.4852 52.8071C13.0226 52.5554 13.6441 52.5554 14.1815 52.8071C14.4773 52.9456 14.7516 53.2072 15.3003 53.7305L15.4167 53.8415C16.0749 54.4692 16.404 54.7831 16.7698 54.9265C17.2392 55.1106 17.7608 55.1106 18.2302 54.9265C18.596 54.7831 18.9251 54.4692 19.5833 53.8415C20.2416 53.2137 20.5707 52.8998 20.9365 52.7564C21.4059 52.5723 21.9275 52.5723 22.3968 52.7564C22.7626 52.8998 23.0917 53.2137 23.75 53.8415C24.4083 54.4692 24.7374 54.7831 25.1032 54.9265C25.5725 55.1106 26.0941 55.1106 26.5635 54.9265C26.9293 54.7831 27.2584 54.4692 27.9167 53.8415C28.5749 53.2137 28.904 52.8998 29.2698 52.7564C29.7392 52.5723 30.2608 52.5723 30.7302 52.7564C31.096 52.8998 31.4251 53.2137 32.0833 53.8415C32.7416 54.4692 33.0707 54.7831 33.4365 54.9265C33.9059 55.1106 34.4275 55.1106 34.8968 54.9265C35.2626 54.7831 35.5917 54.4692 36.25 53.8415C36.9083 53.2137 37.2374 52.8998 37.6032 52.7564C38.0725 52.5723 38.5941 52.5723 39.0635 52.7564C39.4293 52.8998 39.7584 53.2137 40.4167 53.8415C41.0749 54.4692 41.404 54.7831 41.7698 54.9265C42.2392 55.1106 42.7608 55.1106 43.2302 54.9265C43.5959 54.7831 43.9251 54.4692 44.5833 53.8415L44.6997 53.7305C45.2484 53.2072 45.5227 52.9456 45.8185 52.8071C46.3559 52.5554 46.9774 52.5554 47.5148 52.8071C47.8106 52.9456 48.0849 53.2072 48.6336 53.7305C49.2404 54.3091 49.5438 54.5985 49.8651 54.7397C50.4497 54.9967 51.1218 54.9591 51.6741 54.6385C51.9777 54.4623 52.2469 54.1409 52.7853 53.4982L52.8934 53.3692C53.5903 52.5374 53.9387 52.1215 54.2021 51.6633C54.5476 51.062 54.7864 50.4053 54.9076 49.7224C55 49.202 55 48.6595 55 47.5743V12.4253C55 11.3402 55 10.7976 54.9076 10.2773C54.7864 9.59438 54.5476 8.93769 54.2021 8.33637C53.9387 7.87816 53.5903 7.46225 52.8934 6.63044L52.7853 6.50142C52.2469 5.85871 51.9777 5.53735 51.6741 5.36112C51.1218 5.04054 50.4497 5.00294 49.8651 5.25992C49.5438 5.40119 49.2404 5.69052 48.6336 6.26916C48.085 6.79242 47.8106 7.05407 47.5148 7.19257C46.9774 7.44423 46.3559 7.44423 45.8185 7.19257C45.5227 7.05406 45.2484 6.79243 44.6997 6.26916L44.5833 6.15818C43.9251 5.53043 43.5959 5.21655 43.2302 5.07311C42.7608 4.88904 42.2392 4.88904 41.7698 5.07311C41.4041 5.21655 41.075 5.53041 40.4167 6.15811C39.7585 6.78587 39.4293 7.09982 39.0635 7.24326C38.5941 7.42733 38.0725 7.42733 37.6032 7.24326C37.2374 7.09982 36.9083 6.78594 36.25 6.15818C35.5917 5.53043 35.2626 5.21655 34.8968 5.07311C34.4275 4.88904 33.9059 4.88904 33.4365 5.07311C33.0707 5.21655 32.7416 5.53042 32.0834 6.15815C31.4251 6.7859 31.0959 7.09982 30.7302 7.24326C30.2608 7.42733 29.7392 7.42733 29.2698 7.24326C28.9041 7.09982 28.5749 6.78594 27.9167 6.15818C27.2584 5.53043 26.9293 5.21655 26.5635 5.07311C26.0941 4.88904 25.5725 4.88904 25.1032 5.07311C24.7374 5.21655 24.4083 5.53043 23.75 6.15818C23.0917 6.78594 22.7626 7.09982 22.3968 7.24326C21.9275 7.42733 21.4059 7.42733 20.9365 7.24326C20.5707 7.09982 20.2416 6.78594 19.5833 6.15819C18.9251 5.53043 18.596 5.21655 18.2302 5.07311C17.7608 4.88904 17.2392 4.88904 16.7698 5.07311C16.404 5.21655 16.0749 5.53043 15.4167 6.15818L15.3003 6.26916C14.7516 6.79243 14.4773 7.05406 14.1815 7.19257C13.644 7.44423 13.0226 7.44423 12.4852 7.19257C12.1894 7.05406 11.9151 6.79243 11.3664 6.26916C10.7596 5.69052 10.4562 5.40119 10.1349 5.25992C9.55031 5.00294 8.87817 5.04054 8.32591 5.36112C8.02232 5.53735 7.7531 5.85871 7.21466 6.50142L7.10657 6.63045ZM9.5 16.3C9.5 14.6198 9.5 13.7798 9.82698 13.138C10.1146 12.5735 10.5735 12.1146 11.138 11.827C11.7798 11.5 12.6198 11.5 14.3 11.5H45.7C47.3802 11.5 48.2202 11.5 48.862 11.827C49.4265 12.1146 49.8854 12.5735 50.173 13.138C50.5 13.7798 50.5 14.6198 50.5 16.3V43.7C50.5 45.3802 50.5 46.2202 50.173 46.862C49.8854 47.4265 49.4265 47.8854 48.862 48.173C48.2202 48.5 47.3802 48.5 45.7 48.5H14.3C12.6198 48.5 11.7798 48.5 11.138 48.173C10.5735 47.8854 10.1146 47.4265 9.82698 46.862C9.5 46.2202 9.5 45.3802 9.5 43.7V16.3Z"
  />
</svg>
