<svg
  xmlns="http://www.w3.org/2000/svg"
  width="60"
  height="60"
  viewBox="0 0 60 60"
  fill="currentColor"
>
  <path
    d="M21.8838 24.0635C21.9345 24.0737 22.1096 24.116 22.4785 24.2861C23.0744 24.5609 23.8556 25.0087 25.0752 25.7129L28.6748 27.792L30.1982 28.6816C30.6124 28.93 30.941 29.1378 31.209 29.3271C31.5408 29.5616 31.665 29.6916 31.6992 29.7305C31.766 29.9037 31.7658 30.0952 31.6992 30.2686C31.6654 30.307 31.5417 30.4378 31.209 30.6729C30.6731 31.0514 29.8944 31.5039 28.6748 32.208L25.0752 34.2871L23.543 35.1611C23.1208 35.3955 22.7764 35.5765 22.4785 35.7139C22.1102 35.8837 21.9347 35.9253 21.8838 35.9355C21.6994 35.9065 21.5338 35.8097 21.417 35.6641C21.3996 35.6117 21.349 35.4385 21.3125 35.041C21.2526 34.3876 21.25 33.4865 21.25 32.0781V27.9219C21.25 26.5135 21.2526 25.6124 21.3125 24.959C21.3491 24.5598 21.3998 24.3865 21.417 24.335C21.5338 24.1897 21.6996 24.0924 21.8838 24.0635Z"
  />
  <path
    fill-rule="evenodd"
    clip-rule="evenodd"
    d="M32.5996 8C37.6399 8 40.1608 7.99962 42.0859 8.98047C43.7794 9.84333 45.1567 11.2206 46.0195 12.9141C46.4313 13.7222 46.6671 14.6356 46.8057 15.7959L51.4307 13.4014C54.4259 11.8504 57.9999 14.0244 58 17.3975V42.3291C57.9998 45.7655 54.3032 47.9337 51.3037 46.2568L46.8525 43.7676C46.7234 45.1398 46.4816 46.1791 46.0195 47.0859C45.1567 48.7794 43.7794 50.1567 42.0859 51.0195C40.1608 52.0004 37.6399 52 32.5996 52H17.4004C12.3601 52 9.83925 52.0004 7.91406 51.0195C6.2206 50.1567 4.84333 48.7794 3.98047 47.0859C2.99962 45.1608 3 42.6399 3 37.5996V22.4004C3 17.3601 2.99962 14.8392 3.98047 12.9141C4.84333 11.2206 6.2206 9.84333 7.91406 8.98047C9.83925 7.99962 12.3601 8 17.4004 8H32.5996ZM24.3633 20.1992C23.5461 19.8224 22.5523 19.4673 21.4512 19.583L21.1758 19.6191C19.8057 19.8369 18.5728 20.5894 17.7529 21.7178L17.6357 21.8877C17.0788 22.7429 16.9081 23.7079 16.8311 24.5479C16.7478 25.4557 16.75 26.6022 16.75 27.9219V32.0781C16.75 33.3978 16.7478 34.5443 16.8311 35.4521C16.9133 36.3482 17.1022 37.3866 17.7529 38.2822L17.9219 38.5029C18.7955 39.5805 20.0641 40.2711 21.4512 40.417L21.6562 40.4336C22.6756 40.4885 23.5972 40.1541 24.3633 39.8008C24.984 39.5145 25.6966 39.119 26.4961 38.6611L27.3252 38.1836L30.9248 36.1055C32.0675 35.4457 33.0611 34.8746 33.8057 34.3486C34.4947 33.8618 35.2458 33.2315 35.708 32.3213L35.7959 32.1357C36.3632 30.8616 36.3986 29.4175 35.9023 28.1221L35.7959 27.8643C35.3455 26.853 34.5406 26.1706 33.8057 25.6514C33.2473 25.2569 32.5493 24.8366 31.7529 24.373L27.3252 21.8164C26.1823 21.1566 25.1911 20.581 24.3633 20.1992Z"
  />
</svg>
