<svg
  xmlns="http://www.w3.org/2000/svg"
  width="60"
  height="60"
  viewBox="0 0 60 60"
  fill="currentColor"
>
  <path
    fill-rule="evenodd"
    clip-rule="evenodd"
    d="M21.4512 19.583C22.5523 19.4673 23.5461 19.8223 24.3633 20.1992C25.1911 20.581 26.1823 21.1565 27.3252 21.8164L31.7529 24.373C32.5493 24.8366 33.2473 25.2569 33.8057 25.6514C34.5406 26.1706 35.3455 26.853 35.7959 27.8643L35.9023 28.1221C36.3987 29.4175 36.3632 30.8615 35.7959 32.1357L35.708 32.3213C35.2458 33.2317 34.4947 33.8618 33.8057 34.3486C33.0611 34.8746 32.0677 35.4456 30.9248 36.1055L27.3252 38.1836L26.4961 38.6611C25.6965 39.119 24.9841 39.5145 24.3633 39.8008C23.5971 40.1541 22.6758 40.4885 21.6563 40.4336L21.4512 40.417C20.064 40.2712 18.7956 39.5806 17.9219 38.5029L17.7529 38.2822C17.1022 37.3865 16.9133 36.3483 16.8311 35.4522C16.7478 34.5443 16.75 33.3979 16.75 32.0781V27.9219C16.75 26.6021 16.7478 25.4557 16.8311 24.5479C16.9081 23.7078 17.0786 22.743 17.6357 21.8877L17.7529 21.7178C18.5729 20.5893 19.8056 19.8369 21.1758 19.6191L21.4512 19.583ZM21.8838 24.0635C21.6995 24.0924 21.5339 24.1896 21.417 24.335C21.3999 24.3862 21.3492 24.5591 21.3125 24.959C21.2526 25.6124 21.25 26.5134 21.25 27.9219V32.0781C21.25 33.4866 21.2526 34.3876 21.3125 35.041C21.349 35.4386 21.3996 35.6117 21.417 35.6641C21.5339 35.8097 21.6993 35.9066 21.8838 35.9355C21.9347 35.9253 22.11 35.8838 22.4785 35.7139C22.7765 35.5764 23.1207 35.3956 23.543 35.1611L25.0752 34.2871L28.6748 32.208C29.8946 31.5038 30.6731 31.0515 31.209 30.6729C31.5424 30.4373 31.6657 30.3067 31.6992 30.2686C31.7658 30.0952 31.766 29.9038 31.6992 29.7305C31.665 29.6916 31.5408 29.5616 31.209 29.3272C30.941 29.1378 30.6124 28.9301 30.1982 28.6816L28.6748 27.792L25.0752 25.7129C23.8555 25.0087 23.0744 24.5609 22.4785 24.2861C22.1095 24.116 21.9345 24.0737 21.8838 24.0635Z"
  />
  <path
    fill-rule="evenodd"
    clip-rule="evenodd"
    d="M30.5996 7.75C33.0827 7.75 35.0807 7.74805 36.6943 7.87988C38.3342 8.01387 39.7748 8.29754 41.1074 8.97656L41.5 9.18555C43.4371 10.2711 45.0123 11.9082 46.0234 13.8926L46.1465 14.1436C46.4219 14.7317 46.6216 15.3423 46.7725 15.9814L50.2705 13.8535L50.6006 13.668C54.0442 11.883 58.2498 14.3701 58.25 18.3379V41.6621C58.2498 45.6299 54.0442 48.117 50.6006 46.332L50.2705 46.1465L46.7754 44.0186C46.6029 44.7493 46.3626 45.4419 46.0234 46.1074C44.9449 48.2241 43.2241 49.9449 41.1074 51.0234C39.7748 51.7025 38.3342 51.9861 36.6943 52.1201C35.0807 52.2519 33.0827 52.25 30.5996 52.25H19.4004C16.9173 52.25 14.9193 52.2519 13.3057 52.1201C11.7682 51.9945 10.4059 51.7376 9.14356 51.1465L8.89258 51.0234C6.9082 50.0123 5.27106 48.4371 4.18555 46.5L3.97656 46.1074C3.29754 44.7748 3.01387 43.3342 2.87988 41.6943C2.74805 40.0807 2.75 38.0827 2.75 35.5996V24.4004C2.75 21.9173 2.74805 19.9193 2.87988 18.3057C3.01387 16.6658 3.29754 15.2252 3.97656 13.8926C5.05511 11.7759 6.7759 10.0551 8.89258 8.97656C10.2252 8.29754 11.6658 8.01387 13.3057 7.87988C14.9193 7.74805 16.9173 7.75 19.4004 7.75H30.5996ZM19.4004 12.25C16.843 12.25 15.0598 12.2518 13.6719 12.3652C12.3105 12.4765 11.5281 12.6835 10.9355 12.9854C9.66546 13.6325 8.6325 14.6655 7.98535 15.9355C7.68348 16.5281 7.47648 17.3105 7.36524 18.6719C7.25184 20.0598 7.25 21.843 7.25 24.4004V35.5996C7.25 38.157 7.25184 39.9402 7.36524 41.3281C7.47648 42.6895 7.68348 43.4719 7.98535 44.0645L8.11133 44.2998C8.76266 45.4622 9.74482 46.4079 10.9355 47.0146L11.167 47.123C11.7323 47.3666 12.4803 47.5374 13.6719 47.6348C15.0598 47.7482 16.843 47.75 19.4004 47.75H30.5996C33.157 47.75 34.9402 47.7482 36.3281 47.6348C37.6895 47.5235 38.4719 47.3165 39.0645 47.0146C40.3345 46.3675 41.3675 45.3345 42.0146 44.0645C42.3165 43.4719 42.5235 42.6895 42.6348 41.3281C42.7482 39.9402 42.75 38.157 42.75 35.5996V24.4004C42.75 21.843 42.7482 20.0598 42.6348 18.6719C42.5374 17.4803 42.3666 16.7323 42.123 16.167L42.0146 15.9355C41.4079 14.7448 40.4622 13.7627 39.2998 13.1113L39.0645 12.9854C38.4719 12.6835 37.6895 12.4765 36.3281 12.3652C34.9402 12.2518 33.157 12.25 30.5996 12.25H19.4004ZM53.75 18.3379C53.7498 17.7894 53.1872 17.4393 52.7051 17.6484L52.6104 17.6973L47.2324 20.9697C47.2494 21.9963 47.25 23.1354 47.25 24.4004V35.5996C47.25 36.8642 47.2493 38.003 47.2324 39.0293L52.6104 42.3027L52.7051 42.3516C53.1872 42.5607 53.7498 42.2106 53.75 41.6621V18.3379Z"
  />
</svg>
