<svg
  xmlns="http://www.w3.org/2000/svg"
  width="60"
  height="60"
  viewBox="0 0 60 60"
  fill="currentColor"
>
  <path
    d="M23 3.75C24.1648 3.75 25.1229 4.63516 25.2383 5.76953L25.25 6V54C25.25 55.2426 24.2426 56.25 23 56.25C21.7574 56.25 20.75 55.2426 20.75 54V6L20.7617 5.76953C20.8771 4.63516 21.8352 3.75 23 3.75ZM38 12.75C39.2426 12.75 40.25 13.7574 40.25 15V45L40.2383 45.2305C40.1229 46.3648 39.1648 47.25 38 47.25C36.8352 47.25 35.8771 46.3648 35.7617 45.2305L35.75 45V15C35.75 13.7574 36.7574 12.75 38 12.75ZM8 20.75C9.24264 20.75 10.25 21.7574 10.25 23V37L10.2383 37.2305C10.1229 38.3648 9.16483 39.25 8 39.25C6.83517 39.25 5.87714 38.3648 5.76172 37.2305L5.75 37V23C5.75 21.7574 6.75736 20.75 8 20.75ZM53 20.75C54.1648 20.75 55.1229 21.6352 55.2383 22.7695L55.25 23V37C55.25 38.2426 54.2426 39.25 53 39.25C51.7574 39.25 50.75 38.2426 50.75 37V23L50.7617 22.7695C50.8771 21.6352 51.8352 20.75 53 20.75Z"
    fill="currentColor"
  />
</svg>
