<svg
  width="20"
  height="20"
  viewBox="0 0 20 20"
  fill="currentColor"
  xmlns="http://www.w3.org/2000/svg"
>
  <path
    d="M17.7266 15.5407C17.934 15.1822 18.3928 15.0599 18.7513 15.2673C19.1098 15.4747 19.2325 15.9335 19.0251 16.292C18.6981 16.8573 18.2749 17.3595 17.7783 17.7767C16.8079 18.592 15.5543 19.0837 14.1878 19.0837C12.8214 19.0836 11.5678 18.592 10.5973 17.7767C10.1008 17.3595 9.6779 16.8572 9.35091 16.292C9.14353 15.9335 9.26591 15.4747 9.62435 15.2673C9.98285 15.0599 10.4416 15.1822 10.6491 15.5407C10.8883 15.9542 11.1981 16.3224 11.5622 16.6283C12.2725 17.225 13.1873 17.5837 14.1878 17.5837C15.1883 17.5837 16.1032 17.225 16.8135 16.6283C17.1775 16.3224 17.4874 15.9542 17.7266 15.5407ZM12.1999 0.916993C13.0276 0.916993 13.6936 0.916343 14.2314 0.960287C14.7781 1.00495 15.2583 1.09951 15.7025 1.32585C16.408 1.68536 16.9816 2.25896 17.3411 2.96452C17.5675 3.40874 17.662 3.88891 17.7067 4.43555C17.7507 4.97342 17.75 5.63944 17.75 6.46712V7.11393C17.75 7.52815 17.4142 7.86393 17 7.86393C16.5858 7.86393 16.25 7.52815 16.25 7.11393V6.46712C16.25 5.61467 16.2494 5.02025 16.2116 4.55762C16.1745 4.10381 16.1055 3.84301 16.0049 3.64551C15.7892 3.22214 15.4448 2.87782 15.0215 2.66211C14.824 2.56149 14.5632 2.49249 14.1094 2.4554C13.6467 2.41761 13.0523 2.41699 12.1999 2.41699H6.80013C5.94768 2.41699 5.35326 2.41761 4.89063 2.4554C4.43682 2.49249 4.17602 2.56149 3.97852 2.66211C3.55515 2.87782 3.21083 3.22214 2.99512 3.64551C2.89449 3.84301 2.82549 4.10381 2.78841 4.55762C2.75061 5.02025 2.75 5.61467 2.75 6.46712V11.8669C2.75 12.7193 2.75061 13.3137 2.78841 13.7764C2.82549 14.2302 2.89449 14.491 2.99512 14.6885C3.21083 15.1118 3.55515 15.4562 3.97852 15.6719C4.17602 15.7725 4.43682 15.8415 4.89063 15.8786C5.35326 15.9164 5.94768 15.917 6.80013 15.917H7.10612C7.52031 15.917 7.85612 16.2528 7.85612 16.667C7.85612 17.0812 7.52031 17.417 7.10612 17.417H6.80013C5.97244 17.417 5.30643 17.4176 4.76856 17.3737C4.22192 17.329 3.74174 17.2345 3.29753 17.0081C2.59197 16.6486 2.01837 16.075 1.65885 15.3695C1.43251 14.9252 1.33796 14.4451 1.29329 13.8984C1.24935 13.3606 1.25 12.6945 1.25 11.8669V6.46712C1.25 5.63943 1.24935 4.97342 1.29329 4.43555C1.33796 3.88891 1.43251 3.40874 1.65885 2.96452C2.01837 2.25896 2.59197 1.68536 3.29753 1.32585C3.74174 1.09951 4.22192 1.00495 4.76856 0.960287C5.30643 0.916343 5.97244 0.916993 6.80013 0.916993H12.1999ZM14.1667 8.58366C15.7775 8.58366 17.0833 9.8895 17.0833 11.5003V13.5003C17.0833 15.1112 15.7775 16.417 14.1667 16.417C12.5558 16.417 11.25 15.1112 11.25 13.5003V11.5003C11.25 9.8895 12.5558 8.58366 14.1667 8.58366ZM14.1667 10.0837C13.3843 10.0837 12.75 10.7179 12.75 11.5003V13.5003C12.75 14.2827 13.3843 14.917 14.1667 14.917C14.9491 14.917 15.5833 14.2827 15.5833 13.5003V11.5003C15.5833 10.7179 14.9491 10.0837 14.1667 10.0837ZM8 9.25033C8.41421 9.25033 8.75 9.58611 8.75 10.0003C8.75 10.4145 8.41421 10.7503 8 10.7503H5.66667C5.25245 10.7503 4.91667 10.4145 4.91667 10.0003C4.91667 9.58611 5.25245 9.25033 5.66667 9.25033H8ZM11.3333 5.25033C11.7475 5.25033 12.0833 5.58611 12.0833 6.00033C12.0833 6.41454 11.7475 6.75033 11.3333 6.75033H5.66667C5.25245 6.75033 4.91667 6.41454 4.91667 6.00033C4.91667 5.58611 5.25245 5.25033 5.66667 5.25033H11.3333Z"
  />
</svg>
