<svg
  width="60"
  height="60"
  viewBox="0 0 60 60"
  fill="currentColor"
  xmlns="http://www.w3.org/2000/svg"
>
  <path
    fill-rule="evenodd"
    clip-rule="evenodd"
    d="M47.25 15.5087V44.4913C47.25 46.0938 47.2501 47.4313 47.1608 48.524C47.0677 49.6637 46.8663 50.7336 46.3508 51.7454C45.5599 53.2978 44.2978 54.5599 42.7454 55.3508C41.7336 55.8663 40.6637 56.0677 39.524 56.1608C38.4313 56.2501 37.0938 56.25 35.4914 56.25H24.5086C22.9062 56.25 21.5687 56.2501 20.476 56.1608C19.3363 56.0677 18.2664 55.8663 17.2546 55.3508C15.7022 54.5599 14.4402 53.2978 13.6492 51.7454C13.1337 50.7336 12.9323 49.6637 12.8392 48.524C12.7499 47.4313 12.75 46.0938 12.75 44.4914L12.75 15.5086C12.75 13.9062 12.7499 12.5687 12.8392 11.476C12.9323 10.3363 13.1337 9.26637 13.6492 8.25458C14.4402 6.70224 15.7022 5.44015 17.2546 4.6492C18.2664 4.13367 19.3363 3.93233 20.476 3.83922C21.5687 3.74994 22.9062 3.74997 24.5087 3.75L35.4913 3.75C37.0938 3.74997 38.4313 3.74994 39.524 3.83922C40.6637 3.93233 41.7336 4.13367 42.7454 4.6492C44.2978 5.44016 45.5599 6.70224 46.3508 8.25458C46.8663 9.26637 47.0677 10.3363 47.1608 11.476C47.2501 12.5687 47.25 13.9062 47.25 15.5087ZM42.6757 11.8424C42.6054 10.9811 42.4797 10.5692 42.3413 10.2975C41.9818 9.59193 41.4081 9.01825 40.7025 8.65873C40.4308 8.5203 40.0189 8.39465 39.1576 8.32428C38.2699 8.25175 37.1173 8.25 35.4 8.25L24.6 8.25C22.8827 8.25 21.7301 8.25175 20.8424 8.32428C19.9811 8.39465 19.5692 8.5203 19.2975 8.65873C18.5919 9.01825 18.0183 9.59193 17.6587 10.2975C17.5203 10.5692 17.3947 10.9811 17.3243 11.8424C17.2518 12.7301 17.25 13.8827 17.25 15.6L17.25 44.4C17.25 46.1173 17.2518 47.2699 17.3243 48.1576C17.3947 49.0189 17.5203 49.4308 17.6587 49.7025C18.0183 50.4081 18.5919 50.9818 19.2975 51.3413C19.5692 51.4797 19.9811 51.6054 20.8424 51.6757C21.7301 51.7483 22.8827 51.75 24.6 51.75H35.4C37.1173 51.75 38.2699 51.7483 39.1576 51.6757C40.0189 51.6054 40.4308 51.4797 40.7025 51.3413C41.4081 50.9818 41.9818 50.4081 42.3413 49.7025C42.4797 49.4308 42.6054 49.0189 42.6757 48.1576C42.7483 47.2699 42.75 46.1173 42.75 44.4L42.75 15.6C42.75 13.8827 42.7483 12.7301 42.6757 11.8424Z"
  />
</svg>
