<svg
  width="60"
  height="60"
  viewBox="0 0 60 60"
  fill="currentColor"
  xmlns="http://www.w3.org/2000/svg"
>
  <path
    fill-rule="evenodd"
    clip-rule="evenodd"
    d="M49.25 16.5087V43.4913C49.25 45.0938 49.2501 46.4313 49.1608 47.524C49.0677 48.6637 48.8663 49.7336 48.3508 50.7454C47.5598 52.2978 46.2978 53.5599 44.7454 54.3508C43.7336 54.8663 42.6637 55.0677 41.524 55.1608C40.4313 55.2501 39.0938 55.25 37.4914 55.25H22.5086C20.9062 55.25 19.5687 55.2501 18.476 55.1608C17.3363 55.0677 16.2664 54.8663 15.2546 54.3508C13.7022 53.5599 12.4401 52.2978 11.6492 50.7454C11.1337 49.7336 10.9323 48.6637 10.8392 47.524C10.7499 46.4313 10.75 45.0938 10.75 43.4914V16.5086C10.75 14.9062 10.7499 13.5687 10.8392 12.476C10.9323 11.3363 11.1337 10.2664 11.6492 9.25458C12.4401 7.70224 13.7022 6.44015 15.2546 5.6492C16.2664 5.13367 17.3363 4.93233 18.476 4.83922C19.5687 4.74994 20.9062 4.74997 22.5087 4.75H37.4913C39.0938 4.74997 40.4313 4.74994 41.524 4.83922C42.6637 4.93233 43.7336 5.13367 44.7454 5.6492C46.2978 6.44015 47.5598 7.70224 48.3508 9.25458C48.8663 10.2664 49.0677 11.3363 49.1608 12.476C49.2501 13.5687 49.25 14.9062 49.25 16.5087ZM44.6757 12.8424C44.6053 11.9811 44.4797 11.5692 44.3413 11.2975C43.9817 10.5919 43.4081 10.0183 42.7025 9.65873C42.4308 9.5203 42.0189 9.39465 41.1576 9.32428C40.2699 9.25175 39.1173 9.25 37.4 9.25H22.6C20.8827 9.25 19.7301 9.25175 18.8424 9.32428C17.9811 9.39465 17.5692 9.5203 17.2975 9.65873C16.5919 10.0183 16.0182 10.5919 15.6587 11.2975C15.5203 11.5692 15.3946 11.9811 15.3243 12.8424C15.2517 13.7301 15.25 14.8827 15.25 16.6V43.4C15.25 45.1173 15.2517 46.2699 15.3243 47.1576C15.3946 48.0189 15.5203 48.4308 15.6587 48.7025C16.0182 49.4081 16.5919 49.9818 17.2975 50.3413C17.5692 50.4797 17.9811 50.6054 18.8424 50.6757C19.7301 50.7483 20.8827 50.75 22.6 50.75H37.4C39.1173 50.75 40.2699 50.7483 41.1576 50.6757C42.0189 50.6054 42.4308 50.4797 42.7025 50.3413C43.4081 49.9818 43.9817 49.4081 44.3413 48.7025C44.4797 48.4308 44.6053 48.0189 44.6757 47.1576C44.7482 46.2699 44.75 45.1173 44.75 43.4V16.6C44.75 14.8827 44.7482 13.7301 44.6757 12.8424Z"
  />
</svg>
