<svg
  width="60"
  height="60"
  viewBox="0 0 60 60"
  fill="currentColor"
  xmlns="http://www.w3.org/2000/svg"
>
  <path
    fill-rule="evenodd"
    clip-rule="evenodd"
    d="M40.409 10.591C39.5303 9.71231 39.5303 8.28769 40.409 7.40901C41.2877 6.53033 42.7123 6.53033 43.591 7.40901L53.591 17.409C54.4697 18.2877 54.4697 19.7123 53.591 20.591L43.591 30.591C42.7123 31.4697 41.2877 31.4697 40.409 30.591C39.5303 29.7123 39.5303 28.2877 40.409 27.409L46.568 21.25H23C15.9584 21.25 10.25 26.9584 10.25 34C10.25 41.0416 15.9584 46.75 23 46.75H39.8C41.0426 46.75 42.05 47.7574 42.05 49C42.05 50.2426 41.0426 51.25 39.8 51.25H23C13.4731 51.25 5.75 43.5269 5.75 34C5.75 24.4731 13.4731 16.75 23 16.75H46.568L40.409 10.591Z"
  />
</svg>
