<svg
  width="60"
  height="60"
  viewBox="0 0 60 60"
  fill="currentColor"
  xmlns="http://www.w3.org/2000/svg"
>
  <path
    d="M55 30C55 43.8071 43.8071 55 30 55C16.1929 55 5 43.8071 5 30C5 16.1929 16.1929 5 30 5C43.8071 5 55 16.1929 55 30Z"
  />
  <path
    d="M30 13.5C28.6193 13.5 27.5 14.6193 27.5 16C27.5 17.3807 28.6193 18.5 30 18.5H30.1C31.4807 18.5 32.6 17.3807 32.6 16C32.6 14.6193 31.4807 13.5 30.1 13.5H30Z"
    fill="white"
  />
  <path
    d="M32.5 24C32.5 22.6193 31.3807 21.5 30 21.5C28.6193 21.5 27.5 22.6193 27.5 24V44C27.5 45.3807 28.6193 46.5 30 46.5C31.3807 46.5 32.5 45.3807 32.5 44V24Z"
    fill="white"
  />
</svg>
