<svg
  width="60"
  height="60"
  viewBox="0 0 60 60"
  fill="currentColor"
  xmlns="http://www.w3.org/2000/svg"
>
  <path
    d="M9 13.25C9 11.275 9 10.2875 9.17346 9.46811C9.82884 6.37236 12.2474 3.95384 15.3431 3.29846C16.1625 3.125 17.15 3.125 19.125 3.125H40.875C42.85 3.125 43.8375 3.125 44.6569 3.29846C47.7526 3.95384 50.1712 6.37236 50.8265 9.46811C51 10.2875 51 11.275 51 13.25C51 15.225 51 16.2125 50.8265 17.0319C50.1712 20.1276 47.7526 22.5462 44.6569 23.2015C43.8375 23.375 42.85 23.375 40.875 23.375H19.125C17.15 23.375 16.1625 23.375 15.3431 23.2015C12.2474 22.5462 9.82884 20.1276 9.17346 17.0319C9 16.2125 9 15.225 9 13.25Z"
    fill="#AECBFF"
  />
  <path
    d="M5 24.875C5 19.2745 5 16.4742 6.08993 14.3351C7.04867 12.4535 8.57847 10.9237 10.4601 9.96493C12.5992 8.875 15.3995 8.875 21 8.875H39C44.6005 8.875 47.4008 8.875 49.5399 9.96493C51.4215 10.9237 52.9513 12.4535 53.9101 14.3351C55 16.4742 55 19.2745 55 24.875V40.875C55 46.4755 55 49.2758 53.9101 51.4149C52.9513 53.2965 51.4215 54.8263 49.5399 55.7851C47.4008 56.875 44.6005 56.875 39 56.875H21C15.3995 56.875 12.5992 56.875 10.4601 55.7851C8.57847 54.8263 7.04867 53.2965 6.08993 51.4149C5 49.2758 5 46.4755 5 40.875V24.875Z"
    fill="url(#paint0_linear_13577_176)"
  />
  <path
    d="M12 22.125C12 20.4681 13.3431 19.125 15 19.125H18C19.6569 19.125 21 20.4681 21 22.125C21 23.7819 19.6569 25.125 18 25.125H15C13.3431 25.125 12 23.7819 12 22.125Z"
    fill="white"
  />
  <path
    d="M24 22.125C24 20.4681 25.3431 19.125 27 19.125H33C34.6569 19.125 36 20.4681 36 22.125C36 23.7819 34.6569 25.125 33 25.125H27C25.3431 25.125 24 23.7819 24 22.125Z"
    fill="white"
  />
  <path
    d="M39 22.125C39 20.4681 40.3431 19.125 42 19.125H45C46.6569 19.125 48 20.4681 48 22.125C48 23.7819 46.6569 25.125 45 25.125H42C40.3431 25.125 39 23.7819 39 22.125Z"
    fill="white"
  />
  <path
    d="M30 37.125C28.3431 37.125 27 35.7819 27 34.125V31.125C27 29.4681 28.3431 28.125 30 28.125C31.6569 28.125 33 29.4681 33 31.125V34.125C33 35.7819 31.6569 37.125 30 37.125Z"
    fill="white"
  />
  <path
    d="M30 49.125C28.3431 49.125 27 47.7819 27 46.125V43.125C27 41.4681 28.3431 40.125 30 40.125C31.6569 40.125 33 41.4681 33 43.125V46.125C33 47.7819 31.6569 49.125 30 49.125Z"
    fill="white"
  />
  <defs>
    <linearGradient
      id="paint0_linear_13577_176"
      x1="12.2917"
      y1="3.125"
      x2="52.5346"
      y2="48.9832"
      gradientUnits="userSpaceOnUse"
    >
      <stop stop-color="#1C7BEB" />
      <stop offset="1" stop-color="#4FA0FF" />
    </linearGradient>
  </defs>
</svg>
