<svg
  width="60"
  height="60"
  viewBox="0 0 60 60"
  fill="currentColor"
  xmlns="http://www.w3.org/2000/svg"
>
  <path
    d="M24.9571 3.23856C28.0085 2.40737 31.2688 2.15125 34.5935 2.57628C37.9182 3.00132 41.0092 4.06941 43.7533 5.64152C44.8316 6.25923 45.2049 7.63407 44.5872 8.7123C43.9694 9.79053 42.5946 10.1639 41.5164 9.54614C39.2765 8.26293 36.7505 7.38867 34.0228 7.03995C31.2952 6.69124 28.6305 6.90191 26.1398 7.58036C24.9409 7.90696 23.7042 7.19977 23.3776 6.00082C23.051 4.80186 23.7582 3.56516 24.9571 3.23856Z"
  />
  <path
    d="M6.12748 27.4C6.19361 24.2381 6.87043 21.0385 8.21879 17.97C9.56715 14.9014 11.4662 12.2389 13.7505 10.0517C14.648 9.19232 16.0723 9.22325 16.9317 10.1208C17.7911 11.0184 17.7602 12.4426 16.8626 13.302C14.9981 15.0873 13.4448 17.2627 12.3386 19.7803C11.2324 22.2978 10.6805 24.9132 10.6265 27.4941C10.6005 28.7364 9.57231 29.7225 8.32994 29.6965C7.08757 29.6705 6.1015 28.6423 6.12748 27.4Z"
  />
  <path
    d="M42.546 50.2421C45.5354 48.7263 48.0889 46.683 50.1465 44.2813C50.955 43.3377 50.8454 41.9173 49.9018 41.1088C48.9581 40.3003 47.5377 40.4099 46.7292 41.3536C45.0497 43.3139 42.9634 44.985 40.5109 46.2286C38.0583 47.4723 35.4774 48.1679 32.9034 48.3644C31.6644 48.459 30.7367 49.5401 30.8312 50.7791C30.9258 52.0181 32.007 52.9459 33.246 52.8513C36.3994 52.6106 39.5566 51.758 42.546 50.2421Z"
  />
  <path
    d="M53.3477 14.5078C54.9788 17.2173 56.1135 20.2845 56.6104 23.5992C57.1072 26.9139 56.9217 30.179 56.1567 33.2477C55.8561 34.4534 54.635 35.1872 53.4293 34.8866C52.2235 34.586 51.4897 33.3649 51.7903 32.1592C52.4147 29.6544 52.5677 26.9858 52.1601 24.2663C51.7524 21.5468 50.8237 19.0403 49.4924 16.8287C48.8515 15.7641 49.195 14.3815 50.2596 13.7406C51.3242 13.0997 52.7068 13.4432 53.3477 14.5078Z"
  />
  <path
    fill-rule="evenodd"
    clip-rule="evenodd"
    d="M31.1167 41.4411C30.4864 41.4411 29.8639 41.3806 29.2518 41.2629L14.783 54.2329C12.0165 56.9371 7.57509 56.9221 4.82709 54.188C2.05763 51.4325 2.05764 46.9603 4.82709 44.2048L4.8686 44.1635L19.3796 31.1557C19.2952 30.6359 19.252 30.1089 19.252 29.5764C19.252 26.5951 20.6044 23.7897 22.9672 21.4269C24.3914 20.0027 26.3174 19.2035 28.1546 18.7344C30.022 18.2577 32.0195 18.0668 33.8044 18.0112C35.6002 17.9552 37.2498 18.0344 38.4463 18.1263C39.0467 18.1725 39.5383 18.2223 39.8836 18.2611C40.0563 18.2805 40.1928 18.2972 40.2883 18.3093C40.336 18.3154 40.3736 18.3203 40.4003 18.3239L40.4322 18.3282L40.442 18.3296L42.1269 18.5662L42.3629 20.2465L42.3635 20.2511L42.3649 20.2609L42.3692 20.2928C42.3728 20.3196 42.3777 20.3571 42.3838 20.4048C42.3959 20.5003 42.4126 20.6368 42.432 20.8095C42.4708 21.1548 42.5206 21.6464 42.5668 22.2468C42.6587 23.4434 42.7379 25.0929 42.6819 26.8887C42.6263 28.6736 42.4354 30.6711 41.9587 32.5385C41.4896 34.3758 40.6904 36.3017 39.2662 37.7259C36.9034 40.0887 34.098 41.4411 31.1167 41.4411ZM38.0815 22.6116C36.9961 22.5287 35.5239 22.4598 33.9446 22.509C32.3448 22.5589 30.7029 22.7282 29.2677 23.0946C27.8024 23.4687 26.7625 23.9956 26.1492 24.6089C24.4371 26.321 23.752 28.0366 23.752 29.5764C23.752 31.1162 24.4371 32.8318 26.1492 34.5439C27.8613 36.256 29.5769 36.9411 31.1167 36.9411C32.6565 36.9411 34.3721 36.256 36.0842 34.5439C36.6975 33.9306 37.2244 32.8907 37.5985 31.4254C37.9649 29.9902 38.1342 28.3483 38.1841 26.7485C38.2333 25.1692 38.1644 23.697 38.0815 22.6116ZM20.2393 36.4283L23.8717 40.0423L11.6962 50.9567L11.6547 50.998C10.6471 52.0005 9.00864 52.0005 8.001 50.998C7.0114 50.0134 6.9998 48.4288 7.9662 47.4302L20.2393 36.4283Z"
  />
</svg>
