<svg
  width="60"
  height="60"
  viewBox="0 0 60 60"
  fill="currentColor"
  xmlns="http://www.w3.org/2000/svg"
>
  <path
    d="M4.99978 21C4.99978 15.3995 4.99978 12.5992 6.08972 10.4601C7.04845 8.57847 8.57826 7.04867 10.4599 6.08993C12.599 5 15.3993 5 20.9998 5H38.9998C44.6003 5 47.4006 5 49.5397 6.08993C51.4213 7.04867 52.9511 8.57847 53.9098 10.4601C54.9998 12.5992 54.9998 15.3995 54.9998 21V39C54.9998 44.6005 54.9998 47.4008 53.9098 49.5399C52.9511 51.4215 51.4213 52.9513 49.5397 53.9101C47.4006 55 44.6003 55 38.9998 55H20.9998C15.3993 55 12.599 55 10.4599 53.9101C8.57826 52.9513 7.04845 51.4215 6.08972 49.5399C4.99978 47.4008 4.99978 44.6005 4.99978 39V21Z"
    fill="url(#paint0_linear_13577_177)"
  />
  <path
    d="M35.976 37.1268C32.6734 40.0621 28.8716 39.8384 25.9362 36.5358C23.0008 33.2333 23.2246 29.4315 26.5271 26.4961C29.8297 23.5607 38.5601 25.3153 38.5601 25.3153C38.5601 25.3153 39.2785 34.1914 35.976 37.1268Z"
    fill="white"
  />
  <path
    d="M21.414 35.0398C21.3157 34.746 20.9394 34.6383 20.7168 34.8537L2.84992 52.1499C1.69516 53.2678 1.62651 55.0971 2.69424 56.2984L3.71418 57.4459C4.78191 58.6472 6.60666 58.7936 7.85228 57.7779L27.2109 41.9933C27.4563 41.7932 27.3843 41.396 27.0937 41.2702C25.8529 40.7329 24.6602 39.8453 23.5625 38.6104C22.535 37.4544 21.8195 36.2513 21.414 35.0398Z"
    fill="#AECBFF"
  />
  <path
    d="M24.59 12.8091C24.6454 11.1532 26.0326 9.85563 27.6886 9.91099L33.6852 10.1114C35.3411 10.1668 36.6387 11.5541 36.5833 13.21C36.5279 14.8659 35.1407 16.1634 33.4847 16.1081L27.4881 15.9076C25.8322 15.8523 24.5346 14.465 24.59 12.8091Z"
    fill="white"
  />
  <path
    d="M12.5203 23.5241C11.2892 22.4153 11.19 20.5184 12.2988 19.2872L16.3141 14.8289C17.4229 13.5977 19.3198 13.4985 20.551 14.6073C21.7821 15.7162 21.8813 17.6131 20.7725 18.8442L16.7572 23.3026C15.6483 24.5337 13.7514 24.6329 12.5203 23.5241Z"
    fill="white"
  />
  <path
    d="M40.8318 15.2615C42.1447 14.2508 44.0283 14.4958 45.039 15.8087L48.699 20.5631C49.7097 21.876 49.4647 23.7596 48.1518 24.7703C46.8389 25.781 44.9552 25.536 43.9446 24.2231L40.2846 19.4687C39.2739 18.1558 39.5189 16.2721 40.8318 15.2615Z"
    fill="white"
  />
  <path
    d="M47.8486 29.051C49.4769 29.3573 50.5486 30.9256 50.2423 32.5539L49.1331 38.4505C48.8268 40.0788 47.2585 41.1505 45.6302 40.8442C44.002 40.5379 42.9303 38.9696 43.2365 37.3413L44.3457 31.4447C44.652 29.8164 46.2203 28.7447 47.8486 29.051Z"
    fill="white"
  />
  <path
    d="M41.5771 43.2882C42.2984 44.7799 41.6739 46.5738 40.1823 47.295L34.7806 49.907C33.289 50.6283 31.4951 50.0038 30.7738 48.5122C30.0525 47.0206 30.677 45.2267 32.1686 44.5054L37.5703 41.8934C39.0619 41.1721 40.8558 41.7966 41.5771 43.2882Z"
    fill="white"
  />
  <path
    d="M12.3367 27.7916C13.9921 27.7224 15.3902 29.0083 15.4594 30.6637L15.5847 33.6611C15.6539 35.3165 14.368 36.7146 12.7126 36.7838C11.0572 36.853 9.65909 35.5671 9.58989 33.9117L9.4646 30.9143C9.3954 29.2589 10.6813 27.8608 12.3367 27.7916Z"
    fill="white"
  />
  <defs>
    <linearGradient
      id="paint0_linear_13577_177"
      x1="9.67492"
      y1="5"
      x2="49.2771"
      y2="53.1591"
      gradientUnits="userSpaceOnUse"
    >
      <stop stop-color="#1C7BEB" />
      <stop offset="1" stop-color="#4FA0FF" />
    </linearGradient>
  </defs>
</svg>
