<svg
  width="60"
  height="60"
  viewBox="0 0 60 60"
  fill="currentColor"
  xmlns="http://www.w3.org/2000/svg"
>
  <path
    d="M14 21C14 15.3995 14 12.5992 15.0899 10.4601C16.0487 8.57847 17.5785 7.04867 19.4601 6.08993C21.5992 5 24.3995 5 30 5H39C44.6005 5 47.4008 5 49.5399 6.08993C51.4215 7.04867 52.9513 8.57847 53.9101 10.4601C55 12.5992 55 15.3995 55 21V39C55 44.6005 55 47.4008 53.9101 49.5399C52.9513 51.4215 51.4215 52.9513 49.5399 53.9101C47.4008 55 44.6005 55 39 55H30C24.3995 55 21.5992 55 19.4601 53.9101C17.5785 52.9513 16.0487 51.4215 15.0899 49.5399C14 47.4008 14 44.6005 14 39V21Z"
    fill="#AECBFF"
  />
  <path
    d="M5 21C5 15.3995 5 12.5992 6.08993 10.4601C7.04867 8.57847 8.57847 7.04867 10.4601 6.08993C12.5992 5 15.3995 5 21 5H28C33.6005 5 36.4008 5 38.5399 6.08993C40.4215 7.04867 41.9513 8.57847 42.9101 10.4601C44 12.5992 44 15.3995 44 21V39C44 44.6005 44 47.4008 42.9101 49.5399C41.9513 51.4215 40.4215 52.9513 38.5399 53.9101C36.4008 55 33.6005 55 28 55H21C15.3995 55 12.5992 55 10.4601 53.9101C8.57847 52.9513 7.04867 51.4215 6.08993 49.5399C5 47.4008 5 44.6005 5 39V21Z"
    fill="url(#paint0_linear_13577_175)"
  />
  <path
    d="M9.88475 20.2678C8.71318 19.0962 8.71318 17.1967 9.88475 16.0252L16.0247 9.88522C17.1963 8.71365 19.0958 8.71365 20.2673 9.88523C21.4389 11.0568 21.4389 12.9563 20.2673 14.1279L14.1274 20.2678C12.9558 21.4394 11.0563 21.4394 9.88475 20.2678Z"
    fill="white"
  />
  <path
    d="M28.904 50.2485C27.7325 49.0769 27.7325 47.1775 28.904 46.0059L35.0059 39.904C36.1774 38.7325 38.0769 38.7325 39.2485 39.904C40.4201 41.0756 40.4201 42.9751 39.2485 44.1467L33.1467 50.2485C31.9751 51.4201 30.0756 51.4201 28.904 50.2485Z"
    fill="white"
  />
  <path
    d="M9.97532 36.1775C8.80375 35.0059 8.80375 33.1064 9.97532 31.9348L31.8749 10.0353C33.0465 8.86369 34.946 8.86369 36.1175 10.0353C37.2891 11.2068 37.2891 13.1063 36.1175 14.2779L14.218 36.1775C13.0464 37.349 11.1469 37.349 9.97532 36.1775Z"
    fill="white"
  />
  <path
    d="M13.1846 50.1667C12.013 48.9952 12.013 47.0957 13.1846 45.9241L35.0921 24.0166C36.2636 22.845 38.1631 22.845 39.3347 24.0166C40.5063 25.1882 40.5063 27.0876 39.3347 28.2592L17.4272 50.1667C16.2556 51.3383 14.3561 51.3383 13.1846 50.1667Z"
    fill="white"
  />
  <defs>
    <linearGradient
      id="paint0_linear_13577_175"
      x1="12.2917"
      y1="5"
      x2="49.2824"
      y2="50.3137"
      gradientUnits="userSpaceOnUse"
    >
      <stop stop-color="#1C7BEB" />
      <stop offset="1" stop-color="#4FA0FF" />
    </linearGradient>
  </defs>
</svg>
