<svg
  width="60"
  height="60"
  viewBox="0 0 60 60"
  fill="currentColor"
  xmlns="http://www.w3.org/2000/svg"
>
  <path
    fill-rule="evenodd"
    clip-rule="evenodd"
    d="M4.75 16C4.75 9.7868 9.7868 4.75 16 4.75H44C50.2132 4.75 55.25 9.7868 55.25 16V44C55.25 50.2132 50.2132 55.25 44 55.25H16C9.7868 55.25 4.75 50.2132 4.75 44V16ZM16 9.25C12.2721 9.25 9.25 12.2721 9.25 16V44C9.25 47.7279 12.2721 50.75 16 50.75H28L28 9.25H16ZM32.5 9.25V24.318L46.9102 9.90784C46.029 9.48614 45.0421 9.25 44 9.25H32.5ZM50.0922 13.0898L32.5 30.682V45.318L50.75 27.068V16C50.75 14.9579 50.5139 13.971 50.0922 13.0898ZM50.75 33.432L33.432 50.75H44C47.7279 50.75 50.75 47.7279 50.75 44V33.432Z"
  />
</svg>
