<svg
  width="60"
  height="60"
  viewBox="0 0 60 60"
  fill="currentColor"
  xmlns="http://www.w3.org/2000/svg"
>
  <path
    d="M37.2383 30.2696L37.2501 30.5001L37.2383 31.1573C37.1168 34.4376 36.0873 37.6249 34.2589 40.3614C32.3085 43.2802 29.5362 45.555 26.293 46.8985C24.0288 47.8364 21.6059 48.2891 19.1778 48.2452L24.7686 42.6544C27.104 41.6421 29.1008 39.9803 30.5167 37.8614C30.9613 37.196 31.341 36.4942 31.6563 35.7667L37.2266 30.1964C37.2299 30.2208 37.2358 30.2449 37.2383 30.2696Z"
  />
  <path
    d="M51.6944 15.7286C52.1653 16.1114 52.619 16.5175 53.0508 16.9493C55.5332 19.4317 57.2243 22.5941 57.9092 26.0372C58.5941 29.4804 58.242 33.0497 56.8985 36.2931C55.555 39.5362 53.2802 42.3086 50.3614 44.2589C47.4425 46.2092 44.0106 47.2501 40.5001 47.2501C39.2575 47.25 38.2501 46.2427 38.2501 45.0001C38.2501 43.7575 39.2575 42.7502 40.5001 42.7501C43.1206 42.7501 45.6825 41.9726 47.8614 40.5167C50.0402 39.0608 51.7384 36.9914 52.7413 34.5704C53.7441 32.1493 54.0064 29.4853 53.4952 26.9151C52.9839 24.3449 51.7222 21.984 49.8692 20.1309C49.4364 19.6981 48.9748 19.299 48.4903 18.9327L51.6944 15.7286Z"
  />
  <path
    d="M19.5001 12.7501C20.7427 12.7501 21.75 13.7575 21.7501 15.0001C21.7501 16.2427 20.7427 17.2501 19.5001 17.2501C16.8795 17.2501 14.3176 18.0276 12.1387 19.4835C9.95992 20.9394 8.26167 23.0088 7.25885 25.4298C6.25606 27.8508 5.99372 30.5149 6.50495 33.085C7.0162 35.6552 8.27794 38.0162 10.1309 39.8692C10.5634 40.3017 11.0248 40.7005 11.5089 41.0665L8.30475 44.2706C7.83432 43.8881 7.38073 43.4823 6.94928 43.0509C4.46695 40.5685 2.77577 37.4061 2.09089 33.963C1.40602 30.5198 1.75819 26.9505 3.10163 23.7071C4.44509 20.4639 6.71993 17.6916 9.63874 15.7413C12.5576 13.791 15.9895 12.7501 19.5001 12.7501Z"
  />
  <path
    d="M40.8214 11.754L35.2296 17.3458C32.895 18.3582 30.8989 20.0205 29.4835 22.1388C29.0392 22.8036 28.659 23.5046 28.3438 24.2315L22.7725 29.8028C22.7693 29.7788 22.7643 29.7548 22.7618 29.7306L22.7501 29.5001L22.7618 28.8429C22.8833 25.5626 23.9129 22.3752 25.7413 19.6388C27.6916 16.7199 30.4639 14.4451 33.7071 13.1016C35.9709 12.1639 38.3937 11.7103 40.8214 11.754Z"
  />
  <path
    d="M48.5802 8.25489C49.4639 7.53406 50.7672 7.58541 51.5909 8.40919C52.4147 9.23297 52.4661 10.5362 51.7452 11.4199L51.5909 11.5908L11.5909 51.5908C10.7123 52.4695 9.28797 52.4695 8.40929 51.5908C7.53061 50.7121 7.53061 49.2879 8.40929 48.4092L48.4093 8.40919L48.5802 8.25489Z"
  />
</svg>
