<svg
  width="60"
  height="60"
  viewBox="0 0 60 60"
  fill="currentColor"
  xmlns="http://www.w3.org/2000/svg"
>
  <path
    fill-rule="evenodd"
    clip-rule="evenodd"
    d="M4.75 16C4.75 9.7868 9.7868 4.75 16 4.75H44C50.2132 4.75 55.25 9.7868 55.25 16V44C55.25 50.2132 50.2132 55.25 44 55.25H16C9.7868 55.25 4.75 50.2132 4.75 44V16ZM16 9.25C12.2721 9.25 9.25 12.2721 9.25 16V44C9.25 47.7279 12.2721 50.75 16 50.75H44C47.7279 50.75 50.75 47.7279 50.75 44V16C50.75 12.2721 47.7279 9.25 44 9.25H16Z"
  />
  <path
    fill-rule="evenodd"
    clip-rule="evenodd"
    d="M12.75 18C12.75 16.7574 13.7574 15.75 15 15.75H18.75C19.9926 15.75 21 16.7574 21 18C21 19.2426 19.9926 20.25 18.75 20.25H15C13.7574 20.25 12.75 19.2426 12.75 18ZM24 18C24 16.7574 25.0074 15.75 26.25 15.75H33.75C34.9926 15.75 36 16.7574 36 18C36 19.2426 34.9926 20.25 33.75 20.25H26.25C25.0074 20.25 24 19.2426 24 18ZM39 18C39 16.7574 40.0074 15.75 41.25 15.75H45C46.2426 15.75 47.25 16.7574 47.25 18C47.25 19.2426 46.2426 20.25 45 20.25H41.25C40.0074 20.25 39 19.2426 39 18Z"
  />
  <path
    fill-rule="evenodd"
    clip-rule="evenodd"
    d="M30 24.75C31.2426 24.75 32.25 25.7574 32.25 27V31.5C32.25 32.7426 31.2426 33.75 30 33.75C28.7574 33.75 27.75 32.7426 27.75 31.5V27C27.75 25.7574 28.7574 24.75 30 24.75ZM30 38.25C31.2426 38.25 32.25 39.2574 32.25 40.5V45C32.25 46.2426 31.2426 47.25 30 47.25C28.7574 47.25 27.75 46.2426 27.75 45V40.5C27.75 39.2574 28.7574 38.25 30 38.25Z"
  />
</svg>
