<svg
  width="60"
  height="60"
  viewBox="0 0 60 60"
  fill="currentColor"
  xmlns="http://www.w3.org/2000/svg"
>
  <path
    d="M21.9381 11.283C21.6316 11.2526 21.3004 11.25 20.3339 11.25H19.1421C16.7082 11.25 15.0115 11.2516 13.6884 11.3546C12.3898 11.4557 11.6406 11.6444 11.0717 11.9183C9.69364 12.5818 8.5818 13.6937 7.91828 15.0717C7.64435 15.6406 7.4557 16.3898 7.35459 17.6885C7.25159 19.0115 7.25 20.7082 7.25 23.1422V37.1C7.25 39.6574 7.25175 41.4401 7.36515 42.828C7.4764 44.1896 7.68379 44.9719 7.98571 45.5644C8.63285 46.8345 9.66547 47.8672 10.9356 48.5143C11.5281 48.8162 12.3104 49.0236 13.672 49.1349C15.0598 49.2483 16.8423 49.25 19.3993 49.25L46.3402 49.2415C49.4319 49.0893 51.9549 47.2204 52.2674 44.7209C52.4215 43.4879 53.546 42.6133 54.7791 42.7674C56.0121 42.9215 56.8868 44.046 56.7326 45.2791C56.0466 50.7674 50.8802 53.5477 46.4907 53.7393L46.442 53.7414L19.3036 53.75C16.8652 53.75 14.8983 53.7501 13.3056 53.6199C11.6657 53.4859 10.2253 53.2029 8.89261 52.5238C6.77579 51.4453 5.05475 49.7242 3.97618 47.6074C3.29716 46.2748 3.01408 44.8343 2.88009 43.1944C2.74996 41.6017 2.74998 39.6349 2.75 37.1964V23.0506C2.74998 20.7296 2.74997 18.8575 2.86817 17.3392C2.98983 15.7765 3.24669 14.4011 3.86379 13.1195C4.96966 10.8227 6.82273 8.96967 9.11945 7.86381C10.4011 7.2467 11.7765 6.98984 13.3392 6.86818C14.8575 6.74998 16.7296 6.75 19.0505 6.75002L20.4414 6.75001C21.2606 6.74991 21.8266 6.74984 22.3821 6.80491C24.5913 7.02395 26.6863 7.89174 28.4033 9.29901C28.835 9.6528 29.2352 10.0531 29.8144 10.6324L29.8904 10.7084C30.5539 11.3719 30.783 11.5976 31.0142 11.7881C32.0139 12.612 33.2296 13.1307 34.5161 13.2825C34.8136 13.3176 35.135 13.3268 36.0731 13.3468L46.5498 13.5697C51.0582 13.6656 55.9917 16.1946 56.8567 21.6475C57.0514 22.8748 56.2143 24.0275 54.987 24.2222C53.7597 24.4169 52.607 23.5798 52.4123 22.3525C52.0083 19.8055 49.6534 18.1368 46.4541 18.0687L35.8732 17.8436C35.0778 17.8268 34.5282 17.8151 33.9889 17.7515C31.8447 17.4986 29.8186 16.634 28.1524 15.2609C27.7333 14.9156 27.3446 14.5267 26.7822 13.9642L26.7084 13.8904C26.025 13.207 25.789 12.9746 25.5508 12.7794C24.5206 11.9351 23.2636 11.4144 21.9381 11.283Z"
  />
  <path
    d="M55 27.5C56.2426 27.5 57.25 28.5074 57.25 29.75V37.25C57.25 38.4926 56.2426 39.5 55 39.5C53.7574 39.5 52.75 38.4926 52.75 37.25V29.75C52.75 28.5074 53.7574 27.5 55 27.5Z"
  />
  <path
    d="M14 33.5C14 32.2574 15.0074 31.25 16.25 31.25L38.5682 31.25L34.9092 27.591C34.0305 26.7123 34.0305 25.2877 34.9092 24.409C35.7878 23.5303 37.2125 23.5303 38.0911 24.409L44.884 31.2019C46.1532 32.4711 46.1532 34.5289 44.884 35.7981L38.0911 42.591C37.2125 43.4697 35.7878 43.4697 34.9092 42.591C34.0305 41.7123 34.0305 40.2877 34.9092 39.409L38.5682 35.75L16.25 35.75C15.0074 35.75 14 34.7426 14 33.5Z"
  />
</svg>
