<svg
  width="60"
  height="60"
  viewBox="0 0 60 60"
  fill="currentColor"
  xmlns="http://www.w3.org/2000/svg"
>
  <path
    d="M5 21C5 15.3995 5 12.5992 6.08993 10.4601C7.04867 8.57847 8.57847 7.04867 10.4601 6.08993C12.5992 5 15.3995 5 21 5H39C44.6005 5 47.4008 5 49.5399 6.08993C51.4215 7.04867 52.9513 8.57847 53.9101 10.4601C55 12.5992 55 15.3995 55 21V39C55 44.6005 55 47.4008 53.9101 49.5399C52.9513 51.4215 51.4215 52.9513 49.5399 53.9101C47.4008 55 44.6005 55 39 55H21C15.3995 55 12.5992 55 10.4601 53.9101C8.57847 52.9513 7.04867 51.4215 6.08993 49.5399C5 47.4008 5 44.6005 5 39V21Z"
    fill="url(#paint0_linear_13577_180)"
  />
  <path
    d="M9.98874 20.3713C8.89039 19.273 8.89039 17.4922 9.98874 16.3938L16.3938 9.98874C17.4922 8.89039 19.273 8.89039 20.3713 9.98874C21.4697 11.0871 21.4697 12.8679 20.3713 13.9662L13.9662 20.3713C12.8679 21.4697 11.0871 21.4697 9.98874 20.3713Z"
    fill="white"
  />
  <path
    d="M27.1062 19.2541C26.0078 18.1558 26.0078 16.375 27.1062 15.2766L32.2441 10.1388C33.3424 9.04041 35.1232 9.04041 36.2215 10.1388C37.3199 11.2371 37.3199 13.0179 36.2215 14.1162L31.0836 19.2541C29.9853 20.3525 28.2045 20.3525 27.1062 19.2541Z"
    fill="white"
  />
  <path
    d="M10.0793 36.281C8.98096 35.1826 8.98096 33.4018 10.0793 32.3035L15.1005 27.2823C16.1988 26.184 17.9796 26.184 19.078 27.2823C20.1763 28.3807 20.1763 30.1614 19.078 31.2598L14.0568 36.281C12.9584 37.3793 11.1777 37.3793 10.0793 36.281Z"
    fill="white"
  />
  <path
    d="M13.2885 50.2702C12.1902 49.1719 12.1902 47.3911 13.2885 46.2928L19.8264 39.7549C20.9248 38.6565 22.7056 38.6565 23.8039 39.7549C24.9023 40.8532 24.9023 42.634 23.8039 43.7323L17.266 50.2702C16.1677 51.3686 14.3869 51.3686 13.2885 50.2702Z"
    fill="white"
  />
  <path
    d="M39.7717 23.7868C38.6733 22.6885 38.6733 20.9077 39.7717 19.8094L46.2071 13.374C47.3054 12.2756 49.0862 12.2756 50.1845 13.374C51.2829 14.4723 51.2829 16.2531 50.1845 17.3515L43.7492 23.7868C42.6508 24.8852 40.87 24.8852 39.7717 23.7868Z"
    fill="white"
  />
  <path
    d="M20.1531 25.4467L22.984 31L25.8151 25.4467L31 22.9999L25.8151 20.5533L22.984 15L20.1531 20.5533L15 22.9999L20.1531 25.4467Z"
    fill="#AECBFF"
  />
  <path
    d="M32.018 41.2818L36.9721 51L41.9265 41.2818L51 36.9999L41.9265 32.7183L36.9721 23.0001L32.018 32.7183L23.0001 36.9999L32.018 41.2818Z"
    fill="#AECBFF"
  />
  <defs>
    <linearGradient
      id="paint0_linear_13577_180"
      x1="12.2917"
      y1="5"
      x2="49.2824"
      y2="50.3137"
      gradientUnits="userSpaceOnUse"
    >
      <stop stop-color="#1C7BEB" />
      <stop offset="1" stop-color="#4FA0FF" />
    </linearGradient>
  </defs>
</svg>
