<svg
  width="60"
  height="60"
  viewBox="0 0 60 60"
  fill="currentColor"
  xmlns="http://www.w3.org/2000/svg"
>
  <path
    d="M40.7763 28.0984C40.3858 27.906 39.928 27.906 39.5375 28.0984C39.1897 28.2696 39.0092 28.5683 38.9265 28.7139C38.8372 28.8711 38.7464 29.071 38.6589 29.2637L36.7237 33.5202C36.7034 33.5649 36.6879 33.599 36.6742 33.6285L36.6596 33.6596L36.6285 33.6742C36.599 33.6879 36.5649 33.7034 36.5202 33.7237L32.2637 35.6588C32.071 35.7464 31.8711 35.8372 31.7139 35.9265C31.5683 36.0092 31.2696 36.1897 31.0984 36.5375C30.906 36.928 30.906 37.3858 31.0984 37.7763C31.2696 38.1241 31.5683 38.3046 31.7139 38.3873C31.8711 38.4766 32.071 38.5674 32.2637 38.655L36.5202 40.5901C36.5649 40.6104 36.599 40.6259 36.6285 40.6396L36.6596 40.6543L36.6742 40.6853C36.6879 40.7148 36.7034 40.7489 36.7237 40.7936L38.6589 45.0501C38.7464 45.2429 38.8372 45.4427 38.9265 45.5999C39.0092 45.7455 39.1897 46.0442 39.5375 46.2154C39.928 46.4078 40.3858 46.4078 40.7763 46.2154C41.1241 46.0442 41.3046 45.7455 41.3873 45.5999C41.4766 45.4427 41.5674 45.2429 41.6549 45.0502L43.5901 40.7936C43.6104 40.7489 43.6259 40.7148 43.6396 40.6853L43.6543 40.6543L43.6853 40.6396C43.7148 40.6259 43.7489 40.6104 43.7936 40.5901L48.0501 38.655C48.2428 38.5674 48.4427 38.4766 48.5999 38.3873C48.7455 38.3046 49.0442 38.1241 49.2154 37.7763C49.4078 37.3858 49.4078 36.928 49.2154 36.5375C49.0442 36.1897 48.7455 36.0092 48.5999 35.9265C48.4427 35.8372 48.2429 35.7464 48.0501 35.6589L43.7936 33.7237C43.7489 33.7034 43.7148 33.6879 43.6853 33.6742L43.6543 33.6596L43.6396 33.6285C43.6259 33.599 43.6104 33.5649 43.5901 33.5202L41.655 29.2637C41.5674 29.071 41.4766 28.8711 41.3873 28.7139C41.3046 28.5683 41.1241 28.2696 40.7763 28.0984Z"
  />
  <path
    d="M31.6223 23.457C31.2918 23.2943 30.9045 23.2943 30.574 23.457C30.2608 23.6113 30.1101 23.874 30.061 23.9605C30.0049 24.0591 29.9507 24.1786 29.9097 24.2689L29.0844 26.0844L27.2689 26.9097C27.1786 26.9507 27.0591 27.0049 26.9605 27.061C26.874 27.1101 26.6113 27.2608 26.457 27.574C26.2943 27.9045 26.2943 28.2918 26.457 28.6223C26.6113 28.9354 26.874 29.0862 26.9605 29.1353C27.0591 29.1913 27.1786 29.2455 27.2689 29.2865L29.0844 30.1119L29.9097 31.9273C29.9507 32.0177 30.0049 32.1371 30.061 32.2358C30.1101 32.3223 30.2608 32.585 30.574 32.7392C30.9045 32.902 31.2918 32.902 31.6223 32.7392C31.9354 32.585 32.0862 32.3223 32.1353 32.2358C32.1913 32.1371 32.2455 32.0177 32.2865 31.9273L33.1119 30.1119L34.9273 29.2865C35.0177 29.2455 35.1371 29.1913 35.2358 29.1353C35.3223 29.0862 35.585 28.9354 35.7392 28.6223C35.902 28.2918 35.902 27.9045 35.7392 27.574C35.585 27.2608 35.3223 27.1101 35.2358 27.061C35.1371 27.0049 35.0177 26.9507 34.9274 26.9097L33.1119 26.0844L32.2865 24.2689C32.2455 24.1786 32.1913 24.0591 32.1353 23.9605C32.0862 23.874 31.9354 23.6113 31.6223 23.457Z"
  />
  <path
    fill-rule="evenodd"
    clip-rule="evenodd"
    d="M4.75 16C4.75 9.7868 9.7868 4.75 16 4.75H44C50.2132 4.75 55.25 9.7868 55.25 16V44C55.25 50.2132 50.2132 55.25 44 55.25H16C9.7868 55.25 4.75 50.2132 4.75 44V16ZM9.25 38.8109V44C9.25 47.7279 12.2721 50.75 16 50.75H20.4033C20.4052 50.7481 20.4072 50.7461 20.4091 50.7442L29.244 41.9091C30.1227 41.0304 31.5473 41.0304 32.426 41.9091C33.3047 42.7877 33.3047 44.2124 32.4261 45.0911L26.7672 50.75H44C47.7279 50.75 50.75 47.7279 50.75 44V26.7674L48.091 29.4264C47.2123 30.3051 45.7877 30.3051 44.909 29.4264C44.0303 28.5478 44.0303 27.1231 44.909 26.2445L50.75 20.4035V16C50.75 12.2721 47.7279 9.25 44 9.25H38.7503C38.6697 9.37037 38.5762 9.48468 38.4699 9.59099L9.25 38.8109ZM32.4469 9.25L9.25 32.4469V16C9.25 12.2721 12.2721 9.25 16 9.25H32.4469Z"
  />
</svg>
