<svg
  width="60"
  height="60"
  viewBox="0 0 60 60"
  fill="currentColor"
  xmlns="http://www.w3.org/2000/svg"
>
  <path
    d="M31.6228 3.30288C32.5601 2.487 33.9813 2.58541 34.7972 3.52268L42.0005 11.7977C42.0386 11.8403 42.0753 11.8846 42.1106 11.9307C42.4418 12.3617 42.5938 12.8797 42.5733 13.3898C42.5494 13.9871 42.2889 14.5736 41.8024 14.9971C41.7429 15.0489 41.6813 15.0971 41.6181 15.1416L33.2266 21.2671C32.223 21.9998 30.8154 21.78 30.0827 20.7764C29.3501 19.7727 29.5698 18.3651 30.5735 17.6325L34.9596 14.4307C33.4176 14.0833 31.769 13.875 30.0002 13.875C19.2678 13.875 10.5752 22.5676 10.5752 33.3C10.5752 44.059 19.2695 52.75 30.0002 52.75C40.7326 52.75 49.4252 44.0574 49.4252 33.325C49.4252 32.0824 50.4326 31.075 51.6752 31.075C52.9178 31.075 53.9252 32.0824 53.9252 33.325C53.9252 46.5426 43.2178 57.25 30.0002 57.25C16.7809 57.25 6.0752 46.541 6.0752 33.3C6.0752 20.0824 16.7826 9.375 30.0002 9.375C31.4768 9.375 32.8811 9.49595 34.2152 9.70784L31.403 6.47726C30.5872 5.53998 30.6856 4.11876 31.6228 3.30288Z"
  />
</svg>
