<svg
  width="60"
  height="60"
  viewBox="0 0 60 60"
  fill="currentColor"
  xmlns="http://www.w3.org/2000/svg"
>
  <path
    d="M17.25 6.75C17.25 5.50736 16.2427 4.5 15 4.5C13.7574 4.5 12.75 5.50736 12.75 6.75V15.6849C12.75 16.1897 12.5332 16.6517 12.1683 16.9603L12.0569 17.0544C10.1925 18.6302 7.77966 20.6696 6.347 22.969C5.58971 24.1844 5.00739 25.6188 4.99626 27.2228C4.98876 28.3024 5.24084 29.3529 5.74388 30.359C5.40447 31.1873 5.25132 32.2284 5.25111 33.4997C5.25072 35.816 6.54766 37.43 7.9473 38.7284C8.64936 39.3796 9.47915 40.0427 10.3399 40.7251L10.5865 40.9205C11.397 41.5625 12.266 42.2508 13.2046 43.0456C13.5384 43.3282 13.7512 43.773 13.7512 44.2812L13.7511 53.4998C13.7511 54.7425 14.7584 55.7499 16.0011 55.7499C17.2437 55.7499 18.2511 54.7425 18.2511 53.4999L18.2512 44.2813C18.2513 42.5217 17.5096 40.7944 16.1126 39.6115C15.1147 38.7665 14.1896 38.0338 13.3833 37.3952L13.1354 37.1988C12.2535 36.4996 11.5609 35.9424 11.0076 35.4292C10.4719 34.9323 10.1607 34.5608 9.982 34.2636C10.0522 34.2878 10.1228 34.3109 10.1938 34.3327C11.4823 34.7287 12.7579 34.6867 13.9009 34.4528C16.1055 34.0018 18.1771 32.7507 19.5838 31.87C20.5233 31.2819 21.4767 31.2819 22.4159 31.8698C23.8227 32.7504 25.8944 34.0017 28.099 34.4528C29.242 34.6866 30.5176 34.7287 31.8062 34.3328C31.9047 34.3025 32.0025 34.2699 32.0994 34.235C31.9237 34.5368 31.6099 34.9162 31.0569 35.4292C30.5036 35.9424 29.8109 36.4996 28.929 37.1988L28.6812 37.3952C27.8748 38.0338 26.9497 38.7665 25.9518 39.6115C24.5549 40.7944 23.8132 42.5217 23.8132 44.2813L23.8133 53.4999C23.8134 54.7425 24.8207 55.7499 26.0634 55.7499C27.306 55.7499 28.3134 54.7425 28.3133 53.4998L28.3132 44.2812C28.3132 43.773 28.5261 43.3282 28.8598 43.0456C29.7985 42.2508 30.6674 41.5625 31.4779 40.9206L31.7246 40.7251C32.5853 40.0427 33.4151 39.3796 34.1172 38.7284C35.5168 37.43 36.8137 35.816 36.8133 33.4997C36.8131 32.1919 36.6511 31.1279 36.2909 30.2883C36.7707 29.3037 37.0109 28.2771 37.0036 27.2227C36.9924 25.6188 36.4101 24.1844 35.6528 22.969C34.2202 20.6696 31.8074 18.6302 29.943 17.0543L29.8318 16.9603C29.4668 16.6517 29.25 16.1897 29.25 15.6849V6.75C29.25 5.50736 28.2427 4.5 27 4.5C25.7574 4.5 24.75 5.50736 24.75 6.75V15.6849C24.75 17.487 25.5297 19.2158 26.9264 20.3967C28.9598 22.1159 30.8213 23.724 31.8335 25.3486C32.3129 26.1182 32.5001 26.7405 32.5037 27.2541C32.507 27.7248 32.3594 28.3239 31.743 29.0945C31.2794 29.6741 30.8499 29.9189 30.4843 30.0313C30.0959 30.1507 29.6144 30.1696 29.0011 30.0441C27.6931 29.7765 26.2554 28.9642 24.8034 28.0554C22.4034 26.5532 19.5957 26.5536 17.1961 28.0558C15.7445 28.9645 14.3069 29.7766 12.999 30.0441C12.3858 30.1696 11.9043 30.1506 11.5158 30.0313C11.1593 29.9217 10.7421 29.6862 10.2917 29.1373C10.2695 29.1081 10.2466 29.0796 10.223 29.0516C9.63501 28.3016 9.49294 27.7159 9.49615 27.254C9.49971 26.7405 9.68686 26.1182 10.1663 25.3486C11.1785 23.7241 13.0401 22.1159 15.0736 20.3967C16.4703 19.2158 17.25 17.487 17.25 15.6849V6.75Z"
  />
  <path
    d="M44.712 24.135L53.7119 21.1347C54.8908 20.7417 55.5279 19.4675 55.1349 18.2886C54.7419 17.1097 53.4676 16.4727 52.2888 16.8657L43.2889 19.866C42.11 20.2589 41.4729 21.5332 41.8659 22.712C42.2589 23.8909 43.5332 24.528 44.712 24.135Z"
  />
  <path
    d="M43.9991 27.7506C42.7565 27.7506 41.7491 28.758 41.7492 30.0006C41.7492 31.2432 42.7566 32.2506 43.9992 32.2506L52.9992 32.2504C54.2419 32.2503 55.2492 31.243 55.2492 30.0003C55.2491 28.7577 54.2418 27.7503 52.9991 27.7504L43.9991 27.7506Z"
  />
  <path
    d="M41.8659 37.2888C42.2588 36.11 43.533 35.4728 44.7119 35.8657L53.7119 38.8652C54.8908 39.2581 55.528 40.5323 55.1351 41.7112C54.7422 42.8901 53.468 43.5272 52.2891 43.1343L43.2891 40.1348C42.1102 39.7419 41.473 38.4677 41.8659 37.2888Z"
  />
</svg>
