<svg
  width="60"
  height="60"
  viewBox="0 0 60 60"
  fill="currentColor"
  xmlns="http://www.w3.org/2000/svg"
>
  <path
    fill-rule="evenodd"
    clip-rule="evenodd"
    d="M4.93114 32.06C4.82607 31.7425 4.7887 31.455 4.77113 31.24C4.74977 30.9786 4.74991 30.6842 4.75002 30.4485L4.75003 30C4.75003 16.0548 16.0548 4.75 30 4.75C43.9452 4.75 55.25 16.0548 55.25 30L55.25 30.4485C55.2502 30.6842 55.2503 30.9787 55.2289 31.24C55.2114 31.455 55.174 31.7425 55.0689 32.06C55.2879 32.8096 55.1744 33.5169 55.124 33.8303L55.119 33.8618C55.1158 33.8817 55.1131 33.8996 55.1108 33.9155C54.5203 38.0121 52.1299 41.8113 49.1871 44.7448C46.3283 47.5947 42.7429 49.835 39.25 50.8155L39.25 51.4485C39.2501 51.6842 39.2503 51.9787 39.2289 52.24C39.2039 52.5459 39.1388 52.9985 38.8958 53.4755C38.5842 54.087 38.087 54.5842 37.4755 54.8958C36.9985 55.1388 36.5459 55.2039 36.24 55.2289C35.9787 55.2503 35.6843 55.2501 35.4486 55.25H24.5516C24.3159 55.2501 24.0214 55.2503 23.76 55.2289C23.4541 55.2039 23.0016 55.1388 22.5246 54.8958C21.913 54.5842 21.4158 54.087 21.1043 53.4755C20.8612 52.9985 20.7961 52.5459 20.7711 52.24C20.7498 51.9786 20.7499 51.6842 20.75 51.4485L20.75 50.8155C17.2572 49.835 13.6717 47.5947 10.8129 44.7448C7.87011 41.8113 5.4798 38.0121 4.88928 33.9155C4.88586 33.8917 4.88128 33.8632 4.87601 33.8303C4.82569 33.5169 4.71215 32.8096 4.93114 32.06ZM40 11.8142C46.3402 15.308 50.6573 22.0209 50.7486 29.75H40V11.8142ZM35.5 9.98677L35.5 29.75H24.5L24.5 9.98677C26.2517 9.50648 28.0959 9.25 30 9.25C31.9042 9.25 33.7484 9.50648 35.5 9.98677ZM20 11.8142L20 29.75H9.25151C9.34276 22.0209 13.6599 15.308 20 11.8142ZM9.53473 34.25C10.1591 36.7782 11.7743 39.3492 13.9899 41.5579C16.4863 44.0464 19.5278 45.8554 22.2037 46.547L22.2453 46.5578C22.4759 46.6173 22.7356 46.6844 22.9552 46.7554C23.182 46.8287 23.5776 46.969 23.9624 47.2605C24.4323 47.6165 24.7723 48.0555 24.9993 48.5995C25.1759 49.0225 25.2189 49.4127 25.2355 49.6636C25.2502 49.8861 25.2501 50.1382 25.25 50.3463L25.25 50.75H34.75L34.75 50.3463C34.7499 50.1382 34.7499 49.8861 34.7646 49.6636C34.7812 49.4127 34.8242 49.0225 35.0007 48.5995C35.2278 48.0555 35.5677 47.6165 36.0376 47.2605C36.4225 46.969 36.8181 46.8287 37.0449 46.7554C37.2645 46.6844 37.5241 46.6174 37.7547 46.5578L37.7964 46.547C40.4723 45.8554 43.5138 44.0464 46.0102 41.5579C48.2258 39.3492 49.841 36.7782 50.4653 34.25H9.53473Z"
  />
</svg>
