<svg
  width="60"
  height="60"
  viewBox="0 0 60 60"
  fill="currentColor"
  xmlns="http://www.w3.org/2000/svg"
>
  <path
    d="M30 2.75C14.9502 2.75 2.75 14.9502 2.75 30C2.75 45.0498 14.9502 57.25 30 57.25C45.0498 57.25 57.25 45.0498 57.25 30C57.25 14.9502 45.0498 2.75 30 2.75Z"
  />
  <path
    fill-rule="evenodd"
    clip-rule="evenodd"
    d="M44.1673 21.9852C45.046 22.8639 45.046 24.2885 44.1673 25.1672L30.6919 38.6426C29.0321 40.3023 26.3412 40.3023 24.6815 38.6426L16.8538 30.815C15.9752 29.9363 15.9752 28.5117 16.8538 27.633C17.7325 26.7543 19.1571 26.7543 20.0358 27.633L27.6867 35.2838L40.9853 21.9852C41.864 21.1065 43.2886 21.1065 44.1673 21.9852Z"
    fill="var(--color-text-secondary-1, #FFFFFF)"
  />
</svg>
