<svg
  width="60"
  height="60"
  viewBox="0 0 60 60"
  fill="currentColor"
  xmlns="http://www.w3.org/2000/svg"
>
  <path
    d="M44.1673 25.1672C45.046 24.2885 45.046 22.8639 44.1673 21.9852C43.2886 21.1065 41.864 21.1065 40.9853 21.9852L27.6867 35.2838L20.0358 27.633C19.1571 26.7543 17.7325 26.7543 16.8538 27.633C15.9752 28.5117 15.9752 29.9363 16.8538 30.815L24.6815 38.6426C26.3412 40.3023 29.0322 40.3023 30.6919 38.6426L44.1673 25.1672Z"
  />
  <path
    fill-rule="evenodd"
    clip-rule="evenodd"
    d="M30 2.75C14.9502 2.75 2.75 14.9502 2.75 30C2.75 45.0498 14.9502 57.25 30 57.25C45.0498 57.25 57.25 45.0498 57.25 30C57.25 14.9502 45.0498 2.75 30 2.75ZM7.25 30C7.25 17.4355 17.4355 7.25 30 7.25C42.5645 7.25 52.75 17.4355 52.75 30C52.75 42.5645 42.5645 52.75 30 52.75C17.4355 52.75 7.25 42.5645 7.25 30Z"
  />
</svg>
