<svg
  xmlns="http://www.w3.org/2000/svg"
  width="40"
  height="41"
  viewBox="0 0 40 41"
  fill="currentColor"
>
  <path
    d="M33.1968 25.9672L38.6666 20.5019L33.1968 15.0321V7.30283H25.4675L19.9977 1.83301L14.5324 7.30283H6.79861V15.0321L1.33331 20.5019L6.79861 25.9672V33.7011H14.5324L19.9977 39.1663L25.4675 33.7011H33.1968V25.9672Z"
    fill="#20B082"
  />
  <path
    fill-rule="evenodd"
    clip-rule="evenodd"
    d="M28.7782 15.8231C29.364 16.4089 29.364 17.3587 28.7782 17.9444L20.4612 26.2614C19.3547 27.3679 17.5608 27.3679 16.4543 26.2614L11.9025 21.7096C11.3167 21.1239 11.3167 20.1741 11.9025 19.5883C12.4883 19.0025 13.4381 19.0025 14.0239 19.5883L18.4578 24.0222L26.6569 15.8231C27.2427 15.2373 28.1924 15.2373 28.7782 15.8231Z"
    fill="white"
  />
</svg>
