<svg width="24" height="24" viewBox="0 0 24 24" fill="none" xmlns="http://www.w3.org/2000/svg">
  <path
    d="M11.9998 2.91675C6.98325 2.91675 2.9165 6.98349 2.9165 12.0001C2.9165 17.0167 6.98325 21.0834 11.9998 21.0834C17.0164 21.0834 21.0832 17.0167 21.0832 12.0001C21.0832 6.98349 17.0164 2.91675 11.9998 2.91675Z"
    fill="#20B082" />
  <path fill-rule="evenodd" clip-rule="evenodd"
    d="M16.7226 9.32831C17.0155 9.62121 17.0155 10.0961 16.7226 10.389L12.2308 14.8808C11.6775 15.434 10.7806 15.434 10.2273 14.8808L7.61811 12.2716C7.32521 11.9787 7.32521 11.5038 7.61811 11.2109C7.911 10.918 8.38587 10.918 8.67877 11.2109L11.2291 13.7612L15.6619 9.32831C15.9548 9.03542 16.4297 9.03542 16.7226 9.32831Z"
    fill="white" />
</svg>