<svg
  width="60"
  height="60"
  viewBox="0 0 60 60"
  fill="currentColor"
  xmlns="http://www.w3.org/2000/svg"
>
  <path
    d="M29.2397 19.0844C30.1184 18.2057 30.1184 16.7811 29.2397 15.9024C28.361 15.0237 26.9364 15.0237 26.0577 15.9024L19.4937 22.4664L17.0415 20.0142C16.1628 19.1355 14.7382 19.1355 13.8595 20.0142C12.9808 20.8929 12.9808 22.3175 13.8595 23.1962L17.9027 27.2394C18.3247 27.6613 18.897 27.8984 19.4937 27.8984C20.0904 27.8984 20.6627 27.6613 21.0847 27.2394L29.2397 19.0844Z"
  />
  <path
    d="M44.5911 36.591C45.4698 35.7123 45.4698 34.2877 44.5911 33.409C43.7125 32.5303 42.2878 32.5303 41.4092 33.409L39.0002 35.8179L36.5913 33.409C35.7127 32.5303 34.288 32.5303 33.4093 33.409C32.5307 34.2877 32.5307 35.7123 33.4093 36.591L35.8183 38.9999L33.4091 41.409C32.5304 42.2877 32.5304 43.7123 33.4091 44.591C34.2878 45.4697 35.7124 45.4697 36.5911 44.591L39.0002 42.1819L41.4094 44.591C42.2881 45.4697 43.7127 45.4697 44.5914 44.591C45.47 43.7123 45.47 42.2877 44.5914 41.409L42.1822 38.9999L44.5911 36.591Z"
  />
  <path
    fill-rule="evenodd"
    clip-rule="evenodd"
    d="M21.3037 4.75H38.6963C41.1348 4.74998 43.1017 4.74996 44.6944 4.88009C46.3343 5.01408 47.7747 5.29716 49.1074 5.97618C51.2242 7.05475 52.9452 8.77578 54.0238 10.8926C54.7028 12.2253 54.9859 13.6657 55.1199 15.3056C55.25 16.8983 55.25 18.8651 55.25 21.3035V38.6964C55.25 41.1348 55.25 43.1017 55.1199 44.6944C54.9859 46.3343 54.7028 47.7747 54.0238 49.1074C52.9452 51.2242 51.2242 52.9452 49.1074 54.0238C47.7747 54.7028 46.3343 54.9859 44.6944 55.1199C43.1017 55.25 41.1349 55.25 38.6965 55.25H21.3036C18.8652 55.25 16.8983 55.25 15.3056 55.1199C13.6657 54.9859 12.2253 54.7028 10.8926 54.0238C8.77578 52.9452 7.05475 51.2242 5.97618 49.1074C5.29716 47.7747 5.01408 46.3343 4.88009 44.6944C4.74996 43.1017 4.74998 41.1348 4.75 38.6963V21.3037C4.74998 18.8652 4.74996 16.8983 4.88009 15.3056C5.01408 13.6657 5.29716 12.2253 5.97618 10.8926C7.05475 8.77578 8.77578 7.05475 10.8926 5.97618C12.2253 5.29716 13.6657 5.01408 15.3056 4.88009C16.8983 4.74996 18.8652 4.74998 21.3037 4.75ZM15.672 9.36515C14.3104 9.4764 13.5281 9.68379 12.9356 9.98571C11.6655 10.6329 10.6329 11.6655 9.98571 12.9356C9.68379 13.5281 9.4764 14.3104 9.36515 15.672C9.25175 17.0599 9.25 18.8426 9.25 21.4V38.6C9.25 41.1574 9.25175 42.9401 9.36515 44.328C9.46687 45.573 9.64897 46.3336 9.91022 46.9078L46.9078 9.91022C46.3336 9.64897 45.573 9.46687 44.328 9.36515C42.9401 9.25175 41.1574 9.25 38.6 9.25H21.4C18.8426 9.25 17.0599 9.25175 15.672 9.36515ZM15.672 50.6349C14.427 50.5331 13.6663 50.351 13.0922 50.0898L50.0898 13.0922C50.351 13.6663 50.5331 14.427 50.6349 15.672C50.7482 17.0599 50.75 18.8426 50.75 21.4V38.6C50.75 41.1574 50.7482 42.9401 50.6349 44.328C50.5236 45.6896 50.3162 46.4719 50.0143 47.0644C49.3671 48.3345 48.3345 49.3671 47.0644 50.0143C46.4719 50.3162 45.6896 50.5236 44.328 50.6349C42.9401 50.7482 41.1574 50.75 38.6 50.75H21.4C18.8426 50.75 17.0599 50.7482 15.672 50.6349Z"
  />
</svg>
