<svg
  width="60"
  height="60"
  viewBox="0 0 60 60"
  fill="currentColor"
  xmlns="http://www.w3.org/2000/svg"
>
  <path
    fill-rule="evenodd"
    clip-rule="evenodd"
    d="M25.865 21.1577C29.4773 17.5453 35.3341 17.5453 38.9464 21.1577C42.5588 24.77 42.5588 30.6268 38.9464 34.2392C35.3341 37.8515 29.4773 37.8515 25.865 34.2392C22.2526 30.6268 22.2526 24.77 25.865 21.1577ZM35.7645 24.3397C33.9095 22.4847 30.9019 22.4847 29.047 24.3397C27.192 26.1947 27.192 29.2022 29.047 31.0572C30.9019 32.9122 33.9095 32.9122 35.7645 31.0572C37.6195 29.2022 37.6195 26.1947 35.7645 24.3397Z"
  />
  <path
    fill-rule="evenodd"
    clip-rule="evenodd"
    d="M53.5212 10.2174C52.9249 8.64114 51.463 7.17928 49.8867 6.58301C48.7891 6.16779 47.7343 6.16955 46.697 6.32997C45.7586 6.4751 44.6728 6.78038 43.4729 7.11775L43.3597 7.14959C37.3538 8.83766 29.3441 11.6153 23.7104 15.659C23.6383 15.7108 23.566 15.7631 23.4936 15.8161C23.3593 15.7566 23.2171 15.7094 23.0682 15.6763L22.4198 15.532C20.5206 15.1089 19.206 14.8161 17.8761 14.837C16.7008 14.8555 15.5357 15.0581 14.4231 15.4373C13.1642 15.8665 12.0255 16.5858 10.3805 17.6251L6.44253 20.1114C5.59897 20.6439 4.83982 21.1231 4.27209 21.5579C3.72166 21.9794 2.96803 22.6326 2.62586 23.6314C2.20387 24.8633 2.3699 26.2207 3.07637 27.3145C3.6492 28.2015 4.53806 28.6538 5.17387 28.9302C5.82966 29.2153 6.68195 29.4974 7.62901 29.8109L10.113 30.6333C10.0014 31.5692 10.0972 32.5451 10.3967 33.4226C10.671 34.226 11.1125 34.8692 11.6057 35.4529C12.0619 35.9929 12.655 36.5859 13.3191 37.2498L22.8544 46.7851C23.5183 47.4492 24.1114 48.0423 24.6513 48.4985C25.235 48.9918 25.8782 49.4333 26.6816 49.7075C27.5591 50.007 28.535 50.1028 29.4707 49.9913L30.2624 52.3825L30.2639 52.3868L30.2931 52.4751C30.6065 53.4221 30.8886 54.2743 31.1737 54.9301C31.4502 55.5659 31.9025 56.4547 32.7894 57.0276C33.8833 57.734 35.2406 57.9001 36.4725 57.4781C37.4714 57.1359 38.1246 56.3823 38.5461 55.8318C38.9809 55.2641 39.4601 54.5049 39.9926 53.6613L42.3137 49.985C43.4074 48.2539 44.1643 47.0558 44.5995 45.7299C44.9839 44.5584 45.1732 43.3317 45.1598 42.0988C45.1445 40.7034 44.7839 39.3329 44.2629 37.3527L44.1257 36.8308C44.2345 36.6846 44.3411 36.5389 44.4452 36.3938C48.4888 30.7601 51.2665 22.7504 52.9546 16.7445L52.9864 16.6312C53.3238 15.4314 53.6291 14.3456 53.7742 13.4072C53.9346 12.3699 53.9364 11.3151 53.5212 10.2174ZM40.537 41.0673C38.4584 43.2935 36.2118 45.4214 34.3529 47.1055C34.2672 47.1831 34.182 47.2606 34.0972 47.3377C33.8911 47.5252 33.6873 47.7107 33.4837 47.8911C33.5405 47.9992 33.5892 48.1134 33.6289 48.2332L34.5329 50.9638L34.5344 50.9681C34.8132 51.8103 35.0081 52.3946 35.1729 52.8223C35.4359 52.4469 35.7659 51.9269 36.2395 51.1767L38.3649 47.8102C39.6565 45.7644 40.0838 45.058 40.3239 44.3267C40.5545 43.6238 40.6681 42.8877 40.66 42.148C40.6565 41.8291 40.6211 41.5046 40.537 41.0673ZM12.2132 26.6205C12.3936 26.4168 12.579 26.2131 12.7665 26.007C12.8436 25.9222 12.9211 25.8371 12.9987 25.7514C14.7142 23.8577 16.8903 21.5618 19.1617 19.4509C18.6478 19.363 18.2935 19.331 17.9469 19.3365C17.2417 19.3476 16.5426 19.4691 15.8751 19.6967C15.1805 19.9334 14.5101 20.3398 12.5671 21.5664L8.92729 23.8644C8.17706 24.3381 7.65701 24.6681 7.28167 24.9311C7.70934 25.0958 8.29358 25.2907 9.13586 25.5696L11.8708 26.4751C11.9906 26.5148 12.1049 26.5636 12.2132 26.6205ZM48.2946 10.7919C48.6637 10.9316 49.1726 11.4404 49.3123 11.8096C49.3626 11.9427 49.4149 12.1519 49.3271 12.7194C49.2286 13.3564 49.0017 14.1775 48.6225 15.5269C46.9585 21.4471 44.3486 28.8112 40.7894 33.7698C38.4174 37.0745 34.462 40.9346 31.3316 43.7705C29.7378 45.2144 29.4565 45.3963 29.1837 45.4746C28.8671 45.5656 28.447 45.5552 28.1353 45.4488C28.0595 45.4229 27.9059 45.3572 27.5557 45.0613C27.1775 44.7417 26.7183 44.2851 25.9777 43.5446L16.5597 34.1265C15.8191 33.3859 15.3625 32.9267 15.0429 32.5485C14.747 32.1983 14.6813 32.0447 14.6554 31.9689C14.549 31.6572 14.5387 31.2371 14.6296 30.9205C14.7079 30.6478 14.8898 30.3664 16.3337 28.7726C19.1696 25.6422 23.0297 21.6868 26.3344 19.3148C31.293 15.7556 38.6571 13.1457 44.5773 11.4817C45.9267 11.1024 46.7478 10.8756 47.3848 10.7771C47.9523 10.6893 48.1615 10.7416 48.2946 10.7919Z"
  />
  <path
    d="M14.5502 42.3525L8.4767 45.98C6.2209 47.3273 5.83488 50.4373 7.69282 52.2952C9.55077 54.1532 12.6607 53.7671 14.0081 51.5113L17.6356 45.4379L14.5502 42.3525Z"
  />
</svg>
