<svg
  width="60"
  height="60"
  viewBox="0 0 60 60"
  fill="currentColor"
  xmlns="http://www.w3.org/2000/svg"
>
  <path
    fill-rule="evenodd"
    clip-rule="evenodd"
    d="M8.47676 45.9798L14.5502 42.3523L17.6356 45.4378L14.0081 51.5112C12.6608 53.767 9.55083 54.153 7.69288 52.2951C5.83493 50.4371 6.22095 47.3272 8.47676 45.9798Z"
    fill="black"
    fill-opacity="0.96"
  />
  <path
    fill-rule="evenodd"
    clip-rule="evenodd"
    d="M8.47676 45.9798L14.5502 42.3523L17.6356 45.4378L14.0081 51.5112C12.6608 53.767 9.55083 54.153 7.69288 52.2951C5.83493 50.4371 6.22095 47.3272 8.47676 45.9798Z"
    fill="url(#paint0_linear_772_8551)"
  />
  <path
    d="M51.2101 6.33253C49.8548 5.81987 48.4264 6.22133 45.5698 7.02426C39.0035 8.86982 30.5391 11.8361 24.7073 16.022C24.1295 16.4367 23.5399 16.8904 22.9445 17.3737L22.0176 16.4469L21.5779 16.349C19.2226 15.8251 18.045 15.5632 16.8773 15.5815C15.8419 15.5978 14.8155 15.7763 13.8354 16.1104C12.73 16.4872 11.7099 17.1313 9.66968 18.4193L5.66163 20.9498C3.6478 22.2212 2.64087 22.857 2.38937 23.5911C2.1707 24.2295 2.25673 24.9329 2.62282 25.4997C3.04387 26.1516 4.17433 26.5259 6.43524 27.2744L9.44679 28.2715L10.99 29.8147C10.9486 29.9185 10.9127 30.0234 10.8819 30.1306C10.642 30.9661 10.6662 31.9466 10.947 32.7693C11.2775 33.7374 12.0639 34.5238 13.6366 36.0966L24.0073 46.4673C25.5801 48.0401 26.3665 48.8265 27.3347 49.157C28.1573 49.4378 29.1379 49.462 29.9733 49.222C30.0805 49.1913 30.1854 49.1554 30.2892 49.114L31.8324 50.6571L32.8295 53.6687C33.578 55.9296 33.9523 57.0601 34.6042 57.4811C35.1711 57.8472 35.8744 57.9332 36.5128 57.7146C37.247 57.4631 37.8827 56.4561 39.1541 54.4423L41.4945 50.7354C42.8505 48.5875 43.5286 47.5136 43.9107 46.3493C44.2494 45.3174 44.4161 44.2367 44.4042 43.1507C44.3908 41.9254 44.068 40.6971 43.4225 38.2404L43.284 37.7132L42.7302 37.1594C43.2135 36.564 43.6672 35.9744 44.0819 35.3967C48.2678 29.5648 51.2341 21.1004 53.0796 14.5341C53.8826 11.6775 54.284 10.2491 53.7714 8.89385C53.3662 7.82275 52.2812 6.73771 51.2101 6.33253Z"
    fill="#D9D9D9"
  />
  <path
    d="M51.2101 6.33253C49.8548 5.81987 48.4264 6.22133 45.5698 7.02426C39.0035 8.86982 30.5391 11.8361 24.7073 16.022C24.1295 16.4367 23.5399 16.8904 22.9445 17.3737L22.0176 16.4469L21.5779 16.349C19.2226 15.8251 18.045 15.5632 16.8773 15.5815C15.8419 15.5978 14.8155 15.7763 13.8354 16.1104C12.73 16.4872 11.7099 17.1313 9.66968 18.4193L5.66163 20.9498C3.6478 22.2212 2.64087 22.857 2.38937 23.5911C2.1707 24.2295 2.25673 24.9329 2.62282 25.4997C3.04387 26.1516 4.17433 26.5259 6.43524 27.2744L9.44679 28.2715L10.99 29.8147C10.9486 29.9185 10.9127 30.0234 10.8819 30.1306C10.642 30.9661 10.6662 31.9466 10.947 32.7693C11.2775 33.7374 12.0639 34.5238 13.6366 36.0966L24.0073 46.4673C25.5801 48.0401 26.3665 48.8265 27.3347 49.157C28.1573 49.4378 29.1379 49.462 29.9733 49.222C30.0805 49.1913 30.1854 49.1554 30.2892 49.114L31.8324 50.6571L32.8295 53.6687C33.578 55.9296 33.9523 57.0601 34.6042 57.4811C35.1711 57.8472 35.8744 57.9332 36.5128 57.7146C37.247 57.4631 37.8827 56.4561 39.1541 54.4423L41.4945 50.7354C42.8505 48.5875 43.5286 47.5136 43.9107 46.3493C44.2494 45.3174 44.4161 44.2367 44.4042 43.1507C44.3908 41.9254 44.068 40.6971 43.4225 38.2404L43.284 37.7132L42.7302 37.1594C43.2135 36.564 43.6672 35.9744 44.0819 35.3967C48.2678 29.5648 51.2341 21.1004 53.0796 14.5341C53.8826 11.6775 54.284 10.2491 53.7714 8.89385C53.3662 7.82275 52.2812 6.73771 51.2101 6.33253Z"
    fill="url(#paint1_linear_772_8551)"
  />
  <circle
    cx="32.4058"
    cy="27.6985"
    r="7.70446"
    transform="rotate(45 32.4058 27.6985)"
    fill="white"
  />
  <defs>
    <linearGradient
      id="paint0_linear_772_8551"
      x1="12.2158"
      y1="51.1014"
      x2="8.75045"
      y2="45.8428"
      gradientUnits="userSpaceOnUse"
    >
      <stop stop-color="#6128FF" />
      <stop offset="1" stop-color="#7A59FF" stop-opacity="0.24" />
    </linearGradient>
    <linearGradient
      id="paint1_linear_772_8551"
      x1="43.2229"
      y1="40.2312"
      x2="30.3307"
      y2="12.7524"
      gradientUnits="userSpaceOnUse"
    >
      <stop offset="0.32707" stop-color="#6128FF" />
      <stop offset="1" stop-color="#7A59FF" stop-opacity="0.24" />
    </linearGradient>
  </defs>
</svg>
