<svg
  width="60"
  height="60"
  viewBox="0 0 60 60"
  fill="currentColor"
  xmlns="http://www.w3.org/2000/svg"
>
  <path
    fill-rule="evenodd"
    clip-rule="evenodd"
    d="M25.8655 21.1579C29.4779 17.5456 35.3346 17.5456 38.947 21.1579C42.5593 24.7703 42.5593 30.6271 38.947 34.2394C35.3346 37.8518 29.4779 37.8518 25.8655 34.2394C22.2532 30.6271 22.2532 24.7703 25.8655 21.1579ZM35.765 24.3399C33.91 22.4849 30.9025 22.4849 29.0475 24.3399C27.1925 26.1949 27.1925 29.2024 29.0475 31.0574C30.9025 32.9124 33.91 32.9124 35.765 31.0574C37.62 29.2024 37.62 26.1949 35.765 24.3399Z"
  />
  <path
    fill-rule="evenodd"
    clip-rule="evenodd"
    d="M53.5203 10.2172C52.924 8.6409 51.4621 7.17904 49.8858 6.58276C48.7882 6.16755 47.7334 6.16931 46.6961 6.32973C45.7577 6.47486 44.6719 6.78014 43.472 7.1175L43.3588 7.14935C37.3529 8.83742 29.3432 11.6151 23.7095 15.6588C23.6374 15.7105 23.5652 15.7628 23.4928 15.8157C23.3588 15.7564 23.2169 15.7093 23.0683 15.6763L22.4199 15.532C20.5207 15.1089 19.2061 14.8161 17.8762 14.837C16.7009 14.8555 15.5357 15.0581 14.4231 15.4373C13.1642 15.8665 12.0256 16.5858 10.3806 17.6251L6.44259 20.1114C5.59903 20.6439 4.83988 21.1231 4.27216 21.5579C3.72172 21.9794 2.96809 22.6326 2.62592 23.6314C2.20393 24.8633 2.36996 26.2207 3.07643 27.3145C3.64926 28.2015 4.53812 28.6538 5.17393 28.9302C5.82972 29.2153 6.68201 29.4974 7.62908 29.8109L10.1121 30.633C10.0005 31.5689 10.0962 32.5448 10.3958 33.4224C10.6701 34.2258 11.1115 34.8689 11.6048 35.4527C12.061 35.9926 12.6541 36.5856 13.3182 37.2496L22.8535 46.7849C23.5174 47.4489 24.1104 48.042 24.6504 48.4983C25.2341 48.9915 25.8773 49.433 26.6807 49.7073C27.5585 50.0069 28.5346 50.1026 29.4707 49.9909L30.2625 52.3825L30.2639 52.3868L30.2931 52.4751C30.6066 53.4221 30.8887 54.2743 31.1738 54.9301C31.4502 55.5659 31.9025 56.4547 32.7895 57.0276C33.8833 57.734 35.2407 57.9001 36.4726 57.4781C37.4714 57.1359 38.1246 56.3823 38.5462 55.8318C38.9809 55.2641 39.4602 54.5049 39.9927 53.6614L42.3138 49.985C43.4075 48.2539 44.1644 47.0558 44.5995 45.7299C44.984 44.5584 45.1733 43.3317 45.1598 42.0988C45.1446 40.7034 44.784 39.3329 44.263 37.3527L44.1255 36.8296C44.234 36.6837 44.3404 36.5383 44.4443 36.3936C48.4879 30.7599 51.2656 22.7502 52.9537 16.7443L52.9855 16.631C53.3229 15.4311 53.6282 14.3454 53.7733 13.4069C53.9337 12.3697 53.9355 11.3148 53.5203 10.2172ZM40.5369 41.0663C38.458 43.2928 36.2111 45.421 34.352 47.1052C34.2664 47.1828 34.1813 47.2602 34.0966 47.3372C33.8907 47.5245 33.6868 47.7101 33.4833 47.8904C33.5403 47.9987 33.5892 48.1132 33.6289 48.2332L34.533 50.9638L34.5344 50.9681C34.8133 51.8103 35.0082 52.3946 35.173 52.8223C35.436 52.4469 35.7659 51.9269 36.2396 51.1767L38.365 47.8102C39.6566 45.7644 40.0839 45.058 40.3239 44.3267C40.5546 43.6238 40.6682 42.8877 40.6601 42.148C40.6566 41.8288 40.6211 41.504 40.5369 41.0663ZM12.2124 26.62C12.3928 26.4165 12.5781 26.2128 12.7656 26.0068C12.8427 25.922 12.9202 25.8368 12.9978 25.7511C14.7133 23.8575 16.8893 21.5616 19.1607 19.4507C18.6474 19.363 18.2933 19.331 17.9469 19.3365C17.2418 19.3476 16.5427 19.4691 15.8751 19.6967C15.1806 19.9334 14.5101 20.3398 12.5672 21.5664L8.92735 23.8644C8.17712 24.3381 7.65708 24.6681 7.28173 24.9311C7.7094 25.0958 8.29364 25.2907 9.13592 25.5696L11.8708 26.4751C11.9904 26.5147 12.1044 26.5633 12.2124 26.62ZM48.2937 10.7917C48.6628 10.9313 49.1717 11.4402 49.3113 11.8093C49.3617 11.9425 49.4139 12.1516 49.3262 12.7192C49.2277 13.3561 49.0008 14.1772 48.6215 15.5266C46.9575 21.4469 44.3476 28.8109 40.7885 33.7696C38.4165 37.0742 34.4611 40.9344 31.3307 43.7703C29.7369 45.2141 29.4556 45.3961 29.1828 45.4744C28.8662 45.5653 28.4461 45.5549 28.1344 45.4485C28.0586 45.4227 27.905 45.357 27.5548 45.0611C27.1766 44.7415 26.7174 44.2849 25.9768 43.5443L16.5587 34.1262C15.8182 33.3857 15.3616 32.9265 15.042 32.5483C14.7461 32.1981 14.6804 32.0445 14.6545 31.9687C14.5481 31.6569 14.5378 31.2369 14.6287 30.9203C14.707 30.6475 14.8889 30.3662 16.3328 28.7724C19.1687 25.642 23.0288 21.6865 26.3335 19.3145C31.2921 15.7554 38.6561 13.1455 44.5764 11.4815C45.9258 11.1022 46.7469 10.8754 47.3839 10.7769C47.9514 10.6891 48.1606 10.7413 48.2937 10.7917Z"
  />
  <path
    d="M14.5492 42.352L8.47579 45.9795C6.21999 47.3268 5.83396 50.4368 7.69191 52.2947C9.54986 54.1527 12.6598 53.7667 14.0072 51.5108L17.6347 45.4374L14.5492 42.352Z"
  />
</svg>
