<svg
  width="60"
  height="60"
  viewBox="0 0 60 60"
  fill="currentColor"
  xmlns="http://www.w3.org/2000/svg"
>
  <path
    fill-rule="evenodd"
    clip-rule="evenodd"
    d="M9 14.6C9 11.2397 9 9.55953 9.65396 8.27606C10.2292 7.14708 11.1471 6.2292 12.2761 5.65396C13.5595 5 15.2397 5 18.6 5H22.4C25.7603 5 27.4405 5 28.7239 5.65396C29.8529 6.2292 30.7708 7.14708 31.346 8.27606C32 9.55953 32 11.2397 32 14.6V16.4884C32 18.4438 32 19.4216 32.3584 20.2103C32.6743 20.9053 33.1826 21.4955 33.8231 21.911C34.5499 22.3825 35.5168 22.5275 37.4506 22.8176L42.6743 23.6012C43.4364 23.7155 43.8175 23.7726 44.1474 23.8452C48.4876 24.7995 51.6773 28.5033 51.9772 32.937C52 33.274 52 33.6594 52 34.43C52 34.9593 52 35.2239 51.9833 35.4473C51.762 38.4082 49.4082 40.762 46.4473 40.9833C46.2239 41 45.9593 41 45.43 41H18.6C15.2397 41 13.5595 41 12.2761 40.346C11.1471 39.7708 10.2292 38.8529 9.65396 37.7239C9 36.4405 9 34.7603 9 31.4V14.6ZM18.6 9.5H22.4C24.1544 9.5 25.1996 9.5035 25.9743 9.5668C26.4472 9.60543 26.646 9.65641 26.6992 9.67294C26.9671 9.81406 27.1859 10.0329 27.3271 10.3008C27.3399 10.3422 27.3736 10.4718 27.4062 10.75L22 10.75C20.7574 10.75 19.75 11.7574 19.75 13C19.75 14.2426 20.7574 15.25 22 15.25L27.5 15.25L27.5 16.6121C27.5 16.658 27.5 16.704 27.5 16.75L22 16.75C20.7574 16.75 19.75 17.7574 19.75 19C19.75 20.2426 20.7574 21.25 22 21.25H27.9461C28.0318 21.5198 28.1356 21.7946 28.2617 22.0721C28.933 23.5492 30.013 24.8033 31.3741 25.6862C32.3546 26.3223 33.345 26.6277 34.1802 26.8189C34.9251 26.9894 35.8004 27.1206 36.6608 27.2495L42.0068 28.0514C42.8382 28.1761 43.0363 28.2084 43.1811 28.2402C45.5682 28.765 47.3225 30.8022 47.4875 33.2407C47.4975 33.3886 47.5 33.5892 47.5 34.43C47.5 34.7062 47.4999 34.8706 47.4983 34.9948C47.4968 35.1126 47.4944 35.1314 47.4958 35.1118C47.4405 35.8521 46.8521 36.4405 46.1118 36.4958C46.1183 36.4953 46.1206 36.4953 46.1164 36.4955C46.1079 36.4959 46.0734 36.4973 45.9948 36.4983C45.8706 36.4999 45.7062 36.5 45.43 36.5H18.6C16.8456 36.5 15.8004 36.4965 15.0257 36.4332C14.5528 36.3946 14.3541 36.3436 14.3008 36.3271C14.0329 36.1859 13.8141 35.9671 13.6729 35.6992C13.6564 35.646 13.6054 35.4472 13.5668 34.9743C13.5035 34.1996 13.5 33.1544 13.5 31.4V14.6C13.5 12.8456 13.5035 11.8004 13.5668 11.0257C13.6054 10.5528 13.6564 10.354 13.6729 10.3008C13.8141 10.0329 14.0329 9.81406 14.3008 9.67294C14.354 9.65641 14.5528 9.60543 15.0257 9.5668C15.8004 9.5035 16.8456 9.5 18.6 9.5Z"
  />
  <path
    fill-rule="evenodd"
    clip-rule="evenodd"
    d="M17 49C17 52.3137 14.3137 55 11 55C7.68629 55 5 52.3137 5 49C5 45.6863 7.68629 43 11 43C14.3137 43 17 45.6863 17 49ZM13.5 49C13.5 50.3807 12.3807 51.5 11 51.5C9.61929 51.5 8.5 50.3807 8.5 49C8.5 47.6193 9.61929 46.5 11 46.5C12.3807 46.5 13.5 47.6193 13.5 49Z"
  />
  <path
    fill-rule="evenodd"
    clip-rule="evenodd"
    d="M36 49C36 52.3137 33.3137 55 30 55C26.6863 55 24 52.3137 24 49C24 45.6863 26.6863 43 30 43C33.3137 43 36 45.6863 36 49ZM32.5 49C32.5 50.3807 31.3807 51.5 30 51.5C28.6193 51.5 27.5 50.3807 27.5 49C27.5 47.6193 28.6193 46.5 30 46.5C31.3807 46.5 32.5 47.6193 32.5 49Z"
  />
  <path
    fill-rule="evenodd"
    clip-rule="evenodd"
    d="M49 55C52.3137 55 55 52.3137 55 49C55 45.6863 52.3137 43 49 43C45.6863 43 43 45.6863 43 49C43 52.3137 45.6863 55 49 55ZM49 51.5C50.3807 51.5 51.5 50.3807 51.5 49C51.5 47.6193 50.3807 46.5 49 46.5C47.6193 46.5 46.5 47.6193 46.5 49C46.5 50.3807 47.6193 51.5 49 51.5Z"
  />
</svg>
