<svg
  width="60"
  height="60"
  viewBox="0 0 60 60"
  fill="currentColor"
  xmlns="http://www.w3.org/2000/svg"
>
  <path
    fill-rule="evenodd"
    clip-rule="evenodd"
    d="M30.7324 11.8899C30.2676 11.6757 29.7324 11.6757 29.2676 11.8899C29.2493 11.8983 29.0033 12.0217 28.4503 12.8609C27.9098 13.6811 27.2784 14.8566 26.3408 16.6091L21.2131 26.1932C20.7802 27.0025 20.3851 27.7412 20.0144 28.304C19.6465 28.8625 19.0801 29.6101 18.1637 30.0233C17.0158 30.5409 15.6976 30.5228 14.5643 29.974C13.6595 29.5358 13.1139 28.773 12.7614 28.2046C12.4063 27.6319 12.0315 26.8826 11.621 26.0617L9.38755 21.5972C8.59612 20.0152 8.00862 18.843 7.53509 17.9903C7.5162 18.9655 7.5463 20.2763 7.5882 22.0448L7.91622 35.8878C7.97552 38.3906 8.01854 40.1339 8.16069 41.4903C8.30004 42.82 8.51916 43.5844 8.8266 44.1638C9.48448 45.4037 10.5125 46.4076 11.7676 47.036C12.3542 47.3296 13.1235 47.5305 14.4561 47.6383C15.8155 47.7483 17.5593 47.75 20.0628 47.75L39.9372 47.75C42.4407 47.75 44.1844 47.7483 45.5438 47.6383C46.8765 47.5305 47.6458 47.3296 48.2323 47.0359C49.4874 46.4076 50.5155 45.4037 51.1734 44.1638C51.4808 43.5844 51.6999 42.82 51.8393 41.4903C51.9814 40.1339 52.0244 38.3906 52.0837 35.8879L52.4118 22.0448C52.4537 20.2763 52.4838 18.9655 52.4649 17.9903C51.9913 18.843 51.4038 20.0152 50.6124 21.5973L48.3791 26.0616C47.9685 26.8825 47.5937 27.6318 47.2385 28.2046C46.8861 28.773 46.3404 29.5358 45.4356 29.974C44.3024 30.5228 42.9841 30.5409 41.8363 30.0233C40.9198 29.6101 40.3535 28.8625 39.9856 28.304C39.6149 27.7412 39.2198 27.0026 38.7869 26.1934L33.6592 16.6091C32.7216 14.8565 32.0901 13.6811 31.5497 12.8609C30.9967 12.0217 30.7507 11.8983 30.7324 11.8899ZM53.3036 16.6918C53.3036 16.6918 53.298 16.6982 53.2868 16.708C53.298 16.6962 53.3036 16.6918 53.3036 16.6918ZM52.3394 16.4724C52.3341 16.4584 52.3321 16.4502 52.3321 16.4502C52.3321 16.4502 52.335 16.4567 52.3394 16.4724ZM7.66782 16.4502C7.66782 16.4502 7.66585 16.4584 7.6605 16.4724C7.66491 16.4567 7.66782 16.4502 7.66782 16.4502ZM6.71322 16.708C6.70195 16.6982 6.69635 16.6918 6.69635 16.6918C6.69635 16.6918 6.702 16.6962 6.71322 16.708ZM27.3842 7.80294C29.0442 7.03802 30.9558 7.03802 32.6157 7.80294C33.8169 8.35646 34.6389 9.37063 35.3073 10.3849C35.975 11.3983 36.7029 12.7588 37.5753 14.3895L42.7098 23.9865C43.095 24.7066 43.3611 25.201 43.5751 25.5589C43.7792 25.1952 44.0317 24.6937 44.397 23.9634L46.6308 19.4981C47.5224 17.716 48.2467 16.2681 48.8534 15.2412C49.1622 14.7186 49.4933 14.2129 49.8554 13.7949C50.1918 13.4065 50.7437 12.8689 51.547 12.6235C53.0477 12.165 54.6789 12.5708 55.7899 13.6788C56.3847 14.272 56.6204 15.0054 56.7357 15.5062C56.8598 16.0451 56.9153 16.647 56.9433 17.2533C56.9984 18.4448 56.96 20.0633 56.9128 22.0554L56.5802 36.0895C56.5237 38.475 56.4781 40.4005 56.3148 41.9593C56.1465 43.5654 55.8379 44.9735 55.1485 46.2729C54.052 48.3394 52.3386 50.0127 50.2467 51.0599C48.9314 51.7184 47.5163 51.9935 45.9067 52.1237C44.3445 52.2501 42.4185 52.25 40.0323 52.25L19.9678 52.25C17.5816 52.2501 15.6555 52.2501 14.0933 52.1237C12.4837 51.9935 11.0686 51.7184 9.75323 51.0599C7.66135 50.0127 5.94796 48.3394 4.8515 46.2729C4.16204 44.9735 3.8535 43.5654 3.6852 41.9593C3.52184 40.4005 3.47624 38.475 3.41973 36.0894L3.08719 22.0554C3.03996 20.0633 3.0016 18.4449 3.05661 17.2533C3.08461 16.6469 3.1402 16.0451 3.26427 15.5062C3.37956 15.0054 3.61529 14.272 4.21002 13.6788C5.32108 12.5708 6.9523 12.165 8.45299 12.6235C9.25629 12.8689 9.80812 13.4065 10.1446 13.7949C10.5067 14.2129 10.8377 14.7186 11.1465 15.2412C11.7533 16.2681 12.4776 17.716 13.3691 19.4981L15.6029 23.9634C15.9683 24.6937 16.2207 25.1952 16.4248 25.5589C16.6388 25.201 16.9049 24.7066 17.2902 23.9865L22.4247 14.3895C23.2971 12.7588 24.0249 11.3983 24.6927 10.3849C25.3611 9.37063 26.1831 8.35646 27.3842 7.80294Z"
  />
  <path
    fill-rule="evenodd"
    clip-rule="evenodd"
    d="M19.75 42C19.75 40.7574 20.7573 39.75 22 39.75H38C39.2426 39.75 40.25 40.7574 40.25 42C40.25 43.2427 39.2426 44.25 38 44.25H22C20.7573 44.25 19.75 43.2427 19.75 42Z"
  />
</svg>
