<svg
  width="60"
  height="60"
  viewBox="0 0 60 60"
  fill="currentColor"
  xmlns="http://www.w3.org/2000/svg"
>
  <path
    fill-rule="evenodd"
    clip-rule="evenodd"
    d="M51.4529 6.60271C46.0504 5.357 27.6717 2.32989 15.0007 15.0005C2.32964 27.6712 5.35706 46.0502 6.60286 51.4527C6.82755 52.4271 7.5741 53.1737 8.54851 53.3983C13.951 54.644 32.3297 57.6712 45.0007 45.0005C57.6717 32.3299 54.6443 13.9509 53.3985 8.54833C53.1738 7.57393 52.4273 6.82739 51.4529 6.60271ZM36.3912 10.0616C30.2296 10.6651 23.569 12.7964 18.1826 18.1826C12.7963 23.5687 10.665 30.2293 10.0615 36.3908C9.87941 38.2502 9.83951 40.0401 9.88806 41.7007C13.0297 33.8722 16.7588 27.7724 21.834 22.7383C27.1148 17.5002 33.736 13.5333 42.3654 9.91236C40.5218 9.83133 38.5012 9.85487 36.3912 10.0616ZM12.6051 47.2628C22.6326 43.3753 29.6529 39.3677 34.997 34.0668C40.2785 28.828 44.0693 22.1793 47.3949 12.7372C37.3674 16.6247 30.3471 20.6323 25.003 25.9332C19.7215 31.172 15.9307 37.8207 12.6051 47.2628ZM17.6325 50.0885C19.477 50.1697 21.4988 50.1463 23.6102 49.9395C29.7718 49.336 36.4324 47.2047 41.8188 41.8185C47.205 36.4324 49.3364 29.7718 49.9399 23.6102C50.1221 21.7493 50.1619 19.9579 50.1132 18.2962C46.9713 26.1262 43.2419 32.2269 38.166 37.2617C32.8847 42.5002 26.2629 46.4673 17.6325 50.0885Z"
  />
</svg>
