<svg
  width="60"
  height="60"
  viewBox="0 0 60 60"
  fill="currentColor"
  xmlns="http://www.w3.org/2000/svg"
>
  <path
    d="M19.75 40C19.75 38.7574 20.7574 37.75 22 37.75H38C39.2426 37.75 40.25 38.7574 40.25 40C40.25 41.2426 39.2426 42.25 38 42.25H22C20.7574 42.25 19.75 41.2426 19.75 40Z"
  />
  <path
    fill-rule="evenodd"
    clip-rule="evenodd"
    d="M21.1406 4.75C21.1947 4.75 21.2491 4.75 21.3037 4.75H38.6963C38.7509 4.75 38.8053 4.75 38.8594 4.75H44.25V4.84769C44.4013 4.85748 44.5494 4.86824 44.6944 4.88009C46.3343 5.01408 47.7747 5.29716 49.1074 5.97618C51.2242 7.05475 52.9452 8.77578 54.0238 10.8926C54.7028 12.2253 54.9859 13.6657 55.1199 15.3056C55.25 16.8983 55.25 18.8651 55.25 21.3036V38.6964C55.25 41.1348 55.25 43.1017 55.1199 44.6944C54.9859 46.3343 54.7028 47.7747 54.0238 49.1074C52.9452 51.2242 51.2242 52.9452 49.1074 54.0238C47.7747 54.7028 46.3343 54.9859 44.6944 55.1199C43.1017 55.25 41.1349 55.25 38.6964 55.25H21.3036C18.8652 55.25 16.8983 55.25 15.3056 55.1199C13.6657 54.9859 12.2253 54.7028 10.8926 54.0238C8.77578 52.9452 7.05475 51.2242 5.97618 49.1074C5.29716 47.7747 5.01408 46.3343 4.88009 44.6944C4.74996 43.1017 4.74998 41.1348 4.75 38.6963V21.3037C4.74998 18.8652 4.74996 16.8983 4.88009 15.3056C5.01408 13.6657 5.29716 12.2253 5.97618 10.8926C7.05475 8.77578 8.77578 7.05475 10.8926 5.97618C12.2253 5.29716 13.6657 5.01408 15.3056 4.88009C15.4506 4.86824 15.5987 4.85748 15.75 4.84769V4.75H21.1406ZM15.75 9.35893C15.7239 9.36096 15.6979 9.36303 15.672 9.36515C14.3104 9.4764 13.5281 9.68379 12.9356 9.98571C11.6655 10.6329 10.6329 11.6655 9.98571 12.9356C9.68379 13.5281 9.4764 14.3104 9.36515 15.672C9.25175 17.0599 9.25 18.8426 9.25 21.4V38.6C9.25 41.1574 9.25175 42.9401 9.36515 44.328C9.4764 45.6896 9.68379 46.4719 9.98571 47.0644C10.6329 48.3345 11.6655 49.3671 12.9356 50.0143C13.5281 50.3162 14.3104 50.5236 15.672 50.6349C17.0599 50.7482 18.8426 50.75 21.4 50.75H38.6C41.1574 50.75 42.9401 50.7482 44.328 50.6349C45.6896 50.5236 46.4719 50.3162 47.0644 50.0143C48.3345 49.3671 49.3671 48.3345 50.0143 47.0644C50.3162 46.4719 50.5236 45.6896 50.6349 44.328C50.7482 42.9401 50.75 41.1574 50.75 38.6V21.4C50.75 18.8426 50.7482 17.0599 50.6349 15.672C50.5236 14.3104 50.3162 13.5281 50.0143 12.9356C49.3671 11.6655 48.3345 10.6329 47.0644 9.98571C46.4719 9.68379 45.6896 9.4764 44.328 9.36515C44.3021 9.36303 44.2761 9.36096 44.25 9.35893V13.4913C44.25 15.0937 44.2501 16.4313 44.1608 17.524C44.0677 18.6637 43.8663 19.7336 43.3508 20.7454C42.5599 22.2978 41.2978 23.5598 39.7454 24.3508C38.7336 24.8663 37.6637 25.0677 36.524 25.1608C35.4313 25.2501 34.0937 25.25 32.4913 25.25H27.5087C25.9063 25.25 24.5687 25.2501 23.476 25.1608C22.3363 25.0677 21.2664 24.8663 20.2546 24.3508C18.7022 23.5598 17.4402 22.2978 16.6492 20.7454C16.1337 19.7336 15.9323 18.6637 15.8392 17.524C15.7499 16.4313 15.75 15.0938 15.75 13.4913L15.75 9.35893ZM20.25 9.25056C20.6152 9.25004 20.998 9.25 21.4 9.25H38.6C39.002 9.25 39.3848 9.25004 39.75 9.25056V13.4C39.75 15.1173 39.7483 16.2699 39.6757 17.1576C39.6054 18.0189 39.4797 18.4308 39.3413 18.7025C38.9818 19.4081 38.4081 19.9818 37.7025 20.3413C37.4308 20.4797 37.0189 20.6054 36.1576 20.6757C35.2699 20.7483 34.1173 20.75 32.4 20.75H27.6C25.8827 20.75 24.7301 20.7483 23.8424 20.6757C22.9811 20.6054 22.5692 20.4797 22.2975 20.3413C21.5919 19.9818 21.0183 19.4081 20.6587 18.7025C20.5203 18.4308 20.3947 18.0189 20.3243 17.1576C20.2518 16.2699 20.25 15.1173 20.25 13.4V9.25056Z"
  />
</svg>
