<svg
  width="60"
  height="60"
  viewBox="0 0 60 60"
  fill="currentColor"
  xmlns="http://www.w3.org/2000/svg"
>
  <path
    fill-rule="evenodd"
    clip-rule="evenodd"
    d="M40.7475 5.96515C43.0736 5.6028 44.8713 7.73108 44.3737 9.88708L43.4729 13.7908L49.932 20.25H51.0001C53.3473 20.25 55.2501 22.1528 55.2501 24.5V34.1667C55.2501 35.8824 54.2184 37.4299 52.6347 38.0897L50.533 38.9655C49.4794 39.4044 48.6831 40.2993 48.3696 41.3968L45.9924 49.717C45.2258 52.4001 42.7734 54.25 39.9829 54.25H37.5004C34.1324 54.25 31.3866 51.5859 31.2553 48.25H24.7455C24.6143 51.5859 21.8685 54.25 18.5004 54.25H15.8484C13.1925 54.25 10.7904 52.5644 9.95246 49.9966C7.382 42.1196 5.85296 35.3029 4.30002 26.9943C2.66557 18.2496 9.45994 10.25 18.3035 10.25H32.0461C33.1883 9.11369 34.3251 8.21763 35.6193 7.53322C37.1748 6.71067 38.8233 6.26491 40.7475 5.96515ZM39.5437 10.8047C38.8452 10.9972 38.2595 11.2275 37.723 11.5112C36.7621 12.0194 35.8247 12.7701 34.6456 14.0345L33.9784 14.75H18.3035C12.2238 14.75 7.61608 20.243 8.72341 26.1675C10.2572 34.3734 11.7438 40.9804 14.2304 48.6005C14.4503 49.2742 15.0945 49.75 15.8484 49.75H18.5004C19.4669 49.75 20.2504 48.9665 20.2504 48V47C20.2504 45.2051 21.7055 43.75 23.5004 43.75H31.5004C33.8476 43.75 35.7504 45.6528 35.7504 48C35.7504 48.9665 36.5339 49.75 37.5004 49.75H39.9829C40.7642 49.75 41.4509 49.232 41.6655 48.4808L44.0427 40.1605C44.7326 37.7462 46.4844 35.7774 48.8022 34.8116L50.7501 34V24.75H49.8285C48.7013 24.75 47.6203 24.3022 46.8233 23.5052L39.801 16.4829C39.0086 15.6905 38.6803 14.5459 38.9323 13.454L39.5437 10.8047Z"
  />
  <path
    fill-rule="evenodd"
    clip-rule="evenodd"
    d="M18.7501 20C18.7501 18.7574 19.7574 17.75 21.0001 17.75L31.0001 17.75C32.2427 17.75 33.2501 18.7574 33.2501 20C33.2501 21.2426 32.2427 22.25 31.0001 22.25H21.0001C19.7574 22.25 18.7501 21.2426 18.7501 20Z"
  />
  <path
    d="M43.0001 26C43.0001 27.6569 41.6569 29 40.0001 29C38.3432 29 37.0001 27.6569 37.0001 26C37.0001 24.3432 38.3432 23 40.0001 23C41.6569 23 43.0001 24.3432 43.0001 26Z"
  />
</svg>
