<svg
  width="60"
  height="60"
  viewBox="0 0 60 60"
  fill="currentColor"
  xmlns="http://www.w3.org/2000/svg"
>
  <path
    fill-rule="evenodd"
    clip-rule="evenodd"
    d="M13 28.25C9.82436 28.25 7.25 30.8244 7.25 34C7.25 37.1756 9.82436 39.75 13 39.75C16.1756 39.75 18.75 37.1756 18.75 34C18.75 30.8244 16.1756 28.25 13 28.25ZM2.75 34C2.75 28.3391 7.33908 23.75 13 23.75C18.6609 23.75 23.25 28.3391 23.25 34C23.25 39.6609 18.6609 44.25 13 44.25C7.33908 44.25 2.75 39.6609 2.75 34Z"
  />
  <path
    fill-rule="evenodd"
    clip-rule="evenodd"
    d="M28 7.25C24.8244 7.25 22.25 9.82436 22.25 13C22.25 16.1756 24.8244 18.75 28 18.75C31.1756 18.75 33.75 16.1756 33.75 13C33.75 9.82436 31.1756 7.25 28 7.25ZM17.75 13C17.75 7.33908 22.3391 2.75 28 2.75C33.6609 2.75 38.25 7.33908 38.25 13C38.25 18.6609 33.6609 23.25 28 23.25C22.3391 23.25 17.75 18.6609 17.75 13Z"
  />
  <path
    fill-rule="evenodd"
    clip-rule="evenodd"
    d="M44 39.25C40.8244 39.25 38.25 41.8244 38.25 45C38.25 48.1756 40.8244 50.75 44 50.75C47.1756 50.75 49.75 48.1756 49.75 45C49.75 41.8244 47.1756 39.25 44 39.25ZM33.75 45C33.75 39.3391 38.3391 34.75 44 34.75C49.6609 34.75 54.25 39.3391 54.25 45C54.25 50.6609 49.6609 55.25 44 55.25C38.3391 55.25 33.75 50.6609 33.75 45Z"
  />
</svg>
