<svg
  width="60"
  height="60"
  viewBox="0 0 60 60"
  fill="currentColor"
  xmlns="http://www.w3.org/2000/svg"
>
  <path
    fill-rule="evenodd"
    clip-rule="evenodd"
    d="M36 42.25C34.4812 42.25 33.25 43.4812 33.25 45C33.25 46.5188 34.4812 47.75 36 47.75C37.5188 47.75 38.75 46.5188 38.75 45C38.75 43.4812 37.5188 42.25 36 42.25ZM28.75 45C28.75 40.9959 31.9959 37.75 36 37.75C40.0041 37.75 43.25 40.9959 43.25 45C43.25 49.0041 40.0041 52.25 36 52.25C31.9959 52.25 28.75 49.0041 28.75 45Z"
  />
  <path
    fill-rule="evenodd"
    clip-rule="evenodd"
    d="M41 12.25C36.7198 12.25 33.25 15.7198 33.25 20C33.25 24.2802 36.7198 27.75 41 27.75C45.2802 27.75 48.75 24.2802 48.75 20C48.75 15.7198 45.2802 12.25 41 12.25ZM28.75 20C28.75 13.2345 34.2345 7.75 41 7.75C47.7655 7.75 53.25 13.2345 53.25 20C53.25 26.7655 47.7655 32.25 41 32.25C34.2345 32.25 28.75 26.7655 28.75 20Z"
  />
  <path
    fill-rule="evenodd"
    clip-rule="evenodd"
    d="M17 30.25C14.3766 30.25 12.25 32.3766 12.25 35C12.25 37.6234 14.3766 39.75 17 39.75C19.6234 39.75 21.75 37.6234 21.75 35C21.75 32.3766 19.6234 30.25 17 30.25ZM7.75 35C7.75 29.8914 11.8914 25.75 17 25.75C22.1086 25.75 26.25 29.8914 26.25 35C26.25 40.1086 22.1086 44.25 17 44.25C11.8914 44.25 7.75 40.1086 7.75 35Z"
  />
</svg>
