<svg
  width="60"
  height="60"
  viewBox="0 0 60 60"
  fill="currentColor"
  xmlns="http://www.w3.org/2000/svg"
>
  <path
    fill-rule="evenodd"
    clip-rule="evenodd"
    d="M24 9C24 6.79086 22.2091 5 20 5H8C5.79086 5 4 6.79086 4 9V15C4 17.2091 5.79086 19 8 19H12V23H8C5.79086 23 4 24.7909 4 27V33C4 35.2091 5.79086 37 8 37H12V41H8C5.79086 41 4 42.7909 4 45V51C4 53.2091 5.79086 55 8 55H20C22.2091 55 24 53.2091 24 51V45C24 42.7909 22.2091 41 20 41H16.5V37H20C22.2091 37 24 35.2091 24 33V32H36V33C36 35.2091 37.7909 37 40 37H52C54.2091 37 56 35.2091 56 33V27C56 24.7909 54.2091 23 52 23H40C37.7909 23 36 24.7909 36 27V27.5H24V27C24 24.7909 22.2091 23 20 23H16.5V19H20C22.2091 19 24 17.2091 24 15V9ZM19.5 9.5H8.5V14.5H19.5V9.5ZM19.5 27.5H8.5V32.5H19.5V27.5ZM8.5 45.5H19.5V50.5H8.5V45.5ZM51.5 27.5H40.5V32.5H51.5V27.5Z"
  />
</svg>
