<svg
  width="60"
  height="60"
  viewBox="0 0 60 60"
  fill="currentColor"
  xmlns="http://www.w3.org/2000/svg"
>
  <path
    fill-rule="evenodd"
    clip-rule="evenodd"
    d="M30 7.25C17.4355 7.25 7.25 17.4355 7.25 30C7.25 42.5645 17.4355 52.75 30 52.75C42.5645 52.75 52.75 42.5645 52.75 30C52.75 17.4355 42.5645 7.25 30 7.25ZM2.75 30C2.75 14.9502 14.9502 2.75 30 2.75C45.0498 2.75 57.25 14.9502 57.25 30C57.25 45.0498 45.0498 57.25 30 57.25C14.9502 57.25 2.75 45.0498 2.75 30Z"
  />
  <path
    fill-rule="evenodd"
    clip-rule="evenodd"
    d="M30.0002 15.25C31.2428 15.25 32.2502 16.2573 32.2502 17.5L32.2502 28.568L42.0911 38.409C42.9698 39.2876 42.9698 40.7123 42.0911 41.5909C41.2125 42.4696 39.7878 42.4696 38.9092 41.5909L27.7502 30.4319L27.7502 17.5C27.7502 16.2573 28.7575 15.25 30.0002 15.25Z"
  />
</svg>
