<svg
  width="60"
  height="60"
  viewBox="0 0 60 60"
  fill="currentColor"
  xmlns="http://www.w3.org/2000/svg"
>
  <path
    fill-rule="evenodd"
    clip-rule="evenodd"
    d="M11.5913 7.44026C10.7127 6.56158 9.28803 6.56158 8.40935 7.44026C7.53067 8.31894 7.53067 9.74356 8.40935 10.6222L27.0762 29.2891L23.2445 33.1207C21.2155 31.6304 18.7106 30.75 16 30.75C9.23451 30.75 3.75 36.2345 3.75 43C3.75 49.7655 9.23451 55.25 16 55.25C22.7655 55.25 28.25 49.7655 28.25 43C28.25 40.5717 27.5434 38.3084 26.3247 36.4045L30.2582 32.471L33.4093 35.6222C33.569 35.7819 33.7467 35.9125 33.9358 36.0142C32.5578 37.9957 31.75 40.4035 31.75 43C31.75 49.7655 37.2345 55.25 44 55.25C50.7655 55.25 56.25 49.7655 56.25 43C56.25 36.2345 50.7655 30.75 44 30.75C41.3884 30.75 38.9677 31.5673 36.9796 32.96C36.8785 32.7733 36.7491 32.598 36.5913 32.4403L33.4401 29.2891L52.1066 10.6226C52.9853 9.7439 52.9853 8.31928 52.1066 7.4406C51.2279 6.56192 49.8033 6.56192 48.9246 7.4406L30.2582 26.1071L11.5913 7.44026ZM8.25 43C8.25 38.7198 11.7198 35.25 16 35.25C20.2802 35.25 23.75 38.7198 23.75 43C23.75 47.2802 20.2802 50.75 16 50.75C11.7198 50.75 8.25 47.2802 8.25 43ZM36.25 43C36.25 38.7198 39.7198 35.25 44 35.25C48.2802 35.25 51.75 38.7198 51.75 43C51.75 47.2802 48.2802 50.75 44 50.75C39.7198 50.75 36.25 47.2802 36.25 43Z"
  />
</svg>
