<svg
  width="60"
  height="60"
  viewBox="0 0 60 60"
  fill="currentColor"
  xmlns="http://www.w3.org/2000/svg"
>
  <path
    fill-rule="evenodd"
    clip-rule="evenodd"
    d="M11.5908 6.44026C10.7122 5.56158 9.28754 5.56158 8.40886 6.44026C7.53018 7.31894 7.53018 8.74356 8.40886 9.62224L27.0762 28.2896L23.2449 32.121C21.2158 30.6305 18.7107 29.75 16 29.75C9.23451 29.75 3.75 35.2345 3.75 42C3.75 48.7655 9.23451 54.25 16 54.25C22.7655 54.25 28.25 48.7655 28.25 42C28.25 39.5719 27.5435 37.3087 26.3249 35.4049L30.2582 31.4716L33.4089 34.6222C33.5686 34.782 33.7464 34.9127 33.9357 35.0144C32.5578 36.9959 31.75 39.4036 31.75 42C31.75 48.7655 37.2345 54.25 44 54.25C50.7655 54.25 56.25 48.7655 56.25 42C56.25 35.2345 50.7655 29.75 44 29.75C41.3882 29.75 38.9674 30.5673 36.9793 31.9602C36.8781 31.7735 36.7487 31.5981 36.5908 31.4403L33.4402 28.2896L52.1076 9.62224C52.9863 8.74356 52.9863 7.31894 52.1076 6.44026C51.2289 5.56158 49.8043 5.56158 48.9256 6.44026L30.2582 25.1076L11.5908 6.44026ZM8.25 42C8.25 37.7198 11.7198 34.25 16 34.25C20.2802 34.25 23.75 37.7198 23.75 42C23.75 46.2802 20.2802 49.75 16 49.75C11.7198 49.75 8.25 46.2802 8.25 42ZM36.25 42C36.25 37.7198 39.7198 34.25 44 34.25C48.2802 34.25 51.75 37.7198 51.75 42C51.75 46.2802 48.2802 49.75 44 49.75C39.7198 49.75 36.25 46.2802 36.25 42Z"
  />
</svg>
