<svg
  width="60"
  height="60"
  viewBox="0 0 60 60"
  fill="currentColor"
  xmlns="http://www.w3.org/2000/svg"
>
  <path
    fill-rule="evenodd"
    clip-rule="evenodd"
    d="M57.25 24.4V24.3037C57.25 21.8652 57.25 19.8983 57.1199 18.3056C56.9859 16.6657 56.7029 15.2253 56.0238 13.8926C54.9453 11.7758 53.2242 10.0548 51.1074 8.97618C49.7747 8.29716 48.3343 8.01408 46.6944 7.88009C45.1017 7.74996 43.1349 7.74998 40.6964 7.75H40.6H19.4H19.3037C16.8652 7.74998 14.8983 7.74996 13.3056 7.88009C11.6657 8.01408 10.2253 8.29716 8.89261 8.97618C6.77578 10.0548 5.05475 11.7758 3.97618 13.8926C3.29715 15.2253 3.01408 16.6657 2.88009 18.3056C2.74996 19.8983 2.74998 21.8651 2.75 24.3036V24.4V35.6V35.6964C2.74998 38.1349 2.74996 40.1017 2.88009 41.6944C3.01408 43.3343 3.29715 44.7747 3.97618 46.1074C5.05475 48.2242 6.77578 49.9453 8.8926 51.0238C10.2253 51.7029 11.6657 51.9859 13.3056 52.1199C14.8983 52.25 16.8651 52.25 19.3036 52.25H19.4H40.6H40.6964C43.1348 52.25 45.1017 52.25 46.6944 52.1199C48.3343 51.9859 49.7747 51.7029 51.1074 51.0238C53.2242 49.9453 54.9453 48.2242 56.0238 46.1074C56.7029 44.7747 56.9859 43.3343 57.1199 41.6944C57.25 40.1017 57.25 38.1348 57.25 35.6963V35.6V24.4ZM52.0143 15.9356C52.3162 16.5281 52.5236 17.3104 52.6349 18.672C52.7483 20.0599 52.75 21.8426 52.75 24.4V35.6C52.75 38.1574 52.7483 39.9401 52.6349 41.328C52.5236 42.6896 52.3162 43.4719 52.0143 44.0644C51.3672 45.3345 50.3345 46.3672 49.0644 47.0143C48.4719 47.3162 47.6896 47.5236 46.328 47.6349C44.9401 47.7483 43.1574 47.75 40.6 47.75H19.4C16.8426 47.75 15.0599 47.7483 13.672 47.6349C12.3104 47.5236 11.5281 47.3162 10.9356 47.0143C9.66547 46.3672 8.63285 45.3345 7.98571 44.0644C7.68379 43.4719 7.47639 42.6896 7.36515 41.328C7.25175 39.9401 7.25 38.1574 7.25 35.6L7.25 24.4C7.25 21.8426 7.25175 20.0599 7.36515 18.672C7.4764 17.3104 7.68379 16.5281 7.98571 15.9356C8.63285 14.6655 9.66547 13.6329 10.9356 12.9857C11.5281 12.6838 12.3104 12.4764 13.672 12.3651C15.0599 12.2518 16.8426 12.25 19.4 12.25L40.6 12.25C43.1574 12.25 44.9401 12.2518 46.328 12.3651C47.6896 12.4764 48.4719 12.6838 49.0644 12.9857C50.3345 13.6329 51.3672 14.6655 52.0143 15.9356ZM21 16.75C19.7574 16.75 18.75 17.7574 18.75 19C18.75 20.2426 19.7574 21.25 21 21.25H39C40.2426 21.25 41.25 20.2426 41.25 19C41.25 17.7574 40.2426 16.75 39 16.75H21Z"
  />
</svg>
