<svg
  width="60"
  height="60"
  viewBox="0 0 60 60"
  fill="currentColor"
  xmlns="http://www.w3.org/2000/svg"
>
  <path
    d="M10.4 17.75C12.1173 17.75 13.2699 17.7482 14.1576 17.6757C15.0189 17.6053 15.4308 17.4797 15.7025 17.3413C16.4081 16.9817 16.9818 16.4081 17.3413 15.7025C17.4797 15.4308 17.6054 15.0189 17.6757 14.1576C17.7483 13.2699 17.75 12.1173 17.75 10.4V7C17.75 5.75736 18.7574 4.75 20 4.75C21.2426 4.75 22.25 5.75736 22.25 7V10.4913C22.25 12.0938 22.2501 13.4313 22.1608 14.524C22.0677 15.6637 21.8663 16.7336 21.3508 17.7454C20.5598 19.2978 19.2978 20.5598 17.7454 21.3508C16.7336 21.8663 15.6637 22.0677 14.524 22.1608C13.4313 22.2501 12.0938 22.25 10.4913 22.25L7 22.25C5.75736 22.25 4.75 21.2426 4.75 20C4.75 18.7574 5.75736 17.75 7 17.75L10.4 17.75Z"
  />
  <path
    d="M17.75 53C17.75 54.2426 18.7574 55.25 20 55.25C21.2426 55.25 22.25 54.2426 22.25 53L22.25 49.5087C22.25 47.9063 22.2501 46.5687 22.1608 45.476C22.0677 44.3363 21.8663 43.2664 21.3508 42.2546C20.5598 40.7022 19.2978 39.4402 17.7454 38.6492C16.7336 38.1337 15.6637 37.9323 14.524 37.8392C13.4313 37.7499 12.0938 37.75 10.4913 37.75L7 37.75C5.75736 37.75 4.75 38.7574 4.75 40C4.75 41.2426 5.75736 42.25 7 42.25H10.4C12.1173 42.25 13.2699 42.2518 14.1576 42.3243C15.0189 42.3946 15.4308 42.5203 15.7025 42.6587C16.4081 43.0182 16.9817 43.5919 17.3413 44.2975C17.4797 44.5692 17.6053 44.9811 17.6757 45.8424C17.7482 46.7301 17.75 47.8827 17.75 49.6V53Z"
  />
  <path
    d="M42.3243 14.1576C42.2518 13.2699 42.25 12.1173 42.25 10.4V7C42.25 5.75736 41.2426 4.75 40 4.75C38.7574 4.75 37.75 5.75736 37.75 7L37.75 10.4913C37.75 12.0937 37.7499 13.4313 37.8392 14.524C37.9323 15.6637 38.1337 16.7336 38.6492 17.7454C39.4402 19.2978 40.7022 20.5598 42.2546 21.3508C43.2664 21.8663 44.3363 22.0677 45.476 22.1608C46.5687 22.2501 47.9062 22.25 49.5087 22.25L53 22.25C54.2426 22.25 55.25 21.2426 55.25 20C55.25 18.7574 54.2426 17.75 53 17.75H49.6C47.8827 17.75 46.7301 17.7483 45.8424 17.6757C44.9811 17.6054 44.5692 17.4797 44.2975 17.3413C43.5919 16.9817 43.0183 16.4081 42.6587 15.7025C42.5203 15.4308 42.3947 15.0189 42.3243 14.1576Z"
  />
  <path
    d="M42.25 53C42.25 54.2426 41.2426 55.25 40 55.25C38.7574 55.25 37.75 54.2426 37.75 53V49.5087C37.75 47.9062 37.7499 46.5687 37.8392 45.476C37.9323 44.3363 38.1337 43.2664 38.6492 42.2546C39.4402 40.7022 40.7022 39.4402 42.2546 38.6492C43.2664 38.1337 44.3363 37.9323 45.476 37.8392C46.5687 37.7499 47.9062 37.75 49.5086 37.75L53 37.75C54.2426 37.75 55.25 38.7574 55.25 40C55.25 41.2426 54.2426 42.25 53 42.25H49.6C47.8827 42.25 46.7301 42.2518 45.8424 42.3243C44.9811 42.3946 44.5692 42.5203 44.2975 42.6587C43.5919 43.0183 43.0183 43.5919 42.6587 44.2975C42.5203 44.5692 42.3947 44.9811 42.3243 45.8424C42.2518 46.7301 42.25 47.8827 42.25 49.6V53Z"
  />
</svg>
