<svg
  width="60"
  height="60"
  viewBox="0 0 60 60"
  fill="currentColor"
  xmlns="http://www.w3.org/2000/svg"
>
  <path
    fill-rule="evenodd"
    clip-rule="evenodd"
    d="M18.5087 6.75H41.4913C43.0938 6.74997 44.4313 6.74994 45.524 6.83922C46.6637 6.93233 47.7336 7.13367 48.7454 7.6492C50.2978 8.44015 51.5599 9.70224 52.3508 11.2546C52.8663 12.2664 53.0677 13.3363 53.1608 14.476C53.2501 15.5687 53.25 16.9062 53.25 18.5086V41.4914C53.25 43.0938 53.2501 44.4313 53.1608 45.524C53.0677 46.6637 52.8663 47.7336 52.3508 48.7454C51.5599 50.2978 50.2978 51.5599 48.7454 52.3508C47.7336 52.8663 46.6637 53.0677 45.524 53.1608C44.4313 53.2501 43.0938 53.25 41.4914 53.25H18.5086C16.9062 53.25 15.5687 53.2501 14.476 53.1608C13.3363 53.0677 12.2664 52.8663 11.2546 52.3508C9.70224 51.5599 8.44015 50.2978 7.6492 48.7454C7.13367 47.7336 6.93233 46.6637 6.83922 45.524C6.74994 44.4313 6.74997 43.0938 6.75 41.4913V18.5087C6.74997 16.9062 6.74994 15.5687 6.83922 14.476C6.93233 13.3363 7.13367 12.2664 7.6492 11.2546C8.44015 9.70224 9.70224 8.44015 11.2546 7.6492C12.2664 7.13367 13.3363 6.93233 14.476 6.83922C15.5687 6.74994 16.9062 6.74997 18.5087 6.75ZM14.8424 11.3243C13.9811 11.3947 13.5692 11.5203 13.2975 11.6587C12.5919 12.0183 12.0183 12.5919 11.6587 13.2975C11.5203 13.5692 11.3947 13.9811 11.3243 14.8424C11.2518 15.7301 11.25 16.8827 11.25 18.6V41.4C11.25 43.1173 11.2518 44.2699 11.3243 45.1576C11.3947 46.0189 11.5203 46.4308 11.6587 46.7025C12.0183 47.4081 12.5919 47.9818 13.2975 48.3413C13.5692 48.4797 13.9811 48.6054 14.8424 48.6757C15.7301 48.7483 16.8827 48.75 18.6 48.75H41.4C43.1173 48.75 44.2699 48.7483 45.1576 48.6757C46.0189 48.6054 46.4308 48.4797 46.7025 48.3413C47.4081 47.9818 47.9818 47.4081 48.3413 46.7025C48.4797 46.4308 48.6054 46.0189 48.6757 45.1576C48.7483 44.2699 48.75 43.1173 48.75 41.4V18.6C48.75 16.8827 48.7483 15.7301 48.6757 14.8424C48.6054 13.9811 48.4797 13.5692 48.3413 13.2975C47.9818 12.5919 47.4081 12.0183 46.7025 11.6587C46.4308 11.5203 46.0189 11.3947 45.1576 11.3243C44.2699 11.2518 43.1173 11.25 41.4 11.25H18.6C16.8827 11.25 15.7301 11.2518 14.8424 11.3243Z"
  />
</svg>
