<svg
  width="60"
  height="60"
  viewBox="0 0 60 60"
  fill="currentColor"
  xmlns="http://www.w3.org/2000/svg"
>
  <path
    d="M20.409 14.409C21.2876 13.5303 22.7123 13.5303 23.5909 14.409C24.4696 15.2877 24.4696 16.7123 23.5909 17.591L11.1819 30L23.5909 42.409C24.4696 43.2877 24.4696 44.7123 23.5909 45.591C22.7123 46.4697 21.2876 46.4697 20.409 45.591L7.82317 33.0052C6.16344 31.3455 6.16344 28.6545 7.82316 26.9948L20.409 14.409Z"
  />
  <path
    d="M39.5909 14.409C38.7122 13.5303 37.2876 13.5303 36.409 14.409C35.5303 15.2877 35.5303 16.7123 36.409 17.591L48.818 30L36.409 42.409C35.5303 43.2877 35.5303 44.7123 36.409 45.591C37.2876 46.4697 38.7122 46.4697 39.5909 45.591L52.1767 33.0052C53.8364 31.3455 53.8364 28.6545 52.1767 26.9948L39.5909 14.409Z"
  />
</svg>
