<svg
  width="60"
  height="60"
  viewBox="0 0 60 60"
  fill="currentColor"
  xmlns="http://www.w3.org/2000/svg"
>
  <path
    fill-rule="evenodd"
    clip-rule="evenodd"
    d="M15.5087 12.75H44.4913C46.0938 12.75 47.4313 12.7499 48.524 12.8392C49.6637 12.9323 50.7336 13.1337 51.7454 13.6492C53.2978 14.4402 54.5599 15.7022 55.3508 17.2546C55.8663 18.2664 56.0677 19.3363 56.1608 20.476C56.2501 21.5687 56.25 22.9062 56.25 24.5086V35.4914C56.25 37.0938 56.2501 38.4313 56.1608 39.524C56.0677 40.6637 55.8663 41.7336 55.3508 42.7454C54.5599 44.2978 53.2978 45.5599 51.7454 46.3508C50.7336 46.8663 49.6637 47.0677 48.524 47.1608C47.4313 47.2501 46.0938 47.25 44.4914 47.25H15.5086C13.9062 47.25 12.5687 47.2501 11.476 47.1608C10.3363 47.0677 9.26637 46.8663 8.25458 46.3508C6.70224 45.5599 5.44015 44.2978 4.6492 42.7454C4.13367 41.7336 3.93233 40.6637 3.83922 39.524C3.74994 38.4313 3.74997 37.0938 3.75 35.4913V24.5087C3.74997 22.9062 3.74994 21.5687 3.83922 20.476C3.93233 19.3363 4.13367 18.2664 4.6492 17.2546C5.44015 15.7022 6.70224 14.4402 8.25458 13.6492C9.26637 13.1337 10.3363 12.9323 11.476 12.8392C12.5687 12.7499 13.9062 12.75 15.5087 12.75ZM11.8424 17.3243C10.9811 17.3947 10.5692 17.5203 10.2975 17.6587C9.59193 18.0183 9.01825 18.5919 8.65873 19.2975C8.5203 19.5692 8.39465 19.9811 8.32428 20.8424C8.25175 21.7301 8.25 22.8827 8.25 24.6V35.4C8.25 37.1173 8.25175 38.2699 8.32428 39.1576C8.39465 40.0189 8.5203 40.4308 8.65873 40.7025C9.01825 41.4081 9.59193 41.9818 10.2975 42.3413C10.5692 42.4797 10.9811 42.6054 11.8424 42.6757C12.7301 42.7483 13.8827 42.75 15.6 42.75H44.4C46.1173 42.75 47.2699 42.7483 48.1576 42.6757C49.0189 42.6054 49.4308 42.4797 49.7025 42.3413C50.4081 41.9818 50.9818 41.4081 51.3413 40.7025C51.4797 40.4308 51.6054 40.0189 51.6757 39.1576C51.7483 38.2699 51.75 37.1173 51.75 35.4V24.6C51.75 22.8827 51.7483 21.7301 51.6757 20.8424C51.6054 19.9811 51.4797 19.5692 51.3413 19.2975C50.9818 18.5919 50.4081 18.0183 49.7025 17.6587C49.4308 17.5203 49.0189 17.3947 48.1576 17.3243C47.2699 17.2518 46.1173 17.25 44.4 17.25H15.6C13.8827 17.25 12.7301 17.2518 11.8424 17.3243Z"
  />
</svg>
