<svg
  width="60"
  height="60"
  viewBox="0 0 60 60"
  fill="currentColor"
  xmlns="http://www.w3.org/2000/svg"
>
  <path
    fill-rule="evenodd"
    clip-rule="evenodd"
    d="M16.5087 10.75H43.4913C45.0938 10.75 46.4313 10.7499 47.524 10.8392C48.6637 10.9323 49.7336 11.1337 50.7454 11.6492C52.2978 12.4402 53.5599 13.7022 54.3508 15.2546C54.8663 16.2664 55.0677 17.3363 55.1608 18.476C55.2501 19.5687 55.25 20.9062 55.25 22.5086V37.4914C55.25 39.0938 55.2501 40.4313 55.1608 41.524C55.0677 42.6637 54.8663 43.7336 54.3508 44.7454C53.5599 46.2978 52.2978 47.5599 50.7454 48.3508C49.7336 48.8663 48.6637 49.0677 47.524 49.1608C46.4313 49.2501 45.0938 49.25 43.4914 49.25H16.5086C14.9062 49.25 13.5687 49.2501 12.476 49.1608C11.3363 49.0677 10.2664 48.8663 9.25458 48.3508C7.70224 47.5599 6.44015 46.2978 5.6492 44.7454C5.13367 43.7336 4.93233 42.6637 4.83922 41.524C4.74994 40.4313 4.74997 39.0938 4.75 37.4913V22.5087C4.74997 20.9062 4.74994 19.5687 4.83922 18.476C4.93233 17.3363 5.13367 16.2664 5.6492 15.2546C6.44015 13.7022 7.70224 12.4402 9.25458 11.6492C10.2664 11.1337 11.3363 10.9323 12.476 10.8392C13.5687 10.7499 14.9062 10.75 16.5087 10.75ZM12.8424 15.3243C11.9811 15.3947 11.5692 15.5203 11.2975 15.6587C10.5919 16.0183 10.0183 16.5919 9.65873 17.2975C9.5203 17.5692 9.39465 17.9811 9.32428 18.8424C9.25175 19.7301 9.25 20.8827 9.25 22.6V37.4C9.25 39.1173 9.25175 40.2699 9.32428 41.1576C9.39465 42.0189 9.5203 42.4308 9.65873 42.7025C10.0183 43.4081 10.5919 43.9818 11.2975 44.3413C11.5692 44.4797 11.9811 44.6054 12.8424 44.6757C13.7301 44.7483 14.8827 44.75 16.6 44.75H43.4C45.1173 44.75 46.2699 44.7483 47.1576 44.6757C48.0189 44.6054 48.4308 44.4797 48.7025 44.3413C49.4081 43.9818 49.9818 43.4081 50.3413 42.7025C50.4797 42.4308 50.6054 42.0189 50.6757 41.1576C50.7483 40.2699 50.75 39.1173 50.75 37.4V22.6C50.75 20.8827 50.7483 19.7301 50.6757 18.8424C50.6054 17.9811 50.4797 17.5692 50.3413 17.2975C49.9818 16.5919 49.4081 16.0183 48.7025 15.6587C48.4308 15.5203 48.0189 15.3947 47.1576 15.3243C46.2699 15.2518 45.1173 15.25 43.4 15.25H16.6C14.8827 15.25 13.7301 15.2518 12.8424 15.3243Z"
  />
</svg>
