<svg
  width="60"
  height="60"
  viewBox="0 0 60 60"
  fill="currentColor"
  xmlns="http://www.w3.org/2000/svg"
>
  <path
    d="M11.4194 14.409C10.5407 13.5303 9.11606 13.5303 8.23738 14.409C7.3587 15.2877 7.3587 16.7123 8.23738 17.591L20.6464 30L8.23738 42.409C7.3587 43.2877 7.3587 44.7123 8.23738 45.591C9.11606 46.4697 10.5407 46.4697 11.4194 45.591L24.0051 33.0052C25.6649 31.3455 25.6649 28.6545 24.0051 26.9948L11.4194 14.409Z"
  />
  <path
    d="M48.5806 14.409C49.4593 13.5303 50.8839 13.5303 51.7626 14.409C52.6413 15.2877 52.6413 16.7123 51.7626 17.591L39.3536 30L51.7626 42.409C52.6413 43.2877 52.6413 44.7123 51.7626 45.591C50.8839 46.4697 49.4593 46.4697 48.5806 45.591L35.9949 33.0052C34.3351 31.3455 34.3351 28.6545 35.9949 26.9948L48.5806 14.409Z"
  />
</svg>
