<svg
  width="60"
  height="60"
  viewBox="0 0 60 60"
  fill="currentColor"
  xmlns="http://www.w3.org/2000/svg"
>
  <path
    d="M41.432 21.75H53C54.2427 21.75 55.25 22.7574 55.25 24C55.25 25.2426 54.2427 26.25 53 26.25L39.1313 26.25C38.6311 26.2501 38.13 26.2502 37.7032 26.2153C37.2305 26.1767 36.6545 26.0843 36.0706 25.7868C35.2709 25.3793 34.6207 24.7291 34.2132 23.9295C33.9157 23.3455 33.8234 22.7695 33.7847 22.2968C33.7499 21.8701 33.7499 21.3689 33.75 20.8687L33.75 7C33.75 5.75736 34.7574 4.75 36 4.75C37.2427 4.75 38.25 5.75736 38.25 7V18.568L51.409 5.40901C52.2877 4.53033 53.7123 4.53033 54.591 5.40901C55.4697 6.28769 55.4697 7.71231 54.591 8.59099L41.432 21.75Z"
  />
  <path
    d="M21.75 53C21.75 54.2427 22.7574 55.25 24 55.25C25.2426 55.25 26.25 54.2427 26.25 53L26.25 39.1313C26.2501 38.6311 26.2502 38.13 26.2153 37.7032C26.1767 37.2305 26.0843 36.6545 25.7868 36.0706C25.3793 35.2709 24.7291 34.6207 23.9295 34.2132C23.3455 33.9157 22.7695 33.8234 22.2968 33.7847C21.8701 33.7499 21.3689 33.7499 20.8687 33.75L7 33.75C5.75736 33.75 4.75 34.7574 4.75 36C4.75 37.2427 5.75736 38.25 7 38.25H18.568L5.40901 51.409C4.53033 52.2877 4.53033 53.7123 5.40901 54.591C6.28769 55.4697 7.71231 55.4697 8.59099 54.591L21.75 41.432V53Z"
  />
</svg>
