<svg
  width="60"
  height="60"
  viewBox="0 0 60 60"
  fill="currentColor"
  xmlns="http://www.w3.org/2000/svg"
>
  <path
    fill-rule="evenodd"
    clip-rule="evenodd"
    d="M36 9.25001H47.568L34.409 22.409C33.5303 23.2877 33.5303 24.7123 34.409 25.591C35.2877 26.4697 36.7123 26.4697 37.591 25.591L50.75 12.432V24C50.75 25.2427 51.7574 26.25 53 26.25C54.2426 26.25 55.25 25.2427 55.25 24V10.2L55.25 10.1313C55.2501 9.63114 55.2502 9.12993 55.2153 8.7032C55.1767 8.23055 55.0843 7.65452 54.7868 7.07055C54.3793 6.27086 53.7292 5.6207 52.9295 5.21324C52.3455 4.91569 51.7695 4.82335 51.2968 4.78473C50.87 4.74986 50.369 4.74993 49.8687 4.75001L49.8 4.75001H36C34.7574 4.75001 33.75 5.75737 33.75 7.00001C33.75 8.24265 34.7574 9.25001 36 9.25001ZM7.00001 33.75C8.24265 33.75 9.25001 34.7574 9.25001 36V47.568L22.409 34.409C23.2877 33.5303 24.7123 33.5303 25.591 34.409C26.4697 35.2877 26.4697 36.7123 25.591 37.591L12.432 50.75H24C25.2427 50.75 26.25 51.7574 26.25 53C26.25 54.2426 25.2427 55.25 24 55.25H10.2L10.1313 55.25C9.63114 55.2501 9.12993 55.2502 8.7032 55.2153C8.23055 55.1767 7.65452 55.0843 7.07055 54.7868C6.27086 54.3793 5.6207 53.7292 5.21324 52.9295C4.91569 52.3455 4.82335 51.7695 4.78473 51.2968C4.74986 50.87 4.74993 50.369 4.75001 49.8687L4.75001 49.8V36C4.75001 34.7574 5.75737 33.75 7.00001 33.75Z"
  />
</svg>
