<svg
  width="60"
  height="60"
  viewBox="0 0 60 60"
  fill="currentColor"
  xmlns="http://www.w3.org/2000/svg"
>
  <path
    fill-rule="evenodd"
    clip-rule="evenodd"
    d="M43.4 9.25C45.1173 9.25 46.2699 9.25175 47.1576 9.32428C48.0189 9.39465 48.4308 9.5203 48.7025 9.65873C49.4081 10.0183 49.9818 10.5919 50.3413 11.2975C50.4797 11.5692 50.6054 11.9811 50.6757 12.8424C50.7483 13.7301 50.75 14.8827 50.75 16.6V20C50.75 21.2426 51.7574 22.25 53 22.25C54.2426 22.25 55.25 21.2426 55.25 20V16.6V16.5086C55.25 14.9062 55.2501 13.5687 55.1608 12.476C55.0677 11.3363 54.8663 10.2664 54.3508 9.25458C53.5599 7.70224 52.2978 6.44016 50.7454 5.6492C49.7336 5.13367 48.6637 4.93233 47.524 4.83922C46.4313 4.74995 45.0938 4.74997 43.4914 4.75H43.4913L43.4 4.75H40C38.7574 4.75 37.75 5.75736 37.75 7C37.75 8.24264 38.7574 9.25 40 9.25H43.4ZM9.25 40C9.25 38.7574 8.24264 37.75 7 37.75C5.75736 37.75 4.75 38.7574 4.75 40V43.4L4.75 43.4913V43.4914C4.74997 45.0938 4.74995 46.4313 4.83922 47.524C4.93233 48.6637 5.13367 49.7336 5.6492 50.7454C6.44016 52.2978 7.70224 53.5599 9.25458 54.3508C10.2664 54.8663 11.3363 55.0677 12.476 55.1608C13.5687 55.2501 14.9062 55.25 16.5086 55.25H16.6H20C21.2426 55.25 22.25 54.2426 22.25 53C22.25 51.7574 21.2426 50.75 20 50.75H16.6C14.8827 50.75 13.7301 50.7483 12.8424 50.6757C11.9811 50.6054 11.5692 50.4797 11.2975 50.3413C10.5919 49.9818 10.0183 49.4081 9.65873 48.7025C9.5203 48.4308 9.39465 48.0189 9.32428 47.1576C9.25175 46.2699 9.25 45.1173 9.25 43.4V40ZM16.6 9.25C14.8827 9.25 13.7301 9.25175 12.8424 9.32428C11.9811 9.39465 11.5692 9.5203 11.2975 9.65873C10.5919 10.0183 10.0183 10.5919 9.65873 11.2975C9.5203 11.5692 9.39465 11.9811 9.32428 12.8424C9.25176 13.7301 9.25 14.8827 9.25 16.6V20C9.25 21.2426 8.24265 22.25 7.00001 22.25C5.75736 22.25 4.75 21.2426 4.75 20V16.6V16.5086C4.74997 14.9062 4.74994 13.5687 4.83922 12.476C4.93234 11.3363 5.13367 10.2664 5.6492 9.25458C6.44016 7.70224 7.70224 6.44016 9.25458 5.6492C10.2664 5.13367 11.3363 4.93233 12.476 4.83922C13.5687 4.74995 14.9062 4.74997 16.5086 4.75H16.5087L16.6 4.75H20C21.2426 4.75 22.25 5.75736 22.25 7C22.25 8.24264 21.2426 9.25 20 9.25H16.6ZM50.75 40C50.75 38.7574 51.7574 37.75 53 37.75C54.2426 37.75 55.25 38.7574 55.25 40V43.4V43.4913C55.25 45.0938 55.2501 46.4313 55.1608 47.524C55.0677 48.6637 54.8663 49.7336 54.3508 50.7454C53.5599 52.2978 52.2978 53.5599 50.7454 54.3508C49.7336 54.8663 48.6637 55.0677 47.524 55.1608C46.4313 55.2501 45.0938 55.25 43.4914 55.25H43.4H40C38.7574 55.25 37.75 54.2426 37.75 53C37.75 51.7574 38.7574 50.75 40 50.75H43.4C45.1173 50.75 46.2699 50.7483 47.1576 50.6757C48.0189 50.6054 48.4308 50.4797 48.7025 50.3413C49.4081 49.9818 49.9818 49.4081 50.3413 48.7025C50.4797 48.4308 50.6054 48.0189 50.6757 47.1576C50.7483 46.2699 50.75 45.1173 50.75 43.4V40Z"
  />
</svg>
