<svg
  width="60"
  height="60"
  viewBox="0 0 60 60"
  fill="currentColor"
  xmlns="http://www.w3.org/2000/svg"
>
  <path
    d="M18.25 28.5C18.25 22.8391 22.8391 18.25 28.5 18.25C29.7426 18.25 30.75 17.2426 30.75 16C30.75 14.7574 29.7426 13.75 28.5 13.75C20.3538 13.75 13.75 20.3538 13.75 28.5C13.75 29.7426 14.7574 30.75 16 30.75C17.2426 30.75 18.25 29.7426 18.25 28.5Z"
  />
  <path
    fill-rule="evenodd"
    clip-rule="evenodd"
    d="M28.5 3.25C14.5548 3.25 3.25 14.5548 3.25 28.5C3.25 42.4452 14.5548 53.75 28.5 53.75C34.6625 53.75 40.3093 51.5424 44.6929 47.8748L49.909 53.091C50.7877 53.9697 52.2123 53.9697 53.091 53.091C53.9697 52.2123 53.9697 50.7877 53.091 49.909L47.8748 44.6929C51.5424 40.3093 53.75 34.6625 53.75 28.5C53.75 14.5548 42.4452 3.25 28.5 3.25ZM7.75 28.5C7.75 17.0401 17.0401 7.75 28.5 7.75C39.9599 7.75 49.25 17.0401 49.25 28.5C49.25 39.9599 39.9599 49.25 28.5 49.25C17.0401 49.25 7.75 39.9599 7.75 28.5Z"
  />
</svg>
