<svg
  width="60"
  height="60"
  viewBox="0 0 60 60"
  fill="currentColor"
  xmlns="http://www.w3.org/2000/svg"
>
  <path
    fill-rule="evenodd"
    clip-rule="evenodd"
    d="M28.5 7.75C17.0401 7.75 7.75 17.0401 7.75 28.5C7.75 39.9599 17.0401 49.25 28.5 49.25C39.9599 49.25 49.25 39.9599 49.25 28.5C49.25 17.0401 39.9599 7.75 28.5 7.75ZM3.25 28.5C3.25 14.5548 14.5548 3.25 28.5 3.25C42.4452 3.25 53.75 14.5548 53.75 28.5C53.75 34.6625 51.5424 40.3093 47.8748 44.6929L53.091 49.909C53.9697 50.7877 53.9697 52.2123 53.091 53.091C52.2123 53.9697 50.7877 53.9697 49.909 53.091L44.6929 47.8748C40.3093 51.5424 34.6625 53.75 28.5 53.75C14.5548 53.75 3.25 42.4452 3.25 28.5Z"
  />
  <path
    fill-rule="evenodd"
    clip-rule="evenodd"
    d="M28.5 18.25C22.8391 18.25 18.25 22.8391 18.25 28.5C18.25 29.7426 17.2426 30.75 16 30.75C14.7574 30.75 13.75 29.7426 13.75 28.5C13.75 20.3538 20.3538 13.75 28.5 13.75C29.7426 13.75 30.75 14.7574 30.75 16C30.75 17.2426 29.7426 18.25 28.5 18.25Z"
  />
</svg>
