<svg
  width="60"
  height="60"
  viewBox="0 0 60 60"
  fill="currentColor"
  xmlns="http://www.w3.org/2000/svg"
>
  <path
    fill-rule="evenodd"
    clip-rule="evenodd"
    d="M29.25 8.5C17.7901 8.5 8.5 17.7901 8.5 29.25C8.5 40.7099 17.7901 50 29.25 50C40.7099 50 50 40.7099 50 29.25C50 17.7901 40.7099 8.5 29.25 8.5ZM4 29.25C4 15.3048 15.3048 4 29.25 4C43.1952 4 54.5 15.3048 54.5 29.25C54.5 35.4125 52.2924 41.0593 48.6248 45.4429L53.841 50.659C54.7197 51.5377 54.7197 52.9623 53.841 53.841C52.9623 54.7197 51.5377 54.7197 50.659 53.841L45.4429 48.6248C41.0593 52.2924 35.4125 54.5 29.25 54.5C15.3048 54.5 4 43.1952 4 29.25Z"
  />
</svg>
