<svg
  xmlns="http://www.w3.org/2000/svg"
  width="60"
  height="60"
  viewBox="0 0 60 60"
  fill="currentColor"
>
  <path
    d="M4.375 43.0254V41.3809C4.375 40.1382 5.38236 39.1309 6.625 39.1309C7.86764 39.1309 8.875 40.1382 8.875 41.3809V43.0254C8.875 44.7422 8.87673 45.8947 8.94922 46.7822C9.01959 47.6435 9.14577 48.0555 9.28418 48.3272L9.42872 48.5859C9.78901 49.1732 10.3055 49.6513 10.9229 49.9658C11.1945 50.1042 11.6065 50.2304 12.4678 50.3008C13.3553 50.3733 14.5078 50.375 16.2246 50.375H17.8691L18.0996 50.3867C19.2341 50.502 20.1191 51.4601 20.1191 52.625C20.1191 53.7899 19.2341 54.748 18.0996 54.8633L17.8691 54.875H16.2246C14.5818 54.875 13.2139 54.8771 12.1006 54.7861C10.9611 54.693 9.89152 54.491 8.87989 53.9756C7.42458 53.2341 6.22381 52.0788 5.42774 50.6582L5.27442 50.3701C4.759 49.3585 4.55699 48.2889 4.46387 47.1494C4.37291 46.0361 4.375 44.6683 4.375 43.0254ZM30.1582 50.375L30.3887 50.3867C31.5231 50.5021 32.4082 51.4601 32.4082 52.625C32.4082 53.7899 31.5231 54.7479 30.3887 54.8633L30.1582 54.875H25.0254C23.7828 54.875 22.7754 53.8676 22.7754 52.625C22.7754 51.3824 23.7828 50.375 25.0254 50.375H30.1582ZM4.375 34.2246V25.0254C4.375 23.7828 5.38236 22.7754 6.625 22.7754C7.86764 22.7754 8.875 23.7828 8.875 25.0254V34.2246C8.875 35.4673 7.86764 36.4746 6.625 36.4746C5.38236 36.4746 4.375 35.4673 4.375 34.2246ZM50.375 30.1582V25.0254C50.375 23.7828 51.3824 22.7754 52.625 22.7754C53.8676 22.7754 54.875 23.7828 54.875 25.0254V30.1582C54.875 31.4008 53.8676 32.4082 52.625 32.4082C51.3824 32.4082 50.375 31.4008 50.375 30.1582ZM4.375 17.8691V16.2246C4.375 14.5818 4.37291 13.2139 4.46387 12.1006C4.55699 10.9611 4.759 9.89152 5.27442 8.87989C6.06537 7.32755 7.32755 6.06537 8.87989 5.27442C9.89152 4.759 10.9611 4.55699 12.1006 4.46387C13.2139 4.37291 14.5818 4.375 16.2246 4.375H17.8691C19.1118 4.375 20.1191 5.38236 20.1191 6.625C20.1191 7.86764 19.1118 8.875 17.8691 8.875H16.2246C14.5078 8.875 13.3553 8.87673 12.4678 8.94922C11.6065 9.01959 11.1945 9.14577 10.9229 9.28418C10.2172 9.64371 9.64371 10.2172 9.28418 10.9229C9.14577 11.1945 9.01959 11.6065 8.94922 12.4678C8.87673 13.3553 8.875 14.5078 8.875 16.2246V17.8691C8.875 19.1118 7.86764 20.1191 6.625 20.1191C5.38236 20.1191 4.375 19.1118 4.375 17.8691ZM50.375 17.8691V16.2246C50.375 14.5078 50.3733 13.3553 50.3008 12.4678C50.2392 11.7138 50.1354 11.3039 50.0176 11.0313L49.9658 10.9229C49.6513 10.3055 49.1732 9.78901 48.5859 9.42872L48.3272 9.28418C48.0555 9.14577 47.6435 9.01959 46.7822 8.94922C45.8947 8.87673 44.7422 8.875 43.0254 8.875H41.3809C40.1382 8.875 39.1309 7.86764 39.1309 6.625C39.1309 5.38236 40.1382 4.375 41.3809 4.375H43.0254C44.6683 4.375 46.0361 4.37291 47.1494 4.46387C48.2889 4.55699 49.3585 4.759 50.3701 5.27442L50.6582 5.42774C52.0788 6.22381 53.2341 7.42458 53.9756 8.87989L54.1553 9.26172C54.5404 10.1598 54.7047 11.1036 54.7861 12.1006C54.8771 13.2139 54.875 14.5818 54.875 16.2246V17.8691C54.875 19.1118 53.8676 20.1191 52.625 20.1191C51.3824 20.1191 50.375 19.1118 50.375 17.8691ZM34.2246 4.375C35.4673 4.375 36.4746 5.38236 36.4746 6.625C36.4746 7.86764 35.4673 8.875 34.2246 8.875H25.0254C23.7828 8.875 22.7754 7.86764 22.7754 6.625C22.7754 5.38236 23.7828 4.375 25.0254 4.375H34.2246Z"
  />
  <path
    d="M51.125 44.625C51.125 41.0352 48.2149 38.125 44.625 38.125C41.0352 38.125 38.125 41.0352 38.125 44.625C38.125 48.2149 41.0352 51.125 44.625 51.125V55.625C38.5499 55.625 33.625 50.7001 33.625 44.625C33.625 38.5499 38.5499 33.625 44.625 33.625C50.7001 33.625 55.625 38.5499 55.625 44.625C55.625 50.7001 50.7001 55.625 44.625 55.625V51.125C48.2149 51.125 51.125 48.2149 51.125 44.625Z"
  />
  <path
    d="M48.625 44.625C48.625 46.8341 46.8341 48.625 44.625 48.625C42.4159 48.625 40.625 46.8341 40.625 44.625C40.625 42.4159 42.4159 40.625 44.625 40.625C46.8341 40.625 48.625 42.4159 48.625 44.625Z"
  />
</svg>
