<svg
  width="60"
  height="60"
  viewBox="0 0 60 60"
  fill="currentColor"
  xmlns="http://www.w3.org/2000/svg"
>
  <path
    d="M17.0001 21C19.2092 21 21.0001 19.2091 21.0001 17C21.0001 14.7909 19.2092 13 17.0001 13C14.791 13 13.0001 14.7909 13.0001 17C13.0001 19.2091 14.791 21 17.0001 21Z"
  />
  <path
    fill-rule="evenodd"
    clip-rule="evenodd"
    d="M26.8984 5.56084C25.5995 5.249 24.2465 5.24939 22.2918 5.24996L17.0088 5.25C15.4063 5.24997 14.0688 5.24995 12.9761 5.33922C11.8364 5.43234 10.7665 5.63367 9.75467 6.1492C8.20234 6.94016 6.94025 8.20225 6.14929 9.75458C5.63376 10.7664 5.43243 11.8363 5.33931 12.976C5.25004 14.0687 5.25006 15.4062 5.25009 17.0087L5.25005 22.2917C5.24948 24.2464 5.24909 25.5994 5.56094 26.8983C5.83652 28.0463 6.29107 29.1436 6.90789 30.1502C7.60587 31.2892 8.56288 32.2456 9.94544 33.6274L24.295 47.9769C26.0192 49.7012 27.4099 51.0919 28.6282 52.1261C29.8825 53.1909 31.1012 54.0093 32.5237 54.4715C34.7831 55.2056 37.217 55.2056 39.4765 54.4715C40.9021 54.0083 42.1275 53.1819 43.3904 52.1079C44.6192 51.063 46.0262 49.6559 47.7733 47.9088L47.9088 47.7732C49.656 46.0261 51.0631 44.6191 52.108 43.3903C53.182 42.1274 54.0084 40.902 54.4716 39.4764C55.2057 37.217 55.2057 34.7831 54.4716 32.5236C54.0094 31.1011 53.191 29.8824 52.1262 28.6281C51.0919 27.4098 49.7012 26.0191 47.9769 24.2948L33.6275 9.94536C32.2457 8.56279 31.2893 7.60578 30.1503 6.9078C29.1437 6.29098 28.0463 5.83643 26.8984 5.56084ZM22.0354 9.75C24.3438 9.75 25.1313 9.76447 25.8479 9.93651C26.5367 10.1019 27.1951 10.3746 27.799 10.7447C28.4274 11.1298 28.9945 11.6764 30.6268 13.3087L44.7268 27.4087C46.5351 29.217 47.7944 30.4788 48.6956 31.5404C49.5798 32.5818 49.9863 33.2817 50.1918 33.9141C50.6323 35.2698 50.6323 36.7302 50.1918 38.0859C49.9873 38.7153 49.5775 39.4197 48.68 40.4751C47.7668 41.5489 46.4898 42.8283 44.6591 44.659C42.8284 46.4897 41.549 47.7667 40.4752 48.6799C39.4198 49.5774 38.7154 49.9872 38.086 50.1917C36.7303 50.6322 35.2699 50.6322 33.9142 50.1917C33.2817 49.9862 32.5819 49.5797 31.5404 48.6955C30.4789 47.7943 29.2171 46.535 27.4088 44.7267L13.3088 30.6267C11.6765 28.9944 11.1298 28.4273 10.7448 27.7989C10.3747 27.195 10.102 26.5366 9.9366 25.8478C9.76456 25.1312 9.7501 24.3437 9.7501 22.0353V17.1C9.7501 15.3827 9.75185 14.2301 9.82437 13.3424C9.89475 12.4811 10.0204 12.0692 10.1588 11.7975C10.5183 11.0919 11.092 10.5183 11.7976 10.1587C12.0693 10.0203 12.4812 9.89465 13.3425 9.82428C14.2302 9.75175 15.3828 9.75 17.1001 9.75H22.0354Z"
  />
</svg>
