<svg
  width="60"
  height="60"
  viewBox="0 0 60 60"
  fill="currentColor"
  xmlns="http://www.w3.org/2000/svg"
>
  <path
    d="M12.1556 54.4814C14.5395 55.0708 18.8023 53.2491 27.3279 49.6056L35.1301 46.2712C47.0596 41.173 53.0244 38.6239 54.8317 35.0373C56.4007 31.9237 56.4007 28.2507 54.8317 25.1371C53.0244 21.5505 47.0596 19.0014 35.1301 13.9032L27.1441 10.4903C18.716 6.88842 14.5019 5.08751 12.1636 5.63243C9.09644 6.34718 6.82814 8.94047 6.52797 12.0755C6.29913 14.4655 8.6449 18.4024 13.3364 26.2761C13.7074 26.8987 13.983 27.3611 14.1869 27.75L29.9996 27.75C31.2423 27.75 32.2496 28.7574 32.2496 30C32.2496 31.2427 31.2423 32.25 29.9996 32.25L14.2141 32.25C14.0127 32.6442 13.7389 33.1135 13.3688 33.7479C8.68573 41.7747 6.34421 45.788 6.63361 48.2266C6.99329 51.2575 9.19267 53.7487 12.1556 54.4814Z"
  />
</svg>
