<svg
  width="60"
  height="60"
  viewBox="0 0 60 60"
  fill="currentColor"
  xmlns="http://www.w3.org/2000/svg"
>
  <path
    fill-rule="evenodd"
    clip-rule="evenodd"
    d="M55.2563 35.6574C57.0239 32.1496 57.0239 28.0115 55.2563 24.5037C54.0872 22.1835 51.7375 20.4933 48.7283 18.8773C45.6815 17.2412 41.4823 15.4466 36.0779 13.137L28.5108 9.90312C24.7013 8.27508 21.7289 7.0048 19.442 6.21143C17.252 5.45172 15.1722 4.92545 13.393 5.34007C9.62379 6.21843 6.83629 9.40531 6.46741 13.2579C6.29329 15.0765 7.09169 17.0677 8.13611 19.137C9.22684 21.2981 10.8815 24.0751 13.0021 27.6341L13.0522 27.7181C13.7831 28.9447 13.913 29.2001 13.9748 29.4244C14.0811 29.8102 14.083 30.2174 13.9802 30.6042C13.9205 30.8289 13.7925 31.0864 13.0715 32.3222L13.0209 32.409C10.9046 36.0362 9.25252 38.8679 8.17057 41.0721C7.13348 43.185 6.35037 45.2188 6.57025 47.0717C7.01227 50.7963 9.71507 53.8578 13.3562 54.7581C15.1669 55.2058 17.2791 54.6825 19.5007 53.9168C21.8176 53.1184 24.8254 51.833 28.6776 50.1867L36.0782 47.024C41.4824 44.7145 45.6816 42.9199 48.7283 41.2838C51.7375 39.6678 54.0872 37.9776 55.2563 35.6574ZM51.2377 26.5287C52.3635 28.7628 52.3635 31.3983 51.2377 33.6324C50.7403 34.6194 49.5068 35.758 46.5993 37.3193C43.7507 38.849 39.7374 40.5665 34.1963 42.9345L27.0021 46.009C23.0377 47.7033 20.1792 48.9233 18.0346 49.6624C15.7761 50.4407 14.8238 50.4855 14.4364 50.3897C12.6134 49.9389 11.2602 48.4062 11.0389 46.5414C10.9919 46.1457 11.1549 45.2048 12.2102 43.0549C13.212 41.014 14.7808 38.3222 16.9583 34.5899L17.0719 34.3956C17.5146 33.6387 17.913 32.9575 18.1735 32.25H37C38.2426 32.25 39.25 31.2426 39.25 30C39.25 28.7574 38.2426 27.75 37 27.75H18.1565C17.8897 27.0418 17.484 26.3624 17.033 25.6074L16.918 25.4147C14.7367 21.7539 13.1644 19.1124 12.1534 17.1094C11.0876 14.9977 10.91 14.072 10.9469 13.6868C11.1316 11.7579 12.5272 10.1624 14.4143 9.72265C14.7912 9.63481 15.7323 9.68761 17.9671 10.4629C20.0868 11.1982 22.9141 12.405 26.8326 14.0796L34.1963 17.2266C39.7374 19.5946 43.7507 21.3121 46.5993 22.8419C49.5068 24.4032 50.7403 25.5417 51.2377 26.5287Z"
  />
</svg>
