<svg
  width="60"
  height="60"
  viewBox="0 0 60 60"
  fill="currentColor"
  xmlns="http://www.w3.org/2000/svg"
>
  <path
    fill-rule="evenodd"
    clip-rule="evenodd"
    d="M55.2567 35.6573C57.0243 32.1495 57.0243 28.0114 55.2567 24.5036C54.0875 22.1834 51.7379 20.4932 48.7287 18.8772C45.6819 17.2411 41.4826 15.4465 36.0783 13.1369L28.5112 9.903C24.7017 8.27496 21.7293 7.00468 19.4423 6.2113C17.2524 5.45159 15.1726 4.92533 13.3934 5.33995C9.62416 6.21831 6.83665 9.40518 6.46778 13.2578C6.29365 15.0763 7.09205 17.0676 8.13648 19.1369C9.22721 21.298 10.8819 24.0749 13.0025 27.634L13.0526 27.718C13.7834 28.9446 13.9133 29.2 13.9751 29.4242C14.0815 29.8101 14.0834 30.2173 13.9806 30.6041C13.9209 30.8288 13.7929 31.0863 13.0719 32.3221L13.0212 32.4089C10.905 36.0361 9.25289 38.8677 8.17094 41.072C7.13385 43.1849 6.35073 45.2187 6.57062 47.0716C7.01264 50.7962 9.71544 53.8577 13.3566 54.758C15.1673 55.2057 17.2794 54.6823 19.5011 53.9167C21.818 53.1183 24.8258 51.8329 28.6779 50.1866L36.0786 47.0239C41.4828 44.7143 45.6819 42.9198 48.7287 41.2837C51.7379 39.6677 54.0875 37.9775 55.2567 35.6573ZM51.2381 26.5286C52.3638 28.7627 52.3638 31.3982 51.2381 33.6323C50.7407 34.6193 49.5071 35.7578 46.5997 37.3191C43.7511 38.8489 39.7377 40.5664 34.1967 42.9344L27.0025 46.0089C23.0381 47.7032 20.1796 48.9232 18.035 49.6623C15.7764 50.4406 14.8242 50.4853 14.4367 50.3895C12.6137 49.9388 11.2606 48.406 11.0393 46.5412C10.9923 46.1455 11.1553 45.2047 12.2105 43.0548C13.2123 41.0139 14.7811 38.3221 16.9587 34.5898L17.0722 34.3955C17.5149 33.6386 17.9133 32.9575 18.1738 32.2501H29.9999C31.2425 32.2501 32.2499 31.2428 32.2499 30.0001C32.2499 28.7575 31.2425 27.7501 29.9999 27.7501H18.157C17.8902 27.0418 17.4844 26.3624 17.0334 25.6073L16.9184 25.4146C14.7371 21.7538 13.1647 19.1123 12.1538 17.1093C11.088 14.9976 10.9104 14.0719 10.9473 13.6867C11.132 11.7578 12.5276 10.1623 14.4147 9.72253C14.7916 9.63469 15.7327 9.68749 17.9675 10.4627C20.0872 11.1981 22.9144 12.4049 26.833 14.0795L34.1967 17.2265C39.7377 19.5945 43.7511 21.312 46.5997 22.8417C49.5071 24.403 50.7407 25.5416 51.2381 26.5286Z"
  />
</svg>
