<svg
  width="60"
  height="60"
  viewBox="0 0 60 60"
  fill="currentColor"
  xmlns="http://www.w3.org/2000/svg"
>
  <path
    fill-rule="evenodd"
    clip-rule="evenodd"
    d="M30 7.25C17.4355 7.25 7.25 17.4355 7.25 30C7.25 42.5645 17.4355 52.75 30 52.75C42.5645 52.75 52.75 42.5645 52.75 30C52.75 17.4355 42.5645 7.25 30 7.25ZM2.75 30C2.75 14.9502 14.9502 2.75 30 2.75C45.0498 2.75 57.25 14.9502 57.25 30C57.25 45.0498 45.0498 57.25 30 57.25C14.9502 57.25 2.75 45.0498 2.75 30Z"
  />
  <path
    fill-rule="evenodd"
    clip-rule="evenodd"
    d="M20.32 35.5737C18.6287 37.8994 18.2503 40.4246 18.25 41.0014C18.2494 42.2441 17.2416 43.2509 15.999 43.2504C14.7563 43.2498 13.7494 42.242 13.75 40.9993C13.7507 39.5762 14.3722 36.1013 16.6807 32.927C19.0922 29.611 23.2604 26.7503 30 26.7504C36.7395 26.7505 40.908 29.6109 43.3196 32.9269C45.6281 36.1009 46.25 39.576 46.25 41.0004C46.25 42.243 45.2426 43.2504 44 43.2504C42.7574 43.2504 41.75 42.243 41.75 41.0004C41.75 40.4242 41.3719 37.8994 39.6804 35.5737C38.0921 33.3898 35.2605 31.2505 30 31.2504M20.32 35.5737C21.9083 33.3897 24.7396 31.2503 30 31.2504L20.32 35.5737Z"
  />
  <path
    fill-rule="evenodd"
    clip-rule="evenodd"
    d="M37.9217 14.8297C37.9067 14.8061 37.9276 14.8392 37.9217 14.8297C37.9516 14.8769 38.0358 15.009 38.0991 15.1036C38.2261 15.2936 38.4141 15.564 38.6493 15.8725C39.1343 16.5087 39.757 17.2229 40.4077 17.7448C41.2015 18.3814 42.0923 18.9411 42.8065 19.3497C43.1586 19.5512 43.4569 19.7098 43.6639 19.8165C43.7671 19.8697 43.9128 19.9417 43.9647 19.9673C45.087 20.5002 45.5654 21.8422 45.0327 22.9647C44.4999 24.0873 43.1579 24.5655 42.0353 24.0327C42.0139 24.0223 41.9448 23.989 41.908 23.9708C41.8344 23.9345 41.7311 23.8828 41.6029 23.8167C41.347 23.6849 40.9897 23.4948 40.5715 23.2555C39.745 22.7825 38.6358 22.0922 37.5922 21.2552C36.5363 20.4083 35.6591 19.3725 35.0707 18.6009C34.7693 18.2055 34.5272 17.8575 34.3584 17.6052C34.2738 17.4786 34.2069 17.375 34.1594 17.3003C34.1357 17.2629 34.0904 17.1897 34.0765 17.1673C33.4318 16.105 33.7704 14.7212 34.8327 14.0765C35.894 13.4324 37.2762 13.7697 37.9217 14.8297Z"
  />
  <path
    fill-rule="evenodd"
    clip-rule="evenodd"
    d="M22.0939 14.8297C22.0992 14.8211 22.1089 14.8061 22.0939 14.8297C22.064 14.8769 21.9798 15.009 21.9166 15.1036C21.7895 15.2936 21.6016 15.564 21.3663 15.8725C20.8813 16.5087 20.2586 17.2229 19.6079 17.7448C18.8141 18.3814 17.9233 18.9411 17.2092 19.3497C16.857 19.5512 16.5588 19.7098 16.3518 19.8165C16.2485 19.8697 16.1028 19.9417 16.0509 19.9673C14.9286 20.5002 14.4502 21.8422 14.9829 22.9647C15.5157 24.0873 16.8577 24.5655 17.9803 24.0327C18.0539 23.9964 18.2846 23.8828 18.4127 23.8167C18.6687 23.6849 19.0259 23.4948 19.4441 23.2555C20.2707 22.7825 21.3798 22.0922 22.4234 21.2552C23.4793 20.4083 24.3566 19.3725 24.9449 18.6009C25.2464 18.2055 25.4884 17.8575 25.6572 17.6052C25.7418 17.4786 25.8087 17.375 25.8562 17.3003C25.8799 17.2629 25.9252 17.1897 25.9391 17.1673C26.5838 16.105 26.2453 14.7212 25.1829 14.0765C24.1216 13.4324 22.7394 13.7697 22.0939 14.8297Z"
  />
</svg>
