<svg
  width="60"
  height="60"
  viewBox="0 0 60 60"
  fill="currentColor"
  xmlns="http://www.w3.org/2000/svg"
>
  <path
    fill-rule="evenodd"
    clip-rule="evenodd"
    d="M30 7.25C17.4355 7.25 7.25 17.4355 7.25 30C7.25 42.5645 17.4355 52.75 30 52.75C42.5645 52.75 52.75 42.5645 52.75 30C52.75 17.4355 42.5645 7.25 30 7.25ZM2.75 30C2.75 14.9502 14.9502 2.75 30 2.75C45.0498 2.75 57.25 14.9502 57.25 30C57.25 45.0498 45.0498 57.25 30 57.25C14.9502 57.25 2.75 45.0498 2.75 30Z"
  />
  <path
    fill-rule="evenodd"
    clip-rule="evenodd"
    d="M20 29.5C18.6193 29.5 17.5 28.3807 17.5 27V20C17.5 18.6193 18.6193 17.5 20 17.5C21.3807 17.5 22.5 18.6193 22.5 20V27C22.5 28.3807 21.3807 29.5 20 29.5Z"
  />
  <path
    fill-rule="evenodd"
    clip-rule="evenodd"
    d="M39 29.5C37.6193 29.5 36.5 28.3807 36.5 27V20C36.5 18.6193 37.6193 17.5 39 17.5C40.3807 17.5 41.5 18.6193 41.5 20V27C41.5 28.3807 40.3807 29.5 39 29.5Z"
  />
  <path
    d="M33.001 45C33.5534 45 34.0011 44.5532 34.0011 44.0009C34.0009 42.949 34.0008 41.2721 34.0008 39.9999C34.0008 37.9999 32.9996 35.9998 30.0003 35.9998C27.001 35.9998 26 37.9999 26 39.9999C26 41.2722 26 42.9491 26 44.001C26 44.5533 26.4477 45 27 45L33.001 45Z"
  />
</svg>
