<svg
  width="60"
  height="60"
  viewBox="0 0 60 60"
  fill="currentColor"
  xmlns="http://www.w3.org/2000/svg"
>
  <path
    fill-rule="evenodd"
    clip-rule="evenodd"
    d="M30 7.25C17.4355 7.25 7.25 17.4355 7.25 30C7.25 42.5645 17.4355 52.75 30 52.75C42.5645 52.75 52.75 42.5645 52.75 30C52.75 17.4355 42.5645 7.25 30 7.25ZM2.75 30C2.75 14.9502 14.9502 2.75 30 2.75C45.0498 2.75 57.25 14.9502 57.25 30C57.25 45.0498 45.0498 57.25 30 57.25C14.9502 57.25 2.75 45.0498 2.75 30Z"
  />
  <path
    fill-rule="evenodd"
    clip-rule="evenodd"
    d="M12.5596 23.7285C11.605 22.933 11.476 21.5142 12.2715 20.5596L14 22C12.2715 20.5596 12.2722 20.5587 12.2729 20.5579L12.2744 20.5562L12.2774 20.5526L12.2839 20.5448L12.2991 20.527C12.3102 20.5141 12.3231 20.4993 12.3379 20.4827C12.3674 20.4495 12.4043 20.409 12.4488 20.3623C12.5377 20.269 12.6571 20.1503 12.8073 20.0151C13.107 19.7454 13.5347 19.4052 14.0924 19.0706C15.2165 18.3962 16.8619 17.75 19 17.75C21.1381 17.75 22.7835 18.3962 23.9076 19.0706C24.4653 19.4052 24.893 19.7454 25.1927 20.0151C25.3429 20.1503 25.4623 20.269 25.5512 20.3623C25.5957 20.409 25.6326 20.4495 25.6621 20.4827C25.6769 20.4993 25.6898 20.5141 25.7009 20.527L25.7161 20.5448L25.7226 20.5526L25.7256 20.5562L25.7271 20.5579C25.7278 20.5587 25.7285 20.5596 24 22L25.7285 20.5596C26.524 21.5142 26.395 22.933 25.4404 23.7285C24.4959 24.5156 23.097 24.3977 22.297 23.4705C22.2958 23.4692 22.2943 23.4677 22.2926 23.4658C22.2773 23.4497 22.2404 23.4122 22.1823 23.3599C22.0654 23.2546 21.8681 23.0948 21.5924 22.9294C21.0499 22.6038 20.1953 22.25 19 22.25C17.8047 22.25 16.9502 22.6038 16.4076 22.9294C16.1319 23.0948 15.9346 23.2546 15.8177 23.3599C15.7596 23.4122 15.7227 23.4497 15.7074 23.4658C15.7057 23.4676 15.7042 23.4692 15.703 23.4704C14.903 24.3977 13.5041 24.5156 12.5596 23.7285Z"
  />
  <path
    fill-rule="evenodd"
    clip-rule="evenodd"
    d="M20.75 37.75C20.75 36.5074 21.7574 35.5 23 35.5H37C38.2426 35.5 39.25 36.5074 39.25 37.75C39.25 38.9926 38.2426 40 37 40H23C21.7574 40 20.75 38.9926 20.75 37.75Z"
  />
  <path
    fill-rule="evenodd"
    clip-rule="evenodd"
    d="M34.5596 23.7285C33.605 22.933 33.476 21.5142 34.2715 20.5596L36 22C34.2715 20.5596 34.2722 20.5587 34.2729 20.5579L34.2744 20.5562L34.2774 20.5526L34.2839 20.5448L34.2991 20.527C34.3102 20.5141 34.3231 20.4993 34.3379 20.4827C34.3674 20.4495 34.4043 20.409 34.4488 20.3623C34.5377 20.269 34.6571 20.1503 34.8073 20.0151C35.107 19.7454 35.5347 19.4052 36.0924 19.0706C37.2165 18.3962 38.8619 17.75 41 17.75C43.1381 17.75 44.7835 18.3962 45.9076 19.0706C46.4653 19.4052 46.893 19.7454 47.1927 20.0151C47.3429 20.1503 47.4623 20.269 47.5512 20.3623C47.5957 20.409 47.6326 20.4495 47.6621 20.4827C47.6769 20.4993 47.6898 20.5141 47.7009 20.527L47.7161 20.5448L47.7226 20.5526L47.7256 20.5562L47.7271 20.5579C47.7278 20.5587 47.7285 20.5596 46 22L47.7285 20.5596C48.524 21.5142 48.395 22.933 47.4404 23.7285C46.4959 24.5156 45.097 24.3977 44.297 23.4705C44.2958 23.4692 44.2943 23.4677 44.2926 23.4658C44.2773 23.4497 44.2404 23.4122 44.1823 23.3599C44.0654 23.2546 43.8681 23.0948 43.5924 22.9294C43.0499 22.6038 42.1953 22.25 41 22.25C39.8047 22.25 38.9501 22.6038 38.4076 22.9294C38.1319 23.0948 37.9346 23.2546 37.8177 23.3599C37.7596 23.4122 37.7227 23.4497 37.7074 23.4658C37.7057 23.4676 37.7042 23.4692 37.703 23.4704C36.903 24.3977 35.5041 24.5156 34.5596 23.7285Z"
  />
</svg>
