<svg
  width="60"
  height="60"
  viewBox="0 0 60 60"
  fill="currentColor"
  xmlns="http://www.w3.org/2000/svg"
>
  <path
    d="M41.8764 41.0102C42.0064 41.547 41.553 42 41.0007 42H19.0002C18.4479 42 17.994 41.547 18.124 41.0102C18.8944 37.8274 23.2222 34 30.0002 34C36.7782 34 41.106 37.8274 41.8764 41.0102Z"
  />
  <path
    d="M16.4696 18.4698C17.153 17.7864 18.2611 17.7864 18.9445 18.4698L20.5353 20.0606L22.1267 18.4692C22.8102 17.7858 23.9182 17.7858 24.6016 18.4692C25.2851 19.1526 25.2851 20.2606 24.6016 20.944L23.0102 22.5354L24.6013 24.1265C25.2848 24.8099 25.2848 25.918 24.6013 26.6014C23.9179 27.2848 22.8099 27.2848 22.1264 26.6014L20.5353 25.0103L18.9448 26.6007C18.2614 27.2841 17.1533 27.2841 16.4699 26.6007C15.7864 25.9173 15.7864 24.8093 16.4699 24.1259L18.0604 22.5354L16.4696 20.9447C15.7861 20.2613 15.7861 19.1532 16.4696 18.4698Z"
  />
  <path
    d="M37.9445 18.4698C37.2611 17.7864 36.153 17.7864 35.4696 18.4698C34.7861 19.1532 34.7861 20.2613 35.4696 20.9447L37.0604 22.5354L35.4699 24.1259C34.7864 24.8093 34.7864 25.9173 35.4699 26.6007C36.1533 27.2841 37.2614 27.2841 37.9448 26.6007L39.5353 25.0103L41.1264 26.6014C41.8099 27.2848 42.9179 27.2848 43.6013 26.6014C44.2848 25.918 44.2848 24.8099 43.6013 24.1265L42.0102 22.5354L43.6016 20.944C44.2851 20.2606 44.2851 19.1526 43.6016 18.4692C42.9182 17.7858 41.8102 17.7858 41.1267 18.4692L39.5353 20.0606L37.9445 18.4698Z"
  />
  <path
    fill-rule="evenodd"
    clip-rule="evenodd"
    d="M30 2.75C14.9502 2.75 2.75 14.9502 2.75 30C2.75 45.0498 14.9502 57.25 30 57.25C45.0498 57.25 57.25 45.0498 57.25 30C57.25 14.9502 45.0498 2.75 30 2.75ZM7.25 30C7.25 17.4355 17.4355 7.25 30 7.25C42.5645 7.25 52.75 17.4355 52.75 30C52.75 42.5645 42.5645 52.75 30 52.75C17.4355 52.75 7.25 42.5645 7.25 30Z"
  />
</svg>
