<svg
  width="60"
  height="60"
  viewBox="0 0 60 60"
  fill="currentColor"
  xmlns="http://www.w3.org/2000/svg"
>
  <path
    fill-rule="evenodd"
    clip-rule="evenodd"
    d="M30 7.25C17.4355 7.25 7.25 17.4355 7.25 30C7.25 42.5645 17.4355 52.75 30 52.75C42.5645 52.75 52.75 42.5645 52.75 30C52.75 17.4355 42.5645 7.25 30 7.25ZM2.75 30C2.75 14.9502 14.9502 2.75 30 2.75C45.0498 2.75 57.25 14.9502 57.25 30C57.25 45.0498 45.0498 57.25 30 57.25C14.9502 57.25 2.75 45.0498 2.75 30Z"
  />
  <path
    fill-rule="evenodd"
    clip-rule="evenodd"
    d="M17.5 22C17.5 20.6193 18.6193 19.5 20 19.5H20.1C21.4807 19.5 22.6 20.6193 22.6 22C22.6 23.3807 21.4807 24.5 20.1 24.5H20C18.6193 24.5 17.5 23.3807 17.5 22Z"
  />
  <path
    fill-rule="evenodd"
    clip-rule="evenodd"
    d="M36.5 22C36.5 20.6193 37.6193 19.5 39 19.5H39.1C40.4807 19.5 41.6 20.6193 41.6 22C41.6 23.3807 40.4807 24.5 39.1 24.5H39C37.6193 24.5 36.5 23.3807 36.5 22Z"
  />
  <path
    fill-rule="evenodd"
    clip-rule="evenodd"
    d="M20.6866 42.0749L20.6857 42.0763L20.6841 42.0788L20.6819 42.0823C20.6808 42.084 20.681 42.0836 20.681 42.0836M39.3139 42.0749L39.3164 42.0788L39.3186 42.0823L39.3067 42.0645C39.2916 42.0424 39.2637 42.0022 39.2227 41.9465C39.1408 41.8348 39.0076 41.6617 38.8225 41.4475C38.4512 41.0176 37.8796 40.4314 37.104 39.843C35.5631 38.674 33.227 37.4996 30.0002 37.4996C26.7735 37.4996 24.4374 38.674 22.8965 39.843C22.1209 40.4314 21.5493 41.0176 21.178 41.4475C20.993 41.6617 20.8597 41.8348 20.7778 41.9465C20.7368 42.0022 20.7089 42.0424 20.6938 42.0645L20.681 42.0836C20.0856 43.0076 18.8551 43.2779 17.9265 42.6869C16.9946 42.0939 16.7199 40.8577 17.3129 39.9259L19.0003 40.9996C17.3129 39.9259 17.314 39.9242 17.314 39.9242L17.3151 39.9224L17.3177 39.9184L17.3238 39.909L17.34 39.8841C17.3527 39.8648 17.369 39.8404 17.3889 39.8112C17.4288 39.7527 17.4834 39.6747 17.5528 39.5801C17.6915 39.391 17.8904 39.1344 18.1507 38.833C18.67 38.2317 19.4421 37.4428 20.479 36.6562C22.5631 35.0752 25.727 33.4996 30.0002 33.4996C34.2735 33.4996 37.4374 35.0752 39.5215 36.6562C40.5584 37.4428 41.3305 38.2317 41.8498 38.833C42.1101 39.1344 42.309 39.391 42.4477 39.5801C42.5171 39.6747 42.5717 39.7527 42.6116 39.8112C42.6315 39.8404 42.6478 39.8648 42.6605 39.8841L42.6767 39.909L42.6828 39.9184L42.6854 39.9224L42.6865 39.9242C42.6865 39.9242 42.6876 39.9259 41.0003 40.9996L42.6876 39.9259C43.2806 40.8577 43.0059 42.0939 42.074 42.6869C41.1454 43.2779 39.9146 43.0072 39.3192 42.0832"
  />
</svg>
