<svg
  width="60"
  height="60"
  viewBox="0 0 60 60"
  fill="currentColor"
  xmlns="http://www.w3.org/2000/svg"
>
  <path
    fill-rule="evenodd"
    clip-rule="evenodd"
    d="M30 7.25C17.4355 7.25 7.25 17.4355 7.25 30C7.25 42.5645 17.4355 52.75 30 52.75C42.5645 52.75 52.75 42.5645 52.75 30C52.75 17.4355 42.5645 7.25 30 7.25ZM2.75 30C2.75 14.9502 14.9502 2.75 30 2.75C45.0498 2.75 57.25 14.9502 57.25 30C57.25 45.0498 45.0498 57.25 30 57.25C14.9502 57.25 2.75 45.0498 2.75 30Z"
  />
  <path
    fill-rule="evenodd"
    clip-rule="evenodd"
    d="M17.5 22C17.5 20.6193 18.6193 19.5 20 19.5H20.1C21.4807 19.5 22.6 20.6193 22.6 22C22.6 23.3807 21.4807 24.5 20.1 24.5H20C18.6193 24.5 17.5 23.3807 17.5 22Z"
  />
  <path
    fill-rule="evenodd"
    clip-rule="evenodd"
    d="M36.5 22C36.5 20.6193 37.6193 19.5 39 19.5H39.1C40.4807 19.5 41.6 20.6193 41.6 22C41.6 23.3807 40.4807 24.5 39.1 24.5H39C37.6193 24.5 36.5 23.3807 36.5 22Z"
  />
  <path
    fill-rule="evenodd"
    clip-rule="evenodd"
    d="M20.6863 36.4247L20.6854 36.4233L20.6839 36.4208L20.6816 36.4173C20.6805 36.4156 20.6807 36.416 20.6807 36.416M39.3137 36.4247L39.3146 36.4233L39.3161 36.4208L39.3184 36.4173L39.3064 36.4351C39.2914 36.4572 39.2634 36.4974 39.2225 36.5531C39.1405 36.6649 39.0073 36.8379 38.8223 37.0521C38.451 37.4821 37.8793 38.0682 37.1037 38.6566C35.5628 39.8256 33.2267 41 30 41C26.7733 41 24.4372 39.8256 22.8963 38.6566C22.1207 38.0682 21.549 37.4821 21.1777 37.0521C20.9927 36.8379 20.8595 36.6649 20.7775 36.5532C20.7366 36.4974 20.7086 36.4572 20.6936 36.4351L20.6807 36.416C20.0853 35.492 18.8549 35.2217 17.9263 35.8127C16.9944 36.4057 16.7197 37.6419 17.3127 38.5737L19 37.5C17.3127 38.5737 17.3137 38.5754 17.3137 38.5754L17.3149 38.5772L17.3174 38.5812L17.3235 38.5906L17.3398 38.6155C17.3524 38.6348 17.3687 38.6592 17.3887 38.6884C17.4286 38.7469 17.4831 38.8249 17.5526 38.9195C17.6913 39.1086 17.8901 39.3652 18.1504 39.6666C18.6697 40.2679 19.4418 41.0568 20.4787 41.8434C22.5628 43.4244 25.7267 45 30 45C34.2733 45 37.4372 43.4244 39.5213 41.8434C40.5582 41.0568 41.3303 40.2679 41.8496 39.6666C42.1099 39.3652 42.3087 39.1086 42.4474 38.9195C42.5169 38.8249 42.5714 38.7469 42.6113 38.6884C42.6313 38.6592 42.6476 38.6348 42.6602 38.6156L42.6765 38.5906L42.6826 38.5812L42.6851 38.5772L42.6863 38.5754C42.6863 38.5754 42.6873 38.5738 41 37.5L42.6873 38.5738C43.2803 37.6419 43.0056 36.4057 42.0738 35.8127C41.1451 35.2217 39.9144 35.4924 39.319 36.4165"
  />
</svg>
