<svg
  width="60"
  height="60"
  viewBox="0 0 60 60"
  fill="currentColor"
  xmlns="http://www.w3.org/2000/svg"
>
  <path
    fill-rule="evenodd"
    clip-rule="evenodd"
    d="M30 7.25C17.4355 7.25 7.25 17.4355 7.25 30C7.25 42.5645 17.4355 52.75 30 52.75C42.5645 52.75 52.75 42.5645 52.75 30C52.75 17.4355 42.5645 7.25 30 7.25ZM2.75 30C2.75 14.9502 14.9502 2.75 30 2.75C45.0498 2.75 57.25 14.9502 57.25 30C57.25 45.0498 45.0498 57.25 30 57.25C14.9502 57.25 2.75 45.0498 2.75 30Z"
  />
  <path
    fill-rule="evenodd"
    clip-rule="evenodd"
    d="M24.8841 36.6295C23.6577 37.4471 23.25 38.3295 23.25 39C23.25 39.6705 23.6577 40.5529 24.8841 41.3705C26.0948 42.1777 27.897 42.75 30 42.75C32.103 42.75 33.9052 42.1777 35.1159 41.3705C36.3423 40.5529 36.75 39.6705 36.75 39C36.75 38.3295 36.3423 37.4471 35.1159 36.6295C33.9052 35.8223 32.103 35.25 30 35.25C27.897 35.25 26.0948 35.8223 24.8841 36.6295ZM22.388 32.8852C24.4346 31.5208 27.1325 30.75 30 30.75C32.8675 30.75 35.5654 31.5208 37.612 32.8852C39.643 34.2392 41.25 36.3568 41.25 39C41.25 41.6432 39.643 43.7608 37.612 45.1148C35.5654 46.4792 32.8675 47.25 30 47.25C27.1325 47.25 24.4346 46.4792 22.388 45.1148C20.357 43.7608 18.75 41.6432 18.75 39C18.75 36.3568 20.357 34.2392 22.388 32.8852Z"
  />
  <path
    fill-rule="evenodd"
    clip-rule="evenodd"
    d="M17.5 22C17.5 20.6193 18.6193 19.5 20 19.5H20.1C21.4807 19.5 22.6 20.6193 22.6 22C22.6 23.3807 21.4807 24.5 20.1 24.5H20C18.6193 24.5 17.5 23.3807 17.5 22Z"
  />
  <path
    fill-rule="evenodd"
    clip-rule="evenodd"
    d="M36.5 22C36.5 20.6193 37.6193 19.5 39 19.5H39.1C40.4807 19.5 41.6 20.6193 41.6 22C41.6 23.3807 40.4807 24.5 39.1 24.5H39C37.6193 24.5 36.5 23.3807 36.5 22Z"
  />
</svg>
