<svg
  width="60"
  height="60"
  viewBox="0 0 60 60"
  fill="currentColor"
  xmlns="http://www.w3.org/2000/svg"
>
  <path
    fill-rule="evenodd"
    clip-rule="evenodd"
    d="M30 7.25C17.4355 7.25 7.25 17.4355 7.25 30C7.25 42.5645 17.4355 52.75 30 52.75C42.5645 52.75 52.75 42.5645 52.75 30C52.75 17.4355 42.5645 7.25 30 7.25ZM2.75 30C2.75 14.9502 14.9502 2.75 30 2.75C45.0498 2.75 57.25 14.9502 57.25 30C57.25 45.0498 45.0498 57.25 30 57.25C14.9502 57.25 2.75 45.0498 2.75 30Z"
  />
  <path
    fill-rule="evenodd"
    clip-rule="evenodd"
    d="M12.9073 23.9669C11.821 23.3634 11.4297 21.9936 12.0331 20.9073L14 22C12.0331 20.9073 12.0341 20.9056 12.0341 20.9056L12.035 20.9039L12.0371 20.9002L12.0417 20.8919L12.0531 20.8721C12.0615 20.8573 12.0718 20.8397 12.0839 20.8193C12.1081 20.7784 12.1396 20.7265 12.1786 20.6651C12.2565 20.5424 12.365 20.3803 12.5045 20.192C12.7813 19.8183 13.1928 19.3244 13.7448 18.8276C14.8467 17.8359 16.6095 16.75 19 16.75C21.3905 16.75 23.1533 17.8359 24.2552 18.8276C24.8072 19.3244 25.2187 19.8183 25.4955 20.192C25.635 20.3803 25.7435 20.5424 25.8214 20.6651C25.8604 20.7265 25.8919 20.7784 25.9161 20.8193C25.9282 20.8397 25.9385 20.8573 25.9469 20.8721L25.9583 20.8919L25.9629 20.9002L25.965 20.9039L25.9659 20.9056C25.9659 20.9056 25.9669 20.9073 24 22L25.9669 20.9073C26.5703 21.9936 26.179 23.3634 25.0927 23.9669C24.0127 24.5668 22.6524 24.1835 22.0437 23.1115C22.0407 23.1065 22.0336 23.0948 22.0224 23.0771C21.9961 23.0357 21.9483 22.9634 21.8795 22.8705C21.7396 22.6817 21.5261 22.4256 21.2448 22.1724C20.68 21.6641 19.9429 21.25 19 21.25C18.0571 21.25 17.32 21.6641 16.7552 22.1724C16.4739 22.4256 16.2604 22.6817 16.1205 22.8705C16.0517 22.9634 16.0039 23.0357 15.9776 23.0771C15.9662 23.095 15.9591 23.1069 15.9562 23.1117C15.3474 24.1835 13.9872 24.5668 12.9073 23.9669Z"
  />
  <path
    fill-rule="evenodd"
    clip-rule="evenodd"
    d="M18.8008 34.5C18.8008 32.7051 20.2558 31.25 22.0508 31.25H37.9609C39.7393 31.25 41.1875 32.6794 41.2106 34.4577L41.2508 37.5515L41.2461 37.6322L39 37.5C41.2461 37.6322 41.246 37.6345 41.246 37.6345L41.2458 37.637L41.2455 37.6426L41.2446 37.6561L41.242 37.6926C41.2399 37.7211 41.2369 37.7577 41.2328 37.802C41.2246 37.8905 41.212 38.01 41.193 38.1559C41.1551 38.4472 41.091 38.8482 40.9839 39.3231C40.7717 40.2638 40.3797 41.5445 39.6514 42.8477C38.1359 45.5593 35.1984 48.25 29.9996 48.25C24.7987 48.25 21.8711 45.5566 20.3686 42.8386C19.6472 41.5336 19.2626 40.2515 19.056 39.3105C18.9517 38.8353 18.89 38.434 18.8538 38.1426C18.8357 37.9966 18.8238 37.8771 18.8162 37.7886C18.8124 37.7443 18.8096 37.7076 18.8076 37.6791L18.8053 37.6426L18.8045 37.629L18.8042 37.6234L18.804 37.6209C18.804 37.6209 18.8039 37.6187 21.0508 37.5L18.8039 37.6187L18.8008 37.5594V34.5ZM23.3008 37.4158C23.3041 37.4531 23.31 37.5114 23.3195 37.5878C23.341 37.7613 23.3808 38.0241 23.4514 38.3458C23.5947 38.9985 23.8535 39.8414 24.3069 40.6614C25.1537 42.1934 26.7006 43.75 29.9996 43.75C33.3009 43.75 34.8635 42.1907 35.7232 40.6523C36.1825 39.8305 36.4468 38.9862 36.5941 38.3331C36.6667 38.0112 36.7081 37.7481 36.7307 37.5745C36.7392 37.5093 36.745 37.4573 36.7488 37.4202L36.727 35.75H23.3008V37.4158Z"
  />
  <path
    fill-rule="evenodd"
    clip-rule="evenodd"
    d="M34.9073 23.9669C33.821 23.3634 33.4297 21.9936 34.0331 20.9073L36 22C34.0331 20.9073 34.0341 20.9056 34.0341 20.9056L34.035 20.9039L34.0371 20.9002L34.0417 20.8919L34.0531 20.8721C34.0615 20.8573 34.0718 20.8397 34.0839 20.8193C34.1081 20.7784 34.1396 20.7265 34.1786 20.6651C34.2565 20.5424 34.365 20.3803 34.5045 20.192C34.7813 19.8183 35.1928 19.3244 35.7448 18.8276C36.8467 17.8359 38.6095 16.75 41 16.75C43.3905 16.75 45.1533 17.8359 46.2552 18.8276C46.8072 19.3244 47.2187 19.8183 47.4955 20.192C47.635 20.3803 47.7435 20.5424 47.8214 20.6651C47.8604 20.7265 47.8919 20.7784 47.9161 20.8193C47.9282 20.8397 47.9385 20.8573 47.9469 20.8721L47.9583 20.8919L47.9629 20.9002L47.965 20.9039L47.9659 20.9056C47.9659 20.9056 47.9669 20.9073 46 22L47.9669 20.9073C48.5703 21.9936 48.179 23.3634 47.0927 23.9669C46.0127 24.5668 44.6524 24.1835 44.0437 23.1115C44.0407 23.1065 44.0336 23.0948 44.0224 23.0771C43.9961 23.0357 43.9483 22.9634 43.8795 22.8705C43.7397 22.6817 43.5261 22.4256 43.2448 22.1724C42.68 21.6641 41.9429 21.25 41 21.25C40.0571 21.25 39.32 21.6641 38.7552 22.1724C38.4739 22.4256 38.2604 22.6817 38.1205 22.8705C38.0517 22.9634 38.0039 23.0357 37.9776 23.0771C37.9662 23.095 37.9591 23.1069 37.9562 23.1117C37.3474 24.1835 35.9872 24.5668 34.9073 23.9669Z"
  />
</svg>
