<svg
  width="60"
  height="60"
  viewBox="0 0 60 60"
  fill="currentColor"
  xmlns="http://www.w3.org/2000/svg"
>
  <path
    d="M19.1281 19.6563C18.1773 20.0101 17.5 20.926 17.5 22C17.5 23.3807 18.6193 24.5 20 24.5H20.1C21.4807 24.5 22.6 23.3807 22.6 22C22.6 21.8723 22.5904 21.7468 22.5719 21.6242L23.3794 22.0856C23.9788 22.4281 24.7424 22.2199 25.0849 21.6205C25.4274 21.0211 25.2192 20.2575 24.6198 19.915L17.6198 15.915C17.0204 15.5725 16.2568 15.7807 15.9143 16.3801C15.5718 16.9795 15.78 17.7431 16.3794 18.0856L19.1281 19.6563Z"
  />
  <path
    d="M36.5 22C36.5 21.8503 36.5132 21.7036 36.5384 21.5611L35.6206 22.0856C35.0212 22.4281 34.2576 22.2199 33.9151 21.6205C33.5726 21.0211 33.7808 20.2575 34.3802 19.915L41.3802 15.915C41.9796 15.5725 42.7432 15.7807 43.0857 16.3801C43.4282 16.9795 43.22 17.7431 42.6206 18.0856L39.9104 19.6343C40.8933 19.9709 41.6 20.9029 41.6 22C41.6 23.3807 40.4807 24.5 39.1 24.5H39C37.6193 24.5 36.5 23.3807 36.5 22Z"
  />
  <path
    d="M41.8764 41.0102C42.0064 41.547 41.553 42 41.0007 42H19.0002C18.4479 42 17.994 41.547 18.124 41.0102C18.8944 37.8274 23.2222 34 30.0002 34C36.7782 34 41.106 37.8274 41.8764 41.0102Z"
  />
  <path
    fill-rule="evenodd"
    clip-rule="evenodd"
    d="M30 2.75C14.9502 2.75 2.75 14.9502 2.75 30C2.75 45.0498 14.9502 57.25 30 57.25C45.0498 57.25 57.25 45.0498 57.25 30C57.25 14.9502 45.0498 2.75 30 2.75ZM7.25 30C7.25 17.4355 17.4355 7.25 30 7.25C42.5645 7.25 52.75 17.4355 52.75 30C52.75 42.5645 42.5645 52.75 30 52.75C17.4355 52.75 7.25 42.5645 7.25 30Z"
  />
</svg>
