<svg
  width="60"
  height="60"
  viewBox="0 0 60 60"
  fill="currentColor"
  xmlns="http://www.w3.org/2000/svg"
>
  <path
    fill-rule="evenodd"
    clip-rule="evenodd"
    d="M35.5801 26.7766C31.7627 26.0689 27.9152 26.0946 24.074 26.8479C20.1755 27.6124 15.992 30.4144 15.4449 35.1491C15.2763 36.6079 15.3363 38.0789 15.5775 39.5395C16.0299 42.2793 17.7222 44.474 19.9902 45.511C22.3031 46.5685 25.0874 46.3519 27.3726 44.5088C28.4832 43.6131 29.1233 43.2501 29.9995 43.2501C30.8999 43.2501 31.5347 43.63 32.7013 44.5824C34.9661 46.4313 37.7447 46.6347 40.0438 45.5956C42.3004 44.5756 44.0125 42.4083 44.4703 39.6839C44.7117 38.2474 44.756 36.8274 44.5839 35.4159C43.9907 30.5514 39.7185 27.5437 35.5801 26.7766ZM24.94 31.2637C28.2315 30.6183 31.5069 30.5982 34.7598 31.2012C37.6889 31.7441 39.8401 33.6898 40.117 35.9605C40.233 36.9122 40.2075 37.8967 40.0325 38.9381C39.8159 40.227 39.0406 41.1107 38.1904 41.495C37.3825 41.8601 36.4347 41.8211 35.547 41.0964C34.3306 40.1035 32.6101 38.7501 29.9995 38.7501C27.4637 38.7501 25.7651 40.0241 24.5476 41.0061C23.6191 41.7549 22.6583 41.7829 21.8615 41.4185C21.0197 41.0336 20.2376 40.1401 20.0174 38.8064C19.8357 37.7062 19.8004 36.6587 19.9151 35.6656C20.153 33.6071 22.1278 31.8152 24.94 31.2637Z"
  />
  <path
    d="M21.9166 15.1036C21.9798 15.009 22.064 14.8769 22.0939 14.8297C22.7394 13.7697 24.1216 13.4324 25.1829 14.0765C26.2453 14.7212 26.5838 16.105 25.9391 17.1673C25.9253 17.1897 25.8799 17.2629 25.8562 17.3003C25.8087 17.375 25.7418 17.4786 25.6572 17.6052C25.4884 17.8575 25.2464 18.2055 24.9449 18.6009C24.3566 19.3725 23.4793 20.4083 22.4234 21.2552C21.3798 22.0922 20.2707 22.7825 19.4441 23.2555C19.0259 23.4948 18.6687 23.6849 18.4127 23.8167C18.2914 23.8793 18.0782 23.9844 17.9934 24.0263L17.9803 24.0327C16.8577 24.5655 15.5157 24.0873 14.9829 22.9647C14.4502 21.8422 14.9286 20.5002 16.0509 19.9673C16.1028 19.9417 16.2485 19.8697 16.3518 19.8165C16.5588 19.7098 16.857 19.5512 17.2092 19.3497C17.9233 18.9411 18.8141 18.3814 19.6079 17.7448C20.2586 17.2229 20.8813 16.5086 21.3663 15.8725C21.6016 15.564 21.7895 15.2936 21.9166 15.1036Z"
  />
  <path
    d="M38.0991 15.1036C38.0358 15.009 37.9516 14.8769 37.9217 14.8297C37.2762 13.7697 35.894 13.4324 34.8327 14.0765C33.7704 14.7212 33.4318 16.105 34.0765 17.1673L34.0812 17.175C34.0988 17.2033 34.138 17.2665 34.1594 17.3003C34.2069 17.375 34.2738 17.4786 34.3584 17.6052C34.5272 17.8575 34.7693 18.2055 35.0707 18.6009C35.6591 19.3725 36.5363 20.4083 37.5923 21.2552C38.6358 22.0922 39.745 22.7825 40.5715 23.2555C40.9897 23.4948 41.347 23.6849 41.6029 23.8167C41.7311 23.8828 41.8344 23.9345 41.908 23.9708C41.9449 23.989 42.0139 24.0223 42.0353 24.0327C43.1579 24.5655 44.4999 24.0873 45.0327 22.9647C45.5654 21.8422 45.087 20.5002 43.9647 19.9673C43.9129 19.9417 43.7671 19.8697 43.6639 19.8165C43.4569 19.7098 43.1586 19.5512 42.8065 19.3497C42.0923 18.9411 41.2015 18.3814 40.4077 17.7448C39.757 17.2229 39.1343 16.5086 38.6493 15.8725C38.4141 15.564 38.2261 15.2936 38.0991 15.1036Z"
  />
  <path
    fill-rule="evenodd"
    clip-rule="evenodd"
    d="M30 2.75C14.9502 2.75 2.75 14.9502 2.75 30C2.75 45.0498 14.9502 57.25 30 57.25C45.0498 57.25 57.25 45.0498 57.25 30C57.25 14.9502 45.0498 2.75 30 2.75ZM7.25 30C7.25 17.4355 17.4355 7.25 30 7.25C42.5645 7.25 52.75 17.4355 52.75 30C52.75 42.5645 42.5645 52.75 30 52.75C17.4355 52.75 7.25 42.5645 7.25 30Z"
  />
</svg>
