<svg
  width="60"
  height="60"
  viewBox="0 0 60 60"
  fill="currentColor"
  xmlns="http://www.w3.org/2000/svg"
>
  <path
    fill-rule="evenodd"
    clip-rule="evenodd"
    d="M30 7.25C17.4355 7.25 7.25 17.4355 7.25 30C7.25 42.5645 17.4355 52.75 30 52.75C42.5645 52.75 52.75 42.5645 52.75 30C52.75 17.4355 42.5645 7.25 30 7.25ZM2.75 30C2.75 14.9502 14.9502 2.75 30 2.75C45.0498 2.75 57.25 14.9502 57.25 30C57.25 45.0498 45.0498 57.25 30 57.25C14.9502 57.25 2.75 45.0498 2.75 30Z"
  />
  <path
    fill-rule="evenodd"
    clip-rule="evenodd"
    d="M16.1501 29.2807C15.4427 28.259 15.6976 26.8574 16.7193 26.1501L20.5472 23.5L16.7193 20.8499C15.6976 20.1426 15.4427 18.741 16.1501 17.7193C16.8574 16.6976 18.259 16.4427 19.2807 17.1501L24.5931 20.8279C26.4599 22.1202 26.4599 24.8798 24.5931 26.1721L19.2807 29.8499C18.259 30.5573 16.8574 30.3024 16.1501 29.2807Z"
  />
  <path
    fill-rule="evenodd"
    clip-rule="evenodd"
    d="M43.8499 29.2807C44.5573 28.259 44.3024 26.8574 43.2807 26.1501L39.4528 23.5L43.2807 20.8499C44.3024 20.1426 44.5573 18.741 43.8499 17.7193C43.1426 16.6976 41.741 16.4427 40.7193 17.1501L35.4069 20.8279C33.5401 22.1202 33.5401 24.8798 35.4069 26.1721L40.7193 29.8499C41.741 30.5573 43.1426 30.3024 43.8499 29.2807Z"
  />
  <path
    fill-rule="evenodd"
    clip-rule="evenodd"
    d="M30.5 40.8449L27.3208 44.342C26.3144 45.4491 24.5593 45.4034 23.6118 44.2453L21.0197 41.0772L20.757 41.4056C19.9807 42.3759 18.5648 42.5332 17.5944 41.757C16.6241 40.9807 16.4668 39.5648 17.243 38.5944L19.0886 36.2875C20.0625 35.0701 21.9107 35.0599 22.8979 36.2665L25.5897 39.5565L28.6871 36.1493C29.6592 35.08 31.3408 35.08 32.3129 36.1493L35.4103 39.5565L38.1021 36.2665C39.0893 35.0599 40.9375 35.0701 41.9114 36.2875L43.757 38.5944C44.5332 39.5648 44.3759 40.9807 43.4056 41.757C42.4352 42.5332 41.0193 42.3759 40.243 41.4056L39.9803 41.0772L37.3882 44.2453C36.4408 45.4034 34.6857 45.4491 33.6792 44.342L30.5 40.8449Z"
  />
</svg>
