<svg
  width="60"
  height="60"
  viewBox="0 0 60 60"
  fill="currentColor"
  xmlns="http://www.w3.org/2000/svg"
>
  <path
    fill-rule="evenodd"
    clip-rule="evenodd"
    d="M30 7.25C17.4355 7.25 7.25 17.4355 7.25 30C7.25 42.5645 17.4355 52.75 30 52.75C42.5645 52.75 52.75 42.5645 52.75 30C52.75 17.4355 42.5645 7.25 30 7.25ZM2.75 30C2.75 14.9502 14.9502 2.75 30 2.75C45.0498 2.75 57.25 14.9502 57.25 30C57.25 45.0498 45.0498 57.25 30 57.25C14.9502 57.25 2.75 45.0498 2.75 30Z"
  />
  <path
    fill-rule="evenodd"
    clip-rule="evenodd"
    d="M17.5 22C17.5 20.6193 18.6193 19.5 20 19.5H20.1C21.4807 19.5 22.6 20.6193 22.6 22C22.6 23.3807 21.4807 24.5 20.1 24.5H20C18.6193 24.5 17.5 23.3807 17.5 22Z"
  />
  <path
    fill-rule="evenodd"
    clip-rule="evenodd"
    d="M36.5 22C36.5 20.6193 37.6193 19.5 39 19.5H39.1C40.4807 19.5 41.6 20.6193 41.6 22C41.6 23.3807 40.4807 24.5 39.1 24.5H39C37.6193 24.5 36.5 23.3807 36.5 22Z"
  />
  <path
    fill-rule="evenodd"
    clip-rule="evenodd"
    d="M20.75 37.75C20.75 36.5074 21.7574 35.5 23 35.5H37C38.2426 35.5 39.25 36.5074 39.25 37.75C39.25 38.9926 38.2426 40 37 40H23C21.7574 40 20.75 38.9926 20.75 37.75Z"
  />
</svg>
