<svg
  width="60"
  height="60"
  viewBox="0 0 60 60"
  fill="currentColor"
  xmlns="http://www.w3.org/2000/svg"
>
  <path
    fill-rule="evenodd"
    clip-rule="evenodd"
    d="M30 7.25C17.4355 7.25 7.25 17.4355 7.25 30C7.25 42.5645 17.4355 52.75 30 52.75C42.5645 52.75 52.75 42.5645 52.75 30C52.75 17.4355 42.5645 7.25 30 7.25ZM2.75 30C2.75 14.9502 14.9502 2.75 30 2.75C45.0498 2.75 57.25 14.9502 57.25 30C57.25 45.0498 45.0498 57.25 30 57.25C14.9502 57.25 2.75 45.0498 2.75 30Z"
  />
  <path
    d="M41.0005 37C41.5528 37 42.0062 37.453 41.8762 37.9898C41.1058 41.1726 36.778 45 30 45C23.222 45 18.8942 41.1726 18.1238 37.9898C17.9938 37.453 18.4477 37 19 37C22.1839 37 25.5019 37 30 37C34.366 37 38.3916 37 41.0005 37Z"
  />
  <path
    fill-rule="evenodd"
    clip-rule="evenodd"
    d="M21 22.25C20.6011 22.25 19.7571 22.517 19.0125 24.0062C18.4567 25.1177 17.1052 25.5682 15.9938 25.0124C14.8823 24.4567 14.4318 23.1052 14.9875 21.9937C16.2429 19.483 18.3989 17.75 21 17.75C23.6011 17.75 25.7571 19.483 27.0125 21.9937C27.5682 23.1052 27.1177 24.4567 26.0062 25.0124C24.8948 25.5682 23.5433 25.1177 22.9875 24.0062C22.2429 22.517 21.3989 22.25 21 22.25Z"
  />
  <path
    fill-rule="evenodd"
    clip-rule="evenodd"
    d="M39 22.25C38.6011 22.25 37.7571 22.517 37.0125 24.0062C36.4567 25.1177 35.1052 25.5682 33.9938 25.0124C32.8823 24.4567 32.4318 23.1052 32.9875 21.9937C34.2429 19.483 36.3989 17.75 39 17.75C41.6011 17.75 43.7571 19.483 45.0125 21.9937C45.5682 23.1052 45.1177 24.4567 44.0062 25.0124C42.8948 25.5682 41.5433 25.1177 40.9875 24.0062C40.2429 22.517 39.3989 22.25 39 22.25Z"
  />
</svg>
