<svg
  width="60"
  height="60"
  viewBox="0 0 60 60"
  fill="currentColor"
  xmlns="http://www.w3.org/2000/svg"
>
  <path
    fill-rule="evenodd"
    clip-rule="evenodd"
    d="M57.6119 27.6611C57.9397 29.2032 57.9397 30.797 57.6119 32.3391C57.2402 34.0878 56.3128 35.6926 54.971 38.0145C54.912 38.1166 54.8522 38.2201 54.7917 38.3251L49.6055 47.3077C49.5449 47.4127 49.4852 47.5162 49.4263 47.6184C48.0863 49.9413 47.1602 51.5468 45.8316 52.7431C44.66 53.798 43.2797 54.5949 41.7803 55.0821C40.08 55.6346 38.2265 55.6339 35.5448 55.6328C35.4268 55.6328 35.3073 55.6327 35.1862 55.6327H24.8139C24.6927 55.6327 24.5732 55.6328 24.4553 55.6328C21.7736 55.6339 19.9201 55.6346 18.2197 55.0821C16.7203 54.5949 15.3401 53.798 14.1685 52.7431C12.8399 51.5468 11.9137 49.9413 10.5738 47.6184C10.5149 47.5162 10.4551 47.4127 10.3945 47.3077L5.20839 38.3251C5.1478 38.2201 5.088 38.1166 5.029 38.0145C3.68726 35.6926 2.75988 34.0878 2.38817 32.3391C2.06039 30.7969 2.06039 29.2032 2.38817 27.661C2.75988 25.9123 3.68726 24.3075 5.029 21.9856C5.088 21.8835 5.1478 21.78 5.20839 21.6751L10.3945 12.6924C10.4551 12.5874 10.5148 12.4839 10.5738 12.3818C11.9137 10.0588 12.8399 8.45327 14.1685 7.25699C15.3401 6.20206 16.7203 5.40517 18.2197 4.91798C19.9201 4.36552 21.7736 4.36624 24.4553 4.36728C24.5732 4.36732 24.6927 4.36737 24.8139 4.36737L35.1862 4.36737C35.3074 4.36737 35.4269 4.36732 35.5448 4.36728C38.2265 4.36624 40.08 4.36552 41.7803 4.91798C43.2797 5.40517 44.66 6.20206 45.8316 7.25699C47.1602 8.45327 48.0863 10.0588 49.4263 12.3818C49.4852 12.4839 49.5449 12.5874 49.6055 12.6924L54.7917 21.6751C54.8522 21.78 54.912 21.8835 54.971 21.9856C56.3128 24.3074 57.2402 25.9123 57.6119 27.6611ZM53.2102 31.4035C53.4069 30.4782 53.4069 29.5219 53.2102 28.5967C53.0055 27.6337 52.4848 26.6795 50.8945 23.9251L45.7084 14.9424C44.1181 12.1879 43.5521 11.2599 42.8205 10.6011C42.1175 9.96819 41.2894 9.49005 40.3897 9.19774C39.4534 8.89351 38.3667 8.86737 35.1862 8.86737L24.8139 8.86737C21.6333 8.86737 20.5466 8.89351 19.6103 9.19774C18.7107 9.49005 17.8825 9.96818 17.1795 10.6011C16.4479 11.2599 15.8819 12.1879 14.2917 14.9424L9.10551 23.9251C7.51523 26.6795 6.99452 27.6337 6.78984 28.5967C6.59316 29.5219 6.59316 30.4782 6.78984 31.4035C6.99452 32.3664 7.51523 33.3206 9.10551 36.0751L14.2917 45.0577C15.8819 47.8122 16.4479 48.7402 17.1795 49.399C17.8825 50.0319 18.7107 50.5101 19.6103 50.8024C20.5466 51.1066 21.6333 51.1327 24.8139 51.1327H35.1862C38.3667 51.1327 39.4534 51.1066 40.3897 50.8024C41.2894 50.5101 42.1175 50.0319 42.8205 49.399C43.5521 48.7402 44.1181 47.8122 45.7084 45.0577L50.8945 36.0751C52.4848 33.3206 53.0055 32.3664 53.2102 31.4035Z"
  />
  <path
    fill-rule="evenodd"
    clip-rule="evenodd"
    d="M30 21.7501C25.4437 21.7501 21.75 25.4437 21.75 30.0001C21.75 34.5564 25.4437 38.2501 30 38.2501C34.5564 38.2501 38.25 34.5564 38.25 30.0001C38.25 25.4437 34.5564 21.7501 30 21.7501ZM17.25 30.0001C17.25 22.9584 22.9584 17.2501 30 17.2501C37.0417 17.2501 42.75 22.9584 42.75 30.0001C42.75 37.0417 37.0417 42.7501 30 42.7501C22.9584 42.7501 17.25 37.0417 17.25 30.0001Z"
  />
</svg>
