<svg
  width="60"
  height="60"
  viewBox="0 0 60 60"
  fill="currentColor"
  xmlns="http://www.w3.org/2000/svg"
>
  <path
    fill-rule="evenodd"
    clip-rule="evenodd"
    d="M24.455 4.36721C24.5729 4.36726 24.6925 4.36731 24.8136 4.36731L35.1859 4.36731C35.3071 4.36731 35.4266 4.36726 35.5445 4.36722C38.2262 4.36617 40.0798 4.36546 41.7801 4.91792C43.2795 5.40511 44.6597 6.202 45.8313 7.25693C47.16 8.45321 48.0861 10.0588 49.426 12.3817C49.485 12.4838 49.5447 12.5874 49.6053 12.6923L54.7914 21.675C54.852 21.7799 54.9118 21.8834 54.9708 21.9855C56.3125 24.3074 57.2399 25.9122 57.6116 27.661C57.9394 29.2031 57.9394 30.7969 57.6116 32.339C57.2399 34.0878 56.3125 35.6926 54.9708 38.0145C54.9118 38.1166 54.852 38.2201 54.7914 38.325L49.6053 47.3077C49.5447 47.4126 49.485 47.5161 49.426 47.6183C48.0861 49.9412 47.16 51.5468 45.8313 52.7431C44.6597 53.798 43.2795 54.5949 41.7801 55.0821C40.0798 55.6345 38.2262 55.6338 35.5446 55.6328C35.4266 55.6327 35.3071 55.6327 35.1859 55.6327H24.8136C24.6924 55.6327 24.5729 55.6327 24.455 55.6328C21.7733 55.6338 19.9198 55.6345 18.2195 55.0821C16.7201 54.5949 15.3398 53.798 14.1682 52.7431C12.8396 51.5468 11.9135 49.9412 10.5735 47.6183C10.5146 47.5161 10.4549 47.4126 10.3943 47.3077L5.20815 38.325C5.14757 38.2201 5.08777 38.1166 5.02878 38.0145C3.68703 35.6926 2.75964 34.0878 2.38793 32.339C2.06014 30.7969 2.06014 29.2031 2.38793 27.661C2.75964 25.9122 3.68703 24.3074 5.02878 21.9855C5.08777 21.8834 5.14757 21.7799 5.20815 21.675L10.3943 12.6923C10.4549 12.5874 10.5146 12.4838 10.5735 12.3817C11.9135 10.0588 12.8396 8.45321 14.1682 7.25693C15.3398 6.202 16.7201 5.40511 18.2195 4.91792C19.9198 4.36545 21.7733 4.36617 24.455 4.36721ZM24.8136 8.86731C21.6331 8.86731 20.5464 8.89345 19.6101 9.19768C18.7104 9.48999 17.8823 9.96812 17.1793 10.6011C16.4477 11.2598 15.8817 12.1879 14.2914 14.9423L9.10526 23.925C7.51499 26.6794 6.99428 27.6336 6.78959 28.5966C6.59292 29.5219 6.59292 30.4781 6.78959 31.4034C6.99428 32.3664 7.51499 33.3206 9.10526 36.075L14.2914 45.0577C15.8817 47.8121 16.4477 48.7402 17.1793 49.3989C17.8823 50.0319 18.7104 50.51 19.6101 50.8023C20.5464 51.1065 21.6331 51.1327 24.8136 51.1327H35.1859C38.3665 51.1327 39.4532 51.1065 40.3895 50.8023C41.2891 50.51 42.1173 50.0319 42.8203 49.3989C43.5519 48.7402 44.1179 47.8121 45.7081 45.0577L50.8943 36.075C52.4846 33.3206 53.0053 32.3664 53.21 31.4034C53.4066 30.4781 53.4066 29.5219 53.21 28.5966C53.0053 27.6336 52.4846 26.6794 50.8943 23.925L45.7081 14.9423C44.1179 12.1879 43.5519 11.2598 42.8203 10.6011C42.1173 9.96812 41.2891 9.48999 40.3895 9.19768C39.4532 8.89345 38.3665 8.86731 35.1859 8.86731L24.8136 8.86731ZM29.9998 21.75C25.4434 21.75 21.7498 25.4436 21.7498 30C21.7498 34.5563 25.4434 38.25 29.9998 38.25C34.5561 38.25 38.2498 34.5563 38.2498 30C38.2498 25.4436 34.5561 21.75 29.9998 21.75ZM17.2498 30C17.2498 22.9584 22.9581 17.25 29.9998 17.25C37.0414 17.25 42.7498 22.9584 42.7498 30C42.7498 37.0416 37.0414 42.75 29.9998 42.75C22.9581 42.75 17.2498 37.0416 17.2498 30Z"
  />
</svg>
