<svg
  width="60"
  height="60"
  viewBox="0 0 60 60"
  fill="currentColor"
  xmlns="http://www.w3.org/2000/svg"
>
  <path
    fill-rule="evenodd"
    clip-rule="evenodd"
    d="M32.75 13C32.75 7.33908 37.3391 2.75 43 2.75C48.6609 2.75 53.25 7.33908 53.25 13C53.25 18.6609 48.6609 23.25 43 23.25C39.5552 23.25 36.5073 21.5506 34.6488 18.9445L22.4378 25.9945C22.9607 27.225 23.25 28.5787 23.25 30C23.25 31.4213 22.9607 32.7751 22.4378 34.0056L34.6487 41.0556C36.5072 38.4494 39.5551 36.75 43 36.75C48.6609 36.75 53.25 41.3391 53.25 47C53.25 52.6609 48.6609 57.25 43 57.25C37.3391 57.25 32.75 52.6609 32.75 47C32.75 46.4007 32.8014 45.8134 32.9001 45.2422L19.7938 37.6753C17.9851 39.2774 15.6062 40.25 13 40.25C7.33908 40.25 2.75 35.6609 2.75 30C2.75 24.3391 7.33908 19.75 13 19.75C15.6062 19.75 17.9853 20.7227 19.7939 22.3249L32.9002 14.758C32.8014 14.1868 32.75 13.5994 32.75 13ZM43 7.25C39.8244 7.25 37.25 9.82436 37.25 13C37.25 16.1756 39.8244 18.75 43 18.75C46.1756 18.75 48.75 16.1756 48.75 13C48.75 9.82436 46.1756 7.25 43 7.25ZM7.25 30C7.25 26.8244 9.82436 24.25 13 24.25C16.1756 24.25 18.75 26.8244 18.75 30C18.75 33.1756 16.1756 35.75 13 35.75C9.82436 35.75 7.25 33.1756 7.25 30ZM37.25 47C37.25 43.8244 39.8244 41.25 43 41.25C46.1756 41.25 48.75 43.8244 48.75 47C48.75 50.1756 46.1756 52.75 43 52.75C39.8244 52.75 37.25 50.1756 37.25 47Z"
  />
</svg>
