<svg
  width="60"
  height="60"
  viewBox="0 0 60 60"
  fill="currentColor"
  xmlns="http://www.w3.org/2000/svg"
>
  <path
    fill-rule="evenodd"
    clip-rule="evenodd"
    d="M31.1609 7.74429C30.4065 7.49865 29.5935 7.49865 28.8391 7.74429L13.3391 12.7908C11.7951 13.2935 10.75 14.7328 10.75 16.3566V31.0001C10.75 35.9279 13.1892 40.6327 16.8346 44.4551C20.4841 48.2819 25.1337 50.9965 29.0934 52.0095C29.6897 52.1621 30.3103 52.1621 30.9066 52.0095C34.8663 50.9965 39.5159 48.2819 43.1654 44.4551C46.8108 40.6327 49.25 35.9279 49.25 31.0001V16.3566C49.25 14.7328 48.2049 13.2935 46.6609 12.7908L31.1609 7.74429ZM27.4459 3.46537C29.1058 2.92495 30.8942 2.92496 32.5541 3.46537L48.0541 8.51188C51.4509 9.61781 53.75 12.7843 53.75 16.3566V31.0001C53.75 37.4336 50.5867 43.1937 46.4219 47.5608C42.2613 51.9235 36.8931 55.1229 32.022 56.3691C30.6939 56.7089 29.3061 56.7089 27.978 56.3691C23.1069 55.1229 17.7387 51.9235 13.5781 47.5608C9.41327 43.1937 6.25 37.4336 6.25 31.0001V16.3566C6.25 12.7843 8.54912 9.61781 11.9459 8.51188L27.4459 3.46537Z"
  />
  <path
    fill-rule="evenodd"
    clip-rule="evenodd"
    d="M43.2127 20.7174C44.0914 21.5961 44.0914 23.0207 43.2127 23.8994L31.3136 35.7985C29.6538 37.4582 26.9629 37.4582 25.3032 35.7985L18.409 28.9044C17.5303 28.0257 17.5303 26.6011 18.409 25.7224C19.2877 24.8437 20.7123 24.8437 21.591 25.7224L28.3084 32.4398L40.0307 20.7174C40.9094 19.8387 42.334 19.8387 43.2127 20.7174Z"
  />
</svg>
