<svg
  width="60"
  height="60"
  viewBox="0 0 60 60"
  fill="currentColor"
  xmlns="http://www.w3.org/2000/svg"
>
  <path
    fill-rule="evenodd"
    clip-rule="evenodd"
    d="M7.59617 35.8051C6.08746 34.5502 5.25576 32.6596 5.35016 30.6994C5.42025 29.244 6.21116 27.9858 7.03663 26.9056C7.88419 25.7965 9.10624 24.4635 10.596 22.8383L23.6837 8.56081C24.4507 7.72395 25.1192 6.99464 25.719 6.4419C26.3521 5.85843 27.0649 5.32009 27.9656 5.01004C29.2838 4.55623 30.716 4.55622 32.0343 5.01003C32.935 5.32009 33.6477 5.85843 34.2809 6.44189C34.8807 6.99464 35.5491 7.72395 36.3162 8.56081L49.4039 22.8383C50.8937 24.4634 52.1157 25.7965 52.9633 26.9056C53.7888 27.9858 54.5797 29.244 54.6498 30.6994C54.7442 32.6596 53.9125 34.5502 52.4038 35.8051C51.2836 36.7369 49.8216 37.0041 48.4676 37.1255C47.3352 37.227 45.9254 37.2458 44.25 37.2493V38.6847C44.25 39.7325 44.2501 40.651 44.188 41.4105C44.1222 42.2166 43.9753 43.0396 43.5688 43.8375C42.9696 45.0135 42.0134 45.9697 40.8374 46.5689C40.0396 46.9754 39.2166 47.1222 38.4104 47.1881C37.6509 47.2502 36.7324 47.2501 35.6846 47.2501H24.3154C23.2676 47.2501 22.3491 47.2502 21.5896 47.1881C20.7834 47.1222 19.9604 46.9754 19.1626 46.5689C17.9865 45.9697 17.0304 45.0135 16.4312 43.8375C16.0247 43.0396 15.8778 42.2166 15.812 41.4105C15.7499 40.651 15.7499 39.7324 15.75 38.6847L15.75 37.2493C14.0746 37.2458 12.6648 37.227 11.5324 37.1255C10.1783 37.0041 8.71638 36.7369 7.59617 35.8051ZM9.84495 30.9159C9.81852 31.4647 10.0514 31.9941 10.4738 32.3455C10.4871 32.3544 10.7606 32.5383 11.9342 32.6435C13.0988 32.7479 14.7033 32.7501 17.0487 32.7501H18C18.5967 32.7501 19.169 32.9871 19.591 33.4091C20.0129 33.8311 20.25 34.4034 20.25 35.0001V38.6001C20.25 39.7573 20.2517 40.4899 20.297 41.044C20.3401 41.5719 20.4113 41.7368 20.4407 41.7946C20.6085 42.1238 20.8762 42.3916 21.2055 42.5593C21.2633 42.5888 21.4282 42.6599 21.956 42.703C22.5102 42.7483 23.2428 42.7501 24.4 42.7501H35.6C36.7572 42.7501 37.4898 42.7483 38.044 42.703C38.5718 42.6599 38.7367 42.5888 38.7945 42.5593C39.1238 42.3916 39.3915 42.1238 39.5593 41.7946C39.5887 41.7368 39.6598 41.5719 39.703 41.044C39.7482 40.4899 39.75 39.7573 39.75 38.6001V35.0001C39.75 33.7575 40.7574 32.7501 42 32.7501H42.9513C45.2966 32.7501 46.9011 32.7479 48.0657 32.6435C49.2394 32.5383 49.5125 32.3546 49.5258 32.3457C49.9483 31.9943 50.1814 31.4647 50.155 30.9159C50.1526 30.9001 50.1033 30.5743 49.3878 29.638C48.6778 28.7089 47.5953 27.5247 46.0104 25.7958L33.0591 11.6672C32.2145 10.7457 31.6745 10.1594 31.2313 9.751C30.8059 9.35891 30.6292 9.28552 30.5696 9.26498C30.2004 9.13791 29.7994 9.13791 29.4303 9.26498C29.3707 9.28552 29.194 9.35892 28.7686 9.751C28.3254 10.1594 27.7854 10.7457 26.9408 11.6672L13.9895 25.7958C12.4047 27.5247 11.3221 28.709 10.6121 29.638C9.89661 30.5743 9.84734 30.9001 9.84495 30.9159Z"
  />
  <path
    fill-rule="evenodd"
    clip-rule="evenodd"
    d="M15.75 53.0001C15.75 51.7575 16.7574 50.7501 18 50.7501H42C43.2426 50.7501 44.25 51.7575 44.25 53.0001C44.25 54.2428 43.2426 55.2501 42 55.2501H18C16.7574 55.2501 15.75 54.2428 15.75 53.0001Z"
  />
</svg>
