<svg
  width="60"
  height="60"
  viewBox="0 0 60 60"
  fill="currentColor"
  xmlns="http://www.w3.org/2000/svg"
>
  <path
    fill-rule="evenodd"
    clip-rule="evenodd"
    d="M17.771 14.2761C18.1457 7.84759 23.4776 2.75003 30.0001 2.75009C36.5225 2.75015 41.8543 7.84768 42.229 14.2761C42.8827 14.444 43.506 14.6697 44.1074 14.9762C46.2242 16.0547 47.9452 17.7758 49.0238 19.8926C49.7028 21.2253 49.9859 22.6657 50.1199 24.3056C50.25 25.8983 50.25 27.8651 50.25 30.3036V40.6964C50.25 43.1348 50.25 45.1017 50.1199 46.6944C49.9859 48.3343 49.7028 49.7747 49.0238 51.1074C47.9452 53.2242 46.2242 54.9452 44.1074 56.0238C42.7747 56.7028 41.3343 56.9859 39.6944 57.1199C38.1017 57.25 36.135 57.25 33.6966 57.25H26.3036C23.8653 57.25 21.8983 57.25 20.3056 57.1199C18.6657 56.9859 17.2253 56.7028 15.8926 56.0238C13.7758 54.9452 12.0548 53.2242 10.9762 51.1074C10.2972 49.7747 10.0141 48.3343 9.88009 46.6944C9.74996 45.1017 9.74998 43.1348 9.75 40.6963V30.3037C9.74998 27.8652 9.74996 25.8983 9.88009 24.3056C10.0141 22.6657 10.2972 21.2253 10.9762 19.8926C12.0548 17.7758 13.7758 16.0547 15.8926 14.9762C16.494 14.6697 17.1173 14.444 17.771 14.2761ZM22.3456 13.7795C22.931 10.0792 26.1351 7.25005 30.0001 7.25009C33.8649 7.25013 37.069 10.0792 37.6544 13.7795C36.4958 13.75 35.1838 13.75 33.6963 13.75H26.3037C24.8162 13.75 23.5042 13.75 22.3456 13.7795ZM17.75 19.0839V24.5C17.75 25.7426 18.7574 26.75 20 26.75C21.2426 26.75 22.25 25.7426 22.25 24.5V18.2836C23.3701 18.2508 24.7174 18.25 26.4 18.25H33.6C35.2826 18.25 36.6299 18.2508 37.75 18.2836V24.5C37.75 25.7426 38.7574 26.75 40 26.75C41.2426 26.75 42.25 25.7426 42.25 24.5V19.0839C43.4351 19.7349 44.399 20.7279 45.0143 21.9356C45.3162 22.5281 45.5236 23.3104 45.6349 24.672C45.7482 26.0599 45.75 27.8426 45.75 30.4V40.6C45.75 43.1574 45.7482 44.9401 45.6349 46.328C45.5236 47.6896 45.3162 48.4719 45.0143 49.0644C44.3671 50.3345 43.3345 51.3671 42.0644 52.0143C41.4719 52.3162 40.6896 52.5236 39.328 52.6348C37.9401 52.7482 36.1574 52.75 33.6 52.75H26.4C23.8426 52.75 22.0599 52.7482 20.672 52.6348C19.3104 52.5236 18.5281 52.3162 17.9356 52.0143C16.6655 51.3671 15.6329 50.3345 14.9857 49.0644C14.6838 48.4719 14.4764 47.6896 14.3651 46.328C14.2518 44.9401 14.25 43.1574 14.25 40.6V30.4C14.25 27.8426 14.2518 26.0599 14.3651 24.672C14.4764 23.3104 14.6838 22.5281 14.9857 21.9356C15.601 20.7279 16.5649 19.7349 17.75 19.0839Z"
  />
</svg>
