<svg
  width="60"
  height="60"
  viewBox="0 0 60 60"
  fill="currentColor"
  xmlns="http://www.w3.org/2000/svg"
>
  <path
    fill-rule="evenodd"
    clip-rule="evenodd"
    d="M8 5.25C6.75736 5.25 5.75 6.25736 5.75 7.5C5.75 8.74264 6.75736 9.75 8 9.75H8.97911C9.65304 9.75 10.2092 9.89203 10.5 10.5L19.1666 27.745C19.6791 28.8167 19.6536 30.0677 19.0978 31.1176L16.1917 36.6068C15.7386 37.4626 15.7267 38.4846 16.1598 39.3507C17.0482 41.1277 18.8643 42.2502 20.851 42.2502H48C49.2426 42.2502 50.25 41.2429 50.25 40.0002C50.25 38.7576 49.2426 37.7502 48 37.7502H20.851C20.7953 37.7502 20.7406 37.744 20.6877 37.7321L23.0748 33.2231C23.2428 32.9057 23.3888 32.58 23.5127 32.2481C23.55 32.2494 23.5874 32.25 23.6248 32.25H42.9221C45.9523 32.25 48.7387 30.5888 50.1796 27.923L53.6932 21.423C56.6644 15.9262 52.684 9.25 46.4356 9.25H15.5978C15.5022 9.25 15.4078 9.25399 15.3149 9.26179L14.6175 8.8034C13.579 6.63208 11.386 5.25 8.97911 5.25H8ZM24.4068 27.75L17.596 13.75H46.4356C49.2758 13.75 51.085 16.7847 49.7345 19.2832L46.221 25.7832C45.566 26.9949 44.2995 27.75 42.9221 27.75H24.4068Z"
  />
  <path
    d="M25 50.5C25 52.9853 22.9853 55 20.5 55C18.0147 55 16 52.9853 16 50.5C16 48.0147 18.0147 46 20.5 46C22.9853 46 25 48.0147 25 50.5Z"
  />
  <path
    d="M45.5 55C47.9853 55 50 52.9853 50 50.5C50 48.0147 47.9853 46 45.5 46C43.0147 46 41 48.0147 41 50.5C41 52.9853 43.0147 55 45.5 55Z"
  />
</svg>
