<svg
  width="60"
  height="60"
  viewBox="0 0 60 60"
  fill="currentColor"
  xmlns="http://www.w3.org/2000/svg"
>
  <path
    fill-rule="evenodd"
    clip-rule="evenodd"
    d="M33 4.5C33 3.25736 31.9926 2.25 30.75 2.25C29.5074 2.25 28.5 3.25736 28.5 4.5L28.5 55.5C28.5 56.7426 29.5074 57.75 30.75 57.75C31.9926 57.75 33 56.7426 33 55.5V53.25H44.25C48.4504 53.25 50.5506 53.25 52.1549 52.4325C53.5661 51.7135 54.7135 50.5661 55.4325 49.1549C56.25 47.5506 56.25 45.4504 56.25 41.25V18.75C56.25 14.5496 56.25 12.4494 55.4325 10.8451C54.7135 9.43386 53.5661 8.2865 52.1549 7.56745C50.5506 6.75 48.4504 6.75 44.25 6.75H33V4.5ZM33 11.25V25.5316L37.5 28.1297C38.5 28.707 38.5 30.1504 37.5 30.7277L33 33.3258V48.75H44.25C46.4244 48.75 47.7847 48.7465 48.8095 48.6628C49.7819 48.5833 50.0499 48.4546 50.112 48.423C50.6765 48.1354 51.1354 47.6765 51.423 47.112C51.4546 47.0499 51.5833 46.7819 51.6628 45.8095C51.7465 44.7847 51.75 43.4244 51.75 41.25V18.75C51.75 16.5755 51.7465 15.2153 51.6628 14.1905C51.5833 13.2181 51.4546 12.9501 51.423 12.888C51.1354 12.3235 50.6765 11.8646 50.112 11.577C50.0499 11.5454 49.7819 11.4167 48.8095 11.3372C47.7847 11.2535 46.4244 11.25 44.25 11.25H33Z"
  />
  <path
    d="M15.75 9.75H24.6533V14.25H15.75C13.5755 14.25 12.2153 14.2535 11.1905 14.3372C10.2181 14.4167 9.95009 14.5454 9.88803 14.577C9.32354 14.8646 8.8646 15.3235 8.57698 15.888C8.54536 15.9501 8.41668 16.2181 8.33724 17.1905C8.2535 18.2153 8.25 19.5756 8.25 21.75V38.25C8.25 40.4244 8.2535 41.7847 8.33724 42.8095C8.41668 43.7819 8.54536 44.0499 8.57698 44.112C8.8646 44.6765 9.32354 45.1354 9.88803 45.423C9.95009 45.4546 10.2181 45.5833 11.1905 45.6628C12.2153 45.7465 13.5755 45.75 15.75 45.75H24.6533V50.25H15.75C11.5496 50.25 9.44941 50.25 7.84507 49.4325C6.43386 48.7135 5.2865 47.5661 4.56745 46.1549C3.75 44.5506 3.75 42.4504 3.75 38.25V21.75C3.75 17.5496 3.75 15.4494 4.56745 13.8451C5.2865 12.4339 6.43386 11.2865 7.84507 10.5675C9.44941 9.75 11.5496 9.75 15.75 9.75Z"
  />
  <path
    d="M22.5 22.6965L24.75 23.9955V34.3878L22.5 35.6868C21.5 36.2642 20.25 35.5425 20.25 34.3878V23.9955C20.25 22.8408 21.5 22.1191 22.5 22.6965Z"
  />
</svg>
