<svg
  width="60"
  height="60"
  viewBox="0 0 60 60"
  fill="currentColor"
  xmlns="http://www.w3.org/2000/svg"
>
  <path
    fill-rule="evenodd"
    clip-rule="evenodd"
    d="M7.59628 35.805C6.08757 34.5501 5.25587 32.6594 5.35027 30.6993C5.42036 29.2439 6.21126 27.9857 7.03673 26.9055C7.8843 25.7964 9.10634 24.4633 10.5961 22.8382L23.6838 8.56068C24.4509 7.72382 25.1193 6.99452 25.7191 6.44177C26.3522 5.85831 27.065 5.31997 27.9657 5.00992C29.284 4.5561 30.7161 4.5561 32.0344 5.00991C32.9351 5.31996 33.6479 5.8583 34.281 6.44176C34.8808 6.99452 35.5493 7.72383 36.3163 8.56069L49.404 22.8382C50.8938 24.4633 52.1159 25.7964 52.9634 26.9055C53.7889 27.9857 54.5798 29.2439 54.6499 30.6993C54.7443 32.6594 53.9126 34.5501 52.4039 35.805C51.2837 36.7368 49.8218 37.004 48.4677 37.1254C47.3353 37.2269 45.9255 37.2457 44.2501 37.2492V38.6846C44.2501 39.7323 44.2502 40.6509 44.1881 41.4104C44.1223 42.2165 43.9754 43.0395 43.5689 43.8374C42.9697 45.0134 42.0136 45.9695 40.8375 46.5687C40.0397 46.9753 39.2167 47.1221 38.4105 47.188C37.651 47.25 36.7325 47.25 35.6847 47.25H24.3155C23.2677 47.25 22.3492 47.25 21.5897 47.188C20.7835 47.1221 19.9605 46.9753 19.1627 46.5687C17.9866 45.9695 17.0305 45.0134 16.4313 43.8374C16.0248 43.0395 15.8779 42.2165 15.8121 41.4104C15.75 40.6508 15.7501 39.7323 15.7501 38.6845L15.7501 37.2492C14.0747 37.2457 12.6649 37.2269 11.5325 37.1254C10.1784 37.004 8.71649 36.7368 7.59628 35.805ZM9.84506 30.9158C9.81863 31.4646 10.0515 31.994 10.4739 32.3454C10.4872 32.3543 10.7607 32.5381 11.9343 32.6434C13.0989 32.7478 14.7034 32.75 17.0488 32.75H18.0001C18.5968 32.75 19.1691 32.987 19.5911 33.409C20.0131 33.8309 20.2501 34.4032 20.2501 35V38.5999C20.2501 39.7572 20.2519 40.4898 20.2971 41.0439C20.3403 41.5718 20.4114 41.7367 20.4408 41.7944C20.6086 42.1237 20.8763 42.3914 21.2056 42.5592C21.2634 42.5886 21.4283 42.6598 21.9561 42.7029C22.5103 42.7482 23.2429 42.7499 24.4001 42.7499H35.6001C36.7573 42.7499 37.4899 42.7482 38.0441 42.7029C38.5719 42.6598 38.7368 42.5886 38.7946 42.5592C39.1239 42.3914 39.3916 42.1237 39.5594 41.7944C39.5888 41.7367 39.66 41.5718 39.7031 41.0439C39.7484 40.4898 39.7501 39.7572 39.7501 38.5999V35C39.7501 33.7573 40.7575 32.75 42.0001 32.75H42.9514C45.2967 32.75 46.9012 32.7478 48.0658 32.6434C49.2395 32.5381 49.5126 32.3545 49.5259 32.3455C49.9484 31.9942 50.1816 31.4646 50.1551 30.9158C50.1527 30.9 50.1034 30.5742 49.388 29.6379C48.678 28.7088 47.5954 27.5246 46.0105 25.7957L33.0592 11.667C32.2146 10.7456 31.6746 10.1593 31.2314 9.75087C30.806 9.35879 30.6293 9.28539 30.5697 9.26486C30.2005 9.13779 29.7995 9.13779 29.4304 9.26486C29.3708 9.28539 29.1941 9.3588 28.7687 9.75087C28.3255 10.1593 27.7855 10.7456 26.9409 11.667L13.9896 25.7957C12.4048 27.5246 11.3222 28.7088 10.6122 29.6379C9.89672 30.5742 9.84745 30.9 9.84506 30.9158Z"
  />
  <path
    fill-rule="evenodd"
    clip-rule="evenodd"
    d="M15.7501 53C15.7501 51.7573 16.7575 50.75 18.0001 50.75H42.0001C43.2427 50.75 44.2501 51.7573 44.2501 53C44.2501 54.2426 43.2427 55.25 42.0001 55.25H18.0001C16.7575 55.25 15.7501 54.2426 15.7501 53Z"
  />
</svg>
