<svg
  width="60"
  height="60"
  viewBox="0 0 60 60"
  fill="currentColor"
  xmlns="http://www.w3.org/2000/svg"
>
  <path
    fill-rule="evenodd"
    clip-rule="evenodd"
    d="M10.1524 36.8909C7.64958 35.4031 6.32908 32.5213 6.8364 29.6541C7.06187 28.3799 7.76683 27.3043 8.4015 26.4525C9.05595 25.574 9.96347 24.5214 11.0336 23.2801L23.3323 9.01363C23.9352 8.31422 24.4819 7.67997 24.9725 7.18308C25.4926 6.65641 26.1158 6.10783 26.9208 5.71356C28.8633 4.76215 31.1364 4.76215 33.0789 5.71355C33.8839 6.10783 34.5071 6.65641 35.0272 7.18307C35.5178 7.67995 36.0645 8.31418 36.6674 9.01358L48.966 23.2799C50.0362 24.5213 50.9438 25.574 51.5983 26.4525C52.2329 27.3043 52.9379 28.3799 53.1634 29.6541C53.6707 32.5213 52.3502 35.4031 49.8473 36.8909C48.735 37.5522 47.4601 37.7205 46.4004 37.796C45.9768 37.8262 45.5085 37.8447 44.9984 37.856C44.9954 38.3604 44.9866 38.828 44.9599 39.2431C44.9171 39.9111 44.8196 40.6466 44.5283 41.3995C43.8171 43.2379 42.3638 44.6912 40.5255 45.4023C39.7725 45.6936 39.037 45.7912 38.369 45.834C37.7468 45.874 37.0069 45.8739 36.2015 45.8739H23.7981C22.9927 45.8739 22.2527 45.874 21.6305 45.834C20.9626 45.7912 20.2271 45.6936 19.4741 45.4023C17.6358 44.6912 16.1825 43.2379 15.4713 41.3995C15.18 40.6466 15.0825 39.9111 15.0396 39.2431C15.013 38.828 15.0041 38.3604 15.0012 37.856C14.4911 37.8447 14.0229 37.8262 13.5993 37.796C12.5397 37.7205 11.2648 37.5522 10.1524 36.8909ZM13.1626 31.6977C13.2248 31.7131 13.4646 31.7712 14.0258 31.8112C14.8787 31.872 16.0516 31.8738 17.8322 31.8738H17.9998C18.7954 31.8738 19.5585 32.1899 20.1211 32.7525C20.6837 33.3151 20.9998 34.0781 20.9998 34.8738V36.9939C20.9998 37.908 21.0012 38.4524 21.0273 38.8589C21.0435 39.1113 21.0653 39.2189 21.0718 39.2465C21.1734 39.4996 21.3741 39.7002 21.6271 39.8018C21.6547 39.8084 21.7624 39.8302 22.0148 39.8463C22.4213 39.8724 22.9657 39.8739 23.8798 39.8739H36.1198C37.0339 39.8739 37.5783 39.8724 37.9848 39.8463C38.2372 39.8302 38.3448 39.8084 38.3724 39.8018C38.6255 39.7002 38.8261 39.4996 38.9278 39.2465C38.9343 39.2189 38.9561 39.1113 38.9723 38.8589C38.9983 38.4524 38.9998 37.908 38.9998 36.9939V34.8738C38.9998 33.2169 40.3429 31.8738 41.9998 31.8738H42.1676C43.9482 31.8738 45.121 31.872 45.9739 31.8112C46.5351 31.7712 46.7749 31.7131 46.8371 31.6977C47.1402 31.4894 47.3046 31.1306 47.2645 30.765C47.2355 30.7079 47.1229 30.4883 46.7868 30.0371C46.276 29.3515 45.5115 28.4619 44.3489 27.1133L32.1812 12.9988C31.5014 12.2102 31.0882 11.7334 30.7578 11.3988C30.552 11.1904 30.45 11.1131 30.4229 11.0939C30.1548 10.9687 29.8449 10.9687 29.5768 11.0939C29.5497 11.1131 29.4477 11.1904 29.2419 11.3988C28.9115 11.7334 28.4983 12.2102 27.8185 12.9988L15.6508 27.1133C14.4882 28.4619 13.7238 29.3515 13.213 30.0371C12.8768 30.4883 12.7642 30.7079 12.7353 30.765C12.6951 31.1306 12.8595 31.4894 13.1626 31.6977ZM38.38 39.7999L38.3776 39.8005L38.38 39.7999Z"
  />
  <path
    fill-rule="evenodd"
    clip-rule="evenodd"
    d="M14.9999 51.8739C14.9999 50.217 16.343 48.8739 17.9999 48.8739H41.9999C43.6567 48.8739 44.9999 50.217 44.9999 51.8739C44.9999 53.5307 43.6567 54.8739 41.9999 54.8739H17.9999C16.343 54.8739 14.9999 53.5307 14.9999 51.8739Z"
  />
</svg>
