<svg
  width="60"
  height="60"
  viewBox="0 0 60 60"
  fill="currentColor"
  xmlns="http://www.w3.org/2000/svg"
>
  <path
    fill-rule="evenodd"
    clip-rule="evenodd"
    d="M33 4.5C33 3.25736 31.9926 2.25 30.75 2.25C29.5074 2.25 28.5 3.25736 28.5 4.5L28.5 55.5C28.5 56.7426 29.5074 57.75 30.75 57.75C31.9926 57.75 33 56.7426 33 55.5V53.25H44.25C48.4504 53.25 50.5506 53.25 52.1549 52.4325C53.5661 51.7135 54.7135 50.5661 55.4325 49.1549C56.25 47.5506 56.25 45.4504 56.25 41.25V18.75C56.25 14.5496 56.25 12.4494 55.4325 10.8451C54.7135 9.43386 53.5661 8.2865 52.1549 7.56745C50.5506 6.75 48.4504 6.75 44.25 6.75H33V4.5ZM33 11.25V25.5316L37.5 28.1297C38.5 28.707 38.5 30.1504 37.5 30.7277L33 33.3258V48.75H44.25C46.4244 48.75 47.7847 48.7465 48.8095 48.6628C49.7819 48.5833 50.0499 48.4546 50.112 48.423C50.6765 48.1354 51.1354 47.6765 51.423 47.112C51.4546 47.0499 51.5833 46.7819 51.6628 45.8095C51.7465 44.7847 51.75 43.4244 51.75 41.25V18.75C51.75 16.5755 51.7465 15.2153 51.6628 14.1905C51.5833 13.2181 51.4546 12.9501 51.423 12.888C51.1354 12.3235 50.6765 11.8646 50.112 11.577C50.0499 11.5454 49.7819 11.4167 48.8095 11.3372C47.7847 11.2535 46.4244 11.25 44.25 11.25H33Z"
  />
  <path
    d="M13.35 9.75H24.6533V23.9453L22.5 22.7021C21.5 22.1247 20.25 22.8464 20.25 24.0011V34.3934C20.25 35.5481 21.5 36.2698 22.5 35.6925L24.6533 34.4492V50.25H13.35C9.98968 50.25 8.30953 50.25 7.02606 49.596C5.89708 49.0208 4.9792 48.1029 4.40396 46.9739C3.75 45.6905 3.75 44.0103 3.75 40.65V19.35C3.75 15.9897 3.75 14.3095 4.40396 13.0261C4.9792 11.8971 5.89708 10.9792 7.02606 10.404C8.30953 9.75 9.98969 9.75 13.35 9.75Z"
  />
</svg>
