<svg
  width="60"
  height="60"
  viewBox="0 0 60 60"
  fill="currentColor"
  xmlns="http://www.w3.org/2000/svg"
>
  <path
    d="M20.9766 24.8379H16.6699C15.127 24.8379 13.7207 24.4766 12.4512 23.7539C11.1816 23.0117 10.166 22.0156 9.4043 20.7656C8.66211 19.5156 8.29102 18.1094 8.29102 16.5469C8.29102 15.0039 8.66211 13.5977 9.4043 12.3281C10.166 11.0586 11.1816 10.043 12.4512 9.28125C13.7207 8.51953 15.127 8.13867 16.6699 8.13867C18.2129 8.13867 19.6191 8.51953 20.8887 9.28125C22.1582 10.043 23.1641 11.0586 23.9062 12.3281C24.668 13.5977 25.0488 15.0039 25.0488 16.5469V20.8242H34.9512V16.5469C34.9512 15.0039 35.332 13.5977 36.0938 12.3281C36.8555 11.0586 37.8613 10.043 39.1113 9.28125C40.3809 8.51953 41.7871 8.13867 43.3301 8.13867C44.873 8.13867 46.2793 8.51953 47.5488 9.28125C48.8184 10.043 49.8242 11.0586 50.5664 12.3281C51.3281 13.5977 51.709 15.0039 51.709 16.5469C51.709 18.1094 51.3281 19.5156 50.5664 20.7656C49.8242 22.0156 48.8184 23.0117 47.5488 23.7539C46.2793 24.4766 44.873 24.8379 43.3301 24.8379H39.0527V34.8867H43.3301C44.873 34.8867 46.2793 35.2578 47.5488 36C48.8184 36.7227 49.8242 37.709 50.5664 38.959C51.3281 40.209 51.709 41.6152 51.709 43.1777C51.709 44.7207 51.3281 46.127 50.5664 47.3965C49.8242 48.666 48.8184 49.6816 47.5488 50.4434C46.2793 51.2051 44.873 51.5859 43.3301 51.5859C41.7871 51.5859 40.3809 51.2051 39.1113 50.4434C37.8613 49.6816 36.8555 48.666 36.0938 47.3965C35.332 46.127 34.9512 44.7207 34.9512 43.1777V38.9004H25.0488V43.1777C25.0488 44.7207 24.668 46.127 23.9062 47.3965C23.1641 48.666 22.1582 49.6816 20.8887 50.4434C19.6191 51.2051 18.2129 51.5859 16.6699 51.5859C15.127 51.5859 13.7207 51.2051 12.4512 50.4434C11.1816 49.6816 10.166 48.666 9.4043 47.3965C8.66211 46.127 8.29102 44.7207 8.29102 43.1777C8.29102 41.6152 8.66211 40.209 9.4043 38.959C10.166 37.709 11.1816 36.7227 12.4512 36C13.7207 35.2578 15.127 34.8867 16.6699 34.8867H20.9766V24.8379ZM16.6699 20.8828H20.9766V16.5469C20.9766 15.375 20.5469 14.3691 19.6875 13.5293C18.8477 12.6699 17.8418 12.2402 16.6699 12.2402C15.498 12.2402 14.4824 12.6699 13.623 13.5293C12.7832 14.3691 12.3633 15.375 12.3633 16.5469C12.3633 17.7383 12.7832 18.7637 13.623 19.623C14.4824 20.4629 15.498 20.8828 16.6699 20.8828ZM43.3301 20.8828C44.502 20.8828 45.5078 20.4629 46.3477 19.623C47.207 18.7637 47.6367 17.7383 47.6367 16.5469C47.6367 15.375 47.207 14.3691 46.3477 13.5293C45.5078 12.6699 44.502 12.2402 43.3301 12.2402C42.1582 12.2402 41.1523 12.6699 40.3125 13.5293C39.4727 14.3691 39.0527 15.375 39.0527 16.5469V20.8828H43.3301ZM25.0488 34.9453H34.9512V24.7793H25.0488V34.9453ZM16.6699 38.8125C15.498 38.8125 14.4824 39.2422 13.623 40.1016C12.7832 40.9414 12.3633 41.957 12.3633 43.1484C12.3633 44.3203 12.7832 45.3359 13.623 46.1953C14.4824 47.0352 15.498 47.4551 16.6699 47.4551C17.8418 47.4551 18.8477 47.0352 19.6875 46.1953C20.5469 45.3359 20.9766 44.3203 20.9766 43.1484V38.8125H16.6699ZM43.3301 38.8125H39.0527V43.1484C39.0527 44.3203 39.4727 45.3359 40.3125 46.1953C41.1523 47.0352 42.1582 47.4551 43.3301 47.4551C44.502 47.4551 45.5078 47.0352 46.3477 46.1953C47.207 45.3359 47.6367 44.3203 47.6367 43.1484C47.6367 41.957 47.207 40.9414 46.3477 40.1016C45.5078 39.2422 44.502 38.8125 43.3301 38.8125Z"
  />
</svg>
