<svg xmlns="http://www.w3.org/2000/svg" width="1em" height="1em" viewBox="0 0 14 14" fill="none">
  <path
    d="M7.17529 12.3471H10.3253C11.3054 12.3471 11.7954 12.3471 12.1698 12.1563C12.4991 11.9886 12.7668 11.7208 12.9346 11.3916C13.1253 11.0172 13.1253 10.5272 13.1253 9.54707V4.29707C13.1253 3.31698 13.1253 2.82693 12.9346 2.45259C12.7668 2.1233 12.4991 1.85559 12.1698 1.68781C11.7954 1.49707 11.3054 1.49707 10.3253 1.49707H7.17529V2.54707H7.7002V5.9892L8.75039 6.59553C8.98372 6.73025 8.98372 7.06703 8.75039 7.20175L7.7002 7.80808V11.2971H7.17529V12.3471Z"
    fill="#1577F7" />
  <path fill-rule="evenodd" clip-rule="evenodd"
    d="M5.75244 2.27832H3.115C2.33093 2.27832 1.93889 2.27832 1.63941 2.43091C1.37599 2.56513 1.16181 2.77931 1.02759 3.04273C0.875 3.34221 0.875 3.73425 0.875 4.51832V9.48832C0.875 10.2724 0.875 10.6644 1.02759 10.9639C1.16181 11.2273 1.37599 11.4415 1.63941 11.5757C1.93889 11.7283 2.33093 11.7283 3.115 11.7283H5.75244V2.27832ZM5.7498 5.59L5.2499 5.30138C5.01657 5.16667 4.7249 5.33506 4.7249 5.60449V8.02936C4.7249 8.29879 5.01657 8.46718 5.2499 8.33247L5.7498 8.04385V5.59Z"
    fill="#1577F7" />
  <path
    d="M7.6999 1.04648C7.6999 0.756535 7.46485 0.521484 7.1749 0.521484C6.88495 0.521484 6.6499 0.756535 6.6499 1.04648L6.6499 12.9465C6.6499 13.2364 6.88495 13.4715 7.1749 13.4715C7.46485 13.4715 7.6999 13.2364 7.6999 12.9465L7.6999 7.80374L8.75039 7.19724C8.98372 7.06253 8.98372 6.72574 8.75039 6.59102L7.6999 5.98452L7.6999 1.04648Z"
    fill="#8CD5B4" />
  <path
    d="M5.75 4.96107L5.02529 4.54172C4.79196 4.40671 4.5 4.57508 4.5 4.84466V8.8386C4.5 9.10818 4.79196 9.27655 5.02529 9.14154L5.75 8.72219V4.96107Z"
    fill="#8CD5B4" />
</svg>