<svg
  width="60"
  height="60"
  viewBox="0 0 60 60"
  fill="currentColor"
  xmlns="http://www.w3.org/2000/svg"
>
  <path
    d="M20.4492 26.0098H16.9336C15.2539 25.9902 13.7109 25.5801 12.3047 24.7793C10.918 23.959 9.80469 22.8652 8.96484 21.498C8.14453 20.1113 7.73438 18.5684 7.73438 16.8691C7.73438 15.1699 8.14453 13.627 8.96484 12.2402C9.80469 10.8535 10.918 9.74023 12.3047 8.90039C13.7109 8.06055 15.2637 7.64062 16.9629 7.64062C18.6426 7.64062 20.1758 8.06055 21.5625 8.90039C22.9492 9.74023 24.0527 10.8633 24.873 12.2695C25.7129 13.6562 26.1328 15.1895 26.1328 16.8691V20.2969H33.8379V16.8691C33.8379 15.1895 34.2578 13.6562 35.0977 12.2695C35.9375 10.8633 37.0508 9.74023 38.4375 8.90039C39.8242 8.06055 41.3574 7.64062 43.0371 7.64062C44.7363 7.64062 46.2793 8.06055 47.666 8.90039C49.0723 9.74023 50.1855 10.8535 51.0059 12.2402C51.8262 13.627 52.2363 15.1699 52.2363 16.8691C52.2363 18.5684 51.8262 20.1113 51.0059 21.498C50.1855 22.8652 49.0723 23.959 47.666 24.7793C46.2793 25.5801 44.7363 25.9902 43.0371 26.0098H39.5508V33.7441H43.0371C44.7363 33.7637 46.2793 34.1836 47.666 35.0039C49.0723 35.8047 50.1855 36.8984 51.0059 38.2852C51.8262 39.6523 52.2363 41.1855 52.2363 42.8848C52.2363 44.5645 51.8262 46.1074 51.0059 47.5137C50.1855 48.9004 49.0723 50.0137 47.666 50.8535C46.2793 51.6934 44.7363 52.1133 43.0371 52.1133C41.3574 52.1133 39.8242 51.6934 38.4375 50.8535C37.0508 50.0137 35.9375 48.9004 35.0977 47.5137C34.2578 46.1074 33.8379 44.5645 33.8379 42.8848V39.457H26.1328V42.8848C26.1328 44.5645 25.7129 46.1074 24.873 47.5137C24.0527 48.9004 22.9492 50.0137 21.5625 50.8535C20.1758 51.6934 18.6426 52.1133 16.9629 52.1133C15.2637 52.1133 13.7109 51.6934 12.3047 50.8535C10.918 50.0137 9.80469 48.9004 8.96484 47.5137C8.14453 46.1074 7.73438 44.5645 7.73438 42.8848C7.73438 41.1855 8.14453 39.6523 8.96484 38.2852C9.80469 36.8984 10.918 35.8047 12.3047 35.0039C13.7109 34.1836 15.2539 33.7637 16.9336 33.7441H20.4492V26.0098ZM17.1094 20.3555H20.4199V17.0449C20.4199 16.0293 20.0781 15.1699 19.3945 14.4668C18.7109 13.7637 17.9004 13.4121 16.9629 13.4121C16.0059 13.4121 15.1855 13.7539 14.502 14.4375C13.8379 15.1016 13.5059 15.9121 13.5059 16.8691C13.5059 17.8262 13.8477 18.6465 14.5312 19.3301C15.2344 20.0137 16.0938 20.3555 17.1094 20.3555ZM42.8613 20.3555C43.877 20.3555 44.7363 20.0137 45.4395 19.3301C46.1426 18.6465 46.4941 17.8262 46.4941 16.8691C46.4941 15.9121 46.1523 15.1016 45.4688 14.4375C44.8047 13.7539 43.9941 13.4121 43.0371 13.4121C42.0996 13.4121 41.2891 13.7637 40.6055 14.4668C39.9219 15.1699 39.5801 16.0293 39.5801 17.0449V20.3555H42.8613ZM26.1621 33.7734H33.8379V25.9805H26.1621V33.7734ZM17.1094 39.3691C16.0938 39.3691 15.2344 39.7109 14.5312 40.3945C13.8477 41.0781 13.5059 41.8984 13.5059 42.8555C13.5059 43.8125 13.8379 44.6328 14.502 45.3164C15.1855 45.9805 16.0059 46.3125 16.9629 46.3125C17.9004 46.3125 18.7109 45.9707 19.3945 45.2871C20.0781 44.584 20.4199 43.7246 20.4199 42.709V39.3691H17.1094ZM42.8613 39.3691H39.5801V42.709C39.5801 43.7246 39.9219 44.584 40.6055 45.2871C41.2891 45.9707 42.0996 46.3125 43.0371 46.3125C43.9941 46.3125 44.8047 45.9805 45.4688 45.3164C46.1523 44.6328 46.4941 43.8125 46.4941 42.8555C46.4941 41.8984 46.1426 41.0781 45.4395 40.3945C44.7363 39.7109 43.877 39.3691 42.8613 39.3691Z"
  />
</svg>
