<svg
  width="60"
  height="60"
  viewBox="0 0 60 60"
  fill="currentColor"
  xmlns="http://www.w3.org/2000/svg"
>
  <path
    fill-rule="evenodd"
    clip-rule="evenodd"
    d="M57.4823 26.3959C47.5621 1.58256 12.4379 1.58256 2.51771 26.3959C1.59273 28.7095 1.59273 31.2902 2.5177 33.6038C12.4379 58.4172 47.5621 58.4172 57.4823 33.6038C58.4073 31.2902 58.4073 28.7095 57.4823 26.3959ZM6.69615 28.0664C15.1081 7.02572 44.8919 7.02572 53.3039 28.0664C53.8001 29.3076 53.8001 30.6921 53.3039 31.9333C44.892 52.974 15.1081 52.974 6.69615 31.9333C6.19991 30.6921 6.19992 29.3076 6.69615 28.0664ZM23.25 30C23.25 26.2721 26.2721 23.25 30 23.25C33.7279 23.25 36.75 26.2721 36.75 30C36.75 33.7279 33.7279 36.75 30 36.75C26.2721 36.75 23.25 33.7279 23.25 30ZM30 18.75C23.7868 18.75 18.75 23.7868 18.75 30C18.75 36.2132 23.7868 41.25 30 41.25C36.2132 41.25 41.25 36.2132 41.25 30C41.25 23.7868 36.2132 18.75 30 18.75Z"
  />
</svg>
