<svg
  width="60"
  height="60"
  viewBox="0 0 60 60"
  fill="currentColor"
  xmlns="http://www.w3.org/2000/svg"
>
  <path
    fill-rule="evenodd"
    clip-rule="evenodd"
    d="M51.591 11.591C52.4697 10.7123 52.4697 9.28769 51.591 8.40901C50.7123 7.53033 49.2877 7.53033 48.409 8.40901L8.40901 48.409C7.53033 49.2877 7.53033 50.7123 8.40901 51.591C9.28769 52.4697 10.7123 52.4697 11.591 51.591L51.591 11.591ZM2.51746 26.3961C9.35844 9.28486 28.1851 3.97352 42.4668 10.4621L39.0173 13.9116C27.1306 9.45149 12.2518 14.1698 6.6959 28.0666C6.19967 29.3079 6.19967 30.6924 6.69591 31.9336C8.07256 35.377 10.0216 38.2569 12.3557 40.5732L9.164 43.7649C6.42384 41.038 4.13542 37.6511 2.51746 33.6041C1.59249 31.2904 1.59249 28.7098 2.51746 26.3961ZM47.6439 19.4271L50.8357 16.2354C53.5758 18.9623 55.8641 22.3492 57.4821 26.3961C58.407 28.7097 58.407 31.2904 57.4821 33.6041C50.6411 50.7153 31.8146 56.0267 17.5329 49.5382L20.9824 46.0886C32.8691 50.5487 47.7478 45.8303 53.3036 31.9336C53.7999 30.6923 53.7999 29.3079 53.3036 28.0666C51.927 24.6233 49.978 21.7435 47.6439 19.4271ZM29.9998 41.2501C28.7434 41.2501 27.5351 41.0442 26.4069 40.6642L30.3288 36.7422C33.7949 36.5758 36.5755 33.7952 36.7419 30.3292L40.6638 26.4072C41.0438 27.5355 41.2498 28.7437 41.2498 30.0001C41.2498 36.2133 36.213 41.2501 29.9998 41.2501ZM23.2576 29.6713C23.4239 26.205 26.2047 23.4242 29.671 23.258L33.5928 19.3361C32.4645 18.9561 31.2562 18.7501 29.9998 18.7501C23.7866 18.7501 18.7498 23.7869 18.7498 30.0001C18.7498 31.2565 18.9557 32.4649 19.3358 33.5932L23.2576 29.6713Z"
  />
</svg>
