<svg width="256" height="256" viewBox="0 0 256 256" fill="none" xmlns="http://www.w3.org/2000/svg">
<path d="M85.0072 16.6244C103.977 16.6244 119.639 31.2638 122 50.2105L122 53.7341H87.2C86.365 53.7341 85.556 54.0333 84.9114 54.5805L70.372 66.9237C69.288 66.3979 68.0773 66.1041 66.8 66.1041C62.1608 66.1041 58.4 69.9808 58.4 74.763C58.4 79.5452 62.1608 83.4219 66.8 83.4219C71.4392 83.4219 75.2 79.5452 75.2 74.763C75.2 74.0352 75.1129 73.3284 74.9488 72.653L88.49 61.1561H122V124.243L53.9918 124.243C52.6437 121.317 49.751 119.295 46.4 119.295C41.7608 119.295 38 123.171 38 127.954C38 132.736 41.7608 136.613 46.4 136.613C49.7505 136.613 52.6429 134.59 53.9912 131.666L122 131.665V194.751H88.49L74.9488 183.254C75.1129 182.579 75.2 181.872 75.2 181.144C75.2 176.362 71.4392 172.485 66.8 172.485C62.1608 172.485 58.4 176.362 58.4 181.144C58.4 185.926 62.1608 189.803 66.8 189.803C68.0773 189.803 69.288 189.509 70.372 188.984L84.9114 201.327C85.556 201.874 86.365 202.173 87.2 202.173H122L122 205.698C119.372 224.686 103.5 239.283 84.4056 239.283C66.8057 239.283 52.0076 226.881 47.7409 210.071C34.9739 204.321 26.0486 191.16 26.0486 175.844C26.0486 172.233 26.5447 168.742 27.471 165.439C16.0562 159.305 8.21137 147.051 8.0042 132.883L8 131.665C8 116.169 17.2137 102.891 30.3019 97.3357C27.8933 92.7809 26.408 87.6286 26.1059 82.1488L26.0727 81.4104C26.0245 80.6442 26 79.8713 26 79.0925C26 63.7392 35.521 50.6781 48.8088 45.841C52.8494 29.0598 67.5236 16.6244 85.0072 16.6244Z" fill="url(#paint0_linear_1970_2282)"/>
<path fill-rule="evenodd" clip-rule="evenodd" d="M207.291 46.2701C203.4 29.2719 188.625 16.6244 170.993 16.6244C152.023 16.6244 136.361 31.2638 134 50.2105V205.698C136.628 224.686 152.5 239.283 171.594 239.283C189.194 239.283 203.992 226.881 208.259 210.071C221.026 204.321 229.951 191.16 229.951 175.844C229.951 172.233 229.455 168.742 228.529 165.439C240.098 159.222 248 146.718 248 132.307C248 119.34 241.602 107.917 231.892 101.232C231.847 101.952 231.599 102.667 231.138 103.28C223.909 112.877 215.739 118.917 206.744 121.388C206.579 121.837 206.417 122.325 206.263 122.85C205.497 125.463 205.098 128.375 205.245 131.498C205.368 134.102 205.869 136.745 206.808 139.413C207.489 141.35 206.522 143.491 204.649 144.195C202.775 144.9 200.704 143.9 200.023 141.964C198.833 138.581 198.191 135.2 198.034 131.861C197.88 128.592 198.19 125.502 198.846 122.64C189.762 123.064 179.946 120.195 169.503 114.029C167.772 113.007 167.17 110.727 168.159 108.938C169.148 107.148 171.353 106.526 173.084 107.548L173.724 107.922C194.798 120.09 211.654 116.097 225.49 97.7258C228.331 92.5054 229.951 86.48 229.951 80.0634C229.951 64.5905 220.528 51.3928 207.291 46.2701ZM151.949 172.007C151.209 170.093 152.109 167.922 153.961 167.157C155.746 166.419 157.763 167.258 158.568 169.035L158.652 169.236L158.807 169.57C159.124 170.219 159.595 170.999 160.227 171.819C161.266 173.167 162.538 174.341 164.057 175.238C167.772 177.432 172.617 177.823 179.003 175.625C184.24 172.122 190.756 170.452 198.479 170.683C200.472 170.742 202.041 172.461 201.983 174.521C201.926 176.581 200.264 178.203 198.271 178.143C184.065 177.719 175.689 184.697 172.295 199.911C171.847 201.919 169.909 203.171 167.966 202.708C166.023 202.245 164.812 200.242 165.26 198.233C166.447 192.914 168.221 188.343 170.564 184.538C166.805 184.443 163.437 183.468 160.476 181.718C156.32 179.264 153.659 175.813 152.158 172.498L152.123 172.422L151.949 172.007ZM168.401 51.4523C166.408 51.5006 164.83 53.2101 164.877 55.2705C165.029 61.9619 166.425 67.7075 169.024 72.4645C162.871 72.9143 156.861 76.2679 151.393 83.0064C150.112 84.5854 150.311 86.9391 151.839 88.2636C153.366 89.5882 155.643 89.3819 156.924 87.8029C161.385 82.305 165.816 79.9775 170.173 79.8788C171.922 79.8391 173.597 80.168 175.16 80.7701C176.11 81.1362 176.902 81.5543 177.497 81.9421L177.796 82.1461L177.982 82.2822C178.063 82.3382 178.146 82.3904 178.231 82.4375C182.322 85.1451 187.331 87.05 193.229 88.1238C195.192 88.4812 197.064 87.1256 197.41 85.0959C197.756 83.0661 196.445 81.1309 194.481 80.7735C189.481 79.8632 185.351 78.3231 182.059 76.1224L181.738 75.8916L181.369 75.6429C175.325 71.2724 172.308 64.496 172.095 55.0954C172.048 53.035 170.394 51.4039 168.401 51.4523Z" fill="url(#paint1_linear_1970_2282)"/>
<defs>
<linearGradient id="paint0_linear_1970_2282" x1="212.219" y1="233.291" x2="26.1077" y2="57.4382" gradientUnits="userSpaceOnUse">
<stop stop-color="#32C5FF"/>
<stop offset="0.25" stop-color="#5666F5"/>
<stop offset="0.523727" stop-color="#8A57EA"/>
<stop offset="0.820607" stop-color="#EB35CE"/>
<stop offset="1" stop-color="#F7B500"/>
</linearGradient>
<linearGradient id="paint1_linear_1970_2282" x1="212.219" y1="233.291" x2="26.1077" y2="57.4382" gradientUnits="userSpaceOnUse">
<stop stop-color="#32C5FF"/>
<stop offset="0.25" stop-color="#5666F5"/>
<stop offset="0.523727" stop-color="#8A57EA"/>
<stop offset="0.820607" stop-color="#EB35CE"/>
<stop offset="1" stop-color="#F7B500"/>
</linearGradient>
</defs>
</svg>
