<svg
  width="60"
  height="60"
  viewBox="0 0 60 60"
  fill="currentColor"
  xmlns="http://www.w3.org/2000/svg"
>
  <path
    fill-rule="evenodd"
    clip-rule="evenodd"
    d="M20.3037 5.75H39.6963C42.1348 5.74998 44.1017 5.74996 45.6944 5.88009C47.3343 6.01408 48.7747 6.29716 50.1074 6.97618C52.2242 8.05475 53.9452 9.77578 55.0238 11.8926C55.7028 13.2253 55.9859 14.6657 56.1199 16.3056C56.25 17.8983 56.25 19.8651 56.25 22.3036V37.6964C56.25 40.1349 56.25 42.1017 56.1199 43.6944C55.9859 45.3343 55.7028 46.7747 55.0238 48.1074C53.9452 50.2242 52.2242 51.9452 50.1074 53.0238C48.7747 53.7028 47.3343 53.9859 45.6944 54.1199C44.1017 54.25 42.1349 54.25 39.6964 54.25H20.3036C17.8651 54.25 15.8983 54.25 14.3056 54.1199C12.6657 53.9859 11.2253 53.7028 9.89261 53.0238C7.77578 51.9452 6.05475 50.2242 4.97618 48.1074C4.29716 46.7747 4.01408 45.3343 3.88009 43.6944C3.74996 42.1017 3.74998 40.1348 3.75 37.6963V22.3037C3.74998 19.8652 3.74996 17.8983 3.88009 16.3056C4.01408 14.6657 4.29716 13.2253 4.97618 11.8926C6.05475 9.77578 7.77578 8.05475 9.89261 6.97618C11.2253 6.29716 12.6657 6.01408 14.3056 5.88009C15.8983 5.74996 17.8652 5.74998 20.3037 5.75ZM14.672 10.3651C13.3104 10.4764 12.5281 10.6838 11.9356 10.9857C10.6655 11.6329 9.63285 12.6655 8.98571 13.9356C8.68379 14.5281 8.4764 15.3104 8.36515 16.672C8.25175 18.0599 8.25 19.8426 8.25 22.4V37.6C8.25 40.1574 8.25175 41.9401 8.36515 43.328C8.4764 44.6896 8.68379 45.4719 8.98571 46.0644C9.63285 47.3345 10.6655 48.3671 11.9356 49.0143C12.5281 49.3162 13.3104 49.5236 14.672 49.6349C16.0599 49.7482 17.8426 49.75 20.4 49.75H39.6C42.1574 49.75 43.9401 49.7482 45.328 49.6349C46.6896 49.5236 47.4719 49.3162 48.0644 49.0143C49.3345 48.3671 50.3671 47.3345 51.0143 46.0644C51.3162 45.4719 51.5236 44.6896 51.6349 43.328C51.7482 41.9401 51.75 40.1574 51.75 37.6V22.4C51.75 19.8426 51.7482 18.0599 51.6349 16.672C51.5236 15.3104 51.3162 14.5281 51.0143 13.9356C50.3671 12.6655 49.3345 11.6329 48.0644 10.9857C47.4719 10.6838 46.6896 10.4764 45.328 10.3651C43.9401 10.2518 42.1574 10.25 39.6 10.25H20.4C17.8426 10.25 16.0599 10.2518 14.672 10.3651Z"
  />
  <path
    d="M49 19.4C49 17.1598 49 16.0397 48.564 15.184C48.1805 14.4314 47.5686 13.8195 46.816 13.436C45.9603 13 44.8402 13 42.6 13H41.4C39.1598 13 38.0397 13 37.184 13.436C36.4314 13.8195 35.8195 14.4314 35.436 15.184C35 16.0397 35 17.1598 35 19.4V40.6C35 42.8402 35 43.9603 35.436 44.816C35.8195 45.5686 36.4314 46.1805 37.184 46.564C38.0397 47 39.1598 47 41.4 47H42.6C44.8402 47 45.9603 47 46.816 46.564C47.5686 46.1805 48.1805 45.5686 48.564 44.816C49 43.9603 49 42.8402 49 40.6V19.4Z"
  />
</svg>
