<svg
  width="60"
  height="60"
  viewBox="0 0 60 60"
  fill="currentColor"
  xmlns="http://www.w3.org/2000/svg"
>
  <path
    fill-rule="evenodd"
    clip-rule="evenodd"
    d="M22 5.75H20.3037H20.3037H20.3036C17.8651 5.74998 15.8983 5.74996 14.3056 5.88009C12.6657 6.01408 11.2253 6.29716 9.89261 6.97618C7.77579 8.05475 6.05475 9.77579 4.97618 11.8926C4.29716 13.2253 4.01408 14.6657 3.88009 16.3056C3.74996 17.8983 3.74998 19.8651 3.75 22.3036V22.3037V22.3037V37.6963V37.6963V37.6964C3.74998 40.1349 3.74996 42.1017 3.88009 43.6944C4.01408 45.3343 4.29716 46.7747 4.97618 48.1074C6.05475 50.2242 7.77579 51.9452 9.89261 53.0238C11.2253 53.7028 12.6657 53.9859 14.3056 54.1199C15.8983 54.25 17.8651 54.25 20.3035 54.25H20.3036H20.3036H20.3036H22H39.6964H39.6964H39.6964H39.6965C42.1349 54.25 44.1017 54.25 45.6944 54.1199C47.3343 53.9859 48.7747 53.7028 50.1074 53.0238C52.2242 51.9452 53.9452 50.2242 55.0238 48.1074C55.7028 46.7747 55.9859 45.3343 56.1199 43.6944C56.25 42.1017 56.25 40.1349 56.25 37.6965V37.6964V37.6964V37.6964V22.3036V22.3036V22.3036V22.3035C56.25 19.8651 56.25 17.8983 56.1199 16.3056C55.9859 14.6657 55.7028 13.2253 55.0238 11.8926C53.9452 9.77579 52.2242 8.05475 50.1074 6.97618C48.7747 6.29716 47.3343 6.01408 45.6944 5.88009C44.1017 5.74996 42.1348 5.74998 39.6963 5.75H39.6963H22ZM19.75 10.2501C17.5355 10.2512 15.9392 10.2616 14.672 10.3651C13.3104 10.4764 12.5281 10.6838 11.9356 10.9857C10.6655 11.6329 9.63285 12.6655 8.98571 13.9356C8.68379 14.5281 8.4764 15.3104 8.36515 16.672C8.25175 18.0599 8.25 19.8426 8.25 22.4V37.6C8.25 40.1574 8.25175 41.9401 8.36515 43.328C8.4764 44.6896 8.68379 45.4719 8.98571 46.0644C9.63285 47.3345 10.6655 48.3671 11.9356 49.0143C12.5281 49.3162 13.3104 49.5236 14.672 49.6349C15.9392 49.7384 17.5355 49.7489 19.75 49.7499L19.75 10.2501ZM39.6 49.75H24.25L24.25 10.25H39.6C42.1574 10.25 43.9401 10.2518 45.328 10.3651C46.6896 10.4764 47.4719 10.6838 48.0644 10.9857C49.3345 11.6329 50.3671 12.6655 51.0143 13.9356C51.3162 14.5281 51.5236 15.3104 51.6349 16.672C51.7482 18.0599 51.75 19.8426 51.75 22.4V37.6C51.75 40.1574 51.7482 41.9401 51.6349 43.328C51.5236 44.6896 51.3162 45.4719 51.0143 46.0644C50.3671 47.3345 49.3345 48.3671 48.0644 49.0143C47.4719 49.3162 46.6896 49.5236 45.328 49.6349C43.9401 49.7482 42.1574 49.75 39.6 49.75ZM10.75 21C10.75 19.7574 11.7574 18.75 13 18.75H15C16.2426 18.75 17.25 19.7574 17.25 21C17.25 22.2426 16.2426 23.25 15 23.25H13C11.7574 23.25 10.75 22.2426 10.75 21ZM13 27.75C11.7574 27.75 10.75 28.7574 10.75 30C10.75 31.2426 11.7574 32.25 13 32.25H15C16.2426 32.25 17.25 31.2426 17.25 30C17.25 28.7574 16.2426 27.75 15 27.75H13Z"
  />
</svg>
