<svg
  width="60"
  height="60"
  viewBox="0 0 60 60"
  fill="currentColor"
  xmlns="http://www.w3.org/2000/svg"
>
  <path
    fill-rule="evenodd"
    clip-rule="evenodd"
    d="M18.6783 5H41.3217C43.4584 4.99996 45.2418 4.99992 46.6987 5.11896C48.2182 5.24311 49.6448 5.51156 50.9939 6.19893C53.0637 7.25354 54.7465 8.93632 55.8011 11.0061C56.4885 12.3552 56.7569 13.7818 56.881 15.3013C57.0001 16.7582 57 18.5416 57 20.6782V39.3218C57 41.4584 57.0001 43.2418 56.881 44.6987C56.7569 46.2182 56.4885 47.6448 55.8011 48.9939C54.7465 51.0637 53.0637 52.7465 50.9939 53.8011C49.6448 54.4885 48.2182 54.7569 46.6987 54.881C45.2418 55.0001 43.4584 55 41.3218 55H18.6782C16.5416 55 14.7582 55.0001 13.3013 54.881C11.7818 54.7569 10.3552 54.4885 9.00611 53.8011C6.93632 52.7465 5.25354 51.0637 4.19893 48.9939C3.51156 47.6448 3.24311 46.2182 3.11896 44.6987C2.99992 43.2417 2.99996 41.4584 3 39.3217V20.6783C2.99996 18.5416 2.99992 16.7583 3.11896 15.3013C3.24311 13.7818 3.51156 12.3552 4.19893 11.0061C5.25354 8.93632 6.93632 7.25354 9.00611 6.19893C10.3552 5.51156 11.7818 5.24311 13.3013 5.11896C14.7583 4.99992 16.5416 4.99996 18.6783 5ZM13.7899 11.099C12.6414 11.1929 12.0923 11.3604 11.7301 11.545C10.7892 12.0243 10.0243 12.7892 9.54497 13.7301C9.3604 14.0923 9.19287 14.6414 9.09903 15.7899C9.00234 16.9734 9 18.5103 9 20.8V39.2C9 41.4897 9.00234 43.0266 9.09903 44.2101C9.19287 45.3586 9.3604 45.9077 9.54497 46.27C10.0243 47.2108 10.7892 47.9757 11.7301 48.455C12.0923 48.6396 12.6414 48.8071 13.7899 48.901C14.9734 48.9977 16.5103 49 18.8 49H41.2C43.4897 49 45.0266 48.9977 46.2101 48.901C47.3586 48.8071 47.9077 48.6396 48.27 48.455C49.2108 47.9757 49.9757 47.2108 50.455 46.27C50.6396 45.9077 50.8071 45.3586 50.901 44.2101C50.9977 43.0266 51 41.4897 51 39.2V20.8C51 18.5103 50.9977 16.9734 50.901 15.7899C50.8071 14.6414 50.6396 14.0923 50.455 13.7301C49.9757 12.7892 49.2108 12.0243 48.27 11.545C47.9077 11.3604 47.3586 11.1929 46.2101 11.099C45.0266 11.0023 43.4897 11 41.2 11H18.8C16.5103 11 14.9734 11.0023 13.7899 11.099Z"
  />
  <path
    d="M48.5 18.3C48.5 16.6198 48.5 15.7798 48.173 15.138C47.8854 14.5735 47.4265 14.1146 46.862 13.827C46.2202 13.5 45.3802 13.5 43.7 13.5H39.3C37.6198 13.5 36.7798 13.5 36.138 13.827C35.5735 14.1146 35.1146 14.5735 34.827 15.138C34.5 15.7798 34.5 16.6198 34.5 18.3V41.7C34.5 43.3802 34.5 44.2202 34.827 44.862C35.1146 45.4265 35.5735 45.8854 36.138 46.173C36.7798 46.5 37.6198 46.5 39.3 46.5H43.7C45.3802 46.5 46.2202 46.5 46.862 46.173C47.4265 45.8854 47.8854 45.4265 48.173 44.862C48.5 44.2202 48.5 43.3802 48.5 41.7V18.3Z"
  />
</svg>
