<svg
  xmlns="http://www.w3.org/2000/svg"
  width="161"
  height="50"
  viewBox="0 0 161 50"
  fill="currentColor"
>
  <path
    d="M18.2976 3.16443C21.9671 3.16443 24.9968 5.99623 25.4534 9.66122L25.4534 10.3428H18.7218C18.5603 10.3428 18.4038 10.4007 18.2791 10.5065L15.4667 12.8942C15.257 12.7925 15.0228 12.7356 14.7757 12.7356C13.8783 12.7356 13.1508 13.4855 13.1508 14.4106C13.1508 15.3356 13.8783 16.0855 14.7757 16.0855C15.6731 16.0855 16.4006 15.3356 16.4006 14.4106C16.4006 14.2698 16.3837 14.1331 16.352 14.0024L18.9713 11.7785H25.4534V23.9818L12.2981 23.9818C12.0374 23.4159 11.4778 23.0247 10.8296 23.0247C9.9322 23.0247 9.20472 23.7746 9.20472 24.6996C9.20472 25.6247 9.9322 26.3746 10.8296 26.3746C11.4777 26.3746 12.0372 25.9834 12.298 25.4176L25.4534 25.4174V37.6207H18.9713L16.352 35.3968C16.3837 35.2661 16.4006 35.1294 16.4006 34.9886C16.4006 34.0636 15.6731 33.3137 14.7757 33.3137C13.8783 33.3137 13.1508 34.0636 13.1508 34.9886C13.1508 35.9137 13.8783 36.6636 14.7757 36.6636C15.0228 36.6636 15.257 36.6068 15.4667 36.5051L18.2791 38.8927C18.4038 38.9985 18.5603 39.0564 18.7218 39.0564H25.4534L25.4534 39.7383C24.9452 43.4113 21.8748 46.2348 18.1813 46.2348C14.7768 46.2348 11.9143 43.8359 11.089 40.5842C8.61936 39.4718 6.89287 36.926 6.89287 33.9633C6.89287 33.2648 6.98884 32.5895 7.16802 31.9507C4.95998 30.764 3.4425 28.3937 3.40242 25.6531L3.40161 25.4174C3.40161 22.42 5.18388 19.8516 7.71561 18.777C7.24971 17.8959 6.96241 16.8993 6.90396 15.8393L6.89755 15.6964C6.88822 15.5482 6.88348 15.3987 6.88348 15.2481C6.88348 12.2782 8.72519 9.75167 11.2955 8.816C12.0771 5.5699 14.9157 3.16443 18.2976 3.16443Z"
  />
  <path
    fill-rule="evenodd"
    clip-rule="evenodd"
    d="M41.9519 8.899C41.1991 5.61092 38.3411 3.16443 34.9304 3.16443C31.261 3.16443 28.2313 5.99623 27.7747 9.66122V39.7383C28.2829 43.4113 31.3533 46.2348 35.0468 46.2348C38.4513 46.2348 41.3138 43.8359 42.1391 40.5842C44.6087 39.4718 46.3352 36.926 46.3352 33.9633C46.3352 33.2648 46.2393 32.5895 46.0601 31.9507C48.298 30.748 49.8265 28.3294 49.8265 25.5418C49.8265 23.0334 48.5889 20.8238 46.7106 19.5306C46.7018 19.67 46.654 19.8083 46.5647 19.9268C45.1663 21.7833 43.5859 22.9516 41.8461 23.4296C41.8141 23.5164 41.7828 23.6109 41.753 23.7124C41.6048 24.2179 41.5277 24.7811 41.5561 25.3853C41.5798 25.8889 41.6768 26.4002 41.8584 26.9163C41.9902 27.291 41.8032 27.7051 41.4408 27.8414C41.0784 27.9776 40.6777 27.7843 40.5459 27.4097C40.3158 26.7553 40.1916 26.1013 40.1612 25.4554C40.1315 24.8232 40.1914 24.2253 40.3184 23.6718C38.561 23.7537 36.6623 23.1989 34.6423 22.006C34.3074 21.8083 34.191 21.3674 34.3823 21.0212C34.5736 20.675 35.0001 20.5547 35.335 20.7524L35.4587 20.8247C39.5352 23.1784 42.7959 22.4061 45.4722 18.8524C46.0217 17.8426 46.3352 16.6771 46.3352 15.4359C46.3352 12.4428 44.5124 9.88992 41.9519 8.899ZM31.2466 33.2212C31.1035 32.851 31.2777 32.431 31.6358 32.283C31.9811 32.1402 32.3712 32.3026 32.527 32.6463L32.5433 32.6851L32.5733 32.7497C32.6346 32.8753 32.7256 33.0262 32.8479 33.1848C33.049 33.4456 33.295 33.6726 33.5888 33.8462C34.3074 34.2706 35.2447 34.3462 36.4799 33.9211C37.493 33.2434 38.7533 32.9204 40.2474 32.965C40.6329 32.9766 40.9363 33.3089 40.9252 33.7074C40.914 34.1059 40.5925 34.4197 40.207 34.4081C37.459 34.326 35.8388 35.6758 35.1823 38.6188C35.0956 39.0072 34.7207 39.2495 34.3449 39.1599C33.9692 39.0703 33.7348 38.6828 33.8215 38.2943C34.051 37.2654 34.3943 36.3811 34.8474 35.6451C34.1205 35.6268 33.4689 35.4381 32.896 35.0997C32.0922 34.6248 31.5775 33.9574 31.287 33.3161L31.2804 33.3015L31.2466 33.2212ZM34.4291 9.90142C34.0436 9.91077 33.7384 10.2414 33.7475 10.64C33.7768 11.9344 34.0469 13.0458 34.5495 13.966C33.3593 14.053 32.1968 14.7017 31.1391 16.0052C30.8913 16.3106 30.9299 16.7659 31.2253 17.0221C31.5208 17.2783 31.9612 17.2384 32.2091 16.933C33.072 15.8695 33.9291 15.4193 34.7718 15.4002C35.1102 15.3925 35.4342 15.4561 35.7365 15.5726C35.9203 15.6434 36.0735 15.7243 36.1886 15.7993L36.2465 15.8387L36.2824 15.8651C36.2981 15.8759 36.3142 15.886 36.3306 15.8951C37.1219 16.4189 38.0908 16.7873 39.2318 16.995C39.6115 17.0642 39.9736 16.802 40.0405 16.4093C40.1074 16.0167 39.8538 15.6424 39.474 15.5732C38.5068 15.3971 37.7078 15.0992 37.071 14.6735L37.0089 14.6289L36.9376 14.5808C35.7685 13.7354 35.1849 12.4246 35.1436 10.6061C35.1345 10.2076 34.8147 9.89207 34.4291 9.90142Z"
  />
  <path
    d="M71.3542 38.7864C69.4899 38.7864 67.8044 38.4673 66.2977 37.829C64.8164 37.1907 63.6417 36.2716 62.7734 35.0717C61.9051 33.8718 61.4582 32.4548 61.4326 30.8209H67.1787C67.2553 31.9187 67.6384 32.7867 68.328 33.425C69.043 34.0633 70.0135 34.3824 71.2393 34.3824C72.4907 34.3824 73.4739 34.0888 74.189 33.5016C74.9041 32.8889 75.2616 32.0974 75.2616 31.1273C75.2616 30.3358 75.019 29.4639 74.5338 28.9533C74.0485 28.4427 73.4356 28.047 72.695 27.7662C71.9799 27.4598 70.9839 27.1279 69.707 26.7705C67.9704 26.2599 66.553 25.762 65.4549 25.277C64.3823 24.7663 63.4501 24.0132 62.6585 23.0175C61.8923 21.9963 61.5092 20.4223 61.5092 18.7373C61.5092 17.1544 61.9051 15.7758 62.6968 14.6014C63.4885 13.427 64.5994 12.5334 66.0295 11.9207C67.4597 11.2825 69.0941 10.9633 70.9329 10.9633C73.691 10.9633 75.9256 11.6399 77.6367 12.993C79.3733 14.3206 80.331 16.1843 80.5097 18.5841H74.6104C74.5593 17.665 74.1635 16.9119 73.4228 16.3247C72.7078 15.712 71.7501 15.4056 70.5498 15.4056C69.5027 15.4056 68.66 15.6737 68.0215 16.2098C67.4086 16.746 67.1021 17.5246 67.1021 18.5458C67.1021 19.2607 67.332 20.0815 67.7917 20.5666C68.2769 21.0261 68.8643 21.4091 69.5538 21.7155C70.2689 21.9963 71.2649 22.3282 72.5418 22.7112C74.2784 23.2218 75.6958 23.7324 76.7939 24.243C77.8921 24.7536 78.837 25.5195 79.6287 26.5407C80.4203 27.5619 80.8162 29.1231 80.8162 30.7826C80.8162 32.2123 80.4459 33.5399 79.7053 34.7653C78.9647 35.9908 77.8793 36.9737 76.4491 37.7141C75.019 38.429 73.3207 38.7864 71.3542 38.7864Z"
  />
  <path
    d="M88.1856 16.2107C87.2407 16.2107 86.449 15.9171 85.8105 15.3299C85.1976 14.7171 84.8911 13.964 84.8911 13.0704C84.8911 12.1768 85.1976 11.4365 85.8105 10.8493C86.449 10.2365 87.2407 9.93018 88.1856 9.93018C89.1305 9.93018 89.9094 10.2365 90.5223 10.8493C91.1608 11.4365 91.48 12.1768 91.48 13.0704C91.48 13.964 91.1608 14.7171 90.5223 15.3299C89.9094 15.9171 89.1305 16.2107 88.1856 16.2107ZM90.8288 18.7382V38.8496H85.4658V18.7382H90.8288Z"
  />
  <path
    d="M94.7484 27.8338C94.7484 25.6893 95.1698 23.7873 96.0126 22.1278C96.8809 20.4683 98.0556 19.1918 99.5369 18.2982C101.018 17.4047 102.665 16.9579 104.479 16.9579C105.858 16.9579 107.173 17.2643 108.424 17.877C109.676 18.4642 110.672 19.2556 111.412 20.2513V10.1796H116.852V38.5183H111.412V35.3781C110.748 36.4248 109.816 37.2673 108.616 37.9056C107.415 38.5438 106.024 38.863 104.44 38.863C102.653 38.863 101.018 38.4034 99.5369 37.4843C98.0556 36.5652 96.8809 35.276 96.0126 33.6165C95.1698 31.9315 94.7484 30.0039 94.7484 27.8338ZM111.45 27.9104C111.45 26.6084 111.195 25.4978 110.684 24.5787C110.174 23.6341 109.484 22.9192 108.616 22.4342C107.747 21.9236 106.815 21.6683 105.819 21.6683C104.823 21.6683 103.904 21.9108 103.061 22.3959C102.218 22.881 101.529 23.5958 100.993 24.5404C100.482 25.4595 100.226 26.5573 100.226 27.8338C100.226 29.1104 100.482 30.2337 100.993 31.2039C101.529 32.1485 102.218 32.8761 103.061 33.3867C103.929 33.8973 104.849 34.1526 105.819 34.1526C106.815 34.1526 107.747 33.9101 108.616 33.425C109.484 32.9144 110.174 32.1995 110.684 31.2804C111.195 30.3358 111.45 29.2125 111.45 27.9104Z"
  />
  <path
    d="M151.096 20.596C151.785 19.4726 152.679 18.5918 153.777 17.9536C154.901 17.3153 156.178 16.9962 157.608 16.9962V22.6256H156.191C154.505 22.6256 153.228 23.0214 152.36 23.8128C151.517 24.6043 151.096 25.9829 151.096 27.9487V38.5183H145.733V17.3026H151.096V20.596Z"
  />
  <path
    d="M141.489 25.2532C141.649 26.0022 141.743 26.6869 141.771 27.3075L126.6 30.5531C127.045 32.0244 127.821 33.0856 128.926 33.7367C130.032 34.3879 131.259 34.5692 132.607 34.2807C135.15 33.7367 136.076 32.5132 136.573 30.8821H141.771C141.599 33.0075 140.772 34.1619 139.444 35.4551C137.889 36.9693 136.121 38.0717 133.649 38.6006C131.651 39.0281 129.759 38.9758 127.974 38.444C126.209 37.8818 124.703 36.8855 123.457 35.4551C122.236 34.0193 121.398 32.2404 120.944 30.1183C120.485 27.9713 120.519 25.9929 121.046 24.1831C121.573 22.3734 122.529 20.8633 123.916 19.6529C125.302 18.4425 127.019 17.6183 129.067 17.1802C131.04 16.7581 132.892 16.8059 134.621 17.3234C136.376 17.8357 137.846 18.7874 139.032 20.1786C140.237 21.5395 141.056 23.231 141.489 25.2532ZM135.736 24.9173C135.423 23.5745 134.706 22.6052 133.587 22.0093C132.461 21.3884 131.212 21.2249 129.839 21.5188C128.54 21.7966 127.527 22.4311 126.798 23.4224C126.09 24.3833 125.785 25.5842 125.884 27.025L135.736 24.9173Z"
  />
</svg>
