<svg
  width="60"
  height="60"
  viewBox="0 0 60 60"
  fill="currentColor"
  xmlns="http://www.w3.org/2000/svg"
>
  <path
    d="M20.5 31C22.9853 31 25 28.9853 25 26.5C25 24.0147 22.9853 22 20.5 22C18.0147 22 16 24.0147 16 26.5C16 28.9853 18.0147 31 20.5 31Z"
  />
  <path
    d="M44 26.5C44 28.9853 41.9853 31 39.5 31C37.0147 31 35 28.9853 35 26.5C35 24.0147 37.0147 22 39.5 22C41.9853 22 44 24.0147 44 26.5Z"
  />
  <path
    d="M28.9392 30.9555C28.4451 31.2647 28.0585 32.0764 27.2853 33.6999C26.6794 34.9721 26.3764 35.6082 26.4091 36.1258C26.4519 36.8057 26.8379 37.417 27.4333 37.748C27.8865 38 28.5911 38 30.0003 38C31.4095 38 32.1141 38 32.5674 37.748C33.1628 37.417 33.5488 36.8056 33.5916 36.1256C33.6242 35.6081 33.3211 34.9719 32.7151 33.6997C31.9418 32.0763 31.5551 31.2646 31.061 30.9554C30.412 30.5494 29.5882 30.5494 28.9392 30.9555Z"
  />
  <path
    fill-rule="evenodd"
    clip-rule="evenodd"
    d="M30 5C16.1929 5 5 14.6259 5 26.5C5 32.5537 7.90922 38.023 12.5909 41.9303C13.8427 42.9751 14.4686 43.4974 14.7724 43.9296C15.0865 44.3764 15.2211 44.6641 15.3629 45.1916C15.5 45.7017 15.5 46.3341 15.5 47.5989V48.6C15.5 50.8402 15.5 51.9603 15.936 52.816C16.3195 53.5686 16.9314 54.1805 17.684 54.564C18.5397 55 19.6598 55 21.9 55H38.1C40.3402 55 41.4603 55 42.316 54.564C43.0686 54.1805 43.6805 53.5686 44.064 52.816C44.5 51.9603 44.5 50.8402 44.5 48.6V47.5989C44.5 46.3341 44.5 45.7017 44.6371 45.1916C44.7789 44.6641 44.9135 44.3764 45.2276 43.9296C45.5314 43.4974 46.1573 42.9751 47.4091 41.9303C52.0908 38.023 55 32.5537 55 26.5C55 14.6259 43.8071 5 30 5ZM9.5 26.5C9.5 17.7241 18.0174 9.5 30 9.5C41.9826 9.5 50.5 17.7241 50.5 26.5C50.5 31.04 48.3291 35.3011 44.5257 38.4755L44.468 38.5237C43.8916 39.0047 43.3684 39.4413 42.9558 39.8119C42.5566 40.1705 42.0054 40.6885 41.5462 41.3417C40.9293 42.2193 40.5698 42.9875 40.2914 44.0235C39.9914 45.1394 39.9959 46.3768 39.9993 47.3195L39.9998 47.4785L40 47.5989V48.6C40 49.4906 39.9981 50.0648 39.9821 50.4821C39.5647 50.4981 38.9906 50.5 38.1 50.5H37.25V47C37.25 45.7574 36.2426 44.75 35 44.75C33.7574 44.75 32.75 45.7574 32.75 47V50.5H27.25V47C27.25 45.7574 26.2426 44.75 25 44.75C23.7574 44.75 22.75 45.7574 22.75 47V50.5H21.9C21.0094 50.5 20.4353 50.4981 20.0179 50.4821C20.0019 50.0647 20 49.4906 20 48.6V47.5989C20 47.5093 20.0003 47.4162 20.0007 47.32C20.0041 46.3773 20.0086 45.1394 19.7086 44.0235C19.4301 42.9875 19.0707 42.2193 18.4538 41.3417C17.9946 40.6885 17.4434 40.1705 17.0442 39.8119C16.6315 39.4412 16.1081 39.0045 15.5315 38.5233L15.4743 38.4755C11.6709 35.3011 9.5 31.0399 9.5 26.5Z"
  />
</svg>
