<svg
  width="60"
  height="60"
  viewBox="0 0 60 60"
  fill="currentColor"
  xmlns="http://www.w3.org/2000/svg"
>
  <path
    fill-rule="evenodd"
    clip-rule="evenodd"
    d="M12.75 15C12.75 13.7574 13.7574 12.75 15 12.75H45C46.2426 12.75 47.25 13.7574 47.25 15C47.25 16.2426 46.2426 17.25 45 17.25H15C13.7574 17.25 12.75 16.2426 12.75 15Z"
  />
  <path
    fill-rule="evenodd"
    clip-rule="evenodd"
    d="M21.3037 20.75H38.6963C41.1348 20.75 43.1017 20.75 44.6944 20.8801C46.3343 21.0141 47.7747 21.2972 49.1074 21.9762C51.2242 23.0548 52.9452 24.7758 54.0238 26.8926C54.7028 28.2253 54.9859 29.6657 55.1199 31.3056C55.25 32.8983 55.25 34.8651 55.25 37.3036V38.6964C55.25 41.1349 55.25 43.1017 55.1199 44.6944C54.9859 46.3343 54.7028 47.7747 54.0238 49.1074C52.9452 51.2242 51.2242 52.9452 49.1074 54.0238C47.7747 54.7028 46.3343 54.9859 44.6944 55.1199C43.1017 55.25 41.1349 55.25 38.6964 55.25H21.3036C18.8651 55.25 16.8983 55.25 15.3056 55.1199C13.6657 54.9859 12.2253 54.7028 10.8926 54.0238C8.77578 52.9452 7.05475 51.2242 5.97618 49.1074C5.29716 47.7747 5.01408 46.3343 4.88009 44.6944C4.74996 43.1017 4.74998 41.1348 4.75 38.6963V37.3037C4.74998 34.8652 4.74996 32.8983 4.88009 31.3056C5.01408 29.6657 5.29716 28.2253 5.97618 26.8926C7.05475 24.7758 8.77578 23.0548 10.8926 21.9762C12.2253 21.2972 13.6657 21.0141 15.3056 20.8801C16.8983 20.75 18.8652 20.75 21.3037 20.75ZM15.672 25.3651C14.3104 25.4764 13.5281 25.6838 12.9356 25.9857C11.6655 26.6329 10.6329 27.6655 9.98571 28.9356C9.68379 29.5281 9.4764 30.3104 9.36515 31.672C9.25175 33.0599 9.25 34.8426 9.25 37.4V38.6C9.25 41.1574 9.25175 42.9401 9.36515 44.328C9.4764 45.6896 9.68379 46.4719 9.98571 47.0644C10.6329 48.3345 11.6655 49.3671 12.9356 50.0143C13.5281 50.3162 14.3104 50.5236 15.672 50.6349C17.0599 50.7482 18.8426 50.75 21.4 50.75H38.6C41.1574 50.75 42.9401 50.7482 44.328 50.6349C45.6896 50.5236 46.4719 50.3162 47.0644 50.0143C48.3345 49.3671 49.3671 48.3345 50.0143 47.0644C50.3162 46.4719 50.5236 45.6896 50.6349 44.328C50.7482 42.9401 50.75 41.1574 50.75 38.6V37.4C50.75 34.8426 50.7482 33.0599 50.6349 31.672C50.5236 30.3104 50.3162 29.5281 50.0143 28.9356C49.3671 27.6655 48.3345 26.6329 47.0644 25.9857C46.4719 25.6838 45.6896 25.4764 44.328 25.3651C42.9401 25.2517 41.1574 25.25 38.6 25.25H21.4C18.8426 25.25 17.0599 25.2517 15.672 25.3651Z"
  />
  <path
    fill-rule="evenodd"
    clip-rule="evenodd"
    d="M17.75 7C17.75 5.75736 18.7574 4.75 20 4.75H40C41.2426 4.75 42.25 5.75736 42.25 7C42.25 8.24264 41.2426 9.25 40 9.25H20C18.7574 9.25 17.75 8.24264 17.75 7Z"
  />
</svg>
