<svg width="16" height="16" viewBox="0 0 16 16" fill="none" xmlns="http://www.w3.org/2000/svg">
<path d="M10.9333 14.0667H5.0666C4.73523 14.0667 4.4666 14.3354 4.4666 14.6667C4.4666 14.9981 4.73523 15.2667 5.0666 15.2667H10.9333C11.2646 15.2667 11.5333 14.9981 11.5333 14.6667C11.5333 14.3354 11.2646 14.0667 10.9333 14.0667Z" fill="currentColor"/>
<path fill-rule="evenodd" clip-rule="evenodd" d="M5.68092 0.733399H10.319C10.9692 0.733393 11.4937 0.733388 11.9184 0.76809C12.3558 0.803819 12.7399 0.879307 13.0952 1.06038C13.6597 1.348 14.1187 1.80694 14.4063 2.37143C14.5874 2.7268 14.6628 3.11091 14.6986 3.54822C14.7333 3.97294 14.7333 4.49742 14.7333 5.14768V8.18576C14.7333 8.83602 14.7333 9.36052 14.6986 9.78524C14.6628 10.2225 14.5874 10.6067 14.4063 10.962C14.1187 11.5265 13.6597 11.9855 13.0952 12.2731C12.7399 12.4542 12.3558 12.5296 11.9184 12.5654C11.4937 12.6001 10.9692 12.6001 10.319 12.6001H5.6809C5.03065 12.6001 4.50615 12.6001 4.08143 12.5654C3.64412 12.5296 3.26001 12.4542 2.90463 12.2731C2.34014 11.9855 1.8812 11.5265 1.59358 10.962C1.41251 10.6067 1.33702 10.2225 1.30129 9.78524C1.26659 9.36051 1.2666 8.83602 1.2666 8.18576V5.14772C1.2666 4.49745 1.26659 3.97295 1.30129 3.54822C1.33702 3.11091 1.41251 2.7268 1.59358 2.37143C1.8812 1.80694 2.34014 1.348 2.90463 1.06038C3.26001 0.879307 3.64412 0.803819 4.08143 0.76809C4.50615 0.733388 5.03065 0.733393 5.68092 0.733399ZM4.17915 1.9641C3.81605 1.99377 3.60743 2.04908 3.44942 2.12959C3.11073 2.30216 2.83536 2.57752 2.66279 2.91622C2.58228 3.07423 2.52697 3.28284 2.49731 3.64594C2.46707 4.01605 2.4666 4.49144 2.4666 5.1734V8.16006C2.4666 8.84203 2.46707 9.31742 2.49731 9.68752C2.52697 10.0506 2.58228 10.2592 2.66279 10.4172C2.83536 10.7559 3.11073 11.0313 3.44942 11.2039C3.60743 11.2844 3.81605 11.3397 4.17915 11.3694C4.54925 11.3996 5.02464 11.4001 5.7066 11.4001H10.2933C10.9752 11.4001 11.4506 11.3996 11.8207 11.3694C12.1838 11.3397 12.3924 11.2844 12.5505 11.2039C12.8891 11.0313 13.1645 10.7559 13.3371 10.4172C13.4176 10.2592 13.4729 10.0506 13.5026 9.68752C13.5328 9.31742 13.5333 8.84203 13.5333 8.16006V5.1734C13.5333 4.49144 13.5328 4.01605 13.5026 3.64594C13.4729 3.28284 13.4176 3.07423 13.3371 2.91622C13.1645 2.57752 12.8891 2.30216 12.5505 2.12959C12.3924 2.04908 12.1838 1.99377 11.8207 1.9641C11.4506 1.93387 10.9752 1.9334 10.2933 1.9334H5.7066C5.02464 1.9334 4.54925 1.93387 4.17915 1.9641Z" fill="currentColor"/>
<path d="M9.73033 6.9426C9.82314 6.72416 9.82314 6.47597 9.73033 6.25753C9.66923 6.11375 9.55561 6.00289 9.41515 5.89681C9.27589 5.79163 9.08683 5.67451 8.84953 5.52751L7.92035 4.95189C7.6683 4.79574 7.46811 4.67172 7.30433 4.59019C7.13987 4.50832 6.9844 4.45441 6.82667 4.46916C6.58844 4.49143 6.37093 4.61731 6.22918 4.81495C6.13532 4.9458 6.09993 5.11017 6.08323 5.29688C6.0666 5.48282 6.0666 5.72269 6.0666 6.02472V7.17541C6.0666 7.47744 6.0666 7.71731 6.08323 7.90325C6.09993 8.08996 6.13532 8.25433 6.22918 8.38518C6.37093 8.58282 6.58844 8.7087 6.82667 8.73097C6.9844 8.74571 7.13987 8.69181 7.30433 8.60994C7.46811 8.52841 7.6683 8.40439 7.92037 8.24824L8.84952 7.67263C9.08683 7.52562 9.27589 7.4085 9.41515 7.30332C9.55561 7.19724 9.66923 7.08638 9.73033 6.9426Z" fill="currentColor"/>
</svg>
