<svg width="120" height="120" viewBox="0 0 120 120" fill="none" xmlns="http://www.w3.org/2000/svg">
<g id="&#230;&#143;&#146;&#229;&#155;&#190;">
<path id="Rectangle 346241126" d="M15.1451 45.5454C15.2828 45.2377 15.3516 45.0839 15.4434 44.9457C15.5248 44.823 15.6196 44.7097 15.7259 44.6078C15.8457 44.4931 15.9849 44.3982 16.2634 44.2083L30.8766 34.2437L19.2796 60.1672L10.9233 65.8653C8.8338 67.2901 7.78906 68.0025 7.18488 67.8935C6.66342 67.7994 6.23028 67.4371 6.04544 66.9406C5.83129 66.3652 6.34766 65.2109 7.3804 62.9024L15.1451 45.5454Z" fill="black" fill-opacity="0.96"/>
<path id="Rectangle 346241121" d="M88 49.0415C88 47.1967 88 46.2744 88.2508 45.4344C88.4728 44.6907 88.837 43.9972 89.3232 43.3922C89.8724 42.709 90.6317 42.1854 92.1504 41.1382L97.4752 37.4666C99.9134 35.7855 101.132 34.9449 102.146 34.9942C103.029 35.0372 103.848 35.4673 104.384 36.1696C105 36.9759 105 38.4567 105 41.4183V88.8548C105 90.3725 105 91.1313 104.796 91.8239C104.615 92.4371 104.318 93.01 103.921 93.5114C103.473 94.0777 102.853 94.5153 101.613 95.3905L93.0454 101.439C91.4136 102.59 90.5977 103.166 89.9181 103.139C89.3263 103.114 88.7758 102.829 88.4147 102.36C88 101.82 88 100.822 88 98.8243V49.0415Z" fill="white" stroke="black" stroke-opacity="0.96" stroke-width="2"/>
<path id="Vector 1356" d="M90.6111 104.042L85.9922 105.578L86.2178 104.983L88.5001 102.715L90.6111 104.042Z" fill="black" fill-opacity="0.96"/>
<path id="Union" d="M87.6523 45.1309L15.9131 44.4502L28.5605 35.3232C29.7529 34.4629 31.186 34.0001 32.6562 34H102.5L87.6523 45.1309Z" fill="black" fill-opacity="0.96"/>
<path id="Vector 1357" d="M14.9257 20.7115L21.5803 26.1838" stroke="black" stroke-opacity="0.96" stroke-width="2" stroke-linecap="round"/>
<path id="Vector 1358" d="M26.9591 13.991L28.9887 22.2072" stroke="black" stroke-opacity="0.96" stroke-width="2" stroke-linecap="round"/>
<path id="Rectangle 346241125" d="M98.4888 65.139C99.3819 66.7754 99.8284 67.5936 100.483 68.009C101.058 68.3738 101.74 68.5321 102.417 68.4579C103.188 68.3734 103.949 67.8355 105.472 66.7598L113.263 61.2548C114.499 60.3821 115.116 59.9457 115.446 59.3679C115.737 58.8589 115.873 58.2758 115.836 57.6907C115.794 57.0266 115.432 56.3628 114.707 55.0351L105.221 37.6537C104.626 36.5628 104.328 36.0173 103.892 35.7403C103.508 35.4971 103.053 35.3916 102.602 35.4411C102.088 35.4974 101.581 35.856 100.566 36.5732L90.1432 43.937C89.3197 44.5188 88.9079 44.8097 88.6878 45.195C88.4939 45.5343 88.4037 45.923 88.4283 46.3131C88.4563 46.7559 88.6978 47.1984 89.1808 48.0835L98.4888 65.139Z" fill="white" stroke="black" stroke-opacity="0.96" stroke-width="2"/>
<circle id="Ellipse 3607" cx="58.5" cy="51.5" r="24.5" fill="url(#paint0_linear_2444_36156)"/>
<g id="Rectangle 346241118">
<path d="M15 51.759C15 48.9588 15 47.5586 15.545 46.4891C16.0243 45.5483 16.7892 44.7834 17.73 44.304C18.7996 43.759 20.1997 43.759 23 43.759H81C83.8003 43.759 85.2004 43.759 86.27 44.304C87.2108 44.7834 87.9757 45.5483 88.455 46.4891C89 47.5586 89 48.9588 89 51.759V97.9999C89 100.8 89 102.2 88.455 103.27C87.9757 104.211 87.2108 104.976 86.27 105.455C85.2004 106 83.8003 106 81 106H23C20.1997 106 18.7996 106 17.73 105.455C16.7892 104.976 16.0243 104.211 15.545 103.27C15 102.2 15 100.8 15 97.9999V51.759Z" fill="white"/>
<path d="M23 44.759H81C82.4164 44.759 83.4186 44.7595 84.2021 44.8235C84.8775 44.8787 85.3231 44.9771 85.6719 45.1272L85.8164 45.1946C86.4749 45.5301 87.0259 46.0407 87.4102 46.6672L87.5645 46.9426C87.7531 47.3129 87.8725 47.785 87.9355 48.5569C87.9995 49.3404 88 50.3427 88 51.759V98.0002C88 99.4166 87.9996 100.419 87.9355 101.202C87.8804 101.878 87.782 102.323 87.6318 102.672L87.5645 102.816C87.229 103.474 86.7182 104.025 86.0918 104.409L85.8164 104.564C85.4461 104.752 84.9741 104.872 84.2021 104.935C83.4186 104.999 82.4164 105 81 105H23C21.5836 105 20.5814 104.999 19.7979 104.935C19.1224 104.88 18.677 104.781 18.3281 104.631L18.1836 104.564C17.5251 104.228 16.9741 103.718 16.5898 103.091L16.4355 102.816C16.247 102.445 16.1275 101.974 16.0645 101.202C16.0004 100.419 16 99.4166 16 98.0002V51.759C16 50.3427 16.0005 49.3404 16.0645 48.5569C16.1196 47.8816 16.2181 47.4359 16.3682 47.0872L16.4355 46.9426C16.7711 46.2842 17.2817 45.7332 17.9082 45.3489L18.1836 45.1946C18.5539 45.0059 19.0259 44.8866 19.7979 44.8235C20.5814 44.7595 21.5836 44.759 23 44.759Z" stroke="black" stroke-opacity="0.96" stroke-width="2"/>
</g>
<rect id="Rectangle 346241112" x="23" y="96" width="16" height="2" rx="1" fill="black" fill-opacity="0.96"/>
<rect id="Rectangle 346241128" x="23" y="90" width="8" height="2" rx="1" fill="black" fill-opacity="0.96"/>
<rect id="Rectangle 346241122" x="40" y="52.9062" width="24" height="7" rx="3.5" stroke="black" stroke-opacity="0.96" stroke-width="2"/>
<path id="Vector 1359" d="M107.475 22.5958L105.95 19.8662C105.595 19.229 104.698 19.1753 104.269 19.7655L102.074 22.7819C101.572 23.4717 102.109 24.4329 102.96 24.3673L106.679 24.0804C107.407 24.0243 107.831 23.2329 107.475 22.5958Z" fill="black" fill-opacity="0.96"/>
<path id="Vector 1360" d="M90.8397 9.87096L85.6248 8.63464C84.9147 8.46629 84.2692 9.09068 84.414 9.80597L85.6821 16.0736C85.8513 16.9098 86.9225 17.1638 87.449 16.4925L91.3958 11.4612C91.8463 10.887 91.5498 10.0393 90.8397 9.87096Z" fill="black" fill-opacity="0.96"/>
</g>
<defs>
<linearGradient id="paint0_linear_2444_36156" x1="93.8604" y1="68.2372" x2="41.8428" y2="86.2152" gradientUnits="userSpaceOnUse">
<stop stop-color="#8CD5B4"/>
<stop offset="0.26451" stop-color="#80A7FF"/>
<stop offset="1" stop-color="#6128FF"/>
</linearGradient>
</defs>
</svg>
