<svg xmlns="http://www.w3.org/2000/svg" width="40" height="40" viewBox="0 0 40 40" fill="none">
  <path d="M18.499 22.0013C18.499 22.8297 19.1706 23.5013 19.999 23.5013C20.8275 23.5013 21.499 22.8297 21.499 22.0013V12.668C21.499 11.8395 20.8274 11.168 19.999 11.168C19.1706 11.168 18.499 11.8395 18.499 12.668V22.0013Z" fill="currentColor" />
  <path d="M27.999 23.5013C27.1706 23.5013 26.499 22.8297 26.499 22.0013V16.668C26.499 15.8395 27.1706 15.168 27.999 15.168C28.8275 15.168 29.499 15.8395 29.499 16.668V22.0013C29.499 22.8297 28.8275 23.5013 27.999 23.5013Z" fill="currentColor" />
  <path d="M10.499 22.0013C10.499 22.8297 11.1706 23.5013 11.999 23.5013C12.8275 23.5013 13.499 22.8297 13.499 22.0013V15.3346C13.499 14.5062 12.8274 13.8346 11.999 13.8346C11.1706 13.8346 10.499 14.5062 10.499 15.3346V22.0013Z" fill="currentColor" />
  <path fill-rule="evenodd" clip-rule="evenodd" d="M1.83236 10.668C1.83236 6.52583 5.19022 3.16797 9.33236 3.16797H30.6657C34.8078 3.16797 38.1657 6.52583 38.1657 10.668V27.1771C38.9157 27.26 39.499 27.8959 39.499 28.668C39.499 29.4964 38.8275 30.168 37.999 30.168H21.499V35.168H25.999C26.8274 35.168 27.499 35.8395 27.499 36.668C27.499 37.4964 26.8275 38.168 25.999 38.168H20.001H19.999H13.999C13.1706 38.168 12.499 37.4964 12.499 36.668C12.499 35.8395 13.1706 35.168 13.999 35.168H18.499V30.168H1.99902C1.1706 30.168 0.499023 29.4964 0.499023 28.668C0.499023 27.8959 1.08236 27.26 1.83236 27.1771V10.668ZM4.83236 10.668V27.168L35.1657 27.168V10.668C35.1657 8.18269 33.151 6.16797 30.6657 6.16797H9.33236C6.84708 6.16797 4.83236 8.18269 4.83236 10.668Z" fill="currentColor" />
</svg>