<svg
  width="60"
  height="60"
  viewBox="0 0 60 60"
  fill="currentColor"
  xmlns="http://www.w3.org/2000/svg"
>
  <path
    fill-rule="evenodd"
    clip-rule="evenodd"
    d="M30 57C44.9117 57 57 44.9117 57 30C57 15.0883 44.9117 3 30 3C15.0883 3 3 15.0883 3 30C3 44.9117 15.0883 57 30 57ZM47.8672 43.6772C50.4465 40.3128 52.097 36.1988 52.4354 31.7185L49.0027 28.2687L43.2837 29.3976L40.0606 39.0671L43.9331 43.9877L47.8672 43.6772ZM39.1586 50.5578L40.3969 46.7707L36.8391 42.25H23.3601L19.8023 46.7707L21.074 50.66C23.8106 51.8439 26.8287 52.5 30 52.5C33.2615 52.5 36.3609 51.8061 39.1586 50.5578ZM48.1312 23.8539L49.9227 19.5337C47.0992 14.1703 42.1734 10.086 36.2411 8.37686L32 11.2043L32 16.7503L42.8591 24.8946L48.1312 23.8539ZM12.12 43.6605L16.2661 43.9877L19.9981 39.2456L16.7014 29.3554L11.1965 28.2687L7.59538 31.8878L7.57652 31.8691C7.93954 36.2835 9.57692 40.3369 12.12 43.6605ZM27.5 17.1247L17.1818 24.8634L12.068 23.8539L10.1894 19.3236C12.9739 14.1676 17.7125 10.2222 23.413 8.47955L27.5 11.2043V17.1247ZM38.0459 28.0347L29.9996 22L21.9533 28.0347L24.8917 36.85H35.1075L38.0459 28.0347Z"
  />
</svg>
