<svg
  width="60"
  height="60"
  viewBox="0 0 60 60"
  fill="currentColor"
  xmlns="http://www.w3.org/2000/svg"
>
  <g clip-path="url(#clip0_8412_1426)">
    <path
      fill-rule="evenodd"
      clip-rule="evenodd"
      d="M12.7544 0H47.2491C54.2632 0 60.0017 5.73852 60.0017 12.7527V47.2473C60.0017 54.2615 54.2632 60 47.2491 60H12.7544C5.74023 60 0.00170898 54.2615 0.00170898 47.2473V12.7527C0.00170898 5.73852 5.74023 0 12.7544 0Z"
      fill="black"
    />
    <path
      d="M30.2029 52.596C25.6338 52.596 23.5328 52.0329 20.0424 50.1537C17.0183 48.5256 14.411 46.3464 13.0154 43.2187C8.01468 32.015 9.53387 15.2586 20.2206 9.68982C25.6471 6.86257 34.2552 6.55188 39.7683 9.3547C45.0566 12.0433 47.6154 16.2377 49.732 21.6193L45.4117 22.8536C43.4165 15.6052 38.6092 11.5895 30.8061 11.5895C27.7224 11.5895 24.924 11.8993 22.5723 13.0651C16.9471 15.8524 14.6421 22.3909 14.4155 29.0139C14.2506 33.8266 15.0284 38.6847 17.176 42.18C19.6326 46.1775 24.7373 48.7056 29.5225 48.7056C34.0045 48.7056 37.6109 47.9265 40.3924 45.3175C44.1801 41.7639 44.9695 36.0974 40.1412 32.6426C38.654 45.3352 21.4425 44.6112 21.4425 34.5227C21.4425 32.4279 22.2572 30.5998 23.8862 29.0388C27.1214 25.9387 31.9893 26.8547 36.049 26.7934C35.621 24.8773 33.992 22.1011 30.8652 22.1011C28.4557 22.1011 26.3796 22.7069 25.2636 24.5728L21.9003 22.3909C23.3248 19.7161 26.197 17.9596 30.6034 17.9596C35.0099 17.9596 39.3234 20.8428 40.0386 26.3107L40.2595 27.9992C42.7503 29.0042 44.5432 30.8789 45.7882 32.7679C49.2884 38.0793 47.3585 44.8925 42.36 49.1283C39.6328 51.4395 35.5797 52.5956 30.2034 52.5956L30.2029 52.596ZM25.4582 34.4373C25.4582 36.5157 27.6633 38.07 29.798 38.07C32.1795 38.07 33.8169 37.3984 34.7098 36.0552C35.6028 34.712 36.0495 33.0942 36.0495 31.2025C33.6031 30.5807 29.3469 30.1349 27.0912 31.6279C26.0289 32.331 25.4587 33.2266 25.4587 34.4373H25.4582Z"
      fill="white"
    />
  </g>
  <defs>
    <clipPath id="clip0_8412_1426">
      <rect
        width="60"
        height="60"
        fill="white"
        transform="translate(0.00170898)"
      />
    </clipPath>
  </defs>
</svg>
