<svg
  width="60"
  height="60"
  viewBox="0 0 60 60"
  fill="currentColor"
  xmlns="http://www.w3.org/2000/svg"
>
  <path
    d="M4.43335 55.1078L8.00118 42.0812C5.79702 38.2598 4.63924 33.9249 4.64457 29.5133C4.65038 15.6521 15.9305 4.37549 29.792 4.37549C36.5185 4.37891 42.8322 6.99659 47.5806 11.7483C52.3289 16.5001 54.9415 22.8162 54.9391 29.5335C54.9329 43.3937 43.6511 54.6724 29.7916 54.6724H29.7807C25.5724 54.6707 21.4372 53.6149 17.7641 51.6121L4.43335 55.1078Z"
    fill="white"
  />
  <path
    d="M29.7995 8.62201C18.2703 8.62201 8.89426 17.9946 8.89016 29.515C8.88448 33.4488 9.99227 37.304 12.0855 40.6347L12.5827 41.4253L10.4709 49.1351L18.3817 47.0609L19.1456 47.5134C22.3539 49.4174 26.0324 50.4243 29.7838 50.4264H29.7917C41.312 50.4264 50.688 41.0527 50.6925 29.5317C50.7012 26.7857 50.1651 24.0653 49.1152 21.5279C48.0654 18.9905 46.5227 16.6865 44.5763 14.7494C42.6408 12.8017 40.3382 11.2573 37.8017 10.2055C35.2653 9.15372 32.5454 8.61551 29.7995 8.62201Z"
    fill="url(#paint0_linear_8412_1431)"
  />
  <path
    fill-rule="evenodd"
    clip-rule="evenodd"
    d="M23.5068 19.004C23.0358 17.9578 22.5402 17.9366 22.0929 17.9185L20.8884 17.9038C20.4694 17.9038 19.7886 18.061 19.213 18.6899C18.6375 19.3188 17.0137 20.8387 17.0137 23.9301C17.0137 27.0214 19.2653 30.0086 19.5791 30.4283C19.8928 30.848 23.9258 37.3941 30.3126 39.9127C35.6201 42.0057 36.7001 41.5894 37.8526 41.4849C39.0051 41.3803 41.5702 39.965 42.0934 38.4977C42.6167 37.0304 42.617 35.7734 42.4601 35.5106C42.3033 35.2477 41.8843 35.0915 41.2554 34.7771C40.6265 34.4627 37.5378 32.9428 36.9619 32.7329C36.386 32.5231 35.9674 32.4188 35.548 33.0477C35.1286 33.6766 33.9259 35.0912 33.5592 35.5106C33.1925 35.9299 32.8264 35.9826 32.1975 35.6685C31.5687 35.3544 29.5453 34.6906 27.1447 32.5501C25.2769 30.8846 24.016 28.8278 23.649 28.1992C23.2819 27.5707 23.61 27.2303 23.9251 26.9172C24.2071 26.6356 24.5533 26.1834 24.8681 25.8167C25.1829 25.45 25.2864 25.1878 25.4956 24.7691C25.7048 24.3504 25.6005 23.9827 25.4433 23.6686C25.2861 23.3545 24.0653 20.2467 23.5068 19.004Z"
    fill="white"
  />
  <defs>
    <linearGradient
      id="paint0_linear_8412_1431"
      x1="29.3658"
      y1="11.1307"
      x2="29.5777"
      y2="46.8551"
      gradientUnits="userSpaceOnUse"
    >
      <stop stop-color="#57D163" />
      <stop offset="1" stop-color="#23B33A" />
    </linearGradient>
  </defs>
</svg>
