<svg
  width="60"
  height="60"
  viewBox="0 0 60 60"
  fill="currentColor"
  xmlns="http://www.w3.org/2000/svg"
>
  <path
    d="M58.6837 14.8173C60 19.4242 60 29.2962 60 29.2962C60 29.2962 60 39.0586 58.6837 43.7752C58.0256 46.4078 55.9415 48.3822 53.4186 49.0403C48.702 50.2469 30.0548 50.2469 30.0548 50.2469C30.0548 50.2469 11.298 50.2469 6.58135 49.0403C4.0585 48.3822 1.97441 46.4078 1.31627 43.7752C0 39.0586 0 29.2962 0 29.2962C0 29.2962 0 19.4242 1.31627 14.8173C1.97441 12.1847 4.0585 10.1006 6.58135 9.44249C11.298 8.12622 30.0548 8.12622 30.0548 8.12622C30.0548 8.12622 48.702 8.12622 53.4186 9.44249C55.9415 10.1006 58.0256 12.1847 58.6837 14.8173ZM23.9122 38.1811L39.4881 29.2962L23.9122 20.4114V38.1811Z"
    fill="white"
  />
</svg>
