<svg
  width="60"
  height="60"
  viewBox="0 0 60 60"
  fill="currentColor"
  xmlns="http://www.w3.org/2000/svg"
>
  <g clip-path="url(#clip0_8412_1462)">
    <path
      d="M55.6806 25.2113C50.4124 25.3284 45.4954 23.6894 41.2808 20.6455V41.6014C41.2808 49.5622 36.3638 56.5866 28.8712 59.3963C21.4957 62.206 13.0665 60.0987 7.91532 54.128C2.64709 48.0403 1.71052 39.4941 5.45681 32.4698C9.20311 25.5625 16.9299 21.6991 24.8907 22.7528V33.2893C21.2615 32.1185 17.2811 33.4063 15.0567 36.4502C12.9494 39.6111 12.9494 43.7087 15.1738 46.7525C17.3981 49.7964 21.3786 51.0842 24.8907 49.9135C28.52 48.7427 30.9785 45.3477 30.9785 41.6014V0.626221H41.2808C41.2808 1.5628 41.2808 2.3823 41.5149 3.31887C42.2174 7.18224 44.4417 10.5773 47.8368 12.6846C50.0612 14.2066 52.8709 15.0261 55.6806 15.0261V25.2113Z"
      fill="white"
    />
  </g>
  <defs>
    <clipPath id="clip0_8412_1462">
      <rect
        width="60"
        height="60"
        fill="white"
        transform="translate(0.00170898)"
      />
    </clipPath>
  </defs>
</svg>
