<svg
  width="60"
  height="60"
  viewBox="0 0 60 60"
  fill="currentColor"
  xmlns="http://www.w3.org/2000/svg"
>
  <path
    d="M58.7474 15.9341C58.056 13.351 56.0258 11.321 53.4427 10.6295C48.7656 9.375 30.0018 9.375 30.0018 9.375C30.0018 9.375 11.2384 9.375 6.56104 10.6295C3.97792 11.321 1.94795 13.351 1.25648 15.9341C0.0019535 20.6114 0.00195312 30.376 0.00195312 30.376C0.00195312 30.376 0.0019535 40.1406 1.25648 44.8179C1.94795 47.4011 3.97792 49.431 6.56104 50.1224C11.2384 51.377 30.0018 51.377 30.0018 51.377C30.0018 51.377 48.7656 51.377 53.4427 50.1224C56.0258 49.431 58.056 47.4011 58.7474 44.8179C60.002 40.1406 60.002 30.376 60.002 30.376C60.002 30.376 59.9969 20.6114 58.7474 15.9341Z"
    fill="#FF0000"
  />
  <path
    d="M23.9961 39.3758L39.5839 30.3769L23.9961 21.3778V39.3758Z"
    fill="white"
  />
</svg>
