<svg
  width="60"
  height="60"
  viewBox="0 0 60 60"
  fill="currentColor"
  xmlns="http://www.w3.org/2000/svg"
>
  <path
    d="M43.0192 21.6127C46.8851 24.3747 51.621 25.9998 56.736 25.9998V16.1621C55.768 16.1623 54.8025 16.0614 53.8554 15.8609V23.6046C48.7408 23.6046 44.0055 21.9794 40.1386 19.2176V39.2935C40.1386 49.3366 31.993 57.4774 21.9455 57.4774C18.1965 57.4774 14.712 56.3446 11.8174 54.4018C15.1211 57.7781 19.7283 59.8725 24.8255 59.8725C34.8736 59.8725 43.0196 51.7316 43.0196 41.6882V21.6127H43.0192ZM46.5728 11.6876C44.5971 9.53026 43.2999 6.74231 43.0192 3.66012V2.39478H40.2894C40.9766 6.31224 43.3203 9.65909 46.5728 11.6876ZM18.1725 46.6951C17.0686 45.2485 16.4721 43.479 16.4748 41.6594C16.4748 37.0661 20.2005 33.3418 24.7971 33.3418C25.6538 33.3416 26.5053 33.4727 27.3216 33.7316V23.674C26.3676 23.5433 25.4047 23.4879 24.4422 23.5082V31.3366C23.6253 31.0777 22.7733 30.9461 21.9165 30.947C17.3199 30.947 13.5944 34.6709 13.5944 39.2648C13.5944 42.513 15.4566 45.3252 18.1725 46.6951Z"
    fill="#FF004F"
  />
  <path
    d="M40.1383 19.2174C44.0053 21.9792 48.7405 23.6044 53.8551 23.6044V15.8607C51.0002 15.2529 48.4728 13.7617 46.5725 11.6876C43.3198 9.65889 40.9763 6.31204 40.2892 2.39478H33.1188V41.6878C33.1025 46.2685 29.3831 49.9777 24.7964 49.9777C22.0935 49.9777 19.6923 48.6899 18.1716 46.6951C15.4559 45.3252 13.5937 42.5128 13.5937 39.265C13.5937 34.6715 17.3192 30.9472 21.9158 30.9472C22.7965 30.9472 23.6453 31.0842 24.4416 31.3368V23.5084C14.5705 23.7122 6.63184 31.7736 6.63184 41.688C6.63184 46.6372 8.60875 51.1238 11.8173 54.402C14.7119 56.3446 18.1964 57.4777 21.9454 57.4777C31.9931 57.4777 40.1385 49.3364 40.1385 39.2935V19.2174H40.1383Z"
    fill="black"
  />
  <path
    d="M53.8554 15.8608V13.7669C51.281 13.7708 48.757 13.0502 46.5728 11.6875C48.5064 13.8033 51.0525 15.2622 53.8554 15.8608ZM40.2894 2.39486C40.2239 2.02048 40.1736 1.64363 40.1386 1.26534V0H30.2382V39.2934C30.2224 43.8736 26.5032 47.5827 21.9161 47.5827C20.5694 47.5827 19.2979 47.2632 18.1718 46.6954C19.6926 48.69 22.0938 49.9775 24.7967 49.9775C29.383 49.9775 33.103 46.2688 33.119 41.6881V2.39486H40.2894ZM24.4423 23.5085V21.2795C23.615 21.1664 22.781 21.1097 21.9459 21.1101C11.8973 21.1099 3.75171 29.2512 3.75171 39.2934C3.75171 45.5893 6.95308 51.1379 11.8178 54.4017C8.60924 51.1237 6.63233 46.6368 6.63233 41.6879C6.63233 31.7737 14.5708 23.7123 24.4423 23.5085Z"
    fill="#00F2EA"
  />
</svg>
