<svg
  width="60"
  height="60"
  viewBox="0 0 60 60"
  fill="currentColor"
  xmlns="http://www.w3.org/2000/svg"
>
  <path
    d="M21.0616 33.9019C20.5637 32.7634 19.2371 32.244 18.0986 32.7419C16.9601 33.2398 16.4407 34.5664 16.9386 35.7049C19.1364 40.7309 24.1547 44.25 30.0001 44.25C35.8454 44.25 40.8638 40.7309 43.0616 35.7049C43.5595 34.5664 43.0401 33.2398 41.9016 32.7419C40.763 32.244 39.4364 32.7634 38.9386 33.9019C37.4313 37.3487 33.9936 39.75 30.0001 39.75C26.0065 39.75 22.5688 37.3487 21.0616 33.9019Z"
  />
  <path
    fill-rule="evenodd"
    clip-rule="evenodd"
    d="M38.6963 5.25H21.3037C18.8652 5.24998 16.8983 5.24996 15.3056 5.38009C13.6657 5.51408 12.2253 5.79716 10.8926 6.47618C8.77579 7.55475 7.05476 9.27578 5.97618 11.3926C5.29716 12.7253 5.01408 14.1657 4.88009 15.8056C4.74996 17.3983 4.74998 19.3652 4.75 21.8037L4.75 39.2999C4.74997 40.9023 4.74995 42.2399 4.83922 43.3326C4.93234 44.4723 5.13367 45.5422 5.6492 46.554C6.44016 48.1064 7.70224 49.3685 9.25458 50.1594C10.2664 50.6749 11.3363 50.8763 12.476 50.9694C13.5687 51.0587 14.9062 51.0586 16.5086 51.0586H17.6882C19.1021 51.0586 19.4795 51.0704 19.8172 51.1435C20.165 51.2188 20.5004 51.3432 20.8131 51.513C21.1167 51.6778 21.4105 51.9151 22.4823 52.8373L26.4921 56.2878C26.8214 56.5713 27.1567 56.8599 27.4642 57.0862C27.809 57.34 28.2477 57.6152 28.8082 57.779C29.5865 58.0063 30.4135 58.0063 31.1918 57.779C31.7523 57.6152 32.191 57.34 32.5358 57.0862C32.8434 56.8598 33.1786 56.5713 33.508 56.2877L37.5177 52.8373C38.5895 51.9151 38.8833 51.6778 39.1869 51.513C39.4996 51.3432 39.835 51.2188 40.1828 51.1435C40.5205 51.0704 40.8979 51.0586 42.3118 51.0586H43.4914C45.0938 51.0586 46.4313 51.0587 47.524 50.9694C48.6637 50.8763 49.7336 50.6749 50.7454 50.1594C52.2978 49.3685 53.5599 48.1064 54.3508 46.554C54.8663 45.5422 55.0677 44.4723 55.1608 43.3326C55.2501 42.2399 55.25 40.9024 55.25 39.3V21.8036C55.25 19.3652 55.25 17.3983 55.1199 15.8056C54.9859 14.1657 54.7029 12.7253 54.0238 11.3926C52.9453 9.27578 51.2242 7.55475 49.1074 6.47618C47.7747 5.79716 46.3343 5.51408 44.6944 5.38009C43.1017 5.24996 41.1348 5.24998 38.6963 5.25ZM12.9356 10.4857C13.5281 10.1838 14.3104 9.9764 15.672 9.86515C17.0599 9.75175 18.8426 9.75 21.4 9.75H38.6C41.1574 9.75 42.9401 9.75175 44.328 9.86515C45.6896 9.9764 46.4719 10.1838 47.0644 10.4857C48.3345 11.1329 49.3672 12.1655 50.0143 13.4356C50.3162 14.0281 50.5236 14.8104 50.6349 16.172C50.7483 17.5599 50.75 19.3426 50.75 21.9V39.2086C50.75 40.9259 50.7483 42.0785 50.6757 42.9662C50.6054 43.8275 50.4797 44.2394 50.3413 44.5111C49.9818 45.2167 49.4081 45.7904 48.7025 46.1499C48.4308 46.2883 48.0189 46.414 47.1576 46.4843C46.2699 46.5569 45.1173 46.5586 43.4 46.5586L42.1171 46.5585C40.9879 46.5579 40.0987 46.5575 39.2308 46.7453C38.4656 46.911 37.7278 47.1847 37.0398 47.5583C36.2594 47.9819 35.5857 48.5623 34.7301 49.2993L30.6197 52.8364C30.3266 53.0887 30.1392 53.2488 30 53.3603C29.8608 53.2488 29.6734 53.0887 29.3804 52.8365L25.2699 49.2993C24.4144 48.5623 23.7406 47.9819 22.9602 47.5583C22.2722 47.1847 21.5344 46.911 20.7692 46.7453C19.9013 46.5575 19.0121 46.5579 17.8829 46.5585L16.6 46.5586C14.8827 46.5586 13.7301 46.5569 12.8424 46.4843C11.9811 46.414 11.5692 46.2883 11.2975 46.1499C10.5919 45.7904 10.0183 45.2167 9.65873 44.5111C9.5203 44.2394 9.39465 43.8275 9.32428 42.9662C9.25175 42.0785 9.25 40.9259 9.25 39.2086V21.9C9.25 19.3426 9.25175 17.5599 9.36515 16.172C9.4764 14.8104 9.68379 14.0281 9.98571 13.4356C10.6329 12.1655 11.6655 11.1329 12.9356 10.4857Z"
  />
</svg>
