<svg
  width="60"
  height="60"
  viewBox="0 0 60 60"
  fill="currentColor"
  xmlns="http://www.w3.org/2000/svg"
>
  <path
    d="M30.2685 60C24.2022 60 21.4128 59.2523 16.7787 56.7574C12.7636 54.5958 9.30208 51.7025 7.44914 47.55C0.809867 32.6752 2.82685 10.4282 17.0153 3.03475C24.2199 -0.718915 35.6485 -1.1314 42.9682 2.58981C49.9893 6.15936 53.3865 11.7282 56.1966 18.8732L50.4608 20.5119C47.8118 10.8885 41.4292 5.55686 31.0693 5.55686C26.9751 5.55686 23.2598 5.96816 20.1376 7.51601C12.6692 11.2166 9.60893 19.8976 9.30798 28.6908C9.08905 35.0804 10.1217 41.5303 12.9731 46.1709C16.2346 51.4783 23.012 54.8348 29.3651 54.8348C35.3157 54.8348 40.1038 53.8004 43.7967 50.3364C48.8256 45.6185 49.8736 38.0953 43.4633 33.5084C41.4888 50.36 18.6375 49.3988 18.6375 36.0045C18.6375 33.2234 19.7192 30.7963 21.8819 28.7238C26.1773 24.6078 32.6402 25.824 38.0302 25.7426C37.4619 23.1987 35.2992 19.5129 31.1478 19.5129C27.9488 19.5129 25.1924 20.3172 23.7107 22.7944L19.2454 19.8976C21.1366 16.3463 24.9499 14.0143 30.8002 14.0143C36.6505 14.0143 42.3775 17.8423 43.327 25.1017L43.6202 27.3436C46.9272 28.6778 49.3077 31.1669 50.9606 33.6748C55.6077 40.7266 53.0454 49.7723 46.4091 55.396C42.7882 58.4645 37.407 59.9994 30.2691 59.9994L30.2685 60ZM23.9691 35.8912C23.9691 38.6506 26.8967 40.7142 29.7309 40.7142C32.8927 40.7142 35.0667 39.8225 36.2522 38.0392C37.4377 36.2559 38.0308 34.1079 38.0308 31.5964C34.7828 30.7709 29.132 30.179 26.1372 32.1612C24.7268 33.0947 23.9697 34.2838 23.9697 35.8912H23.9691Z"
    fill="white"
  />
</svg>
