<svg width="60" height="60" viewBox="0 0 60 60" fill="currentColor" xmlns="http://www.w3.org/2000/svg">
  <path
    d="M50.8664 10.9615C57.6039 20.9656 60.9726 32.1948 59.7476 45.1593C59.7476 45.1593 59.7476 45.2614 59.6455 45.2614C55.1539 48.6301 50.0497 51.1822 44.6393 52.8155C44.5372 52.9176 44.5372 52.8155 44.4352 52.8155C43.3122 51.1822 42.2914 49.5489 41.3727 47.8135C41.3727 47.7114 41.3727 47.7114 41.3727 47.6093L41.4747 47.5072C43.1081 46.8947 44.6393 46.1801 46.1706 45.2614C46.1706 45.2614 46.2726 45.2614 46.2726 45.1593C46.2726 45.0572 46.2726 45.0572 46.1706 44.9551C45.8643 44.751 45.5581 44.5468 45.2518 44.2406C45.1497 44.2406 45.1497 44.2406 45.0477 44.2406C35.3498 48.7322 24.7331 48.7322 14.9331 44.2406C14.831 44.2406 14.729 44.2406 14.729 44.2406C14.4227 44.5468 14.1165 44.751 13.8102 44.9551C13.7081 45.0572 13.7081 45.0572 13.7081 45.1593C13.7081 45.2614 13.7081 45.2614 13.8102 45.2614C15.2394 46.1801 16.8727 46.8947 18.506 47.5072C18.506 47.5072 18.506 47.6093 18.6081 47.6093C18.6081 47.7114 18.6081 47.7114 18.6081 47.8135C17.6894 49.5489 16.6685 51.1822 15.5456 52.8155C15.4435 52.8155 15.3415 52.9176 15.3415 52.8155C9.93106 51.1822 4.8269 48.6301 0.335242 45.2614C0.233158 45.2614 0.233158 45.1593 0.233158 45.1593C-0.787673 33.9302 1.35607 22.5989 9.11439 10.9615C9.11439 10.9615 9.11439 10.9615 9.21647 10.9615C13.0956 9.12399 17.179 7.89899 21.3644 7.18441C21.4664 7.08233 21.5685 7.18441 21.5685 7.18441C22.181 8.20524 22.6914 9.32815 23.0998 10.349C27.6935 9.6344 32.2873 9.6344 36.881 10.349C37.2893 9.32815 37.7997 8.20524 38.4122 7.18441C38.4122 7.18441 38.5143 7.08233 38.6164 7.18441C42.8018 7.89899 46.8851 9.12399 50.7643 10.9615C50.8664 10.9615 50.8664 10.9615 50.8664 10.9615ZM20.0373 38.3197C22.9977 38.3197 25.4477 35.5635 25.4477 32.2968C25.4477 28.9281 23.0998 26.2739 20.0373 26.2739C17.0769 26.2739 14.6269 28.9281 14.6269 32.2968C14.6269 35.5635 17.0769 38.3197 20.0373 38.3197ZM39.9435 38.3197C43.006 38.3197 45.3539 35.5635 45.3539 32.2968C45.456 28.9281 43.006 26.2739 39.9435 26.2739C36.9831 26.2739 34.6352 28.9281 34.6352 32.2968C34.6352 35.5635 36.9831 38.3197 39.9435 38.3197Z" />
</svg>