<svg
  width="61"
  height="61"
  viewBox="0 0 61 61"
  fill="currentColor"
  xmlns="http://www.w3.org/2000/svg"
>
  <path
    d="M30.3662 0.626221C46.8178 0.626221 60.3662 14.1746 60.3662 30.6262C60.3662 47.1988 46.8178 60.6262 30.3662 60.6262C13.7936 60.6262 0.366211 47.1988 0.366211 30.6262C0.366211 14.1746 13.7936 0.626221 30.3662 0.626221ZM44.1565 21.0698C44.2775 20.7069 44.2775 20.344 44.1565 19.8601C44.1565 19.6182 43.9146 19.2553 43.7936 19.1343C43.4307 18.7714 42.8259 18.7714 42.584 18.7714C41.4952 18.7714 39.6807 19.3762 31.334 22.8843C28.4307 24.094 22.6243 26.5133 13.9146 30.3843C12.463 30.9891 11.7372 31.473 11.6162 32.0778C11.4952 33.0456 13.0678 33.4085 14.8823 34.0133C16.4549 34.4972 18.5114 35.102 19.6001 35.102C20.5678 35.102 21.6565 34.7391 22.8662 33.8923C30.971 28.3278 35.2049 25.5456 35.4469 25.5456C35.6888 25.5456 35.9307 25.4246 36.0517 25.5456C36.2936 25.7875 36.2936 26.0294 36.1727 26.1504C36.0517 26.7553 28.4307 33.7714 27.9469 34.2553C26.2533 35.9488 24.3178 37.0375 27.342 38.973C29.8823 40.6665 31.334 41.7553 33.9952 43.4488C35.6888 44.5375 37.0194 45.8682 38.713 45.7472C39.5598 45.6262 40.4065 44.9004 40.7694 42.602C41.8581 37.4004 43.7936 25.7875 44.1565 21.0698Z"
    fill="white"
  />
</svg>
