<svg
  width="60"
  height="60"
  viewBox="0 0 60 60"
  fill="currentColor"
  xmlns="http://www.w3.org/2000/svg"
>
  <path
    d="M0.00170898 4.29803C0.00170898 1.92493 1.98677 1.94001e-07 4.43559 1.94001e-07H55.5678C58.0166 1.94001e-07 60.0017 1.92493 60.0017 4.29803V55.702C60.0017 58.0759 58.0166 60 55.5678 60H4.43559C1.98677 60 0.00170898 58.0759 0.00170898 55.702V4.29803Z"
    fill="#006699"
  />
  <path
    fill-rule="evenodd"
    clip-rule="evenodd"
    d="M18.9437 50.2261V23.1327H9.93835V50.2261H18.9437ZM14.441 19.4336C17.5813 19.4336 19.5359 17.3531 19.5359 14.7531C19.4774 12.0946 17.5813 10.0719 14.5005 10.0719C11.4201 10.0719 9.40601 12.0946 9.40601 14.7531C9.40601 17.3531 11.3602 19.4336 14.3823 19.4336H14.441Z"
    fill="white"
  />
  <path
    fill-rule="evenodd"
    clip-rule="evenodd"
    d="M23.9266 50.2261H32.9319V35.096C32.9319 34.2863 32.9904 33.4773 33.2282 32.8985C33.8792 31.2806 35.3609 29.605 37.8487 29.605C41.1073 29.605 42.4108 32.0896 42.4108 35.7318V50.2261H51.4153V34.6911C51.4153 26.3693 46.9726 22.497 41.0478 22.497C36.1897 22.497 34.0569 25.2124 32.872 27.062H32.9321V23.1327H23.9269C24.045 25.675 23.9266 50.2261 23.9266 50.2261Z"
    fill="white"
  />
</svg>
