<svg
  width="60"
  height="60"
  viewBox="0 0 60 60"
  fill="currentColor"
  xmlns="http://www.w3.org/2000/svg"
>
  <g clip-path="url(#clip0_8412_1417)">
    <path
      d="M60 30.6262C60 14.0578 46.5684 0.626221 30 0.626221C13.4316 0.626221 0 14.0578 0 30.6262C0 44.695 9.6864 56.5006 22.7532 59.743V39.7942H16.5672V30.6262H22.7532V26.6758C22.7532 16.465 27.3744 11.7322 37.3992 11.7322C39.3 11.7322 42.5796 12.1054 43.9212 12.4774V20.7874C43.2132 20.713 41.9832 20.6758 40.4556 20.6758C35.5368 20.6758 33.636 22.5394 33.636 27.3838V30.6262H43.4352L41.7516 39.7942H33.636V60.4066C48.4884 58.6126 60 45.9646 60 30.6262Z"
      fill="#0866FF"
    />
  </g>
  <defs>
    <clipPath id="clip0_8412_1417">
      <rect width="60" height="60" fill="white" />
    </clipPath>
  </defs>
</svg>
