<svg
  width="61"
  height="61"
  viewBox="0 0 61 61"
  fill="currentColor"
  xmlns="http://www.w3.org/2000/svg"
>
  <path
    d="M56.143 0.626221C58.4198 0.626221 60.4287 2.63515 60.4287 5.04586V56.3405C60.4287 58.7512 58.4198 60.6262 56.143 60.6262H4.5805C2.30371 60.6262 0.428711 58.7512 0.428711 56.3405V5.04586C0.428711 2.63515 2.30371 0.626221 4.5805 0.626221H56.143ZM18.5091 52.0548V23.528H9.66978V52.0548H18.5091ZM14.0894 19.5101C16.9019 19.5101 19.1787 17.2334 19.1787 14.4209C19.1787 11.6084 16.9019 9.19765 14.0894 9.19765C11.143 9.19765 8.86621 11.6084 8.86621 14.4209C8.86621 17.2334 11.143 19.5101 14.0894 19.5101ZM51.8573 52.0548V36.3851C51.8573 28.7512 50.1162 22.7244 41.143 22.7244C36.8573 22.7244 33.9109 25.1351 32.7055 27.4119H32.5716V23.528H24.1341V52.0548H32.9734V37.9923C32.9734 34.2423 33.643 30.6262 38.3305 30.6262C42.8841 30.6262 42.8841 34.9119 42.8841 38.1262V52.0548H51.8573Z"
    fill="white"
  />
</svg>
