<svg
  width="60"
  height="60"
  viewBox="0 0 60 60"
  fill="currentColor"
  xmlns="http://www.w3.org/2000/svg"
>
  <path
    d="M29.9764 27.4051C27.253 22.1285 19.8658 12.2732 12.9892 7.42211C6.40195 2.77531 3.8828 3.57531 2.24876 4.32424C0.342378 5.19233 0.00195312 8.11999 0.00195312 9.83914C0.00195312 11.5583 0.938123 23.9668 1.56791 26.0264C3.61046 32.8689 10.8445 35.1838 17.5168 34.4349C17.8573 34.3838 18.1977 34.3328 18.5551 34.2987C18.2147 34.3498 17.8573 34.4008 17.5168 34.4349C7.74663 35.8817 -0.951237 39.4391 10.453 52.12C22.9807 65.0902 27.6275 49.3455 30.0105 41.3455C32.3934 49.3285 35.1339 64.5115 49.3296 52.12C60.002 41.3455 52.2573 35.8817 42.4871 34.4349C42.1466 34.4008 41.7892 34.3498 41.4488 34.2987C41.8062 34.3498 42.1466 34.3838 42.4871 34.4349C49.1594 35.1838 56.4105 32.8689 58.436 26.0264C59.0488 23.9498 60.002 11.5583 60.002 9.83914C60.002 8.11999 59.6615 5.19233 57.7551 4.32424C56.1041 3.57531 53.602 2.77531 47.0147 7.42211C40.0871 12.2902 32.6998 22.1285 29.9764 27.4051Z"
    fill="#1185FE"
  />
</svg>
