<svg
  width="60"
  height="60"
  viewBox="0 0 60 60"
  fill="currentColor"
  xmlns="http://www.w3.org/2000/svg"
>
  <path
    d="M30.0157 0.45459C17.6785 0.45459 14.0703 0.467317 13.3689 0.525499C10.8371 0.735953 9.26164 1.13459 7.54528 1.98914C6.22255 2.64595 5.17937 3.40732 4.14983 4.47459C2.27483 6.42095 1.13846 8.8155 0.727098 11.6619C0.527098 13.0437 0.468917 13.3255 0.457098 20.3837C0.452553 22.7364 0.457098 25.8328 0.457098 29.986C0.457098 42.3132 0.470735 45.9178 0.529826 46.6178C0.734371 49.0814 1.12073 50.6314 1.93892 52.3269C3.50255 55.5723 6.48892 58.0087 10.0071 58.9178C11.2253 59.2314 12.5707 59.4041 14.298 59.486C15.0298 59.5178 22.4889 59.5405 29.9525 59.5405C37.4162 59.5405 44.8798 59.5314 45.5935 59.495C47.5935 59.401 48.7548 59.245 50.0389 58.9132C53.5798 57.9996 56.5116 55.5996 58.1071 52.3087C58.9094 50.6541 59.3162 49.045 59.5003 46.71C59.5403 46.201 59.5571 38.0841 59.5571 29.9782C59.5571 21.871 59.5389 13.7691 59.4989 13.26C59.3126 10.8873 58.9057 9.29186 58.0775 7.6055C57.398 6.22504 56.6435 5.19414 55.548 4.14004C53.593 2.27277 51.2021 1.13641 48.353 0.725499C46.9725 0.525953 46.6975 0.466863 39.6339 0.45459H30.0157Z"
    fill="url(#paint0_radial_8412_1422)"
  />
  <path
    d="M30.0157 0.45459C17.6785 0.45459 14.0703 0.467317 13.3689 0.525499C10.8371 0.735953 9.26164 1.13459 7.54528 1.98914C6.22255 2.64595 5.17937 3.40732 4.14983 4.47459C2.27483 6.42095 1.13846 8.8155 0.727098 11.6619C0.527098 13.0437 0.468917 13.3255 0.457098 20.3837C0.452553 22.7364 0.457098 25.8328 0.457098 29.986C0.457098 42.3132 0.470735 45.9178 0.529826 46.6178C0.734371 49.0814 1.12073 50.6314 1.93892 52.3269C3.50255 55.5723 6.48892 58.0087 10.0071 58.9178C11.2253 59.2314 12.5707 59.4041 14.298 59.486C15.0298 59.5178 22.4889 59.5405 29.9525 59.5405C37.4162 59.5405 44.8798 59.5314 45.5935 59.495C47.5935 59.401 48.7548 59.245 50.0389 58.9132C53.5798 57.9996 56.5116 55.5996 58.1071 52.3087C58.9094 50.6541 59.3162 49.045 59.5003 46.71C59.5403 46.201 59.5571 38.0841 59.5571 29.9782C59.5571 21.871 59.5389 13.7691 59.4989 13.26C59.3126 10.8873 58.9057 9.29186 58.0775 7.6055C57.398 6.22504 56.6435 5.19414 55.548 4.14004C53.593 2.27277 51.2021 1.13641 48.353 0.725499C46.9725 0.525953 46.6975 0.466863 39.6339 0.45459H30.0157Z"
    fill="url(#paint1_radial_8412_1422)"
  />
  <path
    d="M30.0016 8.18188C24.0762 8.18188 23.3325 8.20779 21.0053 8.3137C18.6825 8.42007 17.0971 8.78779 15.7098 9.32734C14.2748 9.88461 13.0575 10.6301 11.8448 11.8432C10.6312 13.056 9.88573 14.2732 9.32664 15.7078C8.78573 17.0955 8.41755 18.6814 8.313 21.0032C8.20891 23.3305 8.18164 24.0746 8.18164 30.0001C8.18164 35.9255 8.208 36.6669 8.31346 38.9942C8.42028 41.3169 8.788 42.9023 9.3271 44.2896C9.88482 45.7246 10.6303 46.9419 11.8435 48.1546C13.0557 49.3683 14.273 50.1155 15.7071 50.6728C17.0953 51.2123 18.6812 51.5801 21.0035 51.6864C23.3307 51.7923 24.0739 51.8182 29.9989 51.8182C35.9248 51.8182 36.6662 51.7923 38.9935 51.6864C41.3162 51.5801 42.9035 51.2123 44.2916 50.6728C45.7262 50.1155 46.9416 49.3683 48.1539 48.1546C49.3675 46.9419 50.113 45.7246 50.6721 44.2901C51.2084 42.9023 51.5766 41.3164 51.6857 38.9946C51.7903 36.6673 51.8175 35.9255 51.8175 30.0001C51.8175 24.0746 51.7903 23.331 51.6857 21.0037C51.5766 18.681 51.2084 17.0955 50.6721 15.7082C50.113 14.2732 49.3675 13.056 48.1539 11.8432C46.9403 10.6296 45.7266 9.88416 44.2903 9.32734C42.8994 8.78779 41.313 8.42007 38.9903 8.3137C36.663 8.20779 35.9221 8.18188 29.9948 8.18188H30.0016ZM28.0444 12.1137C28.6253 12.1128 29.2735 12.1137 30.0016 12.1137C35.8271 12.1137 36.5175 12.1346 38.818 12.2392C40.9453 12.3364 42.0998 12.6919 42.8689 12.9905C43.8871 13.386 44.613 13.8587 45.3762 14.6223C46.1398 15.386 46.6125 16.1132 47.0089 17.1314C47.3075 17.8996 47.6635 19.0542 47.7603 21.1814C47.8648 23.4814 47.8875 24.1723 47.8875 29.9951C47.8875 35.8178 47.8648 36.5087 47.7603 38.8087C47.663 40.936 47.3075 42.0905 47.0089 42.8587C46.6135 43.8769 46.1398 44.6019 45.3762 45.3651C44.6125 46.1287 43.8875 46.6014 42.8689 46.9969C42.1007 47.2969 40.9453 47.6514 38.818 47.7487C36.518 47.8532 35.8271 47.876 30.0016 47.876C24.1757 47.876 23.4853 47.8532 21.1853 47.7487C19.058 47.6505 17.9035 47.2951 17.1339 46.9964C16.1157 46.601 15.3885 46.1283 14.6248 45.3646C13.8612 44.601 13.3885 43.8755 12.9921 42.8569C12.6935 42.0887 12.3375 40.9342 12.2407 38.8069C12.1362 36.5069 12.1153 35.816 12.1153 29.9896C12.1153 24.1632 12.1362 23.476 12.2407 21.176C12.338 19.0487 12.6935 17.8942 12.9921 17.1251C13.3875 16.1069 13.8612 15.3796 14.6248 14.616C15.3885 13.8523 16.1157 13.3796 17.1339 12.9832C17.903 12.6832 19.058 12.3287 21.1853 12.231C23.198 12.1401 23.978 12.1128 28.0444 12.1082V12.1137ZM41.648 15.7364C40.2025 15.7364 39.0298 16.9078 39.0298 18.3537C39.0298 19.7992 40.2025 20.9719 41.648 20.9719C43.0935 20.9719 44.2662 19.7992 44.2662 18.3537C44.2662 16.9082 43.0935 15.7355 41.648 15.7355V15.7364ZM30.0016 18.7955C23.8139 18.7955 18.7971 23.8123 18.7971 30.0001C18.7971 36.1878 23.8139 41.2023 30.0016 41.2023C36.1894 41.2023 41.2044 36.1878 41.2044 30.0001C41.2044 23.8123 36.1894 18.7955 30.0016 18.7955ZM30.0016 22.7273C34.018 22.7273 37.2744 25.9832 37.2744 30.0001C37.2744 34.0164 34.018 37.2728 30.0016 37.2728C25.9848 37.2728 22.7289 34.0164 22.7289 30.0001C22.7289 25.9832 25.9848 22.7273 30.0016 22.7273Z"
    fill="white"
  />
  <defs>
    <radialGradient
      id="paint0_radial_8412_1422"
      cx="0"
      cy="0"
      r="1"
      gradientUnits="userSpaceOnUse"
      gradientTransform="translate(16.1541 64.0914) rotate(-90) scale(58.5585 54.4789)"
    >
      <stop stop-color="#FFDD55" />
      <stop offset="0.1" stop-color="#FFDD55" />
      <stop offset="0.5" stop-color="#FF543E" />
      <stop offset="1" stop-color="#C837AB" />
    </radialGradient>
    <radialGradient
      id="paint1_radial_8412_1422"
      cx="0"
      cy="0"
      r="1"
      gradientUnits="userSpaceOnUse"
      gradientTransform="translate(-9.44482 4.71104) rotate(78.6776) scale(26.1762 107.926)"
    >
      <stop stop-color="#3771C8" />
      <stop offset="0.128" stop-color="#3771C8" />
      <stop offset="1" stop-color="#6600FF" stop-opacity="0" />
    </radialGradient>
  </defs>
</svg>
