<svg
  width="60"
  height="60"
  viewBox="0 0 60 60"
  fill="currentColor"
  xmlns="http://www.w3.org/2000/svg"
>
  <path
    d="M30 60C46.5685 60 60 46.5685 60 30C60 13.4315 46.5685 0 30 0C13.4315 0 0 13.4315 0 30C0 46.5685 13.4315 60 30 60Z"
    fill="url(#paint0_linear_8412_1419)"
  />
  <path
    d="M12.4855 29.74L32.6878 21.4163C34.6821 20.5492 41.4451 17.7747 41.4451 17.7747C41.4451 17.7747 44.5664 16.5608 44.3063 19.5088C44.2196 20.7227 43.526 24.9712 42.8323 29.5666L40.6647 43.1793C40.6647 43.1793 40.4913 45.1735 39.0173 45.5203C37.5433 45.8672 35.1156 44.3065 34.6821 43.9596C34.3352 43.6995 28.1792 39.7978 25.9248 37.8903C25.3179 37.3701 24.6243 36.3296 26.0115 35.1157C29.1329 32.2544 32.8612 28.6995 35.1156 26.4452C36.156 25.4047 37.1965 22.977 32.8612 25.925L20.6358 34.162C20.6358 34.162 19.2485 35.029 16.6474 34.2487C14.0462 33.4683 11.0115 32.4279 11.0115 32.4279C11.0115 32.4279 8.93061 31.1273 12.4855 29.74Z"
    fill="white"
  />
  <defs>
    <linearGradient
      id="paint0_linear_8412_1419"
      x1="40.0023"
      y1="10.0023"
      x2="25.0023"
      y2="45"
      gradientUnits="userSpaceOnUse"
    >
      <stop stop-color="#37AEE2" />
      <stop offset="1" stop-color="#1E96C8" />
    </linearGradient>
  </defs>
</svg>
