<svg
  width="60"
  height="60"
  viewBox="0 0 60 60"
  fill="currentColor"
  xmlns="http://www.w3.org/2000/svg"
>
  <g clip-path="url(#clip0_8412_1460)">
    <path
      d="M50.3289 9.46551C55.9539 15.0905 59.436 22.4566 59.436 30.4923C59.436 46.8316 45.7753 60.2244 29.3021 60.2244C24.3467 60.2244 19.5253 58.8851 15.1057 56.6084L-0.563965 60.6262L3.58782 45.2244C1.04318 40.8048 -0.430036 35.7155 -0.430036 30.3584C-0.430036 14.0191 12.9628 0.626221 29.3021 0.626221C37.3378 0.626221 44.8378 3.84051 50.3289 9.46551ZM29.3021 55.1351C42.9628 55.1351 54.3467 44.0191 54.3467 30.4923C54.3467 23.7959 51.5342 17.6351 46.8467 12.9476C42.1592 8.26015 35.9985 5.71551 29.436 5.71551C15.7753 5.71551 4.65925 16.8316 4.65925 30.3584C4.65925 35.0459 5.99854 39.5994 8.40925 43.6173L9.07889 44.5548L6.53425 53.6619L15.9092 51.1173L16.7128 51.653C20.5967 53.9298 24.8825 55.1351 29.3021 55.1351ZM42.9628 36.653C43.6325 37.0548 44.1682 37.1887 44.3021 37.5905C44.57 37.8584 44.57 39.3316 43.9003 41.0726C43.2307 42.8137 40.2842 44.4209 38.945 44.5548C36.5342 44.9566 34.6592 44.8226 29.9717 42.6798C22.4717 39.4655 17.6503 31.9655 17.2485 31.5637C16.8467 31.028 14.3021 27.5459 14.3021 23.7959C14.3021 20.1798 16.1771 18.4387 16.8467 17.6351C17.5164 16.8316 18.32 16.6976 18.8557 16.6976C19.2575 16.6976 19.7932 16.6976 20.195 16.6976C20.7307 16.6976 21.2664 16.5637 21.936 18.0369C22.4717 19.5101 24.0789 23.1262 24.2128 23.528C24.3467 23.9298 24.4807 24.3316 24.2128 24.8673C22.8735 27.6798 21.2664 27.5459 22.07 28.8851C25.0164 33.8405 27.8289 35.5816 32.2485 37.7244C32.9182 38.1262 33.32 37.9923 33.8557 37.5905C34.2575 37.0548 35.7307 35.3137 36.1325 34.6441C36.6682 33.8405 37.2039 33.9744 37.8735 34.2423C38.5432 34.5101 42.1592 36.2512 42.9628 36.653Z"
      fill="white"
    />
  </g>
  <defs>
    <clipPath id="clip0_8412_1460">
      <rect
        width="60"
        height="60"
        fill="white"
        transform="translate(0.00170898)"
      />
    </clipPath>
  </defs>
</svg>
