<svg
  width="60"
  height="60"
  viewBox="0 0 60 60"
  fill="currentColor"
  xmlns="http://www.w3.org/2000/svg"
>
  <g clip-path="url(#clip0_8412_1454)">
    <path
      d="M30.0023 -0.000244141C21.8547 -0.000244141 20.8322 0.0353818 17.6322 0.181008C14.4384 0.32726 12.2584 0.83289 10.3509 1.57477C8.37772 2.34103 6.70396 3.36604 5.03644 5.03419C3.36767 6.7017 2.34266 8.37547 1.5739 10.348C0.830145 12.2561 0.32389 14.4368 0.180138 17.6293C0.0370118 20.8294 -0.000488281 21.8525 -0.000488281 30.0001C-0.000488281 38.1477 0.0357627 39.1671 0.180764 42.3671C0.327641 45.5609 0.833271 47.7409 1.57453 49.6484C2.34141 51.6216 3.36642 53.2953 5.03456 54.9629C6.70146 56.6316 8.37522 57.6591 10.3471 58.4254C12.2559 59.1673 14.4365 59.6729 17.6297 59.8192C20.8297 59.9648 21.8516 60.0004 29.9986 60.0004C38.1468 60.0004 39.1662 59.9648 42.3662 59.8192C45.56 59.6729 47.7425 59.1673 49.6513 58.4254C51.6238 57.6591 53.2951 56.6316 54.962 54.9629C56.6307 53.2953 57.6557 51.6216 58.4245 49.649C59.162 47.7409 59.6683 45.5603 59.8183 42.3677C59.962 39.1677 59.9995 38.1477 59.9995 30.0001C59.9995 21.8525 59.962 20.83 59.8183 17.6299C59.6683 14.4362 59.162 12.2561 58.4245 10.3486C57.6557 8.37547 56.6307 6.7017 54.962 5.03419C53.2932 3.36542 51.6244 2.34041 49.6494 1.57477C47.7369 0.83289 45.5556 0.32726 42.3618 0.181008C39.1618 0.0353818 38.143 -0.000244141 29.9929 -0.000244141H30.0023ZM27.311 5.40606C28.1098 5.40481 29.0011 5.40606 30.0023 5.40606C38.0124 5.40606 38.9618 5.43482 42.125 5.57857C45.05 5.71232 46.6375 6.20107 47.695 6.6117C49.095 7.15546 50.0932 7.80546 51.1425 8.85548C52.1926 9.90549 52.8426 10.9055 53.3876 12.3055C53.7982 13.3618 54.2876 14.9493 54.4207 17.8743C54.5645 21.0369 54.5957 21.9869 54.5957 29.9932C54.5957 37.9995 54.5645 38.9496 54.4207 42.1121C54.2869 45.0371 53.7982 46.6246 53.3876 47.6809C52.8438 49.0809 52.1926 50.0778 51.1425 51.1272C50.0925 52.1772 49.0956 52.8272 47.695 53.371C46.6387 53.7835 45.05 54.271 42.125 54.4047C38.9624 54.5485 38.0124 54.5797 30.0023 54.5797C21.9916 54.5797 21.0422 54.5485 17.8797 54.4047C14.9547 54.2697 13.3672 53.781 12.309 53.3703C10.909 52.8266 9.90899 52.1766 8.85898 51.1266C7.80897 50.0766 7.15896 49.079 6.61396 47.6784C6.20333 46.6221 5.71395 45.0346 5.58082 42.1096C5.43707 38.9471 5.40832 37.997 5.40832 29.9857C5.40832 21.9744 5.43707 21.0294 5.58082 17.8668C5.71457 14.9418 6.20333 13.3543 6.61396 12.2968C7.15771 10.8967 7.80897 9.89674 8.85898 8.84673C9.90899 7.79671 10.909 7.14671 12.309 6.6017C13.3665 6.1892 14.9547 5.70169 17.8797 5.56732C20.6472 5.44232 21.7197 5.40481 27.311 5.39856V5.40606ZM46.0162 10.3874C44.0287 10.3874 42.4162 11.998 42.4162 13.9862C42.4162 15.9737 44.0287 17.5862 46.0162 17.5862C48.0038 17.5862 49.6163 15.9737 49.6163 13.9862C49.6163 11.9986 48.0038 10.3861 46.0162 10.3861V10.3874ZM30.0023 14.5937C21.4941 14.5937 14.5959 21.4919 14.5959 30.0001C14.5959 38.5083 21.4941 45.4034 30.0023 45.4034C38.5105 45.4034 45.4062 38.5083 45.4062 30.0001C45.4062 21.4919 38.5105 14.5937 30.0023 14.5937ZM30.0023 20C35.5249 20 40.0024 24.4769 40.0024 30.0001C40.0024 35.5226 35.5249 40.0002 30.0023 40.0002C24.4791 40.0002 20.0022 35.5226 20.0022 30.0001C20.0022 24.4769 24.4791 20 30.0023 20Z"
      fill="white"
    />
  </g>
  <defs>
    <clipPath id="clip0_8412_1454">
      <rect width="60.0018" height="60" fill="white" />
    </clipPath>
  </defs>
</svg>
