<svg
  width="60"
  height="60"
  viewBox="0 0 60 60"
  fill="currentColor"
  xmlns="http://www.w3.org/2000/svg"
>
  <path
    fill-rule="evenodd"
    clip-rule="evenodd"
    d="M30 4.75C31.2426 4.75 32.25 5.75736 32.25 7V15.368L39.909 7.70901C40.7877 6.83033 42.2123 6.83033 43.091 7.70901C43.9697 8.58769 43.9697 10.0123 43.091 10.891L32.25 21.732V27.75H38.268L49.109 16.909C49.9877 16.0303 51.4123 16.0303 52.291 16.909C53.1697 17.7877 53.1697 19.2123 52.291 20.091L44.632 27.75H53C54.2426 27.75 55.25 28.7574 55.25 30C55.25 31.2426 54.2426 32.25 53 32.25H44.632L52.291 39.909C53.1697 40.7877 53.1697 42.2123 52.291 43.091C51.4123 43.9697 49.9877 43.9697 49.109 43.091L38.268 32.25H32.25V38.268L43.091 49.109C43.9697 49.9877 43.9697 51.4123 43.091 52.291C42.2123 53.1697 40.7877 53.1697 39.909 52.291L32.25 44.632V53C32.25 54.2426 31.2426 55.25 30 55.25C28.7574 55.25 27.75 54.2426 27.75 53V44.632L20.091 52.291C19.2123 53.1697 17.7877 53.1697 16.909 52.291C16.0303 51.4123 16.0303 49.9877 16.909 49.109L27.75 38.268V32.25H21.732L10.891 43.091C10.0123 43.9697 8.58769 43.9697 7.70901 43.091C6.83033 42.2123 6.83033 40.7877 7.70901 39.909L15.368 32.25H7C5.75736 32.25 4.75 31.2426 4.75 30C4.75 28.7574 5.75736 27.75 7 27.75H15.368L7.70901 20.091C6.83033 19.2123 6.83033 17.7877 7.70901 16.909C8.58769 16.0303 10.0123 16.0303 10.891 16.909L21.732 27.75H27.75V21.732L16.909 10.891C16.0303 10.0123 16.0303 8.58769 16.909 7.70901C17.7877 6.83033 19.2123 6.83033 20.091 7.70901L27.75 15.368V7C27.75 5.75736 28.7574 4.75 30 4.75Z"
  />
</svg>
