<svg
  width="60"
  height="60"
  viewBox="0 0 60 60"
  fill="currentColor"
  xmlns="http://www.w3.org/2000/svg"
>
  <path
    fill-rule="evenodd"
    clip-rule="evenodd"
    d="M21.6306 5.39641C22.5162 4.52475 23.9408 4.53607 24.8125 5.42171L30.0001 10.6924L35.1876 5.42171C36.0593 4.53607 37.4839 4.52475 38.3695 5.39641C39.2552 6.26808 39.2665 7.69266 38.3948 8.57829L32.2501 14.8215V26.0716L41.7842 20.4788L44.0333 11.9507C44.3502 10.7491 45.5811 10.0319 46.7826 10.3488C47.9842 10.6657 48.7014 11.8966 48.3845 13.0982L46.468 20.3654L53.5911 22.3046C54.7901 22.631 55.4975 23.8676 55.171 25.0666C54.8446 26.2656 53.608 26.973 52.409 26.6466L44.0453 24.3696L34.4471 29.9999L44.0451 35.6301L52.4091 33.3532C53.6081 33.0268 54.8447 33.7341 55.1711 34.9331C55.4975 36.1321 54.7901 37.3687 53.5911 37.6951L46.4678 39.6343L48.3845 46.9015C48.7014 48.1031 47.9843 49.334 46.7827 49.6509C45.5812 49.9678 44.3502 49.2507 44.0333 48.0491L41.784 39.5208L32.2501 33.9282V45.1785L38.3948 51.4217C39.2665 52.3073 39.2552 53.7319 38.3695 54.6036C37.4839 55.4753 36.0593 55.4639 35.1876 54.5783L30.0001 49.3076L24.8125 54.5783C23.9408 55.4639 22.5162 55.4753 21.6306 54.6036C20.745 53.7319 20.7336 52.3073 21.6053 51.4217L27.7501 45.1785V33.9284L18.2159 39.5212L15.9669 48.0493C15.65 49.2509 14.419 49.9681 13.2175 49.6512C12.0159 49.3343 11.2987 48.1034 11.6156 46.9018L13.5321 39.6346L6.40904 37.6954C5.21004 37.369 4.50267 36.1324 4.82909 34.9334C5.15551 33.7344 6.39211 33.027 7.59111 33.3534L15.9549 35.6304L25.5534 29.9999L15.9547 24.3693L7.59159 26.6468C6.39261 26.9733 5.15596 26.266 4.82945 25.067C4.50295 23.868 5.21023 22.6314 6.4092 22.3049L13.5321 20.3652L11.6159 13.0984C11.2991 11.8968 12.0163 10.6659 13.2179 10.349C14.4195 10.0322 15.6504 10.7494 15.9672 11.951L18.2158 20.4785L27.7501 26.0714V14.8215L21.6053 8.57829C20.7336 7.69266 20.745 6.26808 21.6306 5.39641Z"
  />
</svg>
