<svg
  width="60"
  height="60"
  viewBox="0 0 60 60"
  fill="currentColor"
  xmlns="http://www.w3.org/2000/svg"
>
  <path
    fill-rule="evenodd"
    clip-rule="evenodd"
    d="M29.9999 2.75C24.5482 2.75 19.3744 5.15841 15.5995 9.3527C11.8317 13.5392 9.74988 19.171 9.74988 25C9.74988 27.9316 10.276 30.8087 11.2754 33.4761L5.33415 37.0758C4.31503 37.6933 3.95404 38.9982 4.51091 40.0517L13.0875 56.2761C13.6647 57.368 15.0141 57.7905 16.1109 57.2228L30.25 49.9044L44.3891 57.2228C45.4859 57.7905 46.8353 57.368 47.4125 56.2761L55.9891 40.0517C56.546 38.9982 56.185 37.6933 55.1659 37.0758L49.2246 33.4761C50.224 30.8087 50.7501 27.9316 50.7501 25C50.7501 19.171 48.6683 13.5392 44.9005 9.3527C41.1256 5.15841 35.9518 2.75 30.5001 2.75C30.4162 2.75 30.3327 2.75469 30.25 2.76394C30.1673 2.75469 30.0838 2.75 29.9999 2.75ZM18.9444 12.363C21.3717 9.66604 24.4683 7.96747 27.7499 7.4325L27.7499 44.9961L27.7502 45.0324L27.7501 46.1312L16.0234 52.2011L9.48104 39.8248L15.2734 36.3153C16.263 35.7157 16.6366 34.4633 16.137 33.4196C14.9126 30.8612 14.2499 27.973 14.2499 25C14.2499 20.2204 15.9609 15.678 18.9444 12.363ZM41.5556 12.363C39.1283 9.66604 36.0317 7.96747 32.7501 7.4325L32.7501 44.9961L32.7498 45.0324L32.7499 46.1312L44.4766 52.2011L51.019 39.8248L45.2266 36.3153C44.237 35.7157 43.8634 34.4633 44.363 33.4196C45.5874 30.8612 46.2501 27.973 46.2501 25C46.2501 20.2204 44.5391 15.678 41.5556 12.363Z"
  />
</svg>
