<svg xmlns="http://www.w3.org/2000/svg" width="1em" height="1em" viewBox="0 0 14 14" fill="currentColor">
  <path
    d="M9.59902 1.37977C9.79518 1.29853 10.021 1.34359 10.1712 1.49371L12.9712 4.29371C13.1762 4.49872 13.1762 4.83106 12.9712 5.03609C12.7662 5.24111 12.4338 5.24111 12.2288 5.03609L10.325 3.13228V12.1316C10.325 12.4215 10.0899 12.6566 9.8 12.6566C9.51005 12.6566 9.275 12.4215 9.275 12.1316V1.8649C9.27503 1.65259 9.40288 1.46103 9.59902 1.37977Z" />
  <path
    d="M4.66667 11.1399C4.95659 11.1399 5.19163 11.375 5.19167 11.6649C5.19167 11.9548 4.95662 12.1899 4.66667 12.1899H1.4C1.11005 12.1899 0.875 11.9548 0.875 11.6649C0.875038 11.375 1.11007 11.1399 1.4 11.1399H4.66667Z" />
  <path
    d="M6.06667 6.47323C6.35659 6.47323 6.59163 6.70831 6.59167 6.99823C6.59167 7.28818 6.35662 7.52323 6.06667 7.52323H1.4C1.11005 7.52323 0.875 7.28818 0.875 6.99823C0.875037 6.70831 1.11007 6.47323 1.4 6.47323H6.06667Z" />
  <path
    d="M7.46667 1.80656C7.75659 1.80656 7.99163 2.04165 7.99167 2.33156C7.99167 2.62151 7.75662 2.85656 7.46667 2.85656H1.4C1.11005 2.85656 0.875 2.62151 0.875 2.33156C0.875037 2.04165 1.11007 1.80656 1.4 1.80656H7.46667Z" />
</svg>