<svg xmlns="http://www.w3.org/2000/svg" width="1em" height="1em" viewBox="0 0 14 14" fill="currentColor">
  <path
    d="M9.8 1.33984C10.0899 1.33984 10.325 1.57489 10.325 1.86484V10.8641L12.2288 8.96032C12.4338 8.75529 12.7662 8.75529 12.9712 8.96032C13.1762 9.16534 13.1762 9.49768 12.9712 9.7027L10.1712 12.5027C10.021 12.6529 9.7952 12.6979 9.59902 12.6166C9.40286 12.5354 9.275 12.3438 9.275 12.1315V1.86484C9.275 1.57489 9.51005 1.33984 9.8 1.33984Z" />
  <path
    d="M4.66667 11.1398C4.95662 11.1398 5.19167 11.3749 5.19167 11.6648C5.19167 11.9548 4.95662 12.1898 4.66667 12.1898H1.4C1.11005 12.1898 0.875 11.9548 0.875 11.6648C0.875 11.3749 1.11005 11.1398 1.4 11.1398H4.66667Z" />
  <path
    d="M6.06667 6.47318C6.35662 6.47318 6.59167 6.70823 6.59167 6.99818C6.59167 7.28813 6.35662 7.52318 6.06667 7.52318H1.4C1.11005 7.52318 0.875 7.28813 0.875 6.99818C0.875 6.70823 1.11005 6.47318 1.4 6.47318H6.06667Z" />
  <path
    d="M7.46667 1.80651C7.75662 1.80651 7.99167 2.04156 7.99167 2.33151C7.99167 2.62146 7.75662 2.85651 7.46667 2.85651H1.4C1.11005 2.85651 0.875 2.62146 0.875 2.33151C0.875 2.04156 1.11005 1.80651 1.4 1.80651H7.46667Z" />
</svg>