<svg xmlns="http://www.w3.org/2000/svg" width="1em" height="1em" viewBox="0 0 16 16" fill="currentColor">
  <path
    d="M4.90916 1.7071C5.08076 1.53555 5.33889 1.48403 5.56307 1.57689C5.78722 1.66975 5.93335 1.88868 5.93338 2.13131V13.8646C5.93338 14.196 5.66473 14.4646 5.33338 14.4646C5.00201 14.4646 4.73338 14.196 4.73338 13.8646V3.57975L2.5576 5.75553C2.32328 5.98985 1.94347 5.98985 1.70916 5.75553C1.47486 5.52122 1.47485 5.1414 1.70916 4.90709L4.90916 1.7071Z" />
  <path
    d="M10.6667 1.53131C10.998 1.53134 11.2667 1.79999 11.2667 2.13131V12.4162L13.4425 10.2404C13.6768 10.0062 14.0566 10.0062 14.2909 10.2404C14.5252 10.4747 14.5252 10.8545 14.2909 11.0889L11.0909 14.2889C10.9193 14.4605 10.6612 14.5119 10.437 14.4191C10.2128 14.3262 10.0667 14.1073 10.0667 13.8646V2.13131C10.0668 1.79998 10.3354 1.53131 10.6667 1.53131Z" />
</svg>