<svg
  width="60"
  height="60"
  viewBox="0 0 60 60"
  fill="currentColor"
  xmlns="http://www.w3.org/2000/svg"
>
  <path
    fill-rule="evenodd"
    clip-rule="evenodd"
    d="M42.729 9.33399C43.065 7.84169 44.0075 7.25 44.9999 7.25C45.8919 7.25 46.7499 8.16673 46.7499 9V9.5C46.7499 10.7426 47.7573 11.75 48.9999 11.75C50.2426 11.75 51.2499 10.7426 51.2499 9.5V9C51.2499 5.83327 48.5263 2.75 44.9999 2.75C41.5976 2.75 38.9794 5.13002 38.2936 8.55874L38.2698 8.67809L35.4424 40.25H12.5999C12.5837 40.25 12.567 40.25 12.5498 40.25C12.3222 40.2498 12.0141 40.2496 11.7346 40.277C11.3839 40.3113 10.92 40.3994 10.4381 40.6725C9.80135 41.0334 9.27094 41.6487 9.00783 42.3317C8.68524 43.169 8.82189 43.9957 8.8791 44.3417C8.8845 44.3744 8.88919 44.4028 8.89272 44.4265C9.99292 51.8115 17.1613 57.25 24.4999 57.25C32.6554 57.25 39.1546 50.769 39.7427 42.6813L42.729 9.33399ZM34.8305 44.75H13.5505C14.76 49.2121 19.4772 52.75 24.4999 52.75C29.3468 52.75 33.4894 49.4264 34.8305 44.75Z"
  />
  <path
    fill-rule="evenodd"
    clip-rule="evenodd"
    d="M11.3951 28.845C10.2523 26.7986 8.50711 23.6737 9.91083 20.1641C10.3723 19.0103 11.6817 18.4491 12.8355 18.9106C13.9893 19.3721 14.5505 20.6815 14.089 21.8353C13.5506 23.1813 14.0985 24.4442 15.4669 26.9072C15.5116 26.9877 15.5576 27.0701 15.6047 27.1544C16.7476 29.201 18.4929 32.3261 17.0885 35.836C16.6268 36.9897 15.3173 37.5507 14.1636 37.0891C13.0099 36.6274 12.4489 35.3179 12.9105 34.1642C13.4491 32.8182 12.9014 31.5555 11.5331 29.0926C11.4883 29.0119 11.4423 28.9294 11.3951 28.845Z"
  />
  <path
    fill-rule="evenodd"
    clip-rule="evenodd"
    d="M19.8638 28.8171C18.7248 26.7802 16.9881 23.6742 18.3394 20.1868C18.7884 19.0281 20.0916 18.4527 21.2503 18.9017C22.409 19.3506 22.9844 20.6539 22.5354 21.8126C22.0118 23.1641 22.5769 24.4333 23.9513 26.9072C23.991 26.9787 24.0317 27.0517 24.0731 27.1261C25.2201 29.1824 26.974 32.3268 25.5169 35.8583C25.0429 37.007 23.7275 37.554 22.5788 37.08C21.4301 36.606 20.8831 35.2906 21.3571 34.1419C21.9104 32.801 21.3796 31.5445 20.0175 29.0925C19.9678 29.003 19.9164 28.9112 19.8638 28.8171Z"
  />
  <path
    fill-rule="evenodd"
    clip-rule="evenodd"
    d="M26.2302 25.3455C25.7695 23.8619 25.6229 22.1573 26.3505 20.352C26.815 19.1994 28.1259 18.6416 29.2785 19.1061C30.431 19.5706 30.9888 20.8815 30.5243 22.0341C30.2833 22.6322 30.2853 23.2302 30.5277 24.0108C30.7961 24.8749 31.2921 25.7689 31.9514 26.9556C31.9794 27.0062 32.008 27.0574 32.0368 27.1093C33.2019 29.2026 34.9736 32.3857 33.528 36.0242C33.0692 37.179 31.7611 37.7433 30.6062 37.2845C29.4514 36.8256 28.8871 35.5175 29.346 34.3627C29.9279 32.8979 29.3568 31.5517 28.0176 29.1409C27.9846 29.0815 27.951 29.0212 27.917 28.96C27.3427 27.9285 26.6408 26.6674 26.2302 25.3455Z"
  />
</svg>
