<svg
  width="60"
  height="60"
  viewBox="0 0 60 60"
  fill="currentColor"
  xmlns="http://www.w3.org/2000/svg"
>
  <path
    fill-rule="evenodd"
    clip-rule="evenodd"
    d="M8.83484 6.85664C7.91085 7.18397 7.18397 7.91085 6.85664 8.83484C6.57001 9.64393 6.72376 10.393 6.81406 10.7683C6.90776 11.1578 7.06257 11.6139 7.20861 12.0442L7.23267 12.1152L11.1432 23.6469L3.86055 33.4059L3.81573 33.4659L3.81569 33.466C3.54385 33.8301 3.25568 34.216 3.04622 34.5575C2.84437 34.8865 2.46667 35.5514 2.48925 36.4094C2.51503 37.3894 2.98172 38.3053 3.75933 38.9021C4.44025 39.4247 5.20016 39.51 5.585 39.5401C5.98437 39.5713 6.46602 39.565 6.92039 39.5591L6.9953 39.5582L19.1711 39.4025L26.2019 49.3444L26.2452 49.4056C26.5075 49.7767 26.7855 50.17 27.0455 50.4748C27.2961 50.7684 27.8117 51.3331 28.6347 51.5768C29.5747 51.8551 30.59 51.6942 31.3979 51.1391C32.1054 50.653 32.4212 49.9567 32.5688 49.6C32.7219 49.2298 32.8648 48.7697 32.9996 48.3358L33.0218 48.2643L36.6363 36.6363L48.2643 33.0218L48.3358 32.9996C48.7698 32.8648 49.2298 32.7219 49.6 32.5688C49.9567 32.4212 50.653 32.1054 51.1391 31.3979C51.6942 30.59 51.8551 29.5747 51.5768 28.6347C51.3331 27.8117 50.7684 27.2961 50.4748 27.0455C50.17 26.7855 49.7766 26.5074 49.4055 26.2451L49.3444 26.2019L39.4025 19.1711L39.5582 6.9953L39.5591 6.9204V6.92028C39.565 6.46595 39.5713 5.98434 39.5401 5.585C39.51 5.20016 39.4247 4.44025 38.9021 3.75933C38.3053 2.98172 37.3893 2.51503 36.4094 2.48925C35.5514 2.46667 34.8865 2.84437 34.5574 3.04622C34.216 3.25569 33.83 3.54388 33.4659 3.81574L33.4059 3.86055L23.6469 11.1432L12.1151 7.23267L12.0442 7.2086C11.6139 7.06257 11.1578 6.90776 10.7683 6.81406C10.393 6.72376 9.64393 6.57001 8.83484 6.85664ZM9.6792 11.1812C9.67964 11.1813 9.68041 11.1814 9.68153 11.1816L9.6792 11.1812ZM22.5254 15.5146L11.9173 11.9173L15.5146 22.5254C15.5197 22.5403 15.526 22.5583 15.5332 22.579L15.5332 22.579C15.6042 22.7817 15.7676 23.2479 15.7859 23.7492C15.8012 24.1697 15.7348 24.5892 15.5902 24.9844C15.4179 25.4554 15.1185 25.8484 14.9883 26.0192L14.9882 26.0194C14.9749 26.0367 14.9635 26.0518 14.9541 26.0644L8.25472 35.0417L19.4553 34.8985C19.4711 34.8983 19.4901 34.8979 19.512 34.8974C19.7267 34.8925 20.2206 34.8812 20.703 35.0187C21.1077 35.134 21.4861 35.3268 21.8173 35.5864C22.212 35.8959 22.4932 36.3021 22.6154 36.4786L22.6155 36.4787C22.6279 36.4967 22.6388 36.5124 22.6479 36.5252L29.1156 45.6708L32.4406 34.9742C32.4453 34.9591 32.4507 34.9409 32.457 34.9199C32.5187 34.7143 32.6606 34.241 32.9404 33.8247C33.1751 33.4755 33.4755 33.1751 33.8247 32.9404C34.241 32.6606 34.7143 32.5187 34.9199 32.457C34.9409 32.4507 34.9591 32.4453 34.9742 32.4406L45.6708 29.1156L36.5252 22.6479C36.5123 22.6387 36.4967 22.6279 36.4786 22.6154C36.3021 22.4932 35.8959 22.212 35.5864 21.8173C35.3268 21.4861 35.134 21.1077 35.0187 20.703C34.8812 20.2206 34.8925 19.7267 34.8974 19.5121C34.8979 19.4901 34.8983 19.4711 34.8985 19.4553L35.0417 8.25472L26.0644 14.9541C26.0518 14.9635 26.0367 14.9749 26.0194 14.9882L26.0192 14.9883C25.8484 15.1185 25.4554 15.4179 24.9844 15.5902C24.5892 15.7348 24.1697 15.8012 23.7492 15.7859C23.2479 15.7676 22.7816 15.6042 22.579 15.5332C22.5583 15.526 22.5403 15.5197 22.5254 15.5146ZM43.5911 40.409C42.7125 39.5303 41.2878 39.5303 40.4091 40.409C39.5305 41.2877 39.5305 42.7123 40.4091 43.591L53.4091 56.591C54.2878 57.4697 55.7125 57.4697 56.5911 56.591C57.4698 55.7123 57.4698 54.2877 56.5911 53.409L43.5911 40.409Z"
  />
</svg>
