<svg
  width="60"
  height="60"
  viewBox="0 0 60 60"
  fill="currentColor"
  xmlns="http://www.w3.org/2000/svg"
>
  <path
    fill-rule="evenodd"
    clip-rule="evenodd"
    d="M14 38.25C10.8244 38.25 8.25 40.8244 8.25 44C8.25 47.1756 10.8244 49.75 14 49.75C17.1756 49.75 19.75 47.1756 19.75 44C19.75 40.8244 17.1756 38.25 14 38.25ZM3.75 44C3.75 38.3391 8.33908 33.75 14 33.75C19.6609 33.75 24.25 38.3391 24.25 44C24.25 49.6609 19.6609 54.25 14 54.25C8.33908 54.25 3.75 49.6609 3.75 44Z"
  />
  <path
    fill-rule="evenodd"
    clip-rule="evenodd"
    d="M30 8.25C26.8244 8.25 24.25 10.8244 24.25 14C24.25 17.1756 26.8244 19.75 30 19.75C33.1756 19.75 35.75 17.1756 35.75 14C35.75 10.8244 33.1756 8.25 30 8.25ZM19.75 14C19.75 8.33908 24.3391 3.75 30 3.75C35.6609 3.75 40.25 8.33908 40.25 14C40.25 19.6609 35.6609 24.25 30 24.25C24.3391 24.25 19.75 19.6609 19.75 14Z"
  />
  <path
    fill-rule="evenodd"
    clip-rule="evenodd"
    d="M46 38.25C42.8244 38.25 40.25 40.8244 40.25 44C40.25 47.1756 42.8244 49.75 46 49.75C49.1756 49.75 51.75 47.1756 51.75 44C51.75 40.8244 49.1756 38.25 46 38.25ZM35.75 44C35.75 38.3391 40.3391 33.75 46 33.75C51.6609 33.75 56.25 38.3391 56.25 44C56.25 49.6609 51.6609 54.25 46 54.25C40.3391 54.25 35.75 49.6609 35.75 44Z"
  />
</svg>
