<svg
  width="60"
  height="60"
  viewBox="0 0 60 60"
  fill="currentColor"
  xmlns="http://www.w3.org/2000/svg"
>
  <path
    fill-rule="evenodd"
    clip-rule="evenodd"
    d="M23.0638 14.5007C23.9692 14.0548 25.0304 14.0548 25.9357 14.5007C26.7419 14.8977 27.1603 15.5901 27.3521 15.9276C27.559 16.292 27.7696 16.7554 27.9726 17.2021C27.9833 17.2257 27.9939 17.2492 28.0046 17.2726L32.4586 27.0696C32.5057 27.173 32.5417 27.2522 32.5734 27.3205C32.5864 27.3484 32.5976 27.3722 32.6073 27.3925C32.6276 27.4022 32.6514 27.4134 32.6793 27.4264C32.7476 27.4581 32.8268 27.4942 32.9303 27.5412L42.7977 32.0273C43.2445 32.2303 43.7078 32.4408 44.0722 32.6478C44.4097 32.8395 45.1021 33.2579 45.4991 34.0641C45.945 34.9694 45.945 36.0306 45.4991 36.936C45.1021 37.7421 44.4097 38.1605 44.0722 38.3523C43.7078 38.5593 43.2444 38.7698 42.7977 38.9728L32.9303 43.4588C32.8268 43.5059 32.7476 43.5419 32.6793 43.5736C32.6514 43.5866 32.6276 43.5978 32.6073 43.6075C32.5976 43.6278 32.5864 43.6516 32.5734 43.6796C32.5417 43.7478 32.5057 43.827 32.4586 43.9305L27.9725 53.798C27.7696 54.2447 27.559 54.708 27.3521 55.0724C27.1603 55.4099 26.7419 56.1023 25.9357 56.4994C25.0304 56.9453 23.9692 56.9453 23.0638 56.4994C22.2577 56.1023 21.8393 55.4099 21.6475 55.0724C21.4405 54.708 21.23 54.2447 21.027 53.7979L16.541 43.9305C16.4939 43.827 16.4579 43.7478 16.4262 43.6796C16.4132 43.6516 16.402 43.6278 16.3923 43.6075C16.372 43.5978 16.3482 43.5866 16.3202 43.5736C16.252 43.5419 16.1728 43.5059 16.0693 43.4588L6.27236 39.0048C6.24893 38.9942 6.22543 38.9835 6.20189 38.9728C5.75514 38.7698 5.29181 38.5593 4.92742 38.3523C4.58988 38.1605 3.89747 37.7421 3.50045 36.936C3.05454 36.0306 3.05454 34.9694 3.50045 34.0641C3.89747 33.2579 4.58988 32.8395 4.92742 32.6478C5.29181 32.4408 5.75514 32.2302 6.20189 32.0272C6.22543 32.0166 6.24893 32.0059 6.27236 31.9952L16.0693 27.5412C16.1728 27.4942 16.252 27.4581 16.3202 27.4264C16.3482 27.4134 16.372 27.4022 16.3923 27.3925C16.402 27.3722 16.4132 27.3484 16.4262 27.3205C16.4579 27.2522 16.4939 27.173 16.541 27.0696L20.995 17.2726C21.0056 17.2492 21.0163 17.2257 21.027 17.2021C21.23 16.7554 21.4405 16.292 21.6475 15.9276C21.8393 15.5901 22.2577 14.8977 23.0638 14.5007ZM24.4998 20.4365L20.6375 28.932C20.625 28.9593 20.6122 28.9878 20.5989 29.0173C20.4585 29.3285 20.2683 29.7501 19.9864 30.1272C19.7426 30.4534 19.4531 30.7428 19.127 30.9866C18.7499 31.2685 18.3283 31.4587 18.0171 31.5991C17.9876 31.6124 17.9591 31.6253 17.9317 31.6377L9.4363 35.5L17.9317 39.3623C17.9591 39.3748 17.9876 39.3876 18.0171 39.4009C18.3283 39.5413 18.7499 39.7315 19.127 40.0134C19.4531 40.2572 19.7426 40.5467 19.9864 40.8728C20.2683 41.2499 20.4585 41.6715 20.5989 41.9827C20.6122 42.0122 20.625 42.0407 20.6375 42.0681L24.4998 50.5635L28.3621 42.0681C28.3745 42.0407 28.3874 42.0122 28.4007 41.9827C28.5411 41.6715 28.7313 41.2499 29.0132 40.8728C29.257 40.5467 29.5464 40.2572 29.8726 40.0134C30.2497 39.7315 30.6713 39.5413 30.9825 39.4009C31.012 39.3876 31.0405 39.3748 31.0678 39.3623L39.5633 35.5L31.0678 31.6377C31.0405 31.6253 31.012 31.6124 30.9825 31.5991C30.6713 31.4587 30.2497 31.2685 29.8726 30.9866C29.5464 30.7428 29.257 30.4534 29.0132 30.1272C28.7313 29.7501 28.5411 29.3285 28.4007 29.0173C28.3874 28.9878 28.3745 28.9593 28.3621 28.932L24.4998 20.4365Z"
  />
  <path
    fill-rule="evenodd"
    clip-rule="evenodd"
    d="M44.2848 3.74111C45.0508 3.3638 45.9487 3.3638 46.7148 3.74111C47.4408 4.09866 47.7902 4.70772 47.9041 4.90816C48.034 5.13689 48.1597 5.41377 48.2547 5.6232C48.2621 5.63946 48.2693 5.65531 48.2763 5.6707L50.1681 9.83174L54.3291 11.7235C54.3445 11.7305 54.3604 11.7377 54.3766 11.7451C54.586 11.8401 54.8629 11.9658 55.0916 12.0957C55.2921 12.2096 55.9011 12.559 56.2587 13.285C56.636 14.0511 56.636 14.949 56.2587 15.7151C55.9011 16.441 55.2921 16.7905 55.0916 16.9043C54.8629 17.0343 54.586 17.1599 54.3766 17.255C54.3604 17.2624 54.3445 17.2695 54.3291 17.2765L50.1681 19.1683L48.2763 23.3293C48.2693 23.3447 48.2621 23.3606 48.2547 23.3768C48.1597 23.5863 48.034 23.8631 47.9041 24.0919C47.7902 24.2923 47.4408 24.9014 46.7148 25.2589C45.9487 25.6362 45.0508 25.6362 44.2848 25.2589C43.5588 24.9014 43.2093 24.2923 43.0955 24.0919C42.9655 23.8631 42.8399 23.5863 42.7448 23.3769C42.7375 23.3606 42.7303 23.3447 42.7233 23.3293L40.8315 19.1683L36.6705 17.2765C36.6551 17.2695 36.6392 17.2624 36.623 17.255C36.4135 17.1599 36.1367 17.0343 35.9079 16.9043C35.7075 16.7905 35.0984 16.441 34.7409 15.7151C34.3636 14.949 34.3636 14.0511 34.7409 13.285C35.0984 12.559 35.7075 12.2096 35.9079 12.0957C36.1367 11.9658 36.4135 11.8401 36.623 11.7451C36.6392 11.7377 36.6551 11.7305 36.6705 11.7235L40.8315 9.83174L42.7233 5.6707C42.7303 5.6553 42.7375 5.63944 42.7448 5.62318C42.8399 5.41375 42.9655 5.13689 43.0955 4.90816C43.2093 4.70771 43.5588 4.09866 44.2848 3.74111ZM45.4998 10.4365L44.5789 12.4621C44.3538 12.9572 43.957 13.354 43.4619 13.5791L41.4363 14.5L43.4619 15.4209C43.957 15.646 44.3538 16.0428 44.5789 16.538L45.4998 18.5635L46.4207 16.538C46.6458 16.0428 47.0426 15.646 47.5377 15.4209L49.5633 14.5L47.5377 13.5791C47.0426 13.354 46.6458 12.9572 46.4207 12.4621L45.4998 10.4365Z"
  />
</svg>
