<svg
  width="60"
  height="60"
  viewBox="0 0 60 60"
  fill="currentColor"
  xmlns="http://www.w3.org/2000/svg"
>
  <path
    fill-rule="evenodd"
    clip-rule="evenodd"
    d="M30 1.75C30.8823 1.75 31.6831 2.26564 32.0483 3.0688L32.7263 4.56027C35.5225 10.7106 36.7937 13.4777 38.5549 15.8337C40.1468 17.9633 42.0367 19.8532 44.1663 21.4451C46.5223 23.2063 49.2894 24.4775 55.4397 27.2737L56.9312 27.9517C57.7344 28.3169 58.25 29.1177 58.25 30C58.25 30.8823 57.7344 31.6831 56.9312 32.0483L55.4397 32.7263C49.2894 35.5225 46.5223 36.7937 44.1663 38.5549C42.0367 40.1468 40.1468 42.0367 38.5549 44.1663C36.7937 46.5223 35.5225 49.2894 32.7263 55.4397L32.0483 56.9312C31.6831 57.7344 30.8823 58.25 30 58.25C29.1177 58.25 28.3169 57.7344 27.9517 56.9312L27.2737 55.4397C24.4775 49.2894 23.2063 46.5223 21.4451 44.1663C19.8532 42.0367 17.9633 40.1468 15.8337 38.5549C13.4777 36.7937 10.7106 35.5225 4.56027 32.7263L3.0688 32.0483C2.26564 31.6831 1.75 30.8823 1.75 30C1.75 29.1177 2.26564 28.3169 3.0688 27.9517L4.56027 27.2737C10.7106 24.4775 13.4777 23.2063 15.8337 21.4451C17.9633 19.8532 19.8532 17.9633 21.4451 15.8337C23.2063 13.4777 24.4775 10.7106 27.2737 4.56027L27.9517 3.0688C28.3169 2.26564 29.1177 1.75 30 1.75ZM30 9.42807C28.0932 13.5798 26.7838 16.2078 25.0494 18.528C23.1993 21.003 21.003 23.1993 18.528 25.0494C16.2078 26.7838 13.5798 28.0932 9.42807 30C13.5798 31.9068 16.2078 33.2162 18.528 34.9506C21.003 36.8007 23.1993 38.997 25.0494 41.472C26.7838 43.7922 28.0932 46.4202 30 50.5719C31.9068 46.4202 33.2162 43.7922 34.9506 41.472C36.8007 38.997 38.997 36.8007 41.472 34.9506C43.7922 33.2162 46.4202 31.9068 50.5719 30C46.4202 28.0932 43.7922 26.7838 41.472 25.0494C38.997 23.1993 36.8007 21.003 34.9506 18.528C33.2162 16.2078 31.9068 13.5798 30 9.42807Z"
  />
</svg>
