<svg
  width="60"
  height="60"
  viewBox="0 0 60 60"
  fill="currentColor"
  xmlns="http://www.w3.org/2000/svg"
>
  <path
    fill-rule="evenodd"
    clip-rule="evenodd"
    d="M34.0639 14.5007C34.9693 14.0548 36.0305 14.0548 36.9358 14.5007C37.742 14.8977 38.1604 15.5901 38.3522 15.9276C38.5592 16.292 38.7697 16.7554 38.9727 17.2021C38.9834 17.2257 38.994 17.2492 39.0047 17.2726L43.4587 27.0696C43.5058 27.173 43.5418 27.2522 43.5735 27.3205C43.5865 27.3484 43.5977 27.3722 43.6074 27.3925C43.6277 27.4022 43.6515 27.4134 43.6795 27.4264C43.7477 27.4581 43.8269 27.4942 43.9304 27.5412L53.7978 32.0273C54.2446 32.2303 54.7079 32.4408 55.0723 32.6478C55.4098 32.8395 56.1022 33.2579 56.4992 34.0641C56.9451 34.9694 56.9451 36.0306 56.4992 36.936C56.1022 37.7421 55.4098 38.1605 55.0723 38.3523C54.7079 38.5593 54.2445 38.7698 53.7978 38.9728L43.9304 43.4588C43.8269 43.5059 43.7477 43.5419 43.6795 43.5736C43.6515 43.5866 43.6277 43.5978 43.6074 43.6075C43.5977 43.6278 43.5865 43.6516 43.5735 43.6796C43.5418 43.7478 43.5058 43.827 43.4587 43.9305L38.9726 53.798C38.7697 54.2447 38.5591 54.708 38.3522 55.0724C38.1604 55.4099 37.742 56.1023 36.9358 56.4994C36.0305 56.9453 34.9693 56.9453 34.0639 56.4994C33.2578 56.1023 32.8394 55.4099 32.6476 55.0724C32.4406 54.708 32.2301 54.2447 32.0271 53.7979L27.5411 43.9305C27.494 43.827 27.458 43.7478 27.4263 43.6796C27.4133 43.6516 27.4021 43.6278 27.3924 43.6075C27.3721 43.5978 27.3483 43.5866 27.3203 43.5736C27.2521 43.5419 27.1729 43.5059 27.0694 43.4588L17.2725 39.0048C17.249 38.9942 17.2255 38.9835 17.202 38.9728C16.7552 38.7698 16.2919 38.5593 15.9275 38.3523C15.59 38.1605 14.8976 37.7421 14.5006 36.936C14.0546 36.0306 14.0546 34.9694 14.5006 34.0641C14.8976 33.2579 15.59 32.8395 15.9275 32.6478C16.2919 32.4408 16.7552 32.2302 17.202 32.0272C17.2255 32.0166 17.249 32.0059 17.2725 31.9952L27.0694 27.5412C27.1729 27.4942 27.2521 27.4581 27.3203 27.4264C27.3483 27.4134 27.3721 27.4022 27.3924 27.3925C27.4021 27.3722 27.4133 27.3484 27.4263 27.3205C27.458 27.2522 27.494 27.173 27.5411 27.0696L31.9951 17.2726C32.0058 17.2492 32.0164 17.2257 32.0271 17.2021C32.2301 16.7554 32.4406 16.292 32.6476 15.9276C32.8394 15.5901 33.2578 14.8977 34.0639 14.5007ZM35.4999 20.4365L31.6376 28.932C31.6251 28.9593 31.6123 28.9878 31.599 29.0173C31.4586 29.3285 31.2684 29.7501 30.9865 30.1272C30.7427 30.4534 30.4532 30.7428 30.1271 30.9866C29.75 31.2685 29.3284 31.4587 29.0172 31.5991C28.9877 31.6124 28.9592 31.6253 28.9318 31.6377L20.4364 35.5L28.9318 39.3623C28.9592 39.3748 28.9877 39.3876 29.0172 39.4009C29.3284 39.5413 29.75 39.7315 30.1271 40.0134C30.4532 40.2572 30.7427 40.5467 30.9865 40.8728C31.2684 41.2499 31.4586 41.6715 31.599 41.9827C31.6123 42.0122 31.6251 42.0407 31.6376 42.0681L35.4999 50.5635L39.3622 42.0681C39.3746 42.0407 39.3875 42.0122 39.4008 41.9827C39.5412 41.6715 39.7314 41.2499 40.0133 40.8728C40.2571 40.5467 40.5465 40.2572 40.8727 40.0134C41.2498 39.7315 41.6714 39.5413 41.9826 39.4009C42.0121 39.3876 42.0406 39.3748 42.0679 39.3623L50.5634 35.5L42.0679 31.6377C42.0406 31.6253 42.0121 31.6124 41.9826 31.5991C41.6714 31.4587 41.2498 31.2685 40.8727 30.9866C40.5465 30.7428 40.2571 30.4534 40.0133 30.1272C39.7314 29.7501 39.5412 29.3285 39.4008 29.0173C39.3875 28.9878 39.3746 28.9593 39.3622 28.932L35.4999 20.4365Z"
  />
  <path
    fill-rule="evenodd"
    clip-rule="evenodd"
    d="M13.2849 3.74111C14.0509 3.3638 14.9488 3.3638 15.7149 3.74111C16.4409 4.09866 16.7903 4.70772 16.9042 4.90816C17.0341 5.13689 17.1598 5.41377 17.2549 5.6232C17.2622 5.63946 17.2694 5.65531 17.2764 5.6707L19.1682 9.83174L23.3292 11.7235C23.3446 11.7305 23.3605 11.7377 23.3767 11.7451C23.5862 11.8401 23.863 11.9658 24.0918 12.0957C24.2922 12.2096 24.9013 12.559 25.2588 13.285C25.6361 14.0511 25.6361 14.949 25.2588 15.7151C24.9013 16.441 24.2922 16.7905 24.0918 16.9043C23.863 17.0343 23.5861 17.1599 23.3767 17.255C23.3605 17.2624 23.3446 17.2695 23.3292 17.2765L19.1682 19.1683L17.2764 23.3293C17.2694 23.3447 17.2622 23.3606 17.2549 23.3768C17.1598 23.5863 17.0341 23.8631 16.9042 24.0919C16.7903 24.2923 16.4409 24.9014 15.7149 25.2589C14.9488 25.6362 14.0509 25.6362 13.2849 25.2589C12.5589 24.9014 12.2094 24.2923 12.0956 24.0919C11.9656 23.8631 11.84 23.5863 11.7449 23.3769C11.7376 23.3606 11.7304 23.3447 11.7234 23.3293L9.83162 19.1683L5.67058 17.2765C5.65519 17.2695 5.63934 17.2624 5.62308 17.255C5.41365 17.1599 5.13677 17.0343 4.90804 16.9043C4.70759 16.7905 4.09854 16.441 3.74099 15.7151C3.36368 14.949 3.36368 14.0511 3.74099 13.285C4.09854 12.559 4.70759 12.2096 4.90804 12.0957C5.13677 11.9658 5.41365 11.8401 5.62308 11.7451C5.63934 11.7377 5.65519 11.7305 5.67058 11.7235L9.83162 9.83174L11.7234 5.6707C11.7304 5.6553 11.7376 5.63944 11.7449 5.62318C11.84 5.41375 11.9656 5.13689 12.0956 4.90816C12.2094 4.70771 12.5589 4.09866 13.2849 3.74111ZM14.4999 10.4365L13.579 12.4621C13.3539 12.9572 12.9571 13.354 12.462 13.5791L10.4364 14.5L12.462 15.4209C12.9571 15.646 13.3539 16.0428 13.579 16.538L14.4999 18.5635L15.4208 16.538C15.6459 16.0428 16.0427 15.646 16.5378 15.4209L18.5634 14.5L16.5378 13.5791C16.0427 13.354 15.6459 12.9572 15.4208 12.4621L14.4999 10.4365Z"
  />
</svg>
