<svg
  xmlns="http://www.w3.org/2000/svg"
  width="60"
  height="60"
  viewBox="0 0 60 60"
  fill="currentColor"
>
  <path
    d="M30 2.75C45.0498 2.75 57.25 14.9502 57.25 30C57.25 45.0498 45.0498 57.25 30 57.25C14.9502 57.25 2.75 45.0498 2.75 30C2.75 14.9502 14.9502 2.75 30 2.75ZM30 7.25C17.4355 7.25 7.25 17.4355 7.25 30C7.25 42.5645 17.4355 52.75 30 52.75C42.5645 52.75 52.75 42.5645 52.75 30C52.75 17.4355 42.5645 7.25 30 7.25ZM30 12C39.9411 12 48 20.0589 48 30C48 39.9411 39.9411 48 30 48C20.0589 48 12 39.9411 12 30C12 20.0589 20.0589 12 30 12Z"
  />
</svg>
