<svg
  width="60"
  height="60"
  viewBox="0 0 60 60"
  fill="currentColor"
  xmlns="http://www.w3.org/2000/svg"
>
  <path
    fill-rule="evenodd"
    clip-rule="evenodd"
    d="M27.1658 3.84545C28.9466 2.93938 31.0534 2.93938 32.8342 3.84545C34.1666 4.52337 35.0003 5.82035 35.6516 7.06345C36.326 8.35059 37.0529 10.0983 37.9433 12.239L39.0404 14.8768C39.6475 16.3366 39.7738 16.5653 39.9071 16.7163C40.0771 16.9089 40.2875 17.0617 40.5232 17.1639C40.708 17.244 40.9645 17.2935 42.5405 17.4198L45.3882 17.6481C47.6993 17.8333 49.5861 17.9846 51.0186 18.2282C52.4021 18.4635 53.8933 18.8556 54.9498 19.9133C56.3618 21.327 57.0128 23.3306 56.7014 25.3043C56.4684 26.781 55.4925 27.9747 54.5115 28.9783C53.4958 30.0174 52.0583 31.2487 50.2976 32.7569L48.1278 34.6156C46.927 35.6441 46.7485 35.8349 46.6461 36.0084C46.5155 36.2296 46.4351 36.4768 46.4108 36.7326C46.3917 36.9331 46.424 37.1924 46.7908 38.7303L47.4537 41.5091C47.9917 43.7643 48.4309 45.6055 48.6419 47.0432C48.8456 48.4317 48.9335 49.9711 48.254 51.3027C47.3458 53.0825 45.6415 54.3208 43.6682 54.6345C42.1917 54.8692 40.7549 54.31 39.4973 53.6871C38.1952 53.0422 36.5798 52.0555 34.6013 50.847L32.1632 49.3578C30.814 48.5337 30.5773 48.4229 30.3808 48.3791C30.13 48.3232 29.87 48.3232 29.6192 48.3791C29.4227 48.4229 29.186 48.5337 27.8368 49.3578L25.3988 50.847C23.4202 52.0555 21.8049 53.0422 20.5027 53.6871C19.2451 54.31 17.8083 54.8692 16.3318 54.6345C14.3585 54.3208 12.6542 53.0825 11.746 51.3027C11.0665 49.9711 11.1544 48.4317 11.3581 47.0432C11.5691 45.6055 12.0083 43.7643 12.5463 41.5092L13.2092 38.7303C13.576 37.1924 13.6083 36.9331 13.5892 36.7326C13.5649 36.4768 13.4845 36.2296 13.3539 36.0084C13.2515 35.8349 13.073 35.6441 11.8722 34.6156L9.70245 32.7569C7.94171 31.2487 6.5042 30.0174 5.48848 28.9783C4.50749 27.9747 3.53162 26.781 3.29862 25.3043C2.9872 23.3306 3.63821 21.327 5.05024 19.9133C6.10673 18.8556 7.59787 18.4635 8.98139 18.2282C10.4139 17.9846 12.3007 17.8333 14.6118 17.6481L17.4595 17.4198C19.0355 17.2935 19.292 17.244 19.4768 17.1639C19.7125 17.0617 19.9229 16.9089 20.0929 16.7163C20.2262 16.5653 20.3525 16.3366 20.9596 14.8768L22.0568 12.239C22.9471 10.0983 23.674 8.35058 24.3484 7.06346C24.9997 5.82036 25.8334 4.52337 27.1658 3.84545Z"
    fill="currentColor"
  />
</svg>
