<svg
  width="60"
  height="60"
  viewBox="0 0 60 60"
  fill="currentColor"
  xmlns="http://www.w3.org/2000/svg"
>
  <path
    fill-rule="evenodd"
    clip-rule="evenodd"
    d="M27.1658 3.84545C28.9466 2.93938 31.0534 2.93938 32.8342 3.84545C34.1666 4.52337 35.0003 5.82035 35.6516 7.06345C36.326 8.35059 37.0529 10.0983 37.9433 12.239L39.0404 14.8768C39.6475 16.3366 39.7738 16.5653 39.9071 16.7163C40.0771 16.9089 40.2875 17.0617 40.5232 17.1639C40.708 17.244 40.9645 17.2935 42.5405 17.4198L45.3882 17.6481C47.6993 17.8333 49.5861 17.9846 51.0186 18.2282C52.4021 18.4635 53.8933 18.8556 54.9498 19.9133C56.3618 21.327 57.0128 23.3306 56.7014 25.3043C56.4684 26.781 55.4925 27.9747 54.5115 28.9783C53.4958 30.0174 52.0583 31.2487 50.2976 32.7569L48.1278 34.6156C46.927 35.6441 46.7485 35.8349 46.6461 36.0084C46.5155 36.2296 46.4351 36.4768 46.4108 36.7326C46.3917 36.9331 46.424 37.1924 46.7908 38.7303L47.4537 41.5091C47.9917 43.7643 48.4309 45.6055 48.6419 47.0432C48.8456 48.4317 48.9335 49.9711 48.254 51.3027C47.3458 53.0825 45.6415 54.3208 43.6682 54.6345C42.1917 54.8692 40.7549 54.31 39.4973 53.6871C38.1952 53.0422 36.5798 52.0555 34.6013 50.847L32.1632 49.3578C30.814 48.5337 30.5773 48.4229 30.3808 48.3791C30.13 48.3232 29.87 48.3232 29.6192 48.3791C29.4227 48.4229 29.186 48.5337 27.8368 49.3578L25.3988 50.847C23.4202 52.0555 21.8049 53.0422 20.5027 53.6871C19.2451 54.31 17.8083 54.8692 16.3318 54.6345C14.3585 54.3208 12.6542 53.0825 11.746 51.3027C11.0665 49.9711 11.1544 48.4317 11.3581 47.0432C11.5691 45.6055 12.0083 43.7643 12.5463 41.5092L13.2092 38.7303C13.576 37.1924 13.6083 36.9331 13.5892 36.7326C13.5649 36.4768 13.4845 36.2296 13.3539 36.0084C13.2515 35.8349 13.073 35.6441 11.8722 34.6156L9.70245 32.7569C7.94171 31.2487 6.5042 30.0174 5.48848 28.9783C4.50749 27.9747 3.53162 26.781 3.29862 25.3043C2.9872 23.3306 3.63821 21.327 5.05024 19.9133C6.10673 18.8556 7.59787 18.4635 8.98139 18.2282C10.4139 17.9846 12.3007 17.8333 14.6118 17.6481L17.4595 17.4198C19.0355 17.2935 19.292 17.244 19.4768 17.1639C19.7125 17.0617 19.9229 16.9089 20.0929 16.7163C20.2262 16.5653 20.3525 16.3366 20.9596 14.8768L22.0568 12.239C22.9471 10.0983 23.674 8.35058 24.3484 7.06346C24.9997 5.82036 25.8334 4.52337 27.1658 3.84545ZM30.7936 7.85617C30.2949 7.60247 29.7051 7.60247 29.2064 7.85617C29.2077 7.85551 29.208 7.85504 29.2064 7.85617C29.185 7.87152 28.8973 8.0776 28.3344 9.1519C27.764 10.2405 27.1126 11.801 26.1682 14.0717L25.1146 16.6049C25.0814 16.6847 25.0485 16.7641 25.0158 16.8431C24.5721 17.9147 24.161 18.9076 23.4667 19.6942C22.8595 20.3821 22.1083 20.9279 21.2664 21.2928C20.3037 21.71 19.2324 21.7942 18.0761 21.8851C17.9909 21.8918 17.9052 21.8985 17.8191 21.9054L15.0842 22.1247C12.6329 22.3212 10.9474 22.4585 9.73588 22.6645C8.54021 22.8679 8.25599 23.0776 8.23475 23.0932C8.23319 23.0944 8.23372 23.0943 8.23475 23.0932C7.83938 23.4891 7.65643 24.0503 7.74363 24.6029C7.74304 24.6011 7.7434 24.6015 7.74363 24.6029C7.7516 24.6281 7.85869 24.9654 8.70647 25.8327C9.5655 26.7115 10.8484 27.8133 12.7161 29.4131L14.7997 31.198C14.8654 31.2542 14.9307 31.3101 14.9957 31.3656C15.8778 32.1187 16.695 32.8165 17.2286 33.7199C17.6952 34.51 17.9821 35.3931 18.069 36.3065C18.1683 37.351 17.9173 38.3959 17.6465 39.5236C17.6265 39.6068 17.6064 39.6903 17.5864 39.7744L16.9498 42.4431C16.3792 44.8352 15.9889 46.4807 15.8105 47.6966C15.6344 48.8965 15.746 49.2317 15.7543 49.2567C15.755 49.2585 15.755 49.258 15.7543 49.2567C16.0086 49.755 16.4859 50.1025 17.0384 50.1903C17.0364 50.1903 17.0369 50.1901 17.0384 50.1903C17.0648 50.1905 17.4187 50.1929 18.5055 49.6546C19.6067 49.1092 21.051 48.2295 23.1497 46.9477L25.4911 45.5175C25.5649 45.4725 25.6382 45.4276 25.711 45.3829C26.6999 44.7768 27.6161 44.2152 28.6402 43.9869C29.5357 43.7873 30.4643 43.7873 31.3598 43.9869C32.3839 44.2152 33.3001 44.7768 34.289 45.3829C34.3618 45.4276 34.4351 45.4725 34.5089 45.5175L36.8503 46.9477C38.949 48.2295 40.3933 49.1092 41.4945 49.6546C42.5813 50.1929 42.9345 50.1903 42.9609 50.1901C42.9624 50.1899 42.9629 50.1901 42.9609 50.1901C43.5135 50.1023 43.9914 49.7557 44.2457 49.2574C44.245 49.2587 44.245 49.2592 44.2457 49.2574C44.254 49.2324 44.3656 48.8966 44.1895 47.6966C44.0111 46.4807 43.6208 44.8352 43.0502 42.4431L42.4136 39.7744C42.3936 39.6903 42.3735 39.6068 42.3535 39.5236C42.0826 38.3959 41.8317 37.351 41.931 36.3065C42.0179 35.3931 42.3048 34.51 42.7714 33.7199C43.305 32.8165 44.1222 32.1187 45.0043 31.3655C45.0693 31.31 45.1346 31.2542 45.2003 31.198L47.2839 29.4131C49.1516 27.8133 50.4345 26.7115 51.2935 25.8327C52.1413 24.9654 52.248 24.6287 52.256 24.6035C52.2562 24.6021 52.2565 24.6017 52.256 24.6035C52.3432 24.0509 52.1613 23.4893 51.7659 23.0935C51.767 23.0945 51.7675 23.0946 51.7659 23.0935C51.7447 23.0778 51.4598 22.8679 50.2641 22.6645C49.0526 22.4585 47.3671 22.3212 44.9158 22.1247L42.1809 21.9054C42.0948 21.8985 42.0091 21.8918 41.9239 21.8851C40.7676 21.7942 39.6963 21.71 38.7336 21.2928C37.8917 20.9279 37.1405 20.3821 36.5333 19.6942C35.839 18.9076 35.4279 17.9147 34.9842 16.8431C34.9515 16.7641 34.9186 16.6847 34.8854 16.6049L33.8318 14.0717C32.8874 11.801 32.236 10.2405 31.6656 9.1519C31.1028 8.07762 30.815 7.87153 30.7936 7.85617C30.7923 7.85551 30.792 7.85504 30.7936 7.85617Z"
  />
</svg>
