<svg
  width="60"
  height="60"
  viewBox="0 0 60 60"
  fill="currentColor"
  xmlns="http://www.w3.org/2000/svg"
>
  <path
    d="M14 2.70001C14.3529 2.70001 14.6732 2.90627 14.8193 3.22753L15.0905 3.82412C16.2089 6.28425 16.7174 7.3911 17.4219 8.33349C18.0587 9.18535 18.8146 9.94127 19.6665 10.5781C20.6089 11.2825 21.7157 11.791 24.1758 12.9095L24.7724 13.1807C25.0937 13.3268 25.2999 13.6471 25.2999 14C25.2999 14.3529 25.0937 14.6733 24.7724 14.8193L24.1758 15.0905C21.7157 16.209 20.6089 16.7175 19.6665 17.422C18.8146 18.0587 18.0587 18.8147 17.4219 19.6665C16.7174 20.6089 16.2089 21.7158 15.0905 24.1759L14.8193 24.7725C14.6732 25.0938 14.3529 25.3 14 25.3C13.647 25.3 13.3267 25.0938 13.1806 24.7725L12.9094 24.1759C11.791 21.7158 11.2825 20.6089 10.578 19.6665C9.94121 18.8147 9.18529 18.0587 8.33342 17.422C7.39104 16.7175 6.28419 16.209 3.82406 15.0905L3.22747 14.8193C2.90621 14.6733 2.69995 14.3529 2.69995 14C2.69995 13.6471 2.90621 13.3268 3.22747 13.1807L3.82406 12.9095C6.28419 11.791 7.39104 11.2825 8.33342 10.5781C9.18529 9.94127 9.94121 9.18535 10.578 8.33349C11.2825 7.3911 11.791 6.28425 12.9094 3.82412L13.1806 3.22753C13.3267 2.90627 13.647 2.70001 14 2.70001Z"
  />
  <path
    d="M35.5 13.3708C36.1911 13.3708 36.8185 13.7747 37.1045 14.4039L37.6356 15.5722C39.826 20.39 40.8218 22.5575 42.2013 24.403C43.4484 26.0713 44.9287 27.5516 46.597 28.7987C48.4425 30.1782 50.61 31.174 55.4278 33.3644L56.5961 33.8955C57.2253 34.1815 57.6292 34.8089 57.6292 35.5C57.6292 36.1911 57.2253 36.8184 56.5961 37.1045L55.4278 37.6356C50.61 39.8259 48.4425 40.8217 46.597 42.2013C44.9287 43.4483 43.4484 44.9287 42.2013 46.5969C40.8218 48.4424 39.826 50.61 37.6356 55.4278L37.1045 56.5961C36.8185 57.2252 36.1911 57.6292 35.5 57.6292C34.8089 57.6292 34.1816 57.2252 33.8955 56.5961L33.3644 55.4278C31.1741 50.61 30.1783 48.4424 28.7987 46.5969C27.5517 44.9287 26.0713 43.4483 24.4031 42.2013C22.5576 40.8217 20.39 39.8259 15.5722 37.6356L14.4039 37.1045C13.7748 36.8184 13.3708 36.1911 13.3708 35.5C13.3708 34.8089 13.7748 34.1815 14.4039 33.8955L15.5722 33.3644C20.39 31.174 22.5576 30.1782 24.4031 28.7987C26.0713 27.5516 27.5517 26.0713 28.7987 24.403C30.1783 22.5575 31.1741 20.39 33.3644 15.5722L33.8955 14.4039C34.1816 13.7747 34.8089 13.3708 35.5 13.3708Z"
  />
</svg>
