<svg
  width="60"
  height="60"
  viewBox="0 0 60 60"
  fill="currentColor"
  xmlns="http://www.w3.org/2000/svg"
>
  <path
    d="M32.0483 3.0688C31.6831 2.26564 30.8823 1.75 30 1.75C29.1177 1.75 28.3169 2.26564 27.9517 3.0688L27.2737 4.56027C24.4775 10.7106 23.2063 13.4777 21.4451 15.8337C19.8532 17.9633 17.9633 19.8532 15.8337 21.4451C13.4777 23.2063 10.7106 24.4775 4.56027 27.2737L3.0688 27.9517C2.26564 28.3169 1.75 29.1177 1.75 30C1.75 30.8823 2.26564 31.6831 3.0688 32.0483L4.56027 32.7263C10.7106 35.5225 13.4777 36.7937 15.8337 38.5549C17.9633 40.1468 19.8532 42.0367 21.4451 44.1663C23.2063 46.5223 24.4775 49.2894 27.2737 55.4397L27.9517 56.9312C28.3169 57.7344 29.1177 58.25 30 58.25C30.8823 58.25 31.6831 57.7344 32.0483 56.9312L32.7263 55.4397C35.5225 49.2894 36.7937 46.5223 38.5549 44.1663C40.1468 42.0367 42.0367 40.1468 44.1663 38.5549C46.5223 36.7937 49.2894 35.5225 55.4397 32.7263L56.9312 32.0483C57.7344 31.6831 58.25 30.8823 58.25 30C58.25 29.1177 57.7344 28.3169 56.9312 27.9517L55.4397 27.2737C49.2894 24.4775 46.5223 23.2063 44.1663 21.4451C42.0367 19.8532 40.1468 17.9633 38.5549 15.8337C36.7937 13.4777 35.5225 10.7106 32.7263 4.56027L32.0483 3.0688Z"
  />
</svg>
