<svg
  width="60"
  height="60"
  viewBox="0 0 60 60"
  fill="currentColor"
  xmlns="http://www.w3.org/2000/svg"
>
  <path
    fill-rule="evenodd"
    clip-rule="evenodd"
    d="M16.5483 4.06879C16.1831 3.26564 15.3823 2.75 14.5 2.75C13.6177 2.75 12.8169 3.26564 12.4517 4.0688L12.204 4.61376C11.157 6.91678 10.7603 7.76026 10.2305 8.46893C9.73075 9.13749 9.13749 9.73075 8.46893 10.2305C7.76026 10.7603 6.91678 11.157 4.61376 12.204L4.0688 12.4517C3.26564 12.8169 2.75 13.6177 2.75 14.5C2.75 15.3823 3.26564 16.1831 4.0688 16.5483L4.61376 16.796C6.91678 17.843 7.76026 18.2397 8.46893 18.7695C9.13749 19.2692 9.73076 19.8625 10.2305 20.5311C10.7603 21.2397 11.157 22.0832 12.204 24.3862L12.4517 24.9312C12.8169 25.7344 13.6177 26.25 14.5 26.25C15.3823 26.25 16.1831 25.7344 16.5483 24.9312L16.796 24.3862C17.843 22.0832 18.2397 21.2397 18.7695 20.5311C19.2692 19.8625 19.8625 19.2692 20.5311 18.7695C21.2397 18.2397 22.0832 17.843 24.3862 16.796L24.9312 16.5483C25.7344 16.1831 26.25 15.3823 26.25 14.5C26.25 13.6177 25.7344 12.8169 24.9312 12.4517L24.3862 12.204C22.0832 11.157 21.2397 10.7603 20.5311 10.2305C19.8625 9.73076 19.2692 9.13749 18.7695 8.46893C18.2397 7.76026 17.843 6.91678 16.796 4.61376L16.5483 4.06879ZM13.8348 11.1632C14.0724 10.8454 14.29 10.5145 14.5 10.1595C14.71 10.5145 14.9276 10.8454 15.1652 11.1632C15.9231 12.1771 16.8229 13.0769 17.8368 13.8348C18.1546 14.0724 18.4855 14.29 18.8405 14.5C18.4855 14.71 18.1546 14.9276 17.8368 15.1652C16.8229 15.9231 15.9231 16.8229 15.1652 17.8368C14.9276 18.1546 14.71 18.4855 14.5 18.8405C14.29 18.4855 14.0724 18.1546 13.8348 17.8368C13.0769 16.8229 12.1771 15.9231 11.1632 15.1652C10.8454 14.9276 10.5145 14.71 10.1595 14.5C10.5145 14.29 10.8454 14.0724 11.1632 13.8348C12.1771 13.0769 13.0769 12.1771 13.8348 11.1632Z"
  />
  <path
    fill-rule="evenodd"
    clip-rule="evenodd"
    d="M37.5483 15.0688C37.1831 14.2656 36.3823 13.75 35.5 13.75C34.6177 13.75 33.8169 14.2656 33.4517 15.0688L32.9432 16.1874C30.8361 20.8221 29.9094 22.8315 28.6333 24.5385C27.4716 26.0926 26.0926 27.4716 24.5385 28.6333C22.8315 29.9094 20.8221 30.8361 16.1874 32.9432L15.0688 33.4517C14.2656 33.8169 13.75 34.6177 13.75 35.5C13.75 36.3823 14.2656 37.1831 15.0688 37.5483L16.1874 38.0568C20.8221 40.1639 22.8315 41.0906 24.5385 42.3667C26.0926 43.5284 27.4716 44.9074 28.6333 46.4615C29.9094 48.1685 30.8361 50.1779 32.9432 54.8126L33.4517 55.9312C33.8169 56.7344 34.6177 57.25 35.5 57.25C36.3823 57.25 37.1831 56.7344 37.5483 55.9312L38.0568 54.8126C40.1639 50.1779 41.0906 48.1685 42.3667 46.4615C43.5284 44.9074 44.9074 43.5284 46.4615 42.3667C48.1685 41.0906 50.1779 40.1639 54.8126 38.0568L55.9312 37.5483C56.7344 37.1831 57.25 36.3823 57.25 35.5C57.25 34.6177 56.7344 33.8169 55.9312 33.4517L54.8126 32.9432C50.1779 30.8361 48.1685 29.9094 46.4615 28.6333C44.9074 27.4716 43.5284 26.0926 42.3667 24.5385C41.0906 22.8315 40.1639 20.8221 38.0568 16.1874L37.5483 15.0688ZM32.2376 27.2328C33.4094 25.6652 34.3273 23.9172 35.5 21.4102C36.6727 23.9172 37.5906 25.6652 38.7624 27.2328C40.1823 29.1322 41.8678 30.8177 43.7672 32.2376C45.3348 33.4094 47.0828 34.3273 49.5898 35.5C47.0828 36.6727 45.3348 37.5906 43.7672 38.7624C41.8678 40.1823 40.1823 41.8678 38.7624 43.7672C37.5906 45.3348 36.6727 47.0828 35.5 49.5898C34.3273 47.0828 33.4094 45.3348 32.2376 43.7672C30.8177 41.8678 29.1322 40.1823 27.2328 38.7624C25.6652 37.5906 23.9172 36.6727 21.4102 35.5C23.9172 34.3273 25.6652 33.4094 27.2328 32.2376C29.1322 30.8177 30.8177 29.1322 32.2376 27.2328Z"
  />
</svg>
