<svg
  width="60"
  height="60"
  viewBox="0 0 60 60"
  fill="currentColor"
  xmlns="http://www.w3.org/2000/svg"
>
  <path
    d="M9.25 7C9.25 5.75736 8.24264 4.75 7 4.75C5.75736 4.75 4.75 5.75736 4.75 7V38.6963C4.74998 41.1348 4.74996 43.1017 4.88009 44.6944C5.01408 46.3343 5.29716 47.7747 5.97618 49.1074C7.05475 51.2242 8.77578 52.9452 10.8926 54.0238C12.2253 54.7028 13.6657 54.9859 15.3056 55.1199C16.8983 55.25 18.8651 55.25 21.3035 55.25H53C54.2426 55.25 55.25 54.2426 55.25 53C55.25 51.7574 54.2426 50.75 53 50.75H21.4C18.8426 50.75 17.0599 50.7482 15.672 50.6349C14.3104 50.5236 13.5281 50.3162 12.9356 50.0143C11.6655 49.3671 10.6329 48.3345 9.98571 47.0644C9.68379 46.4719 9.4764 45.6896 9.36515 44.328C9.25175 42.9401 9.25 41.1574 9.25 38.6V7Z"
  />
  <path
    d="M30.75 42C30.75 43.2426 31.7574 44.25 33 44.25C34.2426 44.25 35.25 43.2426 35.25 42L35.25 18C35.25 16.7574 34.2426 15.75 33 15.75C31.7574 15.75 30.75 16.7574 30.75 18L30.75 42Z"
  />
  <path
    d="M47 44.25C45.7574 44.25 44.75 43.2426 44.75 42V11C44.75 9.75736 45.7574 8.75 47 8.75C48.2426 8.75 49.25 9.75736 49.25 11V42C49.25 43.2426 48.2426 44.25 47 44.25Z"
  />
  <path
    d="M16.75 42C16.75 43.2426 17.7574 44.25 19 44.25C20.2426 44.25 21.25 43.2426 21.25 42V24C21.25 22.7574 20.2426 21.75 19 21.75C17.7574 21.75 16.75 22.7574 16.75 24L16.75 42Z"
  />
</svg>
