<svg
  width="60"
  height="60"
  viewBox="0 0 60 60"
  fill="currentColor"
  xmlns="http://www.w3.org/2000/svg"
>
  <path
    fill-rule="evenodd"
    clip-rule="evenodd"
    d="M55 10.75C53.7574 10.75 52.75 11.7574 52.75 13V35C52.75 36.2426 53.7574 37.25 55 37.25C56.2426 37.25 57.25 36.2426 57.25 35V13C57.25 11.7574 56.2426 10.75 55 10.75Z"
  />
  <path
    fill-rule="evenodd"
    clip-rule="evenodd"
    d="M45 23.75C46.2426 23.75 47.25 24.7574 47.25 26V38C47.25 39.2426 46.2426 40.25 45 40.25C43.7574 40.25 42.75 39.2426 42.75 38V26C42.75 24.7574 43.7574 23.75 45 23.75Z"
  />
  <path
    fill-rule="evenodd"
    clip-rule="evenodd"
    d="M35 18.75C36.2426 18.75 37.25 19.7574 37.25 21V34C37.25 35.2426 36.2426 36.25 35 36.25C33.7574 36.25 32.75 35.2426 32.75 34L32.75 21C32.75 19.7574 33.7574 18.75 35 18.75Z"
  />
  <path
    fill-rule="evenodd"
    clip-rule="evenodd"
    d="M25 13.75C23.7574 13.75 22.75 14.7574 22.75 16L22.75 32C22.75 33.2426 23.7574 34.25 25 34.25C26.2426 34.25 27.25 33.2426 27.25 32L27.25 16C27.25 14.7574 26.2426 13.75 25 13.75Z"
  />
  <path
    fill-rule="evenodd"
    clip-rule="evenodd"
    d="M15 23.75C16.2426 23.75 17.25 24.7574 17.25 26L17.25 42C17.25 43.2426 16.2426 44.25 15 44.25C13.7574 44.25 12.75 43.2426 12.75 42L12.75 26C12.75 24.7574 13.7574 23.75 15 23.75Z"
  />
  <path
    fill-rule="evenodd"
    clip-rule="evenodd"
    d="M5 22.75C3.75736 22.75 2.75 23.7574 2.75 25L2.75 47C2.75 48.2426 3.75736 49.25 5 49.25C6.24264 49.25 7.25 48.2426 7.25 47L7.25 25C7.25 23.7574 6.24264 22.75 5 22.75Z"
  />
</svg>
