<svg
  width="60"
  height="60"
  viewBox="0 0 60 60"
  fill="currentColor"
  xmlns="http://www.w3.org/2000/svg"
>
  <path
    fill-rule="evenodd"
    clip-rule="evenodd"
    d="M5 10.75C6.24264 10.75 7.25 11.7574 7.25 13L7.25 35C7.25 36.2426 6.24264 37.25 5 37.25C3.75736 37.25 2.75 36.2426 2.75 35L2.75 13C2.75 11.7574 3.75736 10.75 5 10.75Z"
  />
  <path
    fill-rule="evenodd"
    clip-rule="evenodd"
    d="M15 26.75C16.2426 26.75 17.25 27.7574 17.25 29L17.25 48C17.25 49.2426 16.2426 50.25 15 50.25C13.7574 50.25 12.75 49.2426 12.75 48L12.75 29C12.75 27.7574 13.7574 26.75 15 26.75Z"
  />
  <path
    fill-rule="evenodd"
    clip-rule="evenodd"
    d="M25 12.75C26.2426 12.75 27.25 13.7574 27.25 15V30C27.25 31.2426 26.2426 32.25 25 32.25C23.7574 32.25 22.75 31.2426 22.75 30V15C22.75 13.7574 23.7574 12.75 25 12.75Z"
  />
  <path
    fill-rule="evenodd"
    clip-rule="evenodd"
    d="M35 20.75C36.2426 20.75 37.25 21.7574 37.25 23V39C37.25 40.2426 36.2426 41.25 35 41.25C33.7574 41.25 32.75 40.2426 32.75 39V23C32.75 21.7574 33.7574 20.75 35 20.75Z"
  />
  <path
    fill-rule="evenodd"
    clip-rule="evenodd"
    d="M45 26.75C46.2426 26.75 47.25 27.7574 47.25 29V36C47.25 37.2426 46.2426 38.25 45 38.25C43.7574 38.25 42.75 37.2426 42.75 36V29C42.75 27.7574 43.7574 26.75 45 26.75Z"
  />
  <path
    fill-rule="evenodd"
    clip-rule="evenodd"
    d="M55 22.75C56.2426 22.75 57.25 23.7574 57.25 25V47C57.25 48.2426 56.2426 49.25 55 49.25C53.7574 49.25 52.75 48.2426 52.75 47V25C52.75 23.7574 53.7574 22.75 55 22.75Z"
  />
</svg>
