<svg
  width="60"
  height="60"
  viewBox="0 0 60 60"
  fill="currentColor"
  xmlns="http://www.w3.org/2000/svg"
>
  <path
    fill-rule="evenodd"
    clip-rule="evenodd"
    d="M57.5 30C57.5 45.1878 45.1878 57.5 30 57.5C14.8122 57.5 2.5 45.1878 2.5 30C2.5 14.8122 14.8122 2.5 30 2.5C45.1878 2.5 57.5 14.8122 57.5 30ZM33.1 20.5H26.9C24.6598 20.5 23.5397 20.5 22.684 20.936C21.9314 21.3195 21.3195 21.9314 20.936 22.684C20.5 23.5397 20.5 24.6598 20.5 26.9V33.1C20.5 35.3402 20.5 36.4603 20.936 37.316C21.3195 38.0686 21.9314 38.6805 22.684 39.064C23.5397 39.5 24.6598 39.5 26.9 39.5H33.1C35.3402 39.5 36.4603 39.5 37.316 39.064C38.0686 38.6805 38.6805 38.0686 39.064 37.316C39.5 36.4603 39.5 35.3402 39.5 33.1V26.9C39.5 24.6598 39.5 23.5397 39.064 22.684C38.6805 21.9314 38.0686 21.3195 37.316 20.936C36.4603 20.5 35.3402 20.5 33.1 20.5Z"
  />
</svg>
