<svg
  width="60"
  height="60"
  viewBox="0 0 60 60"
  fill="currentColor"
  xmlns="http://www.w3.org/2000/svg"
>
  <path
    fill-rule="evenodd"
    clip-rule="evenodd"
    d="M5.75 30C5.75 28.7574 6.75736 27.75 8 27.75L52 27.75C53.2426 27.75 54.25 28.7574 54.25 30C54.25 31.2426 53.2426 32.25 52 32.25L8 32.25C6.75736 32.25 5.75 31.2426 5.75 30ZM21.409 44.591C20.5303 43.7123 20.5303 42.2877 21.409 41.409L26.9948 35.8232C28.6545 34.1635 31.3455 34.1635 33.0052 35.8232L38.591 41.409C39.4697 42.2877 39.4697 43.7123 38.591 44.591C37.7123 45.4697 36.2877 45.4697 35.409 44.591L32.25 41.432L32.25 52C32.25 53.2426 31.2426 54.25 30 54.25C28.7574 54.25 27.75 53.2426 27.75 52L27.75 41.432L24.591 44.591C23.7123 45.4697 22.2877 45.4697 21.409 44.591ZM21.409 15.409C22.2877 14.5303 23.7123 14.5303 24.591 15.409L27.75 18.568V8C27.75 6.75736 28.7574 5.75 30 5.75C31.2426 5.75 32.25 6.75736 32.25 8V18.568L35.409 15.409C36.2877 14.5303 37.7123 14.5303 38.591 15.409C39.4697 16.2877 39.4697 17.7123 38.591 18.591L33.0052 24.1768C31.3455 25.8365 28.6545 25.8365 26.9948 24.1768L21.409 18.591C20.5303 17.7123 20.5303 16.2877 21.409 15.409Z"
  />
</svg>
