<svg
  width="60"
  height="60"
  viewBox="0 0 60 60"
  fill="currentColor"
  xmlns="http://www.w3.org/2000/svg"
>
  <path
    fill-rule="evenodd"
    clip-rule="evenodd"
    d="M30 5.75C31.2426 5.75 32.25 6.75736 32.25 8L32.25 52C32.25 53.2426 31.2426 54.25 30 54.25C28.7574 54.25 27.75 53.2426 27.75 52L27.75 8C27.75 6.75736 28.7574 5.75 30 5.75ZM15.409 21.409C16.2877 20.5303 17.7123 20.5303 18.591 21.409L24.1768 26.9948C25.8365 28.6545 25.8365 31.3455 24.1768 33.0052L18.591 38.591C17.7123 39.4697 16.2877 39.4697 15.409 38.591C14.5303 37.7123 14.5303 36.2877 15.409 35.409L18.568 32.25L8 32.25C6.75736 32.25 5.75 31.2426 5.75 30C5.75 28.7574 6.75736 27.75 8 27.75L18.568 27.75L15.409 24.591C14.5303 23.7123 14.5303 22.2877 15.409 21.409ZM44.591 21.409C45.4697 22.2877 45.4697 23.7123 44.591 24.591L41.432 27.75H52C53.2426 27.75 54.25 28.7574 54.25 30C54.25 31.2426 53.2426 32.25 52 32.25H41.432L44.591 35.409C45.4697 36.2877 45.4697 37.7123 44.591 38.591C43.7123 39.4697 42.2877 39.4697 41.409 38.591L35.8232 33.0052C34.1635 31.3455 34.1635 28.6545 35.8232 26.9948L41.409 21.409C42.2877 20.5303 43.7123 20.5303 44.591 21.409Z"
  />
</svg>
