<svg
  width="60"
  height="60"
  viewBox="0 0 60 60"
  fill="currentColor"
  xmlns="http://www.w3.org/2000/svg"
>
  <path
    fill-rule="evenodd"
    clip-rule="evenodd"
    d="M44.75 19V9C44.75 7.75736 45.7574 6.75 47 6.75C48.2426 6.75 49.25 7.75736 49.25 9V19C49.25 20.2426 48.2426 21.25 47 21.25C45.7574 21.25 44.75 20.2426 44.75 19ZM47 32.75C48.2426 32.75 49.25 33.7574 49.25 35V36C49.25 46.6315 40.6315 55.25 30 55.25C19.3685 55.25 10.75 46.6315 10.75 36V35C10.75 33.7574 11.7574 32.75 13 32.75C14.2426 32.75 15.25 33.7574 15.25 35V36C15.25 44.1462 21.8538 50.75 30 50.75C38.1462 50.75 44.75 44.1462 44.75 36V35C44.75 33.7574 45.7574 32.75 47 32.75ZM13 6.75C14.2426 6.75 15.25 7.75736 15.25 9L15.25 19C15.25 20.2426 14.2426 21.25 13 21.25C11.7574 21.25 10.75 20.2426 10.75 19L10.75 9C10.75 7.75736 11.7574 6.75 13 6.75Z"
  />
  <path
    fill-rule="evenodd"
    clip-rule="evenodd"
    d="M2.75 27C2.75 25.7574 3.75736 24.75 5 24.75H55C56.2426 24.75 57.25 25.7574 57.25 27C57.25 28.2426 56.2426 29.25 55 29.25H5C3.75736 29.25 2.75 28.2426 2.75 27Z"
  />
</svg>
