<svg
  width="60"
  height="60"
  viewBox="0 0 60 60"
  fill="currentColor"
  xmlns="http://www.w3.org/2000/svg"
>
  <path
    fill-rule="evenodd"
    clip-rule="evenodd"
    d="M30 2.75C14.9502 2.75 2.75 14.9502 2.75 30C2.75 45.0498 14.9502 57.25 30 57.25C45.0498 57.25 57.25 45.0498 57.25 30C57.25 14.9502 45.0498 2.75 30 2.75ZM27.75 7.35986C16.2417 8.48969 7.25 18.1948 7.25 30C7.25 41.8052 16.2417 51.5103 27.75 52.6401V7.35986ZM32.25 52.6401C43.7583 51.5103 52.75 41.8052 52.75 30C52.75 29.1759 52.7062 28.362 52.6207 27.5606L32.25 47.9313V52.6401ZM51.4411 22.3762C50.3929 19.4283 48.7539 16.7603 46.6666 14.5148L32.25 28.9313V41.5674L51.4411 22.3762ZM43.2865 11.5309C40.1207 9.24941 36.3446 7.76185 32.25 7.35986V22.5674L43.2865 11.5309Z"
  />
</svg>
