<svg width="60" height="60" viewBox="0 0 60 60" fill="currentColor" xmlns="http://www.w3.org/2000/svg">
  <path fill-rule="evenodd" clip-rule="evenodd"
    d="M17.705 9.75H42.295C44.4545 9.74998 46.2116 9.74996 47.6376 9.86647C49.1108 9.98683 50.4277 10.2427 51.6534 10.8672C53.5821 11.8499 55.1501 13.4179 56.1328 15.3466C56.7573 16.5723 57.0132 17.8892 57.1335 19.3624C57.25 20.7884 57.25 22.5454 57.25 24.7049V35.2951C57.25 37.4546 57.25 39.2116 57.1335 40.6376C57.0132 42.1108 56.7573 43.4277 56.1328 44.6534C55.1501 46.5821 53.5821 48.1501 51.6534 49.1328C50.4277 49.7573 49.1108 50.0132 47.6376 50.1335C46.2116 50.25 44.4546 50.25 42.2951 50.25H17.7049C15.5454 50.25 13.7884 50.25 12.3624 50.1335C10.8892 50.0132 9.5723 49.7573 8.3466 49.1328C6.41794 48.1501 4.84989 46.5821 3.86718 44.6534C3.24266 43.4277 2.98683 42.1108 2.86647 40.6376C2.74996 39.2116 2.74998 37.4545 2.75 35.295V24.705C2.74998 22.5455 2.74996 20.7884 2.86647 19.3624C2.98683 17.8892 3.24266 16.5723 3.86718 15.3466C4.84989 13.4179 6.41794 11.8499 8.3466 10.8672C9.5723 10.2427 10.8892 9.98683 12.3624 9.86647C13.7884 9.74996 15.5455 9.74998 17.705 9.75ZM12.7288 14.3515C11.534 14.4491 10.8752 14.6293 10.3896 14.8767C9.30762 15.428 8.42799 16.3076 7.87671 17.3896C7.62929 17.8752 7.44915 18.534 7.35152 19.7288C7.25175 20.95 7.25 22.5227 7.25 24.8V35.2C7.25 37.4773 7.25175 39.05 7.35152 40.2712C7.44915 41.466 7.62929 42.1249 7.87671 42.6104C8.42799 43.6924 9.30762 44.572 10.3896 45.1233C10.8752 45.3707 11.534 45.5509 12.7288 45.6485C13.95 45.7482 15.5227 45.75 17.8 45.75H42.2C44.4773 45.75 46.05 45.7482 47.2712 45.6485C48.466 45.5509 49.1249 45.3707 49.6104 45.1233C50.6924 44.572 51.572 43.6924 52.1233 42.6104C52.3707 42.1249 52.5509 41.466 52.6485 40.2712C52.7482 39.05 52.75 37.4773 52.75 35.2V24.8C52.75 22.5227 52.7482 20.95 52.6485 19.7288C52.5509 18.534 52.3707 17.8752 52.1233 17.3896C51.572 16.3076 50.6924 15.428 49.6104 14.8767C49.1249 14.6293 48.466 14.4491 47.2712 14.3515C46.05 14.2518 44.4773 14.25 42.2 14.25H17.8C15.5227 14.25 13.95 14.2518 12.7288 14.3515ZM10.75 32C10.75 30.7574 11.7574 29.75 13 29.75H37C38.2426 29.75 39.25 30.7574 39.25 32C39.25 33.2426 38.2426 34.25 37 34.25H13C11.7574 34.25 10.75 33.2426 10.75 32ZM10.75 40C10.75 38.7574 11.7574 37.75 13 37.75H31C32.2426 37.75 33.25 38.7574 33.25 40C33.25 41.2426 32.2426 42.25 31 42.25H13C11.7574 42.25 10.75 41.2426 10.75 40Z" />
</svg>