<svg width="60" height="60" viewBox="0 0 60 60" fill="currentColor" xmlns="http://www.w3.org/2000/svg">
  <path fill-rule="evenodd" clip-rule="evenodd"
    d="M3 26C3 20.3995 3 17.5992 4.08993 15.4601C5.04867 13.5785 6.57847 12.0487 8.46009 11.0899C10.5992 10 13.3995 10 19 10H41.5C47.1005 10 49.9008 10 52.0399 11.0899C53.9215 12.0487 55.4513 13.5785 56.4101 15.4601C57.5 17.5992 57.5 20.3995 57.5 26V34.5C57.5 40.1005 57.5 42.9008 56.4101 45.0399C55.4513 46.9215 53.9215 48.4513 52.0399 49.4101C49.9008 50.5 47.1005 50.5 41.5 50.5H19C13.3995 50.5 10.5992 50.5 8.46009 49.4101C6.57847 48.4513 5.04867 46.9215 4.08993 45.0399C3 42.9008 3 40.1005 3 34.5V26ZM10.75 32C10.75 30.7574 11.7574 29.75 13 29.75H37C38.2426 29.75 39.25 30.7574 39.25 32C39.25 33.2426 38.2426 34.25 37 34.25H13C11.7574 34.25 10.75 33.2426 10.75 32ZM13 37.75C11.7574 37.75 10.75 38.7574 10.75 40C10.75 41.2426 11.7574 42.25 13 42.25H31C32.2426 42.25 33.25 41.2426 33.25 40C33.25 38.7574 32.2426 37.75 31 37.75H13Z" />
</svg>