<svg
  width="60"
  height="60"
  viewBox="0 0 60 60"
  fill="currentColor"
  xmlns="http://www.w3.org/2000/svg"
>
  <path
    d="M17.8511 20.4876C19.6495 19.7539 21.6265 19.5625 23.5334 19.9361C25.4406 20.3097 27.197 21.2327 28.5788 22.5936C29.4642 23.4656 29.475 24.8902 28.6031 25.7755C27.7311 26.6609 26.3065 26.6717 25.4212 25.7998C24.673 25.0629 23.7156 24.5573 22.6683 24.3521C21.6209 24.1469 20.5355 24.2526 19.5509 24.6542C18.5666 25.0558 17.7308 25.7335 17.1453 26.5964C16.5601 27.459 16.25 28.4694 16.25 29.5C16.25 30.5306 16.5601 31.541 17.1453 32.4036C17.7308 33.2665 18.5666 33.9442 19.5509 34.3458C20.5355 34.7474 21.6209 34.8531 22.6683 34.6479C23.7156 34.4427 24.673 33.9371 25.4212 33.2002C26.3065 32.3283 27.7311 32.3391 28.6031 33.2245C29.475 34.1098 29.4642 35.5344 28.5788 36.4064C27.197 37.7673 25.4406 38.6903 23.5334 39.0639C21.6265 39.4375 19.6495 39.2461 17.8511 38.5124C16.0524 37.7786 14.5095 36.5338 13.4215 34.93C12.3331 33.3258 11.75 31.4361 11.75 29.5C11.75 27.5639 12.3331 25.6742 13.4215 24.07C14.5095 22.4662 16.0524 21.2214 17.8511 20.4876Z"
  />
  <path
    d="M36.8511 20.4876C38.6495 19.7539 40.6265 19.5625 42.5334 19.9361C44.4406 20.3097 46.197 21.2327 47.5788 22.5936C48.4642 23.4656 48.475 24.8902 47.6031 25.7755C46.7311 26.6609 45.3065 26.6717 44.4212 25.7998C43.673 25.0629 42.7156 24.5573 41.6683 24.3521C40.6209 24.1469 39.5355 24.2526 38.5509 24.6542C37.5666 25.0558 36.7308 25.7335 36.1453 26.5964C35.5601 27.459 35.25 28.4694 35.25 29.5C35.25 30.5306 35.5601 31.541 36.1453 32.4036C36.7308 33.2665 37.5666 33.9442 38.5509 34.3458C39.5355 34.7474 40.6209 34.8531 41.6683 34.6479C42.7156 34.4427 43.673 33.9371 44.4212 33.2002C45.3065 32.3283 46.7311 32.3391 47.6031 33.2245C48.475 34.1098 48.4642 35.5344 47.5788 36.4064C46.197 37.7673 44.4406 38.6903 42.5334 39.0639C40.6265 39.4375 38.6495 39.2461 36.8511 38.5124C35.0524 37.7786 33.5095 36.5338 32.4215 34.93C31.3331 33.3258 30.75 31.4361 30.75 29.5C30.75 27.5639 31.3331 25.6742 32.4215 24.07C33.5095 22.4662 35.0524 21.2214 36.8511 20.4876Z"
  />
  <path
    fill-rule="evenodd"
    clip-rule="evenodd"
    d="M38.6963 4.75H21.3037C18.8652 4.74998 16.8983 4.74996 15.3056 4.88009C13.6657 5.01408 12.2253 5.29716 10.8926 5.97618C8.77578 7.05475 7.05475 8.77578 5.97618 10.8926C5.29716 12.2253 5.01408 13.6657 4.88009 15.3056C4.74996 16.8983 4.74998 18.8652 4.75 21.3037V38.6963C4.74998 41.1348 4.74996 43.1017 4.88009 44.6944C5.01408 46.3343 5.29716 47.7747 5.97618 49.1074C7.05475 51.2242 8.77578 52.9452 10.8926 54.0238C12.2253 54.7028 13.6657 54.9859 15.3056 55.1199C16.8983 55.25 18.8651 55.25 21.3036 55.25H38.6964C41.1348 55.25 43.1017 55.25 44.6944 55.1199C46.3343 54.9859 47.7747 54.7028 49.1074 54.0238C51.2242 52.9452 52.9452 51.2242 54.0238 49.1074C54.7028 47.7747 54.9859 46.3343 55.1199 44.6944C55.25 43.1017 55.25 41.1349 55.25 38.6964V21.3036C55.25 18.8652 55.25 16.8983 55.1199 15.3056C54.9859 13.6657 54.7028 12.2253 54.0238 10.8926C52.9452 8.77578 51.2242 7.05475 49.1074 5.97618C47.7747 5.29716 46.3343 5.01408 44.6944 4.88009C43.1017 4.74996 41.1348 4.74998 38.6963 4.75ZM12.9356 9.98571C13.5281 9.68379 14.3104 9.4764 15.672 9.36515C17.0599 9.25175 18.8426 9.25 21.4 9.25H38.6C41.1574 9.25 42.9401 9.25175 44.328 9.36515C45.6896 9.4764 46.4719 9.68379 47.0644 9.98571C48.3345 10.6329 49.3671 11.6655 50.0143 12.9356C50.3162 13.5281 50.5236 14.3104 50.6349 15.672C50.7482 17.0599 50.75 18.8426 50.75 21.4V38.6C50.75 41.1574 50.7482 42.9401 50.6349 44.328C50.5236 45.6896 50.3162 46.4719 50.0143 47.0644C49.3671 48.3345 48.3345 49.3671 47.0644 50.0143C46.4719 50.3162 45.6896 50.5236 44.328 50.6349C42.9401 50.7482 41.1574 50.75 38.6 50.75H21.4C18.8426 50.75 17.0599 50.7482 15.672 50.6349C14.3104 50.5236 13.5281 50.3162 12.9356 50.0143C11.6655 49.3671 10.6329 48.3345 9.98571 47.0644C9.68379 46.4719 9.4764 45.6896 9.36515 44.328C9.25175 42.9401 9.25 41.1574 9.25 38.6V21.4C9.25 18.8426 9.25175 17.0599 9.36515 15.672C9.4764 14.3104 9.68379 13.5281 9.98571 12.9356C10.6329 11.6655 11.6655 10.6329 12.9356 9.98571Z"
  />
</svg>
