<svg
  width="60"
  height="60"
  viewBox="0 0 60 60"
  fill="currentColor"
  xmlns="http://www.w3.org/2000/svg"
>
  <path
    d="M24 42.25C22.7574 42.25 21.75 41.2426 21.75 40L21.75 22C21.75 20.7574 22.7574 19.75 24 19.75C25.2426 19.75 26.25 20.7574 26.25 22V40C26.25 41.2426 25.2426 42.25 24 42.25Z"
  />
  <path
    d="M33.75 40C33.75 41.2426 34.7574 42.25 36 42.25C37.2426 42.25 38.25 41.2426 38.25 40V22C38.25 20.7574 37.2426 19.75 36 19.75C34.7574 19.75 33.75 20.7574 33.75 22V40Z"
  />
  <path
    fill-rule="evenodd"
    clip-rule="evenodd"
    d="M18.75 5C18.75 3.75736 19.7574 2.75 21 2.75H39C40.2426 2.75 41.25 3.75736 41.25 5C41.25 6.24264 40.2426 7.25 39 7.25H32.25V9.75H39C45.2132 9.75 50.25 14.7868 50.25 21V42C50.25 47.4427 46.385 51.9826 41.25 53.025V55C41.25 56.2426 40.2426 57.25 39 57.25C37.7574 57.25 36.75 56.2426 36.75 55V53.25H23.25V55C23.25 56.2426 22.2426 57.25 21 57.25C19.7574 57.25 18.75 56.2426 18.75 55V53.025C13.615 51.9826 9.75 47.4427 9.75 42V21C9.75 14.7868 14.7868 9.75 21 9.75H27.75V7.25H21C19.7574 7.25 18.75 6.24264 18.75 5ZM39 48.75C42.7279 48.75 45.75 45.7279 45.75 42V21C45.75 17.2721 42.7279 14.25 39 14.25H21C17.2721 14.25 14.25 17.2721 14.25 21V42C14.25 45.7279 17.2721 48.75 21 48.75H39Z"
  />
</svg>
