<svg
  width="60"
  height="60"
  viewBox="0 0 60 60"
  fill="currentColor"
  xmlns="http://www.w3.org/2000/svg"
>
  <path
    d="M47.4816 37.1122C47.178 36.9626 46.822 36.9626 46.5184 37.1122C46.248 37.2453 46.1077 37.4776 46.0434 37.5908C45.9739 37.713 45.9033 37.8684 45.8353 38.0182L43.7937 42.5087C43.7531 42.5981 43.7319 42.6443 43.7149 42.6779C43.7101 42.6873 43.7069 42.6933 43.705 42.6966C43.7025 42.6997 43.6997 42.7025 43.6966 42.705C43.6933 42.7069 43.6873 42.7101 43.6779 42.7149C43.6443 42.7319 43.5981 42.7531 43.5087 42.7937L39.0182 44.8352C38.8684 44.9033 38.713 44.9739 38.5908 45.0434C38.4776 45.1077 38.2453 45.248 38.1122 45.5184C37.9626 45.822 37.9626 46.178 38.1122 46.4816C38.2453 46.752 38.4776 46.8923 38.5908 46.9566C38.713 47.0261 38.8684 47.0967 39.0182 47.1647L43.5087 49.2063C43.5981 49.2469 43.6443 49.2681 43.6779 49.2851C43.6873 49.2899 43.6933 49.2931 43.6966 49.295C43.6997 49.2975 43.7024 49.3003 43.705 49.3034C43.7069 49.3067 43.7101 49.3127 43.7149 49.3221C43.7319 49.3557 43.7531 49.4019 43.7937 49.4913L45.8353 53.9818C45.9033 54.1316 45.9739 54.287 46.0434 54.4092C46.1077 54.5224 46.248 54.7547 46.5184 54.8878C46.822 55.0374 47.178 55.0374 47.4816 54.8878C47.752 54.7547 47.8923 54.5224 47.9566 54.4092C48.0261 54.287 48.0967 54.1316 48.1648 53.9818L50.2063 49.4913C50.2469 49.4019 50.2681 49.3557 50.2851 49.3221C50.2899 49.3127 50.2931 49.3067 50.295 49.3034C50.2975 49.3003 50.3003 49.2975 50.3034 49.295C50.3056 49.2937 50.3091 49.2918 50.314 49.2893C50.3163 49.288 50.319 49.2867 50.3221 49.2851C50.3557 49.2681 50.4019 49.2469 50.4913 49.2063L54.9818 47.1647C55.1316 47.0967 55.287 47.0261 55.4092 46.9566C55.5224 46.8923 55.7547 46.752 55.8878 46.4816C56.0374 46.178 56.0374 45.822 55.8878 45.5184C55.7547 45.248 55.5224 45.1077 55.4092 45.0434C55.287 44.9739 55.1316 44.9033 54.9818 44.8352L50.4913 42.7937C50.4019 42.7531 50.3557 42.7319 50.3221 42.7149C50.3127 42.7101 50.3067 42.7069 50.3034 42.705C50.3017 42.7036 50.3002 42.7022 50.2987 42.7007L50.295 42.6966C50.295 42.6966 50.2927 42.6925 50.291 42.6893C50.2894 42.6863 50.2874 42.6825 50.2851 42.6779C50.2681 42.6443 50.2469 42.5981 50.2063 42.5087L48.1648 38.0182C48.0967 37.8684 48.0261 37.713 47.9566 37.5908C47.8923 37.4776 47.752 37.2453 47.4816 37.1122Z"
  />
  <path
    fill-rule="evenodd"
    clip-rule="evenodd"
    d="M6.75 29C6.75 27.7574 7.75736 26.75 9 26.75H51C52.2426 26.75 53.25 27.7574 53.25 29C53.25 30.2426 52.2426 31.25 51 31.25H9C7.75736 31.25 6.75 30.2426 6.75 29Z"
  />
  <path
    fill-rule="evenodd"
    clip-rule="evenodd"
    d="M6.75 12C6.75 10.7574 7.75736 9.75 9 9.75H51C52.2426 9.75 53.25 10.7574 53.25 12C53.25 13.2426 52.2426 14.25 51 14.25H9C7.75736 14.25 6.75 13.2426 6.75 12Z"
  />
  <path
    fill-rule="evenodd"
    clip-rule="evenodd"
    d="M6.75 46C6.75 44.7574 7.75736 43.75 9 43.75H29C30.2426 43.75 31.25 44.7574 31.25 46C31.25 47.2426 30.2426 48.25 29 48.25H9C7.75736 48.25 6.75 47.2426 6.75 46Z"
  />
</svg>
