<svg
  width="60"
  height="60"
  viewBox="0 0 60 60"
  fill="currentColor"
  xmlns="http://www.w3.org/2000/svg"
>
  <path
    fill-rule="evenodd"
    clip-rule="evenodd"
    d="M6.75 9C6.75 7.75736 7.75736 6.75 9 6.75H51C52.2426 6.75 53.25 7.75736 53.25 9C53.25 10.2426 52.2426 11.25 51 11.25H9C7.75736 11.25 6.75 10.2426 6.75 9Z"
  />
  <path
    fill-rule="evenodd"
    clip-rule="evenodd"
    d="M6.75 39C6.75 37.7574 7.75736 36.75 9 36.75H51C52.2426 36.75 53.25 37.7574 53.25 39C53.25 40.2426 52.2426 41.25 51 41.25H9C7.75736 41.25 6.75 40.2426 6.75 39Z"
  />
  <path
    fill-rule="evenodd"
    clip-rule="evenodd"
    d="M6.75 21C6.75 19.7574 7.75736 18.75 9 18.75H12C13.2426 18.75 14.25 19.7574 14.25 21C14.25 22.2426 13.2426 23.25 12 23.25H9C7.75736 23.25 6.75 22.2426 6.75 21Z"
  />
  <path
    fill-rule="evenodd"
    clip-rule="evenodd"
    d="M6.75 51C6.75 49.7574 7.75736 48.75 9 48.75H12C13.2426 48.75 14.25 49.7574 14.25 51C14.25 52.2426 13.2426 53.25 12 53.25H9C7.75736 53.25 6.75 52.2426 6.75 51Z"
  />
  <path
    fill-rule="evenodd"
    clip-rule="evenodd"
    d="M17.75 21C17.75 19.7574 18.7574 18.75 20 18.75H23C24.2426 18.75 25.25 19.7574 25.25 21C25.25 22.2426 24.2426 23.25 23 23.25H20C18.7574 23.25 17.75 22.2426 17.75 21Z"
  />
  <path
    fill-rule="evenodd"
    clip-rule="evenodd"
    d="M17.75 51C17.75 49.7574 18.7574 48.75 20 48.75H23C24.2426 48.75 25.25 49.7574 25.25 51C25.25 52.2426 24.2426 53.25 23 53.25H20C18.7574 53.25 17.75 52.2426 17.75 51Z"
  />
  <path
    fill-rule="evenodd"
    clip-rule="evenodd"
    d="M28.75 21C28.75 19.7574 29.7574 18.75 31 18.75H34C35.2426 18.75 36.25 19.7574 36.25 21C36.25 22.2426 35.2426 23.25 34 23.25H31C29.7574 23.25 28.75 22.2426 28.75 21Z"
  />
  <path
    fill-rule="evenodd"
    clip-rule="evenodd"
    d="M28.75 51C28.75 49.7574 29.7574 48.75 31 48.75H34C35.2426 48.75 36.25 49.7574 36.25 51C36.25 52.2426 35.2426 53.25 34 53.25H31C29.7574 53.25 28.75 52.2426 28.75 51Z"
  />
</svg>
