<svg
  width="60"
  height="60"
  viewBox="0 0 60 60"
  fill="currentColor"
  xmlns="http://www.w3.org/2000/svg"
>
  <path
    d="M28.3596 16.7764C28.6812 15.5761 29.9149 14.8638 31.1152 15.1854L44.6382 18.8088C45.8385 19.1305 46.5508 20.3642 46.2292 21.5645C45.9076 22.7648 44.6738 23.4771 43.4735 23.1555L29.9505 19.532C28.7502 19.2104 28.0379 17.9767 28.3596 16.7764Z"
  />
  <path
    d="M28.9751 27.0352C27.7748 26.7136 26.541 27.4259 26.2194 28.6262C25.8978 29.8265 26.6101 31.0603 27.8104 31.3819L35.5378 33.4524C36.7381 33.7741 37.9719 33.0618 38.2935 31.8615C38.6151 30.6612 37.9028 29.4274 36.7025 29.1058L28.9751 27.0352Z"
  />
  <path
    fill-rule="evenodd"
    clip-rule="evenodd"
    d="M44.1045 5.17196L38.8956 3.77624C36.5402 3.14509 34.6403 2.63601 33.0682 2.34948C31.4495 2.05446 29.9849 1.95508 28.5219 2.26605C26.198 2.76 24.0902 3.97696 22.5005 5.74249C21.4997 6.854 20.8535 8.17207 20.2996 9.72143C19.9218 10.7785 19.5581 12.0304 19.1565 13.4983L15.156 14.5702C12.8006 15.2013 10.9008 15.7104 9.39599 16.2483C7.84663 16.8021 6.52856 17.4484 5.41705 18.4492C3.65152 20.0389 2.43456 22.1467 1.94061 24.4706C1.62964 25.9335 1.72902 27.3982 2.02404 29.0169C2.31057 30.589 2.81965 32.4888 3.4508 34.8442L6.06233 44.5906C6.69343 46.946 7.20249 48.8459 7.74041 50.3506C8.29427 51.9 8.94051 53.2181 9.94132 54.3296C11.531 56.0951 13.6388 57.3121 15.9627 57.806C17.4257 58.117 18.8903 58.0176 20.509 57.7226C22.0811 57.4361 23.9808 56.927 26.3361 56.2959L30.5791 55.159C32.9346 54.5279 34.8345 54.0188 36.3394 53.4809C37.8887 52.927 39.2068 52.2808 40.3183 51.2799C41.4027 50.3036 42.2801 49.1318 42.9101 47.8345C43.0998 47.8076 43.2891 47.7742 43.4783 47.734C45.8022 47.24 47.91 46.0231 49.4997 44.2576C50.5005 43.146 51.1468 41.828 51.7006 40.2786C52.2385 38.7741 52.7474 36.8746 53.3784 34.5196L55.8097 25.4459C56.4408 23.0906 56.9499 21.1907 57.2364 19.6186C57.5315 17.9999 57.6308 16.5353 57.3199 15.0723C56.8259 12.7485 55.609 10.6406 53.8434 9.05094C52.7319 8.05014 51.4139 7.4039 49.8645 6.85004C48.3597 6.31211 46.4599 5.80307 44.1045 5.17196ZM37.7968 47.4194L37.8177 47.4241C37.6574 47.603 37.487 47.7739 37.3072 47.9358C36.813 48.3808 36.111 48.7836 34.8246 49.2435C33.5133 49.7122 31.7918 50.1753 29.3216 50.8372L25.2647 51.9242C22.7945 52.5861 21.0721 53.0458 19.7021 53.2955C18.3581 53.5405 17.5488 53.5426 16.8983 53.4044C15.504 53.108 14.2393 52.3778 13.2855 51.3185C12.8405 50.8243 12.4377 50.1223 11.9778 48.8359C11.5091 47.5246 11.046 45.8031 10.3841 43.3329L7.8224 33.7726C7.1605 31.3024 6.7008 29.58 6.45111 28.21C6.20616 26.866 6.20401 26.0567 6.34228 25.4062C6.63865 24.0118 7.36882 22.7472 8.42814 21.7933C8.92236 21.3483 9.62432 20.9455 10.9108 20.4857C12.222 20.0169 13.9435 19.5538 16.4137 18.8919L17.8076 18.5185L16.1904 24.5541C15.5592 26.9094 15.0501 28.8093 14.7636 30.3814C14.4686 32.0001 14.3692 33.4647 14.6802 34.9277C15.1741 37.2515 16.3911 39.3594 18.1566 40.9491C18.9903 41.6997 19.9402 42.2509 21.0167 42.7132C21.3755 42.8673 21.7483 43.0115 22.1356 43.15C23.6402 43.6879 25.5405 44.197 27.8957 44.8281L33.1047 46.2238L33.3238 46.2825C35.0148 46.7359 36.4875 47.1307 37.7968 47.4194ZM37.7968 47.4194L33.1047 46.2238L22.1356 43.15L37.7968 47.4194ZM41.4471 43.4229C41.8775 43.4331 42.2286 43.3991 42.5427 43.3323C43.937 43.036 45.2017 42.3058 46.1556 41.2465C46.6006 40.7523 47.0034 40.0503 47.4632 38.7638C47.932 37.4526 48.3951 35.7311 49.057 33.2609L51.4381 24.3743C52.1 21.9041 52.5597 20.1817 52.8094 18.8118C53.0543 17.4677 53.0565 16.6584 52.9182 16.0079C52.6218 14.6136 51.8917 13.3489 50.8323 12.3951C50.3381 11.9501 49.6362 11.5473 48.3497 11.0874C47.0385 10.6187 45.317 10.1556 42.8467 9.4937L37.8239 8.14784C35.3537 7.48594 33.6313 7.02623 32.2613 6.77655C30.9173 6.5316 30.108 6.52945 29.4575 6.66772C28.0632 6.96409 26.7985 7.69426 25.8447 8.75358C25.3997 9.2478 24.9969 9.94976 24.537 11.2362C24.0683 12.5475 23.6052 14.269 22.9433 16.7392L20.5621 25.6257C19.9002 28.0959 19.4405 29.8183 19.1909 31.1883C18.9459 32.5323 18.9438 33.3416 19.082 33.9921C19.3784 35.3864 20.1086 36.6511 21.1679 37.605C21.5408 37.9407 22.0319 38.2524 22.8032 38.5828C22.9902 38.6629 23.1938 38.7441 23.4161 38.827C23.492 38.8554 23.5701 38.8839 23.6505 38.9126C24.8798 39.3521 26.4697 39.7865 28.699 40.3845L29.1533 40.5063L41.4471 43.4229ZM41.343 43.4196C41.3693 43.4206 41.3954 43.4215 41.4214 43.4222L41.4471 43.4229L41.343 43.4196ZM41.343 43.4196C40.9034 43.4024 40.3824 43.3408 39.7389 43.2235C39.4381 43.1687 39.1203 43.1037 38.7814 43.0287L41.343 43.4196Z"
  />
</svg>
