<svg
  width="60"
  height="60"
  viewBox="0 0 60 60"
  fill="currentColor"
  xmlns="http://www.w3.org/2000/svg"
>
  <path
    fill-rule="evenodd"
    clip-rule="evenodd"
    d="M30 25.25C25.1675 25.25 21.25 29.1675 21.25 34C21.25 35.2426 20.2426 36.25 19 36.25C17.7574 36.25 16.75 35.2426 16.75 34C16.75 26.6822 22.6822 20.75 30 20.75C37.3178 20.75 43.25 26.6822 43.25 34C43.25 35.2426 42.2426 36.25 41 36.25C39.7574 36.25 38.75 35.2426 38.75 34C38.75 29.1675 34.8325 25.25 30 25.25Z"
  />
  <path
    fill-rule="evenodd"
    clip-rule="evenodd"
    d="M4.75 34C4.75 32.7574 5.75736 31.75 7 31.75H12C13.2426 31.75 14.25 32.7574 14.25 34C14.25 35.2426 13.2426 36.25 12 36.25H7C5.75736 36.25 4.75 35.2426 4.75 34Z"
  />
  <path
    fill-rule="evenodd"
    clip-rule="evenodd"
    d="M45.75 34C45.75 32.7574 46.7574 31.75 48 31.75H53C54.2426 31.75 55.25 32.7574 55.25 34C55.25 35.2426 54.2426 36.25 53 36.25H48C46.7574 36.25 45.75 35.2426 45.75 34Z"
  />
  <path
    fill-rule="evenodd"
    clip-rule="evenodd"
    d="M30 8.75C31.2426 8.75 32.25 9.75736 32.25 11V16C32.25 17.2426 31.2426 18.25 30 18.25C28.7574 18.25 27.75 17.2426 27.75 16V11C27.75 9.75736 28.7574 8.75 30 8.75Z"
  />
  <path
    fill-rule="evenodd"
    clip-rule="evenodd"
    d="M12.1453 16.1453C13.024 15.2667 14.4486 15.2667 15.3273 16.1453L18.8629 19.6809C19.7415 20.5596 19.7415 21.9842 18.8629 22.8629C17.9842 23.7415 16.5596 23.7415 15.6809 22.8629L12.1453 19.3273C11.2667 18.4486 11.2667 17.024 12.1453 16.1453Z"
  />
  <path
    fill-rule="evenodd"
    clip-rule="evenodd"
    d="M47.8547 16.1453C48.7333 17.024 48.7333 18.4486 47.8547 19.3273L44.3191 22.8629C43.4404 23.7415 42.0158 23.7415 41.1371 22.8629C40.2585 21.9842 40.2585 20.5596 41.1371 19.6809L44.6727 16.1453C45.5514 15.2667 46.976 15.2667 47.8547 16.1453Z"
  />
  <path
    fill-rule="evenodd"
    clip-rule="evenodd"
    d="M4.75 41C4.75 39.7574 5.75736 38.75 7 38.75L53 38.75C54.2426 38.75 55.25 39.7574 55.25 41C55.25 42.2426 54.2426 43.25 53 43.25L7 43.25C5.75736 43.25 4.75 42.2426 4.75 41Z"
  />
  <path
    fill-rule="evenodd"
    clip-rule="evenodd"
    d="M8.75 48C8.75 46.7574 9.75736 45.75 11 45.75L49 45.75C50.2426 45.75 51.25 46.7574 51.25 48C51.25 49.2426 50.2426 50.25 49 50.25L11 50.25C9.75736 50.25 8.75 49.2426 8.75 48Z"
  />
</svg>
