<svg
  width="60"
  height="60"
  viewBox="0 0 60 60"
  fill="currentColor"
  xmlns="http://www.w3.org/2000/svg"
>
  <path
    fill-rule="evenodd"
    clip-rule="evenodd"
    d="M30.0002 22.25C25.1677 22.25 21.2502 26.1675 21.2502 31C21.2502 32.2426 20.2429 33.25 19.0002 33.25C17.7576 33.25 16.7502 32.2426 16.7502 31C16.7502 23.6822 22.6825 17.75 30.0002 17.75C37.318 17.75 43.2502 23.6822 43.2502 31C43.2502 32.2426 42.2429 33.25 41.0002 33.25C39.7576 33.25 38.7502 32.2426 38.7502 31C38.7502 26.1675 34.8327 22.25 30.0002 22.25Z"
  />
  <path
    fill-rule="evenodd"
    clip-rule="evenodd"
    d="M4.75024 30C4.75024 28.7574 5.7576 27.75 7.00024 27.75H12.0002C13.2429 27.75 14.2502 28.7574 14.2502 30C14.2502 31.2426 13.2429 32.25 12.0002 32.25H7.00024C5.7576 32.25 4.75024 31.2426 4.75024 30Z"
  />
  <path
    fill-rule="evenodd"
    clip-rule="evenodd"
    d="M45.7502 30C45.7502 28.7574 46.7576 27.75 48.0002 27.75H53.0002C54.2429 27.75 55.2502 28.7574 55.2502 30C55.2502 31.2426 54.2429 32.25 53.0002 32.25H48.0002C46.7576 32.25 45.7502 31.2426 45.7502 30Z"
  />
  <path
    fill-rule="evenodd"
    clip-rule="evenodd"
    d="M30.0002 4.75C31.2429 4.75 32.2502 5.75736 32.2502 7V12C32.2502 13.2426 31.2429 14.25 30.0002 14.25C28.7576 14.25 27.7502 13.2426 27.7502 12V7C27.7502 5.75736 28.7576 4.75 30.0002 4.75Z"
  />
  <path
    fill-rule="evenodd"
    clip-rule="evenodd"
    d="M12.1456 12.1453C13.0243 11.2667 14.4489 11.2667 15.3276 12.1453L18.8631 15.6809C19.7418 16.5596 19.7418 17.9842 18.8631 18.8629C17.9844 19.7415 16.5598 19.7415 15.6811 18.8629L12.1456 15.3273C11.2669 14.4486 11.2669 13.024 12.1456 12.1453Z"
  />
  <path
    fill-rule="evenodd"
    clip-rule="evenodd"
    d="M47.8549 12.1453C48.7336 13.024 48.7336 14.4486 47.8549 15.3273L44.3194 18.8629C43.4407 19.7415 42.0161 19.7415 41.1374 18.8629C40.2587 17.9842 40.2587 16.5596 41.1374 15.6809L44.6729 12.1453C45.5516 11.2667 46.9762 11.2667 47.8549 12.1453Z"
  />
  <path
    fill-rule="evenodd"
    clip-rule="evenodd"
    d="M32.6101 43.5114C30.9454 42.8243 29.0751 42.8309 27.4152 43.5297L24.8451 44.6119C22.0242 45.7996 18.8183 45.653 16.1176 44.2126C14.277 43.231 12.0458 43.3404 10.3102 44.4976L8.24831 45.8721C7.21437 46.5614 5.81742 46.282 5.12813 45.2481C4.43883 44.2141 4.71822 42.8172 5.75216 42.1279L7.81402 40.7533C10.9286 38.6769 14.9324 38.4805 18.2353 40.242C19.7403 41.0447 21.5269 41.1264 23.0989 40.4645L25.669 39.3824C28.4354 38.2176 31.5525 38.2066 34.327 39.3519L37.15 40.5171C38.6706 41.1448 40.3935 41.0506 41.8366 40.2609C45.0814 38.4852 49.0438 38.6582 52.1215 40.71L54.2483 42.1279C55.2823 42.8172 55.5616 44.2142 54.8724 45.2481C54.1831 46.282 52.7861 46.5614 51.7522 45.8721L49.6253 44.4542C47.9411 43.3314 45.7726 43.2367 43.9969 44.2084C41.3599 45.6514 38.2116 45.8236 35.433 44.6767L32.6101 43.5114Z"
  />
  <path
    fill-rule="evenodd"
    clip-rule="evenodd"
    d="M32.6196 53.5442C30.9446 52.839 29.0559 52.839 27.3809 53.5442L25.0039 54.545C22.111 55.7631 18.8406 55.7172 15.983 54.4182L14.0692 53.5483C12.9379 53.0341 12.4377 51.7002 12.9519 50.5689C13.4661 49.4377 14.8 48.9375 15.9313 49.4517L17.8451 50.3216C19.5597 51.101 21.5219 51.1285 23.2577 50.3977L25.6346 49.3969C28.4263 48.2214 31.5741 48.2214 34.3659 49.3969L36.7428 50.3977C38.4786 51.1285 40.4408 51.101 42.1554 50.3216L44.0692 49.4517C45.2004 48.9375 46.5343 49.4377 47.0486 50.5689C47.5628 51.7002 47.0626 53.0341 45.9313 53.5483L44.0175 54.4182C41.1599 55.7172 37.8895 55.7631 34.9965 54.545L32.6196 53.5442Z"
  />
</svg>
