<svg
  width="60"
  height="60"
  viewBox="0 0 60 60"
  fill="currentColor"
  xmlns="http://www.w3.org/2000/svg"
>
  <path
    fill-rule="evenodd"
    clip-rule="evenodd"
    d="M30 16C22.268 16 16 22.268 16 30C16 37.732 22.268 44 30 44C37.732 44 44 37.732 44 30C44 22.268 37.732 16 30 16ZM11.5 30C11.5 19.7827 19.7827 11.5 30 11.5C40.2173 11.5 48.5 19.7827 48.5 30C48.5 40.2173 40.2173 48.5 30 48.5C19.7827 48.5 11.5 40.2173 11.5 30Z"
  />
  <path
    fill-rule="evenodd"
    clip-rule="evenodd"
    d="M30 2.5C31.3807 2.5 32.5 3.61929 32.5 5V5.2C32.5 6.58071 31.3807 7.7 30 7.7C28.6193 7.7 27.5 6.58071 27.5 5.2V5C27.5 3.61929 28.6193 2.5 30 2.5ZM49.6178 10.3822C50.5941 11.3585 50.5941 12.9415 49.6178 13.9178L49.2928 14.2428C48.3165 15.2191 46.7336 15.2191 45.7572 14.2428C44.7809 13.2665 44.7809 11.6835 45.7572 10.7072L46.0822 10.3822C47.0585 9.40592 48.6414 9.40592 49.6178 10.3822ZM10.3822 10.3822C11.3585 9.40592 12.9415 9.40592 13.9178 10.3822L14.2428 10.7072C15.2191 11.6835 15.2191 13.2665 14.2428 14.2428C13.2665 15.2191 11.6835 15.2191 10.7072 14.2428L10.3822 13.9178C9.40592 12.9415 9.40592 11.3585 10.3822 10.3822ZM2.5 30C2.5 28.6193 3.61929 27.5 5 27.5H5.2C6.58071 27.5 7.7 28.6193 7.7 30C7.7 31.3807 6.58071 32.5 5.2 32.5H5C3.61929 32.5 2.5 31.3807 2.5 30ZM52.3 30C52.3 28.6193 53.4193 27.5 54.8 27.5H55C56.3807 27.5 57.5 28.6193 57.5 30C57.5 31.3807 56.3807 32.5 55 32.5H54.8C53.4193 32.5 52.3 31.3807 52.3 30ZM14.2428 45.7572C15.2191 46.7336 15.2191 48.3165 14.2428 49.2928L13.9178 49.6178C12.9415 50.5941 11.3585 50.5941 10.3822 49.6178C9.40592 48.6414 9.40592 47.0585 10.3822 46.0822L10.7072 45.7572C11.6835 44.7809 13.2665 44.7809 14.2428 45.7572ZM45.7572 45.7572C46.7335 44.7809 48.3165 44.7809 49.2928 45.7572L49.6178 46.0822C50.5941 47.0585 50.5941 48.6415 49.6178 49.6178C48.6415 50.5941 47.0585 50.5941 46.0822 49.6178L45.7572 49.2928C44.7809 48.3165 44.7809 46.7335 45.7572 45.7572ZM30 52.3C31.3807 52.3 32.5 53.4193 32.5 54.8V55C32.5 56.3807 31.3807 57.5 30 57.5C28.6193 57.5 27.5 56.3807 27.5 55V54.8C27.5 53.4193 28.6193 52.3 30 52.3Z"
  />
</svg>
