<svg
  width="60"
  height="60"
  viewBox="0 0 60 60"
  fill="currentColor"
  xmlns="http://www.w3.org/2000/svg"
>
  <path
    d="M32.5 5C32.5 3.61929 31.3807 2.5 30 2.5C28.6193 2.5 27.5 3.61929 27.5 5V5.2C27.5 6.58071 28.6193 7.7 30 7.7C31.3807 7.7 32.5 6.58071 32.5 5.2V5Z"
  />
  <path
    d="M49.6178 13.9178C50.5941 12.9415 50.5941 11.3585 49.6178 10.3822C48.6414 9.40592 47.0585 9.40592 46.0822 10.3822L45.7572 10.7072C44.7809 11.6835 44.7809 13.2665 45.7572 14.2428C46.7336 15.2191 48.3165 15.2191 49.2928 14.2428L49.6178 13.9178Z"
  />
  <path
    d="M13.9178 10.3822C12.9415 9.40592 11.3585 9.40592 10.3822 10.3822C9.40592 11.3585 9.40592 12.9415 10.3822 13.9178L10.7072 14.2428C11.6835 15.2191 13.2665 15.2191 14.2428 14.2428C15.2191 13.2665 15.2191 11.6835 14.2428 10.7072L13.9178 10.3822Z"
  />
  <path
    d="M5 27.5C3.61929 27.5 2.5 28.6193 2.5 30C2.5 31.3807 3.61929 32.5 5 32.5H5.2C6.58071 32.5 7.7 31.3807 7.7 30C7.7 28.6193 6.58071 27.5 5.2 27.5H5Z"
  />
  <path
    d="M54.8 27.5C53.4193 27.5 52.3 28.6193 52.3 30C52.3 31.3807 53.4193 32.5 54.8 32.5H55C56.3807 32.5 57.5 31.3807 57.5 30C57.5 28.6193 56.3807 27.5 55 27.5H54.8Z"
  />
  <path
    d="M14.2428 49.2928C15.2191 48.3165 15.2191 46.7336 14.2428 45.7572C13.2665 44.7809 11.6835 44.7809 10.7072 45.7572L10.3822 46.0822C9.40592 47.0585 9.40592 48.6414 10.3822 49.6178C11.3585 50.5941 12.9415 50.5941 13.9178 49.6178L14.2428 49.2928Z"
  />
  <path
    d="M49.2928 45.7572C48.3165 44.7809 46.7335 44.7809 45.7572 45.7572C44.7809 46.7335 44.7809 48.3165 45.7572 49.2928L46.0822 49.6178C47.0585 50.5941 48.6415 50.5941 49.6178 49.6178C50.5941 48.6415 50.5941 47.0585 49.6178 46.0822L49.2928 45.7572Z"
  />
  <path
    d="M32.5 54.8C32.5 53.4193 31.3807 52.3 30 52.3C28.6193 52.3 27.5 53.4193 27.5 54.8V55C27.5 56.3807 28.6193 57.5 30 57.5C31.3807 57.5 32.5 56.3807 32.5 55V54.8Z"
  />
  <path
    fill-rule="evenodd"
    clip-rule="evenodd"
    d="M30 11.5C19.7827 11.5 11.5 19.7827 11.5 30C11.5 40.2173 19.7827 48.5 30 48.5C40.2173 48.5 48.5 40.2173 48.5 30C48.5 19.7827 40.2173 11.5 30 11.5ZM16 30C16 22.268 22.268 16 30 16C37.732 16 44 22.268 44 30C44 37.732 37.732 44 30 44C22.268 44 16 37.732 16 30Z"
  />
</svg>
