<svg
  width="60"
  height="60"
  viewBox="0 0 60 60"
  fill="currentColor"
  xmlns="http://www.w3.org/2000/svg"
>
  <path
    fill-rule="evenodd"
    clip-rule="evenodd"
    d="M30 21.25C25.1675 21.25 21.25 25.1675 21.25 30C21.25 34.8325 25.1675 38.75 30 38.75C34.8325 38.75 38.75 34.8325 38.75 30C38.75 25.1675 34.8325 21.25 30 21.25ZM16.75 30C16.75 22.6822 22.6822 16.75 30 16.75C37.3178 16.75 43.25 22.6822 43.25 30C43.25 37.3178 37.3178 43.25 30 43.25C22.6822 43.25 16.75 37.3178 16.75 30Z"
  />
  <path
    fill-rule="evenodd"
    clip-rule="evenodd"
    d="M4.75 30C4.75 28.7574 5.75736 27.75 7 27.75H12C13.2426 27.75 14.25 28.7574 14.25 30C14.25 31.2426 13.2426 32.25 12 32.25H7C5.75736 32.25 4.75 31.2426 4.75 30Z"
  />
  <path
    fill-rule="evenodd"
    clip-rule="evenodd"
    d="M45.75 30C45.75 28.7574 46.7574 27.75 48 27.75H53C54.2426 27.75 55.25 28.7574 55.25 30C55.25 31.2426 54.2426 32.25 53 32.25H48C46.7574 32.25 45.75 31.2426 45.75 30Z"
  />
  <path
    fill-rule="evenodd"
    clip-rule="evenodd"
    d="M30 4.75C31.2426 4.75 32.25 5.75736 32.25 7V12C32.25 13.2426 31.2426 14.25 30 14.25C28.7574 14.25 27.75 13.2426 27.75 12V7C27.75 5.75736 28.7574 4.75 30 4.75Z"
  />
  <path
    fill-rule="evenodd"
    clip-rule="evenodd"
    d="M30 45.75C31.2426 45.75 32.25 46.7574 32.25 48V53C32.25 54.2426 31.2426 55.25 30 55.25C28.7574 55.25 27.75 54.2426 27.75 53V48C27.75 46.7574 28.7574 45.75 30 45.75Z"
  />
  <path
    fill-rule="evenodd"
    clip-rule="evenodd"
    d="M12.1456 12.1456C13.0242 11.2669 14.4489 11.2669 15.3275 12.1456L18.8631 15.6811C19.7417 16.5598 19.7417 17.9844 18.8631 18.8631C17.9844 19.7417 16.5598 19.7417 15.6811 18.8631L12.1456 15.3275C11.2669 14.4489 11.2669 13.0242 12.1456 12.1456Z"
  />
  <path
    fill-rule="evenodd"
    clip-rule="evenodd"
    d="M41.1369 41.1369C42.0156 40.2583 43.4402 40.2583 44.3189 41.1369L47.8544 44.6725C48.7331 45.5511 48.7331 46.9758 47.8544 47.8544C46.9758 48.7331 45.5511 48.7331 44.6725 47.8544L41.1369 44.3189C40.2582 43.4402 40.2582 42.0156 41.1369 41.1369Z"
  />
  <path
    fill-rule="evenodd"
    clip-rule="evenodd"
    d="M47.8542 12.1453C48.7329 13.024 48.7329 14.4486 47.8542 15.3273L44.3187 18.8629C43.44 19.7415 42.0154 19.7415 41.1367 18.8629C40.258 17.9842 40.258 16.5596 41.1367 15.6809L44.6722 12.1453C45.5509 11.2667 46.9755 11.2667 47.8542 12.1453Z"
  />
  <path
    fill-rule="evenodd"
    clip-rule="evenodd"
    d="M18.8629 41.1367C19.7415 42.0154 19.7415 43.44 18.8629 44.3187L15.3273 47.8542C14.4486 48.7329 13.024 48.7329 12.1453 47.8542C11.2667 46.9756 11.2667 45.5509 12.1453 44.6722L15.6809 41.1367C16.5596 40.258 17.9842 40.258 18.8629 41.1367Z"
  />
</svg>
