<svg
  width="60"
  height="60"
  viewBox="0 0 60 60"
  fill="currentColor"
  xmlns="http://www.w3.org/2000/svg"
>
  <path
    fill-rule="evenodd"
    clip-rule="evenodd"
    d="M53.6411 8.63912C56.3747 11.3728 56.3747 15.8049 53.6411 18.5386L36.9112 35.2685C34.1775 38.0022 29.7453 38.0022 27.0117 35.2685C24.278 32.5348 24.278 28.1027 27.0117 25.369L43.7416 8.63912C46.4752 5.90545 50.9074 5.90545 53.6411 8.63912ZM30.1937 28.551L46.9236 11.8211C47.8999 10.8448 49.4828 10.8448 50.4591 11.8211C51.4354 12.7974 51.4354 14.3803 50.4591 15.3566L33.7292 32.0865C32.7529 33.0628 31.17 33.0628 30.1937 32.0865C29.2173 31.1102 29.2173 29.5273 30.1937 28.551Z"
  />
  <path
    fill-rule="evenodd"
    clip-rule="evenodd"
    d="M26.6308 48.1324L25.2632 49.5C20.8709 53.2554 14.8202 55.2491 7.30092 51.5152C5.89691 50.8179 5.1949 50.4693 4.74322 49.718C4.38825 49.1276 4.23637 48.1997 4.38457 47.5269C4.57315 46.6708 5.22937 46.0146 6.5418 44.7022L14.8712 36.3728C16.4552 34.7887 17.2473 33.9967 18.1606 33.7C18.964 33.4389 19.8293 33.4389 20.6327 33.7C21.546 33.9967 22.3381 34.7887 23.9221 36.3728L26.6308 39.0815C28.2148 40.6655 29.0069 41.4576 29.3036 42.3709C29.5647 43.1742 29.5647 44.0396 29.3036 44.843C29.0069 45.7563 28.2148 46.5484 26.6308 48.1324ZM22.213 46.1862C20.5204 47.6038 18.6821 48.5489 16.7137 48.8775C14.8656 49.186 12.6079 49.0025 9.85839 47.7495L18.0531 39.5548C18.6829 38.925 19.0903 38.5204 19.3967 38.2366C19.703 38.5204 20.1104 38.925 20.7402 39.5548L23.4488 42.2634C24.0786 42.8932 24.4831 43.3005 24.767 43.6069C24.4831 43.9133 24.0786 44.3207 23.4488 44.9504L22.213 46.1862Z"
  />
  <path
    d="M32 48.75C30.7574 48.75 29.75 49.7574 29.75 51C29.75 52.2426 30.7574 53.25 32 53.25L52 53.25C53.2426 53.25 54.25 52.2426 54.25 51C54.25 49.7574 53.2426 48.75 52 48.75L32 48.75Z"
  />
</svg>
