<svg
  width="60"
  height="60"
  viewBox="0 0 60 60"
  fill="currentColor"
  xmlns="http://www.w3.org/2000/svg"
>
  <path
    d="M54.7399 16.0734L54.7499 16.0858L54.7538 16.0906L54.757 16.0946C55.5332 17.0649 55.3759 18.4808 54.4055 19.2571C53.4373 20.0317 52.0253 19.8767 51.248 18.9118L51.2471 18.9107L51.2454 18.9086L51.2423 18.9049C51.2345 18.8954 51.219 18.8769 51.196 18.8499C51.1499 18.796 51.0734 18.7084 50.9664 18.5918C50.7524 18.3587 50.417 18.0104 49.9597 17.585C49.0443 16.7334 47.6457 15.5778 45.7584 14.4163C41.9941 12.0998 36.2723 9.75008 28.5004 9.75C20.7792 9.74992 16.1791 12.2089 13.5337 14.4944C12.6513 15.2567 11.9696 16.0145 11.4542 16.6822H15.7607C17.0034 16.6822 18.0107 17.6896 18.0107 18.9322C18.0107 20.1749 17.0034 21.1822 15.7607 21.1822L10.4068 21.1822C9.90657 21.1823 9.40555 21.1824 8.97871 21.1475C8.50606 21.1089 7.93003 21.0166 7.34607 20.719C6.54638 20.3115 5.89621 19.6614 5.48875 18.8617C5.1912 18.2777 5.09886 17.7017 5.06025 17.229C5.02537 16.8022 5.02545 16.3012 5.02552 15.8009L5.02553 10.447C5.02553 9.20439 6.03289 8.19703 7.27553 8.19703C8.51817 8.19703 9.52553 9.20439 9.52553 10.447V12.0794C9.85392 11.7515 10.2088 11.4201 10.5918 11.0892C14.0717 8.08276 19.7218 5.24991 28.5004 5.25C37.2284 5.25009 43.7563 7.90041 48.1169 10.5839C50.292 11.9224 51.9246 13.2668 53.0247 14.2902C53.5752 14.8023 53.9937 15.2353 54.2817 15.549C54.4257 15.7059 54.5372 15.8331 54.6163 15.9256C54.6558 15.9719 54.6873 16.0096 54.7108 16.0379L54.7399 16.0734Z"
  />
  <path
    d="M29.75 18.2501C25.3317 18.2501 21.75 21.8318 21.75 26.2501V53.0001C21.75 54.2427 22.7573 55.2501 24 55.2501C25.2426 55.2501 26.25 54.2427 26.25 53.0001V26.2501C26.25 24.3171 27.817 22.7501 29.75 22.7501C31.683 22.7501 33.25 24.3171 33.25 26.2501V39.73C33.25 41.2253 34.2787 42.5242 35.7343 42.8667L45.1847 45.0903C47.4114 45.6142 48.013 45.7836 48.4471 46.0473C49.2136 46.513 49.7879 47.2381 50.0656 48.0909C50.2229 48.5738 50.25 49.1983 50.25 51.4858V53.0001C50.25 54.2427 51.2573 55.2501 52.5 55.2501C53.7426 55.2501 54.75 54.2427 54.75 53.0001L54.7502 51.1589C54.7516 49.3569 54.7527 47.9509 54.3444 46.6974C53.7334 44.8211 52.47 43.226 50.7836 42.2014C49.6569 41.5169 48.288 41.196 46.5336 40.7846L37.75 38.7181V26.2501C37.75 21.8318 34.1683 18.2501 29.75 18.2501Z"
  />
</svg>
