<svg
  width="60"
  height="60"
  viewBox="0 0 60 60"
  fill="currentColor"
  xmlns="http://www.w3.org/2000/svg"
>
  <path
    d="M9.00297 19.025C8.44011 20.1262 7.09305 20.5666 5.98726 20.0093C4.87762 19.4499 4.43148 18.097 4.9908 16.9873L4.99211 16.9847L4.99354 16.9819L4.99678 16.9755L5.00482 16.9599L5.02715 16.9172C5.04484 16.8838 5.06817 16.8406 5.09734 16.7881C5.15567 16.6833 5.23744 16.5416 5.34418 16.3684C5.55756 16.0222 5.87149 15.5488 6.29851 14.9913C7.15209 13.8769 8.46248 12.42 10.33 10.9721C14.0937 8.05397 20.0228 5.25033 28.7922 5.25024C37.5276 5.25015 43.7594 7.90559 47.8341 10.6296C48.8491 11.3082 49.7271 11.9888 50.4745 12.63V10.4472C50.4745 9.20459 51.4818 8.19723 52.7245 8.19723C53.9671 8.19723 54.9745 9.20459 54.9745 10.4472L54.9745 15.8011C54.9745 16.3014 54.9746 16.8024 54.9397 17.2292C54.9011 17.7019 54.8088 18.2779 54.5112 18.8619C54.1038 19.6616 53.4536 20.3117 52.6539 20.7192C52.07 21.0167 51.4939 21.1091 51.0213 21.1477C50.5944 21.1826 50.0934 21.1825 49.5932 21.1824L44.2393 21.1824C42.9966 21.1824 41.9893 20.1751 41.9893 18.9324C41.9893 17.6898 42.9966 16.6824 44.2393 16.6824H48.2543C47.5123 15.9855 46.5438 15.18 45.3331 14.3706C41.9287 12.0947 36.5566 9.75016 28.7922 9.75025C21.0618 9.75032 16.0948 12.1966 13.0873 14.5284C11.5693 15.7054 10.5253 16.8734 9.87096 17.7277C9.54402 18.1545 9.31558 18.5014 9.17508 18.7294C9.10489 18.8433 9.05683 18.9272 9.02958 18.9762C9.01597 19.0006 9.00757 19.0163 9.00422 19.0227L9.00297 19.025Z"
  />
  <path
    d="M29.75 18.2501C25.3317 18.2501 21.75 21.8318 21.75 26.2501V53.0001C21.75 54.2427 22.7574 55.2501 24 55.2501C25.2426 55.2501 26.25 54.2427 26.25 53.0001V26.2501C26.25 24.3171 27.817 22.7501 29.75 22.7501C31.683 22.7501 33.25 24.3171 33.25 26.2501V39.73C33.25 41.2253 34.2787 42.5241 35.7343 42.8666L45.1847 45.0902C47.4114 45.6142 48.013 45.7836 48.4471 46.0472C49.2136 46.513 49.7879 47.238 50.0657 48.0909C50.2229 48.5738 50.25 49.1982 50.25 51.4858V53.0001C50.25 54.2427 51.2574 55.2501 52.5 55.2501C53.7426 55.2501 54.75 54.2427 54.75 53.0001L54.7502 51.1588C54.7516 49.3568 54.7527 47.9508 54.3445 46.6973C53.7334 44.8211 52.47 43.2259 50.7836 42.2014C49.6569 41.5169 48.288 41.1959 46.5336 40.7846L37.75 38.718V26.2501C37.75 21.8318 34.1683 18.2501 29.75 18.2501Z"
  />
</svg>
