<svg
  width="60"
  height="60"
  viewBox="0 0 60 60"
  fill="currentColor"
  xmlns="http://www.w3.org/2000/svg"
>
  <path
    fill-rule="evenodd"
    clip-rule="evenodd"
    d="M9.99999 4.99293C8.75735 4.99293 7.74999 6.00029 7.74999 7.24293C7.74999 8.48557 8.75735 9.49293 9.99999 9.49293H12.8948C12.3396 10.0931 11.762 10.782 11.186 11.5661C8.3923 15.3695 5.70789 21.3216 5.70776 30.0456C5.70764 38.7697 8.39218 44.7218 11.1861 48.5253C11.6492 49.1556 12.1133 49.7244 12.566 50.2351H9.99999C8.75735 50.2351 7.74999 51.2425 7.74999 52.4851C7.74999 53.7278 8.75735 54.7351 9.99999 54.7351L15.3539 54.7351C15.8541 54.7352 16.3552 54.7353 16.782 54.7004C17.2547 54.6618 17.8307 54.5694 18.4146 54.2719C18.4687 54.2444 18.5221 54.2157 18.5748 54.186C19.1683 54.0409 19.701 53.6561 20.0166 53.0775C20.1228 52.8828 20.1973 52.6792 20.2417 52.4729C20.2519 52.4535 20.262 52.4341 20.272 52.4146C20.5695 51.8306 20.6619 51.2546 20.7005 50.7819C20.7353 50.3551 20.7353 49.8541 20.7352 49.3538L20.7352 43.9999C20.7352 42.8372 19.8533 41.8805 18.7219 41.7622L18.1308 29.7986C18.1886 30.4154 18.3253 31.035 18.5471 31.6443L26.7397 54.1533C27.1647 55.321 28.4559 55.9231 29.6236 55.4981C30.7913 55.0731 31.3933 53.7819 30.9683 52.6142L22.7757 30.1052C22.2281 28.6008 23.0038 26.9373 24.5083 26.3897C26.0128 25.8421 27.6763 26.6178 28.2239 28.1223L32.3523 39.465C32.8476 40.8259 34.214 41.6671 35.6521 41.4967L44.2852 40.4734C45.8106 40.2926 46.2324 40.255 46.5712 40.287C47.7313 40.3963 48.7748 41.0387 49.3947 42.0254C49.5757 42.3135 49.7321 42.707 50.2575 44.1505L50.7212 45.4247C51.1462 46.5924 52.4374 47.1945 53.6051 46.7695C54.7728 46.3445 55.3749 45.0533 54.9499 43.8856L54.4109 42.4047C53.997 41.2655 53.6749 40.3792 53.205 39.6313C51.8411 37.4606 49.5456 36.0473 46.9933 35.8068C46.1139 35.7239 45.1775 35.8354 43.974 35.9787L36.2073 36.8994L32.4525 26.5832C31.0549 22.7433 26.8091 20.7635 22.9692 22.1611C19.9516 23.2594 18.0827 26.1168 18.099 29.1538L17.5365 17.769C17.8248 17.9032 18.1462 17.9781 18.4852 17.9781C19.7278 17.9781 20.7352 16.9708 20.7352 15.7281L20.7352 10.3743C20.7353 9.874 20.7353 9.37296 20.7005 8.94612C20.6619 8.47347 20.5695 7.89744 20.272 7.31347C19.8645 6.51378 19.2143 5.86362 18.4146 5.45616C17.8307 5.15861 17.2547 5.06627 16.782 5.02765C16.3552 4.99278 15.8541 4.99285 15.3539 4.99293L9.99999 4.99293ZM18.1002 29.2544L17.5346 17.7681C16.7671 17.4098 16.2352 16.6311 16.2352 15.7281V12.5089C15.7781 13 15.2963 13.5717 14.8128 14.23C12.565 17.2902 10.2079 22.3153 10.2078 30.0457C10.2077 37.776 12.5649 42.8011 14.8128 45.8612C15.2963 46.5195 15.7781 47.0911 16.2352 47.5823V43.9999C16.2352 42.7573 17.2425 41.7499 18.4852 41.7499C18.5631 41.7499 18.6402 41.7539 18.7161 41.7616L18.122 29.696C18.1102 29.5485 18.103 29.4013 18.1002 29.2544Z"
  />
</svg>
