<svg
  width="60"
  height="60"
  viewBox="0 0 60 60"
  fill="currentColor"
  xmlns="http://www.w3.org/2000/svg"
>
  <path
    fill-rule="evenodd"
    clip-rule="evenodd"
    d="M5.5742 21.4295C4.69551 22.3081 4.69548 23.7327 5.57414 24.6114C6.4528 25.4901 7.87742 25.4902 8.75612 24.6115L9.12334 24.2443L29.8017 44.9227C30.6366 45.7581 31.241 46.3628 31.8598 46.8104C35.1914 49.2203 39.6934 49.2203 43.025 46.8104C43.1385 46.7283 43.2516 46.6409 43.3657 46.5477L49.8407 53.0226C50.7193 53.9013 52.144 53.9013 53.0226 53.0226C53.9013 52.144 53.9013 50.7193 53.0226 49.8407L46.5782 43.3962C46.8334 43.1172 47.054 42.8548 47.2457 42.5897C49.6556 39.2581 49.6556 34.7562 47.2457 31.4245C46.7981 30.8057 46.1934 30.2014 45.358 29.3664L24.6799 8.68838L25.0472 8.32103C25.9259 7.44237 25.926 6.01775 25.0473 5.13905C24.1686 4.26035 22.744 4.26033 21.8653 5.13899L15.3108 11.6933L13.3485 9.73097L14.3303 8.74921C15.2089 7.87053 15.2089 6.44591 14.3303 5.56723C13.4516 4.68855 12.027 4.68855 11.1483 5.56723L8.61526 8.10024C8.60173 8.11313 8.58832 8.12621 8.57504 8.13949C8.56175 8.15278 8.54867 8.16619 8.53579 8.17972L6.00385 10.7117C5.12517 11.5903 5.12517 13.015 6.00385 13.8936C6.88253 14.7723 8.30715 14.7723 9.18583 13.8936L10.1665 12.913L12.1287 14.8752L5.5742 21.4295ZM42.0385 41.6033C41.0082 42.6336 40.6757 42.9559 40.3876 43.1643C38.6299 44.4357 36.2548 44.4357 34.4972 43.1643C34.209 42.9559 33.8766 42.6336 32.8463 41.6033L12.3058 21.0627L21.498 11.8705L28.2228 18.5953L24.409 22.409C23.5303 23.2877 23.5303 24.7123 24.409 25.591C25.2877 26.4697 26.7123 26.4697 27.591 25.591L31.4048 21.7772L36.7228 27.0953L32.409 31.409C31.5303 32.2877 31.5303 33.7123 32.409 34.591C33.2877 35.4697 34.7123 35.4697 35.591 34.591L39.9048 30.2772L42.0385 32.411C43.0688 33.4413 43.3912 33.7738 43.5996 34.0619C44.8709 35.8196 44.8709 38.1947 43.5996 39.9523C43.3912 40.2405 43.0688 40.5729 42.0385 41.6033Z"
  />
</svg>
