<svg
  width="60"
  height="60"
  viewBox="0 0 60 60"
  fill="currentColor"
  xmlns="http://www.w3.org/2000/svg"
>
  <path
    fill-rule="evenodd"
    clip-rule="evenodd"
    d="M20.3037 7.75H39.6963C42.1348 7.74998 44.1017 7.74996 45.6944 7.88009C47.3343 8.01408 48.7747 8.29716 50.1074 8.97618C52.2242 10.0548 53.9452 11.7758 55.0238 13.8926C55.7028 15.2253 55.9859 16.6657 56.1199 18.3056C56.25 19.8983 56.25 21.8651 56.25 24.3035V35.6964C56.25 38.1348 56.25 40.1017 56.1199 41.6944C55.9859 43.3343 55.7028 44.7747 55.0238 46.1074C53.9452 48.2242 52.2242 49.9452 50.1074 51.0238C48.7747 51.7028 47.3343 51.9859 45.6944 52.1199C44.1017 52.25 42.1349 52.25 39.6965 52.25H20.3036C17.8652 52.25 15.8983 52.25 14.3056 52.1199C12.6657 51.9859 11.2253 51.7028 9.89261 51.0238C7.77578 49.9452 6.05475 48.2242 4.97618 46.1074C4.29716 44.7747 4.01408 43.3343 3.88009 41.6944C3.74996 40.1017 3.74998 38.1348 3.75 35.6963V24.3037C3.74998 21.8652 3.74996 19.8983 3.88009 18.3056C4.01408 16.6657 4.29716 15.2253 4.97618 13.8926C6.05475 11.7758 7.77578 10.0548 9.89261 8.97618C11.2253 8.29716 12.6657 8.01408 14.3056 7.88009C15.8983 7.74996 17.8652 7.74998 20.3037 7.75ZM14.672 12.3651C13.3104 12.4764 12.5281 12.6838 11.9356 12.9857C10.6655 13.6329 9.63285 14.6655 8.98571 15.9356C8.68379 16.5281 8.4764 17.3104 8.36515 18.672C8.30052 19.463 8.27216 20.3822 8.25972 21.5H51.7403C51.7278 20.3822 51.6995 19.463 51.6349 18.672C51.5236 17.3104 51.3162 16.5281 51.0143 15.9356C50.3671 14.6655 49.3345 13.6329 48.0644 12.9857C47.4719 12.6838 46.6896 12.4764 45.328 12.3651C43.9401 12.2518 42.1574 12.25 39.6 12.25H20.4C17.8426 12.25 16.0599 12.2518 14.672 12.3651ZM8.25 34.5V26H20V34.5H8.25ZM20 39H8.26663C8.2817 39.8964 8.31042 40.6582 8.36515 41.328C8.4764 42.6896 8.68379 43.4719 8.98571 44.0644C9.63285 45.3345 10.6655 46.3671 11.9356 47.0143C12.5281 47.3162 13.3104 47.5236 14.672 47.6349C15.9864 47.7422 17.6549 47.7495 20 47.75V39ZM24.5 47.75V39H36V47.75H24.5ZM24.5 34.5V26H36V34.5H24.5ZM40.5 34.5V26H51.75V34.5H40.5ZM40.5 39V47.7497C42.5854 47.7479 44.109 47.7344 45.328 47.6349C46.6896 47.5236 47.4719 47.3162 48.0644 47.0143C49.3345 46.3671 50.3671 45.3345 51.0143 44.0644C51.3162 43.4719 51.5236 42.6896 51.6349 41.328C51.6896 40.6582 51.7183 39.8964 51.7334 39H40.5Z"
  />
</svg>
