<svg
  width="60"
  height="60"
  viewBox="0 0 60 60"
  fill="currentColor"
  xmlns="http://www.w3.org/2000/svg"
>
  <path
    fill-rule="evenodd"
    clip-rule="evenodd"
    d="M30 3.75C24.3391 3.75 19.75 8.33908 19.75 14C19.75 16.9224 20.973 19.5591 22.9351 21.4263L12.847 39.9874C12.2573 39.8325 11.6383 39.75 11 39.75C6.99594 39.75 3.75 42.9959 3.75 47C3.75 51.0041 6.99594 54.25 11 54.25C15.0041 54.25 18.25 51.0041 18.25 47C18.25 45.2718 17.6453 43.6849 16.6361 42.4392L26.7991 23.7403C27.1896 23.8685 27.5904 23.974 28 24.055V40.0294C24.9686 40.8975 22.75 43.6897 22.75 47C22.75 51.0041 25.9959 54.25 30 54.25C34.0041 54.25 37.25 51.0041 37.25 47C37.25 43.8745 35.2723 41.211 32.5 40.1926V23.943C32.8927 23.8445 33.2764 23.7235 33.6496 23.5812L43.6932 42.0603C42.4875 43.355 41.75 45.0914 41.75 47C41.75 51.0041 44.9959 54.25 49 54.25C53.0041 54.25 56.25 51.0041 56.25 47C56.25 42.9959 53.0041 39.75 49 39.75C48.5315 39.75 48.0733 39.7944 47.6295 39.8794L37.4119 21.08C39.1701 19.2399 40.25 16.7461 40.25 14C40.25 8.33908 35.6609 3.75 30 3.75ZM24.25 14C24.25 10.8244 26.8244 8.25 30 8.25C33.1756 8.25 35.75 10.8244 35.75 14C35.75 17.1756 33.1756 19.75 30 19.75C26.8244 19.75 24.25 17.1756 24.25 14ZM11 44.25C9.48122 44.25 8.25 45.4812 8.25 47C8.25 48.5188 9.48122 49.75 11 49.75C12.5188 49.75 13.75 48.5188 13.75 47C13.75 45.4812 12.5188 44.25 11 44.25ZM27.25 47C27.25 45.4812 28.4812 44.25 30 44.25C31.5188 44.25 32.75 45.4812 32.75 47C32.75 48.5188 31.5188 49.75 30 49.75C28.4812 49.75 27.25 48.5188 27.25 47ZM49 44.25C47.4812 44.25 46.25 45.4812 46.25 47C46.25 48.5188 47.4812 49.75 49 49.75C50.5188 49.75 51.75 48.5188 51.75 47C51.75 45.4812 50.5188 44.25 49 44.25Z"
  />
</svg>
