<svg
  width="60"
  height="60"
  viewBox="0 0 60 60"
  fill="currentColor"
  xmlns="http://www.w3.org/2000/svg"
>
  <path
    fill-rule="evenodd"
    clip-rule="evenodd"
    d="M30.534 35.2843C34.7838 34.9784 39.2075 32.6909 42.9495 28.9489C49.8114 22.087 51.7826 12.9328 45.6119 6.76216C39.4413 0.591512 30.2871 2.56267 23.4252 9.42456C19.3413 13.5085 16.9897 18.4044 17.0559 23H17.0494C17.0494 28.0391 15.8929 32.6115 13.0054 36.8131L3.4095 46.409C2.53082 47.2877 2.53082 48.7123 3.4095 49.591C4.28818 50.4697 5.7128 50.4697 6.59148 49.591L16.2692 39.9132C20.4744 36.9269 24.8711 35.3986 30.5343 35.2997L30.534 35.2843ZM39.7675 25.7669C36.8512 28.6832 33.6891 30.309 30.9388 30.7157C28.3289 31.1015 25.9529 30.4374 23.9448 28.4293C21.9366 26.4212 21.2725 24.0452 21.6584 21.4353C22.065 18.685 23.6909 15.5228 26.6072 12.6065C29.5235 9.69027 32.6856 8.06439 35.4359 7.65777C38.0458 7.27191 40.4218 7.93601 42.4299 9.94414C44.4381 11.9523 45.1022 14.3282 44.7163 16.9382C44.3097 19.6885 42.6838 22.8506 39.7675 25.7669Z"
  />
  <path
    fill-rule="evenodd"
    clip-rule="evenodd"
    d="M47.0001 50.5C48.9331 50.5 50.5001 48.933 50.5001 47C50.5001 45.067 48.9331 43.5 47.0001 43.5C45.0672 43.5 43.5001 45.067 43.5001 47C43.5001 48.933 45.0672 50.5 47.0001 50.5ZM47.0001 55C51.4184 55 55.0001 51.4183 55.0001 47C55.0001 42.5817 51.4184 39 47.0001 39C42.5819 39 39.0001 42.5817 39.0001 47C39.0001 51.4183 42.5819 55 47.0001 55Z"
  />
</svg>
