<svg
  width="60"
  height="60"
  viewBox="0 0 60 60"
  fill="currentColor"
  xmlns="http://www.w3.org/2000/svg"
>
  <path
    fill-rule="evenodd"
    clip-rule="evenodd"
    d="M9 6.75C7.75736 6.75 6.75 7.75736 6.75 9C6.75 10.2426 7.75736 11.25 9 11.25H51C52.2426 11.25 53.25 10.2426 53.25 9C53.25 7.75736 52.2426 6.75 51 6.75H9ZM9 34.75C7.75736 34.75 6.75 35.7574 6.75 37C6.75 38.2426 7.75736 39.25 9 39.25H51C52.2426 39.25 53.25 38.2426 53.25 37C53.25 35.7574 52.2426 34.75 51 34.75H9ZM6.75 23C6.75 21.7574 7.75736 20.75 9 20.75H34C35.2426 20.75 36.25 21.7574 36.25 23C36.25 24.2426 35.2426 25.25 34 25.25H9C7.75736 25.25 6.75 24.2426 6.75 23ZM9 48.75C7.75736 48.75 6.75 49.7574 6.75 51C6.75 52.2426 7.75736 53.25 9 53.25H34C35.2426 53.25 36.25 52.2426 36.25 51C36.25 49.7574 35.2426 48.75 34 48.75H9Z"
  />
</svg>
