<svg
  width="60"
  height="60"
  viewBox="0 0 60 60"
  fill="currentColor"
  xmlns="http://www.w3.org/2000/svg"
>
  <path
    fill-rule="evenodd"
    clip-rule="evenodd"
    d="M18.2 4.75L18.1066 4.75H18.1066C16.2258 4.74997 14.6785 4.74995 13.4192 4.85284C12.1128 4.95958 10.9193 5.18816 9.80059 5.75819C8.06009 6.64502 6.64502 8.06009 5.75819 9.80059C5.18816 10.9193 4.95958 12.1128 4.85284 13.4192C4.74995 14.6785 4.74997 16.2258 4.75 18.1066V18.1066L4.75 18.2V19C4.75 20.2426 5.75736 21.25 7 21.25C8.24264 21.25 9.25 20.2426 9.25 19V18.2C9.25 16.2027 9.25175 14.84 9.3379 13.7856C9.4219 12.7575 9.5748 12.2222 9.76772 11.8435C10.2231 10.9498 10.9498 10.2231 11.8435 9.76772C12.2222 9.5748 12.7575 9.4219 13.7856 9.3379C14.84 9.25175 16.2027 9.25 18.2 9.25H19C20.2426 9.25 21.25 8.24264 21.25 7C21.25 5.75736 20.2426 4.75 19 4.75H18.2ZM41.8 9.25C43.7973 9.25 45.16 9.25175 46.2144 9.3379C47.2425 9.4219 47.7778 9.5748 48.1565 9.76772C49.0502 10.2231 49.7769 10.9498 50.2323 11.8435C50.4252 12.2222 50.5781 12.7575 50.6621 13.7856C50.7483 14.84 50.75 16.2027 50.75 18.2V19C50.75 20.2426 51.7574 21.25 53 21.25C54.2426 21.25 55.25 20.2426 55.25 19V18.2V18.1066C55.25 16.2258 55.2501 14.6785 55.1472 13.4192C55.0404 12.1128 54.8118 10.9193 54.2418 9.80059C53.355 8.06009 51.9399 6.64502 50.1994 5.75819C49.0807 5.18816 47.8872 4.95958 46.5808 4.85284C45.3215 4.74995 43.7742 4.74997 41.8934 4.75H41.8934L41.8 4.75H41C39.7574 4.75 38.75 5.75736 38.75 7C38.75 8.24264 39.7574 9.25 41 9.25H41.8ZM9.25 41C9.25 39.7574 8.24264 38.75 7 38.75C5.75736 38.75 4.75 39.7574 4.75 41V41.8L4.75 41.8934V41.8934C4.74997 43.7742 4.74995 45.3215 4.85284 46.5808C4.95958 47.8872 5.18816 49.0807 5.75819 50.1994C6.64502 51.9399 8.06009 53.355 9.80059 54.2418C10.9193 54.8118 12.1128 55.0404 13.4192 55.1472C14.6785 55.2501 16.2258 55.25 18.1066 55.25H18.2H19C20.2426 55.25 21.25 54.2426 21.25 53C21.25 51.7574 20.2426 50.75 19 50.75H18.2C16.2027 50.75 14.84 50.7483 13.7856 50.6621C12.7575 50.5781 12.2222 50.4252 11.8435 50.2323C10.9498 49.7769 10.2231 49.0502 9.76772 48.1565C9.5748 47.7778 9.4219 47.2425 9.3379 46.2144C9.25175 45.16 9.25 43.7973 9.25 41.8V41ZM55.25 41C55.25 39.7574 54.2426 38.75 53 38.75C51.7574 38.75 50.75 39.7574 50.75 41V41.8C50.75 43.7973 50.7483 45.16 50.6621 46.2144C50.5781 47.2425 50.4252 47.7778 50.2323 48.1565C49.7769 49.0502 49.0502 49.7769 48.1565 50.2323C47.7778 50.4252 47.2425 50.5781 46.2144 50.6621C45.16 50.7483 43.7973 50.75 41.8 50.75H41C39.7574 50.75 38.75 51.7574 38.75 53C38.75 54.2426 39.7574 55.25 41 55.25H41.8H41.8935C43.7742 55.25 45.3215 55.2501 46.5808 55.1472C47.8872 55.0404 49.0807 54.8118 50.1994 54.2418C51.9399 53.355 53.355 51.9399 54.2418 50.1994C54.8118 49.0807 55.0404 47.8872 55.1472 46.5808C55.2501 45.3215 55.25 43.7742 55.25 41.8935V41.8V41ZM25.0513 31.0833L30 21.0759L34.9487 31.0833H25.0513ZM22.8015 35.5833H37.1985L39.9991 41.029C40.5674 42.1341 41.924 42.5692 43.029 42.0009C44.1341 41.4326 44.5692 40.076 44.0009 38.971L40.5805 32.3201L33.8097 18.628C32.2496 15.4732 27.7504 15.4732 26.1904 18.628L19.4195 32.3201L15.9991 38.971C15.4308 40.076 15.8659 41.4326 16.971 42.0009C18.076 42.5692 19.4326 42.1341 20.0009 41.029L22.8015 35.5833Z"
  />
</svg>
