<svg
  width="60"
  height="60"
  viewBox="0 0 60 60"
  fill="currentColor"
  xmlns="http://www.w3.org/2000/svg"
>
  <path
    fill-rule="evenodd"
    clip-rule="evenodd"
    d="M15 5.75C11.5482 5.75 8.75 8.54822 8.75 12V29V48C8.75 51.4518 11.5482 54.25 15 54.25H39.5C47.0939 54.25 53.25 48.0939 53.25 40.5C53.25 34.3502 49.2127 29.1434 43.6439 27.3854C45.8757 25.0892 47.25 21.9551 47.25 18.5C47.25 11.4584 41.5416 5.75 34.5 5.75H15ZM34.5 26.75C39.0563 26.75 42.75 23.0563 42.75 18.5C42.75 13.9437 39.0563 10.25 34.5 10.25H15C14.0335 10.25 13.25 11.0335 13.25 12V26.75H34.5ZM13.25 31.25V48C13.25 48.9665 14.0335 49.75 15 49.75H39.5C44.6086 49.75 48.75 45.6086 48.75 40.5C48.75 35.3914 44.6086 31.25 39.5 31.25H34.5H13.25Z"
  />
</svg>
