<svg
  width="60"
  height="60"
  viewBox="0 0 60 60"
  fill="currentColor"
  xmlns="http://www.w3.org/2000/svg"
>
  <path
    fill-rule="evenodd"
    clip-rule="evenodd"
    d="M20 13.076L15.7655 21.6389H24.2344L20 13.076ZM26.4842 26.1389H13.5158L11.0009 31.0291C10.4326 32.1341 9.07602 32.5693 7.97096 32.0009C6.86589 31.4326 6.43077 30.0761 6.99908 28.971L10.1338 22.8757L16.1903 10.6281C17.7504 7.47326 22.2496 7.47326 23.8096 10.6281L29.8662 22.8757L33.0009 28.971C33.5692 30.0761 33.1341 31.4326 32.029 32.0009C30.9239 32.5693 29.5674 32.1341 28.9991 31.0291L26.4842 26.1389Z"
  />
  <path
    fill-rule="evenodd"
    clip-rule="evenodd"
    d="M6.74998 39C6.74998 37.7574 7.75734 36.75 8.99998 36.75H51C52.2426 36.75 53.25 37.7574 53.25 39C53.25 40.2427 52.2426 41.25 51 41.25H8.99998C7.75734 41.25 6.74998 40.2427 6.74998 39Z"
  />
  <path
    fill-rule="evenodd"
    clip-rule="evenodd"
    d="M22.75 51C22.75 49.7574 23.7573 48.75 25 48.75H50C51.2426 48.75 52.25 49.7574 52.25 51C52.25 52.2427 51.2426 53.25 50 53.25H25C23.7573 53.25 22.75 52.2427 22.75 51Z"
  />
</svg>
