<svg
  width="60"
  height="60"
  viewBox="0 0 60 60"
  fill="currentColor"
  xmlns="http://www.w3.org/2000/svg"
>
  <path
    fill-rule="evenodd"
    clip-rule="evenodd"
    d="M23.953 56.25H12C10.7574 56.25 9.75 55.2426 9.75 54C9.75 52.7573 10.7574 51.75 12 51.75H22.2433L33.1183 8.24998H24C22.7574 8.24998 21.75 7.24262 21.75 5.99998C21.75 4.75734 22.7574 3.74998 24 3.74998H35.9496C35.982 3.74928 36.0144 3.74927 36.047 3.74998H48C49.2426 3.74998 50.25 4.75734 50.25 5.99998C50.25 7.24262 49.2426 8.24998 48 8.24998H37.7567L26.8817 51.75H36C37.2426 51.75 38.25 52.7573 38.25 54C38.25 55.2426 37.2426 56.25 36 56.25H24.0504C24.018 56.2507 23.9856 56.2507 23.953 56.25Z"
  />
</svg>
