<svg
  width="60"
  height="60"
  viewBox="0 0 60 60"
  fill="currentColor"
  xmlns="http://www.w3.org/2000/svg"
>
  <path
    fill-rule="evenodd"
    clip-rule="evenodd"
    d="M9 6.75C7.75736 6.75 6.75 7.75736 6.75 9C6.75 10.2426 7.75736 11.25 9 11.25H51C52.2426 11.25 53.25 10.2426 53.25 9C53.25 7.75736 52.2426 6.75 51 6.75H9ZM9 34.75C7.75736 34.75 6.75 35.7574 6.75 37C6.75 38.2426 7.75736 39.25 9 39.25H51C52.2426 39.25 53.25 38.2426 53.25 37C53.25 35.7574 52.2426 34.75 51 34.75H9ZM23.75 23C23.75 21.7574 24.7574 20.75 26 20.75H51C52.2426 20.75 53.25 21.7574 53.25 23C53.25 24.2426 52.2426 25.25 51 25.25H26C24.7574 25.25 23.75 24.2426 23.75 23ZM26 48.75C24.7574 48.75 23.75 49.7574 23.75 51C23.75 52.2426 24.7574 53.25 26 53.25H51C52.2426 53.25 53.25 52.2426 53.25 51C53.25 49.7574 52.2426 48.75 51 48.75H26Z"
  />
</svg>
