<svg
  width="60"
  height="60"
  viewBox="0 0 60 60"
  fill="currentColor"
  xmlns="http://www.w3.org/2000/svg"
>
  <path
    fill-rule="evenodd"
    clip-rule="evenodd"
    d="M42.9535 2.75C37.3183 2.75 32.75 7.31826 32.75 12.9535C32.75 18.5887 37.3183 23.157 42.9535 23.157C44.9565 23.157 46.8246 22.5798 48.4008 21.5828L52.409 25.591C53.2877 26.4697 54.7123 26.4697 55.591 25.591C56.4697 24.7123 56.4697 23.2877 55.591 22.409L51.5828 18.4008C52.5798 16.8246 53.157 14.9565 53.157 12.9535C53.157 7.31826 48.5887 2.75 42.9535 2.75ZM37.25 12.9535C37.25 9.80354 39.8035 7.25 42.9535 7.25C46.1034 7.25 48.657 9.80354 48.657 12.9535C48.657 16.1034 46.1034 18.657 42.9535 18.657C39.8035 18.657 37.25 16.1034 37.25 12.9535Z"
  />
  <path
    d="M44.6944 55.1199C43.1017 55.25 41.1348 55.25 38.6963 55.25H21.3037C18.8652 55.25 16.8983 55.25 15.3056 55.1199C13.6657 54.9859 12.2253 54.7028 10.8926 54.0238C8.77579 52.9452 7.05475 51.2242 5.97618 49.1074C5.29716 47.7747 5.01408 46.3343 4.88009 44.6944C4.74996 43.1017 4.74998 41.1349 4.75 38.6964V21.3037C4.74998 18.8652 4.74996 16.8983 4.88009 15.3056C5.01408 13.6657 5.29716 12.2253 5.97618 10.8926C7.05475 8.77578 8.77579 7.05475 10.8926 5.97618C12.2253 5.29715 13.6657 5.01408 15.3056 4.88009C16.8983 4.74996 18.8651 4.74998 21.3035 4.75H30C31.2426 4.75 32.25 5.75736 32.25 7C32.25 8.24264 31.2426 9.25 30 9.25H21.4C18.8426 9.25 17.0599 9.25175 15.672 9.36515C14.3104 9.47639 13.5281 9.68379 12.9356 9.98571C11.6655 10.6329 10.6329 11.6655 9.98571 12.9356C9.68379 13.5281 9.4764 14.3104 9.36515 15.672C9.25175 17.0599 9.25 18.8426 9.25 21.4V38.6C9.25 41.1574 9.25175 42.9401 9.36515 44.328C9.4764 45.6896 9.68379 46.4719 9.98571 47.0644C10.6329 48.3345 11.6655 49.3671 12.9356 50.0143C13.5281 50.3162 14.3104 50.5236 15.672 50.6349C17.0599 50.7482 18.8426 50.75 21.4 50.75H38.6C41.1574 50.75 42.9401 50.7482 44.328 50.6349C45.6896 50.5236 46.4719 50.3162 47.0644 50.0143C48.3345 49.3671 49.3671 48.3345 50.0143 47.0644C50.3162 46.4719 50.5236 45.6896 50.6349 44.328C50.7482 42.9401 50.75 41.1574 50.75 38.6V30C50.75 28.7574 51.7574 27.75 53 27.75C54.2426 27.75 55.25 28.7574 55.25 30V38.6964C55.25 41.1348 55.25 43.1017 55.1199 44.6944C54.9859 46.3343 54.7028 47.7747 54.0238 49.1074C52.9452 51.2242 51.2242 52.9452 49.1074 54.0238C47.7747 54.7028 46.3343 54.9859 44.6944 55.1199Z"
  />
  <path
    d="M18 39.25C16.7574 39.25 15.75 38.2426 15.75 37C15.75 35.7574 16.7574 34.75 18 34.75H42C43.2426 34.75 44.25 35.7574 44.25 37C44.25 38.2426 43.2426 39.25 42 39.25H18Z"
  />
  <path
    d="M15.75 23C15.75 21.7574 16.7574 20.75 18 20.75H30C31.2426 20.75 32.25 21.7574 32.25 23C32.25 24.2426 31.2426 25.25 30 25.25H18C16.7574 25.25 15.75 24.2426 15.75 23Z"
  />
</svg>
