<svg
  width="60"
  height="60"
  viewBox="0 0 60 60"
  fill="currentColor"
  xmlns="http://www.w3.org/2000/svg"
>
  <path
    d="M9 6.75C7.75736 6.75 6.75 7.75736 6.75 9C6.75 10.2426 7.75736 11.25 9 11.25H51C52.2426 11.25 53.25 10.2426 53.25 9C53.25 7.75736 52.2426 6.75 51 6.75H9Z"
  />
  <path
    d="M9 36.75C7.75736 36.75 6.75 37.7574 6.75 39C6.75 40.2426 7.75736 41.25 9 41.25H51C52.2426 41.25 53.25 40.2426 53.25 39C53.25 37.7574 52.2426 36.75 51 36.75H9Z"
  />
  <path
    d="M6.75 21C6.75 19.7574 7.75736 18.75 9 18.75H12C13.2426 18.75 14.25 19.7574 14.25 21C14.25 22.2426 13.2426 23.25 12 23.25H9C7.75736 23.25 6.75 22.2426 6.75 21Z"
  />
  <path
    d="M9 48.75C7.75736 48.75 6.75 49.7574 6.75 51C6.75 52.2426 7.75736 53.25 9 53.25H12C13.2426 53.25 14.25 52.2426 14.25 51C14.25 49.7574 13.2426 48.75 12 48.75H9Z"
  />
  <path
    d="M17.75 21C17.75 19.7574 18.7574 18.75 20 18.75H23C24.2426 18.75 25.25 19.7574 25.25 21C25.25 22.2426 24.2426 23.25 23 23.25H20C18.7574 23.25 17.75 22.2426 17.75 21Z"
  />
  <path
    d="M20 48.75C18.7574 48.75 17.75 49.7574 17.75 51C17.75 52.2426 18.7574 53.25 20 53.25H23C24.2426 53.25 25.25 52.2426 25.25 51C25.25 49.7574 24.2426 48.75 23 48.75H20Z"
  />
  <path
    d="M28.75 21C28.75 19.7574 29.7574 18.75 31 18.75H34C35.2426 18.75 36.25 19.7574 36.25 21C36.25 22.2426 35.2426 23.25 34 23.25H31C29.7574 23.25 28.75 22.2426 28.75 21Z"
  />
  <path
    d="M31 48.75C29.7574 48.75 28.75 49.7574 28.75 51C28.75 52.2426 29.7574 53.25 31 53.25H34C35.2426 53.25 36.25 52.2426 36.25 51C36.25 49.7574 35.2426 48.75 34 48.75H31Z"
  />
</svg>
