	<svg
			xmlns="http://www.w3.org/2000/svg"
			width="95"
			height="24"
			viewBox="0 0 95 24"
			fill="none"
		>
			<path
				d="M83.7264 21.3161H83.2635C82.9435 21.2932 82.7035 21.1904 82.5435 21.0075C82.3835 20.8361 82.3035 20.6075 82.3035 20.3218C82.3035 19.7504 82.4978 19.4932 82.8864 19.5504C83.0007 19.5618 83.1092 19.5675 83.2121 19.5675C83.315 19.5789 83.4178 19.5847 83.5207 19.5847C83.8292 19.5847 84.0578 19.5504 84.2064 19.4818C84.3664 19.4132 84.4921 19.2989 84.5835 19.1389C84.675 18.9789 84.7778 18.7618 84.8921 18.4875L85.115 17.8875L82.3207 10.8247C82.1835 10.4589 82.1664 10.1732 82.2692 9.96751C82.3721 9.76179 82.5721 9.65894 82.8693 9.65894H82.9892C83.5721 9.65894 83.955 9.92751 84.1378 10.4647L85.955 15.5732L87.6521 10.4818C87.8464 9.93322 88.2292 9.65894 88.8007 9.65894C89.1321 9.65894 89.3607 9.76179 89.4864 9.96751C89.6121 10.1732 89.6121 10.4589 89.4864 10.8247L86.5378 19.0532C86.2635 19.8075 85.9264 20.3732 85.5264 20.7504C85.1378 21.1275 84.5378 21.3161 83.7264 21.3161Z"
				fill="#3182FF"
			/>
			<path
				d="M77.8614 17.9048C77.2099 17.9048 76.8842 17.5677 76.8842 16.8934V11.322H76.3356C75.6614 11.322 75.3242 11.042 75.3242 10.482C75.3242 9.93341 75.5585 9.65912 76.0271 9.65912H76.8842V8.18484C76.8842 7.16769 77.1185 6.46484 77.5871 6.07626C78.0556 5.68769 78.7242 5.49341 79.5928 5.49341C80.0271 5.49341 80.3871 5.55055 80.6728 5.66484C80.9699 5.76769 81.1128 6.00769 81.1014 6.38484C81.1014 6.62484 81.0499 6.82484 80.9471 6.98484C80.8442 7.14484 80.6328 7.22484 80.3128 7.22484C80.2442 7.22484 80.1642 7.21912 80.0728 7.20769C79.9814 7.19627 79.9014 7.19055 79.8328 7.19055C79.1471 7.19055 78.8042 7.60198 78.8042 8.42484V9.65912H80.0899C80.7642 9.65912 81.1014 9.93341 81.1014 10.482C81.1014 11.042 80.7699 11.322 80.1071 11.322H78.8042V16.8934C78.8042 17.5677 78.4899 17.9048 77.8614 17.9048Z"
				fill="#3182FF"
			/>
			<path
				d="M72.3983 17.9049C71.7583 17.9049 71.4383 17.5677 71.4383 16.8935V10.6706C71.4383 9.99632 71.7583 9.65918 72.3983 9.65918C73.0383 9.65918 73.3583 9.99632 73.3583 10.6706V16.8935C73.3583 17.5677 73.0383 17.9049 72.3983 17.9049ZM72.3812 8.30489C72.0498 8.30489 71.7641 8.18489 71.5241 7.94489C71.2841 7.70489 71.1641 7.41918 71.1641 7.08775C71.1641 6.75632 71.2841 6.47061 71.5241 6.2306C71.7641 5.99061 72.0498 5.87061 72.3812 5.87061C72.7126 5.87061 72.9983 5.99061 73.2383 6.2306C73.4783 6.47061 73.5983 6.75632 73.5983 7.08775C73.5983 7.41918 73.4783 7.70489 73.2383 7.94489C72.9983 8.18489 72.7126 8.30489 72.3812 8.30489Z"
				fill="#3182FF"
			/>
			<path
				d="M62.691 17.9047C62.0396 17.9047 61.7139 17.5676 61.7139 16.8933V6.69331C61.7139 6.01903 62.0396 5.68188 62.691 5.68188C63.331 5.68188 63.651 6.01903 63.651 6.69331V10.6362C63.8339 10.3162 64.1082 10.0419 64.4739 9.81331C64.8396 9.57331 65.2796 9.45331 65.7939 9.45331C66.651 9.45331 67.3482 9.7276 67.8853 10.2762C68.4339 10.8247 68.7082 11.6305 68.7082 12.6933V16.8933C68.7082 17.5676 68.3882 17.9047 67.7482 17.9047C67.0967 17.9047 66.771 17.5676 66.771 16.8933V13.1562C66.771 12.5047 66.6396 12.019 66.3767 11.699C66.1139 11.3676 65.7596 11.2019 65.3139 11.2019C64.8224 11.2019 64.4224 11.3733 64.1139 11.7162C63.8053 12.0476 63.651 12.5447 63.651 13.2076V16.8933C63.651 17.5676 63.331 17.9047 62.691 17.9047Z"
				fill="currentColor"
			/>
			<path
				d="M56.4986 18.0934C55.7443 18.0934 55.0643 17.9162 54.4586 17.5619C53.8643 17.1962 53.3901 16.6934 53.0358 16.0534C52.6929 15.4019 52.5215 14.6419 52.5215 13.7734C52.5215 12.9048 52.6929 12.1505 53.0358 11.5105C53.3901 10.8591 53.8643 10.3562 54.4586 10.0019C55.0643 9.63623 55.7443 9.45337 56.4986 9.45337C57.4815 9.45337 58.3043 9.72766 58.9672 10.2762C59.2415 10.4819 59.3615 10.7105 59.3272 10.9619C59.3043 11.2134 59.1729 11.4305 58.9329 11.6134C58.6815 11.7848 58.4643 11.8591 58.2815 11.8362C58.1101 11.8134 57.8815 11.7105 57.5958 11.5277C57.2758 11.3105 56.9101 11.2019 56.4986 11.2019C55.9043 11.2019 55.4186 11.4248 55.0415 11.8705C54.6643 12.3162 54.4758 12.9505 54.4758 13.7734C54.4758 14.5962 54.6643 15.2305 55.0415 15.6762C55.4186 16.1219 55.9043 16.3448 56.4986 16.3448C56.9215 16.3448 57.2758 16.2419 57.5615 16.0362C57.8243 15.8762 58.0529 15.7734 58.2472 15.7277C58.4529 15.6705 58.6758 15.7334 58.9158 15.9162C59.1672 16.0991 59.3101 16.3162 59.3443 16.5677C59.3786 16.8077 59.2643 17.0305 59.0015 17.2362C58.3043 17.8077 57.4701 18.0934 56.4986 18.0934Z"
				fill="currentColor"
			/>
			<path
				d="M49.3886 18.0934C48.5772 18.0934 47.9543 17.9448 47.52 17.6477C47.0972 17.3505 46.8857 16.7562 46.8857 15.8648V11.322H46.32C45.6457 11.322 45.3086 11.042 45.3086 10.482C45.3086 10.2191 45.3772 10.0191 45.5143 9.88196C45.6629 9.73339 45.9257 9.65911 46.3029 9.65911H46.8857V7.77339C46.8857 7.09911 47.2114 6.76196 47.8629 6.76196C48.4914 6.76196 48.8057 7.09911 48.8057 7.77339V9.65911H50.0743C50.7486 9.65911 51.0857 9.93339 51.0857 10.482C51.0857 11.042 50.7543 11.322 50.0914 11.322H48.8057V15.3677C48.8057 15.7562 48.8972 16.0191 49.08 16.1562C49.2743 16.2934 49.5486 16.362 49.9029 16.362C50.2686 16.362 50.5543 16.4077 50.76 16.4991C50.9772 16.5791 51.0857 16.7962 51.0857 17.1505C51.0857 17.4362 51 17.6477 50.8286 17.7848C50.6686 17.9105 50.4572 17.9905 50.1943 18.0248C49.9429 18.0705 49.6743 18.0934 49.3886 18.0934Z"
				fill="currentColor"
			/>
			<path
				d="M39.7385 18.0248C38.8471 18.0591 38.1099 17.8648 37.5271 17.4419C36.9556 17.0191 36.6699 16.4077 36.6699 15.6077C36.6699 15.0248 36.8471 14.5277 37.2014 14.1162C37.5556 13.7048 38.0128 13.3848 38.5728 13.1562C39.1328 12.9162 39.7099 12.7905 40.3042 12.7791C40.6014 12.7562 40.8814 12.7791 41.1442 12.8477C41.4071 12.9162 41.6414 13.0134 41.8471 13.1391V12.4191C41.8471 11.8819 41.7328 11.5334 41.5042 11.3734C41.2756 11.2134 40.9385 11.1334 40.4928 11.1334C40.1728 11.1334 39.8356 11.1734 39.4814 11.2534C39.1385 11.3334 38.8014 11.4419 38.4699 11.5791C38.1728 11.7048 37.9156 11.7505 37.6985 11.7162C37.4928 11.6819 37.3214 11.5448 37.1842 11.3048C37.0471 11.0648 37.0128 10.8362 37.0814 10.6191C37.1614 10.3905 37.3556 10.2134 37.6642 10.0877C38.0756 9.89337 38.5214 9.73908 39.0014 9.6248C39.4928 9.51051 39.9899 9.45337 40.4928 9.45337C41.5556 9.45337 42.3556 9.67051 42.8928 10.1048C43.4299 10.5277 43.6985 11.2991 43.6985 12.4191V16.2077C43.6985 16.3219 43.7099 16.4134 43.7328 16.4819C43.7671 16.5505 43.7956 16.6019 43.8185 16.6362C43.9214 16.7848 44.0299 16.8705 44.1442 16.8934C44.2699 16.9162 44.3785 16.9334 44.4699 16.9448C44.5614 16.9448 44.6071 16.9962 44.6071 17.0991C44.6071 17.3048 44.5499 17.4819 44.4356 17.6305C44.3328 17.7791 44.1556 17.8819 43.9042 17.9391C43.6414 17.9962 43.3842 18.0248 43.1328 18.0248C42.7785 18.0248 42.5042 17.9677 42.3099 17.8534C42.1271 17.7277 41.9956 17.5219 41.9156 17.2362C41.6299 17.4762 41.2985 17.6648 40.9214 17.8019C40.5442 17.9277 40.1499 18.0019 39.7385 18.0248ZM39.7042 16.3448C40.3442 16.3219 40.8699 16.1962 41.2814 15.9677C41.7042 15.7391 41.9042 15.4134 41.8814 14.9905C41.8699 14.7162 41.7271 14.5277 41.4528 14.4248C41.1899 14.3219 40.8585 14.2819 40.4585 14.3048C39.8985 14.3162 39.4356 14.4591 39.0699 14.7334C38.7042 14.9962 38.5271 15.2934 38.5385 15.6248C38.5614 16.1391 38.9499 16.3791 39.7042 16.3448Z"
				fill="currentColor"
			/>
			<path
				d="M25.9487 17.9048C25.3201 17.9048 25.0059 17.5905 25.0059 16.9619V6.84764C25.0059 6.21907 25.3201 5.90479 25.9487 5.90479H26.0344C26.663 5.90479 26.9773 6.21907 26.9773 6.84764V10.6705H32.4287V6.84764C32.4287 6.21907 32.7487 5.90479 33.3887 5.90479H33.4916C34.1201 5.90479 34.4344 6.21907 34.4344 6.84764V16.9619C34.4344 17.5905 34.1201 17.9048 33.4916 17.9048H33.3887C32.7487 17.9048 32.4287 17.5905 32.4287 16.9619V12.5048H26.9773V16.9619C26.9773 17.5905 26.663 17.9048 26.0344 17.9048H25.9487Z"
				fill="currentColor"
			/>
			<path
				d="M4.92004 11.9999C4.92008 8.23807 7.96962 5.18853 11.7314 5.1885C12.6271 5.1885 13.3532 5.91459 13.3532 6.81027C13.3532 7.70595 12.6271 8.43204 11.7314 8.43204C9.76098 8.43208 8.16362 10.0294 8.16359 11.9999C8.16359 13.9704 9.76096 15.5678 11.7314 15.5679C12.6271 15.5679 13.3532 16.294 13.3532 17.1896C13.3532 18.0853 12.6271 18.8114 11.7314 18.8114C7.9696 18.8114 4.92004 15.7617 4.92004 11.9999Z"
				fill="#3182FF"
			/>
			<path
				d="M13.3533 11.9999C13.3533 12.8956 12.6272 13.6217 11.7315 13.6217C10.8358 13.6217 10.1097 12.8956 10.1097 11.9999C10.1097 11.1043 10.8358 10.3782 11.7315 10.3782C12.6272 10.3782 13.3533 11.1043 13.3533 11.9999Z"
				fill="#3182FF"
			/>
			<path
				d="M19.0835 11.9999C19.0835 12.8956 18.3575 13.6217 17.4618 13.6217C16.5661 13.6217 15.84 12.8956 15.84 11.9999C15.84 11.1043 16.5661 10.3782 17.4618 10.3782C18.3575 10.3782 19.0835 11.1043 19.0835 11.9999Z"
				fill="#3182FF"
			/>
			<path
				d="M19.0835 6.16157C19.0835 7.05725 18.3575 7.78334 17.4618 7.78334C16.5661 7.78334 15.84 7.05725 15.84 6.16157C15.84 5.26589 16.5661 4.53979 17.4618 4.53979C18.3575 4.53979 19.0835 5.26589 19.0835 6.16157Z"
				fill="#3182FF"
			/>
			<path
				d="M19.0835 17.8383C19.0835 18.734 18.3575 19.4601 17.4618 19.4601C16.5661 19.4601 15.84 18.734 15.84 17.8383C15.84 16.9426 16.5661 16.2165 17.4618 16.2165C18.3575 16.2165 19.0835 16.9426 19.0835 17.8383Z"
				fill="#3182FF"
			/>
			<path
				d="M16.2685 10.9006C16.0025 11.1895 15.8401 11.5752 15.8401 11.9988C15.8401 12.4236 16.0034 12.8102 16.2707 13.0993C15.8233 12.6668 15.2141 12.4005 14.5427 12.4005C13.8712 12.4005 13.2619 12.6667 12.8145 13.0993C13.0818 12.8101 13.2453 12.4236 13.2453 11.9988C13.2453 11.5751 13.0827 11.1895 12.8167 10.9006C13.2639 11.3319 13.8723 11.5972 14.5427 11.5972C15.213 11.5972 15.8213 11.3319 16.2685 10.9006Z"
				fill="#3182FF"
			/>
			<path
				d="M18.5611 10.8069C18.2723 10.5409 17.8866 10.3785 17.463 10.3785C17.0382 10.3785 16.6516 10.5419 16.3625 10.8091C16.795 10.3617 17.0612 9.75255 17.0612 9.08112C17.0612 8.40965 16.795 7.80035 16.3625 7.35292C16.6516 7.62021 17.0381 7.78371 17.463 7.78371C17.8866 7.78371 18.2723 7.62114 18.5611 7.35514C18.1298 7.80236 17.8645 8.41075 17.8645 9.08112C17.8645 9.75145 18.1299 10.3597 18.5611 10.8069Z"
				fill="#3182FF"
			/>
			<path
				d="M18.5611 16.6482C18.2723 16.3823 17.8866 16.2199 17.463 16.2199C17.0382 16.2199 16.6516 16.3832 16.3625 16.6505C16.795 16.203 17.0612 15.5939 17.0612 14.9225C17.0612 14.251 16.795 13.6417 16.3625 13.1943C16.6516 13.4616 17.0381 13.625 17.463 13.625C17.8866 13.625 18.2723 13.4625 18.5611 13.1965C18.1298 13.6437 17.8645 14.2521 17.8645 14.9225C17.8645 15.5928 18.1299 16.201 18.5611 16.6482Z"
				fill="#3182FF"
			/>
		</svg>
