<svg
  width="60"
  height="60"
  viewBox="0 0 60 60"
  fill="currentColor"
  xmlns="http://www.w3.org/2000/svg"
>
  <path
    fill-rule="evenodd"
    clip-rule="evenodd"
    d="M30.0001 2.75C24.5484 2.75 19.3746 5.15841 15.5998 9.3527C11.832 13.5392 9.75012 19.171 9.75012 25C9.75012 27.9316 10.2762 30.8087 11.2757 33.4761L5.33439 37.0758C4.31528 37.6933 3.95428 38.9982 4.51116 40.0517L13.0877 56.2761C13.6649 57.368 15.0144 57.7905 16.1112 57.2228L30.25 49.9045L44.3888 57.2228C45.4856 57.7905 46.8351 57.368 47.4123 56.2761L55.9888 40.0517C56.5457 38.9982 56.1847 37.6933 55.1656 37.0758L49.2243 33.4761C50.2238 30.8087 50.7499 27.9316 50.7499 25C50.7499 19.171 48.668 13.5392 44.9002 9.3527C41.1254 5.15841 35.9516 2.75 30.4999 2.75C30.416 2.75 30.3326 2.75469 30.25 2.76391C30.1674 2.75469 30.084 2.75 30.0001 2.75ZM18.9446 12.363C21.3719 9.66604 24.4686 7.96747 27.7501 7.4325L27.7501 44.9961L27.7504 45.0324L27.7504 46.1312L16.0236 52.2011L9.48128 39.8248L15.2737 36.3153C16.2633 35.7157 16.6368 34.4633 16.1373 33.4196C14.9128 30.8612 14.2501 27.973 14.2501 25C14.2501 20.2204 15.9611 15.678 18.9446 12.363ZM41.5554 12.363C39.1281 9.66604 36.0314 7.96747 32.7499 7.4325L32.7499 44.9961L32.7496 45.0324L32.7496 46.1312L44.4764 52.2011L51.0187 39.8248L45.2263 36.3153C44.2367 35.7157 43.8632 34.4633 44.3627 33.4196C45.5872 30.8612 46.2499 27.973 46.2499 25C46.2499 20.2204 44.5389 15.678 41.5554 12.363Z"
  />
</svg>
