<svg
  width="60"
  height="60"
  viewBox="0 0 60 60"
  fill="currentColor"
  xmlns="http://www.w3.org/2000/svg"
>
  <path
    fill-rule="evenodd"
    clip-rule="evenodd"
    d="M34.4167 12.75C34.4167 8.30131 38.0663 4.75 42.5 4.75C46.9337 4.75 50.5833 8.30131 50.5833 12.75V32.9056C53.4235 35.2094 55.25 38.7139 55.25 42.65C55.25 49.6392 49.511 55.25 42.5 55.25C35.489 55.25 29.75 49.6392 29.75 42.65C29.75 38.7139 31.5765 35.2094 34.4167 32.9056V12.75ZM42.5 9.25C40.4903 9.25 38.9167 10.8474 38.9167 12.75V34.0429C38.9167 34.799 38.5369 35.5045 37.9058 35.9209C35.6882 37.3841 34.25 39.8583 34.25 42.65C34.25 47.0931 37.913 50.75 42.5 50.75C47.087 50.75 50.75 47.0931 50.75 42.65C50.75 39.8583 49.3118 37.3841 47.0942 35.9209C46.4631 35.5045 46.0833 34.799 46.0833 34.0429V12.75C46.0833 10.8474 44.5097 9.25 42.5 9.25Z"
  />
  <path
    fill-rule="evenodd"
    clip-rule="evenodd"
    d="M30 24.0455C25.6068 24.0455 22.0455 27.6068 22.0455 32C22.0455 34.9417 23.6413 37.5132 26.0242 38.8916C27.0021 39.4573 27.3362 40.7085 26.7706 41.6864C26.2049 42.6642 24.9536 42.9984 23.9758 42.4327C20.3807 40.3531 17.9545 36.4611 17.9545 32C17.9545 25.3475 23.3475 19.9545 30 19.9545C31.1297 19.9545 32.0455 20.8703 32.0455 22C32.0455 23.1297 31.1297 24.0455 30 24.0455Z"
  />
  <path
    fill-rule="evenodd"
    clip-rule="evenodd"
    d="M4.75 32C4.75 30.7574 5.75736 29.75 7 29.75H12C13.2426 29.75 14.25 30.7574 14.25 32C14.25 33.2426 13.2426 34.25 12 34.25H7C5.75736 34.25 4.75 33.2426 4.75 32Z"
  />
  <path
    fill-rule="evenodd"
    clip-rule="evenodd"
    d="M30 6.75C31.2426 6.75 32.25 7.75736 32.25 9V14C32.25 15.2426 31.2426 16.25 30 16.25C28.7574 16.25 27.75 15.2426 27.75 14V9C27.75 7.75736 28.7574 6.75 30 6.75Z"
  />
  <path
    fill-rule="evenodd"
    clip-rule="evenodd"
    d="M12.1453 14.1453C13.024 13.2667 14.4486 13.2667 15.3273 14.1453L18.8629 17.6809C19.7415 18.5596 19.7415 19.9842 18.8629 20.8629C17.9842 21.7415 16.5596 21.7415 15.6809 20.8629L12.1453 17.3273C11.2667 16.4486 11.2667 15.024 12.1453 14.1453Z"
  />
  <path
    fill-rule="evenodd"
    clip-rule="evenodd"
    d="M18.8625 43.1365C19.7412 44.0152 19.7412 45.4398 18.8625 46.3185L15.3269 49.8541C14.4483 50.7327 13.0236 50.7327 12.145 49.8541C11.2663 48.9754 11.2663 47.5508 12.145 46.6721L15.6805 43.1365C16.5592 42.2579 17.9838 42.2579 18.8625 43.1365Z"
  />
</svg>
