<svg
  width="60"
  height="60"
  viewBox="0 0 60 60"
  fill="currentColor"
  xmlns="http://www.w3.org/2000/svg"
>
  <path
    fill-rule="evenodd"
    clip-rule="evenodd"
    d="M34.4167 12.75C34.4167 8.30131 38.0663 4.75 42.5 4.75C46.9337 4.75 50.5833 8.30131 50.5833 12.75V32.9056C53.4235 35.2094 55.25 38.7139 55.25 42.65C55.25 49.6392 49.511 55.25 42.5 55.25C35.489 55.25 29.75 49.6392 29.75 42.65C29.75 38.7139 31.5765 35.2094 34.4167 32.9056V12.75ZM42.5 9.25C40.4903 9.25 38.9167 10.8474 38.9167 12.75V34.0429C38.9167 34.799 38.5369 35.5045 37.9058 35.9209C35.6882 37.3841 34.25 39.8583 34.25 42.65C34.25 47.0931 37.913 50.75 42.5 50.75C47.087 50.75 50.75 47.0931 50.75 42.65C50.75 39.8583 49.3118 37.3841 47.0942 35.9209C46.4631 35.5045 46.0833 34.799 46.0833 34.0429V12.75C46.0833 10.8474 44.5097 9.25 42.5 9.25Z"
  />
  <path
    d="M22.0001 9.25C23.2428 9.25 24.2501 10.2574 24.2501 11.5V17.5065L27.1877 14.5218C28.0594 13.6362 29.484 13.6248 30.3696 14.4965C31.2552 15.3682 31.2666 16.7928 30.3949 17.6784L24.2501 23.9216V27.5359H29C30.2426 27.5359 31.25 28.5433 31.25 29.7859C31.25 31.0286 30.2426 32.0359 29 32.0359H24.2502V36.0785L26.9993 38.8717C27.871 39.7574 27.8597 41.1819 26.974 42.0536C26.2306 42.7853 25.1073 42.8948 24.2502 42.3872V48.5C24.2502 49.7426 23.2428 50.75 22.0002 50.75C20.7575 50.75 19.7502 49.7426 19.7502 48.5V42.4936L16.8126 45.4783C15.9409 46.3639 14.5163 46.3753 13.6307 45.5036C12.7451 44.6319 12.7337 43.2074 13.6054 42.3217L19.7502 36.0785L19.7501 32.0359H17.0205L10.8637 38.1622C9.98279 39.0387 8.55817 39.0351 7.68168 38.1543C6.80519 37.2734 6.80874 35.8488 7.68961 34.9723L10.6406 32.0359H7C5.75736 32.0359 4.75 31.0286 4.75 29.7859C4.75 28.5433 5.75736 27.5359 7 27.5359H10.7399L7.66495 24.3955C6.79558 23.5076 6.81061 22.083 7.69851 21.2136C8.58641 20.3443 10.011 20.3593 10.8803 21.2472L17.0377 27.5359H19.7501L19.7501 23.9216L13.6054 17.6784C12.7337 16.7928 12.7451 15.3682 13.6307 14.4965C14.5163 13.6248 15.9409 13.6362 16.8126 14.5218L19.7501 17.5065V11.5C19.7501 10.2574 20.7575 9.25 22.0001 9.25Z"
  />
</svg>
