<svg
  width="60"
  height="60"
  viewBox="0 0 60 60"
  fill="currentColor"
  xmlns="http://www.w3.org/2000/svg"
>
  <path
    fill-rule="evenodd"
    clip-rule="evenodd"
    d="M14.75 11.25C14.75 6.55557 18.5556 2.75 23.25 2.75C27.9444 2.75 31.75 6.55558 31.75 11.25V33.2615C34.797 35.7339 36.75 39.5135 36.75 43.75C36.75 51.2058 30.7058 57.25 23.25 57.25C15.7942 57.25 9.75 51.2058 9.75 43.75C9.75 39.5135 11.703 35.7339 14.75 33.2615V11.25ZM23.25 7.25C21.0409 7.25 19.25 9.04086 19.25 11.25V34.3944C19.25 35.1452 18.8755 35.8466 18.2516 36.2642C15.8339 37.8825 14.25 40.6317 14.25 43.75C14.25 48.7206 18.2794 52.75 23.25 52.75C28.2206 52.75 32.25 48.7206 32.25 43.75C32.25 40.6317 30.6661 37.8825 28.2484 36.2642C27.6245 35.8466 27.25 35.1452 27.25 34.3944V11.25C27.25 9.04086 25.4591 7.25 23.25 7.25Z"
  />
  <path
    d="M27.25 43.75C27.25 45.9591 25.4591 47.75 23.25 47.75C21.0409 47.75 19.25 45.9591 19.25 43.75C19.25 41.5409 21.0409 39.75 23.25 39.75C25.4591 39.75 27.25 41.5409 27.25 43.75Z"
  />
  <path
    fill-rule="evenodd"
    clip-rule="evenodd"
    d="M35.75 8C35.75 6.75736 36.7574 5.75 38 5.75L48 5.75C49.2426 5.75 50.25 6.75736 50.25 8C50.25 9.24264 49.2426 10.25 48 10.25L38 10.25C36.7574 10.25 35.75 9.24264 35.75 8Z"
  />
  <path
    fill-rule="evenodd"
    clip-rule="evenodd"
    d="M35.75 16C35.75 14.7574 36.7574 13.75 38 13.75L48 13.75C49.2426 13.75 50.25 14.7574 50.25 16C50.25 17.2426 49.2426 18.25 48 18.25L38 18.25C36.7574 18.25 35.75 17.2426 35.75 16Z"
  />
  <path
    fill-rule="evenodd"
    clip-rule="evenodd"
    d="M35.75 24C35.75 22.7574 36.7574 21.75 38 21.75L48 21.75C49.2426 21.75 50.25 22.7574 50.25 24C50.25 25.2426 49.2426 26.25 48 26.25L38 26.25C36.7574 26.25 35.75 25.2426 35.75 24Z"
  />
</svg>
