<svg
  width="60"
  height="60"
  viewBox="0 0 60 60"
  fill="currentColor"
  xmlns="http://www.w3.org/2000/svg"
>
  <path
    fill-rule="evenodd"
    clip-rule="evenodd"
    d="M21.5 11.25C21.5 6.55557 25.3056 2.75 30 2.75C34.6944 2.75 38.5 6.55558 38.5 11.25V33.2615C41.547 35.7339 43.5 39.5135 43.5 43.75C43.5 51.2058 37.4558 57.25 30 57.25C22.5442 57.25 16.5 51.2058 16.5 43.75C16.5 39.5135 18.453 35.7339 21.5 33.2615V11.25ZM30 7.25C27.7909 7.25 26 9.04086 26 11.25V34.3944C26 35.1452 25.6255 35.8466 25.0016 36.2642C22.5839 37.8825 21 40.6317 21 43.75C21 48.7206 25.0294 52.75 30 52.75C34.9706 52.75 39 48.7206 39 43.75C39 40.6317 37.4161 37.8825 34.9984 36.2642C34.3745 35.8466 34 35.1452 34 34.3944V11.25C34 9.04086 32.2091 7.25 30 7.25Z"
  />
  <path
    d="M34 43.75C34 45.9591 32.2091 47.75 30 47.75C27.7909 47.75 26 45.9591 26 43.75C26 41.5409 27.7909 39.75 30 39.75C32.2091 39.75 34 41.5409 34 43.75Z"
  />
</svg>
