<svg
  width="60"
  height="60"
  viewBox="0 0 60 60"
  fill="currentColor"
  xmlns="http://www.w3.org/2000/svg"
>
  <path
    fill-rule="evenodd"
    clip-rule="evenodd"
    d="M5.90283 17.3866C5.90283 16.144 6.91019 15.1366 8.15283 15.1366H13.1048C16.1335 15.1366 17.6479 15.1366 19.0036 14.6961C20.2031 14.3064 21.3073 13.6689 22.2446 12.8249C23.304 11.8711 24.0611 10.5596 25.5755 7.93664L28.0515 3.64814C28.6728 2.57198 30.0489 2.20326 31.125 2.82458C32.2012 3.4459 32.5699 4.82198 31.9486 5.89814L28.3074 12.2049C27.9259 12.8656 27.7352 13.1959 27.5817 13.5184C26.4168 15.9657 26.4168 18.8076 27.5817 21.2549C27.7352 21.5773 27.9259 21.9077 28.3074 22.5684C28.6889 23.2291 28.8796 23.5594 29.0821 23.8536C30.619 26.0861 33.0802 27.5071 35.7821 27.7218C36.1381 27.7501 36.5195 27.7501 37.2825 27.7501H39.1031C41.679 27.7501 44.0592 26.3759 45.3472 24.1451C45.9685 23.0689 47.3446 22.7002 48.4208 23.3215C49.4969 23.9428 49.8656 25.3189 49.2443 26.3951C47.9564 28.6259 47.9564 31.3744 49.2443 33.6052L53.7958 41.4886C54.4171 42.5648 54.0484 43.9409 52.9723 44.5622C51.8961 45.1835 50.52 44.8148 49.8987 43.7386L46.2575 37.4319C45.8761 36.7712 45.6853 36.4408 45.4828 36.1467C43.9459 33.9142 41.4847 32.4932 38.7828 32.2784C38.4268 32.2501 38.0454 32.2501 37.2825 32.2501C36.5195 32.2501 36.1381 32.2501 35.7821 32.2784C33.0802 32.4932 30.619 33.9142 29.0821 36.1467C28.8796 36.4408 28.6889 36.7712 28.3074 37.4319C27.926 38.0926 27.7352 38.4229 27.5817 38.7454C26.4168 41.1927 26.4168 44.0346 27.5817 46.4818C27.7352 46.8043 27.926 47.1347 28.3074 47.7954L31.9486 54.1021C32.5699 55.1783 32.2012 56.5544 31.1251 57.1757C30.0489 57.797 28.6728 57.4283 28.0515 56.3521L25.5755 52.0636C24.0611 49.4406 23.304 48.1291 22.2446 47.1753C21.3073 46.3314 20.2031 45.6939 19.0036 45.3041C17.6479 44.8636 16.1335 44.8636 13.1048 44.8636L8.15284 44.8636C6.9102 44.8636 5.90284 43.8563 5.90284 42.6136C5.90284 41.371 6.9102 40.3636 8.15284 40.3636H15.4352C16.1982 40.3636 16.5796 40.3636 16.9356 40.3353C19.6375 40.1206 22.0987 38.6996 23.6356 36.4671C23.8381 36.1729 24.0288 35.8426 24.4103 35.1819C24.7917 34.5212 24.9825 34.1908 25.136 33.8684C26.3009 31.4211 26.3009 28.5792 25.136 26.1319C24.9825 25.8094 24.7917 25.4791 24.4103 24.8184C24.0288 24.1577 23.8381 23.8273 23.6356 23.5332C22.0987 21.3007 19.6375 19.8797 16.9356 19.6649C16.5796 19.6366 16.1981 19.6366 15.4352 19.6366H8.15283C6.91019 19.6366 5.90283 18.6293 5.90283 17.3866Z"
  />
  <path
    d="M54.6684 17.3867C54.6684 18.9449 53.4053 20.208 51.8471 20.208C50.289 20.208 49.0258 18.9449 49.0258 17.3867C49.0258 15.8286 50.289 14.5655 51.8471 14.5655C53.4053 14.5655 54.6684 15.8286 54.6684 17.3867Z"
  />
</svg>
