<svg
  width="60"
  height="60"
  viewBox="0 0 60 60"
  fill="currentColor"
  xmlns="http://www.w3.org/2000/svg"
>
  <path
    d="M57.4961 30.001C57.4961 43.8902 47.201 55.3727 33.8267 57.236C32.5762 57.4094 31.2968 57.5 29.9981 57.5C28.499 57.5 27.0269 57.3805 25.5933 57.1493C12.5003 55.0413 2.5 43.6879 2.5 30.001C2.5 14.813 14.8126 2.5 30 2.5C45.1874 2.5 57.5 14.813 57.5 30.001H57.4961Z"
    fill="black"
    fill-opacity="0.96"
  />
  <path
    d="M37.5896 28.8314C37.4517 28.7653 37.3117 28.7017 37.1699 28.6409C36.9229 24.0897 34.4361 21.4842 30.2604 21.4575C30.2415 21.4574 30.2227 21.4574 30.2037 21.4574C27.7061 21.4574 25.6289 22.5235 24.3504 24.4635L26.6469 26.0388C27.602 24.5897 29.1009 24.2808 30.2048 24.2808C30.2176 24.2808 30.2304 24.2808 30.243 24.2809C31.6179 24.2897 32.6554 24.6894 33.3269 25.469C33.8156 26.0366 34.1424 26.8208 34.3042 27.8106C33.0852 27.6035 31.7669 27.5398 30.3576 27.6206C26.3875 27.8492 23.8353 30.1646 24.0067 33.382C24.0937 35.014 24.9067 36.418 26.2959 37.3352C27.4705 38.1105 28.9832 38.4897 30.5555 38.4038C32.6317 38.29 34.2606 37.4978 35.3969 36.0493C36.2599 34.9493 36.8057 33.5238 37.0467 31.7277C38.0362 32.3248 38.7696 33.1107 39.1746 34.0553C39.8632 35.6612 39.9034 38.3 37.7502 40.4513C35.8638 42.336 33.5961 43.1513 30.169 43.1765C26.3674 43.1483 23.4924 41.9292 21.6231 39.5528C19.8727 37.3277 18.968 34.1137 18.9343 30C18.968 25.8863 19.8727 22.6723 21.6231 20.4471C23.4924 18.0708 26.3674 16.8517 30.1689 16.8234C33.9981 16.8519 36.9233 18.0769 38.8641 20.4647C39.8158 21.6356 40.5332 23.1081 41.0062 24.8251L43.6974 24.107C43.1241 21.9937 42.2219 20.1726 40.9942 18.6623C38.5061 15.6011 34.8671 14.0325 30.1783 14H30.1596C25.4803 14.0324 21.8821 15.607 19.4648 18.6799C17.3137 21.4144 16.2041 25.2193 16.1669 29.9888L16.1667 30L16.1669 30.0112C16.2041 34.7807 17.3137 38.5857 19.4648 41.3202C21.8821 44.393 25.4803 45.9677 30.1596 46H30.1783C34.3384 45.9712 37.2707 44.882 39.6864 42.4685C42.8469 39.311 42.7517 35.3532 41.7101 32.9235C40.9627 31.1812 39.5379 29.766 37.5896 28.8314ZM30.4068 35.5845C28.6668 35.6825 26.8591 34.9015 26.77 33.2287C26.7039 31.9883 27.6527 30.6043 30.5136 30.4395C30.8412 30.4206 31.1627 30.4113 31.4786 30.4113C32.5177 30.4113 33.4899 30.5123 34.3737 30.7055C34.0441 34.8225 32.1104 35.491 30.4068 35.5845Z"
    fill="white"
  />
</svg>
