<svg
  width="60"
  height="60"
  viewBox="0 0 60 60"
  fill="currentColor"
  xmlns="http://www.w3.org/2000/svg"
>
  <path
    fill-rule="evenodd"
    clip-rule="evenodd"
    d="M48 4.75C43.9959 4.75 40.75 7.99594 40.75 12C40.75 14.5291 42.045 16.7557 44.008 18.0529L38.8312 30.7971C38.5585 30.766 38.2811 30.75 38 30.75C36.8181 30.75 35.7023 31.0328 34.7164 31.5345L28.4655 25.2836C28.9672 24.2977 29.25 23.1819 29.25 22C29.25 17.9959 26.0041 14.75 22 14.75C17.9959 14.75 14.75 17.9959 14.75 22C14.75 24.3351 15.854 26.4124 17.5684 27.7384L12.2809 40.7553C12.1877 40.7518 12.094 40.75 12 40.75C7.99594 40.75 4.75 43.9959 4.75 48C4.75 52.0041 7.99594 55.25 12 55.25C16.0041 55.25 19.25 52.0041 19.25 48C19.25 45.6976 18.1768 43.6459 16.5033 42.3178L21.8124 29.2476C21.8748 29.2492 21.9373 29.25 22 29.25C23.1819 29.25 24.2977 28.9672 25.2836 28.4655L31.5345 34.7164C31.0328 35.7023 30.75 36.8181 30.75 38C30.75 42.0041 33.9959 45.25 38 45.25C42.0041 45.25 45.25 42.0041 45.25 38C45.25 35.8969 44.3545 34.003 42.924 32.6786L48.3829 19.2401C52.209 19.041 55.25 15.8756 55.25 12C55.25 7.99594 52.0041 4.75 48 4.75ZM45.25 12C45.25 10.4812 46.4812 9.25 48 9.25C49.5188 9.25 50.75 10.4812 50.75 12C50.75 13.5188 49.5188 14.75 48 14.75C46.4812 14.75 45.25 13.5188 45.25 12ZM12 45.25C10.4812 45.25 9.25 46.4812 9.25 48C9.25 49.5188 10.4812 50.75 12 50.75C13.5188 50.75 14.75 49.5188 14.75 48C14.75 46.4812 13.5188 45.25 12 45.25ZM22 19.25C20.4812 19.25 19.25 20.4812 19.25 22C19.25 23.5188 20.4812 24.75 22 24.75C23.5188 24.75 24.75 23.5188 24.75 22C24.75 20.4812 23.5188 19.25 22 19.25ZM35.25 38C35.25 36.4812 36.4812 35.25 38 35.25C39.5188 35.25 40.75 36.4812 40.75 38C40.75 39.5188 39.5188 40.75 38 40.75C36.4812 40.75 35.25 39.5188 35.25 38Z"
  />
</svg>
