<svg
  width="60"
  height="60"
  viewBox="0 0 60 60"
  fill="currentColor"
  xmlns="http://www.w3.org/2000/svg"
>
  <path
    fill-rule="evenodd"
    clip-rule="evenodd"
    d="M41 9.25C35.6152 9.25 31.25 13.6152 31.25 19C31.25 24.3848 35.6152 28.75 41 28.75C46.3848 28.75 50.75 24.3848 50.75 19C50.75 13.6152 46.3848 9.25 41 9.25ZM26.75 19C26.75 11.1299 33.1299 4.75 41 4.75C48.8701 4.75 55.25 11.1299 55.25 19C55.25 26.8701 48.8701 33.25 41 33.25C33.1299 33.25 26.75 26.8701 26.75 19Z"
  />
  <path
    fill-rule="evenodd"
    clip-rule="evenodd"
    d="M43.2494 35.8525C43.2498 35.9016 43.25 35.9508 43.25 36C43.25 46.6315 34.6315 55.25 24 55.25C13.3685 55.25 4.75 46.6315 4.75 36C4.75 25.3685 13.3685 16.75 24 16.75C24.0492 16.75 24.0984 16.7502 24.1475 16.7506C24.0502 17.4866 24 18.2374 24 19C24 19.763 24.0503 20.5143 24.1477 21.2507C24.0985 21.2502 24.0493 21.25 24 21.25C15.8538 21.25 9.25 27.8538 9.25 36C9.25 44.1462 15.8538 50.75 24 50.75C32.1462 50.75 38.75 44.1462 38.75 36C38.75 35.9507 38.7498 35.9015 38.7493 35.8523C39.4857 35.9497 40.237 36 41 36C41.7626 36 42.5134 35.9498 43.2494 35.8525Z"
  />
</svg>
