<svg
  width="60"
  height="60"
  viewBox="0 0 60 60"
  fill="currentColor"
  xmlns="http://www.w3.org/2000/svg"
>
  <path
    d="M1 13C1 8.02944 5.02944 4 10 4H44C48.9706 4 53 8.02944 53 13V39C53 43.9706 48.9706 48 44 48H10C5.02944 48 1 43.9706 1 39V13Z"
    fill="#CFBEFF"
  />
  <path
    d="M8 21C8 16.5817 11.5817 13 16 13H50C54.4183 13 58 16.5817 58 21V46C58 50.4183 54.4183 54 50 54H16C11.5817 54 8 50.4183 8 46V21Z"
    fill="url(#paint0_linear_13577_173)"
  />
  <path
    d="M40.6658 35.0448C41.1114 34.0597 41.1114 32.9403 40.6658 31.9552C40.3758 31.3142 39.8339 30.8142 39.147 30.3269C38.4653 29.8433 37.5381 29.3038 36.3666 28.6222L33.9758 27.2312C32.7317 26.5073 31.7497 25.9359 30.9478 25.561C30.1429 25.1847 29.3981 24.9451 28.6497 25.0108C27.5058 25.1113 26.4613 25.679 25.7807 26.5703C25.3354 27.1534 25.1632 27.8914 25.0814 28.7497C25 29.6048 25 30.7099 25 32.1101V34.8899C25 36.2901 25 37.3952 25.0814 38.2503C25.1632 39.1086 25.3354 39.8466 25.7807 40.4297C26.4613 41.321 27.5058 41.8887 28.6497 41.9892C29.3981 42.0549 30.1429 41.8153 30.9478 41.439C31.7497 41.0641 32.7317 40.4927 33.9758 39.7688L36.3666 38.3777C37.5381 37.6962 38.4653 37.1567 39.147 36.6731C39.8339 36.1858 40.3758 35.6858 40.6658 35.0448Z"
    fill="white"
  />
  <defs>
    <linearGradient
      id="paint0_linear_13577_173"
      x1="10.975"
      y1="4.72917"
      x2="39.7332"
      y2="53.0051"
      gradientUnits="userSpaceOnUse"
    >
      <stop stop-color="#6128FF" />
      <stop offset="1" stop-color="#9071FF" />
    </linearGradient>
  </defs>
</svg>
