<svg
  width="60"
  height="60"
  viewBox="0 0 60 60"
  fill="currentColor"
  xmlns="http://www.w3.org/2000/svg"
>
  <path
    d="M21.703 56.5794C29.1869 58.4703 27.5223 46.4533 33.4699 42.545C38.5448 39.2103 51.6725 44.6396 53.3285 38.4047C56.9251 24.8628 48.5972 11.044 34.7276 7.53968C20.8579 4.03534 6.69871 12.1724 3.10207 25.7144C-0.494559 39.2563 7.83336 53.075 21.703 56.5794Z"
    fill="url(#paint0_linear_13577_174)"
  />
  <path
    d="M22.7784 22.5923C26.0809 19.6569 29.8828 19.8807 32.8181 23.1832C35.7535 26.4857 35.5297 30.2876 32.2272 33.223C28.9247 36.1583 20.1942 34.4037 20.1942 34.4037C20.1942 34.4037 19.4758 25.5276 22.7784 22.5923Z"
    fill="white"
  />
  <path
    d="M37.3403 24.6792C37.4386 24.973 37.8149 25.0808 38.0375 24.8653L55.9044 7.56915C57.0592 6.45127 57.1278 4.62195 56.0601 3.42067L55.0402 2.27315C53.9724 1.07187 52.1477 0.92545 50.9021 1.9411L31.5434 17.7257C31.298 17.9258 31.37 18.3231 31.6606 18.4489C32.9015 18.9861 34.0942 19.8738 35.1918 21.1087C36.2193 22.2647 36.9348 23.4677 37.3403 24.6792Z"
    fill="#AECBFF"
  />
  <defs>
    <linearGradient
      id="paint0_linear_13577_174"
      x1="14.3938"
      y1="3.07793"
      x2="38.2778"
      y2="42.6582"
      gradientUnits="userSpaceOnUse"
    >
      <stop stop-color="#1C7BEB" />
      <stop offset="1" stop-color="#4E9FFF" />
    </linearGradient>
  </defs>
</svg>
