<svg xmlns="http://www.w3.org/2000/svg" width="18" height="18" viewBox="0 0 18 18" fill="none">
  <path d="M14.0998 1.5H3.89981C2.40864 1.5 1.1998 2.70883 1.1998 4.2V11.7H16.7998V4.2C16.7998 2.70883 15.591 1.5 14.0998 1.5Z" fill="url(#paint0_linear_2342_12627)"/>
  <path d="M0.299805 12.6C0.299805 12.1029 0.702748 11.7 1.1998 11.7H16.7998C17.2969 11.7 17.6998 12.1029 17.6998 12.6C17.6998 13.0971 17.2969 13.5 16.7998 13.5H9.89981V15.6H11.6998C12.1969 15.6 12.5998 16.0029 12.5998 16.5C12.5998 16.9971 12.1969 17.4 11.6998 17.4H6.2998C5.80275 17.4 5.3998 16.9971 5.3998 16.5C5.3998 16.0029 5.80275 15.6 6.2998 15.6H8.0998V13.5L1.1998 13.5C0.702748 13.5 0.299805 13.0971 0.299805 12.6Z" fill="#FFB4AB"/>
  <path d="M8.9998 9.9C8.50275 9.9 8.0998 9.49706 8.0998 9L8.0998 4.8C8.0998 4.30294 8.50275 3.9 8.9998 3.9C9.49686 3.9 9.8998 4.30294 9.8998 4.8V9C9.8998 9.49706 9.49686 9.9 8.9998 9.9Z" fill="white"/>
  <path d="M13.1998 9.9C12.7027 9.9 12.2998 9.49706 12.2998 9V6.6C12.2998 6.10294 12.7027 5.7 13.1998 5.7C13.6969 5.7 14.0998 6.10294 14.0998 6.6V9C14.0998 9.49706 13.6969 9.9 13.1998 9.9Z" fill="white"/>
  <path d="M3.8998 9C3.8998 9.49706 4.30275 9.9 4.7998 9.9C5.29686 9.9 5.6998 9.49706 5.6998 9V6C5.6998 5.50294 5.29686 5.1 4.7998 5.1C4.30275 5.1 3.8998 5.50294 3.8998 6V9Z" fill="white"/>
  <defs>
    <linearGradient id="paint0_linear_2342_12627" x1="2.71647" y1="1.5" x2="12.6794" y2="12.5772" gradientUnits="userSpaceOnUse">
      <stop stop-color="#E02819"/>
      <stop offset="1" stop-color="#FF6655"/>
    </linearGradient>
  </defs>
</svg>