<svg
  width="60"
  height="60"
  viewBox="0 0 60 60"
  fill="currentColor"
  xmlns="http://www.w3.org/2000/svg"
>
  <path
    d="M2 23C2 17.7495 2 15.1243 3.02181 13.1188C3.92063 11.3548 5.35482 9.92063 7.11884 9.02181C9.12426 8 11.7495 8 17 8H43C48.2505 8 50.8757 8 52.8812 9.02181C54.6452 9.92063 56.0794 11.3548 56.9782 13.1188C58 15.1243 58 17.7495 58 23V41C58 46.2505 58 48.8757 56.9782 50.8812C56.0794 52.6452 54.6452 54.0794 52.8812 54.9782C50.8757 56 48.2505 56 43 56H17C11.7495 56 9.12426 56 7.11884 54.9782C5.35482 54.0794 3.92063 52.6452 3.02181 50.8812C2 48.8757 2 46.2505 2 41V23Z"
    fill="url(#paint0_linear_7795_1872)"
  />
  <path
    d="M38.6658 35.0448C39.1114 34.0597 39.1114 32.9403 38.6658 31.9552C38.3758 31.3142 37.8339 30.8142 37.147 30.3269C36.4653 29.8433 35.5381 29.3038 34.3666 28.6222L31.9758 27.2312C30.7317 26.5073 29.7497 25.9359 28.9478 25.561C28.1429 25.1847 27.3981 24.9451 26.6497 25.0108C25.5058 25.1113 24.4613 25.679 23.7807 26.5703C23.3354 27.1534 23.1632 27.8914 23.0814 28.7497C23 29.6048 23 30.7099 23 32.1101V34.8899C23 36.2901 23 37.3952 23.0814 38.2503C23.1632 39.1086 23.3354 39.8466 23.7807 40.4297C24.4613 41.321 25.5058 41.8887 26.6497 41.9892C27.3981 42.0549 28.1429 41.8153 28.9478 41.439C29.7497 41.0641 30.7317 40.4927 31.9758 39.7688L34.3666 38.3777C35.5381 37.6962 36.4653 37.1567 37.147 36.6731C37.8339 36.1858 38.3758 35.6858 38.6658 35.0448Z"
    fill="white"
  />
  <path
    d="M13 9.5C13 6.46243 15.4624 4 18.5 4H41.5C44.5376 4 47 6.46243 47 9.5C47 12.5376 44.5376 15 41.5 15H18.5C15.4624 15 13 12.5376 13 9.5Z"
    fill="#CFBEFF"
  />
  <defs>
    <linearGradient
      id="paint0_linear_7795_1872"
      x1="5.23077"
      y1="4"
      x2="33.8073"
      y2="53.816"
      gradientUnits="userSpaceOnUse"
    >
      <stop stop-color="#6128FF" />
      <stop offset="1" stop-color="#9071FF" />
    </linearGradient>
  </defs>
</svg>
