<svg
  width="60"
  height="60"
  viewBox="0 0 60 60"
  fill="currentColor"
  xmlns="http://www.w3.org/2000/svg"
>
  <path
    fill-rule="evenodd"
    clip-rule="evenodd"
    d="M33.0758 3.75H26.9242C25.5909 3.74998 24.4777 3.74996 23.5639 3.81231C22.6126 3.87722 21.714 4.01715 20.8429 4.378C18.8214 5.21532 17.2153 6.82138 16.378 8.84286C16.0171 9.71403 15.8772 10.6126 15.8123 11.5639C15.7871 11.933 15.7721 12.3347 15.7632 12.7702C14.8577 12.7876 14.0417 12.82 13.3056 12.8801C11.6657 13.0141 10.2253 13.2972 8.89261 13.9762C6.77579 15.0548 5.05475 16.7758 3.97618 18.8926C3.29716 20.2253 3.01408 21.6657 2.88009 23.3056C2.74996 24.8983 2.74998 26.8651 2.75 29.3036V36.6963C2.74998 39.1348 2.74996 41.1017 2.88009 42.6944C3.01408 44.3343 3.29716 45.7747 3.97618 47.1074C5.05475 49.2242 6.77579 50.9452 8.89261 52.0238C10.2253 52.7028 11.6657 52.9859 13.3056 53.1199C14.8983 53.25 16.8651 53.25 19.3036 53.25H40.6964C43.1348 53.25 45.1017 53.25 46.6944 53.1199C48.3343 52.9859 49.7747 52.7028 51.1074 52.0238C53.2242 50.9452 54.9452 49.2242 56.0238 47.1074C56.7028 45.7747 56.9859 44.3343 57.1199 42.6944C57.25 41.1017 57.25 39.1348 57.25 36.6962V29.3038C57.25 26.8653 57.25 24.8983 57.1199 23.3056C56.9859 21.6657 56.7028 20.2253 56.0238 18.8926C54.9452 16.7758 53.2242 15.0548 51.1074 13.9762C49.7747 13.2972 48.3343 13.0141 46.6944 12.8801C45.9583 12.82 45.1423 12.7876 44.2368 12.7702C44.2279 12.3347 44.2129 11.933 44.1877 11.5639C44.1228 10.6126 43.9829 9.71403 43.622 8.84286C42.7847 6.82138 41.1786 5.21532 39.1571 4.378C38.286 4.01715 37.3874 3.87722 36.4361 3.81231C35.5223 3.74996 34.4091 3.74998 33.0758 3.75ZM39.7355 12.75C39.7278 12.4222 39.716 12.1327 39.6981 11.8702C39.6489 11.148 39.5604 10.7964 39.4646 10.5649C39.0839 9.64608 38.3539 8.91606 37.4351 8.53545C37.2036 8.43958 36.852 8.35115 36.1298 8.30187C35.3874 8.25122 34.4286 8.25 33 8.25H27C25.5714 8.25 24.6126 8.25122 23.8702 8.30187C23.148 8.35115 22.7964 8.43958 22.5649 8.53545C21.6461 8.91606 20.9161 9.64608 20.5355 10.5649C20.4396 10.7964 20.3511 11.148 20.3019 11.8702C20.284 12.1327 20.2722 12.4222 20.2646 12.75H39.7355Z"
  />
  <path
    fill-rule="evenodd"
    clip-rule="evenodd"
    d="M21.0253 32.25H2.74805V27.75H21.0253C22.0303 23.7287 25.6672 20.75 29.9998 20.75C34.3324 20.75 37.9692 23.7287 38.9742 27.75L57.2462 27.75V32.25L38.9742 32.25C37.9692 36.2713 34.3324 39.25 29.9998 39.25C25.6672 39.25 22.0303 36.2713 21.0253 32.25ZM25.2498 30C25.2498 27.3766 27.3764 25.25 29.9998 25.25C32.6231 25.25 34.7498 27.3766 34.7498 30C34.7498 32.6234 32.6231 34.75 29.9998 34.75C27.3764 34.75 25.2498 32.6234 25.2498 30Z"
    fill="white"
  />
</svg>
