<svg
  width="60"
  height="60"
  viewBox="0 0 60 60"
  fill="currentColor"
  xmlns="http://www.w3.org/2000/svg"
>
  <path
    d="M45 8H48C52.9706 8 57 12.0294 57 17V45C57 49.9706 52.9706 54 48 54H45V8Z"
    fill="#CFBEFF"
  />
  <path
    d="M42.5 2C41.1193 2 40 3.11929 40 4.5V10H10C5.58172 10 2 13.5817 2 18V43C2 47.4183 5.58172 51 10 51H40V55.5C40 56.8807 41.1193 58 42.5 58C43.8807 58 45 56.8807 45 55.5V4.5C45 3.11929 43.8807 2 42.5 2Z"
    fill="url(#paint0_linear_17651_969)"
  />
  <path
    d="M36.6658 31.0448C37.1114 30.0597 37.1114 28.9403 36.6658 27.9552C36.3758 27.3142 35.8339 26.8142 35.147 26.3269C34.4653 25.8433 33.5381 25.3038 32.3666 24.6222L29.9758 23.2312C28.7317 22.5073 27.7497 21.9359 26.9478 21.561C26.1429 21.1847 25.3981 20.9451 24.6497 21.0108C23.5058 21.1113 22.4613 21.679 21.7807 22.5703C21.3354 23.1534 21.1632 23.8914 21.0814 24.7497C21 25.6048 21 26.7099 21 28.1101V30.8899C21 32.2901 21 33.3952 21.0814 34.2503C21.1632 35.1086 21.3354 35.8466 21.7807 36.4297C22.4613 37.321 23.5058 37.8887 24.6497 37.9892C25.3981 38.0549 26.1429 37.8153 26.9478 37.439C27.7497 37.0641 28.7317 36.4927 29.9758 35.7688L32.3666 34.3777C33.5381 33.6962 34.4653 33.1567 35.147 32.6731C35.8339 32.1858 36.3758 31.6858 36.6658 31.0448Z"
    fill="white"
  />
  <defs>
    <linearGradient
      id="paint0_linear_17651_969"
      x1="11.625"
      y1="2.81667"
      x2="45.894"
      y2="52.3775"
      gradientUnits="userSpaceOnUse"
    >
      <stop stop-color="#6128FF" />
      <stop offset="1" stop-color="#9071FF" />
    </linearGradient>
  </defs>
</svg>
