<svg
  width="60"
  height="60"
  viewBox="0 0 60 60"
  fill="currentColor"
  xmlns="http://www.w3.org/2000/svg"
>
  <path
    d="M3 17C3 12.7996 3 10.6994 3.81745 9.09507C4.5365 7.68386 5.68386 6.5365 7.09507 5.81745C8.69941 5 10.7996 5 15 5H41C45.2004 5 47.3006 5 48.9049 5.81745C50.3161 6.5365 51.4635 7.68386 52.1825 9.09507C53 10.6994 53 12.7996 53 17V43C53 47.2004 53 49.3006 52.1825 50.9049C51.4635 52.3161 50.3161 53.4635 48.9049 54.1825C47.3006 55 45.2004 55 41 55H15C10.7996 55 8.69941 55 7.09507 54.1825C5.68386 53.4635 4.5365 52.3161 3.81745 50.9049C3 49.3006 3 47.2004 3 43V17Z"
    fill="url(#paint0_linear_7795_1871)"
  />
  <path
    d="M9 15C9 13.3431 10.3431 12 12 12H33C34.6569 12 36 13.3431 36 15C36 16.6569 34.6569 18 33 18H12C10.3431 18 9 16.6569 9 15Z"
    fill="white"
  />
  <path
    d="M9 26C9 24.3431 10.3431 23 12 23H20C21.6569 23 23 24.3431 23 26C23 27.6569 21.6569 29 20 29H12C10.3431 29 9 27.6569 9 26Z"
    fill="white"
  />
  <path
    d="M49.4671 12.8493C50.4266 11.8898 50.9064 11.41 51.4183 11.1435C52.5036 10.5786 53.7962 10.5786 54.8815 11.1435C55.3934 11.41 55.8732 11.8898 56.8327 12.8494C57.7923 13.8089 58.2721 14.2887 58.5386 14.8006C59.1035 15.8859 59.1035 17.1785 58.5386 18.2638C58.2721 18.7757 57.7923 19.2555 56.8327 20.215L37.4947 39.5531C34.2477 42.8001 30.1534 45.0693 25.679 46.1019C24.4188 46.3927 23.2894 45.2633 23.5802 44.0031C24.6128 39.5287 26.882 35.4344 30.129 32.1874L49.4671 12.8493Z"
    fill="#A9EED2"
  />
  <defs>
    <linearGradient
      id="paint0_linear_7795_1871"
      x1="6.22859"
      y1="5"
      x2="33.1618"
      y2="53.7964"
      gradientUnits="userSpaceOnUse"
    >
      <stop stop-color="#20B082" />
      <stop offset="1" stop-color="#75C3A3" />
    </linearGradient>
  </defs>
</svg>
