<svg
  width="60"
  height="60"
  viewBox="0 0 60 60"
  fill="currentColor"
  xmlns="http://www.w3.org/2000/svg"
>
  <path
    fill-rule="evenodd"
    clip-rule="evenodd"
    d="M21.4 55.25H21.3037H21.3037H21.3036H21.3036C18.8651 55.25 16.8983 55.25 15.3056 55.1199C13.6657 54.9859 12.2253 54.7028 10.8926 54.0238C8.77578 52.9452 7.05475 51.2242 5.97618 49.1074C5.29716 47.7747 5.01408 46.3343 4.88009 44.6944C4.74996 43.1017 4.74998 41.1348 4.75 38.6963V38.6V21.4V21.3037V21.3037C4.74998 18.8652 4.74996 16.8983 4.88009 15.3056C5.01408 13.6657 5.29716 12.2253 5.97618 10.8926C7.05475 8.77578 8.77578 7.05475 10.8926 5.97618C12.2253 5.29715 13.6657 5.01408 15.3056 4.88009C16.8983 4.74996 18.8651 4.74998 21.3036 4.75H21.3036H21.4H37.5C38.7426 4.75 39.75 5.75736 39.75 7C39.75 8.24264 38.7426 9.25 37.5 9.25H21.4C18.8426 9.25 17.0599 9.25175 15.672 9.36515C14.3104 9.4764 13.5281 9.68379 12.9356 9.98571C11.6655 10.6329 10.6329 11.6655 9.98571 12.9356C9.68379 13.5281 9.4764 14.3104 9.36515 15.672C9.25175 17.0599 9.25 18.8426 9.25 21.4V38.6C9.25 41.1574 9.25175 42.9401 9.36515 44.328C9.4764 45.6896 9.68379 46.4719 9.98571 47.0644C10.6329 48.3345 11.6655 49.3671 12.9356 50.0143C13.5281 50.3162 14.3104 50.5236 15.672 50.6349C17.0599 50.7482 18.8426 50.75 21.4 50.75H38.6C41.1574 50.75 42.9401 50.7482 44.328 50.6349C45.6896 50.5236 46.4719 50.3162 47.0644 50.0143C48.3345 49.3671 49.3671 48.3345 50.0143 47.0644C50.3162 46.4719 50.5236 45.6896 50.6349 44.328C50.7482 42.9401 50.75 41.1574 50.75 38.6V30C50.75 28.7574 51.7574 27.75 53 27.75C54.2426 27.75 55.25 28.7574 55.25 30V38.6V38.6964V38.6964V38.6964V38.6965C55.25 41.1349 55.25 43.1017 55.1199 44.6944C54.9859 46.3343 54.7028 47.7747 54.0238 49.1074C52.9452 51.2242 51.2242 52.9452 49.1074 54.0238C47.7747 54.7028 46.3343 54.9859 44.6944 55.1199C43.1017 55.25 41.1349 55.25 38.6964 55.25H38.6964H38.6963H38.6963H38.6H21.4ZM17 15.75C15.7574 15.75 14.75 16.7574 14.75 18C14.75 19.2426 15.7574 20.25 17 20.25H30C31.2426 20.25 32.25 19.2426 32.25 18C32.25 16.7574 31.2426 15.75 30 15.75H17ZM14.75 28C14.75 26.7574 15.7574 25.75 17 25.75H22C23.2426 25.75 24.25 26.7574 24.25 28C24.25 29.2426 23.2426 30.25 22 30.25H17C15.7574 30.25 14.75 29.2426 14.75 28ZM53.7587 10.3406C52.5275 9.23199 50.6306 9.33141 49.5219 10.5627L30.6846 31.4836C28.6341 33.7609 27.0351 36.407 25.9724 39.2813C25.539 40.4536 26.7605 41.5535 27.8811 40.9999C30.6285 39.6426 33.093 37.7757 35.1435 35.4984L53.9808 14.5775C55.0894 13.3462 54.99 11.4493 53.7587 10.3406Z"
  />
</svg>
