<svg
  xmlns="http://www.w3.org/2000/svg"
  width="18"
  height="18"
  viewBox="0 0 18 18"
  fill="currentColor"
>
  <path
    d="M8.32501 9.90005C8.32501 10.2728 8.62721 10.575 9.00001 10.575C9.3728 10.575 9.67501 10.2728 9.67501 9.90005V5.70005C9.67501 5.32726 9.3728 5.02505 9.00001 5.02505C8.62721 5.02505 8.32501 5.32726 8.32501 5.70005V9.90005Z"
  />
  <path
    d="M12.6 10.575C12.2272 10.575 11.925 10.2728 11.925 9.90005V7.50005C11.925 7.12726 12.2272 6.82505 12.6 6.82505C12.9728 6.82505 13.275 7.12726 13.275 7.50005V9.90005C13.275 10.2728 12.9728 10.575 12.6 10.575Z"
  />
  <path
    d="M4.72501 9.90005C4.72501 10.2728 5.02721 10.575 5.40001 10.575C5.7728 10.575 6.07501 10.2728 6.07501 9.90005V6.90005C6.07501 6.52726 5.7728 6.22505 5.40001 6.22505C5.02721 6.22505 4.72501 6.52726 4.72501 6.90005V9.90005Z"
  />
  <path
    fill-rule="evenodd"
    clip-rule="evenodd"
    d="M0.825006 4.80005C0.825006 2.93609 2.33605 1.42505 4.20001 1.42505H13.8C15.664 1.42505 17.175 2.93609 17.175 4.80005V12.2292C17.5125 12.2665 17.775 12.5526 17.775 12.9C17.775 13.2728 17.4728 13.575 17.1 13.575H9.67501V15.825H11.7C12.0728 15.825 12.375 16.1273 12.375 16.5C12.375 16.8728 12.0728 17.175 11.7 17.175H9.00089L9.00001 17.175H6.30001C5.92721 17.175 5.62501 16.8728 5.62501 16.5C5.62501 16.1273 5.92721 15.825 6.30001 15.825H8.32501V13.575H0.900006C0.527214 13.575 0.225006 13.2728 0.225006 12.9C0.225006 12.5526 0.48751 12.2665 0.825006 12.2292V4.80005ZM2.17501 4.80005V12.225L15.825 12.225V4.80005C15.825 3.68167 14.9184 2.77505 13.8 2.77505H4.20001C3.08163 2.77505 2.17501 3.68167 2.17501 4.80005Z"
  />
</svg>
