<svg
  xmlns="http://www.w3.org/2000/svg"
  width="60"
  height="60"
  viewBox="0 0 60 60"
  fill="currentColor"
>
  <path
    d="M17 32.75C18.3628 32.75 19.5203 32.7479 20.4668 32.8252C21.4396 32.9047 22.3863 33.0792 23.291 33.54L23.544 33.6758C24.7924 34.3754 25.8083 35.4301 26.46 36.709L26.6191 37.0498C26.9625 37.8505 27.1053 38.6819 27.1748 39.5332C27.2521 40.4798 27.25 41.6372 27.25 43V45C27.25 46.3628 27.2521 47.5203 27.1748 48.4668C27.1053 49.3182 26.9625 50.1495 26.6191 50.9502L26.46 51.291C25.8083 52.5699 24.7924 53.6247 23.544 54.3242L23.291 54.46C22.3863 54.9209 21.4396 55.0953 20.4668 55.1748C19.5203 55.2521 18.3628 55.25 17 55.25H15C13.6372 55.25 12.4798 55.2521 11.5332 55.1748C10.6819 55.1053 9.85049 54.9625 9.04981 54.6192L8.70899 54.46C7.43008 53.8083 6.37536 52.7924 5.67579 51.544L5.54004 51.291C5.07916 50.3863 4.90468 49.4396 4.8252 48.4668C4.7479 47.5203 4.75001 46.3628 4.75001 45V43C4.75001 41.6372 4.74789 40.4798 4.8252 39.5332C4.90468 38.5605 5.07916 37.6137 5.54004 36.709L5.67579 36.4561C6.37536 35.2076 7.43008 34.1917 8.70899 33.54L9.04981 33.3809C9.85049 33.0376 10.6819 32.8948 11.5332 32.8252C12.4798 32.7479 13.6372 32.75 15 32.75H17ZM45 32.75C46.3628 32.75 47.5203 32.7479 48.4668 32.8252C49.4396 32.9047 50.3863 33.0792 51.291 33.54L51.544 33.6758C52.7924 34.3754 53.8083 35.4301 54.46 36.709L54.6192 37.0498C54.9625 37.8505 55.1053 38.6819 55.1748 39.5332C55.2521 40.4798 55.25 41.6372 55.25 43V45C55.25 46.3628 55.2521 47.5203 55.1748 48.4668C55.1053 49.3182 54.9625 50.1495 54.6192 50.9502L54.46 51.291C53.8083 52.5699 52.7924 53.6247 51.544 54.3242L51.291 54.46C50.3863 54.9209 49.4396 55.0953 48.4668 55.1748C47.5203 55.2521 46.3628 55.25 45 55.25H43C41.6372 55.25 40.4798 55.2521 39.5332 55.1748C38.6819 55.1053 37.8505 54.9625 37.0498 54.6192L36.709 54.46C35.4301 53.8083 34.3754 52.7924 33.6758 51.544L33.54 51.291C33.0792 50.3863 32.9047 49.4396 32.8252 48.4668C32.7479 47.5203 32.75 46.3628 32.75 45V43C32.75 41.6372 32.7479 40.4798 32.8252 39.5332C32.9047 38.5605 33.0792 37.6137 33.54 36.709L33.6758 36.4561C34.3754 35.2076 35.4301 34.1917 36.709 33.54L37.0498 33.3809C37.8505 33.0376 38.6819 32.8948 39.5332 32.8252C40.4798 32.7479 41.6372 32.75 43 32.75H45ZM15 37.25C13.5629 37.25 12.6203 37.2517 11.8994 37.3106C11.3781 37.3531 11.0855 37.4196 10.9024 37.4854L10.752 37.5498C10.2992 37.7805 9.92048 38.1317 9.65626 38.5625L9.54981 38.752C9.46591 38.9167 9.36727 39.2052 9.31055 39.8994C9.25167 40.6203 9.25001 41.5629 9.25001 43V45C9.25001 46.4371 9.25167 47.3797 9.31055 48.1006C9.36727 48.7948 9.46591 49.0833 9.54981 49.2481L9.65626 49.4375C9.92048 49.8683 10.2992 50.2195 10.752 50.4502L10.9024 50.5147C11.0855 50.5805 11.3781 50.6469 11.8994 50.6895C12.6203 50.7483 13.5629 50.75 15 50.75H17C18.4371 50.75 19.3797 50.7483 20.1006 50.6895C20.7948 50.6327 21.0833 50.5341 21.2481 50.4502L21.4375 50.3438C21.8683 50.0795 22.2195 49.7009 22.4502 49.2481L22.5147 49.0977C22.5805 48.9145 22.6469 48.622 22.6895 48.1006C22.7483 47.3797 22.75 46.4371 22.75 45V43C22.75 41.5629 22.7483 40.6203 22.6895 39.8994C22.6469 39.3781 22.5805 39.0855 22.5147 38.9024L22.4502 38.752C22.2195 38.2992 21.8683 37.9205 21.4375 37.6563L21.2481 37.5498C21.0833 37.4659 20.7948 37.3673 20.1006 37.3106C19.3797 37.2517 18.4371 37.25 17 37.25H15ZM43 37.25C41.5629 37.25 40.6203 37.2517 39.8994 37.3106C39.3781 37.3531 39.0855 37.4196 38.9024 37.4854L38.752 37.5498C38.2992 37.7805 37.9205 38.1317 37.6563 38.5625L37.5498 38.752C37.4659 38.9167 37.3673 39.2052 37.3106 39.8994C37.2517 40.6203 37.25 41.5629 37.25 43V45C37.25 46.4371 37.2517 47.3797 37.3106 48.1006C37.3673 48.7948 37.4659 49.0833 37.5498 49.2481L37.6563 49.4375C37.9205 49.8683 38.2992 50.2195 38.752 50.4502L38.9024 50.5147C39.0855 50.5805 39.3781 50.6469 39.8994 50.6895C40.6203 50.7483 41.5629 50.75 43 50.75H45C46.4371 50.75 47.3797 50.7483 48.1006 50.6895C48.7948 50.6327 49.0833 50.5341 49.2481 50.4502L49.4375 50.3438C49.8683 50.0795 50.2195 49.7009 50.4502 49.2481L50.5147 49.0977C50.5805 48.9145 50.6469 48.622 50.6895 48.1006C50.7483 47.3797 50.75 46.4371 50.75 45V43C50.75 41.5629 50.7483 40.6203 50.6895 39.8994C50.6469 39.3781 50.5805 39.0855 50.5147 38.9024L50.4502 38.752C50.2195 38.2992 49.8683 37.9205 49.4375 37.6563L49.2481 37.5498C49.0833 37.4659 48.7948 37.3673 48.1006 37.3106C47.3797 37.2517 46.4371 37.25 45 37.25H43ZM17 4.75001C18.3628 4.75001 19.5203 4.7479 20.4668 4.8252C21.4396 4.90468 22.3863 5.07916 23.291 5.54004L23.544 5.67579C24.7924 6.37536 25.8083 7.43008 26.46 8.70899L26.6191 9.04981C26.9625 9.85049 27.1053 10.6819 27.1748 11.5332C27.2521 12.4798 27.25 13.6372 27.25 15V17C27.25 18.3628 27.2521 19.5203 27.1748 20.4668C27.1053 21.3182 26.9625 22.1495 26.6191 22.9502L26.46 23.291C25.8083 24.5699 24.7924 25.6247 23.544 26.3242L23.291 26.46C22.3863 26.9209 21.4396 27.0953 20.4668 27.1748C19.5203 27.2521 18.3628 27.25 17 27.25H15C13.6372 27.25 12.4798 27.2521 11.5332 27.1748C10.6819 27.1053 9.85049 26.9625 9.04981 26.6191L8.70899 26.46C7.43008 25.8083 6.37536 24.7924 5.67579 23.544L5.54004 23.291C5.07916 22.3863 4.90468 21.4396 4.8252 20.4668C4.7479 19.5203 4.75001 18.3628 4.75001 17V15C4.75001 13.6372 4.74789 12.4798 4.8252 11.5332C4.90468 10.5605 5.07916 9.6137 5.54004 8.70899L5.67579 8.45606C6.37536 7.20762 7.43008 6.19168 8.70899 5.54004L9.04981 5.38087C9.85049 5.03755 10.6819 4.89476 11.5332 4.8252C12.4798 4.74789 13.6372 4.75001 15 4.75001H17ZM45 4.75001C46.3628 4.75001 47.5203 4.7479 48.4668 4.8252C49.4396 4.90468 50.3863 5.07916 51.291 5.54004L51.544 5.67579C52.7924 6.37536 53.8083 7.43008 54.46 8.70899L54.6192 9.04981C54.9625 9.85049 55.1053 10.6819 55.1748 11.5332C55.2521 12.4798 55.25 13.6372 55.25 15V17C55.25 18.3628 55.2521 19.5203 55.1748 20.4668C55.1053 21.3182 54.9625 22.1495 54.6192 22.9502L54.46 23.291C53.8083 24.5699 52.7924 25.6247 51.544 26.3242L51.291 26.46C50.3863 26.9209 49.4396 27.0953 48.4668 27.1748C47.5203 27.2521 46.3628 27.25 45 27.25H43C41.6372 27.25 40.4798 27.2521 39.5332 27.1748C38.6819 27.1053 37.8505 26.9625 37.0498 26.6191L36.709 26.46C35.4301 25.8083 34.3754 24.7924 33.6758 23.544L33.54 23.291C33.0792 22.3863 32.9047 21.4396 32.8252 20.4668C32.7479 19.5203 32.75 18.3628 32.75 17V15C32.75 13.6372 32.7479 12.4798 32.8252 11.5332C32.9047 10.5605 33.0792 9.6137 33.54 8.70899L33.6758 8.45606C34.3754 7.20762 35.4301 6.19168 36.709 5.54004L37.0498 5.38087C37.8505 5.03755 38.6819 4.89476 39.5332 4.8252C40.4798 4.74789 41.6372 4.75001 43 4.75001H45ZM15 9.25001C13.5629 9.25001 12.6203 9.25167 11.8994 9.31055C11.3781 9.35315 11.0855 9.41956 10.9024 9.48536L10.752 9.54981C10.2992 9.78052 9.92048 10.1317 9.65626 10.5625L9.54981 10.752C9.46591 10.9167 9.36727 11.2052 9.31055 11.8994C9.25167 12.6203 9.25001 13.5629 9.25001 15V17C9.25001 18.4371 9.25167 19.3797 9.31055 20.1006C9.36727 20.7948 9.46591 21.0833 9.54981 21.2481L9.65626 21.4375C9.92048 21.8683 10.2992 22.2195 10.752 22.4502L10.9024 22.5147C11.0855 22.5805 11.3781 22.6469 11.8994 22.6895C12.6203 22.7483 13.5629 22.75 15 22.75H17C18.4371 22.75 19.3797 22.7483 20.1006 22.6895C20.7948 22.6327 21.0833 22.5341 21.2481 22.4502L21.4375 22.3438C21.8683 22.0795 22.2195 21.7008 22.4502 21.2481L22.5147 21.0977C22.5805 20.9145 22.6469 20.6219 22.6895 20.1006C22.7483 19.3797 22.75 18.4371 22.75 17V15C22.75 13.5629 22.7483 12.6203 22.6895 11.8994C22.6469 11.3781 22.5805 11.0855 22.5147 10.9024L22.4502 10.752C22.2195 10.2992 21.8683 9.92048 21.4375 9.65626L21.2481 9.54981C21.0833 9.46591 20.7948 9.36727 20.1006 9.31055C19.3797 9.25167 18.4371 9.25001 17 9.25001H15ZM43 9.25001C41.5629 9.25001 40.6203 9.25167 39.8994 9.31055C39.3781 9.35315 39.0855 9.41956 38.9024 9.48536L38.752 9.54981C38.2992 9.78052 37.9205 10.1317 37.6563 10.5625L37.5498 10.752C37.4659 10.9167 37.3673 11.2052 37.3106 11.8994C37.2517 12.6203 37.25 13.5629 37.25 15V17C37.25 18.4371 37.2517 19.3797 37.3106 20.1006C37.3673 20.7948 37.4659 21.0833 37.5498 21.2481L37.6563 21.4375C37.9205 21.8683 38.2992 22.2195 38.752 22.4502L38.9024 22.5147C39.0855 22.5805 39.3781 22.6469 39.8994 22.6895C40.6203 22.7483 41.5629 22.75 43 22.75H45C46.4371 22.75 47.3797 22.7483 48.1006 22.6895C48.7948 22.6327 49.0833 22.5341 49.2481 22.4502L49.4375 22.3438C49.8683 22.0795 50.2195 21.7008 50.4502 21.2481L50.5147 21.0977C50.5805 20.9145 50.6469 20.6219 50.6895 20.1006C50.7483 19.3797 50.75 18.4371 50.75 17V15C50.75 13.5629 50.7483 12.6203 50.6895 11.8994C50.6469 11.3781 50.5805 11.0855 50.5147 10.9024L50.4502 10.752C50.2195 10.2992 49.8683 9.92048 49.4375 9.65626L49.2481 9.54981C49.0833 9.46591 48.7948 9.36727 48.1006 9.31055C47.3797 9.25167 46.4371 9.25001 45 9.25001H43Z"
  />
</svg>
