<svg
  width="60"
  height="60"
  viewBox="0 0 60 60"
  fill="currentColor"
  xmlns="http://www.w3.org/2000/svg"
>
  <path
    fill-rule="evenodd"
    clip-rule="evenodd"
    d="M13.25 37.4542C7.61705 34.6134 3.75 28.7707 3.75 22.0209C3.75 12.4854 11.4701 4.75 21 4.75C30.5299 4.75 38.25 12.4854 38.25 22.0209C38.25 28.5697 34.6092 34.2646 29.25 37.1918V39.6647L42.1578 42.3124C45.9952 43.0996 48.75 46.4768 48.75 50.3942V54C48.75 55.2426 47.7426 56.25 46.5 56.25C45.2574 56.25 44.25 55.2426 44.25 54V50.3942C44.25 48.6136 42.9978 47.0785 41.2535 46.7206L27.4403 43.8872C25.8742 43.5659 24.75 42.1877 24.75 40.589V24.25C24.75 22.317 23.183 20.75 21.25 20.75C19.317 20.75 17.75 22.317 17.75 24.25V54C17.75 55.2426 16.7426 56.25 15.5 56.25C14.2574 56.25 13.25 55.2426 13.25 54V37.4542ZM8.25 22.0209C8.25 14.9648 13.9613 9.25 21 9.25C28.0387 9.25 33.75 14.9648 33.75 22.0209C33.75 25.9214 32.0046 29.4151 29.25 31.7588V24.25C29.25 19.8317 25.6683 16.25 21.25 16.25C16.8317 16.25 13.25 19.8317 13.25 24.25V32.1632C10.2092 29.8282 8.25 26.1527 8.25 22.0209Z"
  />
</svg>
