<svg
  width="60"
  height="60"
  viewBox="0 0 60 60"
  fill="currentColor"
  xmlns="http://www.w3.org/2000/svg"
>
  <path
    fill-rule="evenodd"
    clip-rule="evenodd"
    d="M51.0278 15.9587C52.4169 13.49 51.8876 10.3127 49.6271 8.43414C47.3718 6.55982 44.1389 6.59935 41.9394 8.38817C36.4527 6.57516 30.2449 7.79759 25.8642 11.8392C25.5506 12.0262 25.2881 12.2865 25.0984 12.5945C24.8896 12.8146 24.6859 13.0417 24.4874 13.2759C20.6638 17.7891 19.7862 23.78 21.6477 28.9549C21.2135 32.6601 19.6001 34.5962 17.6218 36.9312C16.9331 37.7441 15.8652 38.3383 14.1924 39.2622C12.6712 40.1024 10.719 41.1908 9.20102 42.9825C7.65355 44.809 6.86927 46.9869 7.06559 49.2092C7.26186 51.431 8.41539 53.4387 10.2572 54.9694C12.0995 56.5004 14.2857 57.2685 16.5081 57.0759C18.7309 56.8833 20.7514 55.7503 22.2992 53.9233C23.8188 52.1298 24.5636 50.0327 25.1353 48.4017C25.7636 46.6095 26.1673 45.4699 26.8541 44.6593C28.8319 42.3248 30.4833 40.4049 34.1173 39.3342C39.5738 40.2541 45.3646 38.3625 49.1834 33.8551C49.3819 33.6208 49.5725 33.3825 49.7551 33.1406C50.0282 32.9025 50.242 32.6004 50.3748 32.26C53.6343 27.2818 53.7759 21.0055 51.0278 15.9587ZM46.9756 29.1957C49.6647 24.4749 48.6689 18.3824 44.3181 14.7666C39.9584 11.1435 33.7017 11.2295 29.4604 14.6757C29.608 15.3046 29.8539 16.1597 30.2562 17.1495C31.1469 19.3408 32.7965 22.1769 35.8406 24.7067C38.8856 27.2372 41.9964 28.3565 44.3379 28.8463C45.4117 29.071 46.3192 29.1621 46.9756 29.1957ZM26.1559 19.0106C24.173 23.5493 25.3258 29.0177 29.3528 32.3643C33.3722 35.7046 39.0039 35.8923 43.1823 33.2007C40.3078 32.5683 36.5857 31.177 32.9644 28.1676C29.3183 25.1375 27.2824 21.7202 26.1559 19.0106ZM28.2666 37.1185C27.6493 36.7336 27.0511 36.3026 26.4767 35.8252C25.8871 35.3353 25.3418 34.8124 24.8411 34.2615C23.8152 36.5828 22.388 38.2671 21.0987 39.7887L21.0552 39.8401C19.808 41.3122 18.051 42.2769 16.6664 43.0372C16.5648 43.093 16.4652 43.1477 16.3679 43.2014C14.7938 44.0707 13.5494 44.8115 12.6344 45.8914C11.749 46.9365 11.4723 47.9548 11.5481 48.8132C11.624 49.6721 12.0757 50.6295 13.1333 51.5085C14.1905 52.387 15.2314 52.6697 16.1196 52.5927C17.0074 52.5158 17.9808 52.059 18.8658 51.0144C19.7792 49.9363 20.2981 48.5978 20.8887 46.9131C20.9252 46.8089 20.9622 46.7024 21.0001 46.5936C21.5158 45.1105 22.1716 43.2247 23.4206 41.7504L23.4609 41.7029C24.7447 40.1874 26.1615 38.515 28.2666 37.1185Z"
  />
</svg>
