<svg
  width="60"
  height="60"
  viewBox="0 0 60 60"
  fill="currentColor"
  xmlns="http://www.w3.org/2000/svg"
>
  <path
    fill-rule="evenodd"
    clip-rule="evenodd"
    d="M19.5365 4.74988C16.2621 4.74845 14.0233 4.74747 12.1523 5.42848C9.02742 6.56584 6.56584 9.02742 5.42848 12.1523C4.74747 14.0233 4.74845 16.2621 4.74988 19.5365V20.4635C4.74845 23.7379 4.74747 25.9767 5.42848 27.8477C6.56584 30.9726 9.02742 33.4342 12.1523 34.5716C14.0233 35.2526 16.2621 35.2516 19.5365 35.2502L21.75 35.25V53C21.75 54.2427 22.7574 55.25 24 55.25C25.2427 55.25 26.25 54.2427 26.25 53V26.25C26.25 24.317 27.817 22.75 29.75 22.75C31.683 22.75 33.25 24.317 33.25 26.25V39.7299C33.25 41.2253 34.2787 42.5241 35.7343 42.8666L45.1847 45.0902C47.4114 45.6141 48.0131 45.7835 48.4471 46.0472C49.2137 46.5129 49.7879 47.238 50.0657 48.0908C50.2229 48.5737 50.25 49.1982 50.25 51.4857V53C50.25 54.2427 51.2574 55.25 52.5 55.25C53.7427 55.25 54.75 54.2427 54.75 53L54.7502 51.1588C54.7516 49.3568 54.7527 47.9508 54.3445 46.6973C53.7334 44.821 52.47 43.2259 50.7836 42.2013C49.6569 41.5168 48.2881 41.1959 46.5337 40.7846L37.75 38.718V35.25L40.4635 35.2502C43.7379 35.2516 45.9767 35.2526 47.8477 34.5716C50.9726 33.4342 53.4342 30.9726 54.5716 27.8477C55.2526 25.9767 55.2516 23.7379 55.2502 20.4635V19.5366C55.2516 16.2621 55.2526 14.0233 54.5716 12.1523C53.4342 9.02742 50.9726 6.56584 47.8477 5.42848C45.9767 4.74747 43.7379 4.74845 40.4635 4.74988H19.5365ZM37.75 30.75H40C43.9203 30.75 45.2842 30.7158 46.3087 30.3429C48.1836 29.6605 49.6605 28.1836 50.3429 26.3087C50.7158 25.2842 50.75 23.9203 50.75 20C50.75 16.0797 50.7158 14.7158 50.3429 13.6914C49.6605 11.8165 48.1836 10.3395 46.3087 9.65709C45.2842 9.28422 43.9203 9.25002 40 9.25002H20C16.0797 9.25002 14.7158 9.28422 13.6914 9.65709C11.8165 10.3395 10.3395 11.8165 9.65709 13.6914C9.28422 14.7158 9.25002 16.0797 9.25002 20C9.25002 23.9203 9.28422 25.2842 9.65709 26.3087C10.3395 28.1836 11.8165 29.6605 13.6914 30.3429C14.7158 30.7158 16.0797 30.75 20 30.75H21.75V26.25C21.75 21.8317 25.3317 18.25 29.75 18.25C34.1683 18.25 37.75 21.8317 37.75 26.25V30.75Z"
  />
</svg>
