<svg
  width="60"
  height="60"
  viewBox="0 0 60 60"
  fill="currentColor"
  xmlns="http://www.w3.org/2000/svg"
>
  <path
    d="M31.7526 3.27003C31.395 3.24994 30.9893 3.24997 30.3772 3.25L20.5496 3.25001C17.7263 3.24998 15.4651 3.24997 13.6373 3.3993C11.7605 3.55264 10.1359 3.87502 8.64036 4.63703C6.24586 5.85709 4.29907 7.80387 3.07901 10.1984C2.31701 11.6939 1.99463 13.3185 1.84129 15.1954C1.69195 17.0231 1.69197 19.2844 1.69199 22.1076L1.69194 29.9497C1.69137 32.4 1.69098 34.0265 2.01105 35.4288C3.0988 40.1946 6.82025 43.916 11.586 45.0038C12.9883 45.3238 14.6148 45.3234 17.0651 45.3229L19.4635 45.3228C19.9757 45.3228 20.391 45.7381 20.391 46.2504C20.391 52.0491 25.0919 56.75 30.8907 56.75H39.451C42.2741 56.75 44.5354 56.75 46.3631 56.6007C48.24 56.4474 49.8646 56.125 51.3601 55.363C53.7546 54.1429 55.7014 52.1961 56.9215 49.8016C57.6835 48.3061 58.0059 46.6815 58.1592 44.8047C58.3085 42.977 58.3085 40.7158 58.3085 37.8927V31.5583C58.3085 24.53 52.611 18.8325 45.5828 18.8325C44.5787 18.8325 43.7648 18.0186 43.7648 17.0146V16.6376C43.7648 16.0255 43.7649 15.6198 43.7448 15.2622C43.3816 8.7955 38.2193 3.63319 31.7526 3.27003Z"
  />
  <path
    fill-rule="evenodd"
    clip-rule="evenodd"
    d="M18.4302 14.2962L13.7094 23.8426L11.4462 28.2432C10.8437 29.4148 11.305 30.8529 12.4766 31.4554C13.6481 32.058 15.0863 31.5967 15.6888 30.4251L17.2948 27.3022H25.7426L27.3486 30.4251C27.9511 31.5967 29.3893 32.058 30.5608 31.4554C31.7324 30.8529 32.1937 29.4148 31.5912 28.2432L29.328 23.8426L24.6072 14.2962C23.3425 11.7385 19.6949 11.7385 18.4302 14.2962ZM19.6799 22.5315L21.5187 18.8131L23.3575 22.5315H19.6799Z"
    fill="white"
  />
  <path
    d="M46.8688 32.1649C47.2612 30.9073 46.5597 29.5697 45.3021 29.1774C44.0445 28.785 42.707 29.4864 42.3146 30.744C41.6894 32.7477 40.6087 35.4956 39.0498 37.5317C38.4994 36.847 37.9984 36.1691 37.5789 35.5744C36.8196 34.4979 35.3313 34.2408 34.2548 35.0001C33.1782 35.7595 32.9211 37.2478 33.6805 38.3243C34.1665 39.0133 34.7817 39.8469 35.4832 40.7081C34.1801 41.5493 32.6221 42.3233 30.7753 42.9948C29.5372 43.445 28.8984 44.8136 29.3486 46.0517C29.7988 47.2898 31.1674 47.9285 32.4055 47.4783C34.9162 46.5654 37.0797 45.4478 38.9021 44.1532C40.1105 45.0158 41.5569 45.7431 42.6748 46.2579C43.4745 46.6261 44.2047 46.929 44.7347 47.1399C45.0005 47.2457 45.218 47.3292 45.3712 47.3869C45.4478 47.4158 45.5085 47.4384 45.5512 47.4541L45.6017 47.4726L45.6163 47.4779L45.6238 47.4806C46.8631 47.9273 48.2299 47.2848 48.6766 46.0454C49.1233 44.8062 48.4806 43.4394 47.2415 42.9925L47.2346 42.99L47.2002 42.9774C47.1683 42.9657 47.1191 42.9474 47.0545 42.923C46.9252 42.8743 46.7347 42.8013 46.4985 42.7073C46.0246 42.5187 45.3747 42.2489 44.6703 41.9245C43.9035 41.5714 43.1616 41.1933 42.5294 40.8216C44.8234 38.0023 46.1829 34.3632 46.8688 32.1649Z"
    fill="white"
  />
</svg>
