<svg
  width="60"
  height="60"
  viewBox="0 0 60 60"
  fill="currentColor"
  xmlns="http://www.w3.org/2000/svg"
>
  <path
    fill-rule="evenodd"
    clip-rule="evenodd"
    d="M10.2534 13.6756C9.36925 13.5938 8.50003 13.9439 7.91943 14.6156C7.81567 14.7357 7.54195 15.2152 7.39347 16.9013C7.25212 18.5064 7.25 20.7146 7.25 23.8622V36.1378C7.25 39.2854 7.25212 41.4936 7.39347 43.0987C7.54195 44.7848 7.81567 45.2643 7.91943 45.3844C8.50003 46.0561 9.36925 46.4062 10.2534 46.3244C10.4114 46.3098 10.941 46.1538 12.2167 45.0414C13.4311 43.9823 14.9632 42.3921 17.1448 40.1232L26.8786 30L17.1448 19.8768C14.9632 17.6079 13.4311 16.0176 12.2167 14.9586C10.941 13.8461 10.4114 13.6902 10.2534 13.6756ZM30 26.7537L20.3079 16.674C18.2254 14.5081 16.5564 12.7723 15.1744 11.5671C13.8358 10.3998 12.3634 9.35158 10.668 9.19471C8.3371 8.97904 6.04553 9.90203 4.51485 11.673C3.40147 12.9612 3.06662 14.7374 2.91082 16.5066C2.74995 18.3332 2.74997 20.7413 2.75 23.7458V36.2542C2.74997 39.2587 2.74995 41.6667 2.91082 43.4934C3.06662 45.2626 3.40147 47.0388 4.51485 48.327C6.04553 50.098 8.3371 51.0209 10.668 50.8053C12.3634 50.6484 13.8358 49.6002 15.1744 48.4329C16.5564 47.2276 18.2254 45.4918 20.3079 43.326L30 33.2462L39.6922 43.3261C41.7746 45.4919 43.4436 47.2277 44.8256 48.4329C46.1642 49.6002 47.6366 50.6484 49.332 50.8053C51.6629 51.0209 53.9545 50.098 55.4852 48.327C56.5985 47.0388 56.9334 45.2626 57.0892 43.4934C57.25 41.6668 57.25 39.2588 57.25 36.2542V23.7458C57.25 20.7412 57.25 18.3332 57.0892 16.5066C56.9334 14.7374 56.5985 12.9612 55.4852 11.673C53.9545 9.90203 51.6629 8.97904 49.332 9.19471C47.6366 9.35158 46.1642 10.3998 44.8256 11.5671C43.4436 12.7723 41.7746 14.5081 39.6921 16.674L30 26.7537ZM33.1214 30L42.8552 40.1232C45.0368 42.3921 46.5689 43.9823 47.7833 45.0414C49.059 46.1538 49.5886 46.3098 49.7466 46.3244C50.6308 46.4062 51.5 46.0561 52.0806 45.3844C52.1843 45.2643 52.458 44.7848 52.6065 43.0987C52.7479 41.4936 52.75 39.2854 52.75 36.1378V23.8622C52.75 20.7146 52.7479 18.5064 52.6065 16.9013C52.458 15.2152 52.1843 14.7357 52.0806 14.6156C51.5 13.9439 50.6308 13.5938 49.7466 13.6756C49.5886 13.6902 49.059 13.8461 47.7833 14.9586C46.5689 16.0176 45.0368 17.6079 42.8552 19.8768L33.1214 30Z"
  />
</svg>
