<svg
  width="60"
  height="60"
  viewBox="0 0 60 60"
  fill="currentColor"
  xmlns="http://www.w3.org/2000/svg"
>
  <path
    fill-rule="evenodd"
    clip-rule="evenodd"
    d="M48.25 4C48.25 2.75736 47.2426 1.75 46 1.75C44.7574 1.75 43.75 2.75736 43.75 4V11.75L36 11.75C34.7574 11.75 33.75 12.7574 33.75 14C33.75 15.2426 34.7574 16.25 36 16.25L43.75 16.25V24C43.75 25.2426 44.7574 26.25 46 26.25C47.2426 26.25 48.25 25.2426 48.25 24V16.25L56 16.25C57.2426 16.25 58.25 15.2426 58.25 14C58.25 12.7574 57.2426 11.75 56 11.75L48.25 11.75V4ZM10.2534 13.6756C9.36925 13.5938 8.50003 13.9439 7.91943 14.6156C7.81567 14.7357 7.54195 15.2152 7.39347 16.9013C7.25212 18.5064 7.25 20.7146 7.25 23.8622V36.1378C7.25 39.2854 7.25212 41.4936 7.39347 43.0987C7.54195 44.7848 7.81567 45.2643 7.91943 45.3844C8.50003 46.0561 9.36925 46.4062 10.2534 46.3244C10.4114 46.3098 10.941 46.1538 12.2167 45.0414C13.4311 43.9824 14.9632 42.3921 17.1448 40.1232L26.8786 30L17.1448 19.8768C14.9632 17.6079 13.4311 16.0176 12.2167 14.9586C10.941 13.8462 10.4114 13.6902 10.2534 13.6756ZM30 26.7538L20.3885 16.7578L20.3079 16.674L20.3079 16.674C18.2254 14.5081 16.5564 12.7723 15.1744 11.5671C13.8358 10.3998 12.3634 9.35158 10.668 9.19471C8.3371 8.97905 6.04553 9.90204 4.51485 11.673C3.40147 12.9612 3.06662 14.7374 2.91082 16.5066C2.74995 18.3332 2.74997 20.7412 2.75 23.7458V23.7458V23.8622V36.1378V36.2542C2.74997 39.2587 2.74995 41.6668 2.91082 43.4934C3.06662 45.2626 3.40147 47.0388 4.51485 48.327C6.04553 50.098 8.3371 51.021 10.668 50.8053C12.3634 50.6484 13.8358 49.6002 15.1744 48.4329C16.5564 47.2277 18.2254 45.4919 20.3078 43.3261L20.3885 43.2422L30 33.2462L39.6115 43.2422L39.6922 43.3261C41.7746 45.4919 43.4436 47.2277 44.8256 48.4329C46.1642 49.6002 47.6366 50.6484 49.332 50.8053C51.6629 51.021 53.9545 50.098 55.4852 48.327C56.5985 47.0388 56.9334 45.2626 57.0892 43.4934C57.25 41.6668 57.25 39.2589 57.25 36.2544V36.2543V36.2542V36.1378V23C57.25 21.7574 56.2426 20.75 55 20.75C53.7574 20.75 52.75 21.7574 52.75 23V36.1378C52.75 39.2854 52.7479 41.4936 52.6065 43.0987C52.458 44.7848 52.1843 45.2643 52.0806 45.3844C51.5 46.0561 50.6308 46.4062 49.7466 46.3244C49.5886 46.3098 49.059 46.1538 47.7833 45.0414C46.5689 43.9824 45.0368 42.3921 42.8552 40.1232L33.1214 30L38.5166 24.3889C39.3779 23.4932 39.35 22.0689 38.4543 21.2076C37.5585 20.3463 36.1342 20.3742 35.2729 21.27L30 26.7538Z"
  />
</svg>
