<svg
  width="60"
  height="60"
  viewBox="0 0 60 60"
  fill="currentColor"
  xmlns="http://www.w3.org/2000/svg"
>
  <path
    fill-rule="evenodd"
    clip-rule="evenodd"
    d="M49.0814 29.8572C50.2649 30.2362 50.9171 31.5028 50.5381 32.6862C49.497 35.9375 47.3905 41.3429 43.823 45.1434C44.9747 45.9091 46.5016 46.6888 48.0159 47.3682C49.0356 47.8258 49.9745 48.2055 50.6588 48.4708C51.0002 48.6031 51.2763 48.7063 51.4651 48.7757C51.5594 48.8103 51.6318 48.8365 51.6795 48.8536L51.7321 48.8724L51.7439 48.8766L51.7456 48.8772C52.9178 49.2891 53.5346 50.5733 53.1229 51.7456C52.7111 52.918 51.4268 53.5347 50.2544 53.1229L51 51C50.2544 53.1229 50.2547 53.123 50.2544 53.1229L50.2532 53.1225L50.2514 53.1219L50.2458 53.1199L50.2269 53.1132L50.1594 53.0891C50.1016 53.0684 50.0186 53.0383 49.9131 52.9996C49.7022 52.9221 49.401 52.8095 49.0321 52.6665C48.2958 52.381 47.2821 51.9712 46.1738 51.4739C44.3607 50.6604 42.0541 49.5097 40.3545 48.1883C37.7353 50.1143 34.5427 51.7777 30.7514 53.1209C29.5801 53.5358 28.2941 52.9227 27.8792 51.7514C27.4642 50.5801 28.0773 49.2942 29.2486 48.8792C32.4054 47.7608 35.0072 46.4327 37.1208 44.9681C35.8519 43.5193 34.7375 42.0617 33.8926 40.8947C33.1639 39.8882 33.3892 38.4815 34.3957 37.7528C35.4023 37.0241 36.809 37.2493 37.5377 38.2559C38.3545 39.3842 39.3974 40.7418 40.5508 42.0544C43.389 39.0271 45.2512 34.4407 46.2525 31.3139C46.6314 30.1304 47.898 29.4783 49.0814 29.8572Z"
  />
  <path
    fill-rule="evenodd"
    clip-rule="evenodd"
    d="M20 14.076L15.7655 22.6389H24.2344L20 14.076ZM26.4842 27.1389H13.5158L11.0009 32.0291C10.4326 33.1341 9.07602 33.5693 7.97096 33.0009C6.86589 32.4326 6.43077 31.0761 6.99908 29.971L10.1338 23.8757L16.1903 11.6281C17.7504 8.47326 22.2496 8.47326 23.8096 11.6281L29.8662 23.8757L33.0009 29.971C33.5692 31.0761 33.1341 32.4326 32.029 33.0009C30.9239 33.5693 29.5674 33.1341 28.9991 32.0291L26.4842 27.1389Z"
  />
  <path
    fill-rule="evenodd"
    clip-rule="evenodd"
    d="M13 35.75C14.2426 35.75 15.25 36.7574 15.25 38V41C15.25 43.0711 16.9289 44.75 19 44.75H22C23.2426 44.75 24.25 45.7574 24.25 47C24.25 48.2427 23.2426 49.25 22 49.25H19C14.4436 49.25 10.75 45.5564 10.75 41V38C10.75 36.7574 11.7573 35.75 13 35.75Z"
  />
  <path
    fill-rule="evenodd"
    clip-rule="evenodd"
    d="M47 24.25C45.7573 24.25 44.75 23.2427 44.75 22V19C44.75 16.929 43.0711 15.25 41 15.25H38C36.7573 15.25 35.75 14.2427 35.75 13C35.75 11.7574 36.7573 10.75 38 10.75L41 10.75C45.5563 10.75 49.25 14.4437 49.25 19V22C49.25 23.2427 48.2426 24.25 47 24.25Z"
  />
</svg>
