<svg
  width="60"
  height="60"
  viewBox="0 0 60 60"
  fill="currentColor"
  xmlns="http://www.w3.org/2000/svg"
>
  <path
    fill-rule="evenodd"
    clip-rule="evenodd"
    d="M30.2796 10.25C30.7589 10.25 30.9141 10.2506 31.0332 10.2551C34.6893 10.3948 37.6211 13.3266 37.7608 16.9827C37.7654 17.1019 37.7659 17.2571 37.7659 17.7363V18.016C37.7659 21.835 40.8618 24.9309 44.6808 24.9309C48.4293 24.9309 51.4681 27.9696 51.4681 31.7181V37.5904C51.4681 40.2769 51.466 42.1215 51.3555 43.5543C51.2474 44.955 51.0491 45.7116 50.7878 46.2601C50.097 47.7104 48.9284 48.879 47.4781 49.5698C46.9296 49.831 46.1731 50.0294 44.7724 50.1374C43.3396 50.2479 41.4949 50.25 38.8085 50.25H30.8389C28.2487 50.25 26.1489 48.1502 26.1489 45.56C26.1489 42.2044 23.4286 39.4841 20.0729 39.4841H18.1155C15.5657 39.4841 14.7438 39.4685 14.1212 39.3404C11.3808 38.7766 9.23933 36.6351 8.67551 33.8947C8.54741 33.2721 8.53189 32.4503 8.53189 29.9005V23.25C8.53189 20.4002 8.53422 18.4433 8.65817 16.9263C8.77925 15.4443 9.00128 14.6482 9.29484 14.0721C9.96596 12.7549 11.0368 11.6841 12.354 11.013C12.9301 10.7194 13.7262 10.4974 15.2082 10.3763C16.7252 10.2523 18.6821 10.25 21.5319 10.25H30.2796ZM30.3425 4.25L30.2796 4.25001H21.5319L21.4062 4.25C18.7127 4.24997 16.5099 4.24994 14.7196 4.39621C12.8666 4.54761 11.193 4.87055 9.63001 5.66692C7.18391 6.91327 5.19516 8.90202 3.94881 11.3481C3.15244 12.9111 2.8295 14.5847 2.6781 16.4377C2.53183 18.228 2.53185 20.4308 2.53189 23.1243L2.53189 23.25V29.9005L2.53181 30.235C2.53108 32.3111 2.53056 33.8011 2.7986 35.1039C3.84571 40.1932 7.82273 44.1702 12.9121 45.2173C14.2149 45.4854 15.7048 45.4849 17.7809 45.4841L18.1155 45.4841H20.0729C20.0889 45.4841 20.0967 45.4867 20.1016 45.4888C20.1085 45.4917 20.1176 45.4973 20.1267 45.5063C20.1357 45.5154 20.1412 45.5245 20.1442 45.5314C20.1463 45.5363 20.1489 45.544 20.1489 45.56C20.1489 51.4639 24.935 56.25 30.8389 56.25H38.8085H38.9267C41.4659 56.25 43.5429 56.2501 45.2338 56.1197C46.9829 55.9848 48.5664 55.6973 50.0582 54.9867C52.7516 53.7039 54.9219 51.5336 56.2048 48.8401C56.9153 47.3484 57.2028 45.7649 57.3377 44.0157C57.4681 42.325 57.4681 40.2483 57.4681 37.7092V37.5904V31.7181C57.4681 24.6559 51.743 18.9309 44.6808 18.9309C44.1755 18.9309 43.7659 18.5212 43.7659 18.016V17.7363V17.6736C43.766 17.2829 43.766 17.003 43.7564 16.7536C43.497 9.96367 38.0523 4.51896 31.2624 4.25949C31.013 4.24996 30.7331 4.24998 30.3425 4.25ZM19.3285 16.3846C20.5853 13.6914 24.415 13.6914 25.6718 16.3846L31.7656 29.4428C32.3495 30.694 31.8085 32.1816 30.5574 32.7655C29.3062 33.3493 27.8186 32.8084 27.2347 31.5572L26.508 30H18.4923L17.7656 31.5572C17.1817 32.8084 15.6941 33.3493 14.4429 32.7655C13.1918 32.1816 12.6508 30.694 13.2347 29.4428L19.3285 16.3846ZM20.8256 25H24.1747L22.5002 21.4118L20.8256 25Z"
  />
  <path
    d="M44.2652 30.6162C45.5817 31.0323 46.3116 32.4369 45.8955 33.7534C45.3811 35.3811 44.3871 38.0463 42.728 40.2877C43.0623 40.462 43.425 40.6381 43.8032 40.81C44.3617 41.0639 44.8777 41.2753 45.2545 41.4233C45.442 41.497 45.5929 41.5541 45.6947 41.592C45.7455 41.6109 45.784 41.625 45.8085 41.6339L45.8345 41.6433L45.8387 41.6448C47.1392 42.1079 47.8183 43.5374 47.3555 44.8381C46.8926 46.1389 45.4629 46.8182 44.1621 46.3553L44.0998 46.3329L44.0306 46.3076L43.9503 46.2778C43.8237 46.2307 43.6447 46.1629 43.4264 46.0772C42.9914 45.9063 42.3916 45.6607 41.7341 45.3618C40.9256 44.9942 39.8669 44.4755 38.9131 43.8476C37.4615 44.8213 35.7717 45.6614 33.8448 46.353C32.5452 46.8195 31.1136 46.1441 30.6471 44.8446C30.1807 43.5451 30.856 42.1135 32.1556 41.647C33.3483 41.2189 34.3817 40.7399 35.2726 40.2266C34.8761 39.7239 34.5245 39.2487 34.2319 38.8391C33.4292 37.7157 33.6891 36.1543 34.8125 35.3516C35.9359 34.5489 37.4974 34.8089 38.3001 35.9323C38.5135 36.2309 38.7521 36.5545 39.0094 36.8877C39.9805 35.4322 40.6882 33.638 41.128 32.2466C41.5441 30.9301 42.9486 30.2001 44.2652 30.6162Z"
  />
</svg>
