<svg
  width="60"
  height="60"
  viewBox="0 0 60 60"
  fill="currentColor"
  xmlns="http://www.w3.org/2000/svg"
>
  <path
    fill-rule="evenodd"
    clip-rule="evenodd"
    d="M31.4345 9.2622C31.2333 9.2509 30.9795 9.25001 30.2857 9.25001H21C18.1626 9.25001 16.1699 9.25176 14.6152 9.37878C13.0868 9.50365 12.1811 9.73829 11.4815 10.0947C10.0233 10.8377 8.83769 12.0233 8.09467 13.4816C7.73826 14.1811 7.50361 15.0869 7.37874 16.6152C7.25172 18.1699 7.24997 20.1626 7.24997 23V30.1429C7.24997 32.9224 7.26419 33.9355 7.44428 34.7245C8.10672 37.6269 10.3731 39.8933 13.2754 40.5557C14.0645 40.7358 15.0776 40.75 17.8571 40.75H19.8571C22.8355 40.75 25.25 43.1645 25.25 46.1429C25.25 49.2396 27.7604 51.75 30.8571 51.75H39C41.8374 51.75 43.8301 51.7483 45.3847 51.6212C46.9131 51.4964 47.8189 51.2617 48.5184 50.9053C49.9767 50.1623 51.1623 48.9767 51.9053 47.5184C52.2617 46.8189 52.4963 45.9131 52.6212 44.3848C52.7482 42.8301 52.75 40.8374 52.75 38V32C52.75 27.7198 49.2802 24.25 45 24.25C41.5482 24.25 38.75 21.4518 38.75 18V17.7143C38.75 17.0205 38.7491 16.7667 38.7378 16.5655C38.5166 12.6272 35.3728 9.48336 31.4345 9.2622ZM30.3628 4.75C30.9521 4.74997 31.3426 4.74994 31.6868 4.76928C37.9118 5.11886 42.8811 10.0882 43.2307 16.3131C43.25 16.6574 43.25 17.0479 43.25 17.6371V18C43.25 18.9665 44.0335 19.75 45 19.75C51.7655 19.75 57.25 25.2345 57.25 32V38.0974C57.25 40.8151 57.25 42.9918 57.1063 44.7512C56.9586 46.5579 56.6483 48.1218 55.9148 49.5614C54.7404 51.8664 52.8663 53.7404 50.5614 54.9148C49.1217 55.6484 47.5578 55.9587 45.7512 56.1063C43.9918 56.25 41.8151 56.25 39.0974 56.25H30.8571C25.2751 56.25 20.75 51.7249 20.75 46.1429C20.75 45.6498 20.3502 45.25 19.8571 45.25H17.8571C17.7527 45.25 17.6498 45.25 17.5483 45.2501C15.1897 45.2506 13.624 45.251 12.2741 44.9429C7.68652 43.8958 4.10419 40.3135 3.05711 35.7259C2.749 34.376 2.74937 32.8102 2.74992 30.4516C2.74995 30.3502 2.74997 30.2473 2.74997 30.1429L2.74997 22.9026C2.74995 20.1849 2.74993 18.0082 2.89369 16.2488C3.0413 14.4421 3.35162 12.8782 4.08514 11.4386C5.25959 9.13364 7.1336 7.25962 9.43859 6.08518C10.8782 5.35166 12.4421 5.04133 14.2488 4.89372C16.0082 4.74997 18.1849 4.74999 20.9026 4.75001L30.3628 4.75Z"
  />
  <path
    fill-rule="evenodd"
    clip-rule="evenodd"
    d="M43.9336 29.8521C45.1199 30.2222 45.7815 31.4839 45.4114 32.6702C44.7644 34.7437 43.482 38.1762 41.3182 40.8356C41.9145 41.1862 42.6144 41.5429 43.3377 41.8759C44.0021 42.1819 44.6151 42.4364 45.0622 42.6143C45.2849 42.7029 45.4646 42.7718 45.5866 42.8178C45.6475 42.8408 45.6939 42.858 45.724 42.869L45.7565 42.881L45.7629 42.8833C46.9317 43.3048 47.538 44.5941 47.1167 45.763C46.6953 46.932 45.406 47.5381 44.237 47.1167L45 45C44.237 47.1167 44.237 47.1167 44.237 47.1167L44.23 47.1142L44.2162 47.1091L44.1686 47.0917C44.1283 47.0769 44.0711 47.0556 43.9988 47.0284C43.8543 46.9739 43.6491 46.8952 43.3984 46.7954C42.8985 46.5965 42.2097 46.3107 41.4554 45.9634C40.4009 45.4778 39.0366 44.7918 37.8968 43.9782C36.1778 45.1992 34.137 46.2535 31.7688 47.1146C30.601 47.5392 29.31 46.9367 28.8854 45.7689C28.4608 44.601 29.0633 43.3101 30.2311 42.8854C31.9731 42.252 33.4427 41.522 34.6719 40.7285C34.0102 39.9162 33.4299 39.1299 32.9715 38.48C32.2552 37.4646 32.4977 36.0607 33.5132 35.3445C34.5286 34.6282 35.9324 34.8707 36.6487 35.8862C37.0444 36.4471 37.517 37.0865 38.0361 37.7324C39.5066 35.8119 40.5259 33.2198 41.1156 31.3299C41.4857 30.1436 42.7474 29.482 43.9336 29.8521Z"
  />
  <path
    fill-rule="evenodd"
    clip-rule="evenodd"
    d="M21.5 20.0759L19.7655 23.5833H23.2344L21.5 20.0759ZM14.1338 24.8201L18.5867 15.8153C19.7797 13.4028 23.2202 13.4028 24.4132 15.8153L28.8661 24.8201L31.0009 28.971C31.5692 30.076 31.1341 31.4326 30.029 32.0009C28.9239 32.5692 27.5674 32.1341 26.9991 31.029L25.4841 28.0833H17.5158L16.0009 31.029C15.4326 32.1341 14.076 32.5692 12.9709 32.0009C11.8659 31.4326 11.4308 30.076 11.9991 28.971L14.1338 24.8201Z"
  />
</svg>
