<svg
  width="60"
  height="60"
  viewBox="0 0 60 60"
  fill="currentColor"
  xmlns="http://www.w3.org/2000/svg"
>
  <path
    d="M44.4751 29.3271C45.7074 29.7116 46.3947 31.0222 46.0102 32.2545C45.3381 34.4086 44.0059 37.9745 41.758 40.7371C42.3775 41.1013 43.1045 41.4718 43.8559 41.8178C44.5462 42.1357 45.1829 42.4 45.6474 42.5848C45.8788 42.6769 46.0655 42.7485 46.1922 42.7963C46.2555 42.8201 46.3037 42.838 46.3349 42.8495L46.3687 42.8619L46.3754 42.8643C47.5895 43.3022 48.2194 44.6415 47.7817 45.8558C47.3439 47.0702 46.0046 47.6998 44.7902 47.2621L44.7829 47.2595L44.7686 47.2543L44.7192 47.2362C44.6773 47.2207 44.6178 47.1987 44.5427 47.1703C44.3926 47.1137 44.1795 47.032 43.919 46.9283C43.3997 46.7217 42.6841 46.4248 41.9006 46.064C40.8051 45.5596 39.3879 44.8469 38.2037 44.0017C36.418 45.2702 34.298 46.3654 31.8378 47.2599C30.6246 47.701 29.2836 47.0751 28.8424 45.8619C28.4013 44.6488 29.0272 43.3077 30.2404 42.8665C32.0501 42.2085 33.5767 41.4502 34.8536 40.6259C34.1662 39.782 33.5634 38.9652 33.0872 38.29C32.3431 37.2351 32.595 35.7768 33.6499 35.0327C34.7048 34.2886 36.1631 34.5406 36.9072 35.5955C37.3182 36.1782 37.8092 36.8424 38.3485 37.5134C39.8761 35.5183 40.935 32.8256 41.5476 30.8622C41.9321 29.6299 43.2427 28.9426 44.4751 29.3271Z"
  />
  <path
    fill-rule="evenodd"
    clip-rule="evenodd"
    d="M18.1436 14.7449L13.5178 24.0994L11.3002 28.4115C10.7098 29.5595 11.1618 30.9687 12.3098 31.5591C13.4578 32.1495 14.867 31.6974 15.4574 30.5495L17.0311 27.4894H25.3089L26.8827 30.5495C27.4731 31.6974 28.8823 32.1495 30.0303 31.5591C31.1783 30.9687 31.6303 29.5595 31.0399 28.4115L28.8222 24.0994L24.1964 14.7449C22.9571 12.2388 19.383 12.2388 18.1436 14.7449ZM19.3682 22.8146L21.17 19.171L22.9718 22.8146H19.3682Z"
  />
  <path
    fill-rule="evenodd"
    clip-rule="evenodd"
    d="M30.3772 3.25C30.9893 3.24997 31.395 3.24994 31.7526 3.27003C38.2193 3.63319 43.3816 8.7955 43.7448 15.2622C43.7649 15.6198 43.7648 16.0255 43.7648 16.6376V17.0146C43.7648 18.0186 44.5787 18.8325 45.5828 18.8325C52.611 18.8325 58.3085 24.53 58.3085 31.5583V37.8925C58.3085 40.7156 58.3085 42.977 58.1592 44.8046C58.0059 46.6815 57.6835 48.3061 56.9215 49.8016C55.7014 52.1961 53.7546 54.1429 51.3601 55.363C49.8646 56.125 48.24 56.4474 46.3631 56.6007C44.5354 56.75 42.2743 56.75 39.4512 56.75H30.8907C25.0919 56.75 20.391 52.0491 20.391 46.2503C20.391 45.7381 19.9757 45.3228 19.4635 45.3228L17.0651 45.3229C14.6148 45.3234 12.9883 45.3238 11.586 45.0038C6.82025 43.916 3.0988 40.1946 2.01105 35.4288C1.69098 34.0265 1.69137 32.4 1.69194 29.9497L1.69199 22.1076C1.69197 19.2844 1.69195 17.0231 1.84129 15.1954C1.99463 13.3185 2.31701 11.6939 3.07901 10.1984C4.29907 7.80387 6.24586 5.85709 8.64036 4.63703C10.1359 3.87502 11.7605 3.55264 13.6373 3.3993C15.4651 3.24997 17.7263 3.24998 20.5496 3.25001L30.3772 3.25ZM31.4905 7.93743C31.2815 7.92569 31.0178 7.92476 30.2971 7.92476H20.6507C17.7031 7.92476 15.633 7.92658 14.018 8.05853C12.4303 8.18826 11.4893 8.43201 10.7627 8.80227C9.24777 9.57414 8.01613 10.8058 7.24425 12.3207C6.87399 13.0473 6.63024 13.9883 6.50052 15.576C6.36857 17.1911 6.36675 19.2612 6.36675 22.2087V29.629C6.36675 32.5165 6.38152 33.5689 6.5686 34.3886C7.25677 37.4037 9.61115 39.758 12.6262 40.4462C13.4459 40.6333 14.4984 40.6481 17.3858 40.6481H19.4635C22.5575 40.6481 25.0658 43.1563 25.0658 46.2503C25.0658 49.4674 27.6737 52.0752 30.8907 52.0752H39.3498C42.2973 52.0752 44.3674 52.0734 45.9825 51.9415C47.5702 51.8118 48.5112 51.568 49.2378 51.1977C50.7527 50.4259 51.9844 49.1942 52.7562 47.6793C53.1265 46.9527 53.3702 46.0117 53.5 44.424C53.6319 42.809 53.6337 40.7388 53.6337 37.7913V31.5583C53.6337 27.1118 50.0292 23.5073 45.5828 23.5073C41.9969 23.5073 39.09 20.6004 39.09 17.0146V16.7178C39.09 15.997 39.0891 15.7333 39.0774 15.5243C38.8476 11.4331 35.5817 8.16718 31.4905 7.93743Z"
  />
</svg>
