<svg
  width="60"
  height="60"
  viewBox="0 0 60 60"
  fill="currentColor"
  xmlns="http://www.w3.org/2000/svg"
>
  <path
    d="M55 50.25C56.2426 50.25 57.25 49.2426 57.25 48C57.25 46.7574 56.2426 45.75 55 45.75H10C9.0335 45.75 8.25 44.9665 8.25 44L8.25 12C8.25 10.7574 7.24264 9.75 6 9.75C4.75736 9.75 3.75 10.7574 3.75 12V44C3.75 47.4518 6.54822 50.25 10 50.25H55Z"
  />
  <path
    d="M54.591 17.5908C55.4697 16.7121 55.4697 15.2875 54.591 14.4088C53.7123 13.5301 52.2877 13.5302 51.409 14.4088L33 32.8179L26.8929 26.7108C26.0142 25.8321 24.5896 25.8321 23.7109 26.7108L13.2108 37.2109C12.3321 38.0896 12.3321 39.5142 13.2108 40.3929C14.0894 41.2715 15.5141 41.2715 16.3927 40.3929L25.3019 31.4837L31.4091 37.5909C32.2878 38.4695 33.7124 38.4695 34.5911 37.5909L54.591 17.5908Z"
  />
</svg>
