<svg
  width="60"
  height="60"
  viewBox="0 0 60 60"
  fill="currentColor"
  xmlns="http://www.w3.org/2000/svg"
>
  <path
    d="M49.6636 42.7834H44.0353C42.7927 42.7834 41.7853 43.7907 41.7853 45.0334C41.7853 46.276 42.7927 47.2834 44.0353 47.2834H53.8725C55.6807 47.2834 57.1465 45.8176 57.1465 44.0094V34.1722C57.1465 32.9296 56.1391 31.9222 54.8965 31.9222C53.6538 31.9222 52.6465 32.9296 52.6465 34.1722V39.3974L36.4368 22.8193C34.0044 20.3317 30.0088 20.3092 27.5486 22.7694L23.1555 27.1626C22.4862 27.8318 21.4062 27.8477 20.7175 27.1984L6.04353 13.3629C5.1394 12.5105 3.7154 12.5523 2.86293 13.4565C2.01046 14.3606 2.05234 15.7846 2.95648 16.6371L17.6305 30.4725C20.0899 32.7914 23.9473 32.7347 26.3375 30.3445L30.7306 25.9514C31.4195 25.2625 32.5382 25.2688 33.2193 25.9654L49.6636 42.7834Z"
  />
</svg>
