<svg
  width="60"
  height="60"
  viewBox="0 0 60 60"
  fill="currentColor"
  xmlns="http://www.w3.org/2000/svg"
>
  <path
    d="M57.1465 25.3277C57.1465 26.5704 56.1391 27.5777 54.8965 27.5777C53.6538 27.5777 52.6465 26.5704 52.6465 25.3277V20.1026L36.4368 36.6806C34.0044 39.1683 30.0088 39.1907 27.5486 36.7305L23.1555 32.3374C22.4862 31.6681 21.4062 31.6523 20.7175 32.3015L6.04353 46.137C5.1394 46.9895 3.7154 46.9476 2.86293 46.0435C2.01046 45.1393 2.05234 43.7153 2.95648 42.8629L17.6305 29.0274C20.0899 26.7085 23.9473 26.7652 26.3375 29.1554L30.7306 33.5486C31.4195 34.2374 32.5382 34.2311 33.2193 33.5346L49.6636 16.7166L44.0353 16.7166C42.7927 16.7166 41.7853 15.7092 41.7853 14.4666C41.7853 13.2239 42.7927 12.2166 44.0353 12.2166H53.8725C55.6807 12.2166 57.1465 13.6824 57.1465 15.4906V25.3277Z"
  />
</svg>
