<svg
  width="60"
  height="60"
  viewBox="0 0 60 60"
  fill="currentColor"
  xmlns="http://www.w3.org/2000/svg"
>
  <path
    fill-rule="evenodd"
    clip-rule="evenodd"
    d="M18.7501 25C18.7501 22.6528 20.6529 20.75 23.0001 20.75H29.0001C31.3473 20.75 33.2501 22.6528 33.2501 25V31C33.2501 33.3472 31.3473 35.25 29.0001 35.25H23.0001C20.6529 35.25 18.7501 33.3472 18.7501 31V25ZM23.2501 25.25V30.75H28.7501V25.25H23.2501Z"
  />
  <path
    fill-rule="evenodd"
    clip-rule="evenodd"
    d="M36.7501 25C36.7501 22.6528 38.6529 20.75 41.0001 20.75H47.0001C49.3473 20.75 51.2501 22.6528 51.2501 25V31C51.2501 33.3472 49.3473 35.25 47.0001 35.25H41.0001C38.6529 35.25 36.7501 33.3472 36.7501 31V25ZM41.2501 25.25V30.75H46.7501V25.25H41.2501Z"
  />
  <path
    d="M19.0001 51C19.0001 53.2091 17.2093 55 15.0001 55C12.791 55 11.0001 53.2091 11.0001 51C11.0001 48.7909 12.791 47 15.0001 47C17.2093 47 19.0001 48.7909 19.0001 51Z"
  />
  <path
    d="M55.0001 51C55.0001 53.2091 53.2093 55 51.0001 55C48.791 55 47.0001 53.2091 47.0001 51C47.0001 48.7909 48.791 47 51.0001 47C53.2093 47 55.0001 48.7909 55.0001 51Z"
  />
  <path
    fill-rule="evenodd"
    clip-rule="evenodd"
    d="M10.7498 11.4999C10.7498 10.5335 9.96642 9.75 8.99997 9.74993L7.50008 9.74982C6.25744 9.74973 5.25015 8.74229 5.25024 7.49965C5.25033 6.25701 6.25777 5.24973 7.50041 5.24982L9.0003 5.24993C12.4519 5.25018 15.2498 8.04832 15.2498 11.4999L15.2498 32.5C15.2498 36.2279 18.2719 39.25 21.9998 39.25H53.0005C54.2432 39.25 55.2505 40.2574 55.2505 41.5C55.2505 42.7427 54.2432 43.75 53.0005 43.75H21.9998C15.7866 43.75 10.7498 38.7132 10.7498 32.5L10.7498 11.4999Z"
  />
</svg>
