<svg
  width="60"
  height="60"
  viewBox="0 0 60 60"
  fill="currentColor"
  xmlns="http://www.w3.org/2000/svg"
>
  <path
    d="M32.25 5C32.25 3.75736 31.2426 2.75 30 2.75C28.7574 2.75 27.75 3.75736 27.75 5L27.75 30C27.75 31.2426 28.7574 32.25 30 32.25C31.2426 32.25 32.25 31.2426 32.25 30L32.25 5Z"
  />
  <path
    d="M16.7115 17.2196C17.6488 16.4037 17.7472 14.9825 16.9314 14.0452C16.1155 13.1079 14.6943 13.0095 13.757 13.8254C8.54809 18.3595 5.25 25.0459 5.25 32.5C5.25 46.1691 16.331 57.25 30 57.25C43.669 57.25 54.75 46.1691 54.75 32.5C54.75 25.0459 51.4519 18.3595 46.243 13.8254C45.3057 13.0095 43.8845 13.1079 43.0686 14.0452C42.2528 14.9825 42.3512 16.4037 43.2885 17.2196C47.5573 20.9354 50.25 26.402 50.25 32.5C50.25 43.6838 41.1838 52.75 30 52.75C18.8162 52.75 9.75 43.6838 9.75 32.5C9.75 26.402 12.4427 20.9354 16.7115 17.2196Z"
  />
</svg>
