<svg
  width="60"
  height="60"
  viewBox="0 0 60 60"
  fill="currentColor"
  xmlns="http://www.w3.org/2000/svg"
>
  <path
    d="M57.4961 30.001C57.4961 43.8902 47.201 55.3727 33.8267 57.236C32.5762 57.4094 31.2968 57.5 29.9981 57.5C28.499 57.5 27.0269 57.3805 25.5933 57.1493C12.5003 55.0413 2.5 43.6879 2.5 30.001C2.5 14.813 14.8126 2.5 30 2.5C45.1874 2.5 57.5 14.813 57.5 30.001H57.4961Z"
    fill="black"
    fill-opacity="0.96"
  />
  <path
    d="M13.6527 14.6281L26.3353 31.5849L13.5737 45.372H16.4467L27.6205 33.3018L36.6478 45.372H46.4227L33.0272 27.4613L44.9062 14.6281H42.0333L31.7439 25.7444L23.4296 14.6281H13.6546H13.6527ZM17.8764 16.7438H22.3659L42.1952 43.2563H37.7056L17.8764 16.7438Z"
    fill="white"
  />
</svg>
