<svg
  width="60"
  height="60"
  viewBox="0 0 60 60"
  fill="currentColor"
  xmlns="http://www.w3.org/2000/svg"
>
  <path
    d="M5 20.6522C5 15.1734 5 12.434 6.06624 10.3414C7.00413 8.50068 8.50068 7.00413 10.3414 6.06624C12.434 5 15.1734 5 20.6522 5H39.3478C44.8266 5 47.566 5 49.6586 6.06624C51.4993 7.00413 52.9959 8.50068 53.9338 10.3414C55 12.434 55 15.1734 55 20.6522V39.3478C55 44.8266 55 47.566 53.9338 49.6586C52.9959 51.4993 51.4993 52.9959 49.6586 53.9338C47.566 55 44.8266 55 39.3478 55H20.6522C15.1734 55 12.434 55 10.3414 53.9338C8.50068 52.9959 7.00413 51.4993 6.06624 49.6586C5 47.566 5 44.8266 5 39.3478V20.6522Z"
    fill="var(--color-text-primary-3)"
  />
  <path
    fill-rule="evenodd"
    clip-rule="evenodd"
    d="M18 18.75C16.7574 18.75 15.75 19.7574 15.75 21C15.75 22.2426 16.7574 23.25 18 23.25H27.75L27.75 42C27.75 43.2426 28.7574 44.25 30 44.25C31.2426 44.25 32.25 43.2426 32.25 42V23.25H42C43.2426 23.25 44.25 22.2426 44.25 21C44.25 19.7574 43.2426 18.75 42 18.75H30H18Z"
    fill="white"
  />
</svg>
