<svg
  width="60"
  height="60"
  viewBox="0 0 60 60"
  fill="currentColor"
  xmlns="http://www.w3.org/2000/svg"
>
  <path
    d="M0 18.7826C0 12.2081 0 8.92081 1.27949 6.40968C2.40496 4.20082 4.20082 2.40496 6.40968 1.27949C8.92081 0 12.2081 0 18.7826 0H41.2174C47.7919 0 51.0792 0 53.5903 1.27949C55.7992 2.40496 57.595 4.20082 58.7205 6.40968C60 8.92081 60 12.2081 60 18.7826V41.2174C60 47.7919 60 51.0792 58.7205 53.5903C57.595 55.7992 55.7992 57.595 53.5903 58.7205C51.0792 60 47.7919 60 41.2174 60H18.7826C12.2081 60 8.92081 60 6.40968 58.7205C4.20082 57.595 2.40496 55.7992 1.27949 53.5903C0 51.0792 0 47.7919 0 41.2174V18.7826Z"
    fill="#72768B"
    fill-opacity="0.08"
  />
  <path
    fill-rule="evenodd"
    clip-rule="evenodd"
    d="M15.3528 16C13.9396 16 12.7939 17.1456 12.7939 18.5588C12.7939 19.972 13.9396 21.1176 15.3528 21.1176H27.441L27.441 45.4412C27.441 46.8544 28.5866 48 29.9998 48C31.413 48 32.5587 46.8544 32.5587 45.4412V21.1176H44.6469C46.0601 21.1176 47.2057 19.972 47.2057 18.5588C47.2057 17.1456 46.0601 16 44.6469 16H29.9998H15.3528Z"
    fill="#0A0D33"
    fill-opacity="0.6"
  />
</svg>
