<svg
  width="60"
  height="60"
  viewBox="0 0 60 60"
  fill="currentColor"
  xmlns="http://www.w3.org/2000/svg"
>
  <path
    fill-rule="evenodd"
    clip-rule="evenodd"
    d="M11.9595 12.0634C10.194 13.8343 9.70834 16.1666 10.1844 18.2811C10.6509 20.3533 12.0283 22.2217 13.9879 23.3531L26.6719 30.6762L15.2267 50.5H7C5.75736 50.5 4.75 51.5074 4.75 52.75C4.75 53.9926 5.75736 55 7 55H53C54.2426 55 55.25 53.9926 55.25 52.75C55.25 51.5074 54.2426 50.5 53 50.5H20.4228L30.5691 32.9262L43.4327 40.3531C45.3923 41.4845 47.6991 41.743 49.7269 41.111C51.7961 40.466 53.5731 38.8792 54.2241 36.4648C57.13 25.6867 52.5891 13.8853 42.4603 8.03739C32.3315 2.18952 19.8407 4.15771 11.9595 12.0634ZM16.2379 19.456C15.3277 18.9305 14.7554 18.096 14.5745 17.2927C14.4032 16.5318 14.5724 15.8162 15.1465 15.2404C19.9035 10.4685 26.7047 8.33223 33.2768 9.43634C32.6038 9.84014 31.9344 10.298 31.274 10.7999C27.8332 13.4146 24.3074 17.4729 21.3325 22.3974L16.2379 19.456ZM25.2304 24.6478L36.9616 31.4208C39.5017 26.7931 41.0132 22.2829 41.4683 18.6965C41.7119 16.7772 41.6382 15.2364 41.3444 14.1227C41.0536 13.0203 40.602 12.5087 40.1953 12.2739C39.7886 12.0392 39.1197 11.9038 38.0197 12.2031C36.9082 12.5055 35.5371 13.2122 33.9967 14.3828C31.1183 16.5701 27.9682 20.1342 25.2304 24.6478ZM40.8595 33.6713L45.6827 36.456C46.5929 36.9815 47.6017 37.0599 48.3878 36.8149C49.1325 36.5827 49.6676 36.0784 49.8792 35.2934C51.5958 28.9264 50.1474 22.1262 46.1082 17.0213C46.0894 17.7512 46.0292 18.501 45.9325 19.263C45.3885 23.5501 43.6368 28.6327 40.8595 33.6713Z"
  />
</svg>
