<svg
  width="60"
  height="60"
  viewBox="0 0 60 60"
  fill="currentColor"
  xmlns="http://www.w3.org/2000/svg"
>
  <path
    fill-rule="evenodd"
    clip-rule="evenodd"
    d="M29.9999 4.75C16.7202 4.75 5.83667 15.0001 4.82631 28.0218C4.60795 30.8362 7.58321 32.1464 9.58698 31.142C11.0104 30.4286 12.7662 29.75 13.9999 29.75C14.7696 29.75 15.8111 30.024 16.9218 30.4681C17.9898 30.8951 18.9309 31.4007 19.4413 31.6922C20.2966 32.1809 21.347 32.2792 22.3046 31.8996C23.0165 31.6174 24.4643 31.0641 26.0202 30.5847C26.626 30.398 27.2101 30.2349 27.7498 30.1036V47C27.7498 49.0711 26.0709 50.75 23.9998 50.75C21.9288 50.75 20.2498 49.0711 20.2498 47C20.2498 45.7574 19.2425 44.75 17.9998 44.75C16.7572 44.75 15.7498 45.7574 15.7498 47C15.7498 51.5564 19.4435 55.25 23.9998 55.25C28.5562 55.25 32.2498 51.5564 32.2498 47V30.1036C32.7896 30.2349 33.3737 30.398 33.9795 30.5847C35.5354 31.0641 36.9832 31.6174 37.6951 31.8996C38.6527 32.2792 39.7031 32.1809 40.5584 31.6922C41.0688 31.4007 42.0099 30.8951 43.0779 30.4681C44.1886 30.024 45.2301 29.75 45.9999 29.75C47.2335 29.75 48.9893 30.4286 50.4127 31.142C52.4165 32.1464 55.3918 30.8362 55.1734 28.0218C54.163 15.0001 43.2796 4.75 29.9999 4.75ZM13.9999 25.25C12.5014 25.25 10.9221 25.7 9.59384 26.2156C11.3719 16.5636 19.8327 9.25 29.9999 9.25C40.167 9.25 48.6279 16.5636 50.4059 26.2156C49.0776 25.7 47.4983 25.25 45.9999 25.25C44.3714 25.25 42.6953 25.7747 41.4073 26.2897C40.3797 26.7006 39.4667 27.1601 38.8224 27.509C37.9742 27.1828 36.6865 26.71 35.3045 26.2842C33.6655 25.7792 31.6162 25.25 29.9999 25.25C28.3835 25.25 26.3342 25.7792 24.6953 26.2842C23.3132 26.71 22.0255 27.1828 21.1773 27.509C20.533 27.1601 19.62 26.7006 18.5924 26.2897C17.3044 25.7747 15.6283 25.25 13.9999 25.25Z"
  />
</svg>
