<svg
  width="60"
  height="60"
  viewBox="0 0 60 60"
  fill="currentColor"
  xmlns="http://www.w3.org/2000/svg"
>
  <path
    fill-rule="evenodd"
    clip-rule="evenodd"
    d="M47 4.75C48.2427 4.75 49.25 5.75736 49.25 7V24C49.25 34.6315 40.6315 43.25 30 43.25C19.3686 43.25 10.75 34.6315 10.75 24L10.75 7C10.75 5.75736 11.7574 4.75 13 4.75C14.2427 4.75 15.25 5.75736 15.25 7L15.25 24C15.25 32.1462 21.8538 38.75 30 38.75C38.1462 38.75 44.75 32.1462 44.75 24V7C44.75 5.75736 45.7574 4.75 47 4.75Z"
  />
  <path
    fill-rule="evenodd"
    clip-rule="evenodd"
    d="M14.009 51.558C15.5812 50.2294 17.9305 50.4164 19.2727 51.9771L19.6941 52.4671C22.8547 56.1423 28.5454 56.1423 31.706 52.4671C33.0711 50.8798 35.529 50.8798 36.8941 52.4671L37.0719 52.6739C40.1512 56.2545 45.6187 56.4794 48.9817 53.1637L51.5797 50.6022C52.4646 49.7298 52.4747 48.3052 51.6023 47.4203C50.7298 46.5354 49.3053 46.5253 48.4204 47.3978L45.8223 49.9593C44.3148 51.4455 41.8641 51.3447 40.4837 49.7397L40.306 49.533C37.1454 45.8578 31.4547 45.8578 28.2941 49.533C26.929 51.1203 24.4711 51.1203 23.106 49.533L22.6845 49.0429C19.7318 45.6094 14.5633 45.1979 11.1044 48.1209L8.54776 50.2815C7.59864 51.0835 7.47944 52.5032 8.28151 53.4523C9.08359 54.4014 10.5032 54.5206 11.4523 53.7185L14.009 51.558Z"
  />
</svg>
