<svg
  width="60"
  height="60"
  viewBox="0 0 60 60"
  fill="currentColor"
  xmlns="http://www.w3.org/2000/svg"
>
  <path
    fill-rule="evenodd"
    clip-rule="evenodd"
    d="M49.25 6C49.25 4.75736 48.2426 3.75 47 3.75C45.7574 3.75 44.75 4.75736 44.75 6V26C44.75 34.1462 38.1462 40.75 30 40.75C21.8538 40.75 15.25 34.1462 15.25 26L15.25 6C15.25 4.75736 14.2426 3.75 13 3.75C11.7574 3.75 10.75 4.75736 10.75 6L10.75 26C10.75 36.6315 19.3685 45.25 30 45.25C40.6315 45.25 49.25 36.6315 49.25 26V6ZM10 51.75C8.75736 51.75 7.75 52.7574 7.75 54C7.75 55.2426 8.75736 56.25 10 56.25H50C51.2426 56.25 52.25 55.2426 52.25 54C52.25 52.7574 51.2426 51.75 50 51.75H10Z"
  />
</svg>
