<svg
  width="60"
  height="60"
  viewBox="0 0 60 60"
  fill="currentColor"
  xmlns="http://www.w3.org/2000/svg"
>
  <path
    d="M14.25 22C14.25 21.5858 14.5858 21.25 15 21.25H21C22.2426 21.25 23.25 20.2426 23.25 19C23.25 17.7574 22.2426 16.75 21 16.75H15C12.1005 16.75 9.75 19.1005 9.75 22L9.75 28C9.75 29.2426 10.7574 30.25 12 30.25C13.2426 30.25 14.25 29.2426 14.25 28L14.25 22Z"
  />
  <path
    d="M45 38.75C45.4142 38.75 45.75 38.4142 45.75 38V32C45.75 30.7574 46.7574 29.75 48 29.75C49.2426 29.75 50.25 30.7574 50.25 32V38C50.25 40.8995 47.8995 43.25 45 43.25H39C37.7574 43.25 36.75 42.2426 36.75 41C36.75 39.7574 37.7574 38.75 39 38.75H45Z"
  />
  <path
    d="M30 36C33.3137 36 36 33.3137 36 30C36 26.6863 33.3137 24 30 24C26.6863 24 24 26.6863 24 30C24 33.3137 26.6863 36 30 36Z"
  />
  <path
    fill-rule="evenodd"
    clip-rule="evenodd"
    d="M46.6944 50.1199C45.1017 50.25 43.1348 50.25 40.6963 50.25H19.3037C16.8652 50.25 14.8983 50.25 13.3056 50.1199C11.6657 49.9859 10.2253 49.7028 8.89261 49.0238C6.77578 47.9452 5.05475 46.2242 3.97618 44.1074C3.29716 42.7747 3.01408 41.3343 2.88009 39.6944C2.74996 38.1017 2.74998 36.1348 2.75 33.6963V26.3037C2.74998 23.8652 2.74996 21.8983 2.88009 20.3056C3.01408 18.6657 3.29716 17.2253 3.97618 15.8926C5.05475 13.7758 6.77578 12.0548 8.89261 10.9762C10.2253 10.2972 11.6657 10.0141 13.3056 9.88009C14.8983 9.74996 16.8651 9.74998 19.3036 9.75H40.6964C43.1348 9.74998 45.1017 9.74996 46.6944 9.88009C48.3343 10.0141 49.7747 10.2972 51.1074 10.9762C53.2242 12.0548 54.9452 13.7758 56.0238 15.8926C56.7028 17.2253 56.9859 18.6657 57.1199 20.3056C57.25 21.8983 57.25 23.8651 57.25 26.3035V33.6964C57.25 36.1348 57.25 38.1017 57.1199 39.6944C56.9859 41.3343 56.7028 42.7747 56.0238 44.1074C54.9452 46.2242 53.2242 47.9452 51.1074 49.0238C49.7747 49.7028 48.3343 49.9859 46.6944 50.1199ZM10.9356 45.0143C11.5281 45.3162 12.3104 45.5236 13.672 45.6349C15.0599 45.7482 16.8426 45.75 19.4 45.75H40.6C43.1574 45.75 44.9401 45.7482 46.328 45.6349C47.6896 45.5236 48.4719 45.3162 49.0644 45.0143C50.3345 44.3671 51.3671 43.3345 52.0143 42.0644C52.3162 41.4719 52.5236 40.6896 52.6349 39.328C52.7482 37.9401 52.75 36.1574 52.75 33.6V26.4C52.75 23.8426 52.7482 22.0599 52.6349 20.672C52.5236 19.3104 52.3162 18.5281 52.0143 17.9356C51.3671 16.6655 50.3345 15.6329 49.0644 14.9857C48.4719 14.6838 47.6896 14.4764 46.328 14.3651C44.9401 14.2518 43.1574 14.25 40.6 14.25H19.4C16.8426 14.25 15.0599 14.2518 13.672 14.3651C12.3104 14.4764 11.5281 14.6838 10.9356 14.9857C9.66547 15.6329 8.63285 16.6655 7.98571 17.9356C7.68379 18.5281 7.4764 19.3104 7.36515 20.672C7.25175 22.0599 7.25 23.8426 7.25 26.4V33.6C7.25 36.1574 7.25175 37.9401 7.36515 39.328C7.4764 40.6896 7.68379 41.4719 7.98571 42.0644C8.63285 43.3345 9.66547 44.3671 10.9356 45.0143Z"
  />
</svg>
