<svg width="14" height="14" viewBox="0 0 14 14" fill="none" xmlns="http://www.w3.org/2000/svg">
<path fill-rule="evenodd" clip-rule="evenodd" d="M1.97811 10.7285L3.39524 9.88206L4.11518 10.602L3.26876 12.0191C2.95438 12.5455 2.22872 12.6356 1.7952 12.202C1.36168 11.7685 1.45175 11.0429 1.97811 10.7285Z" fill="black" fill-opacity="0.96"/>
<path fill-rule="evenodd" clip-rule="evenodd" d="M1.97811 10.7285L3.39524 9.88206L4.11518 10.602L3.26876 12.0191C2.95438 12.5455 2.22872 12.6356 1.7952 12.202C1.36168 11.7685 1.45175 11.0429 1.97811 10.7285Z" fill="url(#paint0_linear_6084_4884)"/>
<path d="M11.949 1.47715C11.6328 1.35753 11.2995 1.45121 10.6329 1.63855C9.10082 2.06919 7.1258 2.76132 5.76503 3.73803C5.63022 3.83479 5.49265 3.94066 5.35371 4.05343L5.13745 3.83716L5.03483 3.81434C4.48528 3.69209 4.2105 3.63097 3.93803 3.63525C3.69644 3.63905 3.45695 3.68069 3.22826 3.75865C2.97033 3.84658 2.7323 3.99685 2.25626 4.2974L1.32105 4.88785C0.851154 5.18451 0.616204 5.33285 0.557519 5.50416C0.506496 5.65311 0.526571 5.81723 0.611991 5.94949C0.710237 6.1016 0.97401 6.18894 1.50155 6.3636L2.20425 6.59625L2.56433 6.95633C2.55467 6.98055 2.54629 7.00503 2.53911 7.03004C2.48313 7.22498 2.48877 7.45378 2.55429 7.64572C2.63141 7.87163 2.8149 8.05512 3.18188 8.4221L5.60171 10.8419C5.96869 11.2089 6.15218 11.3924 6.3781 11.4695C6.57004 11.535 6.79884 11.5407 6.99378 11.4847C7.01879 11.4775 7.04326 11.4691 7.06749 11.4595L7.42756 11.8196L7.66021 12.5223C7.83488 13.0498 7.92221 13.3136 8.07433 13.4118C8.20658 13.4972 8.3707 13.5173 8.51965 13.4663C8.69096 13.4076 8.8393 13.1727 9.13597 12.7028L9.68205 11.8378C9.99846 11.3367 10.1567 11.0861 10.2458 10.8144C10.3248 10.5736 10.3638 10.3215 10.361 10.0681C10.3579 9.78216 10.2825 9.49554 10.1319 8.92231L10.0996 8.79931L9.97038 8.67009C10.0832 8.53116 10.189 8.39359 10.2858 8.25878C11.2625 6.89801 11.9546 4.92298 12.3853 3.39086C12.5726 2.72431 12.6663 2.39102 12.5467 2.07479C12.4521 1.82487 12.1989 1.57169 11.949 1.47715Z" fill="#D9D9D9"/>
<path d="M11.949 1.47715C11.6328 1.35753 11.2995 1.45121 10.6329 1.63855C9.10082 2.06919 7.1258 2.76132 5.76503 3.73803C5.63022 3.83479 5.49265 3.94066 5.35371 4.05343L5.13745 3.83716L5.03483 3.81434C4.48528 3.69209 4.2105 3.63097 3.93803 3.63525C3.69644 3.63905 3.45695 3.68069 3.22826 3.75865C2.97033 3.84658 2.7323 3.99685 2.25626 4.2974L1.32105 4.88785C0.851154 5.18451 0.616204 5.33285 0.557519 5.50416C0.506496 5.65311 0.526571 5.81723 0.611991 5.94949C0.710237 6.1016 0.97401 6.18894 1.50155 6.3636L2.20425 6.59625L2.56433 6.95633C2.55467 6.98055 2.54629 7.00503 2.53911 7.03004C2.48313 7.22498 2.48877 7.45378 2.55429 7.64572C2.63141 7.87163 2.8149 8.05512 3.18188 8.4221L5.60171 10.8419C5.96869 11.2089 6.15218 11.3924 6.3781 11.4695C6.57004 11.535 6.79884 11.5407 6.99378 11.4847C7.01879 11.4775 7.04326 11.4691 7.06749 11.4595L7.42756 11.8196L7.66021 12.5223C7.83488 13.0498 7.92221 13.3136 8.07433 13.4118C8.20658 13.4972 8.3707 13.5173 8.51965 13.4663C8.69096 13.4076 8.8393 13.1727 9.13597 12.7028L9.68205 11.8378C9.99846 11.3367 10.1567 11.0861 10.2458 10.8144C10.3248 10.5736 10.3638 10.3215 10.361 10.0681C10.3579 9.78216 10.2825 9.49554 10.1319 8.92231L10.0996 8.79931L9.97038 8.67009C10.0832 8.53116 10.189 8.39359 10.2858 8.25878C11.2625 6.89801 11.9546 4.92298 12.3853 3.39086C12.5726 2.72431 12.6663 2.39102 12.5467 2.07479C12.4521 1.82487 12.1989 1.57169 11.949 1.47715Z" fill="url(#paint1_linear_6084_4884)"/>
<circle cx="7.56152" cy="6.46324" r="1.79771" transform="rotate(45 7.56152 6.46324)" fill="white"/>
<defs>
<linearGradient id="paint0_linear_6084_4884" x1="2.85056" y1="11.9235" x2="2.04197" y2="10.6965" gradientUnits="userSpaceOnUse">
<stop stop-color="#6128FF"/>
<stop offset="1" stop-color="#7A59FF" stop-opacity="0.24"/>
</linearGradient>
<linearGradient id="paint1_linear_6084_4884" x1="10.0854" y1="9.38683" x2="7.07717" y2="2.97512" gradientUnits="userSpaceOnUse">
<stop offset="0.32707" stop-color="#6128FF"/>
<stop offset="1" stop-color="#7A59FF" stop-opacity="0.24"/>
</linearGradient>
</defs>
</svg>
