<svg
  width="60"
  height="60"
  viewBox="0 0 60 60"
  fill="currentColor"
  xmlns="http://www.w3.org/2000/svg"
>
  <path
    d="M30 55.25C31.2426 55.25 32.25 54.2426 32.25 53L32.25 25.432L43.409 36.591C44.2877 37.4697 45.7123 37.4697 46.591 36.591C47.4697 35.7123 47.4697 34.2877 46.591 33.409L33.0052 19.8232C31.3455 18.1635 28.6545 18.1635 26.9948 19.8232L13.409 33.409C12.5303 34.2877 12.5303 35.7123 13.409 36.591C14.2877 37.4697 15.7123 37.4697 16.591 36.591L27.75 25.432L27.75 53C27.75 54.2426 28.7574 55.25 30 55.25Z"
  />
  <path
    d="M51.25 13V20C51.25 21.2426 50.2426 22.25 49 22.25C47.7574 22.25 46.75 21.2426 46.75 20V13C46.75 9.27088 43.7304 6.25 40.0037 6.25H19.9963C16.2696 6.25 13.25 9.27088 13.25 13L13.25 20C13.25 21.2426 12.2426 22.25 11 22.25C9.75736 22.25 8.75 21.2426 8.75 20V13C8.75 6.78799 13.7819 1.75 19.9963 1.75H40.0037C46.2181 1.75 51.25 6.78799 51.25 13Z"
  />
</svg>
