<svg
  width="60"
  height="60"
  viewBox="0 0 60 60"
  fill="currentColor"
  xmlns="http://www.w3.org/2000/svg"
>
  <path
    fill-rule="evenodd"
    clip-rule="evenodd"
    d="M30 4.75C21.7033 4.75 14.7771 10.6056 13.1244 18.4105C7.11474 20.2752 2.75 25.8758 2.75 32.5C2.75 39.2109 7.22986 44.8696 13.3574 46.6597C14.5502 47.0082 15.7996 46.3237 16.1481 45.131C16.4966 43.9382 15.8121 42.6887 14.6194 42.3403C10.3588 41.0956 7.25 37.1579 7.25 32.5C7.25 27.5138 10.8127 23.3547 15.5323 22.4383L17.146 22.1249L17.338 20.4923C18.0823 14.1622 23.4691 9.25 30 9.25C36.5309 9.25 41.9177 14.1622 42.662 20.4923L42.854 22.1249L44.4677 22.4383C49.1873 23.3547 52.75 27.5138 52.75 32.5C52.75 37.1579 49.6412 41.0956 45.3806 42.3403C44.1879 42.6887 43.5034 43.9382 43.8519 45.131C44.2004 46.3237 45.4498 47.0082 46.6426 46.6597C52.7701 44.8696 57.25 39.2109 57.25 32.5C57.25 25.8758 52.8853 20.2752 46.8756 18.4105C45.2229 10.6056 38.2967 4.75 30 4.75ZM20.909 40.909L28.409 33.409C29.2877 32.5303 30.7123 32.5303 31.591 33.409L39.091 40.909C39.9697 41.7877 39.9697 43.2123 39.091 44.091C38.2123 44.9697 36.7877 44.9697 35.909 44.091L32.25 40.432V53C32.25 54.2426 31.2426 55.25 30 55.25C28.7574 55.25 27.75 54.2426 27.75 53V40.432L24.091 44.091C23.2123 44.9697 21.7877 44.9697 20.909 44.091C20.0303 43.2123 20.0303 41.7877 20.909 40.909Z"
  />
</svg>
