<svg width="16" height="16" viewBox="0 0 16 16" fill="none" xmlns="http://www.w3.org/2000/svg" color="#E55649">
<path d="M9.08939 6.82266C9.29765 6.61439 9.63527 6.61443 9.84355 6.82266C10.0518 7.03094 10.0518 7.36855 9.84355 7.57682L8.75397 8.66641L9.84355 9.75599L9.88001 9.79635C10.0508 10.0058 10.0388 10.3149 9.84355 10.5102C9.6483 10.7054 9.33947 10.7174 9.13001 10.5466L9.08939 10.5102L7.9998 9.42057L6.91022 10.5102L6.8696 10.5466C6.66012 10.7174 6.35129 10.7054 6.15605 10.5102C5.96085 10.3149 5.94879 10.0058 6.1196 9.79635L6.15605 9.75599L7.24564 8.66641L6.15605 7.57682C5.94784 7.36856 5.94785 7.03092 6.15605 6.82266C6.36432 6.61439 6.70194 6.61443 6.91022 6.82266L7.9998 7.91224L9.08939 6.82266Z" fill="currentColor"/>
<path fill-rule="evenodd" clip-rule="evenodd" d="M8.00006 2.06641C10.2263 2.06641 12.0826 3.6474 12.5084 5.74818C14.1124 6.29295 15.2667 7.81097 15.2667 9.59974C15.2667 11.8457 13.446 13.6664 11.2001 13.6664H4.80007C2.55411 13.6664 0.733398 11.8457 0.733398 9.59974C0.733398 7.81097 1.88776 6.29295 3.49173 5.74818C3.91751 3.6474 5.77384 2.06641 8.00006 2.06641ZM8.00006 3.26641C6.25097 3.26641 4.80951 4.58766 4.6209 6.2862L4.57402 6.71016L4.1584 6.80495C2.88395 7.09614 1.9334 8.23771 1.9334 9.59974C1.9334 11.183 3.21685 12.4664 4.80007 12.4664H11.2001C12.7833 12.4664 14.0667 11.183 14.0667 9.59974C14.0667 8.23771 13.1162 7.09614 11.8417 6.80495L11.4261 6.71016L11.3792 6.2862C11.1906 4.58766 9.74916 3.26641 8.00006 3.26641Z" fill="currentColor"/>
</svg>
