<svg
  width="60"
  height="60"
  viewBox="0 0 60 60"
  fill="currentColor"
  xmlns="http://www.w3.org/2000/svg"
>
  <path
    fill-rule="evenodd"
    clip-rule="evenodd"
    d="M17.3286 23.5747C18.0357 17.205 23.4407 12.25 30 12.25C36.5592 12.25 41.9643 17.205 42.6714 23.5747L42.8478 25.1638L44.4065 25.5199C49.1857 26.6119 52.75 30.8924 52.75 36C52.75 41.9371 47.9371 46.75 42 46.75H18C12.0629 46.75 7.25 41.9371 7.25 36C7.25 30.8924 10.8143 26.6119 15.5935 25.5199L17.1522 25.1638L17.3286 23.5747ZM30 7.75C21.6515 7.75 14.6906 13.6789 13.094 21.557C7.07908 23.5998 2.75 29.2921 2.75 36C2.75 44.4223 9.57766 51.25 18 51.25H42C50.4223 51.25 57.25 44.4223 57.25 36C57.25 29.2921 52.9209 23.5998 46.9059 21.557C45.3094 13.6789 38.3485 7.75 30 7.75ZM19.909 34.591L25.909 40.591C26.7877 41.4697 28.2123 41.4697 29.091 40.591L39.591 30.091C40.4697 29.2123 40.4697 27.7877 39.591 26.909C38.7123 26.0303 37.2877 26.0303 36.409 26.909L27.5 35.818L23.091 31.409C22.2123 30.5303 20.7877 30.5303 19.909 31.409C19.0303 32.2877 19.0303 33.7123 19.909 34.591Z"
  />
</svg>
