<svg
  width="60"
  height="60"
  viewBox="0 0 60 60"
  fill="currentColor"
  xmlns="http://www.w3.org/2000/svg"
>
  <path
    fill-rule="evenodd"
    clip-rule="evenodd"
    d="M30 39.25C28.7574 39.25 27.75 38.2426 27.75 37L27.75 9.43198L30 7.18198L32.25 9.43198L32.25 37C32.25 38.2426 31.2426 39.25 30 39.25Z"
  />
  <path
    fill-rule="evenodd"
    clip-rule="evenodd"
    d="M46.591 20.591C47.4697 19.7123 47.4697 18.2877 46.591 17.409L33.0052 3.82323C31.3455 2.1635 28.6545 2.1635 26.9948 3.82323L13.409 17.409C12.5303 18.2877 12.5303 19.7123 13.409 20.591C14.2877 21.4697 15.7123 21.4697 16.591 20.591L30 7.18198L43.409 20.591C44.2877 21.4697 45.7123 21.4697 46.591 20.591Z"
  />
  <path
    fill-rule="evenodd"
    clip-rule="evenodd"
    d="M51.25 37V44C51.25 50.212 46.2181 55.25 40.0037 55.25H19.9963C13.7819 55.25 8.75 50.212 8.75 44L8.75 37C8.75 35.7574 9.75736 34.75 11 34.75C12.2426 34.75 13.25 35.7574 13.25 37L13.25 44C13.25 47.7291 16.2696 50.75 19.9963 50.75H40.0037C43.7304 50.75 46.75 47.7291 46.75 44V37C46.75 35.7574 47.7574 34.75 49 34.75C50.2426 34.75 51.25 35.7574 51.25 37Z"
  />
</svg>
