<svg
  width="60"
  height="60"
  viewBox="0 0 60 60"
  fill="currentColor"
  xmlns="http://www.w3.org/2000/svg"
>
  <path
    d="M13.409 20.5909C12.5303 19.7123 12.5303 18.2876 13.409 17.409L26.9948 3.82317C28.6545 2.16344 31.3455 2.16344 33.0052 3.82316L46.591 17.409C47.4697 18.2876 47.4697 19.7123 46.591 20.5909C45.7123 21.4696 44.2877 21.4696 43.409 20.5909L32.25 9.43192L32.25 36.9999C32.25 38.2426 31.2426 39.2499 30 39.2499C28.7574 39.2499 27.75 38.2426 27.75 36.9999L27.75 9.43192L16.591 20.5909C15.7123 21.4696 14.2877 21.4696 13.409 20.5909Z"
  />
  <path
    d="M51.25 43.9999V36.9999C51.25 35.7573 50.2426 34.7499 49 34.7499C47.7574 34.7499 46.75 35.7573 46.75 36.9999V43.9999C46.75 47.7291 43.7304 50.7499 40.0037 50.7499H19.9963C16.2696 50.7499 13.25 47.7291 13.25 43.9999L13.25 36.9999C13.25 35.7573 12.2426 34.7499 11 34.7499C9.75736 34.7499 8.75 35.7573 8.75 36.9999V43.9999C8.75 50.212 13.7819 55.2499 19.9963 55.2499H40.0037C46.2181 55.2499 51.25 50.212 51.25 43.9999Z"
  />
</svg>
