<svg
  width="60"
  height="60"
  viewBox="0 0 60 60"
  fill="currentColor"
  xmlns="http://www.w3.org/2000/svg"
>
  <path
    d="M6 20C6 14.3995 6 11.5992 7.08993 9.46009C8.04867 7.57847 9.57847 6.04867 11.4601 5.08993C13.5992 4 16.3995 4 22 4H40C45.6005 4 48.4008 4 50.5399 5.08993C52.4215 6.04867 53.9513 7.57847 54.9101 9.46009C56 11.5992 56 14.3995 56 20V38C56 43.6005 56 46.4008 54.9101 48.5399C53.9513 50.4215 52.4215 51.9513 50.5399 52.9101C48.4008 54 45.6005 54 40 54H22C16.3995 54 13.5992 54 11.4601 52.9101C9.57847 51.9513 8.04867 50.4215 7.08993 48.5399C6 46.4008 6 43.6005 6 38V20Z"
    fill="url(#paint0_linear_13577_179)"
  />
  <path
    d="M31 11.5C31 10.1193 32.1193 9 33.5 9H48.5C49.8807 9 51 10.1193 51 11.5C51 12.8807 49.8807 14 48.5 14H33.5C32.1193 14 31 12.8807 31 11.5Z"
    fill="white"
  />
  <path
    d="M48.5 29C47.1193 29 46 27.8807 46 26.5V11.5C46 10.1193 47.1193 9 48.5 9C49.8807 9 51 10.1193 51 11.5V26.5C51 27.8807 49.8807 29 48.5 29Z"
    fill="white"
  />
  <path
    d="M32.7678 27.3242C31.7915 26.3479 31.7915 24.7649 32.7678 23.7886L44.7886 11.7678C45.7649 10.7915 47.3478 10.7915 48.3241 11.7678C49.3004 12.7441 49.3004 14.327 48.3241 15.3033L36.3033 27.3242C35.327 28.3005 33.7441 28.3005 32.7678 27.3242Z"
    fill="white"
  />
  <path
    d="M2 42.8C2 38.3196 2 36.0794 2.87195 34.3681C3.63893 32.8628 4.86278 31.6389 6.36808 30.8719C8.07937 30 10.3196 30 14.8 30H17.2C21.6804 30 23.9206 30 25.6319 30.8719C27.1372 31.6389 28.3611 32.8628 29.1281 34.3681C30 36.0794 30 38.3196 30 42.8V45.2C30 49.6804 30 51.9206 29.1281 53.6319C28.3611 55.1372 27.1372 56.3611 25.6319 57.1281C23.9206 58 21.6804 58 17.2 58H14.8C10.3196 58 8.07937 58 6.36808 57.1281C4.86278 56.3611 3.63893 55.1372 2.87195 53.6319C2 51.9206 2 49.6804 2 45.2V42.8Z"
    fill="#AECBFF"
  />
  <defs>
    <linearGradient
      id="paint0_linear_13577_179"
      x1="9.875"
      y1="4"
      x2="49.825"
      y2="52.9388"
      gradientUnits="userSpaceOnUse"
    >
      <stop stop-color="#1C7BEB" />
      <stop offset="1" stop-color="#4FA0FF" />
    </linearGradient>
  </defs>
</svg>
