<svg
  width="60"
  height="60"
  viewBox="0 0 60 60"
  fill="currentColor"
  xmlns="http://www.w3.org/2000/svg"
>
  <path
    fill-rule="evenodd"
    clip-rule="evenodd"
    d="M31.75 14.9995C31.75 13.7569 32.7574 12.7495 34 12.7495H43C45.3472 12.7495 47.25 14.6523 47.25 16.9995V26C47.25 27.2426 46.2426 28.25 45 28.25C43.7574 28.25 42.75 27.2426 42.75 26V20.432L36.591 26.591C35.7123 27.4697 34.2877 27.4697 33.409 26.591C32.5303 25.7123 32.5303 24.2877 33.409 23.409L39.5685 17.2495H34C32.7574 17.2495 31.75 16.2422 31.75 14.9995Z"
  />
  <path
    fill-rule="evenodd"
    clip-rule="evenodd"
    d="M4.75 16C4.75 9.7868 9.7868 4.75 16 4.75H44C50.2132 4.75 55.25 9.7868 55.25 16V44C55.25 50.2132 50.2132 55.25 44 55.25H16C9.7868 55.25 4.75 50.2132 4.75 44V16ZM9.25 31.25V44C9.25 47.7279 12.2721 50.75 16 50.75H28.75V38C28.75 34.2721 25.7279 31.25 22 31.25H9.25ZM33.25 50.75V38C33.25 31.7868 28.2132 26.75 22 26.75H9.25V16C9.25 12.2721 12.2721 9.25 16 9.25H44C47.7279 9.25 50.75 12.2721 50.75 16V44C50.75 47.7279 47.7279 50.75 44 50.75H33.25Z"
  />
</svg>
