<svg
  width="60"
  height="60"
  viewBox="0 0 60 60"
  fill="currentColor"
  xmlns="http://www.w3.org/2000/svg"
>
  <path
    d="M30.9119 37.0631C32.5898 36.8546 33.3466 35.9244 33.3981 35.1098C33.4327 33.8358 33.061 33.4067 32.7399 33.1422C32.2082 32.7043 31.3861 32.408 29.9827 31.9847L29.8952 31.9584L29.7494 31.9147C28.5813 31.5655 26.9239 31.0699 25.6252 30.0757C23.9854 28.8203 23.0688 26.9453 23.1703 24.4005L23.1714 24.3733L23.1731 24.3462C23.3575 21.3951 25.5158 19.6207 27.75 18.8806V17.5C27.75 16.2574 28.7574 15.25 30 15.25C31.2426 15.25 32.25 16.2574 32.25 17.5V18.6618C34.0487 19.0536 35.7989 20.0423 37.0198 21.8047C37.7797 22.9016 37.5065 24.4068 36.4096 25.1666C35.3127 25.9265 33.8075 25.6533 33.0476 24.5565C32.3768 23.5881 31.0982 23.1332 29.7912 23.3398C28.4241 23.556 28.0326 24.2471 27.9974 24.6282C27.9613 25.7079 28.277 26.0201 28.5625 26.2387C29.1029 26.6523 29.9266 26.9205 31.3781 27.3583L31.4672 27.3852C32.6851 27.7521 34.4371 28.2799 35.8119 29.4122C37.429 30.744 38.3085 32.6852 38.2272 35.2871L38.2265 35.3097L38.2253 35.3323C38.0392 39.0539 35.0653 41.1297 32.25 41.7327V42.5C32.25 43.7426 31.2426 44.75 30 44.75C28.7574 44.75 27.75 43.7426 27.75 42.5V41.5251C25.7879 40.9111 23.9855 39.5572 23.0511 37.2311C22.5537 35.9929 23.1542 34.5859 24.3924 34.0885C25.6306 33.5911 27.0376 34.1916 27.535 35.4299C28.002 36.5923 29.2864 37.2651 30.9119 37.0631Z"
  />
  <path
    fill-rule="evenodd"
    clip-rule="evenodd"
    d="M40.6963 9.75H19.3037C16.8652 9.74998 14.8983 9.74996 13.3056 9.88009C11.6657 10.0141 10.2253 10.2972 8.89261 10.9762C6.77578 12.0548 5.05475 13.7758 3.97618 15.8926C3.29716 17.2253 3.01408 18.6657 2.88009 20.3056C2.74996 21.8983 2.74998 23.8652 2.75 26.3037V33.6963C2.74998 36.1348 2.74996 38.1017 2.88009 39.6944C3.01408 41.3343 3.29716 42.7747 3.97618 44.1074C5.05475 46.2242 6.77578 47.9452 8.89261 49.0238C10.2253 49.7028 11.6657 49.9859 13.3056 50.1199C14.8983 50.25 16.8651 50.25 19.3035 50.25H40.6964C43.1348 50.25 45.1017 50.25 46.6944 50.1199C48.3343 49.9859 49.7747 49.7028 51.1074 49.0238C53.2242 47.9452 54.9452 46.2242 56.0238 44.1074C56.7028 42.7747 56.9859 41.3343 57.1199 39.6944C57.25 38.1017 57.25 36.1349 57.25 33.6965V26.3036C57.25 23.8652 57.25 21.8983 57.1199 20.3056C56.9859 18.6657 56.7028 17.2253 56.0238 15.8926C54.9452 13.7758 53.2242 12.0548 51.1074 10.9762C49.7747 10.2972 48.3343 10.0141 46.6944 9.88009C45.1017 9.74996 43.1348 9.74998 40.6963 9.75ZM10.9356 14.9857C11.5281 14.6838 12.3104 14.4764 13.672 14.3651C15.0599 14.2518 16.8426 14.25 19.4 14.25H40.6C43.1574 14.25 44.9401 14.2518 46.328 14.3651C47.6896 14.4764 48.4719 14.6838 49.0644 14.9857C50.3345 15.6329 51.3671 16.6655 52.0143 17.9356C52.3162 18.5281 52.5236 19.3104 52.6349 20.672C52.7482 22.0599 52.75 23.8426 52.75 26.4V33.6C52.75 36.1574 52.7482 37.9401 52.6349 39.328C52.5236 40.6896 52.3162 41.4719 52.0143 42.0644C51.3671 43.3345 50.3345 44.3671 49.0644 45.0143C48.4719 45.3162 47.6896 45.5236 46.328 45.6349C44.9401 45.7482 43.1574 45.75 40.6 45.75H19.4C16.8426 45.75 15.0599 45.7482 13.672 45.6349C12.3104 45.5236 11.5281 45.3162 10.9356 45.0143C9.66547 44.3671 8.63285 43.3345 7.98571 42.0644C7.68379 41.4719 7.4764 40.6896 7.36515 39.328C7.25175 37.9401 7.25 36.1574 7.25 33.6V26.4C7.25 23.8426 7.25175 22.0599 7.36515 20.672C7.4764 19.3104 7.68379 18.5281 7.98571 17.9356C8.63285 16.6655 9.66547 15.6329 10.9356 14.9857Z"
  />
</svg>
