<svg
  width="60"
  height="60"
  viewBox="0 0 60 60"
  fill="currentColor"
  xmlns="http://www.w3.org/2000/svg"
>
  <path
    fill-rule="evenodd"
    clip-rule="evenodd"
    d="M40.6963 7.75H19.3037H19.3036C16.8652 7.74998 14.8983 7.74996 13.3056 7.88009C11.6657 8.01408 10.2253 8.29716 8.89261 8.97618C6.77579 10.0548 5.05475 11.7758 3.97618 13.8926C3.29716 15.2253 3.01408 16.6657 2.88009 18.3056C2.74996 19.8983 2.74998 21.8651 2.75 24.3036V24.3037V35.6963V35.6963C2.74998 38.1348 2.74996 40.1017 2.88009 41.6944C3.01408 43.3343 3.29716 44.7747 3.97618 46.1074C5.05475 48.2242 6.77579 49.9452 8.89261 51.0238C10.2253 51.7028 11.6657 51.9859 13.3056 52.1199C14.8983 52.25 16.865 52.25 19.3034 52.25H19.3034H19.3035H19.3035H19.3035H40.6964H40.6964H40.6964H40.6965H40.6965C43.1349 52.25 45.1017 52.25 46.6944 52.1199C48.3343 51.9859 49.7747 51.7028 51.1074 51.0238C53.2242 49.9452 54.9452 48.2242 56.0238 46.1074C56.7028 44.7747 56.9859 43.3343 57.1199 41.6944C57.25 40.1017 57.25 38.135 57.25 35.6966V35.6966V35.6965V35.6965V35.6965V24.3036V24.3036V24.3036V24.3035V24.3035C57.25 21.8651 57.25 19.8983 57.1199 18.3056C56.9859 16.6657 56.7028 15.2253 56.0238 13.8926C54.9452 11.7758 53.2242 10.0548 51.1074 8.97618C49.7747 8.29716 48.3343 8.01408 46.6944 7.88009C45.1017 7.74996 43.1349 7.74998 40.6964 7.75H40.6963ZM10.9356 12.9857C11.5281 12.6838 12.3104 12.4764 13.672 12.3651C15.0599 12.2518 16.8426 12.25 19.4 12.25H40.6C43.1574 12.25 44.9401 12.2518 46.328 12.3651C47.6896 12.4764 48.4719 12.6838 49.0644 12.9857C50.3345 13.6329 51.3671 14.6655 52.0143 15.9356C52.3162 16.5281 52.5236 17.3104 52.6349 18.672C52.7482 20.0599 52.75 21.8426 52.75 24.4V35.6C52.75 38.1574 52.7482 39.9401 52.6349 41.328C52.5236 42.6896 52.3162 43.4719 52.0143 44.0644C51.3671 45.3345 50.3345 46.3671 49.0644 47.0143C48.4719 47.3162 47.6896 47.5236 46.328 47.6349C44.9401 47.7482 43.1574 47.75 40.6 47.75H19.4C16.8426 47.75 15.0599 47.7482 13.672 47.6349C12.3104 47.5236 11.5281 47.3162 10.9356 47.0143C9.66547 46.3671 8.63285 45.3345 7.98571 44.0644C7.68379 43.4719 7.4764 42.6896 7.36515 41.328C7.25175 39.9401 7.25 38.1574 7.25 35.6V24.4C7.25 21.8426 7.25175 20.0599 7.36515 18.672C7.4764 17.3104 7.68379 16.5281 7.98571 15.9356C8.63285 14.6655 9.66547 13.6329 10.9356 12.9857ZM41.9325 37C41.6564 37 41.4325 36.7761 41.4325 36.5V23.42C41.4325 23.1439 41.6564 22.92 41.9325 22.92H48.3276C48.6038 22.92 48.8276 23.1439 48.8276 23.42V25.236C48.8276 25.5121 48.6038 25.736 48.3276 25.736H44.737C44.4609 25.736 44.237 25.9599 44.237 26.236V27.8441C44.237 28.1202 44.4609 28.3441 44.737 28.3441H47.6383C47.9144 28.3441 48.1383 28.568 48.1383 28.8441V30.679C48.1383 30.9551 47.9144 31.179 47.6383 31.179H44.737C44.4609 31.179 44.237 31.4029 44.237 31.679V33.6651C44.237 33.9412 44.4609 34.1651 44.737 34.1651H48.5C48.7761 34.1651 49 34.389 49 34.6651V36.5C49 36.7761 48.7761 37 48.5 37H41.9325ZM31.5638 36.5C31.5638 36.7761 31.7876 37 32.0638 37H38.6312C38.9074 37 39.1312 36.7761 39.1312 36.5V34.6651C39.1312 34.389 38.9074 34.1651 38.6312 34.1651H34.8683C34.5921 34.1651 34.3683 33.9412 34.3683 33.6651V31.679C34.3683 31.4029 34.5921 31.179 34.8683 31.179H37.7695C38.0456 31.179 38.2695 30.9551 38.2695 30.679V28.8441C38.2695 28.568 38.0456 28.3441 37.7695 28.3441H34.8683C34.5921 28.3441 34.3683 28.1202 34.3683 27.8441V26.236C34.3683 25.9599 34.5921 25.736 34.8683 25.736H38.4589C38.735 25.736 38.9589 25.5121 38.9589 25.236V23.42C38.9589 23.1439 38.735 22.92 38.4589 22.92H32.0638C31.7876 22.92 31.5638 23.1439 31.5638 23.42V36.5ZM20.9709 37C20.6948 37 20.4709 36.7761 20.4709 36.5V23.42C20.4709 23.1439 20.6948 22.92 20.9709 22.92H24.7482C25.5838 22.92 26.3463 23.0523 27.0357 23.3169C27.7251 23.5815 28.2734 24.0414 28.6808 24.6965C29.0986 25.3391 29.3075 26.2274 29.3075 27.3613C29.3075 28.4575 29.0986 29.3521 28.6808 30.045C28.3267 30.6474 27.8661 31.1117 27.299 31.4379L29.5695 36.288C29.7248 36.6195 29.4828 37 29.1167 37H27.0976C26.8983 37 26.7181 36.8817 26.6388 36.6988L24.6236 32.0484H23.7755C23.4993 32.0484 23.2755 32.2722 23.2755 32.5484V36.5C23.2755 36.7761 23.0516 37 22.7755 37H20.9709ZM23.2755 28.8836C23.2755 29.1597 23.4993 29.3836 23.7755 29.3836H24.5289C25.1973 29.3836 25.7039 29.2135 26.0486 28.8733C26.4038 28.5205 26.5813 28.0165 26.5813 27.3613C26.5813 26.6936 26.4038 26.2337 26.0486 25.9817C25.7039 25.7297 25.1973 25.6037 24.5289 25.6037H23.7755C23.4993 25.6037 23.2755 25.8276 23.2755 26.1037V28.8836ZM11 36.5C11 36.7761 11.2239 37 11.5 37H13.3045C13.5806 37 13.8045 36.7761 13.8045 36.5V32.1326C13.8045 31.8564 14.0284 31.6326 14.3045 31.6326H17.2841C17.5602 31.6326 17.7841 31.4087 17.7841 31.1326V29.3166C17.7841 29.0404 17.5602 28.8166 17.2841 28.8166H14.3045C14.0284 28.8166 13.8045 28.5927 13.8045 28.3166V26.236C13.8045 25.9599 14.0284 25.736 14.3045 25.736H17.9421C18.2183 25.736 18.4421 25.5121 18.4421 25.236V23.42C18.4421 23.1439 18.2183 22.92 17.9421 22.92H11.5C11.2239 22.92 11 23.1439 11 23.42V36.5Z"
  />
</svg>
