<svg
  width="60"
  height="60"
  viewBox="0 0 60 60"
  fill="currentColor"
  xmlns="http://www.w3.org/2000/svg"
>
  <path
    d="M32 16C32 14.8954 31.1046 14 30 14C28.8954 14 28 14.8954 28 16V17.4305C25.3284 18.0571 22.6487 19.9968 22.4405 23.3278L22.4391 23.3503L22.4382 23.3728C22.3287 26.1169 23.3032 28.0516 24.9972 29.3485C26.3971 30.4201 28.2049 30.9621 29.604 31.3816L29.8564 31.4574C31.4762 31.946 32.6152 32.3347 33.3941 32.9762C33.9982 33.4737 34.5253 34.2427 34.4753 35.9801C34.3896 37.501 33.0222 38.8041 30.8104 39.079C28.6445 39.3482 26.6844 38.4637 25.9494 36.6341C25.5377 35.6092 24.373 35.112 23.3481 35.5238C22.3231 35.9355 21.826 37.1002 22.2377 38.1251C23.3421 40.8744 25.6038 42.362 28 42.8936V44C28 45.1046 28.8954 46 30 46C31.1046 46 32 45.1046 32 44V42.9352C35.1066 42.3109 38.2757 40.0733 38.4712 36.1627L38.4722 36.144L38.4728 36.1253C38.5613 33.2913 37.6143 31.27 35.9371 29.8886C34.4516 28.6651 32.5299 28.0857 31.0684 27.645L31.0115 27.6278C29.352 27.1273 28.2126 26.7724 27.4287 26.1723C26.8563 25.7341 26.3782 25.0941 26.434 23.5576C26.5067 22.5716 27.4176 21.5483 29.2557 21.2576C31.037 20.9759 32.8989 21.5778 33.9135 23.0423C34.5425 23.9502 35.7884 24.1764 36.6964 23.5474C37.6044 22.9184 37.8305 21.6724 37.2015 20.7644C35.8818 18.8595 33.9701 17.7938 32 17.387V16Z"
  />
  <path
    fill-rule="evenodd"
    clip-rule="evenodd"
    d="M30 2.75C14.9502 2.75 2.75 14.9502 2.75 30C2.75 45.0498 14.9502 57.25 30 57.25C45.0498 57.25 57.25 45.0498 57.25 30C57.25 14.9502 45.0498 2.75 30 2.75ZM7.25 30C7.25 17.4355 17.4355 7.25 30 7.25C42.5645 7.25 52.75 17.4355 52.75 30C52.75 42.5645 42.5645 52.75 30 52.75C17.4355 52.75 7.25 42.5645 7.25 30Z"
  />
</svg>
