<svg
  width="60"
  height="60"
  viewBox="0 0 60 60"
  fill="currentColor"
  xmlns="http://www.w3.org/2000/svg"
>
  <path
    fill-rule="evenodd"
    clip-rule="evenodd"
    d="M29.9995 4.75C22.9829 4.75 17.2949 10.438 17.2949 17.4545C17.2949 24.4711 22.9829 30.1591 29.9995 30.1591C37.016 30.1591 42.704 24.4711 42.704 17.4545C42.704 10.438 37.016 4.75 29.9995 4.75ZM21.7949 17.4545C21.7949 12.9233 25.4682 9.25 29.9995 9.25C34.5307 9.25 38.204 12.9233 38.204 17.4545C38.204 21.9858 34.5307 25.6591 29.9995 25.6591C25.4682 25.6591 21.7949 21.9858 21.7949 17.4545Z"
  />
  <path
    fill-rule="evenodd"
    clip-rule="evenodd"
    d="M30.0001 31.9318C23.945 31.9318 18.3822 34.066 14.032 37.6212C9.59181 41.2499 10.213 47.9725 14.9651 50.9452C19.3263 53.6734 24.4826 55.25 30.0004 55.25C35.5179 55.25 40.6742 53.6735 45.0353 50.9455C49.7874 47.9728 50.4087 41.2502 45.9686 37.6215C41.6183 34.0661 36.0554 31.9318 30.0001 31.9318ZM16.8796 41.1057C20.4556 38.1832 25.0203 36.4318 30.0001 36.4318C34.98 36.4318 39.5448 38.1832 43.1209 41.1059C45.0762 42.7038 44.8989 45.7229 42.6488 47.1304C38.9823 49.4239 34.6496 50.75 30.0004 50.75C25.351 50.75 21.0182 49.4239 17.3516 47.1302C15.1015 45.7226 14.9243 42.7036 16.8796 41.1057Z"
  />
</svg>
