<svg
  width="60"
  height="60"
  viewBox="0 0 60 60"
  fill="currentColor"
  xmlns="http://www.w3.org/2000/svg"
>
  <path
    fill-rule="evenodd"
    clip-rule="evenodd"
    d="M23.3955 5.75C16.63 5.75 11.1455 11.2345 11.1455 18C11.1455 24.7655 16.63 30.25 23.3955 30.25C30.161 30.25 35.6455 24.7655 35.6455 18C35.6455 11.2345 30.161 5.75 23.3955 5.75ZM15.6455 18C15.6455 13.7198 19.1153 10.25 23.3955 10.25C27.6757 10.25 31.1455 13.7198 31.1455 18C31.1455 22.2802 27.6757 25.75 23.3955 25.75C19.1153 25.75 15.6455 22.2802 15.6455 18Z"
  />
  <path
    d="M39.8242 7.80937C38.5887 7.67626 37.4792 8.56992 37.3461 9.80541C37.213 11.0409 38.1067 12.1504 39.3422 12.2835C42.2224 12.5938 44.4664 15.0363 44.4664 18C44.4664 20.9637 42.2224 23.4062 39.3422 23.7165C38.1067 23.8497 37.213 24.9591 37.3461 26.1946C37.4792 27.4301 38.5887 28.3238 39.8242 28.1907C44.9652 27.6368 48.9664 23.2872 48.9664 18C48.9664 12.7128 44.9652 8.36324 39.8242 7.80937Z"
  />
  <path
    d="M41.3344 35.8477C41.6714 34.6516 42.9142 33.9552 44.1103 34.2922C46.1528 34.8677 48.0608 35.7613 49.7774 36.9151C54.7036 40.2261 54.013 47.3493 48.9074 49.9839C47.3788 50.7727 45.7465 51.3899 44.0364 51.8096C42.8295 52.1058 41.6111 51.3676 41.3149 50.1607C41.0188 48.9539 41.757 47.7355 42.9638 47.4393C44.3254 47.1051 45.6255 46.6137 46.8438 45.985C49.078 44.832 49.1959 41.9462 47.2671 40.6499C45.9391 39.7573 44.4654 39.0675 42.8899 38.6236C41.6938 38.2865 40.9974 37.0437 41.3344 35.8477Z"
  />
  <path
    fill-rule="evenodd"
    clip-rule="evenodd"
    d="M23.3959 31.75C17.7018 31.75 12.4605 33.7153 8.32221 37.003C3.80979 40.5878 4.44041 47.3672 9.24614 50.2924C13.3722 52.8039 18.2187 54.25 23.3962 54.25C28.5734 54.25 33.4199 52.804 37.5458 50.2927C42.3516 47.3675 42.9823 40.5881 38.47 37.0032C34.3316 33.7154 29.0902 31.75 23.3959 31.75ZM11.1214 40.5264C14.4924 37.8484 18.7544 36.25 23.3959 36.25C28.0376 36.25 32.2997 37.8484 35.6707 40.5266C37.6253 42.0795 37.4557 45.0795 35.2061 46.4487C31.7651 48.5431 27.725 49.75 23.3962 49.75C19.0672 49.75 15.0269 48.5431 11.5859 46.4485C9.3364 45.0793 9.16678 42.0792 11.1214 40.5264Z"
  />
</svg>
