<svg
  width="60"
  height="60"
  viewBox="0 0 60 60"
  fill="currentColor"
  xmlns="http://www.w3.org/2000/svg"
>
  <path
    d="M22 42C23.6569 42 25 40.6569 25 39C25 37.3431 23.6569 36 22 36C20.3431 36 19 37.3431 19 39C19 40.6569 20.3431 42 22 42Z"
  />
  <path
    d="M41 39C41 40.6569 39.6569 42 38 42C36.3431 42 35 40.6569 35 39C35 37.3431 36.3431 36 38 36C39.6569 36 41 37.3431 41 39Z"
  />
  <path
    fill-rule="evenodd"
    clip-rule="evenodd"
    d="M18.75 4.75C18.75 3.50736 19.7574 2.5 21 2.5H39C40.2426 2.5 41.25 3.50736 41.25 4.75C41.25 5.99264 40.2426 7 39 7H32.25V9.75H33.6963C36.1348 9.74998 38.1017 9.74996 39.6944 9.88009C41.3343 10.0141 42.7747 10.2972 44.1074 10.9762C46.2242 12.0548 47.9452 13.7758 49.0238 15.8926C49.7028 17.2253 49.9859 18.6657 50.1199 20.3056C50.25 21.8983 50.25 23.8651 50.25 26.3035V33.6964C50.25 36.1348 50.25 38.1017 50.1199 39.6944C49.9859 41.3343 49.7028 42.7747 49.0238 44.1074C47.9505 46.2138 46.2411 47.9283 44.1385 49.0079L46.9486 53.875C47.5699 54.9511 47.2012 56.3272 46.125 56.9485C45.0488 57.5699 43.6728 57.2011 43.0514 56.125L39.5892 50.1283C38.0154 50.25 36.0815 50.25 33.6965 50.25H26.3036C23.9186 50.25 21.9846 50.25 20.4108 50.1283L16.9486 56.125C16.3272 57.2012 14.9512 57.5699 13.875 56.9486C12.7988 56.3272 12.4301 54.9512 13.0514 53.875L15.8615 49.0079C13.7589 47.9283 12.0495 46.2138 10.9762 44.1074C10.2972 42.7747 10.0141 41.3343 9.88009 39.6944C9.74996 38.1017 9.74998 36.1348 9.75 33.6963V26.3037C9.74998 23.8652 9.74996 21.8983 9.88009 20.3056C10.0141 18.6657 10.2972 17.2253 10.9762 15.8926C12.0548 13.7758 13.7758 12.0548 15.8926 10.9762C17.2253 10.2972 18.6657 10.0141 20.3056 9.88009C21.8983 9.74996 23.8652 9.74998 26.3037 9.75H27.75V7H21C19.7574 7 18.75 5.99264 18.75 4.75ZM14.25 33.6V32.25H45.75V33.6C45.75 36.1574 45.7482 37.9401 45.6349 39.328C45.5236 40.6896 45.3162 41.4719 45.0143 42.0644C44.3671 43.3345 43.3345 44.3671 42.0644 45.0143C41.4719 45.3162 40.6896 45.5236 39.328 45.6349C37.9401 45.7482 36.1574 45.75 33.6 45.75H26.4C23.8426 45.75 22.0599 45.7482 20.672 45.6349C19.3104 45.5236 18.5281 45.3162 17.9356 45.0143C16.6655 44.3671 15.6329 43.3345 14.9857 42.0644C14.6838 41.4719 14.4764 40.6896 14.3651 39.328C14.2518 37.9401 14.25 36.1574 14.25 33.6ZM45.75 26.4V27.75H14.25V26.4C14.25 23.8426 14.2518 22.0599 14.3651 20.672C14.4764 19.3104 14.6838 18.5281 14.9857 17.9356C15.6329 16.6655 16.6655 15.6329 17.9356 14.9857C18.5281 14.6838 19.3104 14.4764 20.672 14.3651C22.0599 14.2518 23.8426 14.25 26.4 14.25H33.6C36.1574 14.25 37.9401 14.2518 39.328 14.3651C40.6896 14.4764 41.4719 14.6838 42.0644 14.9857C43.3345 15.6329 44.3671 16.6655 45.0143 17.9356C45.3162 18.5281 45.5236 19.3104 45.6349 20.672C45.7482 22.0599 45.75 23.8426 45.75 26.4Z"
  />
  <path
    d="M24 52.75C22.7574 52.75 21.75 53.7574 21.75 55C21.75 56.2426 22.7574 57.25 24 57.25H36C37.2426 57.25 38.25 56.2426 38.25 55C38.25 53.7574 37.2426 52.75 36 52.75H24Z"
  />
</svg>
