<svg
  width="60"
  height="60"
  viewBox="0 0 60 60"
  fill="currentColor"
  xmlns="http://www.w3.org/2000/svg"
>
  <path
    d="M22 44C23.6569 44 25 42.6568 25 41C25 39.3431 23.6569 38 22 38C20.3431 38 19 39.3431 19 41C19 42.6568 20.3431 44 22 44Z"
  />
  <path
    d="M41 41C41 42.6568 39.6569 44 38 44C36.3431 44 35 42.6568 35 41C35 39.3431 36.3431 38 38 38C39.6569 38 41 39.3431 41 41Z"
  />
  <path
    fill-rule="evenodd"
    clip-rule="evenodd"
    d="M23.5402 2.74996C22.3138 2.74973 21.4642 2.74957 20.621 2.87774C19.8747 2.99119 19.1417 3.17947 18.4331 3.43973C17.6325 3.73376 16.8882 4.14334 15.8137 4.73455L13.9157 5.77849C12.8269 6.37734 12.4297 7.74547 13.0285 8.83429C13.6274 9.92312 14.9955 10.3203 16.0843 9.72146L17.8434 8.75395C19.1083 8.05828 19.5423 7.82627 19.9845 7.66383C20.1957 7.58628 20.4104 7.51938 20.628 7.46334L23.6845 12.7574C22.4022 12.7693 21.2834 12.8002 20.3056 12.8801C18.6657 13.0141 17.2253 13.2971 15.8926 13.9762C13.7758 15.0547 12.0548 16.7758 10.9762 18.8926C10.2972 20.2252 10.0141 21.6657 9.88009 23.3056C9.74996 24.8983 9.74998 26.8652 9.75 29.3037V35.6963C9.74998 38.1348 9.74996 40.1017 9.88009 41.6944C10.0141 43.3343 10.2972 44.7747 10.9762 46.1074C11.8976 47.9157 13.2878 49.4352 14.993 50.512L13.0515 53.875C12.4301 54.9511 12.7989 56.3272 13.875 56.9485C14.9512 57.5699 16.3272 57.2011 16.9486 56.125L19.3206 52.0165C19.6411 52.0586 19.9691 52.0924 20.3056 52.1199C21.8983 52.25 23.865 52.25 26.3034 52.25H33.6964C36.1348 52.25 38.1017 52.25 39.6944 52.1199C40.0309 52.0924 40.3589 52.0586 40.6794 52.0165L43.0514 56.125C43.6728 57.2011 45.0488 57.5699 46.125 56.9485C47.2011 56.3272 47.5699 54.9511 46.9485 53.875L45.007 50.512C46.7122 49.4352 48.1024 47.9157 49.0238 46.1074C49.7028 44.7747 49.9859 43.3343 50.1199 41.6944C50.25 40.1017 50.25 38.1349 50.25 35.6966V29.3036C50.25 26.8652 50.25 24.8982 50.1199 23.3056C49.9859 21.6657 49.7028 20.2252 49.0238 18.8926C47.9452 16.7758 46.2242 15.0547 44.1074 13.9762C42.7747 13.2971 41.3343 13.0141 39.6944 12.8801C38.7166 12.8002 37.5978 12.7693 36.3155 12.7574L39.372 7.46335C39.5896 7.51938 39.8043 7.58628 40.0155 7.66383C40.4577 7.82627 40.8917 8.05828 42.1566 8.75395L43.9157 9.72146C45.0045 10.3203 46.3726 9.92312 46.9715 8.83429C47.5703 7.74547 47.1731 6.37734 46.0843 5.77849L44.1863 4.73456C43.1118 4.14334 42.3675 3.73376 41.5669 3.43973C40.8583 3.17947 40.1253 2.99119 39.3789 2.87774C38.5358 2.74957 37.6862 2.74973 36.4598 2.74996H23.5402ZM34.299 7.24998H25.701L28.8764 12.75H31.1236L34.299 7.24998ZM20.672 17.3651C19.3104 17.4764 18.5281 17.6838 17.9356 17.9857C16.6655 18.6328 15.6329 19.6654 14.9857 20.9355C14.6838 21.5281 14.4764 22.3104 14.3651 23.672C14.2518 25.0599 14.25 26.8426 14.25 29.4V29.75H45.75V29.4C45.75 26.8426 45.7482 25.0599 45.6349 23.672C45.5236 22.3104 45.3162 21.5281 45.0143 20.9355C44.3671 19.6654 43.3345 18.6328 42.0644 17.9857C41.4719 17.6838 40.6896 17.4764 39.328 17.3651C37.9401 17.2517 36.1574 17.25 33.6 17.25H26.4C23.8426 17.25 22.0599 17.2517 20.672 17.3651ZM14.25 35.6V34.25H45.75V35.6C45.75 38.1573 45.7482 39.94 45.6349 41.3279C45.5236 42.6896 45.3162 43.4719 45.0143 44.0644C44.3671 45.3345 43.3345 46.3671 42.0644 47.0143C41.4719 47.3162 40.6896 47.5236 39.328 47.6348C37.9401 47.7482 36.1574 47.75 33.6 47.75H26.4C23.8426 47.75 22.0599 47.7482 20.672 47.6348C19.3104 47.5236 18.5281 47.3162 17.9356 47.0143C16.6655 46.3671 15.6329 45.3345 14.9857 44.0644C14.6838 43.4719 14.4764 42.6896 14.3651 41.3279C14.2518 39.94 14.25 38.1573 14.25 35.6Z"
  />
</svg>
