<svg
  width="60"
  height="60"
  viewBox="0 0 60 60"
  fill="currentColor"
  xmlns="http://www.w3.org/2000/svg"
>
  <path
    d="M37.6963 5.75H22.3037C19.8652 5.74998 17.8983 5.74996 16.3056 5.88009C14.6657 6.01408 13.2253 6.29716 11.8926 6.97618C9.77578 8.05475 8.05475 9.77578 6.97618 11.8926C6.29716 13.2253 6.01408 14.6657 5.88009 16.3056C5.74996 17.8983 5.74998 19.8652 5.75 22.3037V37.6963C5.74998 40.1348 5.74996 42.1017 5.88009 43.6944C6.01408 45.3343 6.29716 46.7747 6.97618 48.1074C8.05475 50.2242 9.77578 51.9452 11.8926 53.0238C13.2253 53.7028 14.6657 53.9859 16.3056 54.1199C17.8983 54.25 19.8651 54.25 22.3036 54.25H37.6964C40.1348 54.25 42.1017 54.25 43.6944 54.1199C45.3343 53.9859 46.7747 53.7028 48.1074 53.0238C50.2242 51.9452 51.9452 50.2242 53.0238 48.1074C53.7028 46.7747 53.9859 45.3343 54.1199 43.6944C54.25 42.1017 54.25 40.1349 54.25 37.6964V22.3036C54.25 19.8652 54.25 17.8983 54.1199 16.3056C53.9859 14.6657 53.7028 13.2253 53.0238 11.8926C51.9452 9.77578 50.2242 8.05475 48.1074 6.97618C46.7747 6.29716 45.3343 6.01408 43.6944 5.88009C42.1017 5.74996 40.1348 5.74998 37.6963 5.75Z"
  />
</svg>
