<svg
  width="60"
  height="60"
  viewBox="0 0 60 60"
  fill="currentColor"
  xmlns="http://www.w3.org/2000/svg"
>
  <path
    fill-rule="evenodd"
    clip-rule="evenodd"
    d="M21.3037 4.75H38.6963C41.1348 4.74998 43.1017 4.74996 44.6944 4.88009C46.3343 5.01408 47.7747 5.29716 49.1074 5.97618C51.2242 7.05475 52.9452 8.77578 54.0238 10.8926C54.7028 12.2253 54.9859 13.6657 55.1199 15.3056C55.25 16.8983 55.25 18.8651 55.25 21.3036V38.6964C55.25 41.1349 55.25 43.1017 55.1199 44.6944C54.9859 46.3343 54.7028 47.7747 54.0238 49.1074C52.9452 51.2242 51.2242 52.9452 49.1074 54.0238C47.7747 54.7028 46.3343 54.9859 44.6944 55.1199C43.1017 55.25 41.1349 55.25 38.6964 55.25H21.3036C18.8651 55.25 16.8983 55.25 15.3056 55.1199C13.6657 54.9859 12.2253 54.7028 10.8926 54.0238C8.77578 52.9452 7.05475 51.2242 5.97618 49.1074C5.29716 47.7747 5.01408 46.3343 4.88009 44.6944C4.74996 43.1017 4.74998 41.1348 4.75 38.6963V21.3037C4.74998 18.8652 4.74996 16.8983 4.88009 15.3056C5.01408 13.6657 5.29716 12.2253 5.97618 10.8926C7.05475 8.77578 8.77578 7.05475 10.8926 5.97618C12.2253 5.29716 13.6657 5.01408 15.3056 4.88009C16.8983 4.74996 18.8652 4.74998 21.3037 4.75ZM15.672 9.36515C14.3104 9.4764 13.5281 9.68379 12.9356 9.98571C11.6655 10.6329 10.6329 11.6655 9.98571 12.9356C9.68379 13.5281 9.4764 14.3104 9.36515 15.672C9.25175 17.0599 9.25 18.8426 9.25 21.4V38.6C9.25 41.1574 9.25175 42.9401 9.36515 44.328C9.4764 45.6896 9.68379 46.4719 9.98571 47.0644C10.6329 48.3345 11.6655 49.3671 12.9356 50.0143C13.5281 50.3162 14.3104 50.5236 15.672 50.6349C17.0599 50.7482 18.8426 50.75 21.4 50.75H38.6C41.1574 50.75 42.9401 50.7482 44.328 50.6349C45.6896 50.5236 46.4719 50.3162 47.0644 50.0143C48.3345 49.3671 49.3671 48.3345 50.0143 47.0644C50.3162 46.4719 50.5236 45.6896 50.6349 44.328C50.7482 42.9401 50.75 41.1574 50.75 38.6V21.4C50.75 18.8426 50.7482 17.0599 50.6349 15.672C50.5236 14.3104 50.3162 13.5281 50.0143 12.9356C49.3671 11.6655 48.3345 10.6329 47.0644 9.98571C46.4719 9.68379 45.6896 9.4764 44.328 9.36515C42.9401 9.25175 41.1574 9.25 38.6 9.25H21.4C18.8426 9.25 17.0599 9.25175 15.672 9.36515Z"
  />
  <path
    fill-rule="evenodd"
    clip-rule="evenodd"
    d="M43.7097 27.4579C44.4301 29.0761 44.4301 30.9239 43.7097 32.5421C43.1932 33.702 42.257 34.5155 41.3086 35.1856C40.37 35.8487 39.114 36.5738 37.6183 37.4373L32.6316 40.3163C31.136 41.1798 29.8801 41.905 28.8365 42.3863C27.782 42.8726 26.6094 43.2767 25.3467 43.144C23.5851 42.9588 21.9848 42.0349 20.9436 40.6019C20.1973 39.5747 19.961 38.3571 19.8549 37.2007C19.7499 36.0564 19.75 34.606 19.75 32.879L19.75 27.121C19.75 25.3939 19.7499 23.9436 19.8549 22.7993C19.961 21.6429 20.1973 20.4253 20.9436 19.3981C21.9848 17.9651 23.5851 17.0412 25.3467 16.856C26.6094 16.7233 27.782 17.1274 28.8365 17.6137C29.8801 18.095 31.1361 18.8202 32.6317 19.6837L37.6184 22.5628C39.114 23.4262 40.37 24.1514 41.3086 24.8144C42.257 25.4845 43.1932 26.298 43.7097 27.4579ZM39.5987 30.7118C39.8004 30.2587 39.8004 29.7413 39.5987 29.2882C39.5865 29.2608 39.4709 29.0259 38.7119 28.4897C37.9626 27.9603 36.8886 27.3376 35.275 26.406L30.475 23.6347C28.8614 22.7031 27.7852 22.0843 26.952 21.7001C26.1082 21.3109 25.8469 21.3282 25.8171 21.3314C25.3238 21.3832 24.8757 21.6419 24.5842 22.0432C24.5666 22.0674 24.421 22.285 24.3361 23.2104C24.2523 24.1241 24.25 25.3655 24.25 27.2287V32.7713C24.25 34.6345 24.2523 35.8759 24.3361 36.7896C24.421 37.715 24.5666 37.9326 24.5842 37.9568C24.8757 38.3581 25.3238 38.6168 25.8171 38.6686C25.8469 38.6718 26.1082 38.6891 26.952 38.2999C27.7852 37.9157 28.8614 37.2969 30.475 36.3653L35.275 33.594C36.8886 32.6624 37.9626 32.0397 38.7119 31.5103C39.4709 30.9741 39.5865 30.7392 39.5987 30.7118Z"
  />
</svg>
