<svg
  width="60"
  height="60"
  viewBox="0 0 60 60"
  fill="currentColor"
  xmlns="http://www.w3.org/2000/svg"
>
  <path
    d="M21.3029 4.75H27C28.2426 4.75 29.25 5.75736 29.25 7C29.25 8.24264 28.2426 9.25 27 9.25H21.3992C18.8421 9.25 17.0596 9.25175 15.6719 9.36515C14.3104 9.47639 13.5281 9.68378 12.9356 9.98571C11.6655 10.6329 10.6329 11.6655 9.98571 12.9356C9.68379 13.5281 9.4764 14.3104 9.36515 15.672C9.25175 17.0599 9.25 18.8426 9.25 21.4V38.6C9.25 41.1574 9.25175 42.9401 9.36515 44.328C9.4764 45.6896 9.68379 46.4719 9.98571 47.0644C10.6329 48.3345 11.6655 49.3671 12.9356 50.0143C13.5281 50.3162 14.3104 50.5236 15.672 50.6349C17.0599 50.7482 18.8426 50.75 21.4 50.75H38.6C41.1574 50.75 42.9401 50.7482 44.328 50.6349C45.6896 50.5236 46.4719 50.3162 47.0644 50.0143C48.3345 49.3671 49.3671 48.3345 50.0143 47.0644C50.3162 46.4719 50.5236 45.6896 50.6349 44.328C50.7482 42.9401 50.75 41.1574 50.75 38.6V32.5C50.75 31.2574 51.7574 30.25 53 30.25C54.2426 30.25 55.25 31.2574 55.25 32.5V38.6964C55.25 41.1348 55.25 43.1017 55.1199 44.6944C54.9859 46.3343 54.7028 47.7747 54.0238 49.1074C52.9452 51.2242 51.2242 52.9452 49.1074 54.0238C47.7747 54.7028 46.3343 54.9859 44.6944 55.1199C43.1017 55.25 41.1349 55.25 38.6964 55.25H21.3036C18.8652 55.25 16.8983 55.25 15.3056 55.1199C13.6657 54.9859 12.2253 54.7028 10.8926 54.0238C8.77578 52.9452 7.05475 51.2242 5.97618 49.1074C5.29716 47.7747 5.01408 46.3343 4.88009 44.6944C4.74996 43.1017 4.74998 41.1348 4.75 38.6963V21.3037C4.74998 18.8652 4.74996 16.8983 4.88009 15.3056C5.01408 13.6657 5.29716 12.2253 5.97618 10.8926C7.05475 8.77578 8.77578 7.05475 10.8926 5.97618C12.2252 5.29717 13.6656 5.01408 15.3054 4.88009C16.898 4.74996 18.8646 4.74998 21.3029 4.75Z"
  />
  <path
    fill-rule="evenodd"
    clip-rule="evenodd"
    d="M41.7097 27.4579C42.4301 29.0761 42.4301 30.9239 41.7097 32.5421C41.1932 33.702 40.257 34.5155 39.3086 35.1856C38.37 35.8486 37.114 36.5738 35.6184 37.4372L32.8817 39.0172C31.3861 39.8808 30.1301 40.606 29.0865 41.0872C28.032 41.5736 26.8594 41.9776 25.5967 41.8449C23.8351 41.6598 22.2348 40.7358 21.1936 39.3028C20.4473 38.2756 20.211 37.0581 20.1049 35.9017C19.9999 34.7573 20 33.307 20 31.58L20 28.42C20 26.693 19.9999 25.2427 20.1049 24.0983C20.211 22.9419 20.4473 21.7244 21.1936 20.6972C22.2348 19.2642 23.8351 18.3402 25.5967 18.1551C26.8594 18.0224 28.032 18.4265 29.0865 18.9128C30.1301 19.394 31.386 20.1192 32.8816 20.9827L35.6183 22.5628C37.114 23.4262 38.37 24.1514 39.3086 24.8144C40.257 25.4845 41.1932 26.298 41.7097 27.4579ZM37.5987 30.7118C37.8004 30.2587 37.8004 29.7413 37.5987 29.2882C37.5865 29.2608 37.4709 29.0259 36.7119 28.4897C35.9626 27.9603 34.8886 27.3376 33.275 26.406L30.725 24.9338C29.1114 24.0021 28.0352 23.3834 27.202 22.9991C26.3582 22.61 26.0969 22.6273 26.0671 22.6304C25.5738 22.6823 25.1257 22.941 24.8342 23.3422C24.8166 23.3665 24.671 23.5841 24.5861 24.5094C24.5023 25.4231 24.5 26.6645 24.5 28.5278V31.4722C24.5 33.3355 24.5023 34.5769 24.5861 35.4906C24.671 36.4159 24.8166 36.6335 24.8342 36.6578C25.1257 37.059 25.5738 37.3177 26.0671 37.3696C26.0969 37.3727 26.3582 37.39 27.202 37.0009C28.0352 36.6166 29.1114 35.9979 30.725 35.0663L33.275 33.594C34.8886 32.6624 35.9626 32.0397 36.7119 31.5103C37.4709 30.9741 37.5865 30.7392 37.5987 30.7118Z"
  />
  <path
    d="M45.0455 5.61455C45.418 4.79515 46.582 4.79515 46.9545 5.61455L49.277 10.723L54.3854 13.0455C55.2048 13.418 55.2048 14.582 54.3854 14.9545L49.277 17.277L46.9545 22.3854C46.582 23.2049 45.418 23.2049 45.0455 22.3854L42.723 17.277L37.6146 14.9545C36.7952 14.582 36.7952 13.418 37.6146 13.0455L42.723 10.723L45.0455 5.61455Z"
  />
</svg>
