<svg
  width="60"
  height="60"
  viewBox="0 0 60 60"
  fill="currentColor"
  xmlns="http://www.w3.org/2000/svg"
>
  <path
    d="M36.6648 9H23.3352C21.2235 8.99998 19.5202 8.99997 18.1409 9.11266C16.7208 9.22869 15.4734 9.47383 14.3194 10.0618C12.4862 10.9959 10.9959 12.4862 10.0618 14.3194C9.47383 15.4734 9.22869 16.7208 9.11266 18.1409C8.99997 19.5202 8.99998 21.2234 9 23.3351V36.6648C8.99998 38.7765 8.99997 40.4798 9.11266 41.8591C9.22869 43.2792 9.47383 44.5266 10.0618 45.6806C10.9959 47.5138 12.4862 49.0041 14.3194 49.9382C15.4734 50.5262 16.7208 50.7713 18.1409 50.8873C19.5202 51 21.2234 51 23.3351 51H36.6649C38.7766 51 40.4798 51 41.8591 50.8873C43.2792 50.7713 44.5266 50.5262 45.6806 49.9382C47.5138 49.0041 49.0041 47.5138 49.9382 45.6806C50.5262 44.5266 50.7713 43.2792 50.8873 41.8591C51 40.4798 51 38.7766 51 36.6649V23.3351C51 21.2234 51 19.5202 50.8873 18.1409C50.7713 16.7208 50.5262 15.4734 49.9382 14.3194C49.0041 12.4862 47.5138 10.9959 45.6806 10.0618C44.5266 9.47383 43.2792 9.22869 41.8591 9.11266C40.4798 8.99997 38.7765 8.99998 36.6648 9Z"
  />
</svg>
