<svg
  width="60"
  height="60"
  viewBox="0 0 60 60"
  fill="currentColor"
  xmlns="http://www.w3.org/2000/svg"
>
  <path
    d="M40.3322 6.69101e-07H19.6678C16.7705 -2.52622e-05 14.4336 -4.61787e-05 12.5413 0.154565C10.5929 0.313756 8.8815 0.650087 7.29815 1.45685C4.78311 2.73832 2.73832 4.78311 1.45685 7.29815C0.650087 8.8815 0.313756 10.5929 0.154565 12.5413C-4.61787e-05 14.4336 -2.52622e-05 16.7705 6.69102e-07 19.6677V40.3322C-2.52622e-05 43.2295 -4.61787e-05 45.5664 0.154565 47.4587C0.313756 49.4071 0.650087 51.1185 1.45685 52.7019C2.73832 55.2169 4.78311 57.2617 7.29815 58.5432C8.8815 59.3499 10.5929 59.6862 12.5413 59.8454C14.4336 60 16.7704 60 19.6676 60H40.3323C43.2295 60 45.5664 60 47.4587 59.8454C49.4071 59.6862 51.1185 59.3499 52.7019 58.5432C55.2169 57.2617 57.2617 55.2169 58.5432 52.7019C59.3499 51.1185 59.6862 49.4071 59.8454 47.4587C60 45.5664 60 43.2296 60 40.3324V19.6677C60 16.7705 60 14.4336 59.8454 12.5413C59.6862 10.5929 59.3499 8.8815 58.5432 7.29815C57.2617 4.78311 55.2169 2.73832 52.7019 1.45685C51.1185 0.650087 49.4071 0.313756 47.4587 0.154565C45.5664 -4.61787e-05 43.2295 -2.52622e-05 40.3322 6.69101e-07Z"
    fill="#D74134"
    fill-opacity="0.08"
  />
  <path
    d="M44.4266 32.7024C45.1911 30.9822 45.1911 29.0178 44.4266 27.2976C43.8785 26.0645 42.8849 25.1998 41.8785 24.4874C40.8825 23.7825 39.5495 23.0117 37.9623 22.0938L32.6704 19.0332C31.0832 18.1152 29.7503 17.3442 28.6429 16.8326C27.5238 16.3156 26.2794 15.8861 24.9394 16.0272C23.0699 16.224 21.3716 17.2062 20.2667 18.7296C19.4747 19.8215 19.2239 21.1159 19.1113 22.3452C18.9999 23.5617 19 25.1035 19 26.9394V33.0606C19 34.8965 18.9999 36.4383 19.1113 37.6548C19.2239 38.8841 19.4747 40.1785 20.2667 41.2704C21.3716 42.7938 23.0699 43.776 24.9394 43.9728C26.2794 44.1139 27.5238 43.6844 28.6429 43.1674C29.7502 42.6558 31.0831 41.8849 32.6702 40.9669L37.9623 37.9063C39.5495 36.9883 40.8825 36.2175 41.8785 35.5126C42.8849 34.8002 43.8785 33.9355 44.4266 32.7024Z"
    fill="#ED6557"
  />
</svg>
