<svg
  width="60"
  height="60"
  viewBox="0 0 60 60"
  fill="currentColor"
  xmlns="http://www.w3.org/2000/svg"
>
  <path
    d="M28.25 6H22.5529C20.1146 5.99998 18.148 5.99996 16.5554 6.13009C14.9156 6.26408 13.4752 6.54717 12.1426 7.22618C10.0258 8.30475 8.30475 10.0258 7.22618 12.1426C6.54716 13.4753 6.26408 14.9157 6.13009 16.5556C5.99996 18.1483 5.99998 20.1152 6 22.5537V37.4463C5.99998 39.8848 5.99996 41.8517 6.13009 43.4444C6.26408 45.0843 6.54716 46.5247 7.22618 47.8574C8.30475 49.9742 10.0258 51.6952 12.1426 52.7738C13.4753 53.4528 14.9157 53.7359 16.5556 53.8699C18.1483 54 20.1151 54 22.5536 54H35.4464C37.8848 54 39.8517 54 41.4444 53.8699C43.0843 53.7359 44.5247 53.4528 45.8574 52.7738C47.9742 51.6952 49.6952 49.9742 50.7738 47.8574C51.4528 46.5247 51.7359 45.0843 51.8699 43.4444C52 41.8517 52 39.8849 52 37.4464V31.25C52 30.0074 50.9926 29 49.75 29C48.5074 29 47.5 30.0074 47.5 31.25V37.35C47.5 39.9074 47.4982 41.6901 47.3849 43.078C47.2736 44.4396 47.0662 45.2219 46.7643 45.8144C46.1171 47.0845 45.0845 48.1171 43.8144 48.7643C43.2219 49.0662 42.4396 49.2736 41.078 49.3849C39.6901 49.4982 37.9074 49.5 35.35 49.5H22.65C20.0926 49.5 18.3099 49.4982 16.922 49.3849C15.5604 49.2736 14.7781 49.0662 14.1856 48.7643C12.9155 48.1171 11.8829 47.0845 11.2357 45.8144C10.9338 45.2219 10.7264 44.4396 10.6151 43.078C10.5018 41.6901 10.5 39.9074 10.5 37.35V22.65C10.5 20.0926 10.5018 18.3099 10.6151 16.922C10.7264 15.5604 10.9338 14.7781 11.2357 14.1856C11.8829 12.9155 12.9155 11.8829 14.1856 11.2357C14.7781 10.9338 15.5604 10.7264 16.9219 10.6151C18.3096 10.5018 20.0921 10.5 22.6492 10.5H28.25C29.4926 10.5 30.5 9.49264 30.5 8.25C30.5 7.00736 29.4926 6 28.25 6Z"
  />
  <path
    fill-rule="evenodd"
    clip-rule="evenodd"
    d="M38.9597 32.7921C39.6801 31.1739 39.6801 29.3261 38.9597 27.7079C38.4432 26.548 37.507 25.7345 36.5586 25.0644C35.62 24.4014 34.364 23.6762 32.8683 22.8128L30.1317 21.2328C28.6361 20.3692 27.3801 19.644 26.3365 19.1628C25.282 18.6764 24.1094 18.2724 22.8467 18.4051C21.0851 18.5902 19.4848 19.5142 18.4436 20.9472C17.6973 21.9744 17.461 23.1919 17.3549 24.3483C17.2499 25.4927 17.25 26.943 17.25 28.67L17.25 31.83C17.25 33.557 17.2499 35.0073 17.3549 36.1517C17.461 37.3081 17.6973 38.5256 18.4436 39.5528C19.4848 40.9858 21.0851 41.9098 22.8467 42.0949C24.1094 42.2276 25.282 41.8236 26.3365 41.3372C27.3801 40.856 28.6361 40.1308 30.1317 39.2672L32.8683 37.6873C34.364 36.8238 35.62 36.0987 36.5586 35.4356C37.507 34.7655 38.4432 33.952 38.9597 32.7921ZM34.8487 29.5382C35.0504 29.9913 35.0504 30.5087 34.8487 30.9618C34.8365 30.9892 34.7209 31.2241 33.9619 31.7603C33.2126 32.2897 32.1386 32.9124 30.525 33.844L27.975 35.3163C26.3614 36.2479 25.2852 36.8666 24.452 37.2509C23.6082 37.64 23.3469 37.6227 23.3171 37.6196C22.8238 37.5677 22.3757 37.309 22.0842 36.9078C22.0666 36.8835 21.921 36.6659 21.8361 35.7406C21.7523 34.8269 21.75 33.5855 21.75 31.7222V28.7778C21.75 26.9145 21.7523 25.6731 21.8361 24.7594C21.921 23.8341 22.0666 23.6165 22.0842 23.5922C22.3757 23.191 22.8238 22.9323 23.3171 22.8804C23.3469 22.8773 23.6082 22.86 24.452 23.2491C25.2852 23.6334 26.3614 24.2521 27.975 25.1838L30.525 26.656C32.1386 27.5876 33.2126 28.2103 33.9619 28.7397C34.7209 29.2759 34.8365 29.5108 34.8487 29.5382Z"
  />
  <path
    d="M47.3513 2.39965C47.218 1.98324 46.8536 1.68318 46.4194 1.6322C45.9851 1.58123 45.5612 1.78875 45.335 2.16296L44.9151 2.85788C43.1835 5.72349 42.3979 7.01202 41.395 8.06985C40.4884 9.02608 39.449 9.84705 38.3088 10.5076C37.0475 11.2383 35.6121 11.7041 32.4234 12.725L31.6501 12.9726C31.2337 13.1059 30.9336 13.4703 30.8826 13.9045C30.8317 14.3388 31.0392 14.7627 31.4134 14.9889L32.1083 15.4088C34.9739 17.1404 36.2624 17.9259 37.3203 18.9289C38.2765 19.8355 39.0975 20.8749 39.758 22.0151C40.4887 23.2764 40.9545 24.7118 41.9754 27.9005L42.223 28.6738C42.3563 29.0902 42.7207 29.3903 43.1549 29.4413C43.5892 29.4922 44.0132 29.2847 44.2393 28.9105L44.6592 28.2156C46.3908 25.35 47.1764 24.0614 48.1793 23.0036C49.0859 22.0474 50.1253 21.2264 51.2655 20.5659C52.5268 19.8352 53.9622 19.3694 57.151 18.3485L57.9242 18.1009C58.3406 17.9676 58.6407 17.6032 58.6917 17.1689C58.7427 16.7347 58.5351 16.3107 58.1609 16.0846L57.466 15.6647C54.6004 13.9331 53.3119 13.1475 52.254 12.1446C51.2978 11.2379 50.4768 10.1986 49.8163 9.05841C49.0856 7.79706 48.6198 6.36164 47.5989 3.17292L47.3513 2.39965Z"
  />
</svg>
