<svg
  width="60"
  height="60"
  viewBox="0 0 60 60"
  fill="currentColor"
  xmlns="http://www.w3.org/2000/svg"
>
  <path
    fill-rule="evenodd"
    clip-rule="evenodd"
    d="M23.3352 9H36.6648C38.7766 8.99998 40.4798 8.99997 41.8591 9.11266C43.2792 9.22869 44.5266 9.47383 45.6806 10.0618C47.5138 10.9959 49.0041 12.4862 49.9382 14.3194C50.5262 15.4734 50.7713 16.7208 50.8873 18.1409C51 19.5202 51 21.2234 51 23.3351V36.6649C51 38.7766 51 40.4798 50.8873 41.8591C50.7713 43.2792 50.5262 44.5266 49.9382 45.6806C49.0041 47.5138 47.5138 49.0041 45.6806 49.9382C44.5266 50.5262 43.2792 50.7713 41.8591 50.8873C40.4798 51 38.7766 51 36.6649 51H23.3351C21.2234 51 19.5202 51 18.1409 50.8873C16.7208 50.7713 15.4734 50.5262 14.3194 49.9382C12.4862 49.0041 10.9959 47.5138 10.0618 45.6806C9.47383 44.5266 9.22869 43.2792 9.11266 41.8591C8.99997 40.4798 8.99998 38.7766 9 36.6648V23.3352C8.99998 21.2234 8.99997 19.5202 9.11266 18.1409C9.22869 16.7208 9.47383 15.4734 10.0618 14.3194C10.9959 12.4862 12.4862 10.9959 14.3194 10.0618C15.4734 9.47383 16.7208 9.22869 18.1409 9.11266C19.5202 8.99997 21.2234 8.99998 23.3352 9ZM18.4583 12.9966C17.2791 13.093 16.6017 13.2726 16.0885 13.534C14.9887 14.0944 14.0944 14.9887 13.534 16.0885C13.2726 16.6017 13.093 17.2791 12.9966 18.4583C12.8984 19.6601 12.8969 21.2039 12.8969 23.4186V36.5814C12.8969 38.7961 12.8984 40.3399 12.9966 41.5417C13.093 42.7209 13.2726 43.3983 13.534 43.9115C14.0944 45.0113 14.9887 45.9056 16.0885 46.466C16.6017 46.7274 17.2791 46.907 18.4583 47.0034C19.6601 47.1016 21.2039 47.1031 23.4186 47.1031H36.5814C38.7961 47.1031 40.3399 47.1016 41.5417 47.0034C42.7209 46.907 43.3983 46.7274 43.9115 46.466C45.0113 45.9056 45.9056 45.0113 46.466 43.9115C46.7274 43.3983 46.907 42.7209 47.0034 41.5417C47.1016 40.3399 47.1031 38.7961 47.1031 36.5814V23.4186C47.1031 21.2039 47.1016 19.6601 47.0034 18.4583C46.907 17.2791 46.7274 16.6017 46.466 16.0885C45.9056 14.9887 45.0113 14.0944 43.9115 13.534C43.3983 13.2726 42.7209 13.093 41.5417 12.9966C40.3399 12.8984 38.7961 12.8969 36.5814 12.8969H23.4186C21.2039 12.8969 19.6601 12.8984 18.4583 12.9966Z"
  />
</svg>
