<svg
  width="60"
  height="60"
  viewBox="0 0 60 60"
  fill="currentColor"
  xmlns="http://www.w3.org/2000/svg"
>
  <path
    d="M52.9054 34.4944C54.1544 31.6283 54.1544 28.3717 52.9054 25.5056C52.0927 23.6407 50.5741 22.186 48.6489 20.7683C46.7383 19.3614 44.1396 17.7918 40.8565 15.8088L34.156 11.7618C30.6692 9.65567 27.9169 7.99333 25.6695 6.90252C23.4136 5.80758 21.3263 5.11066 19.2289 5.30183C16.0228 5.59403 13.0956 7.24575 11.1879 9.83898C9.93988 11.5355 9.4573 13.6825 9.2282 16.1796C8.99996 18.6673 8.99998 21.8827 9 25.9562V34.0438C8.99998 38.1174 8.99996 41.3327 9.2282 43.8204C9.4573 46.3176 9.93988 48.4645 11.1879 50.161C13.0956 52.7543 16.0228 54.406 19.2289 54.6982C21.3263 54.8894 23.4136 54.1924 25.6695 53.0975C27.9169 52.0067 30.669 50.3444 34.1558 48.2384L40.8565 44.1912C44.1397 42.2082 46.7383 40.6386 48.6489 39.2317C50.5741 37.814 52.0927 36.3593 52.9054 34.4944Z"
  />
  <path
    d="M53.9229 34.0949C55.0609 31.4836 55.0609 28.5164 53.9229 25.9051C53.1738 24.1861 51.7806 22.8609 50.0584 21.5927C48.3508 20.3353 46.0327 18.9352 43.123 17.1777L31.7299 10.2963C28.6392 8.42958 26.1846 6.94697 24.1765 5.97232C22.1599 4.99357 20.2537 4.34916 18.3196 4.52543C15.3986 4.79166 12.7315 6.29655 10.9934 8.65928C9.84264 10.2236 9.40868 12.1885 9.20389 14.4207C8.99996 16.6435 8.99998 19.5111 9 23.1218V36.8782C8.99998 40.4888 8.99996 43.3565 9.20389 45.5793C9.40868 47.8115 9.84264 49.7764 10.9934 51.3407C12.7315 53.7034 15.3986 55.2083 18.3196 55.4745C20.2537 55.6508 22.1599 55.0064 24.1765 54.0277C26.1846 53.053 28.6393 51.5704 31.73 49.7036L43.1229 42.8223C46.0326 41.0648 48.3508 39.6647 50.0584 38.4073C51.7806 37.1391 53.1738 35.8138 53.9229 34.0949Z"
  />
</svg>
