<svg
  width="60"
  height="60"
  viewBox="0 0 60 60"
  fill="currentColor"
  xmlns="http://www.w3.org/2000/svg"
>
  <path
    fill-rule="evenodd"
    clip-rule="evenodd"
    d="M43.7097 32.5421C44.4301 30.9239 44.4301 29.076 43.7097 27.4578C43.1932 26.2979 42.257 25.4845 41.3086 24.8144C40.37 24.1513 39.1141 23.4262 37.6185 22.5628L32.6317 19.6837C31.1361 18.8201 29.8801 18.0949 28.8365 17.6137C27.782 17.1274 26.6094 16.7233 25.3467 16.856C23.5851 17.0411 21.9848 17.9651 20.9436 19.3981C20.1973 20.4253 19.961 21.6428 19.8549 22.7992C19.7499 23.9436 19.75 25.3939 19.75 27.1209L19.75 32.879C19.75 34.606 19.7499 36.0563 19.8549 37.2007C19.961 38.3571 20.1973 39.5746 20.9436 40.6018C21.9848 42.0348 23.5851 42.9588 25.3467 43.1439C26.6094 43.2766 27.782 42.8725 28.8365 42.3862C29.88 41.905 31.136 41.1798 32.6316 40.3163L37.6183 37.4372C39.114 36.5737 40.37 35.8486 41.3086 35.1855C42.257 34.5154 43.1932 33.702 43.7097 32.5421ZM39.5987 29.2882C39.8004 29.7413 39.8004 30.2587 39.5987 30.7117C39.5865 30.7391 39.4709 30.9741 38.7119 31.5102C37.9626 32.0397 36.8886 32.6623 35.275 33.594L30.475 36.3652C28.8614 37.2969 27.7851 37.9156 26.952 38.2999C26.1082 38.689 25.8469 38.6717 25.8171 38.6686C25.3238 38.6167 24.8757 38.358 24.5842 37.9568C24.5666 37.9325 24.421 37.7149 24.3361 36.7896C24.2523 35.8759 24.25 34.6345 24.25 32.7712V27.2287C24.25 25.3654 24.2523 24.124 24.3361 23.2103C24.421 22.285 24.5666 22.0674 24.5842 22.0431C24.8757 21.6419 25.3238 21.3832 25.8171 21.3313C25.8469 21.3282 26.1082 21.3109 26.952 21.7001C27.7851 22.0843 28.8614 22.7031 30.475 23.6347L35.275 26.406C36.8886 27.3376 37.9626 27.9602 38.7119 28.4897C39.4709 29.0259 39.5865 29.2608 39.5987 29.2882Z"
  />
  <path
    fill-rule="evenodd"
    clip-rule="evenodd"
    d="M38.6963 4.75H21.3037C18.8652 4.74998 16.8983 4.74996 15.3056 4.88009C13.6657 5.01408 12.2253 5.29716 10.8926 5.97618C8.77578 7.05475 7.05475 8.77578 5.97618 10.8926C5.29716 12.2253 5.01408 13.6657 4.88009 15.3056C4.74996 16.8983 4.74998 18.8652 4.75 21.3037V38.6963C4.74998 41.1348 4.74996 43.1017 4.88009 44.6944C5.01408 46.3343 5.29716 47.7747 5.97618 49.1074C7.05475 51.2242 8.77578 52.9452 10.8926 54.0238C12.2253 54.7028 13.6657 54.9859 15.3056 55.1199C16.8983 55.25 18.8651 55.25 21.3036 55.25H38.6964C41.1348 55.25 43.1017 55.25 44.6944 55.1199C46.3343 54.9859 47.7747 54.7028 49.1074 54.0238C51.2242 52.9452 52.9452 51.2242 54.0238 49.1074C54.7028 47.7747 54.9859 46.3343 55.1199 44.6944C55.25 43.1017 55.25 41.1349 55.25 38.6964V21.3036C55.25 18.8652 55.25 16.8983 55.1199 15.3056C54.9859 13.6657 54.7028 12.2253 54.0238 10.8926C52.9452 8.77578 51.2242 7.05475 49.1074 5.97618C47.7747 5.29716 46.3343 5.01408 44.6944 4.88009C43.1017 4.74996 41.1348 4.74998 38.6963 4.75ZM12.9356 9.98571C13.5281 9.68379 14.3104 9.4764 15.672 9.36515C17.0599 9.25175 18.8426 9.25 21.4 9.25H38.6C41.1574 9.25 42.9401 9.25175 44.328 9.36515C45.6896 9.4764 46.4719 9.68379 47.0644 9.98571C48.3345 10.6329 49.3671 11.6655 50.0143 12.9356C50.3162 13.5281 50.5236 14.3104 50.6349 15.672C50.7482 17.0599 50.75 18.8426 50.75 21.4V38.6C50.75 41.1574 50.7482 42.9401 50.6349 44.328C50.5236 45.6896 50.3162 46.4719 50.0143 47.0644C49.3671 48.3345 48.3345 49.3671 47.0644 50.0143C46.4719 50.3162 45.6896 50.5236 44.328 50.6349C42.9401 50.7482 41.1574 50.75 38.6 50.75H21.4C18.8426 50.75 17.0599 50.7482 15.672 50.6349C14.3104 50.5236 13.5281 50.3162 12.9356 50.0143C11.6655 49.3671 10.6329 48.3345 9.98571 47.0644C9.68379 46.4719 9.4764 45.6896 9.36515 44.328C9.25175 42.9401 9.25 41.1574 9.25 38.6V21.4C9.25 18.8426 9.25175 17.0599 9.36515 15.672C9.4764 14.3104 9.68379 13.5281 9.98571 12.9356C10.6329 11.6655 11.6655 10.6329 12.9356 9.98571Z"
  />
</svg>
