<svg
  width="60"
  height="60"
  viewBox="0 0 60 60"
  fill="currentColor"
  xmlns="http://www.w3.org/2000/svg"
>
  <path
    fill-rule="evenodd"
    clip-rule="evenodd"
    d="M22.3037 5.75H37.6963C40.1348 5.74998 42.1017 5.74996 43.6944 5.88009C45.3343 6.01408 46.7747 6.29716 48.1074 6.97618C50.2242 8.05475 51.9452 9.77578 53.0238 11.8926C53.7028 13.2253 53.9859 14.6657 54.1199 16.3056C54.25 17.8983 54.25 19.8651 54.25 22.3036V37.6964C54.25 40.1349 54.25 42.1017 54.1199 43.6944C53.9859 45.3343 53.7028 46.7747 53.0238 48.1074C51.9452 50.2242 50.2242 51.9452 48.1074 53.0238C46.7747 53.7028 45.3343 53.9859 43.6944 54.1199C42.1017 54.25 40.1349 54.25 37.6964 54.25H22.3036C19.8651 54.25 17.8983 54.25 16.3056 54.1199C14.6657 53.9859 13.2253 53.7028 11.8926 53.0238C9.77578 51.9452 8.05475 50.2242 6.97618 48.1074C6.29716 46.7747 6.01408 45.3343 5.88009 43.6944C5.74996 42.1017 5.74998 40.1348 5.75 37.6963V22.3037C5.74998 19.8652 5.74996 17.8983 5.88009 16.3056C6.01408 14.6657 6.29716 13.2253 6.97618 11.8926C8.05475 9.77578 9.77578 8.05475 11.8926 6.97618C13.2253 6.29716 14.6657 6.01408 16.3056 5.88009C17.8983 5.74996 19.8652 5.74998 22.3037 5.75ZM16.672 10.3651C15.3104 10.4764 14.5281 10.6838 13.9356 10.9857C12.6655 11.6329 11.6329 12.6655 10.9857 13.9356C10.6838 14.5281 10.4764 15.3104 10.3651 16.672C10.2518 18.0599 10.25 19.8426 10.25 22.4V37.6C10.25 40.1574 10.2518 41.9401 10.3651 43.328C10.4764 44.6896 10.6838 45.4719 10.9857 46.0644C11.6329 47.3345 12.6655 48.3671 13.9356 49.0143C14.5281 49.3162 15.3104 49.5236 16.672 49.6349C18.0599 49.7482 19.8426 49.75 22.4 49.75H37.6C40.1574 49.75 41.9401 49.7482 43.328 49.6349C44.6896 49.5236 45.4719 49.3162 46.0644 49.0143C47.3345 48.3671 48.3671 47.3345 49.0143 46.0644C49.3162 45.4719 49.5236 44.6896 49.6349 43.328C49.7482 41.9401 49.75 40.1574 49.75 37.6V22.4C49.75 19.8426 49.7482 18.0599 49.6349 16.672C49.5236 15.3104 49.3162 14.5281 49.0143 13.9356C48.3671 12.6655 47.3345 11.6329 46.0644 10.9857C45.4719 10.6838 44.6896 10.4764 43.328 10.3651C41.9401 10.2518 40.1574 10.25 37.6 10.25H22.4C19.8426 10.25 18.0599 10.2518 16.672 10.3651Z"
  />
</svg>
