<svg
  width="60"
  height="60"
  viewBox="0 0 60 60"
  fill="currentColor"
  xmlns="http://www.w3.org/2000/svg"
>
  <path
    d="M49.25 3C49.25 1.75736 48.2426 0.75 47 0.75C45.7574 0.75 44.75 1.75736 44.75 3V10.75L37 10.75C35.7574 10.75 34.75 11.7574 34.75 13C34.75 14.2426 35.7574 15.25 37 15.25L44.75 15.25V23C44.75 24.2426 45.7574 25.25 47 25.25C48.2426 25.25 49.25 24.2426 49.25 23V15.25L57 15.25C58.2426 15.25 59.25 14.2426 59.25 13C59.25 11.7574 58.2426 10.75 57 10.75L49.25 10.75V3Z"
  />
  <path
    d="M21.3029 4.75L30 4.75C31.2426 4.75 32.25 5.75736 32.25 7C32.25 8.24264 31.2426 9.25 30 9.25H21.3992C18.8421 9.25 17.0596 9.25175 15.6719 9.36514C14.3104 9.47639 13.5281 9.68377 12.9356 9.98571C11.6655 10.6329 10.6329 11.6655 9.98571 12.9356C9.68379 13.5281 9.4764 14.3104 9.36515 15.672C9.25175 17.0599 9.25 18.8426 9.25 21.4V38.6C9.25 41.1574 9.25175 42.9401 9.36515 44.328C9.4764 45.6896 9.68379 46.4719 9.98571 47.0644C10.6329 48.3345 11.6655 49.3671 12.9356 50.0143C13.5281 50.3162 14.3104 50.5236 15.672 50.6349C17.0599 50.7482 18.8426 50.75 21.4 50.75H38.6C41.1574 50.75 42.9401 50.7482 44.328 50.6349C45.6896 50.5236 46.4719 50.3162 47.0644 50.0143C48.3345 49.3671 49.3671 48.3345 50.0143 47.0644C50.3162 46.4719 50.5236 45.6896 50.6349 44.328C50.7482 42.9401 50.75 41.1574 50.75 38.6V30C50.75 28.7574 51.7574 27.75 53 27.75C54.2426 27.75 55.25 28.7574 55.25 30V38.6964C55.25 41.1348 55.25 43.1017 55.1199 44.6944C54.9859 46.3343 54.7028 47.7747 54.0238 49.1074C52.9452 51.2242 51.2242 52.9452 49.1074 54.0238C47.7747 54.7028 46.3343 54.9859 44.6944 55.1199C43.1017 55.25 41.1349 55.25 38.6964 55.25H21.3036C18.8652 55.25 16.8983 55.25 15.3056 55.1199C13.6657 54.9859 12.2253 54.7028 10.8926 54.0238C8.77578 52.9452 7.05475 51.2242 5.97618 49.1074C5.29716 47.7747 5.01408 46.3343 4.88009 44.6944C4.74996 43.1017 4.74998 41.1348 4.75 38.6963V21.3037C4.74998 18.8652 4.74996 16.8983 4.88009 15.3056C5.01408 13.6657 5.29716 12.2253 5.97618 10.8926C7.05475 8.77578 8.77578 7.05475 10.8926 5.97618C12.2252 5.29717 13.6656 5.01408 15.3054 4.88009C16.898 4.74996 18.8647 4.74998 21.3029 4.75Z"
  />
  <path
    fill-rule="evenodd"
    clip-rule="evenodd"
    d="M43.7097 32.5421C44.4301 30.9239 44.4301 29.0761 43.7097 27.4579C43.1932 26.298 42.257 25.4845 41.3086 24.8144C40.37 24.1514 39.114 23.4262 37.6184 22.5628L32.6317 19.6837C31.1361 18.8202 29.8801 18.095 28.8365 17.6137C27.782 17.1274 26.6094 16.7233 25.3467 16.856C23.5851 17.0412 21.9848 17.9651 20.9436 19.3981C20.1973 20.4253 19.961 21.6429 19.8549 22.7993C19.7499 23.9436 19.75 25.394 19.75 27.121V32.879C19.75 34.606 19.7499 36.0564 19.8549 37.2007C19.961 38.3571 20.1973 39.5747 20.9436 40.6019C21.9848 42.0349 23.5851 42.9588 25.3467 43.144C26.6094 43.2767 27.782 42.8726 28.8365 42.3863C29.88 41.9051 31.1359 41.1799 32.6314 40.3164L37.6183 37.4373C39.114 36.5738 40.37 35.8487 41.3086 35.1856C42.257 34.5155 43.1932 33.702 43.7097 32.5421ZM39.5987 29.2882C39.8004 29.7413 39.8004 30.2587 39.5987 30.7118C39.5865 30.7392 39.4709 30.9741 38.7119 31.5103C37.9626 32.0397 36.8886 32.6624 35.275 33.594L30.475 36.3653C28.8614 37.2969 27.7851 37.9157 26.952 38.2999C26.1082 38.6891 25.8469 38.6718 25.8171 38.6686C25.3238 38.6168 24.8757 38.3581 24.5842 37.9568C24.5666 37.9326 24.421 37.715 24.3361 36.7896C24.2523 35.8759 24.25 34.6345 24.25 32.7713V27.2287C24.25 25.3655 24.2523 24.1241 24.3361 23.2104C24.421 22.285 24.5666 22.0674 24.5842 22.0432C24.8757 21.6419 25.3238 21.3832 25.8171 21.3314C25.8469 21.3282 26.1082 21.3109 26.952 21.7001C27.7851 22.0843 28.8614 22.7031 30.475 23.6347L35.275 26.406C36.8886 27.3376 37.9626 27.9603 38.7119 28.4897C39.4709 29.0259 39.5865 29.2608 39.5987 29.2882Z"
  />
</svg>
