<svg
  width="60"
  height="60"
  viewBox="0 0 60 60"
  fill="currentColor"
  xmlns="http://www.w3.org/2000/svg"
>
  <path
    d="M43.7097 32.5421C44.4301 30.9239 44.4301 29.076 43.7097 27.4579C43.1932 26.2979 42.257 25.4845 41.3086 24.8144C40.37 24.1513 39.114 23.4262 37.6184 22.5627L32.6317 19.6837C31.1361 18.8201 29.8801 18.0949 28.8365 17.6137C27.782 17.1274 26.6094 16.7233 25.3467 16.856C23.5851 17.0411 21.9848 17.9651 20.9436 19.3981C20.1973 20.4253 19.961 21.6428 19.8549 22.7992C19.7499 23.9436 19.75 25.3939 19.75 27.1209V32.879C19.75 34.606 19.7499 36.0563 19.8549 37.2007C19.961 38.3571 20.1973 39.5746 20.9436 40.6018C21.9848 42.0348 23.5851 42.9588 25.3467 43.1439C26.6094 43.2766 27.782 42.8725 28.8365 42.3862C29.88 41.905 31.136 41.1798 32.6315 40.3163L37.6183 37.4372C39.114 36.5737 40.37 35.8486 41.3086 35.1855C42.257 34.5154 43.1932 33.702 43.7097 32.5421Z"
    fill="currentColor"
  />
</svg>
