<svg
  width="60"
  height="60"
  viewBox="0 0 60 60"
  fill="currentColor"
  xmlns="http://www.w3.org/2000/svg"
>
  <path
    fill-rule="evenodd"
    clip-rule="evenodd"
    d="M53.9229 25.9051C55.0609 28.5164 55.0609 31.4836 53.9229 34.0949C53.1738 35.8138 51.7805 37.1391 50.0583 38.4073C48.3508 39.6647 46.0326 41.0648 43.1229 42.8223L31.73 49.7035C28.6393 51.5704 26.1846 53.053 24.1765 54.0277C22.1599 55.0064 20.2536 55.6508 18.3196 55.4745C15.3986 55.2083 12.7315 53.7034 10.9934 51.3407C9.84261 49.7764 9.40866 47.8114 9.20386 45.5793C8.99993 43.3565 8.99995 40.4888 8.99997 36.8782L8.99997 23.1218C8.99995 19.5111 8.99993 16.6435 9.20386 14.4207C9.40866 12.1885 9.84261 10.2236 10.9934 8.65928C12.7315 6.29655 15.3986 4.79166 18.3196 4.52543C20.2536 4.34915 22.1599 4.99357 24.1765 5.97232C26.1846 6.94697 28.6392 8.42957 31.7298 10.2963L43.1229 17.1777C46.0326 18.9351 48.3508 20.3353 50.0583 21.5927C51.7805 22.8609 53.1738 24.1861 53.9229 25.9051ZM49.7976 32.2971C50.436 30.8322 50.436 29.1677 49.7976 27.7028C49.5291 27.0868 48.9164 26.3403 47.39 25.2162C45.8684 24.0957 43.7286 22.8007 40.6966 20.9694L29.5044 14.2093C26.29 12.2678 24.0117 10.8944 22.2116 10.0207C20.3981 9.14049 19.4088 8.94481 18.7281 9.00685C17.0894 9.1562 15.5933 10.0004 14.6182 11.3258C14.2132 11.8765 13.8692 12.8244 13.685 14.8318C13.5022 16.8243 13.5 19.4846 13.5 23.2399L13.5 36.7601C13.5 40.5153 13.5022 43.1756 13.685 45.1682C13.8692 47.1755 14.2132 48.1235 14.6182 48.6741C15.5933 49.9996 17.0894 50.8438 18.7281 50.9931C19.4088 51.0552 20.3981 50.8595 22.2116 49.9793C24.0117 49.1056 26.29 47.7322 29.5044 45.7906L40.6966 39.0306C43.7286 37.1993 45.8684 35.9042 47.39 34.7837C48.9164 33.6597 49.5291 32.9132 49.7976 32.2971Z"
  />
</svg>
