<svg
  width="60"
  height="60"
  viewBox="0 0 60 60"
  fill="currentColor"
  xmlns="http://www.w3.org/2000/svg"
>
  <path
    fill-rule="evenodd"
    clip-rule="evenodd"
    d="M55.25 49C55.25 50.2426 54.2426 51.25 53 51.25V46.75C54.2426 46.75 55.25 47.7574 55.25 49ZM53 46.75H7.00045C5.75776 46.75 4.75 47.7574 4.75 49C4.75 50.2426 5.75736 51.25 7.00005 51.25H53V46.75Z"
  />
  <path
    fill-rule="evenodd"
    clip-rule="evenodd"
    d="M55.25 30C55.25 31.2426 54.2426 32.25 53 32.25V27.75C54.2426 27.75 55.25 28.7574 55.25 30ZM53 27.75H7.00045C5.75776 27.75 4.75 28.7574 4.75 30C4.75 31.2426 5.75736 32.25 7.00005 32.25H53V27.75Z"
  />
  <path
    fill-rule="evenodd"
    clip-rule="evenodd"
    d="M55.25 12C55.25 13.2426 54.2426 14.25 53 14.25V9.75C54.2426 9.75 55.25 10.7574 55.25 12ZM53 9.75H7.00045C5.75776 9.75 4.75 10.7574 4.75 12C4.75 13.2426 5.75736 14.25 7.00005 14.25H53V9.75Z"
  />
</svg>
