<svg
  width="60"
  height="60"
  viewBox="0 0 60 60"
  fill="currentColor"
  xmlns="http://www.w3.org/2000/svg"
>
  <path
    d="M26 26C27.1046 26 28 25.1046 28 24C28 22.8954 27.1046 22 26 22C24.8954 22 24 22.8954 24 24C24 25.1046 24.8954 26 26 26Z"
  />
  <path
    d="M36 24C36 25.1046 35.1046 26 34 26C32.8954 26 32 25.1046 32 24C32 22.8954 32.8954 22 34 22C35.1046 22 36 22.8954 36 24Z"
  />
  <path
    d="M23 32C24.1046 32 25 31.1046 25 30C25 28.8954 24.1046 28 23 28C21.8954 28 21 28.8954 21 30C21 31.1046 21.8954 32 23 32Z"
  />
  <path
    d="M32 30C32 31.1046 31.1046 32 30 32C28.8954 32 28 31.1046 28 30C28 28.8954 28.8954 28 30 28C31.1046 28 32 28.8954 32 30Z"
  />
  <path
    d="M37 32C38.1046 32 39 31.1046 39 30C39 28.8954 38.1046 28 37 28C35.8954 28 35 28.8954 35 30C35 31.1046 35.8954 32 37 32Z"
  />
  <path
    d="M28 36C28 37.1046 27.1046 38 26 38C24.8954 38 24 37.1046 24 36C24 34.8954 24.8954 34 26 34C27.1046 34 28 34.8954 28 36Z"
  />
  <path
    d="M34 38C35.1046 38 36 37.1046 36 36C36 34.8954 35.1046 34 34 34C32.8954 34 32 34.8954 32 36C32 37.1046 32.8954 38 34 38Z"
  />
  <path
    fill-rule="evenodd"
    clip-rule="evenodd"
    d="M27 2.75C25.7574 2.75 24.75 3.75736 24.75 5C24.75 6.24264 25.7574 7.25 27 7.25H27.75V14.157C25.0131 14.5422 22.4984 15.6198 20.389 17.2071L15.5045 12.3225L16.0348 11.7922C16.9135 10.9135 16.9135 9.48886 16.0348 8.61018C15.1561 7.7315 13.7315 7.7315 12.8528 8.61018L8.61018 12.8528C7.7315 13.7315 7.7315 15.1561 8.61018 16.0348C9.48886 16.9135 10.9135 16.9135 11.7922 16.0348L12.3225 15.5045L17.2071 20.389C15.6198 22.4984 14.5422 25.0131 14.157 27.75H7.25V27C7.25 25.7574 6.24264 24.75 5 24.75C3.75736 24.75 2.75 25.7574 2.75 27L2.75 33C2.75 34.2426 3.75736 35.25 5 35.25C6.24264 35.25 7.25 34.2426 7.25 33V32.25H14.157C14.5422 34.987 15.6199 37.5017 17.2072 39.6111L12.3225 44.4958L11.7922 43.9655C10.9135 43.0868 9.48886 43.0868 8.61018 43.9655C7.7315 44.8442 7.7315 46.2688 8.61018 47.1475L12.8528 51.3901C13.7315 52.2688 15.1561 52.2688 16.0348 51.3901C16.9135 50.5115 16.9135 49.0868 16.0348 48.2082L15.5045 47.6778L20.3892 42.7931C22.4986 44.3803 25.0131 45.4579 27.75 45.843V52.75H27C25.7574 52.75 24.75 53.7574 24.75 55C24.75 56.2426 25.7574 57.25 27 57.25H33C34.2426 57.25 35.25 56.2426 35.25 55C35.25 53.7574 34.2426 52.75 33 52.75H32.25V45.843C34.9869 45.4578 37.5016 44.3802 39.611 42.7929L44.4958 47.6778L43.9655 48.2082C43.0868 49.0868 43.0868 50.5115 43.9655 51.3901C44.8442 52.2688 46.2688 52.2688 47.1475 51.3901L51.3901 47.1475C52.2688 46.2688 52.2688 44.8442 51.3901 43.9655C50.5115 43.0868 49.0868 43.0868 48.2082 43.9655L47.6778 44.4958L42.7929 39.611C44.3802 37.5016 45.4578 34.9869 45.843 32.25H52.75V33C52.75 34.2426 53.7574 35.25 55 35.25C56.2426 35.25 57.25 34.2426 57.25 33V27C57.25 25.7574 56.2426 24.75 55 24.75C53.7574 24.75 52.75 25.7574 52.75 27V27.75H45.843C45.4579 25.0131 44.3803 22.4986 42.7931 20.3892L47.6778 15.5045L48.2082 16.0348C49.0868 16.9135 50.5115 16.9135 51.3901 16.0348C52.2688 15.1561 52.2688 13.7315 51.3901 12.8528L47.1475 8.61018C46.2688 7.7315 44.8442 7.7315 43.9655 8.61018C43.0868 9.48886 43.0868 10.9135 43.9655 11.7922L44.4958 12.3225L39.6111 17.2072C37.5017 15.6199 34.987 14.5422 32.25 14.157V7.25H33C34.2426 7.25 35.25 6.24264 35.25 5C35.25 3.75736 34.2426 2.75 33 2.75L27 2.75ZM41.5 30C41.5 36.3513 36.3513 41.5 30 41.5C23.6487 41.5 18.5 36.3513 18.5 30C18.5 23.6487 23.6487 18.5 30 18.5C36.3513 18.5 41.5 23.6487 41.5 30Z"
  />
</svg>
