<svg
  width="60"
  height="60"
  viewBox="0 0 60 60"
  fill="currentColor"
  xmlns="http://www.w3.org/2000/svg"
>
  <path
    fill-rule="evenodd"
    clip-rule="evenodd"
    d="M42.4668 10.4621C28.1851 3.97352 9.35844 9.28486 2.51746 26.3961C1.59249 28.7098 1.59249 31.2905 2.51746 33.6041C4.13542 37.6511 6.42384 41.038 9.164 43.7649L12.3557 40.5732C10.0216 38.2569 8.07256 35.377 6.69591 31.9336C6.19967 30.6924 6.19967 29.3079 6.6959 28.0666C12.2518 14.1698 27.1306 9.45149 39.0173 13.9116L42.4668 10.4621ZM50.8357 16.2354L47.6439 19.4271C49.978 21.7435 51.927 24.6233 53.3036 28.0666C53.7999 29.3079 53.7999 30.6924 53.3036 31.9336C47.7478 45.8303 32.8691 50.5487 20.9824 46.0886L17.5329 49.5382C31.8146 56.0267 50.6411 50.7153 57.4821 33.6041C58.407 31.2904 58.407 28.7097 57.4821 26.3961C55.8641 22.3492 53.5758 18.9623 50.8357 16.2354ZM26.4069 40.6642C27.5351 41.0442 28.7434 41.2501 29.9998 41.2501C36.213 41.2501 41.2498 36.2133 41.2498 30.0001C41.2498 28.7437 41.0438 27.5355 40.6638 26.4072L36.7419 30.3292C36.5755 33.7952 33.7949 36.5758 30.3288 36.7422L26.4069 40.6642ZM29.671 23.258C26.2047 23.4242 23.4239 26.205 23.2576 29.6713L19.3358 33.5932C18.9557 32.4649 18.7498 31.2565 18.7498 30.0001C18.7498 23.7869 23.7866 18.7501 29.9998 18.7501C31.2562 18.7501 32.4645 18.9561 33.5928 19.3361L29.671 23.258Z"
  />
  <path
    fill-rule="evenodd"
    clip-rule="evenodd"
    d="M51.591 8.40901C52.4697 9.28769 52.4697 10.7123 51.591 11.591L11.591 51.591C10.7123 52.4697 9.28769 52.4697 8.40901 51.591C7.53033 50.7123 7.53033 49.2877 8.40901 48.409L48.409 8.40901C49.2877 7.53033 50.7123 7.53033 51.591 8.40901Z"
  />
</svg>
