<svg
  width="60"
  height="60"
  viewBox="0 0 60 60"
  fill="currentColor"
  xmlns="http://www.w3.org/2000/svg"
>
  <path
    fill-rule="evenodd"
    clip-rule="evenodd"
    d="M2.51771 26.3961C12.4379 1.58281 47.5621 1.5828 57.4823 26.3961C58.4073 28.7097 58.4073 31.2904 57.4823 33.6041C47.5621 58.4174 12.4379 58.4174 2.5177 33.6041C1.59273 31.2904 1.59273 28.7098 2.51771 26.3961ZM53.3039 28.0666C44.8919 7.02596 15.1081 7.02596 6.69615 28.0666C6.19992 29.3079 6.19991 30.6924 6.69615 31.9336C15.1081 52.9743 44.892 52.9743 53.3039 31.9336C53.8001 30.6923 53.8001 29.3079 53.3039 28.0666Z"
  />
  <path
    fill-rule="evenodd"
    clip-rule="evenodd"
    d="M30 23.2501C26.2721 23.2501 23.25 26.2722 23.25 30.0001C23.25 33.728 26.2721 36.7501 30 36.7501C33.7279 36.7501 36.75 33.728 36.75 30.0001C36.75 26.2722 33.7279 23.2501 30 23.2501ZM18.75 30.0001C18.75 23.7869 23.7868 18.7501 30 18.7501C36.2132 18.7501 41.25 23.7869 41.25 30.0001C41.25 36.2133 36.2132 41.2501 30 41.2501C23.7868 41.2501 18.75 36.2133 18.75 30.0001Z"
  />
</svg>
