<svg
  width="60"
  height="60"
  viewBox="0 0 60 60"
  fill="currentColor"
  xmlns="http://www.w3.org/2000/svg"
>
  <path
    fill-rule="evenodd"
    clip-rule="evenodd"
    d="M32.8917 10.0318C32.146 9.12879 31.0214 8.62593 29.8512 8.6724C29.5001 8.68635 28.8003 8.90121 27.3182 10.0052C25.8815 11.0755 24.0684 12.6947 21.4991 14.9936L19.4114 16.8615C19.3886 16.8819 19.3649 16.9032 19.3404 16.9253C19.0821 17.1578 18.732 17.4729 18.3141 17.7072C17.9526 17.9098 17.5635 18.0585 17.1591 18.1485C16.6914 18.2525 16.2205 18.2512 15.8728 18.2501C15.8399 18.25 15.808 18.2499 15.7774 18.2499H14.6C12.8827 18.2499 11.7301 18.2517 10.8424 18.3242C9.98107 18.3946 9.56922 18.5202 9.29754 18.6587C8.59193 19.0182 8.01825 19.5919 7.65873 20.2975C7.5203 20.5692 7.39465 20.981 7.32428 21.8424C7.25175 22.73 7.25 23.8827 7.25 25.5999V34.3999C7.25 36.1172 7.25175 37.2699 7.32428 38.1575C7.39465 39.0189 7.5203 39.4307 7.65873 39.7024C8.01825 40.408 8.59193 40.9817 9.29754 41.3412C9.56922 41.4796 9.98107 41.6053 10.8424 41.6757C11.7301 41.7482 12.8827 41.7499 14.6 41.7499H15.7774C15.808 41.7499 15.8399 41.7499 15.8728 41.7498C16.2204 41.7487 16.6914 41.7474 17.1591 41.8514C17.5635 41.9414 17.9526 42.0901 18.3141 42.2927C18.732 42.527 19.0821 42.8421 19.3405 43.0746C19.365 43.0967 19.3886 43.118 19.4114 43.1384L21.4991 45.0063C24.0684 47.3051 25.8815 48.9244 27.3182 49.9947C28.8003 51.0987 29.5001 51.3135 29.8512 51.3275C31.0214 51.374 32.146 50.8711 32.8917 49.9681C33.1154 49.6971 33.4219 49.0323 33.5874 47.1916C33.7478 45.4073 33.75 42.9764 33.75 39.5287V20.4711C33.75 17.0235 33.7478 14.5926 33.5874 12.8082C33.4219 10.9676 33.1154 10.3028 32.8917 10.0318ZM29.6726 4.17594C32.247 4.07371 34.7213 5.18 36.3617 7.16669C37.5113 8.55894 37.8915 10.4273 38.0693 12.4053C38.25 14.4157 38.25 17.0503 38.25 20.353V39.6469C38.25 42.9496 38.25 45.5842 38.0693 47.5946C37.8915 49.5726 37.5113 51.4409 36.3617 52.8332C34.7213 54.8199 32.247 55.9262 29.6726 55.8239C27.8685 55.7523 26.2227 54.7899 24.63 53.6035C23.0112 52.3976 21.0479 50.6409 18.5866 48.4387L16.4109 46.492C16.3246 46.4148 16.2585 46.3557 16.2009 46.305C16.1773 46.2843 16.1571 46.2667 16.1397 46.2517C16.1167 46.2512 16.0899 46.2509 16.0585 46.2506C15.9818 46.25 15.8932 46.2499 15.7774 46.2499H14.5086C12.9062 46.25 11.5687 46.25 10.476 46.1607C9.33634 46.0676 8.26637 45.8663 7.25458 45.3507C5.70224 44.5598 4.44015 43.2977 3.6492 41.7454C3.13367 40.7336 2.93233 39.6636 2.83922 38.524C2.74994 37.4313 2.74997 36.0937 2.75 34.4912V25.5086C2.74997 23.9062 2.74994 22.5686 2.83922 21.4759C2.93233 20.3363 3.13367 19.2663 3.6492 18.2545C4.44015 16.7022 5.70224 15.4401 7.25458 14.6491C8.26637 14.1336 9.33634 13.9323 10.476 13.8392C11.5687 13.7499 12.9062 13.7499 14.5087 13.7499L15.7774 13.7499C15.8932 13.7499 15.9818 13.7499 16.0585 13.7493C16.0899 13.749 16.1167 13.7487 16.1397 13.7482C16.1571 13.7332 16.1773 13.7156 16.2009 13.6948C16.2585 13.6442 16.3246 13.5851 16.4109 13.5079L18.5866 11.5612C21.0479 9.35897 23.0112 7.60225 24.63 6.39643C26.2227 5.21003 27.8685 4.24759 29.6726 4.17594Z"
  />
</svg>
