<svg
  width="60"
  height="60"
  viewBox="0 0 60 60"
  fill="currentColor"
  xmlns="http://www.w3.org/2000/svg"
>
  <path
    fill-rule="evenodd"
    clip-rule="evenodd"
    d="M10.6444 46.1737L8.40914 48.4089C7.53046 49.2876 7.53046 50.7122 8.40914 51.5909C9.28782 52.4696 10.7124 52.4696 11.5911 51.5909L16.5582 46.6238L18.5866 48.4387C21.0478 50.6409 23.0112 52.3976 24.63 53.6035C26.2227 54.7899 27.8685 55.7523 29.6726 55.8239C32.247 55.9262 34.7213 54.8199 36.3617 52.8332C37.5113 51.4409 37.8915 49.5726 38.0693 47.5946C38.25 45.5842 38.25 42.9496 38.25 39.6469V24.932L41.77 21.4121C44.622 27.0773 44.3927 34.429 41.0822 39.8232C40.4322 40.8822 40.7638 42.2677 41.8229 42.9177C42.882 43.5677 44.2675 43.2361 44.9175 42.177C49.3045 35.0288 49.3599 25.3115 45.0836 18.0985L48.7974 14.3846C54.2927 24.2027 54.0576 37.2669 48.0921 46.8071C47.4332 47.8608 47.7533 49.249 48.8069 49.9078C49.8605 50.5666 51.2487 50.2466 51.9076 49.193C58.9925 37.8625 59.0304 22.3651 52.0211 10.9901C52.4326 10.1503 52.2892 9.10731 51.591 8.40906C50.7123 7.53038 49.2877 7.53038 48.409 8.40906L38.2488 18.5692C38.2437 16.0864 38.2162 14.0396 38.0693 12.4053C37.8915 10.4273 37.5113 8.55894 36.3617 7.16669C34.7213 5.18 32.247 4.07371 29.6726 4.17594C27.8685 4.24759 26.2227 5.21003 24.63 6.39643C23.0112 7.60225 21.0479 9.35897 18.5866 11.5612L16.4109 13.5079C16.3246 13.5851 16.2585 13.6442 16.2009 13.6948C16.1773 13.7156 16.1571 13.7332 16.1397 13.7482C16.1167 13.7487 16.0899 13.749 16.0585 13.7493C15.9818 13.7499 15.8932 13.7499 15.7774 13.7499L14.5087 13.7499C12.9062 13.7499 11.5687 13.7499 10.476 13.8392C9.33634 13.9323 8.26637 14.1336 7.25458 14.6491C5.70224 15.4401 4.44016 16.7022 3.6492 18.2545C3.13367 19.2663 2.93233 20.3363 2.83922 21.4759C2.74995 22.5686 2.74997 23.9061 2.75 25.5086V34.4912C2.74997 36.0937 2.74995 37.4313 2.83922 38.524C2.93233 39.6636 3.13367 40.7336 3.6492 41.7454C4.44016 43.2977 5.70224 44.5598 7.25458 45.3507C8.26637 45.8663 9.33634 46.0676 10.476 46.1607C10.5315 46.1653 10.5876 46.1696 10.6444 46.1737ZM29.8512 8.6724C31.0214 8.62593 32.1461 9.12879 32.8917 10.0318C33.1154 10.3028 33.4219 10.9676 33.5874 12.8082C33.7478 14.5926 33.75 17.0235 33.75 20.4711V23.0681L15.0681 41.7499H14.6C12.8827 41.7499 11.7301 41.7482 10.8424 41.6757C9.98107 41.6053 9.56922 41.4796 9.29754 41.3412C8.59193 40.9817 8.01825 40.408 7.65873 39.7024C7.5203 39.4307 7.39465 39.0189 7.32428 38.1575C7.25175 37.2699 7.25 36.1172 7.25 34.3999V25.5999C7.25 23.8827 7.25175 22.73 7.32428 21.8424C7.39465 20.981 7.5203 20.5692 7.65873 20.2975C8.01825 19.5919 8.59193 19.0182 9.29754 18.6587C9.56922 18.5202 9.98107 18.3946 10.8424 18.3242C11.7301 18.2517 12.8827 18.2499 14.6 18.2499H15.7774L15.8728 18.2501C16.2205 18.2512 16.6914 18.2525 17.1591 18.1485C17.5635 18.0585 17.9526 17.9098 18.3141 17.7072C18.732 17.4729 19.082 17.1579 19.3404 16.9253L19.4114 16.8615L21.4991 14.9936C24.0684 12.6947 25.8815 11.0755 27.3182 10.0052C28.8003 8.90121 29.5001 8.68635 29.8512 8.6724ZM33.75 29.432V39.5287C33.75 42.9764 33.7478 45.4073 33.5874 47.1916C33.4219 49.0323 33.1154 49.6971 32.8917 49.9681C32.1461 50.8711 31.0214 51.374 29.8512 51.3275C29.5001 51.3135 28.8003 51.0987 27.3182 49.9947C25.8815 48.9244 24.0684 47.3051 21.4991 45.0063L19.7451 43.4369L33.75 29.432Z"
  />
</svg>
