<svg
  width="60"
  height="60"
  viewBox="0 0 60 60"
  fill="currentColor"
  xmlns="http://www.w3.org/2000/svg"
>
  <path
    fill-rule="evenodd"
    clip-rule="evenodd"
    d="M36.3617 7.16669C34.7213 5.18 32.247 4.07371 29.6726 4.17594C27.8685 4.24759 26.2227 5.21003 24.63 6.39643C23.0112 7.60225 21.0479 9.35897 18.5866 11.5612L16.4109 13.5079C16.3246 13.5851 16.2585 13.6442 16.2009 13.6948C16.1773 13.7156 16.1571 13.7332 16.1397 13.7482C16.1167 13.7487 16.0899 13.749 16.0585 13.7493C15.9818 13.7499 15.8932 13.7499 15.7774 13.7499L14.5087 13.7499C12.9062 13.7499 11.5687 13.7499 10.476 13.8392C9.33634 13.9323 8.26637 14.1336 7.25458 14.6491C5.70224 15.4401 4.44016 16.7022 3.6492 18.2545C3.13367 19.2663 2.93233 20.3363 2.83922 21.4759C2.74995 22.5686 2.74997 23.9061 2.75 25.5086V34.4912C2.74997 36.0937 2.74995 37.4313 2.83922 38.524C2.93233 39.6636 3.13367 40.7336 3.6492 41.7454C4.44016 43.2977 5.70224 44.5598 7.25458 45.3507C8.26637 45.8663 9.33634 46.0676 10.476 46.1607C11.5687 46.25 12.9062 46.25 14.5086 46.2499H15.7774C15.8932 46.2499 15.9818 46.25 16.0585 46.2506C16.0899 46.2509 16.1167 46.2512 16.1397 46.2517C16.1571 46.2667 16.1773 46.2843 16.2009 46.305C16.2585 46.3557 16.3246 46.4148 16.4109 46.492L18.5866 48.4387C21.0478 50.6409 23.0112 52.3976 24.63 53.6035C26.2227 54.7899 27.8685 55.7523 29.6726 55.8239C32.247 55.9262 34.7213 54.8199 36.3617 52.8332C37.5113 51.4409 37.8915 49.5726 38.0693 47.5946C38.25 45.5842 38.25 42.9496 38.25 39.6469V20.353C38.25 17.0503 38.25 14.4157 38.0693 12.4053C37.8915 10.4273 37.5113 8.55894 36.3617 7.16669ZM29.8512 8.6724C31.0214 8.62593 32.1461 9.12879 32.8917 10.0318C33.1154 10.3028 33.4219 10.9676 33.5874 12.8082C33.7478 14.5926 33.75 17.0235 33.75 20.4711V39.5287C33.75 42.9764 33.7478 45.4073 33.5874 47.1916C33.4219 49.0323 33.1154 49.6971 32.8917 49.9681C32.1461 50.8711 31.0214 51.374 29.8512 51.3275C29.5001 51.3135 28.8003 51.0987 27.3182 49.9947C25.8815 48.9244 24.0684 47.3051 21.4991 45.0063L19.4114 43.1384L19.3405 43.0746C19.0821 42.8421 18.732 42.527 18.3141 42.2927C17.9526 42.0901 17.5635 41.9414 17.1591 41.8514C16.6914 41.7474 16.2204 41.7487 15.8728 41.7498L15.7774 41.7499H14.6C12.8827 41.7499 11.7301 41.7482 10.8424 41.6757C9.98107 41.6053 9.56922 41.4796 9.29754 41.3412C8.59193 40.9817 8.01825 40.408 7.65873 39.7024C7.5203 39.4307 7.39465 39.0189 7.32428 38.1575C7.25175 37.2699 7.25 36.1172 7.25 34.3999V25.5999C7.25 23.8827 7.25175 22.73 7.32428 21.8424C7.39465 20.981 7.5203 20.5692 7.65873 20.2975C8.01825 19.5919 8.59193 19.0182 9.29754 18.6587C9.56922 18.5202 9.98107 18.3946 10.8424 18.3242C11.7301 18.2517 12.8827 18.2499 14.6 18.2499H15.7774L15.8728 18.2501C16.2205 18.2512 16.6914 18.2525 17.1591 18.1485C17.5635 18.0585 17.9526 17.9098 18.3141 17.7072C18.732 17.4729 19.082 17.1579 19.3404 16.9253L19.4114 16.8615L21.4991 14.9936C24.0684 12.6947 25.8815 11.0755 27.3182 10.0052C28.8003 8.90121 29.5001 8.68635 29.8512 8.6724Z"
  />
  <path
    d="M41.8229 17.0824C42.882 16.4324 44.2675 16.7641 44.9175 17.8232C49.3606 25.0627 49.3606 34.9375 44.9175 42.177C44.2675 43.2361 42.882 43.5677 41.8229 42.9177C40.7638 42.2677 40.4322 40.8822 41.0822 39.8232C44.639 34.0277 44.639 25.9725 41.0822 20.177C40.4322 19.1179 40.7638 17.7324 41.8229 17.0824Z"
  />
  <path
    d="M48.8069 10.0923C49.8605 9.43349 51.2487 9.75353 51.9076 10.8071C59.0306 22.1985 59.0306 37.8016 51.9076 49.193C51.2487 50.2466 49.8605 50.5666 48.8069 49.9078C47.7533 49.249 47.4332 47.8608 48.0921 46.8071C54.3024 36.8754 54.3024 23.1247 48.0921 13.193C47.4332 12.1394 47.7533 10.7511 48.8069 10.0923Z"
  />
</svg>
