<svg
  width="60"
  height="60"
  viewBox="0 0 60 60"
  fill="currentColor"
  xmlns="http://www.w3.org/2000/svg"
>
  <path
    fill-rule="evenodd"
    clip-rule="evenodd"
    d="M30 57C44.9117 57 57 44.9117 57 30C57 15.0883 44.9117 3 30 3C15.0883 3 3 15.0883 3 30C3 44.9117 15.0883 57 30 57ZM50.854 38.4632C51.9154 35.8507 52.5 32.9936 52.5 30C52.5 29.6716 52.493 29.3449 52.479 29.02L32.5 17.4851L32.5 27.8665L50.854 38.4632ZM48.7486 42.4438L44.3164 39.8849L44.3827 39.9997L24.0898 51.7157C25.9732 52.2271 27.9547 52.5 30 52.5C37.8252 52.5 44.7175 48.5053 48.7486 42.4438ZM39.949 37.3633L18.8477 49.5461C15.8799 47.8492 13.3358 45.4957 11.4132 42.6838L30.2887 31.786L39.949 37.3633ZM28 7.58767L28 27.9112L18.5 33.396L18.5 10.6569C21.3255 8.97342 24.5511 7.89146 28 7.58767ZM14 14.1807L14 35.9941L9.2573 38.7323C8.1256 36.0473 7.5 33.0967 7.5 30C7.5 23.8328 9.98128 18.245 14 14.1807ZM32.5 12.2889V7.63732C41.4617 8.62798 48.837 14.8818 51.4666 23.2393L32.5 12.2889Z"
  />
</svg>
