<svg
  width="60"
  height="60"
  viewBox="0 0 60 60"
  fill="currentColor"
  xmlns="http://www.w3.org/2000/svg"
>
  <path
    fill-rule="evenodd"
    clip-rule="evenodd"
    d="M10.6442 46.1741L8.40914 48.4092C7.53046 49.2879 7.53046 50.7125 8.40914 51.5912C9.28782 52.4699 10.7124 52.4699 11.5911 51.5912L16.5581 46.6242L18.5866 48.4392C21.0478 50.6414 23.0112 52.3981 24.63 53.6039C26.2227 54.7903 27.8685 55.7528 29.6726 55.8244C32.247 55.9267 34.7213 54.8204 36.3617 52.8337C37.5113 51.4414 37.8915 49.5731 38.0693 47.5951C38.25 45.5847 38.25 42.9501 38.25 39.6474V24.9323L41.7703 21.412C44.6225 27.0773 44.3933 34.4292 41.0827 39.8234C40.4327 40.8825 40.7643 42.268 41.8234 42.918C42.8825 43.568 44.268 43.2363 44.918 42.1772C49.3051 35.029 49.3604 25.3115 45.0839 18.0984L48.7978 14.3846C54.2932 24.2027 54.0582 37.267 48.0926 46.8074C47.4337 47.861 47.7538 49.2492 48.8074 49.908C49.861 50.5669 51.2492 50.2468 51.908 49.1932C58.9931 37.8626 59.0309 22.365 52.0214 10.99C52.4326 10.1502 52.2891 9.10747 51.591 8.40935C50.7123 7.53067 49.2877 7.53067 48.409 8.40935L38.2488 18.5695C38.2437 16.0867 38.2162 14.04 38.0693 12.4058C37.8915 10.4278 37.5113 8.55943 36.3617 7.16718C34.7213 5.18049 32.247 4.0742 29.6726 4.17643C27.8685 4.24808 26.2227 5.21052 24.63 6.39692C23.0112 7.60274 21.0479 9.35946 18.5866 11.5617L16.4109 13.5084C16.3246 13.5856 16.2585 13.6447 16.2009 13.6953C16.1773 13.7161 16.1571 13.7337 16.1397 13.7487C16.1167 13.7491 16.0899 13.7495 16.0585 13.7498C15.9818 13.7504 15.8932 13.7504 15.7774 13.7504L14.5087 13.7504C12.9062 13.7504 11.5687 13.7504 10.476 13.8396C9.33634 13.9328 8.26637 14.1341 7.25458 14.6496C5.70224 15.4406 4.44016 16.7027 3.6492 18.255C3.13367 19.2668 2.93233 20.3368 2.83922 21.4764C2.74995 22.5691 2.74997 23.9066 2.75 25.5091V34.4917C2.74997 36.0942 2.74995 37.4318 2.83922 38.5244C2.93233 39.6641 3.13367 40.7341 3.6492 41.7459C4.44016 43.2982 5.70224 44.5603 7.25458 45.3512C8.26637 45.8668 9.33634 46.0681 10.476 46.1612C10.5314 46.1657 10.5875 46.17 10.6442 46.1741ZM29.8512 8.67289C31.0214 8.62642 32.1461 9.12928 32.8917 10.0323C33.1154 10.3033 33.4219 10.968 33.5874 12.8087C33.7478 14.5931 33.75 17.024 33.75 20.4716V23.0684L15.0679 41.7504H14.6C12.8827 41.7504 11.7301 41.7487 10.8424 41.6762C9.98107 41.6058 9.56922 41.4801 9.29754 41.3417C8.59193 40.9822 8.01825 40.4085 7.65873 39.7029C7.5203 39.4312 7.39465 39.0194 7.32428 38.158C7.25175 37.2704 7.25 36.1177 7.25 34.4004V25.6004C7.25 23.8831 7.25175 22.7305 7.32428 21.8429C7.39465 20.9815 7.5203 20.5696 7.65873 20.298C8.01825 19.5924 8.59193 19.0187 9.29754 18.6592C9.56922 18.5207 9.98107 18.3951 10.8424 18.3247C11.7301 18.2522 12.8827 18.2504 14.6 18.2504H15.7774L15.8728 18.2506C16.2205 18.2516 16.6914 18.253 17.1591 18.1489C17.5635 18.0589 17.9526 17.9103 18.3141 17.7077C18.732 17.4734 19.082 17.1583 19.3404 16.9258L19.4114 16.862L21.4991 14.9941C24.0684 12.6952 25.8815 11.076 27.3182 10.0057C28.8003 8.9017 29.5001 8.68683 29.8512 8.67289ZM33.75 29.4323V39.5292C33.75 42.9769 33.7478 45.4078 33.5874 47.1921C33.4219 49.0328 33.1154 49.6976 32.8917 49.9685C32.1461 50.8716 31.0214 51.3744 29.8512 51.328C29.5001 51.314 28.8003 51.0992 27.3182 49.9951C25.8815 48.9249 24.0684 47.3056 21.4991 45.0067L19.745 43.4373L33.75 29.4323Z"
  />
</svg>
