<svg
  width="60"
  height="60"
  viewBox="0 0 60 60"
  fill="currentColor"
  xmlns="http://www.w3.org/2000/svg"
>
  <path
    fill-rule="evenodd"
    clip-rule="evenodd"
    d="M41.8231 17.0824C42.8822 16.4324 44.2677 16.764 44.9176 17.8231C49.3608 25.0626 49.3608 34.9374 44.9176 42.1769C44.2677 43.236 42.8822 43.5676 41.8231 42.9176C40.764 42.2677 40.4324 40.8822 41.0824 39.8231C44.6392 34.0276 44.6392 25.9724 41.0824 20.1769C40.4324 19.1178 40.764 17.7324 41.8231 17.0824Z"
  />
  <path
    fill-rule="evenodd"
    clip-rule="evenodd"
    d="M48.8071 10.0923C49.8607 9.43344 51.2489 9.75348 51.9077 10.8071C59.0308 22.1984 59.0308 37.8016 51.9077 49.1929C51.2489 50.2465 49.8607 50.5666 48.8071 49.9077C47.7535 49.2489 47.4334 47.8607 48.0923 46.8071C54.3026 36.8754 54.3026 23.1246 48.0923 13.1929C47.4334 12.1393 47.7535 10.7511 48.8071 10.0923Z"
  />
  <path
    fill-rule="evenodd"
    clip-rule="evenodd"
    d="M32.8917 10.0319C32.146 9.12885 31.0214 8.62599 29.8512 8.67246C29.5001 8.68641 28.8003 8.90127 27.3182 10.0053C25.8815 11.0755 24.0684 12.6948 21.4991 14.9937L19.4114 16.8616C19.3886 16.882 19.3649 16.9033 19.3404 16.9253C19.0821 17.1579 18.732 17.473 18.3141 17.7072C17.9526 17.9098 17.5635 18.0585 17.1591 18.1485C16.6914 18.2526 16.2205 18.2512 15.8728 18.2502C15.8399 18.2501 15.808 18.25 15.7774 18.25H14.6C12.8827 18.25 11.7301 18.2518 10.8424 18.3243C9.98107 18.3947 9.56922 18.5203 9.29754 18.6587C8.59193 19.0183 8.01825 19.5919 7.65873 20.2975C7.5203 20.5692 7.39465 20.9811 7.32428 21.8424C7.25175 22.7301 7.25 23.8827 7.25 25.6V34.4C7.25 36.1173 7.25175 37.2699 7.32428 38.1576C7.39465 39.0189 7.5203 39.4308 7.65873 39.7025C8.01825 40.4081 8.59193 40.9818 9.29754 41.3413C9.56922 41.4797 9.98107 41.6054 10.8424 41.6757C11.7301 41.7483 12.8827 41.75 14.6 41.75H15.7774C15.808 41.75 15.8399 41.7499 15.8728 41.7498C16.2204 41.7488 16.6914 41.7474 17.1591 41.8515C17.5635 41.9415 17.9526 42.0902 18.3141 42.2928C18.732 42.5271 19.0821 42.8421 19.3405 43.0747C19.365 43.0967 19.3886 43.118 19.4114 43.1384L21.4991 45.0063C24.0684 47.3052 25.8815 48.9245 27.3182 49.9947C28.8003 51.0987 29.5001 51.3136 29.8512 51.3275C31.0214 51.374 32.146 50.8712 32.8917 49.9681C33.1154 49.6971 33.4219 49.0324 33.5874 47.1917C33.7478 45.4073 33.75 42.9765 33.75 39.5288V20.4712C33.75 17.0235 33.7478 14.5927 33.5874 12.8083C33.4219 10.9676 33.1154 10.3029 32.8917 10.0319ZM29.6726 4.17601C32.247 4.07377 34.7213 5.18006 36.3617 7.16675C37.5113 8.55901 37.8915 10.4273 38.0693 12.4053C38.25 14.4158 38.25 17.0503 38.25 20.353V39.647C38.25 42.9497 38.25 45.5843 38.0693 47.5947C37.8915 49.5727 37.5113 51.441 36.3617 52.8333C34.7213 54.8199 32.247 55.9262 29.6726 55.824C27.8685 55.7524 26.2227 54.7899 24.63 53.6035C23.0112 52.3977 21.0479 50.641 18.5866 48.4387L16.4109 46.492C16.3246 46.4148 16.2585 46.3558 16.2009 46.3051C16.1773 46.2843 16.1571 46.2667 16.1397 46.2517C16.1167 46.2513 16.0899 46.2509 16.0585 46.2507C15.9818 46.25 15.8932 46.25 15.7774 46.25H14.5086C12.9062 46.25 11.5687 46.2501 10.476 46.1608C9.33634 46.0677 8.26637 45.8663 7.25458 45.3508C5.70224 44.5599 4.44015 43.2978 3.6492 41.7454C3.13367 40.7336 2.93233 39.6637 2.83922 38.524C2.74994 37.4313 2.74997 36.0938 2.75 34.4913V25.5087C2.74997 23.9062 2.74994 22.5687 2.83922 21.476C2.93233 20.3363 3.13367 19.2664 3.6492 18.2546C4.44015 16.7022 5.70224 15.4402 7.25458 14.6492C8.26637 14.1337 9.33634 13.9323 10.476 13.8392C11.5687 13.7499 12.9062 13.75 14.5087 13.75L15.7774 13.75C15.8932 13.75 15.9818 13.75 16.0585 13.7493C16.0899 13.7491 16.1167 13.7487 16.1397 13.7483C16.1571 13.7333 16.1773 13.7157 16.2009 13.6949C16.2585 13.6443 16.3246 13.5852 16.4109 13.508L18.5866 11.5613C21.0479 9.35903 23.0112 7.60231 24.63 6.39649C26.2227 5.21009 27.8685 4.24765 29.6726 4.17601Z"
  />
</svg>
