<svg
  width="60"
  height="60"
  viewBox="0 0 60 60"
  fill="currentColor"
  xmlns="http://www.w3.org/2000/svg"
>
  <path
    fill-rule="evenodd"
    clip-rule="evenodd"
    d="M42.1417 10.0319C41.396 9.12885 40.2714 8.62599 39.1012 8.67246C38.7501 8.68641 38.0503 8.90127 36.5682 10.0053C35.1315 11.0755 33.3184 12.6948 30.7491 14.9937L28.6614 16.8616C28.6386 16.882 28.6149 16.9033 28.5904 16.9253C28.3321 17.1579 27.982 17.473 27.5641 17.7072C27.2026 17.9098 26.8135 18.0585 26.4091 18.1485C25.9414 18.2526 25.4705 18.2512 25.1228 18.2502C25.0899 18.2501 25.058 18.25 25.0274 18.25H23.85C22.1327 18.25 20.9801 18.2518 20.0924 18.3243C19.2311 18.3947 18.8192 18.5203 18.5475 18.6587C17.8419 19.0183 17.2683 19.5919 16.9087 20.2975C16.7703 20.5692 16.6447 20.9811 16.5743 21.8424C16.5018 22.7301 16.5 23.8827 16.5 25.6V34.4C16.5 36.1173 16.5018 37.2699 16.5743 38.1576C16.6447 39.0189 16.7703 39.4308 16.9087 39.7025C17.2683 40.4081 17.8419 40.9818 18.5475 41.3413C18.8192 41.4797 19.2311 41.6054 20.0924 41.6757C20.9801 41.7483 22.1327 41.75 23.85 41.75H25.0274C25.058 41.75 25.0899 41.7499 25.1228 41.7498C25.4704 41.7488 25.9414 41.7474 26.4091 41.8515C26.8135 41.9415 27.2026 42.0902 27.5641 42.2928C27.982 42.5271 28.3321 42.8421 28.5905 43.0747C28.615 43.0967 28.6386 43.118 28.6614 43.1384L30.7491 45.0063C33.3184 47.3052 35.1315 48.9245 36.5682 49.9947C38.0503 51.0987 38.7501 51.3136 39.1012 51.3275C40.2714 51.374 41.396 50.8712 42.1417 49.9681C42.3654 49.6971 42.6719 49.0324 42.8374 47.1917C42.9978 45.4073 43 42.9765 43 39.5288V20.4712C43 17.0235 42.9978 14.5927 42.8374 12.8083C42.6719 10.9676 42.3654 10.3029 42.1417 10.0319ZM38.9226 4.17601C41.497 4.07377 43.9713 5.18006 45.6117 7.16675C46.7613 8.55901 47.1415 10.4273 47.3193 12.4053C47.5 14.4158 47.5 17.0503 47.5 20.353V39.647C47.5 42.9497 47.5 45.5843 47.3193 47.5947C47.1415 49.5727 46.7613 51.441 45.6117 52.8333C43.9713 54.8199 41.497 55.9262 38.9226 55.824C37.1185 55.7524 35.4727 54.7899 33.88 53.6035C32.2612 52.3977 30.2979 50.641 27.8366 48.4387L25.6609 46.492C25.5746 46.4148 25.5085 46.3558 25.4509 46.3051C25.4273 46.2843 25.4071 46.2667 25.3897 46.2517C25.3667 46.2513 25.3399 46.2509 25.3085 46.2507C25.2318 46.25 25.1432 46.25 25.0274 46.25H23.7586C22.1562 46.25 20.8187 46.2501 19.726 46.1608C18.5863 46.0677 17.5164 45.8663 16.5046 45.3508C14.9522 44.5599 13.6902 43.2978 12.8992 41.7454C12.3837 40.7336 12.1823 39.6637 12.0892 38.524C11.9999 37.4313 12 36.0938 12 34.4913V25.5087C12 23.9062 11.9999 22.5687 12.0892 21.476C12.1823 20.3363 12.3837 19.2664 12.8992 18.2546C13.6902 16.7022 14.9522 15.4402 16.5046 14.6492C17.5164 14.1337 18.5863 13.9323 19.726 13.8392C20.8187 13.7499 22.1562 13.75 23.7587 13.75L25.0274 13.75C25.1432 13.75 25.2318 13.75 25.3085 13.7493C25.3399 13.7491 25.3667 13.7487 25.3897 13.7483C25.4071 13.7333 25.4273 13.7157 25.4509 13.6949C25.5085 13.6443 25.5746 13.5852 25.6609 13.508L27.8366 11.5613C30.2979 9.35903 32.2612 7.60231 33.88 6.39649C35.4727 5.21009 37.1185 4.24765 38.9226 4.17601Z"
  />
</svg>
