<svg
  width="60"
  height="60"
  viewBox="0 0 60 60"
  fill="currentColor"
  xmlns="http://www.w3.org/2000/svg"
>
  <path
    fill-rule="evenodd"
    clip-rule="evenodd"
    d="M33.9629 7.16112C31.4374 6.05193 28.5625 6.05193 26.037 7.16112C24.3722 7.89223 23.0936 9.25534 21.8724 10.9385C20.6603 12.609 19.3118 14.878 17.618 17.7281L17.6179 17.7282L17.5605 17.8249L10.0478 30.4654L9.98984 30.5629L9.98972 30.5631C8.22903 33.5255 6.83015 35.8792 5.91254 37.8046C4.99054 39.7391 4.38732 41.5663 4.56532 43.4172C4.83435 46.2148 6.28497 48.7644 8.55242 50.425C10.0526 51.5236 11.9315 51.9386 14.0655 52.1344C16.1894 52.3293 18.9275 52.3292 22.3736 52.3292H22.3739H22.4873H37.5126H37.626H37.6262C41.0724 52.3292 43.8104 52.3293 45.9343 52.1344C48.0684 51.9386 49.9473 51.5236 51.4475 50.425C53.7149 48.7644 55.1655 46.2148 55.4346 43.4172C55.6126 41.5663 55.0093 39.7391 54.0874 37.8046C53.1697 35.8792 51.7708 33.5255 50.0101 30.563L50.0101 30.563L49.9521 30.4654L42.4394 17.8249L42.3821 17.7284C40.6881 14.8781 39.3396 12.6091 38.1275 10.9385C36.9063 9.25534 35.6276 7.89223 33.9629 7.16112Z"
  />
</svg>
