<svg
  width="60"
  height="60"
  viewBox="0 0 60 60"
  fill="currentColor"
  xmlns="http://www.w3.org/2000/svg"
>
  <path
    fill-rule="evenodd"
    clip-rule="evenodd"
    d="M26.037 7.16112C28.5625 6.05193 31.4374 6.05193 33.9629 7.16112C35.6276 7.89223 36.9063 9.25534 38.1275 10.9385C39.3396 12.6091 40.6881 14.8781 42.3821 17.7284L50.0101 30.563C51.7708 33.5255 53.1697 35.8792 54.0874 37.8046C55.0093 39.7391 55.6126 41.5663 55.4346 43.4172C55.1655 46.2148 53.7149 48.7644 51.4475 50.425C49.9473 51.5236 48.0684 51.9386 45.9343 52.1344C43.8104 52.3293 41.0723 52.3292 37.626 52.3292H22.3739C18.9276 52.3292 16.1895 52.3293 14.0655 52.1344C11.9315 51.9386 10.0526 51.5236 8.55242 50.425C6.28497 48.7644 4.83435 46.2148 4.56532 43.4172C4.38732 41.5663 4.99054 39.7391 5.91254 37.8046C6.83017 35.8792 8.22909 33.5254 9.98984 30.5629L17.6179 17.7282C19.3118 14.878 20.6603 12.609 21.8724 10.9385C23.0936 9.25534 24.3722 7.89223 26.037 7.16112ZM32.2231 11.1227C30.8063 10.5004 29.1936 10.5004 27.7768 11.1227C27.1827 11.3836 26.4606 11.9826 25.3745 13.4795C24.2929 14.9702 23.0442 17.0669 21.2799 20.0354L13.7672 32.676C11.9356 35.7579 10.6404 37.9414 9.8184 39.6661C8.99074 41.4027 8.80943 42.35 8.87223 43.003C9.02314 44.5724 9.83691 46.0027 11.1089 46.9342C11.6381 47.3218 12.5451 47.65 14.4608 47.8257C16.3634 48.0003 18.9022 48.0024 22.4873 48.0024H37.5126C41.0977 48.0024 43.6365 48.0003 45.539 47.8257C47.4547 47.65 48.3618 47.3218 48.891 46.9342C50.163 46.0027 50.9767 44.5724 51.1277 43.003C51.1905 42.35 51.0091 41.4027 50.1815 39.6661C49.3595 37.9414 48.0643 35.7579 46.2326 32.676L38.72 20.0355C36.9557 17.0669 35.707 14.9702 34.6254 13.4795C33.5393 11.9826 32.8172 11.3836 32.2231 11.1227Z"
  />
</svg>
