<svg
  width="60"
  height="60"
  viewBox="0 0 60 60"
  fill="currentColor"
  xmlns="http://www.w3.org/2000/svg"
>
  <path
    d="M42 35C44.7614 35 47 32.7614 47 30C47 27.2386 44.7614 25 42 25C39.2386 25 37 27.2386 37 30C37 32.7614 39.2386 35 42 35Z"
  />
  <path
    fill-rule="evenodd"
    clip-rule="evenodd"
    d="M16 4.75C9.7868 4.75 4.75 9.7868 4.75 16V44C4.75 50.2132 9.7868 55.25 16 55.25H44C50.2132 55.25 55.25 50.2132 55.25 44V42.1133C57.059 40.9024 58.25 38.8403 58.25 36.5V23.5C58.25 21.1597 57.059 19.0976 55.25 17.8867V16C55.25 9.7868 50.2132 4.75 44 4.75H16ZM35.5 43.25H50.75V44C50.75 47.7279 47.7279 50.75 44 50.75H16C12.2721 50.75 9.25 47.7279 9.25 44V16C9.25 12.2721 12.2721 9.25 16 9.25H44C47.7279 9.25 50.75 12.2721 50.75 16V16.75H35.5C31.7721 16.75 28.75 19.7721 28.75 23.5V36.5C28.75 40.2279 31.7721 43.25 35.5 43.25ZM35.5 21.25C34.2574 21.25 33.25 22.2574 33.25 23.5V36.5C33.25 37.7426 34.2574 38.75 35.5 38.75H51.5C52.7426 38.75 53.75 37.7426 53.75 36.5V23.5C53.75 22.2574 52.7426 21.25 51.5 21.25H35.5Z"
  />
</svg>
