<svg
  width="60"
  height="60"
  viewBox="0 0 60 60"
  fill="currentColor"
  xmlns="http://www.w3.org/2000/svg"
>
  <path
    fill-rule="evenodd"
    clip-rule="evenodd"
    d="M26.6435 4.47027C28.7801 3.5187 31.2201 3.5187 33.3566 4.47027C34.8139 5.11929 35.8896 6.31948 36.8612 7.6957C37.8258 9.0619 38.8915 10.9092 40.2073 13.1899L53.6999 36.5771C55.0144 38.8556 56.0792 40.7011 56.7785 42.2188C57.4831 43.7477 57.9832 45.2786 57.8162 46.8641C57.5714 49.189 56.3516 51.3009 54.4602 52.6748C53.1703 53.6118 51.5943 53.9435 49.9179 54.0973C48.2539 54.25 46.1232 54.25 43.4928 54.2499H16.5074C13.8769 54.25 11.7463 54.25 10.0822 54.0973C8.40583 53.9435 6.82986 53.6118 5.53996 52.6748C3.64855 51.3009 2.42882 49.189 2.18394 46.8641C2.01693 45.2786 2.51711 43.7477 3.22163 42.2188C3.92095 40.7011 4.98575 38.8556 6.3003 36.5771L19.7928 13.19C21.1086 10.9092 22.1744 9.06191 23.1389 7.6957C24.1106 6.31948 25.1863 5.11929 26.6435 4.47027ZM31.5258 8.58099C30.5546 8.14846 29.4455 8.14846 28.4744 8.58099C28.1502 8.7254 27.653 9.10429 26.815 10.2912C25.9839 11.4683 25.0201 13.1345 23.6336 15.5376L10.2552 38.727C8.87004 41.1278 7.9111 42.7945 7.3086 44.1021C6.70121 45.4202 6.622 46.0398 6.65918 46.3927C6.77049 47.4495 7.32491 48.4094 8.18465 49.034C8.47179 49.2425 9.04806 49.4835 10.4933 49.6161C11.927 49.7477 13.8498 49.7499 16.6216 49.7499H43.3786C46.1503 49.7499 48.0732 49.7477 49.5068 49.6161C50.9521 49.4835 51.5284 49.2425 51.8155 49.034C52.6753 48.4094 53.2297 47.4495 53.341 46.3927C53.3782 46.0398 53.299 45.4202 52.6916 44.1021C52.0891 42.7945 51.1301 41.1278 49.745 38.727L36.3666 15.5376C34.9801 13.1345 34.0163 11.4683 33.1851 10.2912C32.3472 9.10429 31.85 8.7254 31.5258 8.58099Z"
  />
  <path
    fill-rule="evenodd"
    clip-rule="evenodd"
    d="M27.0525 18.0986C26.9682 16.4128 28.3123 14.9999 30.0001 14.9999C31.6879 14.9999 33.0319 16.4128 32.9477 18.0986L31.9976 37.0998C31.9444 38.1642 31.0658 38.9999 30.0001 38.9999C28.9343 38.9999 28.0558 38.1642 28.0026 37.0998L27.0525 18.0986Z"
  />
  <path
    fill-rule="evenodd"
    clip-rule="evenodd"
    d="M27.5001 44.9999C27.5001 43.6192 28.6194 42.4999 30.0001 42.4999H30.1001C31.4808 42.4999 32.6001 43.6192 32.6001 44.9999C32.6001 46.3806 31.4808 47.4999 30.1001 47.4999H30.0001C28.6194 47.4999 27.5001 46.3806 27.5001 44.9999Z"
  />
</svg>
