<svg
  width="60"
  height="60"
  viewBox="0 0 60 60"
  fill="currentColor"
  xmlns="http://www.w3.org/2000/svg"
>
  <path
    fill-rule="evenodd"
    clip-rule="evenodd"
    d="M27.0524 18.0986C26.9681 16.4129 28.3122 15 30 15C31.6878 15 33.0319 16.4129 32.9476 18.0986L31.9975 37.0999C31.9443 38.1643 31.0657 39 30 39C28.9343 39 28.0557 38.1643 28.0025 37.0999L27.0524 18.0986Z"
  />
  <path
    fill-rule="evenodd"
    clip-rule="evenodd"
    d="M27.5 45C27.5 43.6193 28.6193 42.5 30 42.5H30.1C31.4807 42.5 32.6 43.6193 32.6 45C32.6 46.3807 31.4807 47.5 30.1 47.5H30C28.6193 47.5 27.5 46.3807 27.5 45Z"
  />
  <path
    fill-rule="evenodd"
    clip-rule="evenodd"
    d="M30 7.25C18.5401 7.25 9.25 16.5401 9.25 28C9.25 33.8771 11.6904 39.1804 15.6192 42.9585C15.696 43.0324 15.7713 43.1047 15.8452 43.1757C16.8872 44.1771 17.6276 44.8886 18.0248 45.4144C18.4445 45.9699 18.6249 46.2698 18.9191 46.9008C19.1971 47.497 19.4016 48.2137 19.6679 49.1472C19.6844 49.2052 19.7012 49.264 19.7182 49.3236L19.9201 50.0302C20.3801 51.6401 21.8515 52.75 23.5258 52.75H36.4742C38.1485 52.75 39.6199 51.6401 40.0799 50.0302L40.2818 49.3236C40.2988 49.264 40.3156 49.2052 40.3321 49.1473C40.5984 48.2137 40.8029 47.497 41.0809 46.9008C41.3751 46.2698 41.5555 45.9699 41.9752 45.4144C42.3724 44.8886 43.1128 44.1771 44.1548 43.1757C44.2287 43.1047 44.304 43.0324 44.3808 42.9585C48.3096 39.1804 50.75 33.8771 50.75 28C50.75 16.5401 41.4599 7.25 30 7.25ZM4.75 28C4.75 14.0548 16.0548 2.75 30 2.75C43.9452 2.75 55.25 14.0548 55.25 28C55.25 35.1509 52.2744 41.6107 47.5 46.2021C46.15 47.5003 45.7131 47.9319 45.5658 48.1268C45.4159 48.3253 45.3679 48.3977 45.3369 48.4492C45.3059 48.5007 45.2645 48.577 45.1593 48.8025C45.0531 49.0303 44.9493 49.3675 44.6086 50.5599L44.4068 51.2664C43.3948 54.8082 40.1577 57.25 36.4742 57.25H23.5258C19.8423 57.25 16.6052 54.8082 15.5932 51.2664L15.3914 50.5599C15.0507 49.3675 14.9469 49.0303 14.8407 48.8025C14.7355 48.577 14.6941 48.5007 14.6631 48.4492C14.6321 48.3977 14.5841 48.3253 14.4342 48.1268C14.2869 47.9319 13.85 47.5003 12.5 46.202C7.72556 41.6107 4.75 35.1509 4.75 28Z"
  />
</svg>
