<svg
  width="60"
  height="60"
  viewBox="0 0 60 60"
  fill="currentColor"
  xmlns="http://www.w3.org/2000/svg"
>
  <path
    fill-rule="evenodd"
    clip-rule="evenodd"
    d="M53.0962 16.8423C50.6691 14.8197 47.1637 14.7513 44.6594 16.6776L43.0844 17.8892C38.9106 21.0998 33.0683 20.9857 29.0231 17.6147L28.0962 16.8423C25.6691 14.8197 22.1637 14.7513 19.6594 16.6776L18.0844 17.8892C13.9106 21.0998 8.0683 20.9857 4.02305 17.6147L3.55964 17.2285C2.60502 16.433 2.47604 15.0142 3.27156 14.0596C4.06708 13.105 5.48585 12.976 6.44047 13.7715L6.90388 14.1577C9.33103 16.1803 12.8364 16.2488 15.3407 14.3224L16.9157 13.1108C21.0895 9.90025 26.9318 10.0143 30.9771 13.3853L31.9039 14.1577C34.331 16.1803 37.8364 16.2488 40.3407 14.3224L41.9157 13.1108C46.0895 9.90025 51.9318 10.0143 55.9771 13.3853L56.4405 13.7715C57.3951 14.567 57.5241 15.9858 56.7286 16.9404C55.933 17.8951 54.5143 18.024 53.5596 17.2285L53.0962 16.8423Z"
  />
  <path
    fill-rule="evenodd"
    clip-rule="evenodd"
    d="M53.0962 46.3423C50.6691 44.3197 47.1637 44.2513 44.6594 46.1776L43.0844 47.3892C38.9106 50.5998 33.0683 50.4857 29.0231 47.1147L28.0962 46.3423C25.6691 44.3197 22.1637 44.2513 19.6594 46.1776L18.0844 47.3892C13.9106 50.5998 8.0683 50.4857 4.02305 47.1147L3.55964 46.7285C2.60502 45.933 2.47604 44.5142 3.27156 43.5596C4.06708 42.605 5.48585 42.476 6.44047 43.2715L6.90388 43.6577C9.33103 45.6803 12.8364 45.7488 15.3407 43.8224L16.9157 42.6108C21.0895 39.4003 26.9318 39.5143 30.9771 42.8854L31.9039 43.6577C34.331 45.6803 37.8364 45.7488 40.3407 43.8224L41.9157 42.6108C46.0895 39.4003 51.9318 39.5143 55.9771 42.8853L56.4405 43.2715C57.3951 44.067 57.5241 45.4858 56.7286 46.4404C55.933 47.3951 54.5143 47.524 53.5596 46.7285L53.0962 46.3423Z"
  />
  <path
    fill-rule="evenodd"
    clip-rule="evenodd"
    d="M53.0962 31.3423C50.6691 29.3197 47.1637 29.2513 44.6594 31.1776L43.0844 32.3892C38.9106 35.5998 33.0683 35.4857 29.0231 32.1147L28.0962 31.3423C25.6691 29.3197 22.1637 29.2513 19.6594 31.1776L18.0844 32.3892C13.9106 35.5998 8.0683 35.4857 4.02305 32.1147L3.55964 31.7285C2.60502 30.933 2.47604 29.5142 3.27156 28.5596C4.06708 27.605 5.48585 27.476 6.44047 28.2715L6.90388 28.6577C9.33103 30.6803 12.8364 30.7488 15.3407 28.8224L16.9157 27.6108C21.0895 24.4003 26.9318 24.5143 30.9771 27.8853L31.9039 28.6577C34.331 30.6803 37.8364 30.7488 40.3407 28.8224L41.9157 27.6108C46.0895 24.4003 51.9318 24.5143 55.9771 27.8853L56.4405 28.2715C57.3951 29.067 57.5241 30.4858 56.7286 31.4404C55.933 32.3951 54.5143 32.524 53.5596 31.7285L53.0962 31.3423Z"
  />
</svg>
