<svg
  xmlns="http://www.w3.org/2000/svg"
  width="14"
  height="14"
  viewBox="0 0 14 14"
  fill="currentColor"
>
  <path
    d="M3.26667 4.25822C3.55662 4.25822 3.79167 4.02317 3.79167 3.73322C3.79167 3.44327 3.55662 3.20822 3.26667 3.20822C2.97672 3.20822 2.74167 3.44327 2.74167 3.73322C2.74167 4.02317 2.97672 4.25822 3.26667 4.25822Z"
  />
  <path
    d="M5.36667 3.73322C5.36667 4.02317 5.13162 4.25822 4.84167 4.25822C4.55172 4.25822 4.31667 4.02317 4.31667 3.73322C4.31667 3.44327 4.55172 3.20822 4.84167 3.20822C5.13162 3.20822 5.36667 3.44327 5.36667 3.73322Z"
  />
  <path
    d="M6.41667 4.25822C6.70662 4.25822 6.94167 4.02317 6.94167 3.73322C6.94167 3.44327 6.70662 3.20822 6.41667 3.20822C6.12672 3.20822 5.89167 3.44327 5.89167 3.73322C5.89167 4.02317 6.12672 4.25822 6.41667 4.25822Z"
  />
  <path
    fill-rule="evenodd"
    clip-rule="evenodd"
    d="M4.73753 1.34155H9.26247C9.83146 1.34155 10.2904 1.34154 10.662 1.37191C11.0447 1.40317 11.3808 1.46922 11.6917 1.62766C12.1857 1.87933 12.5872 2.2809 12.8389 2.77483C12.9973 3.08578 13.0634 3.42188 13.0946 3.80453C13.125 4.17615 13.125 4.63507 13.125 5.20403V8.79571C13.125 9.36467 13.125 9.82362 13.0946 10.1952C13.0634 10.5779 12.9973 10.914 12.8389 11.2249C12.5872 11.7189 12.1857 12.1204 11.6917 12.3721C11.3808 12.5306 11.0447 12.5966 10.662 12.6279C10.2904 12.6582 9.83148 12.6582 9.26252 12.6582H4.73751C4.16855 12.6582 3.7096 12.6582 3.33797 12.6279C2.95533 12.5966 2.61923 12.5306 2.30828 12.3721C1.81435 12.1204 1.41278 11.7189 1.16111 11.2249C1.00267 10.914 0.936618 10.5779 0.905355 10.1952C0.874991 9.82361 0.874995 9.36468 0.875 8.79569V5.20408C0.874995 4.63509 0.874991 4.17616 0.905355 3.80453C0.936618 3.42188 1.00267 3.08578 1.16111 2.77483C1.41278 2.2809 1.81435 1.87933 2.30828 1.62766C2.61923 1.46922 2.95533 1.40317 3.33797 1.37191C3.70961 1.34154 4.16854 1.34155 4.73753 1.34155ZM3.42348 2.41842C3.10576 2.44438 2.92323 2.49277 2.78497 2.56322C2.48861 2.71422 2.24767 2.95516 2.09667 3.25152C2.02622 3.38978 1.97783 3.57232 1.95187 3.89003C1.92771 4.1857 1.92527 4.55817 1.92503 5.07489L12.075 5.07489C12.0747 4.55817 12.0723 4.1857 12.0481 3.89003C12.0222 3.57232 11.9738 3.38978 11.9033 3.25152C11.7523 2.95516 11.5114 2.71422 11.215 2.56322C11.0768 2.49277 10.8942 2.44438 10.5765 2.41842C10.2527 2.39196 9.83672 2.39155 9.24 2.39155H4.76C4.16328 2.39155 3.74732 2.39196 3.42348 2.41842ZM1.925 8.77322V6.12489L12.075 6.12489V8.77322C12.075 9.36994 12.0746 9.7859 12.0481 10.1097C12.0222 10.4275 11.9738 10.61 11.9033 10.7483C11.7523 11.0446 11.5114 11.2856 11.215 11.4366C11.0768 11.507 10.8942 11.5554 10.5765 11.5814C10.2527 11.6078 9.83672 11.6082 9.24 11.6082H4.76C4.16328 11.6082 3.74732 11.6078 3.42348 11.5814C3.10576 11.5554 2.92323 11.507 2.78497 11.4366C2.48861 11.2856 2.24767 11.0446 2.09667 10.7483C2.02622 10.61 1.97783 10.4275 1.95187 10.1097C1.92541 9.7859 1.925 9.36994 1.925 8.77322Z"
  />
</svg>
