<svg
  width="60"
  height="60"
  viewBox="0 0 60 60"
  fill="currentColor"
  xmlns="http://www.w3.org/2000/svg"
>
  <path
    d="M24.5756 10.0419C22.7042 14.9755 21.5 21.9427 21.5 29.75C21.5 30.4506 21.5097 31.1443 21.5287 31.8305C24.2524 32.2627 27.1851 32.5 30.2499 32.5C33.3148 32.5 36.2475 32.2627 38.9713 31.8305C38.9903 31.1443 39 30.4505 39 29.75C39 21.9427 37.7958 14.9755 35.9244 10.0419C34.9857 7.56714 33.9227 5.71991 32.8566 4.53116C31.7896 3.34134 30.9045 3 30.25 3C29.5955 3 28.7104 3.34134 27.6434 4.53116C26.5773 5.71991 25.5143 7.56714 24.5756 10.0419Z"
  />
  <path
    d="M38.6983 36.4212C36.0092 36.7991 33.1733 37 30.2499 37C27.3265 37 24.4907 36.7992 21.8017 36.4212C22.2701 41.4979 23.2573 45.9826 24.5756 49.4581C25.5143 51.9329 26.5773 53.7801 27.6434 54.9688C28.7104 56.1587 29.5955 56.5 30.25 56.5C30.9045 56.5 31.7896 56.1587 32.8566 54.9688C33.9227 53.7801 34.9857 51.9329 35.9244 49.4581C37.2427 45.9826 38.2299 41.4979 38.6983 36.4212Z"
  />
  <path
    d="M17.0081 30.888C17.0027 30.5102 17 30.1308 17 29.75C17 21.541 18.2582 14.0083 20.3681 8.44593C20.8831 7.08809 21.4594 5.81979 22.0972 4.6739C22.3214 4.27121 21.9484 3.78348 21.5119 3.93118C13.0486 6.79452 6.44963 13.7024 4.01553 22.3544C4.15096 22.5259 4.26351 22.7201 4.34684 22.9344C5.22161 25.1833 8.00521 27.6161 12.7603 29.5058C14.067 30.0251 15.489 30.4892 17.0081 30.888Z"
  />
  <path
    d="M3.01811 28.7471C5.08683 30.7711 7.91928 32.4243 11.0984 33.6877C12.9704 34.4317 15.0228 35.0658 17.2154 35.5739C17.659 41.4903 18.7689 46.8381 20.3681 51.0541C21.0601 52.8784 21.8625 54.5411 22.7765 55.9624C11.3602 52.7137 3 42.2082 3 29.75C3 29.4143 3.00607 29.0799 3.01811 28.7471Z"
  />
  <path
    d="M43.2846 35.5739C45.4771 35.0657 47.5294 34.4316 49.4014 33.6877C52.5806 32.4242 55.4131 30.771 57.4819 28.7469C57.4939 29.0798 57.5 29.4142 57.5 29.75C57.5 42.2082 49.1398 52.7137 37.7235 55.9624C38.6375 54.5411 39.4399 52.8784 40.1319 51.0541C41.7311 46.8381 42.841 41.4902 43.2846 35.5739Z"
  />
  <path
    d="M56.4844 22.3542C56.3489 22.5257 56.2363 22.72 56.1529 22.9344C55.2782 25.1833 52.4946 27.6161 47.7394 29.5058C46.4328 30.0251 45.0109 30.4891 43.4919 30.888C43.4973 30.5102 43.5 30.1308 43.5 29.75C43.5 21.541 42.2418 14.0083 40.1319 8.44593C39.6169 7.08809 39.0406 5.81979 38.4028 4.6739C38.1786 4.27121 38.5516 3.78348 38.9881 3.93118C47.4514 6.79449 54.0503 13.7023 56.4844 22.3542Z"
  />
</svg>
