<svg
  width="60"
  height="60"
  viewBox="0 0 60 60"
  fill="currentColor"
  xmlns="http://www.w3.org/2000/svg"
>
  <path
    fill-rule="evenodd"
    clip-rule="evenodd"
    d="M57.25 30C57.25 45.0498 45.0498 57.25 30 57.25C14.9502 57.25 2.75 45.0498 2.75 30C2.75 14.9502 14.9502 2.75 30 2.75C45.0498 2.75 57.25 14.9502 57.25 30ZM27.2776 8.58671C28.3048 7.59929 29.2212 7.25 30 7.25C30.7788 7.25 31.6952 7.59929 32.7224 8.58671C33.7607 9.58481 34.7984 11.1369 35.7187 13.2285C37.5565 17.4054 38.75 23.3332 38.75 30C38.75 30.6855 38.7374 31.3633 38.7127 32.0321C36.0328 32.4928 33.0942 32.75 29.9999 32.75C26.9057 32.75 23.9672 32.4928 21.2873 32.0321C21.2626 31.3633 21.25 30.6856 21.25 30C21.25 23.3332 22.4435 17.4054 24.2813 13.2285C25.2016 11.1369 26.2393 9.58481 27.2776 8.58671ZM16.7582 30.9927C16.7527 30.6631 16.75 30.3322 16.75 30C16.75 22.8597 18.019 16.2875 20.1624 11.4162C20.5484 10.5389 20.9685 9.70365 21.4227 8.92239C14.4415 11.7662 9.19047 17.9776 7.68717 25.5392C8.5681 27.1116 10.8391 28.8829 14.6934 30.3101C15.3491 30.5529 16.0384 30.7809 16.7582 30.9927ZM7.30042 31.5267C8.96468 32.731 10.9722 33.7308 13.1308 34.5301C14.3491 34.9812 15.6531 35.3829 17.0289 35.7301C17.5128 40.6215 18.6075 45.0502 20.1624 48.5838C20.5484 49.4611 20.9685 50.2964 21.4227 51.0776C13.5572 47.8736 7.88804 40.3949 7.30042 31.5267ZM21.6605 36.649C24.2939 37.0406 27.0986 37.25 29.9999 37.25C32.9013 37.25 35.7061 37.0405 38.3395 36.649C37.8413 40.5805 36.917 44.0482 35.7187 46.7715C34.7984 48.8631 33.7607 50.4152 32.7224 51.4133C31.6952 52.4007 30.7788 52.75 30 52.75C29.2212 52.75 28.3048 52.4007 27.2776 51.4133C26.2393 50.4152 25.2016 48.8631 24.2813 46.7715C23.083 44.0482 22.1587 40.5805 21.6605 36.649ZM42.9711 35.7301C42.4872 40.6215 41.3925 45.0501 39.8376 48.5838C39.4516 49.4611 39.0315 50.2963 38.5773 51.0776C46.4428 47.8736 52.112 40.3948 52.6996 31.5267C51.0353 32.731 49.0278 33.7308 46.8691 34.5301C45.6509 34.9812 44.3468 35.3829 42.9711 35.7301ZM52.3128 25.539C50.8095 17.9776 45.5585 11.7662 38.5773 8.92239C39.0315 9.70365 39.4516 10.5389 39.8376 11.4162C41.981 16.2875 43.25 22.8597 43.25 30C43.25 30.3322 43.2473 30.6631 43.2418 30.9927C43.9616 30.7809 44.6509 30.5529 45.3065 30.3101C49.1609 28.8829 51.4319 27.1115 52.3128 25.539Z"
  />
</svg>
