<svg
  width="60"
  height="60"
  viewBox="0 0 60 60"
  fill="currentColor"
  xmlns="http://www.w3.org/2000/svg"
>
  <path
    d="M40.3322 6.69101e-07H19.6678C16.7705 -2.52622e-05 14.4336 -4.61787e-05 12.5413 0.154565C10.5929 0.313756 8.8815 0.650087 7.29815 1.45685C4.78311 2.73832 2.73832 4.78311 1.45685 7.29815C0.650087 8.8815 0.313756 10.5929 0.154565 12.5413C-4.61787e-05 14.4336 -2.52622e-05 16.7705 6.69102e-07 19.6677V40.3322C-2.52622e-05 43.2295 -4.61787e-05 45.5664 0.154565 47.4587C0.313756 49.4071 0.650087 51.1185 1.45685 52.7019C2.73832 55.2169 4.78311 57.2617 7.29815 58.5432C8.8815 59.3499 10.5929 59.6862 12.5413 59.8454C14.4336 60 16.7704 60 19.6676 60H40.3323C43.2295 60 45.5664 60 47.4587 59.8454C49.4071 59.6862 51.1185 59.3499 52.7019 58.5432C55.2169 57.2617 57.2617 55.2169 58.5432 52.7019C59.3499 51.1185 59.6862 49.4071 59.8454 47.4587C60 45.5664 60 43.2296 60 40.3324V19.6677C60 16.7705 60 14.4336 59.8454 12.5413C59.6862 10.5929 59.3499 8.8815 58.5432 7.29815C57.2617 4.78311 55.2169 2.73832 52.7019 1.45685C51.1185 0.650087 49.4071 0.313756 47.4587 0.154565C45.5664 -4.61787e-05 43.2295 -2.52622e-05 40.3322 6.69101e-07Z"
    fill="#0072F2"
    fill-opacity="0.08"
  />
  <path
    fill-rule="evenodd"
    clip-rule="evenodd"
    d="M30 17.25C22.9584 17.25 17.25 22.9584 17.25 30C17.25 37.0416 22.9584 42.75 30 42.75C37.0416 42.75 42.75 37.0416 42.75 30C42.75 22.9584 37.0416 17.25 30 17.25ZM12.75 30C12.75 20.4731 20.4731 12.75 30 12.75C39.5269 12.75 47.25 20.4731 47.25 30C47.25 39.5269 39.5269 47.25 30 47.25C20.4731 47.25 12.75 39.5269 12.75 30Z"
    fill="#3182FF"
  />
  <path
    fill-rule="evenodd"
    clip-rule="evenodd"
    d="M30 17.25C22.9584 17.25 17.25 22.9584 17.25 30C17.25 37.0416 22.9584 42.75 30 42.75C37.0416 42.75 42.75 37.0416 42.75 30C42.75 22.9584 37.0416 17.25 30 17.25ZM12.75 30C12.75 20.4731 20.4731 12.75 30 12.75C39.5269 12.75 47.25 20.4731 47.25 30C47.25 39.5269 39.5269 47.25 30 47.25C20.4731 47.25 12.75 39.5269 12.75 30Z"
    fill="#3182FF"
  />
  <path
    fill-rule="evenodd"
    clip-rule="evenodd"
    d="M27.8464 20.229C26.8911 22.6172 26.25 26.0708 26.25 30C26.25 33.9292 26.8911 37.3828 27.8464 39.771C28.3266 40.9713 28.842 41.7917 29.2993 42.2752C29.7488 42.7506 29.9865 42.75 30 42.75C30.0135 42.75 30.2512 42.7506 30.7007 42.2752C31.158 41.7917 31.6734 40.9713 32.1536 39.771C33.1089 37.3828 33.75 33.9292 33.75 30C33.75 26.0708 33.1089 22.6172 32.1536 20.229C31.6734 19.0287 31.158 18.2083 30.7007 17.7248C30.2512 17.2494 30.0135 17.25 30 17.25C29.9865 17.25 29.7488 17.2494 29.2993 17.7248C28.842 18.2083 28.3266 19.0287 27.8464 20.229ZM26.0298 14.6328C27.0127 13.5935 28.3535 12.75 30 12.75C31.6465 12.75 32.9873 13.5935 33.9702 14.6328C34.9486 15.6674 35.7261 17.0437 36.3317 18.5578C37.548 21.5985 38.25 25.6449 38.25 30C38.25 34.3551 37.548 38.4015 36.3317 41.4422C35.7261 42.9563 34.9486 44.3326 33.9702 45.3672C32.9873 46.4065 31.6465 47.25 30 47.25C28.3535 47.25 27.0127 46.4065 26.0298 45.3672C25.0514 44.3326 24.2739 42.9563 23.6683 41.4422C22.452 38.4015 21.75 34.3551 21.75 30C21.75 25.6449 22.452 21.5985 23.6683 18.5578C24.2739 17.0437 25.0514 15.6674 26.0298 14.6328Z"
    fill="#3182FF"
  />
  <path
    fill-rule="evenodd"
    clip-rule="evenodd"
    d="M38.8717 29.3422C41.3224 28.4347 42.4081 27.3765 42.6766 26.7333L46.8293 28.4669C45.8153 30.8958 43.201 32.5377 40.4343 33.5621C37.534 34.6361 33.8952 35.2501 30.0003 35.2501C26.1053 35.2501 22.4666 34.6361 19.5662 33.5621C16.7995 32.5377 14.1853 30.8958 13.1713 28.4669L17.3239 26.7333C17.5924 27.3765 18.6781 28.4347 21.1288 29.3422C23.446 30.2002 26.5423 30.7501 30.0003 30.7501C33.4582 30.7501 36.5545 30.2002 38.8717 29.3422Z"
    fill="#3182FF"
  />
</svg>
