<svg
  width="60"
  height="60"
  viewBox="0 0 60 60"
  fill="currentColor"
  xmlns="http://www.w3.org/2000/svg"
>
  <path
    d="M14 18.25C15.2426 18.25 16.25 17.2426 16.25 16C16.25 14.7574 15.2426 13.75 14 13.75C12.7574 13.75 11.75 14.7574 11.75 16C11.75 17.2426 12.7574 18.25 14 18.25Z"
  />
  <path
    d="M23 16C23 17.2426 21.9926 18.25 20.75 18.25C19.5074 18.25 18.5 17.2426 18.5 16C18.5 14.7574 19.5074 13.75 20.75 13.75C21.9926 13.75 23 14.7574 23 16Z"
  />
  <path
    d="M27.5 18.25C28.7426 18.25 29.75 17.2426 29.75 16C29.75 14.7574 28.7426 13.75 27.5 13.75C26.2574 13.75 25.25 14.7574 25.25 16C25.25 17.2426 26.2574 18.25 27.5 18.25Z"
  />
  <path
    fill-rule="evenodd"
    clip-rule="evenodd"
    d="M20.3037 5.75H39.6963C42.1348 5.74998 44.1017 5.74996 45.6944 5.88009C47.3343 6.01408 48.7747 6.29716 50.1074 6.97618C52.2242 8.05475 53.9452 9.77578 55.0238 11.8926C55.7028 13.2253 55.9859 14.6657 56.1199 16.3056C56.25 17.8983 56.25 19.8651 56.25 22.3035V37.6964C56.25 40.1348 56.25 42.1017 56.1199 43.6944C55.9859 45.3343 55.7028 46.7747 55.0238 48.1074C53.9452 50.2242 52.2242 51.9452 50.1074 53.0238C48.7747 53.7028 47.3343 53.9859 45.6944 54.1199C44.1017 54.25 42.1349 54.25 39.6965 54.25H20.3036C17.8652 54.25 15.8983 54.25 14.3056 54.1199C12.6657 53.9859 11.2253 53.7028 9.89261 53.0238C7.77578 51.9452 6.05475 50.2242 4.97618 48.1074C4.29716 46.7747 4.01408 45.3343 3.88009 43.6944C3.74996 42.1017 3.74998 40.1348 3.75 37.6963V22.3037C3.74998 19.8652 3.74996 17.8983 3.88009 16.3056C4.01408 14.6657 4.29716 13.2253 4.97618 11.8926C6.05475 9.77578 7.77578 8.05475 9.89261 6.97618C11.2253 6.29716 12.6657 6.01408 14.3056 5.88009C15.8983 5.74996 17.8652 5.74998 20.3037 5.75ZM14.672 10.3651C13.3104 10.4764 12.5281 10.6838 11.9356 10.9857C10.6655 11.6329 9.63285 12.6655 8.98571 13.9356C8.68379 14.5281 8.4764 15.3104 8.36515 16.672C8.26161 17.9392 8.25115 19.5355 8.25011 21.75L51.7499 21.75C51.7489 19.5355 51.7384 17.9392 51.6349 16.672C51.5236 15.3104 51.3162 14.5281 51.0143 13.9356C50.3671 12.6655 49.3345 11.6329 48.0644 10.9857C47.4719 10.6838 46.6896 10.4764 45.328 10.3651C43.9401 10.2518 42.1574 10.25 39.6 10.25H20.4C17.8426 10.25 16.0599 10.2518 14.672 10.3651ZM8.25 37.6V26.25L51.75 26.25V37.6C51.75 40.1574 51.7482 41.9401 51.6349 43.328C51.5236 44.6896 51.3162 45.4719 51.0143 46.0644C50.3671 47.3345 49.3345 48.3671 48.0644 49.0143C47.4719 49.3162 46.6896 49.5236 45.328 49.6349C43.9401 49.7482 42.1574 49.75 39.6 49.75H20.4C17.8426 49.75 16.0599 49.7482 14.672 49.6349C13.3104 49.5236 12.5281 49.3162 11.9356 49.0143C10.6655 48.3671 9.63285 47.3345 8.98571 46.0644C8.68379 45.4719 8.4764 44.6896 8.36515 43.328C8.25175 41.9401 8.25 40.1574 8.25 37.6Z"
  />
</svg>
