<svg
  width="60"
  height="60"
  viewBox="0 0 60 60"
  fill="currentColor"
  xmlns="http://www.w3.org/2000/svg"
>
  <path
    d="M14 19C15.6569 19 17 17.6569 17 16C17 14.3431 15.6569 13 14 13C12.3431 13 11 14.3431 11 16C11 17.6569 12.3431 19 14 19Z"
  />
  <path
    d="M24 16C24 17.6569 22.6569 19 21 19C19.3431 19 18 17.6569 18 16C18 14.3431 19.3431 13 21 13C22.6569 13 24 14.3431 24 16Z"
  />
  <path
    d="M28 19C29.6569 19 31 17.6569 31 16C31 14.3431 29.6569 13 28 13C26.3431 13 25 14.3431 25 16C25 17.6569 26.3431 19 28 19Z"
  />
  <path
    fill-rule="evenodd"
    clip-rule="evenodd"
    d="M18.6783 5H41.3217C43.4584 4.99996 45.2418 4.99992 46.6987 5.11896C48.2182 5.24311 49.6448 5.51156 50.9939 6.19893C53.0637 7.25354 54.7465 8.93633 55.8011 11.0061C56.4885 12.3552 56.7569 13.7818 56.881 15.3013C57.0001 16.7582 57 18.5415 57 20.678V39.3218C57 41.4583 57.0001 43.2418 56.881 44.6987C56.7569 46.2182 56.4885 47.6448 55.8011 48.9939C54.7465 51.0637 53.0637 52.7465 50.9939 53.8011C49.6448 54.4885 48.2182 54.7569 46.6987 54.881C45.2418 55.0001 43.4585 55 41.322 55H18.6782C16.5417 55 14.7582 55.0001 13.3013 54.881C11.7818 54.7569 10.3552 54.4885 9.00611 53.8011C6.93632 52.7465 5.25354 51.0637 4.19893 48.9939C3.51156 47.6448 3.24311 46.2182 3.11896 44.6987C2.99992 43.2417 2.99996 41.4584 3 39.3217V20.6783C2.99996 18.5416 2.99992 16.7583 3.11896 15.3013C3.24311 13.7818 3.51156 12.3552 4.19893 11.0061C5.25354 8.93633 6.93632 7.25354 9.00611 6.19893C10.3552 5.51156 11.7818 5.24311 13.3013 5.11896C14.7583 4.99992 16.5416 4.99996 18.6783 5ZM13.7899 11.099C12.6414 11.1929 12.0923 11.3604 11.7301 11.545C10.7892 12.0243 10.0243 12.7892 9.54497 13.7301C9.3604 14.0923 9.19287 14.6414 9.09903 15.7899C9.00234 16.9734 9 18.5103 9 20.8V21L51 21V20.8C51 18.5103 50.9977 16.9734 50.901 15.7899C50.8071 14.6414 50.6396 14.0923 50.455 13.7301C49.9757 12.7892 49.2108 12.0243 48.27 11.545C47.9077 11.3604 47.3586 11.1929 46.2101 11.099C45.0266 11.0023 43.4897 11 41.2 11H18.8C16.5103 11 14.9734 11.0023 13.7899 11.099ZM9 39.2V27L51 27V39.2C51 41.4897 50.9977 43.0266 50.901 44.2101C50.8071 45.3586 50.6396 45.9077 50.455 46.27C49.9757 47.2108 49.2108 47.9757 48.27 48.455C47.9077 48.6396 47.3586 48.8071 46.2101 48.901C45.0266 48.9977 43.4897 49 41.2 49H18.8C16.5103 49 14.9734 48.9977 13.7899 48.901C12.6414 48.8071 12.0923 48.6396 11.7301 48.455C10.7892 47.9757 10.0243 47.2108 9.54497 46.27C9.3604 45.9077 9.19287 45.3586 9.09903 44.2101C9.00234 43.0266 9 41.4897 9 39.2Z"
  />
</svg>
