<svg
  width="60"
  height="60"
  viewBox="0 0 60 60"
  fill="currentColor"
  xmlns="http://www.w3.org/2000/svg"
>
  <path
    d="M5 20.648C5 15.1707 5 12.432 6.06596 10.34C7.0036 8.49975 8.49975 7.0036 10.34 6.06596C12.432 5 15.1707 5 20.648 5H39.352C44.8293 5 47.568 5 49.66 6.06596C51.5003 7.0036 52.9964 8.49975 53.934 10.34C55 12.432 55 15.1707 55 20.648V39.352C55 44.8293 55 47.568 53.934 49.66C52.9964 51.5003 51.5003 52.9964 49.66 53.934C47.568 55 44.8293 55 39.352 55H20.648C15.1707 55 12.432 55 10.34 53.934C8.49975 52.9964 7.0036 51.5003 6.06596 49.66C5 47.568 5 44.8293 5 39.352V20.648Z"
    fill="#3182FF"
  />
  <path
    fill-rule="evenodd"
    clip-rule="evenodd"
    d="M30 17.25C22.9584 17.25 17.25 22.9584 17.25 30C17.25 37.0416 22.9584 42.75 30 42.75C37.0416 42.75 42.75 37.0416 42.75 30C42.75 22.9584 37.0416 17.25 30 17.25ZM12.75 30C12.75 20.4731 20.4731 12.75 30 12.75C39.5269 12.75 47.25 20.4731 47.25 30C47.25 39.5269 39.5269 47.25 30 47.25C20.4731 47.25 12.75 39.5269 12.75 30Z"
    fill="white"
  />
  <path
    fill-rule="evenodd"
    clip-rule="evenodd"
    d="M30 17.25C22.9584 17.25 17.25 22.9584 17.25 30C17.25 37.0416 22.9584 42.75 30 42.75C37.0416 42.75 42.75 37.0416 42.75 30C42.75 22.9584 37.0416 17.25 30 17.25ZM12.75 30C12.75 20.4731 20.4731 12.75 30 12.75C39.5269 12.75 47.25 20.4731 47.25 30C47.25 39.5269 39.5269 47.25 30 47.25C20.4731 47.25 12.75 39.5269 12.75 30Z"
    fill="white"
  />
  <path
    fill-rule="evenodd"
    clip-rule="evenodd"
    d="M27.8464 20.229C26.8911 22.6172 26.25 26.0708 26.25 30C26.25 33.9292 26.8911 37.3828 27.8464 39.771C28.3266 40.9713 28.842 41.7917 29.2993 42.2752C29.7488 42.7506 29.9865 42.75 30 42.75C30.0135 42.75 30.2512 42.7506 30.7007 42.2752C31.158 41.7917 31.6734 40.9713 32.1536 39.771C33.1089 37.3828 33.75 33.9292 33.75 30C33.75 26.0708 33.1089 22.6172 32.1536 20.229C31.6734 19.0287 31.158 18.2083 30.7007 17.7248C30.2512 17.2494 30.0135 17.25 30 17.25C29.9865 17.25 29.7488 17.2494 29.2993 17.7248C28.842 18.2083 28.3266 19.0287 27.8464 20.229ZM26.0298 14.6328C27.0127 13.5935 28.3535 12.75 30 12.75C31.6465 12.75 32.9873 13.5935 33.9702 14.6328C34.9486 15.6674 35.7261 17.0437 36.3317 18.5578C37.548 21.5985 38.25 25.6449 38.25 30C38.25 34.3551 37.548 38.4015 36.3317 41.4422C35.7261 42.9563 34.9486 44.3326 33.9702 45.3672C32.9873 46.4065 31.6465 47.25 30 47.25C28.3535 47.25 27.0127 46.4065 26.0298 45.3672C25.0514 44.3326 24.2739 42.9563 23.6683 41.4422C22.452 38.4015 21.75 34.3551 21.75 30C21.75 25.6449 22.452 21.5985 23.6683 18.5578C24.2739 17.0437 25.0514 15.6674 26.0298 14.6328Z"
    fill="white"
  />
  <path
    fill-rule="evenodd"
    clip-rule="evenodd"
    d="M38.8717 29.3422C41.3224 28.4347 42.4081 27.3765 42.6766 26.7333L46.8293 28.4669C45.8153 30.8958 43.201 32.5377 40.4343 33.5621C37.534 34.6361 33.8952 35.2501 30.0003 35.2501C26.1053 35.2501 22.4666 34.6361 19.5662 33.5621C16.7995 32.5377 14.1853 30.8958 13.1713 28.4669L17.3239 26.7333C17.5924 27.3765 18.6781 28.4347 21.1288 29.3422C23.446 30.2002 26.5423 30.7501 30.0003 30.7501C33.4582 30.7501 36.5545 30.2002 38.8717 29.3422Z"
    fill="white"
  />
</svg>
