<svg
  width="60"
  height="60"
  viewBox="0 0 60 60"
  fill="currentColor"
  xmlns="http://www.w3.org/2000/svg"
>
  <path
    fill-rule="evenodd"
    clip-rule="evenodd"
    d="M21.3037 4.75H38.6963C41.1348 4.74998 43.1017 4.74996 44.6944 4.88009C46.3343 5.01408 47.7747 5.29716 49.1074 5.97618C51.2242 7.05475 52.9452 8.77578 54.0238 10.8926C54.7028 12.2253 54.9859 13.6657 55.1199 15.3056C55.25 16.8983 55.25 18.8651 55.25 21.3036V38.6964C55.25 41.1349 55.25 43.1017 55.1199 44.6944C54.9859 46.3343 54.7028 47.7747 54.0238 49.1074C52.9452 51.2242 51.2242 52.9452 49.1074 54.0238C47.7747 54.7028 46.3343 54.9859 44.6944 55.1199C43.1017 55.25 41.1349 55.25 38.6964 55.25H21.3036C18.8651 55.25 16.8983 55.25 15.3056 55.1199C13.6657 54.9859 12.2253 54.7028 10.8926 54.0238C8.77578 52.9452 7.05475 51.2242 5.97618 49.1074C5.29716 47.7747 5.01408 46.3343 4.88009 44.6944C4.74996 43.1017 4.74998 41.1348 4.75 38.6963V21.3037C4.74998 18.8652 4.74996 16.8983 4.88009 15.3056C5.01408 13.6657 5.29716 12.2253 5.97618 10.8926C7.05475 8.77578 8.77578 7.05475 10.8926 5.97618C12.2253 5.29716 13.6657 5.01408 15.3056 4.88009C16.8983 4.74996 18.8652 4.74998 21.3037 4.75ZM15.672 9.36515C14.3104 9.4764 13.5281 9.68379 12.9356 9.98571C11.6655 10.6329 10.6329 11.6655 9.98571 12.9356C9.68379 13.5281 9.4764 14.3104 9.36515 15.672C9.25175 17.0599 9.25 18.8426 9.25 21.4V38.6C9.25 41.1574 9.25175 42.9401 9.36515 44.328C9.4764 45.6896 9.68379 46.4719 9.98571 47.0644C10.6329 48.3345 11.6655 49.3671 12.9356 50.0143C13.5281 50.3162 14.3104 50.5236 15.672 50.6349C17.0599 50.7482 18.8426 50.75 21.4 50.75H38.6C41.1574 50.75 42.9401 50.7482 44.328 50.6349C45.6896 50.5236 46.4719 50.3162 47.0644 50.0143C48.3345 49.3671 49.3671 48.3345 50.0143 47.0644C50.3162 46.4719 50.5236 45.6896 50.6349 44.328C50.7482 42.9401 50.75 41.1574 50.75 38.6V21.4C50.75 18.8426 50.7482 17.0599 50.6349 15.672C50.5236 14.3104 50.3162 13.5281 50.0143 12.9356C49.3671 11.6655 48.3345 10.6329 47.0644 9.98571C46.4719 9.68379 45.6896 9.4764 44.328 9.36515C42.9401 9.25175 41.1574 9.25 38.6 9.25H21.4C18.8426 9.25 17.0599 9.25175 15.672 9.36515Z"
  />
  <path
    fill-rule="evenodd"
    clip-rule="evenodd"
    d="M30 17.25C22.9584 17.25 17.25 22.9584 17.25 30C17.25 37.0416 22.9584 42.75 30 42.75C37.0416 42.75 42.75 37.0416 42.75 30C42.75 22.9584 37.0416 17.25 30 17.25ZM12.75 30C12.75 20.4731 20.4731 12.75 30 12.75C39.5269 12.75 47.25 20.4731 47.25 30C47.25 39.5269 39.5269 47.25 30 47.25C20.4731 47.25 12.75 39.5269 12.75 30Z"
  />
  <path
    fill-rule="evenodd"
    clip-rule="evenodd"
    d="M30 17.25C22.9584 17.25 17.25 22.9584 17.25 30C17.25 37.0416 22.9584 42.75 30 42.75C37.0416 42.75 42.75 37.0416 42.75 30C42.75 22.9584 37.0416 17.25 30 17.25ZM12.75 30C12.75 20.4731 20.4731 12.75 30 12.75C39.5269 12.75 47.25 20.4731 47.25 30C47.25 39.5269 39.5269 47.25 30 47.25C20.4731 47.25 12.75 39.5269 12.75 30Z"
  />
  <path
    fill-rule="evenodd"
    clip-rule="evenodd"
    d="M27.8464 20.229C26.8911 22.6172 26.25 26.0708 26.25 30C26.25 33.9292 26.8911 37.3828 27.8464 39.771C28.3266 40.9713 28.842 41.7917 29.2993 42.2752C29.7488 42.7506 29.9865 42.75 30 42.75C30.0135 42.75 30.2512 42.7506 30.7007 42.2752C31.158 41.7917 31.6734 40.9713 32.1536 39.771C33.1089 37.3828 33.75 33.9292 33.75 30C33.75 26.0708 33.1089 22.6172 32.1536 20.229C31.6734 19.0287 31.158 18.2083 30.7007 17.7248C30.2512 17.2494 30.0135 17.25 30 17.25C29.9865 17.25 29.7488 17.2494 29.2993 17.7248C28.842 18.2083 28.3266 19.0287 27.8464 20.229ZM26.0298 14.6328C27.0127 13.5935 28.3535 12.75 30 12.75C31.6465 12.75 32.9873 13.5935 33.9702 14.6328C34.9486 15.6674 35.7261 17.0437 36.3317 18.5578C37.548 21.5985 38.25 25.6449 38.25 30C38.25 34.3551 37.548 38.4015 36.3317 41.4422C35.7261 42.9563 34.9486 44.3326 33.9702 45.3672C32.9873 46.4065 31.6465 47.25 30 47.25C28.3535 47.25 27.0127 46.4065 26.0298 45.3672C25.0514 44.3326 24.2739 42.9563 23.6683 41.4422C22.452 38.4015 21.75 34.3551 21.75 30C21.75 25.6449 22.452 21.5985 23.6683 18.5578C24.2739 17.0437 25.0514 15.6674 26.0298 14.6328Z"
  />
  <path
    fill-rule="evenodd"
    clip-rule="evenodd"
    d="M38.8717 29.3422C41.3224 28.4347 42.4081 27.3765 42.6766 26.7333L46.8293 28.4669C45.8153 30.8958 43.201 32.5377 40.4343 33.5621C37.534 34.6361 33.8952 35.2501 30.0003 35.2501C26.1053 35.2501 22.4666 34.6361 19.5662 33.5621C16.7995 32.5377 14.1853 30.8958 13.1713 28.4669L17.3239 26.7333C17.5924 27.3765 18.6781 28.4347 21.1288 29.3422C23.446 30.2002 26.5423 30.7501 30.0003 30.7501C33.4582 30.7501 36.5546 30.2002 38.8717 29.3422Z"
  />
</svg>
