<svg
  width="60"
  height="60"
  viewBox="0 0 60 60"
  fill="currentColor"
  xmlns="http://www.w3.org/2000/svg"
>
  <path
    fill-rule="evenodd"
    clip-rule="evenodd"
    d="M47.25 30C47.25 39.5269 39.5269 47.25 30 47.25C20.4731 47.25 12.75 39.5269 12.75 30C12.75 20.4731 20.4731 12.75 30 12.75C39.5269 12.75 47.25 20.4731 47.25 30ZM38.2476 29.5599C38.2045 25.5976 37.5797 21.913 36.5168 19.039C39.4633 20.7946 41.6421 23.7046 42.4291 27.145C41.9426 27.7767 40.8535 28.6087 38.8725 29.3423C38.6701 29.4172 38.4617 29.4898 38.2476 29.5599ZM33.7461 30.5274C33.7487 30.3526 33.75 30.1768 33.75 30C33.75 26.0708 33.1089 22.6172 32.1536 20.229C31.6734 19.0287 31.158 18.2083 30.7007 17.7248C30.2512 17.2494 30.0138 17.25 30.0003 17.25C29.9867 17.25 29.7488 17.2494 29.2993 17.7248C28.842 18.2083 28.3266 19.0287 27.8464 20.229C26.8911 22.6172 26.25 26.0708 26.25 30C26.25 30.1767 26.2513 30.3524 26.2539 30.5271C27.4361 30.6715 28.6927 30.7502 30.0011 30.7502C31.3087 30.7502 32.5645 30.6716 33.7461 30.5274ZM26.6299 35.0935C27.723 35.1967 28.8509 35.2502 30.0011 35.2502C31.1505 35.2502 32.2776 35.1967 33.3701 35.0937C33.0889 36.8991 32.6665 38.4886 32.1536 39.771C31.6734 40.9713 31.158 41.7917 30.7007 42.2752C30.2512 42.7506 30.0133 42.75 29.9997 42.75C29.9862 42.75 29.7488 42.7506 29.2993 42.2752C28.842 41.7917 28.3266 40.9713 27.8464 39.771C27.3335 38.4886 26.9111 36.899 26.6299 35.0935ZM21.7524 29.5592C21.7956 25.5971 22.4204 21.9128 23.4832 19.039C20.5373 20.7942 18.3588 23.7034 17.5714 27.1428C18.0571 27.7748 19.1463 28.6079 21.1296 29.3423C21.3314 29.417 21.5391 29.4893 21.7524 29.5592ZM17.5297 32.6685C18.1837 33.0073 18.8706 33.3043 19.567 33.5622C20.3257 33.8432 21.135 34.0926 21.9861 34.3079C22.2632 36.7796 22.7763 39.0496 23.4832 40.961C20.4836 39.1738 18.2796 36.1901 17.5297 32.6685ZM38.0138 34.3084C38.8658 34.0931 39.6758 33.8434 40.4351 33.5622C41.1307 33.3047 41.8167 33.0081 42.47 32.6697C41.7199 36.1908 39.5161 39.174 36.5168 40.961C37.2236 39.0497 37.7367 36.78 38.0138 34.3084Z"
  />
  <path
    fill-rule="evenodd"
    clip-rule="evenodd"
    d="M21.3037 4.75H38.6963C41.1348 4.74998 43.1017 4.74996 44.6944 4.88009C46.3343 5.01408 47.7747 5.29716 49.1074 5.97618C51.2242 7.05475 52.9452 8.77578 54.0238 10.8926C54.7028 12.2253 54.9859 13.6657 55.1199 15.3056C55.25 16.8983 55.25 18.8651 55.25 21.3035V38.6964C55.25 41.1348 55.25 43.1017 55.1199 44.6944C54.9859 46.3343 54.7028 47.7747 54.0238 49.1074C52.9452 51.2242 51.2242 52.9452 49.1074 54.0238C47.7747 54.7028 46.3343 54.9859 44.6944 55.1199C43.1017 55.25 41.1349 55.25 38.6965 55.25H21.3036C18.8652 55.25 16.8983 55.25 15.3056 55.1199C13.6657 54.9859 12.2253 54.7028 10.8926 54.0238C8.77578 52.9452 7.05475 51.2242 5.97618 49.1074C5.29716 47.7747 5.01408 46.3343 4.88009 44.6944C4.74996 43.1017 4.74998 41.1348 4.75 38.6963V21.3037C4.74998 18.8652 4.74996 16.8983 4.88009 15.3056C5.01408 13.6657 5.29716 12.2253 5.97618 10.8926C7.05475 8.77578 8.77578 7.05475 10.8926 5.97618C12.2253 5.29716 13.6657 5.01408 15.3056 4.88009C16.8983 4.74996 18.8652 4.74998 21.3037 4.75ZM15.672 9.36515C14.3104 9.4764 13.5281 9.68379 12.9356 9.98571C11.6655 10.6329 10.6329 11.6655 9.98571 12.9356C9.68379 13.5281 9.4764 14.3104 9.36515 15.672C9.25175 17.0599 9.25 18.8426 9.25 21.4V38.6C9.25 41.1574 9.25175 42.9401 9.36515 44.328C9.4764 45.6896 9.68379 46.4719 9.98571 47.0644C10.6329 48.3345 11.6655 49.3671 12.9356 50.0143C13.5281 50.3162 14.3104 50.5236 15.672 50.6349C17.0599 50.7482 18.8426 50.75 21.4 50.75H38.6C41.1574 50.75 42.9401 50.7482 44.328 50.6349C45.6896 50.5236 46.4719 50.3162 47.0644 50.0143C48.3345 49.3671 49.3671 48.3345 50.0143 47.0644C50.3162 46.4719 50.5236 45.6896 50.6349 44.328C50.7482 42.9401 50.75 41.1574 50.75 38.6V21.4C50.75 18.8426 50.7482 17.0599 50.6349 15.672C50.5236 14.3104 50.3162 13.5281 50.0143 12.9356C49.3671 11.6655 48.3345 10.6329 47.0644 9.98571C46.4719 9.68379 45.6896 9.4764 44.328 9.36515C42.9401 9.25175 41.1574 9.25 38.6 9.25H21.4C18.8426 9.25 17.0599 9.25175 15.672 9.36515Z"
  />
</svg>
