<svg
  width="60"
  height="60"
  viewBox="0 0 60 60"
  fill="currentColor"
  xmlns="http://www.w3.org/2000/svg"
>
  <path
    d="M30.0626 2.5H29.9374C14.7841 2.5 2.5 14.7841 2.5 29.9374V30.0626C2.5 45.2159 14.7841 57.5 29.9374 57.5H30.0626C45.2159 57.5 57.5 45.2159 57.5 30.0626V29.9374C57.5 14.7841 45.2159 2.5 30.0626 2.5Z"
    fill="#00E510"
  />
  <path
    d="M35.3596 38.0439C28.3205 38.0439 22.5937 32.3152 22.5918 25.2762C22.5937 23.4919 24.0466 22.0409 25.8271 22.0409C26.0102 22.0409 26.1913 22.0563 26.3647 22.0871C26.7462 22.1507 27.1085 22.2798 27.4419 22.4744C27.49 22.5034 27.5228 22.5496 27.5305 22.6036L28.2743 27.2917C28.2839 27.3476 28.2666 27.4016 28.23 27.442C27.8195 27.8968 27.2954 28.2244 26.7115 28.3882L26.4302 28.4672L26.5362 28.7389C27.4958 31.1822 29.4497 33.1342 31.895 34.0976L32.1667 34.2055L32.2456 33.9242C32.4094 33.3403 32.737 32.8162 33.1918 32.4058C33.2245 32.375 33.2688 32.3595 33.3132 32.3595C33.3228 32.3595 33.3324 32.3595 33.344 32.3615L38.0322 33.1053C38.0881 33.1149 38.1343 33.1457 38.1632 33.1939C38.3559 33.5272 38.485 33.8914 38.5505 34.273C38.5814 34.4425 38.5949 34.6217 38.5949 34.8086C38.5949 36.591 37.1439 38.042 35.3596 38.0439Z"
    fill="white"
  />
  <path
    d="M47.8423 28.4556C47.4627 24.1663 45.4972 20.1872 42.3082 17.2525C39.0998 14.3005 34.9377 12.6741 30.5848 12.6741C21.0311 12.6741 13.258 20.4473 13.258 30.001C13.258 33.2074 14.1424 36.3309 15.8169 39.0517L12.0825 47.3182L24.039 46.0445C26.1182 46.8962 28.3187 47.3278 30.5829 47.3278C31.1783 47.3278 31.7891 47.297 32.4019 47.2334C32.9414 47.1756 33.4867 47.0908 34.0224 46.9829C42.023 45.3662 47.8635 38.2655 47.9097 30.0935V30.001C47.9097 29.4807 47.8866 28.9604 47.8403 28.4556H47.8423ZM24.4996 42.4161L17.8845 43.1214L19.8596 38.7453L19.4646 38.2154C19.4356 38.1769 19.4067 38.1383 19.374 38.094C17.659 35.7258 16.7534 32.928 16.7534 30.0029C16.7534 22.3762 22.958 16.1715 30.5848 16.1715C37.7298 16.1715 43.7861 21.7461 44.37 28.8622C44.4008 29.2437 44.4181 29.6272 44.4181 30.0048C44.4181 30.1127 44.4162 30.2187 44.4143 30.3324C44.2678 36.7124 39.8109 42.1309 33.5754 43.5106C33.0994 43.6166 32.6119 43.6975 32.1263 43.7495C31.6215 43.8073 31.1031 43.8362 30.5886 43.8362C28.7561 43.8362 26.9757 43.4817 25.2935 42.7803C25.1066 42.7051 24.9235 42.6242 24.752 42.5414L24.5015 42.42L24.4996 42.4161Z"
    fill="white"
  />
</svg>
