<svg
  width="60"
  height="60"
  viewBox="0 0 60 60"
  fill="currentColor"
  xmlns="http://www.w3.org/2000/svg"
>
  <path
    fill-rule="evenodd"
    clip-rule="evenodd"
    d="M21 7.49992H10C8.61929 7.49992 7.5 8.61921 7.5 9.99992V20.9999C7.5 22.3806 8.61929 23.4999 10 23.4999H21C22.3807 23.4999 23.5 22.3806 23.5 20.9999V9.99992C23.5 8.61921 22.3807 7.49992 21 7.49992ZM10 2.99992C6.13401 2.99992 3 6.13393 3 9.99992V20.9999C3 24.8659 6.13401 27.9999 10 27.9999H21C24.866 27.9999 28 24.8659 28 20.9999V9.99992C28 6.13393 24.866 2.99992 21 2.99992H10Z"
  />
  <path
    fill-rule="evenodd"
    clip-rule="evenodd"
    d="M21 36.4999H10C8.61929 36.4999 7.5 37.6192 7.5 38.9999V49.9999C7.5 51.3806 8.61929 52.4999 10 52.4999H21C22.3807 52.4999 23.5 51.3806 23.5 49.9999V38.9999C23.5 37.6192 22.3807 36.4999 21 36.4999ZM10 31.9999C6.13401 31.9999 3 35.1339 3 38.9999V49.9999C3 53.8659 6.13401 56.9999 10 56.9999H21C24.866 56.9999 28 53.8659 28 49.9999V38.9999C28 35.1339 24.866 31.9999 21 31.9999H10Z"
  />
  <path
    fill-rule="evenodd"
    clip-rule="evenodd"
    d="M50 36.4999H39C37.6193 36.4999 36.5 37.6192 36.5 38.9999V49.9999C36.5 51.3806 37.6193 52.4999 39 52.4999H50C51.3807 52.4999 52.5 51.3806 52.5 49.9999V38.9999C52.5 37.6192 51.3807 36.4999 50 36.4999ZM39 31.9999C35.134 31.9999 32 35.1339 32 38.9999V49.9999C32 53.8659 35.134 56.9999 39 56.9999H50C53.866 56.9999 57 53.8659 57 49.9999V38.9999C57 35.1339 53.866 31.9999 50 31.9999H39Z"
  />
  <path
    fill-rule="evenodd"
    clip-rule="evenodd"
    d="M42.2322 8.13164L36.1317 14.2322C35.1554 15.2085 35.1554 16.7914 36.1317 17.7677L42.2322 23.8682C43.2085 24.8445 44.7915 24.8445 45.7678 23.8682L51.8683 17.7677C52.8446 16.7914 52.8446 15.2085 51.8683 14.2322L45.7678 8.13165C44.7915 7.15533 43.2085 7.15534 42.2322 8.13164ZM32.9497 11.0502C30.2161 13.7838 30.2161 18.216 32.9497 20.9497L39.0503 27.0502C41.7839 29.7838 46.2161 29.7838 48.9497 27.0502L55.0503 20.9497C57.7839 18.216 57.7839 13.7838 55.0503 11.0502L48.9497 4.94967C46.2161 2.216 41.7839 2.21599 39.0503 4.94966L32.9497 11.0502Z"
  />
</svg>
