<svg
  width="60"
  height="60"
  viewBox="0 0 60 60"
  fill="currentColor"
  xmlns="http://www.w3.org/2000/svg"
>
  <path
    fill-rule="evenodd"
    clip-rule="evenodd"
    d="M21 7.5H10C8.61929 7.5 7.5 8.61929 7.5 10V21C7.5 22.3807 8.61929 23.5 10 23.5H21C22.3807 23.5 23.5 22.3807 23.5 21V10C23.5 8.61929 22.3807 7.5 21 7.5ZM10 3C6.13401 3 3 6.13401 3 10V21C3 24.866 6.13401 28 10 28H21C24.866 28 28 24.866 28 21V10C28 6.13401 24.866 3 21 3H10Z"
  />
  <path
    fill-rule="evenodd"
    clip-rule="evenodd"
    d="M50 7.5H39C37.6193 7.5 36.5 8.61929 36.5 10V21C36.5 22.3807 37.6193 23.5 39 23.5H50C51.3807 23.5 52.5 22.3807 52.5 21V10C52.5 8.61929 51.3807 7.5 50 7.5ZM39 3C35.134 3 32 6.13401 32 10V21C32 24.866 35.134 28 39 28H50C53.866 28 57 24.866 57 21V10C57 6.13401 53.866 3 50 3H39Z"
  />
  <path
    fill-rule="evenodd"
    clip-rule="evenodd"
    d="M21 36.5H10C8.61929 36.5 7.5 37.6193 7.5 39V50C7.5 51.3807 8.61929 52.5 10 52.5H21C22.3807 52.5 23.5 51.3807 23.5 50V39C23.5 37.6193 22.3807 36.5 21 36.5ZM10 32C6.13401 32 3 35.134 3 39V50C3 53.866 6.13401 57 10 57H21C24.866 57 28 53.866 28 50V39C28 35.134 24.866 32 21 32H10Z"
  />
  <path
    fill-rule="evenodd"
    clip-rule="evenodd"
    d="M50 36.5H39C37.6193 36.5 36.5 37.6193 36.5 39V50C36.5 51.3807 37.6193 52.5 39 52.5H50C51.3807 52.5 52.5 51.3807 52.5 50V39C52.5 37.6193 51.3807 36.5 50 36.5ZM39 32C35.134 32 32 35.134 32 39V50C32 53.866 35.134 57 39 57H50C53.866 57 57 53.866 57 50V39C57 35.134 53.866 32 50 32H39Z"
  />
</svg>
