<svg
  width="60"
  height="60"
  viewBox="0 0 60 60"
  fill="currentColor"
  xmlns="http://www.w3.org/2000/svg"
>
  <path
    fill-rule="evenodd"
    clip-rule="evenodd"
    d="M14.6965 39.9361C12.3396 37.4696 12.4285 33.5595 14.8949 31.2026C19.1389 27.1473 24.3918 24.864 29.924 24.864C35.4563 24.864 40.7092 27.1473 44.9531 31.2026C47.4196 33.5595 47.5084 37.4696 45.1516 39.9361C42.7947 42.4025 38.8846 42.4914 36.4181 40.1345C34.2066 38.0213 31.9268 37.2182 29.924 37.2182C27.9213 37.2182 25.6414 38.0213 23.4299 40.1345C20.9634 42.4914 17.0533 42.4025 14.6965 39.9361ZM18.0038 34.4561C17.3342 35.096 17.31 36.1576 17.9499 36.8272C18.5898 37.4968 19.6514 37.521 20.321 36.8811C23.2746 34.0588 26.6378 32.7182 29.924 32.7182C33.2102 32.7182 36.5734 34.0588 39.527 36.8811C40.1967 37.521 41.2582 37.4968 41.8981 36.8272C42.538 36.1576 42.5139 35.096 41.8442 34.4561C38.3393 31.107 34.1691 29.364 29.924 29.364C25.679 29.364 21.5087 31.107 18.0038 34.4561Z"
  />
  <path
    fill-rule="evenodd"
    clip-rule="evenodd"
    d="M14.6791 10.1067C24.4157 5.47643 35.3727 5.42655 45.1767 10.1113C48.9548 11.9147 52.5219 14.3874 55.7563 17.5378C58.2001 19.9181 58.2516 23.8289 55.8712 26.2727C53.4909 28.7165 49.5801 28.768 47.1363 26.3876C44.8469 24.1577 42.3883 22.4695 39.8536 21.2598L39.8514 21.2588C33.4426 18.1961 26.393 18.2174 19.9886 21.2617C17.4554 22.4713 14.9981 24.1589 12.7099 26.3876C10.2661 28.768 6.3553 28.7165 3.97496 26.2727C1.59461 23.8289 1.64607 19.9181 4.08989 17.5378C7.32476 14.3869 10.8925 11.914 14.6713 10.1105L14.6791 10.1067ZM16.6132 14.1699L16.6117 14.1706L16.6097 14.1716C13.2841 15.7588 10.1202 17.9459 7.22973 20.7613C6.56624 21.4076 6.55227 22.4694 7.19853 23.1329C7.84479 23.7964 8.90655 23.8103 9.57005 23.1641C12.2031 20.5994 15.0648 18.6258 18.0518 17.1999L18.055 17.1983C25.6731 13.5764 34.1454 13.5448 41.7905 17.198M41.7918 17.1986C44.7795 18.6246 47.6425 20.5988 50.2761 23.1641C50.9396 23.8103 52.0014 23.7964 52.6477 23.1329C53.2939 22.4694 53.2799 21.4076 52.6165 20.7613C49.7264 17.9464 46.5632 15.7595 43.2382 14.1724C34.6709 10.0783 25.1364 10.1172 16.6132 14.1699"
  />
  <path
    fill-rule="evenodd"
    clip-rule="evenodd"
    d="M30 55.25C26.5605 55.25 23.75 52.4744 23.75 49.0232V48.9769C23.75 45.5256 26.5605 42.75 30 42.75C33.4395 42.75 36.25 45.5256 36.25 48.9769V49.0232C36.25 52.4744 33.4395 55.25 30 55.25ZM28.25 49.0232C28.25 49.9646 29.0212 50.75 30 50.75C30.9788 50.75 31.75 49.9646 31.75 49.0232V48.9769C31.75 48.0355 30.9788 47.25 30 47.25C29.0212 47.25 28.25 48.0355 28.25 48.9769V49.0232Z"
  />
</svg>
