<svg
  width="60"
  height="60"
  viewBox="0 0 60 60"
  fill="currentColor"
  xmlns="http://www.w3.org/2000/svg"
>
  <path
    fill-rule="evenodd"
    clip-rule="evenodd"
    d="M14.8514 5.1187C15.6236 3.62732 17.154 2.75 18.7716 2.75H41.7086C43.3261 2.75 44.8565 3.62723 45.6288 5.1185C46.6559 7.10176 48.8395 11.533 49.6545 15.0472C49.672 15.1228 49.6894 15.198 49.7068 15.2728C50.7613 19.8166 51.5536 23.2308 50.1932 28.3551C49.63 30.4767 49.0151 32.378 48.0419 34.1313C47.0498 35.9186 45.7379 37.4611 43.8815 38.9688C41.4776 40.9212 37.9138 41.8248 35.2932 42.276C34.2511 42.4554 33.2861 42.5744 32.4903 42.6531V52.75H40.2404C41.483 52.75 42.4904 53.7574 42.4904 55C42.4904 56.2426 41.483 57.25 40.2404 57.25H20.2405C18.9978 57.25 17.9905 56.2426 17.9905 55C17.9905 53.7574 18.9978 52.75 20.2405 52.75H27.9903V42.653C27.1946 42.5743 26.2297 42.4553 25.1877 42.2759C22.5673 41.8247 19.0038 40.921 16.6 38.9688C14.8028 37.5091 13.383 36.0099 12.3217 34.218C11.2581 32.4223 10.6259 30.4533 10.2432 28.146C9.37942 22.9385 9.69809 19.9131 10.8263 15.0474C11.6411 11.5332 13.8244 7.10201 14.8514 5.1187ZM30.4946 38.2932C30.3865 38.2986 30.5476 38.2912 30.4946 38.2932C30.7108 38.2822 31.0301 38.2631 31.4276 38.2308C32.2252 38.1659 33.324 38.0488 34.5297 37.8412C37.0604 37.4055 39.6079 36.6425 41.0445 35.4757C42.5097 34.2857 43.4266 33.1739 44.1074 31.9473C44.8071 30.6867 45.3092 29.2147 45.8439 27.2005C46.913 23.1731 46.3496 20.7156 45.2708 16.0639C44.6065 13.1994 42.7147 9.28215 41.665 7.25H18.8153C17.7657 9.2822 15.8742 13.1994 15.21 16.0638C14.1798 20.5071 13.938 22.9211 14.6825 27.4096C15 29.3237 15.4848 30.7281 16.1936 31.9248C16.9047 33.1254 17.9127 34.2377 19.437 35.4757C20.8735 36.6424 23.4209 37.4054 25.9513 37.8411C27.1569 38.0487 28.2557 38.1659 29.0532 38.2308C29.4506 38.2631 29.7699 38.2822 29.9862 38.2931C30.0942 38.2986 30.4415 38.2912 30.4946 38.2932Z"
  />
  <path
    fill-rule="evenodd"
    clip-rule="evenodd"
    d="M29.604 25.2131C25.655 24.0848 22.5803 23.2749 19.0061 25.0621C17.8947 25.6178 16.5431 25.1673 15.9874 24.0558C15.4317 22.9444 15.8822 21.5929 16.9936 21.0371C22.224 18.422 26.8621 19.7485 30.6574 20.8339C30.7185 20.8514 30.7795 20.8689 30.8402 20.8862C34.7892 22.0145 37.8638 22.8243 41.4381 21.0371C42.5495 20.4814 43.9011 20.9319 44.4568 22.0433C45.0125 23.1548 44.562 24.5063 43.4506 25.062C38.2202 27.6773 33.5821 26.3508 29.7868 25.2653C29.7256 25.2478 29.6647 25.2304 29.604 25.2131Z"
  />
</svg>
