<svg
  width="60"
  height="60"
  viewBox="0 0 60 60"
  fill="currentColor"
  xmlns="http://www.w3.org/2000/svg"
>
  <path
    fill-rule="evenodd"
    clip-rule="evenodd"
    d="M23.1 9.79993C21.723 9.79993 20.4882 10.3956 19.6335 11.3505C18.8048 12.2764 17.3823 12.3552 16.4564 11.5265C15.5305 10.6977 15.4517 9.2753 16.2804 8.34937C17.9526 6.48103 20.3899 5.29993 23.1 5.29993C28.1534 5.29993 32.25 9.39652 32.25 14.4499C32.25 19.5033 28.1534 23.5999 23.1 23.5999H7C5.75736 23.5999 4.75 22.5926 4.75 21.3499C4.75 20.1073 5.75736 19.0999 7 19.0999H23.1C25.6681 19.0999 27.75 17.018 27.75 14.4499C27.75 11.8818 25.6681 9.79993 23.1 9.79993ZM46.1 18.5499C44.723 18.5499 43.4882 19.1456 42.6335 20.1005C41.8048 21.0264 40.3823 21.1052 39.4564 20.2765C38.5305 19.4477 38.4517 18.0253 39.2804 17.0994C40.9526 15.231 43.3899 14.0499 46.1 14.0499C51.1534 14.0499 55.25 18.1465 55.25 23.1999C55.25 28.2533 51.1534 32.3499 46.1 32.3499H32.3C31.0573 32.3499 30.05 31.3425 30.05 30.0999C30.05 28.8573 31.0573 27.8499 32.3 27.8499H46.1C48.6681 27.8499 50.75 25.768 50.75 23.1999C50.75 20.6318 48.6681 18.5499 46.1 18.5499ZM4.75 39.1499C4.75 37.9073 5.75736 36.8999 7 36.8999H32.3C37.3534 36.8999 41.45 40.9965 41.45 46.0499C41.45 51.1033 37.3534 55.1999 32.3 55.1999C29.5898 55.1999 27.1526 54.0188 25.4804 52.1504C24.6516 51.2245 24.7304 49.8021 25.6564 48.9733C26.5823 48.1446 28.0048 48.2234 28.8335 49.1493C29.6882 50.1042 30.923 50.6999 32.3 50.6999C34.8681 50.6999 36.95 48.618 36.95 46.0499C36.95 43.4818 34.8681 41.3999 32.3 41.3999H7C5.75736 41.3999 4.75 40.3925 4.75 39.1499Z"
  />
</svg>
