<svg
  width="60"
  height="60"
  viewBox="0 0 60 60"
  fill="currentColor"
  xmlns="http://www.w3.org/2000/svg"
>
  <path
    fill-rule="evenodd"
    clip-rule="evenodd"
    d="M50.6144 16.5467C45.9247 14.5076 40.6664 14.1863 35.7632 15.6391L23.5479 19.2584C18.9622 20.6172 14.0924 20.6972 9.46451 19.4899L4.43211 18.1771C3.22971 17.8635 2.50925 16.6344 2.82292 15.432C3.13659 14.2296 4.36561 13.5092 5.56801 13.8228L10.6004 15.1356C14.4349 16.136 18.4699 16.0696 22.2695 14.9438L34.4848 11.3245C40.4024 9.57111 46.7486 9.95894 52.4087 12.4198L55.8972 13.9366C57.0368 14.4321 57.5589 15.7575 57.0635 16.8971C56.568 18.0367 55.2425 18.5589 54.1029 18.0634L50.6144 16.5467Z"
  />
  <path
    fill-rule="evenodd"
    clip-rule="evenodd"
    d="M50.6144 46.5467C45.9247 44.5076 40.6664 44.1863 35.7632 45.6391L23.5479 49.2584C18.9622 50.6172 14.0924 50.6972 9.46451 49.4899L4.43211 48.1771C3.22971 47.8635 2.50925 46.6344 2.82292 45.432C3.13659 44.2296 4.36561 43.5092 5.56801 43.8228L10.6004 45.1356C14.4349 46.136 18.4699 46.0696 22.2695 44.9438L34.4848 41.3245C40.4024 39.5711 46.7486 39.9589 52.4087 42.4198L55.8972 43.9366C57.0368 44.432 57.5589 45.7575 57.0635 46.8971C56.568 48.0367 55.2425 48.5589 54.1029 48.0634L50.6144 46.5467Z"
  />
  <path
    fill-rule="evenodd"
    clip-rule="evenodd"
    d="M50.6144 31.5467C45.9247 29.5076 40.6664 29.1863 35.7632 30.6391L23.5479 34.2584C18.9622 35.6172 14.0924 35.6972 9.46451 34.4899L4.43211 33.1771C3.22971 32.8635 2.50925 31.6344 2.82292 30.432C3.13659 29.2296 4.36561 28.5092 5.56801 28.8228L10.6004 30.1356C14.4349 31.136 18.4699 31.0696 22.2695 29.9438L34.4848 26.3245C40.4024 24.5711 46.7486 24.9589 52.4087 27.4198L55.8972 28.9366C57.0368 29.4321 57.5589 30.7575 57.0635 31.8971C56.568 33.0367 55.2425 33.5589 54.1029 33.0634L50.6144 31.5467Z"
  />
</svg>
