<svg
  width="60"
  height="60"
  viewBox="0 0 60 60"
  fill="currentColor"
  xmlns="http://www.w3.org/2000/svg"
>
  <path
    d="M19.1179 25.2857C22.5955 23.5469 25.5796 24.3232 29.5353 25.4534L29.7339 25.5102C33.5229 26.5941 38.2443 27.9447 43.5624 25.2857C44.7973 24.6682 45.2979 23.1665 44.6804 21.9315C44.0629 20.6966 42.5612 20.1961 41.3263 20.8135C37.8487 22.5524 34.8646 21.776 30.9089 20.6458L30.7103 20.589C26.9212 19.5051 22.1998 18.1545 16.8818 20.8135C15.6469 21.431 15.1463 22.9327 15.7638 24.1676C16.3813 25.4026 17.8829 25.9031 19.1179 25.2857Z"
  />
  <path
    fill-rule="evenodd"
    clip-rule="evenodd"
    d="M18.7716 2.5C17.0641 2.5 15.4461 3.42637 14.6293 5.00374C13.6032 6.98537 11.4055 11.4422 10.5827 14.9909C9.44909 19.8801 9.12616 22.9394 9.99652 28.1869C10.3829 30.5161 11.0233 32.5164 12.1066 34.3454C13.1874 36.1702 14.63 37.6909 16.4424 39.1629C18.8999 41.1587 22.5199 42.0702 25.1453 42.5223C26.0976 42.6862 26.9857 42.8 27.7403 42.8789V52.5H20.2405C18.8598 52.5 17.7405 53.6193 17.7405 55C17.7405 56.3807 18.8598 57.5 20.2405 57.5H40.2404C41.6211 57.5 42.7404 56.3807 42.7404 55C42.7404 53.6193 41.6211 52.5 40.2404 52.5H32.7403V42.8789C33.495 42.8001 34.3832 42.6863 35.3356 42.5224C37.9612 42.0703 41.5815 41.1589 44.0391 39.1628C45.9172 37.6375 47.2511 36.0711 48.2605 34.2526C49.2488 32.472 49.87 30.5468 50.4349 28.4193C51.8113 23.2346 51.0067 19.7678 49.9529 15.2274L49.898 14.9908C49.075 11.442 46.877 6.98511 45.8508 5.00353C45.0339 3.42628 43.4161 2.5 41.7086 2.5H18.7716ZM30.242 38.0542L30.2403 38.0542L30.2387 38.0542C30.1867 38.0522 30.1057 38.0489 29.9988 38.0435C29.7848 38.0327 29.4681 38.0137 29.0735 37.9816C28.2813 37.9171 27.1902 37.8008 25.9937 37.5948C23.4683 37.1599 20.9774 36.4047 19.5946 35.2817C18.0854 34.0559 17.1003 32.9651 16.4087 31.7974C15.7196 30.634 15.243 29.261 14.9291 27.3687C14.1913 22.9202 14.4287 20.5401 15.4535 16.1203C16.0955 13.3514 17.9062 9.56676 18.9677 7.5H41.5125C42.5742 9.56672 44.3851 13.3514 45.0273 16.1204C46.106 20.7717 46.654 23.1746 45.6022 27.1363C45.0691 29.1446 44.5733 30.5928 43.8888 31.826C43.2253 33.0214 42.3303 34.1093 40.8869 35.2817C39.504 36.4048 37.0129 37.16 34.4873 37.5949C33.2907 37.8009 32.1995 37.9172 31.4073 37.9816C31.0127 38.0137 30.696 38.0327 30.4819 38.0435C30.375 38.0489 30.294 38.0522 30.242 38.0542Z"
  />
</svg>
