<svg
  width="60"
  height="60"
  viewBox="0 0 60 60"
  fill="currentColor"
  xmlns="http://www.w3.org/2000/svg"
>
  <path
    d="M0 18.7826C0 12.2081 0 8.92081 1.27949 6.40968C2.40496 4.20082 4.20082 2.40496 6.40968 1.27949C8.92081 0 12.2081 0 18.7826 0H41.2174C47.7919 0 51.0792 0 53.5903 1.27949C55.7992 2.40496 57.595 4.20082 58.7205 6.40968C60 8.92081 60 12.2081 60 18.7826V41.2174C60 47.7919 60 51.0792 58.7205 53.5903C57.595 55.7992 55.7992 57.595 53.5903 58.7205C51.0792 60 47.7919 60 41.2174 60H18.7826C12.2081 60 8.92081 60 6.40968 58.7205C4.20082 57.595 2.40496 55.7992 1.27949 53.5903C0 51.0792 0 47.7919 0 41.2174V18.7826Z"
    fill="#7A59FF"
    fill-opacity="0.08"
  />
  <path
    fill-rule="evenodd"
    clip-rule="evenodd"
    d="M11.6079 16.1968C12.9368 15.6528 14.4608 16.2753 15.0118 17.5872L22.2061 34.7152L27.5941 21.8885C27.9975 20.9281 28.9471 20.302 30.0004 20.302C31.0536 20.302 32.0032 20.9281 32.4066 21.8885L37.7939 34.715L44.9882 17.5872C45.5392 16.2753 47.0632 15.6528 48.3921 16.1968C49.7211 16.7407 50.3517 18.2451 49.8007 19.5569L40.2001 42.4135C39.7966 43.3739 38.847 44 37.7938 44C36.7405 44 35.7909 43.3739 35.3875 42.4135L30.0002 29.5869L24.6123 42.4135C24.2089 43.3739 23.2593 44 22.2061 44C21.1528 44 20.2032 43.3739 19.7998 42.4135L10.1993 19.5569C9.64831 18.2451 10.2789 16.7407 11.6079 16.1968Z"
    fill="#6128FF"
  />
</svg>
