<svg
  width="60"
  height="60"
  viewBox="0 0 60 60"
  fill="currentColor"
  xmlns="http://www.w3.org/2000/svg"
>
  <path
    d="M5 20.6522C5 15.1734 5 12.434 6.06624 10.3414C7.00413 8.50068 8.50068 7.00413 10.3414 6.06624C12.434 5 15.1734 5 20.6522 5H39.3478C44.8266 5 47.566 5 49.6586 6.06624C51.4993 7.00413 52.9959 8.50068 53.9338 10.3414C55 12.434 55 15.1734 55 20.6522V39.3478C55 44.8266 55 47.566 53.9338 49.6586C52.9959 51.4993 51.4993 52.9959 49.6586 53.9338C47.566 55 44.8266 55 39.3478 55H20.6522C15.1734 55 12.434 55 10.3414 53.9338C8.50068 52.9959 7.00413 51.4993 6.06624 49.6586C5 47.566 5 44.8266 5 39.3478V20.6522Z"
    fill="#6A3FFF"
  />
  <path
    fill-rule="evenodd"
    clip-rule="evenodd"
    d="M14.1134 17.9217C15.2613 17.4457 16.5777 17.9904 17.0536 19.1383L23.2678 34.1257L27.9217 22.902C28.2702 22.0617 29.0904 21.5138 30.0001 21.5139C30.9099 21.5139 31.7301 22.0617 32.0785 22.9021L36.7319 34.1255L42.946 19.1383C43.422 17.9904 44.7384 17.4457 45.8862 17.9217C47.0341 18.3976 47.5788 19.714 47.1029 20.8619L38.8102 40.8619C38.4618 41.7023 37.6416 42.2501 36.7318 42.2501C35.822 42.2501 35.0018 41.7022 34.6534 40.8618L30 29.6383L25.3462 40.8619C24.9977 41.7023 24.1775 42.2501 23.2677 42.2501C22.358 42.2501 21.5378 41.7022 21.1893 40.8619L12.8968 20.8619C12.4208 19.714 12.9655 18.3976 14.1134 17.9217Z"
    fill="white"
  />
</svg>
