<svg
  width="60"
  height="60"
  viewBox="0 0 60 60"
  fill="currentColor"
  xmlns="http://www.w3.org/2000/svg"
>
  <path
    fill-rule="evenodd"
    clip-rule="evenodd"
    d="M21.3029 4.75L30 4.75C31.2426 4.75 32.25 5.75736 32.25 7C32.25 8.24264 31.2426 9.25 30 9.25H21.3992C18.8421 9.25 17.0596 9.25175 15.6719 9.36515C14.3104 9.47639 13.5281 9.68378 12.9356 9.98571C11.6655 10.6329 10.6329 11.6655 9.98571 12.9356C9.68379 13.5281 9.4764 14.3104 9.36515 15.672C9.25175 17.0599 9.25 18.8426 9.25 21.4V38.6C9.25 41.1574 9.25175 42.9401 9.36515 44.328C9.4764 45.6896 9.68379 46.4719 9.98571 47.0644C10.6329 48.3345 11.6655 49.3671 12.9356 50.0143C13.5281 50.3162 14.3104 50.5236 15.672 50.6349C17.0599 50.7482 18.8426 50.75 21.4 50.75H38.6C41.1574 50.75 42.9401 50.7482 44.328 50.6349C45.6896 50.5236 46.4719 50.3162 47.0644 50.0143C48.3345 49.3671 49.3671 48.3345 50.0143 47.0644C50.3162 46.4719 50.5236 45.6896 50.6349 44.328C50.7482 42.9401 50.75 41.1574 50.75 38.6V30C50.75 28.7574 51.7574 27.75 53 27.75C54.2426 27.75 55.25 28.7574 55.25 30V38.6964C55.25 41.1349 55.25 43.1017 55.1199 44.6944C54.9859 46.3343 54.7028 47.7747 54.0238 49.1074C52.9452 51.2242 51.2242 52.9452 49.1074 54.0238C47.7747 54.7028 46.3343 54.9859 44.6944 55.1199C43.1017 55.25 41.1349 55.25 38.6964 55.25H21.3036C18.8651 55.25 16.8983 55.25 15.3056 55.1199C13.6657 54.9859 12.2253 54.7028 10.8926 54.0238C8.77578 52.9452 7.05475 51.2242 5.97618 49.1074C5.29716 47.7747 5.01408 46.3343 4.88009 44.6944C4.74996 43.1017 4.74998 41.1348 4.75 38.6963V21.3037C4.74998 18.8652 4.74996 16.8983 4.88009 15.3056C5.01408 13.6657 5.29716 12.2253 5.97618 10.8926C7.05475 8.77578 8.77578 7.05475 10.8926 5.97618C12.2252 5.29717 13.6656 5.01408 15.3054 4.88009C16.898 4.74996 18.8647 4.74998 21.3029 4.75Z"
  />
  <path
    fill-rule="evenodd"
    clip-rule="evenodd"
    d="M18.409 41.591C17.5303 40.7123 17.5303 39.2877 18.409 38.409L49.409 7.40901C50.2877 6.53033 51.7123 6.53033 52.591 7.40901C53.4697 8.28769 53.4697 9.71231 52.591 10.591L21.591 41.591C20.7123 42.4697 19.2877 42.4697 18.409 41.591Z"
  />
</svg>
