<svg
  width="60"
  height="60"
  viewBox="0 0 60 60"
  fill="currentColor"
  xmlns="http://www.w3.org/2000/svg"
>
  <path
    d="M8.47264 53.775C7.56099 53.3521 6.82871 52.6198 6.40579 51.7082C6.0906 51.0287 6.04122 50.359 6.04406 49.8276C6.04667 49.3376 6.10031 48.7584 6.15511 48.1667L8.3576 24.3494C8.49307 22.884 8.60661 21.6559 8.77916 20.6536C8.95978 19.6045 9.23076 18.628 9.77293 17.7148C10.6094 16.306 11.8463 15.1782 13.3262 14.475C14.2854 14.0192 15.2827 13.8393 16.344 13.7561C17.3579 13.6765 18.5912 13.6766 20.0628 13.6766H23.1059C23.2098 13.8779 23.3462 14.0669 23.515 14.2357L46.5042 37.2249L46.5042 40.1179C46.5042 41.5895 46.5043 42.8229 46.4247 43.8368C46.3415 44.8982 46.1616 45.8954 45.7058 46.8547C45.0027 48.3345 43.8748 49.5715 42.466 50.4079C41.5528 50.9501 40.5763 51.221 39.5272 51.4017C38.525 51.5742 37.2968 51.6878 35.8315 51.8232L12.0139 54.0257C11.4223 54.0805 10.8431 54.1342 10.3532 54.1368C9.82185 54.1396 9.15209 54.0902 8.47264 53.775Z"
  />
  <path
    d="M48.1752 32.532C49.8735 31.5882 51.2783 30.8017 52.3577 30.0696C53.5205 29.2808 54.537 28.4073 55.2041 27.2118C56.2067 25.4151 56.5017 23.3086 56.0313 21.3056C55.7183 19.9728 54.9809 18.8536 54.0795 17.7758C53.2022 16.7268 51.9973 15.522 50.5328 14.0575L46.0625 9.58714C44.598 8.12262 43.3932 6.91774 42.3442 6.04047C41.2663 5.13905 40.1472 4.40165 38.8144 4.08865C36.8114 3.61824 34.7049 3.91327 32.9082 4.91584C31.7127 5.58295 30.8392 6.59943 30.0504 7.76228C29.3183 8.84162 28.5318 10.2464 27.588 11.9447L48.1752 32.532Z"
  />
  <path
    fill-rule="evenodd"
    clip-rule="evenodd"
    d="M18.8245 41.4064C19.7046 42.2836 19.7069 43.7082 18.8297 44.5884L10.182 53.2634C9.30475 54.1435 7.88013 54.1459 7 53.2686C6.11987 52.3914 6.11753 50.9668 6.99476 50.0866L15.6425 41.4116C16.5197 40.5315 17.9443 40.5292 18.8245 41.4064Z"
    fill="white"
  />
</svg>
