<svg
  width="60"
  height="60"
  viewBox="0 0 60 60"
  fill="currentColor"
  xmlns="http://www.w3.org/2000/svg"
>
  <path
    fill-rule="evenodd"
    clip-rule="evenodd"
    d="M52.617 7.38358C49.0046 3.77123 43.1478 3.77123 39.5355 7.38358L7.38456 39.5345C3.77221 43.1469 3.77221 49.0036 7.38456 52.616C10.9969 56.2283 16.8537 56.2283 20.466 52.616L52.617 20.4651C56.2293 16.8527 56.2293 10.9959 52.617 7.38358ZM42.7175 10.5656C44.5725 8.71057 47.58 8.71057 49.435 10.5656C51.29 12.4205 51.29 15.4281 49.435 17.2831L45.9494 20.7687L39.2318 14.0512L42.7175 10.5656ZM36.0499 17.2332L10.5665 42.7165C8.71155 44.5715 8.71155 47.579 10.5665 49.434C12.4215 51.289 15.4291 51.289 17.2841 49.434L42.7674 23.9507L36.0499 17.2332Z"
  />
</svg>
