<svg
  width="60"
  height="60"
  viewBox="0 0 60 60"
  fill="currentColor"
  xmlns="http://www.w3.org/2000/svg"
>
  <path
    fill-rule="evenodd"
    clip-rule="evenodd"
    d="M55.3596 4.64473L55.3079 4.59311C54.667 3.95217 54.1051 3.39019 53.6055 2.95676C53.0765 2.49773 52.492 2.0689 51.7727 1.78389C50.2937 1.19785 48.6469 1.19785 47.168 1.78389C46.4487 2.0689 45.8642 2.49773 45.3352 2.95676C44.8356 3.39019 44.2737 3.95217 43.6328 4.59311L43.5811 4.64473L35.1117 13.1142C30.4571 10.0589 25.4888 8.19405 20.8223 7.75639C15.7497 7.28064 10.8832 8.49262 7.36329 11.9025C0.274851 18.7694 0.961766 29.8227 8.69057 41.224C9.38783 42.2526 10.7869 42.5211 11.8155 41.8239C12.8441 41.1266 13.1127 39.7275 12.4154 38.699C5.1984 28.0527 5.7397 19.7407 10.4944 15.1346C12.8326 12.8695 16.2698 11.8492 20.4021 12.2367C23.9747 12.5718 27.9538 13.96 31.853 16.3729L28.3234 19.9025C25.1448 23.0811 22.9503 27.1091 22.0031 31.5034C21.1662 35.3865 24.6178 38.8381 28.5008 38.0012C32.8952 37.054 36.9232 34.8595 40.1018 31.6809L44.0219 27.7608C46.6664 31.1696 48.8874 35.1635 49.6843 38.2198C50.876 42.7902 50.0604 45.2835 48.2126 46.7513C46.7866 47.8841 44.5788 48.3324 41.7742 47.6603C38.9821 46.9911 35.7984 45.2387 32.8094 42.3156C31.921 41.4468 30.4965 41.4627 29.6276 42.3511C28.7588 43.2396 28.7747 44.6641 29.6631 45.5329C33.1221 48.9156 37.0031 51.1442 40.7254 52.0363C44.4351 52.9254 48.1912 52.5153 51.0117 50.2749C54.8721 47.2082 55.4398 42.4576 54.0387 37.0844C52.9964 33.0869 50.2421 28.3522 47.2619 24.6005C47.2501 24.5857 47.2382 24.571 47.2261 24.5566L55.3596 16.4231L55.4112 16.3715C56.0521 15.7306 56.6141 15.1687 57.0475 14.6691C57.5066 14.1401 57.9354 13.5556 58.2204 12.8363C58.8064 11.3573 58.8064 9.71054 58.2204 8.23156C57.9354 7.51229 57.5066 6.92782 57.0475 6.39875C56.6141 5.89923 56.0522 5.33734 55.4113 4.69651L55.4113 4.69643L55.4112 4.69635L55.3596 4.64473ZM50.115 5.96743C50.1653 5.98736 50.3081 6.05352 50.6565 6.35576C51.021 6.67202 51.4699 7.11903 52.1776 7.82671C52.8853 8.5344 53.3323 8.98327 53.6485 9.34778C53.9508 9.69614 54.0169 9.83898 54.0369 9.88928C54.201 10.3034 54.201 10.7645 54.0369 11.1786C54.0169 11.2289 53.9508 11.3717 53.6485 11.7201C53.3323 12.0846 52.8853 12.5335 52.1776 13.2412L36.9198 28.4989C34.3533 31.0655 31.1009 32.8374 27.5527 33.6022C26.8651 33.7504 26.2539 33.1392 26.4021 32.4516C27.1669 28.9034 28.9388 25.651 31.5054 23.0845L46.7631 7.82671C47.4708 7.11903 47.9197 6.67202 48.2842 6.35576C48.6325 6.05352 48.7754 5.98736 48.8257 5.96743C49.2398 5.80334 49.7009 5.80334 50.115 5.96743ZM23.8697 46.2603C24.0323 45.8681 23.663 45.4646 23.2579 45.5918L19.9131 46.6428C18.7927 46.9949 17.5842 46.9413 16.4993 46.4915L13.2606 45.1487C12.8684 44.9861 12.4649 45.3554 12.5921 45.7605L13.6431 49.1052C13.9952 50.2256 13.9416 51.4342 13.4918 52.5191L12.149 55.7577C11.9864 56.1499 12.3557 56.5535 12.7608 56.4262L16.1056 55.3753C17.226 55.0232 18.4345 55.0768 19.5194 55.5266L22.7581 56.8694C23.1502 57.032 23.5538 56.6626 23.4266 56.2576L22.3756 52.9128C22.0235 51.7924 22.0771 50.5839 22.5269 49.499L23.8697 46.2603Z"
  />
</svg>
