<svg
  width="60"
  height="60"
  viewBox="0 0 60 60"
  fill="currentColor"
  xmlns="http://www.w3.org/2000/svg"
>
  <path
    fill-rule="evenodd"
    clip-rule="evenodd"
    d="M55.3078 4.59262L55.3594 4.64425L55.411 4.69586L55.4111 4.69593L55.4112 4.69604C56.0521 5.33686 56.614 5.89875 57.0474 6.39826C57.5064 6.92733 57.9353 7.5118 58.2203 8.23108C58.8063 9.71006 58.8063 11.3569 58.2203 12.8358C57.9353 13.5551 57.5064 14.1396 57.0474 14.6686C56.614 15.1682 56.052 15.7302 55.411 16.3711L55.3594 16.4227L40.6927 31.0893C37.503 34.2791 33.4455 36.4602 29.0254 37.3612C25.2251 38.1358 21.8678 34.7785 22.6425 30.9783C23.5434 26.5582 25.7246 22.5007 28.9143 19.3109L43.581 4.64425L43.6326 4.59263C44.2735 3.95168 44.8355 3.3897 45.335 2.95627C45.8641 2.49724 46.4486 2.06841 47.1678 1.7834C48.6468 1.19736 50.2936 1.19736 51.7726 1.7834C52.4919 2.06841 53.0763 2.49724 53.6054 2.95627C54.105 3.3897 54.6669 3.95168 55.3078 4.59262ZM50.6564 6.35528C50.308 6.05303 50.1652 5.98687 50.1149 5.96694C49.7008 5.80285 49.2397 5.80285 48.8256 5.96694C48.7753 5.98687 48.6324 6.05303 48.284 6.35528C47.9195 6.67153 47.4707 7.11854 46.763 7.82623L45.6356 8.95362L51.05 14.3681L52.1774 13.2407C52.8851 12.533 53.3321 12.0841 53.6484 11.7196C53.9506 11.3713 54.0168 11.2284 54.0367 11.1781C54.2008 10.764 54.2008 10.3029 54.0367 9.88879C54.0168 9.83849 53.9506 9.69565 53.6484 9.34729C53.3321 8.98278 52.8851 8.53391 52.1774 7.82623C51.4698 7.11854 51.0209 6.67153 50.6564 6.35528ZM47.8681 17.5501L42.4536 12.1356L32.0963 22.4929C29.5308 25.0585 27.7765 28.3219 27.0518 31.877C26.9214 32.517 27.4867 33.0823 28.1266 32.9519C31.6817 32.2272 34.9452 30.4729 37.5108 27.9074L47.8681 17.5501ZM29 9.25001C16.9878 9.25001 7.25 18.9878 7.25 31C7.25 43.0122 16.9878 52.75 29 52.75C41.0122 52.75 50.75 43.0122 50.75 31C50.75 29.7574 51.7574 28.75 53 28.75C54.2426 28.75 55.25 29.7574 55.25 31C55.25 45.4975 43.4975 57.25 29 57.25C14.5025 57.25 2.75 45.4975 2.75 31C2.75 16.5025 14.5025 4.75001 29 4.75001C30.2426 4.75001 31.25 5.75737 31.25 7.00001C31.25 8.24265 30.2426 9.25001 29 9.25001Z"
  />
</svg>
