<svg
  width="60"
  height="60"
  viewBox="0 0 60 60"
  fill="currentColor"
  xmlns="http://www.w3.org/2000/svg"
>
  <path
    fill-rule="evenodd"
    clip-rule="evenodd"
    d="M46.5028 40.1169L46.5028 33.4601L47.9257 32.6695C49.7362 31.6638 51.2256 30.8363 52.3573 30.0687C53.5202 29.2799 54.5367 28.4065 55.2038 27.2109C56.2063 25.4142 56.5014 23.3077 56.031 21.3047C55.7179 19.9719 54.9806 18.8528 54.0791 17.7749C53.202 16.726 51.9972 15.5213 50.5329 14.057L46.0619 9.5861C44.5975 8.12166 43.3928 6.91686 42.3438 6.03962C41.266 5.13819 40.1468 4.4008 38.814 4.08779C36.811 3.61739 34.7045 3.91241 32.9078 4.91499C31.7123 5.5821 30.8388 6.59857 30.05 7.76142C29.2825 8.89309 28.4549 10.3827 27.4492 12.1931L26.6256 13.6756H20.0615C18.5898 13.6756 17.3564 13.6755 16.3425 13.7551C15.2812 13.8383 14.2839 14.0182 13.3247 14.474C11.8449 15.1771 10.6079 16.305 9.77146 17.7138C9.22929 18.627 8.95832 19.6035 8.77769 20.6526C8.60514 21.6549 8.49158 22.8832 8.3561 24.3487L6.15365 48.1657C6.09885 48.7573 6.04521 49.3366 6.04259 49.8266C6.03975 50.358 6.08913 51.0277 6.40433 51.7072C6.82724 52.6188 7.55953 53.3511 8.47117 53.774C9.15063 54.0892 9.82038 54.1386 10.3517 54.1358C10.8418 54.1331 11.421 54.0795 12.0126 54.0247L35.8301 51.8222C37.2954 51.6867 38.5235 51.5732 39.5257 51.4006C40.5749 51.22 41.5514 50.949 42.4645 50.4069C43.8733 49.5704 45.0012 48.3335 45.7043 46.8536C46.1601 45.8944 46.34 44.8971 46.4233 43.8358C46.5028 42.8219 46.5028 41.5885 46.5028 40.1169ZM42.0028 40.0305V32.7236L27.4547 18.1756H20.1478C18.5673 18.1756 17.5114 18.1772 16.6944 18.2413C15.9051 18.3032 15.5188 18.4136 15.256 18.5385C14.5833 18.8581 14.0211 19.3708 13.6409 20.0111C13.4923 20.2613 13.3468 20.6359 13.2124 21.4161C13.0734 22.2237 12.9746 23.275 12.829 24.8488L10.8608 46.1327L16.3652 40.6101C17.2425 39.73 18.6671 39.7276 19.5472 40.6049C20.4273 41.4821 20.4297 42.9067 19.5525 43.7869L14.0394 49.3181L35.3296 47.3493C36.9033 47.2038 37.9546 47.1049 38.7622 46.9659C39.5425 46.8316 39.917 46.686 40.1672 46.5375C40.8076 46.1573 41.3202 45.595 41.6398 44.9224C41.7647 44.6595 41.8752 44.2732 41.9371 43.4839C42.0012 42.6669 42.0028 41.611 42.0028 40.0305ZM44.8651 29.222L45.6486 28.7868C47.5735 27.7174 48.8855 26.9861 49.8313 26.3446C50.7649 25.7113 51.1089 25.3144 51.2741 25.0182C51.7299 24.2015 51.864 23.244 51.6501 22.3335C51.5726 22.0034 51.3509 21.5272 50.6272 20.6618C49.894 19.7851 48.8335 18.7216 47.2764 17.1645L42.9543 12.8424C41.3972 11.2853 40.3336 10.2247 39.457 9.49156C38.5915 8.7678 38.1154 8.54615 37.7852 8.4686C36.8748 8.25478 35.9173 8.38889 35.1006 8.8446C34.8044 9.00987 34.4075 9.3538 33.7742 10.2875C33.1327 11.2332 32.4014 12.5452 31.332 14.4701L30.8967 15.2536L44.8651 29.222Z"
  />
</svg>
