<svg
  width="60"
  height="60"
  viewBox="0 0 60 60"
  fill="currentColor"
  xmlns="http://www.w3.org/2000/svg"
>
  <path
    d="M13.9101 4.00215C13.5548 3.22064 12.4448 3.22064 12.0895 4.00215L9.87438 8.87438L5.00215 11.0895C4.22064 11.4448 4.22064 12.5548 5.00215 12.9101L9.87438 15.1252L12.0895 19.9974C12.4448 20.7789 13.5548 20.7789 13.9101 19.9974L16.1252 15.1252L20.9974 12.9101C21.7789 12.5548 21.7789 11.4448 20.9974 11.0895L16.1252 8.87438L13.9101 4.00215Z"
  />
  <path
    fill-rule="evenodd"
    clip-rule="evenodd"
    d="M39.5354 7.38352C43.1478 3.77117 49.0046 3.77116 52.6169 7.38351C56.2293 10.9959 56.2293 16.8526 52.6169 20.465L20.466 52.6159C16.8536 56.2283 10.9968 56.2283 7.38449 52.6159C3.77214 49.0036 3.77214 43.1468 7.38449 39.5345L39.5354 7.38352ZM49.4349 10.5655C47.5799 8.7105 44.5724 8.7105 42.7174 10.5655L39.2318 14.0511L45.9493 20.7686L49.4349 17.283C51.2899 15.428 51.2899 12.4205 49.4349 10.5655ZM10.5665 42.7164L36.0498 17.2331L42.7673 23.9506L17.284 49.4339C15.429 51.2889 12.4215 51.2889 10.5665 49.4339C8.71148 47.579 8.71148 44.5714 10.5665 42.7164Z"
  />
</svg>
