<svg
  width="60"
  height="60"
  viewBox="0 0 60 60"
  fill="currentColor"
  xmlns="http://www.w3.org/2000/svg"
>
  <path
    fill-rule="evenodd"
    clip-rule="evenodd"
    d="M51.4531 1.9708C51.2735 1.58607 50.7265 1.58607 50.5469 1.97079L49.2233 4.80695C48.7266 5.87116 47.8712 6.72658 46.807 7.22325L43.9708 8.54689C43.5861 8.72644 43.5861 9.2735 43.9708 9.45306L46.807 10.7767C47.8712 11.2734 48.7266 12.1288 49.2233 13.193L50.5469 16.0291C50.7265 16.4139 51.2735 16.4139 51.4531 16.0291L52.7767 13.193C53.2734 12.1288 54.1288 11.2734 55.193 10.7767L58.0292 9.45306C58.4139 9.2735 58.4139 8.72644 58.0292 8.54689L55.193 7.22325C54.1288 6.72658 53.2734 5.87116 52.7767 4.80695L51.4531 1.9708ZM20.4 56.25H20.3037H20.3037H20.3036H20.3036C17.8651 56.25 15.8983 56.25 14.3056 56.1199C12.6657 55.9859 11.2253 55.7028 9.89261 55.0238C7.77578 53.9452 6.05475 52.2242 4.97618 50.1074C4.29716 48.7747 4.01408 47.3343 3.88009 45.6944C3.74996 44.1016 3.74998 42.1348 3.75 39.6963V39.6V23.4V23.3037V23.3036C3.74998 20.8651 3.74996 18.8983 3.88009 17.3056C4.01408 15.6657 4.29716 14.2252 4.97618 12.8926C6.05475 10.7758 7.77578 9.05472 9.89261 7.97615C11.2253 7.29712 12.6657 7.01405 14.3056 6.88006C15.8983 6.74993 17.8651 6.74995 20.3036 6.74997H20.3036H20.4H36.8152C38.0579 6.74997 39.0652 7.75733 39.0652 8.99997C39.0652 10.2426 38.0579 11.25 36.8152 11.25H20.4C17.8426 11.25 16.0599 11.2517 14.672 11.3651C13.3104 11.4764 12.5281 11.6838 11.9356 11.9857C10.6655 12.6328 9.63285 13.6654 8.98571 14.9355C8.68379 15.5281 8.4764 16.3104 8.36515 17.672C8.25175 19.0599 8.25 20.8426 8.25 23.4V39.6C8.25 42.1573 8.25175 43.94 8.36515 45.3279C8.4764 46.6896 8.68379 47.4719 8.98571 48.0644C9.63285 49.3345 10.6655 50.3671 11.9356 51.0143C12.5281 51.3162 13.3104 51.5236 14.672 51.6348C16.0599 51.7482 17.8426 51.75 20.4 51.75H36.6C39.1574 51.75 40.9401 51.7482 42.328 51.6348C43.6896 51.5236 44.4719 51.3162 45.0644 51.0143C46.3345 50.3671 47.3671 49.3345 48.0143 48.0644C48.3162 47.4719 48.5236 46.6896 48.6349 45.3279C48.7482 43.94 48.75 42.1573 48.75 39.6V23.1848C48.75 21.9421 49.7574 20.9348 51 20.9348C52.2426 20.9348 53.25 21.9421 53.25 23.1848V39.6V39.6963V39.6964V39.6964V39.6964C53.25 42.1349 53.25 44.1017 53.1199 45.6944C52.9859 47.3343 52.7028 48.7747 52.0238 50.1074C50.9452 52.2242 49.2242 53.9452 47.1074 55.0238C45.7747 55.7028 44.3343 55.9859 42.6944 56.1199C41.1017 56.25 39.1349 56.25 36.6964 56.25H36.6964H36.6963H36.6963H36.6H20.4ZM15.75 20C15.75 18.7573 16.7574 17.75 18 17.75H39C40.2426 17.75 41.25 18.7573 41.25 20C41.25 21.2426 40.2426 22.25 39 22.25H18C16.7574 22.25 15.75 21.2426 15.75 20ZM18 27.75C16.7574 27.75 15.75 28.7573 15.75 30C15.75 31.2426 16.7574 32.25 18 32.25H29C30.2426 32.25 31.25 31.2426 31.25 30C31.25 28.7573 30.2426 27.75 29 27.75H18Z"
  />
</svg>
