<svg
  width="60"
  height="60"
  viewBox="0 0 60 60"
  fill="currentColor"
  xmlns="http://www.w3.org/2000/svg"
>
  <path
    fill-rule="evenodd"
    clip-rule="evenodd"
    d="M26.6256 13.6753H20.0626C18.591 13.6753 17.3575 13.6753 16.3436 13.7548C15.2823 13.8381 14.285 14.018 13.3258 14.4737C11.846 15.1769 10.609 16.3048 9.77256 17.7136C9.23039 18.6267 8.95942 19.6032 8.77879 20.6524C8.60624 21.6547 8.49269 22.8828 8.35721 24.3483L6.15474 48.1654C6.09995 48.7571 6.0463 49.3363 6.04369 49.8264C6.04085 50.3577 6.09023 51.0275 6.40543 51.7069C6.82834 52.6186 7.56063 53.3509 8.47227 53.7738C9.15173 54.089 9.82148 54.1384 10.3528 54.1355C10.8429 54.1329 11.4221 54.0793 12.0137 54.0245L35.831 51.822C37.2963 51.6865 38.5246 51.5729 39.5268 51.4004C40.576 51.2198 41.5525 50.9488 42.4656 50.4066C43.8744 49.5702 45.0023 48.3332 45.7054 46.8534C46.1612 45.8942 46.3411 44.8969 46.4244 43.8356C46.5039 42.8217 46.5039 41.5883 46.5039 40.1166L46.5039 33.4596L47.9253 32.6699C49.7358 31.6641 51.2253 30.8367 52.357 30.0691C53.5198 29.2803 54.5363 28.4068 55.2034 27.2113C56.206 25.4146 56.501 23.3081 56.0306 21.3051C55.7176 19.9723 54.9802 18.8531 54.0788 17.7753C53.2016 16.7264 51.9968 15.5217 50.5325 14.0574L46.0617 9.58659C44.5973 8.12215 43.3924 6.91722 42.3435 6.03999C41.2656 5.13856 40.1465 4.40117 38.8137 4.08816C36.8107 3.61775 34.7042 3.91278 32.9074 4.91536C31.7119 5.58247 30.8384 6.59893 30.0497 7.76179C29.2821 8.89345 28.4546 10.3829 27.4489 12.1933L26.6256 13.6753ZM27.4537 18.1753H20.1489C18.5684 18.1753 17.5125 18.1769 16.6955 18.241C15.9062 18.3029 15.5199 18.4134 15.2571 18.5383C14.5844 18.8579 14.0222 19.3705 13.642 20.0109C13.4934 20.2611 13.3479 20.6356 13.2135 21.4159C13.0745 22.2235 12.9757 23.2748 12.8301 24.8485L10.8621 46.131L16.3652 40.6098C17.2424 39.7296 18.667 39.7273 19.5472 40.6045C20.4273 41.4817 20.4296 42.9064 19.5524 43.7865L14.0391 49.318L35.3307 47.349C36.9044 47.2035 37.9557 47.1047 38.7633 46.9656C39.5436 46.8313 39.9181 46.6858 40.1683 46.5372C40.8087 46.157 41.3213 45.5948 41.6409 44.9221C41.7658 44.6593 41.8763 44.273 41.9382 43.4837C42.0023 42.6667 42.0039 41.6107 42.0039 40.0303V32.7255L27.4537 18.1753ZM44.8648 29.2224L45.6482 28.7871C47.5732 27.7177 48.8851 26.9865 49.8309 26.3449C50.7646 25.7116 51.1085 25.3147 51.2738 25.0185C51.7295 24.2019 51.8636 23.2444 51.6498 22.3339C51.5722 22.0037 51.3506 21.5276 50.6268 20.6622C49.8937 19.7855 48.8331 18.7219 47.276 17.1649L42.9539 12.8428C41.3968 11.2857 40.3332 10.2251 39.4566 9.49193C38.5912 8.76817 38.115 8.54651 37.7848 8.46897C36.8744 8.25515 35.9169 8.38925 35.1002 8.84497C34.804 9.01024 34.4071 9.35417 33.7738 10.2878C33.1323 11.2336 32.401 12.5456 31.3316 14.4705L30.8963 15.254L44.8648 29.2224Z"
  />
</svg>
