<svg
  width="60"
  height="60"
  viewBox="0 0 60 60"
  fill="currentColor"
  xmlns="http://www.w3.org/2000/svg"
>
  <path
    d="M18.75 34C18.75 32.7574 19.7574 31.75 21 31.75H39C40.2426 31.75 41.25 32.7574 41.25 34C41.25 35.2426 40.2426 36.25 39 36.25H21C19.7574 36.25 18.75 35.2426 18.75 34Z"
  />
  <path
    fill-rule="evenodd"
    clip-rule="evenodd"
    d="M23.2309 8.10619L28.5247 5.19411C30.0058 4.37928 31.2523 3.6936 32.2877 3.24177C33.3369 2.78389 34.499 2.41064 35.7432 2.55966C37.4841 2.76816 39.0573 3.69829 40.0791 5.1231C40.8093 6.14148 41.0424 7.33953 41.1469 8.47958C41.2501 9.60452 41.25 11.027 41.25 12.7175L41.25 20.4876C42.0065 21.0909 42.6533 21.868 43.4497 22.825L47.5344 27.7267C48.6332 29.0446 49.3941 29.9572 49.9458 31.0007C50.4336 31.9235 50.7906 32.9097 51.0066 33.9309C51.2508 35.0857 51.2505 36.2739 51.2501 37.9898L51.2501 47.6848C51.2501 48.7326 51.2502 49.6511 51.1881 50.4106C51.1222 51.2168 50.9754 52.0398 50.5689 52.8376C49.9697 54.0137 49.0135 54.9698 47.8375 55.569C47.0396 55.9755 46.2166 56.1224 45.4105 56.1882C44.651 56.2503 43.7325 56.2503 42.6847 56.2502H17.3154C16.2677 56.2503 15.3492 56.2503 14.5897 56.1882C13.7835 56.1224 12.9605 55.9755 12.1626 55.569C10.9866 54.9698 10.0305 54.0137 9.43128 52.8376C9.02475 52.0398 8.87791 51.2168 8.81204 50.4106C8.74999 49.6511 8.75003 48.7326 8.75007 47.6848L8.75004 37.9898C8.7496 36.2739 8.74929 35.0857 8.99354 33.9309C9.20951 32.9097 9.56656 31.9235 10.0544 31.0007C10.6061 29.9572 11.367 29.0446 12.4658 27.7266L16.5505 22.825C17.3468 21.8681 17.9936 21.091 18.75 20.4878V15.6852L18.7497 15.4356C18.748 14.3102 18.7464 13.2672 19.068 12.298C19.3493 11.4502 19.8091 10.6725 20.4164 10.0174C21.1106 9.26844 22.0252 8.76715 23.0121 8.22626L23.2309 8.10619ZM23.25 18.7894C23.8584 18.7492 24.5135 18.7496 25.2505 18.7501H34.7497C35.4866 18.7496 36.1416 18.7492 36.75 18.7894V12.8247C36.75 10.9987 36.7477 9.78491 36.6657 8.89051C36.5829 7.98752 36.4413 7.77215 36.4221 7.74549C36.136 7.34654 35.6955 7.08611 35.2081 7.02773C35.1755 7.02383 34.9185 7.0035 34.0874 7.36618C33.2643 7.7254 32.1997 8.30844 30.5998 9.18853L25.3998 12.049C24.0571 12.7876 23.85 12.9326 23.7166 13.0765C23.5465 13.26 23.4178 13.4777 23.339 13.7151C23.2772 13.9014 23.25 14.1527 23.25 15.6852V18.7894ZM25.4965 23.2502C23.7219 23.2502 23.2475 23.2683 22.8361 23.379C22.412 23.4931 22.0113 23.6808 21.6521 23.9335C21.3037 24.1787 20.9861 24.5316 19.8501 25.8948L16.0662 30.4355C14.7704 31.9904 14.3372 32.5279 14.0327 33.1039C13.74 33.6576 13.5257 34.2493 13.3962 34.862C13.2613 35.4994 13.2501 36.1897 13.2501 38.2137V47.6002C13.2501 48.7574 13.2518 49.49 13.2971 50.0442C13.3402 50.572 13.4114 50.7369 13.4408 50.7947C13.6086 51.124 13.8763 51.3917 14.2056 51.5595C14.2634 51.5889 14.4282 51.6601 14.9561 51.7032C15.5102 51.7485 16.2428 51.7502 17.4001 51.7502H42.6001C43.7573 51.7502 44.4899 51.7485 45.044 51.7032C45.5719 51.6601 45.7368 51.5889 45.7946 51.5595C46.1238 51.3917 46.3916 51.124 46.5593 50.7947C46.5888 50.7369 46.6599 50.572 46.703 50.0442C46.7483 49.49 46.7501 48.7574 46.7501 47.6002V38.2137C46.7501 36.1897 46.7388 35.4994 46.604 34.862C46.4744 34.2493 46.2602 33.6576 45.9675 33.1039C45.663 32.5279 45.2297 31.9904 43.934 30.4355L40.1501 25.8949C39.0141 24.5316 38.6964 24.1787 38.348 23.9335C37.9889 23.6808 37.5882 23.4931 37.1641 23.379C36.7527 23.2683 36.2782 23.2502 34.5037 23.2502H25.4965Z"
  />
</svg>
