<svg
  width="60"
  height="60"
  viewBox="0 0 60 60"
  fill="currentColor"
  xmlns="http://www.w3.org/2000/svg"
>
  <path
    d="M13.591 10.4093C12.7123 9.53057 11.2877 9.53057 10.409 10.4093C9.53033 11.2879 9.53033 12.7126 10.409 13.5912L26.818 30.0002L10.409 46.4092C9.53036 47.2879 9.53036 48.7125 10.409 49.5912C11.2877 50.4699 12.7123 50.4699 13.591 49.5912L30 33.1822L46.409 49.5912C47.2877 50.4699 48.7123 50.4699 49.591 49.5912C50.4696 48.7125 50.4696 47.2879 49.591 46.4092L33.182 30.0002L49.591 13.5912C50.4697 12.7126 50.4697 11.2879 49.591 10.4093C48.7123 9.53057 47.2877 9.53057 46.409 10.4093L30 26.8183L13.591 10.4093Z"
  />
</svg>
