<svg
  width="60"
  height="60"
  viewBox="0 0 60 60"
  fill="currentColor"
  xmlns="http://www.w3.org/2000/svg"
>
  <path
    d="M41.5906 18.409C42.4693 19.2877 42.4693 20.7123 41.5906 21.591L33.182 29.9997L41.5907 38.4084C42.4694 39.2871 42.4694 40.7117 41.5907 41.5904C40.7121 42.4691 39.2874 42.4691 38.4088 41.5904L30 33.1816L21.5912 41.5904C20.7126 42.4691 19.2879 42.4691 18.4093 41.5904C17.5306 40.7117 17.5306 39.2871 18.4093 38.4084L26.818 29.9997L18.4093 21.591C17.5307 20.7123 17.5307 19.2877 18.4093 18.409C19.288 17.5303 20.7127 17.5303 21.5913 18.409L30 26.8177L38.4087 18.409C39.2873 17.5303 40.712 17.5303 41.5906 18.409Z"
  />
  <path
    fill-rule="evenodd"
    clip-rule="evenodd"
    d="M2.75 30C2.75 14.9502 14.9502 2.75 30 2.75C45.0498 2.75 57.25 14.9502 57.25 30C57.25 45.0498 45.0498 57.25 30 57.25C14.9502 57.25 2.75 45.0498 2.75 30ZM30 7.25C17.4355 7.25 7.25 17.4355 7.25 30C7.25 42.5645 17.4355 52.75 30 52.75C42.5645 52.75 52.75 42.5645 52.75 30C52.75 17.4355 42.5645 7.25 30 7.25Z"
  />
</svg>
