<svg xmlns="http://www.w3.org/2000/svg" width="1em" height="1em" viewBox="0 0 14 14" fill="none">
  <path fill-rule="evenodd" clip-rule="evenodd"
    d="M2.85569 2.56455C1.94882 2.67296 1.2845 3.41694 1.2221 4.32811C1.16478 5.16551 1.1084 6.19392 1.1084 7.00016C1.1084 7.81273 1.16566 8.85099 1.22346 9.69187C1.28542 10.5935 1.93731 11.3305 2.83454 11.4386C3.78903 11.5535 5.18917 11.6668 7.00006 11.6668C8.81097 11.6668 10.2111 11.5535 11.1656 11.4386C12.0628 11.3305 12.7147 10.5935 12.7767 9.69187C12.8345 8.85099 12.8917 7.81273 12.8917 7.00016C12.8917 6.19392 12.8354 5.16551 12.778 4.32811C12.7156 3.41694 12.0513 2.67296 11.1444 2.56455C10.1752 2.44862 8.76755 2.3335 7.00006 2.3335C5.23259 2.3335 3.82491 2.44862 2.85569 2.56455ZM5.3084 8.21235V5.78809C5.3084 5.46914 5.67584 5.26623 5.97782 5.41838L8.58947 6.73442C8.91791 6.8999 8.90155 7.34247 8.56168 7.48671L5.95002 8.59493C5.64987 8.72231 5.3084 8.51865 5.3084 8.21235Z"
    fill="#1477F7" />
  <path fill-rule="evenodd" clip-rule="evenodd"
    d="M5.30835 8.21221V5.78796C5.30835 5.46901 5.6758 5.26609 5.97777 5.41825L8.58942 6.73428C8.91786 6.89977 8.9015 7.34234 8.56163 7.48658L5.94997 8.5948C5.64982 8.72217 5.30835 8.51852 5.30835 8.21221Z"
    fill="#8CD5B4" />
</svg>