<svg
  width="60"
  height="60"
  viewBox="0 0 60 60"
  fill="currentColor"
  xmlns="http://www.w3.org/2000/svg"
>
  <path
    fill-rule="evenodd"
    clip-rule="evenodd"
    d="M29.8166 55.25C29.8138 55.25 29.811 55.25 29.8082 55.25H21.3036C18.8652 55.25 16.8983 55.2501 15.3056 55.1199C13.6657 54.9859 12.2253 54.7029 10.8926 54.0238C8.77578 52.9453 7.05475 51.2242 5.97618 49.1074C5.29716 47.7748 5.01408 46.3343 4.88009 44.6944C4.74996 43.1017 4.74998 41.1349 4.75 38.6964V19.3037C4.74998 16.8652 4.74996 14.8983 4.88009 13.3056C5.01408 11.6657 5.29716 10.2253 5.97618 8.89262C7.05475 6.7758 8.77578 5.05477 10.8926 3.97619C12.2253 3.29717 13.6657 3.01409 15.3056 2.88011C16.8983 2.74998 18.8651 2.74999 21.3036 2.75002L34.1189 2.75001C34.9342 2.74992 35.4894 2.74986 35.9805 2.79283C41.4193 3.26866 45.7314 7.58074 46.2072 13.0195C46.2502 13.5107 46.2501 14.067 46.25 14.8843L46.25 24.75H47C51.5564 24.75 55.25 28.4437 55.25 33V47C55.25 51.5564 51.5563 55.25 47 55.25H29.8166ZM34.0037 7.25002C34.9773 7.25002 35.3193 7.25217 35.5883 7.2757C38.8516 7.5612 41.4388 10.1484 41.7243 13.4117C41.7478 13.6806 41.75 14.0238 41.75 15V24.75H24C19.4437 24.75 15.75 28.4437 15.75 33V47C15.75 48.3277 16.0637 49.5822 16.6209 50.6934C16.2841 50.6783 15.969 50.6591 15.672 50.6349C14.3104 50.5236 13.5281 50.3162 12.9356 50.0143C11.6655 49.3672 10.6329 48.3345 9.98571 47.0645C9.68379 46.4719 9.4764 45.6896 9.36515 44.328C9.25175 42.9401 9.25 41.1574 9.25 38.6V19.4C9.25 16.8427 9.25175 15.0599 9.36515 13.6721C9.4764 12.3104 9.68379 11.5281 9.98571 10.9356C10.6329 9.66549 11.6655 8.63287 12.9356 7.98572C13.5281 7.6838 14.3104 7.47641 15.672 7.36516C17.0599 7.25177 18.8426 7.25002 21.3999 7.25002H34.0037ZM20.25 33C20.25 30.9289 21.9289 29.25 24 29.25H47C49.0711 29.25 50.75 30.9289 50.75 33V47C50.75 49.0711 49.0711 50.75 47 50.75H24C21.9289 50.75 20.25 49.0711 20.25 47V33Z"
  />
  <path
    d="M40 37.768C41.3333 38.5378 41.3333 40.4622 40 41.2321L34.75 44.2631C33.4167 45.0329 31.75 44.0707 31.75 42.5311V36.4689C31.75 34.9293 33.4167 33.9671 34.75 34.7369L40 37.768Z"
  />
</svg>
