<svg
  width="60"
  height="60"
  viewBox="0 0 60 60"
  fill="currentColor"
  xmlns="http://www.w3.org/2000/svg"
>
  <path
    fill-rule="evenodd"
    clip-rule="evenodd"
    d="M17.6 5.75L17.5087 5.75H17.5086C15.9062 5.74997 14.5687 5.74995 13.476 5.83922C12.3363 5.93233 11.2664 6.13367 10.2546 6.6492C8.70224 7.44016 7.44016 8.70224 6.6492 10.2546C6.13367 11.2664 5.93233 12.3363 5.83922 13.476C5.74995 14.5687 5.74997 15.9062 5.75 17.5086V17.5087L5.75 17.6V21C5.75 22.2426 6.75736 23.25 8 23.25C9.24264 23.25 10.25 22.2426 10.25 21V17.6C10.25 15.8827 10.2518 14.7301 10.3243 13.8424C10.3947 12.9811 10.5203 12.5692 10.6587 12.2975C11.0183 11.5919 11.5919 11.0183 12.2975 10.6587C12.5692 10.5203 12.9811 10.3947 13.8424 10.3243C14.7301 10.2518 15.8827 10.25 17.6 10.25L21 10.25C22.2426 10.25 23.25 9.24264 23.25 8C23.25 6.75736 22.2426 5.75 21 5.75H17.6ZM42.4 10.25C44.1173 10.25 45.2699 10.2518 46.1576 10.3243C47.0189 10.3947 47.4308 10.5203 47.7025 10.6587C48.4081 11.0183 48.9818 11.5919 49.3413 12.2975C49.4797 12.5692 49.6054 12.9811 49.6757 13.8424C49.7482 14.7301 49.75 15.8827 49.75 17.6V21C49.75 22.2426 50.7574 23.25 52 23.25C53.2426 23.25 54.25 22.2426 54.25 21V17.6V17.5086C54.25 15.9062 54.2501 14.5687 54.1608 13.476C54.0677 12.3363 53.8663 11.2664 53.3508 10.2546C52.5598 8.70224 51.2978 7.44016 49.7454 6.6492C48.7336 6.13367 47.6637 5.93233 46.524 5.83922C45.4313 5.74995 44.0938 5.74997 42.4914 5.75H42.4913L42.4 5.75H39C37.7574 5.75 36.75 6.75736 36.75 8C36.75 9.24264 37.7574 10.25 39 10.25H42.4ZM10.25 39C10.25 37.7574 9.24264 36.75 8 36.75C6.75736 36.75 5.75 37.7574 5.75 39V42.4L5.75 42.4913V42.4914C5.74997 44.0938 5.74995 45.4313 5.83922 46.524C5.93233 47.6637 6.13367 48.7336 6.6492 49.7454C7.44016 51.2978 8.70224 52.5598 10.2546 53.3508C11.2664 53.8663 12.3363 54.0677 13.476 54.1608C14.5687 54.2501 15.9062 54.25 17.5086 54.25H17.6H21C22.2426 54.25 23.25 53.2426 23.25 52C23.25 50.7574 22.2426 49.75 21 49.75H17.6C15.8827 49.75 14.7301 49.7482 13.8424 49.6757C12.9811 49.6054 12.5692 49.4797 12.2975 49.3413C11.5919 48.9818 11.0183 48.4081 10.6587 47.7025C10.5203 47.4308 10.3947 47.0189 10.3243 46.1576C10.2518 45.2699 10.25 44.1173 10.25 42.4V39ZM54.25 39C54.25 37.7574 53.2426 36.75 52 36.75C50.7574 36.75 49.75 37.7574 49.75 39V42.4C49.75 44.1173 49.7482 45.2699 49.6757 46.1576C49.6054 47.0189 49.4797 47.4308 49.3413 47.7025C48.9818 48.4081 48.4081 48.9818 47.7025 49.3413C47.4308 49.4797 47.0189 49.6054 46.1576 49.6757C45.2699 49.7482 44.1173 49.75 42.4 49.75H39C37.7574 49.75 36.75 50.7574 36.75 52C36.75 53.2426 37.7574 54.25 39 54.25H42.4H42.4914C44.0938 54.25 45.4313 54.2501 46.524 54.1608C47.6637 54.0677 48.7336 53.8663 49.7454 53.3508C51.2978 52.5598 52.5598 51.2978 53.3508 49.7454C53.8663 48.7336 54.0677 47.6637 54.1608 46.524C54.2501 45.4313 54.25 44.0938 54.25 42.4914V42.4V39ZM20 17.75C18.7574 17.75 17.75 18.7574 17.75 20V40C17.75 41.2426 18.7574 42.25 20 42.25H40C41.2426 42.25 42.25 41.2426 42.25 40V20C42.25 18.7574 41.2426 17.75 40 17.75H20ZM22.25 37.75V22.25H37.75V37.75H22.25Z"
  />
</svg>
