<svg
  width="60"
  height="60"
  viewBox="0 0 60 60"
  fill="currentColor"
  xmlns="http://www.w3.org/2000/svg"
>
  <path
    fill-rule="evenodd"
    clip-rule="evenodd"
    d="M8.5 29.25C8.5 17.7901 17.7901 8.5 29.25 8.5C40.7099 8.5 50 17.7901 50 29.25C50 40.7099 40.7099 50 29.25 50C17.7901 50 8.5 40.7099 8.5 29.25ZM29.25 4C15.3048 4 4 15.3048 4 29.25C4 43.1952 15.3048 54.5 29.25 54.5C35.4125 54.5 41.0593 52.2924 45.4429 48.6248L50.659 53.841C51.5377 54.7197 52.9623 54.7197 53.841 53.841C54.7197 52.9623 54.7197 51.5377 53.841 50.659L48.6248 45.4429C52.2924 41.0593 54.5 35.4125 54.5 29.25C54.5 15.3048 43.1952 4 29.25 4ZM29.25 17C30.4926 17 31.5 18.0074 31.5 19.25V27H39.25C40.4926 27 41.5 28.0074 41.5 29.25C41.5 30.4926 40.4926 31.5 39.25 31.5H31.5V39.25C31.5 40.4926 30.4926 41.5 29.25 41.5C28.0074 41.5 27 40.4926 27 39.25V31.5H19.25C18.0074 31.5 17 30.4926 17 29.25C17 28.0074 18.0074 27 19.25 27H27V19.25C27 18.0074 28.0074 17 29.25 17Z"
  />
</svg>
